<svg xmlns="http://www.w3.org/2000/svg" viewBox="0 0 32 32"><defs><style>.cls-1{fill:none;}.cls-2{fill:#919191;}</style></defs><title>Device_Tablet_32px</title><g id="Square"><rect class="cls-1" width="32" height="32"/></g><g id="Icon"><path class="cls-2" d="M23,5H9A2,2,0,0,0,7,7V25a2,2,0,0,0,2,2H23a2,2,0,0,0,2-2V7A2,2,0,0,0,23,5ZM9,7H23V21H9ZM9,25V22H23v3Z"/><path class="cls-2" d="M16.35,23.15a.36.36,0,0,0-.16-.11.49.49,0,0,0-.54.11.47.47,0,0,0-.15.35.41.41,0,0,0,0,.19.36.36,0,0,0,.11.16A.45.45,0,0,0,16,24a.41.41,0,0,0,.19,0,.53.53,0,0,0,.27-.27.41.41,0,0,0,0-.19.43.43,0,0,0,0-.19A.36.36,0,0,0,16.35,23.15Z"/></g></svg>