<svg xmlns="http://www.w3.org/2000/svg" viewBox="0 0 32 32"><defs><style>.cls-1{fill:none;}.cls-2{fill:#999;}</style></defs><title>Instruction_Hygiene_Danger_32px</title><g id="Square"><rect class="cls-1" width="32" height="32"/></g><g id="Icon"><path class="cls-2" d="M28.7,24l-11-19a2,2,0,0,0-3.46,0L3.3,24A2,2,0,0,0,5,27H27a2,2,0,0,0,1.73-3ZM5,25,16,6,27,25Z"/><path class="cls-2" d="M15,12v6.5a1,1,0,0,0,2,0V12a1,1,0,0,0-2,0Z"/><path class="cls-2" d="M16.57,20.61l-.28-.08a1.42,1.42,0,0,0-.58,0l-.28.08-.26.14a2.11,2.11,0,0,0-.23.19,1.51,1.51,0,0,0,.49,2.45,1.56,1.56,0,0,0,.57.11A1.5,1.5,0,0,0,17.5,22a1.36,1.36,0,0,0,0-.29,1.31,1.31,0,0,0-.09-.28,1.26,1.26,0,0,0-.13-.26,2.11,2.11,0,0,0-.19-.23,1.45,1.45,0,0,0-.23-.19A1.59,1.59,0,0,0,16.57,20.61Z"/></g></svg>