<svg xmlns="http://www.w3.org/2000/svg" viewBox="0 0 32 32"><defs><style>.cls-1{fill:none;}.cls-2{fill:#999;}</style></defs><title>Instruction_Payment_NoContact_32px</title><g id="Square"><rect class="cls-1" width="32" height="32"/></g><g id="Icon"><path class="cls-2" d="M27,7H5A2,2,0,0,0,3,9V23a2,2,0,0,0,2,2H27a2,2,0,0,0,2-2V9A2,2,0,0,0,27,7Zm0,16H5V9H27Z"/><path class="cls-2" d="M7.5,19h4a1,1,0,0,0,1-1V14a1,1,0,0,0-1-1h-4a1,1,0,0,0-1,1v4A1,1,0,0,0,7.5,19Zm0-2.5H9V18H7.5Zm4,1.5H10V14h1.5ZM9,14v1.5H7.5V14Z"/><circle class="cls-2" cx="18" cy="16" r="1"/><path class="cls-2" d="M22.11,20.11a.52.52,0,0,0,.35.14.51.51,0,0,0,.36-.15,5.84,5.84,0,0,0,0-8.2.5.5,0,1,0-.72.7,4.83,4.83,0,0,1,0,6.8A.5.5,0,0,0,22.11,20.11Z"/><path class="cls-2" d="M20,18.34a.49.49,0,0,0,.35.14.51.51,0,0,0,.36-.15,3.31,3.31,0,0,0,0-4.66.5.5,0,1,0-.71.7,2.32,2.32,0,0,1,0,3.26A.5.5,0,0,0,20,18.34Z"/></g></svg>