<svg xmlns="http://www.w3.org/2000/svg" viewBox="0 0 32 32"><defs><style>.cls-1{fill:none;}.cls-2{fill:#999;}</style></defs><title>Instruction_Payment_Checkout_32px</title><g id="Square"><rect class="cls-1" width="32" height="32"/></g><g id="Icon"><path class="cls-2" d="M27,21h-.15L25.4,12.34A4,4,0,0,0,21.46,9H17V7h3a1,1,0,0,0,1-1V4a1,1,0,0,0-1-1H12a1,1,0,0,0-1,1V6a1,1,0,0,0,1,1h3V9H10.54A4,4,0,0,0,6.6,12.34L5.15,21H5a2,2,0,0,0-2,2v4a2,2,0,0,0,2,2H27a2,2,0,0,0,2-2V23A2,2,0,0,0,27,21ZM8.57,12.67a2,2,0,0,1,2-1.67H21.46a2,2,0,0,1,2,1.67L24.82,21H7.18ZM27,27H5V23H27Z"/><rect class="cls-2" x="10" y="14" width="12" height="3"/><path class="cls-2" d="M14,26h4a1,1,0,0,0,0-2H14a1,1,0,0,0,0,2Z"/></g></svg>