<svg xmlns="http://www.w3.org/2000/svg" viewBox="0 0 32 32"><defs><style>.cls-1{fill:none;}.cls-2{fill:#999;}</style></defs><title>Instruction_Universe_EssentialProduct_32px</title><g id="Square"><rect class="cls-1" width="32" height="32"/></g><g id="Icon"><path class="cls-2" d="M27,19.26V10.78a2,2,0,0,0-.94-1.7l-9-5.6a2,2,0,0,0-2.12,0l-9,5.6A2,2,0,0,0,5,10.78V21.22a2,2,0,0,0,.94,1.7l9,5.6a2,2,0,0,0,2.12,0l2.29-1.43A5.49,5.49,0,1,0,27,19.26ZM16,5.18l8.11,5.05L21.27,12l-8.11-5Zm0,10.1-8.11-5,3.38-2.11,8.11,5.05ZM7,21.22V12l8,5V26.2Zm10,5V17l8-5v6.18A5.72,5.72,0,0,0,23.5,18a5.49,5.49,0,0,0-5.17,7.37Zm6.5.8A3.5,3.5,0,1,1,27,23.5,3.5,3.5,0,0,1,23.5,27Z"/><polygon class="cls-2" points="24.5 21 22.5 21 22.5 22.5 21 22.5 21 24.5 22.5 24.5 22.5 26 24.5 26 24.5 24.5 26 24.5 26 22.5 24.5 22.5 24.5 21"/></g></svg>