<svg xmlns="http://www.w3.org/2000/svg" viewBox="0 0 32 32"><defs><style>.cls-1{fill:none;}.cls-2{fill:#999;}</style></defs><title>Instruction_Service_PurchaseHelp_Car--OpenBoot_32px</title><g id="Square"><rect class="cls-1" width="32" height="32"/></g><g id="Icon"><path class="cls-2" d="M27.36,12.87,23,12.06,20.21,9.72A3,3,0,0,0,18.26,9H13.07a3,3,0,0,0-1.59.46l-.37.23-4.4-4.4a1,1,0,0,0-1.42,0l-1,1A1,1,0,0,0,5.71,7.71L6,7.41l3.37,3.37-.82.51a2.86,2.86,0,0,1-.94.38l-3,.68A2,2,0,0,0,3,14.3v2.31a2,2,0,0,0,1.78,2L7,18.85A3,3,0,0,0,13,19h6.6a3,3,0,0,0,5.9,0H27a2,2,0,0,0,2-2V14.83A2,2,0,0,0,27.36,12.87ZM10,19.5a1,1,0,1,1,1-1A1,1,0,0,1,10,19.5Zm12.5,0a1,1,0,1,1,1-1A1,1,0,0,1,22.5,19.5ZM27,17H25.08a3,3,0,0,0-5.16,0H12.58a3,3,0,0,0-5.1-.12L5,16.61V14.3l3-.68A4.69,4.69,0,0,0,9.61,13l2.93-1.83a1,1,0,0,1,.53-.15h5.19a1,1,0,0,1,.65.24l3.14,2.7,4.95.89Z"/><path class="cls-2" d="M28,23H4a1,1,0,0,0,0,2H28a1,1,0,0,0,0-2Z"/></g></svg>