<svg xmlns="http://www.w3.org/2000/svg" viewBox="0 0 32 32"><defs><style>.cls-1{fill:none;}.cls-2{fill:#999;}</style></defs><title>Instruction_Service_PurchaseHelp_Loading_32px</title><g id="Square"><rect class="cls-1" width="32" height="32"/></g><g id="Icon"><path class="cls-2" d="M28,23.5a1,1,0,0,0-1,1V27H5V24.5a1,1,0,0,0-2,0V27a2,2,0,0,0,2,2H27a2,2,0,0,0,2-2V24.5A1,1,0,0,0,28,23.5Z"/><path class="cls-2" d="M16,16.9a.5.5,0,0,0-.5.5v6.17l-2.22-1.49a.5.5,0,0,0-.56.84l3,2a.53.53,0,0,0,.56,0l3-2a.5.5,0,1,0-.56-.84L16.5,23.57V17.4A.5.5,0,0,0,16,16.9Z"/><path class="cls-2" d="M7.94,19.14l1.53,1a1,1,0,0,0,1.06-1.7L9,17.45V10.8l5.94,3.72a2,2,0,0,0,2.12,0L23,10.8v6.65l-1.53.95a1,1,0,0,0-.32,1.38,1,1,0,0,0,1.38.32l1.53-1A2,2,0,0,0,25,17.45V9.55a2,2,0,0,0-.94-1.69l-7-4.38a2,2,0,0,0-2.12,0l-7,4.38A2,2,0,0,0,7,9.55v7.9A2,2,0,0,0,7.94,19.14ZM16,12.82,9.89,9,12,7.68l6.11,3.82Zm0-7.64L22.11,9,20,10.32,13.89,6.5Z"/></g></svg>