<svg xmlns="http://www.w3.org/2000/svg" viewBox="0 0 32 32"><defs><style>.cls-1{fill:none;}.cls-2{fill:#999;}</style></defs><title>Instruction_Hygiene_Distance_32px</title><g id="Square"><rect class="cls-1" width="32" height="32"/></g><g id="Icon"><path class="cls-2" d="M4,3A1,1,0,0,0,3,4V28a1,1,0,0,0,2,0V4A1,1,0,0,0,4,3Z"/><path class="cls-2" d="M28,3a1,1,0,0,0-1,1V28a1,1,0,0,0,2,0V4A1,1,0,0,0,28,3Z"/><path class="cls-2" d="M22.71,12.29a1,1,0,0,0-1.42,1.42L22.59,15H9.41l1.3-1.29a1,1,0,0,0-1.42-1.42l-3,3a1,1,0,0,0,0,1.42l3,3a1,1,0,0,0,1.42,0,1,1,0,0,0,0-1.42L9.41,17H22.59l-1.3,1.29a1,1,0,0,0,0,1.42,1,1,0,0,0,1.42,0l3-3a1,1,0,0,0,0-1.42Z"/></g></svg>