<svg xmlns="http://www.w3.org/2000/svg" viewBox="0 0 32 32"><defs><style>.cls-1{fill:none;}.cls-2{fill:#999;}</style></defs><title>Instruction_Hygiene_NoContact_32px</title><g id="Square"><rect class="cls-1" width="32" height="32"/></g><g id="Icon"><path class="cls-2" d="M16,3A13,13,0,1,0,29,16,13,13,0,0,0,16,3Zm0,2a10.93,10.93,0,0,1,7,2.55l-3.94,4h-.16A2.08,2.08,0,0,0,19,11a2,2,0,0,0-2-2H13.75A6.74,6.74,0,0,0,9.56,21l-2,2A11,11,0,0,1,16,5Zm6.25,11.5H17.5a.5.5,0,0,0,0,1h4.75a.75.75,0,0,1,0,1.5H17.5a.5.5,0,0,0,0,1h2.75a.75.75,0,0,1,0,1.5h-6.5a5.63,5.63,0,0,1-1.6-.23L18.41,15h5.84a.75.75,0,0,1,0,1.5ZM8,15.75A5.76,5.76,0,0,1,13.75,10H17a1,1,0,0,1,0,2H14v.5A2.5,2.5,0,0,1,11.5,15a.5.5,0,0,0,0,1A3.5,3.5,0,0,0,15,13h2a2,2,0,0,0,.73-.14l-7.46,7.46A5.75,5.75,0,0,1,8,15.75ZM22.25,14H19.41l1.5-1.5h1.34a.75.75,0,0,1,0,1.5ZM16,27a10.93,10.93,0,0,1-7-2.55l2.39-2.4a6.55,6.55,0,0,0,2.39.45h6.5A1.76,1.76,0,0,0,22,20.75a1.73,1.73,0,0,0-.18-.75h.43A1.76,1.76,0,0,0,24,18.25a1.73,1.73,0,0,0-.18-.75h.43a1.75,1.75,0,0,0,0-3.5h-.43a1.73,1.73,0,0,0,.18-.75,1.76,1.76,0,0,0-1.75-1.75h-.34L24.45,9A11,11,0,0,1,16,27Z"/></g></svg>