<svg xmlns="http://www.w3.org/2000/svg" viewBox="0 0 98 48">
    <g id="Square"> </g>
  <path d="M28.096 34.596a4.959 4.959 0 1 1 0-9.918 4.959 4.959 0 0 1 0 9.918Z"/>
  <path fill-rule="evenodd" d="M8.333 2H90.47a5.43 5.43 0 0 1 5.427 5.42v33.16A5.43 5.43 0 0 1 90.47 46H8.333a5.43 5.43 0 0 1-5.426-5.42V7.42A5.43 5.43 0 0 1 8.333 2Zm30.066 10.236a4.86 4.86 0 1 0-9.719-.063 4.86 4.86 0 0 0 9.719.063Zm-10.303 7.1c-1.7-.003-3.375.417-4.873 1.222V8.904h-5.432v20.733a10.304 10.304 0 1 0 10.305-10.302ZM42.218 8.902h5.432v30.82h-5.432V8.904Zm15.684 10.634H52.47v20.187h5.432V19.537Zm24.866 20.188H75.77l-7.623-10.773.004 10.773h-5.433V8.907h5.433v20.019l7.486-9.388h6.346l-7.623 9.33 8.407 10.857Z"/>
</svg>
