<svg xmlns="http://www.w3.org/2000/svg" viewBox="0 0 82 32">
  <g id="Square"> </g>
  <path d="M26.514 14.691c-2.67 0-4.842-2.212-4.842-5.03 0-2.82 2.172-5.037 4.842-5.037 2.651 0 4.837 2.217 4.837 5.036 0 2.819-2.186 5.031-4.837 5.031Zm0-12.683c-4.202 0-7.491 3.36-7.491 7.652 0 4.29 3.29 7.652 7.49 7.652 4.192 0 7.48-3.362 7.48-7.652-.002-4.295-3.291-7.652-7.48-7.652Zm38.525 7.449c-.025-4.098-3.276-7.432-7.251-7.432-4.092 0-7.3 3.345-7.3 7.616 0 2.006.754 3.908 2.11 5.363 1.381 1.471 3.203 2.28 5.141 2.28 2.213 0 5.31-1.08 6.786-4.15l.038-.098h-2.967l-.018.022c-.797.969-2.3 1.625-3.731 1.625-1.82 0-4-1.222-4.597-3.977h11.732a16.3 16.3 0 0 0 .057-1.249ZM53.336 8.271c.36-1.847 2.096-3.65 4.43-3.65 2.331 0 4.065 1.803 4.423 3.65h-8.853ZM42.26 4.536c-2.643 0-3.99 1.444-3.99 4.298v8.456h-2.715V8.634c.027-1.518.29-2.591.899-3.598C37.172 3.905 38.882 2 42.26 2c3.37 0 5.082 1.905 5.8 3.036.603 1.007.875 2.08.891 3.598v8.656h-2.713V8.834c0-2.857-1.335-4.298-3.978-4.298Zm36.894-2.528-7.916 19.68h-2.824l2.191-5.46-5.848-14.22h2.982l4.282 10.69 4.29-10.69h2.843ZM10.016 24.603c0 .613-.138 1.157-.414 1.636a2.668 2.668 0 0 1-1.136 1.08L9.92 30H7.742l-1.303-2.343H5.434V30H3.515v-8.451h3.53c.86 0 1.57.287 2.131.863.558.575.84 1.304.84 2.191Zm-4.582-1.462v2.922h1.313c.388 0 .704-.136.954-.41.25-.275.373-.624.373-1.05 0-.426-.125-.777-.373-1.05a1.227 1.227 0 0 0-.954-.41H5.434v-.002ZM16.372 30l-.284-1.025h-2.935L12.87 30h-2.024l2.806-8.451h1.93L18.398 30h-2.027Zm-2.792-2.56h2.084l-1.042-3.755-1.042 3.755ZM20.328 30v-6.712h-2.274v-1.74h6.464v1.74h-2.284V30h-1.906Zm10.454-8.451h2.12L28.791 30H26.66l1.54-3.188-2.938-5.263h2.227l1.763 3.333 1.53-3.333Zm-20.613-4.277c4.129 0 7.476-3.413 7.476-7.624 0-4.21-3.347-7.623-7.476-7.623-4.13 0-7.477 3.413-7.477 7.623 0 4.21 3.348 7.624 7.477 7.624Z"/>
  <path fill="#fff" d="M13.336 7.734H12.07v-.688c0-.891-.71-1.616-1.585-1.616h-.937c-.874 0-1.585.725-1.585 1.616v.688H6.697a.326.326 0 0 0-.323.33c0 .181.145.328.323.328h6.641c.01 0 .022.005.03.014l-1.057 4.564a.351.351 0 0 0-.006.117.04.04 0 0 1-.011.035.044.044 0 0 1-.035.015H7.811a.326.326 0 0 0-.323.33c0 .182.144.329.323.329h4.448a.682.682 0 0 0 .517-.237.715.715 0 0 0 .175-.485l1.065-4.607a.35.35 0 0 0 .007-.116.698.698 0 0 0-.687-.617Zm-4.727-.688a.95.95 0 0 1 .94-.957h.938a.95.95 0 0 1 .939.957v.688H8.609v-.688Z"/>
  <path fill="#fff" d="M8.295 12.147a.257.257 0 0 0-.254-.259h-1.45a.257.257 0 0 0-.253.26c0 .142.114.258.254.258H8.04c.14 0 .254-.116.254-.259ZM6.536 9.73h1.449c.14 0 .254-.117.254-.26a.257.257 0 0 0-.254-.259h-1.45a.257.257 0 0 0-.253.26c0 .142.114.259.254.259Zm2.306 1.095a.257.257 0 0 0-.254-.259H5.367a.257.257 0 0 0-.254.26c0 .142.114.258.254.258h3.219a.255.255 0 0 0 .256-.259Z"/>
</svg>
