<svg viewBox="0 0 37 36" xmlns="http://www.w3.org/2000/svg">
<g id="Square"> </g>
<path fill-rule="evenodd" clip-rule="evenodd" d="M19.2669 3.92391C19.5664 4.24038 19.8639 4.55897 20.1588 4.87534L20.6402 5.37996C20.6769 5.41846 20.7112 5.45951 20.7377 5.49614L19.8846 6.39775C19.2156 5.66878 17.8319 4.10368 17.7755 4.03993L17.7753 4.1444L17.7755 4.16139L17.7752 14.4444H16.5889V4.16139L16.5891 4.14443L16.5888 4.03993C16.5325 4.10368 15.1488 5.66878 14.4797 6.39775C14.1618 6.06175 13.8916 5.77622 13.6266 5.48926C13.6345 5.48042 13.643 5.47059 13.6521 5.46013C13.6737 5.43535 13.6983 5.40703 13.7241 5.37996L14.2056 4.87531C14.5004 4.55895 14.7979 4.24038 15.0975 3.92391C15.505 3.49341 15.9154 3.06604 16.3258 2.63866C16.446 2.51358 16.5661 2.38849 16.6862 2.26333C16.8568 2.08545 17.0194 1.99773 17.1822 2.00004C17.345 1.99773 17.5076 2.08545 17.6782 2.26333C17.7982 2.38843 17.9183 2.51344 18.0383 2.63846C18.4488 3.0659 18.8594 3.49335 19.2669 3.92391ZM13.2727 14.6319H6.13071C5.553 14.6319 4.98719 14.4696 4.49749 14.1728V30.333C4.49749 31.5055 5.44538 32.4593 6.61159 32.4593H28.7136C29.3494 32.4593 29.8667 31.9385 29.8667 31.2983V29.9278C29.8667 29.5026 30.2111 29.1575 30.6355 29.1575C31.0599 29.1575 31.4043 29.5026 31.4043 29.9278V31.2983C31.4043 32.7882 30.1973 34 28.7136 34H6.61159C4.5982 34 2.95996 32.3553 2.95996 30.333V11.6594C2.95996 11.633 2.96128 11.607 2.96386 11.5813C2.95635 11.4279 2.95964 11.273 2.97411 11.118C3.12556 9.49412 4.55856 8.22223 6.23449 8.22223H13.2727C13.697 8.22223 14.0414 8.55923 14.0414 8.97438C14.0414 9.38957 13.697 9.72652 13.2727 9.72652H6.23449C5.34502 9.72652 4.58547 10.3982 4.50474 11.2549C4.45862 11.7573 4.62391 12.2514 4.95909 12.611C5.26968 12.9442 5.68636 13.1277 6.13071 13.1277H13.2727C13.697 13.1277 14.0414 13.4646 14.0414 13.8798C14.0414 14.2949 13.697 14.6319 13.2727 14.6319ZM30.6355 18C30.2111 18 29.8667 17.663 29.8667 17.2478V15.8413C29.8667 15.1749 29.3501 14.6319 28.7135 14.6319H20.7529C20.3285 14.6319 19.9841 14.2949 19.9841 13.8798C19.9841 13.4646 20.3285 13.1277 20.7529 13.1277H27.9448V10.9367C27.9448 10.2696 27.4281 9.72652 26.7916 9.72652H20.4453C20.021 9.72652 19.6766 9.38957 19.6766 8.97438C19.6766 8.55923 20.021 8.22223 20.4453 8.22223H26.7916C28.2753 8.22223 29.4823 9.43997 29.4823 10.9367V13.16C29.4823 13.1871 29.4808 13.2134 29.4785 13.239C30.5909 13.5722 31.4043 14.6131 31.4043 15.8413V17.2478C31.4043 17.663 31.0606 18 30.6355 18ZM21.7742 20.5186C20.8962 20.5186 20.0591 20.9284 19.477 21.6438C18.885 22.3714 18.626 23.3386 18.7659 24.2984C18.9939 25.8596 20.3365 27.037 21.8879 27.037H33.2347C33.3336 27.037 33.414 26.9458 33.414 26.8333V20.7223C33.414 20.6098 33.3328 20.5186 33.2323 20.5186H21.7742ZM33.2347 28.6667H21.8878C19.5806 28.6667 17.581 26.8953 17.2378 24.5461C17.0291 23.1161 17.4179 21.6723 18.3037 20.5829C19.1802 19.5066 20.4448 18.8889 21.7742 18.8889H33.2323C34.1846 18.8889 34.9599 19.7111 34.9599 20.7223V26.8333C34.9599 27.8445 34.1862 28.6667 33.2347 28.6667ZM22.0708 23.0372C21.6627 23.0372 21.3301 23.3698 21.3301 23.7779C21.3301 24.1861 21.6627 24.5186 22.0708 24.5186C22.479 24.5186 22.8116 24.1861 22.8116 23.7779C22.8116 23.3698 22.479 23.0372 22.0708 23.0372ZM22.0708 26.0001C20.8456 26.0001 19.8486 25.003 19.8486 23.7779C19.8486 22.5527 20.8456 21.5557 22.0708 21.5557C23.296 21.5557 24.2931 22.5527 24.2931 23.7779C24.2931 25.003 23.296 26.0001 22.0708 26.0001Z" />
</svg>
