<svg xmlns="http://www.w3.org/2000/svg" viewBox="0 0 150 33">
      <g id="Square"> </g>
  <path d="M62.413 10.65a1.222 1.222 0 0 1 2.44 0v6.558a5.438 5.43
    z8 0 0 1-1.601 3.844 5.487 5.487 0 0 1-3.86 1.599 5.488 5.488 0 0 1-3.861-1.594 5.438 5.438 0 0 1-1.606-3.842v-6.557a1.209 1.209 0 0 1 .728-1.206 1.224 1.224 0 0 1 1.64.713c.055.158.077.326.064.493v6.557c.008.8.331 1.565.9 2.13a3.07 3.07 0 0 0 2.143.891 3.057 3.057 0 0 0 2.144-.891 3.029 3.029 0 0 0 .89-2.137l-.02-6.558Zm11.538 9.579c.324 0 .634.128.863.356a1.212 1.212 0 0 1-.863 2.073h-3.387a4.581 4.581 0 0 1-3.232-1.333 4.54 4.54 0 0 1-1.338-3.217V10.65c0-.32.127-.627.355-.854a1.216 1.216 0 0 1 2.07.854v7.443c0 .569.227 1.114.63 1.515a2.16 2.16 0 0 0 1.522.628h3.38v-.007Zm-20.5 1.079a1.21 1.21 0 0 1-.587 1.266 1.223 1.223 0 0 1-1.83-.98l-1.041-8.737-3.724 8.572a1.218 1.218 0 0 1-2.232 0l-3.724-8.571-1.047 8.735a1.211 1.211 0 0 1-.87 1.095 1.225 1.225 0 0 1-1.329-.442 1.212 1.212 0 0 1-.22-.938l1.228-10.143a1.946 1.946 0 0 1 1.069-1.508c.076-.041.155-.077.236-.107h.094a1.57 1.57 0 0 1 .359-.078 2.083 2.083 0 0 1 1.7.535 1.995 1.995 0 0 1 .388.507c.026.044.05.09.071.136l3.157 7.286 3.158-7.343a2.001 2.001 0 0 1 1.435-1.15 2.88 2.88 0 0 1 .358-.05h.373a2.058 2.058 0 0 1 1.522.964c.068.11.123.228.165.35.03.076.051.155.064.236.004.052.004.105 0 .157l1.227 10.208Zm25.809.136c0 .322-.128.63-.357.858a1.223 1.223 0 0 1-2.082-.858v-9.58h-3.465a1.212 1.212 0 1 1 0-2.429h9.37c.324.001.634.129.863.357a1.211 1.211 0 0 1 0 1.717 1.223 1.223 0 0 1-.863.356h-3.465v9.579Zm7.606 0c0 .322-.128.63-.357.858a1.223 1.223 0 0 1-2.082-.858V10.65c0-.322.128-.63.357-.858a1.223 1.223 0 0 1 2.082.858v10.794Zm24.978-.136a1.213 1.213 0 0 1-1.07 1.286 1.225 1.225 0 0 1-.873-.23 1.21 1.21 0 0 1-.475-.763l-.431-3.429h-4.19a1.227 1.227 0 0 1-1.212-.724 1.215 1.215 0 0 1 .289-1.377 1.225 1.225 0 0 1 .923-.32h3.917l-.114-.893v-.086a4.89 4.89 0 0 0-.137-.621 3.944 3.944 0 0 0-.251-.636 2.777 2.777 0 0 0-2.468-1.636 2.88 2.88 0 0 0-.617.072c-.19.047-.373.116-.546.207a3.402 3.402 0 0 0-1.693 2.7l-.761 6.743a1.19 1.19 0 0 1-.446.81 1.221 1.221 0 0 1-1.343.116 1.202 1.202 0 0 1-.621-1.19l.76-6.743a5.793 5.793 0 0 1 3.007-4.6 5.018 5.018 0 0 1 1.076-.393c.388-.09.785-.136 1.184-.136a5.147 5.147 0 0 1 2.754.816 5.112 5.112 0 0 1 1.881 2.162c.166.332.305.676.416 1.03.094.325.163.656.208.992a.276.276 0 0 1 0 .107l.833 6.736Zm3.723.136a1.212 1.212 0 0 1-1.216 1.307 1.223 1.223 0 0 1-1.152-.815 1.212 1.212 0 0 1-.064-.492v-10a1.024 1.024 0 0 1 0-.208 1.77 1.77 0 0 1 .093-.393l.101-.214c.21-.372.549-.654.954-.793l.165-.043h.452a1.73 1.73 0 0 1 1.284.657l6.458 8.236V10.65a1.214 1.214 0 0 1 1.22-1.214 1.22 1.22 0 0 1 1.22 1.214v10a1.707 1.707 0 0 1-.639 1.322 1.563 1.563 0 0 1-.402.243l-.1.043a1.722 1.722 0 0 1-1.306-.072l-.158-.078a1.437 1.437 0 0 1-.237-.186 1.64 1.64 0 0 1-.158-.157l-.043-.05-6.472-8.264v7.993Zm19.029-1.214c.324 0 .634.127.863.355a1.21 1.21 0 0 1 0 1.717 1.223 1.223 0 0 1-.863.356h-3.587a4.815 4.815 0 0 1-3.395-1.4 4.769 4.769 0 0 1-1.406-3.379v-3.65a4.782 4.782 0 0 1 1.411-3.375 4.825 4.825 0 0 1 3.39-1.404h3.587c.324 0 .634.128.863.356a1.21 1.21 0 0 1 0 1.717 1.223 1.223 0 0 1-.863.356h-3.587a2.393 2.393 0 0 0-1.679.714 2.333 2.333 0 0 0-.718 1.665v3.65a2.37 2.37 0 0 0 .7 1.667 2.394 2.394 0 0 0 1.675.697h3.588l.021-.043Zm7.054-8.372a3.326 3.326 0 0 0-2.304.914 2.962 2.962 0 0 0-.939 2.143v2.264a2.948 2.948 0 0 0 .932 2.143c.62.59 1.446.918 2.304.915a3.323 3.323 0 0 0 2.303-.915 2.963 2.963 0 0 0 .94-2.143v-2.264a2.98 2.98 0 0 0-.933-2.143 3.359 3.359 0 0 0-2.31-.914m0-2.422a5.755 5.755 0 0 1 3.989 1.586 5.354 5.354 0 0 1 1.686 3.886v2.264a5.348 5.348 0 0 1-.443 2.115 5.387 5.387 0 0 1-1.243 1.77 5.756 5.756 0 0 1-3.989 1.587 5.756 5.756 0 0 1-3.99-1.586 5.393 5.393 0 0 1-1.679-3.886v-2.264a5.393 5.393 0 0 1 1.679-3.886 5.756 5.756 0 0 1 3.99-1.586Zm-51.325 2.429v8.364h4.707a1.533 1.533 0 0 0 1.414-.944 1.52 1.52 0 0 0 .114-.584 1.51 1.51 0 0 0-.401-1.029l-.05-.043a1.501 1.501 0 0 0-1.077-.457h-1.622c-.323 0-.633-.128-.862-.356a1.211 1.211 0 0 1 0-1.717c.229-.228.539-.356.862-.356h.553a1.5 1.5 0 0 0 .918-.421 1.43 1.43 0 0 0 .43-1.021c0-.38-.15-.743-.42-1.01a1.438 1.438 0 0 0-1.014-.42h-3.552v-.006Zm-2.44 4.107V10.7c0-.164.034-.327.1-.478.068-.156.163-.299.28-.422.218-.207.504-.328.804-.342h4.772a3.89 3.89 0 0 1 2.745 1.131 3.855 3.855 0 0 1 1.137 2.733 3.895 3.895 0 0 1-.596 2.057c.26.153.5.335.718.543l.079.086A3.92 3.92 0 0 1 99 18.715a3.94 3.94 0 0 1-1.162 2.786 3.977 3.977 0 0 1-2.799 1.157H89.1a1.22 1.22 0 0 1-.863-.356 1.211 1.211 0 0 1-.358-.858v-5.472Z"/>
  <path fill-rule="evenodd" d="M17.221 30.004h12.101c2.761 0 2.79-2.923 2.508-4.365-.153-.97-1.81-.955-1.992 0v1.125a.936.936 0 0 1-.94.936H5.7a.936.936 0 0 1-.94-.936V25.64c-.182-.955-1.838-.97-1.992 0-.282 1.442-.253 4.365 2.508 4.365H17.22ZM8.668 2.002h18.656c1.311 0 2.384 1.13 2.384 2.512v1.2c0 1.696-2.303 1.689-2.303.011v-.653a.762.762 0 0 0-.768-.764H7.943a.77.77 0 0 0-.768.764v.642c0 1.687-2.199 1.675-2.199.036V4.516c.006-1.381 1.077-2.514 2.387-2.514h1.305Zm20.57 13.795a3.68 3.68 0 0 1 1.573 1.328 3.66 3.66 0 0 1 .61 1.961c0 2.021-1.773 3.676-3.94 3.676h-6.077a.998.998 0 0 1-1.032-.955V10.29a1.01 1.01 0 0 1 .299-.713 1.02 1.02 0 0 1 .716-.296h5.06a3.875 3.875 0 0 1 2.135.635 3.85 3.85 0 0 1 1.428 1.703 3.83 3.83 0 0 1-.772 4.177Zm-4.535-.937h1.929v-.02a1.846 1.846 0 0 0 1.112-.618c.286-.33.444-.752.446-1.188a1.828 1.828 0 0 0-.54-1.29 1.844 1.844 0 0 0-1.295-.536H22.47v9.552h4.926a1.902 1.902 0 0 0 1.807-1.15 1.88 1.88 0 0 0-.427-2.092 1.897 1.897 0 0 0-1.38-.531h-2.692a1.069 1.069 0 0 1-.984-.655 1.056 1.056 0 0 1 .577-1.385 1.07 1.07 0 0 1 .407-.08"/>
  <path d="M19.407 21.614a1.21 1.21 0 0 1-.614 1.235 1.226 1.226 0 0 1-1.682-.511 1.212 1.212 0 0 1-.13-.468l-1.003-9.153-3.533 8.95v.109a1.172 1.172 0 0 1-.305.348l-.019.015a1.105 1.105 0 0 1-.211.149l-.023.011-.021.012h-.121c-.115.04-.235.063-.357.067H11.3a1.172 1.172 0 0 1-.4-.082h-.1l-.02-.012-.02-.011h-.011a1.145 1.145 0 0 1-.192-.128l-.04-.037-.03-.028-.074-.02-.036-.04a1.143 1.143 0 0 1-.129-.19v-.012l-.011-.02-.012-.02v-.09l-3.598-8.971-1 9.153c-.034.32-.194.613-.446.815a1.222 1.222 0 0 1-1.713-.18 1.21 1.21 0 0 1-.264-.891l1.178-10.79a2.006 2.006 0 0 1 .857-1.432c.264-.182.567-.299.885-.34h.065c.103-.009.207-.009.31 0a2.005 2.005 0 0 1 1.787 1.268l3.02 7.599 3.014-7.624a1.998 1.998 0 0 1 1.787-1.269c.102-.007.206-.007.309 0h.065a2.031 2.031 0 0 1 1.516 1.047 1.969 1.969 0 0 1 .226.734l1.184 10.807Z"/>
</svg>
