<svg xmlns="http://www.w3.org/2000/svg" viewBox="0 0 32 32"><defs><style>.cls-1{fill:none;}.cls-2{fill:#919191;}</style></defs><title>Media_Pdf_32px</title><g id="Square"><rect class="cls-1" width="32" height="32"/></g><g id="Icon"><path class="cls-2" d="M12.44,21H11.1v4H12V23.67h.44a1.53,1.53,0,0,0,1.06-.36,1.23,1.23,0,0,0,.41-1,1.21,1.21,0,0,0-.4-1A1.54,1.54,0,0,0,12.44,21Zm.38,1.76a.64.64,0,0,1-.45.15H12V21.76h.4a.62.62,0,0,1,.44.15.5.5,0,0,1,.16.41A.57.57,0,0,1,12.82,22.76Z"/><path class="cls-2" d="M17.36,21.67a1.41,1.41,0,0,0-.38-.39,1.86,1.86,0,0,0-.5-.22,2.22,2.22,0,0,0-.59-.07H14.5v4h1.39a2.22,2.22,0,0,0,.59-.07,1.52,1.52,0,0,0,.5-.23,1.29,1.29,0,0,0,.38-.39,1.7,1.7,0,0,0,.25-.56A3,3,0,0,0,17.7,23a2.86,2.86,0,0,0-.09-.75A1.67,1.67,0,0,0,17.36,21.67Zm-.62,1.84a1.27,1.27,0,0,1-.15.35.66.66,0,0,1-.22.22.8.8,0,0,1-.27.12,1.39,1.39,0,0,1-.3,0h-.41V21.76h.41a1.39,1.39,0,0,1,.3,0,1,1,0,0,1,.27.11.66.66,0,0,1,.22.22,1.22,1.22,0,0,1,.15.36,2.59,2.59,0,0,1,.05.51A2.62,2.62,0,0,1,16.74,23.51Z"/><polygon class="cls-2" points="18.5 25 19.37 25 19.37 23.46 20.72 23.46 20.72 22.72 19.37 22.72 19.37 21.76 21 21.76 21 20.99 18.5 20.99 18.5 25"/><path class="cls-2" d="M25,9.67a1,1,0,0,0-.27-.88l-.3-.29L19.5,3.59l-.29-.3A1,1,0,0,0,18.33,3l-.24,0H9A2,2,0,0,0,7,5V27a2,2,0,0,0,2,2H23a2,2,0,0,0,2-2V9.91A1.94,1.94,0,0,0,25,9.67ZM19.5,6.41,21.59,8.5H19.5ZM23,27H9V5h8.5V8.5a2,2,0,0,0,2,2H23Z"/></g></svg>