<svg xmlns="http://www.w3.org/2000/svg" viewBox="0 0 32 32"><defs><style>.cls-1{fill:none;}.cls-2{fill:#999;}</style></defs><title>Media_360_32px</title><g id="Square"><rect class="cls-1" width="32" height="32"/></g><g id="Icon"><path class="cls-2" d="M12.22,18.31a1,1,0,0,0-1.39-.24,1,1,0,0,0-.25,1.39l.73,1C7.61,19.65,5,17.86,5,16c0-1.16,1.1-2.4,3-3.34v-2.2C4.94,11.73,3,13.72,3,16c0,2.93,3.11,5.4,7.91,6.46l-1,.68A1,1,0,0,0,10.51,25a.92.92,0,0,0,.57-.18l3-2.08a1,1,0,0,0,.41-.65,1,1,0,0,0-.16-.75Z"/><path class="cls-2" d="M24,10.46v2.2c1.9.94,3,2.18,3,3.34,0,2.15-3.49,4.22-8.13,4.82a1,1,0,0,0,.13,2h.13C25,22,29,19.31,29,16,29,13.72,27.06,11.73,24,10.46Z"/><path class="cls-2" d="M11.1,13.21a2.42,2.42,0,0,1-1.39-.38,1.85,1.85,0,0,1-.73-1l1.15-.34a1,1,0,0,0,.36.48,1.13,1.13,0,0,0,.62.17.85.85,0,0,0,.55-.18.61.61,0,0,0,.22-.5.56.56,0,0,0-.24-.49,1,1,0,0,0-.61-.17h-.64v-1H11a1,1,0,0,0,.58-.15.6.6,0,0,0,.2-.5.54.54,0,0,0-.2-.44.71.71,0,0,0-.48-.16.76.76,0,0,0-.77.6L9.14,8.79a1.39,1.39,0,0,1,.22-.5,1.79,1.79,0,0,1,1-.74,2.7,2.7,0,0,1,.77-.11,2.29,2.29,0,0,1,1.41.41A1.31,1.31,0,0,1,13.06,9a1.43,1.43,0,0,1-.19.74,1.14,1.14,0,0,1-.55.44h0a1.28,1.28,0,0,1,.6.47,1.44,1.44,0,0,1,.24.85,1.57,1.57,0,0,1-.57,1.26A2.19,2.19,0,0,1,11.1,13.21Z"/><path class="cls-2" d="M16,13.21a1.91,1.91,0,0,1-1.59-.72,3.05,3.05,0,0,1-.58-2A4.74,4.74,0,0,1,14,9.14a2.7,2.7,0,0,1,.51-1,2.23,2.23,0,0,1,.72-.55,2.13,2.13,0,0,1,.88-.18,2,2,0,0,1,1.21.36,1.69,1.69,0,0,1,.61.94L16.86,9a1.15,1.15,0,0,0-.33-.38.86.86,0,0,0-.47-.12.88.88,0,0,0-.73.38,2,2,0,0,0-.33,1,1.6,1.6,0,0,1,.54-.38,1.71,1.71,0,0,1,.67-.14,1.89,1.89,0,0,1,.7.13,1.83,1.83,0,0,1,.59.37,1.77,1.77,0,0,1,.41.6,2.07,2.07,0,0,1,.15.8,2,2,0,0,1-.14.73,1.87,1.87,0,0,1-.39.61,1.74,1.74,0,0,1-.66.44A2.36,2.36,0,0,1,16,13.21Zm-.55-1.32a.83.83,0,0,0,1.15,0,.82.82,0,0,0,.22-.61.84.84,0,0,0-.22-.6.8.8,0,0,0-.58-.23.78.78,0,0,0-.57.23.84.84,0,0,0-.22.6A.82.82,0,0,0,15.42,11.89Z"/><path class="cls-2" d="M20.81,7.44a1.86,1.86,0,0,1,1.58.74A3.52,3.52,0,0,1,23,10.32a3.58,3.58,0,0,1-.56,2.15,1.86,1.86,0,0,1-1.58.74,1.84,1.84,0,0,1-1.57-.74,3.63,3.63,0,0,1-.54-2.15,3.6,3.6,0,0,1,.54-2.14A1.84,1.84,0,0,1,20.81,7.44Zm0,1.09a.67.67,0,0,0-.63.46A3.13,3.13,0,0,0,20,10.32a3.19,3.19,0,0,0,.22,1.34.67.67,0,0,0,.63.46.69.69,0,0,0,.64-.46,3.19,3.19,0,0,0,.22-1.34A3.13,3.13,0,0,0,21.45,9,.69.69,0,0,0,20.81,8.53Z"/><path class="cls-2" d="M25.42,9.28a1.08,1.08,0,1,1-1.53-1.52,1.07,1.07,0,0,1,1.53,0,1.09,1.09,0,0,1,0,1.52ZM24.3,8.87a.48.48,0,0,0,.36.14A.45.45,0,0,0,25,8.87a.5.5,0,0,0,.14-.35A.52.52,0,0,0,25,8.16.45.45,0,0,0,24.66,8a.51.51,0,0,0-.51.51A.47.47,0,0,0,24.3,8.87Z"/></g></svg>