<svg xmlns="http://www.w3.org/2000/svg" viewBox="0 0 32 32"><defs><style>.cls-1{fill:none;}.cls-2{fill:#919191;}</style></defs><title>Media_BookStore_32px</title><g id="Square"><rect class="cls-1" width="32" height="32"/></g><g id="Icon"><path class="cls-2" d="M27,3H11A2,2,0,0,0,9,5V16H5a2,2,0,0,0-2,2v7a4,4,0,0,0,4,4H27a2,2,0,0,0,2-2V5A2,2,0,0,0,27,3ZM9,25a2,2,0,0,1-4,0V18H9Zm18,2H10.44A3.91,3.91,0,0,0,11,25V5H27Z"/><path class="cls-2" d="M14,13H24a1,1,0,0,0,1-1V8a1,1,0,0,0-1-1H14a1,1,0,0,0-1,1v4A1,1,0,0,0,14,13Zm0-5H24v4h0v0H14Z"/><path class="cls-2" d="M13.5,17H24a.5.5,0,0,0,0-1H13.5a.5.5,0,0,0,0,1Z"/><path class="cls-2" d="M13.5,20.5H24a.5.5,0,0,0,0-1H13.5a.5.5,0,0,0,0,1Z"/><path class="cls-2" d="M13.5,24H19a.5.5,0,0,0,0-1H13.5a.5.5,0,0,0,0,1Z"/></g></svg>