<svg xmlns="http://www.w3.org/2000/svg" viewBox="0 0 32 32"><defs><style>.cls-1{fill:none;}.cls-2{fill:#999;}</style></defs><title>Media_Download_App_32px</title><g id="Square"><rect class="cls-1" width="32" height="32"/></g><g id="Icon"><path class="cls-2" d="M15.29,20.71a1,1,0,0,0,1.42,0l4-4a1,1,0,0,0-1.42-1.42L17,17.59V4a1,1,0,0,0-2,0V17.59l-2.29-2.3a1,1,0,0,0-1.42,1.42Z"/><path class="cls-2" d="M25,5H23.33a1,1,0,0,0,0,2H25V25H7V7H8.67a1,1,0,0,0,0-2H7A2,2,0,0,0,5,7V25a2,2,0,0,0,2,2H25a2,2,0,0,0,2-2V7A2,2,0,0,0,25,5Z"/></g></svg>