<svg xmlns="http://www.w3.org/2000/svg" viewBox="0 0 32 32">
    <g id="Square"> </g>
  <path fill-rule="evenodd" d="M20 3a1 1 0 0 1 .707.293c.584.584 1.835 1.531 3.279 2.333C25.455 6.442 26.934 7 28 7a1 1 0 0 1 1 1c0 5.608-2.11 9.499-4.24 11.984a16.972 16.972 0 0 1-2.925 2.702c-.4.29-.738.503-.98.647a8.627 8.627 0 0 1-.37.209l-.024.012-.009.005-.003.001c-.001 0-.002.001-.449-.893l-.448.894-.001-.001-.003-.002-.008-.004-.025-.012a8.731 8.731 0 0 1-.37-.208c-.242-.145-.58-.359-.98-.648a16.969 16.969 0 0 1-2.924-2.702C13.11 17.5 11 13.608 11 8a1 1 0 0 1 1-1c1.066 0 2.545-.558 4.014-1.374 1.444-.802 2.695-1.75 3.279-2.333A1 1 0 0 1 20 3Zm0 19.667.447.894a1 1 0 0 1-.894 0l.447-.894Zm0-1.155c.18-.111.405-.26.665-.448a14.972 14.972 0 0 0 2.576-2.381c1.756-2.049 3.529-5.21 3.738-9.776-1.333-.231-2.75-.858-3.965-1.533A20.787 20.787 0 0 1 20 5.342a20.78 20.78 0 0 1-3.014 2.032c-1.214.675-2.632 1.302-3.965 1.533.21 4.567 1.982 7.727 3.738 9.776a14.969 14.969 0 0 0 2.576 2.381c.26.188.486.337.665.448ZM3 4a1 1 0 0 1 1-1h5.333a1 1 0 0 1 0 2H5v22h16.667v-1a1 1 0 1 1 2 0v2a1 1 0 0 1-1 1H4a1 1 0 0 1-1-1V4Zm5.333 18.667a1 1 0 0 1 1-1h4a1 1 0 1 1 0 2h-4a1 1 0 0 1-1-1Zm1-6.334a1 1 0 1 0 0 2H10a1 1 0 1 0 0-2h-.667Zm14.707-4.292a1 1 0 1 0-1.414-1.415l-3.293 3.293-1.293-1.293a1 1 0 0 0-1.414 1.415l2 2a1 1 0 0 0 1.414 0l4-4Z"/>
</svg>
