<svg xmlns="http://www.w3.org/2000/svg" viewBox="0 0 32 32">
      <g id="Square"> </g>
  <path fill-rule="evenodd" d="M19.783 5.317A11.333 11.333 0 0 0 4.667 16.059a1 1 0 1 1-2 .01A13.333 13.333 0 0 1 20.45 3.432a1 1 0 1 1-.668 1.886ZM4.82 21.3a1 1 0 0 1 1.366.366c.119.206.244.408.375.606a1 1 0 1 1-1.666 1.106c-.154-.232-.301-.47-.44-.712A1 1 0 0 1 4.82 21.3Zm5.514 4.515a1 1 0 0 0-1 1.732c.242.14.488.271.739.396a1 1 0 0 0 .889-1.792 11.312 11.312 0 0 1-.628-.336Zm7.44 2.431a1 1 0 0 1-.936 1.06 13.36 13.36 0 0 1-.837.027 1 1 0 1 1 0-2c.238 0 .475-.007.712-.022a1 1 0 0 1 1.06.935Zm5.606-1.14a1 1 0 0 0-1.107-1.666c-.198.131-.4.256-.605.375a1 1 0 0 0 1 1.732c.242-.14.479-.287.712-.442Zm4.113-6.518a1 1 0 0 1 .45 1.34c-.123.25-.255.497-.395.738a1 1 0 1 1-1.732-1c.119-.205.23-.414.336-.627a1 1 0 0 1 1.34-.451Zm1.053-9.105a1 1 0 0 0-1.882.678c.444 1.231.67 2.53.67 3.839a1 1 0 1 0 2 0c0-1.54-.266-3.068-.788-4.517ZM16 18a2 2 0 1 0 0-4 2 2 0 0 0 0 4Zm0 2a4 4 0 0 0 3.446-6.032l6.595-6.594a1 1 0 0 0-1.415-1.415l-6.594 6.595A4 4 0 1 0 16 20Z"/>
</svg>
