<svg xmlns="http://www.w3.org/2000/svg" viewBox="0 0 32 32"><defs><style>.cls-1{fill:none;}.cls-2{fill:#999;}</style></defs><title>Media_NoPicture_32px</title><g id="Square"><rect class="cls-1" width="32" height="32"/></g><g id="Name"><path class="cls-2" d="M16,3A13,13,0,1,0,29,16,13,13,0,0,0,16,3Zm0,2a10.93,10.93,0,0,1,7,2.55L20.7,9.89,19.29,8.53a1,1,0,0,0-.7-.28H13.41a1,1,0,0,0-.7.28L11,10.18H9a1,1,0,0,0-1,1v9.65a1,1,0,0,0,.86.93L7.55,23A11,11,0,0,1,16,5Zm6,7.18v7.57H10V12.18h1a2,2,0,0,0,1.39-.56l1.42-1.37h4.38l1.42,1.37a2,2,0,0,0,1.39.56h.18l0,0,0,0ZM16,27a10.93,10.93,0,0,1-7-2.55l2.69-2.7H23a1,1,0,0,0,1-1V11.14a1,1,0,0,0-.8-.92L24.45,9A11,11,0,0,1,16,27Z"/><path class="cls-2" d="M16,12a3.5,3.5,0,1,0,3.5,3.5A3.5,3.5,0,0,0,16,12Zm0,6a2.5,2.5,0,1,1,2.5-2.5A2.5,2.5,0,0,1,16,18Z"/><circle class="cls-2" cx="11.5" cy="13" r="0.5"/></g></svg>