<svg xmlns="http://www.w3.org/2000/svg" viewBox="0 0 32 32"><defs><style>.cls-1{fill:none;}.cls-2{fill:#999;}</style></defs><title>Media_TimeRead_32px</title><g id="Square"><rect class="cls-1" width="32" height="32"/></g><g id="Icon"><path class="cls-2" d="M16,9.8a1,1,0,0,0-1,1v4.79l-2.31,2.3a1,1,0,0,0,0,1.42,1,1,0,0,0,1.42,0l2.6-2.6A1,1,0,0,0,17,16V10.8A1,1,0,0,0,16,9.8Z"/><path class="cls-2" d="M16,3A13,13,0,1,0,29,16,13,13,0,0,0,16,3Zm1,24V26a1,1,0,0,0-2,0V27A11,11,0,0,1,5.05,17H6a1,1,0,0,0,0-2h-1A11,11,0,0,1,15,5.05V6a1,1,0,0,0,2,0v-1A11,11,0,0,1,27,15H26a1,1,0,0,0,0,2H27A11,11,0,0,1,17,27Z"/></g></svg>