<svg xmlns="http://www.w3.org/2000/svg" viewBox="0 0 32 32"><defs><style>.cls-1{fill:none;}.cls-2{fill:#999;}</style></defs><title>Media_Camera_32px</title><g id="Square"><rect class="cls-1" width="32" height="32"/></g><g id="Icon"><path class="cls-2" d="M16,23a6,6,0,1,1,6-6A6,6,0,0,1,16,23Zm0-10a4,4,0,1,0,4,4A4,4,0,0,0,16,13Z"/><path class="cls-2" d="M20.24,7h0L21.9,8.48a4,4,0,0,0,2.66,1H27V25H5V9.5H7.44a4,4,0,0,0,2.66-1L11.76,7h8.48m0-2H11.76a2,2,0,0,0-1.33.51L8.77,7a2,2,0,0,1-1.33.51H5a2,2,0,0,0-2,2V25a2,2,0,0,0,2,2H27a2,2,0,0,0,2-2V9.5a2,2,0,0,0-2-2H24.56A2,2,0,0,1,23.23,7L21.57,5.51A2,2,0,0,0,20.24,5Z"/><path class="cls-2" d="M8,13a1,1,0,1,1,0-2H8a1,1,0,0,1,0,2Z"/></g></svg>