<svg xmlns="http://www.w3.org/2000/svg" viewBox="0 0 32 32"><defs><style>.cls-1{fill:none;}.cls-2{fill:#999;}</style></defs><title>Navigation_Display_Connect_32px</title><g id="Square"><rect class="cls-1" width="32" height="32"/></g><g id="Icon"><path class="cls-2" d="M16,16h0a1,1,0,0,0,1-1L17,4a1,1,0,0,0-1-1h0a1,1,0,0,0-1,1L15,15A1,1,0,0,0,16,16Z"/><path class="cls-2" d="M21.84,6.52a1,1,0,0,0-1,1.75A10,10,0,0,1,16,27h0A10,10,0,0,1,11.08,8.3a1,1,0,1,0-1-1.73A12,12,0,0,0,16,29h.05A12,12,0,0,0,28,17,12,12,0,0,0,21.84,6.52Z"/></g></svg>