<svg xmlns="http://www.w3.org/2000/svg" viewBox="0 0 32 32">
      <g id="Square"> </g>
  <g clip-path="url(#a)">
    <path fill-rule="evenodd" d="M6.667 5.667a1 1 0 0 0-1 1V12a1 1 0 1 0 2 0V9.08L15 16.415v8.92a1 1 0 1 0 2 0V16a1 1 0 0 0-.293-.707L9.081 7.667h2.92a1 1 0 1 0 0-2H6.666ZM24.333 9.08V12a1 1 0 1 0 2 0V6.667a1 1 0 0 0-1-1H20a1 1 0 1 0 0 2h2.92l-4.294 4.292a1 1 0 0 0 1.415 1.415l4.292-4.293Z"/>
  </g>
  <defs>
    <clipPath id="a">
      <rect width="32" height="32" fill="#fff"/>
    </clipPath>
  </defs>
</svg>
