<svg width="32" height="32" viewBox="0 0 32 32" fill="none" xmlns="http://www.w3.org/2000/svg">
  <g id="Square"> </g>
  <g id="Icon">
<path id="Union" fill-rule="evenodd" clip-rule="evenodd" d="M6.70711 5.29289C6.31658 4.90237 5.68342 4.90237 5.29289 5.29289C4.90237 5.68342 4.90237 6.31658 5.29289 6.70711L14.5858 16L5.29289 25.2929C4.90237 25.6834 4.90237 26.3166 5.29289 26.7071C5.68342 27.0976 6.31658 27.0976 6.70711 26.7071L16.7071 16.7071C17.0976 16.3166 17.0976 15.6834 16.7071 15.2929L6.70711 5.29289ZM18.7071 5.29289C18.3166 4.90237 17.6834 4.90237 17.2929 5.29289C16.9024 5.68342 16.9024 6.31658 17.2929 6.70711L26.5858 16L17.2929 25.2929C16.9024 25.6834 16.9024 26.3166 17.2929 26.7071C17.6834 27.0976 18.3166 27.0976 18.7071 26.7071L28.7071 16.7071C29.0976 16.3166 29.0976 15.6834 28.7071 15.2929L18.7071 5.29289Z" fill="black"/>
</g>
</svg>
