<svg xmlns="http://www.w3.org/2000/svg" viewBox="0 0 32 32"><defs><style>.cls-1{fill:none;}.cls-2{fill:#999;}</style></defs><title>Navigation_Control_Circle--Cross_32px</title><g id="Square"><rect class="cls-1" width="32" height="32"/></g><g id="Icon"><path class="cls-2" d="M16,3A13,13,0,1,0,29,16,13,13,0,0,0,16,3Zm0,24A11,11,0,1,1,27,16,11,11,0,0,1,16,27Z"/><path class="cls-2" d="M20.71,11.29a1,1,0,0,0-1.42,0L16,14.59l-3.29-3.3a1,1,0,0,0-1.42,1.42L14.59,16l-3.3,3.29a1,1,0,0,0,0,1.42,1,1,0,0,0,1.42,0L16,17.41l3.29,3.3a1,1,0,0,0,1.42,0,1,1,0,0,0,0-1.42L17.41,16l3.3-3.29A1,1,0,0,0,20.71,11.29Z"/></g></svg>