<svg xmlns="http://www.w3.org/2000/svg" viewBox="0 0 32 32"><defs><style>.cls-1{fill:none;}.cls-2{fill:#5b5b5b;}</style></defs><title>Navigation_Display_DisplayList_Outline_32px</title><g id="Square"><rect class="cls-1" width="32" height="32"/></g><g id="Icon"><path class="cls-2" d="M27,13H5a2,2,0,0,0-2,2v2a2,2,0,0,0,2,2H27a2,2,0,0,0,2-2V15A2,2,0,0,0,27,13ZM5,17V15H27v2Z"/><path class="cls-2" d="M27,3H5A2,2,0,0,0,3,5V7A2,2,0,0,0,5,9H27a2,2,0,0,0,2-2V5A2,2,0,0,0,27,3ZM5,7V5H27V7Z"/><path class="cls-2" d="M27,23H5a2,2,0,0,0-2,2v2a2,2,0,0,0,2,2H27a2,2,0,0,0,2-2V25A2,2,0,0,0,27,23ZM5,27V25H27v2Z"/></g></svg>