<svg xmlns="http://www.w3.org/2000/svg" viewBox="0 0 32 32"><defs><style>.cls-1{fill:none;}.cls-2{fill:#919191;}</style></defs><title>Navigation_Display_ProductNumb_32px</title><g id="Square"><rect class="cls-1" width="32" height="32"/></g><g id="Icon"><circle class="cls-2" cx="4.5" cy="8" r="1.5"/><circle class="cls-2" cx="4.5" cy="24" r="1.5"/><circle class="cls-2" cx="4.5" cy="16" r="1.5"/><path class="cls-2" d="M12,9H28a1,1,0,0,0,0-2H12a1,1,0,0,0,0,2Z"/><path class="cls-2" d="M28,15H12a1,1,0,0,0,0,2H28a1,1,0,0,0,0-2Z"/><path class="cls-2" d="M28,23H12a1,1,0,0,0,0,2H28a1,1,0,0,0,0-2Z"/></g></svg>