<svg xmlns="http://www.w3.org/2000/svg" viewBox="0 0 32 32"><defs><style>.cls-1{fill:none;}.cls-2{fill:#999;}</style></defs><title>Navigation_Display_VocalSearch_32px</title><g id="Square"><rect class="cls-1" width="32" height="32"/></g><g id="Icon"><path class="cls-2" d="M24,10.67a1,1,0,0,0-1,1V16A7,7,0,0,1,9,16V11.67a1,1,0,0,0-2,0V16a9,9,0,0,0,8,8.94s0,0,0,.06v2H13a1,1,0,0,0,0,2h6a1,1,0,0,0,0-2H17V25s0,0,0-.06A9,9,0,0,0,25,16V11.67A1,1,0,0,0,24,10.67Z"/><path class="cls-2" d="M16,21.25A5.26,5.26,0,0,0,21.25,16V8.25a5.25,5.25,0,0,0-10.5,0V16A5.26,5.26,0,0,0,16,21.25Zm-3.25-13a3.25,3.25,0,0,1,6.5,0V16a3.25,3.25,0,0,1-6.5,0Z"/></g></svg>