<svg xmlns="http://www.w3.org/2000/svg" viewBox="0 0 32 32"><defs><style>.cls-1{fill:none;}.cls-2{fill:#999;}</style></defs><title>Navigation_Display_MovingBlock_32px</title><g id="Square"><rect class="cls-1" width="32" height="32"/></g><g id="Icon"><circle class="cls-2" cx="5.5" cy="5.5" r="2.5"/><circle class="cls-2" cx="26.5" cy="5.5" r="2.5"/><path class="cls-2" d="M16,3a2.5,2.5,0,1,0,2.5,2.5A2.5,2.5,0,0,0,16,3Z"/><circle class="cls-2" cx="5.5" cy="26.5" r="2.5"/><circle class="cls-2" cx="26.5" cy="26.5" r="2.5"/><path class="cls-2" d="M16,24a2.5,2.5,0,1,0,2.5,2.5A2.5,2.5,0,0,0,16,24Z"/><circle class="cls-2" cx="5.5" cy="16" r="2.5"/><circle class="cls-2" cx="26.5" cy="16" r="2.5"/><path class="cls-2" d="M16,13.5A2.5,2.5,0,1,0,18.5,16,2.5,2.5,0,0,0,16,13.5Z"/></g></svg>