<svg xmlns="http://www.w3.org/2000/svg" viewBox="0 0 32 32"><defs><style>.cls-1{fill:none;}.cls-2{fill:#999;}</style></defs><title>Navigation_Display_LinkOut_32px</title><g id="Square"><rect class="cls-1" width="32" height="32"/></g><g id="Name"><path class="cls-2" d="M27.27,3H17a1,1,0,0,0,0,2h8.59L12.29,18.29a1,1,0,0,0,0,1.42,1,1,0,0,0,1.42,0L27,6.41V15a1,1,0,0,0,2,0V4.73A1.74,1.74,0,0,0,27.27,3Z"/><path class="cls-2" d="M24,27H5V8h6V6H5A2,2,0,0,0,3,8V27a2,2,0,0,0,2,2H24a2,2,0,0,0,2-2V21H24Z"/></g></svg>