<svg xmlns="http://www.w3.org/2000/svg" viewBox="0 0 32 32"><defs><style>.cls-1{fill:none;}.cls-2{fill:#919191;}</style></defs><title>Navigation_Publish_Edit_32px</title><g id="Square"><rect class="cls-1" width="32" height="32"/></g><g id="Icon"><path class="cls-2" d="M25,25H7V7h9V5H7A2,2,0,0,0,5,7V25a2,2,0,0,0,2,2H25a2,2,0,0,0,2-2V16H25Z"/><path class="cls-2" d="M28.46,5.07,26.94,3.54a2,2,0,0,0-2.72,0L11.88,15.88a.8.8,0,0,0-.23.37l-1.59,4.41a1,1,0,0,0,1.28,1.28l4.41-1.59a.8.8,0,0,0,.37-.23L28.46,7.78A1.89,1.89,0,0,0,29,6.42,1.87,1.87,0,0,0,28.46,5.07ZM12.66,19.34l.52-1.45.93.93Zm2.4-1-1.41-1.41L23.94,6.65l1.41,1.41Zm11-11L24.65,5.94,25.58,5,27,6.42Z"/></g></svg>