<svg xmlns="http://www.w3.org/2000/svg" viewBox="0 0 32 32"><defs><style>.cls-1{fill:none;}.cls-2{fill:#5b5b5b;}</style></defs><title>Navigation_Display_DisplayProductX4_Outline_32px</title><g id="Square"><rect class="cls-1" width="32" height="32"/></g><g id="Icon"><path class="cls-2" d="M13.35,3H4.5A1.5,1.5,0,0,0,3,4.5v8.85a1.5,1.5,0,0,0,1.5,1.5h8.85a1.5,1.5,0,0,0,1.5-1.5V4.5A1.5,1.5,0,0,0,13.35,3Zm-.5,9.85H5V5h7.85Z"/><path class="cls-2" d="M27.5,3H18.65a1.5,1.5,0,0,0-1.5,1.5v8.85a1.5,1.5,0,0,0,1.5,1.5H27.5a1.5,1.5,0,0,0,1.5-1.5V4.5A1.5,1.5,0,0,0,27.5,3ZM27,12.85H19.15V5H27Z"/><path class="cls-2" d="M13.35,17.15H4.5A1.5,1.5,0,0,0,3,18.65V27.5A1.5,1.5,0,0,0,4.5,29h8.85a1.5,1.5,0,0,0,1.5-1.5V18.65A1.5,1.5,0,0,0,13.35,17.15ZM12.85,27H5V19.15h7.85Z"/><path class="cls-2" d="M27.5,17.15H18.65a1.5,1.5,0,0,0-1.5,1.5V27.5a1.5,1.5,0,0,0,1.5,1.5H27.5A1.5,1.5,0,0,0,29,27.5V18.65A1.5,1.5,0,0,0,27.5,17.15ZM27,27H19.15V19.15H27Z"/></g></svg>