<svg width="32" height="32" viewBox="0 0 32 32" fill="none" xmlns="http://www.w3.org/2000/svg">
  <g id="Square"> </g>
  <g id="Icon">
<path id="Union" fill-rule="evenodd" clip-rule="evenodd" d="M14.7071 6.70711C15.0976 6.31658 15.0976 5.68342 14.7071 5.29289C14.3166 4.90237 13.6834 4.90237 13.2929 5.29289L3.29289 15.2929C2.90237 15.6834 2.90237 16.3166 3.29289 16.7071L13.2929 26.7071C13.6834 27.0976 14.3166 27.0976 14.7071 26.7071C15.0976 26.3166 15.0976 25.6834 14.7071 25.2929L5.41421 16L14.7071 6.70711ZM26.7071 6.70711C27.0976 6.31658 27.0976 5.68342 26.7071 5.29289C26.3166 4.90237 25.6834 4.90237 25.2929 5.29289L15.2929 15.2929C14.9024 15.6834 14.9024 16.3166 15.2929 16.7071L25.2929 26.7071C25.6834 27.0976 26.3166 27.0976 26.7071 26.7071C27.0976 26.3166 27.0976 25.6834 26.7071 25.2929L17.4142 16L26.7071 6.70711Z" fill="black"/>
</g>
</svg>
