<svg xmlns="http://www.w3.org/2000/svg" viewBox="0 0 32 32"><defs><style>.cls-1{fill:none;}.cls-2{fill:#999;}</style></defs><title>Navigation_Display_Home_32px</title><g id="Square"><rect class="cls-1" width="32" height="32"/></g><g id="Icon"><path class="cls-2" d="M28,17a1,1,0,0,1-.71-.29L16,5.41,4.71,16.71a1,1,0,0,1-1.42-1.42l12-12a1,1,0,0,1,1.42,0l12,12a1,1,0,0,1,0,1.42A1,1,0,0,1,28,17Z"/><path class="cls-2" d="M26,29H19a1,1,0,0,1-1-1V21H14v7a1,1,0,0,1-1,1H6a1,1,0,0,1-1-1V14a1,1,0,0,1,2,0V27h5V20a1,1,0,0,1,1-1h6a1,1,0,0,1,1,1v7h5V14a1,1,0,0,1,2,0V28A1,1,0,0,1,26,29Z"/></g></svg>