<svg xmlns="http://www.w3.org/2000/svg" viewBox="0 0 32 32"><defs><style>.cls-1{fill:none;}.cls-2{fill:#999;}</style></defs><title>Payment_DetailsOrder_32px</title><g id="Square"><rect class="cls-1" width="32" height="32"/></g><g id="Icon"><path class="cls-2" d="M25,5H7A2,2,0,0,0,5,7V18a2,2,0,0,0,2,2H25a2,2,0,0,0,2-2V7A2,2,0,0,0,25,5Zm0,2V9H7V7ZM7,18V11H25v7Z"/><path class="cls-2" d="M11,13H9a1,1,0,0,0,0,2h2a1,1,0,0,0,0-2Z"/><path class="cls-2" d="M26,23a3,3,0,0,0-2.82,2H18.82a3,3,0,0,0-5.64,0H8.82a3,3,0,1,0,0,2h4.36a3,3,0,0,0,5.64,0h4.36A3,3,0,1,0,26,23ZM16,27a1,1,0,1,1,1-1A1,1,0,0,1,16,27Zm10,0a1,1,0,1,1,1-1A1,1,0,0,1,26,27Z"/></g></svg>