<svg xmlns="http://www.w3.org/2000/svg" viewBox="0 0 32 32"><defs><style>.cls-1{fill:none;}.cls-2{fill:#999;}</style></defs><title>Device_Euro_32px</title><g id="Square"><rect class="cls-1" width="32" height="32"/></g><g id="Name"><path class="cls-2" d="M25.33,24.18A11,11,0,0,1,7.76,20H21a1,1,0,0,0,0-2H7.19a10.62,10.62,0,0,1,0-4H21a1,1,0,0,0,0-2H7.76A11,11,0,0,1,25.33,7.82a1,1,0,0,0,1.34-1.49A13,13,0,0,0,5.64,12H4a1,1,0,0,0,0,2H5.17A13.16,13.16,0,0,0,5,16a13.16,13.16,0,0,0,.17,2H4a1,1,0,0,0,0,2H5.64a13,13,0,0,0,21,5.67,1,1,0,0,0-1.34-1.49Z"/></g></svg>