<svg xmlns="http://www.w3.org/2000/svg" viewBox="0 0 32 32"><defs><style>.cls-1{fill:none;}.cls-2{fill:#999;}</style></defs><title>Payment_Bill_32px</title><g id="Square"><rect class="cls-1" width="32" height="32"/></g><g id="Icon"><path class="cls-2" d="M23,5V27H9V5H23m0-2H9A2,2,0,0,0,7,5V27a2,2,0,0,0,2,2H23a2,2,0,0,0,2-2V5a2,2,0,0,0-2-2Z"/><path class="cls-2" d="M19.7,14.34a.5.5,0,0,0-.71-.06A3,3,0,0,1,17,15a3,3,0,0,1-2.58-1.47h2.38a.5.5,0,0,0,0-1H14.07A3.07,3.07,0,0,1,14,12a3.07,3.07,0,0,1,.06-.53h2.76a.5.5,0,0,0,0-1H14.45a3,3,0,0,1,4.41-.86.5.5,0,0,0,.7-.09.51.51,0,0,0-.1-.7A3.94,3.94,0,0,0,17,8a4,4,0,0,0-3.71,2.47h-.64a.5.5,0,0,0,0,1h.39A3.19,3.19,0,0,0,13,12a3.19,3.19,0,0,0,.06.53h-.39a.5.5,0,0,0,0,1h.64A4,4,0,0,0,19.64,15,.49.49,0,0,0,19.7,14.34Z"/><path class="cls-2" d="M20.5,21h-7a.5.5,0,0,1,0-1h7a.5.5,0,0,1,0,1Z"/><circle class="cls-2" cx="11.5" cy="20.5" r="0.5"/><path class="cls-2" d="M20.5,24h-7a.5.5,0,0,1,0-1h7a.5.5,0,0,1,0,1Z"/><circle class="cls-2" cx="11.5" cy="23.5" r="0.5"/></g></svg>