<svg width="32" height="32" viewBox="0 0 32 32" fill="none" xmlns="http://www.w3.org/2000/svg">
<g id="Square"> </g>
<g id="Icon">
<path id="Subtract" fill-rule="evenodd" clip-rule="evenodd" d="M25.3019 15.8761C25.3019 21.0821 21.0816 25.3024 15.8756 25.3024C10.6695 25.3024 6.44922 21.0821 6.44922 15.8761C6.44922 10.67 10.6695 6.44971 15.8756 6.44971C21.0816 6.44971 25.3019 10.67 25.3019 15.8761ZM15.0791 18.75H13.7148V17.3951H10.9399V16.2443L12.5455 12.3H14.0582L12.4991 16.1608H13.7148V14.7687H15.0791V16.1608H15.7658V17.3951H15.0791V18.75ZM21.0371 13.8394L19.3676 16.1736L21.0123 18.6369H19.3899L18.5267 17.3643L17.7503 18.6418H16.1899L17.785 16.258L16.1899 13.8394H17.8247L18.6458 15.0921L19.4743 13.8394H21.0371Z" fill="black"/>
</g>
</svg>
