<svg xmlns="http://www.w3.org/2000/svg" viewBox="0 0 32 32"><defs><style>.cls-1{fill:none;}.cls-2{fill:#999;}</style></defs><title>Payment_Cards_Monochrome_OneyX3_32px</title><g id="Square"><rect class="cls-1" width="32" height="32"/></g><g id="Icon"><path class="cls-2" d="M15.94,6.5a9.5,9.5,0,1,0,9.5,9.5A9.5,9.5,0,0,0,15.94,6.5Zm-.11,12.28H14.18l-.86-1.28-.78,1.28H11l1.61-2.4L11,14h1.64l.84,1.26L14.28,14h1.57L14.17,16.3Zm4.48-.43a2.48,2.48,0,0,1-1.68.55,2.71,2.71,0,0,1-1.56-.42,2.07,2.07,0,0,1-.82-1.16L17.54,17a1.08,1.08,0,0,0,.41.53,1.2,1.2,0,0,0,.7.2.92.92,0,0,0,.61-.21.66.66,0,0,0,.25-.56.63.63,0,0,0-.27-.55,1.15,1.15,0,0,0-.69-.2h-.71V15.05h.68a1.09,1.09,0,0,0,.65-.17.69.69,0,0,0,.23-.57.59.59,0,0,0-.23-.49.82.82,0,0,0-.54-.18.84.84,0,0,0-.86.67l-1.35-.38a1.88,1.88,0,0,1,.25-.56,2.22,2.22,0,0,1,.44-.48,1.94,1.94,0,0,1,.67-.35,2.73,2.73,0,0,1,.87-.13,2.51,2.51,0,0,1,1.58.46,1.51,1.51,0,0,1,.61,1.25,1.59,1.59,0,0,1-.22.84,1.27,1.27,0,0,1-.61.48h0a1.38,1.38,0,0,1,.67.52,1.67,1.67,0,0,1,.27,1A1.77,1.77,0,0,1,20.31,18.35Z"/></g></svg>