<svg xmlns="http://www.w3.org/2000/svg" viewBox="0 0 32 32">
  <path fill-rule="evenodd" d="M16 27c4.658 0 8.642-2.896 10.246-6.99a1 1 0 0 1 1.862.73C26.215 25.574 21.508 29 16 29c-.085 0-.17 0-.255-.003l.962.962a1 1 0 1 1-1.414 1.415L9.959 26.04a1 1 0 0 1 0-1.414l5.334-5.333a1 1 0 0 1 1.414 1.414l-.955.954a5.667 5.667 0 0 0 5.319-3.13 1 1 0 0 1 1.789.895 7.667 7.667 0 0 1-8.392 4.087.997.997 0 0 1-.394-.174l-1.993 1.994 1.377 1.377c.032.005.064.01.096.017A11 11 0 0 0 16 27Zm-8.752-2.729a1 1 0 0 1-1.405-.156A12.95 12.95 0 0 1 3 16c0-2.458.683-4.758 1.869-6.719l-1.312.352A1 1 0 0 1 3.039 7.7l7.286-1.952a1 1 0 0 1 1.225.707l1.952 7.285a1 1 0 1 1-1.932.518l-.35-1.305A5.637 5.637 0 0 0 10.333 16c0 1.156.345 2.23.938 3.124a1 1 0 0 1-1.667 1.105A7.636 7.636 0 0 1 8.333 16a7.646 7.646 0 0 1 2.25-5.425l-.707-2.636L8 8.442c-.02.027-.042.053-.065.079A10.958 10.958 0 0 0 5 16c0 2.598.9 4.983 2.405 6.866a1 1 0 0 1-.157 1.405Zm19.265-11.518c.01.031.02.062.034.092l-.505 1.883-2.634-.706-.001-.006a7.67 7.67 0 0 0-7.87-5.669 1 1 0 1 0 .12 1.997 5.667 5.667 0 0 1 5.371 3.04l-1.305-.35a1 1 0 0 0-.518 1.932l7.285 1.952a1 1 0 0 0 1.225-.707l1.952-7.285a1 1 0 0 0-1.932-.518l-.35 1.311a12.996 12.996 0 0 0-13.333-6.574 1 1 0 0 0 .297 1.978A11.101 11.101 0 0 1 16 5c4.944 0 9.128 3.262 10.514 7.753Z"/>
</svg>
