<svg xmlns="http://www.w3.org/2000/svg" viewBox="0 0 32 32"><defs><style>.cls-1{fill:none;}.cls-2{fill:#919191;}</style></defs><title>Product_Promise_EcoProduct_32px</title><g id="Square"><rect class="cls-1" width="32" height="32"/></g><g id="Icon"><path class="cls-2" d="M26.29,14.14l-.67-4.63A2,2,0,0,0,22.4,8.23l-2.89,2.28C17.57,7.27,14.15,4.93,12,3.68a2,2,0,0,0-1.84-.08A2,2,0,0,0,9,5.1H9c0,.14-.05.29-.09.46A27.28,27.28,0,0,1,7.09,10.7c-1.07,2.44-2,4.54-1.42,7.89.88,5.09,7.08,7.27,9.71,8a2.22,2.22,0,0,0,.44.06l.1.06a16,16,0,0,0,4.43,2.45,1,1,0,0,0,.34.06A1,1,0,0,0,21,27.26a14.29,14.29,0,0,1-2.16-1,10.26,10.26,0,0,0,6-3.95A11.05,11.05,0,0,0,26.29,14.14ZM12.94,17.5a16.67,16.67,0,0,1,.39-2.76,10.46,10.46,0,0,0,.28-3.65,1,1,0,0,0-2,.26,9.12,9.12,0,0,1-.26,3,18.44,18.44,0,0,0-.43,3.07A10.45,10.45,0,0,0,13,23.61c-2.26-1-4.9-2.71-5.36-5.36s.26-4.43,1.28-6.74A28.73,28.73,0,0,0,10.85,6q.08-.31.12-.57l-1-.17,1,.15c2,1.17,6.91,4.35,7.84,8.59s-1.51,8.56-2.64,10.25A9.69,9.69,0,0,1,12.94,17.5Zm10.23,3.7a8.24,8.24,0,0,1-4.67,3.1c1.44-2.43,3.21-6.47,2.27-10.73a12.3,12.3,0,0,0-.37-1.22L23.64,9.8l.69,4.72A9.26,9.26,0,0,1,23.17,21.2Z"/></g></svg>