<svg xmlns="http://www.w3.org/2000/svg" viewBox="0 0 32 32">
    <g id="Square"> </g>
  <path fill-rule="evenodd" d="M16 3a4.997 4.997 0 0 0-4.341 2.518 4.997 4.997 0 0 0-4.851 1.289 4.997 4.997 0 0 0-1.29 4.851A4.997 4.997 0 0 0 3 16c0 1.86 1.014 3.48 2.518 4.341a4.997 4.997 0 0 0 1.289 4.851 4.997 4.997 0 0 0 4.851 1.29A4.997 4.997 0 0 0 16 29c1.86 0 3.48-1.015 4.342-2.52a4.997 4.997 0 0 0 4.85-1.288 4.997 4.997 0 0 0 1.29-4.85A4.997 4.997 0 0 0 29 16c0-1.86-1.015-3.48-2.52-4.342a4.997 4.997 0 0 0-1.288-4.85 4.997 4.997 0 0 0-4.85-1.29A4.997 4.997 0 0 0 16 3Zm-2.86 4.093a3.002 3.002 0 0 1 5.72 0l.36 1.133 1.055-.547a3.002 3.002 0 0 1 4.045 4.046l-.548 1.055 1.134.359a3.002 3.002 0 0 1 0 5.722l-1.133.359.548 1.055a3.002 3.002 0 0 1-4.046 4.045l-1.055-.548-.359 1.134a3.002 3.002 0 0 1-5.722 0l-.359-1.134-1.055.549a3.002 3.002 0 0 1-4.046-4.046l.547-1.055-1.133-.36a3.002 3.002 0 0 1 0-5.72l1.134-.36-.548-1.055a3.002 3.002 0 0 1 4.046-4.046l1.055.547.36-1.133Zm7.567 5.614a1 1 0 0 0-1.414-1.414l-8 8a1 1 0 0 0 1.414 1.414l8-8Zm-10.207-.04a1.833 1.833 0 1 1 3.667 0 1.833 1.833 0 0 1-3.667 0Zm9.167 4.833a1.833 1.833 0 1 0 0 3.667 1.833 1.833 0 0 0 0-3.667Z"/>
</svg>
