<svg xmlns="http://www.w3.org/2000/svg" viewBox="0 0 32 32"><defs><style>.cls-1{fill:none;}.cls-2{fill:#919191;}</style></defs><title>Product_Basket_Handbag_32px</title><g id="Square"><rect class="cls-1" width="32" height="32"/></g><g id="Icon"><path class="cls-2" d="M7.11,29H24.89a2,2,0,0,0,1.48-.66,2,2,0,0,0,.51-1.55l-1.73-16a2,2,0,0,0-2-1.79H21V8A5,5,0,0,0,11,8V9H8.83a2,2,0,0,0-2,1.79l-1.73,16a2,2,0,0,0,.51,1.55A2,2,0,0,0,7.11,29ZM13,8a3,3,0,0,1,6,0V9H13ZM8.83,11H11v1a1,1,0,0,0,2,0V11h6v1a1,1,0,0,0,2,0V11h2.17l1.72,16H7.11Z"/></g></svg>