<svg xmlns="http://www.w3.org/2000/svg" viewBox="0 0 32 32"><defs><style>.cls-1{fill:none;}.cls-2{fill:#919191;}</style></defs><title>Product_Promise_MadeInFrance_32px</title><g id="Square"><rect class="cls-1" width="32" height="32"/></g><g id="Icon"><path class="cls-2" d="M5.78,15.22c1.06.68,1.71,1.13,1.72,1.8a14.35,14.35,0,0,1-1.16,3.91c-.73,1.9-1,2.77-.76,3.45.55,1.34,6.64,3.93,6.7,4A7.5,7.5,0,0,0,14.8,29a1.5,1.5,0,0,0,.6-.11,8.32,8.32,0,0,0,2.27-2c.34-.36.82-.87,1.09-1.09a16.1,16.1,0,0,1,1.6.64,7.27,7.27,0,0,0,2.36.79h0A4.5,4.5,0,0,0,26,24.9c.22-.59,0-1.57-.71-4.64-.24-1-.5-2-.52-2.26a21.34,21.34,0,0,1,1.54-3.2C27.52,12.62,28,11.66,28,11c0-1.41-1.38-1.82-2.6-2.19A8.91,8.91,0,0,1,22.62,7.6a26,26,0,0,1-2.74-2.52C18.55,3.74,17.82,3,17,3,15.82,3,14.91,4.26,14,5.59a10.71,10.71,0,0,1-1.27,1.56.29.29,0,0,1-.35,0l-.47-.32c-.87-.61-2-1.37-2.95-.66s-1,1.89-.93,3c0,.08,0,.17,0,.26-.39,0-1,0-1.37,0-1.69,0-3.42,0-3.61,1.39C2.69,13.23,4.48,14.38,5.78,15.22Zm.82-3.74c1.41,0,2.43,0,3-.57A1.3,1.3,0,0,0,10,10c0-.32,0-.61,0-.89A5.58,5.58,0,0,1,10,8c.22.13.52.33.72.48l.53.35A2.27,2.27,0,0,0,14,8.68a11.68,11.68,0,0,0,1.6-1.92A14.33,14.33,0,0,1,16.93,5a17.14,17.14,0,0,1,1.52,1.45,27.74,27.74,0,0,0,3,2.72,10.55,10.55,0,0,0,3.39,1.51,8,8,0,0,1,1.13.4,28.84,28.84,0,0,1-1.37,2.73c-1.31,2.43-1.83,3.49-1.78,4.23a24.75,24.75,0,0,0,.57,2.66,30.47,30.47,0,0,1,.75,3.52,3.45,3.45,0,0,1-1.35,1,12.88,12.88,0,0,1-1.61-.62c-1.4-.62-2.16-.93-2.77-.83s-1.15.65-2.18,1.75A13.49,13.49,0,0,1,14.7,27c-1.17-.12-6-2.51-7.19-3.42a20.29,20.29,0,0,1,.7-2A15,15,0,0,0,9.5,17c0-1.77-1.48-2.7-2.64-3.44S5,12.28,5,11.52A14.3,14.3,0,0,1,6.6,11.48Z"/></g></svg>