<svg xmlns="http://www.w3.org/2000/svg" viewBox="0 0 32 32"><defs><style>.cls-1{fill:none;}.cls-2{fill:#919191;}</style></defs><title>Product_Basket_Multi_32px</title><g id="Square"><rect class="cls-1" width="32" height="32"/></g><g id="Icon"><path class="cls-2" d="M28.8,7.39A1,1,0,0,0,28,7H13l-.15,0L12,3.74A1,1,0,0,0,11,3H9A1,1,0,0,0,9,5h1.23l1.62,6h-4L7,7.75A1,1,0,0,0,6,7H4A1,1,0,0,0,4,9H5.23L6,12.1a.77.77,0,0,0,.07.27l2.43,9.38a1,1,0,0,0,1,.75h11a1,1,0,0,0,1-.75l1-3.75H25.5a1,1,0,0,0,1-.73l2.5-9A1,1,0,0,0,28.8,7.39ZM19.73,20.5H10.27L8.33,13H21.7Zm5-4.5H23l1-3.75a1,1,0,0,0-.18-.86A1,1,0,0,0,23,11H13.92l-.54-2h13.3Z"/><path class="cls-2" d="M11.5,23.18a2.91,2.91,0,1,0,2.91,2.91A2.91,2.91,0,0,0,11.5,23.18Zm0,3.82a.91.91,0,1,1,.91-.91A.91.91,0,0,1,11.5,27Z"/><path class="cls-2" d="M18.5,23.18a2.91,2.91,0,1,0,2.91,2.91A2.91,2.91,0,0,0,18.5,23.18Zm0,3.82a.91.91,0,1,1,.91-.91A.91.91,0,0,1,18.5,27Z"/></g></svg>