<svg xmlns="http://www.w3.org/2000/svg" viewBox="0 0 32 32"><defs><style>.cls-1{fill:none;}</style></defs><title>Product_Promise_Certification_32px</title><g id="Square"><rect class="cls-1" width="32" height="32"/></g><g id="Icon"><path d="M26.87,23.5l-3.58-6.25a9,9,0,1,0-14.58,0L5.13,23.5a1,1,0,0,0,0,1A1,1,0,0,0,6,25h4.5l2.7,3.6a1,1,0,0,0,.8.4h.09a1,1,0,0,0,.8-.55L16,26.24l1.11,2.21a1,1,0,0,0,.8.55H18a1,1,0,0,0,.8-.4L21.5,25H26a1,1,0,0,0,.86-.5A1,1,0,0,0,26.87,23.5ZM16,5a7,7,0,1,1-7,7A7,7,0,0,1,16,5ZM13.83,26.11l-2-2.71A1,1,0,0,0,11,23H7.72l2.4-4.2a9,9,0,0,0,3,1.73L14.88,24ZM21,23a1,1,0,0,0-.8.4l-2,2.71L15.61,21,16,21a8.94,8.94,0,0,0,5.88-2.2l2.4,4.2Z"/><path d="M14.79,15.21a1,1,0,0,0,1.42,0l4.5-4.5a1,1,0,0,0-1.42-1.42l-3.79,3.8-2.29-2.3a1,1,0,0,0-1.42,1.42Z"/></g></svg>