<svg xmlns="http://www.w3.org/2000/svg" viewBox="0 0 32 32"><defs><style>.cls-1{fill:none;}.cls-2{fill:#919191;}</style></defs><title>Project_Inspiration_32px</title><g id="Square"><rect class="cls-1" width="32" height="32"/></g><g id="Icon"><path class="cls-2" d="M25,27V5a2,2,0,0,0-2-2H9A2,2,0,0,0,7,5V27a2,2,0,0,0,2,2H23A2,2,0,0,0,25,27ZM23,5V20h-.94l-2.69-5.38a1,1,0,0,0-.87-.55h0a1,1,0,0,0-.88.52L16,17.45,12.83,11.5A1,1,0,0,0,12,11a1,1,0,0,0-.88.45L9,14.6V5ZM9,16.4,12,12l3.18,6a1,1,0,0,0,.87.53h0a1,1,0,0,0,.87-.51l1.6-2.87L20.94,20H9ZM9,22H23v5H9Z"/><path class="cls-2" d="M20,10a2,2,0,1,0-2-2A2,2,0,0,0,20,10Zm0-3a1,1,0,1,1-1,1A1,1,0,0,1,20,7Z"/></g></svg>