<svg xmlns="http://www.w3.org/2000/svg" viewBox="0 0 32 32"><defs><style>.cls-1{fill:none;}.cls-2{fill:#919191;}</style></defs><title>Service_Delay_Delivery--48h_32px</title><g id="Square"><rect class="cls-1" width="32" height="32"/></g><g id="Icon"><polygon class="cls-2" points="11.77 14.82 10.53 14.82 10.53 16.45 8.9 16.45 10.75 12.13 9.39 12.13 7.51 16.54 7.51 17.57 10.53 17.57 10.53 19.07 11.77 19.07 11.77 17.57 12.55 17.57 12.55 16.45 11.77 16.45 11.77 14.82"/><path class="cls-2" d="M17.17,15.53A1.75,1.75,0,0,0,18.24,14a1.77,1.77,0,0,0-.66-1.4A2.66,2.66,0,0,0,15.81,12a2.66,2.66,0,0,0-1.77.56,1.77,1.77,0,0,0-.66,1.4,1.73,1.73,0,0,0,1.07,1.58,2.21,2.21,0,0,0-.83.64,1.62,1.62,0,0,0-.32,1A1.82,1.82,0,0,0,14,18.65a2.8,2.8,0,0,0,1.83.56,2.84,2.84,0,0,0,1.84-.56,1.85,1.85,0,0,0,.68-1.48,1.56,1.56,0,0,0-.33-1A2.13,2.13,0,0,0,17.17,15.53ZM15,13.27a1.29,1.29,0,0,1,1.58,0,1,1,0,0,1,.31.75,1,1,0,0,1-.29.72,1.06,1.06,0,0,1-.81.3,1.09,1.09,0,0,1-.81-.3,1,1,0,0,1-.29-.72A1,1,0,0,1,15,13.27Zm1.65,4.63a1.25,1.25,0,0,1-.86.3,1.23,1.23,0,0,1-.85-.3,1,1,0,0,1-.33-.79,1,1,0,0,1,.32-.78,1.18,1.18,0,0,1,.86-.31,1.2,1.2,0,0,1,.87.31,1,1,0,0,1,.32.78A1,1,0,0,1,16.67,17.9Z"/><path class="cls-2" d="M23.58,14.12a1.82,1.82,0,0,0-1.36-.54,1.67,1.67,0,0,0-.81.19,2.08,2.08,0,0,0-.6.49V11.57H19.54v7.5h1.27V15.93a1.17,1.17,0,0,1,.3-.84,1,1,0,0,1,.73-.31,1,1,0,0,1,.72.3,1.1,1.1,0,0,1,.29.81v3.18h1.27V15.59A2,2,0,0,0,23.58,14.12Z"/><path class="cls-2" d="M25.52,7.18l.72-.72.41.41a.51.51,0,0,0,.7,0,.5.5,0,0,0,0-.71L25.84,4.65a.5.5,0,0,0-.71,0,.5.5,0,0,0,0,.7l.41.41-.72.72a12.92,12.92,0,0,0-17.65,0,.47.47,0,0,0-.06-.09L5.71,5,6.85,3.85a.49.49,0,0,0-.7-.7l-3,3a.48.48,0,0,0,0,.7.48.48,0,0,0,.7,0L5,5.71l1.4,1.4.09.06a13,13,0,1,0,19,0ZM16,27A11,11,0,1,1,27,16,11,11,0,0,1,16,27Z"/></g></svg>