<svg xmlns="http://www.w3.org/2000/svg" viewBox="0 0 32 32"><defs><style>.cls-1{fill:none;}.cls-2{fill:#919191;}</style></defs><title>Service_AfterSales_AfterSalesService_32px</title><g id="Square"><rect class="cls-1" width="32" height="32"/></g><g id="Icon"><path class="cls-2" d="M29,9.23A2,2,0,0,0,25.55,8L23.5,10.09,21.91,8.5l2.05-2A2,2,0,0,0,22.77,3a7.94,7.94,0,0,0-5.69,1.75,2.28,2.28,0,0,0-.46.47,7.72,7.72,0,0,0-1.47,6.18L3.79,22.79a3.83,3.83,0,0,0,5.42,5.42l11.4-11.35a7.84,7.84,0,0,0,6.13-1.48,2.27,2.27,0,0,0,.47-.46A7.91,7.91,0,0,0,29,9.23Zm-3.39,4.52A5.75,5.75,0,0,1,21,14.9a2,2,0,0,0-1.86.54L7.79,26.79a1.82,1.82,0,0,1-2.58-2.58L16.56,12.85A2,2,0,0,0,17.1,11a5.78,5.78,0,0,1,1.19-4.61A6.19,6.19,0,0,1,22,5a5.27,5.27,0,0,1,.56,0L20.5,7.09a2,2,0,0,0,0,2.82l1.59,1.59a2,2,0,0,0,2.82,0L27,9.45h0A5.91,5.91,0,0,1,25.57,13.75Z"/><circle class="cls-2" cx="6.5" cy="25.5" r="1"/></g></svg>