<svg xmlns="http://www.w3.org/2000/svg" viewBox="0 0 32 32"><defs><style>.cls-1{fill:none;}.cls-2{fill:#919191;}</style></defs><title>Service_Delay_Delivery--2h_32px</title><g id="Square"><rect class="cls-1" width="32" height="32"/></g><g id="Icon"><path class="cls-2" d="M14.26,16.32a4.78,4.78,0,0,0,1-1.15,2.31,2.31,0,0,0,.3-1.14,1.88,1.88,0,0,0-.65-1.46A2.67,2.67,0,0,0,13.05,12a2.66,2.66,0,0,0-1.6.46,2.1,2.1,0,0,0-.84,1.11l1.25.35a1.09,1.09,0,0,1,.45-.56,1.26,1.26,0,0,1,.72-.2,1.13,1.13,0,0,1,.79.27.94.94,0,0,1,.29.71,1.45,1.45,0,0,1-.19.71,4.71,4.71,0,0,1-.7.82l-2.44,2.28v1.13h4.81v-1.2h-3Z"/><path class="cls-2" d="M19.5,13.58a1.66,1.66,0,0,0-.8.19,2.08,2.08,0,0,0-.6.49V11.57H16.82v7.5H18.1V15.93a1.17,1.17,0,0,1,.3-.84,1,1,0,0,1,.72-.31,1,1,0,0,1,.73.3,1.09,1.09,0,0,1,.28.81v3.18H21.4V15.59a2,2,0,0,0-.53-1.47A1.83,1.83,0,0,0,19.5,13.58Z"/><path class="cls-2" d="M25.52,7.18l.72-.72.41.41a.51.51,0,0,0,.7,0,.5.5,0,0,0,0-.71L25.84,4.65a.5.5,0,0,0-.71,0,.5.5,0,0,0,0,.7l.41.41-.72.72a12.92,12.92,0,0,0-17.65,0,.47.47,0,0,0-.06-.09L5.71,5,6.85,3.85a.49.49,0,0,0-.7-.7l-3,3a.48.48,0,0,0,0,.7.48.48,0,0,0,.7,0L5,5.71l1.4,1.4.09.06a13,13,0,1,0,19,0ZM16,27A11,11,0,1,1,27,16,11,11,0,0,1,16,27Z"/></g></svg>