<svg xmlns="http://www.w3.org/2000/svg" viewBox="0 0 32 32"><defs><style>.cls-1{fill:none;}.cls-2{fill:#999;}</style></defs><title>Service_PurchaseHelp_HomeInstall_32px</title><g id="Square"><rect class="cls-1" width="32" height="32"/></g><g id="Icon"><path class="cls-2" d="M28.83,7.27a1.47,1.47,0,0,0-1.11-.7l-2.5-.26.27-.76L19.42,3.32a5.26,5.26,0,0,0-4.54.44L11.45,5.84a1.92,1.92,0,0,0,1.12,3.55A7.61,7.61,0,0,1,15,9.64l-.67,1.86h-2.6a3,3,0,0,0-2,.77L5.9,15.74a1,1,0,0,1-.67.26H4a1,1,0,0,0,0,2H5.23a3,3,0,0,0,2-.77l3.86-3.47a1,1,0,0,1,.67-.26h3l-.9,2.5H13a1,1,0,0,0,0,2h8.38a1,1,0,0,1,.8.39,1,1,0,0,1,.17.87l-1.91,7a1,1,0,0,1-1,.74H4a1,1,0,0,0,0,2H19.47a3,3,0,0,0,2.9-2.21l1.91-7A3,3,0,0,0,21.38,16h-.8l.31-.86.09,0a1.42,1.42,0,0,0,.63-.15,1.48,1.48,0,0,0,.78-.85l.49-1.37L25,14.21a1.51,1.51,0,0,0,2.26-.74L29,8.57A1.46,1.46,0,0,0,28.83,7.27ZM16,16l.82-2.27,2.16.79L18.46,16Zm9.53-3.81-3.66-2.5L20.68,13,16.5,11.48l1.1-3.06L16.34,8a9.71,9.71,0,0,0-3.58-.58l3.15-1.91a3.29,3.29,0,0,1,2.82-.27l4.21,1.55L22.47,8l4.41.46Z"/></g></svg>