<svg width="32" height="32" viewBox="0 0 32 32" fill="none" xmlns="http://www.w3.org/2000/svg">
  <g id="Square"> </g>
  <g id="Icon">
<path id="Union" fill-rule="evenodd" clip-rule="evenodd" d="M5 5H10V9H5V5ZM11 9V5H21V9V10V14V15V19H11V15V14V10V9ZM21 20H11V27H21V20ZM22 27V20H27V27H22ZM22 19V15H27V19H22ZM22 14H27V10H22V14ZM22 9H27V5H22V9ZM10 15V19H5V15H10ZM10 10V14H5V10H10ZM10 27V20H5L5 27H10ZM3 5C3 3.89543 3.89543 3 5 3H27C28.1046 3 29 3.89543 29 5V27C29 28.1046 28.1046 29 27 29H5C3.89543 29 3 28.1046 3 27V5ZM18 10H14V14H18V10ZM14 9C13.4477 9 13 9.44772 13 10V14V15C13 15.5523 13.4477 16 14 16H18C18.5523 16 19 15.5523 19 15V14V10C19 9.44772 18.5523 9 18 9H14Z" fill="black"/>
</g>
</svg>
