<svg xmlns="http://www.w3.org/2000/svg" viewBox="0 0 32 32"><defs><style>.cls-1{fill:none;}.cls-2{fill:#919191;}</style></defs><title>Service_PurchaseHelp_CarRent_32px</title><g id="Square"><rect class="cls-1" width="32" height="32"/></g><g id="Icon"><path class="cls-2" d="M9,15.18h.74A3,3,0,0,0,12.5,17a3,3,0,0,0,2.75-1.82h1.49A3,3,0,0,0,19.5,17a3,3,0,0,0,2.75-1.82H23a2,2,0,0,0,2-2V9.62a1.53,1.53,0,0,0-1.53-1.53h0l-.66-2.21a2,2,0,0,0-1.92-1.43H19.1A2,2,0,0,0,17.18,3H9A2,2,0,0,0,7,5v8.18A2,2,0,0,0,9,15.18Zm4.5-1.08a1,1,0,0,1-1,.9,1,1,0,1,1,1-1Zm7,0a1,1,0,0,1-1,.9,1,1,0,1,1,1-1ZM9,5h8.18V9.82a1,1,0,0,0,2,0V6.45h1.71L22,10.09h1v3.09h-.63a3,3,0,0,0-5.74,0H15.37a3,3,0,0,0-5.74,0H9Z"/><path class="cls-2" d="M28.77,21.22a2.7,2.7,0,0,0-3.53-1.48l-3.39,1.4A2.63,2.63,0,0,0,19.29,19H12.71a11.9,11.9,0,0,0-5.39,1.3l-1.78.91a1,1,0,0,0-.43,1.34A1,1,0,0,0,6.46,23l1.77-.91A9.83,9.83,0,0,1,12.71,21h6.58a.67.67,0,0,1,0,1.34H15.5a1,1,0,0,0,0,2h3.79a2.54,2.54,0,0,0,1.76-.71l5-2a.71.71,0,0,1,.92.41.91.91,0,0,1,0,.67.82.82,0,0,1-.42.42l-8.91,3.67a2.44,2.44,0,0,1-1.05.24H11a1,1,0,1,0,0,2h5.59a4.36,4.36,0,0,0,1.85-.41l8.88-3.65a2.76,2.76,0,0,0,1.5-1.52A2.85,2.85,0,0,0,28.77,21.22Z"/></g></svg>