<svg xmlns="http://www.w3.org/2000/svg" viewBox="0 0 32 32"><defs><style>.cls-1{fill:none;}.cls-2{fill:#999;}</style></defs><title>Service_Tools_Comparator_32px</title><g id="Square"><rect class="cls-1" width="32" height="32"/></g><g id="Icon"><path class="cls-2" d="M28,17.25h-.85L24.5,10.43l3.34.56H28a1,1,0,0,0,.16-2L19,7.48A3,3,0,0,0,17,5.18V4a1,1,0,0,0-2,0V5.18a3,3,0,0,0-1.61,1.37L4.16,5a1,1,0,0,0-.32,2l3.79.63L4.85,14.75H4a1,1,0,0,0-1,1,5.5,5.5,0,0,0,11,0,1,1,0,0,0-1-1h-.85L9.5,7.93l3.55.59A3,3,0,0,0,15,10.82V27H11a1,1,0,0,0,0,2H21a1,1,0,0,0,0-2H17V10.82a3,3,0,0,0,1.61-1.37l4,.67-2.78,7.13H19a1,1,0,0,0-1,1,5.5,5.5,0,0,0,11,0A1,1,0,0,0,28,17.25Zm-19.5,2a3.51,3.51,0,0,1-3.35-2.5h6.7A3.51,3.51,0,0,1,8.5,19.25Zm-2.58-4.5L8.5,8.13l2.58,6.62ZM16,7a1,1,0,1,1-1,1A1,1,0,0,1,16,7Zm7.5,3.63,2.58,6.62H20.92Zm0,11.12a3.51,3.51,0,0,1-3.35-2.5h6.7A3.51,3.51,0,0,1,23.5,21.75Z"/></g></svg>