<svg xmlns="http://www.w3.org/2000/svg" viewBox="0 0 32 32"><defs><style>.cls-1{fill:none;}.cls-2{fill:#999;}</style></defs><title>Service_AfterSales_Satisfaction_32px</title><g id="Square"><rect class="cls-1" width="32" height="32"/></g><g id="Icon"><path class="cls-2" d="M16,3A13,13,0,1,0,29,16,13,13,0,0,0,16,3Zm0,24A11,11,0,1,1,27,16,11,11,0,0,1,16,27Z"/><path class="cls-2" d="M13.4,13.9a.51.51,0,0,1-.47-.32,1.61,1.61,0,0,0-3,0,.52.52,0,0,1-.65.29A.51.51,0,0,1,9,13.22a2.62,2.62,0,0,1,4.84,0,.51.51,0,0,1-.29.65A.57.57,0,0,1,13.4,13.9Z"/><path class="cls-2" d="M22.5,13.9a.51.51,0,0,1-.47-.32,1.61,1.61,0,0,0-3,0,.52.52,0,0,1-.65.29.51.51,0,0,1-.29-.65,2.62,2.62,0,0,1,4.84,0,.51.51,0,0,1-.29.65A.57.57,0,0,1,22.5,13.9Z"/><path class="cls-2" d="M22.36,17.42a.5.5,0,0,0-.62.34,6,6,0,0,1-11.47,0,.5.5,0,0,0-.62-.33.51.51,0,0,0-.33.63,7,7,0,0,0,13.38-.05A.5.5,0,0,0,22.36,17.42Z"/></g></svg>