<svg xmlns="http://www.w3.org/2000/svg" viewBox="0 0 32 32"><defs><style>.cls-1{fill:none;}.cls-2{fill:#999;}</style></defs><title>Service_Delivery_Delivery_Pickup--RelayPoint_32px</title><g id="Square"><rect class="cls-1" width="32" height="32"/></g><g id="Icon"><path class="cls-2" d="M26.51,9.12l-10-6a1,1,0,0,0-1,0l-10,6A1,1,0,0,0,5,10V22a1,1,0,0,0,.49.86l10,6a1,1,0,0,0,1,0l10-6A1,1,0,0,0,27,22V10A1,1,0,0,0,26.51,9.12ZM16,5.16,24.08,10l-3,1.79L13,7Zm0,9.67L7.92,10l3.14-1.88L19.14,13ZM7,11.78l8,4.79v9.67L7,21.45ZM17,26.24V16.57l8-4.79v9.67Z"/></g></svg>