<svg xmlns="http://www.w3.org/2000/svg" viewBox="0 0 32 32">
      <g id="Square"> </g>
  <g clip-path="url(#a)">
    <path fill-rule="evenodd" d="M29.333 16c0 7.364-5.97 13.334-13.334 13.334-7.363 0-13.333-5.97-13.333-13.334 0-7.363 5.97-13.333 13.333-13.333 7.364 0 13.334 5.97 13.334 13.333Zm-12.867-3.497c-1.3.544-3.886 1.666-7.772 3.353-.621.255-.955.5-.988.744-.049.413.468.573 1.165.79.09.028.183.056.279.087.688.222 1.598.477 2.075.488.434.012.911-.166 1.444-.532 3.63-2.454 5.495-3.697 5.617-3.72.09-.022.2-.044.278.023.078.066.078.2.067.233-.053.22-2.22 2.232-3.206 3.147a40.15 40.15 0 0 0-.47.439c-.103.107-.21.208-.311.306-.638.61-1.116 1.068.023 1.814.519.342.937.628 1.348.909.497.338.984.67 1.627 1.09.152.099.297.202.439.303.553.393 1.052.749 1.67.696.356-.034.723-.367.911-1.366.444-2.354 1.31-7.471 1.51-9.58a1.755 1.755 0 0 0-.022-.523c-.022-.11-.056-.255-.189-.366-.166-.133-.41-.155-.522-.155-.5.01-1.276.277-4.973 1.82Z"/>
  </g>
  <defs>
    <clipPath id="a">
      <rect width="32" height="32" fill="#fff"/>
    </clipPath>
  </defs>
</svg>
