<svg xmlns="http://www.w3.org/2000/svg" viewBox="0 0 32 32">
      <g id="Square"> </g>
  <g clip-path="url(#a)">
    <path d="M27.333 2.667H4.666a2 2 0 0 0-2 2v22.666a2 2 0 0 0 2 2h22.667a2 2 0 0 0 2-2V4.667a2 2 0 0 0-2-2ZM10.666 25.332h-4V12.667h4v12.666ZM8.666 11a2.333 2.333 0 1 1 2.4-2.334A2.373 2.373 0 0 1 8.666 11Zm16.667 14.333h-4v-6.986c0-1.894-.8-2.574-1.84-2.574a2.32 2.32 0 0 0-2.16 2.48 18.39 18.39 0 0 0 0 .854v6.226h-4V12.667h3.866V14.4a4.148 4.148 0 0 1 3.6-1.867c2.067 0 4.48 1.147 4.48 4.88l.054 7.92Z"/>
  </g>
  <defs>
    <clipPath id="a">
      <rect width="32" height="32" fill="#fff"/>
    </clipPath>
  </defs>
</svg>
