<svg xmlns="http://www.w3.org/2000/svg" viewBox="0 0 32 32"><defs><style>.cls-1{fill:none;}.cls-2{fill:#919191;}</style></defs><title>Social_View_Star--First_32px</title><g id="Square"><rect class="cls-1" width="32" height="32"/></g><g id="Icon"><path class="cls-2" d="M27.82,13.23a2,2,0,0,0-1.59-1.35L20.39,11,17.81,5.5a2,2,0,0,0-3.62,0L11.61,11l-5.84.89a2,2,0,0,0-1.13,3.38l4.29,4.39-1,6.16a2,2,0,0,0,.82,2,2,2,0,0,0,2.12.12L16,25l5.13,2.84a2,2,0,0,0,1,.25,2,2,0,0,0,2-2.32l-1-6.16,4.29-4.39A2,2,0,0,0,27.82,13.23Zm-6.18,5A2,2,0,0,0,21.09,20l1,6.15L17,23.29a2,2,0,0,0-1.94,0L9.9,26.13l1-6.16a2,2,0,0,0-.55-1.71l-4.28-4.4L11.91,13a2,2,0,0,0,1.51-1.13L16,6.35l2.58,5.49A2,2,0,0,0,20.08,13l5.84.89Z"/></g></svg>