<svg xmlns="http://www.w3.org/2000/svg" viewBox="0 0 32 32"><defs><style>.cls-1{fill:none;}.cls-2{fill:#999;}</style></defs><title>Social_Comment_Community_32px</title><g id="Square"><rect class="cls-1" width="32" height="32"/></g><g id="Icon"><path class="cls-2" d="M25,16V5a2,2,0,0,0-2-2H5A2,2,0,0,0,3,5V19a2,2,0,0,0,2,2H9v3.13a1,1,0,0,0,1.55.83L16,21.33V26a1,1,0,0,0,1,1h3.84l2.58,1.84A1,1,0,0,0,25,28V27h3a1,1,0,0,0,1-1V17a1,1,0,0,0-1-1Zm-9.61,3.34L11,22.26V19H5V5H23V19H15.89ZM28,26H24v2l-2.84-2H17V21h6a2,2,0,0,0,2-2V17h3Z"/></g></svg>