<svg xmlns="http://www.w3.org/2000/svg" viewBox="0 0 32 32"><defs><style>.cls-1{fill:none;}.cls-2{fill:#999;}</style></defs><title>Social_SocialNetwork_Pinterest_32px</title><g id="Square"><rect class="cls-1" width="32" height="32"/></g><g id="Icon"><path class="cls-2" d="M27,7V25a2,2,0,0,1-2,2H12.49A10,10,0,0,0,14,24c.08-.32.34-1.32.76-3a2.55,2.55,0,0,0,1.14,1,3.68,3.68,0,0,0,1.7.35,5.1,5.1,0,0,0,4.05-2.11,8.43,8.43,0,0,0,1.64-5.35,5.58,5.58,0,0,0-.5-2.33,6.35,6.35,0,0,0-1.38-2,6.63,6.63,0,0,0-2.18-1.39,7.5,7.5,0,0,0-2.83-.52,9.25,9.25,0,0,0-2.78.4,7,7,0,0,0-2.19,1.1,7.63,7.63,0,0,0-1.54,1.57,6.71,6.71,0,0,0-1,1.83,6.33,6.33,0,0,0-.3,1.9,5.63,5.63,0,0,0,.56,2.58,3.23,3.23,0,0,0,1.67,1.57.4.4,0,0,0,.34,0,.38.38,0,0,0,.21-.27q.13-.63.21-.87a.62.62,0,0,0-.16-.6,3.32,3.32,0,0,1-.71-2.15,5.1,5.1,0,0,1,1.48-3.68,5.18,5.18,0,0,1,3.87-1.52,4.57,4.57,0,0,1,3.33,1.16,4,4,0,0,1,1.2,3,8,8,0,0,1-1,4.09,2.83,2.83,0,0,1-2.48,1.69,1.71,1.71,0,0,1-1.39-.62,1.57,1.57,0,0,1-.33-1.48c.07-.33.2-.77.38-1.33s.32-1,.42-1.46a4.2,4.2,0,0,0,.16-1.07,1.8,1.8,0,0,0-.38-1.16A1.31,1.31,0,0,0,15,12.89a1.78,1.78,0,0,0-1.48.81,3.22,3.22,0,0,0-.61,2,3.89,3.89,0,0,0,.34,1.73l-1.4,5.93a10.65,10.65,0,0,0-.1,3.64H7a2,2,0,0,1-2-2V7A2,2,0,0,1,7,5H25A2,2,0,0,1,27,7Z"/></g></svg>