<svg xmlns="http://www.w3.org/2000/svg" viewBox="0 0 32 32">
      <g id="Square"> </g>
  <g clip-path="url(#a)">
    <path d="M28.777 9.582a3.34 3.34 0 0 0-2.357-2.357C24.339 6.667 16 6.667 16 6.667s-8.34 0-10.419.558a3.34 3.34 0 0 0-2.357 2.357c-.558 2.079-.558 6.419-.558 6.419s0 4.34.558 6.418a3.34 3.34 0 0 0 2.357 2.358c2.079.557 10.418.557 10.418.557s8.34 0 10.418-.557a3.34 3.34 0 0 0 2.358-2.358c.558-2.078.558-6.418.558-6.418s0-4.34-.558-6.419h.002ZM13.332 20v-7.999l6.928 4-6.928 4Z"/>
  </g>
  <defs>
    <clipPath id="a">
      <rect width="32" height="32" fill="#fff"/>
    </clipPath>
  </defs>
</svg>
