<svg xmlns="http://www.w3.org/2000/svg" viewBox="0 0 32 32"><defs><style>.cls-1{fill:none;}.cls-2{fill:#919191;}</style></defs><title>Store_Monochrome_RelayLocation_32px_1</title><g id="Square"><rect class="cls-1" width="32" height="32"/></g><g id="Icon"><path class="cls-2" d="M16,3A10.73,10.73,0,0,0,5.29,13.73c0,5,7.64,12.88,10,15.2a1,1,0,0,0,1.4,0c2.37-2.32,10-10.19,10-15.2A10.73,10.73,0,0,0,16,3Zm0,23.8c-5.31-5.34-8.71-10.41-8.71-13.07a8.71,8.71,0,1,1,17.42,0C24.71,16.39,21.31,21.46,16,26.8Z"/><path class="cls-2" d="M21,9.93l-4.5-2.7a1,1,0,0,0-1,0L11,9.93a1,1,0,0,0-.49.85v5.44a1,1,0,0,0,.49.85l4.5,2.7a.94.94,0,0,0,1,0l4.5-2.7a1,1,0,0,0,.49-.85V10.78A1,1,0,0,0,21,9.93ZM16,8.08l4,2.42-1.49.89L14.51,9Zm-.5,10.54-4-2.4V11.38l4,2.39h0ZM12,10.5l1.57-.94,4,2.41L16,12.92Zm8.53,5.72-4,2.4V13.78h0l4-2.39Z"/></g></svg>