<svg xmlns="http://www.w3.org/2000/svg" viewBox="0 0 32 32"><defs><style>.cls-1{fill:none;}.cls-2{fill:#919191;}</style></defs><title>Universe_Living_32px</title><g id="Square"><rect class="cls-1" width="32" height="32"/></g><g id="Icon"><path class="cls-2" d="M26.59,11A11,11,0,0,0,5.42,11,2.5,2.5,0,0,0,3,13.5L4.69,23.75A1.51,1.51,0,0,0,6.17,25h.21L5.11,27.55a1,1,0,0,0,.44,1.34A.93.93,0,0,0,6,29a1,1,0,0,0,.89-.55L8.62,25H23.38l1.73,3.45A1,1,0,0,0,26,29a.93.93,0,0,0,.45-.11,1,1,0,0,0,.44-1.34L25.61,25a1.5,1.5,0,0,0,1.45-1.24l1.68-10.09V13.5A2.5,2.5,0,0,0,26.59,11ZM16,5a9,9,0,0,1,8.67,6.58,2.48,2.48,0,0,0-.92,1.83l-.38,2.26A39.34,39.34,0,0,0,16,15a39.07,39.07,0,0,0-7.62.72L8,13.41a2.52,2.52,0,0,0-.71-1.65A9,9,0,0,1,16,5Zm7.05,12.64L22.65,20H9.1l-.39-2.32A37.41,37.41,0,0,1,16,17,37.53,37.53,0,0,1,23.05,17.64ZM25.15,23H6.6L5,13.44a.5.5,0,0,1,1,.06L7.4,22h17l1.39-8.34V13.5a.5.5,0,0,1,1-.06Z"/></g></svg>