<svg xmlns="http://www.w3.org/2000/svg" viewBox="0 0 32 32"><defs><style>.cls-1{fill:none;}.cls-2{fill:#999;}</style></defs><title>Universe_Kitchen2_32px</title><g id="Square"><rect class="cls-1" width="32" height="32"/></g><g id="Icon"><path class="cls-2" d="M3,5V27a2,2,0,0,0,2,2H27a2,2,0,0,0,2-2V5a2,2,0,0,0-2-2H5A2,2,0,0,0,3,5ZM27,5V9H5V5ZM5,27V11H27V27Z"/><path class="cls-2" d="M23,12.5H9a.5.5,0,0,0,0,1H23a.5.5,0,0,0,0-1Z"/><path class="cls-2" d="M14,7.5h4a.5.5,0,0,0,0-1H14a.5.5,0,0,0,0,1Z"/><circle class="cls-2" cx="11" cy="7" r="0.5"/><circle class="cls-2" cx="8" cy="7" r="0.5"/><circle class="cls-2" cx="24" cy="7" r="0.5"/><circle class="cls-2" cx="21" cy="7" r="0.5"/><path class="cls-2" d="M9.5,24.5h13a1,1,0,0,0,1-1V16a1,1,0,0,0-1-1H9.5a1,1,0,0,0-1,1v7.5A1,1,0,0,0,9.5,24.5Zm0-8.5h13v7.5H9.5Z"/></g></svg>