<svg xmlns="http://www.w3.org/2000/svg" viewBox="0 0 32 32">
      <g id="Square"> </g>
  <path fill-rule="evenodd" d="M11.667 2.667a4.333 4.333 0 1 0 8.666 0h2a6.333 6.333 0 1 1-12.666 0h2ZM5.697 17.09a1 1 0 0 1 .97-.758h18.666a1 1 0 0 1 .97.758l2.667 10.666A1 1 0 0 1 28 29H4a1 1 0 0 1-.97-1.242L5.697 17.09Zm1.75 1.242-.958 3.834h4.403l.48-3.834H7.446ZM5.281 27l.958-3.833h4.528L10.287 27H5.282Zm6.015 0 .479-3.833H15.5V27h-4.204Zm5.204 0v-3.833h3.725l.48 3.833H16.5Zm0-4.833h3.6l-.479-3.834H16.5v3.834ZM21.712 27l-.479-3.833h4.528L26.719 27h-5.007Zm-.604-4.833h4.403l-.958-3.834h-3.924l.48 3.834Zm-9.208 0h3.6v-3.834h-3.121l-.48 3.834Zm4.6-10.834a.5.5 0 1 0-1 0v2a.5.5 0 0 0 1 0v-2Zm-11.667-8a.5.5 0 0 1 .5-.5h2a.5.5 0 0 1 0 1h-2a.5.5 0 0 1-.5-.5Zm19.834-.5a.5.5 0 1 0 0 1h2a.5.5 0 0 0 0-1h-2Zm-16.354 7.52a.5.5 0 0 1 0-.707l1.205-1.205a.5.5 0 1 1 .707.707L9.02 10.354a.5.5 0 0 1-.707 0Zm14.169-1.912a.5.5 0 1 0-.707.707l1.205 1.206a.5.5 0 0 0 .707-.708l-1.205-1.205Z"/>
</svg>
