<svg xmlns="http://www.w3.org/2000/svg" viewBox="0 0 32 32">
  <g id="Square"> </g>
  <g clip-path="url(#a)">
    <path fill-rule="evenodd" d="M26.001 3.74a1 1 0 0 1-.235 1.097L15.4 14.777a1 1 0 0 1-1.619-.348l-1.81-4.481-1.894.765a3 3 0 0 1-1.807 3.426l-2.472.999A3 3 0 1 1 3.55 9.575l2.473-.999a3 3 0 0 1 3.68 1.21l1.893-.765-1.81-4.482a1 1 0 0 1 .923-1.374l14.36-.05A1 1 0 0 1 26 3.74Zm-10.918 8.57L13.826 9.2l1.545-.625a.5.5 0 0 0-.375-.927l-1.545.625-1.257-3.112 10.383-.036-7.494 7.187Zm-8.31-1.88a1 1 0 0 1 .75 1.855l-2.473.999a1 1 0 1 1-.75-1.855l2.473-.999ZM3 23.333a1 1 0 0 1 1-1h4.333v-.963l2-.444v1.407h7.334v-3.037l-7.334 1.63v-.505L15.043 19h2.625v-.792L15.042 19h-4.708v1.421l-2 .604V18a1 1 0 0 1 1-1h12.333l-3.313 1h1.313v.852L28 17a1 1 0 0 1 1 .997v10.67a1 1 0 0 1-1 1H4a1 1 0 0 1-1-1v-5.334ZM19.667 19H27v3.333h-7.333V19ZM8.333 21.025v.345L4 22.333l4.333-1.308Zm4 3.308H5v3.334h7.334v-3.334Zm2 0v3.334h7.334v-3.334h-7.334ZM27 27.667h-3.333v-3.334H27v3.334Z"/>
  </g>
  <defs>
    <clipPath id="a">
      <rect width="32" height="32" fill="#fff"/>
    </clipPath>
  </defs>
</svg>
