<svg xmlns="http://www.w3.org/2000/svg" viewBox="0 0 32 32"><defs><style>.cls-1{fill:none;}.cls-2{fill:#999;}</style></defs><title>Universe_Kitchen_32px</title><g id="Square"><rect class="cls-1" width="32" height="32"/></g><g id="Icon"><path class="cls-2" d="M17,5a6,6,0,0,1,6,6,1,1,0,0,0,2,0A8,8,0,0,0,9,11v8a2,2,0,0,0-2,2v6a2,2,0,0,0,2,2h2a2,2,0,0,0,2-2h3a2,2,0,0,0,2-2V23a2,2,0,0,0-2-2h0l1.94-3.32a1,1,0,1,0-1.72-1L13.67,21H13a2,2,0,0,0-2-2V11A6,6,0,0,1,17,5ZM16,23v2H11v2H9V21h2v2Z"/><path class="cls-2" d="M24.38,14.67,24,14.24l-.38.43c-.08.1-2.12,2.45-2.12,4.33a2.5,2.5,0,0,0,5,0C26.5,17.12,24.46,14.77,24.38,14.67ZM24,20.5A1.5,1.5,0,0,1,22.5,19,6.65,6.65,0,0,1,24,15.8,6.56,6.56,0,0,1,25.5,19,1.5,1.5,0,0,1,24,20.5Z"/></g></svg>