<svg xmlns="http://www.w3.org/2000/svg" viewBox="0 0 32 32"><defs><style>.cls-1{fill:none;}.cls-2{fill:#999;}</style></defs><title>Universe_Security_32px</title><g id="Square"><rect class="cls-1" width="32" height="32"/></g><g id="Icon"><path class="cls-2" d="M24,13H22V9A6,6,0,0,0,10,9v4H8a1,1,0,0,0-1,1V28a1,1,0,0,0,1,1H24a1,1,0,0,0,1-1V14A1,1,0,0,0,24,13ZM12,9a4,4,0,0,1,8,0v4H12ZM23,27H9V15H23Z"/><path class="cls-2" d="M16,17a2.5,2.5,0,0,0-1,4.79L14.5,25h3L17,21.79A2.5,2.5,0,0,0,16,17Z"/></g></svg>