<svg xmlns="http://www.w3.org/2000/svg" viewBox="0 0 32 32">
      <g id="Square"> </g>
  <g clip-path="url(#a)">
    <path fill-rule="evenodd" d="M7 3a5.333 5.333 0 1 0 0 10.667h.988l-2.005 6.666H5a2 2 0 0 0-2 2V27a2 2 0 0 0 2 2h13.333a2 2 0 0 0 2-2v-4.667a2 2 0 0 0-2-2H13.58l.974-3.166h2.64a.5.5 0 0 0 .5-.5v-3h1.64a1 1 0 0 0 1-1v-.886a9.214 9.214 0 0 0 1.553-.3 7.571 7.571 0 0 0 .924-.33l.055-.025.016-.008.005-.003h.002v-.001l-.223-.447.224.447a.5.5 0 0 0 .276-.447V10.5h1.5a.5.5 0 0 0 .354-.146l1.333-1.334a.5.5 0 0 0 .147-.353V8.5H30a.5.5 0 1 0 0-1h-3.5v-.167a.5.5 0 0 0-.147-.353L25.02 5.646a.5.5 0 0 0-.354-.146h-1.5v-.167a.5.5 0 0 0-.276-.447l-.224.447.224-.447h-.001l-.002-.001-.005-.003-.016-.008a5.018 5.018 0 0 0-.253-.11 7.555 7.555 0 0 0-.726-.245 9.207 9.207 0 0 0-1.554-.3V4a1 1 0 0 0-1-1H7Zm13.333 2.226v5.548c.506-.06.939-.157 1.28-.255.229-.065.415-.13.553-.183V5.664a6.751 6.751 0 0 0-.553-.183 8.182 8.182 0 0 0-1.28-.255ZM23.167 6.5v3h1.292l1.04-1.04v-.92L24.46 6.5h-1.293Zm-6.473 9.667h-1.832l.77-2.5h1.062v2.5ZM3.667 8.333A3.333 3.333 0 0 1 7 5h11.333v6.667h-3.44a1 1 0 0 0-.956.706l-2.667 8.666a1 1 0 0 0 .956 1.294h6.107V27H5v-4.667h1.726a1 1 0 0 0 .958-.712l2.607-8.666a1 1 0 0 0-.958-1.288H7a3.333 3.333 0 0 1-3.333-3.334Zm8.5-.333a.5.5 0 0 1 .5-.5H16a.5.5 0 1 1 0 1h-3.334a.5.5 0 0 1-.5-.5Z"/>
  </g>
  <defs>
    <clipPath id="a">
      <rect width="32" height="32" fill="#fff"/>
    </clipPath>
  </defs>
</svg>
