<svg xmlns="http://www.w3.org/2000/svg" viewBox="0 0 32 32"><defs><style>.cls-1{fill:none;}.cls-2{fill:#919191;}</style></defs><title>Universe_Living_32px</title><g id="Square"><rect class="cls-1" width="32" height="32"/></g><g id="Icon"><path class="cls-2" d="M26.37,24.93l.11-.07a.91.91,0,0,0,.19-.13.52.52,0,0,0,.1-.11,1.88,1.88,0,0,0,.12-.18.88.88,0,0,0,.05-.15s0-.08,0-.13l1.75-10.5a.86.86,0,0,0,0-.16A2.49,2.49,0,0,0,27,11.13V8a5,5,0,0,0-5-5H10A5,5,0,0,0,5,8v3.05A2.5,2.5,0,0,0,3,13.5a.86.86,0,0,0,0,.16l1.75,10.5a1,1,0,0,0,1,.84h.63L5.11,27.55a1,1,0,0,0,.44,1.34A.93.93,0,0,0,6,29a1,1,0,0,0,.89-.55L8.62,25H23.38l1.73,3.45A1,1,0,0,0,26,29a.93.93,0,0,0,.45-.11,1,1,0,0,0,.44-1.34L25.62,25H26A1.16,1.16,0,0,0,26.37,24.93ZM6.6,23,5,13.44A.51.51,0,0,1,5.5,13a.5.5,0,0,1,.5.5.86.86,0,0,0,0,.16L7.57,23Zm15.55,0H9.6l-.75-4.5H22.9Zm.92-5.5H8.68l-.21-1.27A37.21,37.21,0,0,1,16,15.5a37.23,37.23,0,0,1,7.29.69Zm.55-3.28A39.14,39.14,0,0,0,16,13.5a38.16,38.16,0,0,0-7.86.77L8,13.41a2.5,2.5,0,0,0-1-1.9V8a3,3,0,0,1,3-3H22a3,3,0,0,1,3,3v3.35a2.46,2.46,0,0,0-1.25,2.06ZM25.15,23h-1l1.56-9.34a.86.86,0,0,0,0-.16.5.5,0,0,1,.5-.5.51.51,0,0,1,.5.44Z"/><circle class="cls-2" cx="12" cy="10" r="1"/><circle class="cls-2" cx="20" cy="10" r="1"/></g></svg>