<svg xmlns="http://www.w3.org/2000/svg" viewBox="0 0 32 32"><defs><style>.cls-1{fill:none;}.cls-2{fill:#999;}</style></defs><title>Universe_Heater_32px</title><g id="Square"><rect class="cls-1" width="32" height="32"/></g><g id="Icon"><path class="cls-2" d="M16,29a7,7,0,0,1-7-7c0-2,1.69-4.24,3.32-6.37a19.42,19.42,0,0,0,2.5-3.81A1.27,1.27,0,0,1,16,11h0a1.27,1.27,0,0,1,1.18.82,19.42,19.42,0,0,0,2.5,3.81C21.31,17.76,23,20,23,22A7,7,0,0,1,16,29Zm0-15.1a33.8,33.8,0,0,1-2.09,2.94C12.54,18.62,11,20.64,11,22a5,5,0,0,0,10,0c0-1.36-1.54-3.38-2.91-5.16A33.8,33.8,0,0,1,16,13.9Z"/><path class="cls-2" d="M12,10a.46.46,0,0,1-.23-.06.49.49,0,0,1-.21-.67,1.62,1.62,0,0,0,0-1.54,2.61,2.61,0,0,1,0-2.46.5.5,0,1,1,.88.46,1.62,1.62,0,0,0,0,1.54,2.61,2.61,0,0,1,0,2.46A.5.5,0,0,1,12,10Z"/><path class="cls-2" d="M20,10a.46.46,0,0,1-.23-.06.49.49,0,0,1-.21-.67,1.62,1.62,0,0,0,0-1.54,2.61,2.61,0,0,1,0-2.46.5.5,0,0,1,.88.46,1.62,1.62,0,0,0,0,1.54,2.61,2.61,0,0,1,0,2.46A.5.5,0,0,1,20,10Z"/><path class="cls-2" d="M16,8a.46.46,0,0,1-.23-.06.49.49,0,0,1-.21-.67,1.62,1.62,0,0,0,0-1.54,2.61,2.61,0,0,1,0-2.46.5.5,0,1,1,.88.46,1.62,1.62,0,0,0,0,1.54,2.61,2.61,0,0,1,0,2.46A.5.5,0,0,1,16,8Z"/></g></svg>