<svg xmlns="http://www.w3.org/2000/svg" viewBox="0 0 32 32">
    <g id="Square"> </g>
  <path fill-rule="evenodd" d="M4.667 27.333V4.667h22.667v22.666H4.667Zm-2-23.666a1 1 0 0 1 1-1h24.667a1 1 0 0 1 1 1v24.666a1 1 0 0 1-1 1H3.667a1 1 0 0 1-1-1V3.667Zm7.687 4.02a.5.5 0 0 0-.707-.707L6.98 9.646a.5.5 0 1 0 .707.707l2.667-2.666Zm4 3.293a.5.5 0 0 1 0 .707l-2.667 2.666a.5.5 0 1 1-.707-.707l2.667-2.666a.5.5 0 0 1 .707 0Zm0-3.293a.5.5 0 0 0-.707-.707L6.98 13.646a.5.5 0 1 0 .707.707l6.667-6.666Z"/>
</svg>
