<svg xmlns="http://www.w3.org/2000/svg" viewBox="0 0 32 32">
    <g id="Square"> </g>
  <path fill-rule="evenodd" d="M17.493 5.102a11 11 0 0 0-10.718 4.907 1 1 0 1 1-1.678-1.09A13 13 0 0 1 17.764 3.12a1 1 0 1 1-.271 1.982ZM5.66 22.172a1 1 0 0 1 1.395.231 11 11 0 0 0 8.177 4.57 1 1 0 1 1-.14 1.995 12.998 12.998 0 0 1-9.663-5.4 1 1 0 0 1 .23-1.396Zm22.953-9.317a1 1 0 1 0-1.94.484 11 11 0 0 1-.475 6.782 1 1 0 1 0 1.854.749 13 13 0 0 0 .56-8.015ZM16 14.333a1.667 1.667 0 1 1-1.604 2.12l-.006-.02-.005-.019A1.667 1.667 0 0 1 16 14.334Zm-.272 5.324a3.666 3.666 0 0 1-2.877-1.777l-8.183 2.193-.966.258-.26-.965a5.667 5.667 0 0 1 9.527-5.43 3.663 3.663 0 0 1 3.929-1.492l4.236-7.337.5-.866.866.5a5.667 5.667 0 0 1-2.897 10.575 3.693 3.693 0 0 1-.401 2.472l5.99 5.99.708.708-.707.707a5.667 5.667 0 0 1-9.465-5.536Zm2.256-.26 4.99 4.991a3.668 3.668 0 0 1-4.99-4.99Zm-12.735-1.55 6.817-1.827a3.668 3.668 0 0 0-6.817 1.826Zm13.52-4.643 3.528-6.112a3.668 3.668 0 0 1-3.529 6.112Z"/>
</svg>
