<svg xmlns="http://www.w3.org/2000/svg" viewBox="0 0 32 32">
      <g id="Square"> </g>
  <path fill-rule="evenodd" d="M3 6.667a1 1 0 0 1 1-1h24a1 1 0 0 1 1 1v18.666a1 1 0 0 1-1 1H4a1 1 0 0 1-1-1V6.667Zm2 1v16.666h22V7.667H5ZM15.925 20c-.705 0-1.257-.205-1.655-.616-.4-.418-.599-.997-.599-1.736v-1.65l-.683.271V14.89l.683-.27v-3.953h1.368v3.423l.897-.345v1.379l-.897.345v1.896c0 .386.085.69.256.911a.84.84 0 0 0 .705.333L15.925 20ZM8 18.633l2.841-3.94H8.053V13.29h4.455v1.17l-2.83 4.039h2.958V19.9H8.011L8 18.633Zm10.667-5.8a.5.5 0 0 0-.5.5v5.334a.5.5 0 0 0 .5.5H24a.5.5 0 0 0 .5-.5v-5.334a.5.5 0 0 0-.5-.5h-5.333Zm.5 5.334v-4.334h1.666v4.334h-1.666Zm2.666-2.667v-1.667H23.5V15.5h-1.667Zm0 1H23.5v1.667h-1.667V16.5Z"/>
</svg>
