<svg xmlns="http://www.w3.org/2000/svg" viewBox="0 0 32 32"><defs><style>.cls-1{fill:none;}.cls-2{fill:#919191;}</style></defs><title>User_Situation_Tenant_32px</title><g id="Square"><rect class="cls-1" width="32" height="32"/></g><g id="Icon"><path class="cls-2" d="M28.71,15.29l-2-2h0L17.41,4a2,2,0,0,0-2.82,0l-9.3,9.29h0l-2,2a1,1,0,0,0,1.42,1.42l.29-.3V27a2,2,0,0,0,2,2H25a2,2,0,0,0,2-2V16.41l.29.3a1,1,0,0,0,1.42,0A1,1,0,0,0,28.71,15.29ZM25,27H7V14.41l9-9,9,9Z"/><path class="cls-2" d="M12,15a4,4,0,1,0,4-4A4,4,0,0,0,12,15Zm7,0a3,3,0,1,1-3-3A3,3,0,0,1,19,15Z"/><path class="cls-2" d="M18.9,19.07a6.16,6.16,0,0,1-5.81,0,1,1,0,0,0-.72-.09l-2.13.55a1,1,0,0,0-.74,1v4.09a.5.5,0,0,0,.5.5.5.5,0,0,0,.5-.5V20.5L12.61,20a7.16,7.16,0,0,0,6.76,0l2.13.56v4.09a.5.5,0,0,0,.5.5.5.5,0,0,0,.5-.5V20.5a1,1,0,0,0-.75-1L19.62,19A1,1,0,0,0,18.9,19.07Z"/></g></svg>