<svg xmlns="http://www.w3.org/2000/svg" viewBox="0 0 32 32">
    <g id="Square"> </g>
  <path fill-rule="evenodd" d="M4 5.667a1 1 0 0 0-1 1v18.666a1 1 0 0 0 1 1h24a1 1 0 0 0 1-1V6.667a1 1 0 0 0-1-1H4Zm1 18.666V7.667h22v16.666H5Zm7.217-13.27 3.619 3.614c.09.09.237.09.328 0l3.62-3.614a.232.232 0 0 0-.165-.396h-7.238c-.207 0-.31.25-.164.396Zm-2.214 10.004 1.285-8.554a.232.232 0 0 1 .393-.13l4.155 4.149c.09.09.237.09.328 0l4.155-4.149a.232.232 0 0 1 .393.13l1.285 8.554a.232.232 0 0 1-.23.266h-2.78a.232.232 0 0 1-.229-.199l-.37-2.588a.232.232 0 0 0-.394-.131l-1.83 1.827a.232.232 0 0 1-.328 0l-1.83-1.827a.232.232 0 0 0-.394.131l-.37 2.588a.232.232 0 0 1-.23.2h-2.78a.232.232 0 0 1-.23-.267Z"/>
</svg>
