<svg xmlns="http://www.w3.org/2000/svg" viewBox="0 0 32 32"><defs><style>.cls-1{fill:none;}.cls-2{fill:#919191;}</style></defs><title>User_Card_IDCard_32px</title><g id="Square"><rect class="cls-1" width="32" height="32"/></g><g id="Icon"><path class="cls-2" d="M27,7H5A2,2,0,0,0,3,9V23a2,2,0,0,0,2,2H27a2,2,0,0,0,2-2V9A2,2,0,0,0,27,7ZM5,23V9H27V23Z"/><path class="cls-2" d="M13.3,16.38A3,3,0,0,0,14.5,14a3,3,0,0,0-6,0,3,3,0,0,0,1.2,2.38A4.5,4.5,0,0,0,7,20.5H8a3.5,3.5,0,0,1,7,0h1A4.5,4.5,0,0,0,13.3,16.38ZM11.5,16a2,2,0,1,1,2-2A2,2,0,0,1,11.5,16Z"/><rect class="cls-2" x="18" y="12.5" width="7" height="1"/><rect class="cls-2" x="18" y="15.5" width="7" height="1"/></g></svg>