<svg xmlns="http://www.w3.org/2000/svg" viewBox="0 0 32 32"><defs><style>.cls-1{fill:none;}.cls-2{fill:#919191;}</style></defs><title>User_Account_Customer--Pro_32px</title><g id="Square"><rect class="cls-1" width="32" height="32"/></g><g id="Icon"><path class="cls-2" d="M28,19H23.75a.5.5,0,0,0,0-1h-3a.5.5,0,0,0,0,1H16.5a1,1,0,0,0-1,1v.14a9.41,9.41,0,0,1-5.69-.85,2,2,0,0,0-1.5-.12L5,20.21A2.83,2.83,0,0,0,3,22.9v2.6a2,2,0,0,0,1.29,1.87A28.14,28.14,0,0,0,14,29c.74,0,1.43,0,2.11-.08a1,1,0,0,0,.39.08H28a1,1,0,0,0,1-1V20A1,1,0,0,0,28,19Zm-11.5.5V20H28v2.13L22.25,24,16.5,22.13V20h0ZM5,25.5V22.9a.84.84,0,0,1,.62-.78l3.3-1a11.44,11.44,0,0,0,6.58,1.07V27c-.48,0-1,.05-1.5.05A26.09,26.09,0,0,1,5,25.5ZM16.5,28V23.19l2,.64v.67a.5.5,0,0,0,1,0v-.35l2.44.78a1.12,1.12,0,0,0,.31.05,1,1,0,0,0,.3-.05L25.5,24v.51a.5.5,0,0,0,1,0v-.83l1.5-.48V28Z"/><path class="cls-2" d="M14,17.5A6.5,6.5,0,1,0,7.5,11,6.51,6.51,0,0,0,14,17.5Zm0-11A4.5,4.5,0,1,1,9.5,11,4.51,4.51,0,0,1,14,6.5Z"/></g></svg>