<svg xmlns="http://www.w3.org/2000/svg" viewBox="0 0 32 32"><defs><style>.cls-1{fill:none;}.cls-2{fill:#919191;}</style></defs><title>User_Account_Customer--Passion_32px</title><g id="Square"><rect class="cls-1" width="32" height="32"/></g><g id="Icon"><path class="cls-2" d="M28,19a3.39,3.39,0,0,0-4.8,0l-.71.7-.71-.7A3.39,3.39,0,0,0,17,19a3.47,3.47,0,0,0-.69,1,9.41,9.41,0,0,1-6.49-.68,2,2,0,0,0-1.5-.12L5,20.21A2.83,2.83,0,0,0,3,22.9v2.6a2,2,0,0,0,1.29,1.87A28.14,28.14,0,0,0,14,29a29.91,29.91,0,0,0,7.34-.9l.45.45a1,1,0,0,0,1.42,0l4.8-4.8A3.4,3.4,0,0,0,28,19ZM14,27a26.09,26.09,0,0,1-9-1.5V22.9a.84.84,0,0,1,.62-.78l3.3-1a11.4,11.4,0,0,0,7.17,1,3.42,3.42,0,0,0,.9,1.68l2.68,2.67A27.42,27.42,0,0,1,14,27Zm13.3-4-4.8,4.8L17.7,23a2.4,2.4,0,0,1,3.39-3.39l1.41,1.42,1.41-1.42A2.4,2.4,0,0,1,27.3,23Z"/><path class="cls-2" d="M14,17.5A6.5,6.5,0,1,0,7.5,11,6.51,6.51,0,0,0,14,17.5Zm0-11A4.5,4.5,0,1,1,9.5,11,4.51,4.51,0,0,1,14,6.5Z"/></g></svg>