<svg xmlns="http://www.w3.org/2000/svg" viewBox="0 0 32 32"><defs><style>.cls-1{fill:none;}.cls-2{fill:#919191;}</style></defs><title>User_Card_Gift_32px</title><g id="Square"><rect class="cls-1" width="32" height="32"/></g><g id="Icon"><path class="cls-2" d="M25,11H23.44A3.91,3.91,0,0,0,24,9a4,4,0,0,0-8,0A4,4,0,0,0,8,9a3.91,3.91,0,0,0,.56,2H7a2,2,0,0,0-2,2V25a2,2,0,0,0,2,2H25a2,2,0,0,0,2-2V13A2,2,0,0,0,25,11ZM12,7a2,2,0,0,1,2,2v2H12a2,2,0,0,1,0-4Zm3,18H7V20h8Zm0-7H7V13h8Zm3-9a2,2,0,1,1,2,2H18Zm-1,4h8v5H17Zm0,12V20h8v5Z"/></g></svg>