<svg xmlns="http://www.w3.org/2000/svg" viewBox="0 0 32 32"><defs><style>.cls-1{fill:none;}.cls-2{fill:#919191;}</style></defs><title>User_Situation_Owner_32px</title><g id="Square"><rect class="cls-1" width="32" height="32"/></g><g id="Icon"><path class="cls-2" d="M28.77,21.22a2.7,2.7,0,0,0-3.53-1.48l-3.39,1.4A2.63,2.63,0,0,0,19.29,19H12.71a11.9,11.9,0,0,0-5.39,1.3l-1.77.91A1,1,0,0,0,6.45,23l1.78-.91A9.83,9.83,0,0,1,12.71,21h6.58a.67.67,0,0,1,0,1.34H15.5a1,1,0,0,0,0,2h3.79a2.54,2.54,0,0,0,1.76-.71l4.95-2a.71.71,0,0,1,.93.41.91.91,0,0,1,0,.67.82.82,0,0,1-.42.42l-8.91,3.67a2.44,2.44,0,0,1-1.05.24H11a1,1,0,1,0,0,2h5.59a4.22,4.22,0,0,0,1.85-.41l8.88-3.65a2.76,2.76,0,0,0,1.5-1.52A2.85,2.85,0,0,0,28.77,21.22Z"/><path class="cls-2" d="M9.75,14.5A4.74,4.74,0,0,0,14.31,11H26a1,1,0,0,0,0-2H14.42a4.74,4.74,0,1,0-4.67,5.5Zm0-7.5A2.75,2.75,0,1,1,7,9.75,2.75,2.75,0,0,1,9.75,7Z"/><path class="cls-2" d="M26,12H22a1,1,0,0,0,0,2h4a1,1,0,0,0,0-2Z"/></g></svg>