<svg xmlns="http://www.w3.org/2000/svg" viewBox="0 0 32 32"><defs><style>.cls-1{fill:none;}.cls-2{fill:#919191;}</style></defs><title>User_Contact_Mail_32px</title><g id="Square"><rect class="cls-1" width="32" height="32"/></g><g id="Icon"><path class="cls-2" d="M27,9H25V7a2,2,0,0,0-2-2H9A2,2,0,0,0,7,7V9H5a2,2,0,0,0-2,2V25a2,2,0,0,0,2,2H27a2,2,0,0,0,2-2V11A2,2,0,0,0,27,9Zm-2,2h.14l-.14.09ZM9,7H23v5.36l-2,1.29a.4.4,0,0,0,0-.15.5.5,0,0,0-.5-.5h-9a.5.5,0,0,0-.5.5.4.4,0,0,0,0,.15L9,12.36Zm11.42,7L16,16.81,11.58,14ZM7,11v.09L6.86,11ZM5,25V12.19L25.14,25Zm22-1.19L17.86,18,27,12.19Z"/><path class="cls-2" d="M11.5,10.5h9a.5.5,0,0,0,0-1h-9a.5.5,0,0,0,0,1Z"/></g></svg>