<svg xmlns="http://www.w3.org/2000/svg" viewBox="0 0 32 32"><defs><style>.cls-1{fill:none;}.cls-2{fill:#919191;}</style></defs><title>Various_ToolBox_32px</title><g id="Square"><rect class="cls-1" width="32" height="32"/></g><g id="Icon"><path class="cls-2" d="M25,9H22V6a2,2,0,0,0-2-2H12a2,2,0,0,0-2,2V9H7a4,4,0,0,0-4,4V25a2,2,0,0,0,2,2H27a2,2,0,0,0,2-2V13A4,4,0,0,0,25,9ZM12,6h8V9H12ZM5,13a2,2,0,0,1,2-2H25a2,2,0,0,1,2,2v4H21.5V15.5a.5.5,0,0,0-1,0V17h-9V15.5a.5.5,0,0,0-1,0V17H5ZM5,25V18h5.5v1.5a.5.5,0,0,0,1,0V18h9v1.5a.5.5,0,0,0,1,0V18H27v7Z"/></g></svg>