<svg xmlns="http://www.w3.org/2000/svg" viewBox="0 0 32 32"><defs><style>.cls-1{fill:none;}.cls-2{fill:#999;}</style></defs><title>Various_Shutter_32px</title><g id="Square"><rect class="cls-1" width="32" height="32"/></g><g id="Name"><path class="cls-2" d="M27.85,3H4.15A1.16,1.16,0,0,0,3,4.15v3.7A1.16,1.16,0,0,0,4.15,9H5V27a2,2,0,0,0,2,2H25a2,2,0,0,0,2-2V9h.85A1.16,1.16,0,0,0,29,7.85V4.15A1.16,1.16,0,0,0,27.85,3ZM7,14V13H25v1Zm18,1v1H7V15ZM7,12V11H25v1Zm0,5H25v1H7ZM25,9v1H7V9H25ZM7,19H25v1H7Zm0,8V21h8v6Zm10,0V21h8v6ZM27,7H5V5H27Z"/></g></svg>