<svg xmlns="http://www.w3.org/2000/svg" viewBox="0 0 32 32"><defs><style>.cls-1{fill:none;}.cls-2{fill:#919191;}</style></defs><title>Various_PartnerCompany_32px</title><g id="Square"><rect class="cls-1" width="32" height="32"/></g><g id="Icon"><path class="cls-2" d="M28.71,13.24,21.33,5.8a1,1,0,1,0-1.42,1.4l.22.23-.85.86H12.72l-.85-.86.22-.23a1,1,0,1,0-1.42-1.4l-.91.92h0L3.29,13.24a1,1,0,1,0,1.42,1.41l.21-.22,2.29,2.31L7,17a2.34,2.34,0,0,0,0,3.27,2.27,2.27,0,0,0,1.22.64,2.35,2.35,0,0,0,.63,1.23,2.38,2.38,0,0,0,1.21.64,2.29,2.29,0,0,0,1.85,1.86,2.36,2.36,0,0,0,.63,1.22,2.29,2.29,0,0,0,1.63.68h0a2.3,2.3,0,0,0,1.64-.68l.38-.39a2.12,2.12,0,0,0,.75.14,2.3,2.3,0,0,0,1.64-.68,2.36,2.36,0,0,0,.63-1.22A2.34,2.34,0,0,0,20.4,23,2.28,2.28,0,0,0,21,21.8a2.32,2.32,0,0,0,1.22-.63,2.35,2.35,0,0,0,.63-1.23,2.27,2.27,0,0,0,1.22-.64,2.33,2.33,0,0,0,.53-2.4l2.45-2.47.21.22a1,1,0,1,0,1.42-1.41ZM8.83,18.83a.27.27,0,0,1-.43,0,.34.34,0,0,1,0-.46l.22-.21.43.44Zm1.84,1.86a.26.26,0,0,1-.42,0,.32.32,0,0,1,0-.46l.21-.21.35.36.09.08Zm1.85,1.86a.26.26,0,0,1-.43,0,.33.33,0,0,1,0-.45l.22-.22.44.44Zm1.85,1.86a.33.33,0,0,1-.22.09.31.31,0,0,1-.21-.09.33.33,0,0,1,0-.45l.21-.22.44.44Zm8.3-6.51a.26.26,0,0,1-.42,0l-3.69-3.73-1.42,1.41.92.93h0l2.77,2.79a.34.34,0,0,1,0,.46.27.27,0,0,1-.43,0L16.71,16l-1.42,1.41L19,21.17a.31.31,0,0,1,0,.45.26.26,0,0,1-.42,0l-3.7-3.72-1.42,1.4L17.14,23a.33.33,0,0,1,0,.45.26.26,0,0,1-.43,0L6.33,13l4.13-4.16.84.85a2,2,0,0,0,1.42.59h.88l-2.93,3a2.31,2.31,0,0,0,3.27,3.27L16.42,14h2.86l3.39,3.43A.32.32,0,0,1,22.67,17.9Zm.71-2.58L20.7,12.61a2,2,0,0,0-1.42-.6H16.42a2,2,0,0,0-1.42.6L12.52,15.1a.25.25,0,0,1-.42,0,.32.32,0,0,1,0-.45l4.33-4.36h2.86A2,2,0,0,0,20.7,9.7l.84-.85L25.67,13Z"/></g></svg>