<svg xmlns="http://www.w3.org/2000/svg" viewBox="0 0 32 32"><defs><style>.cls-1{fill:none;}.cls-2{fill:#919191;}</style></defs><title>Various_Premium_32px_1</title><g id="Square"><rect class="cls-1" width="32" height="32"/></g><g id="Icon"><path class="cls-2" d="M28.51,9.72,25,5.66A2,2,0,0,0,23.55,5H8.45a2,2,0,0,0-1.51.68l-3.44,4a2,2,0,0,0,0,2.57l11,14.1a2,2,0,0,0,3.13,0l11-14.07A2,2,0,0,0,28.51,9.72ZM8.45,7h2.61l-1.2,3h-4ZM5.79,12H9.86l4.22,10.66Zm9.7,11.5L10.93,12h4.56Zm0-13.5H10.94l1.2-3h3.35Zm8-3,2.54,3H22.14L20.93,7Zm-7,0h3.37l1.2,3H16.49Zm0,16.43V12h4.57Zm1.32-.6L22.14,12h4.08Z"/></g></svg>