<svg xmlns="http://www.w3.org/2000/svg" viewBox="0 0 32 32"><defs><style>.cls-1{fill:none;}.cls-2{fill:#919191;}</style></defs><title>Various_Administration_32px</title><g id="Square"><rect class="cls-1" width="32" height="32"/></g><g id="Icon"><path class="cls-2" d="M28,27H27V25a2,2,0,0,0-2-2V15h.24a2,2,0,0,0,1.28-3.54l-9.24-7.7a2,2,0,0,0-2.56,0l-9.24,7.7A2,2,0,0,0,6.76,15H7v8a2,2,0,0,0-2,2v2H4a1,1,0,0,0,0,2H28a1,1,0,0,0,0-2ZM6.76,13,16,5.3,25.24,13H6.76ZM23,15v8H20.25V15Zm-3.75,0v8H16.5V15ZM13,15H15.5v8H13V15.18A.39.39,0,0,0,13,15ZM12,15a.39.39,0,0,0,0,.18V23H9V15ZM25,27H7V25H25Z"/><path class="cls-2" d="M16,11.5A1.5,1.5,0,1,0,14.5,10,1.5,1.5,0,0,0,16,11.5Zm0-2a.5.5,0,1,1-.5.5A.5.5,0,0,1,16,9.5Z"/></g></svg>