<svg xmlns="http://www.w3.org/2000/svg" viewBox="0 0 32 32"><defs><style>.cls-1{fill:none;}.cls-2{fill:#919191;}</style></defs><title>Various_EcoSaving_32px</title><g id="Square"><rect class="cls-1" width="32" height="32"/></g><g id="Icon"><path class="cls-2" d="M21.89,5.25A8.82,8.82,0,0,0,7.26,10.59a8.72,8.72,0,0,0,1.85,6.74,5.35,5.35,0,0,1,1.25,3.36v.1A2.18,2.18,0,0,0,11.5,22.7v.8A2.71,2.71,0,0,0,13,26.08a3,3,0,0,0,6,0A2.71,2.71,0,0,0,20.5,23.5v-.79a2.18,2.18,0,0,0,1.14-1.9v-.13a5.29,5.29,0,0,1,1.25-3.34,8.82,8.82,0,0,0-1-12.09ZM16,27a1,1,0,0,1-.95-.75H17A1,1,0,0,1,16,27Zm2.5-3.5a1,1,0,0,1-.27.75H13.79a.88.88,0,0,1-.29-.75V23h5Zm2.83-7.41a7.26,7.26,0,0,0-1.69,4.59v.13a.16.16,0,0,1-.16.16h-7a.16.16,0,0,1-.16-.18v-.1a7.31,7.31,0,0,0-1.69-4.61,6.78,6.78,0,0,1-1.43-5.22,6.87,6.87,0,0,1,6-5.82A7,7,0,0,1,16,5a6.71,6.71,0,0,1,4.54,1.74,6.82,6.82,0,0,1,2.28,5.09A6.75,6.75,0,0,1,21.33,16.09Z"/><path class="cls-2" d="M16.32,7.61a.51.51,0,0,0-.64,0,6.36,6.36,0,0,0-2.43,4.89,6.28,6.28,0,0,0,2.25,4.72V18.5a.5.5,0,0,0,1,0V17.22a6.28,6.28,0,0,0,2.25-4.72A6.36,6.36,0,0,0,16.32,7.61Zm.18,8.2V13.5a.5.5,0,0,0-1,0v2.31a5.09,5.09,0,0,1-1.25-3.31A5.21,5.21,0,0,1,16,8.66a5.21,5.21,0,0,1,1.75,3.84A5.09,5.09,0,0,1,16.5,15.81Z"/></g></svg>