<svg xmlns="http://www.w3.org/2000/svg" viewBox="0 0 32 32"><defs><style>.cls-1{fill:none;}.cls-2{fill:#919191;}</style></defs><title>Various_Insulation_32px</title><g id="Square"><rect class="cls-1" width="32" height="32"/></g><g id="Icon"><path class="cls-2" d="M28,11.87a3.71,3.71,0,0,0-3.79-3.61,3.8,3.8,0,0,0-3.28,1.85,3.84,3.84,0,0,0-6.57,0,3.84,3.84,0,0,0-6.57,0A3.8,3.8,0,0,0,4.5,8.26a.5.5,0,0,0-.5.5.5.5,0,0,0,.5.5,2.71,2.71,0,0,1,2.79,2.61,7.87,7.87,0,0,1-.94,2.82C5.35,16.4,4,18.92,4,20.13a3.71,3.71,0,0,0,3.79,3.61,3.8,3.8,0,0,0,3.28-1.85,3.84,3.84,0,0,0,6.57,0,3.84,3.84,0,0,0,6.57,0,3.8,3.8,0,0,0,3.29,1.85.5.5,0,0,0,.5-.5.5.5,0,0,0-.5-.5,2.71,2.71,0,0,1-2.79-2.61,13.42,13.42,0,0,1,1.45-3.72C27.06,14.81,28,12.88,28,11.87ZM7.79,22.74A2.71,2.71,0,0,1,5,20.13a9.23,9.23,0,0,1,1.15-3c.15-.24.64-1.05,1.12-2l.52-.85c1.21,2,2.78,4.87,2.78,5.89A2.7,2.7,0,0,1,7.79,22.74Zm.5-10.87a2.7,2.7,0,0,1,2.78-2.61,2.71,2.71,0,0,1,2.79,2.61c0,1-1.57,3.91-2.79,5.89C9.85,15.78,8.29,12.89,8.29,11.87Zm6.07,10.87a2.71,2.71,0,0,1-2.79-2.61c0-1,1.57-3.91,2.79-5.89,1.22,2,2.78,4.87,2.78,5.89A2.7,2.7,0,0,1,14.36,22.74Zm.5-10.87a2.79,2.79,0,0,1,5.57,0c0,1-1.57,3.91-2.79,5.89C16.42,15.78,14.86,12.89,14.86,11.87Zm6.07,10.87a2.71,2.71,0,0,1-2.79-2.61c0-1,1.57-3.91,2.79-5.89,1.22,2,2.78,4.87,2.78,5.89A2.7,2.7,0,0,1,20.93,22.74Zm4.44-7c-.38.69-.78,1.38-1.16,2-1.21-2-2.78-4.87-2.78-5.89a2.79,2.79,0,0,1,5.57,0A9.62,9.62,0,0,1,25.81,15C25.67,15.19,25.53,15.47,25.37,15.77Z"/><path class="cls-2" d="M4,7H28a1,1,0,0,0,0-2H4A1,1,0,0,0,4,7Z"/><path class="cls-2" d="M28,25H4a1,1,0,0,0,0,2H28a1,1,0,0,0,0-2Z"/></g></svg>