<svg xmlns="http://www.w3.org/2000/svg" viewBox="0 0 32 32">
      <g id="Square"> </g>
  <path fill-rule="evenodd" d="M16 5C9.925 5 5 9.925 5 16s4.925 11 11 11 11-4.925 11-11S22.075 5 16 5ZM3 16C3 8.82 8.82 3 16 3s13 5.82 13 13-5.82 13-13 13S3 23.18 3 16Zm5.439-5.114a1 1 0 0 1 1.342-.447c1.17.585 3.69 1.228 6.219 1.228 2.53 0 5.05-.643 6.22-1.228a1 1 0 1 1 .894 1.789c-1.197.598-3.25 1.16-5.447 1.36v2.846a55.31 55.31 0 0 1 1 2.165c.586 1.341 1.282 3.072 1.636 4.492a1 1 0 0 1-1.94.485c-.312-1.247-.95-2.85-1.53-4.175A58.826 58.826 0 0 0 16 17.58a58.826 58.826 0 0 0-.834 1.82c-.58 1.326-1.217 2.928-1.53 4.175a1 1 0 0 1-1.94-.485c.355-1.42 1.051-3.15 1.638-4.492a61.11 61.11 0 0 1 1-2.165v-2.845c-2.197-.201-4.251-.763-5.448-1.361a1 1 0 0 1-.447-1.342ZM18 8.666a2 2 0 1 1-4 0 2 2 0 0 1 4 0Z"/>
</svg>
