<svg xmlns="http://www.w3.org/2000/svg" width="760" height="181" viewBox="0 0 760 181">
  <g fill="none" fill-rule="evenodd">
    <rect width="760" height="181" fill="#FFF"/>
    <g transform="translate(221 40)">
      <g transform="translate(88)">
        <rect width="142" height="48" fill="#78BE20" rx="4"/>
        <text fill="#FFF" font-family="LeroyMerlinSans-SemiBold, Leroy Merlin Sans" font-size="16" font-weight="500" transform="translate(24)">
          <tspan x="1.008" y="29">Button label</tspan>
        </text>
      </g>  
      <g fill="#A420BE" transform="translate(78 72)">
        <g transform="translate(10)">
          <rect width="1" height="7"/>
          <rect width="1" height="7" x="25"/>
          <polygon points="1 3 26 3 26 4 1 4" transform="matrix(-1 0 0 1 27 0)"/>
        </g>
        <text font-family="OpenSans-Regular, Open Sans" font-size="12" transform="translate(0 10)">
          <tspan x=".21" y="13">Padding</tspan>
        </text>
      </g>
      <rect width="26" height="64" fill="#A420BE" opacity=".498" transform="translate(88)"/>
      <g fill="#A420BE" transform="translate(199 19)">
        <g transform="translate(0 2)">
          <rect width="1" height="7" x="39"/>
          <polygon points="1 3 40 3 40 4 1 4" transform="matrix(-1 0 0 1 41 0)"/>
          <circle cx="3.5" cy="3.5" r="3.5"/>
        </g>
        <text font-family="OpenSans-Regular, Open Sans" font-size="12" transform="translate(46 -4)">
          <tspan x="0" y="13">Font-size</tspan>
        </text>
      </g>
      <g fill="#A420BE" transform="translate(207 43)">
        <text font-family="OpenSans-Regular, Open Sans" font-size="12" transform="translate(-31.2 41)">
          <tspan x="13.463" y="13">Border radius</tspan>
        </text>
        <g transform="translate(17.5)">
          <circle cx="3.5" cy="3.5" r="3.5"/>
          <rect width="1" height="39" x="3" fill-rule="nonzero"/>
          <rect width="7" height="1" y="38" fill-rule="nonzero"/>
        </g>
      </g>
      <circle cx="228" cy="46" r="10" fill="#A420BE" fill-opacity=".3"/>
      <g fill="#A420BE">
        <text font-family="OpenSans-Regular, Open Sans" font-size="12">
          <tspan x="23.203" y="29">Height</tspan>
        </text>
        <g transform="translate(65)">
          <rect width="1" height="48" x="3"/>
          <rect width="7" height="1" transform="matrix(1 0 0 -1 0 1)"/>
          <rect width="7" height="1" y="47" transform="matrix(1 0 0 -1 0 95)"/>
        </g>
      </g>
    </g>
  </g>
</svg>
