<svg xmlns="http://www.w3.org/2000/svg" viewBox="0 0 32 32"><defs><style>.a{fill:none;}.b{fill:#999;}</style></defs><title>Media-TimeRead-32px</title><rect class="a" width="32" height="32"/><path class="b" d="M16,9.8a.9.9,0,0,0-1,1v4.8l-2.3,2.3a1,1,0,0,0,0,1.4,1,1,0,0,0,1.4,0l2.6-2.6A.9.9,0,0,0,17,16V10.8A.9.9,0,0,0,16,9.8Z"/><path class="b" d="M16,3A13,13,0,1,0,29,16,13,13,0,0,0,16,3Zm1,23.9V26a1,1,0,0,0-2,0v.9A10.7,10.7,0,0,1,5.1,17H6a1,1,0,0,0,0-2H5.1A10.7,10.7,0,0,1,15,5.1V6a1,1,0,0,0,2,0V5.1A10.7,10.7,0,0,1,26.9,15H26a1,1,0,0,0,0,2h.9A10.7,10.7,0,0,1,17,26.9Z"/></svg>