<svg xmlns="http://www.w3.org/2000/svg" viewBox="0 0 32 32"><defs><style>.cls-1{fill:none;}.cls-2{fill:#999;}</style></defs><title>Media_FullScreen_32px</title><g id="Square"><rect class="cls-1" width="32" height="32"/></g><g id="Icon"><path class="cls-2" d="M23,25H9a2,2,0,0,1-2-2V9A2,2,0,0,1,9,7H23a2,2,0,0,1,2,2V23A2,2,0,0,1,23,25ZM9,23H23V9H9Z"/><path class="cls-2" d="M4,11a1,1,0,0,1-1-1V5A2,2,0,0,1,5,3h5a1,1,0,0,1,0,2H5v5A1,1,0,0,1,4,11Z"/><path class="cls-2" d="M28,11a1,1,0,0,1-1-1V5H22a1,1,0,0,1,0-2h5a2,2,0,0,1,2,2v5A1,1,0,0,1,28,11Z"/><path class="cls-2" d="M29,27a2,2,0,0,1-2,2H22a1,1,0,1,1,0-2h5V22a1,1,0,0,1,2,0Z"/><path class="cls-2" d="M10,29H5a2,2,0,0,1-2-2V22a1,1,0,0,1,2,0v5h5a1,1,0,1,1,0,2Z"/></g></svg>