<svg xmlns="http://www.w3.org/2000/svg" viewBox="0 0 32 32"><defs><style>.cls-1{fill:none;}.cls-2{fill:#999;}</style></defs><title>Media_Sound_32px</title><g id="Square"><rect class="cls-1" width="32" height="32"/></g><g id="Icon"><path class="cls-2" d="M3,12v8a1,1,0,0,0,1,1H9.7l8.75,5.83A1,1,0,0,0,20,26V6a1,1,0,0,0-1.55-.83L9.7,11H4A1,1,0,0,0,3,12Zm2,1H9v6H5ZM18,24.13l-7-4.67V12.54l7-4.67Z"/><path class="cls-2" d="M26,8.38a1,1,0,0,0-1.48,1.35,9.31,9.31,0,0,1,0,12.65,1,1,0,0,0,.74,1.67,1,1,0,0,0,.74-.32A11.32,11.32,0,0,0,26,8.38Z"/><path class="cls-2" d="M23.2,11.63A1,1,0,0,0,21.73,13a4.54,4.54,0,0,1,0,6.15,1,1,0,0,0,.06,1.41,1,1,0,0,0,.67.26,1,1,0,0,0,.74-.32,6.52,6.52,0,0,0,0-8.85Z"/></g></svg>