<svg xmlns="http://www.w3.org/2000/svg" viewBox="0 0 32 32"><defs><style>.a{fill:none;}.b{fill:#999;}</style></defs><title>Media-Camera-32px</title><rect class="a" width="32" height="32"/><path class="b" d="M16,11.4a5.9,5.9,0,1,0,5.9,5.9A6,6,0,0,0,16,11.4Zm0,9.8a3.9,3.9,0,1,1,3.9-3.9A4,4,0,0,1,16,21.2Z"/><path class="b" d="M27.7,7.6H24.3a1.8,1.8,0,0,1-.9-.4L21.6,5.3a1.6,1.6,0,0,0-.9-.3H11.3a1.6,1.6,0,0,0-.9.3L8.6,7.2a1.8,1.8,0,0,1-.9.4H4.3A1.3,1.3,0,0,0,3,8.9V25.8a1.3,1.3,0,0,0,1.3,1.3H27.7A1.3,1.3,0,0,0,29,25.8V8.9A1.3,1.3,0,0,0,27.7,7.6ZM27,25.1H5V9.6H7.7a3.4,3.4,0,0,0,2.3-1L11.6,7h8.8L22,8.6a3.4,3.4,0,0,0,2.3,1H27Z"/><path class="b" d="M8,11.8H8a.9.9,0,0,0-1,1,1.1,1.1,0,0,0,1,1,1,1,0,0,0,1-1A.9.9,0,0,0,8,11.8Z"/></svg>