<svg xmlns="http://www.w3.org/2000/svg" viewBox="0 0 32 32"><defs><style>.cls-1{fill:none;}.cls-2{fill:#999;}</style></defs><title>Media_Player_32px</title><g id="Square"><rect class="cls-1" width="32" height="32"/></g><g id="Icon"><path class="cls-2" d="M16,5A11,11,0,1,1,5,16,11,11,0,0,1,16,5m0-2A13,13,0,1,0,29,16,13,13,0,0,0,16,3Z"/><path class="cls-2" d="M13,11.5,20.51,16,13,20.49v-9m0-2a2,2,0,0,0-2,2v9a2,2,0,0,0,2,2,2,2,0,0,0,1-.28l7.51-4.5a2,2,0,0,0,0-3.43L14,9.78a2,2,0,0,0-1-.28Z"/></g></svg>