<svg xmlns="http://www.w3.org/2000/svg" viewBox="0 0 32 32"><defs><style>.cls-1{fill:none;}.cls-2{fill:#999;}</style></defs><title>Navigation_Display_Home_32px</title><g id="Square"><rect class="cls-1" width="32" height="32"/></g><g id="Icon"><path class="cls-2" d="M25,29H19a2,2,0,0,1-2-2V22H15v5a2,2,0,0,1-2,2H7a2,2,0,0,1-2-2V18H4.91A2,2,0,0,1,3.5,14.59L14.59,3.5a2,2,0,0,1,2.82,0L28.5,14.59A2,2,0,0,1,27.09,18H27v9A2,2,0,0,1,25,29Zm-6-2h6V16h2.09L16,4.91,4.91,16H7V27h6V22a2,2,0,0,1,2-2h2a2,2,0,0,1,2,2Z"/></g></svg>