<svg xmlns="http://www.w3.org/2000/svg" viewBox="0 0 32 32"><defs><style>.cls-1{fill:none;}.cls-2{fill:#999;}</style></defs><title>Navigation_Display_Setting_32px</title><g id="Square"><rect class="cls-1" width="32" height="32"/></g><g id="Icon"><path class="cls-2" d="M28.28,20.77l.88-4.14a2,2,0,0,0-1.3-2.3L26.8,14c-.07-.35-.15-.7-.25-1.05l.77-.8a2,2,0,0,0,.12-2.65L24.77,6.17a2,2,0,0,0-2.61-.44l-.95.59c-.32-.17-.64-.32-1-.46L20.1,4.75a2,2,0,0,0-2-1.75H13.88a2,2,0,0,0-2,1.75l-.14,1.11c-.33.14-.65.29-1,.46l-.95-.59a2,2,0,0,0-2.61.44L4.56,9.46a2,2,0,0,0,.12,2.65l.77.8c-.1.35-.18.7-.25,1.05l-1.06.37a2,2,0,0,0-1.3,2.3l.88,4.14a2,2,0,0,0,2.13,1.58L7,22.26c.21.29.43.58.66.85l-.38,1.05a2,2,0,0,0,1,2.46L12,28.54a2,2,0,0,0,2.57-.65l.62-.93a9.2,9.2,0,0,0,1.66,0l.62.93a2,2,0,0,0,2.57.65l3.77-1.92a2,2,0,0,0,1-2.46l-.38-1.05c.23-.27.45-.56.66-.85l1.11.09A2,2,0,0,0,28.28,20.77ZM24,20.16l-.32.53a8.91,8.91,0,0,1-1.16,1.51l-.42.45.79,2.19-3.77,1.92L17.8,24.83l-.61.08a7.91,7.91,0,0,1-2.38,0l-.61-.08-1.31,1.93L9.12,24.84l.79-2.19-.42-.45a8.91,8.91,0,0,1-1.16-1.51L8,20.16l-2.33.2L4.8,16.22,7,15.45l.07-.61A9.08,9.08,0,0,1,7.53,13l.21-.58L6.12,10.72,8.78,7.43l2,1.24.52-.33A9.35,9.35,0,0,1,13,7.52l.58-.21L13.88,5h4.24l.29,2.31.58.21a9.35,9.35,0,0,1,1.72.82l.52.33,2-1.24,2.66,3.29-1.62,1.69.21.58a9.08,9.08,0,0,1,.45,1.85l.07.61,2.21.77-.88,4.14Z"/><path class="cls-2" d="M16,10a6,6,0,1,0,6,6A6,6,0,0,0,16,10Zm0,10a4,4,0,1,1,4-4A4,4,0,0,1,16,20Z"/></g></svg>