<svg xmlns="http://www.w3.org/2000/svg" viewBox="0 0 32 32"><defs><style>.a{fill:none;}.b{fill:#999;}</style></defs><title>Navigation-Display-Search-32px</title><rect class="a" width="32" height="32"/><path class="b" d="M24.1,7.9a10.1,10.1,0,0,0-14.2,0,10,10,0,0,0-.6,13.4H9.2L5.6,25a1,1,0,0,0,0,1.4.9.9,0,0,0,.7.3,1.1,1.1,0,0,0,.7-.3l3.6-3.6h.1A10,10,0,0,0,17,25a10.2,10.2,0,0,0,7.1-2.9A10.1,10.1,0,0,0,24.1,7.9ZM22.7,20.7a8.2,8.2,0,0,1-11.4,0,8.1,8.1,0,0,1,0-11.4,8.2,8.2,0,0,1,11.4,0A8.1,8.1,0,0,1,22.7,20.7Z"/></svg>