<svg xmlns="http://www.w3.org/2000/svg" viewBox="0 0 32 32"><defs><style>.cls-1{fill:none;}.cls-2{fill:#999;}</style></defs><title>Navigation_Notification_Question_32px</title><g id="Square"><rect class="cls-1" width="32" height="32"/></g><g id="Icon"><polygon class="cls-2" points="15.68 16.04 15.67 16.04 15.68 16.04 15.68 16.04"/><path class="cls-2" d="M16,9.51h0a3.91,3.91,0,0,0-3.9,3.9,1,1,0,1,0,2,0A2,2,0,0,1,16,11.46h0a2,2,0,0,1,.85,3.71A3.15,3.15,0,0,0,15,18v.32a1,1,0,1,0,1.95,0V18a1.2,1.2,0,0,1,.74-1.06A3.91,3.91,0,0,0,16,9.51Z"/><circle class="cls-2" cx="16" cy="21.51" r="0.97"/><path class="cls-2" d="M16,5A11,11,0,1,1,5,16,11,11,0,0,1,16,5m0-2A13,13,0,1,0,29,16,13,13,0,0,0,16,3Z"/></g></svg>