<svg xmlns="http://www.w3.org/2000/svg" viewBox="0 0 32 32"><defs><style>.a{fill:none;}.b{fill:#999;}</style></defs><title>Navigation-Display-DisplayProductX4-32px</title><rect class="a" width="32" height="32"/><path class="b" d="M13.4,3H4.5A1.5,1.5,0,0,0,3,4.5v8.9a1.5,1.5,0,0,0,1.5,1.5h8.9a1.5,1.5,0,0,0,1.5-1.5V4.5A1.5,1.5,0,0,0,13.4,3Zm-.5,9.9H5V5h7.9Z"/><path class="b" d="M27.5,3H18.6a1.5,1.5,0,0,0-1.5,1.5v8.9a1.5,1.5,0,0,0,1.5,1.5h8.9A1.5,1.5,0,0,0,29,13.4V4.5A1.5,1.5,0,0,0,27.5,3ZM27,12.9H19.1V5H27Z"/><path class="b" d="M13.4,17.1H4.5A1.5,1.5,0,0,0,3,18.6v8.9A1.5,1.5,0,0,0,4.5,29h8.9a1.5,1.5,0,0,0,1.5-1.5V18.6A1.5,1.5,0,0,0,13.4,17.1ZM12.9,27H5V19.1h7.9Z"/><path class="b" d="M27.5,17.1H18.6a1.5,1.5,0,0,0-1.5,1.5v8.9A1.5,1.5,0,0,0,18.6,29h8.9A1.5,1.5,0,0,0,29,27.5V18.6A1.5,1.5,0,0,0,27.5,17.1ZM27,27H19.1V19.1H27Z"/></svg>