<svg xmlns="http://www.w3.org/2000/svg" viewBox="0 0 32 32"><defs><style>.cls-1{fill:none;}.cls-2{fill:#999;}</style></defs><title>Navigation-Display-Display_Mobile_Horizontal-32px</title><g id="Square"><rect class="cls-1" width="32" height="32"/></g><g id="Grid"><path class="cls-2" d="M12,5v7H5V5h7m0-2H5A2,2,0,0,0,3,5v7a2,2,0,0,0,2,2h7a2,2,0,0,0,2-2V5a2,2,0,0,0-2-2Z"/><path class="cls-2" d="M28,7H18.27a1,1,0,0,1,0-2H28a1,1,0,0,1,0,2Z"/><path class="cls-2" d="M28,12H18.27a1,1,0,0,1,0-2H28a1,1,0,0,1,0,2Z"/><path class="cls-2" d="M12,20v7H5V20h7m0-2H5a2,2,0,0,0-2,2v7a2,2,0,0,0,2,2h7a2,2,0,0,0,2-2V20a2,2,0,0,0-2-2Z"/><path class="cls-2" d="M28,22H18.27a1,1,0,1,1,0-2H28a1,1,0,0,1,0,2Z"/><path class="cls-2" d="M28,27H18.27a1,1,0,1,1,0-2H28a1,1,0,0,1,0,2Z"/></g></svg>