<svg xmlns="http://www.w3.org/2000/svg" viewBox="0 0 32 32"><defs><style>.a{fill:#999;}</style></defs><title>Navigation-Display-DisplayProductX9-32px</title><path class="a" d="M9.5,21.5H4a.9.9,0,0,0-1,1V28a.9.9,0,0,0,1,1H9.5a.9.9,0,0,0,1-1V22.5A.9.9,0,0,0,9.5,21.5ZM8.5,27H5V23.5H8.5Z"/><path class="a" d="M18.8,21.5H13.2a1,1,0,0,0-1,1V28a1,1,0,0,0,1,1h5.6a1,1,0,0,0,1-1V22.5A1,1,0,0,0,18.8,21.5Zm-1,5.5H14.2V23.5h3.6Z"/><path class="a" d="M28,21.5H22.5a.9.9,0,0,0-1,1V28a.9.9,0,0,0,1,1H28a.9.9,0,0,0,1-1V22.5A.9.9,0,0,0,28,21.5ZM27,27H23.5V23.5H27Z"/><path class="a" d="M9.5,12.2H4a1,1,0,0,0-1,1v5.6a1,1,0,0,0,1,1H9.5a1,1,0,0,0,1-1V13.2A1,1,0,0,0,9.5,12.2Zm-1,5.6H5V14.2H8.5Z"/><path class="a" d="M18.8,12.2H13.2a1.1,1.1,0,0,0-1,1v5.6a1.1,1.1,0,0,0,1,1h5.6a1.1,1.1,0,0,0,1-1V13.2A1.1,1.1,0,0,0,18.8,12.2Zm-1,5.6H14.2V14.2h3.6Z"/><path class="a" d="M28,12.2H22.5a1,1,0,0,0-1,1v5.6a1,1,0,0,0,1,1H28a1,1,0,0,0,1-1V13.2A1,1,0,0,0,28,12.2Zm-1,5.6H23.5V14.2H27Z"/><path class="a" d="M9.5,3H4A.9.9,0,0,0,3,4V9.5a.9.9,0,0,0,1,1H9.5a.9.9,0,0,0,1-1V4A.9.9,0,0,0,9.5,3Zm-1,5.5H5V5H8.5Z"/><path class="a" d="M18.8,3H13.3a.9.9,0,0,0-1,1V9.5a.9.9,0,0,0,1,1h5.5a1,1,0,0,0,1-1V4A1,1,0,0,0,18.8,3Zm-1,5.5H14.3V5h3.5Z"/><path class="a" d="M28,3H22.5a.9.9,0,0,0-1,1V9.5a.9.9,0,0,0,1,1H28a.9.9,0,0,0,1-1V4A.9.9,0,0,0,28,3ZM27,8.5H23.5V5H27Z"/></svg>