<svg xmlns="http://www.w3.org/2000/svg" viewBox="0 0 32 32"><defs><style>.a{fill:none;}.b{fill:#999;}</style></defs><title>Navigation-Notification-Question-32px</title><rect class="a" width="32" height="32"/><polygon class="b" points="15.7 16 15.7 16 15.7 16 15.7 16"/><path class="b" d="M16,9.5h0a3.9,3.9,0,0,0-3.9,3.9.9.9,0,0,0,1,1,.9.9,0,0,0,.9-1,1.9,1.9,0,0,1,2-1.9h0a2.4,2.4,0,0,1,1.4.5,2.4,2.4,0,0,1,.5,1.4,2.1,2.1,0,0,1-1,1.8A3,3,0,0,0,15,18v.3a1,1,0,0,0,2,0V18a1.1,1.1,0,0,1,.7-1.1,3.7,3.7,0,0,0,2.2-3.5,3.6,3.6,0,0,0-1.2-2.7A3.6,3.6,0,0,0,16,9.5Z"/><circle class="b" cx="16" cy="21.5" r="1"/><path class="b" d="M16,5A11,11,0,1,1,5,16,11,11,0,0,1,16,5m0-2A13,13,0,1,0,29,16,13,13,0,0,0,16,3Z"/></svg>