<svg xmlns="http://www.w3.org/2000/svg" viewBox="0 0 32 32"><defs><style>.cls-1{fill:none;}.cls-2{fill:#999;}</style></defs><title>Navigation-Display-Display_Mobile_Vertical-32px</title><g id="Square"><rect class="cls-1" width="32" height="32"/></g><g id="Grid"><path class="cls-2" d="M28,22H4a1,1,0,0,1,0-2H28a1,1,0,0,1,0,2Z"/><path class="cls-2" d="M28,27H4a1,1,0,0,1,0-2H28a1,1,0,0,1,0,2Z"/><path class="cls-2" d="M27,5v9.5H5V5H27m.7-2H4.3A1.3,1.3,0,0,0,3,4.3V14.5a2,2,0,0,0,2,2H27a2,2,0,0,0,2-2V4.3A1.3,1.3,0,0,0,27.7,3Z"/></g></svg>