<svg xmlns="http://www.w3.org/2000/svg" viewBox="0 0 32 32"><defs><style>.cls-1{fill:none;}.cls-2{fill:#999;}</style></defs><title>Navigation_Notification_Warning_32px</title><g id="Square"><rect class="cls-1" width="32" height="32"/></g><g id="Icon"><path class="cls-2" d="M16,29A13,13,0,1,1,29,16,13,13,0,0,1,16,29ZM16,5A11,11,0,1,0,27,16,11,11,0,0,0,16,5Z"/><path class="cls-2" d="M16,18.13a1,1,0,0,1-1-1V11.3a1,1,0,0,1,2,0v5.83A1,1,0,0,1,16,18.13Z"/><circle class="cls-2" cx="16" cy="20.7" r="1"/></g></svg>