<svg xmlns="http://www.w3.org/2000/svg" viewBox="0 0 32 32"><defs><style>.a{fill:none;}.b{fill:#999;}</style></defs><title>Navigation-Publish-Circle_Delete-32px</title><rect class="a" width="32" height="32"/><path class="b" d="M16,3A13,13,0,1,0,29,16,13,13,0,0,0,16,3Zm0,24A11,11,0,1,1,27,16,11,11,0,0,1,16,27Z"/><path class="b" d="M21.2,10.9a1.1,1.1,0,0,0-1.5,0L16,14.7l-3.9-3.9a1,1,0,1,0-1.4,1.4l3.9,3.9-3.8,3.7a1,1,0,0,0,0,1.4,1.1,1.1,0,0,0,.7.3.9.9,0,0,0,.7-.3L16,17.5l3.7,3.6a.8.8,0,0,0,.7.3,1.1,1.1,0,0,0,.7-.3,1,1,0,0,0,0-1.4l-3.7-3.6,3.7-3.7A1.2,1.2,0,0,0,21.2,10.9Z"/></svg>