<svg xmlns="http://www.w3.org/2000/svg" viewBox="0 0 32 32"><defs><style>.a{fill:none;}.b{fill:#999;}</style></defs><title>User-Account-Profile_View-32px</title><rect class="a" width="32" height="32"/><path class="b" d="M16,16.7a6.9,6.9,0,1,1,6.8-6.9A6.8,6.8,0,0,1,16,16.7ZM16,5a4.9,4.9,0,1,0,4.8,4.8A4.8,4.8,0,0,0,16,5Z"/><path class="b" d="M21.8,18.4a1.1,1.1,0,0,0-.8.1,9.6,9.6,0,0,1-10,0,1.1,1.1,0,0,0-.8-.1L5.7,19.6a1,1,0,0,0-.7.9V28a.9.9,0,0,0,1,1H26a.9.9,0,0,0,1-1V20.5a1,1,0,0,0-.7-.9ZM25,27H7V21.3l3.3-.9a12.1,12.1,0,0,0,11.4,0l3.3.9Z"/></svg>