<svg xmlns="http://www.w3.org/2000/svg" viewBox="0 0 32 32"><defs><style>.cls-1{fill:none;}.cls-2{fill:#999;}</style></defs><title>Payment_SafePayment2_32px</title><g id="Square"><rect class="cls-1" width="32" height="32"/></g><g id="Icon"><path class="cls-2" d="M23,13.43H21.37v-3a5.38,5.38,0,1,0-10.75,0v3H9a2,2,0,0,0-2,2v9.5a2,2,0,0,0,2,2H23a2,2,0,0,0,2-2v-9.5A2,2,0,0,0,23,13.43Zm-10.38-3a3.38,3.38,0,1,1,6.75,0v3H12.62ZM23,24.93H9v-9.5H23Z"/><path class="cls-2" d="M14.73,22.44a.51.51,0,0,0,.34.14.51.51,0,0,0,.36-.15L19.8,18a.5.5,0,0,0,0-.71.49.49,0,0,0-.7,0l-4,4.09-2.16-2a.5.5,0,0,0-.71,0,.5.5,0,0,0,0,.71Z"/></g></svg>