<svg xmlns="http://www.w3.org/2000/svg" viewBox="0 0 32 32"><defs><style>.cls-1{fill:none;}.cls-2{fill:#999;}</style></defs><title>Payment_Cards_Monochrome_CB_32px</title><g id="Square"><rect class="cls-1" width="32" height="32"/></g><g id="Icon"><path class="cls-2" d="M12.17,15.71h4.19a3,3,0,0,0-.89-2.23,5.34,5.34,0,0,0-3.29-.89,5.32,5.32,0,0,0-3.37,1A3.19,3.19,0,0,0,8,16a3.5,3.5,0,0,0,1,2.59,5.12,5.12,0,0,0,3.18.82,5.12,5.12,0,0,0,3.17-.81,3.31,3.31,0,0,0,1-2.6h-4.2Z"/><path class="cls-2" d="M16.64,16v3.27h5.83A1.61,1.61,0,0,0,24,17.65,1.67,1.67,0,0,0,22.47,16Z"/><path class="cls-2" d="M23.9,14.22a1.49,1.49,0,0,0-1.48-1.49H16.64v3h5.88A1.52,1.52,0,0,0,23.9,14.22Z"/><path class="cls-2" d="M27,25H5a2,2,0,0,1-2-2V9A2,2,0,0,1,5,7H27a2,2,0,0,1,2,2V23A2,2,0,0,1,27,25ZM5,8A1,1,0,0,0,4,9V23a1,1,0,0,0,1,1H27a1,1,0,0,0,1-1V9a1,1,0,0,0-1-1Z"/></g></svg>