<svg xmlns="http://www.w3.org/2000/svg" viewBox="0 0 32 32"><defs><style>.cls-1{fill:none;}.cls-2{fill:#999;}</style></defs><title>Payment_Cards_Monochrome_Visa_32px</title><g id="Square"><rect class="cls-1" width="32" height="32"/></g><g id="Icon"><polygon class="cls-2" points="12.84 18.68 13.75 13.33 15.21 13.33 14.3 18.68 12.84 18.68"/><path class="cls-2" d="M19.58,13.47a3.64,3.64,0,0,0-1.3-.23c-1.44,0-2.46.73-2.46,1.76,0,.78.72,1.2,1.27,1.46s.76.43.76.66-.45.53-.88.53a3.06,3.06,0,0,1-1.37-.29l-.18-.08-.21,1.2a5,5,0,0,0,1.63.28c1.53,0,2.52-.72,2.53-1.83,0-.61-.38-1.07-1.22-1.45-.51-.24-.82-.41-.82-.66s.27-.47.83-.47a2.86,2.86,0,0,1,1.09.21l.13.06.2-1.15"/><path class="cls-2" d="M23.32,13.34H22.19a.73.73,0,0,0-.76.44l-2.16,4.9H20.8l.31-.8H23c.05.18.18.79.18.79H24.5l-1.18-5.34m-1.8,3.45.58-1.49s.12-.32.2-.52l.1.47.33,1.54Z"/><path class="cls-2" d="M11.62,13.34,10.19,17,10,16.24A4.17,4.17,0,0,0,8,14l1.31,4.67h1.54l2.29-5.33H11.62"/><path class="cls-2" d="M8.87,13.33H6.52l0,.12A4.81,4.81,0,0,1,10,16.24l-.51-2.45a.62.62,0,0,0-.66-.46"/><path class="cls-2" d="M27,25H5a2,2,0,0,1-2-2V9A2,2,0,0,1,5,7H27a2,2,0,0,1,2,2V23A2,2,0,0,1,27,25ZM5,8A1,1,0,0,0,4,9V23a1,1,0,0,0,1,1H27a1,1,0,0,0,1-1V9a1,1,0,0,0-1-1Z"/></g></svg>