<svg xmlns="http://www.w3.org/2000/svg" viewBox="0 0 32 32"><defs><style>.a{fill:none;}.b{fill:#999;}</style></defs><title>Product-Promise-Scan-32px</title><rect class="a" width="32" height="32"/><path class="b" d="M4,10.8a1,1,0,0,1-1-1V4A1,1,0,0,1,4,3H9.8a1.1,1.1,0,0,1,1,1,1,1,0,0,1-1,1H5V9.8A1,1,0,0,1,4,10.8Z"/><path class="b" d="M28,10.8a1,1,0,0,1-1-1V5H22.2a1,1,0,0,1,0-2H28a.9.9,0,0,1,1,1V9.8A1,1,0,0,1,28,10.8Z"/><path class="b" d="M9.8,29H4a1,1,0,0,1-1-1V22.2a1,1,0,0,1,2,0V27H9.8a1,1,0,0,1,1,1A1.1,1.1,0,0,1,9.8,29Z"/><path class="b" d="M29,28a.9.9,0,0,1-1,1H22.2a1,1,0,0,1,0-2H27V22.2a1,1,0,0,1,2,0Z"/><rect class="b" x="10.9" y="10.7" width="1" height="10.67"/><rect class="b" x="17.3" y="10.7" width="1" height="10.67"/><rect class="b" x="24" y="10.7" width="1" height="10.67"/><rect class="b" x="7" y="10.7" width="2.5" height="10.67"/><rect class="b" x="13.1" y="10.7" width="2.5" height="10.67"/><rect class="b" x="20.1" y="10.7" width="2.5" height="10.67"/></svg>