<svg xmlns="http://www.w3.org/2000/svg" viewBox="0 0 32 32"><defs><style>.a{fill:none;}.b{fill:#999;}</style></defs><title>Product-List-ShoppingList-32px</title><rect class="a" width="32" height="32"/><path class="b" d="M23,7V25H9V7H23m.7-2H8.3A1.3,1.3,0,0,0,7,6.3V26a.9.9,0,0,0,1,1H24a1,1,0,0,0,1-1V6.3A1.3,1.3,0,0,0,23.7,5Z"/><path class="b" d="M20.5,11.8h-9a.6.6,0,0,1-.5-.6.5.5,0,0,1,.5-.4h9a.5.5,0,0,1,.5.4A.6.6,0,0,1,20.5,11.8Z"/><path class="b" d="M17,16.5H11.5a.5.5,0,0,1,0-1H17a.5.5,0,0,1,0,1Z"/><path class="b" d="M20.5,16.5H19.2a.5.5,0,0,1,0-1h1.3a.5.5,0,0,1,0,1Z"/><path class="b" d="M17,21.2H11.5a.5.5,0,0,1-.5-.4.6.6,0,0,1,.5-.6H17a.6.6,0,0,1,.5.6C17.5,21,17.2,21.2,17,21.2Z"/><path class="b" d="M20.5,21.2H19.2a.5.5,0,0,1-.5-.4.6.6,0,0,1,.5-.6h1.3a.6.6,0,0,1,.5.6A.5.5,0,0,1,20.5,21.2Z"/></svg>