<svg xmlns="http://www.w3.org/2000/svg" viewBox="0 0 32 32"><defs><style>.a{fill:none;}.b{fill:#999;}</style></defs><title>Product-Promise-RelatedProduct-32px</title><rect class="a" width="32" height="32"/><path class="b" d="M27,5v7.8L12.9,27,5,19.2,19.2,5H27m0-2H19.2a2,2,0,0,0-1.5.6L3.6,17.7a2.1,2.1,0,0,0,0,2.9l7.9,7.8a1.8,1.8,0,0,0,1.4.6,2,2,0,0,0,1.4-.6L28.5,14.2a2.2,2.2,0,0,0,.6-1.4V5a2,2,0,0,0-2-2Z"/><path class="b" d="M21.3,9.3a1.3,1.3,0,0,1,1.3,1.3,1.3,1.3,0,1,1-2.6,0,1.3,1.3,0,0,1,1.3-1.3m0-1a2.4,2.4,0,1,0,2.3,2.3,2.3,2.3,0,0,0-2.3-2.3Z"/></svg>