<svg xmlns="http://www.w3.org/2000/svg" viewBox="0 0 32 32"><defs><style>.cls-1{fill:none;}.cls-2{fill:#999;}</style></defs><title>Product_Basket_Basket_32px</title><g id="Square"><rect class="cls-1" width="32" height="32"/></g><g id="Icon"><path class="cls-2" d="M22.41,21.3H11.57a2,2,0,0,1-1.93-1.48L6.15,7H4A1,1,0,0,1,4,5H6.15A2,2,0,0,1,8.08,6.48l.59,2.17h16.9a2,2,0,0,1,1.88,2.69L24.29,20A2,2,0,0,1,22.41,21.3Zm-10.84-2H22.41l3.16-8.65H9.22Z"/><path class="cls-2" d="M12.75,25.18a.91.91,0,1,1-.91.91.91.91,0,0,1,.91-.91m0-2a2.91,2.91,0,1,0,2.91,2.91,2.91,2.91,0,0,0-2.91-2.91Z"/><path class="cls-2" d="M21.17,25.18a.91.91,0,1,1-.91.91.91.91,0,0,1,.91-.91m0-2a2.91,2.91,0,1,0,2.91,2.91,2.91,2.91,0,0,0-2.91-2.91Z"/></g></svg>