<svg xmlns="http://www.w3.org/2000/svg" viewBox="0 0 32 32"><defs><style>.cls-1{fill:none;}.cls-2{fill:#999;}</style></defs><title>Product_Promise_FairPrice_32px</title><g id="Square"><rect class="cls-1" width="32" height="32"/></g><g id="Icon"><path class="cls-2" d="M7.7,11.13a1,1,0,0,0,1,1h.85a6.49,6.49,0,0,0,10.18,2.33,1,1,0,1,0-1.3-1.52,4.47,4.47,0,0,1-6.58-.81h3.34a1,1,0,1,0,0-2H11.06A4.07,4.07,0,0,1,11,9.51a4.34,4.34,0,0,1,.06-.62h4.13a1,1,0,0,0,0-2H11.85a4.49,4.49,0,0,1,6.38-1,1,1,0,0,0,1.21-1.59A6.44,6.44,0,0,0,15.5,3,6.51,6.51,0,0,0,9.55,6.89H8.7a1,1,0,0,0,0,2H9c0,.21,0,.41,0,.62s0,.42,0,.62H8.7A1,1,0,0,0,7.7,11.13Z"/><path class="cls-2" d="M27.79,21.38a2.72,2.72,0,0,0-3.52-1.45L20.86,21.3a2.62,2.62,0,0,0-2.56-2.08H11.69a12.11,12.11,0,0,0-5.38,1.26l-1.78.88a1,1,0,1,0,.89,1.79l1.78-.88a10.14,10.14,0,0,1,4.49-1.05H18.3a.63.63,0,0,1,0,1.25H14.5a1,1,0,0,0,0,2h3.8a2.58,2.58,0,0,0,1.75-.69l5-2a.73.73,0,0,1,.94.39.74.74,0,0,1,0,.6.72.72,0,0,1-.41.41l-8.94,3.58a2.59,2.59,0,0,1-1.06.23H10a1,1,0,0,0,0,2h5.6a4.54,4.54,0,0,0,1.85-.39l8.89-3.56a2.75,2.75,0,0,0,1.49-3.67Z"/></g></svg>