<svg xmlns="http://www.w3.org/2000/svg" viewBox="0 0 32 32"><defs><style>.a{fill:none;}.b{fill:#999;}</style></defs><title>Product-Promise-FairPrice-32px</title><rect class="a" width="32" height="32"/><path class="b" d="M7.7,11.1a1,1,0,0,0,1,1h.9A6.4,6.4,0,0,0,15.5,16a6.2,6.2,0,0,0,4.2-1.5.9.9,0,0,0,.1-1.4,1,1,0,0,0-1.4-.2A4.4,4.4,0,0,1,15.5,14a4.2,4.2,0,0,1-3.6-1.9h3.3a1,1,0,0,0,1-1,1.1,1.1,0,0,0-1-1H11.1a1.3,1.3,0,0,1-.1-.6,1.3,1.3,0,0,1,.1-.6h4.1a1.1,1.1,0,0,0,1-1,1,1,0,0,0-1-1H11.9A4.5,4.5,0,0,1,15.5,5a4.4,4.4,0,0,1,2.7.9.9.9,0,0,0,1.4-.2.9.9,0,0,0-.2-1.4A6.8,6.8,0,0,0,15.5,3,6.4,6.4,0,0,0,9.6,6.9H8.7a1,1,0,0,0-1,1,1.1,1.1,0,0,0,1,1H9v1.2H8.7A1.1,1.1,0,0,0,7.7,11.1Z"/><path class="b" d="M27.8,21.4a2.7,2.7,0,0,0-3.5-1.5l-3.4,1.4a2.7,2.7,0,0,0-2.6-2.1H11.7a12.6,12.6,0,0,0-5.4,1.3l-1.8.9a.9.9,0,0,0-.4,1.3,1,1,0,0,0,1.3.5l1.8-.9a10,10,0,0,1,4.5-1.1h6.6a.6.6,0,0,1,.6.6.7.7,0,0,1-.6.7H14.5a.9.9,0,0,0-1,1,1,1,0,0,0,1,1h3.8a2.4,2.4,0,0,0,1.7-.7l5-2a.7.7,0,0,1,1,.4v.6l-.4.4-9,3.6-1,.2H10a1,1,0,0,0,0,2h5.6a3.7,3.7,0,0,0,1.8-.4L26.3,25a2.5,2.5,0,0,0,1.5-1.5A2.6,2.6,0,0,0,27.8,21.4Z"/></svg>