<svg xmlns="http://www.w3.org/2000/svg" viewBox="0 0 32 32"><defs><style>.a{fill:none;}.b{fill:#999;}</style></defs><title>Product-Promise-Warranty-32px</title><rect class="a" width="32" height="32"/><path class="b" d="M14.8,19.5l-.7-.2-3.3-3.1a1,1,0,1,1,1.3-1.5l2.6,2.4L19.8,12a1,1,0,0,1,1.4,0,1.1,1.1,0,0,1,.1,1.4l-5.8,5.8A1.1,1.1,0,0,1,14.8,19.5Z"/><path class="b" d="M15.9,29.1a5.8,5.8,0,0,1-4.5-2.2,5.9,5.9,0,0,1-4.7-1.6,5.9,5.9,0,0,1-1.6-4.7,5.8,5.8,0,0,1-2.2-4.5,5.6,5.6,0,0,1,2.2-4.5A5.8,5.8,0,0,1,6.7,6.9a6.4,6.4,0,0,1,4.7-1.7,6,6,0,0,1,4.5-2.1,5.9,5.9,0,0,1,4.5,2.1,5.9,5.9,0,0,1,4.7,1.7,6.2,6.2,0,0,1,1.7,4.7,5.9,5.9,0,0,1,2.1,4.5,6,6,0,0,1-2.1,4.5,6.4,6.4,0,0,1-1.7,4.7,5.8,5.8,0,0,1-4.7,1.6A5.6,5.6,0,0,1,15.9,29.1Zm-4.3-4.2a1.6,1.6,0,0,1,1.3.6,3.7,3.7,0,0,0,3,1.6A3.8,3.8,0,0,0,19,25.5a1.5,1.5,0,0,1,1.4-.6,4,4,0,0,0,3.3-1,4.1,4.1,0,0,0,1.1-3.3,1.5,1.5,0,0,1,.6-1.5,3.8,3.8,0,0,0,1.5-3A4,4,0,0,0,25.4,13a1.3,1.3,0,0,1-.6-1.4,4.1,4.1,0,0,0-1.1-3.3,4.1,4.1,0,0,0-3.3-1.1A1.3,1.3,0,0,1,19,6.6a4,4,0,0,0-3.1-1.5,3.8,3.8,0,0,0-3,1.5,1.5,1.5,0,0,1-1.5.6A4.1,4.1,0,0,0,8.1,8.3a4,4,0,0,0-1,3.3A1.5,1.5,0,0,1,6.5,13a3.8,3.8,0,0,0-1.6,3.1,3.7,3.7,0,0,0,1.6,3,1.7,1.7,0,0,1,.6,1.5,4,4,0,0,0,1,3.3,4,4,0,0,0,3.3,1Zm8.5,2Zm-8.4,0Zm15-6.6Zm0-8.4Z"/></svg>