<svg xmlns="http://www.w3.org/2000/svg" viewBox="0 0 32 32"><defs><style>.cls-1{fill:none;}.cls-2{fill:#999;}</style></defs><title>Product_Promise_ProductOnPicture_32px</title><g id="Square"><rect class="cls-1" width="32" height="32"/></g><g id="Icon"><path class="cls-2" d="M27,5l0,7.82L12.87,27,5,19.15,19.16,5H27m0-2H19.16a2,2,0,0,0-1.41.59L3.6,17.74a2,2,0,0,0,0,2.83l7.85,7.85a2,2,0,0,0,2.83,0L28.47,14.23a2,2,0,0,0,.59-1.42L29,5a2,2,0,0,0-2-2Z"/><path class="cls-2" d="M21.31,9.31A1.34,1.34,0,1,1,20,10.64a1.33,1.33,0,0,1,1.33-1.33m0-1a2.34,2.34,0,1,0,2.33,2.33,2.33,2.33,0,0,0-2.33-2.33Z"/></g></svg>