<svg xmlns="http://www.w3.org/2000/svg" viewBox="0 0 32 32"><defs><style>.a{fill:none;}.b{fill:#999;}</style></defs><title>Service-Delivery-AtHome-32px</title><rect class="a" width="32" height="32"/><path class="b" d="M28,14H27L25.6,9.4a1,1,0,0,0-.9-.7H21.3V8a.9.9,0,0,0-1-1H6A1,1,0,0,0,5,8v2.2H7V9H19.3v6a1,1,0,0,0,1,1h0a.9.9,0,0,0,1-1V10.7h2.6L25.5,16H27v5.3H25.9a3.6,3.6,0,0,0-3.5-3.4,3.5,3.5,0,0,0-3.5,3.4H16a3.6,3.6,0,0,0-3.5-3.4,3.7,3.7,0,0,0-3.6,3.4H7V19.2H5v3.1a1,1,0,0,0,1,1H9.5a3.5,3.5,0,0,0,3,1.7,3.4,3.4,0,0,0,2.9-1.7h4a3.5,3.5,0,0,0,6,0H28a.9.9,0,0,0,1-1V15A.9.9,0,0,0,28,14ZM12.5,23a1.6,1.6,0,0,1-1.6-1.5,1.6,1.6,0,0,1,1.6-1.6A1.6,1.6,0,0,1,14,21.5,1.5,1.5,0,0,1,12.5,23Zm9.9,0a1.5,1.5,0,0,1-1.5-1.5,1.5,1.5,0,0,1,1.5-1.6,1.6,1.6,0,0,1,1.5,1.6A1.5,1.5,0,0,1,22.4,23Z"/><path class="b" d="M9.5,17.3a.5.5,0,0,0-.5-.5H4.5a.5.5,0,0,0,0,1H9A.5.5,0,0,0,9.5,17.3Z"/><path class="b" d="M9,14.2H6.2a.5.5,0,0,0-.5.5.5.5,0,0,0,.5.5H9a.5.5,0,0,0,.5-.5A.5.5,0,0,0,9,14.2Z"/><path class="b" d="M9.5,12.2a.5.5,0,0,0-.5-.5H3.5a.5.5,0,0,0-.5.5.5.5,0,0,0,.5.5H9A.5.5,0,0,0,9.5,12.2Z"/></svg>