<svg xmlns="http://www.w3.org/2000/svg" viewBox="0 0 32 32"><defs><style>.a{fill:none;}.b{fill:#999;}</style></defs><title>Service-AfterSales-Payback-32px</title><rect class="a" width="32" height="32"/><path class="b" d="M26,20.2a.9.9,0,0,0-1,1V25H7V20l1.5,1.5a1,1,0,0,0,1.4,0,1,1,0,0,0,0-1.4L6.7,16.9a1,1,0,0,0-1.4,0L2,20.1a1.2,1.2,0,0,0,0,1.4,1.1,1.1,0,0,0,1.5,0L5,20v5a2,2,0,0,0,2,2H25a2,2,0,0,0,2-2V21.2A1,1,0,0,0,26,20.2Z"/><path class="b" d="M29.9,10.5a1,1,0,0,0-1.4,0L27,12V7a2,2,0,0,0-2-2H7A2,2,0,0,0,5,7v3.8a.9.9,0,0,0,1,1,1,1,0,0,0,1-1V7H25v5l-1.5-1.5a1.1,1.1,0,0,0-1.5,0,1.2,1.2,0,0,0,0,1.4l3.3,3.2a1,1,0,0,0,1.4,0l3.2-3.2A1,1,0,0,0,29.9,10.5Z"/></svg>