<svg xmlns="http://www.w3.org/2000/svg" viewBox="0 0 32 32"><defs><style>.cls-1{fill:none;}.cls-2{fill:#999;}</style></defs><title>Service_Tools_3d_32px</title><g id="Square"><rect class="cls-1" width="32" height="32"/></g><g id="Icon"><path class="cls-2" d="M14.94,3.48l-9,5.6A2,2,0,0,0,5,10.78V21.22a2,2,0,0,0,.94,1.7l9,5.6a2,2,0,0,0,2.12,0l9-5.6a2,2,0,0,0,.94-1.7V10.78a2,2,0,0,0-.94-1.7l-9-5.6A2,2,0,0,0,14.94,3.48Zm9.17,6.75-8.11,5-8.11-5L16,5.18ZM7,12l8,5V26.2l-8-5ZM17,26.2V17l8-5v9.19Z"/></g></svg>