<svg xmlns="http://www.w3.org/2000/svg" viewBox="0 0 32 32"><defs><style>.cls-1{fill:none;}.cls-2{fill:#999;}</style></defs><title>Service_AfterSales_Payback_32px</title><g id="Square"><rect class="cls-1" width="32" height="32"/></g><g id="Icon"><path class="cls-2" d="M25,20.16a1,1,0,0,0-1,1V25H8V19.89l1.31,1.32a1,1,0,0,0,1.42,0,1,1,0,0,0,0-1.42l-3-3a1,1,0,0,0-1.42,0l-3,3a1,1,0,0,0,1.42,1.42L6,19.94V25a2,2,0,0,0,2,2H24a2,2,0,0,0,2-2V21.16A1,1,0,0,0,25,20.16Z"/><path class="cls-2" d="M28.71,10.79a1,1,0,0,0-1.42,0L26,12.11V7a2,2,0,0,0-2-2H8A2,2,0,0,0,6,7v3.84a1,1,0,0,0,2,0V7H24v5.06l-1.27-1.27a1,1,0,0,0-1.42,1.42l3,3a1,1,0,0,0,1.42,0l3-3A1,1,0,0,0,28.71,10.79Z"/></g></svg>