<svg xmlns="http://www.w3.org/2000/svg" viewBox="0 0 32 32"><defs><style>.cls-1{fill:none;}.cls-2{fill:#999;}</style></defs><title>Service_Delivery_Delivery_Pickup--Store_32px</title><g id="Square"><rect class="cls-1" width="32" height="32"/></g><g id="Icon"><path class="cls-2" d="M23.16,21.5l-6.8,1.87a3.23,3.23,0,0,0-1.24-.72l-4-14.93L6.71,3.3A1,1,0,1,0,5.29,4.7l4,4.05,3.79,14A3.24,3.24,0,0,0,14.18,29a3.12,3.12,0,0,0,.85-.12,3.24,3.24,0,0,0,2.31-3.71l6.35-1.75a1,1,0,1,0-.53-1.92ZM14.5,27a1.17,1.17,0,0,1-.32,0A1.24,1.24,0,0,1,13,26.08a1.26,1.26,0,0,1,1.18-1.58A1.26,1.26,0,0,1,14.5,27Z"/><path class="cls-2" d="M24.93,17.35l-1.41-5.21a2,2,0,0,0-1.92-1.48,2.32,2.32,0,0,0-.52.07L15.9,12.16a2,2,0,0,0-1.39,2.45l1.41,5.22a2,2,0,0,0,1.92,1.47,1.86,1.86,0,0,0,.52-.07l5.18-1.42A2,2,0,0,0,24.93,17.35ZM17.86,19.3l-1.42-5.22,5.15-1.41L23,17.88Z"/></g></svg>