<svg xmlns="http://www.w3.org/2000/svg" viewBox="0 0 32 32"><defs><style>.a{fill:none;}.b{fill:#999;}</style></defs><title>Service-Delivery-PickupStore-32px</title><rect class="a" width="32" height="32"/><path class="b" d="M23.2,21.5l-6.8,1.9a2.4,2.4,0,0,0-1.3-.7l-4-15L6.7,3.3A1,1,0,0,0,5.3,4.7l4,4.1,3.8,13.9A3.3,3.3,0,0,0,14.2,29H15a3.2,3.2,0,0,0,2.3-3.7l6.4-1.8a1,1,0,0,0,.7-1.2A1,1,0,0,0,23.2,21.5ZM14.5,27h-.3a1.2,1.2,0,0,1-1.2-.9,1.3,1.3,0,0,1,.9-1.6h.3a1.4,1.4,0,0,1,1.2.9A1.4,1.4,0,0,1,14.5,27Z"/><path class="b" d="M24.9,17.3l-1.4-5.2a1.8,1.8,0,0,0-1.9-1.4h-.5l-5.2,1.5a1.9,1.9,0,0,0-1.4,2.4l1.4,5.2a2.1,2.1,0,0,0,1.9,1.5h.6l5.1-1.4A2,2,0,0,0,24.9,17.3Zm-7,2-1.5-5.2,5.2-1.4L23,17.9Z"/></svg>