<svg xmlns="http://www.w3.org/2000/svg" viewBox="0 0 32 32"><defs><style>.a{fill:none;}.b{fill:#999;}</style></defs><title>Social-Comment-ProductQuestion-32px</title><rect class="a" width="32" height="32"/><path class="b" d="M16,17.3a1,1,0,0,1-1-1V16a3,3,0,0,1,1.9-2.8A2.1,2.1,0,0,0,18,11.4a2.1,2.1,0,0,0-2-1.9h0a1.9,1.9,0,0,0-1.9,1.9,1,1,0,0,1-1,1,.9.9,0,0,1-1-1A3.9,3.9,0,0,1,16,7.5h0a3.6,3.6,0,0,1,2.7,1.2,3.6,3.6,0,0,1,1.2,2.7,3.7,3.7,0,0,1-2.2,3.5A1.5,1.5,0,0,0,17,16v.3A1,1,0,0,1,16,17.3Z"/><rect class="b" x="15" y="18.6" width="1.9" height="1.95" rx="1" ry="1"/><path class="b" d="M27,5V23.1H17.3l-.5.3-4,2.9V23.1H5V5H27m.7-2H4.3A1.3,1.3,0,0,0,3,4.3V23.8a1.3,1.3,0,0,0,1.3,1.3h6.5v2.6A1.3,1.3,0,0,0,12.1,29l.8-.2L18,25.1h9.7A1.3,1.3,0,0,0,29,23.8V4.3A1.3,1.3,0,0,0,27.7,3Z"/></svg>