<svg xmlns="http://www.w3.org/2000/svg" viewBox="0 0 32 32"><defs><style>.a{fill:none;}.b{fill:#999;}</style></defs><title>Social-Comment-Community-32px</title><rect class="a" width="32" height="32"/><path class="b" d="M23.1,5V19.8h-8l-.6.3-2.9,2.1V19.8H5V5H23.1M24,3H4.1A1.1,1.1,0,0,0,3,4.1V20.6a1.1,1.1,0,0,0,1.1,1.2H9.6V24a1.1,1.1,0,0,0,1.1,1.1l.7-.2,4.3-3.1H24a1.1,1.1,0,0,0,1.1-1.2V4.1A1.1,1.1,0,0,0,24,3Z"/><path class="b" d="M28,17v9H24.1v1.7l-2-1.5-.2-.2H17V20.8h7.2V17H28m.4-1H23.1v3.8H16v6.6a.7.7,0,0,0,.7.6h4.8l2.6,1.9h.3a.7.7,0,0,0,.7-.6V27h3.3a.6.6,0,0,0,.6-.6V16.7a.7.7,0,0,0-.6-.7Z"/></svg>