<svg xmlns="http://www.w3.org/2000/svg" viewBox="0 0 32 32"><defs><style>.cls-1{fill:none;}.cls-2{fill:#999;}</style></defs><title>Social_Comment_Question--Article_32px</title><g id="Square"><rect class="cls-1" width="32" height="32"/></g><g id="Icon"><path class="cls-2" d="M3,5V23a2,2,0,0,0,2,2h6v3.13a1,1,0,0,0,1.55.83l5.95-4H27a2,2,0,0,0,2-2V5a2,2,0,0,0-2-2H5A2,2,0,0,0,3,5ZM27,23H17.89L13,26.26V23H5V5H27Z"/><path class="cls-2" d="M13,12.5a1,1,0,0,0,1-1,2,2,0,0,1,2.37-2,2,2,0,0,1,1.6,1.6,2,2,0,0,1-1.21,2.22A2.91,2.91,0,0,0,15,16.08v.42a1,1,0,0,0,2,0v-.42a.93.93,0,0,1,.53-.88,4,4,0,0,0,2.41-4.42,4,4,0,0,0-6.51-2.34A4,4,0,0,0,12,11.5,1,1,0,0,0,13,12.5Z"/><path class="cls-2" d="M15.29,18.79a1,1,0,0,0-.29.71,1,1,0,0,0,1.38.92,1.15,1.15,0,0,0,.33-.21A1,1,0,0,0,17,19.5a1,1,0,0,0-1.71-.71Z"/></g></svg>