<svg xmlns="http://www.w3.org/2000/svg" viewBox="0 0 32 32"><defs><style>.cls-1{fill:none;}.cls-2{fill:#999;}</style></defs><title>Social_SocialNetwork_Linkedin_32px</title><g id="Square"><rect class="cls-1" width="32" height="32"/></g><g id="Icon"><path class="cls-2" d="M27,7V25a2,2,0,0,1-2,2H7a2,2,0,0,1-2-2V7A2,2,0,0,1,7,5H25A2,2,0,0,1,27,7ZM11.92,10.41a1.69,1.69,0,0,0-.52-1.23,1.84,1.84,0,0,0-1.33-.48,1.92,1.92,0,0,0-1.35.48,1.63,1.63,0,0,0-.53,1.23,1.64,1.64,0,0,0,.51,1.23,1.82,1.82,0,0,0,1.33.49h0a1.86,1.86,0,0,0,1.36-.49A1.62,1.62,0,0,0,11.92,10.41Zm-3.53,13H11.7V13.48H8.39Zm11.91,0h3.3v-5.7a4.76,4.76,0,0,0-1-3.34,3.6,3.6,0,0,0-2.76-1.13,3.34,3.34,0,0,0-3,1.68h0V13.48H13.52q0,.94,0,9.94h3.31V17.86a2.28,2.28,0,0,1,.1-.8,2.16,2.16,0,0,1,.65-.85,1.56,1.56,0,0,1,1.06-.35c1.1,0,1.66.75,1.66,2.25Z"/></g></svg>