<svg xmlns="http://www.w3.org/2000/svg" viewBox="0 0 32 32"><defs><style>.cls-1{fill:none;}.cls-2{fill:#999;}</style></defs><title>Social_Share_ShareIOS_32px</title><g id="Square"><rect class="cls-1" width="32" height="32"/></g><g id="Icon"><path class="cls-2" d="M12.71,8.71,15,6.41V19.5a1,1,0,0,0,2,0V6.41l2.29,2.3a1,1,0,0,0,1.42,0,1,1,0,0,0,0-1.42l-4-4a1,1,0,0,0-.33-.21,1,1,0,0,0-.76,0,1,1,0,0,0-.33.21l-4,4a1,1,0,0,0,1.42,1.42Z"/><path class="cls-2" d="M23.33,5a1,1,0,0,0,0,2H25V25H7V7H8.67a1,1,0,0,0,0-2H7A2,2,0,0,0,5,7V25a2,2,0,0,0,2,2H25a2,2,0,0,0,2-2V7a2,2,0,0,0-2-2Z"/></g></svg>