<svg xmlns="http://www.w3.org/2000/svg" viewBox="0 0 32 32"><defs><style>.cls-1{fill:none;}.cls-2{fill:#999;}</style></defs><title>Social_SocialNetwork_Twitter_32px</title><g id="Square"><rect class="cls-1" width="32" height="32"/></g><g id="Icon"><path class="cls-2" d="M27,7V25a2,2,0,0,1-2,2H7a2,2,0,0,1-2-2V7A2,2,0,0,1,7,5H25A2,2,0,0,1,27,7Zm-3.67,4.9a6.41,6.41,0,0,1-1.73.49,2.91,2.91,0,0,0,1.33-1.68,6,6,0,0,1-1.92.74,2.85,2.85,0,0,0-2.19-.95,2.9,2.9,0,0,0-2.13.88,2.94,2.94,0,0,0-.88,2.13,2.67,2.67,0,0,0,.08.69,8.47,8.47,0,0,1-3.47-.94A8.37,8.37,0,0,1,9.67,11a3,3,0,0,0-.42,1.52,2.84,2.84,0,0,0,1.31,2.51,3.49,3.49,0,0,1-1.43-.37v0a2.85,2.85,0,0,0,.71,1.91,3.06,3.06,0,0,0,1.76,1,3,3,0,0,1-.73.11,4,4,0,0,1-.56-.06,3.07,3.07,0,0,0,1.07,1.49,2.8,2.8,0,0,0,1.74.6,5.94,5.94,0,0,1-3.74,1.29,5.43,5.43,0,0,1-.71,0,8.41,8.41,0,0,0,4.61,1.35,8.77,8.77,0,0,0,3-.51,7.78,7.78,0,0,0,2.4-1.36,9,9,0,0,0,1.73-2,8.67,8.67,0,0,0,1.07-2.32,8.48,8.48,0,0,0,.35-2.42c0-.17,0-.3,0-.39A5.71,5.71,0,0,0,23.33,11.9Z"/></g></svg>