<svg xmlns="http://www.w3.org/2000/svg" viewBox="0 0 32 32"><defs><style>.a{fill:none;}.b{fill:#999;}</style></defs><title>Store-StoreLocation-32px</title><rect class="a" width="32" height="32"/><path class="b" d="M16,5a8.7,8.7,0,0,1,8.7,8.7c0,3.3-4.9,9.3-8.7,13.1C12.2,23,7.3,17,7.3,13.7A8.7,8.7,0,0,1,16,5m0-2A10.7,10.7,0,0,0,5.3,13.7c0,4.6,6.4,11.6,9.3,14.5a1.9,1.9,0,0,0,2.8,0c2.9-2.9,9.3-9.9,9.3-14.5A10.7,10.7,0,0,0,16,3Z"/><path class="b" d="M20,12.6l-2.1-2.2L16.5,9a.9.9,0,0,0-1,0l-1.3,1.4L12,12.6l-1,.9a.7.7,0,0,0,.5,1.2h9a.7.7,0,0,0,.5-1.2Z"/></svg>