<svg xmlns="http://www.w3.org/2000/svg" viewBox="0 0 32 32"><defs><style>.a{fill:none;}.b{fill:#999;}</style></defs><title>Store-StoreLM-32px</title><rect class="a" width="32" height="32"/><path class="b" d="M20,14.1l-2.1-2.2-1.4-1.4a.7.7,0,0,0-1,0l-1.4,1.4L12,14.1l-1,1a.8.8,0,0,0,.5,1.3h9a.8.8,0,0,0,.5-1.3Z"/><path class="b" d="M28,10.7H22.5L16.7,4.8a1,1,0,0,0-1.4,0L9.5,10.7H4a.9.9,0,0,0-1,1V26a.9.9,0,0,0,1,1H28a.9.9,0,0,0,1-1V11.7A.9.9,0,0,0,28,10.7ZM15.5,25H11.7V20h3.8Zm4.8,0H16.5V20h3.8ZM27,25H21.3V20a1,1,0,0,0-1-1H11.7a1,1,0,0,0-1,1v5H5V12.7h5.4l.5-.6L16,6.9l5.1,5.2.5.6H27Z"/></svg>