<svg xmlns="http://www.w3.org/2000/svg" viewBox="0 0 32 32"><defs><style>.cls-1{fill:none;}.cls-2{fill:#999;}</style></defs><title>Universe_Floor_32px</title><g id="Square"><rect class="cls-1" width="32" height="32"/></g><g id="Icon"><path class="cls-2" d="M17,7v6a2,2,0,0,0,2,2h6a2,2,0,0,0,2-2V7a2,2,0,0,0-2-2H19A2,2,0,0,0,17,7Zm8,6H19V7h6Z"/><path class="cls-2" d="M13,9H7a2,2,0,0,0-2,2V25a2,2,0,0,0,2,2H21a2,2,0,0,0,2-2V19a2,2,0,0,0-2-2H15V11A2,2,0,0,0,13,9Zm0,16H7V19h6Zm8-6v6H15V19ZM7,17V11h6v6Z"/></g></svg>