<svg xmlns="http://www.w3.org/2000/svg" viewBox="0 0 32 32"><defs><style>.cls-1{fill:none;}.cls-2{fill:#999;}</style></defs><title>Universe_Bathroom_32px</title><g id="Square"><rect class="cls-1" width="32" height="32"/></g><g id="Icon"><path class="cls-2" d="M27,18V5a2,2,0,0,0-2-2H21a2,2,0,0,0-2,2V7a1,1,0,0,0,0,.17A3,3,0,0,0,17,10h6a3,3,0,0,0-2-2.83A1,1,0,0,0,21,7V5h4V18H5a2,2,0,0,0-2,2v1a6,6,0,0,0,3.63,5.51l-.52,1a1,1,0,0,0,.44,1.34A.93.93,0,0,0,7,29a1,1,0,0,0,.89-.55L8.63,27,9,27H23l.37,0,.74,1.47A1,1,0,0,0,25,29a.93.93,0,0,0,.45-.11,1,1,0,0,0,.44-1.34l-.52-1A6,6,0,0,0,29,21V20a2,2,0,0,0-2-2ZM5,20H27v1H5Zm18,5H9a4,4,0,0,1-3.86-3H26.86A4,4,0,0,1,23,25Z"/></g></svg>