<svg xmlns="http://www.w3.org/2000/svg" viewBox="0 0 32 32"><defs><style>.cls-1{fill:none;}.cls-2{fill:#999;}</style></defs><title>Universe_Project_48px</title><g id="Square"><rect class="cls-1" width="32" height="32"/></g><g id="Icon"><path class="cls-2" d="M28,6H10.86A4,4,0,0,0,3,7V25a4,4,0,0,0,4,4H28a1,1,0,0,0,1-1V7A1,1,0,0,0,28,6ZM5,7A2,2,0,0,1,9,7V21.54a4,4,0,0,0-4,0ZM27,27H7a2,2,0,1,1,2-2,1,1,0,0,0,2,0V8H27Z"/><path class="cls-2" d="M14.5,16.75a.5.5,0,0,0,.5-.5v-.78l4-3.55,4,3.55v6.78h-.5a.5.5,0,0,0,0,1h1a.5.5,0,0,0,.5-.5v-7.5a.48.48,0,0,0-.17-.37l-4.5-4a.49.49,0,0,0-.66,0l-4.5,4h0a.31.31,0,0,0-.07.09.43.43,0,0,0,0,.07s0,0,0,.08,0,.07,0,.11h0v1A.5.5,0,0,0,14.5,16.75Z"/><path class="cls-2" d="M14.5,20.05a.5.5,0,0,0,.5-.5v-1.1a.5.5,0,0,0-1,0v1.1A.5.5,0,0,0,14.5,20.05Z"/><path class="cls-2" d="M14.5,23.25h1a.5.5,0,0,0,0-1H15v-.5a.5.5,0,0,0-1,0v1A.5.5,0,0,0,14.5,23.25Z"/><path class="cls-2" d="M19.7,22.25H18.3a.5.5,0,1,0,0,1h1.4a.5.5,0,1,0,0-1Z"/></g></svg>