<svg xmlns="http://www.w3.org/2000/svg" viewBox="0 0 128 128"><defs><style>.cls-1{fill:none;}.cls-2{fill:#f59e00;}</style></defs><title>User_Payment_Monochrome_PayLib_32px</title><g id="Square"><rect class="cls-1" width="128" height="128"/></g><g id="Card"><path class="cls-2" d="M94.35,69.69v-.56h-.24V69h.62v.13H94.5v.56Zm1.18,0v-.48l-.16.41h-.18L95,69.21v.48h-.18V69h.26l.18.44.15-.44h.26v.69Z"/><path d="M28,56.4h2.57v.85h.1a5.53,5.53,0,0,1,2.81-1,9.41,9.41,0,0,1,2.9.15,4,4,0,0,1,3,3.27A14.16,14.16,0,0,1,39.65,64a11.66,11.66,0,0,1-.34,2.49,4.06,4.06,0,0,1-3.62,3.19c-1.11.15-2.21.13-3.34.18V67.2h1.1a14,14,0,0,0,1.44-.13,1.57,1.57,0,0,0,1.36-1.26,6.4,6.4,0,0,0,.26-1.44,17.42,17.42,0,0,0-.08-3.68,5.37,5.37,0,0,0-.15-.67A1.65,1.65,0,0,0,35,58.87a5.34,5.34,0,0,0-2.32,0,1.85,1.85,0,0,0-1.44,1.85c0,.31-.05.62-.05.93V74.4H28.31c-.23,0-.28-.05-.28-.26s0-.87,0-1.28Z"/><path d="M84.5,48.09v.39c0,5.48,0,11,0,16.46a8.85,8.85,0,0,0,.23,2,3.43,3.43,0,0,0,2.63,2.62,10.65,10.65,0,0,0,5.32,0,4.3,4.3,0,0,0,3.21-3.45,14.45,14.45,0,0,0,0-6.14,4.07,4.07,0,0,0-3.8-3.42c-1-.13-2.08-.08-3.14-.11h-.1V59h.31c.59,0,1.21,0,1.8,0a1.85,1.85,0,0,1,1.93,1.7,14.26,14.26,0,0,1-.06,4.7,1.83,1.83,0,0,1-1.92,1.75,6.78,6.78,0,0,1-1.8,0c-1-.12-1.39-.69-1.47-1.74a6.78,6.78,0,0,1,0-.78V48.45a15.57,15.57,0,0,1,10.55,8.33,15.36,15.36,0,0,1-1.39,16.67,15.69,15.69,0,0,1-14.3,6.38V61.16H79.2v18c-5.14-1.83-8.72-5.2-10.36-10.34a16.06,16.06,0,0,1,2.85-15h.1V66.12a8.14,8.14,0,0,0,.11,1.39A2.48,2.48,0,0,0,74,69.67a15,15,0,0,0,3.29.15V67.1H75.6c-.41,0-.57-.16-.59-.57s0-.54,0-.82c0-4.81,0-9.62,0-14.43a.62.62,0,0,1,.33-.62,15.94,15.94,0,0,1,9-2.57ZM79,58.2A1.58,1.58,0,0,0,80.25,60a3.41,3.41,0,0,0,1,0,1.5,1.5,0,0,0,1.44-1.47v-.59a1.58,1.58,0,0,0-1.32-1.49,4.54,4.54,0,0,0-.74,0A1.58,1.58,0,0,0,79,58.2Z"/><path d="M54.33,56.42h3.14v.36c0,2.76,0,5.51,0,8.26a7.42,7.42,0,0,0,.08,1,1.14,1.14,0,0,0,.82.93,4.67,4.67,0,0,0,2.91,0,1.23,1.23,0,0,0,.9-1.18c0-.31.05-.59.05-.9,0-2.7,0-5.43,0-8.13v-.36h3.06c0,.11,0,.21,0,.31q0,7.14,0,14.28a7.06,7.06,0,0,1-.16,1.44,2.29,2.29,0,0,1-1.87,1.85,19.76,19.76,0,0,1-3.3.15v-2.6h1.7a.52.52,0,0,0,.52-.48V69.64L60,69.8a8,8,0,0,1-3.12-.41A3.63,3.63,0,0,1,54.38,66c0-.49,0-1,0-1.46,0-2.6,0-5.2,0-7.8Z"/><path d="M52.61,56.4V69.8H49.5v-.67a7.77,7.77,0,0,1-1.13.44,7.67,7.67,0,0,1-4.3-.11,4,4,0,0,1-2.83-3.26,10.43,10.43,0,0,1-.25-2,16.36,16.36,0,0,1,.23-4.42,4.12,4.12,0,0,1,4.11-3.55,9.75,9.75,0,0,1,2.75.15A4.73,4.73,0,0,1,50,57.3v-.9ZM49.5,62.93h0c0-.36,0-.72,0-1.08s0-.72,0-1.08a1.82,1.82,0,0,0-1.67-2,9.63,9.63,0,0,0-1.86,0,1.76,1.76,0,0,0-1.62,1.36q-.09.36-.15.72c0,1.18-.08,2.39-.08,3.57a5.9,5.9,0,0,0,.26,1.5,1.59,1.59,0,0,0,1.39,1.2,6.78,6.78,0,0,0,1.8.06A2,2,0,0,0,49.5,65Z"/><path d="M112,100H16a4,4,0,0,1-4-4V32a4,4,0,0,1,4-4h96a4,4,0,0,1,4,4V96A4,4,0,0,1,112,100ZM16,32V96h96V32Z"/></g></svg>