<svg xmlns="http://www.w3.org/2000/svg" viewBox="0 0 128 128"><defs><style>.cls-1{fill:none;}</style></defs><title>User_Payment_Monochrome_CarteBleue_32px</title><g id="Square"><rect class="cls-1" width="128" height="128"/></g><g id="Card"><path d="M48.69,62.84H65.45c-.15-3.3-1-6.72-3.57-8.91-3-2.61-8.37-3.57-13.14-3.57s-10.46,1.06-13.52,3.87C32.57,56.64,32,60.5,32,64s1.11,7.9,4,10.36,8,3.28,12.75,3.28,9.65-.77,12.68-3.25S65.48,67.77,65.48,64H48.69Z"/><path d="M66.56,64V77.05H89.87A6.45,6.45,0,0,0,96,70.6,6.62,6.62,0,0,0,89.87,64Z"/><path d="M95.58,56.86a5.94,5.94,0,0,0-5.91-6H89.6c-.24,0-.48,0-.71,0H66.56v12H90.07A6,6,0,0,0,95.58,56.86Z"/><path d="M112,100H16a4,4,0,0,1-4-4V32a4,4,0,0,1,4-4h96a4,4,0,0,1,4,4V96A4,4,0,0,1,112,100ZM16,32V96h96V32Z"/></g></svg>