<svg xmlns="http://www.w3.org/2000/svg" viewBox="0 0 32 32"><defs><style>.cls-1{fill:none;}.cls-2,.cls-3{fill:#999;}.cls-3{fill-rule:evenodd;}</style></defs><title>User_Card_Gift_32px</title><g id="Square"><rect class="cls-1" width="32" height="32"/></g><g id="Icon"><path class="cls-2" d="M4.06,20.62a1.14,1.14,0,0,1-.82-.34,1.16,1.16,0,0,1,0-1.64l12-11.95a1,1,0,0,1,1.41,0l12,12a1.16,1.16,0,1,1-1.64,1.64l-11-11-11,11A1.14,1.14,0,0,1,4.06,20.62Z"/><path class="cls-3" d="M9.53,20.46l5.35-5.35a1.48,1.48,0,0,1,2.1,0l5.35,5.35a1.49,1.49,0,0,1-1,2.54H10.59A1.49,1.49,0,0,1,9.53,20.46Z"/></g></svg>