<svg xmlns="http://www.w3.org/2000/svg" viewBox="0 0 128 128"><defs><style>.cls-1{fill:none;}</style></defs><title>User_Payment_Monochrome_Visa_32px</title><g id="Square"><rect class="cls-1" width="128" height="128"/></g><g id="Card"><polygon points="51.35 74.72 55.01 53.33 60.84 53.33 57.19 74.72 51.35 74.72"/><path d="M78.33,53.87a14.74,14.74,0,0,0-5.22-.9c-5.76,0-9.82,2.9-9.85,7,0,3.09,2.91,4.79,5.12,5.82s3,1.72,3,2.64c0,1.44-1.8,2.11-3.5,2.11a12.17,12.17,0,0,1-5.48-1.13l-.74-.33-.83,4.78A18.61,18.61,0,0,0,67.35,75c6.12,0,10.08-2.85,10.13-7.3,0-2.44-1.52-4.3-4.89-5.81-2-1-3.29-1.65-3.26-2.65s1-1.85,3.32-1.85a10.61,10.61,0,0,1,4.37.82l.51.26.8-4.63"/><path d="M93.29,53.35H88.77a2.89,2.89,0,0,0-3,1.78L77.07,74.72h6.12l1.23-3.21h7.46c.18.74.72,3.19.72,3.19H98L93.29,53.33m-7.2,13.78,2.32-6c0,.05.49-1.26.77-2.06l.41,1.85,1.34,6.17Z"/><path d="M46.47,53.35,40.76,67.93l-.59-3a16.73,16.73,0,0,0-8.08-9l5.22,18.7h6.18l9.15-21.35H46.47"/><path d="M35.46,53.33H26.08l-.08.46c7.3,1.75,12.16,6,14.17,11.19l-2.06-9.83c-.36-1.36-1.36-1.77-2.65-1.82"/><path d="M112,100H16a4,4,0,0,1-4-4V32a4,4,0,0,1,4-4h96a4,4,0,0,1,4,4V96A4,4,0,0,1,112,100ZM16,32V96h96V32Z"/></g></svg>