<svg xmlns="http://www.w3.org/2000/svg" viewBox="0 0 128 128"><defs><style>.cls-1{fill:none;}.cls-2{fill:#f59e00;}</style></defs><title>User_Payment_Monochrome_LM_32px</title><g id="Square"><rect class="cls-1" width="128" height="128"/></g><g id="Card"><path class="cls-2" d="M94.61,68.84v-.58h-.24v-.13H95v.13h-.24v.58Zm1.21,0v-.5l-.16.42h-.19l-.15-.42v.5h-.19v-.71h.26l.19.45.16-.45H96v.71Z"/><polygon points="38.73 82.23 88.4 82.23 63.57 57.29 38.73 82.23"/><polygon points="37.66 81.12 41.5 77.28 40.21 76 37.79 78.42 33.42 74.02 32 75.47 37.66 81.12"/><polyline points="39.13 70.63 40.1 71.6 42.08 69.6 43.23 70.76 41.23 72.76 42.47 74 44.94 71.52 46.07 72.68 42.18 76.57 36.55 70.92 40.44 67 41.58 68.16 39.13 70.63"/><path d="M51.86,66.87,48,65.79h0A2.4,2.4,0,0,0,47.49,63a2.31,2.31,0,0,0-3.23.15h0l-2.84,2.87,5.63,5.68,1.44-1.44-4.57-4.61.92-.92a1,1,0,1,1,1.44,1.45l-.84.84,4.89,1.4Z"/><path d="M49.23,57.92A3.83,3.83,0,0,1,55,58a4,4,0,1,1-5.68,5.71A3.89,3.89,0,0,1,49.23,57.92Zm1.1,1.13c-.89.9-.57,2,.5,3.11s2.19,1.39,3.08.47.61-2-.5-3.08S51.23,58.16,50.33,59.05Z"/><polygon points="56.7 54.95 55.65 51.74 57.3 50.06 58.73 55.56 60.94 57.77 59.49 59.21 57.28 57 52.04 55.34 53.62 53.74 56.65 54.92 56.7 54.95"/><polygon points="82.8 74.42 88.45 68.76 86.92 67.23 81.27 72.92 82.8 74.42"/><polygon points="61.23 52.79 65.62 50.69 62.38 53.92 63.67 55.24 69.33 49.58 67.54 47.77 63.28 49.85 63.28 49.85 65.41 45.64 63.57 43.77 57.91 49.45 59.23 50.77 62.46 47.51 60.36 51.93 61.23 52.79"/><polyline points="71.01 53.58 70.06 54.56 72.22 56.74 71.06 57.9 68.91 55.71 67.67 56.95 70.3 59.58 69.17 60.74 65.09 56.66 70.75 50.98 74.8 55.08 73.67 56.24 71.01 53.58"/><polygon points="76.35 67.97 80.19 71.84 81.48 70.55 79.09 68.13 83.45 63.74 82.01 62.32 76.35 67.97"/><polygon points="91.71 72.02 89.9 78.05 89.9 78.05 93.79 74.13 95.13 75.47 89.48 81.15 87.71 79.36 89.27 73.18 89.27 73.15 85.4 77.05 84.08 75.73 89.74 70.05 91.71 72.02"/><path d="M75.4,67l1.11-3.86h0a2.44,2.44,0,0,0,2.76-.55,2.32,2.32,0,0,0-.16-3.24h0l-3-3L70.43,62l1.42,1.45,4.58-4.61L77.53,60A1,1,0,1,1,76.2,61.5l-.11-.1-1-1-1.18,5.08Z"/><path d="M112,100H16a4,4,0,0,1-4-4V32a4,4,0,0,1,4-4h96a4,4,0,0,1,4,4V96A4,4,0,0,1,112,100ZM16,32V96h96V32Z"/></g></svg>