<svg xmlns="http://www.w3.org/2000/svg" viewBox="0 0 32 32"><defs><style>.cls-1{fill:none;}</style></defs><title>User_Payment_Monochrome_Cheque_32px</title><g id="Square"><rect class="cls-1" width="32" height="32"/></g><g id="Icon"><path d="M27,7H5A2,2,0,0,0,3,9V23a2,2,0,0,0,2,2H27a2,2,0,0,0,2-2V9A2,2,0,0,0,27,7Zm1,16a1,1,0,0,1-1,1H5a1,1,0,0,1-1-1V9A1,1,0,0,1,5,8H27a1,1,0,0,1,1,1Z"/><path d="M7.5,14a.5.5,0,0,0,0,1h5.79l-.64.65a.48.48,0,0,0,0,.7.48.48,0,0,0,.7,0L14.71,15H24.5a.5.5,0,0,0,0-1H15.71l2-2H24.5a.5.5,0,0,0,0-1H18.71l.64-.65a.49.49,0,1,0-.7-.7L17.29,11H7.5a.5.5,0,0,0,0,1h8.79l-2,2Z"/><path d="M13.5,18h-6a.5.5,0,0,0-.5.5V22a.5.5,0,0,0,.5.5h6A.5.5,0,0,0,14,22V18.5A.5.5,0,0,0,13.5,18ZM13,21.5H8V19h5Z"/><path d="M25,21.5H23.84C22.79,19,22.24,19,22,19s-.65,0-1.43,1.6c-.48-1.27-1.18-2.6-2.07-2.6-1.2,0-2.07,2.42-2.48,3.86a.5.5,0,0,0,.34.62l.14,0a.49.49,0,0,0,.48-.36c.45-1.56,1.18-3.06,1.51-3.14.35.08,1.08,1.58,1.53,3.14a.5.5,0,0,0,.45.36.47.47,0,0,0,.49-.31,11.44,11.44,0,0,1,1-2.07,11.44,11.44,0,0,1,1,2.07.49.49,0,0,0,.46.31H25a.5.5,0,0,0,0-1Z"/></g></svg>