<svg xmlns="http://www.w3.org/2000/svg" viewBox="0 0 128 128"><defs><style>.cls-1{fill:none;}</style></defs><title>User_Payment_Monochrome_AmericanExpress_32px</title><g id="Square"><rect class="cls-1" width="128" height="128"/></g><g id="Card"><path d="M92.42,50.22v1.45l-.82-1.45h-6v1.45l-.75-1.45H76.7a7.08,7.08,0,0,0-3.53.73v-.73H67.55V51a3.43,3.43,0,0,0-2.38-.73H44.67L43.3,53.4l-1.43-3.18H35.42v1.45l-.72-1.45H29.2l-.1.45-.28.6-3.77,8.85L24,62.57h6.25l.8-2H32.9l.8,2h7.1v-1.5l.62,1.5h3.7l.63-1.52v1.52H63.4V59.32h.32c.25,0,.33,0,.33.43v2.8h9.12V61.8a7.2,7.2,0,0,0,3.38.75H80.4l.82-2h1.83l.8,2h7.4V60.67l1.12,1.88H98.3V50.22ZM47.27,60.8V53.9l-3.05,6.9H42.35L39.3,53.87V60.8H35l-.83-1.95h-4.4L29,60.8H26.67L30.45,52H33.6l3.57,8.38V52h3.45l2.78,6,2.52-6h3.53V60.8Zm10.8-7h-5V55.4H58v1.82H53.12V59h5V60.8H51V52h7Zm9.5,3.63a2.53,2.53,0,0,1,.35,1.62V60.8H65.8V59.7A2.71,2.71,0,0,0,65.47,58c-.37-.42-.8-.37-1.55-.37H61.65v3.2h-2.1V52H64.4A4.9,4.9,0,0,1,67,52.4a2,2,0,0,1,1.07,2,2.44,2.44,0,0,1-1.47,2.35A2.37,2.37,0,0,1,67.57,57.45ZM71.4,60.8H69.25V52H71.4Zm25,0h-3l-4-6.63V60.8h-4.3l-.82-1.95H79.9l-.8,1.95H76.62a4.41,4.41,0,0,1-3.05-1,4.5,4.5,0,0,1-1.12-3.37A4.29,4.29,0,0,1,73.57,53c.9-1,1.75-1,3.23-1h2v1.9h-2a2,2,0,0,0-1.62.53,2.67,2.67,0,0,0-.6,2,3.24,3.24,0,0,0,.57,2.07,1.75,1.75,0,0,0,1.48.45h.95l3-7h3.18l3.57,8.35V52h3.23l3.7,6.15V52h2.17Z"/><path d="M65.25,54a2.14,2.14,0,0,0-1-.15h-2.6v2h2.57a2,2,0,0,0,1-.17.89.89,0,0,0,.43-.85A.82.82,0,0,0,65.25,54Z"/><polygon points="80.65 57 83.57 57 82.12 53.47 80.65 57"/><polygon points="30.52 57 33.42 57 31.98 53.47 30.52 57"/><path d="M64,69H61.27v2.25H64c.82,0,1.32-.4,1.32-1.17S64.8,69,64,69Z"/><polygon points="45.6 69.02 45.6 70.62 50.22 70.62 50.22 72.42 45.6 72.42 45.6 74.17 50.8 74.17 53.2 71.6 50.9 69.02 45.6 69.02"/><polygon points="59.17 75.22 59.17 68.12 55.92 71.62 59.17 75.22"/><path d="M74.3,69.17a2.14,2.14,0,0,0-1-.15H70.7v2h2.57a2.27,2.27,0,0,0,1-.18,1,1,0,0,0,.45-.85A.88.88,0,0,0,74.3,69.17Z"/><path d="M104,73.22a4.58,4.58,0,0,0-.6-2.4h.17v-5.4h-6a5.45,5.45,0,0,0-2.32.48v-.48h-5.8a3.86,3.86,0,0,0-2.5.73v-.73H76.6v.73a5.36,5.36,0,0,0-2.83-.73H67v.73a4.83,4.83,0,0,0-3-.73H56.35l-1.75,1.9L53,65.42H41.6V77.75H52.75l1.8-1.9,1.7,1.9h6.9V74.87h.67a7.09,7.09,0,0,0,2.93-.45v3.33h5.67v-3.2h.28c.35,0,.4,0,.4.35v2.85H90.35a5.31,5.31,0,0,0,2.7-.65v.67h5.87a6.42,6.42,0,0,0,2.5-.42l.38-.15h0A4.42,4.42,0,0,0,104,73.22Zm-40.1-.17H61.27v3h-4.1l-2.6-2.92L51.87,76H43.5V67.17H52l2.6,2.9,2.67-2.9H64c1.68,0,3.55.48,3.55,2.93s-1.82,3-3.67,3Zm12.72-.4A2.57,2.57,0,0,1,77,74.27V76H74.85v-1.1c0-.52.05-1.32-.35-1.72s-.78-.4-1.55-.4H70.7V76H68.57V67.17h4.88A5.15,5.15,0,0,1,76,67.6a2,2,0,0,1,1.07,2,2.47,2.47,0,0,1-1.5,2.35,2.28,2.28,0,0,1,1.05.73ZM85.3,69h-5v1.6h4.82v1.8H80.35v1.75h5V76h-7V67.17h7Zm1.27,7v-1.9h4.1a1.17,1.17,0,0,0,.85-.22.78.78,0,0,0,.06-1.1l-.06,0a1.17,1.17,0,0,0-.75-.2c-2-.08-4.45.07-4.45-2.73,0-1.3.8-2.65,3-2.65h4.22v1.9H89.7a1.43,1.43,0,0,0-.85.15.71.71,0,0,0-.3.65.64.64,0,0,0,.45.65,2.28,2.28,0,0,0,.82.1H91a3.34,3.34,0,0,1,2.42.73A2.28,2.28,0,0,1,94,73.2c0,1.92-1.18,2.8-3.33,2.8Zm15.2-1.1-.1.13-.15.15-.17.17-.08,0-.22.15h0a3.92,3.92,0,0,1-1.1.35h-.08l-.32,0H94.85v-1.9h4.07a1.17,1.17,0,0,0,.85-.22.73.73,0,0,0,.25-.58.64.64,0,0,0-.27-.52,1.11,1.11,0,0,0-.73-.2c-2-.08-4.47.07-4.47-2.73a2.57,2.57,0,0,1,.65-1.75s.07-.07.1-.1l.1-.1.1-.07.12-.1.1,0,.15-.1.1,0,.2-.08h.08l.22-.07h.08l.27,0h5v1.9H97.67a1,1,0,0,0-.57.15h0a.66.66,0,0,0-.33.65.69.69,0,0,0,.45.65,2.59,2.59,0,0,0,.83.1H99.2a4.58,4.58,0,0,1,2,.4,2.08,2.08,0,0,1,.4.32s0,0,.05,0a2.46,2.46,0,0,1,.6,1.8,2.84,2.84,0,0,1-.48,1.6Z"/><path d="M112,100H16a4,4,0,0,1-4-4V32a4,4,0,0,1,4-4h96a4,4,0,0,1,4,4V96A4,4,0,0,1,112,100ZM16,32V96h96V32Z"/></g></svg>