<svg xmlns="http://www.w3.org/2000/svg" viewBox="0 0 128 128"><defs><style>.cls-1{fill:none;}</style></defs><title>User_Payment_Monochrome_Paypal_32px</title><g id="Square"><rect class="cls-1" width="128" height="128"/></g><g id="Card"><path d="M72.38,76H68.65a.52.52,0,0,0-.51.44L66.63,86a.32.32,0,0,0,.26.36h2a.37.37,0,0,0,.36-.31l.43-2.71a.52.52,0,0,1,.5-.44h1.18c2.46,0,3.88-1.19,4.25-3.54a2.91,2.91,0,0,0-.48-2.41A3.4,3.4,0,0,0,72.38,76Zm.43,3.5c-.2,1.34-1.22,1.34-2.21,1.34H70l.4-2.51a.31.31,0,0,1,.3-.25H71c.67,0,1.31,0,1.63.38a1.14,1.14,0,0,1,.19,1Z"/><path d="M45.76,76H42a.52.52,0,0,0-.51.44L40,86a.32.32,0,0,0,.26.36h1.83a.52.52,0,0,0,.51-.44L43,83.31a.52.52,0,0,1,.51-.44h1.18c2.46,0,3.88-1.19,4.25-3.54a2.88,2.88,0,0,0-.48-2.41A3.44,3.44,0,0,0,45.76,76Zm.43,3.5C46,80.8,45,80.8,44,80.8h-.56l.39-2.51a.32.32,0,0,1,.31-.25h.25c.67,0,1.31,0,1.64.38a1.24,1.24,0,0,1,.19,1Z"/><path d="M56.92,79.41H55.13a.32.32,0,0,0-.31.26l-.07.5L54.62,80a2.56,2.56,0,0,0-2.11-.76,4.11,4.11,0,0,0-4,3.6,3.34,3.34,0,0,0,.67,2.74,2.79,2.79,0,0,0,2.25.91,3.42,3.42,0,0,0,2.47-1l-.08.5a.31.31,0,0,0,.26.36h1.66a.52.52,0,0,0,.51-.44l1-6.12a.31.31,0,0,0-.25-.36Zm-2.49,3.48a2,2,0,0,1-2,1.71,1.38,1.38,0,0,1-1.52-1.23,1.26,1.26,0,0,1,0-.51,2,2,0,0,1,2-1.72,1.52,1.52,0,0,1,1.19.49,1.54,1.54,0,0,1,.3,1.26Z"/><path d="M83.54,79.41H81.75a.32.32,0,0,0-.31.26l-.08.5L81.24,80a2.56,2.56,0,0,0-2.11-.76,4.11,4.11,0,0,0-4,3.6,3.34,3.34,0,0,0,.67,2.74,2.79,2.79,0,0,0,2.25.91,3.42,3.42,0,0,0,2.47-1l-.08.5a.3.3,0,0,0,.26.36h1.66a.52.52,0,0,0,.5-.44l1-6.12a.31.31,0,0,0-.25-.36Zm-2.49,3.48a2,2,0,0,1-2,1.71,1.49,1.49,0,0,1-1.2-.48,1.52,1.52,0,0,1-.28-1.27,2,2,0,0,1,2-1.72,1.43,1.43,0,0,1,1.5,1.76Z"/><path d="M66.43,79.41H64.64a.54.54,0,0,0-.43.23l-2.49,3.65-1-3.51a.53.53,0,0,0-.5-.37H58.4a.31.31,0,0,0-.31.32.28.28,0,0,0,0,.09l2,5.82-1.86,2.62a.3.3,0,0,0,.08.43.27.27,0,0,0,.17.06h1.8a.53.53,0,0,0,.43-.22l6-8.62a.32.32,0,0,0-.08-.44A.28.28,0,0,0,66.43,79.41Z"/><path d="M85.65,76.22,84.11,86a.32.32,0,0,0,.26.36H86a.51.51,0,0,0,.51-.44L88,76.32a.31.31,0,0,0-.26-.35H86A.31.31,0,0,0,85.65,76.22Z"/><path d="M75.63,49.12c.38-2.41,0-4-1.3-5.54s-4-2.33-7.35-2.33H57.36A1.37,1.37,0,0,0,56,42.41L52,67.83a.82.82,0,0,0,.68.94h6.08l1.49-9.46-.05.29a1.38,1.38,0,0,1,1.36-1.16h2.83c5.54,0,9.88-2.25,11.16-8.77l.09-.56"/><path d="M77.79,49.49h0a5.29,5.29,0,0,0-.41-.41c0,.1,0,.2,0,.3v0c0,.19-.06.39-.1.6a18.1,18.1,0,0,1-.44,1.76,6.65,6.65,0,0,1,.19,4c-.9,4.6-3.76,6.83-8.74,6.83h-.76a2.24,2.24,0,0,0-2.22,1.88l-.06.31-.94,6,0,.23v0a.16.16,0,0,1-.16.14H59.42l.11-.66H57.42l-.11.7a1.78,1.78,0,0,0,1.48,2l.26,0h5a2.25,2.25,0,0,0,2.22-1.88l0-.24,1-6,.06-.32v0a.16.16,0,0,1,.16-.14h.76a11.69,11.69,0,0,0,6.89-1.89A10.24,10.24,0,0,0,79,56.16C79.58,53.3,79.15,51.06,77.79,49.49Z"/><path d="M112,100H16a4,4,0,0,1-4-4V32a4,4,0,0,1,4-4h96a4,4,0,0,1,4,4V96A4,4,0,0,1,112,100ZM16,32V96h96V32Z"/></g></svg>