<svg xmlns="http://www.w3.org/2000/svg" viewBox="0 0 128 128"><defs><style>.cls-1{fill:none;}.cls-2{fill:#f59e00;}.cls-3{fill:#111116;}.cls-4{fill:#121216;}.cls-5{fill:#121116;}</style></defs><title>User_Payment_Monochrome_Illico_32px</title><g id="Square"><rect class="cls-1" width="128" height="128"/></g><g id="Card"><path class="cls-2" d="M95.47,69.91v-.59h-.24v-.13h.64v.13h-.24v.59Zm1.23,0V69.4l-.16.43h-.19l-.16-.43v.51H96v-.72h.27l.19.45.16-.45h.26v.72Z"/><path class="cls-3" d="M24.37,81.64h61.9a17.28,17.28,0,0,0,9.47-2.72,17.06,17.06,0,0,0,7.94-11.63A17.61,17.61,0,0,0,86.35,46.36H41.65a17.61,17.61,0,0,0-17.09,13.2A17.14,17.14,0,0,0,24,63.77V81.32C24,81.64,24,81.64,24.37,81.64Zm62-15.47a4.7,4.7,0,0,1,2.75-3.44,5.5,5.5,0,0,1,2.37-.42,4.4,4.4,0,0,1,3.84,2.4,6,6,0,0,1,.59,1.89,4.64,4.64,0,0,1-1.79,4.45,4.56,4.56,0,0,1-3.23,1,6.39,6.39,0,0,1-1,0,4.77,4.77,0,0,1-3.63-3.44,5.83,5.83,0,0,1,.08-2.46Zm-10.72-.4a4,4,0,0,1,1.15-2.08A5,5,0,0,1,81,62.44a3.4,3.4,0,0,1,1.12.35v-.22c0-2.32.06-4.64.19-7a1.17,1.17,0,0,1,.91-1.09h.42c.46,0,.62.11.67.56a4,4,0,0,1,0,1.15c-.16,1.54-.22,3.09-.3,4.64S84,64,84,65.53c0,.67.06,1.34.14,2,.16,1.18.37,2.32.58,3.47a.5.5,0,0,1,0,.43,1,1,0,0,1-1.2.4.72.72,0,0,1-.3-.3c-.1-.24-.18-.48-.26-.72s0-.16-.08-.18-.62.5-.94.72a4.24,4.24,0,0,1-3.38.58,3.79,3.79,0,0,1-2.8-2.64,5.8,5.8,0,0,1-.11-3.52Zm-12,1.15a5.13,5.13,0,0,1,1.86-3.44,5.9,5.9,0,0,1,5.5-.67l.42.19A.53.53,0,0,0,72,63a1.3,1.3,0,0,1,.69-.18c.48,0,.64.16.64.64V65c0,.53,0,1.44,0,2.16a23.54,23.54,0,0,0,.53,3.63.73.73,0,0,1-.5,1,.79.79,0,0,1-1.18-.42,5.65,5.65,0,0,1-.29-.67l-.59.4a5.31,5.31,0,0,1-4.13.88,4.65,4.65,0,0,1-3.47-3.28A4.35,4.35,0,0,1,63.66,66.92ZM53,64.81a5.5,5.5,0,0,1,3-2.24,4.65,4.65,0,0,1,2.16-.21A5.31,5.31,0,0,1,61,63.75a3.07,3.07,0,0,1,.62.72.73.73,0,0,1-.24,1.06c-.4.32-.62.32-1,0L59.71,65a3.11,3.11,0,0,0-2.8-.82,3.21,3.21,0,0,0-2.75,3.68A2.62,2.62,0,0,0,56,70.12a4.48,4.48,0,0,0,2.21.16A2.69,2.69,0,0,0,60.3,69a2,2,0,0,1,.29-.4.66.66,0,0,1,.91-.16l.29.18a.76.76,0,0,1,.21.86l-.16.37a3.75,3.75,0,0,1-2.24,1.89,6.82,6.82,0,0,1-3.38.32,4.27,4.27,0,0,1-3.61-2.9,4.5,4.5,0,0,1-.32-1.66A4.41,4.41,0,0,1,53,64.81Zm-5.57,2.88c.05-1.06,0-2.13.08-3.2a5.09,5.09,0,0,1,.27-1.44.93.93,0,0,1,1.09-.61.91.91,0,0,1,.83,1v0l-.16,2.46a32.94,32.94,0,0,0,0,4.66,5,5,0,0,1,0,.67.68.68,0,0,1-.63.74h-.06a1.66,1.66,0,0,1-1.15-.35.68.68,0,0,1-.26-.53c0-1.15-.08-2.27,0-3.42Zm-.27-9A1.72,1.72,0,0,1,49.31,57c1,.32,1.06.69,1.25,1.36a1.55,1.55,0,0,1-1,2l-.13,0a1.7,1.7,0,0,1-2.17-1,1.76,1.76,0,0,1-.07-.27c0-.13,0-.26-.06-.42ZM42,64.17c0-.77,0-1.78,0-2.77a47.48,47.48,0,0,1,.43-4.77,6,6,0,0,1,.32-1.39.82.82,0,0,1,.48-.59,1.42,1.42,0,0,1,1.09,0,.6.6,0,0,1,.43.67l-.24,1.92a32.35,32.35,0,0,0-.3,3.94c-.05,1.74-.08,3.47,0,5.18,0,.93.13,1.86.19,2.8a17.64,17.64,0,0,0,.18,1.81,1,1,0,0,1-.16.75c-.24.4-1.54.45-1.78-.08a2.69,2.69,0,0,1-.19-.38,4.56,4.56,0,0,1-.13-.53A26.19,26.19,0,0,1,42,66.63c0-.75,0-1.47,0-2.46Zm-5.17.4a65.71,65.71,0,0,1,.32-6.72c.05-.34.08-.69.13-1a6.81,6.81,0,0,1,.32-1.54,1,1,0,0,1,1.31-.7.72.72,0,0,1,.64.75,1.94,1.94,0,0,1,0,.59,17,17,0,0,0-.21,1.78c-.14,1.15-.24,2.32-.3,3.5-.08,1.92,0,3.86.08,5.78,0,.72.11,1.44.16,2.16s.14,1.39.22,2.08a.62.62,0,0,1-.49.72h0a1.05,1.05,0,0,1-.5,0,1.08,1.08,0,0,1-1-.64,2.94,2.94,0,0,1-.19-.64,12.16,12.16,0,0,1-.32-2.08c0-.19,0-.35,0-.51C36.81,66.92,36.78,65.75,36.8,64.57Zm-4.69-1.78a1.28,1.28,0,0,1,1.22-.32,1,1,0,0,1,.7.8,4.93,4.93,0,0,1,.13,1.09c0,2.27,0,4.53-.08,6.77,0,.54-.21.75-.72.83h-.21c-.78.05-1.1-.21-1.1-1,0-1.27,0-2.52,0-3.76V67c0-1.2-.08-2.43-.13-3.66A.67.67,0,0,1,32.11,62.79ZM31,58.87A1.9,1.9,0,0,1,32.69,57a1.74,1.74,0,0,1,1.76,1.7,1.66,1.66,0,0,1-1.65,1.82A1.81,1.81,0,0,1,31,58.87Z"/><path class="cls-4" d="M80.14,64.12l-.86.11a2.44,2.44,0,0,0-1.89,1.6,4.9,4.9,0,0,0-.27,2A2.44,2.44,0,0,0,80.43,70a2.48,2.48,0,0,0,1.84-2.37,6.38,6.38,0,0,0-.11-2,3.82,3.82,0,0,0-.18-.51,1.7,1.7,0,0,0-1.44-1Z"/><path class="cls-4" d="M71.71,67.29a5.17,5.17,0,0,0-.08-1.3A1.92,1.92,0,0,0,69.9,64.2a4.26,4.26,0,0,0-2.24.08,3.34,3.34,0,0,0-2.22,3.89,2.54,2.54,0,0,0,.67,1.26,3.24,3.24,0,0,0,3.12.9,4.16,4.16,0,0,0,1.81-1,2,2,0,0,0,.67-1.63Z"/><path class="cls-5" d="M91.1,70.39A3.16,3.16,0,0,0,93,69.77,2.58,2.58,0,0,0,94.14,68,4.45,4.45,0,0,0,94,65.88,2.67,2.67,0,0,0,91.39,64a5.07,5.07,0,0,0-1.55.24A2.69,2.69,0,0,0,88,66.33a3.87,3.87,0,0,0,0,1.79A3,3,0,0,0,91.1,70.39Z"/><path d="M112,100H16a4,4,0,0,1-4-4V32a4,4,0,0,1,4-4h96a4,4,0,0,1,4,4V96A4,4,0,0,1,112,100ZM16,32V96h96V32Z"/></g></svg>