<svg xmlns="http://www.w3.org/2000/svg" viewBox="0 0 128 128"><defs><style>.cls-1{fill:none;}</style></defs><title>User_Payment_Monochrome_Oney_32px</title><g id="Square"><rect class="cls-1" width="128" height="128"/></g><g id="Card"><path d="M74.55,55.43c.56.07,1.13.11,1.67.22A8.77,8.77,0,0,1,83,62.76a11.33,11.33,0,0,1,0,2.91H69a.28.28,0,0,0,0,.13,5.62,5.62,0,0,0,5.69,4.53,5.94,5.94,0,0,0,4.18-1.8.3.3,0,0,1,.23-.11h3.3l.11,0c-.15.25-.28.53-.43.77a8.91,8.91,0,0,1-16.23-3,9,9,0,0,1,3.87-9.48A8.53,8.53,0,0,1,74,55.46l.3,0Zm-5.43,7.36H79.67c0-2-2.61-4.15-4.92-4.27A5.45,5.45,0,0,0,69.12,62.79Z"/><path d="M37.63,55.43c.44.07.88.13,1.32.22A9,9,0,0,1,43.79,70.3a8.44,8.44,0,0,1-7.11,3.1,8.58,8.58,0,0,1-8.08-5.74,15.47,15.47,0,0,1-.55-2.28c0-.09,0-.18-.05-.27V63.7a1.42,1.42,0,0,0,.05-.22,8.84,8.84,0,0,1,6.87-7.82c.47-.1.94-.15,1.41-.23Zm5.16,9c0-.42-.08-.84-.16-1.25a5.79,5.79,0,0,0-6.78-4.56,6.32,6.32,0,0,0-.85.24,5.92,5.92,0,0,0-3.64,7.07,5.79,5.79,0,0,0,6.46,4.37A5.94,5.94,0,0,0,42.79,64.43Z"/><path d="M87.17,78.57l2.55-6.24a.5.5,0,0,0,0-.34L82.79,55.45a0,0,0,0,0,0,0h3.6a.79.79,0,0,0,0,.13l5,12.24.08.16a3,3,0,0,0,.13-.29l1.88-4.6,3.12-7.64H100c0,.09,0,.19-.08.29L93.17,72.17q-1.31,3.21-2.63,6.4Z"/><path d="M56.6,55.43c.45.08.91.12,1.35.23A7.17,7.17,0,0,1,63.59,61a9.06,9.06,0,0,1,.25,2.26c0,3.3,0,6.61,0,9.91v.23H60.6v-.33c0-3.15,0-6.31,0-9.46a9.84,9.84,0,0,0-.23-2.09,3.72,3.72,0,0,0-3-2.94,7,7,0,0,0-3,0,3.86,3.86,0,0,0-3.18,3.36,11.32,11.32,0,0,0-.13,1.74v9.73H47.83a.77.77,0,0,1,0-.15c0-3.47,0-6.93,0-10.39a7,7,0,0,1,2.48-5.48,7.88,7.88,0,0,1,4.47-1.87l.3-.06Z"/><path d="M112,100H16a4,4,0,0,1-4-4V32a4,4,0,0,1,4-4h96a4,4,0,0,1,4,4V96A4,4,0,0,1,112,100ZM16,32V96h96V32Z"/></g></svg>