<svg xmlns="http://www.w3.org/2000/svg" viewBox="0 0 32 32"><defs><style>.a{fill:none;}.b{fill:#999;}</style></defs><title>User-Contact-Phone-32px</title><rect class="a" width="32" height="32"/><path class="b" d="M22.2,29c-3.9,0-8.7-2.2-12.9-6.4a22.7,22.7,0,0,1-5.9-9.7C2.5,9.3,3.1,6.3,5,4.4A4.4,4.4,0,0,1,6.7,3.2a2.8,2.8,0,0,1,3.2.9l3,4.3a2.3,2.3,0,0,1-.5,3.2l-.7.5a1.4,1.4,0,0,0-.4,1.1,9.5,9.5,0,0,0,2.9,4.6,10.6,10.6,0,0,0,4.6,2.9,1.4,1.4,0,0,0,1.1-.5l.5-.6a2.3,2.3,0,0,1,3.2-.5l4.3,3a2.8,2.8,0,0,1,.9,3.2A4.4,4.4,0,0,1,27.6,27,7.1,7.1,0,0,1,22.2,29ZM7.5,5a3.7,3.7,0,0,0-1.1.8C5,7.2,4.6,9.5,5.4,12.4a19.4,19.4,0,0,0,5.4,8.8c5.3,5.4,12.4,7.4,15.4,4.4a6.3,6.3,0,0,0,.8-1.1c.1-.2-.1-.6-.3-.8l-4.2-3a.4.4,0,0,0-.5.1l-.5.6a3.2,3.2,0,0,1-3,1.3,13.4,13.4,0,0,1-5.7-3.5,12.3,12.3,0,0,1-3.5-5.7,3.2,3.2,0,0,1,1.3-3l.6-.5a.4.4,0,0,0,.1-.5l-3-4.2c-.2-.2-.6-.4-.8-.3ZM27.9,24.9Z"/></svg>