<?xml version="1.0" encoding="UTF-8"?>
<svg width="32px" height="32px" viewBox="0 0 32 32" version="1.1" xmlns="http://www.w3.org/2000/svg" xmlns:xlink="http://www.w3.org/1999/xlink">
    <!-- Generator: Sketch 50.2 (55047) - http://www.bohemiancoding.com/sketch -->
    <title>User/Card/LoyaltyCard/32px</title>
    <desc>Created with Sketch.</desc>
    <defs>
        <path d="M27,7 L5,7 C3.8954305,7 3,7.8954305 3,9 L3,23 C3,24.1045695 3.8954305,25 5,25 L27,25 C28.1045695,25 29,24.1045695 29,23 L29,9 C29,7.8954305 28.1045695,7 27,7 Z M27,9 L27,23 L5,23 L5,9 L27,9 Z M11.3604165,17.8465544 L15.6395835,13.3962207 C15.8309802,13.1971682 16.1475018,13.1909619 16.3604165,13.3962207 L20.6395835,17.8465544 C20.8309802,18.0456069 21.1475018,18.0518132 21.3465544,17.8604165 C21.5456069,17.6690198 21.5518132,17.3524982 21.3604165,17.1534456 L17.0812496,12.703112 C17.0607281,12.682047 17.0607281,12.682047 17.0396631,12.6615255 C16.4425054,12.0873354 15.4929405,12.1059544 14.9187504,12.703112 L10.6395835,17.1534456 C10.4481868,17.3524982 10.4543931,17.6690198 10.6534456,17.8604165 C10.8524982,18.0518132 11.1690198,18.0456069 11.3604165,17.8465544 Z M18.7,18.2 L16.4,15.9 C16.2861002,15.7708497 16.1222003,15.6968627 15.95,15.6968627 C15.7777997,15.6968627 15.6138998,15.7708497 15.5,15.9 L13.2,18.2 C13.0566189,18.4031079 13.0317277,18.667027 13.1346066,18.8933606 C13.2374855,19.1196942 13.4526955,19.2744765 13.7,19.3 L18.3,19.3 C18.5781629,19.3353667 18.8437276,19.1733576 18.9395531,18.9098375 C19.0353786,18.6463173 18.9359078,18.3515681 18.7,18.2 Z" id="path-1"></path>
    </defs>
    <g id="User/Card/LoyaltyCard/32px" stroke="none" stroke-width="1" fill="none" fill-rule="evenodd">
        <mask id="mask-2" fill="white">
            <use xlink:href="#path-1"></use>
        </mask>
        <use id="Shape" fill="#242424" fill-rule="nonzero" xlink:href="#path-1"></use>
    </g>
</svg>