<svg xmlns="http://www.w3.org/2000/svg" viewBox="0 0 32 32"><defs><style>.cls-1{fill:none;}.cls-2,.cls-3{fill:#999;}.cls-3{fill-rule:evenodd;}</style></defs><title>User_Card_HouseCard_32px</title><g id="Square"><rect class="cls-1" width="32" height="32"/></g><g id="Icon"><path class="cls-2" d="M10.78,18.19a.49.49,0,0,1-.35-.15.5.5,0,0,1,0-.71l5.46-5.46,5.46,5.46a.51.51,0,0,1,0,.71.5.5,0,0,1-.71,0l-4.75-4.75L11.14,18A.51.51,0,0,1,10.78,18.19Z"/><path class="cls-2" d="M27,9V23H5V9H27m0-2H5A2,2,0,0,0,3,9V23a2,2,0,0,0,2,2H27a2,2,0,0,0,2-2V9a2,2,0,0,0-2-2Z"/><path class="cls-3" d="M13.14,18.12l2.31-2.31a.65.65,0,0,1,.91,0l2.3,2.31a.64.64,0,0,1-.45,1.09H13.6A.64.64,0,0,1,13.14,18.12Z"/></g></svg>