<svg xmlns="http://www.w3.org/2000/svg" viewBox="0 0 32 32"><defs><style>.cls-1{fill:none;}.cls-2{fill:#999;}</style></defs><title>User_Account_Profile--View_32px</title><g id="Square"><rect class="cls-1" width="32" height="32"/></g><g id="Icon"><path class="cls-2" d="M16,16.68a6.84,6.84,0,1,1,6.84-6.84A6.85,6.85,0,0,1,16,16.68ZM16,5a4.84,4.84,0,1,0,4.84,4.84A4.84,4.84,0,0,0,16,5Z"/><path class="cls-2" d="M21.8,18.41a1,1,0,0,0-.75.11,10,10,0,0,1-10.1,0,1,1,0,0,0-.75-.11L5.75,19.57a1,1,0,0,0-.75,1V28a1,1,0,0,0,1,1H26a1,1,0,0,0,1-1V20.54a1,1,0,0,0-.75-1ZM25,27H7V21.31l3.34-.87a12.12,12.12,0,0,0,11.32,0l3.34.87Z"/></g></svg>