<svg xmlns="http://www.w3.org/2000/svg" viewBox="0 0 128 128"><defs><style>.cls-1{fill:none;}.cls-2{fill:#f59e00;}</style></defs><title>User_Payment_Monochrome_MasterCard_32px</title><g id="Square"><rect class="cls-1" width="128" height="128"/></g><g id="Card"><path class="cls-2" d="M94.58,70v-.59h-.24v-.14H95v.14h-.24V70Zm1.23,0v-.51l-.16.43h-.19l-.16-.43V70h-.19v-.73h.27l.19.46.16-.46H96V70Z"/><path d="M42.63,83.17a2.68,2.68,0,0,0-.64-.41,2.06,2.06,0,0,0-.81-.13H40.7l-.49.13a1.84,1.84,0,0,0-.43.3,1.28,1.28,0,0,0-.37.43,1.84,1.84,0,0,0-1.69-.89h-.41l-.4.11a1.31,1.31,0,0,0-.37.24,1.56,1.56,0,0,0-.33.35v-.62H35.14v5.08h1.07V85a1.22,1.22,0,0,1,.11-.56,1.48,1.48,0,0,1,.27-.43,1,1,0,0,1,.4-.24,1.36,1.36,0,0,1,.49-.08,1.08,1.08,0,0,1,.85.32,1.55,1.55,0,0,1,.3,1v2.82H39.7V85a2.1,2.1,0,0,1,.08-.56,1.66,1.66,0,0,1,.3-.43,1,1,0,0,1,.4-.24,1.18,1.18,0,0,1,.49-.08,1.08,1.08,0,0,1,.83.32,1.42,1.42,0,0,1,.29,1v2.82h1.08V84.62a2.46,2.46,0,0,0-.14-.81A2.65,2.65,0,0,0,42.63,83.17Z"/><path d="M48.27,83.35a1.77,1.77,0,0,0-.65-.53,2,2,0,0,0-.94-.19,2.39,2.39,0,0,0-1,.19,3.65,3.65,0,0,0-.81.53,3.33,3.33,0,0,0-.53.86,2.68,2.68,0,0,0-.19,1.08,2.8,2.8,0,0,0,.72,1.9,2.73,2.73,0,0,0,.81.54,2.59,2.59,0,0,0,1,.22,2,2,0,0,0,.94-.22,1.62,1.62,0,0,0,.65-.54v.62h1.1V82.74h-1.1Zm0,2.58a1.91,1.91,0,0,1-.32.51,1.39,1.39,0,0,1-.48.32,1.51,1.51,0,0,1-.62.14,1.65,1.65,0,0,1-.65-.14,1.24,1.24,0,0,1-.48-.34,1.76,1.76,0,0,1-.3-.51,1.65,1.65,0,0,1-.1-.62,1.8,1.8,0,0,1,.1-.65,1.47,1.47,0,0,1,.78-.86,1.84,1.84,0,0,1,.65-.13,1.68,1.68,0,0,1,.62.13,1.38,1.38,0,0,1,.48.35,1.52,1.52,0,0,1,.32.51,2.39,2.39,0,0,1,.11.65A2.77,2.77,0,0,1,48.24,85.93Z"/><path d="M54.44,85.26a2.6,2.6,0,0,0-1.29-.48l-.51-.08-.35-.06-.24-.08-.19-.16a.32.32,0,0,1-.08-.21.51.51,0,0,1,.27-.43,1.23,1.23,0,0,1,.7-.19l.46.05.45.11.38.13.27.17.48-.86a2.5,2.5,0,0,0-.91-.41,4.31,4.31,0,0,0-1.13-.13,3,3,0,0,0-.89.11,2.4,2.4,0,0,0-.64.32,1.42,1.42,0,0,0-.43.51,1.7,1.7,0,0,0-.13.67,1.21,1.21,0,0,0,.43,1,2.58,2.58,0,0,0,1.28.49l.51.08a1.48,1.48,0,0,1,.68.19.44.44,0,0,1,.21.37.49.49,0,0,1-.29.43,1.53,1.53,0,0,1-.86.19l-.57,0-.43-.11-.37-.16-.3-.22-.51.83a2.82,2.82,0,0,0,.57.35l.59.19.56.11h.46a3.45,3.45,0,0,0,1-.11,1.77,1.77,0,0,0,.73-.35,1.58,1.58,0,0,0,.45-.51,1.42,1.42,0,0,0,.14-.67A1.17,1.17,0,0,0,54.44,85.26Z"/><path d="M64.78,83.35a1.9,1.9,0,0,0-.75-.53,2.33,2.33,0,0,0-1-.19,2.37,2.37,0,0,0-1,.19,1.91,1.91,0,0,0-.81.53,2.49,2.49,0,0,0-.51.84,2.92,2.92,0,0,0-.18,1.1,2.8,2.8,0,0,0,.18,1.07,2.66,2.66,0,0,0,.54.86,2.94,2.94,0,0,0,.81.54,3.35,3.35,0,0,0,1,.19,3.67,3.67,0,0,0,1.1-.17,2.9,2.9,0,0,0,1-.56l-.57-.78a2,2,0,0,1-.69.38,2,2,0,0,1-.76.16,1.81,1.81,0,0,1-.51-.08,1.31,1.31,0,0,1-.45-.24,1.16,1.16,0,0,1-.35-.38,1.37,1.37,0,0,1-.19-.59h3.73a.71.71,0,0,1,0-.21v-.22a2.78,2.78,0,0,0-.19-1.07A2.51,2.51,0,0,0,64.78,83.35Zm-3.09,1.48a2.62,2.62,0,0,1,.13-.48,1.08,1.08,0,0,1,.3-.4,1.46,1.46,0,0,1,.38-.27A1.37,1.37,0,0,1,63,83.6a1.14,1.14,0,0,1,.86.32,1.75,1.75,0,0,1,.43.91Z"/><path d="M79.44,83.35a2.19,2.19,0,0,0-.68-.53,1.89,1.89,0,0,0-.91-.19,2.24,2.24,0,0,0-1,.19,2.42,2.42,0,0,0-.81.53,2.34,2.34,0,0,0-.53.86,2.66,2.66,0,0,0,0,2.12,1.92,1.92,0,0,0,.53.86,2.1,2.1,0,0,0,.81.54,2.42,2.42,0,0,0,1,.22,1.91,1.91,0,0,0,.91-.22,1.8,1.8,0,0,0,.68-.54v.62h1.1V82.74h-1.1Zm-.06,2.58a1.83,1.83,0,0,1-.29.51,1.43,1.43,0,0,1-.49.32,1.57,1.57,0,0,1-.64.14,1.51,1.51,0,0,1-.62-.14,1.17,1.17,0,0,1-.48-.34,1.32,1.32,0,0,1-.3-.51,1.65,1.65,0,0,1-.1-.62,1.8,1.8,0,0,1,.1-.65,1.32,1.32,0,0,1,.3-.51,1.51,1.51,0,0,1,1.1-.48,1.74,1.74,0,0,1,.64.13,1.33,1.33,0,0,1,.49.35,1.44,1.44,0,0,1,.29.51,1.62,1.62,0,0,1,.11.65A1.72,1.72,0,0,1,79.38,85.93Z"/><path d="M59.17,86.79a1.14,1.14,0,0,1-.51.11l-.33-.06a.38.38,0,0,1-.24-.16,1,1,0,0,1-.18-.29,1.59,1.59,0,0,1-.06-.43v-2.2h1.77v-1H57.85V81.21h-1.1v1.53h-1v1h1V86a2.07,2.07,0,0,0,.46,1.47,1.84,1.84,0,0,0,1.34.49,2.13,2.13,0,0,0,.86-.17,2.06,2.06,0,0,0,.48-.21l-.37-.94A.85.85,0,0,1,59.17,86.79Z"/><path d="M69.13,82.63a2.2,2.2,0,0,0-.84.16,1.73,1.73,0,0,0-.61.62v-.67h-1v5.07h1V85a1.52,1.52,0,0,1,.08-.56A1.21,1.21,0,0,1,68,84a.72.72,0,0,1,.37-.27,1.18,1.18,0,0,1,.49-.08h.42l.22.08.32-1.08-.27-.05Z"/><path d="M84.46,82.63a2.2,2.2,0,0,0-.84.16,1.65,1.65,0,0,0-.61.62v-.67H82v5.07h1V85a1.19,1.19,0,0,1,.1-.56.89.89,0,0,1,.25-.43.72.72,0,0,1,.37-.27,1.16,1.16,0,0,1,.48-.08h.43l.22.08.32-1.08-.27-.05Z"/><path d="M89.61,80.7v2.65a1.82,1.82,0,0,0-.64-.53,2.06,2.06,0,0,0-.94-.19,2.47,2.47,0,0,0-1,.19,3.59,3.59,0,0,0-.8.53,3.11,3.11,0,0,0-.54.86,2.86,2.86,0,0,0-.19,1.08,2.74,2.74,0,0,0,.73,1.9,2.57,2.57,0,0,0,.8.54A2.64,2.64,0,0,0,88,88a2.06,2.06,0,0,0,.94-.22,1.53,1.53,0,0,0,.64-.54v.62h1.1V80.7Zm0,5.23a1.91,1.91,0,0,1-.32.51,1.39,1.39,0,0,1-.48.32,1.51,1.51,0,0,1-.62.14,1.57,1.57,0,0,1-.64-.14,1.21,1.21,0,0,1-.49-.34,2.16,2.16,0,0,1-.29-.51,2.18,2.18,0,0,1-.11-.62,2.39,2.39,0,0,1,.11-.65,2.16,2.16,0,0,1,.29-.51,1.51,1.51,0,0,1,1.13-.48,1.68,1.68,0,0,1,.62.13,1.3,1.3,0,0,1,.48.35,1.52,1.52,0,0,1,.32.51,2.06,2.06,0,0,1,.11.65A2.32,2.32,0,0,1,89.58,85.93Z"/><path d="M71.78,84.11a1.63,1.63,0,0,1,.49-.33,1.74,1.74,0,0,1,.64-.13h0a1.9,1.9,0,0,1,.67.13,1,1,0,0,1,.54.33l.54-.89a3,3,0,0,0-.67-.4,2.86,2.86,0,0,0-1.08-.19,3,3,0,0,0-1.1.19,2.72,2.72,0,0,0-.86.56,2.59,2.59,0,0,0-.56.83,2.66,2.66,0,0,0,0,2.12,2.53,2.53,0,0,0,.56.84,2.72,2.72,0,0,0,.86.56,3.22,3.22,0,0,0,1.1.22A3.06,3.06,0,0,0,74,87.73a3.72,3.72,0,0,0,.67-.38l-.54-.88a1.55,1.55,0,0,1-.54.32,2.93,2.93,0,0,1-.67.11h0a2.32,2.32,0,0,1-.64-.11,1.52,1.52,0,0,1-.49-.35,1.27,1.27,0,0,1-.34-.51,1.54,1.54,0,0,1-.11-.64,1.69,1.69,0,0,1,.11-.67A1.27,1.27,0,0,1,71.78,84.11Z"/><path d="M55.65,59.11A19,19,0,0,1,62.9,44.19a19.06,19.06,0,1,0,0,29.88A19.05,19.05,0,0,1,55.65,59.11Z"/><path d="M74.71,42.74a16.38,16.38,0,0,1,0,32.75,16,16,0,0,1-7.49-1.83,21.65,21.65,0,0,0,0-29.1,16,16,0,0,1,7.49-1.82m0-2.69A18.91,18.91,0,0,0,62.9,44.19a19.06,19.06,0,0,1,0,29.88,19.06,19.06,0,1,0,11.81-34Z"/><path d="M112,100H16a4,4,0,0,1-4-4V32a4,4,0,0,1,4-4h96a4,4,0,0,1,4,4V96A4,4,0,0,1,112,100ZM16,32V96h96V32Z"/></g></svg>