<svg xmlns="http://www.w3.org/2000/svg" viewBox="0 0 32 32"><defs><style>.cls-1{fill:none;}.cls-2{fill:#999;}</style></defs><title>Various_Heat_32px</title><g id="Square"><rect class="cls-1" width="32" height="32"/></g><g id="Name"><path class="cls-2" d="M28.5,17a2,2,0,0,0-1.67-2A3,3,0,0,0,24,13a3,3,0,0,0-2,.78,3,3,0,0,0-4,0,3,3,0,0,0-4,0,3,3,0,0,0-4,0A3,3,0,0,0,8,13a3,3,0,0,0-3,3V26a3,3,0,0,0,3,3,3,3,0,0,0,2-.78,3,3,0,0,0,4,0,3,3,0,0,0,4,0,3,3,0,0,0,4,0A3,3,0,0,0,24,29a3,3,0,0,0,3-3V18.93A2,2,0,0,0,28.5,17ZM8,27a1,1,0,0,1-1-1V16a1,1,0,0,1,2,0V26A1,1,0,0,1,8,27Zm4,0a1,1,0,0,1-1-1V16a1,1,0,0,1,2,0V26A1,1,0,0,1,12,27Zm4,0a1,1,0,0,1-1-1V16a1,1,0,0,1,2,0V26A1,1,0,0,1,16,27Zm4,0a1,1,0,0,1-1-1V16a1,1,0,0,1,2,0V26A1,1,0,0,1,20,27Zm4,0a1,1,0,0,1-1-1V16a1,1,0,0,1,2-.26A2,2,0,0,0,24.5,17a2,2,0,0,0,.5,1.31V26A1,1,0,0,1,24,27Zm2.5-9a1,1,0,1,1,1-1A1,1,0,0,1,26.5,18Z"/><path class="cls-2" d="M11,10.49a1,1,0,0,0,.87.51,1,1,0,0,0,.49-.13,1,1,0,0,0,.38-1.36,1.85,1.85,0,0,1,.1-2,3.83,3.83,0,0,0,.16-4,1,1,0,1,0-1.74,1,1.85,1.85,0,0,1-.1,2A3.83,3.83,0,0,0,11,10.49Z"/><path class="cls-2" d="M15,10.49a1,1,0,0,0,.87.51,1,1,0,0,0,.49-.13,1,1,0,0,0,.38-1.36,1.85,1.85,0,0,1,.1-2,3.83,3.83,0,0,0,.16-4,1,1,0,1,0-1.74,1,1.85,1.85,0,0,1-.1,2A3.83,3.83,0,0,0,15,10.49Z"/><path class="cls-2" d="M19,10.49a1,1,0,0,0,.87.51,1,1,0,0,0,.49-.13,1,1,0,0,0,.38-1.36,1.85,1.85,0,0,1,.1-2,3.83,3.83,0,0,0,.16-4,1,1,0,1,0-1.74,1,1.85,1.85,0,0,1-.1,2A3.83,3.83,0,0,0,19,10.49Z"/></g></svg>