<svg xmlns="http://www.w3.org/2000/svg" viewBox="0 0 32 32"><defs><style>.a{fill:none;}.b{fill:#999;}</style></defs><title>Various-PaintCan-32px</title><rect class="a" width="32" height="32"/><path class="b" d="M29,9.2a19.5,19.5,0,0,0-.2-2.3A2.3,2.3,0,0,0,26.5,5H26V4a.9.9,0,0,0-1-1H7A.9.9,0,0,0,6,4V5H5.5A2.3,2.3,0,0,0,3.2,6.9,19.5,19.5,0,0,0,3,9.2a12.6,12.6,0,0,0,3,8.3V28a.9.9,0,0,0,1,1H25a.9.9,0,0,0,1-1V17.5A12.6,12.6,0,0,0,29,9.2ZM26.5,7c.2,0,.3.1.3.2a15,15,0,0,1,.2,2,11.5,11.5,0,0,1-1,4.6V7ZM13.3,16A2.7,2.7,0,0,0,16,13.3V9h8v7.8a11.1,11.1,0,0,1-16,0V9h2.7v4.3A2.7,2.7,0,0,0,13.3,16ZM24,5V7H14v6.3a.7.7,0,0,1-.7.7.7.7,0,0,1-.6-.7V7H8V5ZM5,9.2a15,15,0,0,1,.2-2c0-.1.1-.2.3-.2H6v6.8A11.5,11.5,0,0,1,5,9.2ZM8,27V19.5a13.2,13.2,0,0,0,16,0V27Z"/></svg>