<svg xmlns="http://www.w3.org/2000/svg" viewBox="0 0 32 32"><defs><style>.cls-1{fill:none;}.cls-2{fill:#999;}</style></defs><title>Various_Calendar_32px</title><g id="Square"><rect class="cls-1" width="32" height="32"/></g><g id="Icon"><path class="cls-2" d="M22.5,5V4a1,1,0,0,0-2,0V5H17V4a1,1,0,0,0-2,0V5H11.5V4a1,1,0,0,0-2,0V5H5A2,2,0,0,0,3,7V27a2,2,0,0,0,2,2H27a2,2,0,0,0,2-2V7a2,2,0,0,0-2-2ZM9.5,7V8a1,1,0,0,0,2,0V7H15V8a1,1,0,0,0,2,0V7h3.5V8a1,1,0,0,0,2,0V7H27v5.18H5V7ZM5,27V14.18H27V27Z"/></g></svg>