<svg xmlns="http://www.w3.org/2000/svg" viewBox="0 0 32 32"><defs><style>.cls-1{fill:none;}.cls-2{fill:#999;}</style></defs><title>Various_Receipt_32px</title><g id="Square"><rect class="cls-1" width="32" height="32"/></g><g id="Icon"><path class="cls-2" d="M9,5V21H5a2,2,0,0,0-2,2v2a4,4,0,0,0,4,4H21a4,4,0,0,0,4-4V5a2,2,0,0,0-2-2H11A2,2,0,0,0,9,5ZM7,27a2,2,0,0,1-2-2V23H17v2a4,4,0,0,0,.54,2Zm16-2a2,2,0,0,1-2.34,2A2.08,2.08,0,0,1,19,24.89V23a2,2,0,0,0-2-2H11V5H23Z"/><path class="cls-2" d="M20.7,14.34a.5.5,0,0,0-.71-.06A3,3,0,0,1,18,15a3,3,0,0,1-2.58-1.47h2.38a.5.5,0,0,0,0-1H15.07A3.07,3.07,0,0,1,15,12a3.07,3.07,0,0,1,.06-.53h2.76a.5.5,0,0,0,0-1H15.45a3,3,0,0,1,4.41-.86.5.5,0,0,0,.7-.09.51.51,0,0,0-.1-.7A3.94,3.94,0,0,0,18,8a4,4,0,0,0-3.71,2.47h-.64a.5.5,0,0,0,0,1h.39A3.19,3.19,0,0,0,14,12a3.19,3.19,0,0,0,.06.53h-.39a.5.5,0,0,0,0,1h.64A4,4,0,0,0,20.64,15,.49.49,0,0,0,20.7,14.34Z"/></g></svg>