<svg xmlns="http://www.w3.org/2000/svg" viewBox="0 0 32 32"><defs><style>.cls-1{fill:none;}.cls-2{fill:#999;}</style></defs><title>Various_Temperature_32px</title><g id="Square"><rect class="cls-1" width="32" height="32"/></g><g id="Icon"><path class="cls-2" d="M15.5,20.05V11h-1v9.05a2.5,2.5,0,1,0,1,0Z"/><path class="cls-2" d="M19,17.38V7a4,4,0,0,0-8,0V17.38a6.5,6.5,0,1,0,8,0ZM17.83,26a4.5,4.5,0,1,1-5.28-7.27l.45-.3V7a2,2,0,0,1,4,0V18.44l.45.29A4.5,4.5,0,0,1,17.83,26Z"/><path class="cls-2" d="M22,7h4a1,1,0,0,0,0-2H22a1,1,0,0,0,0,2Z"/><path class="cls-2" d="M26,10H22a1,1,0,0,0,0,2h4a1,1,0,0,0,0-2Z"/><path class="cls-2" d="M26,15H22a1,1,0,0,0,0,2h4a1,1,0,0,0,0-2Z"/></g></svg>