<svg xmlns="http://www.w3.org/2000/svg" viewBox="0 0 179 48">
    
  <path fill="#253B80" d="M60.236 10.71H49.941a1.43 1.43 0 0 0-1.413 1.208l-4.164 26.415a.857.857 0 0 0 .85.991h4.914a1.43 1.43 0 0 0 1.413-1.21l1.123-7.124a1.429 1.429 0 0 1 1.412-1.21h3.26c6.78 0 10.694-3.283 11.716-9.79.461-2.847.02-5.084-1.312-6.65-1.463-1.72-4.058-2.63-7.504-2.63Zm1.188 9.647c-.563 3.697-3.386 3.697-6.115 3.697h-1.553l1.09-6.903a.858.858 0 0 1 .847-.725h.712c1.86 0 3.613 0 4.519 1.06.54.633.706 1.573.5 2.871Zm29.584-.119h-4.93a.859.859 0 0 0-.847.725l-.218 1.38-.345-.5c-1.067-1.55-3.447-2.069-5.822-2.069-5.448 0-10.1 4.129-11.007 9.92-.471 2.89.199 5.652 1.837 7.579 1.502 1.771 3.651 2.51 6.209 2.51 4.39 0 6.823-2.825 6.823-2.825l-.22 1.37a.858.858 0 0 0 .847.995h4.44a1.43 1.43 0 0 0 1.413-1.21l2.665-16.884a.855.855 0 0 0-.845-.99Zm-6.871 9.601c-.476 2.818-2.711 4.71-5.562 4.71-1.432 0-2.576-.46-3.31-1.33-.729-.864-1.006-2.095-.774-3.466.444-2.794 2.717-4.747 5.524-4.747 1.4 0 2.538.465 3.288 1.343.751.887 1.049 2.125.834 3.49Zm33.127-9.601h-4.954c-.473 0-.917.235-1.185.628l-6.833 10.071-2.896-9.678a1.434 1.434 0 0 0-1.373-1.02h-4.868a.859.859 0 0 0-.814 1.135l5.457 16.024-5.13 7.246a.858.858 0 0 0 .7 1.356h4.948c.469 0 .909-.229 1.175-.615l16.477-23.799a.858.858 0 0 0-.704-1.348Z"/>
  <path fill="#179BD7" d="M133.665 10.71h-10.296a1.43 1.43 0 0 0-1.412 1.208l-4.164 26.415a.857.857 0 0 0 .846.991h5.284a1 1 0 0 0 .987-.846l1.182-7.488a1.429 1.429 0 0 1 1.412-1.21h3.257c6.783 0 10.696-3.283 11.719-9.79.462-2.847.018-5.084-1.314-6.65-1.462-1.72-4.055-2.63-7.501-2.63Zm1.188 9.647c-.562 3.697-3.384 3.697-6.115 3.697h-1.552l1.092-6.903a.855.855 0 0 1 .846-.725h.712c1.857 0 3.612 0 4.519 1.06.54.633.704 1.573.498 2.871Zm29.583-.119h-4.927a.855.855 0 0 0-.846.725l-.218 1.38-.346-.5c-1.067-1.55-3.446-2.069-5.821-2.069-5.448 0-10.099 4.129-11.005 9.92-.47 2.89.197 5.652 1.835 7.579 1.505 1.771 3.652 2.51 6.209 2.51 4.389 0 6.824-2.825 6.824-2.825l-.22 1.37a.858.858 0 0 0 .849.995h4.439a1.43 1.43 0 0 0 1.412-1.21l2.666-16.884a.86.86 0 0 0-.851-.99Zm-6.871 9.601c-.473 2.818-2.711 4.71-5.562 4.71-1.429 0-2.576-.46-3.311-1.33-.728-.864-1.002-2.095-.773-3.466.447-2.794 2.717-4.747 5.524-4.747 1.4 0 2.538.465 3.288 1.343.754.887 1.052 2.125.834 3.49Zm12.683-18.405-4.225 26.899a.857.857 0 0 0 .846.991h4.248a1.43 1.43 0 0 0 1.414-1.21l4.166-26.413a.858.858 0 0 0-.846-.993h-4.757a.86.86 0 0 0-.846.726ZM33.564 12.488a22.23 22.23 0 0 1-.132.753c-1.69 8.688-7.476 11.69-14.866 11.69h-3.762c-.904 0-1.665.656-1.806 1.548l-1.926 12.224-.545 3.465a.963.963 0 0 0 .95 1.114h6.672c.79 0 1.462-.574 1.586-1.354l.066-.34 1.256-7.978.081-.437a1.605 1.605 0 0 1 1.586-1.358h.998c6.465 0 11.526-2.626 13.005-10.227.618-3.175.298-5.826-1.337-7.69-.495-.563-1.109-1.03-1.826-1.41Z"/>
  <path fill="#222D65" d="M31.794 11.783a13.249 13.249 0 0 0-1.644-.366 20.878 20.878 0 0 0-3.317-.242H16.782a1.604 1.604 0 0 0-1.585 1.357L13.06 26.084l-.061.395a1.827 1.827 0 0 1 1.806-1.549h3.762c7.39 0 13.175-3.002 14.866-11.69.05-.256.093-.507.131-.752a9.006 9.006 0 0 0-1.39-.586c-.123-.041-.25-.081-.379-.12Z"/>
  <path fill="#253B80" d="M15.198 12.532a1.599 1.599 0 0 1 1.584-1.355h10.051c1.19 0 2.302.078 3.317.242a13.4 13.4 0 0 1 2.025.483c.498.165.962.36 1.39.586.503-3.21-.004-5.396-1.74-7.376C29.914 2.933 26.462 2 22.046 2H9.22c-.903 0-1.672.657-1.812 1.55l-5.34 33.879a1.102 1.102 0 0 0 1.087 1.274h7.917l1.987-12.62 2.139-13.55Z"/>
</svg>
