<svg xmlns="http://www.w3.org/2000/svg" viewBox="0 0 153 48">

  <path fill="#05C0C7" fill-rule="evenodd" d="M27.92 30.311a3.578 3.578 0 0 0-4.998.794l-4.21 5.794a3.58 3.58 0 1 0 5.792 4.207l4.212-5.792a3.584 3.584 0 0 0-.796-5.003Zm6.585 9.21a3.581 3.581 0 0 0-4.209 5.794 3.58 3.58 0 1 0 4.21-5.794ZM8.957 7.683a3.58 3.58 0 0 0-.788-5 3.587 3.587 0 0 0-5.003.789 3.581 3.581 0 0 0 5.791 4.211ZM29.752 9.52a3.575 3.575 0 0 0-4.998.79L7.918 33.482a3.58 3.58 0 1 0 5.791 4.208l16.838-23.173a3.573 3.573 0 0 0-.795-4.997Zm-19.208 8.168a3.582 3.582 0 0 0 5.001-.797l4.207-5.79a3.575 3.575 0 0 0-.792-5 3.573 3.573 0 0 0-4.999.791L9.75 12.685a3.583 3.583 0 0 0 .794 5.003Zm139.961 8.56c0-4.7-2.175-8.586-8.141-8.586-2.66 0-4.568.787-5.867 2.074-1.296-1.287-3.206-2.074-5.882-2.074-5.929 0-8.14 3.886-8.14 8.586l-.003 10.548c0 1.268 1.021 2.29 2.249 2.29a2.285 2.285 0 0 0 2.289-2.29V26.248c0-2.78.866-4.496 3.605-4.496 2.779 0 3.604 1.716 3.604 4.496v10.548c0 1.268 1.023 2.29 2.251 2.29a2.285 2.285 0 0 0 2.289-2.29V26.248c0-2.78.865-4.496 3.605-4.496 2.779 0 3.605 1.716 3.605 4.496v10.548c0 1.268 1.02 2.29 2.249 2.29a2.285 2.285 0 0 0 2.289-2.29l-.002-10.548Zm-34.69-8.583a2.283 2.283 0 0 0-2.289 2.29v10.547c0 2.778-1.229 4.495-3.968 4.495-2.779 0-3.965-1.717-3.965-4.495V19.953c0-1.27-1.02-2.29-2.249-2.29a2.283 2.283 0 0 0-2.288 2.29l.001 10.547c0 4.7 2.533 8.585 8.501 8.585 5.928 0 8.506-3.884 8.506-8.584V19.953c0-1.27-1.021-2.29-2.249-2.29Zm-46.686 8.013c0-4.744-2.505-7.77-8.272-7.77h-4.198V11.53c0-1.27-1.02-2.288-2.25-2.288a2.282 2.282 0 0 0-2.287 2.288v18.971c0 4.7 2.534 8.585 8.502 8.585 5.927 0 8.506-3.884 8.506-8.584V25.76h-.001v-.082Zm-4.537 4.823c0 2.779-1.229 4.496-3.968 4.496-2.78 0-3.965-1.717-3.965-4.495v-8.629h4.16c3.353 0 3.773 1.841 3.773 3.887v4.74ZM97.978 19.87c0-1.426-1.143-1.96-2.124-1.96H84.53c-1.105 0-2.004.86-2.004 1.96 0 1.108.9 2.004 2.004 2.004h7.439l-9.645 13.41c-.287.408-.448.9-.448 1.349 0 1.388 1.143 2.207 2.083 2.207h12.019c1.1 0 2-.9 2-2.004a1.98 1.98 0 0 0-2-2.003h-8.095l9.442-13.12c.489-.653.652-1.226.652-1.843ZM75.658 9.242a2.566 2.566 0 0 0-2.577 2.574c0 1.428 1.147 2.616 2.576 2.616 1.433 0 2.578-1.188 2.578-2.616a2.565 2.565 0 0 0-2.578-2.574Zm0 8.423c-1.269 0-2.29 1.02-2.29 2.248v16.883a2.285 2.285 0 0 0 2.29 2.29 2.286 2.286 0 0 0 2.29-2.29V19.913c0-1.229-1.022-2.248-2.29-2.248Z"/>
</svg>
