<svg xmlns="http://www.w3.org/2000/svg" viewBox="0 0 56 24"><path fill="red" d="M4.186 19.45l-.072.543a.442.442 0 00.386.492h17.564c.25 0 .45-.192.457-.442v-.058l-.071-.542a.77.77 0 01.686-.843.76.76 0 01.835.671l.072.529c.136 1.171-.529 2.2-1.721 2.2H4.314c-1.185 0-1.843-1.029-1.707-2.2l.072-.529a.754.754 0 01.828-.671c.422.05.729.421.686.843"/><path fill="#1D1D1B" d="M20.372 15.386a1.442 1.442 0 001.514-1.357v-.072c-.014-.836-.779-1.378-1.629-1.378h-1.714a.72.72 0 01-.721-.722c0-.4.321-.721.721-.721h1.15c.771-.029 1.371-.5 1.407-1.229.036-.786-.636-1.371-1.457-1.371h-2.786v6.828h3.515M22.479 9.9a2.25 2.25 0 01-.672 1.614l-.043.05.058.036a2.798 2.798 0 011.435 2.343 2.878 2.878 0 01-2.814 2.914h-4.314a.747.747 0 01-.743-.764v-8.2a.76.76 0 01.743-.764h3.514a2.76 2.76 0 012.836 2.678V9.9M8.843 14.057l.021.057.022-.057c.193-.543.436-1.15.686-1.793.25-.643.514-1.342.771-1.971s.507-1.2.743-1.693c.157-.364.35-.714.571-1.036.222-.278.565-.435.922-.428h.178a.85.85 0 01.55.178c.122.1.2.243.222.4l1.093 8.479a.716.716 0 01-.186.514.75.75 0 01-.529.172.799.799 0 01-.55-.165.603.603 0 01-.257-.428 21.6 21.6 0 01-.1-.943c-.028-.35-.221-1.822-.264-2.193-.043-.371-.35-2.779-.457-3.65v-.07l-.35.735c-.114.25-.25.558-.386.908s-.286.728-.421 1.12c-.136.394-.829 2.315-.829 2.315-.064.179-.186.529-.286.864-.1.336-.207.622-.235.672a.984.984 0 01-1.322.428 1.004 1.004 0 01-.443-.435c-.028-.057-.128-.35-.235-.672-.108-.321-.222-.678-.286-.864 0 0-.679-1.936-.829-2.314-.15-.379-.285-.764-.421-1.122a14.49 14.49 0 00-.386-.907L5.5 9.43v.07c-.107.864-.414 3.264-.457 3.65-.043.386-.229 1.843-.264 2.186-.036.343-.072.657-.107.943a.617.617 0 01-.258.428.878.878 0 01-.55.165.75.75 0 01-.528-.172.716.716 0 01-.186-.514l1.08-8.472a.643.643 0 01.221-.378c.157-.129.35-.2.55-.193h.179c.357-.007.693.143.914.421.229.322.421.672.571 1.036.236.493.486 1.057.743 1.693.257.636.515 1.293.779 1.971.25.65.486 1.25.678 1.793"/><path fill="red" d="M6.693 2.007h13.293c1.25 0 1.878.943 2.014 2.179l.057.4a.78.78 0 01-.685.864.76.76 0 01-.822-.693l-.057-.386c-.057-.471-.25-.835-.736-.835H6.93c-.479 0-.679.364-.736.835l-.05.379a.762.762 0 01-.829.693.78.78 0 01-.685-.864l.057-.4C4.836 2.943 5.457 2 6.7 2"/><path fill="#1D1D1B" d="M32.593 10.372c-.143.55-.293 1.143-.45 1.793-.157.65-.314 1.235-.45 1.792a14.866 14.866 0 01-.45 1.507c-.086.308-.2.608-.343.9a.886.886 0 01-.85.422c-.15 0-.3-.029-.45-.064a.73.73 0 01-.45-.386 5.432 5.432 0 01-.343-.936c-.136-.45-.278-.993-.45-1.6-.171-.607-.3-1.243-.45-1.921-.15-.679-.293-1.307-.407-1.886a89.543 89.543 0 00-.307-1.479c-.086-.4-.129-.65-.136-.735v-.157a.51.51 0 01.2-.415.735.735 0 01.486-.157c.157 0 .314.036.45.114a.66.66 0 01.243.4l.078.45c.05.286.129.622.215 1.036.085.414.185.9.285 1.422.1.521.215 1.057.336 1.6l.35 1.564c.114.507.221.936.321 1.3.1-.343.215-.729.329-1.171.114-.443.25-.9.371-1.343.122-.443.236-.936.343-1.408.107-.47.215-.9.315-1.307.1-.407.178-.757.25-1.071.071-.314.128-.543.164-.693a.82.82 0 01.286-.45.806.806 0 011.05-.029.76.76 0 01.271.45c.121.486.236 1.043.371 1.658.136.614.272 1.228.408 1.85.135.621.292 1.235.45 1.842.157.608.3 1.13.45 1.593.1-.364.214-.792.328-1.3l.35-1.564c.122-.543.243-1.057.35-1.586.107-.528.214-.993.307-1.414.093-.421.165-.757.215-1.021.05-.265.085-.408.085-.415a.64.64 0 01.243-.393.772.772 0 01.45-.114c.179 0 .35.05.486.157.128.1.2.257.2.415v.164c0 .078-.057.321-.143.736L37.643 10a160.25 160.25 0 01-.407 1.879c-.15.671-.307 1.307-.45 1.914a15.003 15.003 0 01-.45 1.6 5.08 5.08 0 01-.343.921.813.813 0 01-.45.408c-.143.05-.293.078-.45.078h-.186c-.086-.014-.178-.028-.257-.057a1.417 1.417 0 01-.271-.143.66.66 0 01-.215-.271 7.444 7.444 0 01-.321-.95 97.87 97.87 0 01-.414-1.5c-.15-.557-.286-1.15-.45-1.757-.165-.607-.272-1.179-.393-1.707m7.95 3.564c-.15.485-.286.935-.4 1.342-.114.408-.229.75-.329 1.015a.682.682 0 01-.764.585.682.682 0 01-.586-.764.63.63 0 01.029-.2l.186-.621c.107-.35.25-.786.414-1.315.164-.528.364-1.092.571-1.721.207-.629.422-1.243.643-1.85.222-.607.45-1.179.657-1.707.172-.443.372-.872.607-1.286a.668.668 0 01.329-.343c.178-.064.364-.1.557-.093.193 0 .386.029.572.1.15.072.271.208.321.365.143.3.314.707.507 1.214s.407 1.057.621 1.65c.215.593.45 1.193.643 1.793.193.6.408 1.186.586 1.714.179.529.329.986.45 1.343.122.357.207.614.236.729a.47.47 0 01.028.2.564.564 0 01-.185.45.714.714 0 01-.529.178.556.556 0 01-.393-.114.723.723 0 01-.2-.322c-.1-.264-.221-.6-.357-1.014a99.378 99.378 0 00-.45-1.343h-3.793m3.364-1.314a64.053 64.053 0 00-.607-1.793c-.193-.536-.364-1.057-.578-1.564a6.37 6.37 0 01-.157-.393c-.058-.157-.093-.229-.1-.257a1.022 1.022 0 00-.1.243 3.433 3.433 0 01-.165.407 34.71 34.71 0 00-.585 1.564c-.193.55-.386 1.15-.6 1.793h2.892zm5.172.321c-.05-.05-.1-.107-.143-.171l-.15-.207c-.143-.2-.293-.45-.45-.736-.157-.286-.336-.593-.5-.9-.164-.307-.328-.65-.478-.979-.15-.328-.308-.635-.43-.9-.12-.264-.235-.528-.328-.735a3.064 3.064 0 01-.164-.45l-.043-.115v-.114a.63.63 0 01.186-.45.72.72 0 01.529-.186.554.554 0 01.45.15c.078.086.142.193.185.3l.15.329c.079.171.172.379.279.636.107.257.235.528.378.835.143.308.286.6.45.9l.429.836c.114.229.243.443.386.657.228-.357.435-.728.621-1.107.221-.45.45-.878.636-1.307.185-.429.378-.814.528-1.143l.265-.621a.99.99 0 01.185-.3.504.504 0 01.45-.15.691.691 0 01.529.185.588.588 0 01.186.45v.115l-.036.114-.179.45c-.085.214-.192.45-.321.736-.129.285-.264.585-.414.9-.15.314-.322.65-.486.978a10.3 10.3 0 01-.5.9c-.172.272-.322.543-.45.743a2.303 2.303 0 01-.293.35v3.143a.682.682 0 01-.186.5.685.685 0 01-.964 0 .73.73 0 01-.214-.514V12.95"/></svg>