<svg xmlns="http://www.w3.org/2000/svg" viewBox="0 0 119 32">
    
  <path fill="#253B80" d="M41.936 7.543h-6.551a.91.91 0 0 0-.9.768l-2.65 16.81a.546.546 0 0 0 .54.63h3.128a.91.91 0 0 0 .9-.769l.714-4.534a.91.91 0 0 1 .899-.77h2.074c4.315 0 6.806-2.089 7.456-6.23.293-1.812.013-3.235-.835-4.232-.931-1.095-2.583-1.673-4.775-1.673Zm.755 6.139c-.358 2.352-2.154 2.352-3.89 2.352h-.99l.694-4.393a.546.546 0 0 1 .54-.46h.453c1.183 0 2.299 0 2.876.674.343.403.449 1 .317 1.827Zm18.827-.076h-3.137a.547.547 0 0 0-.54.461l-.138.878-.22-.318c-.679-.986-2.193-1.316-3.705-1.316-3.466 0-6.427 2.627-7.004 6.313-.3 1.838.127 3.596 1.169 4.822.956 1.127 2.324 1.597 3.951 1.597 2.793 0 4.342-1.797 4.342-1.797l-.14.872a.546.546 0 0 0 .539.633h2.826a.91.91 0 0 0 .9-.77l1.695-10.744a.544.544 0 0 0-.538-.63Zm-4.373 6.11c-.302 1.793-1.725 2.997-3.54 2.997-.91 0-1.638-.292-2.106-.846-.463-.55-.64-1.334-.492-2.206.283-1.778 1.73-3.021 3.516-3.021.89 0 1.615.296 2.092.855.478.564.667 1.352.53 2.22Zm21.081-6.11h-3.152a.913.913 0 0 0-.754.4l-4.348 6.409-1.843-6.159a.913.913 0 0 0-.874-.65h-3.098a.547.547 0 0 0-.518.723l3.473 10.197-3.265 4.611a.546.546 0 0 0 .445.863h3.149a.909.909 0 0 0 .748-.391l10.486-15.145a.546.546 0 0 0-.449-.858Z"/>
  <path fill="#179BD7" d="M88.663 7.543h-6.552a.91.91 0 0 0-.898.768l-2.65 16.81a.545.545 0 0 0 .539.63h3.362c.312 0 .58-.227.628-.538l.752-4.765a.91.91 0 0 1 .899-.77h2.073c4.316 0 6.806-2.089 7.457-6.23.294-1.812.011-3.235-.836-4.232-.93-1.095-2.58-1.673-4.773-1.673Zm.756 6.139c-.357 2.352-2.153 2.352-3.89 2.352h-.988l.694-4.393a.544.544 0 0 1 .538-.46h.454c1.182 0 2.299 0 2.875.674.344.403.448 1 .317 1.827Zm18.826-.076h-3.135a.545.545 0 0 0-.539.461l-.138.878-.221-.318c-.679-.986-2.192-1.316-3.704-1.316-3.467 0-6.427 2.627-7.003 6.313-.3 1.838.125 3.596 1.167 4.822.958 1.127 2.324 1.597 3.952 1.597 2.793 0 4.342-1.797 4.342-1.797l-.14.872a.546.546 0 0 0 .54.633h2.825a.91.91 0 0 0 .899-.77l1.696-10.744a.547.547 0 0 0-.541-.63Zm-4.373 6.11c-.301 1.793-1.725 2.997-3.539 2.997-.91 0-1.64-.292-2.107-.846-.463-.55-.638-1.334-.492-2.206.284-1.778 1.729-3.021 3.515-3.021.891 0 1.615.296 2.093.855.479.564.669 1.352.53 2.22Zm8.072-11.713-2.689 17.118a.545.545 0 0 0 .538.63h2.703c.45 0 .831-.325.9-.769l2.651-16.809a.546.546 0 0 0-.538-.632h-3.027a.547.547 0 0 0-.538.462Zm-89.314.671a14.44 14.44 0 0 1-.084.48c-1.077 5.528-4.758 7.438-9.46 7.438H10.69c-.575 0-1.06.418-1.149.986l-1.226 7.779-.347 2.205a.613.613 0 0 0 .605.708h4.246c.503 0 .93-.365 1.01-.861l.041-.216.8-5.077.05-.279a1.021 1.021 0 0 1 1.01-.863h.635c4.114 0 7.335-1.672 8.276-6.509.393-2.02.19-3.707-.85-4.894a4.06 4.06 0 0 0-1.163-.897Z"/>
  <path fill="#222D65" d="M21.503 8.225a8.476 8.476 0 0 0-1.046-.232 13.288 13.288 0 0 0-2.11-.154H11.95a1.02 1.02 0 0 0-1.008.864L9.58 17.325l-.04.252c.09-.568.575-.986 1.15-.986h2.394c4.703 0 8.384-1.91 9.46-7.439.033-.163.06-.323.084-.479a5.737 5.737 0 0 0-.885-.373 7.852 7.852 0 0 0-.24-.076Z"/>
  <path fill="#253B80" d="M10.942 8.702a1.018 1.018 0 0 1 1.008-.862h6.396c.758 0 1.465.05 2.11.154a8.48 8.48 0 0 1 1.288.307c.319.105.614.23.886.373.32-2.043-.003-3.434-1.107-4.694C20.306 2.594 18.11 2 15.3 2H7.14c-.575 0-1.065.418-1.154.986l-3.399 21.56a.701.701 0 0 0 .692.81h5.038l1.265-8.03 1.36-8.624Z"/>
</svg>
