<svg xmlns="http://www.w3.org/2000/svg" viewBox="0 0 86 24"><path fill="#81BC00" d="M49.365 7a4.788 4.788 0 00-4.829 4.744v.119c-.024 2.656 2.083 4.838 4.734 4.862h.095c2.65.024 4.804-2.111 4.828-4.768v-.095C54.24 9.207 52.11 7.049 49.483 7h-.118zm0 8.065c-1.728 0-3.125-1.423-3.125-3.179v-.023a3.146 3.146 0 013.054-3.226 3.126 3.126 0 013.219 3.036v.166c0 1.779-1.397 3.202-3.148 3.226 0 0 .023 0 0 0zM83.33 7l-3.692 9.037-.923 2.23-.497 1.233h-1.823l1.42-3.463L74.052 7h1.917l2.77 6.784L81.507 7h1.822zM59.52 8.613c-1.704 0-2.58.925-2.58 2.728v5.36h-1.752v-5.479c.024-.972.19-1.636.568-2.277.474-.711 1.563-1.921 3.74-1.921 2.178 0 3.29 1.21 3.74 1.921.402.688.615 1.494.568 2.277v5.503h-1.752V11.34c.048-1.827-.804-2.728-2.532-2.728zm7.172 2.372a2.903 2.903 0 013.455-2.253 2.891 2.891 0 012.249 2.253H66.69zm7.55.759a4.723 4.723 0 00-4.686-4.72c-2.651 0-4.71 2.135-4.71 4.839a5 5 0 001.372 3.415 4.51 4.51 0 003.314 1.447c1.42 0 3.432-.688 4.379-2.633 0-.024.023-.047.023-.071h-1.917v.024a3.289 3.289 0 01-2.414 1.043 3.064 3.064 0 01-2.959-2.538h7.575c0-.213.023-.569.023-.806zM12.89 22c5.511 0 9.98-4.477 9.98-10S18.4 2 12.89 2 2.91 6.477 2.91 12s4.469 10 9.98 10z"/><path fill="#fff" d="M18.143 9.86L16.4 12.298l1.715 2.575H16.41l-.886-1.333-.81 1.333h-1.629l1.663-2.5-1.663-2.52h1.705l.865 1.314.863-1.309 1.625.002zM10.066 15a2.76 2.76 0 01-1.614-.443 2.117 2.117 0 01-.848-1.194l1.33-.391c.075.227.223.422.422.555.215.14.468.21.725.201a.982.982 0 00.633-.21.705.705 0 00.261-.583.667.667 0 00-.279-.575 1.2 1.2 0 00-.715-.2h-.732V11h.704c.235.014.468-.049.665-.178a.693.693 0 00.234-.589.626.626 0 00-.23-.51.856.856 0 00-.561-.186c-.444 0-.743.232-.897.696l-1.387-.391c.052-.208.139-.406.258-.584a2.08 2.08 0 011.146-.86c.29-.09.594-.135.898-.131a2.634 2.634 0 011.637.478c.41.301.644.786.627 1.295.01.304-.068.605-.225.865-.15.232-.373.408-.633.5v.008c.284.1.527.291.693.544.195.292.293.637.283.988a1.852 1.852 0 01-.665 1.478c-.438.385-1.015.577-1.73.577z"/><path fill="#81BC00" d="M32.89 22c5.511 0 9.98-4.477 9.98-10S38.4 2 32.89 2s-9.98 4.477-9.98 10 4.469 10 9.98 10z"/><path fill="#fff" d="M38.143 9.86L36.4 12.298l1.715 2.575H36.41l-.886-1.333-.81 1.333h-1.629l1.663-2.5-1.663-2.52h1.705l.865 1.314.863-1.309 1.625.002zm-6.209 5.148h-1.426v-1.416h-2.9V12.39l1.678-4.122h1.581l-1.63 4.035h1.271v-1.455h1.426v1.455h.718v1.29h-.718v1.416z"/></svg>