<svg xmlns="http://www.w3.org/2000/svg" viewBox="0 0 72 24">

  <path fill="#05C0C7" fill-rule="evenodd" d="M13.563 14.869a1.627 1.627 0 0 0-2.272.36l-1.914 2.634a1.627 1.627 0 1 0 2.633 1.912l1.915-2.632a1.63 1.63 0 0 0-.362-2.274Zm2.993 4.186a1.628 1.628 0 1 0-1.911 2.637 1.628 1.628 0 0 0 1.911-2.637ZM4.943 4.583A1.628 1.628 0 1 0 2.311 2.67a1.628 1.628 0 0 0 2.632 1.914Zm9.453.835a1.625 1.625 0 0 0-2.272.36L4.47 16.31a1.627 1.627 0 1 0 2.632 1.913L14.757 7.69a1.624 1.624 0 0 0-.361-2.272ZM5.664 9.131a1.628 1.628 0 0 0 2.274-.362L9.85 6.137a1.626 1.626 0 0 0-.36-2.273 1.624 1.624 0 0 0-2.272.36L5.304 6.857a1.628 1.628 0 0 0 .36 2.274Zm63.62 3.89c0-2.136-.99-3.902-3.701-3.902-1.21 0-2.077.358-2.667.943-.59-.585-1.457-.943-2.674-.943-2.694 0-3.7 1.767-3.7 3.903l-.001 4.794c0 .577.464 1.041 1.022 1.041.576 0 1.04-.464 1.04-1.04v-4.795c0-1.264.395-2.044 1.64-2.044 1.263 0 1.638.78 1.638 2.044v4.794c0 .577.464 1.041 1.023 1.041.576 0 1.04-.464 1.04-1.04v-4.795c0-1.264.393-2.044 1.639-2.044 1.263 0 1.638.78 1.638 2.044v4.794c0 .577.464 1.041 1.023 1.041.576 0 1.04-.464 1.04-1.04v-4.795Zm-15.769-3.9c-.576 0-1.04.463-1.04 1.04v4.794c0 1.263-.559 2.043-1.804 2.043-1.263 0-1.802-.78-1.802-2.043v-4.794c0-.577-.464-1.04-1.023-1.04-.576 0-1.04.463-1.04 1.04v4.794c0 2.137 1.152 3.902 3.865 3.902 2.694 0 3.866-1.765 3.866-3.902v-4.794c0-.577-.464-1.04-1.022-1.04Zm-21.22 3.642c0-2.157-1.14-3.532-3.761-3.532h-1.908V6.332c0-.577-.464-1.04-1.023-1.04-.576 0-1.04.463-1.04 1.04v8.623c0 2.137 1.152 3.902 3.865 3.902 2.694 0 3.867-1.765 3.867-3.902v-2.192Zm-2.063 2.192c0 1.263-.559 2.043-1.804 2.043-1.263 0-1.802-.78-1.802-2.043v-3.922h1.89c1.525 0 1.716.837 1.716 1.767v2.155Zm15.175-4.833c0-.648-.52-.89-.965-.89h-5.147a.897.897 0 0 0-.91.89.91.91 0 0 0 .91.911h3.381l-4.384 6.096c-.13.185-.203.409-.203.613 0 .63.52 1.003.946 1.003h5.463c.5 0 .91-.41.91-.911a.9.9 0 0 0-.91-.91H40.82l4.292-5.964c.222-.297.296-.557.296-.838Zm-10.145-4.83c-.65 0-1.171.52-1.171 1.17 0 .649.52 1.189 1.17 1.189.652 0 1.172-.54 1.172-1.189 0-.65-.52-1.17-1.171-1.17Zm0 3.828c-.577 0-1.041.464-1.041 1.022v7.674c0 .577.464 1.041 1.04 1.041a1.04 1.04 0 0 0 1.042-1.04v-7.675c0-.558-.465-1.022-1.041-1.022Z"/>
</svg>
