<svg id="Logotypes_Payment_ApplePay_24px" xmlns="http://www.w3.org/2000/svg" viewBox="0 0 36 24"><path d="M30.683 2H5.038a55.17 55.17 0 00-.59.005 3.921 3.921 0 00-.588.051c-.197.036-.38.094-.558.184a1.875 1.875 0 00-.821.822c-.091.178-.15.361-.184.558a3.898 3.898 0 00-.052.588c-.003.09-.004.18-.004.27v15.044c0 .09.001.18.004.27.005.196.017.394.052.588.035.197.093.38.184.558a1.869 1.869 0 00.82.822c.18.09.362.148.56.184.193.034.39.046.587.052l.27.003.32.001h25.965l.27-.005a3.96 3.96 0 00.588-.051c.197-.035.38-.093.558-.184a1.863 1.863 0 00.822-.822c.09-.178.148-.361.183-.558a3.91 3.91 0 00.052-.587c.002-.09.004-.18.004-.27l.001-.32V4.477l-.005-.27a3.91 3.91 0 00-.052-.588 1.881 1.881 0 00-1.563-1.564 3.932 3.932 0 00-.587-.051 8.103 8.103 0 00-.27-.004h-.321z"/><path fill="#fff" d="M30.683 2.667h.315l.257.004c.15.005.324.013.487.042.142.025.26.064.375.122a1.208 1.208 0 01.53.53c.057.113.095.231.12.374.03.161.038.337.042.487.002.085.004.17.004.257V19.52c0 .085-.002.17-.004.255-.004.15-.012.325-.042.489a1.29 1.29 0 01-.121.372 1.206 1.206 0 01-.53.53 1.306 1.306 0 01-.372.122c-.167.03-.349.038-.486.041l-.26.004H4.72c-.086 0-.172-.002-.255-.003a3.406 3.406 0 01-.488-.042 1.31 1.31 0 01-.374-.123 1.194 1.194 0 01-.529-.529 1.308 1.308 0 01-.122-.374 3.298 3.298 0 01-.042-.487 12.44 12.44 0 01-.003-.256V4.482l.003-.256c.005-.15.013-.324.042-.488.025-.141.064-.26.122-.374a1.203 1.203 0 01.53-.53c.113-.057.232-.096.373-.121.163-.03.338-.038.488-.042l.256-.003.316-.001h25.646z"/><path d="M10.769 8.727c.267-.334.449-.784.4-1.243-.39.02-.869.259-1.145.594-.249.286-.469.754-.411 1.194.44.038.878-.22 1.156-.545zm.396.631c-.639-.038-1.181.362-1.486.362-.305 0-.772-.343-1.277-.334a1.882 1.882 0 00-1.6.973c-.686 1.182-.181 2.935.486 3.898.324.477.714 1.001 1.228.982.486-.019.677-.315 1.268-.315.59 0 .761.315 1.276.306.534-.01.867-.477 1.19-.954.373-.543.525-1.067.534-1.096-.01-.01-1.029-.4-1.038-1.573-.01-.981.8-1.448.838-1.477-.457-.677-1.171-.753-1.42-.772zm5.559-1.328c1.387 0 2.353.956 2.353 2.348 0 1.397-.986 2.359-2.388 2.359h-1.536v2.443h-1.11V8.03h2.68zm-1.571 3.775h1.273c.967 0 1.517-.52 1.517-1.422 0-.902-.55-1.417-1.512-1.417h-1.278v2.84zm4.214 1.893c0-.911.699-1.471 1.938-1.54l1.427-.085v-.401c0-.58-.392-.927-1.046-.927-.62 0-1.006.298-1.1.763h-1.01c.059-.941.861-1.635 2.15-1.635 1.264 0 2.071.669 2.071 1.715v3.592h-1.026v-.857h-.024c-.302.58-.962.946-1.645.946-1.021 0-1.735-.634-1.735-1.57zm3.365-.47v-.412l-1.284.08c-.639.044-1 .327-1 .773 0 .456.376.753.95.753.749 0 1.334-.515 1.334-1.194zm2.033 3.869v-.867c.08.02.258.02.347.02.496 0 .763-.208.927-.743 0-.01.094-.317.094-.322L24.25 9.967h1.16l1.318 4.242h.02l1.317-4.242h1.13l-1.952 5.485c-.446 1.264-.961 1.67-2.042 1.67a4.09 4.09 0 01-.436-.025z"/></svg>