<svg id="Logotypes_Payment_MB--Way_32px" xmlns="http://www.w3.org/2000/svg" viewBox="0 0 76 32"><path fill="red" d="M4.706 26.43l-.1.76c-.04.34.2.65.54.69h24.59c.35 0 .63-.27.64-.62v-.08l-.1-.76c-.06-.59.37-1.12.96-1.18.58-.06 1.11.36 1.17.94l.1.74c.19 1.64-.74 3.08-2.41 3.08H4.886c-1.66 0-2.58-1.44-2.39-3.08l.1-.74c.06-.58.58-1 1.16-.94.59.07 1.02.59.96 1.18"/><path fill="#1D1D1B" d="M27.366 20.74a2.02 2.02 0 002.12-1.9v-.1c-.02-1.17-1.09-1.93-2.28-1.93h-2.4c-.56 0-1.01-.45-1.01-1.01s.45-1.01 1.01-1.01h1.61c1.08-.04 1.92-.7 1.97-1.72.05-1.1-.89-1.92-2.04-1.92h-3.9v9.56h4.92m2.95-7.65c0 .85-.33 1.66-.94 2.26l-.06.07.08.05c1.2.67 1.96 1.91 2.01 3.28a4.03 4.03 0 01-3.94 4.08h-6.04c-.58 0-1.05-.48-1.04-1.07V10.25c0-.58.46-1.06 1.04-1.07h4.92a3.864 3.864 0 013.97 3.75v.13zm-19.09 5.82l.03.08.03-.08c.27-.76.61-1.61.96-2.51.35-.9.72-1.88 1.08-2.76.36-.88.71-1.68 1.04-2.37.22-.51.49-1 .8-1.45.31-.39.79-.61 1.29-.6h.25c.28-.01.55.08.77.25.17.14.28.34.31.56l1.53 11.87c.01.27-.08.52-.26.72-.21.17-.47.26-.74.24-.28.02-.55-.06-.77-.23a.844.844 0 01-.36-.6c-.05-.4-.1-.83-.14-1.32-.04-.49-.31-2.55-.37-3.07s-.49-3.89-.64-5.11v-.1l-.49 1.03c-.16.35-.35.78-.54 1.27-.19.49-.4 1.02-.59 1.57-.19.55-1.16 3.24-1.16 3.24-.09.25-.26.74-.4 1.21s-.29.87-.33.94c-.35.68-1.17.94-1.85.6-.26-.13-.48-.34-.62-.61-.04-.08-.18-.49-.33-.94-.15-.45-.31-.95-.4-1.21 0 0-.95-2.71-1.16-3.24-.21-.53-.4-1.07-.59-1.57-.19-.5-.38-.92-.54-1.27l-.49-1.02v.1c-.15 1.21-.58 4.57-.64 5.11-.06.54-.32 2.58-.37 3.06a65 65 0 01-.15 1.32c-.03.24-.16.46-.36.6-.22.16-.49.24-.77.23-.27.02-.53-.07-.74-.24-.18-.2-.27-.45-.26-.72L4.766 10a.9.9 0 01.31-.53c.22-.18.49-.28.77-.27h.25c.5-.01.97.2 1.28.59.32.45.59.94.8 1.45.33.69.68 1.48 1.04 2.37.36.89.72 1.81 1.09 2.76.35.91.68 1.75.95 2.51"/><path fill="red" d="M8.216 2.01h18.61c1.75 0 2.63 1.32 2.82 3.05l.08.56c.07.6-.36 1.14-.96 1.21-.59.05-1.1-.39-1.15-.97l-.08-.54c-.08-.66-.35-1.17-1.03-1.17H8.546c-.67 0-.95.51-1.03 1.17l-.07.53c-.05.59-.57 1.02-1.16.97-.6-.07-1.03-.61-.96-1.21l.08-.56C5.616 3.32 6.486 2 8.226 2"/><path fill="#1D1D1B" d="M44.476 13.72c-.2.77-.41 1.6-.63 2.51-.22.91-.44 1.73-.63 2.51-.19.78-.41 1.5-.63 2.11-.12.43-.28.85-.48 1.26-.25.41-.71.64-1.19.59-.21 0-.42-.04-.63-.09-.28-.08-.5-.28-.63-.54-.2-.42-.36-.86-.48-1.31-.19-.63-.39-1.39-.63-2.24-.24-.85-.42-1.74-.63-2.69-.21-.95-.41-1.83-.57-2.64-.16-.81-.31-1.51-.43-2.07-.12-.56-.18-.91-.19-1.03v-.22c0-.23.1-.45.28-.58.19-.15.43-.23.68-.22.22 0 .44.05.63.16.18.14.3.34.34.56l.11.63c.07.4.18.87.3 1.45s.26 1.26.4 1.99.3 1.48.47 2.24c.17.76.33 1.48.49 2.19.16.71.31 1.31.45 1.82.14-.48.3-1.02.46-1.64.16-.62.35-1.26.52-1.88.17-.62.33-1.31.48-1.97.15-.66.3-1.26.44-1.83.14-.57.25-1.06.35-1.5.1-.44.18-.76.23-.97.06-.25.2-.47.4-.63a1.129 1.129 0 011.47-.04c.2.16.33.38.38.63.17.68.33 1.46.52 2.32.19.86.38 1.72.57 2.59.19.87.41 1.73.63 2.58.22.85.42 1.58.63 2.23.14-.51.3-1.11.46-1.82.16-.71.32-1.43.49-2.19.17-.76.34-1.48.49-2.22.15-.74.3-1.39.43-1.98.13-.59.23-1.06.3-1.43.07-.37.12-.57.12-.58.04-.22.16-.41.34-.55.19-.12.41-.17.63-.16.25 0 .49.07.68.22.18.14.28.36.28.58v.23c0 .11-.08.45-.2 1.03-.12.58-.26 1.26-.43 2.07-.17.81-.36 1.69-.57 2.63-.21.94-.43 1.83-.63 2.68-.2.85-.4 1.6-.63 2.24-.12.45-.28.88-.48 1.29-.13.26-.35.47-.63.57-.2.07-.41.11-.63.11h-.26c-.12-.02-.25-.04-.36-.08-.13-.05-.26-.12-.38-.2a.925.925 0 01-.3-.38c-.18-.43-.33-.88-.45-1.33-.18-.63-.37-1.32-.58-2.1-.21-.78-.4-1.61-.63-2.46-.23-.85-.38-1.65-.55-2.39m11.13 4.99c-.21.68-.4 1.31-.56 1.88-.16.57-.32 1.05-.46 1.42-.07.52-.55.89-1.07.82a.956.956 0 01-.82-1.07c0-.09.01-.19.04-.28l.26-.87c.15-.49.35-1.1.58-1.84.23-.74.51-1.53.8-2.41.29-.88.59-1.74.9-2.59.31-.85.63-1.65.92-2.39.24-.62.52-1.22.85-1.8.09-.21.25-.38.46-.48.25-.09.51-.14.78-.13.27 0 .54.04.8.14.21.1.38.29.45.51.2.42.44.99.71 1.7.27.71.57 1.48.87 2.31.3.83.63 1.67.9 2.51.27.84.57 1.66.82 2.4s.46 1.38.63 1.88c.17.5.29.86.33 1.02.03.09.05.18.04.28a.79.79 0 01-.26.63 1 1 0 01-.74.25c-.2.02-.39-.04-.55-.16a1.01 1.01 0 01-.28-.45c-.14-.37-.31-.84-.5-1.42s-.4-1.21-.63-1.88h-5.31m4.71-1.84c-.3-.92-.58-1.76-.85-2.51-.27-.75-.51-1.48-.81-2.19a8.95 8.95 0 01-.22-.55c-.08-.22-.13-.32-.14-.36-.06.11-.11.22-.14.34-.08.23-.15.41-.23.57-.28.69-.55 1.42-.82 2.19-.27.77-.54 1.61-.84 2.51h4.05zm7.24.45c-.07-.07-.14-.15-.2-.24l-.21-.29c-.2-.28-.41-.63-.63-1.03-.22-.4-.47-.83-.7-1.26-.23-.43-.46-.91-.67-1.37-.21-.46-.43-.89-.6-1.26-.17-.37-.33-.74-.46-1.03-.09-.2-.17-.41-.23-.63-.02-.05-.04-.11-.06-.16v-.16c0-.24.09-.46.26-.63.2-.18.47-.28.74-.26.23-.03.46.05.63.21.11.12.2.27.26.42l.21.46c.11.24.24.53.39.89.15.36.33.74.53 1.17.2.43.4.84.63 1.26l.6 1.17c.16.32.34.62.54.92.32-.5.61-1.02.87-1.55.31-.63.63-1.23.89-1.83.26-.6.53-1.14.74-1.6l.37-.87c.06-.15.15-.3.26-.42.16-.17.4-.25.63-.21.27-.02.54.07.74.26.17.16.27.39.26.63v.16l-.05.16-.25.63c-.12.3-.27.63-.45 1.03s-.37.82-.58 1.26c-.21.44-.45.91-.68 1.37-.23.46-.46.88-.7 1.26-.24.38-.45.76-.63 1.04-.12.18-.26.34-.41.49v4.4c.01.26-.08.51-.26.7a.96.96 0 01-1.35 0c-.19-.19-.3-.45-.3-.72v-4.4"/></svg>