<svg xmlns="http://www.w3.org/2000/svg" viewBox="0 0 314 65"><path fill="#1D1D1B" d="M130.046 20.533c0-.69.275-1.352.766-1.84a2.62 2.62 0 013.696 0c.49.488.765 1.15.765 1.84v14.05a11.65 11.65 0 01-3.43 8.237 11.757 11.757 0 01-8.27 3.426 11.758 11.758 0 01-8.274-3.415 11.654 11.654 0 01-3.441-8.232v-14.05a2.592 2.592 0 01.689-1.968 2.604 2.604 0 011.917-.834 2.621 2.621 0 011.918.834 2.601 2.601 0 01.688 1.967v14.05a6.523 6.523 0 001.928 4.566 6.58 6.58 0 004.591 1.909 6.548 6.548 0 004.595-1.91 6.49 6.49 0 001.908-4.58l-.046-14.05zm24.722 20.524c.694 0 1.358.274 1.848.762a2.593 2.593 0 010 3.68 2.618 2.618 0 01-1.848.762h-7.256a9.814 9.814 0 01-6.925-2.855 9.727 9.727 0 01-2.869-6.894v-15.98c0-.685.274-1.343.761-1.828a2.604 2.604 0 013.675 0c.487.485.761 1.143.761 1.829V36.48c0 1.218.486 2.386 1.351 3.247a4.622 4.622 0 003.261 1.345h7.241v-.016zm-43.924 2.311a2.599 2.599 0 01-1.26 2.714 2.617 2.617 0 01-2.059.244 2.607 2.607 0 01-1.863-2.345l-2.229-18.719-7.98 18.367a2.608 2.608 0 01-1.43 1.386 2.624 2.624 0 01-1.998-.024 2.562 2.562 0 01-1.353-1.362l-7.979-18.367-2.245 18.719a2.592 2.592 0 01-.93 1.845 2.618 2.618 0 01-2.991.256 2.608 2.608 0 01-1.234-1.66 2.591 2.591 0 01-.026-1.053l2.63-21.734a4.168 4.168 0 01.737-1.902c.4-.563.933-1.02 1.553-1.328.163-.088.333-.165.508-.23h.2a3.36 3.36 0 01.768-.168 4.46 4.46 0 013.644 1.148 3.9 3.9 0 01.522.597c.114.156.217.32.308.49.057.094.109.19.154.29l6.764 15.612L99.82 20.41a4.285 4.285 0 011.237-1.603 4.314 4.314 0 011.838-.861c.254-.052.511-.088.769-.107h.799a4.409 4.409 0 013.26 2.066c.145.236.264.488.353.75.064.163.111.332.139.505.007.112.007.225 0 .337l2.629 21.871zm55.301.292c0 .69-.275 1.351-.766 1.84a2.617 2.617 0 01-3.696 0 2.596 2.596 0 01-.765-1.84V23.134h-7.426a2.62 2.62 0 01-1.848-.763 2.597 2.597 0 01-.766-1.84 2.6 2.6 0 01.766-1.84 2.62 2.62 0 011.848-.761h20.079a2.62 2.62 0 011.848.762 2.596 2.596 0 010 3.68 2.62 2.62 0 01-1.848.762h-7.426v20.524zm16.297 0c0 .69-.275 1.351-.766 1.84a2.62 2.62 0 01-3.696 0 2.596 2.596 0 01-.765-1.84V20.532c0-.69.275-1.352.765-1.84a2.62 2.62 0 013.696 0c.491.488.766 1.15.766 1.84v23.126zm53.518-.291a2.596 2.596 0 01-.595 1.831 2.625 2.625 0 01-3.567.432 2.601 2.601 0 01-1.019-1.636l-.922-7.346h-8.979a2.624 2.624 0 01-1.976-.686 2.603 2.603 0 01-.838-1.909 2.595 2.595 0 01.838-1.909 2.613 2.613 0 011.976-.685h8.395l-.246-1.913v-.184a10.28 10.28 0 00-.293-1.331 8.57 8.57 0 00-.538-1.363 5.914 5.914 0 00-2.133-2.516 5.956 5.956 0 00-3.155-.988 6.188 6.188 0 00-1.323.153c-.406.1-.798.25-1.168.443a7.291 7.291 0 00-2.538 2.443 7.238 7.238 0 00-1.09 3.343l-1.63 14.448a2.572 2.572 0 01-.958 1.735 2.604 2.604 0 01-4.12-1.296 2.588 2.588 0 01-.088-1.005l1.63-14.448a12.392 12.392 0 011.976-5.735 12.458 12.458 0 014.466-4.122 10.78 10.78 0 012.306-.842c.832-.193 1.683-.29 2.537-.29a11.03 11.03 0 015.901 1.748 10.954 10.954 0 014.03 4.634c.357.71.655 1.446.892 2.204.2.697.349 1.408.446 2.127a.591.591 0 010 .23l1.783 14.433zm7.98.291a2.609 2.609 0 01-.689 1.967 2.606 2.606 0 01-1.917.834 2.628 2.628 0 01-1.918-.834 2.586 2.586 0 01-.688-1.968V22.232a2.059 2.059 0 010-.444 3.75 3.75 0 01.2-.842l.215-.46a3.745 3.745 0 012.045-1.698l.353-.092h.969a3.7 3.7 0 012.752 1.408l13.837 17.647V20.533c0-.69.275-1.352.765-1.84a2.621 2.621 0 013.697 0c.49.488.765 1.15.765 1.84V41.96a3.633 3.633 0 01-.363 1.57c-.237.49-.58.92-1.005 1.262a3.335 3.335 0 01-.861.52l-.215.092a3.692 3.692 0 01-2.799-.153l-.338-.168a3.12 3.12 0 01-.507-.398 3.533 3.533 0 01-.338-.337l-.093-.107-13.867-17.709V43.66zm40.773-2.602a2.62 2.62 0 011.848.762 2.596 2.596 0 010 3.68 2.62 2.62 0 01-1.848.761h-7.688a10.307 10.307 0 01-7.272-2.999 10.216 10.216 0 01-3.013-7.24v-7.821a10.246 10.246 0 013.021-7.231 10.34 10.34 0 017.264-3.008h7.688a2.62 2.62 0 011.848.762 2.596 2.596 0 010 3.68 2.62 2.62 0 01-1.848.762h-7.688a5.13 5.13 0 00-3.597 1.53 5.024 5.024 0 00-1.538 3.566v7.821a5.084 5.084 0 001.5 3.574 5.13 5.13 0 003.589 1.492h7.687l.047-.091zm15.113-17.938a7.118 7.118 0 00-4.935 1.958 6.354 6.354 0 00-2.014 4.592v4.852a6.342 6.342 0 001.998 4.592 7.122 7.122 0 004.935 1.959 7.122 7.122 0 004.936-1.96 6.366 6.366 0 002.014-4.591V29.67a6.395 6.395 0 00-1.999-4.592 7.198 7.198 0 00-4.951-1.959m0-5.188a12.332 12.332 0 018.549 3.398 11.495 11.495 0 013.613 8.326v4.852a11.495 11.495 0 01-3.613 8.326 12.332 12.332 0 01-8.549 3.398 12.332 12.332 0 01-8.548-3.398 11.53 11.53 0 01-3.597-8.326v-4.852a11.53 11.53 0 013.597-8.326 12.332 12.332 0 018.548-3.398zm-109.973 5.204v17.922h10.086a3.293 3.293 0 002.321-.96 3.26 3.26 0 00.954-2.315 3.241 3.241 0 00-.861-2.204l-.108-.092a3.217 3.217 0 00-2.306-.98h-3.475a2.62 2.62 0 01-1.848-.761 2.596 2.596 0 010-3.68 2.62 2.62 0 011.848-.762h1.184a3.22 3.22 0 001.968-.903 3.06 3.06 0 00.922-2.189c0-.812-.324-1.59-.9-2.164a3.083 3.083 0 00-2.174-.897h-7.611v-.015zm-5.227-2.495a2.499 2.499 0 01.215-1.026c.145-.334.348-.64.6-.902a2.68 2.68 0 011.722-.735h10.224c2.206 0 4.321.872 5.881 2.425a8.26 8.26 0 012.436 5.855 8.349 8.349 0 01-1.276 4.408 8.371 8.371 0 011.538 1.163l.169.184a8.397 8.397 0 012.321 5.8 8.443 8.443 0 01-2.49 5.97 8.522 8.522 0 01-5.996 2.48h-12.73a2.622 2.622 0 01-1.849-.763 2.596 2.596 0 01-.765-1.84V20.64z"/><path fill="#3D73B9" fill-rule="evenodd" d="M59.143 62.002c5.916 0 5.978-6.263 5.374-9.353-.33-2.08-3.878-2.047-4.268 0v2.41a2.005 2.005 0 01-.592 1.418 2.02 2.02 0 01-1.423.588H8.531a2.023 2.023 0 01-1.423-.588 2.005 2.005 0 01-.592-1.417v-2.411c-.39-2.047-3.939-2.08-4.268 0-.604 3.09-.542 9.353 5.374 9.353h51.52zm-4.28-60c2.808 0 5.106 2.423 5.106 5.383v2.57c0 3.635-4.934 3.619-4.934.025v-1.4c0-.434-.173-.85-.482-1.158a1.648 1.648 0 00-1.163-.48H13.334c-.436 0-.855.173-1.163.48a1.634 1.634 0 00-.482 1.158v1.375c0 3.615-4.712 3.59-4.712.078V7.39c.012-2.96 2.307-5.387 5.115-5.387h42.77z"/><path fill="#1D1D1B" fill-rule="evenodd" d="M58.963 31.56a7.894 7.894 0 013.37 2.846 7.843 7.843 0 011.309 4.203c0 4.33-3.8 7.875-8.442 7.875H42.178a2.156 2.156 0 01-1.527-.572 2.137 2.137 0 01-.685-1.474V19.762a2.165 2.165 0 01.64-1.527c.408-.405.96-.633 1.535-.634h10.843a8.305 8.305 0 014.574 1.36 8.248 8.248 0 013.059 3.648 8.205 8.205 0 01-1.654 8.95zm-9.717-2.006h4.133v-.045a3.956 3.956 0 002.384-1.322 3.93 3.93 0 00.955-2.546 3.917 3.917 0 00-1.155-2.764 3.952 3.952 0 00-2.776-1.15H44.46v20.467h10.554a4.078 4.078 0 002.956-1.137 4.045 4.045 0 001.236-2.905 4.03 4.03 0 00-1.236-2.905 4.065 4.065 0 00-2.956-1.137h-5.769a2.293 2.293 0 01-1.613-.665 2.271 2.271 0 01-.669-1.607 2.263 2.263 0 01.669-1.606 2.285 2.285 0 011.613-.666"/><path fill="#1D1D1B" d="M37.898 44.024a2.592 2.592 0 01-.523 1.97 2.613 2.613 0 01-1.79.991 2.627 2.627 0 01-1.957-.595 2.606 2.606 0 01-.927-1.818l-2.15-19.61-7.57 19.177v.233a2.51 2.51 0 01-.654.745l-.041.033c-.138.123-.29.23-.453.319l-.049.024-.045.025h-.26a2.5 2.5 0 01-.764.143h-.189a2.515 2.515 0 01-.855-.176h-.214l-.045-.024-.041-.025h-.025a2.467 2.467 0 01-.411-.274l-.087-.078-.065-.061-.157-.041-.078-.086a2.465 2.465 0 01-.275-.41v-.024l-.025-.04-.025-.046v-.192l-7.71-19.223-2.141 19.611a2.596 2.596 0 01-.956 1.748 2.619 2.619 0 01-3.672-.388 2.591 2.591 0 01-.565-1.908l2.524-23.12a4.32 4.32 0 011.837-3.067 4.345 4.345 0 011.897-.73h.14a4.29 4.29 0 01.661 0 4.295 4.295 0 012.635 1.036c.53.455.94 1.032 1.193 1.681l6.472 16.284 6.46-16.337a4.28 4.28 0 011.507-1.926 4.31 4.31 0 012.32-.792c.221-.016.442-.016.663 0h.14a4.33 4.33 0 013.248 2.243 4.16 4.16 0 01.485 1.573l2.537 23.155z"/></svg>