<svg id="Logotypes_Payment_GooglePay_48px" xmlns="http://www.w3.org/2000/svg" viewBox="0 0 87 48"><path fill="#fff" d="M62.76 2H24.04c-12.1 0-22 9.9-22 22s9.9 22 22 22h38.72c12.1 0 22-9.9 22-22s-9.9-22-22-22z"/><path fill="#3C4043" d="M62.76 3.782c2.716 0 5.356.539 7.842 1.595a20.394 20.394 0 016.435 4.345 20.271 20.271 0 014.345 6.435A19.958 19.958 0 0182.977 24c0 2.717-.539 5.357-1.595 7.843a20.394 20.394 0 01-4.345 6.435 20.271 20.271 0 01-6.435 4.345 19.958 19.958 0 01-7.843 1.595H24.04c-2.717 0-5.357-.539-7.843-1.595a20.395 20.395 0 01-6.435-4.345 20.271 20.271 0 01-4.345-6.435A19.958 19.958 0 013.821 24c0-2.717.54-5.357 1.595-7.843a20.394 20.394 0 014.345-6.435 20.271 20.271 0 016.435-4.345 19.958 19.958 0 017.843-1.595h38.72zm0-1.782H24.04c-12.1 0-22 9.9-22 22s9.9 22 22 22h38.72c12.1 0 22-9.9 22-22s-9.9-22-22-22z"/><path fill="#3C4043" d="M41.485 25.562v6.655h-2.112V15.783h5.6c1.418 0 2.628.473 3.618 1.42 1.012.945 1.518 2.1 1.518 3.464 0 1.397-.506 2.552-1.518 3.487-.979.935-2.189 1.397-3.619 1.397h-3.487v.011zm0-7.755v5.731h3.531c.836 0 1.54-.286 2.09-.847.561-.56.847-1.243.847-2.013 0-.759-.286-1.43-.847-1.99-.55-.584-1.243-.87-2.09-.87h-3.531v-.01zm14.145 2.795c1.563 0 2.795.418 3.697 1.254.902.836 1.353 1.98 1.353 3.432v6.93h-2.013v-1.562h-.088c-.87 1.287-2.035 1.925-3.487 1.925-1.243 0-2.277-.363-3.113-1.1-.836-.737-1.254-1.65-1.254-2.75 0-1.166.44-2.09 1.32-2.772.88-.693 2.057-1.034 3.52-1.034 1.254 0 2.288.23 3.09.693v-.484c0-.737-.285-1.353-.868-1.87a2.981 2.981 0 00-2.046-.77c-1.177 0-2.112.495-2.794 1.496l-1.86-1.166c1.024-1.485 2.542-2.222 4.544-2.222zm-2.727 8.162c0 .55.23 1.012.704 1.375.462.363 1.012.55 1.639.55.89 0 1.683-.33 2.376-.99.693-.66 1.045-1.43 1.045-2.321-.66-.517-1.573-.781-2.75-.781-.858 0-1.573.209-2.145.616-.583.429-.87.946-.87 1.55zm19.261-7.8l-7.04 16.192h-2.178l2.618-5.665-4.642-10.527h2.299l3.344 8.074h.044l3.256-8.074h2.299z"/><path fill="#4285F4" d="M33.086 24.22c0-.688-.062-1.347-.176-1.98h-8.853v3.63h5.098a4.367 4.367 0 01-1.892 2.924v2.355h3.035c1.772-1.64 2.788-4.064 2.788-6.929z"/><path fill="#34A853" d="M27.264 28.794c-.845.57-1.933.903-3.206.903-2.458 0-4.544-1.656-5.29-3.89h-3.131v2.43a9.424 9.424 0 008.421 5.19c2.546 0 4.684-.838 6.24-2.279l-3.034-2.354z"/><path fill="#FABB05" d="M18.473 24.005c0-.627.104-1.233.294-1.803v-2.429h-3.13a9.374 9.374 0 00-1.002 4.232c0 1.523.362 2.96 1.002 4.232l3.13-2.429a5.682 5.682 0 01-.294-1.803z"/><path fill="#E94235" d="M24.058 18.313c1.39 0 2.634.479 3.616 1.414l2.69-2.688c-1.634-1.521-3.764-2.455-6.306-2.455a9.425 9.425 0 00-8.421 5.19l3.13 2.429c.747-2.233 2.833-3.89 5.291-3.89z"/></svg>