<svg xmlns="http://www.w3.org/2000/svg" viewBox="0 0 207 64">

  <path fill="#05C0C7" fill-rule="evenodd" d="M37.195 40.606a4.88 4.88 0 0 0-6.816 1.082l-5.74 7.902a4.881 4.881 0 1 0 7.898 5.736l5.744-7.898a4.887 4.887 0 0 0-1.086-6.822Zm8.98 12.56a4.883 4.883 0 0 0-5.739 7.9 4.883 4.883 0 1 0 5.739-7.9ZM11.338 9.75a4.883 4.883 0 0 0-1.075-6.819A4.892 4.892 0 0 0 3.44 4.007a4.884 4.884 0 0 0 1.08 6.822 4.879 4.879 0 0 0 6.817-1.08Zm28.357 2.505a4.875 4.875 0 0 0-6.816 1.076L9.92 44.93a4.88 4.88 0 1 0 7.897 5.738l22.96-31.599a4.872 4.872 0 0 0-1.083-6.814ZM13.5 23.393a4.885 4.885 0 0 0 6.82-1.087l5.737-7.895a4.877 4.877 0 0 0-1.08-6.818A4.872 4.872 0 0 0 18.16 8.67l-5.742 7.899a4.885 4.885 0 0 0 1.082 6.823Zm190.857 11.672c0-6.408-2.966-11.708-11.102-11.708-3.627 0-6.229 1.073-8 2.829-1.768-1.756-4.372-2.829-8.021-2.829-8.085 0-11.1 5.3-11.1 11.708l-.005 14.384c0 1.729 1.393 3.122 3.067 3.122a3.116 3.116 0 0 0 3.122-3.122V35.065c0-3.79 1.181-6.13 4.916-6.13 3.79 0 4.915 2.34 4.915 6.13V49.45c0 1.729 1.394 3.122 3.069 3.122a3.116 3.116 0 0 0 3.122-3.122V35.065c0-3.79 1.179-6.13 4.915-6.13 3.789 0 4.916 2.34 4.916 6.13V49.45c0 1.729 1.391 3.122 3.068 3.122a3.116 3.116 0 0 0 3.121-3.122l-.003-14.384Zm-47.305-11.704a3.114 3.114 0 0 0-3.121 3.122v14.383c0 3.788-1.676 6.13-5.412 6.13-3.789 0-5.406-2.342-5.406-6.13V26.483c0-1.732-1.391-3.122-3.067-3.122a3.113 3.113 0 0 0-3.12 3.122l.002 14.383c0 6.409 3.454 11.705 11.591 11.705 8.084 0 11.6-5.296 11.6-11.705V26.483c0-1.732-1.393-3.122-3.067-3.122ZM93.389 34.288c0-6.47-3.416-10.594-11.28-10.594h-5.724v-8.698c0-1.732-1.392-3.12-3.067-3.12a3.112 3.112 0 0 0-3.12 3.12v25.87c0 6.409 3.455 11.705 11.593 11.705 8.084 0 11.6-5.296 11.6-11.705V34.4h-.002v-.112Zm-6.187 6.578c0 3.788-1.675 6.13-5.41 6.13-3.791 0-5.407-2.342-5.407-6.13V29.1h5.672c4.573 0 5.145 2.51 5.145 5.3v6.466Zm45.527-14.499c0-1.944-1.558-2.673-2.897-2.673h-15.44c-1.507 0-2.733 1.173-2.733 2.673a2.734 2.734 0 0 0 2.733 2.733h10.144l-13.152 18.286c-.391.556-.611 1.228-.611 1.84 0 1.892 1.559 3.01 2.84 3.01h16.389a2.736 2.736 0 0 0 2.727-2.734c0-1.502-1.166-2.732-2.727-2.732h-11.037l12.874-17.89c.667-.89.89-1.671.89-2.513Zm-30.437-14.492a3.499 3.499 0 0 0-3.513 3.51c0 1.948 1.564 3.568 3.513 3.568 1.953 0 3.514-1.62 3.514-3.567 0-1.95-1.561-3.51-3.514-3.51Zm0 11.486c-1.729 0-3.122 1.39-3.122 3.066v23.022a3.116 3.116 0 0 0 3.122 3.122 3.117 3.117 0 0 0 3.124-3.122V26.427c0-1.676-1.394-3.066-3.124-3.066Z"/>
</svg>
