<svg xmlns="http://www.w3.org/2000/svg" viewBox="0 0 48 48"><defs><linearGradient id="Dégradé_sans_nom_208" x1="2426.02" x2="2426.02" y1="-1996.84" y2="-2032.09" gradientTransform="matrix(-1.14 0 0 .79 2786.94 1624.17)" gradientUnits="userSpaceOnUse"><stop offset="0" stop-color="#0b0a0c"/><stop offset="0.27" stop-color="#100f12"/><stop offset="0.63" stop-color="#1f1e22"/><stop offset="1" stop-color="#35333a"/></linearGradient><style>.cls-6{fill:#fff}</style></defs><g id="Icon"><rect width="40" height="28" x="4" y="10" fill="url(#Dégradé_sans_nom_208)" rx="2"/><rect width="6.22" height="11.17" x="20.89" y="16.54" fill="#ff5f00"/><path fill="#eb001b" d="M21.29 22.13A7.1 7.1 0 0124 16.54 7 7 0 0019.61 15a7.11 7.11 0 100 14.21 7 7 0 004.39-1.5 7.07 7.07 0 01-2.71-5.58z"/><path fill="#f79e1b" d="M35.5 22.13a7.1 7.1 0 01-7.11 7.1A7 7 0 0124 27.71a7.13 7.13 0 000-11.17A7 7 0 0128.39 15a7.12 7.12 0 017.11 7.13z"/><path d="M16.45 31.14a1 1 0 00-.24-.15.79.79 0 00-.3 0h-.36a.57.57 0 00-.16.11.43.43 0 00-.14.16A.78.78 0 0015 31a.67.67 0 00-.37-.08h-.3a.42.42 0 00-.14.09.49.49 0 00-.12.13V31h-.4v1.89h.4v-1a.52.52 0 010-.21.54.54 0 01.1-.16.38.38 0 01.15-.09.57.57 0 01.18 0 .41.41 0 01.32.12.56.56 0 01.11.37v1h.4v-1a.76.76 0 010-.21.57.57 0 01.11-.16.38.38 0 01.15-.09.57.57 0 01.18 0 .39.39 0 01.31.12.56.56 0 01.11.37v1h.4v-1.27a1 1 0 000-.3 1 1 0 00-.14-.24zM18.55 31.21a.78.78 0 00-.24-.2.71.71 0 00-.35-.07.94.94 0 00-.37.07 1.21 1.21 0 00-.3.2 1.32 1.32 0 00-.2.32 1.09 1.09 0 00-.07.4 1 1 0 00.07.39 1 1 0 00.2.32 1.21 1.21 0 00.3.2 1 1 0 00.37.08.85.85 0 00.35-.08.52.52 0 00.24-.2v.23H19V31h-.41zm0 1a.76.76 0 01-.12.19.57.57 0 01-.18.12.59.59 0 01-.23.05.69.69 0 01-.24-.05.46.46 0 01-.18-.13.52.52 0 01-.11-.19.59.59 0 010-.23.67.67 0 010-.24.54.54 0 01.29-.32.69.69 0 01.24-.05.59.59 0 01.23.05.46.46 0 01.18.13.62.62 0 01.12.19.74.74 0 010 .48zM20.85 31.92a1 1 0 00-.48-.18H19.96l-.07-.06a.11.11 0 010-.08.18.18 0 01.1-.16.48.48 0 01.26-.07H20.73l.1.06.18-.32a1 1 0 00-.34-.15 1.51 1.51 0 00-.42 0 1.24 1.24 0 00-.33 0 .9.9 0 00-.24.12.49.49 0 00-.16.19.7.7 0 000 .25.44.44 0 00.16.37 1 1 0 00.48.18h.19a.55.55 0 01.25.07.16.16 0 01.08.14.19.19 0 01-.11.16.6.6 0 01-.32.07h-.37l-.14-.06-.11-.08-.19.31.21.13.22.07h.38a1.47 1.47 0 00.36 0 .68.68 0 00.27-.13.61.61 0 00.17-.19.53.53 0 00-.05-.26.43.43 0 00-.15-.38zM24.7 31.21a.63.63 0 00-.28-.2.89.89 0 00-.36-.07 1 1 0 00-.38.07.69.69 0 00-.3.2.89.89 0 00-.19.31 1.14 1.14 0 00-.07.41 1.09 1.09 0 00.07.4.83.83 0 00.2.32 1.21 1.21 0 00.3.2 1.34 1.34 0 00.39.07 1.4 1.4 0 00.41-.06 1 1 0 00.37-.21l-.21-.29a.94.94 0 01-.26.14.67.67 0 01-.28.06.63.63 0 01-.19 0 .56.56 0 01-.17-.09.44.44 0 01-.13-.14.57.57 0 01-.07-.22h1.39A.22.22 0 0125 32v-.08a1.09 1.09 0 00-.07-.4 1 1 0 00-.23-.31zm-1.15.55a1.21 1.21 0 01.05-.18.33.33 0 01.11-.15.71.71 0 01.14-.1.64.64 0 01.2 0 .47.47 0 01.32.12.71.71 0 01.16.34zM30.16 31.21a.82.82 0 00-.25-.2.67.67 0 00-.34-.07.94.94 0 00-.37.07 1 1 0 00-.3.2.83.83 0 00-.2.32 1.1 1.1 0 00-.08.4 1 1 0 00.08.39.83.83 0 00.2.32.75.75 0 00.3.2 1 1 0 00.37.08.77.77 0 00.34-.08.69.69 0 00.25-.2v.23h.41V31h-.41zm0 1a.72.72 0 01-.11.19.57.57 0 01-.18.12.69.69 0 01-.24.05.59.59 0 01-.23-.05.46.46 0 01-.18-.13.45.45 0 01-.11-.19.59.59 0 010-.23.67.67 0 010-.24.45.45 0 01.11-.19.58.58 0 01.41-.18.69.69 0 01.24.05.46.46 0 01.18.13.45.45 0 01.11.19.74.74 0 010 .48zM22.61 32.49a.41.41 0 01-.19 0h-.12a.15.15 0 01-.09-.06.41.41 0 01-.07-.11.88.88 0 010-.16v-.82h.66V31h-.66v-.57h-.41V31h-.38v.38h.38v.83a.84.84 0 00.17.55.68.68 0 00.5.18.87.87 0 00.32-.06l.18-.08-.14-.35a.31.31 0 01-.15.04zM26.32 30.94A.81.81 0 0026 31a.63.63 0 00-.23.23V31h-.37v1.89h.38v-1a.76.76 0 010-.21.54.54 0 01.1-.16.28.28 0 01.14-.1.57.57 0 01.18 0h.24l.12-.4h-.1zM32 30.94a.81.81 0 00-.31.06.63.63 0 00-.23.23V31h-.38v1.89h.38v-1a.52.52 0 010-.21.42.42 0 01.09-.16.28.28 0 01.14-.1.57.57 0 01.18 0h.24l.12-.4h-.1zM34 30.22v1a.78.78 0 00-.24-.2.71.71 0 00-.35-.07.94.94 0 00-.41.05 1.21 1.21 0 00-.3.2 1.32 1.32 0 00-.2.32 1.09 1.09 0 00-.07.4 1 1 0 00.07.39 1 1 0 00.2.32 1.21 1.21 0 00.3.2 1 1 0 00.37.08.85.85 0 00.35-.08.52.52 0 00.24-.2v.23h.41v-2.64zm0 2a.76.76 0 01-.12.19.57.57 0 01-.18.12.59.59 0 01-.23.05.69.69 0 01-.24-.05.46.46 0 01-.18-.13 1.18 1.18 0 01-.11-.19.85.85 0 010-.23 1 1 0 010-.24 1.18 1.18 0 01.06-.24.59.59 0 01.18-.13.69.69 0 01.24-.05.59.59 0 01.23.05.46.46 0 01.18.13.62.62 0 01.12.19.74.74 0 010 .48zM27.31 31.49a.57.57 0 01.18-.12.69.69 0 01.24-.05.7.7 0 01.25.05.37.37 0 01.2.12l.2-.33a1.28 1.28 0 00-.25-.15 1.09 1.09 0 00-.4-.07 1.14 1.14 0 00-.41.07 1 1 0 00-.32.21 1 1 0 00-.21.31 1.1 1.1 0 00-.08.4 1 1 0 00.08.39 1 1 0 00.21.31 1 1 0 00.32.21 1.15 1.15 0 00.41.08 1.1 1.1 0 00.4-.08 2 2 0 00.25-.14l-.2-.33a.82.82 0 01-.2.12 1.09 1.09 0 01-.25 0 1 1 0 01-.24 0 .59.59 0 01-.18-.13.5.5 0 01-.13-.19.67.67 0 010-.24.69.69 0 010-.25.5.5 0 01.13-.19z" class="cls-6"/></g></svg>