<svg xmlns="http://www.w3.org/2000/svg" viewBox="0 0 48 48"><defs><linearGradient id="Dégradé_sans_nom_196" x1="2593.22" x2="2559.31" y1="-1997.44" y2="-2031.49" gradientTransform="matrix(-1.14 0 0 .79 2958.05 1624.17)" gradientUnits="userSpaceOnUse"><stop offset="0" stop-color="#fff"/><stop offset="0.4" stop-color="#f9f9f9"/><stop offset="0.93" stop-color="#e9e9e9"/><stop offset="1" stop-color="#e6e6e6"/></linearGradient><style></style></defs><g id="Icon"><rect width="40" height="28" x="4" y="10" fill="url(#Dégradé_sans_nom_196)" rx="2"/><path fill="#d3d2d6" d="M42 11a1 1 0 011 1v24a1 1 0 01-1 1H6a1 1 0 01-1-1V12a1 1 0 011-1h36m0-1H6a2 2 0 00-2 2v24a2 2 0 002 2h36a2 2 0 002-2V12a2 2 0 00-2-2z"/><polygon fill="#78be20" points="14.56 30.81 33.44 30.81 24 21.33 14.56 30.81"/><polygon points="14.15 30.39 15.61 28.93 15.12 28.44 14.2 29.36 12.54 27.69 12 28.24 14.15 30.39"/><polyline points="14.71 26.4 15.08 26.77 15.83 26.01 16.27 26.45 15.51 27.21 15.98 27.68 16.92 26.74 17.35 27.18 15.87 28.66 13.73 26.51 15.21 25.02 15.64 25.46 14.71 26.4"/><path d="M19.55 25l-1.46-.41a.92.92 0 00-.2-1 .88.88 0 00-1.23.06l-1.08 1.09 2.14 2.16.55-.55-1.74-1.75.35-.35a.39.39 0 11.55.55l-.32.32 1.86.53zM18.55 21.57a1.45 1.45 0 012.18 0 1.53 1.53 0 11-2.16 2.17 1.48 1.48 0 01-.02-2.17zM19 22c-.34.34-.22.76.19 1.18s.83.53 1.17.18.23-.75-.19-1.17-.86-.53-1.17-.19z"/><polygon points="21.39 20.44 20.99 19.22 21.62 18.58 22.16 20.67 23 21.51 22.45 22.06 21.61 21.22 19.62 20.59 20.22 19.98 21.37 20.43 21.39 20.44"/><polygon points="31.31 27.84 33.46 25.69 32.88 25.11 30.73 27.27 31.31 27.84"/><polygon points="23.11 19.62 24.78 18.82 23.55 20.05 24.04 20.55 26.19 18.4 25.51 17.71 23.89 18.5 23.89 18.5 24.7 16.9 24 16.19 21.85 18.35 22.35 18.85 23.58 17.61 22.78 19.29 23.11 19.62"/><polyline points="26.83 19.92 26.47 20.29 27.29 21.12 26.85 21.56 26.03 20.73 25.56 21.2 26.56 22.2 26.13 22.64 24.58 21.09 26.73 18.93 28.27 20.49 27.84 20.93 26.83 19.92"/><polygon points="28.86 25.39 30.32 26.86 30.81 26.37 29.9 25.45 31.56 23.78 31.01 23.24 28.86 25.39"/><polygon points="34.7 26.93 34.01 29.22 34.01 29.22 35.49 27.73 36 28.24 33.85 30.4 33.18 29.72 33.77 27.37 33.77 27.36 32.3 28.84 31.8 28.34 33.95 26.18 34.7 26.93"/><path d="M28.5 25l.42-1.47a.92.92 0 001-.21.88.88 0 00-.06-1.23L28.75 21l-2.14 2.16.54.55 1.74-1.75.42.42a.39.39 0 11-.51.59l-.39-.39-.45 1.93z"/></g></svg>