<svg id="Payment_Cards_Colors_Visa_24px" xmlns="http://www.w3.org/2000/svg" viewBox="0 0 24 24"><path fill="#fff" d="M2 5.75a1 1 0 011-1h18a1 1 0 011 1v12a1 1 0 01-1 1H3a1 1 0 01-1-1v-12z"/><path fill="#DDD" fill-rule="evenodd" d="M3 4.75h18a1 1 0 011 1v12a1 1 0 01-1 1H3a1 1 0 01-1-1v-12a1 1 0 011-1zm18.75 1A.75.75 0 0021 5H3a.75.75 0 00-.75.75v12c0 .414.336.75.75.75h18a.75.75 0 00.75-.75v-12z"/><path fill="#1B2070" d="M21 4.75H3a1 1 0 00-1 1V8h20V5.75a1 1 0 00-1-1z"/><path fill="#F7B601" d="M2 16v1.75a1 1 0 001 1h18a1 1 0 001-1V16H2z"/><path fill="#1B2070" d="M9.975 13.787l.61-3.565h.972l-.61 3.566h-.972zm4.498-3.474a2.47 2.47 0 00-.87-.15c-.96 0-1.638.482-1.643 1.172 0 .515.485.797.852.97.368.172.5.287.5.44 0 .25-.3.353-.582.353a2.017 2.017 0 01-.915-.19l-.122-.056-.138.798c.348.127.715.19 1.085.188 1.02 0 1.68-.475 1.688-1.215 0-.408-.25-.718-.816-.97-.337-.163-.547-.276-.542-.44.005-.165.175-.31.553-.31.249-.005.497.041.727.137l.085.043.135-.77"/><path fill="#1B2070" fill-rule="evenodd" d="M16.215 10.225h.75v-.002l.785 3.557h-.88s-.09-.407-.12-.53H15.5l-.217.537h-1.02l1.452-3.264a.482.482 0 01.5-.298zm-.063 1.293l-.387 1 .808.01-.226-1.028-.067-.325c-.047.132-.128.342-.128.342z"/><path fill="#1B2070" d="M8.21 12.655l.953-2.43v-.012h1.027L8.665 13.77h-1.03l-.86-3.082a4.086 4.086 0 00-1.025-.39l.013-.075h1.564a.402.402 0 01.44.302l.342 1.62.004.01.097.5z"/></svg>