<svg xmlns="http://www.w3.org/2000/svg" viewBox="0 0 64 64"><rect x="5" y="13" width="54" height="38" rx="2"/><path d="M57 14a1 1 0 011 1v34a1 1 0 01-1 1H7a1 1 0 01-1-1V15a1 1 0 011-1h50m0-1H7a2 2 0 00-2 2v34a2 2 0 002 2h50a2 2 0 002-2V15a2 2 0 00-2-2z"/><path d="M36.54 37.83h-2a.29.29 0 00-.28.24l-.82 5.19a.17.17 0 00.14.19h1.07a.19.19 0 00.19-.17l.23-1.47a.28.28 0 01.28-.23H36a2.08 2.08 0 002.3-1.92 1.55 1.55 0 00-.26-1.3 1.81 1.81 0 00-1.5-.53zm.23 1.9c-.11.72-.66.72-1.2.72h-.3l.21-1.35a.18.18 0 01.17-.14h.13c.37 0 .72 0 .89.21a.62.62 0 01.1.56zM22.12 37.83h-2a.3.3 0 00-.28.24L19 43.26a.18.18 0 00.14.19h1a.28.28 0 00.28-.24l.23-1.4a.27.27 0 01.27-.23h.64a2.08 2.08 0 002.3-1.92 1.55 1.55 0 00-.26-1.3 1.81 1.81 0 00-1.48-.53zm.23 1.9c-.11.72-.66.72-1.2.72h-.3l.21-1.35a.18.18 0 01.17-.14h.13c.37 0 .71 0 .89.21a.65.65 0 01.1.56zM28.16 39.7h-1a.18.18 0 00-.17.14v.27l-.07-.11a1.36 1.36 0 00-1.14-.41 2.22 2.22 0 00-2.16 1.94A1.78 1.78 0 0024 43a1.48 1.48 0 001.21.49 1.81 1.81 0 001.32-.49v.28a.17.17 0 00.14.19h.9a.26.26 0 00.27-.23l.53-3.32a.17.17 0 00-.14-.19zm-1.34 1.89a1.07 1.07 0 01-1.1.92.74.74 0 01-.82-.66.65.65 0 010-.28 1.07 1.07 0 011.1-.93.83.83 0 01.65.26.86.86 0 01.16.69zM42.58 39.7h-1a.16.16 0 00-.16.14v.27l-.08-.11a1.37 1.37 0 00-1.15-.41A2.23 2.23 0 0038 41.55a1.85 1.85 0 00.39 1.45 1.52 1.52 0 001.22.49A1.81 1.81 0 0041 43v.28a.17.17 0 00.14.19H42a.27.27 0 00.27-.23l.53-3.32a.17.17 0 00-.14-.19zm-1.35 1.89a1.06 1.06 0 01-1.09.92.8.8 0 01-.65-.26.79.79 0 01-.15-.68 1.07 1.07 0 011.08-.93.8.8 0 01.65.26.85.85 0 01.16.69zM33.32 39.7h-1a.29.29 0 00-.24.13l-1.35 2-.56-1.9a.29.29 0 00-.28-.21H29a.17.17 0 00-.17.17.13.13 0 000 .06l1.07 3.15-1 1.42a.16.16 0 000 .23.17.17 0 00.1 0h1a.27.27 0 00.23-.12L33.46 40a.18.18 0 00-.05-.24zM43.73 38l-.84 5.28a.17.17 0 00.15.19h.86a.28.28 0 00.28-.24L45 38a.17.17 0 00-.14-.19h-1a.16.16 0 00-.13.19zM38.79 23.58l-.06.32c-.7 3.6-3.1 4.84-6.16 4.84H31a.75.75 0 00-.75.64l-.8 5.07-.23 1.43a.4.4 0 00.4.46h2.76a.66.66 0 00.66-.56v-.14l.52-3.3v-.18a.67.67 0 01.66-.57h.42c2.68 0 4.77-1.09 5.39-4.24a3.61 3.61 0 00-.56-3.18 2.58 2.58 0 00-.68-.59z"/><path d="M38.05 23.29l-.33-.08-.35-.07A8.4 8.4 0 0036 23h-4.17a.72.72 0 00-.29.06.71.71 0 00-.37.5l-.89 5.62v.16a.75.75 0 01.75-.64h1.56c3.06 0 5.46-1.24 6.16-4.84l.06-.32a4.39 4.39 0 00-.58-.24z"/><path d="M31.17 23.6a.67.67 0 01.37-.49.59.59 0 01.29-.07H36a8.4 8.4 0 011.37.1l.35.07.33.08.16.05a4.39 4.39 0 01.58.24 3.38 3.38 0 00-.72-3c-.8-.91-2.23-1.29-4.06-1.29h-5.32a.76.76 0 00-.75.64l-2.21 14a.45.45 0 00.45.53h3.28l.82-5.23z"/></svg>