<svg xmlns="http://www.w3.org/2000/svg" viewBox="0 0 64 64"><rect width="53.333" height="42.667" x="5.333" y="10.667" fill="#0B4448" rx="1"/><path fill="#fff" fill-rule="evenodd" d="M31.616 18.685a9.319 9.319 0 01-.278-.032l-.073-.047h-.14a3.687 3.687 0 00-1.894.594 4 4 0 00-1.72 4.213 3.953 3.953 0 007.213 1.333c.04-.06.078-.13.117-.2.025-.047.05-.095.077-.14h-1.513a.2.2 0 00-.107.054 2.613 2.613 0 01-1.86.8 2.5 2.5 0 01-2.527-2v-.06h6.18c.06-.43.06-.864 0-1.294a3.9 3.9 0 00-3.013-3.16 5.636 5.636 0 00-.463-.061zm1.975 3.235h-4.64a2.42 2.42 0 012.46-1.9c1.027.053 2.18 1.026 2.18 1.9zm-18.402-3.23c-.08-.012-.16-.023-.238-.037h-.6c-.069.011-.138.02-.208.03-.14.02-.279.039-.412.07a3.933 3.933 0 00-3.06 3.48v.84c.061.345.15.683.267 1.014a3.82 3.82 0 003.593 2.553 3.767 3.767 0 003.16-1.38 4 4 0 00-2.153-6.514 5.617 5.617 0 00-.35-.057zm1.982 3.403c.035.185.059.372.073.56 0 1.295-.93 2.403-2.206 2.627a2.573 2.573 0 01-2.873-1.94 2.667 2.667 0 011.62-3.147c.121-.043.246-.077.373-.1a2.56 2.56 0 013.013 2z"/><path fill="#fff" d="M36.965 28.94c.386-.927.76-1.854 1.133-2.78.02-.047.02-.1 0-.147a1910.56 1910.56 0 00-3.073-7.333h1.6a.189.189 0 000 .06l2.22 5.446a.433.433 0 00.04.067 1.38 1.38 0 00.053-.127c.28-.666.56-1.373.84-2.046l1.386-3.4h1.507a.984.984 0 010 .133l-3 7.333-1.173 2.84-1.533-.046zM23.384 18.653c.2.034.4.047.6.1a3.193 3.193 0 012.5 2.373c.08.328.12.663.12 1v4.514h-1.446v-4.38c0-.314-.034-.627-.1-.934a1.64 1.64 0 00-1.334-1.3 2.937 2.937 0 00-1.333 0 1.7 1.7 0 00-1.406 1.494c-.047.253-.067.51-.06.767v4.326h-1.44a.225.225 0 010-.066v-4.62a3.074 3.074 0 011.106-2.434 3.5 3.5 0 012-.833h.133l.66-.007z"/><path fill="#96E51F" d="M48 32l10.667 9.333v11a1 1 0 01-1 1H24L48 32z"/></svg>