<svg id="Payment_Cards_Colors_Paylib_64px" xmlns="http://www.w3.org/2000/svg" viewBox="0 0 64 64"><path fill="#16D6FF" d="M8.037 50.625h47.925a2.66 2.66 0 002.663-2.66v-31.93a2.66 2.66 0 00-2.663-2.66H8.038a2.66 2.66 0 00-2.662 2.66v31.93a2.66 2.66 0 002.662 2.66z"/><path fill="#fff" d="M13 28h1.357v.45h.056a2.902 2.902 0 011.477-.545 4.949 4.949 0 011.535.082c.91.23 1.398.843 1.6 1.723a7.34 7.34 0 01.123 2.295 6.34 6.34 0 01-.175 1.315A2.152 2.152 0 0117.058 35c-.583.08-1.168.068-1.765.095v-1.4h.585c.25-.008.501-.03.75-.068a.843.843 0 00.72-.665c.071-.244.116-.495.135-.75a9.32 9.32 0 00-.04-1.94 4.69 4.69 0 00-.083-.352.865.865 0 00-.692-.61 2.79 2.79 0 00-1.22 0c-.463.108-.72.448-.75.975a5.434 5.434 0 00-.028.5V37.5h-1.5c-.123 0-.15-.028-.15-.138v-.677L13 28z"/><path fill="#fff" fill-rule="evenodd" d="M42.818 23.605l-.11.012a8.372 8.372 0 00-4.75 1.358.32.32 0 00-.178.325c.006 1.269.006 2.537.006 3.807 0 1.269 0 2.538.006 3.808 0 .148.003.215.015.432.013.218.096.3.313.3h.883v1.438c-.174-.004-.345 0-.513.002-.422.007-.83.014-1.238-.082a1.312 1.312 0 01-1.1-1.14 4.5 4.5 0 01-.055-.735v-6.5h-.055c-1.84 2.39-2.367 5.233-1.5 7.94.868 2.708 2.755 4.492 5.47 5.458V30.5h1.738v9.852a8.27 8.27 0 007.55-3.364c1.983-2.755 2.233-5.743.733-8.796-1.14-2.322-3.053-3.732-5.566-4.397v8.542a3.71 3.71 0 00.016.408c.04.555.272.855.772.922.315.046.634.05.95.013.625-.053.895-.297 1.017-.922a7.59 7.59 0 00.028-2.483c-.095-.585-.435-.855-1.017-.895-.313-.015-.638-.015-.95-.015h-.163v-1.37h.055c.552-.01 1.105.008 1.655.055a2.15 2.15 0 012 1.805 7.624 7.624 0 010 3.25 2.267 2.267 0 01-1.695 1.818 5.63 5.63 0 01-2.81 0 1.808 1.808 0 01-1.385-1.383 4.608 4.608 0 01-.122-1.045v-8.89zm-2.24 6.258c-.433-.083-.666-.425-.666-.925l-.01.012c0-.582.285-.895.87-.935a1.88 1.88 0 01.393 0 .83.83 0 01.693.787v.313a.785.785 0 01-.75.773c-.177.019-.356.01-.53-.026z"/><path fill="#fff" d="M26.898 28h1.654v4.545c0 .187.013.373.04.557a.61.61 0 00.436.5c.499.16 1.036.156 1.532-.012a.648.648 0 00.475-.625 5.06 5.06 0 00.027-.475c.015-1.425.015-2.863.015-4.288V28h1.616c0 .055.012.108.012.163 0 2.51-.004 5.02-.012 7.532a3.568 3.568 0 01-.083.75 1.21 1.21 0 01-1 .977c-.53.123-1.155.056-1.75.08v-1.37h.895a.273.273 0 00.273-.25v-.91l-1.14.083a4.248 4.248 0 01-1.643-.218 1.907 1.907 0 01-1.33-1.765c-.015-.25-.015-.515-.015-.772v-4.112L26.898 28z"/><path fill="#fff" fill-rule="evenodd" d="M26 35.072V28h-1.407v.475a2.5 2.5 0 00-1-.488 5.25 5.25 0 00-1.453-.082c-1.207.095-1.9.692-2.172 1.875a9.001 9.001 0 00-.12 2.332c.01.357.055.712.135 1.06.182.84.645 1.473 1.5 1.723a4.022 4.022 0 002.267.055c.204-.06.404-.137.595-.23v.352H26zm-1.64-3.815l-.002.19v1.1c-.018.668-.338 1.073-1.018 1.168a3.668 3.668 0 01-.95-.028.842.842 0 01-.733-.637 3.001 3.001 0 01-.134-.787c0-.32.01-.638.02-.954.01-.312.02-.623.02-.934.02-.128.047-.255.082-.38a.923.923 0 01.855-.718c.325-.027.652-.027.977 0 .555.068.84.42.88 1.03.008.096.004.19 0 .286-.003.095-.007.19 0 .285.01.126.007.253.004.38z"/></svg>