<svg id="Payment_Cards_Colors_Mastercard_32px" xmlns="http://www.w3.org/2000/svg" viewBox="0 0 32 32"><path fill="url(#a)" d="M3 9a2 2 0 012-2h22a2 2 0 012 2v14a2 2 0 01-2 2H5a2 2 0 01-2-2V9z"/><path fill="#fff" d="M10.658 20.793a.67.67 0 00-.16-.103.514.514 0 00-.203-.033h-.12l-.123.033a.46.46 0 00-.107.075.32.32 0 00-.093.107.46.46 0 00-.422-.222h-.102l-.1.027a.327.327 0 00-.093.06.388.388 0 00-.082.088v-.155h-.268v1.27h.268v-.69a.37.37 0 01.095-.247.25.25 0 01.1-.06.34.34 0 01.122-.02.27.27 0 01.213.08c.053.072.08.16.075.25v.704h.267v-.707c0-.047.007-.094.02-.14a.414.414 0 01.075-.107.25.25 0 01.1-.06.295.295 0 01.123-.02.27.27 0 01.207.08c.055.07.08.16.073.25v.704h.27v-.802a.616.616 0 00-.035-.203.662.662 0 00-.1-.16z"/><path fill="#fff" fill-rule="evenodd" d="M11.905 20.705c.064.03.12.076.163.133v-.153h.274v1.268h-.274v-.155a.501.501 0 01-.398.19.683.683 0 01-.453-.19.7.7 0 01-.18-.475.67.67 0 01.048-.27.834.834 0 01.132-.216.911.911 0 01.203-.132.598.598 0 01.25-.047.499.499 0 01.235.047zm.083.905a.479.479 0 00.08-.127h-.008a.691.691 0 00.035-.16.598.598 0 00-.027-.163.38.38 0 00-.08-.128.345.345 0 00-.12-.087.419.419 0 00-.155-.032.46.46 0 00-.163.032.368.368 0 00-.195.215.452.452 0 00-.025.163.411.411 0 00.1.282.31.31 0 00.12.085.377.377 0 00.317 0 .347.347 0 00.12-.08z"/><path fill="#fff" d="M13.61 21.315a.65.65 0 00-.322-.12l-.128-.02-.088-.015-.06-.02-.047-.04a.08.08 0 01-.02-.053.128.128 0 01.067-.107.307.307 0 01.175-.048l.116.013.112.027.095.033.068.043.12-.215a.625.625 0 00-.228-.103 1.076 1.076 0 00-.283-.033.6.6 0 00-.383.108.356.356 0 00-.107.128.426.426 0 00-.032.167.302.302 0 00.108.25.645.645 0 00.32.123l.127.02a.37.37 0 01.17.047.11.11 0 01.053.093.123.123 0 01-.073.107.382.382 0 01-.215.047h-.143l-.107-.027-.092-.04-.075-.055-.128.207a.706.706 0 00.143.088l.147.047.14.028h.115a.864.864 0 00.25-.027.443.443 0 00.183-.088.394.394 0 00.112-.127.354.354 0 00.035-.168.293.293 0 00-.125-.27z"/><path fill="#fff" fill-rule="evenodd" d="M16.008 20.705a.475.475 0 01.187.133.63.63 0 01.1.21c.033.085.05.176.047.267v.055a.178.178 0 000 .052h-.932a.335.335 0 00.135.243.326.326 0 00.113.06.452.452 0 00.317-.02.5.5 0 00.173-.095l.142.195a.726.726 0 01-.25.14.916.916 0 01-.275.043.836.836 0 01-.25-.048.735.735 0 01-.203-.135.665.665 0 01-.18-.482.73.73 0 01.046-.276.622.622 0 01.127-.21.477.477 0 01.203-.132.591.591 0 01.25-.047.582.582 0 01.25.047zm-.553.383a.657.657 0 00-.033.12h.65a.438.438 0 00-.107-.228.285.285 0 00-.215-.08.341.341 0 00-.125.02.366.366 0 00-.095.067.27.27 0 00-.075.1zm4.235-.383a.547.547 0 01.17.133v-.153h.275v1.268h-.275v-.155a.45.45 0 01-.17.135.478.478 0 01-.228.055.605.605 0 01-.25-.055.526.526 0 01-.202-.136.48.48 0 01-.133-.215.665.665 0 010-.53.585.585 0 01.133-.215.605.605 0 01.202-.132.56.56 0 01.25-.047.472.472 0 01.228.047zm.082.905a.458.458 0 00.073-.45.36.36 0 00-.072-.128.333.333 0 00-.123-.087.435.435 0 00-.16-.032.378.378 0 00-.275.12.33.33 0 00-.075.127.452.452 0 00-.025.163.411.411 0 00.1.282.293.293 0 00.12.085.377.377 0 00.315 0 .358.358 0 00.123-.08z"/><path fill="#fff" d="M14.793 21.698a.285.285 0 01-.128.027l-.082-.015a.095.095 0 01-.06-.04.25.25 0 01-.046-.073.399.399 0 01-.014-.107v-.55h.442v-.25h-.442v-.388h-.275v.383h-.25v.25h.25v.565c-.01.133.03.264.114.367a.46.46 0 00.335.123.533.533 0 00.215-.042.515.515 0 00.12-.053l-.092-.235a.212.212 0 01-.088.038zm2.489-1.041a.551.551 0 00-.21.04.432.432 0 00-.152.155v-.167h-.25v1.268h.25v-.703A.378.378 0 0117 21a.18.18 0 01.093-.067.295.295 0 01.122-.02h.105l.055.02.08-.27-.067-.013-.106.008zm3.833 0a.551.551 0 00-.21.04.413.413 0 00-.152.155v-.167H20.5v1.268h.25v-.703a.298.298 0 01.025-.14.223.223 0 01.063-.107.18.18 0 01.092-.068.29.29 0 01.12-.02h.107l.055.02.08-.27-.067-.012-.11.005z"/><path fill="#fff" fill-rule="evenodd" d="M22.402 20.837v-.662h.268v1.79h-.275v-.155a.382.382 0 01-.16.135A.515.515 0 0122 22a.66.66 0 01-.242-.067.643.643 0 01-.2-.136.685.685 0 01-.183-.474.716.716 0 01.047-.27.776.776 0 01.136-.216.897.897 0 01.2-.132.618.618 0 01.25-.047.455.455 0 01.395.18zm-.08.773a.479.479 0 00.08-.127h-.007a.578.578 0 00.035-.16.53.53 0 00-.027-.163.38.38 0 00-.08-.128.325.325 0 00-.12-.087.419.419 0 00-.155-.032.378.378 0 00-.283.12.54.54 0 00-.073.127.598.598 0 00-.027.163c.002.052.01.104.027.154a.54.54 0 00.073.128.303.303 0 00.122.085.377.377 0 00.315 0 .347.347 0 00.12-.08z"/><path fill="#fff" d="M17.945 21.027a.409.409 0 01.45-.082.25.25 0 01.135.082l.135-.222a.747.747 0 00-.168-.1.716.716 0 00-.27-.047.75.75 0 00-.274.047.648.648 0 00-.355.348.665.665 0 000 .53.633.633 0 00.355.35c.087.034.18.052.274.055a.765.765 0 00.44-.15l-.135-.22a.388.388 0 01-.134.08.732.732 0 01-.168.027.58.58 0 01-.16-.027.38.38 0 01-.122-.088.386.386 0 01-.113-.287.422.422 0 01.027-.168.318.318 0 01.083-.128z"/><path fill="#FF5F00" d="M13.672 11.015h4.155v7.468h-4.155v-7.468z"/><path fill="#EB001B" d="M13.935 14.75a4.768 4.768 0 011.815-3.735 4.75 4.75 0 100 7.47 4.75 4.75 0 01-1.815-3.735z"/><path fill="#F79E1B" d="M23.435 14.75a4.75 4.75 0 01-7.685 3.735 4.763 4.763 0 000-7.47 4.75 4.75 0 017.685 3.735z"/><defs><linearGradient id="a" x1="29.564" x2="29.564" y1="26.254" y2="8.252" gradientUnits="userSpaceOnUse"><stop stop-color="#0B0A0C"/><stop offset=".27" stop-color="#100F12"/><stop offset=".63" stop-color="#1F1E22"/><stop offset="1" stop-color="#35333A"/></linearGradient></defs></svg>