<svg xmlns="http://www.w3.org/2000/svg" viewBox="0 0 64 64"><path fill="url(#a)" d="M5 15a2 2 0 012-2h50a2 2 0 012 2v34a2 2 0 01-2 2H7a2 2 0 01-2-2V15z"/><path fill="#B7EEF5" fill-rule="evenodd" d="M7 13h50a2 2 0 012 2v34a2 2 0 01-2 2H7a2 2 0 01-2-2V15a2 2 0 012-2zm51 2a1 1 0 00-1-1H7a1 1 0 00-1 1v34a1 1 0 001 1h50a1 1 0 001-1V15z"/><path fill="#B7EEF5" d="M13 37a1 1 0 011-1h14a1 1 0 011 1v7a1 1 0 01-1 1H14a1 1 0 01-1-1v-7z"/><path fill="#25A8D0" d="M34 45a1 1 0 01-.94-1.35C35.92 36 37.38 36 37.92 36s1.71 0 4 5.51c2.08-4.11 2.67-4.11 3.2-4.11.53 0 1.24 0 3.9 5.6h2a1 1 0 110 2h-2.64a1 1 0 01-.9-.58c-.77-1.65-1.75-3.53-2.36-4.52a49.576 49.576 0 00-2.37 4.52 1 1 0 01-.94.58 1 1 0 01-.9-.65 28.261 28.261 0 00-3-6.18 28.351 28.351 0 00-3 6.18A1 1 0 0134 45z"/><path fill="#84DBEB" d="M50 27H31.91l3-3H50a1 1 0 100-2H36.91l.8-.79a1.004 1.004 0 00-1.42-1.42L34.09 22H14a1 1 0 100 2h18.09l-3 3H14a1 1 0 100 2h13.09l-.8.79a1 1 0 000 1.42 1 1 0 001.42 0l2.2-2.21H50a1 1 0 100-2z"/><defs><linearGradient id="a" x1="28.72" x2="63.84" y1="77.569" y2="28.23" gradientUnits="userSpaceOnUse"><stop stop-color="#fff"/><stop offset=".53" stop-color="#F1FDFE"/><stop offset="1" stop-color="#ECFCFD"/></linearGradient></defs></svg>