<svg xmlns="http://www.w3.org/2000/svg" viewBox="0 0 32 32"><defs><style>.cls-3{fill:#fff}</style></defs><g id="Icon"><circle cx="16" cy="16" r="9.5" fill="#81bc00"/><path class="cls-3" d="M15.91 14l-1.68 2.3 1.65 2.48h-1.64l-.86-1.28-.78 1.28H11l1.61-2.4L11 14h1.65l.84 1.26.85-1.26zM18.69 18.9a2.71 2.71 0 01-1.56-.42 2.07 2.07 0 01-.82-1.16L17.6 17a1.06 1.06 0 00.4.53 1.26 1.26 0 00.71.2.92.92 0 00.61-.21.66.66 0 00.25-.56.63.63 0 00-.27-.55 1.15 1.15 0 00-.69-.2h-.71v-1.16h.68a1.09 1.09 0 00.65-.17.68.68 0 00.22-.57.59.59 0 00-.22-.49.84.84 0 00-.54-.18.86.86 0 00-.87.67l-1.34-.38a1.66 1.66 0 01.25-.56 2 2 0 01.44-.48 1.85 1.85 0 01.67-.35 2.65 2.65 0 01.87-.13 2.53 2.53 0 011.58.46 1.5 1.5 0 01.6 1.25 1.59 1.59 0 01-.21.84 1.25 1.25 0 01-.62.48 1.3 1.3 0 01.67.52 1.6 1.6 0 01.28 1 1.8 1.8 0 01-.64 1.42 2.48 2.48 0 01-1.68.52z"/></g></svg>