<svg xmlns="http://www.w3.org/2000/svg" viewBox="0 0 24 24"><rect x="2" y="5" width="20" height="14" rx="1"/><path d="M8.66 15.24l-.1-.06h-.28l-.06.05a.13.13 0 00-.06.07.38.38 0 00-.11-.11.29.29 0 00-.16 0h-.18v.06-.1h-.22V16h.17v-.43a.15.15 0 010-.09.25.25 0 010-.07h.14a.21.21 0 01.13 0 .3.3 0 010 .16V16h.27v-.44a.29.29 0 010-.09.25.25 0 010-.07.15.15 0 01.07 0h.07a.19.19 0 01.13 0 .24.24 0 01.05.16V16h.16v-.5a.25.25 0 000-.12.3.3 0 00-.02-.14zM9.54 15.27a.27.27 0 00-.1-.08.37.37 0 00-.15 0h-.15a.57.57 0 00-.13.08.64.64 0 00-.08.14.47.47 0 000 .17.45.45 0 000 .16.57.57 0 00.08.13.38.38 0 00.13.09h.15a.33.33 0 00.15 0 .22.22 0 00.1-.09V16h.17v-.79h-.17zm0 .41v.08l-.08.05h-.2a.19.19 0 01-.07-.06.22.22 0 01-.05-.08.28.28 0 010-.09.31.31 0 010-.1.28.28 0 01.12-.14h.2a.16.16 0 01.08.06.22.22 0 010 .08.31.31 0 010 .1.38.38 0 010 .1zM10.51 15.57a.37.37 0 00-.2-.07h-.14a.08.08 0 010-.06.23.23 0 01.11 0h.25l.07-.14a.35.35 0 00-.14-.06h-.32l-.1.05a.16.16 0 00-.06.08.18.18 0 000 .1.19.19 0 00.06.16.37.37 0 00.2.07h.08a.2.2 0 01.11 0 .05.05 0 010 .05.08.08 0 010 .07.35.35 0 01-.14 0h-.21l-.08.13h.49l.12-.05.07-.08a.43.43 0 000-.11.2.2 0 00-.17-.14zM12.12 15.27a.36.36 0 00-.12-.08.37.37 0 00-.15 0 .45.45 0 00-.16 0l-.12.08a.46.46 0 00-.08.13.57.57 0 000 .18.45.45 0 000 .16.64.64 0 00.08.14.57.57 0 00.13.08.45.45 0 00.16 0L12 16a.51.51 0 00.16-.09l-.09-.12-.11.06h-.27l-.05-.06a.16.16 0 010-.09h.58a.51.51 0 000-.17.46.46 0 00-.1-.26zm-.48.23a.19.19 0 010-.07.15.15 0 01.05-.06h.09a.19.19 0 01.13 0 .27.27 0 01.07.14zM14.41 15.27a.39.39 0 00-.1-.08h-.3a.57.57 0 00-.13.08.64.64 0 00-.08.14.47.47 0 000 .17.45.45 0 000 .16.29.29 0 00.08.13.38.38 0 00.12.13h.3a.28.28 0 00.1-.09V16h.17v-.79h-.17zm0 .41a.3.3 0 010 .08l-.08.05h-.2a.19.19 0 01-.07-.06.22.22 0 010-.08.28.28 0 010-.09.31.31 0 010-.1.22.22 0 010-.08.23.23 0 01.17-.08h.1a.16.16 0 01.08.06.2.2 0 010 .08.16.16 0 010 .1.2.2 0 01-.01.12zM11.24 15.81h-.13a.17.17 0 010-.07v-.34h.28v-.16H11V15h-.17v.24h-.16v.16h.16v.35a.33.33 0 00.07.23.27.27 0 00.21.07H11.32l-.06-.14zM12.8 15.16a.31.31 0 00-.13 0 .28.28 0 00-.1.09v-.1h-.15V16h.15v-.44a.19.19 0 010-.08.16.16 0 010-.07.07.07 0 01.06 0h.14l.05-.17h-.02zM15.2 15.16a.28.28 0 00-.13 0 .22.22 0 00-.1.09v-.1h-.16V16H15v-.44a.11.11 0 010-.08.15.15 0 010-.07H15.21l.05-.17h-.06zM16 14.86v.41a.27.27 0 00-.1-.08.37.37 0 00-.15 0h-.15a.57.57 0 00-.13.08.64.64 0 00-.08.14.47.47 0 000 .17.45.45 0 000 .16.57.57 0 00.08.13.38.38 0 00.13.09h.15a.33.33 0 00.15 0 .22.22 0 00.1-.09V16h.17v-1.14zm0 .82l-.05.08-.08.05h-.2a.19.19 0 01-.07-.06.22.22 0 010-.08.28.28 0 010-.09.31.31 0 010-.1.22.22 0 010-.08.19.19 0 01.07-.06h.2a.16.16 0 01.08.06.22.22 0 01.05.08.31.31 0 010 .1.38.38 0 010 .1zM13.22 15.39a.18.18 0 01.07-.05H13.5l.08.05.09-.14-.11-.06a.47.47 0 00-.17 0 .51.51 0 00-.17 0 .3.3 0 00-.13.09.38.38 0 00-.09.13.36.36 0 000 .33.38.38 0 00.09.13.3.3 0 00.13.09.51.51 0 00.17 0 .47.47 0 00.17 0l.11-.06-.09-.14-.08.05H13.29a.18.18 0 01-.07-.05.21.21 0 01-.06-.08.18.18 0 010-.1.2.2 0 010-.11.16.16 0 01.06-.08zM10.52 9.17h2.6v4.67h-2.6z"/><path d="M10.69 11.5a2.94 2.94 0 011.13-2.33A2.93 2.93 0 0010 8.53a3 3 0 100 5.94 2.93 2.93 0 001.83-.64 2.93 2.93 0 01-1.14-2.33z"/><path d="M16.62 11.5a3 3 0 01-3 3 2.91 2.91 0 01-1.83-.64A2.94 2.94 0 0013 11.5a3 3 0 00-1.13-2.33 2.91 2.91 0 011.83-.64 3 3 0 012.92 2.97z"/></svg>