<svg xmlns="http://www.w3.org/2000/svg" viewBox="0 0 64 64">
    
  <path fill="#006FCF" d="M55.962 13.375H8.038a2.66 2.66 0 0 0-2.662 2.66v31.93a2.66 2.66 0 0 0 2.662 2.66h47.925a2.66 2.66 0 0 0 2.663-2.66v-31.93a2.66 2.66 0 0 0-2.663-2.66Z"/>
  <path fill="#fff" fill-rule="evenodd" d="M34.646 45.079v-10.22h-.003v-1.892H29.85l5.945-13.636h5.734l2.046 4.672V19.33h7.097l1.233 3.52 1.24-3.52h5.501v1.517h-4.388l-2.343 6.595-2.329-6.596h-4.462v10.59l-4.612-10.59H36.84l-4.612 10.59h3.134l.866-2.118h4.806l.88 2.118h6.031v-7.413l2.687 7.413h2.508l2.686-7.428v7.428h2.821v1.536h-3.685l-3.06 3.389-3.03-3.389h-3.746l4.925 5.295-4.925 5.294h3.641l3.075-3.418 3.06 3.419h3.745v1.516h-4.504l-2.319-2.599-2.33 2.599H34.646Zm1.583-1.517V32.974h8.896v2.451H39.08v1.649h5.895v2.39H39.08v1.649h6.044v2.45H36.23Z"/>
  <path fill="#fff" d="M58.646 41.336v2.227l-4.954-5.325 4.954-5.265v2.201l-2.869 3.068 2.87 3.094ZM40.049 26.944l-1.418-3.464-1.418 3.464h2.836Z"/>
</svg>
