<svg xmlns="http://www.w3.org/2000/svg" viewBox="0 0 48 48"><defs><radialGradient id="Dégradé_sans_nom_17" cx="24" cy="-415" r="15" gradientTransform="matrix(1 0 0 .13 0 87.33)" gradientUnits="userSpaceOnUse"><stop offset="0" stop-color="#7f4413"/><stop offset="0.24" stop-color="#7f4413" stop-opacity="0.71"/><stop offset="0.58" stop-color="#7f4413" stop-opacity="0.33"/><stop offset="0.85" stop-color="#7f4413" stop-opacity="0.09"/><stop offset="1" stop-color="#7f4413" stop-opacity="0"/></radialGradient><style>.cls-2{fill:#ecaa3a}.cls-5{fill:#fff}.cls-7{fill:#b9cd5c}</style></defs><g id="Icon"><rect width="40" height="28" x="4" y="10" class="cls-2" rx="2"/><ellipse cx="24" cy="32" fill="url(#Dégradé_sans_nom_17)" opacity=".3" rx="15" ry="2"/><path fill="#111116" d="M9.39 30.62H32.6a6.63 6.63 0 006.53-5.38 6.61 6.61 0 00-5.25-7.73 6.54 6.54 0 00-1.25-.12H15.87a6.6 6.6 0 00-6.41 4.95 6.53 6.53 0 00-.21 1.58v6.58c0 .12-.01.12.14.12z"/><path d="M15.86 17.39h16.78a6.51 6.51 0 011.24.12 6.61 6.61 0 015.25 7.73 6.63 6.63 0 01-6.46 5.38H9.39c-.15 0-.14 0-.14-.12v-6.58a6.53 6.53 0 01.21-1.58 6.61 6.61 0 016.4-4.95m0-.25a6.85 6.85 0 00-6.64 5.14A6.42 6.42 0 009 23.92v6.6a.33.33 0 00.09.26.36.36 0 00.3.09h23.28a6.91 6.91 0 006.71-5.58 6.86 6.86 0 00-6.74-8.15H15.86z" class="cls-5"/><path d="M23.31 25.65a.25.25 0 00-.34.06l-.11.15a1 1 0 01-.77.5 1.67 1.67 0 01-.83-.06 1 1 0 01-.7-.86 1.2 1.2 0 011-1.38 1.17 1.17 0 011.05.31l.24.21c.14.12.22.12.37 0a.28.28 0 00.09-.4 1.18 1.18 0 00-.23-.27 1.94 1.94 0 00-1.06-.52 1.72 1.72 0 00-.81.08 2 2 0 00-1.11.84 1.65 1.65 0 00-.27 1 1.67 1.67 0 00.12.62A1.6 1.6 0 0021.33 27a2.61 2.61 0 001.27-.12 1.41 1.41 0 00.84-.71l.06-.17a.28.28 0 00-.08-.32zM31.8 25.33c0-.25 0-.5-.05-.75 0-.58-.06-1.17 0-1.75s.05-1.16.11-1.74a1.55 1.55 0 000-.43c0-.17-.08-.22-.25-.21h-.16a.44.44 0 00-.34.41c-.05.87-.09 1.74-.07 2.61v.08a1.21 1.21 0 00-.42-.13 1.89 1.89 0 00-1.57.47 1.47 1.47 0 00-.43.78 2.2 2.2 0 000 1.32 1.42 1.42 0 001.05 1 1.58 1.58 0 001.33-.23c.12-.08.31-.28.35-.27s0 0 0 .07.06.18.1.27a.29.29 0 00.11.11.38.38 0 00.45-.15.18.18 0 000-.16c-.07-.43-.15-.86-.21-1.3zm-.7.05a.93.93 0 01-.69.89.91.91 0 01-1.24-.81 1.84 1.84 0 01.1-.77.93.93 0 01.71-.6h.47a.64.64 0 01.54.38 1.46 1.46 0 01.07.19 2.37 2.37 0 01.04.72zM36 24.27a1.66 1.66 0 00-1.44-.9 2.1 2.1 0 00-.89.16 1.76 1.76 0 00-1 1.29 2.37 2.37 0 000 .92A1.79 1.79 0 0034 27a2.29 2.29 0 00.37 0 1.72 1.72 0 001.21-.39 1.79 1.79 0 00.51-.62v-.08a1.78 1.78 0 00.12-1 2.18 2.18 0 00-.21-.64zm-.44 1.23a1 1 0 01-.43.67 1.18 1.18 0 01-.71.23 1.14 1.14 0 01-1.18-.85 1.52 1.52 0 010-.67 1 1 0 01.7-.78 1.9 1.9 0 01.58-.09 1 1 0 011 .7 1.62 1.62 0 01.03.79zM27.77 25.19v-1.4c0-.18-.06-.24-.24-.24a.48.48 0 00-.26.07.2.2 0 01-.22 0l-.16-.07a2.2 2.2 0 00-2.06.25 2 2 0 00-.7 1.29 1.64 1.64 0 000 .66A1.74 1.74 0 0025.46 27a2 2 0 001.54-.34l.22-.15a1.89 1.89 0 00.11.25.29.29 0 00.44.16.28.28 0 00.19-.37 8.92 8.92 0 01-.19-1.36zm-.63.21a.74.74 0 01-.25.61 1.51 1.51 0 01-.68.37A1.21 1.21 0 0125 26a.94.94 0 01-.25-.47 1.25 1.25 0 01.83-1.46 1.6 1.6 0 01.84 0 .72.72 0 01.65.67 2 2 0 010 .49z" class="cls-5"/><path d="M18.74 21.39a.64.64 0 00-.8.63v.26a.63.63 0 00.81.37h.05a.59.59 0 00.36-.74c-.02-.26-.03-.4-.42-.52zM18.58 23.42a.35.35 0 00-.41.23 2 2 0 00-.1.54v2.48a.26.26 0 00.1.2.61.61 0 00.43.13.27.27 0 00.24-.28 2.09 2.09 0 000-.25 12.78 12.78 0 010-1.75l.06-.92a.34.34 0 00-.32-.38z" class="cls-2"/><path fill="#d35d91" d="M14.83 20.47a.37.37 0 00-.49.26 2.85 2.85 0 00-.12.58c0 .13 0 .26-.05.39q-.12 1.26-.12 2.52v1.51a5.26 5.26 0 00.12.78 1.09 1.09 0 00.07.24.39.39 0 00.37.24.41.41 0 00.19 0 .24.24 0 00.18-.27c0-.26-.06-.51-.08-.78s-.05-.54-.06-.81c0-.72-.06-1.45 0-2.17 0-.44.06-.88.11-1.31 0-.23 0-.45.08-.67a.81.81 0 000-.22.27.27 0 00-.2-.29z"/><path d="M13 23.73a.37.37 0 00-.26-.3.49.49 0 00-.46.12.26.26 0 00-.07.19v2.87c0 .3.12.4.41.38h.08c.19 0 .26-.11.27-.31v-2.54a1.84 1.84 0 00.03-.41zM12.51 21.36a.71.71 0 00-.63.72.68.68 0 00.67.6.62.62 0 00.62-.68.66.66 0 00-.66-.64z" class="cls-7"/><path fill="#9779ab" d="M16.94 21.45l.09-.72a.22.22 0 00-.16-.25.53.53 0 00-.41 0 .31.31 0 00-.18.22 2.31 2.31 0 00-.12.52A17.76 17.76 0 0016 23v1.92a9.65 9.65 0 00.14 1.52 1.46 1.46 0 00.05.2c0 .05.05.1.07.14.09.2.58.18.67 0a.39.39 0 00.07-.18c0-.23-.05-.33-.07-.68s-.05-.7-.07-1.05v-1.94a12.13 12.13 0 01.08-1.48z"/></g></svg>