<svg xmlns="http://www.w3.org/2000/svg" viewBox="0 0 32 32">
    
  <path fill="#ECAA3A" d="M2.667 8.667a2 2 0 0 1 2-2h22.666a2 2 0 0 1 2 2v14.666a2 2 0 0 1-2 2H4.667a2 2 0 0 1-2-2V8.667Z"/>
  <path fill="#111116" d="M6.26 20.413h15.473a4.314 4.314 0 0 0 2.367-.68 4.269 4.269 0 0 0 1.987-2.9 4.407 4.407 0 0 0-4.334-5.233H10.587a4.407 4.407 0 0 0-4.274 3.3 4.32 4.32 0 0 0-.146 1.047v4.386c0 .08 0 .08.093.08Z"/>
  <path fill="#fff" fill-rule="evenodd" d="M6.145 14.852a4.573 4.573 0 0 1 4.427-3.425v-.007h11.186a4.575 4.575 0 0 1 4.492 5.43 4.59 4.59 0 0 1-4.473 3.723H6.26a.255.255 0 0 1-.203-.06.227.227 0 0 1-.057-.166v-4.402a4.48 4.48 0 0 1 .145-1.093Zm15.613-3.259H10.572a4.407 4.407 0 0 0-4.405 4.354v4.386c0 .039-.002.058.007.069.01.011.034.011.086.011h15.522a4.424 4.424 0 0 0 4.31-3.586 4.407 4.407 0 0 0-4.334-5.234Z"/>
  <path fill="#fff" d="M15.54 17.1a.167.167 0 0 0-.227.04.485.485 0 0 0-.073.1.667.667 0 0 1-.513.333 1.11 1.11 0 0 1-.56-.04.657.657 0 0 1-.467-.573.803.803 0 0 1 .687-.92.78.78 0 0 1 .7.207l.166.14c.094.08.147.08.247 0a.183.183 0 0 0 .06-.267.793.793 0 0 0-.153-.18 1.333 1.333 0 0 0-.707-.347 1.121 1.121 0 0 0-.54.054 1.351 1.351 0 0 0-.74.56 1.08 1.08 0 0 0-.18.666 1.04 1.04 0 0 0 .08.414c.13.398.483.682.9.726.284.044.575.017.847-.08a.94.94 0 0 0 .56-.473l.04-.093a.188.188 0 0 0-.054-.214l-.073-.053Z"/>
  <path fill="#ECAA3A" d="M12.5 14.26a.43.43 0 0 0-.533.42c0 .04 0 .073.013.107.013.033.012.045.018.068.083.213.32.322.535.245a.387.387 0 0 0 .273-.5c-.046-.167-.053-.267-.306-.34Zm-.113 1.353a.235.235 0 0 0-.274.154 1.322 1.322 0 0 0-.066.36c-.014.266 0 .533-.02.8-.02.266 0 .566 0 .853 0 .052.024.102.066.133a.405.405 0 0 0 .287.087h.013a.166.166 0 0 0 .167-.187 1.405 1.405 0 0 0 0-.166 8.507 8.507 0 0 1 0-1.167l.04-.613a.228.228 0 0 0-.213-.254Z"/>
  <path fill="#D35D91" d="M9.887 13.647a.245.245 0 0 0-.334.166 1.55 1.55 0 0 0-.08.387c-.013.087-.02.167-.033.26a16.622 16.622 0 0 0-.08 1.68c0 .293.007.587.02.88 0 .04 0 .08.013.127.01.175.037.35.08.52.01.057.025.113.047.166.04.101.138.167.247.167.041.01.085.01.126 0h.01a.153.153 0 0 0 .124-.178c-.02-.167-.04-.334-.054-.52-.013-.187-.033-.36-.04-.54-.026-.48-.04-.967-.02-1.447.014-.293.04-.587.074-.873.013-.154.026-.3.053-.447a.537.537 0 0 0 0-.147.18.18 0 0 0-.153-.201Z"/>
  <path fill="#B9CD5C" d="M8.667 15.82a.253.253 0 0 0-.167-.2.323.323 0 0 0-.307.08.178.178 0 0 0-.046.127c.013.306.026.613.033.913v1c0 .2.08.267.273.253H8.5c.127-.02.167-.073.18-.206.027-.56.02-1.127.02-1.694a1.14 1.14 0 0 0-.033-.273Zm-.334-1.58a.475.475 0 0 0-.42.48c-.013.187.207.393.447.4a.413.413 0 0 0 .42-.453.438.438 0 0 0-.447-.427Z"/>
  <path fill="#9779AB" d="m11.293 14.3.06-.48a.147.147 0 0 0-.106-.167.353.353 0 0 0-.274.014.205.205 0 0 0-.12.146 1.54 1.54 0 0 0-.08.354c-.055.393-.09.79-.106 1.186v1.307c.004.34.035.679.093 1.013.008.045.02.09.033.134.014.033.034.066.047.093.06.133.387.12.447.02a.264.264 0 0 0 .04-.187c-.02-.153-.034-.22-.047-.453-.013-.233-.033-.467-.047-.7-.026-.427-.02-.86 0-1.293 0-.33.02-.66.06-.987Z"/>
  <path fill="#fff" fill-rule="evenodd" d="M21.167 16.387c.006.166.013.333.033.5.027.2.061.398.095.595l.045.271a.12.12 0 0 1 0 .107.253.253 0 0 1-.3.1.193.193 0 0 1-.073-.073c-.027-.06-.047-.12-.067-.18-.013-.038-.007-.044-.007-.045l-.013-.002c-.015-.004-.063.038-.117.085-.04.035-.082.072-.116.095a1.07 1.07 0 0 1-.847.147.95.95 0 0 1-.7-.667c-.1-.283-.11-.591-.027-.88a.99.99 0 0 1 .287-.52 1.263 1.263 0 0 1 1.047-.313.868.868 0 0 1 .28.086v-.053c-.014-.573.013-1.16.046-1.74a.293.293 0 0 1 .227-.273h.107c.113-.007.153.026.166.14a.98.98 0 0 1-.013.286c-.032.314-.047.624-.062.933l-.011.234a9.55 9.55 0 0 0 .01.911l.01.256Zm-.894 1.126a.62.62 0 0 0 .46-.593c.02-.167.014-.335-.02-.5a1.135 1.135 0 0 0-.046-.127.425.425 0 0 0-.374-.26h-.1l-.213.027a.615.615 0 0 0-.473.4 1.21 1.21 0 0 0-.067.513.61.61 0 0 0 .833.54Zm2.767-1.933c.406.008.774.239.96.6.075.149.125.31.147.475.035.219.007.444-.082.647l-.025.051c-.22.428-.667.688-1.147.667a1.515 1.515 0 0 1-.246 0 1.195 1.195 0 0 1-.907-.86 1.462 1.462 0 0 1 .02-.613c.07-.384.328-.706.687-.86.187-.079.39-.115.593-.107Zm.373 1.867c.156-.1.26-.264.287-.447a1.087 1.087 0 0 0-.053-.527.667.667 0 0 0-.64-.466c-.132 0-.262.02-.387.06a.675.675 0 0 0-.467.52c-.033.147-.033.3 0 .446a.76.76 0 0 0 .787.567.783.783 0 0 0 .473-.153Zm-4.9-.654c.024.301.071.6.14.894a.185.185 0 0 1-.126.246.197.197 0 0 1-.294-.106 1.236 1.236 0 0 1-.073-.167l-.147.1c-.3.212-.673.292-1.033.22a1.167 1.167 0 0 1-.867-.82 1.087 1.087 0 0 1-.026-.44c.037-.337.204-.645.466-.86a1.467 1.467 0 0 1 1.374-.167l.106.047c.045.03.102.03.147 0a.314.314 0 0 1 .167-.047c.126 0 .166.047.166.167v.933Zm-.586.547a.5.5 0 0 0 .166-.407v-.1a1.33 1.33 0 0 0-.02-.333.478.478 0 0 0-.433-.447 1.064 1.064 0 0 0-.56.02.833.833 0 0 0-.553.974.631.631 0 0 0 .166.313c.2.21.498.296.78.227.17-.044.325-.128.454-.247Z"/>
</svg>
