<svg xmlns="http://www.w3.org/2000/svg" viewBox="0 0 48 48">
    
  <path fill="url(#a)" d="M4.125 12.125a2 2 0 0 1 2-2h35.75a2 2 0 0 1 2 2v23.75a2 2 0 0 1-2 2H6.125a2 2 0 0 1-2-2v-23.75Z"/>
  <path fill="#DDD" fill-rule="evenodd" d="M6 10h36a2 2 0 0 1 2 2v24a2 2 0 0 1-2 2H6a2 2 0 0 1-2-2V12a2 2 0 0 1 2-2Zm37.75 2A1.75 1.75 0 0 0 42 10.25H6A1.75 1.75 0 0 0 4.25 12v24c0 .967.784 1.75 1.75 1.75h36A1.75 1.75 0 0 0 43.75 36V12Z"/>
  <path fill="#78BE20" d="M14.56 30.81h18.88L24 21.33l-9.44 9.48Z"/>
  <path d="m14.15 30.39 1.46-1.46-.49-.49-.92.92-1.66-1.67-.54.55 2.15 2.15Zm.56-3.99.37.37.75-.76.44.44-.76.76.47.47.94-.94.43.44-1.48 1.48-2.14-2.15 1.48-1.49.43.44-.93.94Zm4.84-1.43-1.46-.41a.92.92 0 0 0-.2-1.05.883.883 0 0 0-1.23.06l-1.08 1.09 2.14 2.16.55-.55-1.75-1.75.35-.35a.39.39 0 1 1 .55.55l-.32.32 1.86.53.59-.6Z"/>
  <path fill-rule="evenodd" d="M19.647 21.094a1.455 1.455 0 0 0-1.097.476 1.568 1.568 0 0 0 2.21 2.22c.67-.67.59-1.55-.03-2.19a1.455 1.455 0 0 0-1.083-.506Zm-.487 2.086c-.41-.43-.53-.84-.19-1.18.34-.34.75-.23 1.17.19.42.42.53.82.19 1.17s-.76.25-1.17-.18Z"/>
  <path d="m21.39 20.44-.4-1.22.63-.64.54 2.09.84.84-.55.55-.84-.84-1.99-.63.6-.61 1.15.45.02.01Zm9.92 7.4 2.15-2.15-.58-.58-2.15 2.16.58.57Zm-8.2-8.22 1.67-.8-1.23 1.23.49.5 2.15-2.15-.68-.69-1.62.79.81-1.6-.7-.71-2.15 2.16.5.5 1.23-1.24-.8 1.68.33.33Zm3.72.3-.36.37.82.83-.44.44-.82-.83-.47.47 1 1-.43.44-1.55-1.55 2.15-2.16 1.54 1.56-.43.44-1.01-1.01Zm2.03 5.47 1.46 1.47.49-.49-.91-.92 1.66-1.67-.55-.54-2.15 2.15Zm5.84 1.54-.69 2.29 1.48-1.49.51.51-2.15 2.16-.67-.68.59-2.35v-.01l-1.47 1.48-.5-.5 2.15-2.16.75.75Zm-6.2-1.9.42-1.47a.92.92 0 0 0 1.05-.21.883.883 0 0 0-.06-1.23l-1.16-1.16-2.14 2.16.54.55 1.75-1.75.42.42a.39.39 0 1 1-.5.59s-.027-.025-.04-.04l-.41-.39-.45 1.93.58.6Z"/>
  <defs>
    <linearGradient id="a" x1="24.071" x2="49.548" y1="53.162" y2="16.895" gradientUnits="userSpaceOnUse">
      <stop stop-color="#fff"/>
      <stop offset=".4" stop-color="#F9F9F9"/>
      <stop offset=".93" stop-color="#E9E9E9"/>
      <stop offset="1" stop-color="#E6E6E6"/>
    </linearGradient>
  </defs>
</svg>
