<svg id="Payment_Cards_Colors_Loyalty_32px" xmlns="http://www.w3.org/2000/svg" viewBox="0 0 32 32"><path fill="url(#a)" d="M3.125 9.125a2 2 0 012-2h21.75a2 2 0 012 2v13.75a2 2 0 01-2 2H5.125a2 2 0 01-2-2V9.125z"/><path fill="#DDD" fill-rule="evenodd" d="M5 7h22a2 2 0 012 2v14a2 2 0 01-2 2H5a2 2 0 01-2-2V9a2 2 0 012-2zm23.75 2A1.75 1.75 0 0027 7.25H5A1.75 1.75 0 003.25 9v14c0 .966.784 1.75 1.75 1.75h22A1.75 1.75 0 0028.75 23V9z"/><path fill="#78BE20" d="M9.682 20.558H22.1l-6.208-6.236-6.21 6.236z"/><path d="M9.415 20.28l.96-.96-.322-.32-.606.605-1.092-1.1-.355.363 1.415 1.412zm.368-2.623l.242.243.495-.5.287.29-.5.5.31.31.618-.62.283.29-.973.972-1.408-1.412.973-.98.285.29-.612.617zm3.182-.939l-.965-.27a.6.6 0 00-.127-.698.577.577 0 00-.808.037l-.71.718 1.407 1.42.36-.36-1.142-1.152.23-.23a.256.256 0 01.36.362l-.21.21 1.223.35.382-.387z"/><path fill-rule="evenodd" d="M13.033 14.162a.957.957 0 00-.726.318.972.972 0 00.023 1.447 1.007 1.007 0 001.42-1.427.958.958 0 00-.717-.338zm-.325 1.378c-.268-.277-.348-.552-.126-.777.225-.223.493-.146.77.124.278.27.348.54.125.77-.222.23-.502.16-.77-.117z"/><path d="M14.175 13.738l-.263-.803.413-.42.357 1.375.553.553-.362.36-.553-.553-1.31-.415.395-.4.758.295.012.008zm6.525 4.867l1.413-1.415-.383-.383-1.413 1.423.383.375zm-5.393-5.408l1.098-.524-.81.807.322.33 1.415-1.415-.447-.452-1.065.52.532-1.053-.46-.467-1.415 1.42.33.33.808-.816-.525 1.105.217.216zm2.446.198l-.238.245.54.545-.29.29-.538-.547-.31.31.658.657-.282.29-1.02-1.02 1.415-1.42L18.7 13.77l-.282.29-.665-.665zm1.334 3.597l.96.968.323-.323-.598-.605 1.09-1.097-.36-.355-1.415 1.412zm3.84 1.013l-.452 1.508.973-.98.334.334-1.412 1.42-.443-.447.39-1.545v-.008l-.967.976-.33-.33 1.415-1.42.492.492zM18.85 16.75l.277-.965a.61.61 0 00.69-.137.58.58 0 00-.04-.81l-.75-.75-1.42 1.412.355.363 1.146-1.153.274.29a.25.25 0 11-.332.375l-.027-.025-.25-.25-.296 1.27.373.38z"/><defs><linearGradient id="a" x1="16.64" x2="32.423" y1="34.373" y2="11.205" gradientUnits="userSpaceOnUse"><stop stop-color="#fff"/><stop offset=".4" stop-color="#F9F9F9"/><stop offset=".93" stop-color="#E9E9E9"/><stop offset="1" stop-color="#E6E6E6"/></linearGradient></defs></svg>