<svg id="Payment_Cards_Colors_OneyX3_64px" xmlns="http://www.w3.org/2000/svg" viewBox="0 0 64 64"><path fill="#81BC00" fill-rule="evenodd" d="M51.75 32c0 10.908-8.842 19.75-19.75 19.75S12.25 42.908 12.25 32 21.092 12.25 32 12.25 51.75 21.092 51.75 32zm-25.825 6.513c-1.4 0-2.553-.316-3.46-.948A4.528 4.528 0 0120.643 35l2.862-.84c.159.487.477.906.903 1.19a2.717 2.717 0 001.557.43c.492.013.974-.145 1.363-.447a1.5 1.5 0 00.56-1.25 1.425 1.425 0 00-.6-1.233 2.588 2.588 0 00-1.538-.43h-1.582v-2.48h1.515c.508.034 1.014-.1 1.44-.38.333-.255.5-.672.5-1.25a1.33 1.33 0 00-.5-1.092 1.858 1.858 0 00-1.208-.403c-.958 0-1.6.5-1.922 1.5l-2.98-.84a4.07 4.07 0 01.552-1.25c.272-.405.603-.768.983-1.075.439-.348.94-.61 1.477-.77a6.265 6.265 0 011.93-.282c1.445 0 2.617.341 3.515 1.024a3.295 3.295 0 011.348 2.773 3.358 3.358 0 01-.483 1.855 2.715 2.715 0 01-1.362 1.085v.02a2.96 2.96 0 011.5 1.162 3.6 3.6 0 01.61 2.118 3.963 3.963 0 01-1.428 3.17c-.945.805-2.188 1.208-3.73 1.208zM42.96 27.5l-3.75 5.225 3.69 5.525h-3.662l-1.903-2.862-1.75 2.862h-3.5l3.573-5.343L32.1 27.5h3.662l1.855 2.802 1.855-2.802h3.487z"/></svg>