<svg xmlns="http://www.w3.org/2000/svg" viewBox="0 0 48 48"><path fill="#fff" d="M4 12a2 2 0 012-2h36a2 2 0 012 2v24a2 2 0 01-2 2H6a2 2 0 01-2-2V12z"/><path fill="#DDD" fill-rule="evenodd" d="M6 10h36a2 2 0 012 2v24a2 2 0 01-2 2H6a2 2 0 01-2-2V12a2 2 0 012-2zm37.75 2A1.75 1.75 0 0042 10.25H6A1.75 1.75 0 004.25 12v24c0 .967.784 1.75 1.75 1.75h36A1.75 1.75 0 0043.75 36V12z"/><path fill="#1B2070" d="M42 10H6a2 2 0 00-2 2v4h40v-4a2 2 0 00-2-2z"/><path fill="#F7B601" d="M4 32v4a2 2 0 002 2h36a2 2 0 002-2v-4H4z"/><path fill="#1B2070" d="M18.86 28.17l1.42-8.32h2.27l-1.42 8.32h-2.27zm10.49-8.11a5.792 5.792 0 00-2.03-.35c-2.25 0-3.82 1.13-3.83 2.75 0 1.2 1.13 1.86 2 2.25.87.39 1.17.67 1.17 1.03 0 .56-.7.82-1.36.82a4.75 4.75 0 01-2.13-.44l-.3-.12-.32 1.85a7.25 7.25 0 002.53.44c2.38 0 3.92-1.11 3.94-2.84 0-.95-.59-1.67-1.9-2.25-.79-.38-1.28-.64-1.27-1.03.01-.39.41-.72 1.29-.72a4.171 4.171 0 011.7.32l.2.1.31-1.8"/><path fill="#1B2070" fill-rule="evenodd" d="M33.42 19.86h1.75v-.01L37 28.17h-2.09s-.21-.96-.28-1.25h-2.9l-.48 1.25h-2.38l3.37-7.62c.23-.54.64-.69 1.18-.69zm-.15 3.03l-.9 2.32h1.88l-.52-2.4-.16-.72-.026.07a19.6 19.6 0 01-.274.73z"/><path fill="#1B2070" d="M9.03 19.85h3.64c.5.02.89.18 1.03.71l.8 3.82.25 1.15 2.21-5.67-.01-.01h2.4l-3.56 8.3h-2.4l-2.014-7.214A9.434 9.434 0 009 20.03l.03-.18z"/></svg>