<svg xmlns="http://www.w3.org/2000/svg" viewBox="0 0 64 64">
    
  <path fill="url(#a)" d="M8.037 50.375a2.415 2.415 0 0 1-2.412-2.41v-31.93a2.415 2.415 0 0 1 2.412-2.41h47.925a2.415 2.415 0 0 1 2.413 2.41v31.93a2.415 2.415 0 0 1-2.413 2.41H8.038Z"/>
  <path fill="#DDD" fill-rule="evenodd" d="M8.037 13.375h47.925c1.47 0 2.662 1.19 2.663 2.66v31.93a2.662 2.662 0 0 1-2.663 2.66H8.038a2.662 2.662 0 0 1-2.662-2.66v-31.93a2.662 2.662 0 0 1 2.662-2.66Zm50.088 2.66a2.165 2.165 0 0 0-2.163-2.16H8.038a2.165 2.165 0 0 0-2.162 2.16v31.93a2.165 2.165 0 0 0 2.162 2.16h47.925a2.165 2.165 0 0 0 2.163-2.16v-31.93Z"/>
  <path fill="#179BD7" fill-rule="evenodd" d="M34.517 37.835h2.023c.678 0 1.185.178 1.475.515.273.376.365.854.25 1.305-.2 1.27-.968 1.915-2.3 1.915h-.638a.282.282 0 0 0-.274.237l-.23 1.47a.2.2 0 0 1-.196.168h-1.062a.173.173 0 0 1-.142-.195l.822-5.178a.27.27 0 0 1 .273-.237Zm1.055 2.62c.538 0 1.09 0 1.2-.727a.627.627 0 0 0-.1-.56c-.177-.208-.522-.208-.887-.208h-.137a.172.172 0 0 0-.168.137l-.212 1.358h.304Z"/>
  <path fill="#253B80" fill-rule="evenodd" d="M20.098 37.835h2.02c.677 0 1.187.178 1.485.502.271.378.363.857.25 1.308-.203 1.27-.97 1.915-2.303 1.915h-.635a.275.275 0 0 0-.275.237l-.23 1.398a.282.282 0 0 1-.273.25h-1A.17.17 0 0 1 19 43.25l.823-5.178a.282.282 0 0 1 .274-.237Zm1.052 2.62c.538 0 1.093 0 1.203-.727a.65.65 0 0 0-.103-.56c-.177-.208-.523-.208-.887-.208h-.138a.168.168 0 0 0-.165.137l-.215 1.358h.305Zm6.048-.75h.967l.033-.017a.17.17 0 0 1 .14.194l-.526 3.313a.275.275 0 0 1-.274.25h-.896a.172.172 0 0 1-.142-.195l.035-.258a1.847 1.847 0 0 1-1.34.548 1.515 1.515 0 0 1-1.22-.5 1.828 1.828 0 0 1-.36-1.487 2.227 2.227 0 0 1 2.163-1.948c.465 0 .932.108 1.142.413l.067.097.043-.275a.17.17 0 0 1 .168-.135Zm-1.478 2.81a1.08 1.08 0 0 0 1.095-.925h-.003a.825.825 0 0 0-.165-.685.813.813 0 0 0-.642-.265 1.087 1.087 0 0 0-1.087.932.75.75 0 0 0 .802.943Z"/>
  <path fill="#179BD7" fill-rule="evenodd" d="M41.615 39.705h.97l.03.003a.165.165 0 0 1 .135.195l-.528 3.307a.28.28 0 0 1-.272.25h-.898a.172.172 0 0 1-.142-.195l.045-.273a1.847 1.847 0 0 1-1.34.548 1.515 1.515 0 0 1-1.22-.5 1.828 1.828 0 0 1-.363-1.487 2.227 2.227 0 0 1 2.163-1.948c.465 0 .935.108 1.142.413l.068.097.045-.275a.17.17 0 0 1 .165-.135Zm-1.475 2.81a1.083 1.083 0 0 0 1.095-.925v-.013a.843.843 0 0 0-.165-.69.822.822 0 0 0-.648-.25 1.082 1.082 0 0 0-1.084.93.75.75 0 0 0 .802.948Z"/>
  <path fill="#253B80" d="M33.318 39.705h-.973a.28.28 0 0 0-.233.123l-1.347 1.977-.567-1.9a.283.283 0 0 0-.276-.2h-.957a.168.168 0 0 0-.168.17.192.192 0 0 0 0 .053l1.073 3.147-1 1.422a.168.168 0 0 0 .137.266h.973a.28.28 0 0 0 .23-.12l3.25-4.673a.17.17 0 0 0-.043-.235.168.168 0 0 0-.1-.03Z"/>
  <path fill="#179BD7" d="m43.725 37.977-.83 5.273a.17.17 0 0 0 .14.195h.868a.275.275 0 0 0 .275-.25L45 38.03a.165.165 0 0 0-.14-.193h-.96a.167.167 0 0 0-.175.14Zm-4.937-14.392c-.018.1-.035.205-.055.31-.703 3.605-3.1 4.855-6.165 4.855H31a.75.75 0 0 0-.75.642l-.8 5.066-.225 1.434a.398.398 0 0 0 .392.463h2.768a.665.665 0 0 0 .657-.563l.028-.14.52-3.305.035-.182a.665.665 0 0 1 .657-.563h.413c2.682 0 4.78-1.087 5.392-4.25.25-1.314.125-2.415-.552-3.187a2.681 2.681 0 0 0-.747-.58Z"/>
  <path fill="#222D65" d="M38.053 23.293a4.55 4.55 0 0 0-.33-.085 6.792 6.792 0 0 0-.353-.068 8.705 8.705 0 0 0-1.375-.1h-4.167a.667.667 0 0 0-.657.565l-.886 5.615-.025.165a.75.75 0 0 1 .75-.643h1.56c3.065 0 5.462-1.25 6.165-4.845.02-.104.038-.21.055-.31a3.78 3.78 0 0 0-.578-.25l-.16-.044Z"/>
  <path fill="#253B80" d="M31.17 23.602a.667.667 0 0 1 .657-.564H36c.46-.004.92.03 1.375.1.12.02.237.042.352.067.113.025.223.053.33.085l.158.047c.2.068.392.151.577.25.208-1.332 0-2.25-.722-3.057-.797-.905-2.227-1.28-4.07-1.28h-5.308a.75.75 0 0 0-.75.642l-2.215 14.04a.455.455 0 0 0 .45.528h3.283l1.71-10.858Z"/>
  <defs>
    <linearGradient id="a" x1="32.839" x2="66.695" y1="70.108" y2="21.774" gradientUnits="userSpaceOnUse">
      <stop stop-color="#fff"/>
      <stop offset=".4" stop-color="#F9F9F9"/>
      <stop offset=".93" stop-color="#E9E9E9"/>
      <stop offset="1" stop-color="#E6E6E6"/>
    </linearGradient>
  </defs>
</svg>
