<svg xmlns="http://www.w3.org/2000/svg" viewBox="0 0 24 24"><defs><linearGradient id="Dégradé_sans_nom_16" x1="2.32" y1="18.78" x2="21.68" y2="5.22" gradientUnits="userSpaceOnUse"><stop offset="0" stop-color="#fff"/><stop offset=".53" stop-color="#f1fdfe"/><stop offset="1" stop-color="#ecfcfd"/></linearGradient><style>.cls-3{fill:#b7eef5}</style></defs><g id="Icon"><rect x="2" y="5" width="20" height="14" rx="1" fill="url(#Dégradé_sans_nom_16)"/><path class="cls-3" d="M21 5.5a.5.5 0 01.5.5v12a.5.5 0 01-.5.5H3a.5.5 0 01-.5-.5V6a.5.5 0 01.5-.5h18m0-.5H3a1 1 0 00-1 1v12a1 1 0 001 1h18a1 1 0 001-1V6a1 1 0 00-1-1z"/><path d="M18.5 10h-6.29l1-1h5.29a.5.5 0 000-1h-4.29l.14-.15a.49.49 0 00-.7-.7l-.86.85H5.5a.5.5 0 000 1h6.29l-1 1H5.5a.5.5 0 000 1h4.29l-.14.15a.48.48 0 000 .7.48.48 0 00.7 0l.86-.85h7.29a.5.5 0 000-1z" fill="#84dbeb"/><rect class="cls-3" x="5" y="13" width="6" height="4" rx=".5"/><path d="M13 17h-.13a.5.5 0 01-.35-.61c.4-1.54 1.1-3.37 2.07-3.37.7 0 1.25.94 1.66 2 .58-1.18.92-1.18 1.13-1.18s.7 0 1.54 2.14h.58a.5.5 0 010 1h-.93a.51.51 0 01-.47-.33 12.16 12.16 0 00-.72-1.6 10.87 10.87 0 00-.73 1.6.48.48 0 01-.49.33.5.5 0 01-.46-.37A7.44 7.44 0 0014.59 14a7.44 7.44 0 00-1.11 2.6.5.5 0 01-.48.4z" fill="#25a8d0"/></g></svg>