<svg xmlns="http://www.w3.org/2000/svg" viewBox="0 0 32 32"><defs><radialGradient id="Dégradé_sans_nom_17" cx="16" cy="-443.62" r="9.38" gradientTransform="matrix(1 0 0 .13 0 80.4)" gradientUnits="userSpaceOnUse"><stop offset="0" stop-color="#7f4413"/><stop offset=".24" stop-color="#7f4413" stop-opacity=".71"/><stop offset=".58" stop-color="#7f4413" stop-opacity=".33"/><stop offset=".85" stop-color="#7f4413" stop-opacity=".09"/><stop offset="1" stop-color="#7f4413" stop-opacity="0"/></radialGradient><style>.cls-2{fill:#ecaa3a}.cls-5{fill:#fff}.cls-7{fill:#b9cd5c}</style></defs><g id="Icon"><rect class="cls-2" x="3" y="7" width="26" height="18" rx="2"/><ellipse cx="16" cy="21.25" rx="9.38" ry="1.25" opacity=".3" fill="url(#Dégradé_sans_nom_17)"/><path d="M6.09 20.41h15.48a4.43 4.43 0 004.35-3.59 4.4 4.4 0 00-3.5-5.15 4.67 4.67 0 00-.83-.08H10.41a4.41 4.41 0 00-4.27 3.3 4.15 4.15 0 00-.14 1v4.39c0 .13 0 .13.09.13z" fill="#111116"/><path class="cls-5" d="M10.41 11.59h11.18a4.58 4.58 0 01.83.08 4.4 4.4 0 013.5 5.15 4.24 4.24 0 01-2 2.91 4.33 4.33 0 01-2.32.68H6.09c-.1 0-.09 0-.09-.08v-4.39a4.15 4.15 0 01.14-1 4.41 4.41 0 014.27-3.3m0-.19a4.61 4.61 0 00-4.6 4.54v4.39a.23.23 0 00.07.19.25.25 0 00.21.07h15.52a4.56 4.56 0 002.39-.75 4.49 4.49 0 002.07-3 4.61 4.61 0 00-3.66-5.38 4.91 4.91 0 00-.86-.08z"/><path class="cls-5" d="M15.37 17.1a.16.16 0 00-.22 0 .39.39 0 00-.08.1.65.65 0 01-.51.33 1.15 1.15 0 01-.55 0 .65.65 0 01-.47-.57.8.8 0 01.69-.92.79.79 0 01.7.2l.16.14c.09.08.14.08.24 0a.18.18 0 00.06-.26.65.65 0 00-.15-.18 1.29 1.29 0 00-.71-.35 1.11 1.11 0 00-.54.05 1.47 1.47 0 00-.74.56 1.12 1.12 0 00-.18.66 1.16 1.16 0 00.08.42 1.06 1.06 0 00.9.72 1.64 1.64 0 00.85-.08.9.9 0 00.56-.47v-.09a.2.2 0 00-.05-.22z"/><path d="M11.13 14.3l.06-.48a.16.16 0 00-.11-.17.36.36 0 00-.27 0 .22.22 0 00-.12.15 1.37 1.37 0 00-.08.35 11.69 11.69 0 00-.11 1.19v1.31a6.78 6.78 0 00.1 1v.13a.31.31 0 00.05.1c.06.13.38.12.44 0a.26.26 0 000-.19 3.93 3.93 0 010-.45v-.7-1.3a7.93 7.93 0 01.04-.94z" fill="#9779ab"/><path class="cls-2" d="M12.33 14.26a.43.43 0 00-.54.42v.1a.14.14 0 000 .07.42.42 0 00.54.25.39.39 0 00.24-.49c.02-.18.02-.27-.24-.35zM12.22 15.61a.23.23 0 00-.27.15 1.53 1.53 0 00-.07.36V17.78a.16.16 0 00.06.13.4.4 0 00.29.09.17.17 0 00.16-.19 1 1 0 000-.17 7.49 7.49 0 010-1.16v-.62a.22.22 0 00-.17-.25z"/><path class="cls-7" d="M8.33 15.62a.3.3 0 00-.3.08.18.18 0 000 .12v1.92c0 .32.08.26.28.25h.05c.13 0 .17-.07.18-.21v-1.69a1.24 1.24 0 000-.27.26.26 0 00-.21-.2zM8.17 14.24a.47.47 0 00-.42.48.46.46 0 00.45.4.42.42 0 00.41-.46.43.43 0 00-.44-.42z"/><path d="M9.72 13.64a.25.25 0 00-.33.18 1.61 1.61 0 00-.08.38v.26a15.74 15.74 0 00-.08 1.68v.88a.53.53 0 010 .13 3 3 0 00.08.52.75.75 0 000 .16.26.26 0 00.25.16.17.17 0 00.12 0 .15.15 0 00.13-.18l-.06-.52v-.54-1.44c0-.3 0-.59.08-.88a3.12 3.12 0 01.05-.43.38.38 0 000-.15.19.19 0 00-.16-.21z" fill="#d35d91"/><path class="cls-5" d="M21 16.88v-.5-1.16c0-.38 0-.78.07-1.16a1 1 0 000-.29c0-.11-.06-.15-.17-.14h-.11a.29.29 0 00-.22.27c0 .58-.06 1.16-.05 1.74v.06a.71.71 0 00-.28-.09 1.26 1.26 0 00-1 .31 1 1 0 00-.28.52 1.39 1.39 0 000 .88.94.94 0 00.7.66 1.1 1.1 0 00.85-.14c.08-.06.21-.19.23-.18a1.34 1.34 0 00.07.18.27.27 0 00.07.08.27.27 0 00.3-.1.11.11 0 000-.11c-.05-.25-.11-.53-.18-.83zm-.46 0a.62.62 0 01-.46.59.61.61 0 01-.83-.54 1.26 1.26 0 01.07-.51.59.59 0 01.47-.4L20 16h.1a.4.4 0 01.36.25.5.5 0 01.05.13 1.39 1.39 0 01.06.54zM23.83 16.18a1.1 1.1 0 00-1-.6 1.36 1.36 0 00-.6.1 1.17 1.17 0 00-.68.86 1.44 1.44 0 000 .62 1.19 1.19 0 00.9.86 2.08 2.08 0 00.25 0 1.15 1.15 0 00.81-.26 1.12 1.12 0 00.34-.41v-.05a1.12 1.12 0 00.08-.65 1.43 1.43 0 00-.1-.47zm-.3.82a.62.62 0 01-.28.44.84.84 0 01-.48.16.76.76 0 01-.77-.6 1.14 1.14 0 010-.45.69.69 0 01.47-.52 1.32 1.32 0 01.39-.06.68.68 0 01.64.47 1.06 1.06 0 01.03.56zM18.35 16.79v-.93c0-.12 0-.16-.16-.16a.25.25 0 00-.17 0 .14.14 0 01-.15 0l-.11-.05a1.48 1.48 0 00-1.37.17 1.3 1.3 0 00-.47.86 1.08 1.08 0 000 .44 1.16 1.16 0 00.87.82 1.31 1.31 0 001-.22l.15-.1a1.22 1.22 0 00.07.17.19.19 0 00.29.1c.12-.05.16-.11.13-.24a5.7 5.7 0 01-.08-.86zm-.42.14a.51.51 0 01-.17.41 1 1 0 01-.45.24.81.81 0 01-.78-.22.59.59 0 01-.17-.32.83.83 0 01.55-1 1.07 1.07 0 01.56 0 .48.48 0 01.44.45 1.67 1.67 0 010 .32z"/></g></svg>