<svg id="Payment_Cards_Colors_Cheque_24px" xmlns="http://www.w3.org/2000/svg" viewBox="0 0 24 24"><path fill="url(#a)" d="M2 6a1 1 0 011-1h18a1 1 0 011 1v12a1 1 0 01-1 1H3a1 1 0 01-1-1V6z"/><path fill="#B7EEF5" fill-rule="evenodd" d="M3 5h18a1 1 0 011 1v12a1 1 0 01-1 1H3a1 1 0 01-1-1V6a1 1 0 011-1zm18.5 1a.5.5 0 00-.5-.5H3a.5.5 0 00-.5.5v12a.5.5 0 00.5.5h18a.5.5 0 00.5-.5V6z"/><path fill="#84DBEB" d="M18.5 10h-6.29l1-1h5.29a.5.5 0 000-1h-4.29l.14-.15a.495.495 0 10-.7-.7l-.86.85H5.5a.5.5 0 000 1h6.29l-1 1H5.5a.5.5 0 000 1h4.29l-.14.15a.48.48 0 000 .7.48.48 0 00.7 0l.86-.85h7.29a.5.5 0 000-1z"/><path fill="#B7EEF5" d="M5 13.5a.5.5 0 01.5-.5h5a.5.5 0 01.5.5v3a.5.5 0 01-.5.5h-5a.5.5 0 01-.5-.5v-3z"/><path fill="#25A8D0" d="M13 17h-.13a.5.5 0 01-.35-.61c.4-1.54 1.1-3.37 2.07-3.37.7 0 1.25.94 1.66 2 .58-1.18.92-1.18 1.13-1.18.21 0 .7 0 1.54 2.14h.58a.5.5 0 010 1h-.93a.51.51 0 01-.47-.33 12.166 12.166 0 00-.72-1.6 10.87 10.87 0 00-.73 1.6.48.48 0 01-.49.33.5.5 0 01-.46-.37A7.44 7.44 0 0014.59 14a7.44 7.44 0 00-1.11 2.6.5.5 0 01-.48.4z"/><defs><linearGradient id="a" x1="12.006" x2="24.737" y1="25.556" y2="7.358" gradientUnits="userSpaceOnUse"><stop stop-color="#fff"/><stop offset=".53" stop-color="#F1FDFE"/><stop offset="1" stop-color="#ECFCFD"/></linearGradient></defs></svg>