<svg xmlns="http://www.w3.org/2000/svg" viewBox="0 0 48 48">
    
  <path fill="#ECAA3A" d="M4 12a2 2 0 0 1 2-2h36a2 2 0 0 1 2 2v24a2 2 0 0 1-2 2H6a2 2 0 0 1-2-2V12Z"/>
  <path fill="#111116" d="M9.39 30.62H32.6a6.47 6.47 0 0 0 3.55-1.02 6.403 6.403 0 0 0 2.98-4.35 6.61 6.61 0 0 0-6.5-7.85H15.88a6.61 6.61 0 0 0-6.41 4.95 6.48 6.48 0 0 0-.22 1.57v6.58c0 .12 0 .12.14.12Z"/>
  <path fill="#fff" fill-rule="evenodd" d="M9.217 22.277a6.86 6.86 0 0 1 6.64-5.137v-.01h16.78a6.863 6.863 0 0 1 6.738 8.145 6.885 6.885 0 0 1-6.71 5.585H9.39a.383.383 0 0 1-.305-.09.34.34 0 0 1-.085-.25v-6.602a6.728 6.728 0 0 1 .217-1.64Zm23.42-4.887h-16.78a6.61 6.61 0 0 0-6.607 6.53v6.58c0 .057-.002.087.012.103.015.017.05.017.128.017h23.282a6.635 6.635 0 0 0 6.466-5.38 6.61 6.61 0 0 0-6.5-7.85Z"/>
  <path fill="#fff" d="M23.31 25.65a.25.25 0 0 0-.34.06.726.726 0 0 0-.11.15 1 1 0 0 1-.77.5 1.67 1.67 0 0 1-.84-.06.985.985 0 0 1-.7-.86 1.205 1.205 0 0 1 1.03-1.38c.38-.077.773.04 1.05.31l.25.21c.14.12.22.12.37 0a.275.275 0 0 0 .09-.4 1.186 1.186 0 0 0-.23-.27 2 2 0 0 0-1.06-.52 1.685 1.685 0 0 0-.81.08c-.457.14-.85.438-1.11.84a1.62 1.62 0 0 0-.27 1 1.55 1.55 0 0 0 .12.62 1.598 1.598 0 0 0 1.35 1.09 2.61 2.61 0 0 0 1.27-.12 1.41 1.41 0 0 0 .84-.71l.06-.14a.283.283 0 0 0-.08-.32l-.11-.08Z"/>
  <path fill="#ECAA3A" d="M18.75 21.39a.645.645 0 0 0-.8.63c0 .06 0 .11.02.16s.018.067.027.102c.124.32.48.483.803.368a.58.58 0 0 0 .41-.75c-.07-.25-.08-.4-.46-.51Zm-.17 2.03a.352.352 0 0 0-.41.23 1.983 1.983 0 0 0-.1.54c-.02.4 0 .8-.03 1.2-.03.4 0 .85 0 1.28a.25.25 0 0 0 .1.2.607.607 0 0 0 .43.13h.02a.25.25 0 0 0 .25-.28 2.085 2.085 0 0 0 0-.25c-.04-.583-.04-1.167 0-1.75l.06-.92a.343.343 0 0 0-.32-.38Z"/>
  <path fill="#D35D91" d="M14.83 20.47a.367.367 0 0 0-.5.25 2.305 2.305 0 0 0-.12.58c-.02.13-.03.25-.05.39a24.947 24.947 0 0 0-.12 2.52c0 .44.01.88.03 1.32 0 .06 0 .12.02.19.015.263.055.524.12.78.014.086.037.17.07.25.06.151.207.25.37.25a.407.407 0 0 0 .19 0h.015a.23.23 0 0 0 .185-.267c-.03-.25-.06-.5-.08-.78-.02-.28-.05-.54-.06-.81-.04-.72-.06-1.45-.03-2.17.02-.44.06-.88.11-1.31.02-.23.04-.45.08-.67a.81.81 0 0 0 0-.22.27.27 0 0 0-.23-.303Z"/>
  <path fill="#B9CD5C" d="M13 23.73a.38.38 0 0 0-.25-.3.485.485 0 0 0-.46.12.267.267 0 0 0-.07.19c.02.46.04.92.05 1.37v1.5c0 .3.12.4.41.38h.07c.19-.03.25-.11.27-.31.04-.84.03-1.69.03-2.54 0-.138-.017-.276-.05-.41Zm-.5-2.37a.712.712 0 0 0-.63.72c-.02.28.31.59.67.6a.62.62 0 0 0 .63-.68.658.658 0 0 0-.67-.64Z"/>
  <path fill="#9779AB" d="m16.94 21.45.09-.72a.22.22 0 0 0-.16-.25.53.53 0 0 0-.41.02.308.308 0 0 0-.18.22 2.31 2.31 0 0 0-.12.53c-.083.59-.137 1.184-.16 1.78v1.96c.007.51.053 1.018.14 1.52.013.068.03.134.05.2.02.05.05.1.07.14.09.2.58.18.67.03a.395.395 0 0 0 .06-.28c-.03-.23-.05-.33-.07-.68-.02-.35-.05-.7-.07-1.05-.04-.64-.03-1.29 0-1.94 0-.495.03-.989.09-1.48Z"/>
  <path fill="#fff" fill-rule="evenodd" d="M31.75 24.58c.01.25.02.5.05.75.041.301.091.598.142.893l.068.407a.18.18 0 0 1 0 .16.38.38 0 0 1-.45.15.29.29 0 0 1-.11-.11c-.04-.09-.07-.18-.1-.27-.019-.057-.01-.066-.01-.067l-.02-.003c-.023-.006-.095.057-.175.127-.06.053-.124.109-.175.143a1.605 1.605 0 0 1-1.27.22 1.425 1.425 0 0 1-1.05-1 2.165 2.165 0 0 1-.04-1.32c.06-.298.21-.57.43-.78a1.895 1.895 0 0 1 1.57-.47c.146.02.288.063.42.13v-.08c-.02-.86.02-1.74.07-2.61a.44.44 0 0 1 .34-.41h.16c.17-.01.23.04.25.21a1.55 1.55 0 0 1-.02.43c-.048.47-.07.935-.093 1.399a14.668 14.668 0 0 0-.003 1.718c.006.128.012.256.016.383Zm-1.34 1.69a.93.93 0 0 0 .69-.89c.03-.25.02-.503-.03-.75a1.736 1.736 0 0 0-.07-.19.637.637 0 0 0-.56-.39h-.15l-.32.04a.922.922 0 0 0-.71.6c-.088.247-.122.51-.1.77a.915.915 0 0 0 1.25.81Zm4.15-2.9a1.658 1.658 0 0 1 1.44.9c.113.223.188.464.22.713.053.328.01.665-.123.97l-.037.077c-.329.64-1 1.031-1.72 1-.123.01-.247.01-.37 0a1.792 1.792 0 0 1-1.36-1.29 2.196 2.196 0 0 1 .03-.92 1.75 1.75 0 0 1 1.03-1.29 2.09 2.09 0 0 1 .89-.16Zm.56 2.8a.962.962 0 0 0 .43-.67 1.63 1.63 0 0 0-.08-.79 1 1 0 0 0-.96-.7 1.9 1.9 0 0 0-.58.09c-.36.11-.63.41-.7.78-.05.22-.05.45 0 .67.138.53.634.887 1.18.85a1.17 1.17 0 0 0 .71-.23Zm-7.35-.98c.036.451.106.9.21 1.34a.277.277 0 0 1-.19.37.295.295 0 0 1-.44-.16 1.854 1.854 0 0 1-.11-.25l-.22.15a2 2 0 0 1-1.55.33 1.75 1.75 0 0 1-1.3-1.23 1.633 1.633 0 0 1-.04-.66c.056-.505.307-.968.7-1.29a2.2 2.2 0 0 1 2.06-.25l.16.07a.2.2 0 0 0 .22 0 .473.473 0 0 1 .25-.07c.19 0 .25.07.25.25v1.4Zm-.88.82a.75.75 0 0 0 .25-.61v-.15a2 2 0 0 0-.03-.5.718.718 0 0 0-.65-.67 1.597 1.597 0 0 0-.84.03c-.611.2-.97.832-.83 1.46a.95.95 0 0 0 .25.47c.3.315.747.445 1.17.34.254-.065.488-.192.68-.37Z"/>
</svg>
