<svg xmlns="http://www.w3.org/2000/svg" viewBox="0 0 24 24"><rect width="20" height="14" x="2" y="4.75" fill="url(#a)" rx="1"/><path fill="#7375CF" d="M13.684 13.81h-2.847V8.696h2.848v5.116z"/><path fill="#EB001B" d="M11.021 11.253c0-1.037.485-1.963 1.242-2.558A3.255 3.255 0 007 11.253a3.255 3.255 0 005.265 2.558 3.244 3.244 0 01-1.243-2.558z"/><path fill="#00A2E5" d="M17.527 11.253a3.255 3.255 0 01-5.263 2.558 3.244 3.244 0 001.242-2.558 3.244 3.244 0 00-1.242-2.558 3.255 3.255 0 015.264 2.558z"/><path fill="#fff" d="M14.643 15.258c.036 0 .094.005.131.021l-.058.18a.318.318 0 00-.116-.022c-.12 0-.184.079-.184.221v.484h-.19v-.863h.185v.105a.263.263 0 01.232-.126zm-.695.19h-.306v.39c0 .083.032.141.127.141a.38.38 0 00.168-.047l.053.163a.432.432 0 01-.237.068c-.221 0-.3-.12-.3-.32v-.395h-.174v-.174h.174v-.263h.19v.263h.305v.174zm-2.406.184c.021-.127.095-.21.232-.21.121 0 .2.073.221.21h-.453zm.648.079c0-.269-.169-.453-.41-.453-.253 0-.432.184-.432.453 0 .274.184.452.442.452a.515.515 0 00.352-.12l-.094-.137a.411.411 0 01-.253.089c-.121 0-.232-.058-.258-.21h.642c.005-.027.01-.048.01-.074zm.826-.21a.565.565 0 00-.268-.074c-.106 0-.163.036-.163.1 0 .058.063.073.147.084l.09.01c.189.027.3.106.3.258 0 .163-.143.284-.395.284a.627.627 0 01-.374-.11l.09-.148c.063.048.157.09.289.09.126 0 .195-.037.195-.105 0-.048-.048-.074-.153-.09l-.09-.01c-.194-.027-.3-.116-.3-.253 0-.174.143-.279.358-.279a.66.66 0 01.353.09l-.079.152zm2.316-.07a.235.235 0 00-.105.022.241.241 0 00-.085.058c-.02.026-.042.052-.057.09a.258.258 0 00-.021.11c0 .042.005.079.02.11a.323.323 0 00.059.09.303.303 0 00.084.058.235.235 0 00.105.02.236.236 0 00.105-.02.262.262 0 00.142-.147.259.259 0 00.021-.111.244.244 0 00-.02-.11.311.311 0 00-.059-.09.3.3 0 00-.084-.058.338.338 0 00-.105-.021zm0-.173c.068 0 .132.01.184.037a.394.394 0 01.148.095c.042.042.073.09.1.142a.516.516 0 01.037.179.41.41 0 01-.037.179.349.349 0 01-.1.142.395.395 0 01-.148.095.546.546 0 01-.184.036.412.412 0 01-.184-.036.395.395 0 01-.148-.095.533.533 0 01-.1-.142.518.518 0 01-.036-.18c0-.062.01-.126.036-.178a.35.35 0 01.1-.142.394.394 0 01.148-.095.412.412 0 01.184-.037zm-4.885.453c0-.153.1-.28.264-.28.158 0 .258.122.258.28 0 .158-.106.274-.258.274-.164 0-.264-.122-.264-.274zm.7 0v-.432h-.189v.105c-.058-.079-.147-.126-.274-.126-.242 0-.431.19-.431.453s.19.452.431.452c.121 0 .21-.047.274-.126v.105h.19v-.431zm-1.057.431V15.6c0-.205-.132-.342-.343-.342-.11 0-.226.032-.305.153a.315.315 0 00-.284-.153.286.286 0 00-.253.127v-.106h-.19v.863h.19v-.479c0-.147.085-.231.21-.231.127 0 .19.079.19.226v.48h.19v-.48c0-.147.09-.231.21-.231.127 0 .19.079.19.226v.479h.195v.01z"/><defs><linearGradient id="a" x1="21.977" x2="21.977" y1="18.421" y2="4.426" gradientUnits="userSpaceOnUse"><stop stop-color="#0B0A0C"/><stop offset=".27" stop-color="#100F12"/><stop offset=".63" stop-color="#1F1E22"/><stop offset="1" stop-color="#35333A"/></linearGradient></defs></svg>