<svg id="Store_Colors_StoreLocation-bm_48px" xmlns="http://www.w3.org/2000/svg" viewBox="0 0 48 48"><path fill="#fff" d="M14 10h20v16H14V10z"/><path fill-rule="evenodd" d="M25.06 43.06L23.999 42l-1.018 1.102-.003-.003-.009-.008-.03-.028a39.052 39.052 0 01-.54-.513 89.644 89.644 0 01-6.171-6.583c-1.717-2.034-3.489-4.35-4.904-6.691-1.399-2.317-2.525-4.78-2.814-7.09C7.41 13.377 14.012 4.5 24 4.5c5.032 0 9.188 2.522 11.921 5.938 2.714 3.392 4.132 7.798 3.564 11.774-.296 2.068-1.434 4.41-2.818 6.654-1.408 2.281-3.172 4.62-4.881 6.709a113.85 113.85 0 01-6.571 7.33l-.113.114-.03.03-.008.008-.003.003zM23.999 42l1.06 1.06a1.5 1.5 0 01-2.078.042L24 42zm-8-26a1 1 0 00-.707 1.707l8 8a1 1 0 001.415 0l8-8A1 1 0 0032 16H16z"/></svg>