<svg id="Store_Colors_RelayLocation_32px" xmlns="http://www.w3.org/2000/svg" viewBox="0 0 32 32"><g fill-rule="evenodd"><path fill="#006902" d="M16 3c-5.918.011-10.71 4.812-10.71 10.73 0 5 7.64 12.88 10 15.2a1 1 0 001.4 0c2.37-2.32 10-10.19 10-15.2C26.69 7.82 21.91 3.022 16 3z"/><path fill="#fff" d="M16 6.76l4.72 2.83-1.8 1.08-4.72-2.85L16 6.76zm-.52 12.3l-4.71-2.83v-5.69l4.67 2.81.04 5.71zm-4.2-9.47l1.89-1.14 4.74 2.85L16 12.43l-4.72-2.84zm10 6.64l-4.71 2.83v-5.69l4.67-2.81.04 5.67z"/></g></svg>