<svg xmlns="http://www.w3.org/2000/svg" viewBox="0 0 48 48">
    
  <path fill="#006902" fill-rule="evenodd" d="M40.5 20.51c0-9.113-7.387-16.5-16.5-16.5S7.5 11.397 7.5 20.51a13.26 13.26 0 0 0 1.35 5.27c.12.27.25.54.38.81.27.54.56 1.09.87 1.63a46.775 46.775 0 0 0 2.66 4.1c.59.81 1.19 1.61 1.81 2.38.62.77 1.24 1.54 1.86 2.27.41.49.82 1 1.23 1.42 1.41 1.59 2.75 3 3.83 4.1l.85.86a2.34 2.34 0 0 0 3.32 0l.85-.86c1.08-1.1 2.41-2.51 3.83-4.1.4-.46.82-.93 1.23-1.42.62-.73 1.24-1.49 1.86-2.27.62-.78 1.22-1.57 1.81-2.38a46.775 46.775 0 0 0 2.66-4.1c.31-.54.6-1.09.87-1.63.13-.27.26-.54.38-.81a13.26 13.26 0 0 0 1.35-5.27Z"/>
  <path fill="#fff" d="m30.22 18.7-5.42-5.42a1.13 1.13 0 0 0-1.58 0L17.8 18.7l-1.45 1.46a1.11 1.11 0 0 0 .79 1.9h13.74a1.11 1.11 0 0 0 .79-1.9l-1.45-1.46Z"/>
</svg>
