<svg xmlns="http://www.w3.org/2000/svg" viewBox="0 0 64 64"><defs><style>.cls-1{fill:none;}.cls-2{fill:#999;}</style></defs><title>Instruction_Hygiene_Mask_64px</title><g id="Square"><rect class="cls-1" width="64" height="64"/></g><g id="Icon"><path class="cls-2" d="M18.49,31.86A27.92,27.92,0,0,0,32,35a27.92,27.92,0,0,0,13.51-3.14,1,1,0,0,0-1-1.72A26.47,26.47,0,0,1,32,33a26.47,26.47,0,0,1-12.49-2.86,1,1,0,1,0-1,1.72Z"/><path class="cls-2" d="M44.33,34.76C44.27,34.81,38.52,40,32,40s-12.27-5.19-12.33-5.24a1,1,0,0,0-1.35,1.48C18.58,36.47,24.7,42,32,42s13.42-5.53,13.68-5.76a1,1,0,0,0-1.35-1.48Z"/><path class="cls-2" d="M23.29,23.46a21.84,21.84,0,0,0,8-4.89,1,1,0,0,1,1.34,0,21.84,21.84,0,0,0,8,4.89,1,1,0,1,0,.58-1.92A20.27,20.27,0,0,1,34,17.09a3,3,0,0,0-4,0,20.27,20.27,0,0,1-7.27,4.45,1,1,0,0,0,.58,1.92Z"/><path class="cls-2" d="M59,28.93a6.65,6.65,0,0,0-2.1-5.27A7.47,7.47,0,0,0,52.33,22l.16-1.33a1.51,1.51,0,0,0-.37-1.18A1.49,1.49,0,0,0,51,19H50a16.29,16.29,0,0,1-11.83-5.45A8.09,8.09,0,0,0,32,11a8.09,8.09,0,0,0-6.15,2.55A16.29,16.29,0,0,1,14,19H13a1.49,1.49,0,0,0-1.12.5,1.51,1.51,0,0,0-.37,1.18L11.67,22A7.47,7.47,0,0,0,7.1,23.66,6.65,6.65,0,0,0,5,28.93C5,36.05,13,41,15.7,42.46a14.13,14.13,0,0,0,2.57,2.79C21.45,47.87,26.42,51,32,51s10.55-3.13,13.73-5.75a14.13,14.13,0,0,0,2.57-2.79C51,41,59,36.05,59,28.93Zm-52,0a4.73,4.73,0,0,1,1.4-3.75A5.71,5.71,0,0,1,11.91,24l1.54,12.66A14.58,14.58,0,0,0,14,39.05C11,36.94,7,33.34,7,28.93Zm36.83,14C41,45.25,36.69,48,32,48s-9-2.75-11.83-5.07a10.5,10.5,0,0,1-3.74-6.65L14.69,22A19.34,19.34,0,0,0,28,15.6,5.11,5.11,0,0,1,32,14a5.11,5.11,0,0,1,4,1.6A19.34,19.34,0,0,0,49.31,22L47.58,36.25A10.55,10.55,0,0,1,43.83,42.93ZM50,39.05a13.84,13.84,0,0,0,.56-2.41L52.09,24a5.71,5.71,0,0,1,3.51,1.18A4.73,4.73,0,0,1,57,28.93C57,33.34,53,36.94,50,39.05Z"/></g></svg>