<svg xmlns="http://www.w3.org/2000/svg" viewBox="0 0 64 64"><defs><style>.cls-1{fill:none;}.cls-2{fill:#999;}</style></defs><title>Instruction_Hygiene_Plexiglas_64px</title><g id="Square"><rect class="cls-1" width="64" height="64"/></g><g id="Icon"><path class="cls-2" d="M47,18a.5.5,0,0,0,1,0,2.5,2.5,0,0,1,2.5-2.5.5.5,0,0,0,0-1A2.5,2.5,0,0,1,48,12a.5.5,0,0,0-1,0,2.5,2.5,0,0,1-2.5,2.5.5.5,0,0,0,0,1A2.5,2.5,0,0,1,47,18Z"/><path class="cls-2" d="M38.5,37A8.51,8.51,0,0,1,47,45.5a1,1,0,0,0,2,0A8.51,8.51,0,0,1,57.5,37a1,1,0,0,0,0-2A8.51,8.51,0,0,1,49,26.5a1,1,0,0,0-2,0A8.51,8.51,0,0,1,38.5,35a1,1,0,0,0,0,2ZM48,31a10.59,10.59,0,0,0,5,5,10.59,10.59,0,0,0-5,5,10.59,10.59,0,0,0-5-5A10.59,10.59,0,0,0,48,31Z"/><path class="cls-2" d="M42.5,23a1,1,0,0,0,0-2,6,6,0,0,1-6-6,1,1,0,0,0-2,0,6,6,0,0,1-6,6,1,1,0,0,0,0,2,6,6,0,0,1,6,6,1,1,0,0,0,2,0A6,6,0,0,1,42.5,23Zm-7,2.13A8.12,8.12,0,0,0,32.37,22a8.12,8.12,0,0,0,3.13-3.13A8.12,8.12,0,0,0,38.63,22,8.12,8.12,0,0,0,35.5,25.13Z"/><path class="cls-2" d="M59,30V7a2,2,0,0,0-2-2H7A2,2,0,0,0,5,7V57a2,2,0,0,0,2,2H22a2,2,0,0,0,2-2V49H40v8a2,2,0,0,0,2,2H57a2,2,0,0,0,2-2V41.5a1.5,1.5,0,0,0-3,0V56H43V48a2,2,0,0,0-2-2H23a2,2,0,0,0-2,2v8H8V8H56V30a1.5,1.5,0,0,0,3,0Z"/><path class="cls-2" d="M12.71,17.71l5-5a1,1,0,0,0-1.42-1.42l-5,5a1,1,0,0,0,0,1.42,1,1,0,0,0,1.42,0Z"/><path class="cls-2" d="M12.5,25.5a1,1,0,0,0,.71-.29l12-12a1,1,0,0,0-1.42-1.42l-12,12a1,1,0,0,0,0,1.42A1,1,0,0,0,12.5,25.5Z"/></g></svg>