<svg xmlns="http://www.w3.org/2000/svg" viewBox="0 0 64 64"><defs><style>.cls-1{fill:none;}.cls-2{fill:#999;}</style></defs><title>Instruction_Service_PurchaseHelp_Car--OpenBoot_64px</title><g id="Square"><rect class="cls-1" width="64" height="64"/></g><g id="Icon"><path class="cls-2" d="M57.45,28.2,45.26,25.38l-4.53-4.52a5.46,5.46,0,0,0-3.89-1.61H26.24a7.48,7.48,0,0,0-3.81,1.05l-9.52-9.51a2,2,0,0,0-2.82,0L8.44,12.44a1.5,1.5,0,0,0,2.12,2.12l.94-.94,8.31,8.32-5,3.18a2.47,2.47,0,0,1-.77.32L6.54,27.2A2,2,0,0,0,5,29.15v7.68a2,2,0,0,0,1.67,2l5.93,1a6,6,0,0,0,11.7.46H40.7a6,6,0,0,0,11.6,0H57a2,2,0,0,0,2-2v-8.1A2,2,0,0,0,57.45,28.2ZM18.5,41.75a3,3,0,0,1-3-3l.15-.88a3,3,0,1,1,2.85,3.88Zm28,0a3,3,0,1,1,3-3A3,3,0,0,1,46.5,41.75Zm9.5-4.5H52.3a6,6,0,0,0-11.6,0H24.3a6,6,0,0,0-11.46-.46L8,36v-6l6.69-1.58a5.39,5.39,0,0,0,1.68-.7L23.83,23a4.46,4.46,0,0,1,2.41-.7h10.6a2.49,2.49,0,0,1,1.77.73l5.13,5.14L56,30.94Z"/><path class="cls-2" d="M57.5,48H6.5a1.5,1.5,0,0,0,0,3h51a1.5,1.5,0,0,0,0-3Z"/></g></svg>