<svg xmlns="http://www.w3.org/2000/svg" viewBox="0 0 64 64"><defs><style>.cls-1{fill:none;}.cls-2{fill:#999;}</style></defs><title>Instruction_Hygiene_Distance_64px</title><g id="Square"><rect class="cls-1" width="64" height="64"/></g><g id="Icon"><path class="cls-2" d="M6.5,5A1.5,1.5,0,0,0,5,6.5v51a1.5,1.5,0,0,0,3,0V6.5A1.5,1.5,0,0,0,6.5,5Z"/><path class="cls-2" d="M57.5,5A1.5,1.5,0,0,0,56,6.5v51a1.5,1.5,0,0,0,3,0V6.5A1.5,1.5,0,0,0,57.5,5Z"/><path class="cls-2" d="M47.56,25.94a1.5,1.5,0,0,0-2.12,2.12l2.44,2.44H16.12l2.44-2.44a1.5,1.5,0,0,0-2.12-2.12l-5,5a1.49,1.49,0,0,0,0,2.12l5,5a1.5,1.5,0,0,0,2.12,0,1.49,1.49,0,0,0,0-2.12L16.12,33.5H47.88l-2.44,2.44a1.49,1.49,0,0,0,0,2.12,1.5,1.5,0,0,0,2.12,0l5-5a1.49,1.49,0,0,0,0-2.12Z"/></g></svg>