<svg xmlns="http://www.w3.org/2000/svg" viewBox="0 0 64 64"><defs><style>.cls-1{fill:none;}.cls-2{fill:#999;}</style></defs><title>Instruction_Service_PurchaseHelp_NoCarRent_64px</title><g id="Square"><rect class="cls-1" width="64" height="64"/></g><g id="Icon"><path class="cls-2" d="M32,5A27,27,0,1,0,59,32,27,27,0,0,0,32,5Zm0,3a24,24,0,0,1,15.87,6L44,17.88v-.07A1.49,1.49,0,0,0,42.5,16.5h-5V15A1.5,1.5,0,0,0,36,13.5H21.5A1.5,1.5,0,0,0,20,15V28.5A1.5,1.5,0,0,0,21.5,30h2.14a4,4,0,0,0,3.86,3,3.93,3.93,0,0,0,1.86-.48l-4,4a18.38,18.38,0,0,0-7.56,1.88l-2.74,1.36a1,1,0,1,0,.88,1.79l2.75-1.36a16.31,16.31,0,0,1,4.42-1.42L14,47.87A24,24,0,0,1,32,8ZM45,22.5V28H43.11a4,4,0,0,0-2.3-2.68l2.81-2.82ZM31.36,30h.52l-.86.86A4.28,4.28,0,0,0,31.36,30Zm2.52-2H31.36a4,4,0,0,0-7.72,0H22V15.5H35.5v5a1,1,0,0,0,2,0v-2h4.57l.16,1.15ZM29.5,29a2,2,0,1,1-2-2A2,2,0,0,1,29.5,29Zm7.76-.14L39.11,27h.14a2,2,0,1,1-2,2C37.25,29,37.26,28.9,37.26,28.86ZM32,56a24,24,0,0,1-15.87-6L27.62,38.5H36a1.51,1.51,0,0,1,0,3H30.18a1,1,0,0,0,0,2H36a3.44,3.44,0,0,0,2.43-1l7.73-3.1a1.67,1.67,0,0,1,2.15.9,1.7,1.7,0,0,1-.91,2.27l-13.76,5.5a4.42,4.42,0,0,1-1.86.41H23.18a1,1,0,0,0,0,2h8.64a6.4,6.4,0,0,0,2.65-.57l13.71-5.48a3.7,3.7,0,0,0-2.72-6.88l-5.94,2.37A3.49,3.49,0,0,0,36,36.5H29.62l5.95-5.94A4,4,0,0,0,43.11,30H45.5A1.5,1.5,0,0,0,47,28.5V22a1.5,1.5,0,0,0-1.39-1.49L50,16.13A24,24,0,0,1,32,56Z"/></g></svg>