<svg xmlns="http://www.w3.org/2000/svg" viewBox="0 0 64 64"><defs><style>.cls-1{fill:none;}.cls-2{fill:#999;}</style></defs><title>Instruction_Service_PurchaseHelp_Car--StandInLine_64px</title><g id="Square"><rect class="cls-1" width="64" height="64"/></g><g id="Icon"><path class="cls-2" d="M17.5,44.75a6,6,0,0,0,5.8-4.5H28a2,2,0,0,0,2-2v-8.1a2,2,0,0,0-1.55-1.95L16.26,25.38l-4.53-4.52a5.46,5.46,0,0,0-3.89-1.61H5v3H7.84A2.49,2.49,0,0,1,9.61,23l5.13,5.14L27,30.94v6.31H23.3a6,6,0,0,0-11.6,0H5v3h6.7A6,6,0,0,0,17.5,44.75Zm0-9a3,3,0,1,1-3,3A3,3,0,0,1,17.5,35.75Z"/><path class="cls-2" d="M57.5,48H6.5a1.5,1.5,0,0,0,0,3h51a1.5,1.5,0,0,0,0-3Z"/><path class="cls-2" d="M44.69,28.36a5.39,5.39,0,0,0,1.68-.7L53.83,23a4.46,4.46,0,0,1,2.41-.7H59v-3H56.24a7.49,7.49,0,0,0-4,1.16l-7.46,4.71a2.47,2.47,0,0,1-.77.32L36.54,27.2A2,2,0,0,0,35,29.15v7.68a2,2,0,0,0,1.67,2l5.93,1a6,6,0,0,0,11.7.46H59v-3H54.3a6,6,0,0,0-11.46-.46L38,36v-6Zm3.81,7.39a3,3,0,1,1-3,3A3,3,0,0,1,48.5,35.75Z"/></g></svg>