<svg xmlns="http://www.w3.org/2000/svg" viewBox="0 0 314 65">
      <g id="Square"> </g>
  <path d="M130.046 20.535c0-.69.276-1.352.766-1.84a2.62 2.62 0 0 1 3.696 0c.49.488.765 1.15.765 1.84v14.05a11.65 11.65 0 0 1-3.43 8.237 11.757 11.757 0 0 1-8.269 3.426 11.755 11.755 0 0 1-8.274-3.415 11.65 11.65 0 0 1-3.442-8.232V20.55a2.59 2.59 0 0 1 .689-1.967 2.607 2.607 0 0 1 1.917-.835 2.628 2.628 0 0 1 1.918.834 2.588 2.588 0 0 1 .688 1.967V34.6a6.523 6.523 0 0 0 1.928 4.566 6.58 6.58 0 0 0 4.591 1.909 6.548 6.548 0 0 0 4.595-1.91 6.49 6.49 0 0 0 1.908-4.58l-.046-14.05Zm24.722 20.525c.694 0 1.358.274 1.849.762a2.596 2.596 0 0 1 0 3.68 2.622 2.622 0 0 1-1.849.761h-7.256a9.814 9.814 0 0 1-6.925-2.855 9.726 9.726 0 0 1-2.869-6.894v-15.98c0-.685.274-1.343.761-1.828a2.606 2.606 0 0 1 3.675 0c.487.485.761 1.143.761 1.829v15.948c0 1.218.486 2.386 1.351 3.247a4.622 4.622 0 0 0 3.261 1.345h7.241v-.016Zm-43.924 2.31a2.586 2.586 0 0 1-.471 2.01 2.602 2.602 0 0 1-1.793 1.039 2.624 2.624 0 0 1-1.987-.59 2.596 2.596 0 0 1-.93-1.846l-2.23-18.718-7.979 18.366a2.608 2.608 0 0 1-1.431 1.387 2.624 2.624 0 0 1-1.998-.025 2.561 2.561 0 0 1-1.352-1.362l-7.98-18.366-2.244 18.718a2.59 2.59 0 0 1-.93 1.846 2.617 2.617 0 0 1-1.988.59 2.621 2.621 0 0 1-1.793-1.037 2.595 2.595 0 0 1-.47-2.011l2.629-21.734a4.166 4.166 0 0 1 .737-1.901c.4-.564.933-1.02 1.553-1.328a3.8 3.8 0 0 1 .508-.23h.2c.248-.086.506-.143.768-.168a4.462 4.462 0 0 1 3.644 1.148 4.27 4.27 0 0 1 .83 1.087c.057.093.109.19.154.29l6.765 15.612 6.764-15.734a4.284 4.284 0 0 1 1.237-1.604 4.313 4.313 0 0 1 1.838-.86 6.2 6.2 0 0 1 .769-.108h.799a4.409 4.409 0 0 1 3.26 2.066c.145.237.264.488.353.75.065.163.111.333.139.506a2.69 2.69 0 0 1 0 .336l2.629 21.872Zm55.301.292c0 .69-.275 1.352-.765 1.84a2.621 2.621 0 0 1-3.697 0 2.596 2.596 0 0 1-.765-1.84V23.137h-7.426a2.62 2.62 0 0 1-1.848-.762 2.597 2.597 0 0 1-.766-1.84c0-.69.276-1.352.766-1.84a2.62 2.62 0 0 1 1.848-.762h20.079a2.62 2.62 0 0 1 1.848.762c.49.488.766 1.15.766 1.84 0 .69-.276 1.352-.766 1.84a2.62 2.62 0 0 1-1.848.762h-7.426v20.525Zm16.297 0c0 .69-.275 1.352-.765 1.84a2.622 2.622 0 0 1-3.697 0 2.596 2.596 0 0 1-.765-1.84V20.535c0-.69.275-1.352.765-1.84a2.621 2.621 0 0 1 3.697 0c.49.488.765 1.15.765 1.84v23.127Zm53.518-.291a2.587 2.587 0 0 1-.595 1.832 2.625 2.625 0 0 1-3.567.432 2.601 2.601 0 0 1-1.019-1.636l-.922-7.347h-8.979a2.624 2.624 0 0 1-1.976-.685 2.603 2.603 0 0 1-.838-1.91 2.595 2.595 0 0 1 .838-1.908 2.613 2.613 0 0 1 1.976-.686h8.395l-.246-1.913v-.183a10.44 10.44 0 0 0-.292-1.332 8.672 8.672 0 0 0-.539-1.362 5.915 5.915 0 0 0-2.133-2.517 5.956 5.956 0 0 0-3.155-.988 6.181 6.181 0 0 0-1.323.153c-.406.1-.798.25-1.168.444a7.291 7.291 0 0 0-2.538 2.443 7.237 7.237 0 0 0-1.09 3.342L215.159 44a2.575 2.575 0 0 1-.958 1.735 2.604 2.604 0 0 1-4.12-1.296 2.588 2.588 0 0 1-.088-1.006l1.63-14.448a12.393 12.393 0 0 1 1.976-5.735 12.46 12.46 0 0 1 4.466-4.122c.734-.367 1.507-.65 2.306-.842.832-.192 1.683-.29 2.537-.29a11.03 11.03 0 0 1 5.901 1.749 10.954 10.954 0 0 1 4.03 4.633c.357.71.655 1.447.892 2.204.2.697.349 1.409.446 2.128a.591.591 0 0 1 0 .23l1.783 14.432Zm7.98.291a2.603 2.603 0 0 1-1.56 2.584 2.623 2.623 0 0 1-2.964-.617 2.603 2.603 0 0 1-.688-1.967V22.234a2.058 2.058 0 0 1 0-.444c.034-.287.101-.57.2-.842l.215-.459a3.75 3.75 0 0 1 2.045-1.699l.354-.092h.968a3.704 3.704 0 0 1 2.752 1.409l13.837 17.647V20.535c0-.69.276-1.352.766-1.84a2.62 2.62 0 0 1 3.696 0c.49.488.765 1.15.765 1.84v21.428a3.653 3.653 0 0 1-1.368 2.831 3.335 3.335 0 0 1-.861.52l-.215.092a3.69 3.69 0 0 1-2.798-.153l-.338-.168a3.078 3.078 0 0 1-.508-.398 3.533 3.533 0 0 1-.338-.337l-.092-.107-13.868-17.708v17.127Zm40.773-2.602a2.62 2.62 0 0 1 1.848.762 2.597 2.597 0 0 1 0 3.68 2.62 2.62 0 0 1-1.848.762h-7.687a10.31 10.31 0 0 1-7.273-3 10.216 10.216 0 0 1-3.013-7.24v-7.82a10.248 10.248 0 0 1 3.022-7.232c1.927-1.919 4.538-3 7.264-3.008h7.687a2.62 2.62 0 0 1 1.848.762 2.597 2.597 0 0 1 0 3.68 2.62 2.62 0 0 1-1.848.762h-7.687a5.13 5.13 0 0 0-3.598 1.53 5.023 5.023 0 0 0-1.129 1.63 4.986 4.986 0 0 0-.408 1.937v7.82a5.083 5.083 0 0 0 1.499 3.574 5.132 5.132 0 0 0 3.59 1.493h7.687l.046-.092Zm15.113-17.938a7.122 7.122 0 0 0-4.936 1.959 6.366 6.366 0 0 0-2.014 4.591v4.852a6.347 6.347 0 0 0 1.999 4.592 7.122 7.122 0 0 0 4.935 1.96 7.118 7.118 0 0 0 4.935-1.96 6.354 6.354 0 0 0 2.015-4.592v-4.852a6.395 6.395 0 0 0-1.999-4.591 7.198 7.198 0 0 0-4.951-1.96m0-5.188a12.328 12.328 0 0 1 8.548 3.398 11.52 11.52 0 0 1 2.664 3.794c.621 1.431.944 2.973.949 4.532v4.852a11.476 11.476 0 0 1-.949 4.532 11.52 11.52 0 0 1-2.664 3.794 12.328 12.328 0 0 1-8.548 3.398 12.33 12.33 0 0 1-8.548-3.398 11.578 11.578 0 0 1-2.652-3.798c-.618-1.43-.94-2.97-.945-4.528v-4.852a11.51 11.51 0 0 1 .945-4.528 11.578 11.578 0 0 1 2.652-3.798 12.33 12.33 0 0 1 8.548-3.398Zm-109.973 5.204V41.06h10.086a3.284 3.284 0 0 0 3.03-2.023 3.24 3.24 0 0 0 .244-1.253 3.236 3.236 0 0 0-.86-2.204l-.108-.091a3.217 3.217 0 0 0-2.306-.98h-3.475a2.62 2.62 0 0 1-1.848-.762 2.596 2.596 0 0 1 0-3.68 2.62 2.62 0 0 1 1.848-.762h1.184a3.22 3.22 0 0 0 1.968-.903 3.044 3.044 0 0 0 .922-2.189c0-.812-.324-1.59-.9-2.164a3.084 3.084 0 0 0-2.175-.897h-7.61v-.015Zm-5.227 8.8V20.643a2.498 2.498 0 0 1 .215-1.025c.145-.334.348-.64.6-.903a2.68 2.68 0 0 1 1.722-.735h10.224c2.206 0 4.321.872 5.881 2.425a8.26 8.26 0 0 1 2.436 5.855 8.349 8.349 0 0 1-1.276 4.408 8.331 8.331 0 0 1 1.537 1.163l.17.184a8.397 8.397 0 0 1 2.321 5.8 8.443 8.443 0 0 1-2.49 5.97 8.522 8.522 0 0 1-5.997 2.48h-12.729a2.622 2.622 0 0 1-1.849-.763 2.596 2.596 0 0 1-.765-1.84V31.939Z"/>
  <path fill-rule="evenodd" d="M33.214 62.004h25.929c5.916 0 5.978-6.262 5.374-9.353-.33-2.08-3.878-2.047-4.268 0v2.411a2.005 2.005 0 0 1-.592 1.417 2.021 2.021 0 0 1-1.423.589H8.531a2.023 2.023 0 0 1-1.423-.589 2.005 2.005 0 0 1-.592-1.417v-2.41c-.39-2.047-3.939-2.08-4.268 0-.604 3.09-.542 9.352 5.374 9.352h25.592Zm-18.326-60h39.974c2.809 0 5.107 2.424 5.107 5.383v2.57c0 3.636-4.934 3.62-4.934.025v-1.4c0-.434-.173-.85-.482-1.157a1.648 1.648 0 0 0-1.163-.48H13.334c-.436 0-.855.173-1.163.48a1.634 1.634 0 0 0-.482 1.157v1.376c0 3.614-4.712 3.59-4.712.078V7.39c.012-2.96 2.307-5.387 5.115-5.387h2.796Zm44.075 29.558a7.894 7.894 0 0 1 3.37 2.846 7.842 7.842 0 0 1 1.309 4.203c0 4.33-3.8 7.876-8.442 7.876H42.178a2.156 2.156 0 0 1-1.527-.572 2.137 2.137 0 0 1-.685-1.475V19.765a2.165 2.165 0 0 1 .64-1.527c.408-.405.96-.633 1.535-.634h10.843a8.304 8.304 0 0 1 4.574 1.36 8.248 8.248 0 0 1 3.059 3.648 8.205 8.205 0 0 1-1.654 8.95Zm-9.717-2.006h4.133v-.044a3.956 3.956 0 0 0 2.384-1.323c.612-.709.95-1.611.955-2.546a3.917 3.917 0 0 0-1.155-2.763 3.952 3.952 0 0 0-2.776-1.15H44.46v20.467h10.555a4.078 4.078 0 0 0 2.956-1.138 4.044 4.044 0 0 0 1.236-2.904 4.029 4.029 0 0 0-1.236-2.905 4.063 4.063 0 0 0-2.956-1.138h-5.769a2.29 2.29 0 0 1-1.613-.665 2.271 2.271 0 0 1-.669-1.606 2.263 2.263 0 0 1 .669-1.607 2.283 2.283 0 0 1 1.613-.665"/>
  <path d="M37.898 44.027a2.59 2.59 0 0 1-.523 1.97 2.612 2.612 0 0 1-1.79.991 2.628 2.628 0 0 1-1.957-.596 2.604 2.604 0 0 1-.927-1.817l-2.15-19.611-7.57 19.177v.233c-.166.29-.388.543-.654.745l-.041.033a2.36 2.36 0 0 1-.452.32l-.05.024-.045.025h-.259a2.497 2.497 0 0 1-.765.143h-.189a2.512 2.512 0 0 1-.855-.176h-.213l-.046-.025-.041-.024h-.025a2.468 2.468 0 0 1-.411-.274l-.086-.078-.066-.062-.157-.04-.078-.087a2.452 2.452 0 0 1-.275-.409v-.024l-.025-.041-.024-.045v-.193l-7.71-19.222-2.142 19.611a2.596 2.596 0 0 1-.956 1.748 2.62 2.62 0 0 1-3.672-.388 2.591 2.591 0 0 1-.565-1.908l2.524-23.12A4.32 4.32 0 0 1 7.54 17.84a4.344 4.344 0 0 1 1.897-.731h.14c.22-.016.441-.016.662 0a4.297 4.297 0 0 1 2.635 1.036 4.27 4.27 0 0 1 1.193 1.682l6.471 16.283 6.46-16.336a4.281 4.281 0 0 1 1.507-1.927 4.31 4.31 0 0 1 2.321-.791c.22-.017.442-.017.662 0h.14a4.354 4.354 0 0 1 3.248 2.242c.126.243.232.495.317.754.083.267.14.54.168.819l2.537 23.156Z"/>
</svg>
