<svg xmlns="http://www.w3.org/2000/svg" viewBox="0 0 47 24">
    <g id="Square"> </g>
  <path fill-rule="evenodd" d="M4.735 2H42.07a2.468 2.468 0 0 1 2.467 2.464v15.072A2.468 2.468 0 0 1 42.07 22H4.735a2.468 2.468 0 0 1-2.466-2.464V4.464A2.468 2.468 0 0 1 4.735 2ZM18.4 6.653a2.209 2.209 0 1 0-4.417-.03 2.209 2.209 0 0 0 4.417.03ZM13.718 9.88a4.664 4.664 0 0 0-2.215.556V5.138h-2.47v9.424a4.683 4.683 0 1 0 4.685-4.682Zm0 6.936a2.254 2.254 0 1 1 0-4.508 2.254 2.254 0 0 1 0 4.508Zm6.42-11.678h2.468v14.01h-2.469V5.137Zm7.128 4.833h-2.469v9.176h2.47V9.971Zm11.303 9.177h-3.18l-3.466-4.897.002 4.897h-2.47V5.14h2.47v9.099l3.403-4.267h2.884l-3.464 4.24 3.82 4.936Z"/>
</svg>
