<svg xmlns="http://www.w3.org/2000/svg" viewBox="0 0 314 65">
  <g id="Square"> </g>
  <path d="M130.046 20.535c0-.69.275-1.352.766-1.84a2.62 2.62 0 0 1 3.696 0c.49.488.765 1.15.765 1.84v14.05a11.65 11.65 0 0 1-3.43 8.237 11.758 11.758 0 0 1-8.27 3.426 11.758 11.758 0 0 1-8.274-3.415 11.654 11.654 0 0 1-3.441-8.233V20.55a2.592 2.592 0 0 1 .689-1.967 2.606 2.606 0 0 1 1.917-.834 2.623 2.623 0 0 1 1.918.834 2.602 2.602 0 0 1 .688 1.967V34.6a6.522 6.522 0 0 0 1.928 4.566 6.58 6.58 0 0 0 4.591 1.909 6.548 6.548 0 0 0 4.595-1.91 6.49 6.49 0 0 0 1.908-4.58l-.046-14.05Zm24.722 20.525c.694 0 1.358.273 1.848.761a2.593 2.593 0 0 1 0 3.68 2.617 2.617 0 0 1-1.848.762h-7.256a9.814 9.814 0 0 1-6.925-2.855 9.727 9.727 0 0 1-2.869-6.895V20.535c0-.686.274-1.344.761-1.83a2.603 2.603 0 0 1 3.675 0c.487.486.761 1.144.761 1.83v15.948c0 1.218.486 2.386 1.351 3.247a4.622 4.622 0 0 0 3.261 1.345h7.241v-.016Zm-43.924 2.31a2.599 2.599 0 0 1-1.26 2.714 2.618 2.618 0 0 1-2.992-.256 2.605 2.605 0 0 1-.93-1.845l-2.229-18.719-7.98 18.367a2.609 2.609 0 0 1-1.43 1.386 2.625 2.625 0 0 1-1.998-.024 2.562 2.562 0 0 1-1.353-1.362l-7.979-18.367-2.245 18.719a2.593 2.593 0 0 1-.93 1.845 2.618 2.618 0 0 1-2.991.256 2.608 2.608 0 0 1-1.234-1.66 2.592 2.592 0 0 1-.026-1.054l2.63-21.733a4.168 4.168 0 0 1 .737-1.902c.4-.563.933-1.02 1.553-1.328.163-.088.333-.165.508-.23h.2a3.41 3.41 0 0 1 .768-.168 4.462 4.462 0 0 1 3.644 1.148 3.9 3.9 0 0 1 .522.597c.114.156.217.32.308.49.057.093.109.19.154.29l6.764 15.612 6.765-15.734a4.284 4.284 0 0 1 1.237-1.603 4.313 4.313 0 0 1 1.838-.861 6.18 6.18 0 0 1 .769-.107h.799a4.409 4.409 0 0 1 3.26 2.066c.145.236.264.488.353.75.064.163.111.332.139.505.007.112.007.225 0 .337l2.629 21.871Zm55.301.291c0 .69-.275 1.352-.766 1.84a2.618 2.618 0 0 1-3.696 0 2.596 2.596 0 0 1-.765-1.84V23.137h-7.426a2.62 2.62 0 0 1-1.848-.762 2.597 2.597 0 0 1-.766-1.84c0-.69.276-1.352.766-1.84a2.62 2.62 0 0 1 1.848-.762h20.079a2.62 2.62 0 0 1 1.848.762 2.596 2.596 0 0 1 0 3.68 2.62 2.62 0 0 1-1.848.762h-7.426V43.66Zm16.297 0c0 .69-.275 1.352-.766 1.84a2.62 2.62 0 0 1-3.696 0 2.596 2.596 0 0 1-.765-1.84V20.535c0-.69.275-1.352.765-1.84a2.62 2.62 0 0 1 3.696 0c.491.488.766 1.15.766 1.84V43.66Zm53.518-.291a2.596 2.596 0 0 1-.595 1.832 2.624 2.624 0 0 1-3.567.432 2.601 2.601 0 0 1-1.019-1.636l-.922-7.346h-8.979a2.624 2.624 0 0 1-1.976-.686 2.603 2.603 0 0 1-.838-1.909 2.595 2.595 0 0 1 .838-1.909 2.613 2.613 0 0 1 1.976-.685h8.395l-.246-1.913v-.184a10.26 10.26 0 0 0-.293-1.331 8.568 8.568 0 0 0-.538-1.363 5.915 5.915 0 0 0-2.133-2.516 5.956 5.956 0 0 0-3.155-.988 6.181 6.181 0 0 0-1.323.152c-.406.101-.798.25-1.168.444a7.292 7.292 0 0 0-2.538 2.443 7.238 7.238 0 0 0-1.09 3.343l-1.63 14.448a2.575 2.575 0 0 1-.958 1.735 2.602 2.602 0 0 1-2.876.25 2.584 2.584 0 0 1-1.332-2.55l1.63-14.45a12.393 12.393 0 0 1 1.976-5.734 12.46 12.46 0 0 1 4.466-4.122c.734-.367 1.507-.65 2.306-.842.832-.192 1.683-.29 2.537-.29a11.03 11.03 0 0 1 5.901 1.748 10.954 10.954 0 0 1 4.03 4.634c.357.71.655 1.446.892 2.204.2.697.349 1.408.446 2.127a.591.591 0 0 1 0 .23l1.783 14.433Zm7.98.291a2.59 2.59 0 0 1-.689 1.967 2.607 2.607 0 0 1-1.917.835 2.628 2.628 0 0 1-1.918-.834 2.588 2.588 0 0 1-.688-1.968V22.233a2.058 2.058 0 0 1 0-.443c.034-.288.101-.57.2-.842l.215-.46a3.746 3.746 0 0 1 2.045-1.698l.353-.092h.969a3.7 3.7 0 0 1 2.752 1.408l13.837 17.647V20.535c0-.69.275-1.352.765-1.84a2.621 2.621 0 0 1 3.697 0c.49.488.765 1.15.765 1.84v21.427a3.634 3.634 0 0 1-.363 1.57c-.237.49-.58.92-1.005 1.262a3.329 3.329 0 0 1-.861.52l-.215.092a3.692 3.692 0 0 1-2.799-.153l-.338-.168a3.113 3.113 0 0 1-.507-.398 3.533 3.533 0 0 1-.338-.337l-.093-.107-13.867-17.709v17.127Zm40.773-2.601a2.62 2.62 0 0 1 1.848.762 2.596 2.596 0 0 1 0 3.68 2.62 2.62 0 0 1-1.848.761h-7.688a10.307 10.307 0 0 1-7.272-2.999 10.216 10.216 0 0 1-3.013-7.24v-7.821a10.246 10.246 0 0 1 3.021-7.232c1.928-1.918 4.539-3 7.264-3.008h7.688a2.62 2.62 0 0 1 1.848.763 2.596 2.596 0 0 1 0 3.68 2.62 2.62 0 0 1-1.848.761h-7.688a5.13 5.13 0 0 0-3.597 1.531 5.023 5.023 0 0 0-1.538 3.566v7.821a5.084 5.084 0 0 0 1.5 3.574 5.13 5.13 0 0 0 3.589 1.492h7.687l.047-.092Zm15.113-17.939a7.118 7.118 0 0 0-4.935 1.96 6.353 6.353 0 0 0-2.014 4.591v4.852a6.343 6.343 0 0 0 1.998 4.592 7.122 7.122 0 0 0 4.935 1.959 7.122 7.122 0 0 0 4.936-1.96 6.366 6.366 0 0 0 2.014-4.591v-4.852a6.395 6.395 0 0 0-1.999-4.592 7.198 7.198 0 0 0-4.951-1.959m0-5.188a12.332 12.332 0 0 1 8.549 3.398 11.495 11.495 0 0 1 3.613 8.326v4.852a11.495 11.495 0 0 1-3.613 8.326 12.332 12.332 0 0 1-8.549 3.398 12.331 12.331 0 0 1-8.548-3.398 11.53 11.53 0 0 1-3.597-8.326v-4.852a11.53 11.53 0 0 1 3.597-8.326 12.331 12.331 0 0 1 8.548-3.398Zm-109.973 5.204v17.922h10.086a3.293 3.293 0 0 0 2.321-.96 3.269 3.269 0 0 0 .954-2.315 3.241 3.241 0 0 0-.861-2.204l-.108-.092a3.217 3.217 0 0 0-2.306-.98h-3.475a2.62 2.62 0 0 1-1.848-.761 2.596 2.596 0 0 1 0-3.68 2.62 2.62 0 0 1 1.848-.762h1.184a3.22 3.22 0 0 0 1.968-.903 3.06 3.06 0 0 0 .922-2.189c0-.812-.324-1.59-.9-2.164a3.083 3.083 0 0 0-2.174-.897h-7.611v-.015Zm-5.227-2.495a2.498 2.498 0 0 1 .215-1.026c.145-.334.348-.64.6-.902a2.681 2.681 0 0 1 1.722-.735h10.224c2.206 0 4.321.872 5.881 2.425a8.26 8.26 0 0 1 2.436 5.855 8.348 8.348 0 0 1-1.276 4.408 8.372 8.372 0 0 1 1.538 1.163l.169.184a8.397 8.397 0 0 1 2.321 5.8 8.443 8.443 0 0 1-2.49 5.97 8.521 8.521 0 0 1-5.996 2.48h-12.73a2.622 2.622 0 0 1-1.849-.763 2.596 2.596 0 0 1-.765-1.84v-23.02Z"/>
  <path fill-rule="evenodd" d="M59.143 62.004c5.916 0 5.978-6.263 5.374-9.353-.33-2.08-3.878-2.047-4.268 0v2.41a2.006 2.006 0 0 1-.592 1.418 2.02 2.02 0 0 1-1.423.588H8.531a2.024 2.024 0 0 1-1.423-.588 2.005 2.005 0 0 1-.592-1.417V52.65c-.39-2.047-3.939-2.08-4.268 0-.604 3.09-.542 9.353 5.374 9.353h51.52Zm-4.28-60c2.808 0 5.106 2.423 5.106 5.383v2.57c0 3.635-4.934 3.619-4.934.025v-1.4c0-.434-.173-.85-.482-1.158a1.648 1.648 0 0 0-1.163-.48H13.334c-.436 0-.855.173-1.163.48a1.634 1.634 0 0 0-.482 1.158v1.375c0 3.615-4.712 3.59-4.712.078V7.391c.012-2.96 2.307-5.387 5.115-5.387h42.77Zm4.1 29.558a7.894 7.894 0 0 1 3.37 2.846 7.843 7.843 0 0 1 1.309 4.203c0 4.33-3.8 7.875-8.442 7.875H42.178a2.156 2.156 0 0 1-1.527-.572 2.137 2.137 0 0 1-.685-1.475V19.765a2.165 2.165 0 0 1 .64-1.527c.408-.405.96-.633 1.535-.634h10.843a8.304 8.304 0 0 1 4.574 1.36 8.249 8.249 0 0 1 3.059 3.648 8.206 8.206 0 0 1-1.654 8.95Zm-9.717-2.006h4.133v-.045a3.956 3.956 0 0 0 2.384-1.322 3.93 3.93 0 0 0 .955-2.546 3.917 3.917 0 0 0-1.155-2.764 3.952 3.952 0 0 0-2.776-1.15H44.46v20.467h10.554a4.08 4.08 0 0 0 2.956-1.137 4.044 4.044 0 0 0 1.236-2.905 4.029 4.029 0 0 0-1.236-2.905 4.066 4.066 0 0 0-2.956-1.137h-5.769a2.29 2.29 0 0 1-1.613-.665 2.272 2.272 0 0 1-.669-1.607 2.262 2.262 0 0 1 .669-1.606 2.283 2.283 0 0 1 1.613-.666"/>
  <path d="M37.898 44.026a2.592 2.592 0 0 1-.523 1.97 2.612 2.612 0 0 1-1.79.991 2.625 2.625 0 0 1-1.957-.595 2.606 2.606 0 0 1-.927-1.818l-2.15-19.61-7.57 19.177v.233a2.523 2.523 0 0 1-.654.745l-.041.033c-.138.123-.29.23-.453.319l-.049.025-.045.024h-.26a2.497 2.497 0 0 1-.764.143h-.189a2.513 2.513 0 0 1-.855-.176h-.214l-.045-.024-.041-.025h-.025a2.474 2.474 0 0 1-.411-.274l-.087-.078-.065-.061-.157-.041-.078-.086a2.466 2.466 0 0 1-.275-.41v-.024l-.025-.041-.025-.045v-.192l-7.71-19.223-2.141 19.611a2.596 2.596 0 0 1-.956 1.748 2.62 2.62 0 0 1-3.672-.388 2.591 2.591 0 0 1-.565-1.908l2.524-23.12A4.321 4.321 0 0 1 7.54 17.84a4.345 4.345 0 0 1 1.897-.73h.14a4.29 4.29 0 0 1 .661 0 4.295 4.295 0 0 1 2.635 1.036c.53.455.94 1.032 1.193 1.681l6.472 16.283 6.46-16.336a4.28 4.28 0 0 1 1.507-1.927 4.31 4.31 0 0 1 2.32-.791c.221-.016.442-.016.663 0h.14a4.33 4.33 0 0 1 3.248 2.243 4.165 4.165 0 0 1 .485 1.572l2.537 23.156Z"/>
</svg>
