<svg xmlns="http://www.w3.org/2000/svg" viewBox="0 0 156 64">
      <g id="Square"> </g>
  <path d="m6.788 54.35-.214 1.628a1.327 1.327 0 0 0 1.157 1.479h52.693c.75 0 1.35-.579 1.372-1.329v-.171l-.215-1.629a2.308 2.308 0 0 1 2.057-2.528c1.243-.129 2.38.771 2.508 2.014l.214 1.586c.407 3.514-1.586 6.6-5.164 6.6H7.174c-3.557 0-5.528-3.086-5.121-6.6l.214-1.586A2.262 2.262 0 0 1 4.753 51.8c1.264.15 2.185 1.264 2.057 2.528m48.536-12.171c2.379.129 4.393-1.693 4.543-4.071v-.215c-.043-2.507-2.336-4.135-4.886-4.135H49.86c-1.2 0-2.164-.965-2.164-2.165 0-1.2.964-2.164 2.164-2.164h3.45c2.314-.086 4.114-1.5 4.222-3.686.107-2.357-1.907-4.114-4.372-4.114h-8.357v20.486h10.543M61.667 25.7a6.756 6.756 0 0 1-2.014 4.843l-.128.15.17.107a8.393 8.393 0 0 1 4.308 7.028c.064 4.736-3.707 8.636-8.443 8.743H42.617a2.24 2.24 0 0 1-2.228-2.292v-24.6c0-1.243.985-2.272 2.228-2.293H53.16c4.565-.129 8.379 3.471 8.507 8.035v.279M20.76 38.172l.064.171.065-.171c.578-1.629 1.307-3.45 2.057-5.379.75-1.928 1.543-4.028 2.314-5.914a97.57 97.57 0 0 1 2.23-5.079 18.217 18.217 0 0 1 1.714-3.107 3.443 3.443 0 0 1 2.764-1.286h.536c.6-.021 1.178.172 1.65.536.364.3.6.729.664 1.2l3.279 25.436a2.148 2.148 0 0 1-.557 1.543 2.25 2.25 0 0 1-1.586.514 2.395 2.395 0 0 1-1.65-.493 1.81 1.81 0 0 1-.771-1.286 64.81 64.81 0 0 1-.3-2.828c-.086-1.05-.665-5.465-.793-6.579-.129-1.114-1.05-8.336-1.372-10.95v-.214l-1.05 2.207c-.343.75-.75 1.672-1.157 2.722-.407 1.05-.857 2.185-1.264 3.364-.407 1.178-2.486 6.943-2.486 6.943a52.904 52.904 0 0 0-.857 2.593c-.3 1.007-.622 1.864-.707 2.014a2.95 2.95 0 0 1-3.965 1.285 3.011 3.011 0 0 1-1.328-1.307c-.086-.171-.386-1.05-.707-2.014-.322-.964-.665-2.036-.857-2.593 0 0-2.036-5.807-2.486-6.943-.45-1.135-.857-2.293-1.264-3.364a43.495 43.495 0 0 0-1.158-2.721l-1.05-2.186v.214c-.32 2.593-1.242 9.793-1.37 10.95-.13 1.157-.687 5.529-.794 6.557a139.37 139.37 0 0 1-.321 2.829 1.853 1.853 0 0 1-.772 1.286 2.634 2.634 0 0 1-1.65.492A2.25 2.25 0 0 1 4.24 46.1a2.148 2.148 0 0 1-.557-1.543l3.235-25.414c.086-.45.322-.857.665-1.136.471-.385 1.05-.6 1.65-.578h.535c1.072-.022 2.079.428 2.743 1.264a15.687 15.687 0 0 1 1.714 3.107 90.294 90.294 0 0 1 2.229 5.079 494.687 494.687 0 0 1 2.336 5.914c.75 1.95 1.457 3.75 2.035 5.379M14.31 2.021h39.879c3.75 0 5.635 2.829 6.042 6.536l.172 1.2a2.338 2.338 0 0 1-2.057 2.593 2.282 2.282 0 0 1-2.465-2.079l-.171-1.157c-.172-1.414-.75-2.507-2.207-2.507H15.017c-1.436 0-2.036 1.093-2.207 2.507l-.15 1.136a2.287 2.287 0 0 1-2.486 2.079 2.338 2.338 0 0 1-2.057-2.593l.171-1.2C8.739 4.829 10.604 2 14.332 2M92.01 27.114c-.429 1.65-.879 3.429-1.35 5.379-.471 1.95-.943 3.707-1.35 5.379a44.695 44.695 0 0 1-1.35 4.521c-.257.921-.6 1.821-1.029 2.7a2.657 2.657 0 0 1-2.55 1.264c-.45 0-.9-.085-1.35-.193-.6-.171-1.071-.6-1.35-1.157a16.31 16.31 0 0 1-1.028-2.807c-.407-1.35-.836-2.978-1.35-4.8-.514-1.821-.9-3.728-1.35-5.764-.45-2.036-.879-3.922-1.222-5.657-.342-1.736-.664-3.236-.921-4.436-.257-1.2-.386-1.95-.407-2.207v-.472c0-.492.214-.964.6-1.242a2.206 2.206 0 0 1 1.457-.472c.471 0 .943.107 1.35.343.386.3.643.729.728 1.2l.236 1.35c.15.857.386 1.864.643 3.107s.557 2.7.857 4.264c.3 1.565.643 3.172 1.007 4.8.365 1.629.707 3.172 1.05 4.693.343 1.522.665 2.807.965 3.9.3-1.028.642-2.185.985-3.514.343-1.329.75-2.7 1.115-4.029.364-1.328.707-2.807 1.028-4.221.322-1.414.643-2.7.943-3.921.3-1.222.536-2.272.75-3.215.214-.943.386-1.628.493-2.078a2.457 2.457 0 0 1 .857-1.35 2.43 2.43 0 0 1 3.15-.086c.429.343.707.814.814 1.35.365 1.457.707 3.129 1.115 4.971.407 1.843.814 3.686 1.221 5.55.407 1.865.879 3.708 1.35 5.529.472 1.821.9 3.386 1.35 4.779a84.8 84.8 0 0 0 .986-3.9c.343-1.522.686-3.065 1.05-4.693.364-1.629.728-3.172 1.05-4.757.321-1.586.643-2.979.921-4.243.279-1.265.493-2.272.643-3.065.15-.792.257-1.221.257-1.242.086-.472.343-.879.729-1.179a2.315 2.315 0 0 1 1.35-.343c.536 0 1.05.15 1.457.472.386.3.6.771.6 1.242v.493c0 .236-.171.965-.429 2.207-.257 1.243-.557 2.7-.921 4.436a441.322 441.322 0 0 1-1.221 5.636c-.45 2.014-.922 3.921-1.35 5.743-.429 1.821-.858 3.428-1.35 4.8-.258.964-.6 1.885-1.029 2.764a2.44 2.44 0 0 1-1.35 1.221c-.429.15-.879.236-1.35.236h-.557c-.257-.043-.536-.086-.772-.171a4.228 4.228 0 0 1-.814-.429 1.982 1.982 0 0 1-.643-.814 22.268 22.268 0 0 1-.964-2.85c-.386-1.35-.793-2.829-1.243-4.5-.45-1.672-.857-3.45-1.35-5.272-.493-1.821-.814-3.535-1.178-5.121m23.849 10.693c-.45 1.457-.857 2.807-1.2 4.028a36.705 36.705 0 0 1-.985 3.043 2.048 2.048 0 0 1-2.293 1.757 2.048 2.048 0 0 1-1.757-2.293c0-.192.021-.407.085-.6l.558-1.864c.321-1.05.75-2.357 1.242-3.943.493-1.586 1.093-3.278 1.715-5.164a186.539 186.539 0 0 1 1.928-5.55c.665-1.822 1.35-3.536 1.972-5.122a28.76 28.76 0 0 1 1.821-3.857c.193-.45.536-.814.986-1.028a4.423 4.423 0 0 1 1.671-.279c.579 0 1.157.086 1.715.3.45.214.814.622.964 1.093.428.9.943 2.121 1.521 3.643.579 1.521 1.222 3.171 1.865 4.95.642 1.778 1.35 3.578 1.928 5.378.579 1.8 1.222 3.558 1.757 5.143.536 1.586.986 2.958 1.35 4.029.365 1.071.622 1.843.707 2.186.065.192.108.385.086.6a1.69 1.69 0 0 1-.557 1.35 2.143 2.143 0 0 1-1.586.535 1.668 1.668 0 0 1-1.178-.343 2.16 2.16 0 0 1-.6-.964c-.3-.793-.665-1.8-1.072-3.043a296.26 296.26 0 0 0-1.35-4.028h-11.378m10.093-3.943a190.603 190.603 0 0 0-1.822-5.379c-.578-1.607-1.093-3.171-1.736-4.693a18.9 18.9 0 0 1-.471-1.178c-.171-.471-.279-.686-.3-.771a3.043 3.043 0 0 0-.3.728 10.08 10.08 0 0 1-.493 1.221c-.6 1.48-1.178 3.043-1.757 4.693-.579 1.65-1.157 3.45-1.8 5.379h8.679Zm15.514.964a3.44 3.44 0 0 1-.429-.514l-.45-.622c-.428-.6-.878-1.35-1.35-2.207-.471-.857-1.007-1.778-1.5-2.7a53.234 53.234 0 0 1-1.435-2.935c-.45-.986-.922-1.908-1.286-2.7-.364-.793-.707-1.586-.986-2.208a9.21 9.21 0 0 1-.493-1.35c-.043-.107-.085-.235-.128-.342v-.343c0-.515.193-.986.557-1.35a2.158 2.158 0 0 1 1.586-.557 1.66 1.66 0 0 1 1.35.45c.235.257.428.578.557.9l.45.985c.235.515.514 1.136.835 1.907.322.772.708 1.586 1.136 2.508.429.921.857 1.8 1.35 2.7l1.286 2.507c.343.685.728 1.328 1.157 1.971a33.627 33.627 0 0 0 1.864-3.321c.665-1.35 1.35-2.636 1.907-3.922.558-1.285 1.136-2.443 1.586-3.428l.793-1.865c.129-.321.321-.642.557-.9a1.512 1.512 0 0 1 1.35-.45 2.075 2.075 0 0 1 1.586.558c.364.342.578.835.557 1.35v.342l-.107.343-.536 1.35c-.257.643-.578 1.35-.964 2.207-.386.858-.793 1.758-1.243 2.7-.45.943-.964 1.95-1.457 2.936a31.283 31.283 0 0 1-1.5 2.7c-.514.814-.964 1.629-1.35 2.229a6.877 6.877 0 0 1-.879 1.05v9.428a2.045 2.045 0 0 1-.557 1.5c-.793.793-2.1.793-2.893 0a2.192 2.192 0 0 1-.643-1.543V34.85"/>
</svg>
