<svg xmlns="http://www.w3.org/2000/svg" viewBox="0 0 131 64">
    <g id="Square"> </g>
  <path fill-rule="evenodd" d="M9.399 2h112.007a7.405 7.405 0 0 1 7.399 7.392v45.217A7.403 7.403 0 0 1 121.406 62H9.399A7.403 7.403 0 0 1 2 54.609V9.392A7.403 7.403 0 0 1 9.399 2Zm40.998 13.958a6.626 6.626 0 1 0-13.252-.086 6.626 6.626 0 0 0 13.252.086Zm-14.05 9.681a13.992 13.992 0 0 0-6.644 1.668V11.414h-7.408v28.272A14.051 14.051 0 1 0 36.348 25.64Zm0 20.81a6.763 6.763 0 1 1 .001-13.525 6.763 6.763 0 0 1 0 13.525Zm19.258-35.036h7.407v42.028h-7.407V11.413Zm21.387 14.5h-7.407v27.528h7.407V25.914Zm33.908 27.53h-9.541l-10.395-14.69.006 14.69h-7.41V11.42h7.41v27.298l10.208-12.801h8.654L99.437 38.638 110.9 53.443Z"/>
</svg>
