<svg xmlns="http://www.w3.org/2000/svg" viewBox="0 0 64 64"><defs><style>.cls-1{fill:none;}.cls-2{fill:#8c8c8c;}</style></defs><title>Media_FullScreen_64px</title><g id="Square"><rect class="cls-1" width="64" height="64"/></g><g id="Icon"><path class="cls-2" d="M6.5,21A1.5,1.5,0,0,0,8,19.5V8H19.5a1.5,1.5,0,0,0,0-3H7A2,2,0,0,0,5,7V19.5A1.5,1.5,0,0,0,6.5,21Z"/><path class="cls-2" d="M57,5H44.5a1.5,1.5,0,0,0,0,3H56V19.5a1.5,1.5,0,0,0,3,0V7A2,2,0,0,0,57,5Z"/><path class="cls-2" d="M19.5,56H8V44.5a1.5,1.5,0,0,0-3,0V57a2,2,0,0,0,2,2H19.5a1.5,1.5,0,0,0,0-3Z"/><path class="cls-2" d="M57.5,43A1.5,1.5,0,0,0,56,44.5V56H44.5a1.5,1.5,0,0,0,0,3H57a2,2,0,0,0,2-2V44.5A1.5,1.5,0,0,0,57.5,43Z"/><path class="cls-2" d="M14.5,16.5v31a2,2,0,0,0,2,2h31a2,2,0,0,0,2-2v-31a2,2,0,0,0-2-2h-31A2,2,0,0,0,14.5,16.5Zm3,1h29v29h-29Z"/></g></svg>