<svg xmlns="http://www.w3.org/2000/svg" viewBox="0 0 64 64"><defs><style>.cls-1{fill:none;}.cls-2{fill:#8c8c8c;}</style></defs><title>Media_NoPicture_64px</title><g id="Square"><rect class="cls-1" width="64" height="64"/></g><g id="Icon"><path class="cls-2" d="M32,5A27,27,0,1,0,59,32,27,27,0,0,0,32,5ZM8,32A24,24,0,0,1,47.86,14l-6.37,6.38a1.49,1.49,0,0,0-.33.51.9.9,0,0,1-.42-.35l-1.26-1.88A1.5,1.5,0,0,0,38.23,18H25.77a1.5,1.5,0,0,0-1.25.67l-1.26,1.88a1,1,0,0,1-.83.45H18.5A1.5,1.5,0,0,0,17,22.5v19A1.5,1.5,0,0,0,18.5,43h.38L14,47.86A23.91,23.91,0,0,1,8,32Zm12.94,8.94-.06.06H19V23h3.43a3,3,0,0,0,2.5-1.34L26,20H38l1.11,1.66A3,3,0,0,0,41.57,23H45V41H21ZM32,56a23.91,23.91,0,0,1-15.86-6l6.92-6.93L23,43H45.5A1.5,1.5,0,0,0,47,41.5v-19A1.5,1.5,0,0,0,45.5,21h-.38L50,16.14A24,24,0,0,1,32,56Z"/><path class="cls-2" d="M32,25a6.5,6.5,0,1,0,6.5,6.5A6.51,6.51,0,0,0,32,25Zm0,11a4.5,4.5,0,1,1,4.5-4.5A4.51,4.51,0,0,1,32,36Z"/></g></svg>