<svg xmlns="http://www.w3.org/2000/svg" viewBox="0 0 64 64"><defs><style>.cls-1{fill:none;}.cls-2{fill:#8c8c8c;}</style></defs><title>Media_BookStore_64px</title><g id="Square"><rect class="cls-1" width="64" height="64"/></g><g id="Icon"><path class="cls-2" d="M57,5H20a2,2,0,0,0-2,2V32H6.5A1.5,1.5,0,0,0,5,33.5V51a8,8,0,0,0,7.14,8,1.49,1.49,0,0,0,.36,0H51a8,8,0,0,0,8-8V7A2,2,0,0,0,57,5ZM8,51V35H18V51A5,5,0,0,1,8,51Zm48,0a5,5,0,0,1-5,5H19.24A8,8,0,0,0,21,51V8H56Z"/><path class="cls-2" d="M28,25H50a1,1,0,0,0,1-1V14a1,1,0,0,0-1-1H28a1,1,0,0,0-1,1V24A1,1,0,0,0,28,25Zm1-10H49v8H29Z"/><path class="cls-2" d="M28,34H50a1,1,0,0,0,0-2H28a1,1,0,0,0,0,2Z"/><path class="cls-2" d="M28,41H50a1,1,0,0,0,0-2H28a1,1,0,0,0,0,2Z"/><path class="cls-2" d="M28,48H40a1,1,0,0,0,0-2H28a1,1,0,0,0,0,2Z"/></g></svg>