<svg xmlns="http://www.w3.org/2000/svg" viewBox="0 0 64 64">
      <g id="Square"> </g>
  <path fill-rule="evenodd" d="M39.9 9.691A23.666 23.666 0 0 0 8.334 32.124a1.5 1.5 0 1 1-3 .016A26.667 26.667 0 0 1 40.9 6.863a1.5 1.5 0 1 1-1 2.828ZM9.455 43.284a1.5 1.5 0 0 1 2.049.55c.248.429.51.85.784 1.263a1.5 1.5 0 0 1-2.5 1.66c-.308-.465-.603-.94-.882-1.423a1.5 1.5 0 0 1 .549-2.05Zm10.712 9.212a1.5 1.5 0 0 0-1.5 2.598c.483.28.976.544 1.476.792a1.5 1.5 0 1 0 1.334-2.687 23.2 23.2 0 0 1-1.31-.703Zm14.91 4.527a1.5 1.5 0 0 1-1.403 1.591c-.557.035-1.115.053-1.674.053a1.5 1.5 0 1 1 0-3c.496 0 .991-.016 1.486-.047a1.5 1.5 0 0 1 1.591 1.403Zm11.68-2.812a1.5 1.5 0 0 0-1.66-2.498 23.65 23.65 0 0 1-1.264.783 1.5 1.5 0 1 0 1.5 2.598c.484-.28.959-.574 1.424-.883Zm8.452-12.364a1.5 1.5 0 0 1 .677 2.01c-.249.5-.513.993-.792 1.477a1.5 1.5 0 1 1-2.598-1.5c.248-.43.482-.867.702-1.31a1.5 1.5 0 0 1 2.011-.677Zm1.881-18.88a1.5 1.5 0 1 0-2.823 1.016 23.666 23.666 0 0 1 1.4 8.017 1.5 1.5 0 0 0 3 0c0-3.08-.534-6.136-1.577-9.033ZM32 37a5 5 0 1 0 0-10 5 5 0 0 0 0 10Zm0 3a8 8 0 0 0 6.618-12.496l13.11-13.11a1.5 1.5 0 0 0-2.122-2.121l-13.11 13.11A8 8 0 1 0 32 40Z"/>
</svg>
