<svg xmlns="http://www.w3.org/2000/svg" viewBox="0 0 64 64"><defs><style>.cls-1{fill:none;}.cls-2{fill:#8c8c8c;}</style></defs><title>Media_ReduceScreen_64px</title><g id="Square"><rect class="cls-1" width="64" height="64"/></g><g id="Icon"><path class="cls-2" d="M19.5,5A1.5,1.5,0,0,0,18,6.5V18H6.5a1.5,1.5,0,0,0,0,3H19a2,2,0,0,0,2-2V6.5A1.5,1.5,0,0,0,19.5,5Z"/><path class="cls-2" d="M45,21H57.5a1.5,1.5,0,0,0,0-3H46V6.5a1.5,1.5,0,0,0-3,0V19A2,2,0,0,0,45,21Z"/><path class="cls-2" d="M19,43H6.5a1.5,1.5,0,0,0,0,3H18V57.5a1.5,1.5,0,0,0,3,0V45A2,2,0,0,0,19,43Z"/><path class="cls-2" d="M57.5,43H45a2,2,0,0,0-2,2V57.5a1.5,1.5,0,0,0,3,0V46H57.5a1.5,1.5,0,0,0,0-3Z"/><path class="cls-2" d="M37.5,24.5h-11a2,2,0,0,0-2,2v11a2,2,0,0,0,2,2h11a2,2,0,0,0,2-2v-11A2,2,0,0,0,37.5,24.5Zm-1,12h-9v-9h9Z"/></g></svg>