<svg xmlns="http://www.w3.org/2000/svg" viewBox="0 0 64 64"><defs><style>.cls-1{fill:none;}.cls-2{fill:#8c8c8c;}</style></defs><title>Navigation_Display_DisplayProductX9_64px</title><g id="Square"><rect class="cls-1" width="64" height="64"/></g><g id="Icon"><path class="cls-2" d="M38,5H26a2,2,0,0,0-2,2V19a2,2,0,0,0,2,2H38a2,2,0,0,0,2-2V7A2,2,0,0,0,38,5ZM37,18H27V8H37Z"/><path class="cls-2" d="M19,5H7A2,2,0,0,0,5,7V19a2,2,0,0,0,2,2H19a2,2,0,0,0,2-2V7A2,2,0,0,0,19,5ZM18,18H8V8H18Z"/><path class="cls-2" d="M57,5H45a2,2,0,0,0-2,2V19a2,2,0,0,0,2,2H57a2,2,0,0,0,2-2V7A2,2,0,0,0,57,5ZM56,18H46V8H56Z"/><path class="cls-2" d="M38,24H26a2,2,0,0,0-2,2V38a2,2,0,0,0,2,2H38a2,2,0,0,0,2-2V26A2,2,0,0,0,38,24ZM37,37H27V27H37Z"/><path class="cls-2" d="M19,24H7a2,2,0,0,0-2,2V38a2,2,0,0,0,2,2H19a2,2,0,0,0,2-2V26A2,2,0,0,0,19,24ZM18,37H8V27H18Z"/><path class="cls-2" d="M57,24H45a2,2,0,0,0-2,2V38a2,2,0,0,0,2,2H57a2,2,0,0,0,2-2V26A2,2,0,0,0,57,24ZM56,37H46V27H56Z"/><path class="cls-2" d="M38,43H26a2,2,0,0,0-2,2V57a2,2,0,0,0,2,2H38a2,2,0,0,0,2-2V45A2,2,0,0,0,38,43ZM37,56H27V46H37Z"/><path class="cls-2" d="M19,43H7a2,2,0,0,0-2,2V57a2,2,0,0,0,2,2H19a2,2,0,0,0,2-2V45A2,2,0,0,0,19,43ZM18,56H8V46H18Z"/><path class="cls-2" d="M57,43H45a2,2,0,0,0-2,2V57a2,2,0,0,0,2,2H57a2,2,0,0,0,2-2V45A2,2,0,0,0,57,43ZM56,56H46V46H56Z"/></g></svg>