<svg xmlns="http://www.w3.org/2000/svg" viewBox="0 0 64 64"><defs><style>.cls-1{fill:none;}.cls-2{fill:#8c8c8c;}</style></defs><title>Navigation_Display_Setting_64px</title><g id="Square"><rect class="cls-1" width="64" height="64"/></g><g id="Icon"><path class="cls-2" d="M58,30.8l-4.16-1.13a22,22,0,0,0-1.11-5L56,21.88a2,2,0,0,0,.26-2.76L50,11.27a2,2,0,0,0-2.75-.37l-3.47,2.54a22.16,22.16,0,0,0-4.6-2.22L39,6.93A2,2,0,0,0,37,5H27a2,2,0,0,0-2,1.92l-.17,4.3a22.16,22.16,0,0,0-4.6,2.22l-3.47-2.55a2,2,0,0,0-2.75.37L7.75,19.12A2,2,0,0,0,8,21.88l3.26,2.8a22,22,0,0,0-1.11,5L6,30.8a2,2,0,0,0-1.43,2.38L6.82,43a2,2,0,0,0,2.32,1.52l4.23-.8a21.67,21.67,0,0,0,3.2,4l-1.7,4a2,2,0,0,0,1,2.6l9.06,4.32a2,2,0,0,0,.86.2,2,2,0,0,0,1.77-1.07l2-3.82a19.29,19.29,0,0,0,4.92,0l2,3.82a2,2,0,0,0,2.63.87l9.06-4.32a2,2,0,0,0,1-2.6l-1.7-4a21.67,21.67,0,0,0,3.2-4l4.23.8A2,2,0,0,0,57.18,43l2.26-9.78A2,2,0,0,0,58,30.8ZM54.47,41.35l-4.31-.82a1.51,1.51,0,0,0-1.58.74,19.26,19.26,0,0,1-3.94,4.89,1.48,1.48,0,0,0-.38,1.71L46,51.92l-7.32,3.49-2.05-3.9a1.5,1.5,0,0,0-1.33-.8l-.24,0a17.36,17.36,0,0,1-6.1,0,1.49,1.49,0,0,0-1.57.78l-2.05,3.9L18,51.92l1.73-4.05a1.48,1.48,0,0,0-.38-1.71,19.26,19.26,0,0,1-3.94-4.89,1.51,1.51,0,0,0-1.58-.74l-4.31.82L7.7,33.45,12,32.29a1.51,1.51,0,0,0,1.11-1.37,19.06,19.06,0,0,1,1.36-6.12A1.48,1.48,0,0,0,14,23.1l-3.32-2.86,5.05-6.36,3.55,2.6a1.49,1.49,0,0,0,1.75,0,18.82,18.82,0,0,1,5.65-2.73,1.5,1.5,0,0,0,1.08-1.38L27.94,8h8.12l.17,4.39a1.5,1.5,0,0,0,1.08,1.38A18.82,18.82,0,0,1,43,16.5a1.49,1.49,0,0,0,1.75,0l3.55-2.6,5.05,6.36L50,23.1a1.48,1.48,0,0,0-.41,1.7,19.06,19.06,0,0,1,1.36,6.12,1.51,1.51,0,0,0,1.11,1.37l4.25,1.16Z"/><path class="cls-2" d="M32,20.5A11.5,11.5,0,1,0,43.5,32,11.51,11.51,0,0,0,32,20.5Zm0,20A8.5,8.5,0,1,1,40.5,32,8.51,8.51,0,0,1,32,40.5Z"/></g></svg>