<svg xmlns="http://www.w3.org/2000/svg" viewBox="0 0 64 64"><defs><style>.cls-1{fill:none;}.cls-2{fill:#8c8c8c;}</style></defs><title>Navigation_Publish_Trashbin_64px</title><g id="Square"><rect class="cls-1" width="64" height="64"/></g><g id="Icon"><path class="cls-2" d="M49.13,21a1.49,1.49,0,0,0-1.62,1.36L44.62,56H19.38L16.49,22.37a1.5,1.5,0,0,0-3,.26l3,34.54a2,2,0,0,0,2,1.83H45.54a2,2,0,0,0,2-1.83l3-34.54A1.49,1.49,0,0,0,49.13,21Z"/><path class="cls-2" d="M51.5,13h-9L40,6.3A2,2,0,0,0,38.15,5H25.85A2,2,0,0,0,24,6.3L21.46,13h-9a1.5,1.5,0,0,0,0,3h39a1.5,1.5,0,0,0,0-3Zm-25-5H37.46l1.88,5H24.66Z"/><path class="cls-2" d="M33.5,48V26a1.5,1.5,0,0,0-3,0V48a1.5,1.5,0,0,0,3,0Z"/><path class="cls-2" d="M39,49.5a1.5,1.5,0,0,0,1.5-1.43l1-22a1.5,1.5,0,1,0-3-.14l-1,22a1.5,1.5,0,0,0,1.43,1.57Z"/><path class="cls-2" d="M25,49.5h.07a1.5,1.5,0,0,0,1.43-1.57l-1-22a1.5,1.5,0,1,0-3,.14l1,22A1.5,1.5,0,0,0,25,49.5Z"/></g></svg>