<svg xmlns="http://www.w3.org/2000/svg" viewBox="0 0 64 64"><defs><style>.cls-1{fill:none;}.cls-2{fill:#8c8c8c;}</style></defs><title>Navigation_Notification_Circle--Available_64px</title><g id="Square"><rect class="cls-1" width="64" height="64"/></g><g id="Icon"><path class="cls-2" d="M32,5A27,27,0,1,0,59,32,27,27,0,0,0,32,5Zm0,51A24,24,0,1,1,56,32,24,24,0,0,1,32,56Z"/><path class="cls-2" d="M45.44,22.44,30.5,37.38l-8.94-8.94a1.5,1.5,0,0,0-2.12,2.12l9.65,9.65a2,2,0,0,0,2.82,0L47.56,24.56a1.5,1.5,0,0,0-2.12-2.12Z"/></g></svg>