<svg xmlns="http://www.w3.org/2000/svg" viewBox="0 0 64 64"><defs><style>.cls-1{fill:none;}.cls-2{fill:#8c8c8c;}</style></defs><title>Navigation_Notification_Bell_64px</title><g id="Square"><rect class="cls-1" width="64" height="64"/></g><g id="Icon"><path class="cls-2" d="M53.48,48.11l-3.37-6.75A10.47,10.47,0,0,1,49,36.67V26A17,17,0,0,0,33.5,9.08V6.5a1.5,1.5,0,0,0-3,0V9.08A17,17,0,0,0,15,26V36.67a10.47,10.47,0,0,1-1.11,4.69l-3.37,6.75A2,2,0,0,0,12.31,51H22.63a9.49,9.49,0,0,0,18.74,0H51.69a2,2,0,0,0,1.79-2.89ZM32,56a6.51,6.51,0,0,1-6.32-5H38.32A6.51,6.51,0,0,1,32,56ZM13.93,48l2.64-5.29a12.6,12.6,0,0,0,.85-2.21H26.5a1,1,0,0,0,0-2H17.86A14.09,14.09,0,0,0,18,36.67V26a14,14,0,0,1,28,0V36.67a13.51,13.51,0,0,0,1.43,6L50.07,48Z"/></g></svg>