<svg xmlns="http://www.w3.org/2000/svg" viewBox="0 0 64 64"><defs><style>.cls-1{fill:none;}.cls-2{fill:#5b5b5b;}</style></defs><title>Navigation_Display_DisplayProductX4_Outline_64px</title><g id="Square"><rect class="cls-1" width="64" height="64"/></g><g id="Icon"><path class="cls-2" d="M28,5H7A2,2,0,0,0,5,7V28a2,2,0,0,0,2,2H28a2,2,0,0,0,2-2V7A2,2,0,0,0,28,5ZM27,27H8V8H27Z"/><path class="cls-2" d="M57,5H36a2,2,0,0,0-2,2V28a2,2,0,0,0,2,2H57a2,2,0,0,0,2-2V7A2,2,0,0,0,57,5ZM56,27H37V8H56Z"/><path class="cls-2" d="M28,34H7a2,2,0,0,0-2,2V57a2,2,0,0,0,2,2H28a2,2,0,0,0,2-2V36A2,2,0,0,0,28,34ZM27,56H8V37H27Z"/><path class="cls-2" d="M57,34H36a2,2,0,0,0-2,2V57a2,2,0,0,0,2,2H57a2,2,0,0,0,2-2V36A2,2,0,0,0,57,34ZM56,56H37V37H56Z"/></g></svg>