<svg xmlns="http://www.w3.org/2000/svg" viewBox="0 0 64 64"><defs><style>.cls-1{fill:none;}.cls-2{fill:#8c8c8c;}</style></defs><title>Navigation_Display_Blink_64px</title><g id="Square"><rect class="cls-1" width="64" height="64"/></g><g id="Icon"><circle class="cls-2" cx="32" cy="32" r="3"/><path class="cls-2" d="M15.06,12.94a1.5,1.5,0,0,0-2.12,2.12L24.19,26.31a1.5,1.5,0,0,0,2.12,0,1.49,1.49,0,0,0,0-2.12Z"/><path class="cls-2" d="M57.5,30.5h-16a1.5,1.5,0,0,0,0,3h16a1.5,1.5,0,0,0,0-3Z"/><path class="cls-2" d="M38.75,26.75a1.51,1.51,0,0,0,1.06-.44L51.06,15.06a1.5,1.5,0,0,0-2.12-2.12L37.69,24.19a1.49,1.49,0,0,0,0,2.12A1.51,1.51,0,0,0,38.75,26.75Z"/><path class="cls-2" d="M32,24a1.5,1.5,0,0,0,1.5-1.5V6.5a1.5,1.5,0,0,0-3,0v16A1.5,1.5,0,0,0,32,24Z"/><path class="cls-2" d="M24,32a1.5,1.5,0,0,0-1.5-1.5H6.5a1.5,1.5,0,0,0,0,3h16A1.5,1.5,0,0,0,24,32Z"/><path class="cls-2" d="M24.19,37.69,12.94,48.94a1.49,1.49,0,0,0,0,2.12,1.5,1.5,0,0,0,2.12,0L26.31,39.81a1.5,1.5,0,0,0-2.12-2.12Z"/><path class="cls-2" d="M39.81,37.69a1.5,1.5,0,0,0-2.12,2.12L48.94,51.06a1.5,1.5,0,0,0,2.12,0,1.49,1.49,0,0,0,0-2.12Z"/><path class="cls-2" d="M32,40a1.5,1.5,0,0,0-1.5,1.5v16a1.5,1.5,0,0,0,3,0v-16A1.5,1.5,0,0,0,32,40Z"/></g></svg>