<svg xmlns="http://www.w3.org/2000/svg" viewBox="0 0 64 64"><defs><style>.cls-1{fill:none;}.cls-2{fill:#8c8c8c;}</style></defs><title>Navigation_Control_Close_64px</title><g id="Square"><rect class="cls-1" width="64" height="64"/></g><g id="Icon"><path class="cls-2" d="M34.12,32,50.56,15.56a1.5,1.5,0,0,0-2.12-2.12L32,29.88,15.56,13.44a1.5,1.5,0,0,0-2.12,2.12L29.88,32,13.44,48.44a1.49,1.49,0,0,0,0,2.12,1.5,1.5,0,0,0,2.12,0L32,34.12,48.44,50.56a1.5,1.5,0,0,0,2.12,0,1.49,1.49,0,0,0,0-2.12Z"/></g></svg>