<svg xmlns="http://www.w3.org/2000/svg" viewBox="0 0 64 64"><defs><style>.cls-1{fill:none;}.cls-2{fill:#8c8c8c;}</style></defs><title>Navigation_Display_VocalSearch_64px</title><g id="Square"><rect class="cls-1" width="64" height="64"/></g><g id="Icon"><path class="cls-2" d="M32,43A11,11,0,0,0,43,32V16a11,11,0,0,0-22,0V32A11,11,0,0,0,32,43ZM24,16a8,8,0,0,1,16,0V32a8,8,0,0,1-16,0Z"/><path class="cls-2" d="M49.5,21A1.5,1.5,0,0,0,48,22.5V32a16,16,0,0,1-32,0V22.5a1.5,1.5,0,0,0-3,0V32A19,19,0,0,0,30.5,50.92V56h-7a1.5,1.5,0,0,0,0,3h17a1.5,1.5,0,0,0,0-3h-7V50.92A19,19,0,0,0,51,32V22.5A1.5,1.5,0,0,0,49.5,21Z"/></g></svg>