<svg xmlns="http://www.w3.org/2000/svg" viewBox="0 0 64 64"><defs><style>.cls-1{fill:none;}.cls-2{fill:#8c8c8c;}</style></defs><title>Navigation_Display_DisplayMobile--Horizontal_64px</title><g id="Square"><rect class="cls-1" width="64" height="64"/></g><g id="Icon"><path class="cls-2" d="M24,38H7a2,2,0,0,0-2,2V57a2,2,0,0,0,2,2H24a2,2,0,0,0,2-2V40A2,2,0,0,0,24,38ZM23,56H8V41H23Z"/><path class="cls-2" d="M57.5,41h-24a1.5,1.5,0,0,0,0,3h24a1.5,1.5,0,0,0,0-3Z"/><path class="cls-2" d="M57.5,53h-24a1.5,1.5,0,0,0,0,3h24a1.5,1.5,0,0,0,0-3Z"/><path class="cls-2" d="M24,5H7A2,2,0,0,0,5,7V24a2,2,0,0,0,2,2H24a2,2,0,0,0,2-2V7A2,2,0,0,0,24,5ZM23,23H8V8H23Z"/><path class="cls-2" d="M33.5,11h24a1.5,1.5,0,0,0,0-3h-24a1.5,1.5,0,0,0,0,3Z"/><path class="cls-2" d="M57.5,20h-24a1.5,1.5,0,0,0,0,3h24a1.5,1.5,0,0,0,0-3Z"/></g></svg>