<svg xmlns="http://www.w3.org/2000/svg" viewBox="0 0 64 64"><defs><style>.cls-1{fill:none;}.cls-2{fill:#8c8c8c;}</style></defs><title>Navigation_Control_Circle--Cross_64px</title><g id="Square"><rect class="cls-1" width="64" height="64"/></g><g id="Icon"><path class="cls-2" d="M32,5A27,27,0,1,0,59,32,27,27,0,0,0,32,5Zm0,51A24,24,0,1,1,56,32,24,24,0,0,1,32,56Z"/><path class="cls-2" d="M41.55,22.45a1.52,1.52,0,0,0-2.13,0L32,29.88l-7.42-7.43a1.51,1.51,0,0,0-2.13,2.13L29.88,32l-7.43,7.42a1.51,1.51,0,0,0,2.13,2.13L32,34.12l7.42,7.43a1.51,1.51,0,0,0,2.13-2.13L34.12,32l7.43-7.42A1.52,1.52,0,0,0,41.55,22.45Z"/></g></svg>