<svg xmlns="http://www.w3.org/2000/svg" viewBox="0 0 64 64"><defs><style>.cls-1{fill:none;}.cls-2{fill:#8c8c8c;}</style></defs><title>Navigation_Display_View_64px</title><g id="Square"><rect class="cls-1" width="64" height="64"/></g><g id="Icon"><path class="cls-2" d="M57.18,31C52.39,22.35,42.46,13,32,13S11.61,22.35,6.82,31a2,2,0,0,0,0,1.94C11.61,41.65,21.54,51,32,51s20.39-9.35,25.18-18A2,2,0,0,0,57.18,31ZM32,48c-8.66,0-17.67-8-22.28-16C14.33,24,23.34,16,32,16s17.67,8,22.28,16C49.67,40,40.66,48,32,48Z"/><path class="cls-2" d="M32,19.93a12,12,0,1,0,12,12A12,12,0,0,0,32,19.93Zm0,21a9,9,0,1,1,9-9A9,9,0,0,1,32,40.93Z"/></g></svg>