<svg width="64" height="64" viewBox="0 0 64 64" fill="none" xmlns="http://www.w3.org/2000/svg">
  <g id="Square"> </g>
  <g id="Icon">
<path id="Union" fill-rule="evenodd" clip-rule="evenodd" d="M11.5607 9.43934C10.9749 8.85355 10.0251 8.85355 9.43934 9.43934C8.85355 10.0251 8.85355 10.9749 9.43934 11.5607L29.8787 32L9.43934 52.4393C8.85355 53.0251 8.85355 53.9749 9.43934 54.5607C10.0251 55.1464 10.9749 55.1464 11.5607 54.5607L33.0607 33.0607C33.6464 32.4749 33.6464 31.5251 33.0607 30.9393L11.5607 9.43934ZM37.0607 9.43934C36.4749 8.85355 35.5251 8.85355 34.9393 9.43934C34.3536 10.0251 34.3536 10.9749 34.9393 11.5607L55.3787 32L34.9393 52.4393C34.3536 53.0251 34.3536 53.9749 34.9393 54.5607C35.5251 55.1464 36.4749 55.1464 37.0607 54.5607L58.5607 33.0607C59.1464 32.4749 59.1464 31.5251 58.5607 30.9393L37.0607 9.43934Z" fill="black"/>
</g>
</svg>
