<svg xmlns="http://www.w3.org/2000/svg" viewBox="0 0 64 64"><defs><style>.cls-1{fill:none;}.cls-2{fill:#8c8c8c;}</style></defs><title>Navigation_Display_SearchProduct_64px</title><g id="Square"><rect class="cls-1" width="64" height="64"/></g><g id="Icon"><path class="cls-2" d="M59,23.29V7a2,2,0,0,0-2-2H40.71a2,2,0,0,0-1.42.59L5.79,39.09a2,2,0,0,0,0,2.82l16.3,16.3a2,2,0,0,0,2.82,0l6.41-6.4a14.46,14.46,0,0,0,19.31.94l5.81,5.81a1.5,1.5,0,0,0,2.12,0,1.49,1.49,0,0,0,0-2.12l-5.81-5.81a14.46,14.46,0,0,0-.94-19.31l6.6-6.61A2,2,0,0,0,59,23.29ZM41.5,53A11.5,11.5,0,1,1,53,41.5,11.51,11.51,0,0,1,41.5,53ZM56,22.88,49.48,29.4A14.49,14.49,0,0,0,29.4,49.48l-5.9,5.9L8.62,40.5,41.12,8H56Z"/><path class="cls-2" d="M48.5,20A4.5,4.5,0,1,0,44,15.5,4.51,4.51,0,0,0,48.5,20Zm0-6A1.5,1.5,0,1,1,47,15.5,1.5,1.5,0,0,1,48.5,14Z"/></g></svg>