<svg xmlns="http://www.w3.org/2000/svg" viewBox="0 0 64 64"><defs><style>.cls-1{fill:none;}.cls-2{fill:#8c8c8c;}</style></defs><title>Navigation_Notification_Information_64px</title><g id="Square"><rect class="cls-1" width="64" height="64"/></g><g id="Icon"><path class="cls-2" d="M32,5A27,27,0,1,0,59,32,27,27,0,0,0,32,5Zm0,51A24,24,0,1,1,56,32,24,24,0,0,1,32,56Z"/><path class="cls-2" d="M32,26.5A1.5,1.5,0,0,0,30.5,28V43.5a1.5,1.5,0,0,0,3,0V28A1.5,1.5,0,0,0,32,26.5Z"/><path class="cls-2" d="M33.85,19.73a1.63,1.63,0,0,0-.19-.34,2.16,2.16,0,0,0-.55-.55,1.63,1.63,0,0,0-.34-.19,1.82,1.82,0,0,0-.38-.11,2,2,0,0,0-1.8.55,1.42,1.42,0,0,0-.25.3,2.27,2.27,0,0,0-.19.34,1.66,1.66,0,0,0-.11.38,1.72,1.72,0,0,0,0,.39,2,2,0,0,0,.59,1.41,1.88,1.88,0,0,0,.64.44,2,2,0,0,0,.77.15,2,2,0,0,0,2-2,1.72,1.72,0,0,0,0-.39A1.66,1.66,0,0,0,33.85,19.73Z"/></g></svg>