<svg width="64" height="64" viewBox="0 0 64 64" fill="none" xmlns="http://www.w3.org/2000/svg">
  <g id="Square"> </g>
  <g id="Icon">
<path id="Union" fill-rule="evenodd" clip-rule="evenodd" d="M29.0607 11.5607C29.6464 10.9749 29.6464 10.0251 29.0607 9.43934C28.4749 8.85355 27.5251 8.85355 26.9393 9.43934L5.43934 30.9393C4.85355 31.5251 4.85355 32.4749 5.43934 33.0607L26.9393 54.5607C27.5251 55.1464 28.4749 55.1464 29.0607 54.5607C29.6464 53.9749 29.6464 53.0251 29.0607 52.4393L8.62132 32L29.0607 11.5607ZM54.5607 11.5607C55.1464 10.9749 55.1464 10.0251 54.5607 9.43934C53.9749 8.85355 53.0251 8.85355 52.4393 9.43934L30.9393 30.9393C30.3536 31.5251 30.3536 32.4749 30.9393 33.0607L52.4393 54.5607C53.0251 55.1464 53.9749 55.1464 54.5607 54.5607C55.1464 53.9749 55.1464 53.0251 54.5607 52.4393L34.1213 32L54.5607 11.5607Z" fill="black"/>
</g>
</svg>
