<svg xmlns="http://www.w3.org/2000/svg" viewBox="0 0 64 64"><defs><style>.cls-1{fill:none;}.cls-2{fill:#8c8c8c;}</style></defs><title>Navigation_Display_Filter_64px</title><g id="Square"><rect class="cls-1" width="64" height="64"/></g><g id="Icon"><path class="cls-2" d="M33.5,33.68V13a1.5,1.5,0,0,0-3,0V33.68a6.49,6.49,0,0,0,0,12.64V51a1.5,1.5,0,0,0,3,0V46.32a6.49,6.49,0,0,0,0-12.64ZM32,43.5A3.5,3.5,0,1,1,35.5,40,3.5,3.5,0,0,1,32,43.5Z"/><path class="cls-2" d="M14.5,17.68V13a1.5,1.5,0,0,0-3,0v4.68a6.49,6.49,0,0,0,0,12.64V51a1.5,1.5,0,0,0,3,0V30.32a6.49,6.49,0,0,0,0-12.64ZM13,27.5A3.5,3.5,0,1,1,16.5,24,3.5,3.5,0,0,1,13,27.5Z"/><path class="cls-2" d="M57.5,32a6.51,6.51,0,0,0-5-6.32V13a1.5,1.5,0,0,0-3,0V25.68a6.49,6.49,0,0,0,0,12.64V51a1.5,1.5,0,0,0,3,0V38.32A6.51,6.51,0,0,0,57.5,32ZM51,35.5A3.5,3.5,0,1,1,54.5,32,3.5,3.5,0,0,1,51,35.5Z"/></g></svg>