<svg xmlns="http://www.w3.org/2000/svg" viewBox="0 0 64 64"><defs><style>.cls-1{fill:none;}.cls-2{fill:#8c8c8c;}</style></defs><title>Navigation_Display_Home_64px</title><g id="Square"><rect class="cls-1" width="64" height="64"/></g><g id="Icon"><path class="cls-2" d="M58.57,31.3,33.42,5.8A2,2,0,0,0,32,5.21h0a2,2,0,0,0-1.42.59L5.44,30.94a1.5,1.5,0,0,0,2.12,2.12L9,31.62V57a2,2,0,0,0,2,2H25a2,2,0,0,0,2-2V43H37V57a2,2,0,0,0,2,2H53a2,2,0,0,0,2-2V32l1.43,1.45a1.5,1.5,0,0,0,1.07.45,1.48,1.48,0,0,0,1-.43A1.5,1.5,0,0,0,58.57,31.3ZM52,56H40V42a2,2,0,0,0-2-2H26a2,2,0,0,0-2,2V56H12V28.62l20-20L52,28.91Z"/></g></svg>