<svg xmlns="http://www.w3.org/2000/svg" viewBox="0 0 64 64"><defs><style>.cls-1{fill:none;}.cls-2{fill:#5b5b5b;}</style></defs><title>Navigation_Display_DisplayList_Outline_64px</title><g id="Square"><rect class="cls-1" width="64" height="64"/></g><g id="Icon"><path class="cls-2" d="M57,5H7A2,2,0,0,0,5,7V17a2,2,0,0,0,2,2H57a2,2,0,0,0,2-2V7A2,2,0,0,0,57,5ZM56,16H8V8H56Z"/><path class="cls-2" d="M57,45H7a2,2,0,0,0-2,2V57a2,2,0,0,0,2,2H57a2,2,0,0,0,2-2V47A2,2,0,0,0,57,45ZM56,56H8V48H56Z"/><path class="cls-2" d="M57,25H7a2,2,0,0,0-2,2V37a2,2,0,0,0,2,2H57a2,2,0,0,0,2-2V27A2,2,0,0,0,57,25ZM56,36H8V28H56Z"/></g></svg>