<svg xmlns="http://www.w3.org/2000/svg" viewBox="0 0 64 64">
    <g id="Square"> </g>
  <path fill-rule="evenodd" d="M8 11.833a1.5 1.5 0 0 0-1.5 1.5v37.334a1.5 1.5 0 0 0 1.5 1.5h48a1.5 1.5 0 0 0 1.5-1.5V13.333a1.5 1.5 0 0 0-1.5-1.5H8Zm1.5 37.334V14.833h45v21.704l-9.29-8.51-23.116 21.14H9.5Zm21.29-27.828a7.908 7.908 0 0 1-.231-.027l-.061-.039h-.117a3.072 3.072 0 0 0-1.578.494 3.334 3.334 0 0 0-1.433 3.511 3.294 3.294 0 0 0 6.104.95l.004-.006c.02-.04.042-.078.064-.116h-1.261a.166.166 0 0 0-.089.045 2.178 2.178 0 0 1-1.55.666 2.083 2.083 0 0 1-2.105-1.666v-.05h5.15c.05-.358.05-.72 0-1.078a3.25 3.25 0 0 0-2.511-2.633 4.663 4.663 0 0 0-.386-.051Zm1.647 2.695H28.57a2.017 2.017 0 0 1 2.05-1.583c.855.044 1.817.855 1.817 1.583Zm-15.335-2.692H17.1c-.066-.01-.131-.019-.196-.03h-.5a7.36 7.36 0 0 1-.173.025 3.278 3.278 0 0 0-2.893 2.958v.7c.05.287.125.57.222.845a3.183 3.183 0 0 0 2.994 2.127 3.138 3.138 0 0 0 2.633-1.15 3.333 3.333 0 0 0-1.794-5.427c-.096-.02-.193-.034-.29-.048Zm1.652 2.837c.029.154.05.31.061.466 0 1.08-.775 2.003-1.838 2.189a2.144 2.144 0 0 1-2.395-1.617 2.222 2.222 0 0 1 1.35-2.622 1.97 1.97 0 0 1 .311-.083 2.133 2.133 0 0 1 2.511 1.666Zm17.437 3.39v.001c-.311.771-.622 1.543-.944 2.314l1.278.038.978-2.366 2.5-6.11a.858.858 0 0 0 0-.112h-1.256l-1.155 2.833c-.106.255-.212.516-.318.777-.128.313-.255.626-.382.929a1.121 1.121 0 0 1-.045.105.358.358 0 0 1-.033-.055l-1.85-4.539a.161.161 0 0 1 0-.05h-1.333c.855 2.03 1.71 4.067 2.56 6.11a.155.155 0 0 1 0 .123v.002Zm-12.26-6.257c.056.01.112.017.167.024.111.015.222.03.334.06a2.66 2.66 0 0 1 2.083 1.977c.066.273.1.552.1.833v3.762h-1.206v-3.65c0-.262-.028-.523-.083-.778a1.367 1.367 0 0 0-1.111-1.084 2.45 2.45 0 0 0-1.111 0 1.417 1.417 0 0 0-1.172 1.245c-.039.21-.056.424-.05.639v3.605h-1.2a.184.184 0 0 1 0-.056v-3.85a2.56 2.56 0 0 1 .922-2.027 2.916 2.916 0 0 1 1.666-.694h.112l.55-.006Z"/>
</svg>
