<svg xmlns="http://www.w3.org/2000/svg" viewBox="0 0 64 64"><defs><style>.cls-1{fill:none;}.cls-2{fill:#8c8c8c;}</style></defs><title>Payment_SafePayment2_64px</title><g id="Square"><rect class="cls-1" width="64" height="64"/></g><g id="Icon"><path class="cls-2" d="M29.82,46.24a1,1,0,0,0,.68.26,1,1,0,0,0,.69-.28l10.5-10a1,1,0,0,0-1.38-1.44l-9.82,9.35L25.68,39.7a1,1,0,1,0-1.36,1.47Z"/><path class="cls-2" d="M49,27H46V23a14,14,0,0,0-28,0v4H15a2,2,0,0,0-2,2V53a2,2,0,0,0,2,2H49a2,2,0,0,0,2-2V29A2,2,0,0,0,49,27ZM21,23a11,11,0,0,1,22,0v4H21ZM48,52H16V30H48Z"/></g></svg>