<svg xmlns="http://www.w3.org/2000/svg" viewBox="0 0 64 64"><defs><style>.cls-1{fill:none;}.cls-2{fill:#8c8c8c;}</style></defs><title>Payment_Bill_64px</title><g id="Square"><rect class="cls-1" width="64" height="64"/></g><g id="Icon"><path class="cls-2" d="M49,5H15a2,2,0,0,0-2,2V57a2,2,0,0,0,2,2H49a2,2,0,0,0,2-2V7A2,2,0,0,0,49,5ZM48,56H16V8H48Z"/><path class="cls-2" d="M29,42a1,1,0,0,0,1,1H42a1,1,0,0,0,0-2H30A1,1,0,0,0,29,42Z"/><path class="cls-2" d="M42,46.5H30a1,1,0,0,0,0,2H42a1,1,0,0,0,0-2Z"/><path class="cls-2" d="M23,24.5a1,1,0,0,0,1,1h1.73A8.79,8.79,0,0,0,33.94,31a9,9,0,0,0,5.7-2,1,1,0,0,0-1.28-1.54A7,7,0,0,1,33.94,29a6.82,6.82,0,0,1-6-3.5H33a1,1,0,0,0,0-2H27.25a5.55,5.55,0,0,1-.09-1c0-.17,0-.33,0-.5H33a1,1,0,0,0,0-2H27.68a6.79,6.79,0,0,1,6.26-4,6.88,6.88,0,0,1,4.12,1.34,1,1,0,0,0,1.18-1.62A8.93,8.93,0,0,0,33.94,14a8.76,8.76,0,0,0-8.39,6H24a1,1,0,0,0,0,2h1.18c0,.17,0,.33,0,.5a8.26,8.26,0,0,0,.06,1H24A1,1,0,0,0,23,24.5Z"/><circle class="cls-2" cx="24" cy="42" r="1.5"/><circle class="cls-2" cx="24" cy="47.5" r="1.5"/></g></svg>