<svg xmlns="http://www.w3.org/2000/svg" viewBox="0 0 64 64"><defs><style>.cls-1{fill:none;}.cls-2{fill:#999;}</style></defs><title>Payment_Cards_Monochrome_Visa_64px</title><g id="Square"><rect class="cls-1" width="64" height="64"/></g><g id="Icon"><polygon class="cls-2" points="25.53 37.51 27.41 26.52 30.41 26.52 28.53 37.51 25.53 37.51"/><path class="cls-2" d="M39.39,26.79a7.67,7.67,0,0,0-2.68-.46c-3,0-5.05,1.49-5.06,3.62,0,1.59,1.49,2.46,2.63,3s1.54.88,1.54,1.36c0,.74-.92,1.08-1.79,1.08a6.3,6.3,0,0,1-2.82-.58l-.38-.17-.42,2.46a9.56,9.56,0,0,0,3.34.58c3.14,0,5.18-1.47,5.21-3.75,0-1.26-.78-2.21-2.52-3-1-.5-1.69-.85-1.67-1.36s.54-.95,1.7-.95a5.42,5.42,0,0,1,2.25.42l.26.13.41-2.38"/><path class="cls-2" d="M47.08,26.53H44.76a1.47,1.47,0,0,0-1.56.91L38.74,37.51h3.15l.63-1.65h3.84c.09.38.36,1.64.36,1.64H49.5l-2.42-11m-3.7,7.08,1.19-3.07s.25-.64.4-1.05l.21.95.69,3.17Z"/><path class="cls-2" d="M23,26.53,20.09,34l-.31-1.52a8.58,8.58,0,0,0-4.15-4.61l2.68,9.61h3.18l4.7-11H23"/><path class="cls-2" d="M17.36,26.52H12.54l0,.23c3.75.9,6.25,3.11,7.28,5.75l-1.06-5.05a1.24,1.24,0,0,0-1.36-.93"/><path class="cls-2" d="M56,16V48H8V16H56m1-3H7a2,2,0,0,0-2,2V49a2,2,0,0,0,2,2H57a2,2,0,0,0,2-2V15a2,2,0,0,0-2-2Z"/></g></svg>