<svg xmlns="http://www.w3.org/2000/svg" viewBox="0 0 64 64"><defs><style>.cls-1{fill:none;}.cls-2{fill:#999;}</style></defs><title>Payment_Cards_Monochrome_OneyX3_64px</title><g id="Square"><rect class="cls-1" width="64" height="64"/></g><g id="Icon"><path class="cls-2" d="M32,12.25A19.75,19.75,0,1,0,51.75,32,19.75,19.75,0,0,0,32,12.25Zm-.54,26H27.8l-1.91-2.86-1.74,2.86H20.66l3.57-5.34-3.57-5.4h3.66l1.85,2.8L28,27.51h3.49l-3.74,5.22Zm10-1a5.56,5.56,0,0,1-3.73,1.21,5.91,5.91,0,0,1-3.46-.94A4.55,4.55,0,0,1,32.41,35l2.86-.84a2.28,2.28,0,0,0,.9,1.19,2.72,2.72,0,0,0,1.56.43,2.1,2.1,0,0,0,1.36-.45,1.53,1.53,0,0,0,.56-1.25,1.43,1.43,0,0,0-.6-1.23,2.55,2.55,0,0,0-1.54-.43H35.93V30h1.51a2.35,2.35,0,0,0,1.44-.38,1.49,1.49,0,0,0,.51-1.26,1.35,1.35,0,0,0-.5-1.1,1.87,1.87,0,0,0-1.2-.4,1.91,1.91,0,0,0-1.93,1.5l-3-.84a4,4,0,0,1,.55-1.25,4.71,4.71,0,0,1,1-1.08,4.6,4.6,0,0,1,1.48-.77,6.25,6.25,0,0,1,1.93-.28,5.67,5.67,0,0,1,3.51,1,3.31,3.31,0,0,1,1.35,2.78,3.37,3.37,0,0,1-.48,1.85,2.75,2.75,0,0,1-1.37,1.09v0A2.88,2.88,0,0,1,42.23,32a3.56,3.56,0,0,1,.61,2.12A4,4,0,0,1,41.42,37.3Z"/></g></svg>