<svg xmlns="http://www.w3.org/2000/svg" viewBox="0 0 64 64">
    <g id="Square"> </g>
  <path fill-rule="evenodd" d="M55.125 50.625H8.875a3.5 3.5 0 0 1-3.5-3.5v-30.25a3.5 3.5 0 0 1 3.5-3.5h46.25a3.5 3.5 0 0 1 3.5 3.5v30.25a3.5 3.5 0 0 1-3.5 3.5Zm-46.25-34.25a.5.5 0 0 0-.5.5v30.25a.5.5 0 0 0 .5.5h46.25a.5.5 0 0 0 .5-.5v-30.25a.5.5 0 0 0-.5-.5H8.875Zm30.269 23.994a1.095 1.095 0 0 0-.377-.06.753.753 0 0 0-.663.361v-.301h-.527v2.47h.542v-1.386c0-.406.18-.632.527-.632.106 0 .211.015.332.06l.166-.512Zm-3.24.482h.874v-.498h-.874V39.6h-.543v.753h-.497v.498h.497v1.13c0 .572.227.92.86.92.24 0 .512-.076.677-.197l-.15-.467c-.166.09-.347.136-.482.136-.272 0-.362-.166-.362-.407V40.85Zm-5.35-.076c-.391 0-.602.242-.662.603h1.296c-.06-.392-.287-.603-.633-.603Zm.016-.467c.693 0 1.175.528 1.175 1.296a.842.842 0 0 1-.024.179l-.006.032h-1.838c.075.437.391.603.738.603.256 0 .512-.09.723-.256l.271.392c-.301.256-.633.346-1.01.346-.738 0-1.265-.512-1.265-1.296 0-.768.512-1.296 1.236-1.296Zm2.772.483c.317 0 .618.12.769.21l.226-.436c-.256-.166-.618-.257-1.01-.257-.618 0-1.024.302-1.024.799 0 .392.3.648.858.723l.257.03c.301.046.437.12.437.257 0 .195-.196.3-.558.3-.377 0-.648-.12-.829-.255l-.256.422c.286.21.663.316 1.07.316.723 0 1.13-.346 1.13-.814 0-.437-.316-.663-.859-.738l-.256-.03c-.241-.03-.422-.075-.422-.241 0-.181.166-.286.467-.286Zm7.098.075a.673.673 0 0 1 .3-.06c.106 0 .212.03.302.06.09.045.166.09.241.166.076.075.12.165.166.256a.7.7 0 0 1 .06.316.74.74 0 0 1-.06.317.752.752 0 0 1-.166.256.688.688 0 0 1-.24.166.675.675 0 0 1-.302.06.675.675 0 0 1-.301-.06.861.861 0 0 1-.242-.166.932.932 0 0 1-.165-.256.699.699 0 0 1-.06-.317.74.74 0 0 1 .06-.316c.045-.106.105-.181.165-.256a.69.69 0 0 1 .242-.166Zm.828-.452a1.18 1.18 0 0 0-.527-.106c-.196 0-.377.03-.527.106a1.13 1.13 0 0 0-.422.271.997.997 0 0 0-.287.407c-.075.15-.105.331-.105.512s.045.347.105.513c.076.15.166.286.287.406.12.12.256.211.422.272.15.075.331.105.527.105.18 0 .361-.045.527-.105.166-.06.302-.151.422-.272a.997.997 0 0 0 .287-.407c.075-.15.105-.331.105-.512 0-.18-.045-.346-.105-.512a1.528 1.528 0 0 0-.287-.407 1.13 1.13 0 0 0-.422-.271Zm-13.757.392c-.467 0-.754.361-.754.798 0 .437.287.784.754.784.437 0 .738-.332.738-.784s-.286-.798-.738-.798Zm1.25-.437v2.471h-.542v-.302a.953.953 0 0 1-.784.362c-.693 0-1.235-.542-1.235-1.296 0-.753.542-1.296 1.235-1.296.362 0 .618.136.784.362v-.301h.542Zm-3.028.919v1.522h-.558v-1.372c0-.422-.18-.648-.542-.648-.347 0-.603.242-.603.663v1.372h-.543v-1.372c0-.421-.18-.647-.542-.647-.362 0-.603.24-.603.663v1.37H21.8v-2.47h.542v.301c.196-.286.467-.362.724-.362.376 0 .648.166.813.437.226-.346.558-.437.874-.437.603 0 .98.392.98.98Zm2.485-11.503a8.598 8.598 0 0 1 3.282-6.75 8.638 8.638 0 1 0 0 13.537 8.615 8.615 0 0 1-3.282-6.787Zm8.634-8.637a8.605 8.605 0 0 0-5.352 1.875 8.617 8.617 0 0 1 0 13.537 8.637 8.637 0 1 0 5.352-15.413Zm0 1.217a7.42 7.42 0 0 1 0 14.84 7.23 7.23 0 0 1-3.392-.828 9.818 9.818 0 0 0 0-13.185 7.251 7.251 0 0 1 3.392-.827Z"/>
</svg>
