<svg xmlns="http://www.w3.org/2000/svg" viewBox="0 0 64 64"><defs><style>.cls-1{fill:none;}.cls-2{fill:#8c8c8c;}</style></defs><title>Product_Promise_MadeInEurope_64px</title><g id="Square"><rect class="cls-1" width="64" height="64"/></g><g id="Icon"><path class="cls-2" d="M35.67,7.61H33.3l-.73-2.26a.6.6,0,0,0-1.09,0l-.72,2.26H28.38a.57.57,0,0,0-.33,1L30,10l-.73,2.26a.59.59,0,0,0,.21.64.57.57,0,0,0,.67,0L32,11.53l1.91,1.39a.54.54,0,0,0,.34.12.57.57,0,0,0,.33-.11.57.57,0,0,0,.21-.64L34.09,10,36,8.65a.57.57,0,0,0,.2-.64A.56.56,0,0,0,35.67,7.61Z"/><path class="cls-2" d="M42,13l-.73,2.26a.57.57,0,0,0,.21.64.59.59,0,0,0,.67,0l1.91-1.39L46,15.86a.59.59,0,0,0,.34.1.51.51,0,0,0,.33-.11.56.56,0,0,0,.21-.64L46.12,13l1.93-1.38a.59.59,0,0,0,.21-.64.58.58,0,0,0-.55-.4H45.34L44.6,8.28a.58.58,0,0,0-.55-.39h0a.57.57,0,0,0-.54.39l-.73,2.26H40.41a.56.56,0,0,0-.54.4.57.57,0,0,0,.2.64Z"/><path class="cls-2" d="M55.35,41.86H53l-.75-2.25a.56.56,0,0,0-.54-.39h0a.56.56,0,0,0-.54.39l-.73,2.25H48.05a.57.57,0,0,0-.34,1l1.92,1.4-.73,2.26a.57.57,0,0,0,.21.64.59.59,0,0,0,.67,0l1.91-1.4,1.93,1.4a.6.6,0,0,0,.34.11.59.59,0,0,0,.33-.11.57.57,0,0,0,.21-.64l-.74-2.26,1.93-1.4a.58.58,0,0,0,.2-.64A.56.56,0,0,0,55.35,41.86Z"/><path class="cls-2" d="M46.93,50H44.55l-.74-2.25a.56.56,0,0,0-.54-.4h0a.56.56,0,0,0-.54.4L42,50H39.63a.57.57,0,0,0-.34,1l1.92,1.39-.73,2.25a.57.57,0,0,0,.21.64.59.59,0,0,0,.67,0l1.91-1.39,1.93,1.39a.59.59,0,0,0,.33.11.6.6,0,0,0,.34-.11.59.59,0,0,0,.21-.64l-.74-2.25L47.26,51a.56.56,0,0,0,.21-.64A.57.57,0,0,0,46.93,50Z"/><path class="cls-2" d="M16.53,42.25a.58.58,0,0,0-.54-.39H13.61l-.72-2.25a.58.58,0,0,0-.55-.39h0a.58.58,0,0,0-.54.39l-.74,2.25H8.68a.58.58,0,0,0-.54.39.56.56,0,0,0,.21.64l1.93,1.4-.74,2.26a.57.57,0,0,0,.2.64.6.6,0,0,0,.68,0l1.91-1.4,1.93,1.4a.59.59,0,0,0,.33.11.6.6,0,0,0,.34-.11.59.59,0,0,0,.21-.64l-.73-2.26,1.91-1.4A.57.57,0,0,0,16.53,42.25Z"/><path class="cls-2" d="M47.5,19.51a.58.58,0,0,0,.21.64l1.92,1.39-.73,2.25a.56.56,0,0,0,.21.64.56.56,0,0,0,.67,0L51.69,23l1.93,1.39a.6.6,0,0,0,.34.11.59.59,0,0,0,.33-.11.57.57,0,0,0,.21-.64l-.74-2.25,1.92-1.39a.57.57,0,0,0-.33-1H53l-.75-2.26a.56.56,0,0,0-.54-.4h0a.56.56,0,0,0-.54.4l-.73,2.26H48.05A.57.57,0,0,0,47.5,19.51Z"/><path class="cls-2" d="M59,31a.56.56,0,0,0-.54-.39H56.06l-.73-2.26a.58.58,0,0,0-.54-.39h0a.58.58,0,0,0-.54.39l-.74,2.26H51.13a.57.57,0,0,0-.34,1l1.93,1.4L52,35.31a.56.56,0,0,0,.21.64.59.59,0,0,0,.67,0l1.91-1.4L56.7,36a.6.6,0,0,0,.34.11.59.59,0,0,0,.33-.11.57.57,0,0,0,.21-.64l-.73-2.26,1.91-1.4A.55.55,0,0,0,59,31Z"/><path class="cls-2" d="M8.34,20.15l1.92,1.39-.74,2.25a.59.59,0,0,0,.21.64.6.6,0,0,0,.34.11.59.59,0,0,0,.33-.11L12.33,23l1.91,1.39a.56.56,0,0,0,.67,0,.56.56,0,0,0,.21-.64l-.73-2.25,1.92-1.39a.58.58,0,0,0,.21-.64.57.57,0,0,0-.55-.39H13.6l-.73-2.26a.56.56,0,0,0-.54-.4h0a.56.56,0,0,0-.54.4l-.74,2.26H8.67a.56.56,0,0,0-.54.39A.55.55,0,0,0,8.34,20.15Z"/><path class="cls-2" d="M11.15,36a.59.59,0,0,0,.67,0,.57.57,0,0,0,.2-.64l-.74-2.26,1.93-1.4a.57.57,0,0,0-.34-1H10.5l-.74-2.26A.58.58,0,0,0,9.22,28h0a.58.58,0,0,0-.54.39l-.73,2.26H5.57A.56.56,0,0,0,5,31a.55.55,0,0,0,.21.64l1.91,1.4-.73,2.26a.59.59,0,0,0,.21.64.6.6,0,0,0,.34.11A.59.59,0,0,0,7.3,36l1.92-1.4Z"/><path class="cls-2" d="M16,11.58,17.93,13l-.74,2.25a.58.58,0,0,0,.21.64.53.53,0,0,0,.34.11.58.58,0,0,0,.33-.1L20,14.47l1.91,1.39a.6.6,0,0,0,.68,0,.59.59,0,0,0,.2-.64L22.06,13,24,11.58a.57.57,0,0,0-.34-1H21.27l-.73-2.26A.56.56,0,0,0,20,7.89h0a.56.56,0,0,0-.54.39l-.74,2.26H16.34a.56.56,0,0,0-.54.4A.57.57,0,0,0,16,11.58Z"/><path class="cls-2" d="M24.43,50H22.06l-.73-2.25a.56.56,0,0,0-.54-.4h0a.56.56,0,0,0-.54.4L19.51,50H17.13a.57.57,0,0,0-.33,1l1.92,1.39L18,54.64a.59.59,0,0,0,.21.64.6.6,0,0,0,.34.11.59.59,0,0,0,.33-.11l1.93-1.39,1.91,1.39a.6.6,0,0,0,.68,0,.58.58,0,0,0,.2-.64l-.73-2.25L24.77,51a.57.57,0,0,0-.34-1Z"/><path class="cls-2" d="M35.67,53.57H33.3l-.73-2.25a.6.6,0,0,0-1.09,0l-.72,2.25H28.38a.58.58,0,0,0-.54.4.57.57,0,0,0,.21.64L30,56l-.73,2.25a.58.58,0,0,0,.21.64.6.6,0,0,0,.34.11.59.59,0,0,0,.33-.11L32,57.5l1.91,1.39a.56.56,0,0,0,.67,0,.57.57,0,0,0,.21-.64L34.09,56,36,54.61a.57.57,0,0,0,.2-.64A.56.56,0,0,0,35.67,53.57Z"/></g></svg>