<svg xmlns="http://www.w3.org/2000/svg" viewBox="0 0 64 64"><defs><style>.cls-1{fill:none;}.cls-2{fill:#8c8c8c;}</style></defs><title>Product_Promise_ProductOnPicture_64px</title><g id="Square"><rect class="cls-1" width="64" height="64"/></g><g id="Icon"><path class="cls-2" d="M57,5H37.91a2,2,0,0,0-1.42.59l-30.95,31a2,2,0,0,0,0,2.82L24.59,58.46a2,2,0,0,0,2.82,0l31-30.95h0A2,2,0,0,0,59,26.09V7A2,2,0,0,0,57,5ZM56,25.68l-30,30L8.37,38l30-30H56Z"/><path class="cls-2" d="M47.09,21.91a5,5,0,1,0-5-5A5,5,0,0,0,47.09,21.91Zm0-7a2,2,0,1,1-2,2A2,2,0,0,1,47.09,14.91Z"/></g></svg>