<svg xmlns="http://www.w3.org/2000/svg" viewBox="0 0 64 64"><defs><style>.cls-1{fill:none;}.cls-2{fill:#8c8c8c;}</style></defs><title>Product_Basket_Handbag_64px</title><g id="Square"><rect class="cls-1" width="64" height="64"/></g><g id="Icon"><path class="cls-2" d="M54.91,56.74,50,19.74a2,2,0,0,0-2-1.74H43V16a11,11,0,0,0-22,0v2H15.94a2,2,0,0,0-2,1.74l-4.87,37a2,2,0,0,0,2,2.26H52.93a2,2,0,0,0,2-2.26ZM24,16a8,8,0,0,1,16,0v2H24ZM12.21,56l4.61-35H21v4.5a1.5,1.5,0,0,0,3,0V21H40v4.5a1.5,1.5,0,0,0,3,0V21h4.18l4.61,35Z"/></g></svg>