<svg xmlns="http://www.w3.org/2000/svg" viewBox="0 0 64 64"><defs><style>.cls-1{fill:none;}.cls-2{fill:#8c8c8c;}</style></defs><title>Product_Promise_Warranty_64px</title><g id="Square"><rect class="cls-1" width="64" height="64"/></g><g id="Icon"><path class="cls-2" d="M59,32a10.48,10.48,0,0,0-5.16-9A10.52,10.52,0,0,0,41,10.16a10.5,10.5,0,0,0-18.08,0A10.52,10.52,0,0,0,10.16,23a10.5,10.5,0,0,0,0,18.08A10.52,10.52,0,0,0,23,53.84a10.5,10.5,0,0,0,18.08,0A10.52,10.52,0,0,0,53.84,41,10.48,10.48,0,0,0,59,32Zm-7.57,6.91a1.49,1.49,0,0,0-.81,1.94,7.5,7.5,0,0,1-9.77,9.77,1.49,1.49,0,0,0-1.94.8,7.5,7.5,0,0,1-13.82,0,1.5,1.5,0,0,0-1.38-.91,1.55,1.55,0,0,0-.56.11,7.5,7.5,0,0,1-9.77-9.77,1.49,1.49,0,0,0-.81-1.94,7.51,7.51,0,0,1,0-13.82,1.49,1.49,0,0,0,.81-1.94,7.5,7.5,0,0,1,9.77-9.77,1.49,1.49,0,0,0,1.94-.81,7.51,7.51,0,0,1,13.82,0,1.49,1.49,0,0,0,1.94.81,7.5,7.5,0,0,1,9.77,9.77,1.49,1.49,0,0,0,.81,1.94,7.51,7.51,0,0,1,0,13.82Z"/><path class="cls-2" d="M42.94,24,30.19,36.79l-7.13-7.13a1.5,1.5,0,1,0-2.12,2.12l7.83,7.83a2,2,0,0,0,2.83,0L45.06,26.15a1.49,1.49,0,0,0,0-2.12A1.51,1.51,0,0,0,42.94,24Z"/></g></svg>