<svg xmlns="http://www.w3.org/2000/svg" viewBox="0 0 64 64"><defs><style>.cls-1{fill:none;}.cls-2{fill:#8c8c8c;}</style></defs><title>Product_Basket_Standard_64px</title><g id="Square"><rect class="cls-1" width="64" height="64"/></g><g id="Icon"><path class="cls-2" d="M55.93,18.82A2,2,0,0,0,54.32,18h-38l-1.74-6.52A2,2,0,0,0,12.62,10H6.5a1.5,1.5,0,0,0,0,3h5.35l7.6,28.52A2,2,0,0,0,21.38,43H47.63a2,2,0,0,0,1.91-1.39l6.68-21A2,2,0,0,0,55.93,18.82ZM46.9,40H22.15L17.09,21H53Z"/><path class="cls-2" d="M25,47a6,6,0,1,0,6,6A6,6,0,0,0,25,47Zm0,9a3,3,0,1,1,3-3A3,3,0,0,1,25,56Z"/><path class="cls-2" d="M44,47a6,6,0,1,0,6,6A6,6,0,0,0,44,47Zm0,9a3,3,0,1,1,3-3A3,3,0,0,1,44,56Z"/></g></svg>