<svg xmlns="http://www.w3.org/2000/svg" viewBox="0 0 64 64"><defs><style>.cls-1{fill:none;}.cls-2{fill:#8c8c8c;}</style></defs><title>Product_Promise_EcoProduct_64px</title><g id="Square"><rect class="cls-1" width="64" height="64"/></g><g id="Icon"><path class="cls-2" d="M52,28.21,50.27,16.55A2.4,2.4,0,0,0,46.42,15l-8.2,6.46C33.44,13,23.49,7.35,20.08,5.62a2,2,0,0,0-2,.08,2,2,0,0,0-.94,1.71,13.41,13.41,0,0,1-.38,3A57.18,57.18,0,0,1,13,21.25c-2.2,5-4.1,9.31-2.92,16.13,2.16,12.45,20.52,16.4,21.3,16.56h0a33.44,33.44,0,0,0,9.12,5A1.52,1.52,0,0,0,41,59a1.5,1.5,0,0,0,.51-2.91,30.36,30.36,0,0,1-5.83-2.84c6-1.4,10.48-4.17,13.33-8.3C54,37.77,52.18,29.17,52,28.21ZM13,36.87c-1-5.93.62-9.68,2.7-14.42a59.45,59.45,0,0,0,4-11.4,16.37,16.37,0,0,0,.35-2c4.4,2.43,15.35,9.33,17.43,18.75s-3.54,18.87-6,22.34c-5.32-4.9-7.65-10.92-7.48-14.92a36.78,36.78,0,0,1,.82-5.86,21.51,21.51,0,0,0,.6-7.44,1.5,1.5,0,0,0-3,.39,18.77,18.77,0,0,1-.56,6.46,40.27,40.27,0,0,0-.88,6.32c-.16,3.67,1.45,9.24,5.62,14.33C21.48,47.43,14.16,43.53,13,36.87Zm33.51,6.4c-2.4,3.47-6.28,5.83-11.5,7.06,2.94-4.59,7.52-13.66,5.41-23.21a18.69,18.69,0,0,0-.88-2.87L47.45,18,49,28.71l0,.14C49.05,28.93,50.9,37,46.52,43.27Z"/></g></svg>