<svg xmlns="http://www.w3.org/2000/svg" viewBox="0 0 64 64"><defs><style>.cls-1{fill:none;}.cls-2{fill:#8c8c8c;}</style></defs><title>Product_Aspect_Weight_64px</title><g id="Square"><rect class="cls-1" width="64" height="64"/></g><g id="Icon"><path class="cls-2" d="M55.9,56.72l-4.85-34a2,2,0,0,0-2-1.72H40.94a10.5,10.5,0,1,0-17.88,0H14.93a2,2,0,0,0-2,1.72l-4.85,34a2,2,0,0,0,.47,1.59,2,2,0,0,0,1.51.69H53.92a2,2,0,0,0,1.51-.69A2,2,0,0,0,55.9,56.72ZM26.7,20.8a7.43,7.43,0,0,1-2.2-5.3,7.5,7.5,0,1,1,12.75,5.36s-.06.1-.1.14H26.83C26.78,20.94,26.75,20.86,26.7,20.8ZM11.23,56,15.8,24H48.2l4.57,32Z"/></g></svg>