<svg xmlns="http://www.w3.org/2000/svg" viewBox="0 0 64 64">
    <g id="Square"> </g>
  <path fill-rule="evenodd" d="M6.5 8A1.5 1.5 0 0 1 8 6.5h5.333a1.5 1.5 0 0 1 1.5 1.5v31.833H22.5V20a1.5 1.5 0 0 1 1.5-1.5h21.333a1.5 1.5 0 0 1 1.5 1.5v19.833h5.879l2.227-2.227a1.5 1.5 0 0 1 2.122 2.121l-2.667 2.667a1.5 1.5 0 0 1-1.06.44H13.332a1.5 1.5 0 0 1-1.5-1.5V9.5H8A1.5 1.5 0 0 1 6.5 8Zm37.333 31.833H25.5V21.5h8.167v5.167a1 1 0 0 0 2 0V21.5h8.166v18.333Zm-21.166 11a1.833 1.833 0 1 0 0 3.667 1.833 1.833 0 0 0 0-3.667Zm-4.834 1.834a4.833 4.833 0 1 1 9.667 0 4.833 4.833 0 0 1-9.667 0Zm25 0a1.833 1.833 0 1 1 3.667 0 1.833 1.833 0 0 1-3.667 0Zm1.834-4.834a4.833 4.833 0 1 0 0 9.667 4.833 4.833 0 0 0 0-9.667Z"/>
</svg>
