<svg xmlns="http://www.w3.org/2000/svg" viewBox="0 0 64 64"><defs><style>.cls-1{fill:none;}.cls-2{fill:#8c8c8c;}</style></defs><title>Product_Promise_Scan_64px</title><g id="Square"><rect class="cls-1" width="64" height="64"/></g><g id="Icon"><path class="cls-2" d="M6.5,20.94A1.5,1.5,0,0,0,8,19.44V8H19.5a1.5,1.5,0,0,0,0-3H7A2,2,0,0,0,5,7V19.44A1.5,1.5,0,0,0,6.5,20.94Z"/><path class="cls-2" d="M57,4.93H44.5a1.5,1.5,0,0,0,0,3H56v11.5a1.5,1.5,0,1,0,3,0V6.93A2,2,0,0,0,57,4.93Z"/><path class="cls-2" d="M19.5,55.92H8V44.42a1.5,1.5,0,0,0-3,0v12.5a2,2,0,0,0,2,2H19.5a1.5,1.5,0,0,0,0-3Z"/><path class="cls-2" d="M57.5,42.93a1.5,1.5,0,0,0-1.5,1.5v11.5H44.5a1.5,1.5,0,0,0,0,3H57a2,2,0,0,0,2-2V44.43A1.5,1.5,0,0,0,57.5,42.93Z"/><rect class="cls-2" x="22.97" y="20.93" width="1.71" height="22"/><rect class="cls-2" x="34.97" y="20.93" width="1.71" height="22"/><rect class="cls-2" x="45.97" y="20.93" width="1.71" height="22"/><rect class="cls-2" x="17.32" y="20.93" width="4" height="22"/><rect class="cls-2" x="27.62" y="20.93" width="4.41" height="22"/><rect class="cls-2" x="39.62" y="20.93" width="4.41" height="22"/></g></svg>