<svg xmlns="http://www.w3.org/2000/svg" viewBox="0 0 64 64"><defs><style>.cls-1{fill:none;}.cls-2{fill:#8c8c8c;}</style></defs><title>Product_List_Standard_64px</title><g id="Square"><rect class="cls-1" width="64" height="64"/></g><g id="Icon"><path class="cls-2" d="M49,9H15a2,2,0,0,0-2,2V53a2,2,0,0,0,2,2H49a2,2,0,0,0,2-2V11A2,2,0,0,0,49,9ZM48,52H16V12H48Z"/><path class="cls-2" d="M22.5,33.5h11a1.5,1.5,0,0,0,0-3h-11a1.5,1.5,0,0,0,0,3Z"/><path class="cls-2" d="M22.5,24h19a1.5,1.5,0,0,0,0-3h-19a1.5,1.5,0,0,0,0,3Z"/><path class="cls-2" d="M22.5,43h11a1.5,1.5,0,0,0,0-3h-11a1.5,1.5,0,0,0,0,3Z"/><path class="cls-2" d="M41.5,30.5h-3a1.5,1.5,0,0,0,0,3h3a1.5,1.5,0,0,0,0-3Z"/><path class="cls-2" d="M41.5,40h-3a1.5,1.5,0,0,0,0,3h3a1.5,1.5,0,0,0,0-3Z"/></g></svg>