<svg xmlns="http://www.w3.org/2000/svg" viewBox="0 0 64 64"><defs><style>.cls-1{fill:none;}.cls-2{fill:#8c8c8c;}</style></defs><title>Project_DescribeProject_64px</title><g id="Square"><rect class="cls-1" width="64" height="64"/></g><g id="Icon"><path class="cls-2" d="M41,31.82,54.15,18.75a2,2,0,0,0,.59-1.41,2,2,0,0,0-.59-1.42l-5.79-5.78a2,2,0,0,0-2.8,0L32.25,23.06,19,9.85a2,2,0,0,0-1.61-.55,2.26,2.26,0,0,0-1.31.64L9.94,16.12a2.26,2.26,0,0,0-.64,1.31A1.94,1.94,0,0,0,9.85,19L22.93,32.12l-11.33,11A2,2,0,0,0,11,44.2L9.64,51.75a2,2,0,0,0,.56,1.78,2,2,0,0,0,1.41.59,2.2,2.2,0,0,0,.36,0l7.57-1.39a1.94,1.94,0,0,0,1-.54L31.8,41,45,54.15a1.93,1.93,0,0,0,1.37.56h.24a2.26,2.26,0,0,0,1.31-.64l6.18-6.18a2.26,2.26,0,0,0,.64-1.31A1.94,1.94,0,0,0,54.15,45ZM46.94,13l4.38,4.37-3,3L44,15.87Zm-4.42,4.3L47,21.69l-8.06,8-4.52-4.52ZM13.65,46.56l3.52,3.52-4.31.79Zm5.55,2.73-4.75-4.75,10.6-10.3,4.63,4.63Zm27.17,2-2.76-2.76L45,47.21a1,1,0,0,0-1.42-1.42l-1.35,1.35-5.08-5.08,1.35-1.35A1,1,0,0,0,37,39.29l-1.35,1.35-5.46-5.45,1.35-1.36a1,1,0,0,0,0-1.41,1,1,0,0,0-1.41,0l-1.35,1.35-6-6,1.35-1.35A1,1,0,0,0,22.79,25l-1.35,1.35-5.08-5.08L17.71,20a1,1,0,0,0-1.42-1.42l-1.35,1.35-2.26-2.26,4.95-4.95L51.32,46.37Z"/></g></svg>