<svg xmlns="http://www.w3.org/2000/svg" viewBox="0 0 64 64"><defs><style>.cls-1{fill:none;}.cls-2{fill:#8c8c8c;}</style></defs><title>Service_AfterSales_Payback_64px</title><g id="Square"><rect class="cls-1" width="64" height="64"/></g><g id="Icon"><path class="cls-2" d="M61.56,21.94a1.49,1.49,0,0,0-2.12,0L55,26.38V11a2,2,0,0,0-2-2H11a2,2,0,0,0-2,2V21a1.5,1.5,0,0,0,3,0V12H52V26.38l-4.44-4.44a1.5,1.5,0,0,0-2.12,2.12l6.65,6.65a2,2,0,0,0,2.82,0l6.65-6.65A1.49,1.49,0,0,0,61.56,21.94Z"/><path class="cls-2" d="M53.5,41.5A1.5,1.5,0,0,0,52,43v9H12V37.37l4.44,4.44a1.5,1.5,0,0,0,2.12,0,1.49,1.49,0,0,0,0-2.12L11.91,33a2,2,0,0,0-2.82,0L2.44,39.69a1.5,1.5,0,0,0,2.12,2.12L9,37.37V53a2,2,0,0,0,2,2H53a2,2,0,0,0,2-2V43A1.5,1.5,0,0,0,53.5,41.5Z"/></g></svg>