<svg xmlns="http://www.w3.org/2000/svg" viewBox="0 0 64 64"><defs><style>.cls-1{fill:none;}.cls-2{fill:#8c8c8c;}</style></defs><title>Service_Delay_Delivery--2h_64px</title><g id="Square"><rect class="cls-1" width="64" height="64"/></g><g id="Icon"><path class="cls-2" d="M52.11,14l1.39-1.39.94.94a1.5,1.5,0,0,0,2.12,0,1.49,1.49,0,0,0,0-2.12l-4-4a1.5,1.5,0,0,0-2.12,2.12l.94.94L50,11.89a26.93,26.93,0,0,0-36,0L11.37,9.25l1.94-1.94a1.5,1.5,0,0,0-2.12-2.12l-6,6a1.49,1.49,0,0,0,0,2.12,1.5,1.5,0,0,0,2.12,0l1.94-1.94L11.89,14a27,27,0,1,0,40.22,0ZM32,56A24,24,0,1,1,56,32,24,24,0,0,1,32,56Z"/><path class="cls-2" d="M28.06,32.6a8.83,8.83,0,0,0,1.73-2.07,4.11,4.11,0,0,0,.54-2.05,3.38,3.38,0,0,0-1.18-2.62,4.84,4.84,0,0,0-3.29-1,5,5,0,0,0-2.91.81,3.88,3.88,0,0,0-1.53,2l2.27.65a2.14,2.14,0,0,1,.82-1,2.41,2.41,0,0,1,1.31-.36,2,2,0,0,1,1.44.49,1.67,1.67,0,0,1,.52,1.28A2.42,2.42,0,0,1,27.43,30a7.44,7.44,0,0,1-1.26,1.46l-4.44,4.11v2h8.74V35.4H25Z"/><path class="cls-2" d="M37.59,27.67a3.13,3.13,0,0,0-1.47.35,3.67,3.67,0,0,0-1.09.89V24.07H32.72v13.5H35V31.92a2.09,2.09,0,0,1,.54-1.52,1.87,1.87,0,0,1,2.64,0,2,2,0,0,1,.52,1.46v5.74H41V31.3a3.59,3.59,0,0,0-1-2.65A3.34,3.34,0,0,0,37.59,27.67Z"/></g></svg>