<svg xmlns="http://www.w3.org/2000/svg" viewBox="0 0 64 64"><defs><style>.cls-1{fill:none;}.cls-2{fill:#8c8c8c;}</style></defs><title>Service_Delay_Delivery--48h_64px</title><g id="Square"><rect class="cls-1" width="64" height="64"/></g><g id="Icon"><path class="cls-2" d="M52.11,14l1.39-1.39.94.94a1.5,1.5,0,0,0,2.12,0,1.49,1.49,0,0,0,0-2.12l-4-4a1.5,1.5,0,0,0-2.12,2.12l.94.94L50,11.89a26.93,26.93,0,0,0-36,0L11.37,9.25l1.94-1.94a1.5,1.5,0,0,0-2.12-2.12l-6,6a1.49,1.49,0,0,0,0,2.12,1.5,1.5,0,0,0,2.12,0l1.94-1.94L11.89,14a27,27,0,1,0,40.22,0ZM32,56A24,24,0,1,1,56,32,24,24,0,0,1,32,56Z"/><polygon class="cls-2" points="23.82 29.9 21.57 29.9 21.57 32.85 18.61 32.85 21.97 25.06 19.48 25.06 16.07 33 16.07 34.87 21.57 34.87 21.57 37.57 23.82 37.57 23.82 34.87 25.24 34.87 25.24 32.85 23.82 32.85 23.82 29.9"/><path class="cls-2" d="M33.63,31.19a3.13,3.13,0,0,0,.75-5.36,4.89,4.89,0,0,0-3.22-1,4.89,4.89,0,0,0-3.22,1,3.13,3.13,0,0,0,.74,5.36,3.89,3.89,0,0,0-1.49,1.16,2.75,2.75,0,0,0-.59,1.8,3.25,3.25,0,0,0,1.23,2.65,5.13,5.13,0,0,0,3.33,1,5.15,5.15,0,0,0,3.34-1,3.27,3.27,0,0,0,1.24-2.65,2.75,2.75,0,0,0-.6-1.8A3.88,3.88,0,0,0,33.63,31.19Zm-3.9-4.07a2.29,2.29,0,0,1,2.86,0,1.69,1.69,0,0,1,.57,1.34,1.85,1.85,0,0,1-.52,1.3,2.28,2.28,0,0,1-2.95,0,1.81,1.81,0,0,1-.53-1.3A1.69,1.69,0,0,1,29.73,27.12Zm3,8.33a2.25,2.25,0,0,1-1.55.53,2.2,2.2,0,0,1-1.54-.53A1.8,1.8,0,0,1,29,34a1.84,1.84,0,0,1,.59-1.39,2.18,2.18,0,0,1,1.56-.56,2.22,2.22,0,0,1,1.57.56,2,2,0,0,1,0,2.82Z"/><path class="cls-2" d="M42.8,27.67a3.13,3.13,0,0,0-1.47.35,3.67,3.67,0,0,0-1.09.89V24.07H37.93v13.5h2.31V31.92a2.06,2.06,0,0,1,.55-1.52,1.78,1.78,0,0,1,1.32-.56,1.76,1.76,0,0,1,1.31.53,2,2,0,0,1,.52,1.46v5.74h2.31V31.3a3.59,3.59,0,0,0-1-2.65A3.34,3.34,0,0,0,42.8,27.67Z"/></g></svg>