<svg xmlns="http://www.w3.org/2000/svg" viewBox="0 0 64 64"><defs><style>.cls-1{fill:none;}.cls-2{fill:#8c8c8c;}</style></defs><title>Service_Custom_Course_64px</title><g id="Square"><rect class="cls-1" width="64" height="64"/></g><g id="Icon"><path class="cls-2" d="M57.84,28.27a2,2,0,0,0,0-3.54l-24.91-13a2,2,0,0,0-1.85,0l-24.92,13a2,2,0,0,0,0,3.54L13,31.84v11a2,2,0,0,0,.25,1C16.55,49.8,23.73,53.5,32,53.5s15.45-3.7,18.75-9.66a2.07,2.07,0,0,0,.25-1v-11l3-1.56V45.67a3.25,3.25,0,1,0,2,0V29.23ZM32,14.64,54.75,26.5,48,30h0v0L32,38.36,16,30v0h0L9.25,26.5Zm16,28c-2.83,4.87-8.93,7.89-16,7.89s-13.18-3-16-7.89V33.4l15.07,7.86a1.91,1.91,0,0,0,.93.23,2,2,0,0,0,.92-.22L48,33.41Z"/></g></svg>