<svg xmlns="http://www.w3.org/2000/svg" viewBox="0 0 64 64"><defs><style>.cls-1{fill:none;}.cls-2{fill:#999;}</style></defs><title>Service_Delivery_Delivery--Home_64px</title><g id="Square"><rect class="cls-1" width="64" height="64"/></g><g id="Icon"><g id="Calque_1" data-name="Calque 1"><path class="cls-2" d="M55.47,29.82H54.25l-3.14-8a3.45,3.45,0,0,0-3.25-2.23H43V16.5a3.49,3.49,0,0,0-3.5-3.5h-27A3.5,3.5,0,0,0,9,16.5V20h3V16.5a.5.5,0,0,1,.5-.5h27a.5.5,0,0,1,.5.5V29.57a1.5,1.5,0,0,0,3,0h0v-7h4.89a.51.51,0,0,1,.47.32l3.87,9.94h3.27a.5.5,0,0,1,.5.5v9.26a.48.48,0,0,1-.47.48H52.57a7.31,7.31,0,0,0-14.56,0H32a7.29,7.29,0,0,0-14.54,0h-5a.48.48,0,0,1-.48-.48V38.65H9v3.93a3.48,3.48,0,0,0,3.48,3.48h5.33a7.3,7.3,0,0,0,13.81,0h6.79a7.3,7.3,0,0,0,13.82,0h3.3A3.47,3.47,0,0,0,59,42.58V33.32A3.5,3.5,0,0,0,55.47,29.82Zm-38,15a.24.24,0,0,1,0,.12.19.19,0,0,0,0-.11ZM24.69,48A4.31,4.31,0,1,1,29,43.66v0A4.31,4.31,0,0,1,24.69,48Zm7.22-3.17V45S31.89,44.87,31.91,44.83Zm6.18,0v0ZM45.29,48a4.31,4.31,0,1,1,4.32-4.31A4.3,4.3,0,0,1,45.29,48Zm7.21-3.17v0Z"/><path class="cls-2" d="M19.72,34.67a1,1,0,0,0-1-1H7.22a1,1,0,1,0,0,2h11.5A1,1,0,0,0,19.72,34.67Z"/><path class="cls-2" d="M18.72,28.34h-8a1,1,0,0,0,0,2h8a1,1,0,0,0,0-2Z"/><path class="cls-2" d="M19.72,24a1,1,0,0,0-1-1H6a1,1,0,0,0,0,2H18.72A1,1,0,0,0,19.72,24Z"/></g></g></svg>