<svg xmlns="http://www.w3.org/2000/svg" viewBox="0 0 64 64"><defs><style>.cls-1{fill:none;}.cls-2{fill:#8c8c8c;}</style></defs><title>Service_Tools_3d_64px</title><g id="Square"><rect class="cls-1" width="64" height="64"/></g><g id="Icon"><path class="cls-2" d="M54,18.06,33,5.85a2,2,0,0,0-2,0L10,18.06a2,2,0,0,0-1,1.73V44.21a2,2,0,0,0,1,1.73L31,58.15a2,2,0,0,0,1,.27,2,2,0,0,0,1-.27L54,45.94a2,2,0,0,0,1-1.73V19.79A2,2,0,0,0,54,18.06ZM32,8.74,50.52,19.5,32,30.26,13.48,19.5ZM12,22.11,30.5,32.86V54.39L12,43.64ZM33.5,54.39V32.86L52,22.11V43.64Z"/></g></svg>