<svg xmlns="http://www.w3.org/2000/svg" viewBox="0 0 64 64"><defs><style>.cls-1{fill:none;}.cls-2{fill:#8c8c8c;}</style></defs><title>Service_Delivery_Delivery_Pickup--Store_64px</title><g id="Square"><rect class="cls-1" width="64" height="64"/></g><g id="Icon"><path class="cls-2" d="M50.6,44.55,34.16,49.12a5.54,5.54,0,0,0-4-3.49L22.48,16.75a2.11,2.11,0,0,0-.51-.91l-7.91-7.9a1.5,1.5,0,0,0-2.12,2.12l7.71,7.72,7.49,28.05a5.5,5.5,0,1,0,7.23,6.35l17-4.73a1.5,1.5,0,0,0-.8-2.9ZM29,53.5A2.5,2.5,0,1,1,31.5,51,2.5,2.5,0,0,1,29,53.5Z"/><path class="cls-2" d="M53.84,38l-4.4-16.42A2,2,0,0,0,47,20.16l-16.42,4.4A2,2,0,0,0,29.16,27l4.4,16.42a2,2,0,0,0,1.93,1.48,1.91,1.91,0,0,0,.52-.07l16.42-4.4A2,2,0,0,0,53.84,38ZM36.2,41.69,32.31,27.2,46.8,23.31,50.69,37.8Z"/></g></svg>