<svg xmlns="http://www.w3.org/2000/svg" viewBox="0 0 64 64"><defs><style>.cls-1{fill:none;}.cls-2{fill:#8c8c8c;}</style></defs><title>Service_PurchaseHelp_HomeDIY_64px</title><g id="Square"><rect class="cls-1" width="64" height="64"/></g><g id="Icon"><path class="cls-2" d="M58.78,41.78a4.93,4.93,0,0,0-4.72-3.58H54V34.07A22,22,0,0,0,43,15v-4a2,2,0,0,0-2-2H23a2,2,0,0,0-2,2v4a22,22,0,0,0-11,19v4.14H10a5,5,0,0,0-1.19,9.86A95.42,95.42,0,0,0,32,50.92a95.42,95.42,0,0,0,23.24-2.86,4.93,4.93,0,0,0,3.1-2.34A5,5,0,0,0,58.78,41.78Zm-3,2.44a2,2,0,0,1-1.23.93,92.93,92.93,0,0,1-45,0,2,2,0,0,1-1.23-.93,2,2,0,0,1-.16-1.6,1.93,1.93,0,0,1,2.32-1.36l.45.11,2.13.51V34.07a19,19,0,0,1,8-15.49v10a1.5,1.5,0,0,0,3,0V12.07H40v16.5a1.5,1.5,0,0,0,3,0v-10a19,19,0,0,1,8,15.49v7.81l2.13-.51.45-.11a2,2,0,0,1,2.16,3Z"/><path class="cls-2" d="M45.34,41a85.87,85.87,0,0,1-26.68,0,1,1,0,0,0-1.15.83A1,1,0,0,0,18.34,43,88.35,88.35,0,0,0,32,44.07,88.35,88.35,0,0,0,45.66,43a1,1,0,1,0-.32-2Z"/></g></svg>