<svg xmlns="http://www.w3.org/2000/svg" viewBox="0 0 64 64"><defs><style>.cls-1{fill:none;}.cls-2{fill:#8c8c8c;}</style></defs><title>Social_View_TesterView_64px</title><g id="Square"><rect class="cls-1" width="64" height="64"/></g><g id="Icon"><path class="cls-2" d="M32,5A27,27,0,1,0,59,32,27,27,0,0,0,32,5Zm0,51A24,24,0,1,1,56,32,24,24,0,0,1,32,56Z"/><path class="cls-2" d="M46.2,25.51l-8.15-1.25-3.6-7.7a2.7,2.7,0,0,0-4.9,0L26,24.26,17.8,25.51a2.71,2.71,0,0,0-1.53,4.57l6,6.15-1.4,8.62a2.7,2.7,0,0,0,4,2.81l7.17-4,7.17,4a2.71,2.71,0,0,0,4-2.81l-1.4-8.62,6-6.15a2.71,2.71,0,0,0-1.53-4.57Zm-6.7,8.73a2.7,2.7,0,0,0-.73,2.33l1.32,8.17L33.31,41a2.69,2.69,0,0,0-2.62,0l-6.78,3.76,1.32-8.17a2.7,2.7,0,0,0-.73-2.33l-5.69-5.85,7.74-1.19a2.68,2.68,0,0,0,2.05-1.53L32,18.4l3.4,7.28a2.69,2.69,0,0,0,2.05,1.52l7.74,1.19Z"/></g></svg>