<svg xmlns="http://www.w3.org/2000/svg" viewBox="0 0 64 64"><defs><style>.cls-1{fill:none;}.cls-2{fill:#8c8c8c;}</style></defs><title>Social_View_Star--First_64px</title><g id="Square"><rect class="cls-1" width="64" height="64"/></g><g id="Icon"><path class="cls-2" d="M58.6,25.39A2,2,0,0,0,57,24.05l-16-2.5L33.82,6a2,2,0,0,0-3.64,0L23,21.55,7,24.05A2,2,0,0,0,5.4,25.39a2,2,0,0,0,.45,2L17.54,39.62,14.78,56.85a2,2,0,0,0,2,2.32,2.06,2.06,0,0,0,1-.26l14.26-8,14.26,8a2,2,0,0,0,3-2.06L46.46,39.62,58.15,27.41A2,2,0,0,0,58.6,25.39ZM43.27,38.63l2.66,16.65L32,47.43,18.07,55.28l2.66-16.65L9.34,26.72l15.74-2.45L32,9.22l6.92,15.05,15.74,2.45Z"/></g></svg>