<svg xmlns="http://www.w3.org/2000/svg" viewBox="0 0 64 64"><defs><style>.cls-1{fill:none;}.cls-2{fill:#8c8c8c;}</style></defs><title>Social_Share_ShareIOS_64px</title><g id="Square"><rect class="cls-1" width="64" height="64"/></g><g id="Icon"><path class="cls-2" d="M53,9H44.5a1.5,1.5,0,0,0,0,3H52V52H12V12h7.5a1.5,1.5,0,0,0,0-3H11a2,2,0,0,0-2,2V53a2,2,0,0,0,2,2H53a2,2,0,0,0,2-2V11A2,2,0,0,0,53,9Z"/><path class="cls-2" d="M25.05,15.47l5.45-5.38V41.5a1.5,1.5,0,0,0,3,0V10.12l5.44,5.44a1.5,1.5,0,0,0,2.12,0,1.49,1.49,0,0,0,0-2.12L33.41,5.79a2,2,0,0,0-2.82,0L23,13.34a1.5,1.5,0,1,0,2.1,2.13Z"/></g></svg>