<svg xmlns="http://www.w3.org/2000/svg" viewBox="0 0 64 64">
      <g id="Square"> </g>
  <path d="M47.399 16.023a12.783 12.783 0 0 1-5.785-10.69h-9.132l-.015 36.748c-.153 4.115-3.526 7.418-7.66 7.418a7.588 7.588 0 0 1-3.561-.887 7.716 7.716 0 0 1-4.115-6.822c0-4.25 3.444-7.708 7.675-7.708.79 0 1.548.131 2.265.356v-9.36a16.681 16.681 0 0 0-2.265-.165C15.54 24.913 8 32.483 8 41.789c0 5.71 2.841 10.763 7.175 13.819a16.661 16.661 0 0 0 9.631 3.058c9.267 0 16.807-7.57 16.807-16.877V23.156a21.651 21.651 0 0 0 12.703 4.102v-9.17c-2.55 0-4.926-.76-6.918-2.065Z"/>
</svg>
