<svg xmlns="http://www.w3.org/2000/svg" viewBox="0 0 64 64"><defs><style>.cls-1{fill:none;}.cls-2{fill:#8c8c8c;}</style></defs><g id="Square"><rect class="cls-1" width="64" height="64"/></g><g id="Icon"><path class="cls-2" d="M5.57,42.31a2,2,0,0,0,1.5.69H20.5a2,2,0,0,0,2-2v-.68l8.58,15.54A6,6,0,0,0,36.31,59a5.81,5.81,0,0,0,1.17-.12,6,6,0,0,0,4.72-7L40.55,43h12.7a5.63,5.63,0,0,0,5.69-4.71A5.46,5.46,0,0,0,56.62,33,5.32,5.32,0,0,0,57,31a5.49,5.49,0,0,0-2.38-4.51,5.38,5.38,0,0,0,.38-2,5.47,5.47,0,0,0-2.24-4.41A5.5,5.5,0,0,0,53,18.15,5.61,5.61,0,0,0,47.31,13H29.22a8.55,8.55,0,0,0-2.88.5L22.5,14.88V13.5a2,2,0,0,0-2-2H10.93a2,2,0,0,0-2,1.72L5.09,40.72A2,2,0,0,0,5.57,42.31Zm16.93-8.2v-16l4.86-1.75A5.55,5.55,0,0,1,29.22,16H47.31A2.64,2.64,0,0,1,50,18.34a2.57,2.57,0,0,1-.32,1.41,1.73,1.73,0,0,0-.15,1.42,1.76,1.76,0,0,0,1,1A2.49,2.49,0,0,1,52,24.5,2.44,2.44,0,0,1,51.51,26a1.75,1.75,0,0,0,.82,2.7A2.49,2.49,0,0,1,54,31a2.44,2.44,0,0,1-.49,1.46,1.75,1.75,0,0,0,.82,2.7A2.47,2.47,0,0,1,56,37.87,2.6,2.6,0,0,1,53.34,40H36.94l2.31,12.42a3,3,0,0,1-5.54,2ZM8.22,40,11.8,14.5h7.7V40Z"/></g></svg>