<svg xmlns="http://www.w3.org/2000/svg" viewBox="0 0 64 64">
      <g id="Square"> </g>
  <path d="M20.957 5.52c-2.838.134-4.775.587-6.47 1.252-1.752.683-3.238 1.6-4.717 3.084-1.478 1.484-2.388 2.97-3.067 4.726-.656 1.698-1.101 3.637-1.227 6.476-.125 2.84-.153 3.752-.139 10.993.014 7.242.046 8.15.184 10.994.135 2.837.586 4.774 1.252 6.469.684 1.753 1.6 3.238 3.084 4.717 1.485 1.479 2.97 2.387 4.73 3.067 1.697.655 3.636 1.102 6.475 1.227 2.838.124 3.752.153 10.991.139 7.24-.014 8.151-.046 10.995-.181 2.845-.135 4.772-.59 6.467-1.252 1.753-.686 3.24-1.6 4.717-3.085 1.478-1.485 2.388-2.973 3.066-4.73.657-1.695 1.103-3.635 1.226-6.471.125-2.847.154-3.756.14-10.996-.014-7.24-.046-8.148-.181-10.992-.135-2.844-.587-4.775-1.252-6.47-.685-1.754-1.6-3.238-3.084-4.718-1.483-1.48-2.972-2.39-4.729-3.066-1.697-.656-3.636-1.104-6.474-1.226-2.838-.123-3.752-.154-10.994-.14-7.242.013-8.15.044-10.993.183Zm.311 48.207c-2.6-.113-4.012-.545-4.953-.907-1.245-.48-2.133-1.06-3.07-1.988-.938-.929-1.514-1.82-2-3.063-.366-.94-.806-2.35-.927-4.95-.133-2.81-.16-3.655-.176-10.774-.015-7.12.012-7.962.135-10.774.11-2.597.546-4.01.907-4.951.48-1.247 1.058-2.133 1.989-3.07.93-.937 1.818-1.514 3.062-2 .94-.368 2.35-.804 4.95-.928 2.812-.133 3.654-.16 10.773-.175 7.118-.016 7.963.01 10.776.135 2.598.113 4.012.543 4.951.906 1.247.48 2.134 1.057 3.07 1.99.938.931 1.515 1.816 2.002 3.063.367.937.804 2.347.926 4.947.134 2.813.165 3.656.177 10.774.013 7.118-.012 7.963-.135 10.773-.114 2.6-.545 4.012-.907 4.954-.48 1.245-1.058 2.134-1.99 3.07-.93.937-1.818 1.514-3.063 2-.938.367-2.35.804-4.947.928-2.812.132-3.655.16-10.776.175-7.121.015-7.961-.013-10.773-.135m21.739-35.98a3.2 3.2 0 1 0 6.4-.01 3.2 3.2 0 0 0-6.4.01Zm-24.7 14.28c.015 7.563 6.157 13.68 13.719 13.665 7.56-.014 13.682-6.156 13.667-13.719-.014-7.562-6.158-13.68-13.72-13.666-7.562.015-13.68 6.158-13.665 13.72Zm4.804-.01a8.89 8.89 0 1 1 17.778-.035 8.89 8.89 0 0 1-17.778.035Z"/>
</svg>
