<svg xmlns="http://www.w3.org/2000/svg" viewBox="0 0 64 64"><defs><style>.cls-1{fill:none;}.cls-2{fill:#999;}</style></defs><title>Store_Locator_64px</title><g id="Square"><rect class="cls-1" width="64" height="64"/></g><g id="Icon"><path class="cls-2" d="M57.5,30.5H50.92A19,19,0,0,0,33.5,13.08V6.5a1.5,1.5,0,0,0-3,0v6.58A19,19,0,0,0,13.08,30.5H6.5a1.5,1.5,0,0,0,0,3h6.58A19,19,0,0,0,30.5,50.92V57.5a1.5,1.5,0,0,0,3,0V50.92A19,19,0,0,0,50.92,33.5H57.5a1.5,1.5,0,0,0,0-3ZM32,48A16,16,0,1,1,48,32,16,16,0,0,1,32,48Z"/></g></svg>