<svg xmlns="http://www.w3.org/2000/svg" viewBox="0 0 64 64"><defs><style>.cls-1{fill:none;}.cls-2{fill:#8c8c8c;}</style></defs><title>Store_Logo_64px</title><g id="Square"><rect class="cls-1" width="64" height="64"/></g><g id="Icon"><path class="cls-2" d="M58.07,39.66,34.22,15.92a3.14,3.14,0,0,0-4.44,0L5.93,39.66A3.13,3.13,0,0,0,8.15,45h47.7A3.13,3.13,0,0,0,58.07,39.66ZM56,41.91c0,.09-.06.09-.13.09H8.15c-.07,0-.1,0-.13-.09s0-.08,0-.13L31.89,18a.17.17,0,0,1,.22,0L56,41.78S56,41.84,56,41.91Z"/></g></svg>