<svg xmlns="http://www.w3.org/2000/svg" viewBox="0 0 64 64"><defs><style>.cls-1{fill:none;}.cls-2{fill:#999;}</style></defs><title>Store_StoreLM_64px</title><g id="Square"><rect class="cls-1" width="64" height="64"/></g><g id="Icon"><g id="Calque_1" data-name="Calque 1"><path class="cls-2" d="M33.1,20.08a1.51,1.51,0,0,0-2.12,0l-9.31,9.31A1.5,1.5,0,0,0,22.73,32H41.34a1.5,1.5,0,0,0,1.06-2.56Z"/><path class="cls-2" d="M57,21.2H47L33.41,7.62a2,2,0,0,0-2.82,0L17,21.2H7a2,2,0,0,0-2,2V53a2,2,0,0,0,2,2H57a2,2,0,0,0,2-2V23.2A2,2,0,0,0,57,21.2ZM24,40.41h6.5V52H24ZM33.5,52V40.41H40V52ZM56,52H43V39.41a2,2,0,0,0-2-2H23a2,2,0,0,0-2,2V52H8V24.2H18.22l.88-.88L32,10.41,44.9,23.32l.88.88H56Z"/></g></g></svg>