<svg xmlns="http://www.w3.org/2000/svg" viewBox="0 0 64 64">
    <g id="Square"> </g>
  <path fill-rule="evenodd" d="M10.667 6.5a1.5 1.5 0 0 0-1.5 1.5v8a1.5 1.5 0 0 0 1.5 1.5h1.166v29H8A1.5 1.5 0 0 0 6.5 48v9.333a1.5 1.5 0 0 0 1.5 1.5h48a1.5 1.5 0 0 0 1.5-1.5V48a1.5 1.5 0 0 0-1.5-1.5h-3.833v-29h1.166a1.5 1.5 0 0 0 1.5-1.5V8a1.5 1.5 0 0 0-1.5-1.5H10.667Zm38.5 11H33V31h16.167V17.5ZM31 17.5H14.833V31H31V17.5Zm-18.833-3v-5h39.666v5H12.167ZM14.833 33H31v13.5H14.833V33ZM33 33v13.5h16.167V33H33ZM9.5 49.5v6.333h45V49.5h-45Z"/>
</svg>
