<svg xmlns="http://www.w3.org/2000/svg" viewBox="0 0 64 64"><defs><style>.cls-1{fill:none;}.cls-2{fill:#999;}</style></defs><title>Universe_ConnectedHome_64px</title><g id="Square"><rect class="cls-1" width="64" height="64"/></g><g id="Icon"><path class="cls-2" d="M32,32.5a15.5,15.5,0,0,0-10.24,3.86,1.5,1.5,0,0,0,2,2.25,12.5,12.5,0,0,1,16.5,0,1.52,1.52,0,0,0,1,.38,1.47,1.47,0,0,0,1.12-.51,1.5,1.5,0,0,0-.13-2.12A15.5,15.5,0,0,0,32,32.5Z"/><path class="cls-2" d="M32,38.5a9.46,9.46,0,0,0-6.72,2.78,1.51,1.51,0,0,0,0,2.12,1.48,1.48,0,0,0,1.06.44,1.45,1.45,0,0,0,1.06-.44,6.52,6.52,0,0,1,8.88-.3,1.5,1.5,0,1,0,2-2.25A9.46,9.46,0,0,0,32,38.5Z"/><circle class="cls-2" cx="32" cy="47" r="2"/><path class="cls-2" d="M17.78,31.87a1.5,1.5,0,0,0,2,2.25,18.52,18.52,0,0,1,24.48,0,1.45,1.45,0,0,0,1,.38A1.47,1.47,0,0,0,46.35,34a1.5,1.5,0,0,0-.13-2.12,21.51,21.51,0,0,0-28.44,0Z"/><path class="cls-2" d="M58.46,26.85,33.28,5.77a2,2,0,0,0-2.56,0L5.54,26.85a1.5,1.5,0,1,0,1.92,2.3L9,27.86V57a2,2,0,0,0,2,2H53a2,2,0,0,0,2-2V27.86l1.54,1.29a1.46,1.46,0,0,0,1,.35,1.5,1.5,0,0,0,1-2.65ZM52,56H12V25.35L32,8.61,52,25.35Z"/></g></svg>