<svg xmlns="http://www.w3.org/2000/svg" viewBox="0 0 64 64"><defs><style>.cls-1{fill:none;}.cls-2{fill:#999;}</style></defs><title>Universe_Electricity_64px</title><g id="Square"><rect class="cls-1" width="64" height="64"/></g><g id="Icon"><path class="cls-2" d="M53,9H11a2,2,0,0,0-2,2V53a2,2,0,0,0,2,2H53a2,2,0,0,0,2-2V11A2,2,0,0,0,53,9ZM52,52H12V12H52Z"/><path class="cls-2" d="M32,45.5A13.5,13.5,0,1,0,18.5,32,13.49,13.49,0,0,0,32,45.5Zm0-25A11.5,11.5,0,1,1,20.5,32,11.51,11.51,0,0,1,32,20.5Z"/><circle class="cls-2" cx="27" cy="32" r="2"/><circle class="cls-2" cx="37" cy="32" r="2"/></g></svg>