<svg xmlns="http://www.w3.org/2000/svg" viewBox="0 0 64 64">
  <g id="Square"> </g>
  <path fill-rule="evenodd" d="M51.538 7.668a1.5 1.5 0 0 1-.352 1.645l-20.73 19.88a1.5 1.5 0 0 1-2.428-.522l-3.622-8.962-4.72 1.907a5.502 5.502 0 0 1-3.33 6.199l-4.946 1.997a5.5 5.5 0 1 1-4.12-10.199l4.945-1.997a5.502 5.502 0 0 1 6.701 2.146l4.721-1.908-3.621-8.963a1.5 1.5 0 0 1 1.386-2.061l28.72-.1a1.5 1.5 0 0 1 1.396.938ZM29.98 25.493l-2.791-6.908 3.554-1.436a1 1 0 1 0-.75-1.855L26.44 16.73l-2.791-6.908 22.755-.079-16.424 15.75Zm-16.62-5.096a2.5 2.5 0 0 1 1.873 4.636l-4.945 1.998a2.5 2.5 0 1 1-1.873-4.636l4.945-1.998ZM6.5 46.667a1.5 1.5 0 0 1 1.5-1.5h9.167V36a1.5 1.5 0 0 1 1.5-1.5h25.166v-9.167a1.5 1.5 0 0 1 1.5-1.5H56a1.5 1.5 0 0 1 1.5 1.5v32a1.5 1.5 0 0 1-1.5 1.5H8a1.5 1.5 0 0 1-1.5-1.5V46.667Zm48-12.167h-7.666v-7.667H54.5V34.5Zm-15.666 3H54.5v7.667H38.834V37.5Zm-3 0H20.166v7.667h15.666V37.5ZM25.166 48.167H9.5v7.666h15.667v-7.666Zm3 0v7.666h15.666v-7.666H28.168ZM54.5 55.833h-7.666v-7.666H54.5v7.666Z"/>
</svg>
