<svg xmlns="http://www.w3.org/2000/svg" viewBox="0 0 64 64">
    <g id="Square"> </g>
  <path fill-rule="evenodd" d="M6.519 23.021a1.5 1.5 0 0 1-.496-1.547l2.76-10.303a1.5 1.5 0 0 1 1.32-1.106L27.25 8.57c5.021-.438 9.341 2.415 11.25 6.52a1 1 0 0 1 .436 1.08c.7 2.029.83 4.296.216 6.59l-.862 3.22-.863 3.219a10.482 10.482 0 0 1-2.028 3.967h5.768V18.667a1.5 1.5 0 0 1 1.5-1.5h6.666a1.5 1.5 0 0 1 1.342.829l6.667 13.333A1.5 1.5 0 0 1 57.5 32v13.333a1.5 1.5 0 0 1-1.5 1.5h-5.332a6.836 6.836 0 0 1-13.336 0h-7.997a6.836 6.836 0 0 1-13.337 0h-5.331a1.5 1.5 0 0 1-1.5-1.5V34.667a1.5 1.5 0 0 1 1.5-1.5h8.184l-8.58-7.06a1.002 1.002 0 0 1-.472-.387l-3.28-2.699ZM23.16 36.167H12.167v7.666h3.832a6.836 6.836 0 0 1 13.336 0h7.997a6.847 6.847 0 0 1 3.835-4.72v-2.947h-9.81c-2.554 1.074-5.515 1.147-8.196 0Zm7.538-3h-.033v.016a7.549 7.549 0 0 1-5.596.489l11.46-14.34a8.336 8.336 0 0 1-.275 2.65l-.863 3.22-.863 3.22a7.433 7.433 0 0 1-3.83 4.744Zm-14.01-5.664-4.069-3.347 8.778-12.064 6.112-.533a8.417 8.417 0 0 1 1.885.045l-12.706 15.9Zm-5.28-14.54 7.348-.641-7.684 10.561-1.902-1.565 2.238-8.356Zm20.082-.778a8.38 8.38 0 0 1 4.486 4.635L23.207 32.8a7.766 7.766 0 0 1-.71-.52l-4.263-3.506 13.257-16.589ZM54.5 43.833h-3.832a6.836 6.836 0 0 0-6.501-5.331V33.5H54.5v10.333ZM44 49.167a3.833 3.833 0 1 1 0-7.667 3.833 3.833 0 0 1 0 7.667Zm.167-18.667h9.406l-5.167-10.333h-4.24V30.5ZM26.5 45.333a3.833 3.833 0 1 0-7.667 0 3.833 3.833 0 0 0 7.667 0Z"/>
</svg>
