<svg xmlns="http://www.w3.org/2000/svg" viewBox="0 0 64 64">
      <g id="Square"> </g>
  <path fill-rule="evenodd" d="M8 6.5A1.5 1.5 0 0 0 6.5 8v48A1.5 1.5 0 0 0 8 57.5h48a1.5 1.5 0 0 0 1.5-1.5V8A1.5 1.5 0 0 0 56 6.5H8Zm1.5 14.586V9.5h11.586l-3.126 3.126-8.46 8.46Zm0 2.828v13.172l3.126-3.126 12.627-12.627-6.586-6.585L9.5 23.913Zm0 16v13.172l5.793-5.793 4.626-4.626-6.586-6.586L9.5 39.914ZM10.914 54.5h10.172L16 49.414 10.914 54.5Zm13.172 0h-.172l-6.5-6.5 4.625-4.625.001-.001.002-.001L32 33.414 38.586 40l-4.626 4.625v.001l-.001.001-9.873 9.873Zm2.828 0h13.172l1.166-1.167-6.585-6.585-7.753 7.752Zm16 0H54.5V42.914L43.374 54.04l-.46.46ZM54.5 40.086V26.914L40.707 40.707l-4.626 4.626 6.586 6.586L54.5 40.086Zm0-16V10.914L40.708 24.706v.001h-.002L33.414 32 40 38.586l14.5-14.5ZM53.086 9.5H39.914l-6.5 6.5L40 22.586 53.086 9.5Zm-16 0H23.914l-3.833 3.833 6.586 6.586 4.626-4.626L37.086 9.5ZM14.748 34.667 27.373 22.04 32 17.414 38.586 24l-7.292 7.292h-.001v.002l-9.96 9.958-6.585-6.585Z"/>
</svg>
