<svg xmlns="http://www.w3.org/2000/svg" viewBox="0 0 64 64">
    <g id="Square"> </g>
  <path fill-rule="evenodd" d="M35.054 9.708A22.5 22.5 0 0 0 13.13 19.746a1.5 1.5 0 1 1-2.516-1.634A25.5 25.5 0 0 1 35.46 6.736a1.5 1.5 0 1 1-.407 2.972ZM11.612 44.751a1.5 1.5 0 0 1 2.093.347 22.5 22.5 0 0 0 16.725 9.347 1.5 1.5 0 0 1-.209 2.993 25.498 25.498 0 0 1-18.955-10.594 1.5 1.5 0 0 1 .346-2.093Zm45.13-18.92a1.5 1.5 0 0 0-2.91.726 22.5 22.5 0 0 1-.97 13.872 1.5 1.5 0 0 0 2.781 1.123 25.5 25.5 0 0 0 1.1-15.721ZM32 28.167a3.833 3.833 0 1 1-3.689 4.88l-.014-.053-.012-.045A3.833 3.833 0 0 1 32 28.167Zm0 10.666a6.833 6.833 0 0 1-6.052-3.657L9.206 39.662l-1.449.389-.388-1.45c-1.549-5.778 1.88-11.719 7.66-13.267a10.834 10.834 0 0 1 10.988 3.362A6.832 6.832 0 0 1 32 25.166a6.83 6.83 0 0 1 2.034.309l8.667-15.011.75-1.3 1.299.75c5.181 2.992 6.957 9.618 3.965 14.8a10.834 10.834 0 0 1-10.148 5.391c.173.602.266 1.238.266 1.895a6.802 6.802 0 0 1-1.058 3.654l12.257 12.257 1.06 1.06-1.06 1.061c-4.23 4.23-11.09 4.23-15.32 0a10.834 10.834 0 0 1-2.582-11.2 7.05 7.05 0 0 1-.13.001Zm3.873-.838L46.75 48.87a7.836 7.836 0 0 1-10.876-10.875Zm-25.856-1.656 14.856-3.98a7.836 7.836 0 0 0-14.856 3.98Zm26.77-9.633 7.69-13.32a7.836 7.836 0 0 1-7.69 13.32Z"/>
</svg>
