<svg xmlns="http://www.w3.org/2000/svg" viewBox="0 0 64 64">
    <g id="Square"> </g>
  <path fill-rule="evenodd" d="M55.455 8.546a3 3 0 0 0-4.243 0c-.061.061-.187.24-.346.606a10.7 10.7 0 0 0-.45 1.31c-.293 1.04-.55 2.304-.764 3.546a75.348 75.348 0 0 0-.425 2.823c.524-.3 1.13-.65 1.757-1.024a64.906 64.906 0 0 0 2.69-1.677c.839-.558 1.468-1.029 1.78-1.341a3 3 0 0 0 0-4.243Zm-1.141 33.667c-.595-7.4-1.864-16.52-4.61-23.352.629-.356 1.444-.824 2.302-1.335a67.51 67.51 0 0 0 2.776-1.73c.837-.558 1.619-1.125 2.087-1.593a5 5 0 0 0-7.071-7.071c-.33.329-.575.782-.766 1.222-.2.459-.379.995-.54 1.563-.322 1.138-.593 2.482-.81 3.752-.138.8-.256 1.58-.352 2.273-1.36-1.435-3.056-2.164-4.96-2.393-2.63-.318-5.633.32-8.637 1.154-1.138.316-2.27.658-3.4 1-1.939.586-3.87 1.17-5.806 1.614-2.16.497-4.205.787-6.082.695-.63-.2-1.162-.4-1.581-.593l-.044-.35a79.298 79.298 0 0 0-.501-3.4c-.218-1.27-.49-2.614-.811-3.752a12.573 12.573 0 0 0-.54-1.563c-.191-.44-.437-.893-.766-1.222a5 5 0 1 0-7.07 7.07c.467.47 1.249 1.036 2.086 1.593a66.904 66.904 0 0 0 2.776 1.731c.856.51 1.67.977 2.3 1.333-2.749 6.833-4.018 15.953-4.611 23.354-.311 3.87-.44 7.317-.492 9.797a141.839 141.839 0 0 0-.029 3.73l.002.21.001.055v.02l1.5-.025-1.5.026a1.5 1.5 0 0 0 1.5 1.474h42.667a1.5 1.5 0 0 0 1.5-1.474l-1.5-.026 1.5.025v-.075l.002-.073.001-.137a141.819 141.819 0 0 0-.03-3.73c-.051-2.48-.18-5.927-.491-9.797Zm-29.81-22.841c.157-.034.314-.07.47-.105 1.99-.458 4.053-1.08 6.045-1.681 1.114-.336 2.205-.666 3.249-.956 2.995-.832 5.66-1.362 7.862-1.096 1.743.21 3.205.917 4.323 2.484-1.075.79-2.83 1.411-5.194 1.793-2.694.436-5.914.522-9.185.358a70.343 70.343 0 0 1-7.57-.797ZM51.837 54.5H12.16c.002-.634.01-1.454.03-2.427.051-2.437.178-5.823.483-9.62.57-7.115 1.755-15.512 4.149-21.822.98.348 2.15.676 3.438.973l-2.574 12.867a1 1 0 0 0 1.961.392l2.57-12.848a72.23 72.23 0 0 0 9.708 1.15c3.395.17 6.841.089 9.814-.392l.19-.031 2.424 12.121a1 1 0 0 0 1.96-.392l-2.427-12.14c1.252-.32 2.424-.746 3.433-1.312 2.296 6.264 3.444 14.464 4.004 21.434a164.906 164.906 0 0 1 .514 12.047ZM8.545 8.546a3 3 0 0 1 4.243 0c.062.061.187.24.346.606.151.346.302.79.45 1.31.293 1.04.55 2.304.764 3.546.175 1.02.318 2.011.425 2.823-.524-.3-1.13-.65-1.757-1.024a64.973 64.973 0 0 1-2.69-1.677c-.839-.558-1.468-1.029-1.78-1.341a3 3 0 0 1 0-4.243Z"/>
</svg>
