<svg xmlns="http://www.w3.org/2000/svg" viewBox="0 0 64 64"><defs><style>.cls-1{fill:none;}.cls-2{fill:#8c8c8c;}</style></defs><title>Universe_HardwareStore_64px</title><g id="Square"><rect class="cls-1" width="64" height="64"/></g><g id="Icon"><path class="cls-2" d="M58.33,49.84l-3.48-3.47L55,46.3a1,1,0,1,0-.81-1.82l-.84.37L49.2,40.71l.13-.06a1,1,0,0,0,.51-1.32,1,1,0,0,0-1.32-.51l-.84.37-4.14-4.14.14-.06a1,1,0,0,0,.5-1.32,1,1,0,0,0-1.32-.51l-.84.38L40.44,32,49,23.42l7.89-1.82a2,2,0,0,0,1-3.36L45.67,6.08a2,2,0,0,0-2-.51A2,2,0,0,0,42.31,7l-1.82,7.9-7.58,7.58c0-.05,0-.11,0-.16a1,1,0,0,0-1.32-.51l-.84.37-7.29-7.28L21.6,7a2,2,0,0,0-3.36-1L6.08,18.24A2,2,0,0,0,7,21.6l7.9,1.82,4,4-.14.07a1,1,0,0,0,.41,1.91,1,1,0,0,0,.4-.09l.84-.37,3,3L5.59,49.84A2,2,0,0,0,5,51.25v5.66a2,2,0,0,0,2,2h5.66a2,2,0,0,0,1.41-.58L32,40.44l4,4-.14.06a1,1,0,0,0-.51,1.32,1,1,0,0,0,.92.59,1,1,0,0,0,.4-.09l.85-.37,4.14,4.14-.14.06a1,1,0,0,0,.41,1.92,1,1,0,0,0,.4-.09l.84-.37,6.74,6.74a2,2,0,0,0,1.41.58h5.66a2,2,0,0,0,2-2V51.25A2,2,0,0,0,58.33,49.84ZM12.45,47.22,24.63,35a1.09,1.09,0,0,0,.26,0,1,1,0,0,0,.4-.09l.84-.37,3.7,3.7L16.69,51.46H12.45ZM29.07,33.31l5.87-2.61,4.15,4.14-5.88,2.61ZM44.83,9.47l9.61,9.61-6.32,1.46-4.75-4.75Zm-2.62,8,4.24,4.24-8.13,8.13-.44-.43.14-.07a1,1,0,1,0-.81-1.82l-.84.37-2.29-2.29ZM9.47,19.08l9.61-9.61,1.46,6.32-4.75,4.75Zm8,2.62,4.24-4.24,6.07,6.07L21.9,26.14ZM29.29,25l4.14,4.15L27.55,31.8l-4.14-4.14ZM10.45,49.22v2.83L8,54.5V51.67Zm1.79,6.69H9.41l2.45-2.45h2.83ZM34.73,39l5.87-2.61,4.14,4.14-5.87,2.61Zm5.65,5.66L46.26,42l4.14,4.15-5.88,2.61ZM55.91,55.91H51.67L46,50.28l5.87-2.61,4,4Z"/></g></svg>