<svg xmlns="http://www.w3.org/2000/svg" viewBox="0 0 64 64">
    <g id="Square"> </g>
  <path fill-rule="evenodd" d="M8.333 55.667V8.333h47.333v47.334H8.333Zm-3-49.334a1 1 0 0 1 1-1h51.333a1 1 0 0 1 1 1v51.334a1 1 0 0 1-1 1H6.333a1 1 0 0 1-1-1V6.333Zm15.374 9.04a1 1 0 0 0-1.414-1.413l-5.334 5.333a1 1 0 0 0 1.414 1.414l5.334-5.333Zm8 6.587a1 1 0 0 1 0 1.414l-5.334 5.333a1 1 0 0 1-1.414-1.414l5.334-5.333a1 1 0 0 1 1.414 0Zm0-6.586a1 1 0 0 0-1.414-1.414L13.959 27.293a1 1 0 0 0 1.414 1.414l13.334-13.333Z"/>
</svg>
