<svg xmlns="http://www.w3.org/2000/svg" viewBox="0 0 64 64"><defs><style>.cls-1{fill:none;}.cls-2{fill:#999;}</style></defs><title>Universe_Living_64px</title><g id="Square"><rect class="cls-1" width="64" height="64"/></g><g id="Icon"><path class="cls-2" d="M57.47,23A5.65,5.65,0,0,0,54,21.08,22.44,22.44,0,0,0,11,21H11a5.7,5.7,0,0,0-5.62,6.63L9,49.75A1.5,1.5,0,0,0,10.5,51h2.58l-1.54,6.14A1.51,1.51,0,0,0,12.64,59,1.47,1.47,0,0,0,13,59a1.51,1.51,0,0,0,1.46-1.14L16.17,51H47.83l1.71,6.86A1.51,1.51,0,0,0,51,59a1.47,1.47,0,0,0,.36,0,1.51,1.51,0,0,0,1.1-1.82L50.92,51h2.66a1.5,1.5,0,0,0,1.48-1.25l3.68-22.12A5.65,5.65,0,0,0,57.47,23ZM32.5,8A19.42,19.42,0,0,1,51,21.42a5.68,5.68,0,0,0-3.49,4.34l-.85,5.1A113.59,113.59,0,0,0,32,30a112.8,112.8,0,0,0-14.59.87l-.85-5.09a5.68,5.68,0,0,0-2.68-4A19.43,19.43,0,0,1,32.5,8ZM20.27,48l-1.58-9.5h26.7L43.81,48ZM45.72,36.5H18.35l-.44-2.69A111.24,111.24,0,0,1,32,33a112.33,112.33,0,0,1,14.17.84ZM11.77,48,8.29,27.14A2.69,2.69,0,0,1,11,24a2.68,2.68,0,0,1,2.65,2.25L17.23,48Zm44-20.87L52.31,48H46.85l3.62-21.75a2.7,2.7,0,0,1,5.32.88Z"/><circle class="cls-2" cx="24.5" cy="21" r="1.5"/><circle class="cls-2" cx="39.5" cy="21" r="1.5"/></g></svg>