<svg xmlns="http://www.w3.org/2000/svg" viewBox="0 0 64 64">
      <g id="Square"> </g>
  <path fill-rule="evenodd" d="M8 6.5A1.5 1.5 0 0 0 6.5 8v48A1.5 1.5 0 0 0 8 57.5h48a1.5 1.5 0 0 0 1.5-1.5V8A1.5 1.5 0 0 0 56 6.5H8Zm1.5 17.637V9.5h14.637l-6.236 6.237-8.401 8.4Zm0 2.682v12.403l8.4-8.4 6.836-6.836-6.128-6.128-8.721 8.72a.995.995 0 0 1-.387.241Zm0 15.085v12.403l8.4-8.4.002-.002 6.834-6.834-6.128-6.128-8.721 8.72a.997.997 0 0 1-.387.241ZM12.136 54.5H25.08l-6.472-6.472-6.472 6.472Zm15.772 0h11.57l.343-.344-6.835-6.835-6.836-6.836-6.128 6.129 7.886 7.886Zm14.398 0H54.5V42.306L42.306 54.5ZM54.5 39.477V27.221L41.942 39.778l-6.835 6.836 6.128 6.128L54.5 39.477Zm0-15.085V12.136L41.943 24.693l-.001.001-6.835 6.835 6.128 6.128L54.5 24.392ZM54.307 9.5h-12.27a.966.966 0 0 1-.095.108l-6.835 6.835 6.128 6.129L54.307 9.5Zm-15.085 0H28.164l5.529 5.53 5.53-5.53Zm-19.2 6.944 6.129-6.13 6.814 6.816a.79.79 0 0 0 .041.041l6.815 6.815-6.128 6.128-6.834-6.834h-.002v-.002l-6.835-6.834ZM26.15 25.4l6.835 6.835.001.002 6.835 6.834-6.128 6.128-6.834-6.834-.002-.001-.001-.002-6.834-6.833L26.15 25.4Z"/>
</svg>
