<svg xmlns="http://www.w3.org/2000/svg" viewBox="0 0 64 64"><defs><style>.cls-1{fill:none;}.cls-2{fill:#999;}</style></defs><title>Universe_Terrace_64px</title><g id="Square"><rect class="cls-1" width="64" height="64"/></g><g id="Icon"><path class="cls-2" d="M47.7,33H33V20.42H53a2,2,0,0,0,.93-3.78l-21-10.93a2,2,0,0,0-1.86,0l-21,10.93A2,2,0,0,0,11,20.42H31V33H16.3a13.4,13.4,0,0,0-7.8-2.5H7a2,2,0,0,0-2,2V42a5.51,5.51,0,0,0,3.77,5.22L7,57.24A1.51,1.51,0,0,0,8.24,59l.26,0A1.5,1.5,0,0,0,10,57.76L11.76,47.5h3.48L17,57.76A1.5,1.5,0,0,0,18.5,59l.26,0A1.51,1.51,0,0,0,20,57.24l-1.7-9.74H20a2,2,0,0,0,2-2V44a13.43,13.43,0,0,0-.79-4.5H26.5V43a2,2,0,0,0,2,2H29v7a5,5,0,0,1-5,5,1,1,0,0,0,0,2H40a1,1,0,0,0,0-2,5,5,0,0,1-5-5V45h.5a2,2,0,0,0,2-2V39.5h5.29A13.43,13.43,0,0,0,42,44v1.5a2,2,0,0,0,2,2h1.72L44,57.24A1.51,1.51,0,0,0,45.24,59l.26,0A1.5,1.5,0,0,0,47,57.76L48.76,47.5h3.48L54,57.76A1.5,1.5,0,0,0,55.5,59l.26,0A1.51,1.51,0,0,0,57,57.24l-1.75-10A5.51,5.51,0,0,0,59,42V32.5a2,2,0,0,0-2-2H55.5A13.4,13.4,0,0,0,47.7,33ZM32,8.61l16.88,8.81H15.12ZM19,44.5H10.5A2.5,2.5,0,0,1,8,42V33.5h.5A10.51,10.51,0,0,1,19,44ZM35.5,43H33v9a7,7,0,0,0,2.11,5H28.89A7,7,0,0,0,31,52V43H28.5V39.5h7ZM20.33,37.5a13.45,13.45,0,0,0-1.8-2.5H45.47a13.45,13.45,0,0,0-1.8,2.5ZM56,42a2.5,2.5,0,0,1-2.5,2.5H45V44A10.51,10.51,0,0,1,55.5,33.5H56Z"/></g></svg>