<svg xmlns="http://www.w3.org/2000/svg" viewBox="0 0 64 64"><defs><style>.cls-1{fill:none;}.cls-2{fill:#999;}</style></defs><title>Universe_Bedroom_64px</title><g id="Square"><rect class="cls-1" width="64" height="64"/></g><g id="Icon"><path class="cls-2" d="M55,29.87v-15A2,2,0,0,0,53.83,13c-1.48-.67-9.47-4-21.77-4s-20.41,3.33-21.89,4A2,2,0,0,0,9,14.82V29.87A7.5,7.5,0,0,0,5,36.5V46a2,2,0,0,0,2,2H9v5a2,2,0,0,0,2,2h5a2,2,0,0,0,2-2V48H46v5a2,2,0,0,0,2,2h5a2,2,0,0,0,2-2V48h2a2,2,0,0,0,2-2V36.5A7.5,7.5,0,0,0,55,29.87ZM12,15.48c2.32-1,9.44-3.48,20.06-3.48A53.42,53.42,0,0,1,52,15.48V29a4.19,4.19,0,0,0-.5,0H49V24a3,3,0,0,0-3-3H37a3,3,0,0,0-3,3v5H30V24a3,3,0,0,0-3-3H18a3,3,0,0,0-3,3v5H12.5a4.19,4.19,0,0,0-.5,0ZM47,29H36V24a1,1,0,0,1,1-1h9a1,1,0,0,1,1,1ZM28,29H17V24a1,1,0,0,1,1-1h9a1,1,0,0,1,1,1ZM12.5,32h39A4.51,4.51,0,0,1,56,36.5V40H8V36.5A4.51,4.51,0,0,1,12.5,32ZM15,52H12V48h3Zm37,0H49V48h3Zm3-7H8V42H56v3Z"/></g></svg>