<svg xmlns="http://www.w3.org/2000/svg" viewBox="0 0 64 64">
      <g id="Square"> </g>
  <path fill-rule="evenodd" d="M22.833 5.333a9.167 9.167 0 0 0 18.334 0h3c0 6.72-5.448 12.167-12.167 12.167-6.72 0-12.167-5.447-12.167-12.167h3Zm-10.955 28.97a1.5 1.5 0 0 1 1.455-1.136h37.334a1.5 1.5 0 0 1 1.455 1.136l5.333 21.333A1.5 1.5 0 0 1 56 57.5H8a1.5 1.5 0 0 1-1.455-1.864l5.333-21.333Zm2.627 1.864-2.042 8.166h9.32l1.022-8.166h-8.3ZM9.92 54.5l2.042-8.167h9.57l-1.02 8.167H9.921Zm12.608 0 1.02-8.167H31V54.5h-8.471ZM33 54.5v-8.167h7.45l1.021 8.167H33Zm0-10.167h7.2l-1.02-8.166H33v8.166ZM43.487 54.5l-1.02-8.167h9.57L54.08 54.5H43.487Zm-1.27-10.167h9.32l-2.041-8.166h-8.3l1.02 8.166Zm-18.418 0H31v-8.166h-6.18l-1.02 8.166ZM33 22.667a1 1 0 0 0-2 0v4a1 1 0 1 0 2 0v-4Zm-23.333-16a1 1 0 0 1 1-1h4a1 1 0 1 1 0 2h-4a1 1 0 0 1-1-1Zm39.666-1a1 1 0 1 0 0 2h4a1 1 0 0 0 0-2h-4Zm-32.707 15.04a1 1 0 0 1 0-1.414l2.41-2.41a1 1 0 0 1 1.415 1.414l-2.41 2.41a1 1 0 0 1-1.415 0Zm28.338-3.824a1 1 0 0 0-1.415 1.414l2.41 2.41a1 1 0 0 0 1.415-1.414l-2.41-2.41Z"/>
</svg>
