<svg xmlns="http://www.w3.org/2000/svg" viewBox="0 0 64 64">
    <g id="Square"> </g>
  <path fill-rule="evenodd" d="M21.334 9.5a3.833 3.833 0 0 0-3.834 3.833v2.5h7.667v-2.5A3.833 3.833 0 0 0 21.334 9.5Zm6.833 6.333v-2.5a6.833 6.833 0 0 0-13.667 0v2.5H6.667a1.5 1.5 0 0 0 0 3h18.5v29.035a5 5 0 0 1-1.69-.355l-2.21-.883a7 7 0 0 0-5.2 0l-2.637 1.054c-.976.39-2.05.464-3.07.209l-3.45-.863a1 1 0 1 0-.486 1.94l3.452.863a7 7 0 0 0 4.297-.292l2.637-1.054a5 5 0 0 1 3.714 0l2.21.883a7 7 0 0 0 5.2 0l2.21-.883a5 5 0 0 1 3.713 0l2.21.883a7 7 0 0 0 5.2 0l2.21-.883a5 5 0 0 1 3.714 0l2.637 1.054a7 7 0 0 0 4.297.292l3.451-.863a1 1 0 1 0-.485-1.94l-3.451.863a4.999 4.999 0 0 1-3.07-.209l-1.07-.428V18.833h7.834a1.5 1.5 0 1 0 0-3H49.5v-2.5a6.833 6.833 0 0 0-13.666 0v2.5h-7.667Zm1.234 30.796-1.234.494v-8.29H46.5v7.394a7.001 7.001 0 0 0-3.766.403l-2.21.883a5 5 0 0 1-3.714 0l-2.21-.883a7 7 0 0 0-5.2 0Zm17.1-10.796v-7.666H28.166v7.666H46.5Zm0-10.666H28.166v-6.334H46.5v6.334Zm0-9.334v-2.5a3.833 3.833 0 1 0-7.667 0v2.5H46.5ZM21.266 54.63a7 7 0 0 0-5.2 0l-2.637 1.055c-.976.39-2.05.464-3.07.209l-3.45-.863a1 1 0 1 0-.486 1.94l3.452.863a7 7 0 0 0 4.297-.292l2.637-1.054a5 5 0 0 1 3.714 0l2.21.883a7 7 0 0 0 5.2 0l2.21-.883a5 5 0 0 1 3.713 0l2.21.883a7 7 0 0 0 5.2 0l2.21-.883a5 5 0 0 1 3.714 0l2.637 1.054a7 7 0 0 0 4.297.292l3.451-.863a1 1 0 1 0-.485-1.94l-3.451.863a4.999 4.999 0 0 1-3.07-.209l-2.637-1.054a7 7 0 0 0-5.2 0l-2.21.883a5 5 0 0 1-3.713 0l-2.21-.883a7 7 0 0 0-5.2 0l-2.21.883a5 5 0 0 1-3.713 0l-2.21-.883Z"/>
</svg>
