<svg xmlns="http://www.w3.org/2000/svg" viewBox="0 0 64 64"><defs><style>.cls-1{fill:none;}.cls-2{fill:#999;}</style></defs><title>Universe_Bathroom_64px</title><g id="Square"><rect class="cls-1" width="64" height="64"/></g><g id="Icon"><path class="cls-2" d="M56,37.6V7.1a2,2,0,0,0-2-2H41a2,2,0,0,0-2,2v5a4,4,0,0,0-4,4h0a2,2,0,0,0,2,2h7a2,2,0,0,0,2-2h0a4,4,0,0,0-4-4v-4H53V37.6H7a2,2,0,0,0-2,2v.5a15,15,0,0,0,9.6,14l-3.1,3.1a1,1,0,0,0,0,1.41h0a1,1,0,0,0,1.41,0l3.86-3.85A15.59,15.59,0,0,0,20,55.1H44a15.59,15.59,0,0,0,3.23-.35l3.86,3.85a1,1,0,0,0,1.41,0h0a1,1,0,0,0,0-1.41l-3.1-3.1a15,15,0,0,0,9.6-14v-.5a2,2,0,0,0-2-2ZM44,16.1H37a2,2,0,0,1,2-2h3A2,2,0,0,1,44,16.1Zm0,36H20a12,12,0,0,1-10.91-7H54.91A12,12,0,0,1,44,52.1Zm11.61-9H8.39A12.07,12.07,0,0,1,8,40.6H56A12.07,12.07,0,0,1,55.61,43.1Z"/></g></svg>