<svg xmlns="http://www.w3.org/2000/svg" viewBox="0 0 64 64"><defs><style>.cls-1{fill:none;}.cls-2{fill:#8c8c8c;}</style></defs><title>User_Account_Profile--Woman_64px</title><g id="Square"><rect class="cls-1" width="64" height="64"/></g><g id="Icon"><path class="cls-2" d="M56.57,36.44l.2-1.48-1.48-.21C52.8,34.41,51,33.43,51,24a19,19,0,0,0-38,0c0,9.43-1.76,10.41-4.25,10.75L7.31,35l.2,1.48a9.7,9.7,0,0,0,4,7,8.22,8.22,0,0,0,2.2,1L10.21,46A2,2,0,0,0,9,47.83V57a2,2,0,0,0,2,2H53a2,2,0,0,0,2-2V47.83A2,2,0,0,0,53.79,46l-3.41-1.46a8.74,8.74,0,0,0,2.25-1.05A9.73,9.73,0,0,0,56.57,36.44ZM32,8a16,16,0,0,1,13.87,8.06,9.33,9.33,0,0,1-7.12,3.19,12.48,12.48,0,0,1-9-4.63l-1.39-1.81-1.11,2C25,18.9,23,19.43,16.7,19.49A16,16,0,0,1,32,8ZM41.5,24a9.5,9.5,0,0,1-19,0,8.92,8.92,0,0,1,.13-2,9.58,9.58,0,0,0,6.15-4,15.33,15.33,0,0,0,10,4.26A12.22,12.22,0,0,0,41.39,22,11.07,11.07,0,0,1,41.5,24ZM52,56H12V48.49l7.92-3.39A7.06,7.06,0,0,0,22.29,49a6.8,6.8,0,0,0,4.36,1.53,7.37,7.37,0,0,0,5.2-2.16l0,0,0,0a7.38,7.38,0,0,0,5.21,2.16A6.78,6.78,0,0,0,41.48,49a7.06,7.06,0,0,0,2.39-4L52,48.49ZM29.77,46.18l0,0a4.16,4.16,0,0,1-5.53.44,4,4,0,0,1-.29-5.93l.35-.35,5.51,5.5-.16.15ZM34,45.87l5.5-5.5.36.35a4,4,0,0,1-.3,5.93A4.16,4.16,0,0,1,34,46.21l0,0,.15-.16ZM51,41c-1.68,1.13-4.16,1.34-7.19.63a7.07,7.07,0,0,0-1.77-3l-1.06-1.06a2,2,0,0,0-2.83,0l-6.21,6.21-6.21-6.21a2,2,0,0,0-2.83,0L21.79,38.6A6.92,6.92,0,0,0,20,41.69c-2.87.62-5.24.39-6.86-.7a6.07,6.07,0,0,1-2.38-3.61C15.13,36,16,31.3,16,24a14.76,14.76,0,0,1,.08-1.5c1.23,0,2.37,0,3.43-.09A15.86,15.86,0,0,0,19.5,24a12.5,12.5,0,0,0,25,0,12.15,12.15,0,0,0-.26-3,13.53,13.53,0,0,0,3-2.06A15.85,15.85,0,0,1,48,24c0,7.3.91,12,5.29,13.38A6,6,0,0,1,51,41Z"/></g></svg>