<svg xmlns="http://www.w3.org/2000/svg" viewBox="0 0 64 64"><defs><style>.cls-1{fill:none;}.cls-2{fill:#999;}</style></defs><title>User_Card_IDCard_64px</title><g id="Square"><rect class="cls-1" width="64" height="64"/></g><g id="Icon"><path class="cls-2" d="M57,13H7a2,2,0,0,0-2,2V49a2,2,0,0,0,2,2H57a2,2,0,0,0,2-2V15A2,2,0,0,0,57,13ZM56,48H8V16H56Z"/><path class="cls-2" d="M14.5,43A1.5,1.5,0,0,0,16,41.5a6.5,6.5,0,0,1,13,0,1.5,1.5,0,0,0,3,0,9.52,9.52,0,0,0-5.73-8.72,6.5,6.5,0,1,0-7.54,0A9.52,9.52,0,0,0,13,41.5,1.5,1.5,0,0,0,14.5,43Zm8-19A3.5,3.5,0,1,1,19,27.5,3.5,3.5,0,0,1,22.5,24Z"/><path class="cls-2" d="M35.5,25h14a1.5,1.5,0,0,0,0-3h-14a1.5,1.5,0,0,0,0,3Z"/><path class="cls-2" d="M35.5,32h14a1.5,1.5,0,0,0,0-3h-14a1.5,1.5,0,0,0,0,3Z"/></g></svg>