<svg xmlns="http://www.w3.org/2000/svg" viewBox="0 0 64 64"><defs><style>.cls-1{fill:none;}.cls-2{fill:#8c8c8c;}</style></defs><title>User_Account_Customer--Collaborator_64px</title><g id="Square"><rect class="cls-1" width="64" height="64"/></g><g id="Icon"><path class="cls-2" d="M28,34A14.5,14.5,0,1,0,13.5,19.5,14.5,14.5,0,0,0,28,34ZM28,8A11.5,11.5,0,1,1,16.5,19.5,11.51,11.51,0,0,1,28,8Z"/><path class="cls-2" d="M57,35.5H32.5a2,2,0,0,0-2,2v2.34A20.85,20.85,0,0,1,28,40a21.67,21.67,0,0,1-9.78-2.3,2,2,0,0,0-1.34-.15l-8.4,2A4.48,4.48,0,0,0,5,43.88v9.36l.58.45C5.87,53.91,12.67,59,28.5,59h1.22l1.53,0c.47,0,.91,0,1.28,0H57a2,2,0,0,0,2-2V37.5A2,2,0,0,0,57,35.5ZM28.5,56C16.31,56,9.87,52.8,8,51.69V43.88a1.5,1.5,0,0,1,1.16-1.46l8.05-1.87A24.66,24.66,0,0,0,28,43c.84,0,1.67-.06,2.5-.14V56h-2ZM56,56H33.5V38.5H56Z"/><path class="cls-2" d="M39.1,51H50.4a1.09,1.09,0,0,0,.72-1.84l-5.41-5.74a1.31,1.31,0,0,0-1.92,0l-5.41,5.74A1.09,1.09,0,0,0,39.1,51Z"/></g></svg>