<svg xmlns="http://www.w3.org/2000/svg" viewBox="0 0 64 64">
    <g id="Square"> </g>
  <path fill-rule="evenodd" d="M8 11.833a1.5 1.5 0 0 0-1.5 1.5v37.334a1.5 1.5 0 0 0 1.5 1.5h48a1.5 1.5 0 0 0 1.5-1.5V13.333a1.5 1.5 0 0 0-1.5-1.5H8Zm1.5 37.334V14.833h45v34.334h-45Zm14.933-27.042 7.239 7.228a.465.465 0 0 0 .656 0l7.239-7.228a.464.464 0 0 0-.329-.792H24.762c-.414 0-.621.5-.329.792Zm-4.428 20.01 2.57-17.11a.465.465 0 0 1 .788-.259l8.309 8.297a.465.465 0 0 0 .656 0l8.31-8.297a.465.465 0 0 1 .787.26l2.57 17.108a.464.464 0 0 1-.46.533h-5.56a.464.464 0 0 1-.459-.398l-.74-5.177a.465.465 0 0 0-.789-.262l-3.659 3.654a.465.465 0 0 1-.656 0l-3.66-3.654a.465.465 0 0 0-.788.262l-.74 5.177a.464.464 0 0 1-.46.398h-5.56a.464.464 0 0 1-.459-.533Z"/>
</svg>
