<svg xmlns="http://www.w3.org/2000/svg" viewBox="0 0 64 64"><defs><style>.cls-1{fill:none;}.cls-2{fill:#8c8c8c;}</style></defs><title>User_Card_Funding_64px</title><g id="Square"><rect class="cls-1" width="64" height="64"/></g><g id="Icon"><path class="cls-2" d="M57,13H7a2,2,0,0,0-2,2V49a2,2,0,0,0,2,2H57a2,2,0,0,0,2-2V15A2,2,0,0,0,57,13ZM56,48H8V16H56Z"/><path class="cls-2" d="M13.5,34.5A1.5,1.5,0,0,0,15,36h1.42A10.52,10.52,0,0,0,33,40,1.5,1.5,0,1,0,31,37.7,7.52,7.52,0,0,1,19.79,36H26a1.5,1.5,0,0,0,0-3H18.7a6.29,6.29,0,0,1,0-2H26a1.5,1.5,0,0,0,0-3H19.79a7.52,7.52,0,0,1,10.9-2,1.5,1.5,0,0,0,1.81-2.39,10.42,10.42,0,0,0-6.36-2.14A10.53,10.53,0,0,0,16.42,28H15a1.5,1.5,0,0,0,0,3h.68a8.36,8.36,0,0,0,0,2H15A1.5,1.5,0,0,0,13.5,34.5Z"/><path class="cls-2" d="M41,38H51a1,1,0,0,0,1-1V27a1,1,0,0,0-1-1H41a1,1,0,0,0-1,1V37A1,1,0,0,0,41,38Zm6-2V33h3v3Zm3-5H47V28h3Zm-8-3h3v8H42Z"/></g></svg>