<svg xmlns="http://www.w3.org/2000/svg" viewBox="0 0 64 64"><defs><style>.cls-1{fill:none;}.cls-2{fill:#999;}</style></defs><title>Various_Heat_64px</title><g id="Square"><rect class="cls-1" width="64" height="64"/></g><g id="Icon"><path class="cls-2" d="M53.5,28.5c-.13,0-.26,0-.39,0A5.46,5.46,0,0,0,44,26.74a5.47,5.47,0,0,0-8,0,5.47,5.47,0,0,0-8,0,5.47,5.47,0,0,0-8,0,5.49,5.49,0,0,0-9.5,3.76v23A5.49,5.49,0,0,0,20,57.26a5.47,5.47,0,0,0,8,0,5.47,5.47,0,0,0,8,0,5.47,5.47,0,0,0,8,0,5.49,5.49,0,0,0,9.5-3.76v-15a5,5,0,0,0,0-10Zm-35,25a2.5,2.5,0,0,1-5,0v-23a2.5,2.5,0,0,1,5,0Zm8,0a2.5,2.5,0,0,1-5,0v-23a2.5,2.5,0,0,1,5,0Zm8,0a2.5,2.5,0,0,1-5,0v-23a2.5,2.5,0,0,1,5,0Zm8,0a2.5,2.5,0,0,1-5,0v-23a2.5,2.5,0,0,1,5,0Zm8,0a2.5,2.5,0,0,1-5,0v-23a2.49,2.49,0,0,1,4.84-.84,4.93,4.93,0,0,0,.16,7.81Zm3-18a2,2,0,1,1,2-2A2,2,0,0,1,53.5,35.5Z"/><path class="cls-2" d="M31.74,21.5a1.51,1.51,0,0,1-1.36-.85,9.07,9.07,0,0,1,.31-8.37,6.07,6.07,0,0,0,.22-5.63,1.5,1.5,0,0,1,2.71-1.3,9.07,9.07,0,0,1-.31,8.37,6.07,6.07,0,0,0-.22,5.63,1.5,1.5,0,0,1-1.35,2.15Z"/><path class="cls-2" d="M23.24,21.5a1.51,1.51,0,0,1-1.36-.85,9.07,9.07,0,0,1,.31-8.37,6.07,6.07,0,0,0,.22-5.63,1.5,1.5,0,0,1,2.71-1.3,9.07,9.07,0,0,1-.31,8.37,6.07,6.07,0,0,0-.22,5.63,1.5,1.5,0,0,1-1.35,2.15Z"/><path class="cls-2" d="M40.24,21.5a1.51,1.51,0,0,1-1.36-.85,9.07,9.07,0,0,1,.31-8.37,6.07,6.07,0,0,0,.22-5.63,1.5,1.5,0,0,1,2.71-1.3,9.07,9.07,0,0,1-.31,8.37,6.07,6.07,0,0,0-.22,5.63,1.5,1.5,0,0,1-1.35,2.15Z"/></g></svg>