<svg xmlns="http://www.w3.org/2000/svg" viewBox="0 0 64 64"><defs><style>.cls-1{fill:none;}.cls-2{fill:#8c8c8c;}</style></defs><title>Various_Apartment_64px</title><g id="Square"><rect class="cls-1" width="64" height="64"/></g><g id="Icon"><path class="cls-2" d="M57.5,56H51V13.5a2,2,0,0,0-2-2H46V7a2,2,0,0,0-2-2H20a2,2,0,0,0-2,2v4.5H15a2,2,0,0,0-2,2V56H6.5a1.5,1.5,0,0,0,0,3h51a1.5,1.5,0,0,0,0-3ZM21,8H43v3.5H21Zm6,48V44.5H37V56ZM38,41.5H26a2,2,0,0,0-2,2V56H16V14.5H48V56H40V43.5A2,2,0,0,0,38,41.5Z"/><path class="cls-2" d="M27.5,19.5h-5a1.5,1.5,0,0,0,0,3h5a1.5,1.5,0,0,0,0-3Z"/><path class="cls-2" d="M36.3,22.5h5a1.5,1.5,0,0,0,0-3h-5a1.5,1.5,0,0,0,0,3Z"/><path class="cls-2" d="M27.5,26.5h-5a1.5,1.5,0,0,0,0,3h5a1.5,1.5,0,0,0,0-3Z"/><path class="cls-2" d="M36.3,29.5h5a1.5,1.5,0,0,0,0-3h-5a1.5,1.5,0,0,0,0,3Z"/><path class="cls-2" d="M27.5,33.5h-5a1.5,1.5,0,0,0,0,3h5a1.5,1.5,0,0,0,0-3Z"/><path class="cls-2" d="M42.8,35a1.5,1.5,0,0,0-1.5-1.5h-5a1.5,1.5,0,0,0,0,3h5A1.5,1.5,0,0,0,42.8,35Z"/></g></svg>