<svg xmlns="http://www.w3.org/2000/svg" viewBox="0 0 64 64"><defs><style>.cls-1{fill:none;}.cls-2{fill:#8c8c8c;}</style></defs><title>Various_PaintCan_64px</title><g id="Square"><rect class="cls-1" width="64" height="64"/></g><g id="Icon"><path class="cls-2" d="M58.5,11.76a1.5,1.5,0,0,0-1.5-1.5H53.79V8a1.5,1.5,0,0,0-1.5-1.5H13.71A1.5,1.5,0,0,0,12.21,8v2.26H9a1.5,1.5,0,0,0-1.5,1.5v8A25.37,25.37,0,0,0,12.21,34.5V56a1.5,1.5,0,0,0,1.5,1.5H52.29a1.5,1.5,0,0,0,1.5-1.5V34.5A25.37,25.37,0,0,0,58.5,19.76ZM15.21,17.25h7.35V27.76a4.33,4.33,0,1,0,8.65,0V17H50.79V33.51a22.46,22.46,0,0,1-35.58,0ZM50.79,9.5V14H28.21V27.76a1.33,1.33,0,1,1-2.65,0V14.25H15.21V9.5ZM10.5,19.76v-6.5h1.71V28.35A22.35,22.35,0,0,1,10.5,19.76ZM15.21,54.5V38a25.45,25.45,0,0,0,35.58,0V54.5ZM55.5,19.76a22.35,22.35,0,0,1-1.71,8.59V13.26H55.5Z"/></g></svg>