<svg xmlns="http://www.w3.org/2000/svg" viewBox="0 0 64 64">
      <g id="Square"> </g>
  <path fill-rule="evenodd" d="M10.5 8A1.5 1.5 0 0 1 12 6.5h26.667a1.5 1.5 0 0 1 1.5 1.5v17.167H52a1.5 1.5 0 0 1 1.5 1.5V54.5H56a1.5 1.5 0 0 1 0 3H8a1.5 1.5 0 0 1 0-3h2.5V8Zm26.667 1.5v45h-5v-9.167a1.5 1.5 0 0 0-1.5-1.5h-9.334a1.5 1.5 0 0 0-1.5 1.5V54.5H13.5v-45h23.667ZM50.5 28.167H40.167V54.5H50.5V28.167ZM29.167 54.5v-7.667h-6.334V54.5h6.334ZM20 15.833a1.5 1.5 0 0 0 0 3h1.333a1.5 1.5 0 1 0 0-3H20Zm9.333 0a1.5 1.5 0 0 0 0 3h1.334a1.5 1.5 0 1 0 0-3h-1.334Zm-9.333 8a1.5 1.5 0 0 0 0 3h1.333a1.5 1.5 0 1 0 0-3H20Zm9.333 0a1.5 1.5 0 0 0 0 3h1.334a1.5 1.5 0 1 0 0-3h-1.334ZM20 33.167a1.5 1.5 0 1 0 0 3h1.333a1.5 1.5 0 1 0 0-3H20Zm9.333 0a1.5 1.5 0 1 0 0 3h1.334a1.5 1.5 0 0 0 0-3h-1.334Z"/>
</svg>
