<svg xmlns="http://www.w3.org/2000/svg" viewBox="0 0 64 64"><defs><style>.cls-1{fill:none;}.cls-2{fill:#8c8c8c;}</style></defs><title>Various_Pipe_64px</title><g id="Square"><rect class="cls-1" width="64" height="64"/></g><g id="Icon"><path class="cls-2" d="M51.5,45H51V21A13.52,13.52,0,0,0,37.5,7.5H23V7a2,2,0,0,0-2-2H19a2,2,0,0,0-2,2v.5H12.5A3.5,3.5,0,0,0,9,11V23a3.5,3.5,0,0,0,3.5,3.5H17V27a2,2,0,0,0,2,2h2a2,2,0,0,0,2-2v-.5h8.5a.5.5,0,0,1,.5.5V45h-.5a2,2,0,0,0-2,2v2a2,2,0,0,0,2,2H32v4.5A3.5,3.5,0,0,0,35.5,59h12A3.5,3.5,0,0,0,51,55.5V51h.5a2,2,0,0,0,2-2V47A2,2,0,0,0,51.5,45Zm-39-21.5A.5.5,0,0,1,12,23V11a.5.5,0,0,1,.5-.5H17v13ZM21,27H19V7h2Zm10.5-3.5H23v-13H37.5A10.51,10.51,0,0,1,48,21V45H35V27A3.5,3.5,0,0,0,31.5,23.5ZM48,55.5a.5.5,0,0,1-.5.5h-12a.5.5,0,0,1-.5-.5V51H48ZM31.5,49V47h20v2Z"/></g></svg>