<svg xmlns="http://www.w3.org/2000/svg" viewBox="0 0 64 64"><defs><style>.cls-1{fill:none;}.cls-2{fill:#8c8c8c;}</style></defs><title>Various_Level_64px</title><g id="Square"><rect class="cls-1" width="64" height="64"/></g><g id="Icon"><path class="cls-2" d="M31.18,24.93h0a2.5,2.5,0,0,1-.35-.21l-8.7,24,0,.07-1.71,4.69a4.1,4.1,0,0,0,2.44,5.24h0a4.09,4.09,0,0,0,5.23-2.44l.78-2.16h0l9.63-26.6a1.76,1.76,0,0,1-.39-.06Z"/><path class="cls-2" d="M54.76,12.77a1.71,1.71,0,0,0-1.2-.82c-1.06-.18-4.34-.43-7.28-.64a.25.25,0,0,1-.22-.32,2,2,0,0,0-1.18-2.5L37.39,5.72a11.12,11.12,0,0,0-6-.53c-5.21,1-9.35,5.44-12,8.72a1.73,1.73,0,0,0-.13,2,1.67,1.67,0,0,0,1.84.78,21.1,21.1,0,0,1,10.65.65.24.24,0,0,1,.16.31L30.6,21.47a1.73,1.73,0,0,0,.55,1.87.24.24,0,0,1,.08.27l.06-.16a2.5,2.5,0,0,0,.35.21h0l6.91,2.55a1.76,1.76,0,0,0,.39.06h0a1.66,1.66,0,0,0,.94-.12,1.78,1.78,0,0,0,.89-1l1.31-3.84c0-.09.06-.14.06-.16a2.11,2.11,0,0,1,.91.3c2,1.19,5.33,3.6,5.71,3.88a1.73,1.73,0,0,0,1.32.31l.2-.05a1.76,1.76,0,0,0,1.12-1.09l3.51-10.27A1.76,1.76,0,0,0,54.76,12.77Z"/></g></svg>