<svg xmlns="http://www.w3.org/2000/svg" viewBox="0 0 64 64"><defs><style>.cls-1{fill:none;}.cls-2{fill:#999;}</style></defs><title>Various_Shutter_64px</title><g id="Square"><rect class="cls-1" width="64" height="64"/></g><g id="Icon"><path class="cls-2" d="M57,5H7A2,2,0,0,0,5,7v7a2,2,0,0,0,2,2H9V57a2,2,0,0,0,2,2H53a2,2,0,0,0,2-2V16h2a2,2,0,0,0,2-2V7A2,2,0,0,0,57,5ZM12,29.5H52V32H12ZM12,34H52v2.5H12Zm40-6.5H12V25H52Zm-40,11H52V41H12ZM52,23H12V20.5H52ZM12,43H30.5V56H12ZM33.5,56V43H52V56ZM52,18.5H12V16H52ZM56,13H8V8H56Z"/></g></svg>