<svg xmlns="http://www.w3.org/2000/svg" viewBox="0 0 64 64"><defs><style>.cls-1{fill:none;}.cls-2{fill:#8c8c8c;}</style></defs><title>Various_IncreaseValue_64px</title><g id="Square"><rect class="cls-1" width="64" height="64"/></g><g id="Icon"><path class="cls-2" d="M57.5,56H8V6.5a1.5,1.5,0,0,0-3,0V57a2,2,0,0,0,2,2H57.5a1.5,1.5,0,0,0,0-3Z"/><path class="cls-2" d="M16,48.5a1.5,1.5,0,0,0,0,3A34.85,34.85,0,0,0,42,40,39,39,0,0,0,52,14.15l4.41,4.41a1.5,1.5,0,0,0,2.12,0,1.49,1.49,0,0,0,0-2.12L51.91,9.79a2,2,0,0,0-2.82,0l-6.65,6.65a1.5,1.5,0,0,0,2.12,2.12L49,14.09C49,35.63,32.21,48.5,16,48.5Z"/><path class="cls-2" d="M13.25,21a1,1,0,0,0,1,1h2a9.94,9.94,0,0,0,16.22,4.38,1,1,0,1,0-1.36-1.47A7.93,7.93,0,0,1,18.34,22h9.91a1,1,0,0,0,0-2H17.82a7.18,7.18,0,0,1,0-2H28.25a1,1,0,0,0,0-2H18.34a7.93,7.93,0,0,1,12.73-2.91,1,1,0,1,0,1.36-1.47A9.94,9.94,0,0,0,16.21,16h-2a1,1,0,0,0,0,2H15.8c0,.33-.05.66-.05,1s0,.67.05,1H14.25A1,1,0,0,0,13.25,21Z"/></g></svg>