<svg xmlns="http://www.w3.org/2000/svg" viewBox="0 0 24 24">
  <path fill-rule="evenodd" d="M3.447 3.106a1 1 0 1 0-.894 1.788l3.643 1.822 3.63 9.982a3 3 0 1 0 4.923 2.255l3.09-1.112a1 1 0 0 0-.678-1.882l-3.108 1.119A2.994 2.994 0 0 0 11.7 16L7.94 5.658a1 1 0 0 0-.493-.552l-4-2ZM11.75 18a1 1 0 1 0 0 2 1 1 0 0 0 0-2Zm.108-9.14a1 1 0 0 0-.598 1.282l1.71 4.699a1 1 0 0 0 1.282.597l4.699-1.71a1 1 0 0 0 .597-1.282l-1.71-4.698a1 1 0 0 0-1.282-.598l-4.698 1.71Zm2.65 4.357-1.026-2.82L16.3 9.373l1.026 2.819-2.82 1.026Z"/>
</svg>
