<svg xmlns="http://www.w3.org/2000/svg" viewBox="0 0 32 32">
  <path fill-rule="evenodd" d="M16.8 4.4h1.507a.373.373 0 0 1 .36.267.4.4 0 0 1-.12.413L17.334 6l.413 1.507a.427.427 0 0 1-.133.426.44.44 0 0 1-.214 0 .4.4 0 0 1-.213 0L15.974 7l-1.214.933a.36.36 0 0 1-.426 0 .427.427 0 0 1-.134-.426L14.667 6l-1.187-.92a.4.4 0 0 1-.133-.413.373.373 0 0 1 .347-.267H15.2l.454-1.493a.373.373 0 0 1 .693 0L16.8 4.4Zm7.334 3.333h1.506a.375.375 0 0 1 .347.267.4.4 0 0 1-.133.413l-1.214.92.467 1.507a.426.426 0 0 1-.133.427.44.44 0 0 1-.214.066.4.4 0 0 1-.213-.066l-1.213-.934-1.214.934a.36.36 0 0 1-.426 0 .427.427 0 0 1-.134-.427l.467-1.507-1.213-.92A.4.4 0 0 1 20.68 8a.373.373 0 0 1 .347-.267h1.507l.453-1.493a.373.373 0 0 1 .693 0l.454 1.493Zm4.84 7.334h-1.507l-.453-1.494a.373.373 0 0 0-.694 0l-.453 1.494H24.36a.374.374 0 0 0-.346.266.4.4 0 0 0 .133.414l1.213.92-.466 1.506a.427.427 0 0 0 .133.427.36.36 0 0 0 .427 0l1.213-.933 1.213.933a.4.4 0 0 0 .214.067.439.439 0 0 0 .213-.067.427.427 0 0 0 .133-.427L28 16.667l1.214-.92a.4.4 0 0 0 .133-.414.373.373 0 0 0-.373-.266Zm-4.84 7.333h1.506a.374.374 0 0 1 .347.267.4.4 0 0 1-.133.413L24.64 24l.467 1.507a.427.427 0 0 1-.133.426.44.44 0 0 1-.214.067.4.4 0 0 1-.213-.067L23.334 25l-1.214.933a.36.36 0 0 1-.426 0 .427.427 0 0 1-.134-.426L22.027 24l-1.213-.92a.4.4 0 0 1-.134-.413.373.373 0 0 1 .347-.267h1.507l.453-1.493a.373.373 0 0 1 .693 0l.454 1.493Zm-5.827 3.333H16.8l-.453-1.493a.373.373 0 0 0-.693 0l-.454 1.493h-1.506a.373.373 0 0 0-.347.267.4.4 0 0 0 .133.413l1.214.92-.467 1.507c-.04.156.012.32.133.427a.36.36 0 0 0 .427 0L16 28.333l1.214.934a.4.4 0 0 0 .213.066.44.44 0 0 0 .213-.066.427.427 0 0 0 .134-.427l-.44-1.507 1.213-.92A.4.4 0 0 0 18.68 26a.373.373 0 0 0-.373-.267ZM9.467 22.4h1.507c.16.005.3.112.346.267a.4.4 0 0 1-.133.413L9.974 24l.466 1.507a.427.427 0 0 1-.133.426.44.44 0 0 1-.213.067.4.4 0 0 1-.214-.067L8.667 25l-1.213.933a.36.36 0 0 1-.427 0 .427.427 0 0 1-.133-.426L7.36 24l-1.213-.92a.4.4 0 0 1-.133-.413.373.373 0 0 1 .346-.267h1.507l.453-1.493a.373.373 0 0 1 .694 0l.453 1.493ZM7.64 15.067H6.134l-.454-1.494a.373.373 0 0 0-.693 0l-.453 1.494H3.027a.374.374 0 0 0-.347.266.4.4 0 0 0 .134.414l1.186.92-.466 1.506a.427.427 0 0 0 .133.427.36.36 0 0 0 .427 0l1.213-.933 1.213.933a.4.4 0 0 0 .214.067.439.439 0 0 0 .24 0 .427.427 0 0 0 .133-.427l-.44-1.573 1.213-.92a.4.4 0 0 0 .12-.414.373.373 0 0 0-.36-.266Zm1.827-7.334h1.507c.16.005.3.113.346.267a.4.4 0 0 1-.133.413l-1.213.92.466 1.507a.426.426 0 0 1-.133.427.439.439 0 0 1-.213.066.4.4 0 0 1-.214-.066l-1.213-.934-1.213.934a.36.36 0 0 1-.427 0 .427.427 0 0 1-.133-.427l.466-1.507-1.213-.92A.4.4 0 0 1 6.014 8a.373.373 0 0 1 .346-.267h1.507L8.32 6.24a.373.373 0 0 1 .694 0l.453 1.493Z"/>
</svg>
