<svg xmlns="http://www.w3.org/2000/svg" viewBox="0 0 64 64">
  <path fill-rule="evenodd" d="M27 5.333a1 1 0 0 1 1-1h8a1 1 0 0 1 1 1v2.031c5.645 2.021 9.71 7.366 9.83 13.68l.11-.105a1.5 1.5 0 1 1 2.12 2.122c-.61.611-1.367 1.145-2.227 1.61v2.001c-.002 7.112-5.01 13.054-11.691 14.495H40c3.262 0 6.299 2 8.435 4.316 2.121 2.297 3.732 5.313 3.732 7.85V56a1.5 1.5 0 0 1-1.5 1.5H13.333a1.5 1.5 0 0 1-1.5-1.5v-2.667c0-2.537 1.61-5.553 3.731-7.85 2.137-2.315 5.174-4.316 8.436-4.316h4.858c-6.683-1.442-11.691-7.386-11.691-14.5V24.67c-.86-.464-1.616-.998-2.228-1.61a1.5 1.5 0 1 1 2.122-2.12c.035.034.071.07.108.104C17.29 14.73 21.355 9.385 27 7.364v-2.03Zm-6.833 20.58v.756C20.168 33.204 25.465 38.5 32 38.5s11.833-5.298 11.833-11.833v-.753c-.643.205-1.31.386-1.99.546-2.968.699-6.42 1.04-9.843 1.04-3.424 0-6.875-.341-9.844-1.04a26.77 26.77 0 0 1-1.99-.546Zm23.666-3.174c-.787.297-1.682.567-2.677.8-2.698.636-5.913.961-9.156.961-3.243 0-6.458-.325-9.157-.96a21.624 21.624 0 0 1-2.676-.8v-1.407c0-4.746 2.795-8.843 6.833-10.728v4.062a1 1 0 1 0 2 0V6.333h6v8.334a1 1 0 1 0 2 0v-4.062a11.836 11.836 0 0 1 6.833 10.728v1.406ZM17.77 47.517c-1.88 2.036-2.936 4.354-2.936 5.816V54.5h34.334v-1.167c0-1.462-1.056-3.78-2.936-5.816-1.863-2.018-4.16-3.35-6.231-3.35H24c-2.072 0-4.368 1.332-6.231 3.35Z"/>
</svg>
