<svg xmlns="http://www.w3.org/2000/svg" viewBox="0 0 64 64">
  <path fill-rule="evenodd" d="M43.833 8a1.5 1.5 0 0 0 1.5 1.5h7.046L32 29.879l-9.606-9.606a1.5 1.5 0 0 0-2.121 0L6.939 33.606a1.5 1.5 0 1 0 2.122 2.121l12.272-12.272 9.606 9.606a1.5 1.5 0 0 0 2.122 0L54.5 11.62v7.046a1.5 1.5 0 0 0 3 0V8A1.5 1.5 0 0 0 56 6.5H45.333a1.5 1.5 0 0 0-1.5 1.5ZM57.5 29.333a1.5 1.5 0 0 0-3 0V56a1.5 1.5 0 0 0 3 0V29.333Zm-12 5.334a1.5 1.5 0 1 0-3 0V56a1.5 1.5 0 0 0 3 0V34.667Zm-24 2.666a1.5 1.5 0 0 0-3 0V56a1.5 1.5 0 0 0 3 0V37.333Zm12 5.334a1.5 1.5 0 1 0-3 0V56a1.5 1.5 0 0 0 3 0V42.667Zm-24 2.666a1.5 1.5 0 0 0-3 0V56a1.5 1.5 0 0 0 3 0V45.333Z"/>
</svg>
