<svg xmlns="http://www.w3.org/2000/svg" viewBox="0 0 48 48">
  <path fill-rule="evenodd" d="M6.5 10A1.5 1.5 0 0 1 8 8.5h22a1.5 1.5 0 0 1 1.5 1.5v2.5H37a1.5 1.5 0 0 1 1.455 1.136l1.716 6.864H42a1.5 1.5 0 0 1 1.5 1.5v12a1.5 1.5 0 0 1-1.5 1.5h-3.707a5.502 5.502 0 0 1-10.586 0h-5.414a5.502 5.502 0 0 1-10.586 0H8A1.5 1.5 0 0 1 6.5 34v-5.5h3v4h2.207a5.502 5.502 0 0 1 10.586 0h5.414a5.502 5.502 0 0 1 10.586 0H40.5v-9h-2.671l-.284-1.136-1.716-6.864H31.5V22a1.5 1.5 0 0 1-3 0V11.5h-19v2h-3V10Zm24 24a2.5 2.5 0 1 0 5 0 2.5 2.5 0 0 0-5 0ZM17 31.5a2.5 2.5 0 1 1 0 5 2.5 2.5 0 0 1 0-5ZM4 16a1 1 0 1 0 0 2h10a1 1 0 1 0 0-2H4Zm5 5a1 1 0 0 1 1-1h4a1 1 0 1 1 0 2h-4a1 1 0 0 1-1-1Zm-2 3a1 1 0 1 0 0 2h7a1 1 0 1 0 0-2H7Z"/>
</svg>
