<svg xmlns="http://www.w3.org/2000/svg" viewBox="0 0 48 48">
  <path fill-rule="evenodd" d="M8.5 6A1.5 1.5 0 0 1 10 4.5h28A1.5 1.5 0 0 1 39.5 6v36a1.5 1.5 0 0 1-1.5 1.5H10A1.5 1.5 0 0 1 8.5 42V6Zm3 1.5v33h25v-33h-25ZM17 29a1 1 0 1 0 0 2h14a1 1 0 1 0 0-2H17Zm0 5a1 1 0 1 0 0 2h14a1 1 0 1 0 0-2H17Zm3.5-15c0-.343.034-.677.1-1H25a1 1 0 1 0 0-2h-3.5a4.993 4.993 0 0 1 4-2c1.09 0 2.095.348 2.916.938a1 1 0 0 0 1.168-1.624A7 7 0 0 0 19.174 16H18a1 1 0 1 0 0 2h.57a7.062 7.062 0 0 0-.052 1.5H18a1 1 0 1 0 0 2h.96a7.003 7.003 0 0 0 10.624 3.186 1 1 0 1 0-1.168-1.624 4.998 4.998 0 0 1-7.247-1.562H25a1 1 0 1 0 0-2h-4.475a5.07 5.07 0 0 1-.025-.5Z"/>
</svg>
