<svg xmlns="http://www.w3.org/2000/svg" viewBox="0 0 243 64"><path d="M81.34 13.877H67.302a1.95 1.95 0 00-1.928 1.647l-5.678 36.021a1.17 1.17 0 001.158 1.352h6.702a1.95 1.95 0 001.928-1.65l1.53-9.715a1.949 1.949 0 011.926-1.65h4.444c9.248 0 14.584-4.477 15.978-13.35.628-3.882.027-6.933-1.79-9.069-1.995-2.345-5.534-3.586-10.232-3.586zm1.62 13.156c-.768 5.04-4.617 5.04-8.339 5.04h-2.118l1.486-9.413a1.17 1.17 0 011.156-.988h.97c2.536 0 4.927 0 6.163 1.446.737.863.962 2.144.681 3.915zm40.342-.163h-6.723a1.17 1.17 0 00-1.155.988l-.298 1.882-.47-.682c-1.456-2.114-4.701-2.82-7.94-2.82-7.428 0-13.773 5.63-15.009 13.528-.642 3.94.27 7.706 2.504 10.333 2.049 2.416 4.98 3.422 8.467 3.422 5.986 0 9.305-3.851 9.305-3.851l-.299 1.869a1.17 1.17 0 001.153 1.356h6.056c.962 0 1.775-.699 1.927-1.65l3.633-23.023a1.166 1.166 0 00-1.151-1.352zm-9.371 13.093c-.648 3.843-3.697 6.422-7.584 6.422-1.952 0-3.513-.626-4.514-1.813-.994-1.18-1.371-2.857-1.055-4.726.605-3.81 3.705-6.475 7.533-6.475 1.909 0 3.461.635 4.483 1.832 1.024 1.21 1.431 2.899 1.137 4.76zm45.173-13.093h-6.755c-.645 0-1.25.32-1.616.857l-9.317 13.733-3.949-13.197a1.956 1.956 0 00-1.872-1.393h-6.638c-.807 0-1.368.79-1.111 1.55l7.441 21.85-6.996 9.881a1.17 1.17 0 00.955 1.849h6.747c.641 0 1.24-.312 1.603-.838l22.469-32.453a1.17 1.17 0 00-.961-1.839zm22.367-12.993H167.43a1.95 1.95 0 00-1.925 1.647l-5.678 36.021a1.168 1.168 0 001.154 1.352h7.205c.669 0 1.242-.489 1.346-1.154l1.612-10.21a1.947 1.947 0 011.925-1.65h4.442c9.249 0 14.584-4.478 15.98-13.351.63-3.882.025-6.933-1.792-9.069-1.993-2.345-5.53-3.586-10.228-3.586zm1.619 13.156c-.766 5.04-4.614 5.04-8.338 5.04h-2.116l1.488-9.413a1.166 1.166 0 011.154-.988h.971c2.533 0 4.926 0 6.162 1.446.737.863.96 2.144.679 3.915zm40.342-.163h-6.719c-.577 0-1.067.42-1.153.988l-.298 1.882-.472-.682c-1.456-2.114-4.699-2.82-7.938-2.82-7.428 0-13.771 5.63-15.007 13.528-.64 3.94.269 7.706 2.502 10.333 2.053 2.416 4.98 3.422 8.468 3.422 5.985 0 9.304-3.851 9.304-3.851l-.299 1.869a1.17 1.17 0 001.157 1.356h6.054a1.95 1.95 0 001.925-1.65l3.635-23.023a1.172 1.172 0 00-1.159-1.352zm-9.371 13.093c-.644 3.843-3.697 6.422-7.585 6.422-1.947 0-3.512-.626-4.513-1.813-.994-1.18-1.367-2.857-1.055-4.726.609-3.81 3.705-6.475 7.533-6.475 1.909 0 3.461.635 4.483 1.832 1.028 1.21 1.435 2.899 1.137 4.76zm17.296-25.099l-5.762 36.681a1.168 1.168 0 001.153 1.352h5.793c.963 0 1.78-.699 1.928-1.65l5.681-36.019a1.17 1.17 0 00-1.153-1.354h-6.487a1.173 1.173 0 00-1.153.99z"/><path fill-opacity=".5" d="M44.968 16.302c-.053.334-.112.675-.18 1.026-2.305 11.848-10.195 15.94-20.271 15.94h-5.13a2.492 2.492 0 00-2.463 2.112l-2.627 16.67-.744 4.725a1.313 1.313 0 001.296 1.519h9.1a2.19 2.19 0 002.162-1.847l.09-.463 1.712-10.88.11-.596a2.189 2.189 0 012.163-1.85h1.36c8.817 0 15.718-3.582 17.735-13.947.843-4.33.407-7.945-1.823-10.487-.675-.767-1.512-1.403-2.49-1.922z"/><path fill-opacity=".7" d="M42.555 15.34a18.165 18.165 0 00-2.242-.498c-1.384-.224-2.9-.33-4.523-.33H22.084a2.187 2.187 0 00-2.16 1.85l-2.916 18.48-.084.539a2.492 2.492 0 012.463-2.112h5.13c10.076 0 17.966-4.095 20.272-15.94.069-.351.126-.692.179-1.026a12.284 12.284 0 00-1.896-.8c-.168-.057-.342-.11-.517-.163z"/><path d="M19.923 16.362a2.18 2.18 0 012.16-1.848H35.79c1.624 0 3.14.106 4.523.33a18.242 18.242 0 012.76.659c.681.225 1.313.492 1.897.8.686-4.379-.006-7.36-2.372-10.06C39.99 3.274 35.282 2 29.26 2H11.772a2.5 2.5 0 00-2.47 2.114L2.02 50.312A1.503 1.503 0 003.5 52.05h10.796l2.71-17.209 2.916-18.479z"/></svg>