<svg xmlns="http://www.w3.org/2000/svg" viewBox="0 0 48 48"><defs></defs><g id="Icon"><path  d="M5.5,4A1.5,1.5,0,0,0,4,5.5v37a1.5,1.5,0,0,0,3,0V5.5A1.5,1.5,0,0,0,5.5,4Z"/><path  d="M42.5,4A1.5,1.5,0,0,0,41,5.5v37a1.5,1.5,0,0,0,3,0V5.5A1.5,1.5,0,0,0,42.5,4Z"/><path  d="M34.06,18.94a1.5,1.5,0,1,0-2.12,2.12l1.44,1.44H14.62l1.44-1.44a1.5,1.5,0,1,0-2.12-2.12l-4,4a1.49,1.49,0,0,0,0,2.12l4,4a1.5,1.5,0,0,0,2.12,0,1.49,1.49,0,0,0,0-2.12L14.62,25.5H33.38l-1.44,1.44a1.49,1.49,0,0,0,0,2.12,1.5,1.5,0,0,0,2.12,0l4-4a1.49,1.49,0,0,0,0-2.12Z"/></g></svg>