<svg xmlns="http://www.w3.org/2000/svg" viewBox="0 0 24 24"><defs></defs><g id="Icon"><path  d="M21.53,18.5l-8.66-15a1,1,0,0,0-1.74,0l-8.66,15a1,1,0,0,0,0,1,1,1,0,0,0,.87.5H20.66a1,1,0,0,0,.87-.5A1,1,0,0,0,21.53,18.5ZM5.07,18,12,6l6.93,12Z"/><path  d="M11,9.82V13a1,1,0,0,0,2,0V9.82a1,1,0,0,0-2,0Z"/><path  d="M11.12,15.12a1.22,1.22,0,0,0-.37.88,1.28,1.28,0,0,0,.09.48,1.4,1.4,0,0,0,.68.68,1.33,1.33,0,0,0,1,0,1.38,1.38,0,0,0,.4-.28,1.2,1.2,0,0,0,.37-.88,1.94,1.94,0,0,0,0-.24,1.13,1.13,0,0,0-.08-.24,1.39,1.39,0,0,0-.11-.21,1,1,0,0,0-.16-.19A1.27,1.27,0,0,0,11.12,15.12Z"/></g></svg>