<svg xmlns="http://www.w3.org/2000/svg" viewBox="0 0 24 24"><defs></defs><g id="Icon"><path  d="M21.18,9l-3.74-.71L15.16,6.45A2,2,0,0,0,13.89,6V8l2.48,2a.94.94,0,0,0,.45.21l3.18.6V13H18.79a2.5,2.5,0,0,0-4.58,0H9.79a2.49,2.49,0,0,0-4.48-.18L4,12.63V10.75l2.08-.62A5,5,0,0,0,7.43,9.5L9.68,8V6a2,2,0,0,0-1.11.34L6.32,7.83a2.73,2.73,0,0,1-.81.38L2.72,9A1,1,0,0,0,2,10v3.5a1,1,0,0,0,.86,1l2.29.33A2.49,2.49,0,0,0,9.79,15h4.42a2.5,2.5,0,0,0,4.58,0H21a1,1,0,0,0,1-1V10A1,1,0,0,0,21.18,9Z"/><path  d="M21,18H3a1,1,0,0,0,0,2H21a1,1,0,0,0,0-2Z"/><path  d="M9.64,9.85l1.86,1.93a.68.68,0,0,0,1,0l1.86-1.93a.5.5,0,1,0-.72-.7L12.5,10.34V4a.5.5,0,0,0-1,0v6.34L10.36,9.15a.5.5,0,0,0-.72.7Z"/></g></svg>