<svg id="Instruction_Hygiene_Plexiglas_64px" xmlns="http://www.w3.org/2000/svg" viewBox="0 0 64 64"><path d="M47 18a.5.5 0 001 0 2.5 2.5 0 012.5-2.5.5.5 0 000-1A2.5 2.5 0 0148 12a.5.5 0 00-1 0 2.5 2.5 0 01-2.5 2.5.5.5 0 000 1A2.5 2.5 0 0147 18zM38.5 37a8.51 8.51 0 018.5 8.5 1 1 0 002 0 8.51 8.51 0 018.5-8.5 1 1 0 000-2 8.51 8.51 0 01-8.5-8.5 1 1 0 00-2 0 8.51 8.51 0 01-8.5 8.5 1 1 0 000 2zm9.5-6a10.59 10.59 0 005 5 10.59 10.59 0 00-5 5 10.59 10.59 0 00-5-5 10.59 10.59 0 005-5zM42.5 23a1 1 0 000-2 6 6 0 01-6-6 1 1 0 00-2 0 6 6 0 01-6 6 1 1 0 000 2 6 6 0 016 6 1 1 0 002 0 6 6 0 016-6zm-7 2.13A8.12 8.12 0 0032.37 22a8.12 8.12 0 003.13-3.13A8.12 8.12 0 0038.63 22a8.12 8.12 0 00-3.13 3.13z"/><path d="M59 30V7a2 2 0 00-2-2H7a2 2 0 00-2 2v50a2 2 0 002 2h15a2 2 0 002-2v-8h16v8a2 2 0 002 2h15a2 2 0 002-2V41.5a1.5 1.5 0 00-3 0V56H43v-8a2 2 0 00-2-2H23a2 2 0 00-2 2v8H8V8h48v22a1.5 1.5 0 003 0z"/><path d="M12.71 17.71l5-5a1 1 0 00-1.42-1.42l-5 5a1 1 0 000 1.42 1 1 0 001.42 0zM12.5 25.5a1 1 0 00.71-.29l12-12a1 1 0 00-1.42-1.42l-12 12a1 1 0 000 1.42 1 1 0 00.71.29z"/></svg>