<svg id="Instruction_Hygiene_Plexiglas_48px" xmlns="http://www.w3.org/2000/svg" viewBox="0 0 48 48"><path d="M42 4H6a2 2 0 00-2 2v36a2 2 0 002 2h11a2 2 0 002-2v-5h10v5a2 2 0 002 2h11a2 2 0 002-2V32a1.5 1.5 0 00-3 0v9h-9v-5a2 2 0 00-2-2H18a2 2 0 00-2 2v5H7V7h34v15a1.5 1.5 0 003 0V6a2 2 0 00-2-2z"/><path d="M11 16a1 1 0 00.71-.29l4-4a1 1 0 00-1.42-1.42l-4 4a1 1 0 000 1.42A1 1 0 0011 16zM10.29 21.71a1 1 0 001.42 0l10-10a1 1 0 00-1.42-1.42l-10 10a1 1 0 000 1.42zM34.5 14a.5.5 0 001 0 1.5 1.5 0 011.5-1.5.5.5 0 000-1 1.5 1.5 0 01-1.5-1.5.5.5 0 00-1 0 1.5 1.5 0 01-1.5 1.5.5.5 0 000 1 1.5 1.5 0 011.5 1.5zM22.5 17.75A3.26 3.26 0 0125.75 21a.75.75 0 001.5 0 3.26 3.26 0 013.25-3.25.75.75 0 000-1.5A3.26 3.26 0 0127.25 13a.75.75 0 00-1.5 0 3.26 3.26 0 01-3.25 3.25.75.75 0 000 1.5zM27 28a7 7 0 017 7 1 1 0 002 0 7 7 0 017-7 1 1 0 000-2 7 7 0 01-7-7 1 1 0 00-2 0 7 7 0 01-7 7 1 1 0 000 2zm8-4.88A9.08 9.08 0 0038.88 27 9.08 9.08 0 0035 30.88 9.08 9.08 0 0031.12 27 9.08 9.08 0 0035 23.12z"/></svg>