<svg xmlns="http://www.w3.org/2000/svg" viewBox="0 0 48 48"><defs></defs><g id="Icon"><path  d="M43.63,38,25.73,7a2,2,0,0,0-3.46,0L4.37,38A2,2,0,0,0,6.1,41H41.9a2,2,0,0,0,1.73-3ZM7.83,38,24,10,40.17,38Z"/><path  d="M22.5,19V29a1.5,1.5,0,0,0,3,0V19a1.5,1.5,0,0,0-3,0Z"/><path  d="M25.11,32.34a2,2,0,0,0-.35-.19,2.26,2.26,0,0,0-.37-.11,2,2,0,0,0-1.8.54,1.79,1.79,0,0,0-.25.31,1.63,1.63,0,0,0-.19.34,1.82,1.82,0,0,0-.11.38A1.72,1.72,0,0,0,22,34a2,2,0,0,0,.15.77,1.88,1.88,0,0,0,.44.64A2,2,0,0,0,24,36a2,2,0,0,0,.77-.15,2.13,2.13,0,0,0,1.08-1.08A2,2,0,0,0,26,34a1.72,1.72,0,0,0,0-.39,2.72,2.72,0,0,0-.11-.38,2.27,2.27,0,0,0-.19-.34,1.79,1.79,0,0,0-.25-.31A1.76,1.76,0,0,0,25.11,32.34Z"/></g></svg>