<svg xmlns="http://www.w3.org/2000/svg" viewBox="0 0 48 48"><defs></defs><g id="Icon"><path  d="M24,4A20,20,0,1,0,44,24,20,20,0,0,0,24,4Zm0,3a16.93,16.93,0,0,1,10.9,4l-6,6h-.43a4,4,0,0,0,.05-.5A3.5,3.5,0,0,0,25,13H20.5a11,11,0,0,0-7,19.43L11,34.9A17,17,0,0,1,24,7Zm9.5,18h-7a1,1,0,0,0,0,2h7a1,1,0,0,1,0,2h-7a1,1,0,0,0,0,2h4a1,1,0,0,1,0,2h-10a8.94,8.94,0,0,1-2.89-.49L27.12,23H36.5a1,1,0,0,1,0,2Zm-22-1a9,9,0,0,1,9-9H25a1.5,1.5,0,0,1,0,3H20.5v1A3.5,3.5,0,0,1,17,22.5a1,1,0,0,0,0,2A5.51,5.51,0,0,0,22.41,20H25a3.42,3.42,0,0,0,1.06-.18L14.87,31A9,9,0,0,1,11.5,24Zm23-3H29.12l2-2H34.5a1,1,0,0,1,0,2ZM24,41a16.93,16.93,0,0,1-10.9-4l3-3A11,11,0,0,0,20.5,35h10a3,3,0,0,0,2.82-4h.18a3,3,0,0,0,2.82-4h.18a3,3,0,0,0,.78-5.88A3,3,0,0,0,34.5,17H33.12L37,13.1A17,17,0,0,1,24,41Z"/></g></svg>