<svg xmlns="http://www.w3.org/2000/svg" viewBox="0 0 48 48"><defs></defs><g id="Icon"><path  d="M43.64,32.31a4.16,4.16,0,0,0-5.37-2.21L33,32.23A4,4,0,0,0,29,29H18.86a18.72,18.72,0,0,0-8.28,1.94L7.83,32.3A1.5,1.5,0,0,0,9.17,35l2.74-1.36a15.66,15.66,0,0,1,7-1.63H29a1,1,0,0,1,0,2H23.18a1.5,1.5,0,0,0,0,3H29A4,4,0,0,0,31.72,36l7.66-3.07a1.18,1.18,0,0,1,1.52.63,1.25,1.25,0,0,1,0,.95,1.22,1.22,0,0,1-.66.66L26.47,40.64a3.92,3.92,0,0,1-1.65.36H16.18a1.5,1.5,0,0,0,0,3h8.64a6.81,6.81,0,0,0,2.83-.61l13.71-5.48a4.21,4.21,0,0,0,2.28-5.6Z"/><path  d="M24,24a8,8,0,0,0,8-8c0-6.17-6.8-11.47-7.08-11.69a1.53,1.53,0,0,0-1.84,0C22.8,4.53,16,9.83,16,16A8,8,0,0,0,24,24ZM24,7.47c1.66,1.51,5,5,5,8.53a5,5,0,0,1-10,0C19,12.46,22.34,9,24,7.47Z"/><path  d="M24,19.5a1,1,0,0,0,0-2A1.5,1.5,0,0,1,22.5,16a1,1,0,0,0-2,0A3.5,3.5,0,0,0,24,19.5Z"/></g></svg>