<svg xmlns="http://www.w3.org/2000/svg" viewBox="0 0 32 32"><defs></defs><g id="Icon"><path  d="M16,3A13,13,0,1,0,29,16,13,13,0,0,0,16,3Zm0,2a10.93,10.93,0,0,1,7,2.55l-2.6,2.61-.22-.53A1,1,0,0,0,19.29,9H17.62a1,1,0,0,0-1-1h-6a1,1,0,0,0-1,1v6a1,1,0,0,0,1,1h1.1a1.48,1.48,0,0,0,1.4,1,1.4,1.4,0,0,0,.58-.12l-1.19,1.2a3.68,3.68,0,0,0-1.27.48l-1.85,1a.5.5,0,0,0-.21.68.51.51,0,0,0,.68.2l.62-.33L7.55,23A11,11,0,0,1,16,5Zm5.62,7.5V15H20a1.48,1.48,0,0,0-.76-.85l1.64-1.65ZM13.12,14a1.48,1.48,0,0,0-1.4,1h-1.1V9h6v3a.5.5,0,0,0,.5.5.5.5,0,0,0,.5-.5V10h1.67l.37.93L15.59,15H14.53A1.49,1.49,0,0,0,13.12,14Zm1.47,2-.08.08s0,0,0-.08ZM16,27a10.93,10.93,0,0,1-7-2.55L14.41,19h1.21a.5.5,0,1,1,0,1H14.29a.5.5,0,0,0,0,1h1.33a1.5,1.5,0,0,0,1-.36L21,19a.67.67,0,0,1,.5,0,.65.65,0,0,1,.34.37.66.66,0,0,1-.39.84l-7.06,2.57a2.41,2.41,0,0,1-.88.16H11.88a.5.5,0,0,0,0,1h1.63a3.38,3.38,0,0,0,1.22-.22l7.06-2.57a1.66,1.66,0,0,0,1-2.12,1.69,1.69,0,0,0-.86-.94,1.67,1.67,0,0,0-1.26,0l-3.55,1.29A1.5,1.5,0,0,0,15.62,18h-.21l1.86-1.86A1.49,1.49,0,0,0,20,16h1.59a1,1,0,0,0,1-1V12.5a1,1,0,0,0-.75-.95L24.45,9A11,11,0,0,1,16,27Z"/></g></svg>