<svg xmlns="http://www.w3.org/2000/svg" viewBox="0 0 24 24"><defs></defs><g id="Icon"><path  d="M21,17a1,1,0,0,0-1,1v2H4V18a1,1,0,0,0-2,0v3a1,1,0,0,0,1,1H21a1,1,0,0,0,1-1V18A1,1,0,0,0,21,17Z"/><path  d="M6.5,12.87l1.75,1a1,1,0,0,0,1-1.74L8,11.42V7.77l3.49,2.09a1,1,0,0,0,1,0L16,7.77v3.65l-1.25.71a1,1,0,0,0,1,1.74l1.75-1A1,1,0,0,0,18,12V6a1,1,0,0,0-.49-.86l-5-3a1,1,0,0,0-1,0l-5,3A1,1,0,0,0,6,6v6A1,1,0,0,0,6.5,12.87Zm5.5-5L8.94,6,10,5.35l3.05,1.83Zm0-3.66L15.06,6l-1,.6L11,4.77Z"/><path  d="M12,11.5a.5.5,0,0,0-.5.5v5.12L9.26,15.77a.5.5,0,1,0-.52.86l3,1.8a.52.52,0,0,0,.52,0l3-1.8a.5.5,0,0,0-.52-.86L12.5,17.12V12A.5.5,0,0,0,12,11.5Z"/></g></svg>