<svg xmlns="http://www.w3.org/2000/svg" viewBox="0 0 24 24"><defs></defs><g id="Icon"><path  d="M17.08,10.13a5,5,0,0,0,1.35-.63L20.68,8H22V6H20.68a2,2,0,0,0-1.11.34L17.32,7.83a2.73,2.73,0,0,1-.81.38L13.72,9A1,1,0,0,0,13,10v3.5a1,1,0,0,0,.86,1l2.29.33a2.49,2.49,0,0,0,4.64.18H22V13H20.79a2.49,2.49,0,0,0-4.48-.18L15,12.63V10.75Z"/><path  d="M5.5,16.5A2.51,2.51,0,0,0,7.79,15H10a1,1,0,0,0,1-1V10a1,1,0,0,0-.82-1L6.44,8.31,4.16,6.45A2,2,0,0,0,2.89,6H2V8h.89l2.48,2a.94.94,0,0,0,.45.21l3.18.6V13H7.79a2.5,2.5,0,0,0-4.58,0H2v2H3.21A2.51,2.51,0,0,0,5.5,16.5Z"/><path  d="M21,18H3a1,1,0,0,0,0,2H21a1,1,0,0,0,0-2Z"/></g></svg>