<svg xmlns="http://www.w3.org/2000/svg" viewBox="0 0 24 24"><defs></defs><g id="Icon"><path  d="M14,4H13V3a1,1,0,0,0-1-1H3A1,1,0,0,0,2,3V7A1,1,0,0,0,3,8H4.09A1.41,1.41,0,0,1,5.5,9.41a1.43,1.43,0,0,1-.85,1.3,4.36,4.36,0,0,0-2.65,4V21a1,1,0,0,0,1,1H13a1,1,0,0,0,1-1V14.72a4.36,4.36,0,0,0-2.65-4,1.43,1.43,0,0,1-.85-1.3V8.77a3.49,3.49,0,0,0,3,1.73.5.5,0,0,0,0-1A2.51,2.51,0,0,1,11.21,8H12a1,1,0,0,0,1-1V6h1a.5.5,0,0,0,.5-.5v-1A.5.5,0,0,0,14,4ZM4.09,6H4V4h7V6H9.5a1,1,0,0,0-1,1V8.5H7.36A3.4,3.4,0,0,0,4.09,6ZM12,20H4V14.72c0-.08,0-.15,0-.22H12c0,.07,0,.14,0,.22Zm-1.43-7.46a2.4,2.4,0,0,1,1.08,1H4.35a2.4,2.4,0,0,1,1.08-1,3.38,3.38,0,0,0,2.06-3h1A3.38,3.38,0,0,0,10.57,12.54Z"/><path  d="M21.75,13.62a1.13,1.13,0,0,1-1.13-1.12.12.12,0,0,0-.24,0,1.13,1.13,0,0,1-1.13,1.12.13.13,0,0,0,0,.26A1.13,1.13,0,0,1,20.38,15a.12.12,0,1,0,.24,0,1.13,1.13,0,0,1,1.13-1.12.13.13,0,0,0,0-.26Z"/><path  d="M21.5,10.25a.25.25,0,0,0,0-.5A2.75,2.75,0,0,1,18.75,7a.25.25,0,0,0-.5,0A2.75,2.75,0,0,1,15.5,9.75a.25.25,0,0,0,0,.5A2.75,2.75,0,0,1,18.25,13a.25.25,0,0,0,.5,0A2.75,2.75,0,0,1,21.5,10.25Z"/></g></svg>