<svg xmlns="http://www.w3.org/2000/svg" viewBox="0 0 32 32"><defs></defs><g id="Icon"><path  d="M26,23H17V21h7.94a2,2,0,0,0,1.49-.67,2,2,0,0,0,.5-1.56A11,11,0,0,0,17,9.05V7h3a1,1,0,0,0,0-2H12a1,1,0,0,0,0,2h3V9.05a11,11,0,0,0-9.93,9.72,2,2,0,0,0,.5,1.56A2,2,0,0,0,7.06,21H15v2H6a1,1,0,0,0,0,2H26a1,1,0,0,0,0-2ZM7.06,19a9,9,0,0,1,17.88,0Z"/><path  d="M12.67,12.72a8.09,8.09,0,0,0-3.88,3.8.5.5,0,0,0,.24.67.54.54,0,0,0,.21,0A.48.48,0,0,0,9.69,17a7.05,7.05,0,0,1,3.4-3.33.5.5,0,0,0,.25-.66A.52.52,0,0,0,12.67,12.72Z"/><path  d="M15.39,12c-.27,0-.53.06-.79.1a.5.5,0,0,0,.08,1h.09c.23,0,.46-.07.7-.09a.5.5,0,0,0-.08-1Z"/></g></svg>