<svg id="Instruction_Service_PurchaseHelp_Car--StandInLine_32px" xmlns="http://www.w3.org/2000/svg" viewBox="0 0 32 32"><path d="M8.5 21.5a3 3 0 002.95-2.5H13a2 2 0 002-2v-2.17a2 2 0 00-1.64-2L9 12.06 6.21 9.72A3 3 0 004.26 9H3v2h1.26a1 1 0 01.65.24l3.14 2.7 4.95.89V17h-1.92a3 3 0 00-5.16 0H3v2h2.55a3 3 0 002.95 2.5zm0-4a1 1 0 11-1 1 1 1 0 011-1zM28 23H4a1 1 0 000 2h24a1 1 0 000-2zM22 13.62a4.69 4.69 0 001.61-.62l2.93-1.83a1 1 0 01.53-.15H29V9h-1.93a3 3 0 00-1.59.46l-2.93 1.83a2.86 2.86 0 01-.94.38l-3 .68a2 2 0 00-1.57 2v2.31a2 2 0 001.78 2l2.26.26A3 3 0 0027 19h2v-2h-2.42a3 3 0 00-5.1-.12L19 16.61V14.3zm2 3.88a1 1 0 11-1 1 1 1 0 011-1z"/></svg>