<svg xmlns="http://www.w3.org/2000/svg" viewBox="0 0 24 24"><defs></defs><g id="Icon"><path  d="M21.18,9l-3.74-.71L15.16,6.45A2,2,0,0,0,13.89,6H9.68a2,2,0,0,0-1.11.34l-.49.32L5.21,3.79a1,1,0,0,0-1.42,0l-1,1A1,1,0,0,0,4.21,6.21l.29-.3L6.38,7.8l-.06,0a2.73,2.73,0,0,1-.81.38L2.72,9A1,1,0,0,0,2,10v3.5a1,1,0,0,0,.86,1l2.29.33A2.49,2.49,0,0,0,9.79,15h4.42a2.5,2.5,0,0,0,4.58,0H21a1,1,0,0,0,1-1V10A1,1,0,0,0,21.18,9ZM20,13H18.79a2.5,2.5,0,0,0-4.58,0H9.79a2.49,2.49,0,0,0-4.48-.18L4,12.63V10.75l2.08-.62A5,5,0,0,0,7.43,9.5L8.25,9a.93.93,0,0,0,.46-.24s0-.08.07-.11l.9-.6h4.21l2.48,2a.94.94,0,0,0,.45.21l3.18.6Z"/><path  d="M21,18H3a1,1,0,0,0,0,2H21a1,1,0,0,0,0-2Z"/></g></svg>