<svg xmlns="http://www.w3.org/2000/svg" viewBox="0 0 64 64"><defs></defs><g id="Icon"><path  d="M27.5,52.5h9a1.5,1.5,0,0,0,0-3h-9a1.5,1.5,0,0,0,0,3Z"/><path  d="M57,43h-.73L53.33,25.74a7.49,7.49,0,0,0-7.4-6.24H33.5V17h9a2,2,0,0,0,2-2V7a2,2,0,0,0-2-2h-21a2,2,0,0,0-2,2v8a2,2,0,0,0,2,2h9v2.5H18.07a7.49,7.49,0,0,0-7.4,6.24L7.73,43H7a2,2,0,0,0-2,2V57a2,2,0,0,0,2,2H57a2,2,0,0,0,2-2V45A2,2,0,0,0,57,43ZM22.5,8h19v6h-19ZM13.63,26.24a4.49,4.49,0,0,1,4.44-3.74H45.93a4.49,4.49,0,0,1,4.44,3.74L53.22,43H10.78ZM56,56H8V46H56Z"/><rect  x="17" y="27.5" width="30" height="6"/></g></svg>