<svg id="Instruction_Service_PurchaseHelp_Car--StayInside_48px" xmlns="http://www.w3.org/2000/svg" viewBox="0 0 48 48"><path d="M42.43 20.45l-8.22-1.83-3.08-2.73a5.45 5.45 0 00-3.65-1.39v3a2.49 2.49 0 011.66.63l3.65 3.25L41 23.2V27h-2.76a5 5 0 00-9.48 0h-9.52a5 5 0 00-9.37-.38L7 26.2v-3.51l4.19-1a9.68 9.68 0 002.58-1l5.05-2.89a2.48 2.48 0 011.24-.33v-3a5.57 5.57 0 00-2.73.72l-5 2.89a6.32 6.32 0 01-1.76.69L5.55 20A2 2 0 004 21.9v5.17a2 2 0 001.71 2l3.92.57a5 5 0 009.61.38h9.52a5 5 0 009.48 0H42a2 2 0 002-2V22.4a2 2 0 00-1.57-1.95zM14.49 30.5a2 2 0 112-2 2 2 0 01-2 2zm19 0a2 2 0 112-2 2 2 0 01-1.99 2zM42.5 35h-37a1.5 1.5 0 000 3h37a1.5 1.5 0 000-3z"/><path d="M19 19.42a1.49 1.49 0 000 2.12l3.71 3.88a1.91 1.91 0 002.74 0l3.71-3.88A1.5 1.5 0 0027 19.46l-1.5 1.48V8.5a1.5 1.5 0 00-3 0v12.44l-1.42-1.48a1.49 1.49 0 00-2.08-.04z"/></svg>