<svg id="Instruction_Hygiene_Gel_48px" xmlns="http://www.w3.org/2000/svg" viewBox="0 0 48 48"><path d="M43.64 32.31a4.16 4.16 0 00-5.37-2.21L33 32.23A4 4 0 0029 29H18.86a18.72 18.72 0 00-8.28 1.94L7.83 32.3A1.5 1.5 0 009.17 35l2.74-1.36a15.66 15.66 0 017-1.63H29a1 1 0 010 2h-5.82a1.5 1.5 0 000 3H29A4 4 0 0031.72 36l7.66-3.07a1.18 1.18 0 011.52.63 1.25 1.25 0 010 .95 1.22 1.22 0 01-.66.66l-13.77 5.47a3.92 3.92 0 01-1.65.36h-8.64a1.5 1.5 0 000 3h8.64a6.81 6.81 0 002.83-.61l13.71-5.48a4.21 4.21 0 002.28-5.6zM24 24a8 8 0 008-8c0-6.17-6.8-11.47-7.08-11.69a1.53 1.53 0 00-1.84 0C22.8 4.53 16 9.83 16 16a8 8 0 008 8zm0-16.53c1.66 1.51 5 5 5 8.53a5 5 0 01-10 0c0-3.54 3.34-7 5-8.53z"/><path d="M24 19.5a1 1 0 000-2 1.5 1.5 0 01-1.5-1.5 1 1 0 00-2 0 3.5 3.5 0 003.5 3.5z"/></svg>