<svg xmlns="http://www.w3.org/2000/svg" viewBox="0 0 32 32"><defs></defs><g id="Icon"><path  d="M27,12h-.32l-1.5-3.74A2,2,0,0,0,23.32,7H21a2,2,0,0,0-2-2H5A2,2,0,0,0,3,7V19a2,2,0,0,0,2,2H7.31a3.48,3.48,0,0,0,6.3,0h4.63a3.48,3.48,0,0,0,6.3,0H27a2,2,0,0,0,2-2V14A2,2,0,0,0,27,12ZM10.46,21A1.5,1.5,0,1,1,12,19.5,1.5,1.5,0,0,1,10.46,21Zm10.93,0A1.5,1.5,0,0,1,20,20a1,1,0,0,0-.08-.38s0-.07,0-.11a1.5,1.5,0,1,1,1.5,1.5ZM27,19H24.84a3.48,3.48,0,0,0-6.9,0h-4A3.48,3.48,0,0,0,7,19H5V7H19v6.5a1,1,0,0,0,2,0V9h2.32l2,5H27Z"/><path  d="M28,25H4a1,1,0,0,0,0,2H28a1,1,0,0,0,0-2Z"/></g></svg>