<svg id="Instruction_Universe_EssentialProduct_24px" xmlns="http://www.w3.org/2000/svg" viewBox="0 0 24 24"><path d="M21 14.71V7.5a1 1 0 00-.51-.87l-8-4.5a1 1 0 00-1 0l-8 4.5A1 1 0 003 7.5v9a1 1 0 00.51.87l8 4.5a1 1 0 001 0l1.95-1.09A4.46 4.46 0 0017.5 22a4.51 4.51 0 004.5-4.5 4.42 4.42 0 00-1-2.79zM12 4.15l6.47 3.64-2.69 1.51-6.47-3.64zm-.5 15.42L5 15.92V8.64l6.5 3.65zm.5-8.14L5.53 7.79l2.76-1.55 6.47 3.64zm.5.86L19 8.64v4.64a4.39 4.39 0 00-1.5-.28 4.47 4.47 0 00-4.19 6.11l-.81.46zm5 8.71a3.5 3.5 0 113.5-3.5 3.5 3.5 0 01-3.5 3.5z"/><path d="M18.38 15.25h-1.75v1.38h-1.38v1.75h1.38v1.37h1.75v-1.37h1.37v-1.75h-1.37v-1.38z"/></svg>