<svg id="Instruction_Service_PurchaseHelp_Car--StayInside_24px" xmlns="http://www.w3.org/2000/svg" viewBox="0 0 24 24"><path d="M21.18 9l-3.74-.71-2.28-1.84A2 2 0 0013.89 6v2l2.48 2a.94.94 0 00.45.21l3.18.6V13h-1.21a2.5 2.5 0 00-4.58 0H9.79a2.49 2.49 0 00-4.48-.18L4 12.63v-1.88l2.08-.62a5 5 0 001.35-.63L9.68 8V6a2 2 0 00-1.11.34L6.32 7.83a2.73 2.73 0 01-.81.38L2.72 9A1 1 0 002 10v3.5a1 1 0 00.86 1l2.29.33a2.49 2.49 0 004.64.17h4.42a2.5 2.5 0 004.58 0H21a1 1 0 001-1v-4a1 1 0 00-.82-1zM21 18H3a1 1 0 000 2h18a1 1 0 000-2z"/><path d="M9.64 9.85l1.86 1.93a.68.68 0 001 0l1.86-1.93a.5.5 0 10-.72-.7l-1.14 1.19V4a.5.5 0 00-1 0v6.34l-1.14-1.19a.5.5 0 00-.72.7z"/></svg>