<svg xmlns="http://www.w3.org/2000/svg" viewBox="0 0 64 64"><defs></defs><g id="Icon"><path  d="M32,5A27,27,0,1,0,59,32,27,27,0,0,0,32,5Zm0,3a24,24,0,0,1,15.87,6l-8,8H38.42a3.67,3.67,0,0,0,.08-.75A4.26,4.26,0,0,0,34.25,17h-8.5A14.26,14.26,0,0,0,11.5,31.25a14.78,14.78,0,0,0,6.75,12.38L14,47.87A24,24,0,0,1,32,8ZM46.25,33H35a1,1,0,0,0,0,2H46.25a1.75,1.75,0,0,1,0,3.5H35a1,1,0,0,0,0,2h8.25a1.75,1.75,0,0,1,0,3.5h-17a12.59,12.59,0,0,1-3.6-.53l14-14H49.25a1.75,1.75,0,0,1,0,3.5Zm0-5.5H38.62l3.5-3.5h4.13a1.75,1.75,0,0,1,0,3.5ZM19.71,42.17A12.74,12.74,0,0,1,13.5,31.25,12.27,12.27,0,0,1,25.75,19h8.5a2.25,2.25,0,0,1,0,4.5H27.54l-.06.93A6.51,6.51,0,0,1,21,30.5a1,1,0,0,0,0,2,8.52,8.52,0,0,0,8.36-7h4.89a4.2,4.2,0,0,0,3.26-1.56.94.94,0,0,0,.29.06h.08ZM32,56a24,24,0,0,1-15.87-6l4.95-5a14.56,14.56,0,0,0,5.17,1h17A3.75,3.75,0,0,0,47,42.25a3.69,3.69,0,0,0-.47-1.78A3.73,3.73,0,0,0,50,36.75,3.69,3.69,0,0,0,49.53,35a3.73,3.73,0,0,0,0-7.44A3.69,3.69,0,0,0,50,25.75,3.75,3.75,0,0,0,46.25,22H44.12L50,16.13A24,24,0,0,1,32,56Z"/></g></svg>