<svg id="Logotypes_Payment_Monochrome_MB--Multibanco_32px" xmlns="http://www.w3.org/2000/svg" viewBox="0 0 150 33"><path d="M62.413 10.65c0-.321.129-.63.357-.858a1.222 1.222 0 012.083.859v6.557a5.438 5.438 0 01-1.601 3.844 5.487 5.487 0 01-3.86 1.6 5.487 5.487 0 01-3.861-1.595 5.437 5.437 0 01-1.606-3.842v-6.557a1.21 1.21 0 01.728-1.206 1.225 1.225 0 011.64.713c.055.159.077.326.064.493v6.557c.008.8.33 1.566.9 2.131a3.07 3.07 0 002.143.89 3.057 3.057 0 002.144-.89 3.029 3.029 0 00.89-2.138l-.02-6.557zm11.537 9.58c.324 0 .635.128.863.355a1.211 1.211 0 010 1.718 1.223 1.223 0 01-.862.355h-3.387a4.58 4.58 0 01-3.232-1.332 4.54 4.54 0 01-1.338-3.218v-7.457c0-.32.127-.627.355-.854a1.216 1.216 0 012.07.854v7.443c0 .568.227 1.113.63 1.515.404.402.951.628 1.522.628h3.38v-.007zm-20.499 1.078a1.21 1.21 0 01-.587 1.267 1.225 1.225 0 01-1.703-.506 1.208 1.208 0 01-.128-.475l-1.04-8.736-3.724 8.572a1.218 1.218 0 01-1.6.636 1.195 1.195 0 01-.632-.636l-3.724-8.572-1.047 8.736a1.211 1.211 0 01-.87 1.095 1.227 1.227 0 01-1.329-.442 1.213 1.213 0 01-.22-.939l1.228-10.143a1.946 1.946 0 011.069-1.507c.076-.041.155-.077.236-.107h.094a1.57 1.57 0 01.359-.079 2.082 2.082 0 011.7.536 1.996 1.996 0 01.388.507c.026.044.05.09.071.136l3.157 7.286 3.158-7.343a2 2 0 011.435-1.15 2.88 2.88 0 01.358-.05h.373a2.058 2.058 0 011.522.964c.068.11.123.227.165.35.03.076.051.155.064.236.004.052.004.104 0 .157l1.227 10.207zm25.809.136c0 .322-.128.631-.357.859a1.223 1.223 0 01-2.082-.859v-9.579h-3.466c-.323 0-.633-.128-.862-.356a1.212 1.212 0 01.862-2.073h9.371c.324 0 .634.128.863.356a1.212 1.212 0 01-.863 2.073h-3.465v9.579zm7.606 0c0 .322-.128.631-.357.859a1.223 1.223 0 01-2.082-.859V10.651c0-.322.128-.631.357-.859a1.222 1.222 0 012.082.859v10.793zm24.978-.136a1.213 1.213 0 01-1.07 1.286 1.225 1.225 0 01-.873-.23 1.21 1.21 0 01-.475-.763l-.431-3.428h-4.19a1.227 1.227 0 01-1.212-.725 1.214 1.214 0 011.212-1.697h3.917l-.114-.893v-.085a4.89 4.89 0 00-.137-.622 3.944 3.944 0 00-.251-.636 2.777 2.777 0 00-2.468-1.636 2.873 2.873 0 00-.617.072c-.19.047-.373.117-.546.207a3.403 3.403 0 00-1.693 2.7l-.76 6.743a1.209 1.209 0 01-1.339 1.068 1.22 1.22 0 01-.813-.445 1.205 1.205 0 01-.26-.887l.761-6.743a5.793 5.793 0 013.007-4.6 5.017 5.017 0 011.076-.393c.388-.09.785-.136 1.184-.136a5.148 5.148 0 012.754.816 5.113 5.113 0 011.881 2.163c.166.331.306.675.416 1.028.094.326.163.658.208.993a.276.276 0 010 .107l.833 6.736zm3.724.136a1.212 1.212 0 01-.728 1.206 1.23 1.23 0 01-1.384-.288 1.212 1.212 0 01-.321-.918v-10a1.025 1.025 0 010-.208c.016-.134.047-.265.093-.392l.101-.215c.21-.371.549-.653.954-.793l.165-.042h.452a1.73 1.73 0 011.285.657l6.457 8.236V10.65a1.22 1.22 0 012.44 0v10a1.696 1.696 0 01-.639 1.322 1.564 1.564 0 01-.401.242l-.101.043a1.722 1.722 0 01-1.306-.071l-.158-.079a1.43 1.43 0 01-.236-.185 1.542 1.542 0 01-.158-.157l-.043-.05-6.472-8.265v7.993zm19.028-1.214c.324 0 .634.128.863.355a1.21 1.21 0 010 1.718 1.223 1.223 0 01-.863.355h-3.587a4.81 4.81 0 01-3.394-1.4 4.765 4.765 0 01-1.406-3.378v-3.65a4.776 4.776 0 011.41-3.375 4.824 4.824 0 013.39-1.404h3.587c.324 0 .634.128.863.356a1.21 1.21 0 010 1.717 1.223 1.223 0 01-.863.356h-3.587a2.393 2.393 0 00-1.679.714 2.334 2.334 0 00-.718 1.664v3.65c.004.626.255 1.225.7 1.668a2.397 2.397 0 001.675.697h3.588l.021-.043zm7.054-8.372a3.322 3.322 0 00-2.303.914 2.952 2.952 0 00-.94 2.143v2.265a2.948 2.948 0 00.932 2.143c.62.59 1.446.917 2.304.914a3.324 3.324 0 002.303-.914 2.964 2.964 0 00.94-2.143v-2.265a2.981 2.981 0 00-.933-2.143 3.36 3.36 0 00-2.31-.914m0-2.421a5.753 5.753 0 013.989 1.585 5.382 5.382 0 011.686 3.886v2.264a5.347 5.347 0 01-.443 2.116 5.387 5.387 0 01-1.243 1.77 5.753 5.753 0 01-3.989 1.586 5.756 5.756 0 01-3.99-1.586 5.392 5.392 0 01-1.679-3.886v-2.264a5.393 5.393 0 011.679-3.886 5.756 5.756 0 013.99-1.585zm-51.325 2.428v8.365h4.707a1.534 1.534 0 001.414-.944c.076-.186.115-.384.114-.585a1.51 1.51 0 00-.402-1.029l-.05-.042a1.5 1.5 0 00-1.076-.457h-1.622a1.22 1.22 0 01-.862-.356 1.212 1.212 0 01.862-2.073h.553a1.5 1.5 0 00.918-.422 1.427 1.427 0 00-1.004-2.45h-3.552v-.007zm-2.44-1.164c0-.165.034-.328.1-.479a1.43 1.43 0 01.28-.421c.218-.207.504-.329.804-.343h4.772a3.89 3.89 0 012.745 1.132 3.856 3.856 0 01.541 4.79c.26.152.5.335.718.542l.078.086a3.92 3.92 0 01-.078 5.494 3.977 3.977 0 01-2.799 1.156h-5.941a1.212 1.212 0 01-1.22-1.214V10.701z"/><path fill-rule="evenodd" d="M17.221 30.004h12.101c2.761 0 2.79-2.923 2.508-4.365-.153-.97-1.81-.955-1.992 0v1.125a.936.936 0 01-.94.936H5.7a.936.936 0 01-.94-.936V25.64c-.182-.955-1.838-.97-1.992 0-.282 1.442-.253 4.365 2.508 4.365H17.22zM8.668 2.002h18.656c1.311 0 2.384 1.13 2.384 2.512v1.2c0 1.696-2.303 1.689-2.303.011v-.653a.762.762 0 00-.768-.764H7.943a.77.77 0 00-.768.764v.642c0 1.687-2.199 1.675-2.199.036V4.516c.006-1.381 1.077-2.514 2.387-2.514h1.305zm20.57 13.795a3.68 3.68 0 011.573 1.328 3.66 3.66 0 01.61 1.961c0 2.021-1.773 3.676-3.94 3.676h-6.077a.998.998 0 01-1.032-.955V10.29a1.01 1.01 0 01.299-.713 1.02 1.02 0 01.716-.296h5.06a3.875 3.875 0 012.135.635 3.85 3.85 0 011.428 1.703 3.83 3.83 0 01-.772 4.177zm-4.535-.937h1.929v-.02a1.846 1.846 0 001.112-.618c.286-.33.444-.752.446-1.188a1.828 1.828 0 00-.54-1.29 1.844 1.844 0 00-1.295-.536H22.47v9.552h4.926a1.902 1.902 0 001.807-1.15 1.88 1.88 0 00-.427-2.092 1.897 1.897 0 00-1.38-.531h-2.692a1.069 1.069 0 01-.984-.655 1.056 1.056 0 01.577-1.385 1.07 1.07 0 01.407-.08"/><path d="M19.407 21.614a1.21 1.21 0 01-.614 1.235 1.226 1.226 0 01-1.682-.511 1.212 1.212 0 01-.13-.468l-1.003-9.153-3.533 8.95v.109a1.172 1.172 0 01-.305.348l-.019.015a1.105 1.105 0 01-.211.149l-.023.011-.021.012h-.121c-.115.04-.235.063-.357.067H11.3a1.172 1.172 0 01-.4-.082h-.1l-.02-.012-.02-.011h-.011a1.145 1.145 0 01-.192-.128l-.04-.037-.03-.028-.074-.02-.036-.04a1.143 1.143 0 01-.129-.19v-.012l-.011-.02-.012-.02v-.09l-3.598-8.971-1 9.153c-.034.32-.194.613-.446.815a1.222 1.222 0 01-1.713-.18 1.21 1.21 0 01-.264-.891l1.178-10.79a2.006 2.006 0 01.857-1.432c.264-.182.567-.299.885-.34h.065c.103-.009.207-.009.31 0a2.005 2.005 0 011.787 1.268l3.02 7.599 3.014-7.624a1.998 1.998 0 011.787-1.269c.102-.007.206-.007.309 0h.065a2.031 2.031 0 011.516 1.047 1.969 1.969 0 01.226.734l1.184 10.807z"/></svg>