<svg id="Logotypes_Payment_Monochrome_MB--Way_64px" xmlns="http://www.w3.org/2000/svg" viewBox="0 0 156 64"><path d="M6.788 54.35l-.214 1.629a1.327 1.327 0 001.157 1.478h52.693c.75 0 1.35-.578 1.372-1.328v-.172l-.215-1.628a2.308 2.308 0 012.057-2.529c1.243-.129 2.38.771 2.508 2.014l.214 1.586c.407 3.514-1.586 6.6-5.164 6.6H7.174c-3.557 0-5.528-3.086-5.121-6.6l.214-1.586A2.262 2.262 0 014.753 51.8c1.264.15 2.185 1.264 2.057 2.529m48.536-12.172c2.378.129 4.393-1.693 4.543-4.071v-.215c-.043-2.507-2.336-4.135-4.886-4.135H49.86c-1.2 0-2.164-.965-2.164-2.165 0-1.2.964-2.164 2.164-2.164h3.45c2.314-.086 4.114-1.5 4.221-3.686.108-2.357-1.907-4.114-4.37-4.114h-8.358v20.486h10.543M61.667 25.7a6.756 6.756 0 01-2.014 4.843l-.129.15.172.107a8.392 8.392 0 014.307 7.029c.064 4.735-3.707 8.635-8.443 8.742H42.617a2.24 2.24 0 01-2.228-2.292v-24.6c0-1.243.985-2.272 2.228-2.293H53.16c4.564-.129 8.379 3.471 8.507 8.035v.279zM20.76 38.171l.064.172.065-.172c.578-1.628 1.307-3.45 2.057-5.378.75-1.929 1.543-4.029 2.314-5.914a97.741 97.741 0 012.229-5.079 18.209 18.209 0 011.714-3.107 3.443 3.443 0 012.764-1.286h.536c.6-.021 1.178.172 1.65.536.364.3.6.728.664 1.2l3.279 25.436a2.149 2.149 0 01-.557 1.542 2.25 2.25 0 01-1.586.515 2.396 2.396 0 01-1.65-.493 1.81 1.81 0 01-.771-1.286 64.478 64.478 0 01-.3-2.828c-.086-1.05-.665-5.465-.793-6.579-.129-1.114-1.05-8.336-1.372-10.95v-.214l-1.05 2.207a49.54 49.54 0 00-1.157 2.721c-.407 1.05-.857 2.186-1.264 3.365-.407 1.178-2.486 6.942-2.486 6.942a52.878 52.878 0 00-.857 2.593c-.3 1.007-.622 1.865-.707 2.015a2.951 2.951 0 01-3.965 1.285 3.01 3.01 0 01-1.328-1.307c-.086-.171-.386-1.05-.707-2.014-.322-.964-.665-2.036-.857-2.593 0 0-2.036-5.807-2.486-6.943-.45-1.136-.857-2.293-1.264-3.364a43.48 43.48 0 00-1.158-2.722l-1.05-2.185v.214c-.321 2.593-1.242 9.793-1.371 10.95s-.686 5.529-.793 6.557a139.303 139.303 0 01-.321 2.829 1.852 1.852 0 01-.772 1.285 2.634 2.634 0 01-1.65.493A2.25 2.25 0 014.24 46.1a2.149 2.149 0 01-.558-1.543l3.236-25.414c.086-.45.322-.857.664-1.136.472-.386 1.05-.6 1.65-.578h.536c1.072-.022 2.079.428 2.743 1.264a15.676 15.676 0 011.714 3.107 90.116 90.116 0 012.229 5.079 492.342 492.342 0 012.336 5.914c.75 1.95 1.457 3.75 2.035 5.378M14.31 2.021h39.879c3.75 0 5.635 2.829 6.042 6.536l.172 1.2a2.338 2.338 0 01-2.057 2.593 2.282 2.282 0 01-2.465-2.079l-.171-1.157c-.172-1.414-.75-2.507-2.207-2.507H15.017c-1.436 0-2.036 1.093-2.207 2.507l-.15 1.136a2.287 2.287 0 01-2.486 2.079 2.338 2.338 0 01-2.057-2.593l.171-1.2C8.739 4.829 10.604 2 14.332 2M92.01 27.114c-.429 1.65-.879 3.429-1.35 5.379-.471 1.95-.943 3.707-1.35 5.378a44.638 44.638 0 01-1.35 4.522c-.257.921-.6 1.821-1.029 2.7a2.657 2.657 0 01-2.55 1.264c-.45 0-.9-.086-1.35-.193-.6-.171-1.071-.6-1.35-1.157-.428-.9-.771-1.843-1.028-2.807-.407-1.35-.836-2.979-1.35-4.8-.514-1.821-.9-3.729-1.35-5.764-.45-2.036-.879-3.922-1.222-5.657a270.87 270.87 0 00-.921-4.436c-.257-1.2-.386-1.95-.407-2.207v-.472c0-.493.214-.964.6-1.243a2.206 2.206 0 011.457-.471c.471 0 .943.107 1.35.343.386.3.643.728.728 1.2l.236 1.35c.15.857.386 1.864.643 3.107s.557 2.7.857 4.264c.3 1.565.643 3.172 1.007 4.8.365 1.629.707 3.172 1.05 4.693.343 1.522.665 2.807.965 3.9.3-1.028.642-2.186.985-3.514.343-1.329.75-2.7 1.115-4.029.364-1.328.707-2.807 1.028-4.221.322-1.414.643-2.7.943-3.922.3-1.221.536-2.271.75-3.214.214-.943.386-1.628.493-2.078a2.457 2.457 0 01.857-1.35 2.43 2.43 0 013.15-.086c.429.343.707.814.814 1.35.365 1.457.707 3.128 1.115 4.971.407 1.843.814 3.686 1.221 5.55.407 1.865.879 3.707 1.35 5.529.471 1.821.9 3.386 1.35 4.778.3-1.092.643-2.378.986-3.9.343-1.521.686-3.064 1.05-4.692.364-1.629.728-3.172 1.05-4.758.321-1.585.643-2.978.921-4.242.279-1.265.493-2.272.643-3.065.15-.793.257-1.221.257-1.243.086-.471.343-.878.729-1.178a2.315 2.315 0 011.35-.343c.536 0 1.05.15 1.457.471.386.3.6.772.6 1.243v.493c0 .236-.171.964-.429 2.207-.257 1.243-.557 2.7-.921 4.436a441.695 441.695 0 01-1.221 5.636c-.45 2.014-.922 3.921-1.35 5.743-.429 1.821-.858 3.428-1.35 4.8-.258.964-.6 1.885-1.029 2.764a2.44 2.44 0 01-1.35 1.221c-.429.15-.879.236-1.35.236h-.557c-.257-.043-.536-.086-.772-.171a4.236 4.236 0 01-.814-.429 1.983 1.983 0 01-.643-.814 22.3 22.3 0 01-.964-2.85c-.386-1.35-.793-2.829-1.243-4.5-.45-1.672-.857-3.45-1.35-5.272-.493-1.821-.814-3.535-1.178-5.121m23.849 10.693c-.45 1.457-.857 2.807-1.2 4.028a37.084 37.084 0 01-.985 3.043 2.048 2.048 0 01-2.293 1.757 2.047 2.047 0 01-1.757-2.293c0-.192.021-.407.085-.6l.557-1.864c.322-1.05.75-2.357 1.243-3.943.493-1.585 1.093-3.278 1.715-5.164a186.44 186.44 0 011.928-5.55c.664-1.821 1.35-3.536 1.972-5.121a28.766 28.766 0 011.821-3.858c.193-.45.536-.814.986-1.028a4.42 4.42 0 011.671-.279c.579 0 1.157.086 1.714.3.45.215.815.622.965 1.093.428.9.943 2.122 1.521 3.643.579 1.521 1.222 3.171 1.864 4.95.643 1.779 1.35 3.579 1.929 5.379.579 1.8 1.221 3.557 1.757 5.142.536 1.586.986 2.958 1.35 4.029.364 1.071.622 1.843.707 2.186.065.193.107.385.086.6a1.693 1.693 0 01-.557 1.35 2.142 2.142 0 01-1.586.535 1.666 1.666 0 01-1.178-.342 2.16 2.16 0 01-.6-.965c-.3-.793-.665-1.8-1.072-3.043a296.735 296.735 0 00-1.35-4.028h-11.378m10.092-3.943a187.746 187.746 0 00-1.821-5.379c-.579-1.607-1.093-3.171-1.736-4.692-.15-.343-.3-.708-.471-1.179-.172-.471-.279-.686-.3-.771a3.044 3.044 0 00-.3.728 10.42 10.42 0 01-.493 1.222c-.6 1.478-1.179 3.042-1.757 4.692-.579 1.65-1.157 3.45-1.8 5.379h8.678zm15.515.964c-.15-.15-.3-.321-.429-.514l-.45-.621c-.428-.6-.878-1.35-1.35-2.208-.471-.857-1.007-1.778-1.5-2.7a53.959 53.959 0 01-1.435-2.935c-.45-.986-.922-1.907-1.286-2.7-.364-.793-.707-1.586-.986-2.207a9.218 9.218 0 01-.493-1.35c-.042-.108-.085-.236-.128-.343v-.343c0-.514.193-.986.557-1.35a2.16 2.16 0 011.586-.557c.493-.065.985.107 1.35.45.235.257.428.578.557.9l.45.985a58.8 58.8 0 01.836 1.908c.321.771.707 1.585 1.135 2.507.429.921.857 1.8 1.35 2.7l1.286 2.507c.343.686.729 1.328 1.157 1.971a33.614 33.614 0 001.864-3.321c.665-1.35 1.35-2.636 1.908-3.922.557-1.285 1.135-2.442 1.585-3.428l.793-1.864c.129-.322.322-.643.557-.9a1.512 1.512 0 011.35-.45 2.075 2.075 0 011.586.557c.364.343.579.835.557 1.35v.343l-.107.342-.536 1.35c-.257.643-.578 1.35-.964 2.208a132.74 132.74 0 01-1.243 2.7c-.45.942-.964 1.95-1.457 2.935a31.283 31.283 0 01-1.5 2.7c-.514.815-.964 1.629-1.35 2.229a6.878 6.878 0 01-.879 1.05v9.428a2.045 2.045 0 01-.557 1.5c-.793.793-2.1.793-2.893 0a2.19 2.19 0 01-.642-1.542V34.85"/></svg>