<svg id="Logotypes_Payment_Monochrome_Fintecture_24px" xmlns="http://www.w3.org/2000/svg" viewBox="0 0 90 24"><g fill-rule="evenodd"><path d="M29.339 17.433a.177.177 0 01-.053-.13v-7.5c0-.052.017-.095.053-.131a.176.176 0 01.13-.054h1.403c.051 0 .094.018.13.054a.18.18 0 01.053.13v7.5a.178.178 0 01-.053.13.176.176 0 01-.13.055H29.47a.175.175 0 01-.13-.054zm.084-9.183a1.065 1.065 0 01-.305-.784c0-.317.101-.579.305-.784a1.05 1.05 0 01.778-.307c.315 0 .575.103.778.307.203.205.305.467.305.784 0 .318-.102.58-.305.784a1.05 1.05 0 01-.778.307c-.315 0-.575-.102-.778-.307zm-1.777 1.422c.035.036.053.08.053.13v1.214a.178.178 0 01-.054.131.176.176 0 01-.13.054h-1.51c-.05 0-.076.025-.076.077v6.024a.178.178 0 01-.053.13.176.176 0 01-.13.055h-1.403a.175.175 0 01-.13-.054.178.178 0 01-.054-.13v-6.025c0-.052-.025-.077-.076-.077h-.946a.175.175 0 01-.13-.054.178.178 0 01-.053-.13V9.801c0-.05.018-.094.053-.13a.176.176 0 01.13-.054h.946c.05 0 .076-.026.076-.077v-.277c0-.666.087-1.18.26-1.544.173-.364.457-.623.854-.776.397-.154.956-.226 1.678-.216h.534a.18.18 0 01.13.054.18.18 0 01.053.13V7.99a.178.178 0 01-.053.13.176.176 0 01-.13.054h-.396c-.438 0-.74.087-.908.261-.168.175-.252.492-.252.953v.154c0 .051.025.077.076.077h1.51c.052 0 .095.018.13.054zm10.924.576c.492.492.739 1.163.739 2.013v5.041a.178.178 0 01-.053.13.176.176 0 01-.13.055h-1.404a.175.175 0 01-.13-.054.178.178 0 01-.053-.13V12.63c0-.471-.132-.853-.396-1.145-.265-.292-.616-.438-1.053-.438-.438 0-.791.144-1.06.43-.27.287-.405.667-.405 1.138v4.687a.178.178 0 01-.053.13.176.176 0 01-.13.055H33.04a.175.175 0 01-.13-.054.177.177 0 01-.053-.13V9.817c0-.052.017-.095.053-.131a.176.176 0 01.13-.054h1.403a.181.181 0 01.183.184v.492c0 .031.01.052.03.062.021.01.036 0 .047-.03.416-.554 1.047-.83 1.891-.83.824 0 1.483.245 1.976.737zm6.438.776a.176.176 0 01-.13.054h-1.556c-.052 0-.077.026-.077.077v3.704c0 .39.084.67.252.845.168.174.435.261.801.261h.458c.05 0 .094.018.13.054a.18.18 0 01.053.13v1.153c0 .113-.061.18-.183.2l-.794.015c-.803 0-1.403-.138-1.8-.415-.396-.276-.6-.799-.61-1.567v-4.38c0-.051-.026-.077-.076-.077h-.87a.175.175 0 01-.13-.054.177.177 0 01-.053-.13V9.817c0-.052.017-.095.053-.131a.176.176 0 01.13-.054h.87c.05 0 .076-.025.076-.077V7.758c0-.051.017-.094.053-.13a.176.176 0 01.13-.054h1.327c.051 0 .094.018.13.054a.18.18 0 01.053.13v1.798c0 .052.026.077.077.077h1.556c.05 0 .094.018.13.054a.18.18 0 01.053.13v1.076a.179.179 0 01-.053.131zm3.492.308c-.248.19-.424.453-.526.79-.06.175-.101.4-.122.677-.02.052 0 .077.062.077h3.097c.05 0 .076-.025.076-.077a2.945 2.945 0 00-.092-.584c-.091-.369-.272-.655-.541-.86-.27-.205-.608-.308-1.015-.308-.376 0-.689.095-.938.284zm4.387 2.205l-.015.476c0 .123-.061.185-.183.185h-4.776c-.05 0-.076.025-.076.077.03.338.076.568.137.691.245.738.84 1.112 1.786 1.122.691 0 1.24-.287 1.647-.86.04-.062.092-.093.153-.093.04 0 .076.016.107.046l.945.784c.092.072.107.154.046.246-.315.451-.735.8-1.258 1.045a4.06 4.06 0 01-1.747.369c-.794 0-1.468-.18-2.022-.538a3.089 3.089 0 01-1.213-1.506c-.234-.553-.35-1.322-.35-2.305 0-.594.06-1.076.183-1.445.203-.717.587-1.283 1.151-1.698.565-.415 1.244-.623 2.037-.623 2.004 0 3.133 1.056 3.387 3.166.04.256.061.543.061.86zm2.609 3.466a3.146 3.146 0 01-1.19-1.637c-.163-.461-.244-1.076-.244-1.845 0-.737.08-1.342.244-1.813a2.982 2.982 0 011.182-1.606c.575-.394 1.253-.592 2.037-.592.793 0 1.485.2 2.075.6.59.4.981.901 1.174 1.506.051.164.087.328.107.492v.03c0 .103-.056.164-.168.185l-1.373.2h-.03c-.092 0-.153-.052-.183-.154a.404.404 0 00-.016-.123 3.058 3.058 0 00-.06-.215 1.327 1.327 0 00-.55-.707 1.71 1.71 0 00-.976-.277c-.387 0-.715.1-.984.3-.27.2-.45.474-.542.822-.102.328-.153.784-.153 1.368 0 .563.046 1.02.138 1.368.101.359.285.643.55.853.263.21.594.315.99.315.387 0 .72-.1 1-.3.28-.2.46-.469.542-.807a.174.174 0 00.015-.077c.01-.01.015-.025.015-.046.03-.123.102-.174.214-.153l1.373.215a.25.25 0 01.13.069c.035.036.048.084.038.146a4.41 4.41 0 01-.077.353 2.738 2.738 0 01-1.174 1.56c-.59.384-1.282.577-2.075.577-.784 0-1.46-.203-2.03-.607zm10.734-5.979a.176.176 0 01-.13.054h-1.557c-.05 0-.076.026-.076.077v3.704c0 .39.084.67.252.845.168.174.435.261.8.261h.458c.051 0 .094.018.13.054a.18.18 0 01.053.13v1.153c0 .113-.06.18-.183.2l-.793.015c-.803 0-1.404-.138-1.8-.415-.397-.276-.6-.799-.61-1.567v-4.38c0-.051-.026-.077-.077-.077h-.87a.175.175 0 01-.13-.054.177.177 0 01-.053-.13V9.817c0-.052.018-.095.054-.131a.176.176 0 01.13-.054h.87c.05 0 .075-.025.075-.077V7.758c0-.051.018-.094.054-.13a.176.176 0 01.13-.054h1.327c.05 0 .094.018.13.054a.18.18 0 01.053.13v1.798c0 .052.025.077.076.077H66.1c.051 0 .094.018.13.054.036.036.053.08.053.13v1.076a.178.178 0 01-.053.131zm6.056-1.337a.176.176 0 01.13-.054h1.388c.05 0 .094.018.13.054a.18.18 0 01.053.13v7.485a.179.179 0 01-.054.131.176.176 0 01-.13.054h-1.388a.175.175 0 01-.13-.054.178.178 0 01-.053-.13v-.492c0-.031-.01-.052-.03-.062-.02-.01-.041 0-.061.03-.418.544-1.043.815-1.877.815-.773 0-1.421-.225-1.945-.676-.524-.45-.786-1.091-.786-1.92v-5.18c0-.051.018-.095.053-.13a.176.176 0 01.13-.055h1.404a.181.181 0 01.183.184v4.673c0 .482.124.866.374 1.152.249.288.597.43 1.045.43.458 0 .824-.142 1.098-.43.275-.286.412-.67.412-1.152V9.818c0-.051.018-.095.054-.13zm7.849.053c.081.042.112.119.091.231l-.259 1.384c-.01.122-.082.159-.214.107a1.683 1.683 0 00-.534-.077 2.31 2.31 0 00-.305.016 1.57 1.57 0 00-1.068.453c-.285.282-.427.648-.427 1.099v4.35a.179.179 0 01-.053.13.176.176 0 01-.13.054h-1.404a.175.175 0 01-.13-.054.178.178 0 01-.053-.13V9.817c0-.052.018-.095.054-.131a.176.176 0 01.13-.054h1.403c.05 0 .094.018.13.054a.18.18 0 01.053.13v.692c0 .041.008.064.023.07.015.005.033-.008.054-.039.427-.666 1.022-.999 1.785-.999.325 0 .61.067.854.2zm3.12 1.592c-.25.19-.425.453-.527.79-.06.175-.101.4-.122.677-.02.052 0 .077.061.077h3.097c.051 0 .077-.025.077-.077a2.945 2.945 0 00-.092-.584c-.091-.369-.272-.655-.541-.86-.27-.205-.608-.308-1.015-.308-.376 0-.69.095-.938.284zm4.386 2.205l-.015.476c0 .123-.061.185-.183.185h-4.776c-.05 0-.076.025-.076.077.03.338.076.568.137.691.244.738.84 1.112 1.785 1.122.692 0 1.241-.287 1.648-.86.04-.062.092-.093.153-.093.04 0 .076.016.106.046l.946.784c.092.072.107.154.046.246a3.12 3.12 0 01-1.259 1.045 4.06 4.06 0 01-1.746.369c-.794 0-1.468-.18-2.022-.538a3.09 3.09 0 01-1.213-1.506c-.234-.553-.35-1.322-.35-2.305 0-.594.06-1.076.182-1.445.204-.717.588-1.283 1.152-1.698.565-.415 1.244-.623 2.037-.623 2.004 0 3.133 1.056 3.387 3.166.04.256.061.543.061.86zM13.808 2c-.195 0-.378.05-.537.14L3.204 7.99c-.324.183-.563.52-.563.922v10.999c0 .47.355.853.785.984l3.933 1.065c.094.026.192.04.294.04.576 0 1.106-.446 1.106-1.008V19.45l-2.13-.266c-.513-.074-.898-.548-.901-1.091v-7.895c.017-.441.288-.816.67-.982l8.534-3.494V3.028A1.13 1.13 0 0013.808 2z"/><path d="M9.62 11.113c-.49.134-.861.559-.861 1.088v7.25l1.984.248c.62.083 1.109-.5 1.109-1.118l.008-4.007c-.001-.541.454-.97.987-1.048l4.203-.533h.002c.506-.072.939-.465.939-.98V5.977c0-.56-.536-.97-1.099-.97a1.1 1.1 0 00-.386.072l-1.574.644v3.118c0 .5-.34.922-.79 1.065l-4.523 1.207z"/></g></svg>