<svg id="Logotypes_Payment_Monochrome_PayPo_48px" xmlns="http://www.w3.org/2000/svg" viewBox="0 0 165 48"><g clip-path="url(#a)"><path d="M24.244 36.341v-9.346h-9.425v9.346h9.425zm-.038-12.606V14.31H14.78v9.425h9.425zM11.639 36.302v-9.425H2.214v9.425h9.425zm40.705-22.583c0 6.503-5.23 11.718-11.97 11.718h-5.136v10.745h-7.823V2h12.944c6.755 0 11.985 5.231 11.985 11.719zm-7.807 0c0-2.498-1.76-4.399-4.147-4.399h-5.136v8.797h5.136c2.388 0 4.147-1.9 4.147-4.398zm35.078-2.608v25.071H72.09v-2.356c-1.649 1.9-4.115 3.063-7.477 3.063-6.566 0-11.986-5.765-11.986-13.242 0-7.478 5.42-13.243 11.986-13.243 3.362 0 5.812 1.147 7.477 3.063v-2.356h7.525zM72.09 23.647c0-3.755-2.513-6.127-5.969-6.127-3.456 0-5.97 2.357-5.97 6.127 0 3.754 2.514 6.126 5.97 6.126 3.456-.016 5.97-2.372 5.97-6.126zm36.099-12.536l-8.514 24.16c-2.796 7.917-7.226 11.059-14.2 10.713V39.01c3.486 0 5.136-1.1 6.22-4.132l-9.897-23.767h8.216l5.53 15.237 4.681-15.237h7.964zm27.851 2.608c0 6.503-5.231 11.718-11.97 11.718h-5.136v10.745h-7.823V2h12.944c6.754 0 11.985 5.231 11.985 11.719zm-7.807 0c0-2.498-1.759-4.399-4.147-4.399h-5.137v8.797h5.137c2.388 0 4.147-1.9 4.147-4.398zm8.781 10.273c0-7.273 5.765-12.897 12.944-12.897 7.179 0 12.944 5.624 12.944 12.897 0 7.273-5.765 12.897-12.944 12.897-7.179 0-12.944-5.624-12.944-12.897zm18.568 0c0-3.472-2.451-5.765-5.624-5.765-3.173 0-5.623 2.293-5.623 5.765 0 3.472 2.45 5.765 5.623 5.765 3.189 0 5.624-2.293 5.624-5.765z"/></g><defs><clipPath id="a"><path transform="translate(2.218 2)" d="M0 0h160.7v44H0z"/></clipPath></defs></svg>