<svg id="Logotypes_Payment_Monochrome_Oney--4x_64px" xmlns="http://www.w3.org/2000/svg" viewBox="0 0 186 64"><path d="M81.361 17c-7.953-.07-14.414 6.334-14.485 14.232v.356c-.071 7.97 6.248 14.515 14.201 14.587h.284c7.953.07 14.415-6.333 14.486-14.303v-.284c.142-7.97-6.249-14.445-14.13-14.587h-.356zm0 24.194c-5.183 0-9.373-4.27-9.373-9.535v-.071c-.142-5.195 3.977-9.535 9.16-9.678 5.184-.142 9.515 3.914 9.657 9.108v.498c0 5.337-4.19 9.607-9.444 9.678 0 0 .071 0 0 0zM183.258 17l-11.077 27.11-2.77 6.689-1.491 3.7h-5.467l4.26-10.389L155.423 17h5.751l8.308 20.35L177.79 17h5.468zm-71.434 4.838c-5.113 0-7.74 2.775-7.74 8.183v16.081h-5.255V29.666c.071-2.917.568-4.91 1.704-6.83 1.421-2.135 4.687-5.764 11.22-5.764 6.532 0 9.87 3.629 11.219 5.763 1.207 2.064 1.846 4.483 1.704 6.831v16.509h-5.254V30.022c.142-5.479-2.415-8.183-7.598-8.183zm21.515 7.116c.994-4.768 5.61-7.756 10.367-6.76a8.674 8.674 0 016.746 6.76h-17.113zm22.652 2.277c0-7.756-6.249-14.09-14.06-14.16-7.953 0-14.13 6.404-14.13 14.516 0 3.77 1.491 7.471 4.118 10.246a13.528 13.528 0 009.941 4.34c4.261 0 10.296-2.063 13.137-7.898 0-.07.071-.142.071-.213h-5.752v.071c-1.846 1.992-4.474 3.13-7.243 3.13-4.402-.07-8.095-3.272-8.876-7.613h22.723c0-.64.071-1.708.071-2.42z"/><path fill-rule="evenodd" d="M61.875 32c0 16.569-13.404 30-29.938 30S2 48.569 2 32C2 15.431 15.403 2 31.938 2c16.534 0 29.937 13.431 29.937 30zM29.07 41.025h-4.278v-4.249h-8.7v-3.608L21.125 20.8h4.743L20.98 32.906h3.812V28.54h4.278v4.365h2.154v3.87H29.07v4.249zM47.697 25.58l-5.23 7.315 5.145 7.725h-5.114l-2.66-4-2.43 4h-4.884l4.99-7.5-4.99-7.56h5.114l2.595 3.94 2.59-3.925 4.874.005z"/></svg>