<svg id="Logotypes_Payment_Monochrome_Oney--3x4x_64px" xmlns="http://www.w3.org/2000/svg" viewBox="0 0 247 64"><path d="M142.118 17c-7.953-.07-14.415 6.334-14.486 14.232v.356c-.071 7.97 6.249 14.515 14.202 14.587h.284c7.953.07 14.415-6.333 14.486-14.303v-.284c.142-7.97-6.249-14.445-14.131-14.587h-.355zm0 24.194c-5.184 0-9.373-4.27-9.373-9.535v-.071c-.142-5.195 3.976-9.535 9.16-9.678 5.184-.142 9.515 3.914 9.657 9.108v.498c0 5.337-4.189 9.607-9.444 9.678 0 0 .071 0 0 0zM244.015 17l-11.078 27.11-2.769 6.689-1.491 3.7h-5.468l4.261-10.389L216.18 17h5.751l8.308 20.35L238.547 17h5.468zm-71.434 4.838c-5.113 0-7.74 2.775-7.74 8.183v16.081h-5.255V29.666c.071-2.917.568-4.91 1.704-6.83 1.42-2.135 4.687-5.764 11.22-5.764 6.532 0 9.87 3.629 11.219 5.763 1.207 2.064 1.846 4.483 1.704 6.831v16.509h-5.255V30.022c.142-5.479-2.414-8.183-7.597-8.183zm21.515 7.116c.994-4.768 5.61-7.756 10.367-6.76a8.674 8.674 0 016.746 6.76h-17.113zm22.652 2.277c0-7.756-6.249-14.09-14.06-14.16-7.953 0-14.131 6.404-14.131 14.516 0 3.77 1.492 7.471 4.119 10.246a13.528 13.528 0 009.941 4.34c4.26 0 10.296-2.063 13.136-7.898 0-.07.071-.142.071-.213h-5.751v.071c-1.846 1.992-4.474 3.13-7.243 3.13-4.402-.07-8.095-3.272-8.876-7.613h22.723c0-.64.071-1.708.071-2.42z"/><path fill-rule="evenodd" d="M62.633 32c0 16.569-13.404 30-29.938 30S2.758 48.569 2.758 32c0-16.569 13.403-30 29.937-30s29.938 13.431 29.938 30zm-38.41 9a8.28 8.28 0 01-4.84-1.33 6.35 6.35 0 01-2.544-3.58l3.991-1.175a3.184 3.184 0 001.263 1.665c.646.42 1.405.63 2.175.605a2.944 2.944 0 001.901-.63 2.117 2.117 0 00.783-1.75 2.002 2.002 0 00-.838-1.725 3.596 3.596 0 00-2.145-.6h-2.196V29h2.11a3.293 3.293 0 001.997-.535c.505-.44.767-1.097.703-1.765a1.876 1.876 0 00-.693-1.53 2.566 2.566 0 00-1.682-.56c-1.33 0-2.227.697-2.69 2.09l-4.16-1.175a5.537 5.537 0 01.773-1.75c.38-.565.84-1.07 1.367-1.5a6.242 6.242 0 012.07-1.08 8.749 8.749 0 012.695-.395 7.901 7.901 0 014.91 1.435 4.623 4.623 0 011.88 3.885 4.712 4.712 0 01-.673 2.595 3.763 3.763 0 01-1.9 1.5v.025c.852.3 1.583.873 2.08 1.63.584.876.88 1.912.848 2.965a5.555 5.555 0 01-1.996 4.435C28.098 40.423 26.37 41 24.223 41zm24.232-15.42l-5.23 7.315 5.145 7.725h-5.114l-2.66-4-2.43 4h-4.885l4.99-7.5-4.99-7.56h5.115l2.594 3.94 2.59-3.925 4.875.005zM122.633 32c0 16.569-13.404 30-29.938 30S62.758 48.569 62.758 32c0-16.569 13.403-30 29.937-30s29.938 13.431 29.938 30zm-32.805 9.025H85.55v-4.249h-8.7v-3.608L81.883 20.8h4.744l-4.89 12.106h3.813V28.54h4.278v4.365h2.153v3.87h-2.153v4.249zm18.627-15.445l-5.229 7.315 5.144 7.725h-5.114l-2.66-4-2.43 4h-4.885l4.99-7.5-4.99-7.56h5.115l2.594 3.94 2.59-3.925 4.875.005z"/></svg>