<svg id="Logotypes_Payment_Monochrome_Oney_32px" xmlns="http://www.w3.org/2000/svg" viewBox="0 0 92 32"><path d="M13.473 2C7.535 1.947 2.71 6.73 2.657 12.627v.265c-.053 5.95 4.666 10.839 10.604 10.892h.212c5.938.053 10.763-4.729 10.816-10.68v-.212C24.395 6.942 19.623 2.107 13.74 2h-.266zm0 18.065c-3.87 0-6.998-3.188-6.998-7.12v-.053c-.106-3.878 2.969-7.12 6.84-7.226 3.87-.106 7.104 2.923 7.21 6.801v.372c0 3.985-3.128 7.173-7.052 7.226 0 0 .053 0 0 0zM89.556 2l-8.271 20.243-2.068 4.994L78.104 30H74.02l3.181-7.757L68.772 2h4.295l6.203 15.196L85.474 2h4.082zM36.218 5.613c-3.817 0-5.779 2.072-5.779 6.11v12.008h-3.923V11.458c.053-2.179.424-3.666 1.272-5.1 1.06-1.595 3.5-4.304 8.377-4.304 4.878 0 7.37 2.71 8.377 4.303.902 1.54 1.379 3.347 1.273 5.1v12.327h-3.923v-12.06c.106-4.092-1.803-6.11-5.674-6.11zm16.065 5.313c.743-3.56 4.189-5.79 7.741-5.047a6.477 6.477 0 015.037 5.047H52.283zm16.913 1.7c0-5.79-4.665-10.52-10.497-10.572-5.938 0-10.551 4.781-10.551 10.838 0 2.816 1.113 5.579 3.075 7.65a10.1 10.1 0 007.423 3.242c3.18 0 7.688-1.541 9.808-5.898 0-.053.053-.106.053-.16h-4.294v.054a7.367 7.367 0 01-5.408 2.338c-3.288-.053-6.044-2.444-6.628-5.685h16.967c0-.478.052-1.275.052-1.806z"/></svg>