<svg id="Logotypes_Payment_Monochrome_Bizum_32px" xmlns="http://www.w3.org/2000/svg" viewBox="0 0 99 32"><path fill-rule="evenodd" d="M18.445 20.016a2.277 2.277 0 00-3.181.505l-2.68 3.688a2.278 2.278 0 103.686 2.677l2.681-3.686a2.28 2.28 0 00-.506-3.184zm4.19 5.861a2.279 2.279 0 10-2.675 3.688 2.279 2.279 0 002.676-3.688zM6.378 5.617a2.279 2.279 0 10-3.685-2.68 2.279 2.279 0 003.685 2.68zm13.234 1.169a2.275 2.275 0 00-3.18.502L5.715 22.034A2.278 2.278 0 109.4 24.712L20.116 9.966a2.274 2.274 0 00-.505-3.18zM7.387 11.983a2.28 2.28 0 003.183-.507l2.677-3.684a2.276 2.276 0 00-.504-3.182 2.273 2.273 0 00-3.181.503L6.882 8.8a2.28 2.28 0 00.505 3.184zm89.067 5.447c0-2.99-1.384-5.463-5.181-5.463-1.693 0-2.907.5-3.734 1.32-.825-.82-2.04-1.32-3.743-1.32-3.773 0-5.18 2.473-5.18 5.463l-.002 6.713c0 .807.65 1.457 1.431 1.457.807 0 1.457-.65 1.457-1.457V17.43c0-1.769.551-2.86 2.294-2.86 1.769 0 2.294 1.091 2.294 2.86v6.713c0 .807.65 1.457 1.432 1.457.807 0 1.457-.65 1.457-1.457V17.43c0-1.769.55-2.86 2.293-2.86 1.769 0 2.295 1.091 2.295 2.86v6.713c0 .807.649 1.457 1.431 1.457.807 0 1.457-.65 1.457-1.457l-.001-6.713zm-22.076-5.46c-.807 0-1.457.648-1.457 1.456v6.712c0 1.768-.782 2.86-2.525 2.86-1.769 0-2.523-1.092-2.523-2.86v-6.712c0-.808-.65-1.457-1.431-1.457-.807 0-1.456.65-1.456 1.457v6.712c0 2.991 1.612 5.463 5.41 5.463 3.772 0 5.413-2.472 5.413-5.463v-6.712c0-.808-.65-1.457-1.431-1.457zm-29.71 5.099c0-3.02-1.594-4.944-5.264-4.944h-2.67v-4.06c0-.807-.65-1.456-1.432-1.456-.807 0-1.456.649-1.456 1.457v12.072c0 2.991 1.612 5.463 5.41 5.463 3.772 0 5.413-2.472 5.413-5.463v-3.069zm-2.887 3.07c0 1.767-.782 2.86-2.525 2.86-1.769 0-2.523-1.093-2.523-2.86v-5.491h2.647c2.134 0 2.401 1.171 2.401 2.473v3.017zm21.246-6.767c0-.907-.727-1.247-1.352-1.247H54.47c-.703 0-1.275.547-1.275 1.247 0 .705.572 1.276 1.275 1.276h4.734l-6.138 8.533c-.183.26-.285.573-.285.858 0 .884.727 1.405 1.325 1.405h7.649c.7 0 1.272-.573 1.272-1.276 0-.7-.544-1.274-1.272-1.274h-5.151l6.008-8.349c.311-.415.415-.78.415-1.173zM48.823 6.608c-.91 0-1.64.729-1.64 1.639 0 .908.73 1.664 1.64 1.664.912 0 1.64-.756 1.64-1.664 0-.91-.728-1.639-1.64-1.639zm0 5.36c-.807 0-1.457.65-1.457 1.431v10.744c0 .807.65 1.457 1.457 1.457s1.458-.65 1.458-1.457V13.399c0-.782-.65-1.43-1.458-1.43z"/></svg>