<svg id="Logotypes_Payment_Monochrome_PayPal_32px" xmlns="http://www.w3.org/2000/svg" viewBox="0 0 119 32"><path d="M41.967 7.542h-6.55a.91.91 0 00-.9.77l-2.65 16.81a.546.546 0 00.54.63h3.128a.91.91 0 00.9-.77l.714-4.534a.91.91 0 01.899-.77h2.074c4.315 0 6.806-2.09 7.456-6.23.293-1.812.012-3.235-.835-4.232-.931-1.095-2.583-1.674-4.776-1.674zm.756 6.14c-.358 2.352-2.154 2.352-3.89 2.352h-.99l.694-4.393a.546.546 0 01.54-.46h.453c1.183 0 2.299 0 2.875.674.344.402.45 1 .318 1.827zm18.827-.076h-3.137a.547.547 0 00-.54.461l-.138.878-.22-.318c-.679-.986-2.193-1.316-3.705-1.316-3.467 0-6.428 2.627-7.004 6.313-.3 1.838.126 3.596 1.168 4.822.956 1.128 2.324 1.597 3.952 1.597 2.793 0 4.342-1.797 4.342-1.797l-.14.872a.546.546 0 00.538.633h2.826a.91.91 0 00.9-.77l1.695-10.744a.544.544 0 00-.537-.63zm-4.373 6.11c-.303 1.793-1.725 2.997-3.54 2.997-.91 0-1.638-.292-2.106-.846-.463-.55-.64-1.333-.492-2.206.282-1.778 1.729-3.021 3.515-3.021.891 0 1.615.296 2.092.855.478.565.668 1.352.531 2.221zm21.081-6.11h-3.152a.913.913 0 00-.754.4l-4.348 6.408-1.843-6.158a.913.913 0 00-.874-.65H64.19a.547.547 0 00-.518.723l3.472 10.197-3.264 4.611a.546.546 0 00.445.863h3.149a.908.908 0 00.748-.391l10.485-15.145a.546.546 0 00-.448-.858zm10.437-6.064h-6.552a.91.91 0 00-.899.77l-2.65 16.81a.545.545 0 00.54.63h3.361c.313 0 .58-.228.629-.539l.752-4.765a.91.91 0 01.898-.77h2.073c4.317 0 6.806-2.09 7.458-6.23.294-1.812.011-3.235-.837-4.232-.93-1.095-2.58-1.674-4.773-1.674zm.756 6.14c-.357 2.352-2.154 2.352-3.891 2.352h-.988l.695-4.393a.544.544 0 01.538-.46h.453c1.182 0 2.299 0 2.876.674.344.402.448 1 .317 1.827zm18.826-.076h-3.135a.543.543 0 00-.538.461l-.139.878-.221-.318c-.679-.986-2.192-1.316-3.704-1.316-3.466 0-6.426 2.627-7.003 6.313-.299 1.838.125 3.596 1.168 4.822.957 1.128 2.323 1.597 3.951 1.597 2.793 0 4.342-1.797 4.342-1.797l-.14.872a.547.547 0 00.541.633h2.825a.91.91 0 00.898-.77l1.697-10.744a.548.548 0 00-.542-.63zm-4.373 6.11c-.3 1.793-1.725 2.997-3.539 2.997-.91 0-1.64-.292-2.106-.846-.464-.55-.638-1.333-.493-2.206.285-1.778 1.73-3.021 3.516-3.021.891 0 1.615.296 2.092.855.48.565.669 1.352.53 2.221zm8.071-11.712l-2.689 17.117a.545.545 0 00.539.63h2.703c.449 0 .83-.325.899-.769l2.652-16.809a.547.547 0 00-.539-.631h-3.027a.547.547 0 00-.538.462z"/><path d="M22.66 8.674c-.024.156-.052.315-.083.48-1.076 5.528-4.758 7.438-9.46 7.438h-2.394c-.575 0-1.06.418-1.15.985l-1.225 7.78L8 27.562a.613.613 0 00.604.708h4.247c.503 0 .93-.365 1.009-.862l.042-.216.8-5.076.05-.279a1.021 1.021 0 011.01-.864h.635c4.114 0 7.335-1.671 8.276-6.508.393-2.02.19-3.707-.851-4.894a4.06 4.06 0 00-1.162-.897z" opacity=".6"/><path d="M21.535 8.225a8.476 8.476 0 00-1.047-.232 13.289 13.289 0 00-2.11-.154H11.98a1.02 1.02 0 00-1.008.864l-1.36 8.623-.04.252c.09-.568.574-.986 1.15-.986h2.394c4.702 0 8.384-1.91 9.46-7.439.032-.163.059-.323.083-.478a5.735 5.735 0 00-.884-.374 7.824 7.824 0 00-.241-.076z" opacity=".75"/><path d="M10.973 8.702a1.017 1.017 0 011.009-.862h6.396c.758 0 1.465.05 2.11.154a8.503 8.503 0 011.288.307c.318.105.613.23.886.373.32-2.043-.003-3.434-1.107-4.694C20.338 2.594 18.14 2 15.33 2H7.17c-.574 0-1.064.418-1.153.986l-3.399 21.56a.701.701 0 00.692.81h5.038l1.265-8.03 1.36-8.624z"/></svg>