<svg xmlns="http://www.w3.org/2000/svg" viewBox="0 0 48 48">
  <path fill-rule="evenodd" d="M32.337 7.461c2.076-.479 4.409-.487 6.273-.36a32.07 32.07 0 0 1 2.078.21c.073.538.154 1.253.21 2.078.128 1.865.12 4.197-.36 6.273-.548 2.375-1.952 4.76-3.861 7.04-1.901 2.272-4.236 4.363-6.53 6.15a68.904 68.904 0 0 1-7.565 5.101 24.7 24.7 0 0 0-2.74-3.674l7.219-7.219a1.5 1.5 0 0 0-2.122-2.121l-7.218 7.218a24.7 24.7 0 0 0-3.675-2.74 68.88 68.88 0 0 1 5.1-7.564c1.789-2.294 3.88-4.63 6.151-6.53 2.281-1.91 4.666-3.314 7.04-3.862ZM15.655 30.334c-1.368-1.217-2.851-2.256-4.326-2.993a1.5 1.5 0 0 1-.656-2.041l1.11.586-1.11-.587.001-.001.002-.003.006-.012.023-.042a25.392 25.392 0 0 1 .205-.375l-5.049-5.89a1.5 1.5 0 0 1-.064-1.873L7 18a283.353 283.353 0 0 1-1.202-.896v-.001L5.8 17.1l.005-.007.018-.023.064-.084a30.462 30.462 0 0 1 1.094-1.326c.723-.827 1.747-1.914 2.928-2.914 1.166-.986 2.572-1.963 4.06-2.475 1.523-.523 3.284-.599 4.878.492.504.344 1 .822 1.383 1.225a38.44 38.44 0 0 1 3.142-2.965c2.478-2.074 5.284-3.79 8.29-4.484 2.49-.575 5.158-.566 7.153-.43a34.633 34.633 0 0 1 3.194.37l.198.034.055.01.016.004h.006l.001.001L42 6l1.473-.285v.002l.001.005.003.016.01.055.035.198a34.621 34.621 0 0 1 .37 3.194c.136 1.994.144 4.662-.43 7.152-.694 3.007-2.41 5.813-4.485 8.29a38.4 38.4 0 0 1-2.964 3.142c.402.383.88.88 1.225 1.384 1.09 1.593 1.014 3.355.491 4.877-.511 1.489-1.488 2.895-2.474 4.06a27.932 27.932 0 0 1-2.915 2.928 30.475 30.475 0 0 1-1.409 1.158l-.024.018-.007.005-.002.002h-.001L30 41l.896 1.202a1.5 1.5 0 0 1-1.872-.064l-5.89-5.048a35.716 35.716 0 0 1-.375.205l-.042.022-.012.007-.003.001-.002.001-.586-1.11.586 1.11a1.5 1.5 0 0 1-2.042-.656c-.737-1.474-1.776-2.957-2.993-4.326a1.5 1.5 0 0 1-2.01-2.01ZM42 6l1.473-.286a1.5 1.5 0 0 0-1.187-1.187L42 6ZM30.03 39.05l-4.166-3.571a71.685 71.685 0 0 0 6.127-4.26 60.49 60.49 0 0 0 1.777-1.441c.402.369.787.767.994 1.069.39.568.455 1.263.13 2.208-.336.98-1.044 2.053-1.928 3.097a25.137 25.137 0 0 1-2.597 2.607c-.119.104-.232.2-.337.29ZM12.52 22.135a71.643 71.643 0 0 1 4.26-6.127c.46-.588.94-1.184 1.442-1.778-.37-.402-.767-.787-1.069-.994-.569-.389-1.263-.454-2.209-.13-.979.337-2.052 1.044-3.097 1.928a25.238 25.238 0 0 0-2.897 2.935l3.57 4.166ZM9.637 40.044c-.703.176-1.418.285-2.033.352.067-.615.176-1.33.352-2.033.23-.916.543-1.694.932-2.213.358-.477.702-.65 1.113-.65a2.5 2.5 0 0 1 2.5 2.5c0 .41-.173.754-.65 1.112-.52.39-1.298.703-2.214.932ZM6 43.5V42v1.5h.035a17.523 17.523 0 0 0 .362-.01c.239-.008.575-.025.978-.058a19.14 19.14 0 0 0 2.989-.477c1.084-.271 2.305-.707 3.286-1.443 1.023-.767 1.85-1.923 1.85-3.513a5.5 5.5 0 0 0-5.5-5.5c-1.59 0-2.745.828-3.513 1.85-.735.981-1.171 2.203-1.442 3.287a19.14 19.14 0 0 0-.477 2.989 20.801 20.801 0 0 0-.068 1.34v.033C4.5 42 4.5 42 6 42H4.5A1.5 1.5 0 0 0 6 43.5ZM33 13a2 2 0 1 0 0 4 2 2 0 0 0 0-4Zm-4 2a4 4 0 1 1 8 0 4 4 0 0 1-8 0Z"/>
</svg>
