<svg xmlns="http://www.w3.org/2000/svg" viewBox="0 0 64 64"><defs></defs><g id="Icon"><path  d="M49,19v3.4c4.3,2.27,7,5.37,7,8.72,0,5.59-7.58,10.68-18,12.1a1.5,1.5,0,0,0,.2,3h.21C50.52,44.52,59,38.32,59,31.1,59,26.14,55.13,21.8,49,19Z"/><path  d="M21.23,22.35A2.19,2.19,0,0,1,20,22a1.82,1.82,0,0,1-.72-.95L17,21.72a3.62,3.62,0,0,0,1.46,2.05,4.77,4.77,0,0,0,2.77.76,4.44,4.44,0,0,0,3-1A3.17,3.17,0,0,0,25.32,21a2.87,2.87,0,0,0-.49-1.7,2.37,2.37,0,0,0-1.19-.93h0a2.2,2.2,0,0,0,1.09-.87A2.68,2.68,0,0,0,25.12,16,2.62,2.62,0,0,0,24,13.81,4.51,4.51,0,0,0,21.23,13a5.14,5.14,0,0,0-1.55.22,3.57,3.57,0,0,0-1.18.62,4,4,0,0,0-.79.86,3.32,3.32,0,0,0-.44,1l2.39.67a1.51,1.51,0,0,1,1.54-1.19,1.43,1.43,0,0,1,1,.32,1.06,1.06,0,0,1,.39.87,1.18,1.18,0,0,1-.4,1,1.9,1.9,0,0,1-1.15.3H19.79v2h1.26a2.11,2.11,0,0,1,1.24.34,1.15,1.15,0,0,1,.48,1,1.22,1.22,0,0,1-.45,1A1.7,1.7,0,0,1,21.23,22.35Z"/><path  d="M34,17.84a3.69,3.69,0,0,0-2.57-1,3.33,3.33,0,0,0-1.33.27,3.28,3.28,0,0,0-1.09.76,3.84,3.84,0,0,1,.67-2,1.72,1.72,0,0,1,1.45-.75,1.65,1.65,0,0,1,.93.24,2.29,2.29,0,0,1,.66.76l2.12-.59a3.4,3.4,0,0,0-1.24-1.87A3.84,3.84,0,0,0,31.18,13,4.08,4.08,0,0,0,28,14.45a5.24,5.24,0,0,0-1,1.93,9.24,9.24,0,0,0-.37,2.75,6.16,6.16,0,0,0,1.15,4,3.86,3.86,0,0,0,3.19,1.44,4.78,4.78,0,0,0,1.81-.33,3.42,3.42,0,0,0,1.31-.87,3.78,3.78,0,0,0,.78-1.23,3.74,3.74,0,0,0,.28-1.45A4.05,4.05,0,0,0,34.81,19,3.33,3.33,0,0,0,34,17.84Zm-1.85,4.05a1.58,1.58,0,0,1-1.16.46,1.54,1.54,0,0,1-1.14-.46,1.85,1.85,0,0,1,0-2.42,1.63,1.63,0,0,1,2.29,0,1.84,1.84,0,0,1,0,2.42Z"/><path  d="M40.62,24.53A3.73,3.73,0,0,0,43.79,23a7.2,7.2,0,0,0,1.1-4.3,7.08,7.08,0,0,0-1.1-4.27A3.72,3.72,0,0,0,40.62,13a3.65,3.65,0,0,0-3.14,1.48,7.09,7.09,0,0,0-1.09,4.27A7.16,7.16,0,0,0,37.48,23,3.66,3.66,0,0,0,40.62,24.53Zm-1.26-8.45a1.35,1.35,0,0,1,1.26-.91,1.38,1.38,0,0,1,1.28.91,6.27,6.27,0,0,1,.44,2.66,6.34,6.34,0,0,1-.44,2.68,1.38,1.38,0,0,1-1.28.93,1.36,1.36,0,0,1-1.26-.93,6.5,6.5,0,0,1-.44-2.68A6.43,6.43,0,0,1,39.36,16.08Z"/><path  d="M48.31,17.29a2.1,2.1,0,0,0,1.53-.63,2.15,2.15,0,0,0,0-3A2.1,2.1,0,0,0,48.31,13a2.08,2.08,0,0,0-1.52.63,2.13,2.13,0,0,0,0,3A2.08,2.08,0,0,0,48.31,17.29Zm-.71-2.86a1,1,0,0,1,1.42,0,1,1,0,0,1,.28.71,1,1,0,0,1-.28.71,1,1,0,0,1-1.72-.71A.94.94,0,0,1,47.6,14.43Z"/><path  d="M25,38.92a1.5,1.5,0,1,0-2.47,1.71l1.57,2.26C14.71,41.14,8,36.3,8,31.1c0-3.35,2.7-6.45,7-8.72V19C8.87,21.8,5,26.14,5,31.1,5,38,12.41,43.78,23.58,45.84L21.92,47a1.5,1.5,0,0,0,.85,2.74,1.48,1.48,0,0,0,.85-.27l4.24-2.94a2,2,0,0,0,.51-2.78Z"/></g></svg>