<svg id="Media_Project_24px" xmlns="http://www.w3.org/2000/svg" viewBox="0 0 24 24"><path d="M19 2a3 3 0 00-3 3H3a1 1 0 00-1 1v15a1 1 0 001 1h15.5a3.5 3.5 0 003.5-3.5V5a3 3 0 00-3-3zm-1 3a1 1 0 012 0v10.34a3.44 3.44 0 00-1.5-.34 2.81 2.81 0 00-.5 0zm.5 15H4V7h12v9.51a1 1 0 001.6.8 1.52 1.52 0 01.9-.31 1.5 1.5 0 010 3z"/><path d="M13.35 13.15a.36.36 0 00-.16-.11.5.5 0 00-.38 0 .53.53 0 00-.27.27.47.47 0 000 .38.36.36 0 00.11.16.47.47 0 00.35.15.41.41 0 00.19 0 .53.53 0 00.27-.27.41.41 0 000-.19.58.58 0 000-.19.36.36 0 00-.11-.2zM13.19 14.79a.5.5 0 00-.38 0 .53.53 0 00-.27.27.43.43 0 000 .19.47.47 0 00.15.35.36.36 0 00.16.11.41.41 0 00.19 0 .5.5 0 00.35-.85.36.36 0 00-.2-.07zM9.85 16.65a.36.36 0 00-.16-.11.5.5 0 00-.38 0 .36.36 0 00-.16.11.48.48 0 000 .7.36.36 0 00.16.11.47.47 0 00.38 0 .42.42 0 00.16-.11A.45.45 0 0010 17a.43.43 0 000-.19.36.36 0 00-.15-.16zM11.6 16.65a.36.36 0 00-.16-.11.5.5 0 00-.38 0 .53.53 0 00-.27.27.43.43 0 000 .19.47.47 0 00.15.35.36.36 0 00.16.11.41.41 0 00.19 0 .43.43 0 00.19 0 .36.36 0 00.16-.11.47.47 0 00.15-.35.43.43 0 000-.19.36.36 0 00-.19-.16zM13.19 16.54a.5.5 0 00-.38 0 .36.36 0 00-.16.11.47.47 0 00-.15.35.45.45 0 00.15.35.47.47 0 00.35.15.43.43 0 00.19 0 .36.36 0 00.16-.11.48.48 0 000-.7.36.36 0 00-.16-.15zM13.42 12.28a.51.51 0 00-.14-.7l-3-2a.52.52 0 00-.56 0l-3 2a.51.51 0 00-.22.42v5a.5.5 0 00.5.5h1a.5.5 0 000-1h-.5v-4.23L10 10.6l2.72 1.82a.51.51 0 00.7-.14z"/></svg>