<svg xmlns="http://www.w3.org/2000/svg" viewBox="0 0 24 24"><defs></defs><g id="Calque_5" ><path  d="M12,2A10,10,0,1,0,22,12,10,10,0,0,0,12,2ZM7.5,15V9H8.6a1.52,1.52,0,0,0,1.06-.44L10.21,8h3.58l.55.54A1.52,1.52,0,0,0,15.4,9h1.1v6ZM12,4a7.92,7.92,0,0,1,4.9,1.69l-2,2-.55-.55A.5.5,0,0,0,14,7H10a.5.5,0,0,0-.35.14L9,7.83A.51.51,0,0,1,8.6,8H7a.5.5,0,0,0-.5.5v7a.49.49,0,0,0,.2.39l-1,1A7.92,7.92,0,0,1,4,12,8,8,0,0,1,12,4Zm0,16a7.92,7.92,0,0,1-4.9-1.69L9.41,16H17a.5.5,0,0,0,.5-.5v-7a.48.48,0,0,0-.18-.38l1-1A7.92,7.92,0,0,1,20,12,8,8,0,0,1,12,20Z"/><path  d="M12,9.25a2.5,2.5,0,1,0,2.5,2.5A2.5,2.5,0,0,0,12,9.25Zm0,4a1.5,1.5,0,1,1,1.5-1.5A1.5,1.5,0,0,1,12,13.25Z"/><circle  cx="8.5" cy="10" r="0.5"/></g></svg>