<svg xmlns="http://www.w3.org/2000/svg" viewBox="0 0 20 20">
  <g clip-path="url(#a)">
    <path fill-rule="evenodd" d="M6.553 3.637a.75.75 0 0 1 .53-.22h5.834a.75.75 0 0 1 .53.22l1.447 1.447H17.5a.75.75 0 0 1 .75.75v10a.75.75 0 0 1-.75.75h-15a.75.75 0 0 1-.75-.75v-10a.75.75 0 0 1 .75-.75h2.606l1.447-1.447Zm.841 1.28L5.947 6.364a.75.75 0 0 1-.53.22H3.25v8.5h13.5v-8.5h-2.167a.75.75 0 0 1-.53-.22l-1.447-1.447H7.394Zm-1.56 3.417a.833.833 0 1 1-1.667 0 .833.833 0 0 1 1.666 0Zm2 2.083a2.167 2.167 0 1 1 4.333 0 2.167 2.167 0 0 1-4.334 0ZM10 6.75a3.667 3.667 0 1 0 0 7.334 3.667 3.667 0 0 0 0-7.334Z"/>
  </g>
  <defs>
    <clipPath id="a">
      <rect width="20" height="20" fill="#fff"/>
    </clipPath>
  </defs>
</svg>
