<svg xmlns="http://www.w3.org/2000/svg" viewBox="0 0 32 32"><defs></defs><g id="Icon"><path  d="M29,5.5A2.5,2.5,0,0,0,26.5,3H5.5A2.5,2.5,0,0,0,5,8,.09.09,0,0,0,5,8V20a2,2,0,0,0,2,2h8v1.29L8.73,27.15A1,1,0,0,0,9.25,29a1,1,0,0,0,.52-.15L15,25.64V27a1,1,0,0,0,2,0V25.64l5.23,3.21a1,1,0,0,0,.52.15,1,1,0,0,0,.52-1.85L17,23.29V22h8a2,2,0,0,0,2-2V8a.09.09,0,0,0,0,0A2.5,2.5,0,0,0,29,5.5ZM7,20V8H25V20ZM26.5,6H5.5a.5.5,0,0,1,0-1h21a.5.5,0,0,1,0,1Z"/><path  d="M19.43,13.17l-4-2.71a1,1,0,0,0-1.56.83v5.42a1,1,0,0,0,.53.88,1,1,0,0,0,.47.12,1,1,0,0,0,.56-.17l4-2.71a1,1,0,0,0,0-1.66Zm-4.55,3.54V11.29l4,2.71Z"/></g></svg>