<svg id="Media_Image-alt_48px" xmlns="http://www.w3.org/2000/svg" viewBox="0 0 48 48"><path fill-rule="evenodd" d="M3.023 10.904a1.5 1.5 0 011.216-1.738l27.575-4.862a1.5 1.5 0 011.738 1.217l1.326 7.522 8.419.737a1.5 1.5 0 011.364 1.625l-2.44 27.893a1.5 1.5 0 01-1.626 1.363l-27.893-2.44a1.5 1.5 0 01-1.364-1.625l.107-1.222-1.822.321a1.5 1.5 0 01-1.738-1.216L3.023 10.904zm35.39 22.192l-2.996-16.994 6.124.535-2.179 24.905-24.905-2.179.047-.528 22.693-4.002a1.5 1.5 0 001.217-1.737zm-28.79-2.032l.956 5.416 24.62-4.34-.955-5.417-4.415.778a.957.957 0 01-.033.006l-17.685 3.118a.887.887 0 01-.052.01l-2.435.429zM6.239 11.86l3.038 17.234 1.806-.318 2.694-12.035a1 1 0 011.78-.378l4.364 5.885 1.528-3.017a1 1 0 011.576-.278l6.933 6.495 3.94-.695-3.04-17.234-24.62 4.341zm21.257 14.022L13.215 28.4l2.036-9.09 4.026 5.429a1 1 0 001.695-.144l1.658-3.27 4.865 4.557zm-4.052-11.47a1 1 0 111.97-.348 1 1 0 01-1.97.347zm.464-3.129a3 3 0 101.042 5.91 3 3 0 00-1.042-5.91z"/></svg>