<svg xmlns="http://www.w3.org/2000/svg" viewBox="0 0 64 64"><defs></defs><g id="Icon"><path  d="M57,13H51V7a2,2,0,0,0-2-2H15a2,2,0,0,0-2,2v6H7a2,2,0,0,0-2,2V49a2,2,0,0,0,2,2h6v6a2,2,0,0,0,2,2H49a2,2,0,0,0,2-2V51h6a2,2,0,0,0,2-2V15A2,2,0,0,0,57,13ZM16,8H48v5H16ZM48,56H16V35H48Zm8-8H51V35h1.5a1.5,1.5,0,0,0,0-3h-41a1.5,1.5,0,0,0,0,3H13V48H8V16H56Z"/><path  d="M41.5,40h-19a1.5,1.5,0,0,0,0,3h19a1.5,1.5,0,0,0,0-3Z"/><path  d="M41.5,47h-19a1.5,1.5,0,0,0,0,3h19a1.5,1.5,0,0,0,0-3Z"/><path  d="M43,22.5A1.5,1.5,0,0,0,44.5,24h7a1.5,1.5,0,0,0,0-3h-7A1.5,1.5,0,0,0,43,22.5Z"/></g></svg>