<svg xmlns="http://www.w3.org/2000/svg" viewBox="0 0 48 48"><defs></defs><g id="Icon"><path  d="M44,7.25A3.88,3.88,0,0,0,40.08,4H7.92A3.88,3.88,0,0,0,4,7.25a3.76,3.76,0,0,0,3,4.17V31.5a2,2,0,0,0,2,2H22.5v2.11L12.38,41.13a1.57,1.57,0,0,0-.76,1.95A1.49,1.49,0,0,0,13,44a1.57,1.57,0,0,0,.72-.18L22.5,39v2a1.5,1.5,0,0,0,3,0V39l8.78,4.79A1.57,1.57,0,0,0,35,44a1.49,1.49,0,0,0,1.38-.92,1.57,1.57,0,0,0-.76-1.95L25.5,35.61V33.5H39a2,2,0,0,0,2-2V11.42A3.76,3.76,0,0,0,44,7.25ZM38,30.5H10v-19H38Zm2.25-22H7.75a.75.75,0,0,1,0-1.5h32.5a.75.75,0,0,1,0,1.5Z"/><path  d="M20,27.37a1,1,0,0,0,.49.13,1,1,0,0,0,.52-.15l9-5.5a1,1,0,0,0,0-1.7l-9-5.5a1,1,0,0,0-1,0,1,1,0,0,0-.51.87v11A1,1,0,0,0,20,27.37ZM21.5,17.28,27.58,21,21.5,24.72Z"/></g></svg>