<svg xmlns="http://www.w3.org/2000/svg" viewBox="0 0 32 32"><defs></defs><g id="Icon"><path  d="M3,7V28a1,1,0,0,0,1,1H25a4,4,0,0,0,4-4V7a4,4,0,0,0-7.86-1H4A1,1,0,0,0,3,7ZM27,21.54a4,4,0,0,0-4,0V7a2,2,0,0,1,4,0ZM5,8H21V25a1,1,0,0,0,2,0,2,2,0,1,1,2,2H5Z"/><path  d="M17.5,16.75a.5.5,0,0,1-.5-.5v-.78l-4-3.55L9,15.47v6.78h.5a.5.5,0,0,1,0,1h-1a.5.5,0,0,1-.5-.5v-7.5a.48.48,0,0,1,.17-.37l4.5-4a.49.49,0,0,1,.66,0l4.5,4h0a.31.31,0,0,1,.07.09.43.43,0,0,1,0,.07s0,0,0,.08,0,.07,0,.11h0v1A.5.5,0,0,1,17.5,16.75Z"/><path  d="M17.5,20.05a.5.5,0,0,1-.5-.5v-1.1a.5.5,0,0,1,1,0v1.1A.5.5,0,0,1,17.5,20.05Z"/><path  d="M17.5,23.25h-1a.5.5,0,0,1,0-1H17v-.5a.5.5,0,0,1,1,0v1A.5.5,0,0,1,17.5,23.25Z"/><path  d="M12.3,22.25h1.4a.5.5,0,1,1,0,1H12.3a.5.5,0,1,1,0-1Z"/></g></svg>