<svg id="Media_Gauge_24px" xmlns="http://www.w3.org/2000/svg" viewBox="0 0 24 24"><g clip-path="url(#a)"><path fill-rule="evenodd" d="M14.67 4.459A8 8 0 004 12.042a1 1 0 01-2 .01 10 10 0 0113.338-9.478 1 1 0 11-.667 1.885zM3.707 15.634A1 1 0 015.072 16c.084.145.172.288.265.427a1 1 0 11-1.666 1.107A9.969 9.969 0 013.34 17a1 1 0 01.366-1.366zM8 18.928a1 1 0 00-1 1.732c.181.105.366.204.554.297a1 1 0 10.889-1.791A7.987 7.987 0 018 18.928zm5.563 1.991a1 1 0 01-.935 1.061c-.21.013-.418.02-.628.02a1 1 0 110-2c.168 0 .335-.005.502-.016a1 1 0 011.061.935zm3.97-.59a1 1 0 10-1.106-1.666c-.14.093-.282.181-.427.265a1 1 0 101 1.732c.181-.105.36-.215.534-.33zm2.973-5.223a1 1 0 01.451 1.34 9.49 9.49 0 01-.297.554 1 1 0 01-1.732-1 8.19 8.19 0 00.238-.443 1 1 0 011.34-.451zm.903-6.493a1 1 0 00-1.882.677c.313.87.473 1.786.473 2.71a1 1 0 102 0 10 10 0 00-.591-3.387zM12 13a1 1 0 100-2 1 1 0 000 2zm0 2a3 3 0 002.708-4.293l5-5a1 1 0 00-1.415-1.414l-5 5A3 3 0 1012 15z"/></g><defs><clipPath id="a"><path d="M0 0h24v24H0z"/></clipPath></defs></svg>