<svg xmlns="http://www.w3.org/2000/svg" viewBox="0 0 20 20">
  <g clip-path="url(#a)">
    <path fill-rule="evenodd" d="M3.417 2.5a.75.75 0 0 1 .75-.75h7.5a.75.75 0 0 1 .53.22l4.166 4.166a.75.75 0 0 1 .22.53V17.5a.75.75 0 0 1-.75.75H4.167a.75.75 0 0 1-.75-.75v-15Zm1.5.75v13.5h10.166V7.417h-3.417a.75.75 0 0 1-.75-.75V3.25h-6Zm7.5 1.06 1.606 1.607h-1.607V4.31Zm.213 8.048c-.235 0-.445.057-.63.171a1.145 1.145 0 0 0-.428.483 1.7 1.7 0 0 0-.15.738c0 .278.051.523.154.735.104.209.248.372.432.49.187.114.399.17.633.17.205 0 .398-.032.58-.096.183-.064.337-.156.462-.275l.012-.012V13.58H12.51v.503h.615v.38c-.11.11-.269.167-.484.167a.563.563 0 0 1-.325-.098.665.665 0 0 1-.229-.293 1.291 1.291 0 0 1-.083-.49c0-.196.028-.359.083-.49a.642.642 0 0 1 .229-.29.563.563 0 0 1 .325-.097.54.54 0 0 1 .304.08c.08.052.14.124.18.217l.014.034.526-.154-.013-.04a.873.873 0 0 0-.361-.476c-.176-.118-.398-.176-.661-.176Zm-5.444.049h-.882v2.69h.571v-.908h.296c.188 0 .356-.035.502-.105a.816.816 0 0 0 .344-.316.925.925 0 0 0 .122-.483.871.871 0 0 0-.122-.468.756.756 0 0 0-.337-.305 1.11 1.11 0 0 0-.494-.105Zm2.01 0h-.522v2.69h.571v-1.643l1.053 1.643h.522v-2.69h-.57v1.64l-1.054-1.64Zm-2.32 1.279v-.776h.28c.13 0 .227.035.294.098.07.063.107.154.107.28 0 .132-.039.229-.11.297a.433.433 0 0 1-.306.1h-.266Z"/>
  </g>
  <defs>
    <clipPath id="a">
      <rect width="20" height="20" fill="#fff"/>
    </clipPath>
  </defs>
</svg>
