<svg xmlns="http://www.w3.org/2000/svg" viewBox="0 0 24 24">
  <g clip-path="url(#a)">
    <path fill-rule="evenodd" d="M6.38 9.776c.308.21.698.315 1.169.315.34 0 .644-.063.91-.189s.471-.301.616-.525c.15-.229.224-.492.224-.791 0-.303-.08-.555-.238-.756a1.175 1.175 0 0 0-.56-.406v-.007a.97.97 0 0 0 .511-.385c.126-.182.189-.41.189-.686 0-.266-.07-.497-.21-.693a1.312 1.312 0 0 0-.581-.448 2.128 2.128 0 0 0-.854-.161c-.443 0-.81.105-1.099.315-.285.21-.474.469-.567.777l.875.252c.14-.36.401-.54.784-.54.196 0 .362.057.497.169.14.112.21.264.21.455 0 .453-.266.679-.798.679h-.539v.735h.553c.252 0 .462.06.63.182a.583.583 0 0 1 .252.51.64.64 0 0 1-.231.526.877.877 0 0 1-.56.182c-.238 0-.443-.054-.616-.161a.952.952 0 0 1-.364-.448l-.833.259c.112.345.322.625.63.84Zm3.998-.294c.326.406.779.609 1.358.609.364 0 .679-.077.945-.231.27-.154.476-.357.616-.609.14-.257.21-.534.21-.833 0-.331-.073-.62-.217-.868a1.498 1.498 0 0 0-.588-.581 1.597 1.597 0 0 0-.791-.203c-.229 0-.444.051-.644.154a1.346 1.346 0 0 0-.483.399c.023-.443.126-.798.308-1.064.186-.27.431-.406.735-.406.172 0 .315.037.427.112a1 1 0 0 1 .308.336l.777-.224a1.354 1.354 0 0 0-.511-.742c-.257-.191-.584-.287-.98-.287-.374 0-.707.103-1.001.308-.294.2-.528.506-.7.917-.168.406-.252.905-.252 1.498 0 .733.16 1.304.483 1.715Zm1.967-.427a.805.805 0 0 1-.595.23.797.797 0 0 1-.588-.23c-.154-.159-.231-.369-.231-.63 0-.252.077-.457.23-.616a.773.773 0 0 1 .589-.245c.238 0 .434.082.588.245a.833.833 0 0 1 .238.616c0 .261-.077.471-.231.63Zm3.56-4.011c.583 0 1.031.217 1.344.65.312.435.469 1.058.469 1.87 0 .817-.157 1.442-.47 1.876-.312.434-.76.65-1.343.65-.579 0-1.025-.216-1.337-.65-.308-.434-.462-1.06-.462-1.876 0-.812.154-1.435.462-1.87.312-.433.758-.65 1.337-.65Zm0 .798c-.28 0-.495.15-.644.448-.15.294-.224.719-.224 1.274s.074.982.224 1.281c.149.299.364.448.644.448.289 0 .508-.15.658-.448.149-.299.224-.726.224-1.281 0-.555-.075-.98-.224-1.274-.15-.299-.369-.448-.658-.448Zm2.904.924a.96.96 0 0 0 .469.119.92.92 0 0 0 .462-.12.893.893 0 0 0 .336-.335.881.881 0 0 0 .126-.462.869.869 0 0 0-.126-.455.947.947 0 0 0-.336-.343.881.881 0 0 0-.462-.126.881.881 0 0 0-.462.126.947.947 0 0 0-.336.343.921.921 0 0 0-.007.917c.084.14.196.252.336.336Zm.812-.455a.466.466 0 0 1-.343.14.482.482 0 1 1 0-.966c.135 0 .25.047.343.14.093.093.14.208.14.343 0 .13-.047.245-.14.343ZM2 12c0-1.668 1.054-3.038 2.5-4.012v2.675c-.342.454-.5.911-.5 1.336 0 .736.463 1.56 1.563 2.317.712.49 1.638.907 2.721 1.204l-.804-1.765a1 1 0 0 1 1.82-.83l1.659 3.64a1 1 0 0 1-.496 1.325l-3.64 1.659a1 1 0 0 1-.829-1.82l1.072-.489c-.991-.33-1.884-.76-2.635-1.276C3.033 15.005 2 13.645 2 12Zm18 0c0-.426-.158-.883-.5-1.337V7.989C20.946 8.963 22 10.333 22 12c0 1.503-.866 2.773-2.078 3.708-1.216.939-2.87 1.624-4.73 1.989a1 1 0 0 1-.385-1.963c1.637-.321 2.982-.905 3.893-1.609.914-.706 1.3-1.45 1.3-2.125Z"/>
  </g>
  <defs>
    <clipPath id="a">
      <rect width="24" height="24" fill="#fff"/>
    </clipPath>
  </defs>
</svg>
