<svg xmlns="http://www.w3.org/2000/svg" viewBox="0 0 48 48">
  <path fill-rule="evenodd" d="M8.5 6A1.5 1.5 0 0 1 10 4.5h18a1.5 1.5 0 0 1 1.06.44l10 10A1.5 1.5 0 0 1 39.5 16v26a1.5 1.5 0 0 1-1.5 1.5H10A1.5 1.5 0 0 1 8.5 42V6Zm3 1.5v33h25v-23H28a1.5 1.5 0 0 1-1.5-1.5V7.5h-15Zm18 2.121 4.879 4.879H29.5V9.621Zm-11.274 20.04c-.55 0-1.046.13-1.483.391-.432.257-.772.639-1.02 1.14-.248.503-.37 1.11-.37 1.817 0 .707.122 1.314.37 1.817.248.502.592.884 1.03 1.14.443.256.944.383 1.5.383.604 0 1.115-.145 1.525-.442.411-.299.69-.667.829-1.103l.03-.097-1.252-.379-.036.08c-.102.226-.238.4-.408.527-.165.116-.385.18-.67.18-.47 0-.837-.172-1.11-.512-.268-.34-.41-.866-.41-1.594 0-.728.139-1.254.402-1.595.267-.346.63-.519 1.1-.519.285 0 .501.066.659.187l.003.002c.169.12.306.29.407.517l.036.08 1.251-.378-.029-.096c-.133-.438-.409-.803-.82-1.096-.416-.303-.93-.45-1.535-.45Zm5.55 0c-.409 0-.78.073-1.112.224a1.835 1.835 0 0 0-.799.647 1.737 1.737 0 0 0-.287 1.001c0 .4.097.74.299 1.014.194.262.424.468.69.613.263.141.6.29 1.01.447.413.155.707.296.888.42l.003.002c.173.11.251.25.251.43 0 .203-.076.36-.23.478-.153.116-.353.177-.606.177-.279 0-.519-.06-.723-.175a1.127 1.127 0 0 1-.446-.513l-.036-.08-1.255.39.035.098c.17.476.467.852.888 1.122.427.264.94.393 1.537.393.444 0 .84-.077 1.186-.234a1.91 1.91 0 0 0 .806-.684c.198-.3.295-.646.295-1.036 0-.377-.094-.696-.29-.951a2.017 2.017 0 0 0-.68-.586 7.235 7.235 0 0 0-.985-.438 9.966 9.966 0 0 1-.675-.275 1.561 1.561 0 0 1-.385-.276.512.512 0 0 1-.135-.354.54.54 0 0 1 .206-.444c.146-.115.336-.176.576-.176.222 0 .411.058.573.171l.003.002c.167.108.29.26.366.456l.033.085 1.313-.378-.033-.099a2.02 2.02 0 0 0-.813-1.086c-.387-.26-.88-.386-1.469-.386Zm4.47.116h-1.491l2.21 6.455h1.511l2.21-6.455h-1.418l-1.52 4.747-1.502-4.747Z"/>
</svg>
