<svg id="Media_Picker_32px" xmlns="http://www.w3.org/2000/svg" viewBox="0 0 32 32"><g clip-path="url(#a)"><path fill-rule="evenodd" d="M28.04 3.96a3.828 3.828 0 00-5.413 0L14 12.584l-1.293-1.293a1 1 0 00-1.414 1.415L12.586 14l-7.96 7.96.707.707-.707-.707a3.828 3.828 0 00-.878 4.052l-.67 1.602a1 1 0 001.308 1.309l1.601-.671a3.829 3.829 0 004.053-.878l7.96-7.96 1.293 1.292a1 1 0 001.414-1.414L19.414 18l8.627-8.627a3.828 3.828 0 000-5.414zM14 15.413l-7.96 7.96a1.83 1.83 0 00-.32 2.154 1 1 0 01.102.65 1 1 0 01.65.102 1.83 1.83 0 002.154-.32l.624.623-.624-.623.98-.98-.96-.96a.5.5 0 11.707-.707l.96.96 1.293-1.293-.96-.96a.5.5 0 01.707-.707l.96.96 1.293-1.293-.96-.96a.5.5 0 01.707-.707l.96.96L16.586 18l-1.293-1.294L14 15.414z"/></g><defs><clipPath id="a"><path d="M0 0h32v32H0z"/></clipPath></defs></svg>