<svg xmlns="http://www.w3.org/2000/svg" viewBox="0 0 48 48">
  <path fill-rule="evenodd" d="M35.5 6a1.5 1.5 0 0 0-3 0v8a1.5 1.5 0 0 0 1.5 1.5h8a1.5 1.5 0 0 0 0-3h-6.5V6ZM14 4.5A1.5 1.5 0 0 1 15.5 6v8a1.5 1.5 0 0 1-1.5 1.5H6a1.5 1.5 0 1 1 0-3h6.5V6A1.5 1.5 0 0 1 14 4.5ZM32.5 34a1.5 1.5 0 0 1 1.5-1.5h8a1.5 1.5 0 0 1 0 3h-6.5V42a1.5 1.5 0 0 1-3 0v-8Zm-28 0A1.5 1.5 0 0 1 6 32.5h8a1.5 1.5 0 0 1 1.5 1.5v8a1.5 1.5 0 0 1-3 0v-6.5H6A1.5 1.5 0 0 1 4.5 34ZM19 17.5a1.5 1.5 0 0 0-1.5 1.5v10a1.5 1.5 0 0 0 1.5 1.5h10a1.5 1.5 0 0 0 1.5-1.5V19a1.5 1.5 0 0 0-1.5-1.5H19Zm1.5 10v-7h7v7h-7Z"/>
</svg>
