<svg id="Media_Group_32px" xmlns="http://www.w3.org/2000/svg" viewBox="0 0 32 32"><path fill-rule="evenodd" d="M17.667 8.667a3.667 3.667 0 117.333 0 3.667 3.667 0 01-7.333 0zM21.333 3a5.667 5.667 0 100 11.333 5.667 5.667 0 000-11.333zm-3.552 12.772a1 1 0 00-1.155.188l-2.666 2.666a1 1 0 00-.293.707V28a1 1 0 001 1H28a1 1 0 001-1v-8.667a1 1 0 00-.293-.707L26.04 15.96a1 1 0 00-1.154-.188c-2.385 1.193-4.72 1.193-7.105 0zm-2.114 3.975l1.88-1.88c2.514 1.066 5.058 1.066 7.572 0L27 19.747V27H15.667v-7.253zM9.333 9.667a3 3 0 100 6 3 3 0 000-6zm-5 3a5 5 0 1110 0 5 5 0 01-10 0zm2.65 6.718a1 1 0 00-.975.196l-2.667 2.333a1 1 0 00-.341.753V28a1 1 0 001 1h6.667a1 1 0 100-2H5v-3.88l1.9-1.661c.754.232 1.366.372 1.945.413.738.053 1.357-.058 2.064-.235a1 1 0 10-.485-1.94c-.626.156-1.007.211-1.436.18-.453-.032-1.022-.165-2.005-.492z"/></svg>