<svg xmlns="http://www.w3.org/2000/svg" viewBox="0 0 64 64"><defs></defs><g id="Icon"><path  d="M57,15H49.14a2.51,2.51,0,0,1-2.08-1.11l-2.66-4A2,2,0,0,0,42.73,9H21.27a2,2,0,0,0-1.67.89l-2.66,4A2.51,2.51,0,0,1,14.86,15H7a2,2,0,0,0-2,2V57a2,2,0,0,0,2,2H57a2,2,0,0,0,2-2V17A2,2,0,0,0,57,15ZM56,56H8V18h6.86a5.52,5.52,0,0,0,4.58-2.45L21.8,12H42.2l2.36,3.55A5.52,5.52,0,0,0,49.14,18H56Z"/><path  d="M32,23.5A13.5,13.5,0,1,0,45.5,37,13.52,13.52,0,0,0,32,23.5Zm0,24A10.5,10.5,0,1,1,42.5,37,10.51,10.51,0,0,1,32,47.5Z"/><circle  cx="15.5" cy="23.5" r="2.5"/></g></svg>