<svg id="Media_Release_48px" xmlns="http://www.w3.org/2000/svg" viewBox="0 0 48 48"><path fill-rule="evenodd" d="M32.337 7.462c2.076-.48 4.409-.488 6.273-.36.825.056 1.541.137 2.078.21.073.537.154 1.253.21 2.078.128 1.864.12 4.197-.36 6.273-.548 2.374-1.952 4.759-3.861 7.04-1.901 2.271-4.236 4.362-6.53 6.15a68.904 68.904 0 01-7.565 5.1 24.7 24.7 0 00-2.74-3.674l7.219-7.218a1.5 1.5 0 00-2.122-2.122l-7.218 7.219a24.7 24.7 0 00-3.675-2.74 68.88 68.88 0 015.1-7.564c1.789-2.294 3.88-4.63 6.151-6.53 2.281-1.91 4.666-3.314 7.04-3.862zM15.655 30.335c-1.368-1.217-2.851-2.256-4.326-2.993a1.5 1.5 0 01-.656-2.042l1.11.586-1.11-.586.001-.002.002-.003.006-.012.023-.042a25.392 25.392 0 01.205-.375l-5.049-5.89a1.5 1.5 0 01-.064-1.872L7 18a283.353 283.353 0 01-1.202-.897L5.8 17.1l.005-.007.018-.024.064-.084.236-.3c.203-.254.495-.61.858-1.026.723-.827 1.747-1.914 2.928-2.914 1.166-.986 2.572-1.963 4.06-2.474 1.523-.523 3.284-.6 4.878.491.504.345 1 .823 1.383 1.225a38.44 38.44 0 013.142-2.964c2.478-2.074 5.284-3.79 8.29-4.484 2.49-.575 5.158-.567 7.153-.43a34.633 34.633 0 013.194.37l.198.034.055.01.016.003.005.001h.002L42 6l1.473-.285v.003l.001.005.003.015.01.055.035.198a34.621 34.621 0 01.37 3.194c.136 1.995.144 4.662-.43 7.152-.694 3.007-2.41 5.814-4.485 8.291-.92 1.1-1.924 2.15-2.964 3.142.402.383.88.88 1.225 1.383 1.09 1.594 1.014 3.355.491 4.877-.511 1.49-1.488 2.895-2.474 4.06-1 1.182-2.087 2.206-2.915 2.929a30.597 30.597 0 01-1.409 1.158l-.024.018-.007.005-.002.002h-.001L30 41l.896 1.203a1.5 1.5 0 01-1.872-.064l-5.89-5.049a42.114 42.114 0 01-.375.205l-.042.023-.012.006-.003.002H22.7l-.586-1.11.586 1.11a1.5 1.5 0 01-2.042-.655c-.737-1.474-1.776-2.958-2.993-4.326a1.5 1.5 0 01-2.01-2.01zM42 6l1.473-.285a1.5 1.5 0 00-1.187-1.187L42 6zM30.03 39.05l-4.166-3.57a71.685 71.685 0 006.127-4.26c.588-.46 1.183-.94 1.777-1.441.402.368.787.766.994 1.068.39.569.455 1.263.13 2.209-.336.979-1.044 2.052-1.928 3.097a25.137 25.137 0 01-2.597 2.607l-.337.29zM12.52 22.136a71.643 71.643 0 014.26-6.127c.46-.588.94-1.183 1.442-1.777-.37-.402-.767-.787-1.069-.994-.569-.39-1.263-.455-2.209-.13-.979.336-2.052 1.044-3.097 1.928a25.237 25.237 0 00-2.607 2.597l-.29.337 3.57 4.166zM9.637 40.045c-.703.176-1.418.285-2.033.352.067-.615.176-1.33.352-2.033.23-.916.543-1.695.932-2.214.358-.477.702-.65 1.113-.65a2.5 2.5 0 012.5 2.5c0 .41-.173.755-.65 1.112-.52.39-1.298.704-2.214.933zM6 43.5V42v1.5h.035a10.377 10.377 0 00.362-.009c.239-.008.575-.025.978-.059.797-.066 1.883-.2 2.989-.477 1.084-.27 2.305-.707 3.286-1.442 1.023-.768 1.85-1.924 1.85-3.513a5.5 5.5 0 00-5.5-5.5c-1.59 0-2.745.827-3.513 1.85-.735.98-1.171 2.202-1.442 3.286a19.139 19.139 0 00-.477 2.99 20.798 20.798 0 00-.068 1.339v.034L6 42H4.5A1.5 1.5 0 006 43.5zM33 13a2 2 0 100 4 2 2 0 000-4zm-4 2a4 4 0 118 0 4 4 0 01-8 0z"/></svg>