<svg xmlns="http://www.w3.org/2000/svg" viewBox="0 0 20 20">
  <g clip-path="url(#a)">
    <path fill-rule="evenodd" d="M13.502 3.23c.848-.195 1.806-.199 2.577-.146.294.02.555.048.763.074.026.208.054.469.074.763.053.771.049 1.73-.147 2.577-.222.963-.794 1.939-1.583 2.881-.784.938-1.75 1.803-2.702 2.545a28.6 28.6 0 0 1-3.032 2.054c-.29-.467-.633-.924-1.013-1.357l2.925-2.924a.75.75 0 1 0-1.061-1.06L7.379 11.56a10.44 10.44 0 0 0-1.357-1.013 28.587 28.587 0 0 1 2.054-3.032c.742-.952 1.607-1.918 2.545-2.702.942-.789 1.918-1.36 2.881-1.583Zm-7.129 9.444a8.283 8.283 0 0 0-1.708-1.17.75.75 0 0 1-.328-1.02l.273.143-.273-.144v-.002l.004-.005.01-.018.035-.066.008-.015-2.047-2.389a.75.75 0 0 1-.032-.936l.602.448c-.602-.448-.602-.448-.601-.449V7.05l.003-.003.008-.01L2.354 7a12.819 12.819 0 0 1 1.694-1.786c.49-.415 1.09-.833 1.732-1.054.658-.226 1.437-.264 2.144.22.18.124.357.285.505.434.39-.403.8-.792 1.229-1.151 1.04-.871 2.228-1.6 3.507-1.895 1.055-.243 2.18-.239 3.016-.182a14.562 14.562 0 0 1 1.428.17l.023.005.007.001h.003L17.5 2.5l.736-.142.001.003.001.007.005.023a8.09 8.09 0 0 1 .061.387c.037.257.08.617.109 1.04.057.837.061 1.963-.182 3.017-.295 1.28-1.024 2.466-1.895 3.507-.359.429-.747.84-1.15 1.23.148.147.31.324.433.505.483.706.446 1.485.22 2.143-.22.641-.64 1.241-1.054 1.732a12.902 12.902 0 0 1-1.786 1.694l-.036.027-.01.008-.003.002-.001.001-.449-.6.448.6a.75.75 0 0 1-.936-.031l-2.388-2.047-.016.008-.066.036-.018.01-.005.002-.002.001-.144-.272.144.272a.75.75 0 0 1-1.021-.328 8.285 8.285 0 0 0-1.17-1.708.75.75 0 0 1-.953-.953ZM17.5 2.5l.736-.143a.75.75 0 0 0-.593-.593L17.5 2.5Zm-4.988 13.606L10.987 14.8a29.866 29.866 0 0 0 2.42-1.692c.217-.17.438-.348.659-.532.133.128.25.254.315.349.133.194.166.439.04.809-.134.386-.417.82-.781 1.25-.357.422-.756.798-1.07 1.073l-.058.05Zm-7.31-7.093a29.85 29.85 0 0 1 1.691-2.42c.17-.217.348-.438.532-.659a2.525 2.525 0 0 0-.349-.315c-.194-.133-.439-.166-.809-.04-.386.134-.82.417-1.25.781-.422.357-.798.756-1.073 1.07l-.05.058L5.2 9.013Zm-1.766 7.002a6.027 6.027 0 0 0-.125.674 6.04 6.04 0 0 0 .674-.125c.374-.094.68-.22.877-.367.177-.132.221-.242.221-.364a.917.917 0 0 0-.916-.916c-.122 0-.232.044-.364.22-.148.198-.273.504-.367.878ZM2.5 18.25v-.75.75h.05l.12-.004a8.85 8.85 0 0 0 .413-.025 8.112 8.112 0 0 0 1.266-.202c.458-.114.986-.301 1.414-.622.448-.337.82-.852.82-1.564a2.417 2.417 0 0 0-2.416-2.416c-.712 0-1.227.372-1.564.82-.32.428-.508.956-.622 1.414a8.812 8.812 0 0 0-.23 1.799v.034l-.001.01v.005l.75.001h-.75a.75.75 0 0 0 .75.75ZM13.75 5.5a.75.75 0 1 0 0 1.5.75.75 0 0 0 0-1.5ZM12 6.25a1.75 1.75 0 1 1 3.5 0 1.75 1.75 0 0 1-3.5 0Z"/>
  </g>
  <defs>
    <clipPath id="a">
      <rect width="20" height="20" fill="#fff"/>
    </clipPath>
  </defs>
</svg>
