<svg xmlns="http://www.w3.org/2000/svg" viewBox="0 0 16 16"><defs></defs><g id="Icon"><path  d="M5.5,14H3.25A1.25,1.25,0,0,1,2,12.75V10.5a1,1,0,0,1,2,0V12H5.5a1,1,0,0,1,0,2Z"/><path  d="M3,6.5a1,1,0,0,1-1-1V3.25A1.25,1.25,0,0,1,3.25,2H5.5a1,1,0,0,1,0,2H4V5.5A1,1,0,0,1,3,6.5Z"/><path  d="M13,6.5a1,1,0,0,1-1-1V4H10.5a1,1,0,0,1,0-2h2.25A1.25,1.25,0,0,1,14,3.25V5.5A1,1,0,0,1,13,6.5ZM12.75,4h0Z"/><path  d="M12.75,14H10.5a1,1,0,0,1,0-2H12V10.5a1,1,0,0,1,2,0v2.25A1.25,1.25,0,0,1,12.75,14Z"/><path  d="M9.75,11H6.25A1.25,1.25,0,0,1,5,9.75V6.25A1.25,1.25,0,0,1,6.25,5h3.5A1.25,1.25,0,0,1,11,6.25v3.5A1.25,1.25,0,0,1,9.75,11ZM7,9H9V7H7Z"/></g></svg>