<svg xmlns="http://www.w3.org/2000/svg" viewBox="0 0 24 24">
  <g clip-path="url(#a)">
    <path fill-rule="evenodd" d="M2 3.5A1.5 1.5 0 0 1 3.5 2h17a1.5 1.5 0 0 1 .5 2.915V15a1 1 0 0 1-1 1h-7v1.882l4.447 2.224a1 1 0 1 1-.894 1.788L13 20.118v.382a1 1 0 1 1-2 0v-.382l-3.553 1.776a1 1 0 1 1-.894-1.788L11 17.882V16H4a1 1 0 0 1-1-1V4.915A1.5 1.5 0 0 1 2 3.5ZM12 14h7V5H5v9h7ZM3.5 3a.5.5 0 0 0 0 1h17a.5.5 0 0 0 0-1h-17Zm7.777 4.084a.5.5 0 0 0-.777.416v4a.5.5 0 0 0 .777.416l3-2a.5.5 0 0 0 0-.832l-3-2ZM13.1 9.5l-1.6 1.066V8.434L13.099 9.5Z"/>
  </g>
  <defs>
    <clipPath id="a">
      <rect width="24" height="24" fill="#fff"/>
    </clipPath>
  </defs>
</svg>
