<svg xmlns="http://www.w3.org/2000/svg" viewBox="0 0 48 48"><defs></defs><g id="Icon"><path  d="M11,13V35a2,2,0,0,0,2,2H35a2,2,0,0,0,2-2V13a2,2,0,0,0-2-2H13A2,2,0,0,0,11,13Zm3,1H34V34H14Z"/><path  d="M5.5,16A1.5,1.5,0,0,0,7,14.52V7h7.51a1.5,1.5,0,1,0,0-3H6A2,2,0,0,0,4,6v8.51A1.5,1.5,0,0,0,5.5,16Z"/><path  d="M33.49,4a1.5,1.5,0,0,0,0,3H41v7.51a1.5,1.5,0,0,0,3,0V6a2,2,0,0,0-2-2Z"/><path  d="M14.51,41H7V33.48a1.5,1.5,0,0,0-3,0V42a2,2,0,0,0,2,2h8.51a1.5,1.5,0,1,0,0-3Z"/><path  d="M42.5,32a1.5,1.5,0,0,0-1.5,1.5V41H33.49a1.5,1.5,0,0,0,0,3H42a2,2,0,0,0,2-2V33.49A1.5,1.5,0,0,0,42.5,32Z"/></g></svg>