<svg xmlns="http://www.w3.org/2000/svg" viewBox="0 0 64 64"><defs></defs><g id="Icon"><path  d="M57,13H46V7a2,2,0,0,0-.68-1.51,2,2,0,0,0-1.59-.48c-3.71.5-10,4.51-12.34,9.67A6.5,6.5,0,0,0,27,13H7a2,2,0,0,0-2,2V49a2,2,0,0,0,2,2H27a3.5,3.5,0,0,1,3.5,3.5,1.5,1.5,0,0,0,3,0A3.5,3.5,0,0,1,37,51H57a2,2,0,0,0,2-2V15A2,2,0,0,0,57,13ZM43,8.31V40.13a17.19,17.19,0,0,0-9.5,5.22V18.53h0C33.59,13.83,39.51,9.48,43,8.31ZM27,48H8V16H27a3.5,3.5,0,0,1,3.5,3.5v2h0V49A6.44,6.44,0,0,0,27,48Zm29,0H37a6.43,6.43,0,0,0-2,.33A13.25,13.25,0,0,1,44.12,43,2,2,0,0,0,46,41V16H56Z"/><path  d="M24,30.5H14a1.5,1.5,0,0,0,0,3H24a1.5,1.5,0,0,0,0-3Z"/><path  d="M24,38.5H14a1.5,1.5,0,0,0,0,3H24a1.5,1.5,0,0,0,0-3Z"/><path  d="M24,22.5H14a1.5,1.5,0,0,0,0,3H24a1.5,1.5,0,0,0,0-3Z"/></g></svg>