<svg xmlns="http://www.w3.org/2000/svg" viewBox="0 0 48 48">
  <path fill-rule="evenodd" d="M30 4.5a1.5 1.5 0 0 1 1.06.44c.876.875 2.753 2.296 4.918 3.499 2.204 1.224 4.423 2.06 6.022 2.06a1.5 1.5 0 0 1 1.5 1.5c0 8.413-3.166 14.25-6.361 17.977a25.46 25.46 0 0 1-4.386 4.052c-.602.435-1.108.756-1.47.972a12.969 12.969 0 0 1-.555.312l-.037.02-.012.005-.005.003h-.002c0 .001-.001.001-.672-1.34-.67 1.341-.672 1.341-.672 1.34h-.002l-.005-.003-.012-.006-.037-.019a12.969 12.969 0 0 1-.555-.313 20.027 20.027 0 0 1-1.47-.97 25.463 25.463 0 0 1-4.386-4.053C19.666 26.248 16.5 20.412 16.5 12a1.5 1.5 0 0 1 1.5-1.5c1.6 0 3.817-.837 6.022-2.061 2.165-1.203 4.042-2.624 4.917-3.5A1.5 1.5 0 0 1 30 4.5ZM30 34l.67 1.341a1.5 1.5 0 0 1-1.34 0L30 34Zm0-1.732c.269-.168.607-.39.997-.672a22.46 22.46 0 0 0 3.864-3.572c2.634-3.073 5.294-7.814 5.608-14.664-2-.346-4.126-1.287-5.947-2.299-1.73-.961-3.345-2.077-4.522-3.048-1.177.97-2.791 2.087-4.521 3.048-1.822 1.012-3.948 1.953-5.948 2.299.314 6.85 2.974 11.591 5.608 14.664a22.464 22.464 0 0 0 3.864 3.572c.39.282.728.504.997.672ZM4.5 6A1.5 1.5 0 0 1 6 4.5h8a1.5 1.5 0 0 1 0 3H7.5v33h25V39a1.5 1.5 0 0 1 3 0v3a1.5 1.5 0 0 1-1.5 1.5H6A1.5 1.5 0 0 1 4.5 42V6Zm8 28a1.5 1.5 0 0 1 1.5-1.5h6a1.5 1.5 0 0 1 0 3h-6a1.5 1.5 0 0 1-1.5-1.5Zm1.5-9.5a1.5 1.5 0 0 0 0 3h1a1.5 1.5 0 0 0 0-3h-1Zm22.06-6.44a1.5 1.5 0 0 0-2.12-2.12L29 20.878l-1.94-1.94a1.5 1.5 0 0 0-2.12 2.122l3 3a1.5 1.5 0 0 0 2.12 0l6-6Z"/>
</svg>
