<svg xmlns="http://www.w3.org/2000/svg" viewBox="0 0 64 64"><defs></defs><g id="Icon"><path  d="M5,13V57.5A1.5,1.5,0,0,0,6.5,59H51a8,8,0,0,0,8-8V13a8,8,0,0,0-15.85-1.5H6.5A1.5,1.5,0,0,0,5,13ZM56,44.76A8.23,8.23,0,0,0,54.85,44l-.2-.1-.45-.22-.26-.1-.43-.16-.27-.09-.45-.11-.28-.06-.5-.08-.25,0A6.34,6.34,0,0,0,51,43a8,8,0,0,0-5,1.76V13a5,5,0,0,1,10,0ZM8,14.5H43V51a1.5,1.5,0,0,0,3,0,5,5,0,1,1,5,5H8Z"/><path  d="M34.5,33a1,1,0,0,1-1-1v-.55l-8-7.11-8,7.11V45a1,1,0,0,1,0,2h-1a1,1,0,0,1-1-1V31a1,1,0,0,1,.34-.75l9-8a1,1,0,0,1,1.32,0l9,8,0,0a1.15,1.15,0,0,1,.14.17,1.1,1.1,0,0,1,.09.14,3,3,0,0,1,.08.38s0,0,0,0v1A1,1,0,0,1,34.5,33Z"/><path  d="M34.5,42.75a1,1,0,0,1-1-1V40.13a1,1,0,1,1,2,0v1.62A1,1,0,0,1,34.5,42.75Z"/><path  d="M34.5,37.88a1,1,0,0,1-1-1V35.25a1,1,0,0,1,2,0v1.63A1,1,0,0,1,34.5,37.88Z"/><path  d="M34.5,47h-1a1,1,0,0,1,0-2,1,1,0,0,1,2,0v1A1,1,0,0,1,34.5,47Z"/><path  d="M21.5,45h2a1,1,0,0,1,0,2h-2a1,1,0,0,1,0-2Z"/><path  d="M27.5,45h2a1,1,0,0,1,0,2h-2a1,1,0,0,1,0-2Z"/></g></svg>