<svg id="Media_Sound_64px" xmlns="http://www.w3.org/2000/svg" viewBox="0 0 64 64"><path d="M42 9.26a2 2 0 00-2 0L19.81 20.72a1.54 1.54 0 00-.34.28H7a2 2 0 00-2 2v18a2 2 0 002 2h12.32L40 54.76a2.05 2.05 0 001 .24 2 2 0 002-2V11a2 2 0 00-1-1.74zM8 24h10v16H8zm32 27.3L21 40.5v-17a1.08 1.08 0 00.29-.13L40 12.7zM53.62 17.51a1.49 1.49 0 10-2.24 2A20.61 20.61 0 0156 32a20.61 20.61 0 01-4.62 12.51 1.49 1.49 0 00.13 2.11 1.48 1.48 0 002.11-.13A23.39 23.39 0 0059 32a23.39 23.39 0 00-5.38-14.49z"/><path d="M48.06 23.94a1.5 1.5 0 00-2.12 2.12 8.17 8.17 0 010 11.88A1.5 1.5 0 0047 40.5a1.53 1.53 0 001.06-.44 11.16 11.16 0 000-16.12z"/></svg>