<svg id="Media_Picker_48px" xmlns="http://www.w3.org/2000/svg" viewBox="0 0 48 48"><path fill-rule="evenodd" d="M42.061 5.939a5.743 5.743 0 00-8.121 0L21 18.879l-1.94-1.94a1.5 1.5 0 10-2.12 2.12L18.878 21 6.939 32.94 8 34l-1.06-1.06a5.743 5.743 0 00-1.317 6.078l-1.006 2.403a1.5 1.5 0 001.963 1.963l2.402-1.007a5.742 5.742 0 006.08-1.316L27 29.12l1.938 1.939a1.5 1.5 0 102.121-2.122L29.122 27l12.94-12.94a5.743 5.743 0 000-8.121zM21.001 23.12L9.06 35.06a2.744 2.744 0 00-.482 3.231 1.5 1.5 0 01.154.975 1.5 1.5 0 01.974.153 2.745 2.745 0 003.232-.48l1.293-1.293-1.44-1.44a1 1 0 011.415-1.414l1.439 1.44 1.586-1.586-1.44-1.44a1 1 0 011.414-1.414l1.44 1.44 1.586-1.586-1.44-1.44a1 1 0 011.414-1.414l1.44 1.44L24.879 27l-1.94-1.94L21 23.12z"/></svg>