<svg id="Media_Read_64px" xmlns="http://www.w3.org/2000/svg" viewBox="0 0 64 64"><path d="M57 13H46V7a2 2 0 00-.68-1.51 2 2 0 00-1.59-.48c-3.71.5-10 4.51-12.34 9.67A6.5 6.5 0 0027 13H7a2 2 0 00-2 2v34a2 2 0 002 2h20a3.5 3.5 0 013.5 3.5 1.5 1.5 0 003 0A3.5 3.5 0 0137 51h20a2 2 0 002-2V15a2 2 0 00-2-2zM43 8.31v31.82a17.19 17.19 0 00-9.5 5.22V18.53c.09-4.7 6.01-9.05 9.5-10.22zM27 48H8V16h19a3.5 3.5 0 013.5 3.5V49a6.44 6.44 0 00-3.5-1zm29 0H37a6.43 6.43 0 00-2 .33A13.25 13.25 0 0144.12 43 2 2 0 0046 41V16h10z"/><path d="M24 30.5H14a1.5 1.5 0 000 3h10a1.5 1.5 0 000-3zM24 38.5H14a1.5 1.5 0 000 3h10a1.5 1.5 0 000-3zM24 22.5H14a1.5 1.5 0 000 3h10a1.5 1.5 0 000-3z"/></svg>