<svg xmlns="http://www.w3.org/2000/svg" viewBox="0 0 24 24"><defs></defs><g id="Icon"><path  d="M19,2a3,3,0,0,0-3,3H3A1,1,0,0,0,2,6V21a1,1,0,0,0,1,1H18.5A3.5,3.5,0,0,0,22,18.5V5A3,3,0,0,0,19,2ZM18,5a1,1,0,0,1,2,0V15.34A3.44,3.44,0,0,0,18.5,15a2.81,2.81,0,0,0-.5,0Zm.5,15H4V7H16v9.51a1,1,0,0,0,1.6.8,1.52,1.52,0,0,1,.9-.31,1.5,1.5,0,0,1,0,3Z"/><path  d="M13.35,13.15a.36.36,0,0,0-.16-.11.5.5,0,0,0-.38,0,.53.53,0,0,0-.27.27.47.47,0,0,0,0,.38.36.36,0,0,0,.11.16A.47.47,0,0,0,13,14a.41.41,0,0,0,.19,0,.53.53,0,0,0,.27-.27.41.41,0,0,0,0-.19.58.58,0,0,0,0-.19A.36.36,0,0,0,13.35,13.15Z"/><path  d="M13.19,14.79a.5.5,0,0,0-.38,0,.53.53,0,0,0-.27.27.43.43,0,0,0,0,.19.47.47,0,0,0,.15.35.36.36,0,0,0,.16.11.41.41,0,0,0,.19,0,.5.5,0,0,0,.35-.85A.36.36,0,0,0,13.19,14.79Z"/><path  d="M9.85,16.65a.36.36,0,0,0-.16-.11.5.5,0,0,0-.38,0,.36.36,0,0,0-.16.11.48.48,0,0,0,0,.7.36.36,0,0,0,.16.11.47.47,0,0,0,.38,0,.42.42,0,0,0,.16-.11A.45.45,0,0,0,10,17a.43.43,0,0,0,0-.19A.36.36,0,0,0,9.85,16.65Z"/><path  d="M11.6,16.65a.36.36,0,0,0-.16-.11.5.5,0,0,0-.38,0,.53.53,0,0,0-.27.27.43.43,0,0,0,0,.19.47.47,0,0,0,.15.35.36.36,0,0,0,.16.11.41.41,0,0,0,.19,0,.43.43,0,0,0,.19,0,.36.36,0,0,0,.16-.11.47.47,0,0,0,.15-.35.43.43,0,0,0,0-.19A.36.36,0,0,0,11.6,16.65Z"/><path  d="M13.19,16.54a.5.5,0,0,0-.38,0,.36.36,0,0,0-.16.11.47.47,0,0,0-.15.35.45.45,0,0,0,.15.35.47.47,0,0,0,.35.15.43.43,0,0,0,.19,0,.36.36,0,0,0,.16-.11.48.48,0,0,0,0-.7A.36.36,0,0,0,13.19,16.54Z"/><path  d="M13.42,12.28a.51.51,0,0,0-.14-.7l-3-2a.52.52,0,0,0-.56,0l-3,2A.51.51,0,0,0,6.5,12v5a.5.5,0,0,0,.5.5H8a.5.5,0,0,0,0-1H7.5V12.27L10,10.6l2.72,1.82A.51.51,0,0,0,13.42,12.28Z"/></g></svg>