<svg xmlns="http://www.w3.org/2000/svg" viewBox="0 0 48 48"><defs></defs><g id="Icon"><path  d="M31.26,7.21a1.51,1.51,0,0,0-1.5,0L14.11,16H5.5A1.5,1.5,0,0,0,4,17.5v13A1.5,1.5,0,0,0,5.5,32h8.61l15.65,8.81a1.51,1.51,0,0,0,1.5,0A1.48,1.48,0,0,0,32,39.5V8.5A1.48,1.48,0,0,0,31.26,7.21ZM7,19h6V29H7ZM29,36.94,16,29.62V18.38l13-7.32Z"/><path  d="M39.89,13.51a1.5,1.5,0,0,0-2.21,2,12.47,12.47,0,0,1,0,16.92,1.5,1.5,0,0,0,2.21,2,15.47,15.47,0,0,0,0-21Z"/><path  d="M36.1,17.91a1.5,1.5,0,1,0-2.2,2,6,6,0,0,1,0,8.12A1.5,1.5,0,0,0,34,30.18a1.53,1.53,0,0,0,1,.39,1.49,1.49,0,0,0,1.1-.48,9,9,0,0,0,0-12.18Z"/></g></svg>