<svg id="Media_Slideshow_64px" xmlns="http://www.w3.org/2000/svg" viewBox="0 0 64 64"><path d="M59 9.75A4.75 4.75 0 0054.25 5H9.75A4.74 4.74 0 009 14.42V42.5a2 2 0 002 2h19.5v2.63L14.75 56.2a1.5 1.5 0 00.75 2.8 1.48 1.48 0 00.75-.2l14.25-8.21V55a1.5 1.5 0 003 0v-4.41l14.25 8.21a1.48 1.48 0 00.75.2 1.5 1.5 0 00.75-2.8L33.5 47.13V44.5H53a2 2 0 002-2V14.42a4.74 4.74 0 004-4.67zM52 41.5H12v-27h40zm2.25-30H9.75a1.75 1.75 0 010-3.5h44.5a1.75 1.75 0 010 3.5z"/><path d="M26.77 35.31a1.38 1.38 0 00.71.19 1.48 1.48 0 00.76-.21l11-6.75a1.52 1.52 0 000-2.58l-11-6.75a1.46 1.46 0 00-1.47 0 1.49 1.49 0 00-.77 1.3V34a1.49 1.49 0 00.77 1.31zM28 21.41l9.56 5.84L28 33.09z"/></svg>