<svg id="Media_Picker_24px" xmlns="http://www.w3.org/2000/svg" viewBox="0 0 24 24"><g clip-path="url(#a)"><path fill-rule="evenodd" d="M21.207 2.793a3.121 3.121 0 00-4.414 0L10.5 9.086l-.793-.794a1 1 0 10-1.414 1.415l.793.793-5.793 5.793L4 17l-.707-.707a3.12 3.12 0 00-.75 3.209l-.466 1.112a1 1 0 001.31 1.308l1.11-.465a3.12 3.12 0 003.21-.75l5.793-5.793.793.793a1 1 0 001.414-1.415l-.793-.792 6.293-6.293a3.121 3.121 0 000-4.414zM10.5 11.914l-5.793 5.793a1.122 1.122 0 00-.197 1.321 1 1 0 01.11.35c.122.016.241.053.351.112.425.227.965.16 1.322-.197l.696.696-.696-.696.646-.646-.543-.543a.5.5 0 11.707-.707l.543.543.793-.793-.543-.543a.5.5 0 11.707-.707l.543.542.793-.792-.543-.543a.5.5 0 11.707-.707l.543.543 1.44-1.44-.793-.793-.793-.793z"/></g><defs><clipPath id="a"><path d="M0 0h24v24H0z"/></clipPath></defs></svg>