<svg id="Media_Gauge_64px" xmlns="http://www.w3.org/2000/svg" viewBox="0 0 64 64"><path fill-rule="evenodd" d="M39.9 9.691A23.666 23.666 0 008.334 32.124a1.5 1.5 0 11-3 .016A26.667 26.667 0 0140.9 6.863a1.5 1.5 0 11-1 2.828zM9.455 43.284a1.5 1.5 0 012.049.55c.248.429.51.85.784 1.263a1.5 1.5 0 01-2.5 1.66c-.308-.465-.603-.94-.882-1.423a1.5 1.5 0 01.549-2.05zm10.712 9.212a1.5 1.5 0 00-1.5 2.598c.483.28.976.544 1.476.792a1.5 1.5 0 101.334-2.687 23.2 23.2 0 01-1.31-.703zm14.91 4.527a1.5 1.5 0 01-1.403 1.591c-.557.035-1.115.053-1.674.053a1.5 1.5 0 110-3c.496 0 .991-.016 1.486-.047a1.5 1.5 0 011.591 1.403zm11.68-2.812a1.5 1.5 0 00-1.66-2.498 23.65 23.65 0 01-1.264.783 1.5 1.5 0 101.5 2.598c.484-.28.959-.574 1.424-.883zm8.452-12.364a1.5 1.5 0 01.677 2.01c-.249.5-.513.993-.792 1.477a1.5 1.5 0 11-2.598-1.5c.248-.43.482-.867.702-1.31a1.5 1.5 0 012.011-.677zm1.881-18.88a1.5 1.5 0 10-2.823 1.016 23.666 23.666 0 011.4 8.017 1.5 1.5 0 003 0c0-3.08-.534-6.136-1.577-9.033zM32 37a5 5 0 100-10 5 5 0 000 10zm0 3a8 8 0 006.618-12.496l13.11-13.11a1.5 1.5 0 00-2.122-2.121l-13.11 13.11A8 8 0 1032 40z"/></svg>