<svg xmlns="http://www.w3.org/2000/svg" viewBox="0 0 32 32"><defs></defs><g id="Icon"><path  d="M27,7H23V5.1a2,2,0,0,0-.74-1.56,1.94,1.94,0,0,0-1.6-.41A7,7,0,0,0,15.4,7.7,4,4,0,0,0,13.15,7H5A2,2,0,0,0,3,9V23a2,2,0,0,0,2,2h8.15a2,2,0,0,1,1.78,1.11l.18.34a.81.81,0,0,0,.17.24l.06,0a.91.91,0,0,0,.23.15.2.2,0,0,0,.08,0,.91.91,0,0,0,.7,0,.2.2,0,0,0,.08,0,.91.91,0,0,0,.23-.15l.06,0a.81.81,0,0,0,.17-.24l.18-.34A2,2,0,0,1,18.85,25H27a2,2,0,0,0,2-2V9A2,2,0,0,0,27,7ZM15,23.47A4,4,0,0,0,13.15,23H5V9h8.15a2,2,0,0,1,1.78,1.11l.07.13Zm2-2.35V10a5,5,0,0,1,4-4.9V8h0V19.07A6.93,6.93,0,0,0,17,21.12ZM27,23H18.85a3.82,3.82,0,0,0-.9.11,5,5,0,0,1,3.34-2.06,2,2,0,0,0,1.71-2V9h4Z"/><path  d="M12.5,11.5h-5a.5.5,0,0,0,0,1h5a.5.5,0,0,0,0-1Z"/><path  d="M12.5,15.5h-5a.5.5,0,0,0,0,1h5a.5.5,0,0,0,0-1Z"/><path  d="M12.5,19.5h-5a.5.5,0,0,0,0,1h5a.5.5,0,0,0,0-1Z"/></g></svg>