<svg id="Media_Read_48px" xmlns="http://www.w3.org/2000/svg" viewBox="0 0 48 48"><path d="M42 10h-7V6a2 2 0 00-2-2h-1a9.52 9.52 0 00-9.16 7 6.12 6.12 0 00-3.34-1H6a2 2 0 00-2 2v24a2 2 0 002 2h13.5a3.65 3.65 0 013.1 2 2 2 0 00.13.25 1.51 1.51 0 002.55 0 1.75 1.75 0 00.13-.28 3.67 3.67 0 013.09-2H42a2 2 0 002-2V12a2 2 0 00-2-2zM32 7v22a9.46 9.46 0 00-6.5 2.58V13.5A6.51 6.51 0 0132 7zM19.5 35H7V13h12.5a3 3 0 01.85.12 3.19 3.19 0 012.15 3.09V35.8a6.1 6.1 0 00-3-.8zM41 35H28.5a6.07 6.07 0 00-2.23.44A6.49 6.49 0 0132 32h1a2 2 0 002-2V13h6z"/><path d="M18.5 23H11a1 1 0 000 2h7.5a1 1 0 000-2zM18.5 17H11a1 1 0 000 2h7.5a1 1 0 000-2zM18.5 29H11a1 1 0 000 2h7.5a1 1 0 000-2z"/></svg>