<svg id="Media_Image-alt_32px" xmlns="http://www.w3.org/2000/svg" viewBox="0 0 32 32"><path fill-rule="evenodd" d="M2.015 7.269a1 1 0 01.811-1.158L21.21 2.869a1 1 0 011.159.811l.884 5.015 5.613.491a1 1 0 01.909 1.083l-1.627 18.596a1 1 0 01-1.083.909L8.468 28.147a1 1 0 01-.91-1.083l.072-.815-1.215.214a1 1 0 01-1.158-.81L2.015 7.268zM25.61 22.063l-1.997-11.329 4.082.357-1.452 16.604-16.604-1.453.031-.353 15.13-2.667a1 1 0 00.81-1.159zM6.387 20.545l.666 3.775 16.413-2.894-.666-3.775-2.945.519a.36.36 0 01-.018.003l-11.796 2.08a.586.586 0 01-.026.005l-1.628.287zM4.158 7.906L6.213 19.56l1.313-.232 1.82-8.131a.5.5 0 01.89-.19l3.07 4.14 1.142-2.251a.5.5 0 01.787-.14l4.683 4.387 2.709-.477-2.055-11.654L4.158 7.907zm14.53 9.454L8.592 19.14l1.491-6.659 2.902 3.912a.5.5 0 00.847-.072l1.205-2.379 3.65 3.418zm-3.223-7.724a.833.833 0 111.641-.29.833.833 0 01-1.641.29zm.502-1.95a1.833 1.833 0 10.637 3.611 1.833 1.833 0 00-.637-3.611z"/></svg>