<svg xmlns="http://www.w3.org/2000/svg" viewBox="0 0 64 64"><defs></defs><g id="Icon"><path  d="M51,19.5a1.49,1.49,0,0,0-.52-1.13l-.07-.08L37.71,5.59l-.08-.07A1.49,1.49,0,0,0,36.5,5H15a2,2,0,0,0-2,2V57a2,2,0,0,0,2,2H49a2,2,0,0,0,2-2V19.71s0-.07,0-.11S51,19.53,51,19.5ZM38,10.12,45.88,18H38ZM16,56V8H35V19a2,2,0,0,0,2,2H48V56Z"/><path  d="M25.67,43.57A4.23,4.23,0,0,0,24,43.25H21V51.5h2V48.75h1a4.11,4.11,0,0,0,1.69-.33,2.65,2.65,0,0,0,1.17-1A2.61,2.61,0,0,0,27.24,46a2.52,2.52,0,0,0-1.57-2.4Zm-.83,3.3a1.49,1.49,0,0,1-1,.31H23V44.83h.89a1.5,1.5,0,0,1,1,.29,1,1,0,0,1,.35.86A1.11,1.11,0,0,1,24.84,46.87Z"/><path  d="M31.71,43.25H28.62V51.5h3.09a4.18,4.18,0,0,0,2.94-1,4.1,4.1,0,0,0,1.09-3.12,4.07,4.07,0,0,0-1.09-3.12A4.18,4.18,0,0,0,31.71,43.25Zm1.4,6.11a2.28,2.28,0,0,1-1.6.56h-.9V44.83h.9a2.28,2.28,0,0,1,1.61.55,2.69,2.69,0,0,1,.59,2A2.67,2.67,0,0,1,33.11,49.36Z"/><polygon  points="37.32 51.5 39.31 51.5 39.31 48.34 42.37 48.34 42.37 46.81 39.31 46.81 39.31 44.83 43 44.83 43 43.25 37.32 43.25 37.32 51.5"/></g></svg>