<svg xmlns="http://www.w3.org/2000/svg" viewBox="0 0 64 64">
  <path fill-rule="evenodd" d="M43.004 9.462c2.837-.655 6.003-.663 8.51-.492 1.243.085 2.303.212 3.048.318l.132.019.018.131c.106.746.233 1.805.318 3.048.172 2.508.163 5.673-.492 8.51-.755 3.272-2.68 6.521-5.252 9.596-2.565 3.064-5.708 5.877-8.783 8.273a92.363 92.363 0 0 1-10.572 7.087c-1.122-1.936-2.548-3.838-4.165-5.596l9.961-9.962a1.5 1.5 0 0 0-2.121-2.121l-9.961 9.961c-1.758-1.617-3.66-3.042-5.596-4.165a92.374 92.374 0 0 1 7.087-10.572c2.396-3.075 5.208-6.218 8.273-8.783 3.074-2.572 6.324-4.497 9.595-5.252Zm-21.48 30.899c-1.944-1.776-4.074-3.292-6.195-4.352a1.5 1.5 0 0 1-.656-2.042l1.327.7-1.326-.7v-.002l.003-.004.008-.015.029-.055.11-.205c.08-.145.19-.344.329-.592l-6.959-8.118a1.5 1.5 0 0 1-.063-1.872L9.333 24l-1.202-.897.003-.004.006-.008.023-.03.083-.109a40.158 40.158 0 0 1 1.439-1.744c.954-1.091 2.3-2.52 3.85-3.832 1.534-1.298 3.354-2.556 5.254-3.209 1.933-.664 4.104-.742 6.058.595.758.519 1.52 1.294 2.049 1.871l.075.082a51.563 51.563 0 0 1 4.512-4.301c3.271-2.738 6.943-4.974 10.846-5.875 3.252-.75 6.752-.742 9.39-.562 1.329.09 2.461.227 3.264.34a35.019 35.019 0 0 1 1.203.192l.07.013.02.004.006.001h.003L56 8l1.473-.285v.003l.001.006.004.02.013.07.045.258c.038.223.09.543.147.945.114.803.25 1.936.34 3.265.18 2.637.189 6.138-.561 9.39-.901 3.903-3.138 7.574-5.876 10.845a51.548 51.548 0 0 1-4.3 4.513l.081.074c.578.529 1.352 1.291 1.871 2.05 1.337 1.953 1.259 4.124.595 6.058-.653 1.9-1.91 3.72-3.209 5.253-1.311 1.55-2.74 2.897-3.832 3.85a40.221 40.221 0 0 1-1.744 1.44l-.108.082-.03.023-.01.007-.002.002h-.001L40 54.667l.896 1.203a1.5 1.5 0 0 1-1.872-.064l-8.118-6.958a54.289 54.289 0 0 1-.797.439l-.055.029-.014.008-.005.002h-.001c0 .001-.001.001-.7-1.325l.699 1.326a1.5 1.5 0 0 1-2.041-.656c-1.06-2.12-2.577-4.25-4.353-6.195a1.5 1.5 0 0 1-2.114-2.115ZM56 8l1.473-.286a1.5 1.5 0 0 0-1.187-1.187L56 8ZM40.036 52.721 33.64 47.24l.18-.11a95.37 95.37 0 0 0 8.527-5.898c.89-.694 1.79-1.425 2.687-2.19.097.084.2.177.308.276.548.501 1.107 1.072 1.42 1.53.636.928.7 2.032.234 3.39-.478 1.39-1.466 2.876-2.662 4.289-1.181 1.396-2.492 2.634-3.516 3.53-.288.251-.552.475-.782.665ZM16.76 30.36l.111-.18a95.363 95.363 0 0 1 5.898-8.526 76.997 76.997 0 0 1 2.19-2.687 20.539 20.539 0 0 0-.277-.31c-.5-.547-1.071-1.106-1.529-1.419-.929-.635-2.033-.7-3.39-.233-1.39.477-2.877 1.466-4.29 2.66-1.396 1.182-2.634 2.493-3.53 3.517a38.62 38.62 0 0 0-.665.783l5.482 6.395Zm-3.79 23.52c-1.212.302-2.441.46-3.389.54.08-.947.238-2.177.54-3.388.313-1.25.752-2.361 1.329-3.13.545-.728 1.14-1.067 1.883-1.067a3.833 3.833 0 0 1 3.834 3.833c0 .744-.34 1.338-1.067 1.883-.77.577-1.881 1.016-3.13 1.329ZM8 57.5V56v1.5h.043l.102-.001c.087-.002.21-.004.367-.01.312-.011.752-.033 1.28-.077 1.047-.087 2.466-.263 3.905-.623 1.418-.355 2.972-.916 4.203-1.839 1.273-.954 2.267-2.36 2.267-4.283a6.833 6.833 0 0 0-6.834-6.833c-1.922 0-3.328.993-4.283 2.266-.923 1.231-1.484 2.786-1.839 4.203-.36 1.439-.535 2.859-.622 3.906a27.26 27.26 0 0 0-.089 1.749V56H8 6.5A1.5 1.5 0 0 0 8 57.5ZM44 17a3 3 0 1 0 0 6 3 3 0 0 0 0-6Zm-5 3a5 5 0 1 1 10 0 5 5 0 0 1-10 0Z"/>
</svg>
