<svg xmlns="http://www.w3.org/2000/svg" viewBox="0 0 24 24"><defs></defs><g id="Icon"><path  d="M21,2H3A1,1,0,0,0,3,4H4V16a1,1,0,0,0,1,1h6v.88L6.55,20.11a1,1,0,0,0-.44,1.34A1,1,0,0,0,7,22a.93.93,0,0,0,.45-.11L11,20.12v.38a1,1,0,0,0,2,0v-.38l3.55,1.77A.93.93,0,0,0,17,22a1,1,0,0,0,.89-.55,1,1,0,0,0-.44-1.34L13,17.88V17h6a1,1,0,0,0,1-1V4h1a1,1,0,0,0,0-2ZM18,15H6V4H18Z"/><path  d="M10.25,12.94a.57.57,0,0,0,.25.06.48.48,0,0,0,.26-.07l5-3a.51.51,0,0,0,0-.86l-5-3a.54.54,0,0,0-.51,0A.52.52,0,0,0,10,6.5v6A.52.52,0,0,0,10.25,12.94ZM11,7.38,14.53,9.5,11,11.62Z"/></g></svg>