<svg id="Media_Read_24px" xmlns="http://www.w3.org/2000/svg" viewBox="0 0 24 24"><path d="M21 5h-3V3a1 1 0 00-1-1h-1.11a4.87 4.87 0 00-4.62 3.37A3.1 3.1 0 009.81 5H3a1 1 0 00-1 1v12a1 1 0 001 1h6.81a1.57 1.57 0 011.27.88 1 1 0 00.07.15 1 1 0 00.85.47 1 1 0 00.85-.47l.09-.17a1.53 1.53 0 011.25-.86H21a1 1 0 001-1V6a1 1 0 00-1-1zm-8 1.88A2.88 2.88 0 0115.89 4H16v10h-.11A4.73 4.73 0 0013 15zM9.81 17H4V7h5.81c.51 0 1.21.34 1.2 1v9.25a3.11 3.11 0 00-1.2-.25zM20 17h-5.81a3.42 3.42 0 00-.45 0 2.82 2.82 0 012.15-1H17a1 1 0 001-1V7h2z"/><path d="M9 9H6a.5.5 0 000 1h3a.5.5 0 000-1zM9 11.5H6a.5.5 0 000 1h3a.5.5 0 000-1zM9 14H6a.5.5 0 000 1h3a.5.5 0 000-1z"/></svg>