<svg id="Media_Pdf_64px" xmlns="http://www.w3.org/2000/svg" viewBox="0 0 64 64"><path d="M51 19.5a1.49 1.49 0 00-.52-1.13l-.07-.08-12.7-12.7-.08-.07A1.49 1.49 0 0036.5 5H15a2 2 0 00-2 2v50a2 2 0 002 2h34a2 2 0 002-2V19.71v-.11-.1zm-13-9.38L45.88 18H38zM16 56V8h19v11a2 2 0 002 2h11v35z"/><path d="M25.67 43.57a4.23 4.23 0 00-1.67-.32h-3v8.25h2v-2.75h1a4.11 4.11 0 001.69-.33 2.65 2.65 0 001.17-1 2.61 2.61 0 00.38-1.42 2.52 2.52 0 00-1.57-2.4zm-.83 3.3a1.49 1.49 0 01-1 .31H23v-2.35h.89a1.5 1.5 0 011 .29 1 1 0 01.35.86 1.11 1.11 0 01-.4.89zM31.71 43.25h-3.09v8.25h3.09a4.18 4.18 0 002.94-1 4.1 4.1 0 001.09-3.12 4.07 4.07 0 00-1.09-3.12 4.18 4.18 0 00-2.94-1.01zm1.4 6.11a2.28 2.28 0 01-1.6.56h-.9v-5.09h.9a2.28 2.28 0 011.61.55 2.69 2.69 0 01.59 2 2.67 2.67 0 01-.6 1.98zM37.32 51.5h1.99v-3.16h3.06v-1.53h-3.06v-1.98H43v-1.58h-5.68v8.25z"/></svg>