<svg xmlns="http://www.w3.org/2000/svg" viewBox="0 0 96 96"><defs></defs><g id="Icon"><path  d="M35.24,55.26A2,2,0,0,0,32,57.56L35.79,63C22,60.71,12,54.58,12,48c0-4.27,4.42-8.7,12-11.81V31.9C14.23,35.51,8,41.32,8,48c0,8.83,11,16.34,27.27,19L29.6,71a2,2,0,0,0,2.3,3.28l9.52-6.66a2,2,0,0,0,.49-2.79Z"/><path  d="M72,31.9v4.29C79.58,39.3,84,43.73,84,48c0,7.27-12.12,14-28.2,15.61a2,2,0,0,0,.2,4h.2C74.92,65.69,88,57.63,88,48,88,41.32,81.77,35.51,72,31.9Z"/><path  d="M33.21,39.62a7.1,7.1,0,0,1-4.15-1.14,5.41,5.41,0,0,1-2.18-3.07l3.43-1a2.74,2.74,0,0,0,1.08,1.43,3.31,3.31,0,0,0,1.87.52,2.55,2.55,0,0,0,1.64-.54,1.81,1.81,0,0,0,.67-1.5,1.71,1.71,0,0,0-.72-1.48A3.14,3.14,0,0,0,33,32.31H31.11v-3h1.81a2.78,2.78,0,0,0,1.73-.46,1.78,1.78,0,0,0,.6-1.51,1.57,1.57,0,0,0-.59-1.31,2.2,2.2,0,0,0-1.45-.48,2.27,2.27,0,0,0-2.3,1.79l-3.58-1a5,5,0,0,1,.66-1.5,6,6,0,0,1,1.18-1.29A5.25,5.25,0,0,1,31,22.65a7.41,7.41,0,0,1,2.31-.34,6.78,6.78,0,0,1,4.22,1.23,4,4,0,0,1,1.62,3.33,4.07,4.07,0,0,1-.58,2.22,3.22,3.22,0,0,1-1.64,1.3v0a3.53,3.53,0,0,1,1.79,1.39,4.3,4.3,0,0,1,.73,2.54,4.78,4.78,0,0,1-1.71,3.81A6.67,6.67,0,0,1,33.21,39.62Z"/><path  d="M47.83,39.62a5.77,5.77,0,0,1-4.78-2.16,9.27,9.27,0,0,1-1.73-5.94,14,14,0,0,1,.56-4.12,7.7,7.7,0,0,1,1.5-2.9,6.27,6.27,0,0,1,2.17-1.64,6.34,6.34,0,0,1,2.64-.55,5.7,5.7,0,0,1,3.62,1.09,5,5,0,0,1,1.85,2.8l-3.17.89a3.29,3.29,0,0,0-1-1.15,2.51,2.51,0,0,0-1.4-.36,2.61,2.61,0,0,0-2.18,1.13,5.84,5.84,0,0,0-1,2.94,5.1,5.1,0,0,1,1.63-1.14,4.87,4.87,0,0,1,2-.41,5.66,5.66,0,0,1,2.09.38,5.79,5.79,0,0,1,1.77,1.1,5,5,0,0,1,1.23,1.81,6.13,6.13,0,0,1,.46,2.41A6,6,0,0,1,53.69,36a6.05,6.05,0,0,1-1.17,1.85,5.55,5.55,0,0,1-2,1.3A7.31,7.31,0,0,1,47.83,39.62Zm-1.65-3.95a2.31,2.31,0,0,0,1.72.68,2.35,2.35,0,0,0,1.73-.68,2.51,2.51,0,0,0,.67-1.84,2.47,2.47,0,0,0-.68-1.8,2.46,2.46,0,0,0-3.44,0,2.46,2.46,0,0,0-.67,1.8A2.51,2.51,0,0,0,46.18,35.67Z"/><path  d="M62.35,22.31a5.58,5.58,0,0,1,4.75,2.22,10.56,10.56,0,0,1,1.66,6.41c0,2.81-.55,4.95-1.66,6.44a5.57,5.57,0,0,1-4.75,2.24,5.5,5.5,0,0,1-4.71-2.23C56.55,35.9,56,33.76,56,30.94a10.7,10.7,0,0,1,1.63-6.41A5.49,5.49,0,0,1,62.35,22.31Zm0,3.27A2,2,0,0,0,60.46,27a9.53,9.53,0,0,0-.66,4,9.63,9.63,0,0,0,.66,4,2,2,0,0,0,1.89,1.4A2.11,2.11,0,0,0,64.28,35a9.69,9.69,0,0,0,.66-4,9.53,9.53,0,0,0-.66-4A2.1,2.1,0,0,0,62.35,25.58Z"/><path  d="M76.18,27.82a3.26,3.26,0,0,1-4.58,0,3.23,3.23,0,1,1,4.58,0ZM72.82,26.6a1.5,1.5,0,0,0,1.07.43A1.46,1.46,0,0,0,75,26.6a1.43,1.43,0,0,0,.43-1.06A1.46,1.46,0,0,0,75,24.47,1.43,1.43,0,0,0,73.89,24a1.5,1.5,0,0,0-1.51,1.51A1.44,1.44,0,0,0,72.82,26.6Z"/></g></svg>