<svg id="Navigation_Display_DisplayProductX4_Filled_48px" xmlns="http://www.w3.org/2000/svg" viewBox="0 0 48 48"><rect x="4" y="4" width="18.24" height="18.24" rx="2"/><path d="M43.12 4.34A2.05 2.05 0 0042 4H27.76a2 2 0 00-.77.16 1.83 1.83 0 00-.34.18A2 2 0 0025.76 6v14.24a2 2 0 00.89 1.65 1.41 1.41 0 00.34.19 2 2 0 00.77.16H42a2 2 0 001.66-.89 2 2 0 00.34-1.11V6a2.05 2.05 0 00-.34-1.12 2.31 2.31 0 00-.54-.54z"/><rect x="4" y="25.76" width="18.24" height="18.24" rx="2"/><path d="M43.12 26.11a2 2 0 00-1.12-.35H27.76a2 2 0 00-.77.16 1.41 1.41 0 00-.34.19 2 2 0 00-.89 1.65V42a2 2 0 00.89 1.66 1.83 1.83 0 00.34.18 2 2 0 00.77.16H42a2.05 2.05 0 001.12-.34 2.31 2.31 0 00.54-.54A2.05 2.05 0 0044 42V27.76a2 2 0 00-.34-1.11 2 2 0 00-.54-.54z"/></svg>