<svg xmlns="http://www.w3.org/2000/svg" viewBox="0 0 32 32"><defs></defs><g id="Name"><path  d="M27,3H19.26a2,2,0,0,0-1.42.59L4,17.48a2,2,0,0,0,0,2.83L11.69,28a2,2,0,0,0,2.83,0L16,26.46a7.42,7.42,0,0,0,9,0l2.21,2.22a1,1,0,0,0,1.42,0,1,1,0,0,0,0-1.42L26.49,25a7.42,7.42,0,0,0,0-9l1.89-1.87A2,2,0,0,0,29,12.74V5A2,2,0,0,0,27,3ZM15.08,20.51A5.48,5.48,0,1,1,20.55,26,5.47,5.47,0,0,1,15.08,20.51ZM27,12.74l-1.88,1.87A7.46,7.46,0,0,0,14.62,25l-1.51,1.51L5.45,18.89,19.26,5H27Z"/><path  d="M22.82,11.3a2.15,2.15,0,0,0,1.5-.62,2.12,2.12,0,0,0,0-3,2.17,2.17,0,0,0-3,0,2.12,2.12,0,0,0,1.5,3.62ZM22,8.39A1.12,1.12,0,1,1,22,10,1.11,1.11,0,0,1,22,8.39Z"/></g></svg>