<svg id="Navigation_Display_Blink_48px" xmlns="http://www.w3.org/2000/svg" viewBox="0 0 48 48"><circle cx="24" cy="24" r="3"/><path d="M24 17.5a1.5 1.5 0 01-1.5-1.5V5.5a1.5 1.5 0 013 0V16a1.5 1.5 0 01-1.5 1.5zM30 19.5a1.51 1.51 0 01-1.06-.44 1.49 1.49 0 010-2.12L36 9.86A1.5 1.5 0 0138.14 12l-7.08 7.08a1.51 1.51 0 01-1.06.42zM42.5 25.5H32a1.5 1.5 0 010-3h10.5a1.5 1.5 0 010 3zM37.08 38.58a1.51 1.51 0 01-1.08-.44l-7.08-7.08a1.5 1.5 0 012.12-2.12l7.1 7.06a1.49 1.49 0 010 2.12 1.51 1.51 0 01-1.06.46zM24 44a1.5 1.5 0 01-1.5-1.5V32a1.5 1.5 0 013 0v10.5A1.5 1.5 0 0124 44zM18 19.5a1.51 1.51 0 01-1.06-.44L9.86 12A1.5 1.5 0 0112 9.86l7.08 7.08a1.49 1.49 0 010 2.12 1.51 1.51 0 01-1.08.44zM16 25.5H5.5a1.5 1.5 0 010-3H16a1.5 1.5 0 010 3zM10.92 38.58a1.51 1.51 0 01-1.06-.44 1.49 1.49 0 010-2.12l7.08-7.08a1.5 1.5 0 012.12 2.12L12 38.14a1.51 1.51 0 01-1.08.44z"/></svg>