<svg xmlns="http://www.w3.org/2000/svg" viewBox="0 0 64 64"><defs></defs><g id="Icon"><path  d="M57.5,32H32V14.5A1.5,1.5,0,0,0,30.5,13H6.5A1.5,1.5,0,0,0,5,14.5v43A1.5,1.5,0,0,0,6.5,59h51A1.5,1.5,0,0,0,59,57.5v-24A1.5,1.5,0,0,0,57.5,32ZM29,16V46H8V16ZM8,49H29v7H8Zm48,7H32V35H56Z"/><path  d="M21.5,51h-5a1.5,1.5,0,0,0,0,3h5a1.5,1.5,0,0,0,0-3Z"/><path  d="M33,7A16.51,16.51,0,0,1,49.43,23l-2.72-2.73a1,1,0,0,0-1.42,0,1,1,0,0,0,0,1.41l4.5,4.51a1,1,0,0,0,.7.29,1,1,0,0,0,.71-.29l4.51-4.49a1,1,0,0,0-1.42-1.42l-2.86,2.85A18.51,18.51,0,0,0,33,5a1,1,0,0,0,0,2Z"/></g></svg>