<svg xmlns="http://www.w3.org/2000/svg" viewBox="0 0 64 64"><defs></defs><g id="Icon"><path  d="M24,38H7a2,2,0,0,0-2,2V57a2,2,0,0,0,2,2H24a2,2,0,0,0,2-2V40A2,2,0,0,0,24,38ZM23,56H8V41H23Z"/><path  d="M57.5,41h-24a1.5,1.5,0,0,0,0,3h24a1.5,1.5,0,0,0,0-3Z"/><path  d="M57.5,53h-24a1.5,1.5,0,0,0,0,3h24a1.5,1.5,0,0,0,0-3Z"/><path  d="M24,5H7A2,2,0,0,0,5,7V24a2,2,0,0,0,2,2H24a2,2,0,0,0,2-2V7A2,2,0,0,0,24,5ZM23,23H8V8H23Z"/><path  d="M33.5,11h24a1.5,1.5,0,0,0,0-3h-24a1.5,1.5,0,0,0,0,3Z"/><path  d="M57.5,20h-24a1.5,1.5,0,0,0,0,3h24a1.5,1.5,0,0,0,0-3Z"/></g></svg>