<svg xmlns="http://www.w3.org/2000/svg" viewBox="0 0 24 24"><defs></defs><g id="Calque_5" ><path  d="M19.83,17.45l-.65-1A7,7,0,0,1,18,12.58V10a6,6,0,0,0-5-5.91A.29.29,0,0,0,13,4V3a1,1,0,0,0-2,0V4a.29.29,0,0,0,0,.09A6,6,0,0,0,6,10v2.58a7,7,0,0,1-1.18,3.88l-.65,1a1,1,0,0,0,0,1A1,1,0,0,0,5,19H8.14a4,4,0,0,0,7.72,0H19a1,1,0,0,0,.88-.53A1,1,0,0,0,19.83,17.45ZM12,20a2,2,0,0,1-1.72-1h3.44A2,2,0,0,1,12,20ZM6.84,17a9,9,0,0,0,.94-2.5H11a.5.5,0,0,0,0-1H7.94c0-.31.06-.61.06-.92V10a4,4,0,0,1,8,0v2.58A9,9,0,0,0,17.16,17Z"/></g></svg>