<svg id="Navigation_Display_Blink_32px" xmlns="http://www.w3.org/2000/svg" viewBox="0 0 32 32"><circle cx="16" cy="16" r="1.95"/><path d="M16 11.81a1 1 0 01-1-1V4a1 1 0 012 0v6.81a1 1 0 01-1 1zM19.89 13.11a1 1 0 01-.71-1.71l4.59-4.59a1 1 0 011.42 0 1 1 0 010 1.41l-4.59 4.59a1 1 0 01-.71.3zM28 17h-6.81a1 1 0 110-2H28a1 1 0 010 2zM24.48 25.48a1 1 0 01-.71-.29l-4.59-4.59a1 1 0 011.42-1.42l4.59 4.59a1 1 0 010 1.42 1 1 0 01-.71.29zM16 29a1 1 0 01-1-1v-6.81a1 1 0 112 0V28a1 1 0 01-1 1zM12.11 13.11a1 1 0 01-.71-.3L6.81 8.22a1 1 0 011.41-1.41l4.59 4.59a1 1 0 010 1.41 1 1 0 01-.7.3zM10.81 17H4a1 1 0 010-2h6.81a1 1 0 110 2zM7.51 25.48a1 1 0 01-.7-1.71l4.59-4.59a1 1 0 011.41 0 1 1 0 010 1.42l-4.59 4.59a1 1 0 01-.71.29z"/></svg>