<svg id="Navigation_Display_SearchProduct_48px" xmlns="http://www.w3.org/2000/svg" viewBox="0 0 48 48"><path d="M44 19.43V6a2 2 0 00-2-2H28.57a2 2 0 00-1.42.59L4.79 27.09a2 2 0 000 2.82l13.3 13.3a2 2 0 002.82 0L24 40.12a11.4 11.4 0 0014 0l3.45 3.45a1.5 1.5 0 002.12 0 1.49 1.49 0 000-2.12L40.11 38a11.3 11.3 0 002.26-5.27 11.42 11.42 0 00-2.21-8.64l3.25-3.23a2 2 0 00.59-1.43zM31 39.5a8.5 8.5 0 118.5-8.5 8.51 8.51 0 01-8.5 8.5zM41 19l-2.94 2.92A11.48 11.48 0 0021.9 38l-2.4 2.38L7.62 28.5 29 7h12z"/><path d="M34.5 17a3.44 3.44 0 002.5-1 3.49 3.49 0 10-5 0 3.44 3.44 0 002.5 1zm-1.06-4.56a1.5 1.5 0 012.12 0 1.49 1.49 0 010 2.12 1.51 1.51 0 01-2.12 0 1.49 1.49 0 010-2.12z"/></svg>