<svg xmlns="http://www.w3.org/2000/svg" viewBox="0 0 48 48"><defs></defs><g id="Icon"><path  d="M24,15a9,9,0,1,0,9,9A9,9,0,0,0,24,15Zm0,15a6,6,0,1,1,6-6A6,6,0,0,1,24,30Z"/><path  d="M43,22.07l-2.21-.62A16.42,16.42,0,0,0,40.24,19L42,17.47a2,2,0,0,0,.24-2.75l-5.12-6.4a2,2,0,0,0-1.56-.75,2,2,0,0,0-1.17.37L32.48,9.28a16.35,16.35,0,0,0-2.27-1.09L30.09,5.9a2,2,0,0,0-2-1.9H19.9a2,2,0,0,0-2,1.9l-.12,2.29a16.35,16.35,0,0,0-2.27,1.09L13.66,7.94a2,2,0,0,0-1.17-.37,2,2,0,0,0-1.56.75l-5.12,6.4a2,2,0,0,0,.24,2.75L7.76,19a16.42,16.42,0,0,0-.55,2.47L5,22.07a2,2,0,0,0-1.41,2.37l1.81,8A2,2,0,0,0,7.35,34a2.07,2.07,0,0,0,.35,0l2.24-.39a16.64,16.64,0,0,0,1.63,2l-.89,2.12a2,2,0,0,0,1,2.58l7.39,3.54a2.07,2.07,0,0,0,.87.19,2,2,0,0,0,1.76-1l1.09-2c.41,0,.81.06,1.23.06s.86,0,1.29-.07l1.1,2a2,2,0,0,0,1.76,1,1.94,1.94,0,0,0,.87-.2l7.37-3.57a2,2,0,0,0,1-2.58l-.9-2.11a17.78,17.78,0,0,0,1.59-2L40.3,34a2.07,2.07,0,0,0,.35,0,2,2,0,0,0,2-1.55l1.81-8A2,2,0,0,0,43,22.07Zm-3.12,8.76-1.31-.22-1.9-.34-1.09,1.6a15.54,15.54,0,0,1-1.31,1.62L33,34.91l.76,1.79.52,1.24-5.66,2.73-.65-1.17-1-1.7L25,38c-.37,0-.72,0-1,0s-.57,0-.89,0H23l-1.93-.14-.92,1.7-.64,1.18L13.82,38l.52-1.24.75-1.79-1.32-1.41a14.29,14.29,0,0,1-1.35-1.66l-1.09-1.6-1.9.34-1.31.22L6.73,24.7,8,24.33l1.87-.52.29-1.92a14.51,14.51,0,0,1,.44-2L11.19,18,9.74,16.73l-1-.88,3.93-4.91,1.08.78,1.58,1.13,1.68-1a13.42,13.42,0,0,1,1.87-.9l1.8-.71.1-1.93L20.85,7h6.3l.06,1.34.1,1.93,1.8.71a13.42,13.42,0,0,1,1.87.9l1.68,1,1.58-1.13,1.08-.78,3.93,4.91-1,.88L36.81,18l.57,1.85a14.51,14.51,0,0,1,.44,2l.29,1.92,1.87.52,1.29.37Z"/></g></svg>