<svg xmlns="http://www.w3.org/2000/svg" viewBox="0 0 48 48"><defs></defs><g id="Icon"><path  d="M25.45,24.76V11.5A1.5,1.5,0,0,0,24,10h0a1.5,1.5,0,0,0-1.5,1.5V24.79a4.48,4.48,0,0,0,0,8.42V36.5A1.5,1.5,0,0,0,24,38h0a1.5,1.5,0,0,0,1.5-1.5V33.24a4.47,4.47,0,0,0,0-8.48ZM24,30.5A1.5,1.5,0,1,1,25.5,29,1.5,1.5,0,0,1,24,30.5Z"/><path  d="M42.5,24a4.49,4.49,0,0,0-3-4.24V11.5A1.5,1.5,0,0,0,38,10h0a1.5,1.5,0,0,0-1.5,1.5v8.29a4.48,4.48,0,0,0,0,8.42V36.5A1.5,1.5,0,0,0,38,38h0a1.5,1.5,0,0,0,1.5-1.5V28.24A4.49,4.49,0,0,0,42.5,24ZM38,25.5A1.5,1.5,0,1,1,39.5,24,1.5,1.5,0,0,1,38,25.5Z"/><path  d="M11.45,15.76V11.5A1.5,1.5,0,0,0,10,10h0a1.5,1.5,0,0,0-1.5,1.5v4.29a4.48,4.48,0,0,0,0,8.42V36.5A1.5,1.5,0,0,0,10,38h0a1.5,1.5,0,0,0,1.5-1.5V24.24a4.47,4.47,0,0,0,0-8.48ZM10,21.5A1.5,1.5,0,1,1,11.5,20,1.5,1.5,0,0,1,10,21.5Z"/></g></svg>