<svg xmlns="http://www.w3.org/2000/svg" viewBox="0 0 48 48"><defs></defs><g id="Name"><path  d="M44,19.43V6a2,2,0,0,0-2-2H28.57a2,2,0,0,0-1.42.59L4.79,27.09a2,2,0,0,0,0,2.82l13.3,13.3a2,2,0,0,0,2.82,0L24,40.12a11.4,11.4,0,0,0,14,0l3.45,3.45a1.5,1.5,0,0,0,2.12,0,1.49,1.49,0,0,0,0-2.12L40.11,38a11.3,11.3,0,0,0,2.26-5.27,11.42,11.42,0,0,0-2.21-8.64l3.25-3.23A2,2,0,0,0,44,19.43ZM31,39.5A8.5,8.5,0,1,1,39.5,31,8.51,8.51,0,0,1,31,39.5ZM41,19l-2.94,2.92A11.48,11.48,0,0,0,21.9,38l-2.4,2.38L7.62,28.5,29,7H41Z"/><path  d="M34.5,17A3.44,3.44,0,0,0,37,16,3.49,3.49,0,1,0,32,16,3.44,3.44,0,0,0,34.5,17Zm-1.06-4.56a1.5,1.5,0,0,1,2.12,0,1.49,1.49,0,0,1,0,2.12,1.51,1.51,0,0,1-2.12,0A1.49,1.49,0,0,1,33.44,12.44Z"/></g></svg>