<svg id="Navigation_Display_ProductNumb_64px" xmlns="http://www.w3.org/2000/svg" viewBox="0 0 64 64"><path d="M57.5 30.5h-35a1.5 1.5 0 000 3h35a1.5 1.5 0 000-3zM22.5 16h35a1.5 1.5 0 000-3h-35a1.5 1.5 0 000 3zM57.5 48h-35a1.5 1.5 0 000 3h35a1.5 1.5 0 000-3zM9.81 31a2.55 2.55 0 00-.23-.43 3.68 3.68 0 00-.31-.38 3.68 3.68 0 00-.38-.31 2.43 2.43 0 00-.9-.37 2.31 2.31 0 00-1 0 2.43 2.43 0 00-.9.37 3.68 3.68 0 00-.38.31 3.68 3.68 0 00-.31.38 2.43 2.43 0 00-.37.9 2.43 2.43 0 000 1 2.43 2.43 0 00.37.9 3.68 3.68 0 00.31.38 3.68 3.68 0 00.38.31 2.43 2.43 0 00.9.37 2.72 2.72 0 00.49 0 2.55 2.55 0 001.77-.73 3.68 3.68 0 00.31-.38 3.55 3.55 0 00.25-.32 2.54 2.54 0 00.14-.47 2.43 2.43 0 000-1 2.54 2.54 0 00-.14-.53zM8.89 12.42a2.43 2.43 0 00-.9-.37 2.31 2.31 0 00-1 0 2.43 2.43 0 00-.9.37 3.68 3.68 0 00-.38.31A2.55 2.55 0 005 14.5a2.72 2.72 0 000 .49 2.43 2.43 0 00.37.9 3.68 3.68 0 00.31.38A2.55 2.55 0 007.5 17a2.72 2.72 0 00.5 0 2.79 2.79 0 00.47-.14 3.55 3.55 0 00.43-.23 3.68 3.68 0 00.38-.31 3.68 3.68 0 00.31-.38 3.55 3.55 0 00.23-.43A2.54 2.54 0 0010 15a2.72 2.72 0 000-.5 2.55 2.55 0 00-.73-1.77 3.68 3.68 0 00-.38-.31zM8.89 47.42a2.52 2.52 0 00-3.16.31 3.68 3.68 0 00-.31.38 2.43 2.43 0 00-.37.9 2.72 2.72 0 000 .49A2.49 2.49 0 007.5 52a2.72 2.72 0 00.5 0 2.79 2.79 0 00.47-.14 2.55 2.55 0 00.43-.23 3.68 3.68 0 00.38-.31 2.51 2.51 0 000-3.54 3.68 3.68 0 00-.39-.36z"/></svg>