<svg xmlns="http://www.w3.org/2000/svg" viewBox="0 0 32 32"><defs></defs><g id="Icon"><path  d="M12,3H5A2,2,0,0,0,3,5v7a2,2,0,0,0,2,2h7a2,2,0,0,0,2-2V5A2,2,0,0,0,12,3Zm0,9H5V5h7Z"/><path  d="M18.28,7H28a1,1,0,0,0,0-2H18.28a1,1,0,0,0,0,2Z"/><path  d="M28,10H18.28a1,1,0,0,0,0,2H28a1,1,0,0,0,0-2Z"/><path  d="M12,18H5a2,2,0,0,0-2,2v7a2,2,0,0,0,2,2h7a2,2,0,0,0,2-2V20A2,2,0,0,0,12,18Zm0,9H5V20h7Z"/><path  d="M28,20H18.28a1,1,0,0,0,0,2H28a1,1,0,0,0,0-2Z"/><path  d="M28,25H18.28a1,1,0,0,0,0,2H28a1,1,0,0,0,0-2Z"/></g></svg>