<svg id="Navigation_Display_DisplayProductX4_Outline_24px" xmlns="http://www.w3.org/2000/svg" viewBox="0 0 24 24"><path d="M9.85 22h-6.7A1.16 1.16 0 012 20.85v-6.7A1.16 1.16 0 013.15 13h6.7A1.16 1.16 0 0111 14.15v6.7A1.16 1.16 0 019.85 22zM4 20h5v-5H4zM20.85 22h-6.7A1.16 1.16 0 0113 20.85v-6.7A1.16 1.16 0 0114.15 13h6.7A1.16 1.16 0 0122 14.15v6.7A1.16 1.16 0 0120.85 22zM15 20h5v-5h-5zM9.85 11h-6.7A1.16 1.16 0 012 9.85v-6.7A1.16 1.16 0 013.15 2h6.7A1.16 1.16 0 0111 3.15v6.7A1.16 1.16 0 019.85 11zM4 9h5V4H4zM20.85 11h-6.7A1.16 1.16 0 0113 9.85v-6.7A1.16 1.16 0 0114.15 2h6.7A1.16 1.16 0 0122 3.15v6.7A1.16 1.16 0 0120.85 11zM15 9h5V4h-5z"/></svg>