<svg id="Navigation_Display_DisplayProductX9_64px" xmlns="http://www.w3.org/2000/svg" viewBox="0 0 64 64"><path d="M38 5H26a2 2 0 00-2 2v12a2 2 0 002 2h12a2 2 0 002-2V7a2 2 0 00-2-2zm-1 13H27V8h10zM19 5H7a2 2 0 00-2 2v12a2 2 0 002 2h12a2 2 0 002-2V7a2 2 0 00-2-2zm-1 13H8V8h10zM57 5H45a2 2 0 00-2 2v12a2 2 0 002 2h12a2 2 0 002-2V7a2 2 0 00-2-2zm-1 13H46V8h10zM38 24H26a2 2 0 00-2 2v12a2 2 0 002 2h12a2 2 0 002-2V26a2 2 0 00-2-2zm-1 13H27V27h10zM19 24H7a2 2 0 00-2 2v12a2 2 0 002 2h12a2 2 0 002-2V26a2 2 0 00-2-2zm-1 13H8V27h10zM57 24H45a2 2 0 00-2 2v12a2 2 0 002 2h12a2 2 0 002-2V26a2 2 0 00-2-2zm-1 13H46V27h10zM38 43H26a2 2 0 00-2 2v12a2 2 0 002 2h12a2 2 0 002-2V45a2 2 0 00-2-2zm-1 13H27V46h10zM19 43H7a2 2 0 00-2 2v12a2 2 0 002 2h12a2 2 0 002-2V45a2 2 0 00-2-2zm-1 13H8V46h10zM57 43H45a2 2 0 00-2 2v12a2 2 0 002 2h12a2 2 0 002-2V45a2 2 0 00-2-2zm-1 13H46V46h10z"/></svg>