<svg xmlns="http://www.w3.org/2000/svg" viewBox="0 0 32 32"><defs></defs><g id="Icon"><path  d="M23.56,9.5a1,1,0,0,0-1.06.94L21.56,27H10.44L9.5,10.44a1,1,0,1,0-2,.12l.95,16.55a2,2,0,0,0,2,1.89H21.56a2,2,0,0,0,2-1.89l.95-16.55A1,1,0,0,0,23.56,9.5Z"/><path  d="M25.5,6H20.12l-1-2.39A1,1,0,0,0,18.17,3H13.83a1,1,0,0,0-.92.61L11.88,6H6.5a1,1,0,0,0,0,2h19a1,1,0,0,0,0-2ZM13,6l.86-2h4.34L19,6Z"/><path  d="M16.5,24V13a.5.5,0,0,0-1,0V24a.5.5,0,0,0,1,0Z"/><path  d="M19.21,24.5a.5.5,0,0,0,.5-.47l.58-11a.51.51,0,0,0-.48-.53.48.48,0,0,0-.52.47l-.58,11a.51.51,0,0,0,.48.53Z"/><path  d="M12.79,24.5h0a.51.51,0,0,0,.48-.53l-.58-11a.49.49,0,0,0-.52-.47.51.51,0,0,0-.48.53l.58,11A.5.5,0,0,0,12.79,24.5Z"/></g></svg>