<svg id="Payment_Cards_Monochrome_Paylib_48px" xmlns="http://www.w3.org/2000/svg" viewBox="0 0 48 48"><path d="M35.8 26.22V26h-.09.29-.09v.22zm.46 0V26l-.06.16h-.07l-.06-.16v.19H36V26h.1l.07.17.06-.17h.1v.27zM10 21.05h1v.33a2.16 2.16 0 011.09-.4 3.57 3.57 0 011.13.06 1.55 1.55 0 011.18 1.27 5.46 5.46 0 01.13 1.69 4.53 4.53 0 01-.13 1 1.58 1.58 0 01-1.4 1.21c-.43.06-.86.05-1.3.07v-1h.43a5.29 5.29 0 00.56-.05.62.62 0 00.53-.49 2.63 2.63 0 00.1-.56 6.83 6.83 0 000-1.43l-.06-.26a.64.64 0 00-.51-.45 2 2 0 00-.9 0 .72.72 0 00-.56.72v5.36h-1.17c-.09 0-.11 0-.11-.1v-.5z"/><path d="M32 17.82v6.58a3.31 3.31 0 00.09.77 1.33 1.33 0 001 1 4.26 4.26 0 002.07 0 1.67 1.67 0 001.25-1.34 5.66 5.66 0 000-2.39 1.59 1.59 0 00-1.48-1.33c-.4-.05-.81 0-1.22 0v1h.82a.72.72 0 01.75.66 5.62 5.62 0 010 1.83.72.72 0 01-.75.68 2.73 2.73 0 01-.7 0c-.37 0-.54-.27-.57-.68V18a6 6 0 014.1 3.24 6 6 0 01-.54 6.48 6.09 6.09 0 01-5.56 2.48v-7.3h-1.35v7a6.12 6.12 0 01-4-4A6.26 6.26 0 0127 20.05v4.78a3.27 3.27 0 000 .54 1 1 0 00.81.84 6 6 0 001.28.06v-1.06h-.65c-.16 0-.22-.06-.23-.22s0-.21 0-.32v-5.61a.24.24 0 01.13-.24 6.13 6.13 0 013.5-1zm-2.14 3.93a.61.61 0 00.49.68 1.28 1.28 0 00.39 0 .58.58 0 00.56-.57v-.23a.61.61 0 00-.51-.58 1.41 1.41 0 00-.29 0 .61.61 0 00-.64.69zM20.24 21.06h1.22v3.35a2.83 2.83 0 000 .41.45.45 0 00.32.36 1.82 1.82 0 001.13 0 .48.48 0 00.35-.46v-.35V21.07h1.24v5.67a2.6 2.6 0 01-.06.56.89.89 0 01-.73.72 7.63 7.63 0 01-1.28.06v-1h.66a.2.2 0 00.2-.19v-.69l-.84.06a3.11 3.11 0 01-1.21-.16 1.41 1.41 0 01-1-1.3v-.57-3zM19.57 21.05v5.21h-1.21V26a2.35 2.35 0 01-.44.17 3 3 0 01-1.67 0 1.55 1.55 0 01-1.1-1.27 4.17 4.17 0 01-.1-.78 6.61 6.61 0 01.09-1.72 1.61 1.61 0 011.6-1.4 3.83 3.83 0 011.07.06 1.89 1.89 0 01.74.36v-.35zm-1.21 2.54v-.42-.42a.71.71 0 00-.65-.76A4.33 4.33 0 0017 22a.68.68 0 00-.63.53 1.4 1.4 0 00-.06.28v1.39a2.27 2.27 0 00.1.58.62.62 0 00.54.47 2.74 2.74 0 00.7 0 .79.79 0 00.75-.86z"/><path d="M42 12v24H6V12h36m0-2H6a2 2 0 00-2 2v24a2 2 0 002 2h36a2 2 0 002-2V12a2 2 0 00-2-2z"/></svg>