<svg id="Payment_Cards_Monochrome_Maestro_32px" xmlns="http://www.w3.org/2000/svg" viewBox="0 0 32 32"><path fill-rule="evenodd" d="M28 25H4a1 1 0 01-1-1V8a1 1 0 011-1h24a1 1 0 011 1v16a1 1 0 01-1 1zM4 8v16h24V8H4zm14.677 2.012a4.727 4.727 0 00-2.952 1.035 4.765 4.765 0 100 7.47 4.765 4.765 0 102.952-8.5v-.005zm-1.146 4.77a4.765 4.765 0 00-1.806-3.735 4.75 4.75 0 00-1.813 3.73c0 1.459.668 2.837 1.813 3.74a4.765 4.765 0 001.806-3.734zm5.14-.003a4.095 4.095 0 00-3.994-4.094 4 4 0 00-1.872.455 5.413 5.413 0 010 7.275 4 4 0 001.872.457 4.095 4.095 0 003.994-4.093zm-2.653 5.747a.606.606 0 00-.21-.033.417.417 0 00-.367.2v-.167h-.292v1.37h.3v-.768c0-.226.1-.351.293-.351.059 0 .117.008.184.033l.092-.284zm-1.797.268h.485v-.276h-.485V20.1h-.3v.418h-.276v.276h.275v.626c0 .318.126.51.477.51a.687.687 0 00.376-.108l-.084-.26a.592.592 0 01-.267.076c-.15 0-.2-.092-.2-.226v-.618zm-2.966-.042c-.217 0-.334.134-.368.334h.719c-.034-.217-.159-.334-.351-.334zm.008-.26c.385 0 .652.293.652.72a.471.471 0 01-.013.099 1.878 1.878 0 00-.004.017h-1.02c.043.243.218.335.41.335.142 0 .284-.05.401-.142l.15.217a.817.817 0 01-.56.192c-.409 0-.701-.284-.701-.718 0-.427.284-.72.685-.72zm1.538.268a.9.9 0 01.426.117l.125-.242a1.05 1.05 0 00-.56-.142c-.342 0-.568.167-.568.443 0 .217.167.359.476.4l.143.018c.167.025.242.066.242.142 0 .108-.109.167-.31.167a.75.75 0 01-.459-.142l-.142.234a.996.996 0 00.593.175c.401 0 .627-.192.627-.451 0-.242-.175-.368-.476-.41l-.142-.016c-.134-.017-.234-.042-.234-.134 0-.1.092-.159.259-.159zm3.936.042a.373.373 0 01.167-.033.54.54 0 01.167.033.48.48 0 01.133.092.516.516 0 01.092.142c.025.05.034.109.034.175a.41.41 0 01-.034.176.416.416 0 01-.092.142.373.373 0 01-.133.092.373.373 0 01-.167.033.373.373 0 01-.168-.033.477.477 0 01-.133-.092.516.516 0 01-.092-.142.387.387 0 01-.034-.175.41.41 0 01.034-.176.591.591 0 01.092-.142.382.382 0 01.133-.092zm.46-.25a.655.655 0 00-.293-.06.655.655 0 00-.293.06.628.628 0 00-.234.15.552.552 0 00-.159.225.64.64 0 00-.058.285c0 .1.025.192.058.284a.85.85 0 00.16.225.626.626 0 00.233.15.654.654 0 00.293.06c.1 0 .2-.026.292-.06a.626.626 0 00.234-.15.553.553 0 00.159-.225.641.641 0 00.058-.284c0-.1-.025-.193-.058-.285a.848.848 0 00-.159-.225.628.628 0 00-.234-.15zm-7.63.217c-.26 0-.418.2-.418.443 0 .242.159.434.418.434.242 0 .41-.184.41-.434 0-.251-.16-.443-.41-.443zm.693-.243v1.371h-.3v-.167a.53.53 0 01-.435.2c-.384 0-.685-.3-.685-.718s.3-.72.685-.72c.2 0 .343.076.435.201v-.167h.3zm-1.68.51v.844h-.308v-.76c0-.234-.1-.36-.301-.36-.192 0-.334.134-.334.368v.76h-.301v-.76c0-.234-.1-.36-.301-.36-.2 0-.334.134-.334.368v.76H10.4v-1.37h.3v.167c.11-.158.26-.2.402-.2a.5.5 0 01.451.242c.125-.192.31-.242.485-.242.334 0 .543.217.543.543z"/></svg>