<svg xmlns="http://www.w3.org/2000/svg" viewBox="0 0 64 64"><defs></defs><g id="Icon"><path  d="M41,26H39.24A4.49,4.49,0,0,0,32,20.71,4.46,4.46,0,0,0,28.5,19a4.5,4.5,0,0,0-3.74,7H23a1,1,0,0,0-1,1V43a1,1,0,0,0,1,1H41a1,1,0,0,0,1-1V27A1,1,0,0,0,41,26Zm-1,8H33V28h7ZM35.5,21a2.5,2.5,0,0,1,0,5H33V23.5A2.5,2.5,0,0,1,35.5,21ZM26,23.5a2.5,2.5,0,0,1,5,0V26H28.5A2.5,2.5,0,0,1,26,23.5ZM31,28v6H24V28Zm-7,8h7v6H24Zm9,6V36h7v6Z"/><path  d="M56,16V48H8V16H56m1-3H7a2,2,0,0,0-2,2V49a2,2,0,0,0,2,2H57a2,2,0,0,0,2-2V15a2,2,0,0,0-2-2Z"/></g></svg>