<svg id="Payment_Cards_Monochrome_Paypal_64px" xmlns="http://www.w3.org/2000/svg" viewBox="0 0 64 64"><path d="M36.19 37.48h-1.87a.26.26 0 00-.25.22l-.76 4.78a.16.16 0 00.13.18h1a.18.18 0 00.18-.16l.22-1.36a.25.25 0 01.25-.21h.59a1.91 1.91 0 002.12-1.77 1.47 1.47 0 00-.25-1.16 1.69 1.69 0 00-1.36-.52zm.22 1.75c-.11.67-.62.67-1.11.67H35l.19-1.25a.16.16 0 01.16-.13h.12c.34 0 .66 0 .82.19a.6.6 0 01.1.52zM22.88 37.48H21a.26.26 0 00-.25.22L20 42.48a.16.16 0 00.13.18h.92a.28.28 0 00.25-.22l.21-1.3a.25.25 0 01.25-.21h.59a1.93 1.93 0 002.13-1.77 1.47 1.47 0 00-.24-1.16 1.72 1.72 0 00-1.36-.52zm.21 1.75c-.1.67-.61.67-1.1.67h-.29l.2-1.25a.16.16 0 01.15-.13h.13c.34 0 .66 0 .82.19a.6.6 0 01.09.52zM28.46 39.21h-.89a.16.16 0 00-.16.12v.26l-.06-.1a1.26 1.26 0 00-1-.37 2 2 0 00-2 1.79 1.74 1.74 0 00.33 1.38 1.41 1.41 0 001.13.45 1.71 1.71 0 001.19-.51v.26a.16.16 0 00.13.18h.82a.27.27 0 00.26-.22l.48-3.06a.15.15 0 00-.13-.18zM27.21 41a1 1 0 01-1 .85.69.69 0 01-.76-.62.71.71 0 010-.25 1 1 0 011-.86.7.7 0 01.74.88zM41.77 39.21h-.89a.16.16 0 00-.16.12v.26l-.06-.1a1.28 1.28 0 00-1.06-.37 2 2 0 00-2 1.79 1.71 1.71 0 00.33 1.38 1.4 1.4 0 001.13.45 1.71 1.71 0 001.24-.51l-.05.26a.17.17 0 00.14.18h.82a.27.27 0 00.26-.22l.48-3.06a.16.16 0 00-.13-.18zM40.52 41a1 1 0 01-1 .85.81.81 0 01-.6-.24.75.75 0 01-.14-.63 1 1 0 011-.86.74.74 0 01.6.24.77.77 0 01.15.64zM33.22 39.21h-.9a.27.27 0 00-.22.11l-1.24 1.83-.52-1.76a.26.26 0 00-.26-.18h-.88a.16.16 0 00-.16.15l1 2.91-.93 1.31a.16.16 0 000 .22.12.12 0 00.09 0h.89a.27.27 0 00.22-.12l3-4.31a.16.16 0 000-.22zM42.82 37.61l-.76 4.87a.15.15 0 00.13.18H43a.26.26 0 00.25-.22l.75-4.78a.17.17 0 00-.13-.18H43a.16.16 0 00-.18.13zM37.82 24.06a3.06 3.06 0 00-.66-2.77c-.71-.82-2-1.17-3.67-1.17h-4.81a.69.69 0 00-.68.59l-2 12.7a.41.41 0 00.34.48h3l.75-4.73v.15a.68.68 0 01.68-.58h1.41c2.77 0 4.94-1.13 5.58-4.39v-.28"/><path d="M38.89 24.24l-.2-.2a.77.77 0 010 .15c0 .1 0 .2-.05.31-.06.29-.13.58-.22.87a3.39 3.39 0 01.09 2c-.44 2.3-1.87 3.41-4.37 3.41h-.38a1.11 1.11 0 00-1.1.94v.16l-.48 3V35a.08.08 0 01-.08.07h-2.39l.05-.33h-1.05l-.05.36a.87.87 0 00.74 1H32a1.11 1.11 0 001.11-.93v-.12l.48-3v-.16a.08.08 0 01.08-.07h.38a5.81 5.81 0 003.44-.95 5 5 0 001.94-3.3 3.76 3.76 0 00-.54-3.33z"/><path d="M56 16v32H8V16h48m1-3H7a2 2 0 00-2 2v34a2 2 0 002 2h50a2 2 0 002-2V15a2 2 0 00-2-2z"/></svg>