<svg id="Payment_Cards_Monochrome_Oney-LMES_32px" xmlns="http://www.w3.org/2000/svg" viewBox="0 0 32 32"><path fill-rule="evenodd" d="M4 5.667a1 1 0 00-1 1v18.666a1 1 0 001 1h24a1 1 0 001-1V6.667a1 1 0 00-1-1H4zm1 18.666V7.667h22V18.04l-4.395-4.026-11.284 10.32H5zM15.395 10.67l-.116-.013-.03-.02h-.058c-.281.01-.554.095-.79.248a1.667 1.667 0 00-.716 1.755 1.647 1.647 0 003.005.556c.017-.024.032-.052.047-.08l.002-.004.032-.058h-.63a.083.083 0 00-.045.022 1.09 1.09 0 01-.775.334 1.042 1.042 0 01-1.053-.834v-.025h2.575c.025-.179.025-.36 0-.539a1.625 1.625 0 00-1.255-1.316 2.317 2.317 0 00-.193-.026zm.823 1.348h-1.933a1.008 1.008 0 011.025-.792c.428.023.908.428.908.792zm-7.667-1.346H8.55l-.098-.015h-.25a4.018 4.018 0 01-.087.013 1.639 1.639 0 00-1.446 1.479v.35c.025.143.063.284.111.422a1.592 1.592 0 001.497 1.064 1.57 1.57 0 001.317-.575 1.666 1.666 0 00-1.044-2.74zm.826 1.418c.014.077.025.155.03.234 0 .54-.387 1-.919 1.094a1.072 1.072 0 01-1.197-.808 1.11 1.11 0 01.675-1.311 1.067 1.067 0 011.411.792zm8.719 1.695c-.156.386-.311.772-.472 1.158l.639.02.488-1.184 1.25-3.055a.395.395 0 000-.056h-.627l-.578 1.417-.16.388a44.23 44.23 0 01-.212.517.183.183 0 01-.017-.028l-.925-2.269a.075.075 0 010-.025h-.666c.427 1.015.854 2.033 1.28 3.055a.077.077 0 010 .062zm-6.13-3.128l.083.012c.056.008.111.015.167.03.51.098.917.484 1.041.989.034.136.05.276.05.416v1.881h-.602V12.16c0-.131-.014-.261-.042-.39a.683.683 0 00-.556-.54 1.223 1.223 0 00-.555 0 .708.708 0 00-.586.621 1.54 1.54 0 00-.025.32v1.802h-.6a.092.092 0 010-.027V12.02a1.28 1.28 0 01.461-1.014 1.46 1.46 0 01.833-.347h.056l.275-.003z"/></svg>