<svg xmlns="http://www.w3.org/2000/svg" viewBox="0 0 48 48"><defs></defs><g id="Icon"><path  d="M42,10H6a2,2,0,0,0-2,2V36a2,2,0,0,0,2,2H42a2,2,0,0,0,2-2V12A2,2,0,0,0,42,10Zm0,26H6V12H42Z"/><path  d="M11,20a1,1,0,0,0,0,2h8.59l-.8.79a1,1,0,0,0,0,1.42,1,1,0,0,0,1.42,0L22.41,22H37a1,1,0,0,0,0-2H24.41l2-2H37a1,1,0,0,0,0-2H28.41l.8-.79a1,1,0,0,0-1.42-1.42L25.59,16H11a1,1,0,0,0,0,2H23.59l-2,2Z"/><path  d="M11,34H21a1,1,0,0,0,1-1V28a1,1,0,0,0-1-1H11a1,1,0,0,0-1,1v5A1,1,0,0,0,11,34Zm1-5h8v3H12Z"/><path  d="M36.62,32c-2-4-2.59-4-3.12-4s-.93,0-2.41,2.67C29.38,27,28.44,27,28,27s-1.68,0-3.93,5.63a1,1,0,0,0,.56,1.3A1,1,0,0,0,25,34a1,1,0,0,0,.93-.63A23,23,0,0,1,28,29.25a23,23,0,0,1,2.07,4.12A1,1,0,0,0,31,34a1,1,0,0,0,.93-.55c.51-1,1.15-2.19,1.61-2.92.46.73,1.1,1.9,1.61,2.92A1,1,0,0,0,36,34h2a1,1,0,0,0,0-2Z"/></g></svg>