<svg xmlns="http://www.w3.org/2000/svg" viewBox="0 0 32 32"><defs></defs><g id="Icon"><path  d="M23.65,17.21v-.14h-.06v0h.16v0h-.06v.14Zm.3,0v-.13l0,.11h0l0-.11v.13h0V17h.07l0,.11,0-.11H24v.18Z"/><polygon  points="9.68 20.56 22.1 20.56 15.89 14.32 9.68 20.56"/><polygon  points="9.41 20.28 10.37 19.32 10.05 19 9.45 19.6 8.36 18.5 8 18.87 9.41 20.28"/><polyline  points="9.78 17.66 10.03 17.9 10.52 17.4 10.81 17.69 10.31 18.19 10.62 18.5 11.24 17.88 11.52 18.17 10.54 19.14 9.14 17.73 10.11 16.75 10.39 17.04 9.78 17.66"/><path  d="M13,16.72l-1-.27h0a.59.59,0,0,0-.13-.69.57.57,0,0,0-.81,0h0l-.71.71,1.41,1.42.36-.36L11,16.42l.23-.23a.28.28,0,0,1,.37,0,.27.27,0,0,1,0,.37l-.21.21,1.22.35Z"/><path  d="M12.31,14.48a1,1,0,0,1,1.43,0,1,1,0,1,1-1.43,0Zm.27.28c-.22.23-.14.5.13.78s.54.35.77.12.15-.5-.13-.77S12.81,14.54,12.58,14.76Z"/><polygon  points="14.18 13.74 13.91 12.94 14.33 12.51 14.68 13.89 15.23 14.44 14.87 14.8 14.32 14.25 13.01 13.84 13.41 13.44 14.16 13.73 14.18 13.74"/><polygon  points="20.7 18.6 22.11 17.19 21.73 16.81 20.32 18.23 20.7 18.6"/><polygon  points="15.31 13.2 16.4 12.67 15.6 13.48 15.92 13.81 17.33 12.4 16.89 11.94 15.82 12.46 15.82 12.46 16.35 11.41 15.89 10.94 14.48 12.36 14.81 12.69 15.62 11.88 15.09 12.98 15.31 13.2"/><polyline  points="17.75 13.4 17.52 13.64 18.05 14.19 17.77 14.47 17.23 13.93 16.92 14.24 17.57 14.89 17.29 15.18 16.27 14.16 17.69 12.74 18.7 13.77 18.42 14.06 17.75 13.4"/><polygon  points="19.09 16.99 20.05 17.96 20.37 17.64 19.77 17.03 20.86 15.93 20.5 15.58 19.09 16.99"/><polygon  points="22.93 18.01 22.47 19.51 22.47 19.51 23.45 18.53 23.78 18.87 22.37 20.29 21.93 19.84 22.32 18.3 22.32 18.29 21.35 19.26 21.02 18.93 22.43 17.51 22.93 18.01"/><path  d="M18.85,16.76l.28-1h0a.6.6,0,0,0,.69-.14.59.59,0,0,0,0-.81h0L19,14.08,17.61,15.5l.35.36,1.15-1.15.27.28a.26.26,0,1,1-.33.39l0,0-.25-.26-.3,1.27Z"/><path  d="M27,25H5a2,2,0,0,1-2-2V9A2,2,0,0,1,5,7H27a2,2,0,0,1,2,2V23A2,2,0,0,1,27,25ZM5,8A1,1,0,0,0,4,9V23a1,1,0,0,0,1,1H27a1,1,0,0,0,1-1V9a1,1,0,0,0-1-1Z"/></g></svg>