<svg xmlns="http://www.w3.org/2000/svg" viewBox="0 0 64 64"><defs></defs><g id="Icon"><path  d="M57,33H55.59V29.09A8.06,8.06,0,0,0,53,23.17V15a2,2,0,0,0-2-2H7a2,2,0,0,0-2,2V49a2,2,0,0,0,2,2H36v2a2,2,0,0,0,2,2H57a2,2,0,0,0,2-2V35A2,2,0,0,0,57,33ZM42.41,29.09a5.09,5.09,0,0,1,10.18,0V33H42.41ZM50,16v5H8V16ZM8,48V24H41.22a8,8,0,0,0-1.81,5.09V33H38a2,2,0,0,0-2,2v7H33.69a1,1,0,0,0,0,2H36v4Zm48,4H39V36H56Z"/><path  d="M13.5,35.5h9A1.5,1.5,0,0,0,24,34V30a1.5,1.5,0,0,0-1.5-1.5h-9A1.5,1.5,0,0,0,12,30v4A1.5,1.5,0,0,0,13.5,35.5Zm.5-5h8v3H14Z"/><path  d="M18.5,42H13a1,1,0,0,0,0,2h5.5a1,1,0,0,0,0-2Z"/><path  d="M28.84,42h-5.5a1,1,0,0,0,0,2h5.5a1,1,0,1,0,0-2Z"/><path  d="M44.73,43.15a3.15,3.15,0,0,0,.28.51,2.33,2.33,0,0,0,.37.46,3.12,3.12,0,0,0,.62.46V47.5a1.5,1.5,0,0,0,3,0V44.58a3.12,3.12,0,0,0,.62-.46,3,3,0,0,0,0-4.24,3.1,3.1,0,0,0-4.24,0,2.6,2.6,0,0,0-.37.45,3.74,3.74,0,0,0-.28.52,3.62,3.62,0,0,0-.17.56,3,3,0,0,0-.06.59,3,3,0,0,0,.06.59A3.62,3.62,0,0,0,44.73,43.15Z"/></g></svg>