<svg id="Payment_Cards_Monochrome_Illicado_32px" xmlns="http://www.w3.org/2000/svg" viewBox="0 0 32 32"><path d="M23.87 17.48v-.15h-.06.19-.06v.15zm.3 0v-.13.11-.11.13H24v-.18h.07v.11-.11h.07v.18z"/><path d="M6.09 20.41h15.48a4.43 4.43 0 004.35-3.59 4.4 4.4 0 00-3.5-5.15 4.67 4.67 0 00-.83-.08H10.41a4.41 4.41 0 00-4.27 3.3 4.15 4.15 0 00-.14 1v4.39c0 .13 0 .13.09.13zm15.5-3.87a1.17 1.17 0 01.68-.86 1.36 1.36 0 01.6-.1 1.1 1.1 0 011 .6 1.43 1.43 0 01.14.47A1.2 1.2 0 0122.72 18a1 1 0 01-.25 0 1.19 1.19 0 01-.9-.86 1.44 1.44 0 010-.62zm-2.68-.1a1 1 0 01.28-.52 1.26 1.26 0 011-.31.71.71 0 01.28.09v-.06c0-.58 0-1.16.05-1.74a.29.29 0 01.22-.27h.11c.11 0 .15 0 .17.14a1 1 0 010 .29c0 .38-.05.77-.07 1.16s0 .78 0 1.16v.5c0 .16.1.58.15.87a.11.11 0 010 .11.27.27 0 01-.3.1.27.27 0 01-.07-.08 1.34 1.34 0 01-.07-.18c0-.06 0 0 0 0s-.15.12-.23.18a1.06 1.06 0 01-.85.14.94.94 0 01-.7-.66 1.39 1.39 0 010-.88zm-3 .29a1.3 1.3 0 01.47-.86 1.48 1.48 0 011.37-.17l.11.05a.14.14 0 00.15 0 .33.33 0 01.17 0c.12 0 .16 0 .16.16v.93a5.54 5.54 0 00.13.91c0 .13 0 .19-.13.24a.19.19 0 01-.29-.1 1.22 1.22 0 01-.07-.17l-.15.1a1.31 1.31 0 01-1 .22 1.16 1.16 0 01-.87-.82 1.08 1.08 0 01-.05-.49zm-2.66-.53a1.47 1.47 0 01.74-.56 1.11 1.11 0 01.54-.05 1.29 1.29 0 01.71.35.65.65 0 01.15.18.18.18 0 01-.06.26c-.1.08-.15.08-.24 0l-.16-.14a.79.79 0 00-.7-.2.8.8 0 00-.69.92.65.65 0 00.47.57 1.15 1.15 0 00.55 0 .65.65 0 00.51-.33.39.39 0 01.08-.1.15.15 0 01.22 0h.08a.2.2 0 01.05.22v.09a.9.9 0 01-.56.47 1.64 1.64 0 01-.85.08 1.06 1.06 0 01-.9-.72 1.16 1.16 0 01-.08-.42 1.12 1.12 0 01.18-.66zm-1.39.72v-.8a1.53 1.53 0 01.07-.36.23.23 0 01.27-.15.22.22 0 01.21.24v.62a7.49 7.49 0 000 1.16v.17a.17.17 0 01-.16.19.44.44 0 01-.29-.09.16.16 0 01-.06-.13v-.86zm-.07-2.24a.43.43 0 01.54-.42c.26.08.26.17.31.34a.39.39 0 01-.24.49.42.42 0 01-.54-.25.14.14 0 010-.07v-.1zM10.49 16v-.69a11.69 11.69 0 01.11-1.19 1.37 1.37 0 01.08-.35.2.2 0 01.12-.15.36.36 0 01.27 0 .16.16 0 01.11.17l-.06.48a7.93 7.93 0 00-.08 1v2a3.93 3.93 0 000 .45.27.27 0 010 .19c-.06.1-.38.11-.44 0a.31.31 0 01-.05-.1v-.13a6.78 6.78 0 01-.1-1V16zm-1.29.1c0-.56 0-1.12.08-1.68v-.26a1.61 1.61 0 01.08-.38.25.25 0 01.33-.18.19.19 0 01.16.19.38.38 0 010 .15 3.12 3.12 0 00-.05.44c0 .29-.06.58-.08.88v1.98l.06.52a.15.15 0 01-.13.18.17.17 0 01-.12 0 .26.26 0 01-.25-.16 1 1 0 010-.16 3 3 0 01-.08-.52.53.53 0 000-.13v-.83zM8 15.7a.3.3 0 01.3-.08.26.26 0 01.18.2 1.24 1.24 0 010 .27v1.69c0 .14 0 .19-.18.21h-.01c-.2 0-.28 0-.28-.25v-1-.92A.18.18 0 018 15.7zm-.28-1a.47.47 0 01.42-.48.43.43 0 01.44.42.42.42 0 01-.41.46.46.46 0 01-.42-.38z"/><path d="M20 16h-.21a.59.59 0 00-.47.4 1.26 1.26 0 00-.07.51.61.61 0 00.83.54.62.62 0 00.46-.59 1.39 1.39 0 000-.5.5.5 0 00-.05-.13.42.42 0 00-.36-.25zM17.93 16.82a1.67 1.67 0 000-.32.48.48 0 00-.44-.45 1.07 1.07 0 00-.56 0 .83.83 0 00-.55 1 .59.59 0 00.17.32.81.81 0 00.78.22 1 1 0 00.45-.24.51.51 0 00.17-.41zM22.77 17.6a.84.84 0 00.48-.16.62.62 0 00.28-.44 1.06 1.06 0 000-.53.68.68 0 00-.64-.47 1.32 1.32 0 00-.39.06.71.71 0 00-.47.52A1.14 1.14 0 0022 17a.76.76 0 00.77.6z"/><path d="M27 25H5a2 2 0 01-2-2V9a2 2 0 012-2h22a2 2 0 012 2v14a2 2 0 01-2 2zM5 8a1 1 0 00-1 1v14a1 1 0 001 1h22a1 1 0 001-1V9a1 1 0 00-1-1z"/></svg>