<svg id="Payment_Receipt_24px" xmlns="http://www.w3.org/2000/svg" viewBox="0 0 24 24"><path d="M16.67 10.58a.51.51 0 00-.71-.06 2 2 0 01-1.31.48 2 2 0 01-1.55-.75h1.61a.5.5 0 000-1h-2a1.9 1.9 0 010-.25 1.9 1.9 0 010-.25h2a.5.5 0 000-1H13.1a2 2 0 012.77-.34.51.51 0 00.7-.1.5.5 0 00-.09-.7 3 3 0 00-4.56 1.14h-.21a.5.5 0 00-.5.5.49.49 0 00.46.49 2.3 2.3 0 000 .26 2.3 2.3 0 000 .26.49.49 0 00-.46.49.5.5 0 00.5.5h.21A3 3 0 0014.65 12a3 3 0 002-.72.49.49 0 00.02-.7z"/><path d="M19 2H9a1 1 0 00-1 1v13H5a1 1 0 00-1 1v2.5A2.5 2.5 0 006.5 22h11a2.5 2.5 0 002.5-2.5V3a1 1 0 00-1-1zM6.5 20a.5.5 0 01-.5-.5V18h9v1.5a2.73 2.73 0 00.05.5zm3.5-4V4h8v15.5a.5.5 0 01-1 0V17a1 1 0 00-1-1z"/></svg>