<svg id="Payment_Cards_Monochrome_Oney_32px" xmlns="http://www.w3.org/2000/svg" viewBox="0 0 32 32"><path d="M18.64 13.86c.14 0 .28 0 .42.05a2.2 2.2 0 011.69 1.78 2.55 2.55 0 010 .73h-3.5a1.4 1.4 0 001.42 1.13 1.44 1.44 0 001.05-.45H20.63c0 .07-.07.14-.11.2a2.22 2.22 0 01-1.5 1 2.2 2.2 0 01-2.56-1.74 2.26 2.26 0 011-2.37 2 2 0 011.07-.33h.13zm-1.36 1.84h2.64a1.35 1.35 0 00-2.64 0zM9.41 13.86l.33.05A2.26 2.26 0 0111 17.57a2.11 2.11 0 01-1.78.78 2.16 2.16 0 01-2-1.43 4.92 4.92 0 01-.22-.58v-.42a.07.07 0 000-.05 2.2 2.2 0 011.72-1.95l.35-.06zm1.29 2.25v-.32A1.44 1.44 0 009 14.66l-.21.05a1.49 1.49 0 00-.91 1.77 1.43 1.43 0 001.61 1.09 1.48 1.48 0 001.21-1.46zM21.79 19.64c.22-.52.43-1 .64-1.56a.11.11 0 000-.08l-1.73-4.14h.89c.42 1 .84 2 1.25 3.06v-.07c.15-.39.31-.77.47-1.15l.78-1.91H25v.07c-.56 1.37-1.12 2.74-1.69 4.11-.22.54-.44 1.07-.65 1.6zM14.15 13.86l.34.05a1.81 1.81 0 011.41 1.34 2.6 2.6 0 01.06.56v2.54h-.81V15.9a2.24 2.24 0 00-.06-.52.93.93 0 00-.75-.74 1.84 1.84 0 00-.74 0 1 1 0 00-.8.84 3.11 3.11 0 000 .43v2.44H12v-2.6a1.74 1.74 0 01.62-1.37 2 2 0 011.11-.47h.46z"/><path d="M27 25H5a2 2 0 01-2-2V9a2 2 0 012-2h22a2 2 0 012 2v14a2 2 0 01-2 2zM5 8a1 1 0 00-1 1v14a1 1 0 001 1h22a1 1 0 001-1V9a1 1 0 00-1-1z"/></svg>