<svg xmlns="http://www.w3.org/2000/svg" viewBox="0 0 24 24"><defs></defs><g id="Icon"><path  d="M17,9.59v.25l-.14-.25h-1v.25l-.14-.25H14.22a1.17,1.17,0,0,0-.61.13V9.59h-1v.13a.56.56,0,0,0-.41-.13H8.62l-.24.55-.25-.55H7v.25l-.13-.25h-1l0,.08,0,.1-.66,1.55L5,11.75H6.09l.14-.34h.33l.14.34H7.94v-.26l.11.26H8.7l.11-.27v.27h3.08v-.57H12c.05,0,.06,0,.06.08v.49h1.6v-.14a1.2,1.2,0,0,0,.59.14h.67L15,11.4h.32l.14.35h1.3v-.33l.2.33h1V9.59Zm-7.9,1.85V10.23l-.53,1.21H8.21l-.53-1.21v1.21H6.92l-.14-.34H6l-.14.34h-.4L6.13,9.9h.55l.63,1.46V9.9h.6l.48,1,.45-1h.61v1.54ZM11,10.22H10.1v.27h.84v.32H10.1v.31H11v.32H9.73V9.9H11Zm1.67.63a.48.48,0,0,1,.06.29v.3h-.38v-.19a.5.5,0,0,0-.05-.3c-.07-.08-.14-.07-.27-.07h-.4v.56h-.37V9.9h.85a.87.87,0,0,1,.45.07.36.36,0,0,1,.18.34.42.42,0,0,1-.25.41A.46.46,0,0,1,12.63,10.85Zm.66.59h-.37V9.9h.37Zm4.38,0h-.52l-.7-1.16v1.16H15.7l-.15-.34h-.77l-.14.34h-.43a.75.75,0,0,1-.53-.17.78.78,0,0,1-.2-.59.76.76,0,0,1,.2-.61c.15-.16.3-.17.56-.17h.36v.33h-.36a.35.35,0,0,0-.28.09.49.49,0,0,0-.11.35A.53.53,0,0,0,14,11a.29.29,0,0,0,.25.08h.17L14.9,9.9h.56l.62,1.46V9.9h.57L17.29,11V9.9h.38Z"/><path  d="M12.22,10.25a.29.29,0,0,0-.18,0h-.45v.34H12a.28.28,0,0,0,.18,0,.18.18,0,0,0,.08-.15A.13.13,0,0,0,12.22,10.25Z"/><polygon  points="14.91 10.78 15.43 10.78 15.17 10.16 14.91 10.78"/><polygon  points="6.14 10.78 6.65 10.78 6.4 10.16 6.14 10.78"/><path  d="M12,12.88h-.48v.39H12c.14,0,.23-.07.23-.2S12.14,12.88,12,12.88Z"/><polygon  points="8.78 12.88 8.78 13.16 9.59 13.16 9.59 13.47 8.78 13.47 8.78 13.78 9.69 13.78 10.11 13.33 9.71 12.88 8.78 12.88"/><polygon  points="11.15 13.96 11.15 12.72 10.59 13.33 11.15 13.96"/><path  d="M13.8,12.91a.25.25,0,0,0-.17,0h-.46v.34h.45a.28.28,0,0,0,.18,0,.16.16,0,0,0,.08-.14A.15.15,0,0,0,13.8,12.91Z"/><path  d="M19,13.61a.8.8,0,0,0-.11-.42h0v-.94H17.88a1,1,0,0,0-.41.08v-.08h-1a.63.63,0,0,0-.43.13v-.13H14.2v.13a.88.88,0,0,0-.49-.13H12.52v.13a.86.86,0,0,0-.52-.13H10.66l-.31.33-.28-.33h-2v2.16H10l.32-.34.29.34h1.21V13.9H12a1.16,1.16,0,0,0,.51-.08v.59h1v-.56h0c.06,0,.07,0,.07.06v.5h3a.84.84,0,0,0,.47-.12v.12h1a1.31,1.31,0,0,0,.44-.07l.06,0h0A.79.79,0,0,0,19,13.61Zm-7,0h-.46v.52h-.71l-.46-.51-.47.51H8.41V12.56H9.9l.45.5.47-.5H12c.3,0,.63.08.63.51s-.32.51-.65.51Zm2.23-.07a.48.48,0,0,1,.06.29v.3H13.9v-.19c0-.09,0-.23-.06-.3s-.14-.07-.27-.07h-.4v.56H12.8V12.56h.85a.87.87,0,0,1,.45.07.36.36,0,0,1,.19.35.45.45,0,0,1-.26.41.44.44,0,0,1,.18.12Zm1.52-.63h-.87v.28h.85v.31h-.85v.31h.87v.32H14.49V12.56h1.24ZM16,14.1v-.33h.72a.21.21,0,0,0,.15,0,.14.14,0,0,0,0-.19h0a.16.16,0,0,0-.13,0c-.35,0-.78,0-.78-.48,0-.23.14-.46.53-.46h.74v.33H16.5a.32.32,0,0,0-.15,0,.11.11,0,0,0-.05.12.1.1,0,0,0,.07.11.39.39,0,0,0,.15,0h.2a.54.54,0,0,1,.42.13.39.39,0,0,1,.11.32c0,.34-.21.49-.58.49Zm2.66-.19,0,0,0,0,0,0h0l0,0h0a1.06,1.06,0,0,1-.19.06H17.4v-.34h.71a.21.21,0,0,0,.15,0,.1.1,0,0,0,0-.1.11.11,0,0,0,0-.09.16.16,0,0,0-.13,0c-.35,0-.78,0-.78-.48a.41.41,0,0,1,.11-.31s0,0,0,0v0l0,0h0l0,0h1v.33h-.73a.19.19,0,0,0-.1,0h0a.09.09,0,0,0-.05.11.1.1,0,0,0,.07.11.39.39,0,0,0,.15,0h.2a1,1,0,0,1,.35.07l.07.06h0a.44.44,0,0,1,.1.31.46.46,0,0,1-.08.28Z"/><path  d="M21,19H3a1,1,0,0,1-1-1V6A1,1,0,0,1,3,5H21a1,1,0,0,1,1,1V18A1,1,0,0,1,21,19Zm0-1v0ZM3,6V18H21V6Z"/></g></svg>