<svg id="Payment_Bill_64px" xmlns="http://www.w3.org/2000/svg" viewBox="0 0 64 64"><path d="M49 5H15a2 2 0 00-2 2v50a2 2 0 002 2h34a2 2 0 002-2V7a2 2 0 00-2-2zm-1 51H16V8h32z"/><path d="M29 42a1 1 0 001 1h12a1 1 0 000-2H30a1 1 0 00-1 1zM42 46.5H30a1 1 0 000 2h12a1 1 0 000-2zM23 24.5a1 1 0 001 1h1.73a8.79 8.79 0 008.21 5.5 9 9 0 005.7-2 1 1 0 00-1.28-1.54A7 7 0 0133.94 29a6.82 6.82 0 01-6-3.5H33a1 1 0 000-2h-5.75a5.55 5.55 0 01-.09-1V22H33a1 1 0 000-2h-5.32a6.79 6.79 0 016.26-4 6.88 6.88 0 014.12 1.34 1 1 0 001.18-1.62 8.93 8.93 0 00-5.3-1.72 8.76 8.76 0 00-8.39 6H24a1 1 0 000 2h1.18v.5a8.26 8.26 0 00.06 1H24a1 1 0 00-1 1z"/><circle cx="24" cy="42" r="1.5"/><circle cx="24" cy="47.5" r="1.5"/></svg>