<svg xmlns="http://www.w3.org/2000/svg" viewBox="0 0 32 32"><defs></defs><g id="Icon"><path  d="M23.59,17.42v-.14h-.06v0h.15v0h-.06v.14Zm.29,0V17.3l0,.1h0l0-.1v.12h-.05v-.17h.07l0,.11,0-.11h.07v.17Z"/><path  d="M7,14.1h.64v.21h0a1.36,1.36,0,0,1,.7-.26,2.56,2.56,0,0,1,.73,0,1,1,0,0,1,.75.82A3.41,3.41,0,0,1,9.91,16a2.57,2.57,0,0,1-.08.62,1,1,0,0,1-.91.8,7.56,7.56,0,0,1-.83,0V16.8h.27a2.19,2.19,0,0,0,.36,0,.39.39,0,0,0,.34-.32,1.44,1.44,0,0,0,.07-.36,4.73,4.73,0,0,0,0-.92.94.94,0,0,0,0-.16.38.38,0,0,0-.33-.29,1.42,1.42,0,0,0-.58,0,.47.47,0,0,0-.36.46c0,.08,0,.15,0,.23V18.6H7.08c-.06,0-.07,0-.07-.06s0-.22,0-.33Z"/><path  d="M21.12,12v.1c0,1.37,0,2.74,0,4.11a2.07,2.07,0,0,0,.06.5.83.83,0,0,0,.65.65,2.5,2.5,0,0,0,1.33,0,1.07,1.07,0,0,0,.81-.86A3.59,3.59,0,0,0,24,15a1,1,0,0,0-.95-.86,6.89,6.89,0,0,0-.79,0h0v.65h.52a.47.47,0,0,1,.49.43,3.54,3.54,0,0,1,0,1.17.45.45,0,0,1-.48.44,1.7,1.7,0,0,1-.45,0c-.24,0-.35-.17-.37-.43V12.11a3.9,3.9,0,0,1,2.63,2.09,3.82,3.82,0,0,1-.34,4.16A3.94,3.94,0,0,1,20.62,20V15.29H19.8V19.8a3.91,3.91,0,0,1-2.59-2.58,4,4,0,0,1,.71-3.76h0v3.07c0,.12,0,.23,0,.35a.65.65,0,0,0,.52.54,4.53,4.53,0,0,0,.83,0v-.69H18.9c-.1,0-.14,0-.15-.14v-.2c0-1.21,0-2.41,0-3.61a.16.16,0,0,1,.08-.15A4,4,0,0,1,21.07,12Zm-1.37,2.53a.4.4,0,0,0,.31.44,1.07,1.07,0,0,0,.25,0,.37.37,0,0,0,.36-.37v-.14a.39.39,0,0,0-.32-.38h-.19a.39.39,0,0,0-.41.44Z"/><path  d="M13.58,14.11h.79v.09c0,.68,0,1.37,0,2.06a2.11,2.11,0,0,0,0,.26.29.29,0,0,0,.21.23,1.11,1.11,0,0,0,.72,0,.31.31,0,0,0,.23-.3c0-.07,0-.15,0-.22,0-.68,0-1.36,0-2v-.09h.76s0,.05,0,.07c0,1.19,0,2.38,0,3.57a1.47,1.47,0,0,1,0,.36.56.56,0,0,1-.47.46,4.38,4.38,0,0,1-.82,0V18h.43a.12.12,0,0,0,.12-.12v-.43l-.54,0a2,2,0,0,1-.77-.1.91.91,0,0,1-.63-.84c0-.12,0-.24,0-.37,0-.65,0-1.29,0-1.94Z"/><path  d="M13.15,14.1v3.35h-.78v-.17a1.36,1.36,0,0,1-.28.11,1.86,1.86,0,0,1-1.07,0,1,1,0,0,1-.71-.82,2.14,2.14,0,0,1-.06-.5,4.12,4.12,0,0,1,.05-1.11,1,1,0,0,1,1-.89,3.2,3.2,0,0,1,.69,0,1.19,1.19,0,0,1,.48.23V14.1Zm-.78,1.63h0a2.43,2.43,0,0,0,0-.27,2.43,2.43,0,0,0,0-.27A.45.45,0,0,0,12,14.7h-.47a.44.44,0,0,0-.4.34,1.16,1.16,0,0,0,0,.18c0,.3,0,.6,0,.9a1.61,1.61,0,0,0,.07.37.37.37,0,0,0,.34.3,1.7,1.7,0,0,0,.45,0,.51.51,0,0,0,.48-.56Z"/><path  d="M27,25H5a2,2,0,0,1-2-2V9A2,2,0,0,1,5,7H27a2,2,0,0,1,2,2V23A2,2,0,0,1,27,25ZM5,8A1,1,0,0,0,4,9V23a1,1,0,0,0,1,1H27a1,1,0,0,0,1-1V9a1,1,0,0,0-1-1Z"/></g></svg>