<svg id="Payment_Cards_Monochrome_Cheque_48px" xmlns="http://www.w3.org/2000/svg" viewBox="0 0 48 48"><path d="M42 10H6a2 2 0 00-2 2v24a2 2 0 002 2h36a2 2 0 002-2V12a2 2 0 00-2-2zm0 26H6V12h36z"/><path d="M11 20a1 1 0 000 2h8.59l-.8.79a1 1 0 000 1.42 1 1 0 001.42 0l2.2-2.21H37a1 1 0 000-2H24.41l2-2H37a1 1 0 000-2h-8.59l.8-.79a1 1 0 00-1.42-1.42L25.59 16H11a1 1 0 000 2h12.59l-2 2zM11 34h10a1 1 0 001-1v-5a1 1 0 00-1-1H11a1 1 0 00-1 1v5a1 1 0 001 1zm1-5h8v3h-8zM36.62 32c-2-4-2.59-4-3.12-4s-.93 0-2.41 2.67C29.38 27 28.44 27 28 27s-1.68 0-3.93 5.63a1 1 0 00.56 1.3A1 1 0 0025 34a1 1 0 00.93-.63A23 23 0 0128 29.25a23 23 0 012.07 4.12A1 1 0 0031 34a1 1 0 00.93-.55c.51-1 1.15-2.19 1.61-2.92.46.73 1.1 1.9 1.61 2.92A1 1 0 0036 34h2a1 1 0 000-2z"/></svg>