<svg xmlns="http://www.w3.org/2000/svg" viewBox="0 0 64 64"><defs></defs><g id="Icon"><path  d="M45.15,25.63v.67l-.39-.67H42v.67l-.35-.67H37.87a3.33,3.33,0,0,0-1.63.33v-.33h-2.6V26a1.61,1.61,0,0,0-1.1-.33H23.06l-.63,1.47-.66-1.47h-3v.67l-.33-.67H15.9l0,.21-.13.27L14,30.21l-.49,1.13h2.89l.37-.9h.86l.37.9h3.28v-.69l.29.69h1.71l.29-.71v.71h8.16v-1.5h.15c.12,0,.15,0,.15.19v1.3h4.22V31a3.39,3.39,0,0,0,1.56.35h1.78l.39-.91h.84l.37.91H44.6v-.87l.52.87h2.74v-5.7ZM24.26,30.52V27.33l-1.41,3.19H22l-1.41-3.2v3.2h-2l-.38-.9h-2l-.38.9h-1l1.74-4.08h1.46l1.65,3.87V26.44h1.6l1.28,2.77,1.17-2.77h1.63v4.08Zm5-3.23H27V28H29.2v.85H27v.81h2.29v.84H26V26.44h3.26ZM33.65,29a1.17,1.17,0,0,1,.16.75v.8h-1V30a1.23,1.23,0,0,0-.15-.8C32.51,29,32.31,29,32,29H30.91v1.48h-1V26.44h2.24a2.31,2.31,0,0,1,1.18.19,1,1,0,0,1,.5.91,1.11,1.11,0,0,1-.68,1.08A1.08,1.08,0,0,1,33.65,29Zm1.77,1.55h-1V26.44h1Zm11.58,0H45.61l-1.85-3.06v3.06h-2l-.38-.9h-2l-.37.9H37.84a2,2,0,0,1-1.41-.45,2.06,2.06,0,0,1-.52-1.56,2,2,0,0,1,.52-1.6,1.71,1.71,0,0,1,1.49-.47h.95v.88h-.94a.91.91,0,0,0-.75.24,1.24,1.24,0,0,0-.28.92,1.43,1.43,0,0,0,.27,1,.79.79,0,0,0,.68.21h.44l1.38-3.21h1.46l1.66,3.86V26.44h1.49L46,29.28V26.44h1Z"/><path  d="M32.58,27.36a1.06,1.06,0,0,0-.46-.07H30.91v.91H32.1a1,1,0,0,0,.49-.09.43.43,0,0,0,.2-.39A.39.39,0,0,0,32.58,27.36Z"/><polygon  points="39.7 28.76 41.05 28.76 40.38 27.13 39.7 28.76"/><polygon  points="16.52 28.76 17.86 28.76 17.19 27.13 16.52 28.76"/><path  d="M32,34.32H30.74v1H32c.38,0,.61-.18.61-.54S32.37,34.32,32,34.32Z"/><polygon  points="23.49 34.32 23.49 35.06 25.63 35.06 25.63 35.9 23.49 35.9 23.49 36.7 25.89 36.7 27 35.51 25.94 34.32 23.49 34.32"/><polygon  points="29.77 37.19 29.77 33.91 28.27 35.53 29.77 37.19"/><path  d="M36.76,34.39a1,1,0,0,0-.46-.07H35.1v.92h1.19a1.09,1.09,0,0,0,.47-.08.44.44,0,0,0,.21-.4A.4.4,0,0,0,36.76,34.39Z"/><path  d="M50.5,36.27a2.13,2.13,0,0,0-.28-1.11h.08v-2.5H47.53a2.52,2.52,0,0,0-1.08.22v-.22H43.77a1.8,1.8,0,0,0-1.16.33v-.33H37.83V33a2.54,2.54,0,0,0-1.31-.33H33.36V33A2.22,2.22,0,0,0,32,32.66H28.46l-.81.88-.75-.88H21.64v5.7H26.8l.83-.88.79.88h3.19V37h.31a3.26,3.26,0,0,0,1.35-.21v1.54H35.9V36.88H36c.17,0,.19,0,.19.16v1.32h8a2.47,2.47,0,0,0,1.24-.3v.31h2.72a2.87,2.87,0,0,0,1.16-.2l.17-.07h0A2,2,0,0,0,50.5,36.27ZM32,36.18H30.74v1.38h-1.9l-1.2-1.35-1.25,1.35H22.52V33.47h3.93l1.2,1.34,1.24-1.34H32c.78,0,1.64.22,1.64,1.35s-.84,1.36-1.7,1.36ZM37.84,36a1.18,1.18,0,0,1,.16.75v.81H37v-.51a1.23,1.23,0,0,0-.16-.8c-.19-.18-.36-.18-.72-.18h-1v1.49h-1V33.47h2.25a2.44,2.44,0,0,1,1.18.19.94.94,0,0,1,.5.92,1.13,1.13,0,0,1-.7,1.08,1.21,1.21,0,0,1,.49.34Zm4-1.68H39.56v.74h2.23v.84H39.56v.81h2.29v.84H38.59V33.47h3.26Zm.59,3.24v-.88h1.9a.54.54,0,0,0,.39-.1.36.36,0,0,0,0-.51l0,0a.53.53,0,0,0-.35-.1c-.91,0-2.06,0-2.06-1.26,0-.6.37-1.22,1.4-1.22h2v.88H43.89a.69.69,0,0,0-.4.07.32.32,0,0,0-.14.3.31.31,0,0,0,.21.3,1.23,1.23,0,0,0,.38,0h.52a1.56,1.56,0,0,1,1.13.34,1.08,1.08,0,0,1,.28.85c0,.89-.54,1.3-1.53,1.3Zm7-.51,0,.06-.07.07-.08.08,0,0-.11.07h0a1.78,1.78,0,0,1-.51.16h0l-.15,0H46.27v-.88h1.88a.52.52,0,0,0,.4-.11.35.35,0,0,0,.11-.26.28.28,0,0,0-.13-.24.48.48,0,0,0-.33-.1c-.93,0-2.07,0-2.07-1.26a1.18,1.18,0,0,1,.3-.81.1.1,0,0,1,0,0l0-.05,0,0,.06,0,0,0,.07,0,0,0,.09,0h0l.11,0h0l.13,0h2.31v.87H47.57a.48.48,0,0,0-.26.07h0a.29.29,0,0,0-.15.3.29.29,0,0,0,.21.3,1,1,0,0,0,.38,0h.53a2,2,0,0,1,.92.19.7.7,0,0,1,.19.15l0,0a1.09,1.09,0,0,1,.28.83,1.29,1.29,0,0,1-.22.74Z"/><path  d="M56,16V48H8V16H56m1-3H7a2,2,0,0,0-2,2V49a2,2,0,0,0,2,2H57a2,2,0,0,0,2-2V15a2,2,0,0,0-2-2Z"/></g></svg>