<svg xmlns="http://www.w3.org/2000/svg" viewBox="0 0 48 48"><defs></defs><g id="Icon"><path  d="M36.05,26.22V26H36V26h.24V26h-.09v.22Zm.46,0V26l-.06.16h-.07L36.32,26v.19h-.07V26h.1l.07.17.06-.17h.1v.27Z"/><path  d="M9.39,30.62H32.6a6.63,6.63,0,0,0,6.53-5.38,6.61,6.61,0,0,0-5.25-7.73,6.54,6.54,0,0,0-1.25-.12H15.87a6.6,6.6,0,0,0-6.41,4.95,6.53,6.53,0,0,0-.21,1.58V30.5C9.25,30.62,9.24,30.62,9.39,30.62Zm23.24-5.8a1.76,1.76,0,0,1,1-1.29,2.1,2.1,0,0,1,.89-.16,1.66,1.66,0,0,1,1.44.9,2.18,2.18,0,0,1,.22.71,1.74,1.74,0,0,1-.67,1.67,1.72,1.72,0,0,1-1.21.39A2.29,2.29,0,0,1,34,27a1.79,1.79,0,0,1-1.36-1.29,2.37,2.37,0,0,1,0-.92Zm-4-.15a1.47,1.47,0,0,1,.43-.78,1.89,1.89,0,0,1,1.57-.47,1.21,1.21,0,0,1,.42.13v-.08c0-.87,0-1.74.07-2.61a.44.44,0,0,1,.34-.41h.16c.17,0,.23,0,.25.21a1.55,1.55,0,0,1,0,.43c-.06.58-.08,1.16-.11,1.74s0,1.17,0,1.75c0,.25,0,.5.05.75.06.44.14.87.22,1.3a.18.18,0,0,1,0,.16.38.38,0,0,1-.45.15.29.29,0,0,1-.11-.11c0-.09-.07-.18-.1-.27s0-.06,0-.07-.23.19-.35.27A1.58,1.58,0,0,1,29.7,27a1.42,1.42,0,0,1-1.05-1,2.2,2.2,0,0,1,0-1.32Zm-4.49.43a2,2,0,0,1,.7-1.29,2.2,2.2,0,0,1,2.06-.25l.16.07a.2.2,0,0,0,.22,0,.48.48,0,0,1,.26-.07c.18,0,.24.06.24.24v.59c0,.2,0,.54,0,.81a8.92,8.92,0,0,0,.2,1.36.28.28,0,0,1-.19.37.29.29,0,0,1-.44-.16,1.89,1.89,0,0,1-.11-.25l-.22.15a2,2,0,0,1-1.55.33,1.74,1.74,0,0,1-1.3-1.23A1.64,1.64,0,0,1,24.12,25.1Zm-4-.79a2,2,0,0,1,1.11-.84,1.72,1.72,0,0,1,.81-.08,1.94,1.94,0,0,1,1.06.52,1.18,1.18,0,0,1,.23.27.28.28,0,0,1-.09.4c-.15.12-.23.12-.37,0l-.24-.21a1.17,1.17,0,0,0-1.05-.31,1.2,1.2,0,0,0-1,1.38,1,1,0,0,0,.7.86,1.67,1.67,0,0,0,.83.06,1,1,0,0,0,.77-.5l.11-.15a.25.25,0,0,1,.34-.06l.11.07a.28.28,0,0,1,.08.32l-.06.14a1.41,1.41,0,0,1-.84.71,2.61,2.61,0,0,1-1.27.12A1.6,1.6,0,0,1,20,25.92a1.67,1.67,0,0,1-.12-.62,1.65,1.65,0,0,1,.27-1ZM18,25.39c0-.4,0-.8,0-1.2a2,2,0,0,1,.1-.54.35.35,0,0,1,.41-.23.34.34,0,0,1,.31.37h0l-.06.92a12.78,12.78,0,0,0,0,1.75,2.09,2.09,0,0,1,0,.25.27.27,0,0,1-.24.28h0a.61.61,0,0,1-.43-.13.26.26,0,0,1-.1-.2c0-.43,0-.85,0-1.28ZM17.94,22a.64.64,0,0,1,.8-.63c.39.12.4.26.47.51a.59.59,0,0,1-.36.74H18.8a.63.63,0,0,1-.81-.37l0-.1c0-.05,0-.1,0-.16Zm-2,2.05c0-.29,0-.67,0-1a17.76,17.76,0,0,1,.16-1.79,2.31,2.31,0,0,1,.12-.52.31.31,0,0,1,.18-.22.53.53,0,0,1,.41,0,.22.22,0,0,1,.16.25l-.09.72a12.13,12.13,0,0,0-.11,1.48c0,.65,0,1.3,0,1.94,0,.35.05.7.07,1.05s0,.45.07.68a.39.39,0,0,1-.06.28c-.09.15-.58.17-.67,0,0,0-.05-.09-.07-.14a1.46,1.46,0,0,1-.05-.2A9.65,9.65,0,0,1,16,25c0-.28,0-.55,0-.92Zm-1.94.15q0-1.26.12-2.52c0-.13,0-.26.05-.39a2.85,2.85,0,0,1,.12-.58.37.37,0,0,1,.49-.26.27.27,0,0,1,.24.28.81.81,0,0,1,0,.22c0,.22-.06.44-.08.67-.05.43-.09.87-.11,1.31,0,.72,0,1.45,0,2.17,0,.27,0,.54.06.81s0,.52.08.78a.24.24,0,0,1-.18.27h0a.41.41,0,0,1-.19,0,.39.39,0,0,1-.37-.24,1.09,1.09,0,0,1-.07-.24,5.26,5.26,0,0,1-.12-.78c0-.07,0-.13,0-.19Q14,24.88,14.05,24.22Zm-1.76-.67a.49.49,0,0,1,.46-.12.37.37,0,0,1,.26.3,1.84,1.84,0,0,1,.05.41c0,.85,0,1.7,0,2.54,0,.2-.08.28-.27.31h-.08c-.29,0-.41-.08-.41-.38q0-.7,0-1.41v-.09c0-.45,0-.91,0-1.37A.26.26,0,0,1,12.29,23.55Zm-.41-1.47a.71.71,0,0,1,.63-.72.66.66,0,0,1,.66.64.62.62,0,0,1-.62.68A.68.68,0,0,1,11.88,22.08Z"/><path  d="M30.3,24.05l-.32,0a.93.93,0,0,0-.71.6,1.84,1.84,0,0,0-.1.77.91.91,0,0,0,1.24.81.93.93,0,0,0,.69-.89,2.37,2.37,0,0,0,0-.75,1.46,1.46,0,0,0-.07-.19.64.64,0,0,0-.54-.38Z"/><path  d="M27.14,25.24a2,2,0,0,0,0-.49.72.72,0,0,0-.65-.67,1.6,1.6,0,0,0-.84,0,1.25,1.25,0,0,0-.83,1.46A.94.94,0,0,0,25,26a1.21,1.21,0,0,0,1.17.34,1.51,1.51,0,0,0,.68-.37.74.74,0,0,0,.25-.61Z"/><path  d="M34.41,26.4a1.18,1.18,0,0,0,.71-.23,1,1,0,0,0,.43-.67,1.62,1.62,0,0,0-.07-.79,1,1,0,0,0-1-.7,1.9,1.9,0,0,0-.58.09,1,1,0,0,0-.7.78,1.52,1.52,0,0,0,0,.67A1.14,1.14,0,0,0,34.41,26.4Z"/><path  d="M42,12V36H6V12H42m0-2H6a2,2,0,0,0-2,2V36a2,2,0,0,0,2,2H42a2,2,0,0,0,2-2V12a2,2,0,0,0-2-2Z"/></g></svg>