<svg id="Payment_Cards_Monochrome_AmericanExpress_64px" xmlns="http://www.w3.org/2000/svg" viewBox="0 0 64 64"><path d="M45.15 25.63v.67l-.39-.67H42v.67l-.35-.67h-3.78a3.33 3.33 0 00-1.63.33v-.33h-2.6V26a1.61 1.61 0 00-1.1-.33h-9.48l-.63 1.47-.66-1.47h-3v.67l-.33-.67H15.9v.21l-.13.27L14 30.21l-.49 1.13h2.89l.37-.9h.86l.37.9h3.28v-.69l.29.69h1.71l.29-.71v.71h8.16v-1.5h.15c.12 0 .15 0 .15.19v1.3h4.22V31a3.39 3.39 0 001.56.35h1.78l.39-.91h.84l.37.91h3.41v-.87l.52.87h2.74v-5.7zm-20.89 4.89v-3.19l-1.41 3.19H22l-1.41-3.2v3.2h-2l-.38-.9h-2l-.38.9h-1l1.74-4.08h1.46l1.65 3.87v-3.87h1.6l1.28 2.77 1.17-2.77h1.63v4.08zm5-3.23H27V28h2.2v.85H27v.81h2.29v.84H26v-4.06h3.26zM33.65 29a1.17 1.17 0 01.16.75v.8h-1V30a1.23 1.23 0 00-.15-.8c-.15-.2-.35-.2-.66-.2h-1.09v1.48h-1v-4.04h2.24a2.31 2.31 0 011.18.19 1 1 0 01.5.91 1.11 1.11 0 01-.68 1.08 1.08 1.08 0 01.5.38zm1.77 1.55h-1v-4.11h1zm11.58 0h-1.39l-1.85-3.06v3.06h-2l-.38-.9h-2l-.37.9h-1.17a2 2 0 01-1.41-.45 2.06 2.06 0 01-.52-1.56 2 2 0 01.52-1.6 1.71 1.71 0 011.49-.47h.95v.88h-.94a.91.91 0 00-.75.24 1.24 1.24 0 00-.28.92 1.43 1.43 0 00.27 1 .79.79 0 00.68.21h.44l1.38-3.21h1.46l1.66 3.86v-3.93h1.49L46 29.28v-2.84h1z"/><path d="M32.58 27.36a1.06 1.06 0 00-.46-.07h-1.21v.91h1.19a1 1 0 00.49-.09.43.43 0 00.2-.39.39.39 0 00-.21-.36zM39.7 28.76h1.35l-.67-1.63-.68 1.63zM16.52 28.76h1.34l-.67-1.63-.67 1.63zM32 34.32h-1.26v1H32c.38 0 .61-.18.61-.54s-.24-.46-.61-.46zM23.49 34.32v.74h2.14v.84h-2.14v.8h2.4L27 35.51l-1.06-1.19h-2.45zM29.77 37.19v-3.28l-1.5 1.62 1.5 1.66zM36.76 34.39a1 1 0 00-.46-.07h-1.2v.92h1.19a1.09 1.09 0 00.47-.08.44.44 0 00.21-.4.4.4 0 00-.21-.37z"/><path d="M50.5 36.27a2.13 2.13 0 00-.28-1.11h.08v-2.5h-2.77a2.52 2.52 0 00-1.08.22v-.22h-2.68a1.8 1.8 0 00-1.16.33v-.33h-4.78V33a2.54 2.54 0 00-1.31-.33h-3.16V33a2.22 2.22 0 00-1.36-.34h-3.54l-.81.88-.75-.88h-5.26v5.7h5.16l.83-.88.79.88h3.19V37h.31a3.26 3.26 0 001.35-.21v1.54h2.63v-1.45h.1c.17 0 .19 0 .19.16v1.32h8a2.47 2.47 0 001.24-.3v.31h2.72a2.87 2.87 0 001.16-.2l.17-.07a2 2 0 001.02-1.83zM32 36.18h-1.26v1.38h-1.9l-1.2-1.35-1.25 1.35h-3.87v-4.09h3.93l1.2 1.34 1.24-1.34H32c.78 0 1.64.22 1.64 1.35s-.84 1.36-1.7 1.36zm5.84-.18a1.18 1.18 0 01.16.75v.81h-1v-.51a1.23 1.23 0 00-.16-.8c-.19-.18-.36-.18-.72-.18h-1v1.49h-1v-4.09h2.25a2.44 2.44 0 011.18.19.94.94 0 01.5.92 1.13 1.13 0 01-.7 1.08 1.21 1.21 0 01.49.34zm4-1.68h-2.28v.74h2.23v.84h-2.23v.81h2.29v.84h-3.26v-4.08h3.26zm.59 3.24v-.88h1.9a.54.54 0 00.39-.1.36.36 0 000-.51.53.53 0 00-.35-.1c-.91 0-2.06 0-2.06-1.26 0-.6.37-1.22 1.4-1.22h2v.88h-1.82a.69.69 0 00-.4.07.32.32 0 00-.14.3.31.31 0 00.21.3 1.23 1.23 0 00.38 0h.52a1.56 1.56 0 011.13.34 1.08 1.08 0 01.28.85c0 .89-.54 1.3-1.53 1.3zm7-.51v.06l-.07.07-.08.08-.11.07a1.78 1.78 0 01-.51.16h-2.39v-.88h1.88a.52.52 0 00.4-.11.35.35 0 00.11-.26.28.28 0 00-.13-.24.48.48 0 00-.33-.1c-.93 0-2.07 0-2.07-1.26a1.18 1.18 0 01.3-.81v-.05h2.77v.87h-1.63a.48.48 0 00-.26.07.29.29 0 00-.15.3.29.29 0 00.21.3 1 1 0 00.38 0h.53a2 2 0 01.92.19.7.7 0 01.19.15 1.09 1.09 0 01.28.83 1.29 1.29 0 01-.22.74z"/><path d="M56 16v32H8V16h48m1-3H7a2 2 0 00-2 2v34a2 2 0 002 2h50a2 2 0 002-2V15a2 2 0 00-2-2z"/></svg>