<svg id="Payment_Cards_Monochrome_OneyX3_48px" xmlns="http://www.w3.org/2000/svg" viewBox="0 0 48 48"><path fill-rule="evenodd" d="M38.813 24c0 8.18-6.632 14.813-14.813 14.813-8.18 0-14.813-6.632-14.813-14.813C9.188 15.82 15.82 9.187 24 9.187S38.813 15.819 38.813 24zm-19.37 4.884c-1.05 0-1.915-.237-2.595-.71a3.396 3.396 0 01-1.367-1.924l2.147-.63c.12.365.358.68.677.892.348.224.755.336 1.168.323.37.01.73-.109 1.022-.336a1.12 1.12 0 00.42-.937 1.069 1.069 0 00-.45-.925 1.941 1.941 0 00-1.153-.322h-1.187v-1.86h1.136c.382.025.761-.075 1.08-.285.25-.191.375-.504.375-.938a.997.997 0 00-.375-.819 1.393 1.393 0 00-.905-.302c-.719 0-1.2.375-1.442 1.125l-2.235-.63c.084-.333.224-.65.414-.937.204-.304.453-.576.737-.807.33-.26.706-.457 1.108-.577a4.697 4.697 0 011.448-.212c1.084 0 1.962.256 2.636.769a2.471 2.471 0 011.01 2.08c.018.488-.108.972-.361 1.39a2.036 2.036 0 01-1.022.814v.015c.46.16.856.466 1.125.872a2.7 2.7 0 01.457 1.588 2.972 2.972 0 01-1.07 2.378c-.709.603-1.641.905-2.798.905zm13.026-8.259l-2.812 3.919 2.767 4.143h-2.747l-1.427-2.146-1.312 2.146h-2.625l2.68-4.006-2.669-4.056h2.747l1.391 2.102 1.392-2.102h2.615z"/></svg>