<svg xmlns="http://www.w3.org/2000/svg" viewBox="0 0 24 24"><defs></defs><g id="Calque_5" ><path  d="M20.76,9.18A1.64,1.64,0,0,1,20.18,8,3.83,3.83,0,0,0,16,3.82a1.59,1.59,0,0,1-1.22-.58,3.83,3.83,0,0,0-5.64,0A1.65,1.65,0,0,1,8,3.82,3.83,3.83,0,0,0,3.82,8a1.64,1.64,0,0,1-.58,1.22,3.83,3.83,0,0,0,0,5.64A1.64,1.64,0,0,1,3.82,16,3.83,3.83,0,0,0,8,20.18a1.59,1.59,0,0,1,1.22.58,3.83,3.83,0,0,0,5.64,0A1.6,1.6,0,0,1,16,20.18,3.83,3.83,0,0,0,20.18,16a1.64,1.64,0,0,1,.58-1.22,3.83,3.83,0,0,0,0-5.64Zm-1.35,4.17a3.51,3.51,0,0,0-1.22,2.85,1.89,1.89,0,0,1-.53,1.46,1.85,1.85,0,0,1-1.46.53,3.52,3.52,0,0,0-2.85,1.22,1.88,1.88,0,0,1-2.7,0,3.54,3.54,0,0,0-2.6-1.23H7.8a1.84,1.84,0,0,1-1.46-.53,1.89,1.89,0,0,1-.53-1.46,3.51,3.51,0,0,0-1.22-2.85,1.84,1.84,0,0,1,0-2.7A3.51,3.51,0,0,0,5.81,7.8a1.89,1.89,0,0,1,.53-1.46A1.85,1.85,0,0,1,7.8,5.81a3.48,3.48,0,0,0,2.85-1.22,1.88,1.88,0,0,1,2.7,0A3.5,3.5,0,0,0,16.2,5.81a1.85,1.85,0,0,1,1.46.53,1.89,1.89,0,0,1,.53,1.46,3.51,3.51,0,0,0,1.22,2.85,1.84,1.84,0,0,1,0,2.7Z"/><path  d="M12.5,8.5a3.45,3.45,0,0,1,2.19.79.5.5,0,1,0,.62-.78,4.42,4.42,0,0,0-2.81-1,4.49,4.49,0,0,0-4.22,3H7.5a.5.5,0,0,0,0,1h.55A4.23,4.23,0,0,0,8,12a4.23,4.23,0,0,0,.05.5H7.5a.5.5,0,0,0,0,1h.78a4.49,4.49,0,0,0,4.22,3,4.42,4.42,0,0,0,2.81-1,.5.5,0,1,0-.62-.78,3.45,3.45,0,0,1-2.19.79,3.5,3.5,0,0,1-3.15-2H12.5a.5.5,0,0,0,0-1H9.05A4,4,0,0,1,9,12a4,4,0,0,1,.05-.5H12.5a.5.5,0,0,0,0-1H9.35A3.5,3.5,0,0,1,12.5,8.5Z"/></g></svg>