<svg xmlns="http://www.w3.org/2000/svg" viewBox="0 0 64 64">
  <path fill-rule="evenodd" d="M41.345 5.91a1 1 0 0 1 1.411.102c.82.946.974 2.09.89 3.15-.08 1.018-.392 2.1-.67 3.061l-.015.054c-.296 1.026-.55 1.923-.614 2.718-.06.773.074 1.297.409 1.684a1 1 0 0 1-1.512 1.31c-.82-.947-.974-2.09-.89-3.15.08-1.02.392-2.102.67-3.063l.015-.053c.296-1.026.551-1.923.614-2.718.06-.773-.074-1.296-.409-1.684a1 1 0 0 1 .101-1.41Zm-18.666 0a1 1 0 0 1 1.41.102c.82.946.974 2.09.89 3.15-.08 1.018-.392 2.1-.67 3.061l-.015.054c-.296 1.026-.55 1.923-.613 2.718-.061.773.073 1.297.408 1.684a1 1 0 0 1-1.511 1.31c-.82-.947-.974-2.09-.891-3.15.08-1.02.393-2.102.67-3.063l.016-.053c.296-1.026.55-1.923.613-2.718.06-.773-.073-1.296-.409-1.684a1 1 0 0 1 .102-1.41ZM16 28.168A3.833 3.833 0 0 0 12.167 32v18.667a3.833 3.833 0 0 0 7.666 0V32A3.833 3.833 0 0 0 16 28.167Zm0-3A6.833 6.833 0 0 0 9.167 32v18.667a6.833 6.833 0 0 0 12.166 4.272 6.82 6.82 0 0 0 5.334 2.561c2.157 0 4.08-1 5.333-2.56a6.82 6.82 0 0 0 5.333 2.56c2.158 0 4.081-1 5.334-2.56a6.833 6.833 0 0 0 12.167-4.272v-8.563a5.002 5.002 0 0 0 0-9.543V32a6.833 6.833 0 0 0-12.167-4.272 6.82 6.82 0 0 0-5.334-2.561A6.82 6.82 0 0 0 32 27.727a6.82 6.82 0 0 0-5.333-2.56c-2.158 0-4.081 1-5.334 2.56A6.82 6.82 0 0 0 16 25.168Zm35.833 7.395V32a3.833 3.833 0 1 0-7.666 0v18.667a3.833 3.833 0 0 0 7.666 0v-8.563a5.002 5.002 0 0 1 0-9.542ZM41.167 32v18.667a3.833 3.833 0 1 1-7.667 0V32a3.833 3.833 0 1 1 7.667 0ZM30.5 32a3.833 3.833 0 0 0-7.667 0v18.667a3.833 3.833 0 0 0 7.667 0V32Zm2.923-25.988a1 1 0 1 0-1.512 1.31c.335.387.47.91.408 1.683-.062.795-.317 1.692-.613 2.718l-.016.053c-.277.961-.59 2.043-.67 3.062-.083 1.06.071 2.204.89 3.15a1 1 0 0 0 1.513-1.31c-.336-.386-.47-.91-.409-1.683.063-.795.317-1.692.613-2.718l.016-.054c.277-.96.59-2.043.67-3.061.084-1.06-.07-2.204-.89-3.15Zm16.91 31.321a3 3 0 1 1 6 0 3 3 0 0 1-6 0Z"/>
</svg>
