<svg xmlns="http://www.w3.org/2000/svg" viewBox="0 0 32 32"><defs></defs><g id="Icon"><path  d="M28.13,16a6,6,0,0,1,.24-1.33,4.79,4.79,0,0,0,.15-2.74,4.83,4.83,0,0,0-1.77-2.17,5.83,5.83,0,0,1-.94-.89,5.19,5.19,0,0,1-.56-1.18,5,5,0,0,0-1.51-2.34,4.86,4.86,0,0,0-2.67-.71,5.47,5.47,0,0,1-1.32-.18,5.46,5.46,0,0,1-1.11-.61,5,5,0,0,0-2.64-1,5,5,0,0,0-2.64,1,5.46,5.46,0,0,1-1.11.61,5.47,5.47,0,0,1-1.32.18,4.86,4.86,0,0,0-2.67.71A5,5,0,0,0,6.75,7.69a5.19,5.19,0,0,1-.56,1.18,5.83,5.83,0,0,1-.94.89,4.83,4.83,0,0,0-1.77,2.17,4.79,4.79,0,0,0,.15,2.74A6,6,0,0,1,3.87,16a6,6,0,0,1-.24,1.33,4.79,4.79,0,0,0-.15,2.74,4.83,4.83,0,0,0,1.77,2.17,5.83,5.83,0,0,1,.94.89,5.19,5.19,0,0,1,.56,1.18,5,5,0,0,0,1.51,2.34,4.86,4.86,0,0,0,2.67.71,5.47,5.47,0,0,1,1.32.18,5.46,5.46,0,0,1,1.11.61,5,5,0,0,0,2.64,1,5,5,0,0,0,2.64-1,5.46,5.46,0,0,1,1.11-.61,5.47,5.47,0,0,1,1.32-.18,4.86,4.86,0,0,0,2.67-.71,5,5,0,0,0,1.51-2.34,5.19,5.19,0,0,1,.56-1.18,5.83,5.83,0,0,1,.94-.89,4.83,4.83,0,0,0,1.77-2.17,4.79,4.79,0,0,0-.15-2.74A6,6,0,0,1,28.13,16Zm-1.69,1.83a3.38,3.38,0,0,1,.18,1.62,3.49,3.49,0,0,1-1.14,1.25A6.87,6.87,0,0,0,24.2,22a7.33,7.33,0,0,0-.82,1.63A3.33,3.33,0,0,1,22.56,25a3.49,3.49,0,0,1-1.62.34,6.67,6.67,0,0,0-1.81.27,7.09,7.09,0,0,0-1.57.82,3.44,3.44,0,0,1-1.56.71,3.44,3.44,0,0,1-1.56-.71,7.09,7.09,0,0,0-1.57-.82,6.67,6.67,0,0,0-1.81-.27A3.49,3.49,0,0,1,9.44,25a3.4,3.4,0,0,1-.82-1.45A7.74,7.74,0,0,0,7.81,22,7.24,7.24,0,0,0,6.52,20.7a3.49,3.49,0,0,1-1.14-1.25,3.38,3.38,0,0,1,.18-1.62A7.3,7.3,0,0,0,5.87,16a7.3,7.3,0,0,0-.31-1.83,3.38,3.38,0,0,1-.18-1.62A3.49,3.49,0,0,1,6.52,11.3,6.87,6.87,0,0,0,7.8,10.05a7.33,7.33,0,0,0,.82-1.63A3.33,3.33,0,0,1,9.44,7a3.49,3.49,0,0,1,1.62-.34,6.67,6.67,0,0,0,1.81-.27,7.09,7.09,0,0,0,1.57-.82A3.44,3.44,0,0,1,16,4.83a3.44,3.44,0,0,1,1.56.71,7.09,7.09,0,0,0,1.57.82,6.67,6.67,0,0,0,1.81.27A3.49,3.49,0,0,1,22.56,7a3.33,3.33,0,0,1,.82,1.45,7.33,7.33,0,0,0,.82,1.63,6.87,6.87,0,0,0,1.28,1.25,3.49,3.49,0,0,1,1.14,1.25,3.38,3.38,0,0,1-.18,1.62A7.3,7.3,0,0,0,26.13,16,7.3,7.3,0,0,0,26.44,17.83Z"/><path  d="M19.26,19.77A4.92,4.92,0,0,1,12.12,19H16a1,1,0,0,0,0-2H11.19a5,5,0,0,1,0-2H16a1,1,0,0,0,0-2H12.12A4.92,4.92,0,0,1,16,11a4.85,4.85,0,0,1,3,1,1,1,0,0,0,1.21-1.59A6.87,6.87,0,0,0,16,9a7,7,0,0,0-6.27,4H9a1,1,0,0,0,0,2h.17a6.29,6.29,0,0,0,0,2H9a1,1,0,0,0,0,2h.77a6.95,6.95,0,0,0,10.79,2.29,1,1,0,1,0-1.3-1.52Z"/></g></svg>