<svg xmlns="http://www.w3.org/2000/svg" viewBox="0 0 24 24"><defs></defs><g id="Icon"><g id="Quantity"><path  d="M12,14a1,1,0,0,1-.49-.13l-9-5a1,1,0,0,1,0-1.74l9-5a1,1,0,0,1,1,0l9,5a1,1,0,0,1,0,1.74l-9,5A1,1,0,0,1,12,14ZM5.06,8,12,11.86,18.94,8,12,4.14Z"/><path  d="M12,18a1,1,0,0,1-.49-.13l-9-5a1,1,0,0,1,0-1.74l4-2.23,1,1.75L5.06,12,12,15.86,18.94,12l-2.43-1.35,1-1.75,4,2.23a1,1,0,0,1,0,1.74l-9,5A1,1,0,0,1,12,18Z"/><path  d="M12,22a1,1,0,0,1-.49-.13l-9-5a1,1,0,0,1,0-1.74l3.74-2.08,1,1.75L5.06,16,12,19.86,18.94,16l-2.29-1.27,1-1.75,3.87,2.15a1,1,0,0,1,0,1.74l-9,5A1,1,0,0,1,12,22Z"/></g></g></svg>