<svg xmlns="http://www.w3.org/2000/svg" viewBox="0 0 64 64">
  <path fill-rule="evenodd" d="M6.5 10.667a1.5 1.5 0 0 1 1.5-1.5h48a1.5 1.5 0 0 1 0 3H8a1.5 1.5 0 0 1-1.5-1.5Zm0 42.666a1.5 1.5 0 0 1 1.5-1.5h48a1.5 1.5 0 0 1 0 3H8a1.5 1.5 0 0 1-1.5-1.5Zm2.167-37a1 1 0 1 0 0 2A5.667 5.667 0 0 1 14.333 24c0 1.583-.732 3.401-1.546 4.905a21.757 21.757 0 0 1-1.452 2.314l-.097.131-.024.032-.005.006v.001L12 32l-.792-.61-.001.002-.003.004-.01.012-.031.042-.115.155a23.773 23.773 0 0 0-1.594 2.539C8.6 35.72 7.667 37.902 7.667 40A7.667 7.667 0 0 0 22 43.788a7.664 7.664 0 0 0 6.667 3.879 7.664 7.664 0 0 0 6.666-3.879A7.664 7.664 0 0 0 42 47.667a7.664 7.664 0 0 0 6.667-3.879 7.664 7.664 0 0 0 6.666 3.879 1 1 0 0 0 0-2A5.667 5.667 0 0 1 49.667 40c0-1.584.732-3.402 1.546-4.905a21.757 21.757 0 0 1 1.452-2.314l.097-.131.024-.032.005-.007L52 32l.792.61.001-.001.003-.004.01-.012.031-.042.115-.156a23.748 23.748 0 0 0 1.594-2.539c.853-1.576 1.787-3.758 1.787-5.856A7.667 7.667 0 0 0 42 20.21a7.664 7.664 0 0 0-6.667-3.878 7.664 7.664 0 0 0-6.666 3.878A7.664 7.664 0 0 0 22 16.333a7.664 7.664 0 0 0-6.667 3.878 7.664 7.664 0 0 0-6.666-3.878ZM45.333 32l.792-.61h.002l.002.005.01.012.031.042c.028.036.066.088.115.155a23.824 23.824 0 0 1 1.594 2.539c.265.49.538 1.037.788 1.622.25-.585.522-1.133.787-1.622a23.769 23.769 0 0 1 1.594-2.539l.115-.155.032-.042.009-.012.003-.004v-.001h.001L52 32l-.792-.61v-.001l.006-.007.024-.032.097-.131a21.757 21.757 0 0 0 1.453-2.314C53.6 27.4 54.332 25.583 54.332 24A5.667 5.667 0 1 0 43 24c0 1.583.733 3.401 1.546 4.905A21.757 21.757 0 0 0 46 31.219l.097.131.023.032.005.006.001.001-.792.61Zm-6.56.082.685.529-.005.007-.024.032c-.022.028-.054.073-.097.131a21.788 21.788 0 0 0-1.453 2.314c-.813 1.503-1.546 3.321-1.546 4.905a5.667 5.667 0 0 0 11.334 0c0-1.584-.733-3.402-1.547-4.905a21.788 21.788 0 0 0-1.452-2.314 12.629 12.629 0 0 0-.097-.131l-.024-.032-.005-.007.791-.611-.791.61-.002-.001-.003-.004-.009-.012-.032-.042a20.123 20.123 0 0 1-.512-.723 23.775 23.775 0 0 1-1.197-1.971A19.63 19.63 0 0 1 42 28.235a19.63 19.63 0 0 1-.787 1.622 23.775 23.775 0 0 1-1.595 2.538l-.114.156-.032.042-.01.012-.002.004-.001.001-.686-.528ZM18.667 32l-.792.61-.002-.001-.002-.004-.01-.012-.032-.042a20.123 20.123 0 0 1-.512-.723 23.802 23.802 0 0 1-1.197-1.971 19.63 19.63 0 0 1-.787-1.622 19.63 19.63 0 0 1-.787 1.622 23.748 23.748 0 0 1-1.594 2.538l-.115.156-.032.042-.009.012-.003.004v.001h-.001L12 32l.792.61v.002l-.006.006-.024.032-.097.131a21.757 21.757 0 0 0-1.453 2.314C10.4 36.598 9.668 38.416 9.668 40A5.667 5.667 0 1 0 21 40c0-1.584-.733-3.402-1.546-4.905A21.757 21.757 0 0 0 18 32.781a11.302 11.302 0 0 0-.097-.131l-.023-.032-.006-.007.792-.611Zm6.666 0-.791-.61v-.001l.005-.007.024-.032.097-.131a21.788 21.788 0 0 0 1.453-2.314c.813-1.504 1.546-3.322 1.546-4.905a5.667 5.667 0 0 0-11.334 0c0 1.583.733 3.401 1.547 4.905a21.788 21.788 0 0 0 1.452 2.314l.097.131.024.032.005.006v.001l-.791.61.791-.61.002.002.003.004.009.012.032.042a20.24 20.24 0 0 1 .512.723c.326.483.761 1.166 1.197 1.971.264.49.537 1.037.787 1.622.25-.585.523-1.133.787-1.622a23.796 23.796 0 0 1 1.595-2.539 8.33 8.33 0 0 1 .114-.155l.032-.042.01-.012.002-.004.001-.001.792.61Zm6.56.082-.685.529-.001-.002-.003-.004-.01-.012-.031-.042a19.914 19.914 0 0 1-.512-.723 23.748 23.748 0 0 1-1.197-1.971 19.599 19.599 0 0 1-.787-1.622 19.63 19.63 0 0 1-.788 1.622 23.802 23.802 0 0 1-1.594 2.538l-.114.156-.032.042-.01.012-.003.004v.001s-.001.001-.793-.61l.792.61v.002l-.006.006-.023.032a18.07 18.07 0 0 0-.455.642 21.757 21.757 0 0 0-1.095 1.803C23.733 36.598 23 38.416 23 40a5.667 5.667 0 0 0 11.333 0c0-1.584-.732-3.402-1.546-4.905a21.757 21.757 0 0 0-1.452-2.314 11.563 11.563 0 0 0-.097-.131l-.024-.032-.005-.007.685-.53Zm5.982-.693.792.61-.792-.61-.002.002-.002.004-.01.012-.031.042c-.028.036-.066.088-.115.155a23.824 23.824 0 0 0-1.594 2.539 19.63 19.63 0 0 0-.788 1.622 19.599 19.599 0 0 0-.787-1.622 23.769 23.769 0 0 0-1.594-2.539 12.797 12.797 0 0 0-.115-.155l-.032-.042-.009-.012-.003-.004v-.001h-.001L32 32l.792-.61v-.001l-.006-.007-.024-.032a18.07 18.07 0 0 1-.455-.643 21.757 21.757 0 0 1-1.094-1.802c-.814-1.504-1.546-3.322-1.546-4.905A5.667 5.667 0 1 1 41 24c0 1.583-.733 3.401-1.546 4.905A21.757 21.757 0 0 1 38 31.219l-.097.131-.023.032-.005.006-.001.001Z"/>
</svg>
