<svg xmlns="http://www.w3.org/2000/svg" fill="#222020" viewBox="0 0 48 48"><path d="M5.5 16A1.5 1.5 0 014 14.52V6a2 2 0 012-2h8.51a1.5 1.5 0 110 3H7v7.51A1.5 1.5 0 015.5 16zM42.5 16a1.5 1.5 0 01-1.5-1.5V7h-7.51a1.5 1.5 0 010-3H42a2 2 0 012 2v8.51A1.5 1.5 0 0142.5 16zM14.51 44H6a2 2 0 01-2-2v-8.52a1.5 1.5 0 013 0V41h7.51a1.5 1.5 0 110 3zM44 42a2 2 0 01-2 2h-8.51a1.5 1.5 0 010-3H41v-7.51a1.5 1.5 0 113 0z"/><rect width="1.25" height="16" x="17.53" y="16.19"/><rect width="1.25" height="16" x="25.7" y="16.19"/><rect width="1.25" height="16" x="34.21" y="16.19"/><rect width="3.21" height="16" x="12.54" y="16.19"/><rect width="3.21" height="16" x="20.33" y="16.19"/><rect width="3.21" height="16" x="29.23" y="16.19"/></svg>