<svg xmlns="http://www.w3.org/2000/svg" viewBox="0 0 48 48"><defs></defs><g id="Icon"><g id="Icon_Engagement_prix" ><g id="Page-1"><path  d="M24,44.5a7.57,7.57,0,0,1-4.09-1.59A8.76,8.76,0,0,0,18.17,42a9.34,9.34,0,0,0-2.07-.28A7.57,7.57,0,0,1,12,40.58,7.58,7.58,0,0,1,9.62,37a8.73,8.73,0,0,0-.89-1.86,8.78,8.78,0,0,0-1.48-1.4A7.58,7.58,0,0,1,4.5,30.34a7.5,7.5,0,0,1,.24-4.24A9.37,9.37,0,0,0,5.12,24a9.37,9.37,0,0,0-.38-2.1,7.5,7.5,0,0,1-.24-4.24A7.58,7.58,0,0,1,7.25,14.3a8.78,8.78,0,0,0,1.48-1.4A8.73,8.73,0,0,0,9.62,11,7.58,7.58,0,0,1,12,7.42a7.56,7.56,0,0,1,4.14-1.1A9.17,9.17,0,0,0,18.16,6a8.16,8.16,0,0,0,1.75-1A7.64,7.64,0,0,1,24,3.5a7.64,7.64,0,0,1,4.09,1.58,8.16,8.16,0,0,0,1.75,1,9.16,9.16,0,0,0,2.06.28,7.57,7.57,0,0,1,4.15,1.1A7.58,7.58,0,0,1,38.38,11a8.73,8.73,0,0,0,.89,1.86,8.78,8.78,0,0,0,1.48,1.4,7.58,7.58,0,0,1,2.75,3.36,7.5,7.5,0,0,1-.24,4.24,9.37,9.37,0,0,0-.38,2.1,9.37,9.37,0,0,0,.38,2.1,7.5,7.5,0,0,1,.24,4.24,7.58,7.58,0,0,1-2.75,3.36,8.78,8.78,0,0,0-1.48,1.4A8.73,8.73,0,0,0,38.38,37a7.58,7.58,0,0,1-2.33,3.62,7.56,7.56,0,0,1-4.14,1.1,9.17,9.17,0,0,0-2.07.28,8.16,8.16,0,0,0-1.75,1A7.64,7.64,0,0,1,24,44.5Zm0-38a5.36,5.36,0,0,0-2.47,1.11,10.7,10.7,0,0,1-2.44,1.28,11.3,11.3,0,0,1-2.8.42,5.31,5.31,0,0,0-2.57.54,5.26,5.26,0,0,0-1.31,2.29,11.07,11.07,0,0,1-1.26,2.53,10.85,10.85,0,0,1-2,2,5.47,5.47,0,0,0-1.8,2,5.49,5.49,0,0,0,.29,2.57A11.11,11.11,0,0,1,8.12,24a11,11,0,0,1-.48,2.84,5.49,5.49,0,0,0-.29,2.57,5.47,5.47,0,0,0,1.8,2,10.85,10.85,0,0,1,2,1.95,11.07,11.07,0,0,1,1.26,2.53,5.36,5.36,0,0,0,1.31,2.29,5.31,5.31,0,0,0,2.57.54,11.3,11.3,0,0,1,2.8.42,10.7,10.7,0,0,1,2.44,1.28A5.36,5.36,0,0,0,24,41.5a5.36,5.36,0,0,0,2.47-1.11,10.7,10.7,0,0,1,2.44-1.28,11.3,11.3,0,0,1,2.8-.42,5.31,5.31,0,0,0,2.57-.54,5.26,5.26,0,0,0,1.31-2.29,11.07,11.07,0,0,1,1.26-2.53,10.85,10.85,0,0,1,2-1.95,5.47,5.47,0,0,0,1.8-2,5.49,5.49,0,0,0-.29-2.57A11.11,11.11,0,0,1,39.88,24a11,11,0,0,1,.48-2.84,5.49,5.49,0,0,0,.29-2.57,5.47,5.47,0,0,0-1.8-2,10.85,10.85,0,0,1-2-2,11.07,11.07,0,0,1-1.26-2.53,5.26,5.26,0,0,0-1.31-2.29,5.31,5.31,0,0,0-2.57-.54,11.3,11.3,0,0,1-2.8-.42,10.7,10.7,0,0,1-2.44-1.28A5.36,5.36,0,0,0,24,6.5Z"/></g></g><path  d="M30.64,29.48a1.5,1.5,0,0,0-2.12-.16A7,7,0,0,1,18.26,28H23.5a1.5,1.5,0,0,0,0-3H17.08a6.29,6.29,0,0,1,0-2H23.5a1.5,1.5,0,0,0,0-3H18.26A7,7,0,0,1,24,17a6.86,6.86,0,0,1,4.23,1.43A1.5,1.5,0,0,0,30,16a10,10,0,0,0-15.19,4H13.5a1.5,1.5,0,0,0,0,3h.55c0,.33-.05.66-.05,1s0,.67.05,1H13.5a1.5,1.5,0,0,0,0,3h1.34a10,10,0,0,0,15.64,3.6A1.5,1.5,0,0,0,30.64,29.48Z"/></g></svg>