<svg xmlns="http://www.w3.org/2000/svg" viewBox="0 0 48 48">
  <path fill-rule="evenodd" d="M6 4.5A1.5 1.5 0 0 0 4.5 6v6A1.5 1.5 0 0 0 6 13.5h2a3.5 3.5 0 0 1 3.5 3.5c0 1.706-1.125 2.774-2.976 4.361l-.148.127C6.737 22.889 4.5 24.803 4.5 28v14A1.5 1.5 0 0 0 6 43.5h20a1.5 1.5 0 0 0 1.5-1.5V28c0-1.662-.605-2.901-1.509-3.848-.809-.848-1.848-1.441-2.67-1.91l-.077-.044c-.917-.524-1.587-.92-2.065-1.421-.409-.428-.679-.94-.679-1.777v-2.385c.098.271.215.551.356.832.434.869 1.101 1.768 2.12 2.448C24.003 20.578 25.326 21 27 21a1 1 0 1 0 0-2c-1.325 0-2.252-.328-2.914-.77-.668-.445-1.126-1.046-1.442-1.677a5.969 5.969 0 0 1-.402-1.053H24a1.5 1.5 0 0 0 1.5-1.5v-2H28a1 1 0 0 0 1-1V9a1 1 0 0 0-1-1h-2.5V6A1.5 1.5 0 0 0 24 4.5H6Zm1.5 6v-3h15v5H19a1.5 1.5 0 0 0-1.5 1.5v3h-3A6.5 6.5 0 0 0 8 10.5h-.5Zm6.683 8.5H17.5c0 1.662.605 2.901 1.509 3.848.809.848 1.848 1.441 2.67 1.91l.077.044c.917.524 1.587.92 2.065 1.421.214.225.39.472.51.777H7.645c.359-1.177 1.368-2.107 2.831-3.361l.148-.127c1.264-1.08 2.885-2.467 3.56-4.512ZM7.5 29v11.5h17V29h-17ZM37 8a1 1 0 0 1 .97.757c.495 1.981.945 2.994 1.612 3.66.667.668 1.68 1.118 3.66 1.613a1 1 0 0 1 0 1.94c-1.98.495-2.992.945-3.66 1.612-.667.668-1.117 1.68-1.612 3.66a1 1 0 0 1-1.94 0c-.495-1.98-.945-2.992-1.612-3.66-.667-.667-1.68-1.117-3.66-1.612a1 1 0 0 1 0-1.94c1.98-.495 2.993-.945 3.66-1.612.667-.667 1.117-1.68 1.612-3.66A1 1 0 0 1 37 8Zm-2.856 7c.65.313 1.209.688 1.688 1.168.48.48.855 1.039 1.168 1.688.313-.65.688-1.209 1.168-1.688.48-.48 1.039-.855 1.688-1.168-.65-.313-1.209-.688-1.688-1.168-.48-.48-.855-1.039-1.168-1.688-.313.65-.688 1.208-1.168 1.688s-1.039.855-1.688 1.168Zm8.75 5.553a1 1 0 0 0-1.788 0c-.531 1.06-.705 1.382-.938 1.615-.233.233-.554.407-1.615.938a1 1 0 0 0 0 1.788c1.06.531 1.382.705 1.615.938.233.233.407.554.938 1.615a1 1 0 0 0 1.788 0c.531-1.06.705-1.382.938-1.615.233-.233.554-.407 1.615-.938a1 1 0 0 0 0-1.788c-1.06-.531-1.382-.705-1.615-.938-.233-.233-.407-.554-.938-1.615Zm-1.312 3.865a3.682 3.682 0 0 0-.505-.418c.184-.128.352-.265.505-.418.153-.153.29-.32.418-.505.128.184.265.352.418.505.153.153.32.29.505.418a3.682 3.682 0 0 0-.505.418c-.153.153-.29.32-.418.505a3.682 3.682 0 0 0-.418-.505Z"/>
</svg>
