<svg id="Product_Promise_Destocking_32px" xmlns="http://www.w3.org/2000/svg" viewBox="0 0 32 32"><path fill-rule="evenodd" d="M16 3a4.997 4.997 0 00-4.341 2.518 4.997 4.997 0 00-4.851 1.289 4.997 4.997 0 00-1.29 4.851A4.997 4.997 0 003 16c0 1.86 1.014 3.48 2.518 4.341a4.997 4.997 0 001.289 4.851 4.997 4.997 0 004.851 1.29A4.997 4.997 0 0016 29c1.86 0 3.48-1.015 4.342-2.52a4.997 4.997 0 004.85-1.288 4.997 4.997 0 001.29-4.85A4.997 4.997 0 0029 16c0-1.86-1.015-3.48-2.52-4.342a4.997 4.997 0 00-1.288-4.85 4.997 4.997 0 00-4.85-1.29A4.997 4.997 0 0016 3zm-2.86 4.093a3.002 3.002 0 015.72 0l.36 1.133 1.055-.547a3.002 3.002 0 014.045 4.046l-.548 1.055 1.134.359a3.002 3.002 0 010 5.722l-1.133.359.548 1.055a3.002 3.002 0 01-4.046 4.045l-1.055-.548-.359 1.134a3.002 3.002 0 01-5.722 0l-.359-1.134-1.055.549a3.002 3.002 0 01-4.046-4.046l.547-1.055-1.133-.36a3.002 3.002 0 010-5.72l1.134-.36-.548-1.055a3.002 3.002 0 014.046-4.046l1.055.547.36-1.133zm7.567 5.614a1 1 0 00-1.414-1.414l-8 8a1 1 0 001.414 1.414l8-8zm-10.207-.04a1.833 1.833 0 113.667 0 1.833 1.833 0 01-3.667 0zm9.167 4.833a1.833 1.833 0 100 3.667 1.833 1.833 0 000-3.667z"/></svg>