<svg id="Product_Promise_EcoProduct_24px" xmlns="http://www.w3.org/2000/svg" viewBox="0 0 24 24"><path d="M19.74 9.86l-.59-4.14a1.34 1.34 0 00-.81-1 1.32 1.32 0 00-1.34.15l-3 2.38a17.8 17.8 0 00-6.35-5 1 1 0 00-1 .13 1 1 0 00-.39 1 3.11 3.11 0 01-.11 1A17.84 17.84 0 014.78 8a9.09 9.09 0 00-1.05 5.8c.74 4.19 6.33 5.74 7.56 6a12 12 0 003.82 2.24 1 1 0 00.68-1.89 9.82 9.82 0 01-2.1-1.06A8 8 0 0018.6 16a8.42 8.42 0 001.14-6.14zm-14 3.6a7.16 7.16 0 01.91-4.67A20.91 20.91 0 008 4.77c1.73 1 4.66 3.09 5.26 5.8s-.77 5.4-1.66 6.79a6.3 6.3 0 01-1.6-3.99 12.15 12.15 0 01.28-2 7.92 7.92 0 00.21-2.75 1 1 0 10-2 .27A6.07 6.07 0 018.36 11 14.23 14.23 0 008 13.28a7.22 7.22 0 00.9 3.58C7.48 16.14 6 15 5.7 13.46zm11.2 1.44a5.51 5.51 0 01-2.76 2 10.36 10.36 0 001.08-6.81A6.54 6.54 0 0014.92 9l2.4-1.86.44 3.07a6.41 6.41 0 01-.82 4.69z"/></svg>