<svg xmlns="http://www.w3.org/2000/svg" viewBox="0 0 20 20">
  <path fill-rule="evenodd" d="M7.917 3.25a1.333 1.333 0 1 0 0 2.667H9.25V4.583c0-.736-.597-1.333-1.333-1.333ZM10 2.663a2.833 2.833 0 0 0-4.584 3.254H3.333a.75.75 0 0 0-.75.75V17.5c0 .414.336.75.75.75h13.334a.75.75 0 0 0 .75-.75V6.667a.75.75 0 0 0-.75-.75h-2.083A2.833 2.833 0 0 0 10 2.663Zm2.083 3.254a1.333 1.333 0 1 0-1.333-1.334v1.334h1.333Zm-8 6.916v3.917H9.25v-3.917H4.083Zm0-1.5H9.25V7.417H4.083v3.916Zm6.667 1.5v3.917h5.167v-3.917H10.75Zm5.167-1.5H10.75V7.417h5.167v3.916Z"/>
</svg>
