<svg id="Product_Promise_MadeInFrance_24px" xmlns="http://www.w3.org/2000/svg" viewBox="0 0 24 24"><path d="M12 22a.84.84 0 01-.27 0l-7-2a1 1 0 01-.6-.47 1 1 0 01-.13-.8l1.2-4.21A2.51 2.51 0 004 11.59l-1.4-.7A1 1 0 012 10V8a1 1 0 011-1h1.7a6.54 6.54 0 003.66-1.11A6.55 6.55 0 0010 4.36l.92-1.22A2.72 2.72 0 0115.17 3a11.75 11.75 0 004.07 3.08l2.18 1a1 1 0 01.36 1.53l-1 1.2a6 6 0 00-.46 6.85l.49.82a1 1 0 01-.31 1.34l-3 2a1 1 0 01-1.1 0l-1.34-.89a1 1 0 00-1.39.28l-.89 1.33A1 1 0 0112 22zm-5.76-3.69l5.33 1.53.49-.73a3 3 0 014.16-.83l.78.52 1.65-1.1a8 8 0 01.62-9.13l.15-.19-1-.47a13.81 13.81 0 01-4.78-3.61.79.79 0 00-.58-.3.73.73 0 00-.56.3l-.92 1.22a8.67 8.67 0 01-2.11 2A8.55 8.55 0 014.7 9H4v.38l.85.42a4.51 4.51 0 012.31 5.27zm0-3.51z"/></svg>