<svg xmlns="http://www.w3.org/2000/svg" viewBox="0 0 32 32"><defs></defs><g id="Icon"><path  d="M14.78,19.52a1,1,0,0,1-.68-.27l-3.32-3.06a1,1,0,0,1-.06-1.42,1,1,0,0,1,1.42,0l2.61,2.41L19.83,12a1,1,0,0,1,1.42,1.4l-5.76,5.84A1,1,0,0,1,14.78,19.52Z"/><path  d="M15.92,29.08a5.83,5.83,0,0,1-4.5-2.15,5.78,5.78,0,0,1-6.35-6.35,5.77,5.77,0,0,1,0-9,5.78,5.78,0,0,1,6.35-6.36,5.77,5.77,0,0,1,9,0,5.78,5.78,0,0,1,6.36,6.36,5.77,5.77,0,0,1,0,9,5.78,5.78,0,0,1-6.36,6.35A5.79,5.79,0,0,1,15.92,29.08ZM11.65,24.9a1.51,1.51,0,0,1,1.21.61,3.77,3.77,0,0,0,6.12,0,1.49,1.49,0,0,1,1.45-.6,3.81,3.81,0,0,0,3.27-1.06,3.75,3.75,0,0,0,1.05-3.27,1.52,1.52,0,0,1,.6-1.45,3.77,3.77,0,0,0,0-6.12,1.51,1.51,0,0,1-.6-1.45,3.76,3.76,0,0,0-4.32-4.32A1.53,1.53,0,0,1,19,6.65a3.77,3.77,0,0,0-6.12,0,1.51,1.51,0,0,1-1.45.6,3.77,3.77,0,0,0-4.33,4.32A1.5,1.5,0,0,1,6.49,13a3.77,3.77,0,0,0,0,6.12,1.5,1.5,0,0,1,.6,1.45,3.78,3.78,0,0,0,4.33,4.33A1,1,0,0,1,11.65,24.9Zm8.47,2Zm-8.4,0Zm15-6.61Zm0-8.4Z"/></g></svg>