<svg id="Product_Aspect_Size_48px" xmlns="http://www.w3.org/2000/svg" viewBox="0 0 48 48"><path d="M11.5 36h-3V10.5a2 2 0 012-2H35v3H11.5z"/><path d="M10 37.25a1.51 1.51 0 01-1.06-.44l-4.5-4.5a1.5 1.5 0 112.12-2.12L10 33.63l3.44-3.44a1.5 1.5 0 112.12 2.12l-4.5 4.5a1.51 1.51 0 01-1.06.44zM31.75 16a1.51 1.51 0 01-1.06-.44 1.49 1.49 0 010-2.12L34.13 10l-3.44-3.44a1.5 1.5 0 112.12-2.12l4.5 4.5a1.49 1.49 0 010 2.12l-4.5 4.5a1.51 1.51 0 01-1.06.44zM18.5 39.5h-2a1.5 1.5 0 010-3h2a1.5 1.5 0 010 3zM26.5 39.5h-2a1.5 1.5 0 010-3h2a1.5 1.5 0 010 3zM38 39.5h-5.5a1.5 1.5 0 010-3H38a1.5 1.5 0 010 3zM38 20a1.5 1.5 0 01-1.5-1.5v-2a1.5 1.5 0 013 0v2A1.5 1.5 0 0138 20zM38 28a1.5 1.5 0 01-1.5-1.5v-2a1.5 1.5 0 013 0v2A1.5 1.5 0 0138 28z"/><path d="M38 39.5a1.5 1.5 0 01-1.5-1.5v-5.5a1.5 1.5 0 013 0V38a1.5 1.5 0 01-1.5 1.5z"/></svg>