<svg xmlns="http://www.w3.org/2000/svg" viewBox="0 0 48 48"><defs></defs><g id="Icon"><path  d="M26.72,5.93H25l-.54-1.67a.44.44,0,0,0-.8,0l-.54,1.67H21.32a.42.42,0,0,0-.4.3.41.41,0,0,0,.15.47l1.42,1L22,9.4a.42.42,0,0,0,.16.47.4.4,0,0,0,.49,0l1.42-1,1.42,1a.44.44,0,0,0,.25.08.41.41,0,0,0,.25-.08.43.43,0,0,0,.15-.47l-.54-1.67L27,6.7a.41.41,0,0,0,.15-.47A.42.42,0,0,0,26.72,5.93Z"/><path  d="M35.64,8.1H33.88l-.55-1.67a.43.43,0,0,0-.4-.29h0a.41.41,0,0,0-.4.29L32,8.1H30.23a.42.42,0,0,0-.4.3.41.41,0,0,0,.15.47l1.42,1-.54,1.67A.43.43,0,0,0,31,12a.42.42,0,0,0,.5,0l1.42-1,1.43,1a.38.38,0,0,0,.25.08.49.49,0,0,0,.25-.08.44.44,0,0,0,.15-.47L34.46,9.9l1.43-1A.41.41,0,0,0,36,8.4.42.42,0,0,0,35.64,8.1Z"/><path  d="M41.3,31.3H39.54L39,29.64a.43.43,0,0,0-.4-.29h0a.43.43,0,0,0-.41.29l-.53,1.66H35.89a.43.43,0,0,0-.41.29.44.44,0,0,0,.16.48l1.42,1-.54,1.68a.41.41,0,0,0,.15.47.42.42,0,0,0,.5,0l1.42-1,1.43,1a.43.43,0,0,0,.24.08.44.44,0,0,0,.25-.08.43.43,0,0,0,.16-.47l-.55-1.68,1.42-1a.42.42,0,0,0-.24-.77Z"/><path  d="M35.06,37.31H33.3l-.55-1.68a.43.43,0,0,0-.4-.29h0a.41.41,0,0,0-.4.3l-.54,1.67H29.65a.42.42,0,0,0-.4.29.41.41,0,0,0,.15.47l1.42,1-.54,1.67a.42.42,0,0,0,.65.47l1.42-1,1.43,1a.38.38,0,0,0,.25.08.41.41,0,0,0,.25-.08.43.43,0,0,0,.15-.47l-.55-1.67,1.43-1a.4.4,0,0,0,.15-.47A.42.42,0,0,0,35.06,37.31Z"/><path  d="M12.14,31.3H10.38l-.54-1.66a.42.42,0,0,0-.4-.29h0a.42.42,0,0,0-.4.29L8.49,31.3H6.73a.43.43,0,0,0-.25.77l1.43,1-.55,1.68a.41.41,0,0,0,.15.47.42.42,0,0,0,.5,0l1.42-1,1.43,1a.44.44,0,0,0,.25.08.43.43,0,0,0,.4-.55L11,33.1l1.42-1a.43.43,0,0,0-.25-.77Z"/><path  d="M37.06,16.25l-.54,1.67a.41.41,0,0,0,.15.47.42.42,0,0,0,.5,0l1.42-1,1.43,1a.37.37,0,0,0,.24.08.38.38,0,0,0,.25-.08.43.43,0,0,0,.16-.47l-.55-1.67,1.42-1a.41.41,0,0,0,.16-.47.43.43,0,0,0-.4-.29H39.54L39,12.78a.43.43,0,0,0-.4-.29h0a.43.43,0,0,0-.41.29l-.54,1.68H35.89a.42.42,0,0,0-.41.29.43.43,0,0,0,.16.47Z"/><path  d="M44,23.27a.42.42,0,0,0-.4-.29H41.82l-.54-1.67a.43.43,0,0,0-.4-.3h0a.43.43,0,0,0-.41.29L39.93,23H38.17a.4.4,0,0,0-.4.29.41.41,0,0,0,.15.47l1.43,1-.55,1.67a.41.41,0,0,0,.15.47.42.42,0,0,0,.5,0l1.42-1,1.43,1a.38.38,0,0,0,.25.08.37.37,0,0,0,.24-.08.42.42,0,0,0,.16-.47l-.54-1.67,1.42-1A.43.43,0,0,0,44,23.27Z"/><path  d="M7.9,16.25l-.55,1.67a.41.41,0,0,0,.15.47.39.39,0,0,0,.25.08A.38.38,0,0,0,8,18.39l1.43-1,1.42,1a.4.4,0,0,0,.49,0,.43.43,0,0,0,.16-.47L11,16.25l1.42-1a.41.41,0,0,0,.15-.47.42.42,0,0,0-.4-.29H10.37l-.54-1.68a.42.42,0,0,0-.4-.29h0a.42.42,0,0,0-.4.29l-.55,1.68H6.72a.42.42,0,0,0-.25.76Z"/><path  d="M8.55,26.92a.42.42,0,0,0,.5,0,.41.41,0,0,0,.15-.47l-.55-1.67,1.43-1a.41.41,0,0,0,.15-.47.4.4,0,0,0-.4-.29H8.07L7.53,21.3A.43.43,0,0,0,7.12,21h0a.43.43,0,0,0-.4.3L6.18,23H4.42a.42.42,0,0,0-.4.29.43.43,0,0,0,.15.47l1.42,1-.54,1.67a.42.42,0,0,0,.16.47.38.38,0,0,0,.25.08.37.37,0,0,0,.24-.08l1.42-1Z"/><path  d="M17.81,8.1H16.05l-.54-1.67a.41.41,0,0,0-.4-.29h0a.43.43,0,0,0-.4.29L14.16,8.1H12.4a.42.42,0,0,0-.4.3.41.41,0,0,0,.15.47l1.43,1L13,11.57a.43.43,0,0,0,.15.47.49.49,0,0,0,.25.08.38.38,0,0,0,.25-.08l1.43-1,1.42,1a.42.42,0,0,0,.5,0,.43.43,0,0,0,.15-.47L16.64,9.9l1.42-1a.41.41,0,0,0,.15-.47A.42.42,0,0,0,17.81,8.1Z"/><path  d="M18.4,37.31H16.64l-.54-1.67a.43.43,0,0,0-.4-.3h0a.43.43,0,0,0-.41.29l-.54,1.68H13a.43.43,0,0,0-.41.29.42.42,0,0,0,.16.47l1.42,1-.54,1.67a.41.41,0,0,0,.15.47.38.38,0,0,0,.25.08.39.39,0,0,0,.25-.08l1.43-1,1.41,1a.42.42,0,0,0,.5,0,.41.41,0,0,0,.15-.47l-.53-1.67,1.41-1a.41.41,0,0,0,.16-.47A.43.43,0,0,0,18.4,37.31Z"/><path  d="M26.72,40H25l-.54-1.67a.44.44,0,0,0-.8,0L23.08,40H21.32a.43.43,0,0,0-.25.77l1.42,1L22,43.45a.43.43,0,0,0,.15.47.49.49,0,0,0,.25.08.44.44,0,0,0,.25-.08l1.42-1,1.42,1a.42.42,0,0,0,.5,0,.43.43,0,0,0,.15-.47l-.54-1.68,1.42-1a.43.43,0,0,0-.25-.77Z"/></g></svg>