<svg xmlns="http://www.w3.org/2000/svg" viewBox="0 0 64 64"><defs></defs><g id="Icon"><path  d="M59,15A10,10,0,0,0,41,9H15a2,2,0,0,0-2,2V53a2,2,0,0,0,2,2H49a2,2,0,0,0,2-2V24.8A10,10,0,0,0,59,15ZM16,52V12H39.46A9.95,9.95,0,0,0,41,21H22.5a1.5,1.5,0,0,0,0,3h19a1.49,1.49,0,0,0,1.43-1.07A10,10,0,0,0,48,25V52ZM49,22a7,7,0,1,1,7-7A7,7,0,0,1,49,22Z"/><path  d="M52.5,14H50V11.5a1,1,0,0,0-2,0V14H45.5a1,1,0,0,0,0,2H48v2.5a1,1,0,0,0,2,0V16h2.5a1,1,0,0,0,0-2Z"/><path  d="M33.5,30.5h-11a1.5,1.5,0,0,0,0,3h11a1.5,1.5,0,0,0,0-3Z"/><path  d="M33.5,40h-11a1.5,1.5,0,0,0,0,3h11a1.5,1.5,0,0,0,0-3Z"/><path  d="M41.5,30.5h-3a1.5,1.5,0,0,0,0,3h3a1.5,1.5,0,0,0,0-3Z"/><path  d="M41.5,40h-3a1.5,1.5,0,0,0,0,3h3a1.5,1.5,0,0,0,0-3Z"/></g></svg>