<svg xmlns="http://www.w3.org/2000/svg" viewBox="0 0 24 24"><circle cx="9.46" cy="19.85" r="2.15"/><path d="M15.69 17.7a2.15 2.15 0 102.15 2.15 2.15 2.15 0 00-2.15-2.15zM22.5 6.5a4.5 4.5 0 00-9 0v.2H6.65l-.53-2a1 1 0 00-1-.74H3A1 1 0 003 6h1.39l2.67 9.83a1 1 0 001 .74h9.1a1 1 0 00.94-.66l2-5.43a4.47 4.47 0 002.4-3.98zm-6.07 8.07H8.79L7.2 8.7h6.9a4.47 4.47 0 003.64 2.3zM18 10a3.5 3.5 0 113.5-3.5A3.5 3.5 0 0118 10z"/><path d="M20 6h-1.5V4.5a.5.5 0 00-1 0V6H16a.5.5 0 000 1h1.5v1.5a.5.5 0 001 0V7H20a.5.5 0 000-1z"/></svg>