<svg id="Product_Promise_CircularEconomy_64px" xmlns="http://www.w3.org/2000/svg" viewBox="0 0 64 64"><path fill-rule="evenodd" d="M32 54.5c9.529 0 17.678-5.925 20.958-14.296a1.5 1.5 0 012.793 1.094C52.036 50.78 42.805 57.5 32 57.5c-.596 0-1.187-.02-1.773-.06l2.833 2.833a1.5 1.5 0 01-2.12 2.12L20.271 51.728a1.5 1.5 0 010-2.121L30.94 38.939a1.5 1.5 0 012.121 2.121l-2.665 2.666c.524.07 1.06.107 1.605.107 4.633 0 8.646-2.662 10.59-6.546a1.5 1.5 0 012.683 1.342C42.84 43.49 37.812 46.833 32 46.833c-1.014 0-2.006-.102-2.965-.296-.37-.075-.68-.28-.893-.558l-4.688 4.688 3.24 3.238c.1.002.202.014.305.038a22.61 22.61 0 005 .557zm-17.815-6.348a1.5 1.5 0 01-2.108-.235A25.399 25.399 0 016.5 32a25.387 25.387 0 014.353-14.254l-3.868 1.036a1.5 1.5 0 01-.777-2.897L20.78 11.98a1.5 1.5 0 011.837 1.061l3.905 14.57a1.5 1.5 0 01-2.898.777l-.975-3.64A11.777 11.777 0 0020.166 32c0 2.414.722 4.655 1.96 6.525a1.5 1.5 0 01-2.501 1.656A14.77 14.77 0 0117.166 32c0-4.096 1.662-7.806 4.345-10.489.069-.069.143-.13.22-.182l-1.624-6.063-4.417 1.184a1.512 1.512 0 01-.189.252A22.415 22.415 0 009.5 32c0 5.314 1.84 10.194 4.92 14.043a1.5 1.5 0 01-.235 2.109zm39.319-22.794c.03.1.071.195.12.284l-1.186 4.425-6.06-1.623a1.51 1.51 0 00-.047-.283C44.64 21.831 38.866 17.167 32 17.167c-.3 0-.599.009-.895.026a1.5 1.5 0 00.179 2.995c.236-.014.475-.021.716-.021 4.951 0 9.195 3.042 10.96 7.36l-3.644-.976a1.5 1.5 0 00-.776 2.898l14.57 3.904a1.5 1.5 0 001.838-1.06l3.904-14.571a1.5 1.5 0 10-2.898-.777L54.92 20.81C50.774 12.337 42.07 6.5 31.999 6.5c-1.297 0-2.573.097-3.82.285a1.5 1.5 0 10.446 2.966c1.1-.165 2.227-.251 3.375-.251 10.112 0 18.67 6.672 21.504 15.858z"/></svg>