<svg xmlns="http://www.w3.org/2000/svg" viewBox="0 0 24 24"><defs></defs><g id="Calque_5" ><path  d="M21.8,4.91A1,1,0,0,0,21,4.5H10.45L10,2.73A1,1,0,0,0,9,2H7A1,1,0,0,0,7,4H8.24L9.49,8.5h-3L6,6.73A1,1,0,0,0,5,6H3A1,1,0,0,0,3,8H4.24l2.3,8.27a1,1,0,0,0,1,.73H15a1,1,0,0,0,1-.71L17,13h2a1,1,0,0,0,1-.71l2-6.5A1,1,0,0,0,21.8,4.91ZM14.26,15h-6L7,10.5h8.64l-.32,1a.93.93,0,0,0-.12.41Zm4-4h-.68L18,9.79a1,1,0,0,0-.16-.88A1,1,0,0,0,17,8.5H11.57L11,6.5h8.64Z"/><path  d="M8.5,18.5a1.75,1.75,0,1,0,1.75,1.75A1.75,1.75,0,0,0,8.5,18.5Z"/><path  d="M13.5,18.5a1.75,1.75,0,1,0,1.75,1.75A1.75,1.75,0,0,0,13.5,18.5Z"/></g></svg>