<svg xmlns="http://www.w3.org/2000/svg" viewBox="0 0 32 32"><defs></defs><g id="Icon"><path  d="M5.59,24a2,2,0,0,0,2.82,0l2.3-2.29a1,1,0,0,0-1.42-1.42L8,21.59V8H21.59l-1.3,1.29a1,1,0,0,0,0,1.42,1,1,0,0,0,1.42,0L24,8.41a2,2,0,0,0,0-2.82l-2.29-2.3a1,1,0,0,0-1.42,1.42L21.59,6H7A1,1,0,0,0,6,7V21.59l-1.29-1.3a1,1,0,0,0-1.42,1.42Z"/><path  d="M26,24V21a1,1,0,0,0-2,0v3H21a1,1,0,0,0,0,2h3A2,2,0,0,0,26,24Z"/><path  d="M24,11.25v1.5a1,1,0,0,0,2,0v-1.5a1,1,0,0,0-2,0Z"/><path  d="M26,16.25a1,1,0,0,0-2,0v1.5a1,1,0,0,0,2,0Z"/><path  d="M12.75,26a1,1,0,0,0,0-2h-1.5a1,1,0,0,0,0,2Z"/><path  d="M17.75,26a1,1,0,0,0,0-2h-1.5a1,1,0,0,0,0,2Z"/></g></svg>