<svg xmlns="http://www.w3.org/2000/svg" viewBox="0 0 32 32">
  <path fill-rule="evenodd" d="M10.667 5C9.747 5 9 5.746 9 6.667v1h3.333v-1c0-.92-.746-1.667-1.666-1.667Zm3.666 2.667v-1a3.667 3.667 0 0 0-7.333 0v1H3.333a1 1 0 1 0 0 2h9v14.246a2.502 2.502 0 0 1-.595-.156l-1.105-.442a3.5 3.5 0 0 0-2.6 0l-1.318.527a2.5 2.5 0 0 1-1.535.104l-1.725-.431a.5.5 0 0 0-.243.97l1.726.431a3.5 3.5 0 0 0 2.148-.145l1.319-.528a2.5 2.5 0 0 1 1.857 0l1.105.442a3.5 3.5 0 0 0 2.6 0l1.104-.442a2.5 2.5 0 0 1 1.857 0l1.105.442a3.5 3.5 0 0 0 2.6 0l1.105-.442a2.5 2.5 0 0 1 1.857 0l1.319.528a3.5 3.5 0 0 0 2.148.145l1.726-.43a.5.5 0 0 0-.243-.971l-1.725.431a2.5 2.5 0 0 1-1.535-.104L25 23.728V9.667h3.667a1 1 0 1 0 0-2H25v-1a3.667 3.667 0 1 0-7.333 0v1h-3.334Zm.367 15.648-.367.146v-3.794H23v3.413a3.5 3.5 0 0 0-1.633.235l-1.105.442a2.5 2.5 0 0 1-1.857 0l-1.105-.442a3.5 3.5 0 0 0-2.6 0Zm8.3-5.648v-3.334h-8.667v3.334H23Zm0-5.334h-8.667V9.667H23v2.666Zm0-4.666v-1a1.667 1.667 0 1 0-3.333 0v1H23ZM10.633 27.315a3.5 3.5 0 0 0-2.6 0l-1.318.527a2.5 2.5 0 0 1-1.535.104l-1.725-.431a.5.5 0 0 0-.243.97l1.726.431a3.5 3.5 0 0 0 2.148-.145l1.319-.528a2.5 2.5 0 0 1 1.857 0l1.105.442a3.5 3.5 0 0 0 2.6 0l1.104-.442a2.5 2.5 0 0 1 1.857 0l1.105.442a3.5 3.5 0 0 0 2.6 0l1.105-.442a2.5 2.5 0 0 1 1.857 0l1.319.528a3.5 3.5 0 0 0 2.148.145l1.726-.43a.5.5 0 0 0-.243-.971l-1.725.431a2.5 2.5 0 0 1-1.535-.104l-1.319-.527a3.5 3.5 0 0 0-2.6 0l-1.104.442a2.5 2.5 0 0 1-1.857 0l-1.105-.442a3.5 3.5 0 0 0-2.6 0l-1.105.442a2.5 2.5 0 0 1-1.857 0l-1.105-.442Z"/>
</svg>
