<svg id="Product_Promise_Funding_48px" xmlns="http://www.w3.org/2000/svg" viewBox="0 0 48 48"><path d="M12.75 16.5a1.5 1.5 0 001.5 1.5h1.34a10 10 0 0015.64 3.6 1.5 1.5 0 00-2-2.28A7 7 0 0119 18h5.24a1.5 1.5 0 000-3h-6.41a6.29 6.29 0 010-2h6.42a1.5 1.5 0 000-3H19a7 7 0 015.72-3A6.86 6.86 0 0129 8.43 1.5 1.5 0 0030.78 6a10 10 0 00-15.19 4h-1.34a1.5 1.5 0 000 3h.55c0 .33-.05.66-.05 1s0 .67.05 1h-.55a1.5 1.5 0 00-1.5 1.5zM43.64 32.31a4.16 4.16 0 00-5.37-2.21L33 32.23A4 4 0 0029 29H18.86a18.72 18.72 0 00-8.28 1.94L7.83 32.3A1.5 1.5 0 009.17 35l2.74-1.36a15.66 15.66 0 017-1.63H29a1 1 0 010 2h-5.82a1.5 1.5 0 000 3H29A4 4 0 0031.72 36l7.66-3.07a1.18 1.18 0 011.52.63 1.25 1.25 0 010 .95 1.22 1.22 0 01-.66.66l-13.77 5.47a3.92 3.92 0 01-1.65.36h-8.64a1.5 1.5 0 000 3h8.64a6.81 6.81 0 002.83-.61l13.71-5.48a4.21 4.21 0 002.28-5.6z"/></svg>