<svg xmlns="http://www.w3.org/2000/svg" viewBox="0 0 20 20">
  <path fill-rule="evenodd" d="M6.667 2.583a.75.75 0 0 0-.75.75v2.584h-.918a3.25 3.25 0 0 0-3.249 3.25v7.5c0 .414.336.75.75.75h15a.75.75 0 0 0 .75-.75v-7.5A3.25 3.25 0 0 0 15 5.917h-.917V3.333a.75.75 0 0 0-.75-.75H6.667ZM5 7.417h10c.966 0 1.75.783 1.75 1.75v1.583h-2.917V10a.5.5 0 1 0-1 0v.75H7.167V10a.5.5 0 0 0-1 0v.75H3.25V9.167c0-.967.784-1.75 1.75-1.75ZM3.25 11.75v4.167h13.5V11.75h-2.917v.75a.5.5 0 1 1-1 0v-.75H7.167v.75a.5.5 0 1 1-1 0v-.75H3.25Zm9.333-5.833H7.417V4.083h5.166v1.834Z"/>
</svg>
