<svg xmlns="http://www.w3.org/2000/svg" viewBox="0 0 32 32"><rect width=".98" height="10" x="10.91" y="11"/><rect width=".98" height="10" x="17.33" y="11"/><rect width=".98" height="10" x="24.02" y="11"/><rect width="2.52" height="10" x="7" y="11"/><rect width="2.52" height="10" x="13.12" y="11"/><rect width="2.52" height="10" x="20.11" y="11"/><path d="M4 11a1 1 0 01-1-1V5a2 2 0 012-2h5a1 1 0 010 2H5v5a1 1 0 01-1 1zM28 11a1 1 0 01-1-1V5h-5a1 1 0 010-2h5a2 2 0 012 2v5a1 1 0 01-1 1zM29 27a2 2 0 01-2 2h-5a1 1 0 110-2h5v-5a1 1 0 012 0zM10 29H5a2 2 0 01-2-2v-5a1 1 0 012 0v5h5a1 1 0 110 2z"/></svg>