<svg xmlns="http://www.w3.org/2000/svg" viewBox="0 0 32 32"><defs></defs><g id="Icon"><path  d="M7,27h6.23a1,1,0,0,0,1-1.33A1.89,1.89,0,0,1,14,25a2,2,0,0,1,4,0,1.89,1.89,0,0,1-.13.67A1,1,0,0,0,18.82,27h4.23A2,2,0,0,0,25,25.05V20a4,4,0,0,0,0-8V7A2,2,0,0,0,23.05,5H18.82a1,1,0,0,0-.95,1.33A1.89,1.89,0,0,1,18,7a2,2,0,0,1-4,0,1.89,1.89,0,0,1,.13-.67,1,1,0,0,0-1-1.33H7A2,2,0,0,0,5,7v6.23a1,1,0,0,0,.42.82,1,1,0,0,0,.91.13A1.89,1.89,0,0,1,7,14a2,2,0,0,1,0,4,1.89,1.89,0,0,1-.67-.13,1,1,0,0,0-.91.13,1,1,0,0,0-.42.82v6.23A2,2,0,0,0,7,27Zm0-7a4,4,0,0,0,0-8H7L7,7H12a4,4,0,0,0,8,0h0l3,0v6.23a1,1,0,0,0,.42.82,1,1,0,0,0,.91.13A1.89,1.89,0,0,1,25,14a2,2,0,0,1,0,4,1.89,1.89,0,0,1-.67-.13,1,1,0,0,0-.91.13,1,1,0,0,0-.42.82L23.05,25H20a4,4,0,0,0-8,0h0l-5,0Z"/></g></svg>