<svg xmlns="http://www.w3.org/2000/svg" viewBox="0 0 48 48"><defs></defs><g id="Icon"><path  d="M12.75,16.5a1.5,1.5,0,0,0,1.5,1.5h1.34a10,10,0,0,0,15.64,3.6,1.5,1.5,0,0,0-2-2.28A7,7,0,0,1,19,18h5.24a1.5,1.5,0,0,0,0-3H17.83a6.29,6.29,0,0,1,0-2h6.42a1.5,1.5,0,0,0,0-3H19a7,7,0,0,1,5.72-3A6.86,6.86,0,0,1,29,8.43,1.5,1.5,0,0,0,30.78,6a10,10,0,0,0-15.19,4H14.25a1.5,1.5,0,0,0,0,3h.55c0,.33-.05.66-.05,1s0,.67.05,1h-.55A1.5,1.5,0,0,0,12.75,16.5Z"/><path  d="M43.64,32.31a4.16,4.16,0,0,0-5.37-2.21L33,32.23A4,4,0,0,0,29,29H18.86a18.72,18.72,0,0,0-8.28,1.94L7.83,32.3A1.5,1.5,0,0,0,9.17,35l2.74-1.36a15.66,15.66,0,0,1,7-1.63H29a1,1,0,0,1,0,2H23.18a1.5,1.5,0,0,0,0,3H29A4,4,0,0,0,31.72,36l7.66-3.07a1.18,1.18,0,0,1,1.52.63,1.25,1.25,0,0,1,0,.95,1.22,1.22,0,0,1-.66.66L26.47,40.64a3.92,3.92,0,0,1-1.65.36H16.18a1.5,1.5,0,0,0,0,3h8.64a6.81,6.81,0,0,0,2.83-.61l13.71-5.48a4.21,4.21,0,0,0,2.28-5.6Z"/></g></svg>