<svg xmlns="http://www.w3.org/2000/svg" viewBox="0 0 32 32"><defs></defs><g id="Icon"><path  d="M20.5,10.5h-9a.5.5,0,0,0,0,1h9a.5.5,0,0,0,0-1Z"/><path  d="M17,15.5H11.5a.5.5,0,0,0,0,1H17a.5.5,0,0,0,0-1Z"/><path  d="M20.5,15.5H19.21a.5.5,0,0,0,0,1H20.5a.5.5,0,0,0,0-1Z"/><path  d="M17,20.5H11.5a.5.5,0,0,0,0,1H17a.5.5,0,0,0,0-1Z"/><path  d="M20.5,20.5H19.21a.5.5,0,0,0,0,1H20.5a.5.5,0,0,0,0-1Z"/><path  d="M27.75,7a4,4,0,0,0-7.44-2H9A2,2,0,0,0,7,7V25a2,2,0,0,0,2,2H23a2,2,0,0,0,2-2V10.78A4,4,0,0,0,27.75,7ZM9,25V7H19.75A4,4,0,0,0,23,10.92V25ZM23.75,10a3,3,0,1,1,3-3A3,3,0,0,1,23.75,10Z"/><path  d="M25.25,6.5h-1v-1a.5.5,0,0,0-1,0v1h-1a.5.5,0,0,0,0,1h1v1a.5.5,0,0,0,1,0v-1h1a.5.5,0,0,0,0-1Z"/></g></svg>