<svg xmlns="http://www.w3.org/2000/svg" viewBox="0 0 24 24"><defs></defs><g id="Calque_5" ><path  d="M19.74,9.86l-.59-4.14a1.34,1.34,0,0,0-.81-1A1.32,1.32,0,0,0,17,4.87L14,7.25a17.8,17.8,0,0,0-6.35-5,1,1,0,0,0-1,.13,1,1,0,0,0-.39,1,3.11,3.11,0,0,1-.11,1A17.84,17.84,0,0,1,4.78,8,9.09,9.09,0,0,0,3.73,13.8c.74,4.19,6.33,5.74,7.56,6a12,12,0,0,0,3.82,2.24,1,1,0,0,0,.68-1.89,9.82,9.82,0,0,1-2.1-1.06A8,8,0,0,0,18.6,16,8.42,8.42,0,0,0,19.74,9.86Zm-14,3.6a7.16,7.16,0,0,1,.91-4.67A20.91,20.91,0,0,0,8,4.77v0c1.73,1,4.66,3.09,5.26,5.8s-.77,5.4-1.66,6.79A6.3,6.3,0,0,1,10,13.37a12.15,12.15,0,0,1,.28-2,7.92,7.92,0,0,0,.21-2.75,1,1,0,1,0-2,.27A6.07,6.07,0,0,1,8.36,11,14.23,14.23,0,0,0,8,13.28a7.22,7.22,0,0,0,.9,3.58C7.48,16.14,6,15,5.7,13.46ZM16.94,14.9a5.51,5.51,0,0,1-2.76,2,10.36,10.36,0,0,0,1.08-6.81A6.54,6.54,0,0,0,14.92,9h0l2.4-1.86.44,3.07A6.41,6.41,0,0,1,16.94,14.9Z"/></g></svg>