<svg xmlns="http://www.w3.org/2000/svg" viewBox="0 0 32 32"><defs></defs><g id="Icon"><path  d="M18,23.06a1,1,0,1,0-1-1.73,1,1,0,1,0,1,1.73Z"/><path  d="M25.84,4.39a2,2,0,0,0-1.33-.75L19.8,3.05a1,1,0,0,0-.67.16,1.78,1.78,0,0,0-.61,0,.4.4,0,0,0-.15,0L12.7,5.05a1,1,0,0,0-.51.39,2,2,0,0,0-1.35.23L6.51,8.17a2,2,0,0,0-.73,2.73l9.64,16.7a2,2,0,0,0,2.74.73l4.33-2.5a2.07,2.07,0,0,0,.46-.38,1,1,0,0,0,.95-.87L26.25,5.87A2,2,0,0,0,25.84,4.39Zm-7,.8,2,13.73-7-12.13ZM17.16,26.6,7.51,9.9l4.33-2.5,9.65,16.7Zm5.54-8.53L20.85,5.19l3.41.43Z"/></g></svg>