<svg xmlns="http://www.w3.org/2000/svg" viewBox="0 0 64 64"><defs></defs><g id="Icon"><path  d="M56.87,32a12.55,12.55,0,0,1,.53-2.94c.45-1.77.92-3.59.32-5.41s-2.16-3.15-3.53-4.27a12.33,12.33,0,0,1-2.07-2,12.2,12.2,0,0,1-1.27-2.61c-.64-1.64-1.37-3.49-3-4.64s-3.55-1.27-5.3-1.38a12.3,12.3,0,0,1-2.9-.4,12.1,12.1,0,0,1-2.47-1.33c-1.5-1-3.2-2-5.22-2s-3.72,1.09-5.22,2.05a12.1,12.1,0,0,1-2.47,1.33,12.3,12.3,0,0,1-2.9.4c-1.75.12-3.73.24-5.3,1.38s-2.32,3-3,4.64a12.7,12.7,0,0,1-1.26,2.61,12.43,12.43,0,0,1-2.08,2c-1.37,1.12-2.92,2.39-3.53,4.27s-.13,3.64.32,5.41A12.55,12.55,0,0,1,7.13,32a12.55,12.55,0,0,1-.53,2.94c-.45,1.77-.92,3.59-.32,5.41s2.16,3.15,3.53,4.27a12.43,12.43,0,0,1,2.08,2,12.2,12.2,0,0,1,1.26,2.61c.64,1.64,1.37,3.49,3,4.64s3.55,1.27,5.3,1.38a12.47,12.47,0,0,1,2.91.4A12.31,12.31,0,0,1,26.78,57c1.5,1,3.2,2,5.22,2s3.72-1.09,5.22-2a12.1,12.1,0,0,1,2.47-1.33,12.3,12.3,0,0,1,2.9-.4c1.75-.12,3.74-.24,5.3-1.38s2.32-3,3-4.64a12.7,12.7,0,0,1,1.26-2.61,12.05,12.05,0,0,1,2.08-2c1.37-1.12,2.92-2.39,3.53-4.27s.13-3.64-.32-5.41A12.55,12.55,0,0,1,56.87,32Zm-2.38,3.69a7.44,7.44,0,0,1,.38,3.73,7.44,7.44,0,0,1-2.58,2.88,14.43,14.43,0,0,0-2.6,2.52,14.76,14.76,0,0,0-1.63,3.28,7.46,7.46,0,0,1-1.93,3.31,7.42,7.42,0,0,1-3.73.81,15,15,0,0,0-3.64.54,14.06,14.06,0,0,0-3.16,1.67A7.48,7.48,0,0,1,32,56a7.48,7.48,0,0,1-3.6-1.57,14.06,14.06,0,0,0-3.16-1.67,15,15,0,0,0-3.64-.54,7.48,7.48,0,0,1-3.73-.81,7.46,7.46,0,0,1-1.93-3.31,14.76,14.76,0,0,0-1.63-3.28,14.43,14.43,0,0,0-2.6-2.52,7.44,7.44,0,0,1-2.58-2.88,7.44,7.44,0,0,1,.38-3.73A15.16,15.16,0,0,0,10.13,32a15.16,15.16,0,0,0-.62-3.69,7.44,7.44,0,0,1-.38-3.73,7.44,7.44,0,0,1,2.58-2.88,14.43,14.43,0,0,0,2.6-2.52,14.76,14.76,0,0,0,1.63-3.28,7.46,7.46,0,0,1,1.93-3.31,7.48,7.48,0,0,1,3.73-.81,15,15,0,0,0,3.64-.54A14.06,14.06,0,0,0,28.4,9.57,7.48,7.48,0,0,1,32,8a7.48,7.48,0,0,1,3.6,1.57,14.06,14.06,0,0,0,3.16,1.67,15,15,0,0,0,3.64.54,7.48,7.48,0,0,1,3.73.81,7.46,7.46,0,0,1,1.93,3.31,14.76,14.76,0,0,0,1.63,3.28,14.43,14.43,0,0,0,2.6,2.52,7.44,7.44,0,0,1,2.58,2.88,7.44,7.44,0,0,1-.38,3.73A15.16,15.16,0,0,0,53.87,32,15.16,15.16,0,0,0,54.49,35.69Z"/><path  d="M33,21.5a10.44,10.44,0,0,1,6.12,2,1.5,1.5,0,1,0,1.76-2.43A13.47,13.47,0,0,0,20.29,27.5H18a1.5,1.5,0,0,0,0,3h1.59a12.54,12.54,0,0,0,0,3H18a1.5,1.5,0,0,0,0,3h2.29A13.47,13.47,0,0,0,40.88,43a1.5,1.5,0,1,0-1.76-2.43,10.46,10.46,0,0,1-15.59-4H33a1.5,1.5,0,0,0,0-3H22.62a9.44,9.44,0,0,1,0-3H33a1.5,1.5,0,0,0,0-3H23.53A10.5,10.5,0,0,1,33,21.5Z"/></g></svg>