<svg xmlns="http://www.w3.org/2000/svg" viewBox="0 0 64 64"><defs></defs><g id="Icon"><path  d="M55.93,18.82A2,2,0,0,0,54.32,18H36.5V6.5a1.5,1.5,0,0,0-3,0V18H16.29l-1.74-6.52A2,2,0,0,0,12.62,10H6.5a1.5,1.5,0,0,0,0,3h5.35l7.6,28.52A2,2,0,0,0,21.38,43H47.63a2,2,0,0,0,1.91-1.39l6.68-21A2,2,0,0,0,55.93,18.82ZM46.9,40H22.15L17.09,21H33.5v8.38l-3.44-3.44a1.5,1.5,0,0,0-2.12,2.12l6,6a1.5,1.5,0,0,0,2.12,0l6-6a1.5,1.5,0,0,0-2.12-2.12L36.5,29.38V21H53Z"/><path  d="M25,47a6,6,0,1,0,6,6A6,6,0,0,0,25,47Zm0,9a3,3,0,1,1,3-3A3,3,0,0,1,25,56Z"/><path  d="M44,47a6,6,0,1,0,6,6A6,6,0,0,0,44,47Zm0,9a3,3,0,1,1,3-3A3,3,0,0,1,44,56Z"/></g></svg>