<svg xmlns="http://www.w3.org/2000/svg" viewBox="0 0 64 64"><defs></defs><g id="Icon"><path  d="M58.51,32a2,2,0,0,0-1-1.72l-6-3.52,6-3.54a2,2,0,0,0,1-1.72,2,2,0,0,0-1-1.72L32.93,5.35a2,2,0,0,0-2,0L6.47,19.78a2,2,0,0,0-1,1.72,2,2,0,0,0,1,1.72l6,3.52-6,3.54a2,2,0,0,0-1,1.72,2,2,0,0,0,1,1.72l6,3.52-6,3.54a2,2,0,0,0-1,1.72,2,2,0,0,0,1,1.72l24.6,14.43a2,2,0,0,0,1,.27,2,2,0,0,0,1-.28L57.53,44.22a2,2,0,0,0,1-1.72,2,2,0,0,0-1-1.72l-6-3.52,6-3.54A2,2,0,0,0,58.51,32ZM31.92,8.24,54.54,21.5,32.08,34.76,9.46,21.5ZM54.54,42.5,32.08,55.76,9.46,42.5l6-3.53,15.64,9.18a2,2,0,0,0,1,.27,2,2,0,0,0,1-.28L48.58,39ZM32.08,45.26,9.46,32l6-3.53,15.64,9.18a2,2,0,0,0,1,.27,2,2,0,0,0,1-.28l15.48-9.13,6,3.49Z"/></g></svg>