<svg xmlns="http://www.w3.org/2000/svg" viewBox="0 0 32 32"><defs></defs><g id="Icon"><path  d="M23,3H9A2,2,0,0,0,7,5V27a2,2,0,0,0,2,2H23a2,2,0,0,0,2-2V5A2,2,0,0,0,23,3ZM9,5H23v5H9ZM9,27V12H23V27Z"/><path  d="M20.25,16h-6a1,1,0,0,0,0,2h6a1,1,0,0,0,0-2Z"/><path  d="M12.21,16.29A1,1,0,0,0,11.3,16l-.18.06a.76.76,0,0,0-.18.09,1.58,1.58,0,0,0-.15.12,1.15,1.15,0,0,0-.21.33.84.84,0,0,0-.08.38,1,1,0,1,0,1.92-.38A1,1,0,0,0,12.21,16.29Z"/><path  d="M20,21H14a1,1,0,0,0,0,2h6a1,1,0,0,0,0-2Z"/><path  d="M10.54,21.29a1.05,1.05,0,0,0-.29.71,1,1,0,0,0,.07.38,1.19,1.19,0,0,0,.22.33,1,1,0,0,0,.71.29,1,1,0,0,0,.38-.08,1.15,1.15,0,0,0,.33-.21,1,1,0,0,0,.29-.71,1,1,0,0,0-1.71-.71Z"/></g></svg>