<svg xmlns="http://www.w3.org/2000/svg" viewBox="0 0 48 48">
  <path fill-rule="evenodd" d="M4.5 6A1.5 1.5 0 0 1 6 4.5h36A1.5 1.5 0 0 1 43.5 6v36a1.5 1.5 0 0 1-1.5 1.5H6A1.5 1.5 0 0 1 4.5 42V6Zm3 1.5v7h33v-7h-33Zm0 33v-23h33v23h-33ZM12 25a1 1 0 0 1 1-1h22a1 1 0 0 1 1 1v12a1 1 0 0 1-1 1H13a1 1 0 0 1-1-1V25Zm2 1v10h20V26H14Zm7-16a1 1 0 1 0 0 2h6a1 1 0 1 0 0-2h-6Zm-8 10a1 1 0 1 0 0 2h22a1 1 0 1 0 0-2H13Zm23-9a1 1 0 1 1-2 0 1 1 0 0 1 2 0Zm-5 1a1 1 0 1 0 0-2 1 1 0 0 0 0 2Zm-13-1a1 1 0 1 1-2 0 1 1 0 0 1 2 0Zm-5 1a1 1 0 1 0 0-2 1 1 0 0 0 0 2Z"/>
</svg>
