<svg xmlns="http://www.w3.org/2000/svg" viewBox="0 0 64 64"><defs></defs><g id="Icon"><path  d="M15.44,47.44,13,49.88V13H49.88l-2.44,2.44a1.49,1.49,0,0,0,0,2.12,1.5,1.5,0,0,0,2.12,0l5-5a1.63,1.63,0,0,0,.33-.49v0a1.43,1.43,0,0,0,0-1.1v0a1.63,1.63,0,0,0-.33-.49l-5-5a1.5,1.5,0,0,0-2.12,2.12L49.88,10H12a2,2,0,0,0-2,2V49.88L7.56,47.44a1.5,1.5,0,0,0-2.12,2.12l4.65,4.65a1,1,0,0,0,.19.15,1.48,1.48,0,0,0,2.44,0,1,1,0,0,0,.19-.15l4.65-4.65a1.5,1.5,0,1,0-2.12-2.12Z"/><path  d="M40.5,52h-5a1.5,1.5,0,0,0,0,3h5a1.5,1.5,0,0,0,0-3Z"/><path  d="M27.5,52h-5a1.5,1.5,0,0,0,0,3h5a1.5,1.5,0,0,0,0-3Z"/><path  d="M53.5,47A1.5,1.5,0,0,0,52,48.5V52H48.5a1.5,1.5,0,0,0,0,3H53a2,2,0,0,0,2-2V48.5A1.5,1.5,0,0,0,53.5,47Z"/><path  d="M53.5,34A1.5,1.5,0,0,0,52,35.5v5a1.5,1.5,0,0,0,3,0v-5A1.5,1.5,0,0,0,53.5,34Z"/><path  d="M53.5,21A1.5,1.5,0,0,0,52,22.5v5a1.5,1.5,0,0,0,3,0v-5A1.5,1.5,0,0,0,53.5,21Z"/></g></svg>