<svg xmlns="http://www.w3.org/2000/svg" viewBox="0 0 32 32">
  <g clip-path="url(#a)">
    <path fill-rule="evenodd" d="M3 4a1 1 0 0 1 1-1h24a1 1 0 0 1 1 1v24a1 1 0 0 1-1 1H4a1 1 0 0 1-1-1V4Zm2 1v4.667h22V5H5Zm0 22V11.667h22V27H5Zm3.167-10.333a.5.5 0 0 1 .5-.5h14.666a.5.5 0 0 1 .5.5v8a.5.5 0 0 1-.5.5H8.667a.5.5 0 0 1-.5-.5v-8Zm1 .5v7h13.666v-7H9.167ZM14 6.833a.5.5 0 0 0 0 1h4a.5.5 0 0 0 0-1h-4ZM8.667 13.5a.5.5 0 0 0 0 1h14.666a.5.5 0 1 0 0-1H8.667ZM24 7.333a.667.667 0 1 1-1.333 0 .667.667 0 0 1 1.333 0ZM20.667 8a.667.667 0 1 0 0-1.333.667.667 0 0 0 0 1.333ZM12 7.333a.667.667 0 1 1-1.333 0 .667.667 0 0 1 1.333 0ZM8.667 8a.667.667 0 1 0 0-1.333.667.667 0 0 0 0 1.333Z"/>
  </g>
  <defs>
    <clipPath id="a">
      <rect width="32" height="32" fill="#fff"/>
    </clipPath>
  </defs>
</svg>
