<svg id="Product_Promise_MadeInEurope_64px" xmlns="http://www.w3.org/2000/svg" viewBox="0 0 64 64"><path d="M35.67 7.61H33.3l-.73-2.26a.6.6 0 00-1.09 0l-.72 2.26h-2.38a.57.57 0 00-.33 1L30 10l-.73 2.26a.59.59 0 00.21.64.57.57 0 00.67 0L32 11.53l1.91 1.39a.54.54 0 00.34.12.57.57 0 00.33-.11.57.57 0 00.21-.64l-.7-2.29L36 8.65a.57.57 0 00.2-.64.56.56 0 00-.53-.4zM42 13l-.73 2.26a.57.57 0 00.21.64.59.59 0 00.67 0l1.91-1.39L46 15.86a.59.59 0 00.34.1.51.51 0 00.33-.11.56.56 0 00.21-.64L46.12 13l1.93-1.38a.59.59 0 00.21-.64.58.58 0 00-.55-.4h-2.37l-.74-2.3a.58.58 0 00-.55-.39.57.57 0 00-.54.39l-.73 2.26h-2.37a.56.56 0 00-.54.4.57.57 0 00.2.64zM55.35 41.86H53l-.75-2.25a.56.56 0 00-.54-.39.56.56 0 00-.54.39l-.73 2.25h-2.39a.57.57 0 00-.34 1l1.92 1.4-.73 2.26a.57.57 0 00.21.64.59.59 0 00.67 0l1.91-1.4 1.93 1.4a.6.6 0 00.34.11.59.59 0 00.33-.11.57.57 0 00.21-.64l-.74-2.26 1.93-1.4a.58.58 0 00.2-.64.56.56 0 00-.54-.36zM46.93 50h-2.38l-.74-2.25a.56.56 0 00-.54-.4.56.56 0 00-.54.4L42 50h-2.37a.57.57 0 00-.34 1l1.92 1.39-.73 2.25a.57.57 0 00.21.64.59.59 0 00.67 0l1.91-1.39 1.93 1.39a.59.59 0 00.33.11.6.6 0 00.34-.11.59.59 0 00.21-.64l-.74-2.25L47.26 51a.56.56 0 00.21-.64.57.57 0 00-.54-.36zM16.53 42.25a.58.58 0 00-.54-.39h-2.38l-.72-2.25a.58.58 0 00-.55-.39.58.58 0 00-.54.39l-.74 2.25H8.68a.58.58 0 00-.54.39.56.56 0 00.21.64l1.93 1.4-.74 2.26a.57.57 0 00.2.64.6.6 0 00.68 0l1.91-1.4 1.93 1.4a.59.59 0 00.33.11.6.6 0 00.34-.11.59.59 0 00.21-.64l-.73-2.26 1.91-1.4a.57.57 0 00.21-.64zM47.5 19.51a.58.58 0 00.21.64l1.92 1.39-.73 2.25a.56.56 0 00.21.64.56.56 0 00.67 0L51.69 23l1.93 1.39a.6.6 0 00.34.11.59.59 0 00.33-.11.57.57 0 00.21-.64l-.74-2.25 1.92-1.39a.57.57 0 00-.33-1H53l-.75-2.26a.56.56 0 00-.54-.4.56.56 0 00-.54.4l-.73 2.26h-2.39a.57.57 0 00-.55.4zM59 31a.56.56 0 00-.54-.39h-2.4l-.73-2.26a.58.58 0 00-.54-.39.58.58 0 00-.54.39l-.74 2.26h-2.38a.57.57 0 00-.34 1l1.93 1.4-.72 2.3a.56.56 0 00.21.64.59.59 0 00.67 0l1.91-1.4L56.7 36a.6.6 0 00.34.11.59.59 0 00.33-.11.57.57 0 00.21-.64l-.73-2.26 1.91-1.4A.55.55 0 0059 31zM8.34 20.15l1.92 1.39-.74 2.25a.59.59 0 00.21.64.6.6 0 00.34.11.59.59 0 00.33-.11L12.33 23l1.91 1.39a.56.56 0 00.67 0 .56.56 0 00.21-.64l-.73-2.25 1.92-1.39a.58.58 0 00.21-.64.57.57 0 00-.55-.39H13.6l-.73-2.26a.56.56 0 00-.54-.4.56.56 0 00-.54.4l-.74 2.26H8.67a.56.56 0 00-.54.39.55.55 0 00.21.68zM11.15 36a.59.59 0 00.67 0 .57.57 0 00.2-.64l-.74-2.26 1.93-1.4a.57.57 0 00-.34-1H10.5l-.74-2.26a.58.58 0 00-.54-.44.58.58 0 00-.54.39l-.73 2.26H5.57A.56.56 0 005 31a.55.55 0 00.21.64l1.91 1.4-.73 2.26a.59.59 0 00.21.64.6.6 0 00.34.11.59.59 0 00.36-.05l1.92-1.4zM16 11.58L17.93 13l-.74 2.25a.58.58 0 00.21.64.53.53 0 00.34.11.58.58 0 00.33-.1L20 14.47l1.91 1.39a.6.6 0 00.68 0 .59.59 0 00.2-.64L22.06 13 24 11.58a.57.57 0 00-.34-1h-2.39l-.73-2.26a.56.56 0 00-.54-.43.56.56 0 00-.54.39l-.74 2.26h-2.38a.56.56 0 00-.54.4.57.57 0 00.2.64zM24.43 50h-2.37l-.73-2.25a.56.56 0 00-.54-.4.56.56 0 00-.54.4L19.51 50h-2.38a.57.57 0 00-.33 1l1.92 1.39-.72 2.25a.59.59 0 00.21.64.6.6 0 00.34.11.59.59 0 00.33-.11l1.93-1.39 1.91 1.39a.6.6 0 00.68 0 .58.58 0 00.2-.64l-.73-2.25 1.9-1.39a.57.57 0 00-.34-1zM35.67 53.57H33.3l-.73-2.25a.6.6 0 00-1.09 0l-.72 2.25h-2.38a.58.58 0 00-.54.4.57.57 0 00.21.64L30 56l-.73 2.25a.58.58 0 00.21.64.6.6 0 00.34.11.59.59 0 00.33-.11L32 57.5l1.91 1.39a.56.56 0 00.67 0 .57.57 0 00.21-.64l-.7-2.25L36 54.61a.57.57 0 00.2-.64.56.56 0 00-.53-.4z"/></svg>