<svg id="Product_Promise_Funding_32px" xmlns="http://www.w3.org/2000/svg" viewBox="0 0 32 32"><path d="M7.7 11.13a1 1 0 001 1h.85a6.49 6.49 0 0010.18 2.33 1 1 0 10-1.3-1.52 4.47 4.47 0 01-6.58-.81h3.34a1 1 0 100-2h-4.13a4.07 4.07 0 01-.06-.62 4.34 4.34 0 01.06-.62h4.13a1 1 0 000-2h-3.34a4.49 4.49 0 016.38-1 1 1 0 001.21-1.59A6.44 6.44 0 0015.5 3a6.51 6.51 0 00-5.95 3.89H8.7a1 1 0 000 2H9v1.24h-.3a1 1 0 00-1 1zM27.79 21.38a2.72 2.72 0 00-3.52-1.45l-3.41 1.37a2.62 2.62 0 00-2.56-2.08h-6.61a12.11 12.11 0 00-5.38 1.26l-1.78.88a1 1 0 10.89 1.79l1.78-.88a10.14 10.14 0 014.49-1.05h6.61a.63.63 0 010 1.25h-3.8a1 1 0 000 2h3.8a2.58 2.58 0 001.75-.69l5-2a.73.73 0 01.94.39.74.74 0 010 .6.72.72 0 01-.41.41l-8.94 3.58a2.59 2.59 0 01-1.06.23H10a1 1 0 000 2h5.6a4.54 4.54 0 001.85-.39l8.89-3.56a2.75 2.75 0 001.49-3.67z"/></svg>