<svg xmlns="http://www.w3.org/2000/svg" viewBox="0 0 20 20">
  <path fill-rule="evenodd" d="M7.5 4.25a.75.75 0 0 0-.75.75v2.583H5a.75.75 0 0 0-.75.75v2.584H2.5a.75.75 0 0 0-.75.75V15c0 .414.336.75.75.75h15a.75.75 0 0 0 .75-.75v-3.333a.75.75 0 0 0-.75-.75h-1.75V8.333a.75.75 0 0 0-.75-.75h-1.75V5a.75.75 0 0 0-.75-.75h-5Zm6.75 6.667V9.083h-3.5v1.834h3.5Zm-2.5 1.5h-3.5v1.833h3.5v-1.833Zm1.5 1.833h3.5v-1.833h-3.5v1.833Zm-6.5-1.833v1.833h-3.5v-1.833h3.5Zm2.5-1.5h-3.5V9.083h3.5v1.834ZM10 7.583H8.25V5.75h3.5v1.833H10Z"/>
</svg>
