<svg id="Product_Promise_Warranty_64px" xmlns="http://www.w3.org/2000/svg" viewBox="0 0 64 64"><path d="M59 32a10.48 10.48 0 00-5.16-9A10.52 10.52 0 0041 10.16a10.5 10.5 0 00-18.08 0A10.52 10.52 0 0010.16 23a10.5 10.5 0 000 18.08A10.52 10.52 0 0023 53.84a10.5 10.5 0 0018.08 0A10.52 10.52 0 0053.84 41 10.48 10.48 0 0059 32zm-7.57 6.91a1.49 1.49 0 00-.81 1.94 7.5 7.5 0 01-9.77 9.77 1.49 1.49 0 00-1.94.8 7.5 7.5 0 01-13.82 0 1.5 1.5 0 00-1.38-.91 1.55 1.55 0 00-.56.11 7.5 7.5 0 01-9.77-9.77 1.49 1.49 0 00-.81-1.94 7.51 7.51 0 010-13.82 1.49 1.49 0 00.81-1.94 7.5 7.5 0 019.77-9.77 1.49 1.49 0 001.94-.81 7.51 7.51 0 0113.82 0 1.49 1.49 0 001.94.81 7.5 7.5 0 019.77 9.77 1.49 1.49 0 00.81 1.94 7.51 7.51 0 010 13.82z"/><path d="M42.94 24L30.19 36.79l-7.13-7.13a1.5 1.5 0 10-2.12 2.12l7.83 7.83a2 2 0 002.83 0l13.46-13.46a1.49 1.49 0 000-2.12 1.51 1.51 0 00-2.12-.03z"/></svg>