<svg xmlns="http://www.w3.org/2000/svg" viewBox="0 0 48 48"><defs></defs><g id="Icon"><path  d="M43.5,24.25a2,2,0,0,0-1-1.73L38.6,20.25,42.51,18h0a2,2,0,0,0,0-3.46L25,4.35a2,2,0,0,0-2,0L5.49,14.52a2,2,0,0,0,0,3.46L9.4,20.25,5.49,22.52a2,2,0,0,0,0,3.46L9,28,5.49,30a2,2,0,0,0,0,3.46L23,43.65a2,2,0,0,0,2,0L42.51,33.48a2,2,0,0,0,0-3.46L39,28l3.48-2A2,2,0,0,0,43.5,24.25ZM24,7.23l15.51,9L24,25.27l-15.51-9ZM39.51,31.75,24,40.77l-15.51-9,3.46-2L23,36.15a2,2,0,0,0,2,0l11-6.42ZM24,33.27l-15.51-9L12.38,22,23,28.15a2,2,0,0,0,2,0L35.62,22l3.89,2.26Z"/></g></svg>