<svg xmlns="http://www.w3.org/2000/svg" viewBox="0 0 48 48"><defs></defs><g id="Icon"><path  d="M25.54,23H17a1,1,0,0,0,0,2h8.54a1,1,0,0,0,0-2Z"/><path  d="M31,23H29.17a1,1,0,0,0,0,2H31a1,1,0,0,0,0-2Z"/><path  d="M25.54,30H17a1,1,0,0,0,0,2h8.54a1,1,0,0,0,0-2Z"/><path  d="M31,30H29.17a1,1,0,0,0,0,2H31a1,1,0,0,0,0-2Z"/><path  d="M41,12A8,8,0,0,0,26.76,7H12a2,2,0,0,0-2,2V39a2,2,0,0,0,2,2H36a2,2,0,0,0,2-2V18.24A8,8,0,0,0,41,12ZM33,6a6,6,0,1,1-6,6A6,6,0,0,1,33,6Zm2,32H13V10H25.26A8.24,8.24,0,0,0,25,12a8,8,0,0,0,1.08,4H17a1,1,0,0,0,0,2H27.72A8,8,0,0,0,33,20a8.24,8.24,0,0,0,2-.26Z"/><path  d="M30,13h2v2a1,1,0,0,0,2,0V13h2a1,1,0,0,0,0-2H34V9a1,1,0,0,0-2,0v2H30a1,1,0,0,0,0,2Z"/></g></svg>