<svg id="Product_Promise_MadeInEurope_24px" xmlns="http://www.w3.org/2000/svg" viewBox="0 0 24 24"><path d="M13.73 3.3H12.6l-.34-1.12a.28.28 0 00-.52 0L11.4 3.3h-1.13a.28.28 0 00-.26.2.3.3 0 00.1.31l.89.69-.35 1.13a.32.32 0 00.1.32.27.27 0 00.32 0l.91-.7.91.7a.3.3 0 00.16 0 .33.33 0 00.16 0 .32.32 0 00.1-.32L13 4.5l.91-.69A.3.3 0 0014 3.5a.28.28 0 00-.27-.2zM19.23 5.8H18.1l-.34-1.12a.28.28 0 00-.52 0L16.9 5.8h-1.13a.28.28 0 00-.26.2.3.3 0 00.1.31l.91.69-.35 1.13a.32.32 0 00.1.32.27.27 0 00.32 0l.91-.7.91.7a.3.3 0 00.16.05.33.33 0 00.16-.05.32.32 0 00.1-.32L18.48 7l.91-.69a.3.3 0 00.1-.31.28.28 0 00-.26-.2zM21.73 11.3H20.6l-.34-1.12a.28.28 0 00-.52 0l-.34 1.12h-1.13a.28.28 0 00-.26.2.3.3 0 00.1.31l.91.69-.35 1.13a.32.32 0 00.1.32.27.27 0 00.32 0l.91-.7.91.7a.3.3 0 00.16.05.33.33 0 00.16-.05.32.32 0 00.1-.32L21 12.5l.91-.69a.3.3 0 00.1-.31.28.28 0 00-.28-.2zM19.23 16.8H18.1l-.34-1.12a.28.28 0 00-.52 0l-.34 1.12h-1.13a.28.28 0 00-.26.2.3.3 0 00.1.31l.91.69-.35 1.13a.32.32 0 00.1.32.27.27 0 00.32 0l.91-.7.91.7a.3.3 0 00.16.05.33.33 0 00.16-.05.32.32 0 00.1-.32L18.48 18l.91-.69a.3.3 0 00.1-.31.28.28 0 00-.26-.2zM13.73 19.3H12.6l-.34-1.12a.28.28 0 00-.52 0l-.34 1.12h-1.13a.28.28 0 00-.26.2.3.3 0 00.1.31l.91.69-.35 1.13a.32.32 0 00.1.32.27.27 0 00.32 0l.91-.7.91.7a.3.3 0 00.16.05.33.33 0 00.16-.05.32.32 0 00.1-.32L13 20.5l.91-.69a.3.3 0 00.1-.31.28.28 0 00-.28-.2zM8.23 16.8H7.1l-.34-1.12a.28.28 0 00-.52 0L5.9 16.8H4.77a.28.28 0 00-.26.2.3.3 0 00.1.31l.91.69-.35 1.13a.32.32 0 00.1.32.27.27 0 00.32 0l.91-.7.91.7a.3.3 0 00.16.05.33.33 0 00.16-.05.32.32 0 00.1-.32L7.48 18l.91-.69a.3.3 0 00.1-.31.28.28 0 00-.26-.2zM5.73 11.3H4.6l-.34-1.12a.28.28 0 00-.52 0L3.4 11.3H2.27a.28.28 0 00-.26.2.3.3 0 00.1.31l.89.69-.35 1.13a.32.32 0 00.1.32.27.27 0 00.32 0l.91-.7.91.7a.3.3 0 00.16.05.33.33 0 00.18 0 .32.32 0 00.1-.32L5 12.5l.91-.69A.3.3 0 006 11.5a.28.28 0 00-.27-.2zM8.23 5.8H7.1l-.34-1.12a.28.28 0 00-.52 0L5.9 5.8H4.77a.28.28 0 00-.26.2.3.3 0 00.1.31l.91.69-.35 1.13a.32.32 0 00.1.32.27.27 0 00.32 0l.91-.7.91.7a.3.3 0 00.16.05.33.33 0 00.16-.05.32.32 0 00.1-.32L7.48 7l.91-.69a.3.3 0 00.1-.31.28.28 0 00-.26-.2z"/></svg>