<svg xmlns="http://www.w3.org/2000/svg" viewBox="0 0 20 20">
  <g clip-path="url(#a)">
    <path fill-rule="evenodd" d="M1.75 2.5a.75.75 0 0 1 .75-.75h15a.75.75 0 0 1 .75.75v15a.75.75 0 0 1-.75.75H10a.75.75 0 0 1-.75-.75v-3.833H4.792a.76.76 0 0 1-.071-.004 2.833 2.833 0 0 1-2.971-2.83V2.5ZM10 12.163c.027 0 .053 0 .079.004h.546a1.125 1.125 0 0 0 0-2.25h-3.36a2.833 2.833 0 0 1-.182 2.25h2.838a.737.737 0 0 1 .079-.004ZM5.41 9.786a.75.75 0 0 1 .423-1.37H7.5v-.5a.417.417 0 0 1 .833 0v.5h.917V3.25H6.667v.5a.417.417 0 0 1-.834 0v-.5H3.25v7.583a1.334 1.334 0 0 0 .917 1.267.42.42 0 0 1 0-.017v-.833a.417.417 0 0 1 .833 0v.833a.42.42 0 0 1 0 .017 1.331 1.331 0 0 0 .823-1.758 1.333 1.333 0 0 0-.414-.556Zm5.34-6.536v5.17c.324.015.633.089.917.211v-.714a.417.417 0 1 1 .833 0v.833c0 .127-.057.24-.146.317a2.625 2.625 0 0 1-1.604 4.597v3.086h2.583v-.5a.417.417 0 0 1 .834 0v.5h2.583V3.25h-2.583v.5a.417.417 0 0 1-.834 0v-.5H10.75Zm1.75 1.333a.417.417 0 1 0-.833 0v.834a.417.417 0 1 0 .833 0v-.834Zm3.333 0a.417.417 0 1 0-.833 0v.834a.417.417 0 1 0 .833 0v-.834ZM15.417 7.5c.23 0 .416.187.416.417v.833a.417.417 0 1 1-.833 0v-.833c0-.23.187-.417.417-.417Zm0 3.333c.23 0 .416.187.416.417v.833a.417.417 0 1 1-.833 0v-.833c0-.23.187-.417.417-.417Zm0 3.334c.23 0 .416.186.416.416v.834a.417.417 0 1 1-.833 0v-.834c0-.23.187-.416.417-.416Zm-1.25-7.917a.417.417 0 0 0-.834 0v.833a.417.417 0 0 0 .834 0V6.25Zm0 3.333a.417.417 0 0 0-.834 0v.834a.417.417 0 0 0 .834 0v-.834Zm0 3.334a.417.417 0 1 0-.834 0v.833a.417.417 0 0 0 .834 0v-.833Zm-2.084 1.25c.23 0 .417.186.417.416v.834a.417.417 0 1 1-.833 0v-.834c0-.23.186-.416.416-.416Zm-4.166-10c.23 0 .416.186.416.416v.834a.417.417 0 1 1-.833 0v-.834c0-.23.187-.416.417-.416Zm-3.334 0c.23 0 .417.186.417.416v.834a.417.417 0 0 1-.833 0v-.834c0-.23.186-.416.416-.416ZM6.25 5.833c.23 0 .417.187.417.417v.833a.417.417 0 0 1-.834 0V6.25c0-.23.187-.417.417-.417ZM4.583 7.5c.23 0 .417.187.417.417v.833a.417.417 0 0 1-.833 0v-.833c0-.23.186-.417.416-.417Z"/>
  </g>
  <defs>
    <clipPath id="a">
      <rect width="20" height="20" fill="#fff"/>
    </clipPath>
  </defs>
</svg>
