<svg xmlns="http://www.w3.org/2000/svg" viewBox="0 0 64 64">
  <path fill-rule="evenodd" d="M6.5 8A1.5 1.5 0 0 1 8 6.5h24a25.404 25.404 0 0 1 16.94 6.44l2.666-2.667a1.5 1.5 0 1 1 2.121 2.121l-2.666 2.666A25.404 25.404 0 0 1 57.5 32a1.5 1.5 0 0 1-1.5 1.5h-1.196a22.756 22.756 0 0 1-1.885 10.333H56a1.5 1.5 0 0 1 0 3h-4.675C47.282 53.243 40.138 57.5 32 57.5s-15.282-4.258-19.325-10.667H8a1.5 1.5 0 1 1 0-3h3.081A22.755 22.755 0 0 1 9.196 33.5H8A1.5 1.5 0 0 1 6.5 32V8Zm4.352 22.5H9.549c.772-11.727 10.529-21 22.451-21s21.679 9.273 22.45 21h-7.692C46.006 23.012 39.686 17.167 32 17.167c-7.686 0-14.006 5.845-14.758 13.333h-6.39Zm1.348 3c-.022.386-.033.775-.033 1.167C12.167 45.62 21.047 54.5 32 54.5c6.368 0 12.035-3.001 15.664-7.667h-23.83v-3h25.759a19.748 19.748 0 0 0 2.24-9.166c0-.392-.011-.781-.033-1.167h-6.467a1.5 1.5 0 0 1-1.5-1.5c0-6.535-5.298-11.833-11.833-11.833S20.167 25.465 20.167 32a1.5 1.5 0 0 1-1.5 1.5H12.2Zm7.79-24A25.617 25.617 0 0 0 9.5 19.99V9.5h10.49ZM32 33a1.667 1.667 0 1 0 0 3.333A1.667 1.667 0 0 0 32 33Zm-3.667 1.667a3.667 3.667 0 1 1 7.334 0 3.667 3.667 0 0 1-7.334 0Z"/>
</svg>
