<svg xmlns="http://www.w3.org/2000/svg" viewBox="0 0 64 64">
  <path fill-rule="evenodd" d="M8 6.5A1.5 1.5 0 0 0 6.5 8v12a1.5 1.5 0 0 0 3 0V9.5H20a1.5 1.5 0 0 0 0-3H8ZM9.5 44a1.5 1.5 0 0 0-3 0v12A1.5 1.5 0 0 0 8 57.5h12a1.5 1.5 0 0 0 0-3H9.5V44ZM56 42.5a1.5 1.5 0 0 1 1.5 1.5v12a1.5 1.5 0 0 1-1.5 1.5H44a1.5 1.5 0 0 1 0-3h10.5V44a1.5 1.5 0 0 1 1.5-1.5Zm-12-36a1.5 1.5 0 0 0 0 3h10.5V20a1.5 1.5 0 0 0 3 0V8A1.5 1.5 0 0 0 56 6.5H44ZM22.667 21.333v21.334h-5.334V21.333h5.334Zm21.333 0h-5.333v21.334H44V21.333Zm-16 0h5.333v21.334H28V21.333Zm-2 0h-1.333v21.334H26V21.333Zm20 0h1.333v21.334H46V21.333Zm-9.333 0h-1.334v21.334h1.334V21.333Z"/>
</svg>
