<svg id="Product_Trolley_24px" xmlns="http://www.w3.org/2000/svg" viewBox="0 0 24 24"><path fill-rule="evenodd" d="M2 3a1 1 0 011-1h2a1 1 0 011 1v11.5h2v-7a1 1 0 011-1h8a1 1 0 011 1v7h1.586l.707-.707a1 1 0 011.414 1.414l-1 1A1 1 0 0120 16.5H5a1 1 0 01-1-1V4H3a1 1 0 01-1-1zm14 5.5v6h-6v-6h2.5V10a.5.5 0 001 0V8.5H16zm-7.5 11a.25.25 0 100 .5.25.25 0 000-.5zm-2.25.25a2.25 2.25 0 114.5 0 2.25 2.25 0 01-4.5 0zm10.25 0a.25.25 0 11.5 0 .25.25 0 01-.5 0zm.25-2.25a2.25 2.25 0 100 4.5 2.25 2.25 0 000-4.5z"/></svg>