<svg xmlns="http://www.w3.org/2000/svg" viewBox="0 0 64 64">
  <path fill-rule="evenodd" d="M14.5 8A1.5 1.5 0 0 1 16 6.5h32A1.5 1.5 0 0 1 49.5 8v2.5h5.167c.067 0 .133.004.197.013a1.5 1.5 0 0 1 1.64 1.071c.649 2.25.996 4.627.996 7.083 0 7.308-3.074 13.898-8 18.547V56a1.5 1.5 0 0 1-1.5 1.5H16a1.5 1.5 0 0 1-1.5-1.5V37.214c-4.926-4.65-8-11.24-8-18.547 0-2.456.347-4.833.997-7.083a1.5 1.5 0 0 1 1.639-1.071c.064-.009.13-.013.197-.013H14.5V8Zm-5 10.667c0-1.78.206-3.51.596-5.167H14.5v19.31a22.406 22.406 0 0 1-5-14.143Zm8 17.205V18.333h4.167v7a3.667 3.667 0 1 0 7.333 0v-7h17.5v17.539A22.41 22.41 0 0 1 32 41.167a22.41 22.41 0 0 1-14.5-5.295Zm29-19.539V9.5h-29v6.833h5.167a1 1 0 0 1 1 1v8a1.667 1.667 0 1 0 3.333 0v-8a1 1 0 0 1 1-1h18.5Zm7.404-2.833H49.5v19.31c3.127-3.864 5-8.785 5-14.143 0-1.78-.206-3.51-.596-5.167ZM17.5 54.5V39.646a25.382 25.382 0 0 0 14.5 4.52c5.387 0 10.383-1.67 14.5-4.52V54.5h-29Z"/>
</svg>
