<svg xmlns="http://www.w3.org/2000/svg" viewBox="0 0 64 64"><defs></defs><g id="Icon"><path  d="M6.5,20.94A1.5,1.5,0,0,0,8,19.44V8H19.5a1.5,1.5,0,0,0,0-3H7A2,2,0,0,0,5,7V19.44A1.5,1.5,0,0,0,6.5,20.94Z"/><path  d="M57,4.93H44.5a1.5,1.5,0,0,0,0,3H56v11.5a1.5,1.5,0,1,0,3,0V6.93A2,2,0,0,0,57,4.93Z"/><path  d="M19.5,55.92H8V44.42a1.5,1.5,0,0,0-3,0v12.5a2,2,0,0,0,2,2H19.5a1.5,1.5,0,0,0,0-3Z"/><path  d="M57.5,42.93a1.5,1.5,0,0,0-1.5,1.5v11.5H44.5a1.5,1.5,0,0,0,0,3H57a2,2,0,0,0,2-2V44.43A1.5,1.5,0,0,0,57.5,42.93Z"/><rect  x="22.97" y="20.93" width="1.71" height="22"/><rect  x="34.97" y="20.93" width="1.71" height="22"/><rect  x="45.97" y="20.93" width="1.71" height="22"/><rect  x="17.32" y="20.93" width="4" height="22"/><rect  x="27.62" y="20.93" width="4.41" height="22"/><rect  x="39.62" y="20.93" width="4.41" height="22"/></g></svg>