<svg id="Product_Basket_Multi_48px" xmlns="http://www.w3.org/2000/svg" viewBox="0 0 48 48"><path d="M16.67 35a4.5 4.5 0 104.5 4.5 4.5 4.5 0 00-4.5-4.5zm0 6a1.49 1.49 0 111.49-1.49A1.49 1.49 0 0116.67 41zM28.36 35a4.5 4.5 0 104.5 4.5 4.51 4.51 0 00-4.5-4.5zm0 6a1.49 1.49 0 111.49-1.49A1.49 1.49 0 0128.36 41zM43.69 10.51a1.49 1.49 0 00-1.19-.59H19.32L18 5.09A1.5 1.5 0 0016.52 4h-3a1.5 1.5 0 100 3h1.91l2.53 9h-6.8l-1.33-4.86A1.5 1.5 0 008.38 10H5.5a1.5 1.5 0 000 3h1.74l5.28 19.23A1.51 1.51 0 0014 33.37h17.06a1.5 1.5 0 001.44-1.09L34 27h4.62a1.49 1.49 0 001.44-1.11l3.89-14a1.5 1.5 0 00-.26-1.38zM29.92 30.37h-14.8L12 19h21.12zM37.47 24h-2.62l1.7-6.05a1.49 1.49 0 00-.25-1.32 1.51 1.51 0 00-1.2-.63H21l-.86-3.07h20.38z"/></svg>