<svg xmlns="http://www.w3.org/2000/svg" viewBox="0 0 32 32"><defs></defs><g id="Icon"><path  d="M7,20.46,5.89,23.64a2,2,0,0,0,.48,2,2,2,0,0,0,1.41.59,2,2,0,0,0,.64-.1l3.18-1.06a2,2,0,0,0,.78-.49L26.33,10.68a2,2,0,0,0,0-2.83L24.21,5.73a2,2,0,0,0-2.83,0l-13.95,14A2,2,0,0,0,7,20.46ZM11.14,23,9,20.91,20.32,9.62l2.12,2.12ZM22.8,7.15l2.11,2.11L23.14,11,21,8.91ZM8.58,21.88l1.6,1.59-2.39.8Z"/><path  d="M4.52,20.65A.51.51,0,0,0,5,21l.15,0a.51.51,0,0,0,.33-.63,15.6,15.6,0,0,1,0-9.37,5.07,5.07,0,0,0,.34.55A4.54,4.54,0,0,0,9,13.5a3.56,3.56,0,0,0,3.84-1.78,4.28,4.28,0,0,0-.52-4.64A3.57,3.57,0,0,0,8.09,6.4a5.65,5.65,0,0,0-2.49,2,12.27,12.27,0,0,1,.16-4.83A.5.5,0,0,0,5.38,3a.5.5,0,0,0-.59.38,12.39,12.39,0,0,0,.1,6.29A16,16,0,0,0,4.52,20.65ZM8.46,7.33a2.55,2.55,0,0,1,3.06.42,3.26,3.26,0,0,1,.39,3.5,2.58,2.58,0,0,1-2.83,1.26A3.54,3.54,0,0,1,6.6,11,5.53,5.53,0,0,1,6,9.75,5,5,0,0,1,8.46,7.33Z"/></g></svg>