<svg xmlns="http://www.w3.org/2000/svg" viewBox="0 0 48 48"><defs></defs><g id="Icon"><path  d="M31.06,24l9.35-9.37a2,2,0,0,0,0-2.82L36.18,7.58a2,2,0,0,0-2.83,0L24,17,14.65,7.59a2,2,0,0,0-2.83,0L7.59,11.83a2,2,0,0,0,0,2.83L16.94,24,9.42,31.54a2,2,0,0,0-.5.84l-1.8,6a2,2,0,0,0,2.49,2.49l6-1.8a2,2,0,0,0,.85-.5L24,31.09l9.31,9.33a2,2,0,0,0,2.83,0l4.24-4.25a2,2,0,0,0,0-2.82Zm6.53-10.78-1.32,1.32-2.82-2.83,1.31-1.32ZM32,13.14,34.86,16,28.94,21.9l-2.82-2.83ZM11.5,34.23l2.3,2.3-3.28,1Zm4,1.15-2.82-2.83,6.4-6.41L21.88,29Zm19.26,2.21-3-3,.7-.7A1,1,0,1,0,31,32.49l-.71.7-2.82-2.83.7-.7a1,1,0,0,0,0-1.42,1,1,0,0,0-1.41,0l-.7.71-2.83-2.83.7-.7A1,1,0,0,0,24,24a1,1,0,0,0-1.41,0l-.7.7L19,21.88l.7-.71a1,1,0,0,0-1.41-1.41l-.7.7-2.83-2.83.71-.7a1,1,0,0,0,0-1.41,1,1,0,0,0-1.42,0l-.7.7-3-3,2.83-2.82L37.55,34.76Z"/></g></svg>