<svg id="Promise_Funding-zloty_64px" xmlns="http://www.w3.org/2000/svg" viewBox="0 0 64 64"><path fill-rule="evenodd" d="M47.565 30.065c1.33 1.29 3.169 1.935 5.52 1.935l.248-4.373c-.997 0-1.78-.348-2.35-1.045-.57-.696-.854-1.65-.854-2.864V17.76l2.99-1.084v-4.334l-2.99 1.084V2.667H45.57v12.422l-2.279.851v4.334l2.279-.851v5.186c0 2.321.665 4.14 1.994 5.456zM36.138 15.321l-9.471 12.383.035 3.986H42.12v-4.41h-9.863l9.436-12.693V10.91H26.845v4.412h9.293zM9.5 30.667a1.5 1.5 0 10-3 0v24a1.5 1.5 0 003 0v-2.248a27.775 27.775 0 002.635 1.575c3.34 1.758 8.245 3.506 14.532 3.506 4.756 0 10.225-1.194 15.114-2.633 4.912-1.445 9.341-3.17 12.052-4.296 2.27-.943 3.667-3.162 3.667-5.566 0-4.16-4.024-7.131-7.999-5.908l-9.334 2.872A6.167 6.167 0 0034 35.833H21.333c-4.521 0-7.706-.645-9.725-1.267A16.144 16.144 0 019.5 33.77v-3.102zm.644 18.519a17.008 17.008 0 01-.644-.52V37.018c.364.136.772.276 1.226.416 2.313.712 5.795 1.4 10.607 1.4H34a3.167 3.167 0 010 6.333h-7.333a1.5 1.5 0 100 3H34a6.16 6.16 0 005.127-2.74l11.256-3.463a3.18 3.18 0 014.117 3.04c0 1.248-.717 2.34-1.818 2.797-2.653 1.102-6.975 2.784-11.748 4.188-4.794 1.411-9.939 2.51-14.267 2.51-5.714 0-10.143-1.585-13.135-3.16a23.66 23.66 0 01-3.388-2.153z"/></svg>