<svg xmlns="http://www.w3.org/2000/svg" viewBox="0 0 48 48"><defs></defs><g id="Icon"><path  d="M32.44,39.4,28,9.15a3,3,0,0,0,.66-2.44c-.46-2.2-3.54-3.23-7.33-2.45S15.12,7.2,15.57,9.41a3,3,0,0,0,1.57,2L21.5,41A3.5,3.5,0,0,0,25,44a2.92,2.92,0,0,0,.51,0l4-.59a3.49,3.49,0,0,0,2.95-4ZM21.94,7.19a6.19,6.19,0,0,1,3.68.15,6.17,6.17,0,0,1-3.33,1.58,6.13,6.13,0,0,1-3.68-.14A6.18,6.18,0,0,1,21.94,7.19Zm-1.46,4.93a11.75,11.75,0,0,0,2.42-.26,11.78,11.78,0,0,0,2.35-.74l2.14,14.55-5.33-1.48L20.28,12.11Zm8.9,28.09a.53.53,0,0,1-.33.2L25,41a.52.52,0,0,1-.57-.43L22.54,27.43l5.33,1.49,1.6,10.92A.47.47,0,0,1,29.38,40.21Z"/></g></svg>