<svg id="Service_Time_Delivery--48h_64px" xmlns="http://www.w3.org/2000/svg" viewBox="0 0 64 64"><path d="M52.11 14l1.39-1.39.94.94a1.5 1.5 0 002.12 0 1.49 1.49 0 000-2.12l-4-4a1.5 1.5 0 00-2.12 2.12l.94.94-1.38 1.4a26.93 26.93 0 00-36 0l-2.63-2.64 1.94-1.94a1.5 1.5 0 00-2.12-2.12l-6 6a1.49 1.49 0 000 2.12 1.5 1.5 0 002.12 0l1.94-1.94L11.89 14a27 27 0 1040.22 0zM32 56a24 24 0 1124-24 24 24 0 01-24 24z"/><path d="M23.82 29.9h-2.25v2.95h-2.96l3.36-7.79h-2.49L16.07 33v1.87h5.5v2.7h2.25v-2.7h1.42v-2.02h-1.42V29.9zM33.63 31.19a3.13 3.13 0 00.75-5.36 4.89 4.89 0 00-3.22-1 4.89 4.89 0 00-3.22 1 3.13 3.13 0 00.74 5.36 3.89 3.89 0 00-1.49 1.16 2.75 2.75 0 00-.59 1.8 3.25 3.25 0 001.23 2.65 5.13 5.13 0 003.33 1 5.15 5.15 0 003.34-1 3.27 3.27 0 001.24-2.65 2.75 2.75 0 00-.6-1.8 3.88 3.88 0 00-1.51-1.16zm-3.9-4.07a2.29 2.29 0 012.86 0 1.69 1.69 0 01.57 1.34 1.85 1.85 0 01-.52 1.3 2.28 2.28 0 01-2.95 0 1.81 1.81 0 01-.53-1.3 1.69 1.69 0 01.57-1.34zm3 8.33a2.25 2.25 0 01-1.55.53 2.2 2.2 0 01-1.54-.53A1.8 1.8 0 0129 34a1.84 1.84 0 01.59-1.39 2.18 2.18 0 011.56-.56 2.22 2.22 0 011.57.56 2 2 0 010 2.82zM42.8 27.67a3.13 3.13 0 00-1.47.35 3.67 3.67 0 00-1.09.89v-4.84h-2.31v13.5h2.31v-5.65a2.06 2.06 0 01.55-1.52 1.78 1.78 0 011.32-.56 1.76 1.76 0 011.31.53 2 2 0 01.52 1.46v5.74h2.31V31.3a3.59 3.59 0 00-1-2.65 3.34 3.34 0 00-2.45-.98z"/></svg>