<svg id="Service_PurchaseHelp_ToolRent_32px" xmlns="http://www.w3.org/2000/svg" viewBox="0 0 32 32"><path d="M28.77 21.22a2.7 2.7 0 00-3.53-1.48l-3.39 1.4A2.63 2.63 0 0019.29 19h-6.58a11.9 11.9 0 00-5.39 1.3l-1.78.91a1 1 0 00-.43 1.34 1 1 0 001.35.45l1.77-.91A9.83 9.83 0 0112.71 21h6.58a.67.67 0 010 1.34H15.5a1 1 0 000 2h3.79a2.54 2.54 0 001.76-.71l5-2a.71.71 0 01.92.41.91.91 0 010 .67.82.82 0 01-.42.42l-8.91 3.67a2.44 2.44 0 01-1.05.24H11a1 1 0 100 2h5.59a4.36 4.36 0 001.85-.41l8.88-3.65a2.76 2.76 0 001.5-1.52 2.85 2.85 0 00-.05-2.24zM7 5h1.28l1.77 5.32s0 .09.07.13a2.08 2.08 0 00-.12.66v.94A3 3 0 1013.32 16h6.86a3 3 0 005.82-.73 2.17 2.17 0 000-.27 3 3 0 00-2.11-2.85A2.89 2.89 0 0021.11 10L17 9.6V8a2 2 0 00-2-2h-4.28l-.54-1.63A2 2 0 008.28 3H7a1 1 0 000 2zm16 9a1 1 0 011 1v.1a1 1 0 01-1 .9 1 1 0 010-2zm-2-2a1.14 1.14 0 01.76.28A3.05 3.05 0 0020.18 14h-6.86A3 3 0 0012 12.42v-1.31zm-6-4v1.4l-2.8-.28a1.62 1.62 0 00-.44 0L11.39 8zm-4.5 6a1 1 0 011 1v.1a1 1 0 01-1 .9 1 1 0 010-2z"/></svg>