<svg xmlns="http://www.w3.org/2000/svg" viewBox="0 0 32 32"><defs></defs><g id="Icon"><path  d="M16,13.5A2.5,2.5,0,1,0,18.5,16,2.5,2.5,0,0,0,16,13.5Zm0,4A1.5,1.5,0,1,1,17.5,16,1.5,1.5,0,0,1,16,17.5Z"/><path  d="M16,22.5a6.51,6.51,0,0,1-6-3.92.5.5,0,1,0-.91.4A7.48,7.48,0,0,0,16,23.5a.5.5,0,0,0,0-1Z"/><path  d="M28.71,22l-.82-.82a2,2,0,0,0-.95-.53l-.87-.2A10.83,10.83,0,0,0,26.93,17h0a2,2,0,0,0,2-2.19,13,13,0,0,0-25.89,0,2,2,0,0,0,2,2.19A11,11,0,0,0,16,27a11.14,11.14,0,0,0,4.41-.93l.2.87a2,2,0,0,0,.53.95l.82.82a1,1,0,0,0,.71.29,1,1,0,0,0,.7-1.71l-.81-.81-1.21-5.13,5.13,1.21.81.81a1,1,0,0,0,1.42,0A1,1,0,0,0,28.71,22Zm-4.63-2L21.8,19.4a2,2,0,0,0-2.4,2.4l.53,2.28A9,9,0,0,1,7.06,17h0a2,2,0,0,0,2-1.76,7,7,0,0,1,13.91,0,2,2,0,0,0,2,1.76A9.06,9.06,0,0,1,24.08,19.93ZM16,7a9,9,0,0,0-8.93,8h-2A11,11,0,0,1,27,15l-2,0A9,9,0,0,0,16,7Z"/></g></svg>