<svg id="Service_Tools_Calculator_24px" xmlns="http://www.w3.org/2000/svg" viewBox="0 0 24 24"><path d="M19 4H5a1 1 0 00-1 1v14a1 1 0 001 1h14a1 1 0 001-1V5a1 1 0 00-1-1zm-1 14H6V6h12z"/><path d="M7.75 9.75h2.5a.5.5 0 000-1h-2.5a.5.5 0 000 1zM13.5 9.75h1v1a.5.5 0 001 0v-1h1a.5.5 0 000-1h-1v-1a.5.5 0 00-1 0v1h-1a.5.5 0 000 1zM10.41 13.34a.48.48 0 00-.7 0L9 14l-.71-.7a.49.49 0 00-.7.7l.7.71-.7.71a.48.48 0 000 .7.48.48 0 00.7 0l.71-.7.71.7a.48.48 0 00.7 0 .48.48 0 000-.7l-.7-.71.7-.71a.48.48 0 000-.66zM16.25 14.25h-2.5a.5.5 0 000 1h2.5a.5.5 0 000-1z"/><circle cx="15" cy="13.25" r=".5"/><circle cx="15" cy="16.25" r=".5"/></svg>