<svg xmlns="http://www.w3.org/2000/svg" viewBox="0 0 48 48"><defs></defs><g id="Icon"><path  d="M24,30.08a4.27,4.27,0,1,0-4.26-4.27A4.27,4.27,0,0,0,24,30.08Zm0-6.53a2.27,2.27,0,1,1-2.26,2.26A2.26,2.26,0,0,1,24,23.55Z"/><path  d="M42.5,32H40.27l-.19-.94,1.62-1.5a1.52,1.52,0,0,0,.3-1.84l-1.09-1.88.19-.34h1.4A1.5,1.5,0,0,0,44,24a19.9,19.9,0,0,0-4.85-13l1.91-1.92a1.5,1.5,0,1,0-2.12-2.12L37,8.85A19.9,19.9,0,0,0,24,4c-.17,0-.33,0-.5,0V4H5.5A1.5,1.5,0,0,0,4,5.5v19h.09a1.51,1.51,0,0,0,1.41,1H6.92l.17.29L6,27.72a1.52,1.52,0,0,0,.3,1.84L7.91,31l-.2,1H5.5a1.5,1.5,0,0,0,0,3H8.66l1.64.73.26,2.21a1.52,1.52,0,0,0,1.32,1.31l2.16.23.93,2a1.5,1.5,0,0,0,1.65.85l2.13-.45,1.51,1.63a1.49,1.49,0,0,0,1.83.29L24,42.72l1.93,1.09a1.47,1.47,0,0,0,.73.19,1.51,1.51,0,0,0,1.1-.48L29.2,41.9l2.18.44A1.5,1.5,0,0,0,33,41.49l.89-2,2.2-.26a1.52,1.52,0,0,0,1.32-1.31l.23-2.17L39.35,35H42.5a1.5,1.5,0,0,0,0-3Zm-1.57-9.5h-4a13,13,0,0,0-25.82,0h-4a17,17,0,0,1,33.86,0ZM7,7h6.52A20.11,20.11,0,0,0,7,13.52ZM34.72,35.38l-.12,1-1,.12a3,3,0,0,0-2.34,1.7l-.43.93-1-.2a3,3,0,0,0-2.75.89l-.7.76-.9-.5a2.9,2.9,0,0,0-2.88,0l-.9.5-.7-.76A3,3,0,0,0,18.21,39l-1,.2-.43-.94a3,3,0,0,0-2.34-1.69l-1-.12-.12-1a2.94,2.94,0,0,0-1.69-2.33l-.94-.43.2-1A3,3,0,0,0,10,28.86l-.76-.7.51-.9A3,3,0,0,0,10,25.5H12.5A1.5,1.5,0,0,0,14,24a10,10,0,0,1,20,0,1.5,1.5,0,0,0,1.5,1.5H38a3,3,0,0,0,.33,1.76l.51.9-.76.7a3,3,0,0,0-.89,2.74l.08.4H16v3H34.81A2.62,2.62,0,0,0,34.72,35.38Z"/></g></svg>