<svg xmlns="http://www.w3.org/2000/svg" viewBox="0 0 24 24"><defs></defs><g id="Calque_5" ><path  d="M19.4,5.3l.6-.59.15.14a.48.48,0,0,0,.7,0,.48.48,0,0,0,0-.7l-1-1a.49.49,0,0,0-.7.7l.14.15-.59.6a9.93,9.93,0,0,0-13.4,0L4.21,3.5l.64-.65a.49.49,0,0,0-.7-.7l-2,2a.48.48,0,0,0,0,.7.48.48,0,0,0,.7,0l.65-.64L4.6,5.3a10,10,0,1,0,14.8,0ZM12,20a8,8,0,1,1,8-8A8,8,0,0,1,12,20Z"/><path  d="M15.15,8.15l-2.7,2.69a1.34,1.34,0,0,0-.45-.09A1.25,1.25,0,1,0,13.25,12a1.34,1.34,0,0,0-.09-.45l2.69-2.7a.49.49,0,0,0-.7-.7Z"/></g></svg>