<svg id="Service_Time_Delivery--3h_48px" xmlns="http://www.w3.org/2000/svg" viewBox="0 0 48 48"><path d="M38.82 10.6L40 9.41l.29.3a1 1 0 001.42 0 1 1 0 000-1.42l-2-2a1 1 0 00-1.42 1.42l.3.29-1.19 1.18a19.92 19.92 0 00-26.8 0L8.41 7l1.3-1.29a1 1 0 10-1.42-1.42l-4 4a1 1 0 000 1.42 1 1 0 001.42 0L7 8.41l2.18 2.19a20 20 0 1029.64 0zM24 41a17 17 0 1117-17 17 17 0 01-17 17z"/><path d="M21.89 23.22a2.26 2.26 0 001.11-.86 2.69 2.69 0 00.41-1.52A2.53 2.53 0 0023 19.3a3 3 0 00-1.3-1 4.88 4.88 0 00-1.9-.35 4.08 4.08 0 00-2.45.7 3.34 3.34 0 00-1.28 1.72l2 .56a1.88 1.88 0 012.87-.82 1.22 1.22 0 01.46 1c0 1-.59 1.5-1.78 1.5h-1.27v1.63h1.24a2.44 2.44 0 011.41.39 1.33 1.33 0 01.56 1.14 1.39 1.39 0 01-.56 1.17 2 2 0 01-1.25.41 2.44 2.44 0 01-1.33-.35 2.07 2.07 0 01-.82-1l-1.86.57a3.49 3.49 0 001.41 1.85 4.46 4.46 0 002.61.71 4.69 4.69 0 002-.42 3.28 3.28 0 001.39-1.17 3.08 3.08 0 00.49-1.74 2.62 2.62 0 00-1.78-2.58zM31.27 20.78a3 3 0 00-1.53-.38 2.56 2.56 0 00-1.26.31 2.94 2.94 0 00-.94.76V17.3h-2v11.63h2v-4.87a1.78 1.78 0 01.46-1.3 1.56 1.56 0 011.15-.48 1.49 1.49 0 011.13.46 1.69 1.69 0 01.45 1.26v4.95h2v-5.4a3.36 3.36 0 00-.38-1.66 2.71 2.71 0 00-1.08-1.11z"/></svg>