<svg id="Service_AfterSales_Satisfaction_48px" xmlns="http://www.w3.org/2000/svg" viewBox="0 0 48 48"><path d="M23.77 4A20 20 0 1044 23.77 20 20 0 0023.77 4zm.42 37A17 17 0 1141 23.81 17 17 0 0124.19 41z"/><path d="M32.84 26a1 1 0 00-1.27.62 8 8 0 01-15.08.17 1 1 0 00-1.29-.59 1 1 0 00-.59 1.28 10 10 0 0018.86-.21 1 1 0 00-.63-1.27zM14.9 20.45a2.25 2.25 0 014.12 0 1 1 0 00.95.64 1.15 1.15 0 00.35-.07 1 1 0 00.57-1.29 4.25 4.25 0 00-7.88.08 1 1 0 101.89.68zM30.92 16.92a4.19 4.19 0 00-3.92 2.7 1 1 0 00.6 1.28 1 1 0 001.28-.6 2.25 2.25 0 014.12-.05 1 1 0 00.95.64 1.15 1.15 0 00.35-.07 1 1 0 00.57-1.29 4.2 4.2 0 00-3.95-2.61z"/></svg>