<svg id="Service_Pallet_64px" xmlns="http://www.w3.org/2000/svg" viewBox="0 0 64 64"><path fill-rule="evenodd" d="M22.667 6.5a1.5 1.5 0 00-1.5 1.5v17.167h-7.834a1.5 1.5 0 00-1.5 1.5v17.166H8a1.5 1.5 0 00-1.5 1.5V56A1.5 1.5 0 008 57.5h5.333a1.5 1.5 0 001.5-1.5v-1.167h13V56a1.5 1.5 0 001.5 1.5h5.334a1.5 1.5 0 001.5-1.5v-1.167h13V56a1.5 1.5 0 001.5 1.5H56a1.5 1.5 0 001.5-1.5V45.333a1.5 1.5 0 00-1.5-1.5h-3.833V26.667a1.5 1.5 0 00-1.5-1.5h-7.834V8a1.5 1.5 0 00-1.5-1.5H22.667zm26.5 37.333H33.5V28.167h4.167v6.166H45v-6.166h4.167v15.666zM43 28.167v4.166h-3.333v-4.166H43zm-12.5 0v15.666H14.833V28.167H19v6.166h7.333v-6.166H30.5zM21 32.333v-4.166h3.333v4.166H21zm18.833-7.166V9.5h-4.166v6.167h-7.334V9.5h-4.166v15.667h15.666zM30.333 9.5h3.334v4.167h-3.334V9.5zM9.5 46.833v5h45v-5h-45z"/></svg>