<svg xmlns="http://www.w3.org/2000/svg" viewBox="0 0 64 64"><defs></defs><g id="Icon"><path  d="M59.25,32a11,11,0,0,0-6-9.78,21.74,21.74,0,0,0-42.6,0A11,11,0,0,0,15.15,43h.1a2,2,0,0,0,1.37-.55A2,2,0,0,0,17.25,41V23a2,2,0,0,0-2.1-2c-.36,0-.72.06-1.07.11a18.73,18.73,0,0,1,35.84,0c-.35-.05-.7-.09-1.07-.11a2,2,0,0,0-1.47.55A2,2,0,0,0,46.75,23V41a2,2,0,0,0,.63,1.46,2,2,0,0,0,1.37.55h.16A18.63,18.63,0,0,1,40,52.17C38.88,50,35.77,48.5,32,48.5c-4.77,0-8.5,2.42-8.5,5.5s3.73,5.5,8.5,5.5c4,0,7.33-1.74,8.24-4.15A21.59,21.59,0,0,0,52.43,42.18,11,11,0,0,0,59.25,32Zm-45,7.87a8,8,0,0,1-1.95-15.1,1.5,1.5,0,0,0,.59-.26,8.82,8.82,0,0,1,1.36-.38ZM32,56.5c-3.36,0-5.5-1.48-5.5-2.5s2.14-2.5,5.5-2.5S37.5,53,37.5,54,35.36,56.5,32,56.5ZM49.75,39.87V24.13a6.84,6.84,0,0,1,1.34.38,1.56,1.56,0,0,0,.66.28,8,8,0,0,1-2,15.08Z"/></g></svg>