<svg id="Service_Pallet_48px" xmlns="http://www.w3.org/2000/svg" viewBox="0 0 48 48"><path fill-rule="evenodd" d="M17 4.5A1.5 1.5 0 0015.5 6v12.5H10A1.5 1.5 0 008.5 20v12.5H6A1.5 1.5 0 004.5 34v8A1.5 1.5 0 006 43.5h4a1.5 1.5 0 001.5-1.5v-.5h9v.5a1.5 1.5 0 001.5 1.5h4a1.5 1.5 0 001.5-1.5v-.5h9v.5a1.5 1.5 0 001.5 1.5h4a1.5 1.5 0 001.5-1.5v-8a1.5 1.5 0 00-1.5-1.5h-2.5V20a1.5 1.5 0 00-1.5-1.5h-5.5V6A1.5 1.5 0 0031 4.5H17zm5.5 17v11h-11v-11H14V26h6v-4.5h2.5zm3 0v11h11v-11H34V26h-6v-4.5h-2.5zm4.5 0V24h2v-2.5h-2zM16 24v-2.5h2V24h-2zm13.5-5.5v-11H27V12h-6V7.5h-2.5v11h11zM23 7.5h2V10h-2V7.5zm-15.5 28v3h33v-3h-33z"/></svg>