<svg xmlns="http://www.w3.org/2000/svg" viewBox="0 0 48 48"><defs></defs><g id="Icon"><path  d="M43.79,31.92A4.46,4.46,0,0,0,41,29.08V26.2a16.91,16.91,0,0,0-9-14.92V10.5a2,2,0,0,0-2-2H18a2,2,0,0,0-2,2v.78A16.92,16.92,0,0,0,7,26.2v2.88a4.44,4.44,0,0,0-2.51,6.23A4.39,4.39,0,0,0,7.08,37.5c3.89,1.25,10.21,2,16.92,2s13-.75,16.92-2a4.39,4.39,0,0,0,2.59-2.19A4.44,4.44,0,0,0,43.79,31.92ZM40,34.65c-3.61,1.16-9.59,1.85-16,1.85s-12.39-.69-16-1.85a1.44,1.44,0,0,1,.44-2.81,1.75,1.75,0,0,1,.44.07c.34.11.73.22,1.12.32V30.92h0V26.2a13.88,13.88,0,0,1,6-11.41V24a1.5,1.5,0,1,0,3,0V11.5H29V24a1.5,1.5,0,1,0,3,0v-9.2A13.9,13.9,0,0,1,38,26.2v2.91h0v3.12c.39-.1.78-.21,1.12-.32a1.75,1.75,0,0,1,.44-.07A1.44,1.44,0,0,1,40,34.65Z"/></g></svg>