<svg id="Service_Time_Delivery--2h_64px" xmlns="http://www.w3.org/2000/svg" viewBox="0 0 64 64"><path d="M52.11 14l1.39-1.39.94.94a1.5 1.5 0 002.12 0 1.49 1.49 0 000-2.12l-4-4a1.5 1.5 0 00-2.12 2.12l.94.94-1.38 1.4a26.93 26.93 0 00-36 0l-2.63-2.64 1.94-1.94a1.5 1.5 0 00-2.12-2.12l-6 6a1.49 1.49 0 000 2.12 1.5 1.5 0 002.12 0l1.94-1.94L11.89 14a27 27 0 1040.22 0zM32 56a24 24 0 1124-24 24 24 0 01-24 24z"/><path d="M28.06 32.6a8.83 8.83 0 001.73-2.07 4.11 4.11 0 00.54-2.05 3.38 3.38 0 00-1.18-2.62 4.84 4.84 0 00-3.29-1 5 5 0 00-2.91.81 3.88 3.88 0 00-1.53 2l2.27.65a2.14 2.14 0 01.82-1 2.41 2.41 0 011.31-.36 2 2 0 011.44.49 1.67 1.67 0 01.52 1.28 2.42 2.42 0 01-.35 1.27 7.44 7.44 0 01-1.26 1.46l-4.44 4.11v2h8.74V35.4H25zM37.59 27.67a3.13 3.13 0 00-1.47.35 3.67 3.67 0 00-1.09.89v-4.84h-2.31v13.5H35v-5.65a2.09 2.09 0 01.54-1.52 1.87 1.87 0 012.64 0 2 2 0 01.52 1.46v5.74H41v-6.3a3.59 3.59 0 00-1-2.65 3.34 3.34 0 00-2.41-.98z"/></svg>