<svg id="Service_Time_Delivery--24h_64px" xmlns="http://www.w3.org/2000/svg" viewBox="0 0 64 64"><path fill-rule="evenodd" d="M12.707 7.374a1 1 0 00-1.414-1.414L8.627 8.626h-.001L5.96 11.294a1 1 0 101.414 1.414l1.96-1.96 3.941 3.943A25.409 25.409 0 006.5 32c0 14.083 11.417 25.5 25.5 25.5S57.5 46.083 57.5 32c0-6.682-2.57-12.764-6.776-17.31l2.61-2.61.626.627a1 1 0 001.414-1.414L54.04 9.96l-1.333-1.334a1 1 0 00-1.414 1.414l.626.627-2.609 2.608A25.409 25.409 0 0032 6.5a25.409 25.409 0 00-17.31 6.775l-3.942-3.942 1.96-1.96zM9.5 32C9.5 19.574 19.574 9.5 32 9.5S54.5 19.574 54.5 32 44.426 54.5 32 54.5 9.5 44.426 9.5 32zm30.54-8h-2.371v14h2.37v-5.861c0-.66.187-1.183.56-1.568a1.825 1.825 0 011.363-.579c.548 0 .996.187 1.344.56.361.36.542.859.542 1.493V38h2.37v-6.496c0-.772-.155-1.437-.466-1.997A3.095 3.095 0 0044.5 28.2c-.535-.311-1.145-.467-1.83-.467-.547 0-1.051.125-1.511.374a3.513 3.513 0 00-1.12.914V24zM16.317 35.872l4.555-4.256c.635-.61 1.07-1.114 1.307-1.512.236-.41.354-.852.354-1.325 0-.548-.18-.99-.541-1.326-.36-.348-.852-.522-1.475-.522-.51 0-.958.13-1.344.392a2.124 2.124 0 00-.84 1.045L16 27.696c.249-.821.772-1.512 1.568-2.072s1.792-.84 2.987-.84c.97 0 1.798.168 2.482.504.697.336 1.22.79 1.568 1.363a3.53 3.53 0 01.542 1.922c0 .76-.187 1.475-.56 2.147-.361.66-.952 1.369-1.774 2.128l-3.117 2.912h5.6V38h-8.979v-2.128zm15.708-.672h-5.656v-1.941l3.51-8.232h2.557l-3.454 8.082h3.043v-3.061h2.315v3.061h1.456V35.2H34.34V38h-2.315v-2.8z"/></svg>