<svg xmlns="http://www.w3.org/2000/svg" viewBox="0 0 64 64"><defs></defs><g id="Icon"><path  d="M51.84,40.51a4.86,4.86,0,0,0-3.76.1L40.9,43.8A4.75,4.75,0,0,0,36.25,40h-13a9.52,9.52,0,0,0-3.93.85L9.88,45.13a1.5,1.5,0,1,0,1.24,2.74l9.42-4.29A6.57,6.57,0,0,1,23.23,43h13a1.75,1.75,0,0,1,0,3.5H30.5a1.5,1.5,0,0,0,0,3h5.75a4.73,4.73,0,0,0,3.93-2.09l9.12-4.06a1.92,1.92,0,0,1,1.47,0,1.85,1.85,0,0,1,1.06,1,1.92,1.92,0,0,1-1,2.53L31.57,55.44a6.52,6.52,0,0,1-2.64.56H17a1.5,1.5,0,0,0,0,3H28.93a9.49,9.49,0,0,0,3.86-.82l19.29-8.59a4.91,4.91,0,0,0,2.49-6.49A4.86,4.86,0,0,0,51.84,40.51Z"/><path  d="M53.39,17l-1-.21-.75-6a2,2,0,0,0-2-1.75H43l0-2a2,2,0,0,0-2-2H11A2,2,0,0,0,9,7V29a2,2,0,0,0,2,2h5.18a6.49,6.49,0,0,0,12.64,0h6.36a6.49,6.49,0,0,0,12.64,0H53a2,2,0,0,0,2-2V18.91A2,2,0,0,0,53.39,17ZM22.5,33A3.5,3.5,0,1,1,26,29.5,3.5,3.5,0,0,1,22.5,33Zm19,0A3.5,3.5,0,1,1,45,29.5,3.5,3.5,0,0,1,41.5,33ZM52,28H47.82a6.49,6.49,0,0,0-12.64,0H28.82a6.49,6.49,0,0,0-12.64,0H12V8H40v.32a1.1,1.1,0,0,0,0,.18v9a1.5,1.5,0,0,0,3,0V12h5.74l.9,7.26,2.36.47Z"/></g></svg>