<svg id="Service_Custom_CutWoodGlass_32px" xmlns="http://www.w3.org/2000/svg" viewBox="0 0 32 32"><path d="M16 14.5a2.5 2.5 0 102.5 2.5 2.5 2.5 0 00-2.5-2.5zm0 4a1.5 1.5 0 111.5-1.5 1.5 1.5 0 01-1.5 1.5z"/><path d="M28 21h-1.33l.8-.69a1 1 0 00.21-1.31L27 18l.28-.46a1 1 0 00.14-.57 2.06 2.06 0 001-.58 2 2 0 00.58-1.58 13 13 0 00-3.07-7.28l1.83-1.82a1 1 0 10-1.42-1.42l-1.87 1.83A13 13 0 0016 3H5a2 2 0 00-2 2v11h.32a1.93 1.93 0 001.29 1 1 1 0 00.13.64L5 18l-.68 1a1 1 0 00.21 1.27l.8.69H4a1 1 0 100 2h1.34a1 1 0 00.5.5L7.1 24l.16 1.24a1 1 0 00.88.87l1.39.11.6 1.21a1 1 0 001.08.54l1.39-.27 1 1a1 1 0 001.17.18l1.23-.64 1.25.65a1.11 1.11 0 00.46.11 1 1 0 00.71-.29l1-1 1.41.26a1 1 0 001.08-.54l.56-1.16 1.43-.16a1 1 0 00.88-.87L24.9 24l1.26-.53a1 1 0 00.5-.5H28a1 1 0 000-2zM5 5h4a12.85 12.85 0 00-4 4zm20.12 14.7a1.86 1.86 0 00-.65 1.3H11v2h12.19a1.93 1.93 0 00-.27.7l-.06.54-.65.07a1.93 1.93 0 00-1.53 1.05l-.26.54-.67-.13a2 2 0 00-1.77.54l-.46.46-.6-.31a2 2 0 00-1.84 0l-.6.31-.48-.46a2 2 0 00-1.77-.54l-.67.13-.26-.54a1.93 1.93 0 00-1.53-1.05l-.65-.07-.06-.54a1.93 1.93 0 00-1.15-1.49L7.39 22l.1-.5a1.81 1.81 0 00-.61-1.78l-.41-.35.27-.44a1.83 1.83 0 000-1.89h.89a2 2 0 002-1.75 6.46 6.46 0 0112.84 0 2 2 0 002 1.75h.89a1.83 1.83 0 000 1.89l.27.44zM24.4 15a8.45 8.45 0 00-16.79 0H5.05A11 11 0 0127 15z"/></svg>