<svg xmlns="http://www.w3.org/2000/svg" viewBox="0 0 24 24"><defs></defs><g id="Calque_5" ><path  d="M19.4,5.3l.6-.59.15.14a.48.48,0,0,0,.7,0,.48.48,0,0,0,0-.7l-1-1a.49.49,0,0,0-.7.7l.14.15-.59.6a9.93,9.93,0,0,0-13.4,0L4.21,3.5l.64-.65a.49.49,0,0,0-.7-.7l-2,2a.48.48,0,0,0,0,.7.48.48,0,0,0,.7,0l.65-.64L4.6,5.3a10,10,0,1,0,14.8,0ZM12,20a8,8,0,1,1,8-8A8,8,0,0,1,12,20Z"/><polygon  points="8.85 11.22 7.98 11.22 7.98 12.37 6.84 12.37 8.14 9.34 7.18 9.34 5.86 12.43 5.86 13.15 7.98 13.15 7.98 14.2 8.85 14.2 8.85 13.15 9.4 13.15 9.4 12.37 8.85 12.37 8.85 11.22"/><path  d="M12.63,11.73a1.23,1.23,0,0,0,.29-2.09,1.88,1.88,0,0,0-1.24-.39,1.86,1.86,0,0,0-1.24.39,1.22,1.22,0,0,0,.28,2.09,1.46,1.46,0,0,0-.57.44,1.13,1.13,0,0,0-.23.7,1.3,1.3,0,0,0,.47,1,2,2,0,0,0,1.29.39A2,2,0,0,0,13,13.91a1.29,1.29,0,0,0,.48-1,1.13,1.13,0,0,0-.23-.7A1.42,1.42,0,0,0,12.63,11.73Zm-1.51-1.59a.81.81,0,0,1,.56-.19.8.8,0,0,1,.55.19.68.68,0,0,1,.22.52.73.73,0,0,1-.2.51.88.88,0,0,1-1.14,0,.73.73,0,0,1-.2-.51A.67.67,0,0,1,11.12,10.14Zm1.16,3.24a1,1,0,0,1-1.2,0,.77.77,0,0,1,0-1.1,1,1,0,0,1,1.2,0,.75.75,0,0,1,.23.55A.72.72,0,0,1,12.28,13.38Z"/><path  d="M16.16,10.36a1.13,1.13,0,0,0-.56.13,1.31,1.31,0,0,0-.42.35V9h-.9V14.2h.9V12a.84.84,0,0,1,.2-.59.71.71,0,0,1,1,0,.77.77,0,0,1,.2.56V14.2h.89V11.77a1.38,1.38,0,0,0-.37-1A1.27,1.27,0,0,0,16.16,10.36Z"/></g></svg>