<svg id="Service_Custom_Sharpening_32px" xmlns="http://www.w3.org/2000/svg" viewBox="0 0 32 32"><path d="M16 13.5a2.5 2.5 0 102.5 2.5 2.5 2.5 0 00-2.5-2.5zm0 4a1.5 1.5 0 111.5-1.5 1.5 1.5 0 01-1.5 1.5zM16 22.5a6.51 6.51 0 01-6-3.92.5.5 0 10-.91.4A7.48 7.48 0 0016 23.5a.5.5 0 000-1z"/><path d="M28.71 22l-.82-.82a2 2 0 00-.95-.53l-.87-.2a10.83 10.83 0 00.86-3.45 2 2 0 002-2.19 13 13 0 00-25.89 0 2 2 0 002 2.19A11 11 0 0016 27a11.14 11.14 0 004.41-.93l.2.87a2 2 0 00.53.95l.82.82a1 1 0 00.71.29 1 1 0 00.7-1.71l-.81-.81-1.21-5.13 5.13 1.21.81.81a1 1 0 001.42 0 1 1 0 000-1.37zm-4.63-2l-2.28-.6a2 2 0 00-2.4 2.4l.53 2.28A9 9 0 017.06 17a2 2 0 002-1.76 7 7 0 0113.91 0 2 2 0 002 1.76 9.06 9.06 0 01-.89 2.93zM16 7a9 9 0 00-8.93 8h-2A11 11 0 0127 15h-2a9 9 0 00-9-8z"/></svg>