<svg id="Service_Time_Delivery--2h_48px" xmlns="http://www.w3.org/2000/svg" viewBox="0 0 48 48"><path d="M38.82 10.6L40 9.41l.29.3a1 1 0 001.42 0 1 1 0 000-1.42l-2-2a1 1 0 00-1.42 1.42l.3.29-1.19 1.18a19.92 19.92 0 00-26.8 0L8.41 7l1.3-1.29a1 1 0 10-1.42-1.42l-4 4a1 1 0 000 1.42 1 1 0 001.42 0L7 8.41l2.18 2.19a20 20 0 1029.64 0zM24 41a17 17 0 1117-17 17 17 0 01-17 17z"/><path d="M21.53 24.65A7.43 7.43 0 0023 22.88a3.61 3.61 0 00.46-1.78 3 3 0 00-.46-1.6 3.14 3.14 0 00-1.32-1.13 4.75 4.75 0 00-2.05-.37 4.31 4.31 0 00-2.5.7 3.25 3.25 0 00-1.31 1.72l1.95.56a1.86 1.86 0 01.71-.88 2 2 0 011.12-.31 1.76 1.76 0 011.24.42 1.48 1.48 0 01.45 1.11 2.17 2.17 0 01-.29 1.04 6.68 6.68 0 01-1.1 1.27l-3.82 3.53v1.77h7.53v-1.86h-4.69zM32.33 21.87a2.71 2.71 0 00-1.06-1.09 3 3 0 00-1.53-.38 2.56 2.56 0 00-1.26.31 2.94 2.94 0 00-.94.76V17.3h-2v11.63h2v-4.87a1.78 1.78 0 01.46-1.3 1.56 1.56 0 011.15-.48 1.49 1.49 0 011.13.46 1.69 1.69 0 01.45 1.26v4.95h2v-5.4a3.36 3.36 0 00-.4-1.68z"/></svg>