<svg xmlns="http://www.w3.org/2000/svg" viewBox="0 0 24 24"><defs></defs><g id="Calque_5" ><path  d="M21,13.25h-.31L19.08,8.39l1.73.34.19,0a1,1,0,0,0,.19-2L13.88,5.35A2,2,0,0,0,13,4.28V3a1,1,0,0,0-2,0V4.28a2,2,0,0,0-.5.41L3.19,3.27a1,1,0,0,0-.38,2l2.27.44L3.31,11H3a1,1,0,0,0-1,1,4,4,0,0,0,8,0,1,1,0,0,0-1-1H8.69L7.05,6.06l3.07.59A2,2,0,0,0,11,7.72V20H8a1,1,0,0,0,0,2h8a1,1,0,0,0,0-2H13V7.72a2,2,0,0,0,.5-.41L17.06,8l-1.75,5.25H15a1,1,0,0,0-1,1,4,4,0,0,0,8,0A1,1,0,0,0,21,13.25ZM6,14a2,2,0,0,1-1.73-1H7.73A2,2,0,0,1,6,14ZM4.36,11,6,6.08,7.64,11ZM18,8.33l1.64,4.92H16.36Zm0,7.92a2,2,0,0,1-1.73-1h3.46A2,2,0,0,1,18,16.25Z"/></g></svg>