<svg xmlns="http://www.w3.org/2000/svg" viewBox="0 0 24 24"><defs></defs><g id="Icon"><path  d="M19,14.61a1,1,0,0,0-1,1V18H6V15.54l.54.55a1,1,0,0,0,.71.3A1,1,0,0,0,8,14.68L5.71,12.42a1,1,0,0,0-1.41,0L2,14.68a1,1,0,0,0,1.42,1.41L4,15.54V19a1,1,0,0,0,1,1H19a1,1,0,0,0,1-1V15.61A1,1,0,0,0,19,14.61Z"/><path  d="M22,7.91a1,1,0,0,0-1.42,0L20,8.46V5a1,1,0,0,0-1-1H5A1,1,0,0,0,4,5V8.39a1,1,0,0,0,2,0V6H18V8.46l-.54-.55A1,1,0,0,0,16,9.32l2.26,2.26a1,1,0,0,0,.7.29,1,1,0,0,0,.71-.29L22,9.32A1,1,0,0,0,22,7.91Z"/></g></svg>