<svg id="Service_PurchaseHelp_ToolRent_24px" xmlns="http://www.w3.org/2000/svg" viewBox="0 0 24 24"><path d="M21.8 15.88a2.57 2.57 0 00-3.16-1.31l-2.74 1.06A2.23 2.23 0 0013.76 14H9.5a8.74 8.74 0 00-2.5.29 8.61 8.61 0 00-2.55 1.4 1 1 0 00-.23 1.4 1 1 0 001.39.23 7 7 0 012-1.11 6.62 6.62 0 012-.21h4.26a.25.25 0 010 .5H11a1 1 0 000 2h2.76a2.2 2.2 0 001.24-.36l4.4-1.71a.61.61 0 01.6.27.29.29 0 010 .24.36.36 0 01-.19.18l-6.95 2.72A2.33 2.33 0 0112 20H8a1 1 0 000 2h4a4.21 4.21 0 001.62-.31l6.9-2.69a2.31 2.31 0 001.31-1.29 2.28 2.28 0 00-.03-1.83zM5.25 3h.65l1.6 4.58v2a1.5 1.5 0 101.91 1.92h6.18a1.5 1.5 0 101.84-1.93 2.49 2.49 0 00-2.12-1.77l-2.81-.31V6a.5.5 0 00-.5-.5H7.83L6.72 2.33A.51.51 0 006.25 2h-1a.5.5 0 000 1zM8 11.5a.5.5 0 11.5-.5.5.5 0 01-.5.5zm9 0a.5.5 0 11.5-.5.5.5 0 01-.5.5zm-.62-1.86a1.52 1.52 0 00-.79.86H9.41a1.52 1.52 0 00-.91-.91V8.05l6.7.74a1.49 1.49 0 011.18.85zM11.5 6.5v.88L8.37 7l-.19-.5z"/></svg>