<svg xmlns="http://www.w3.org/2000/svg" viewBox="0 0 64 64"><defs></defs><g id="Icon"><path  d="M54.23,17.44a1.49,1.49,0,0,0-2.47-.55l-5.57,5.57a1.51,1.51,0,0,1-2.06,0l-2.58-2.58a1.47,1.47,0,0,1,0-2.06l5.57-5.57a1.49,1.49,0,0,0,.41-1.39,1.52,1.52,0,0,0-1-1.08,12.84,12.84,0,0,0-16.92,15.1.7.7,0,0,1-.17.67L6.88,48.15a6.35,6.35,0,1,0,9,9l22.55-22.6a.71.71,0,0,1,.67-.18A12.74,12.74,0,0,0,51.19,31,12.91,12.91,0,0,0,54.23,17.44ZM49.08,28.85a9.77,9.77,0,0,1-9.29,2.59,3.72,3.72,0,0,0-3.5,1L13.74,55A3.35,3.35,0,1,1,9,50.27l22.6-22.6a3.73,3.73,0,0,0,1-3.5A9.8,9.8,0,0,1,42.16,12c.3,0,.61,0,.92,0L39.43,15.7a4.47,4.47,0,0,0,0,6.3L42,24.58a4.47,4.47,0,0,0,6.3,0L52,20.92A9.73,9.73,0,0,1,49.08,28.85Z"/><path  d="M11.42,50.94a1.64,1.64,0,1,0,1.64,1.64A1.65,1.65,0,0,0,11.42,50.94Z"/></g></svg>