<svg id="Service_PurchaseHelp_HomeInstall_64px" xmlns="http://www.w3.org/2000/svg" viewBox="0 0 64 64"><path d="M58.61 15a2 2 0 00-1.42-1.1L53 13.05a2 2 0 000-1 1.94 1.94 0 00-1-1.17l-8.87-4.65a8.2 8.2 0 00-6.49-.48l-9.9 3.47a1.91 1.91 0 00-1.28 1.95A1.88 1.88 0 0027 12.91l1.91.36A34.71 34.71 0 0137.27 16l-1.38 2.63a2 2 0 00.55 2.5L34.89 24h-9.52a5.48 5.48 0 00-4.22 2L12.8 36H6.5a1.5 1.5 0 000 3h7a1.49 1.49 0 001.15-.54l8.8-10.56a2.51 2.51 0 011.92-.9h7.91l-2.68 5h-2.1a1.5 1.5 0 000 3H48a.49.49 0 01.46.69l-8.33 20a.5.5 0 01-.46.31H6.5a1.5 1.5 0 000 3h33.17a3.51 3.51 0 003.23-2.15l8.33-20A3.5 3.5 0 0048 32h-7l3.58-6.59a2 2 0 002.41-1L48.32 22l3.06 3a2 2 0 001.4.56 1.62 1.62 0 00.31 0 2 2 0 001.46-1l4-7.67a2 2 0 00.06-1.89zM34 32l5.07-9.46L41.94 24l-4.33 8zm18.5-10.12l-5-4.84-2.7 5.13-5.8-3.06 2.33-4.42L40 14a38.09 38.09 0 00-8.57-3.24l6.19-2.17a5.21 5.21 0 014.11.31l7.9 4.1-1.14 2.18 6.8 1.36z"/></svg>