<svg xmlns="http://www.w3.org/2000/svg" viewBox="0 0 32 32"><defs></defs><g id="Icon"><path  d="M28.77,21.22a2.7,2.7,0,0,0-3.53-1.48l-3.39,1.4A2.63,2.63,0,0,0,19.29,19H12.71a11.9,11.9,0,0,0-5.39,1.3l-1.78.91a1,1,0,0,0-.43,1.34A1,1,0,0,0,6.46,23l1.77-.91A9.83,9.83,0,0,1,12.71,21h6.58a.67.67,0,0,1,0,1.34H15.5a1,1,0,0,0,0,2h3.79a2.54,2.54,0,0,0,1.76-.71l5-2a.71.71,0,0,1,.92.41.91.91,0,0,1,0,.67.82.82,0,0,1-.42.42l-8.91,3.67a2.44,2.44,0,0,1-1.05.24H11a1,1,0,1,0,0,2h5.59a4.36,4.36,0,0,0,1.85-.41l8.88-3.65a2.76,2.76,0,0,0,1.5-1.52A2.85,2.85,0,0,0,28.77,21.22Z"/><path  d="M7,5H8.28l1.77,5.32s0,.09.07.13a2.08,2.08,0,0,0-.12.66v.94A3,3,0,1,0,13.32,16h6.86A3,3,0,0,0,26,15.27h0A2.17,2.17,0,0,0,26,15a3,3,0,0,0-2.11-2.85A2.89,2.89,0,0,0,21.11,10h0L17,9.6V8a2,2,0,0,0-2-2H10.72l-.54-1.63A2,2,0,0,0,8.28,3H7A1,1,0,0,0,7,5Zm16,9a1,1,0,0,1,1,1v.1a1,1,0,0,1-1,.9,1,1,0,0,1,0-2Zm-2-2a1.14,1.14,0,0,1,.76.28A3.05,3.05,0,0,0,20.18,14H13.32A3,3,0,0,0,12,12.42V11.11ZM15,8V9.4l-2.8-.28a1.62,1.62,0,0,0-.44,0L11.39,8Zm-4.5,6a1,1,0,0,1,1,1v.1a1,1,0,0,1-1,.9,1,1,0,0,1,0-2Z"/></g></svg>