<svg xmlns="http://www.w3.org/2000/svg" viewBox="0 0 32 32"><defs></defs><g id="Icon"><path  d="M21.46,26.35,18.69,6.68a1.93,1.93,0,0,0,.76-1.75c-.2-1.46-2.17-2.22-4.8-1.85s-4.31,1.64-4.11,3.1a2,2,0,0,0,1.22,1.48l2.76,19.67a2,2,0,0,0,2,1.72l.28,0,3-.42a2,2,0,0,0,1.32-.77A2,2,0,0,0,21.46,26.35ZM14.93,5.06a4.72,4.72,0,0,1,2.4.16,4.78,4.78,0,0,1-2.26.83,4.72,4.72,0,0,1-2.41-.17A4.7,4.7,0,0,1,14.93,5.06ZM15,16,13.84,8.1h.28A10.26,10.26,0,0,0,15.34,8a9.3,9.3,0,0,0,1.47-.34l1.34,9.53ZM16.5,27.05l-1.23-8.81,3.2,1.25,1,7.14Z"/></g></svg>