<svg xmlns="http://www.w3.org/2000/svg" viewBox="0 0 64 64"><defs></defs><g id="Icon"><path  d="M32,26.78A5.22,5.22,0,1,0,37.22,32,5.23,5.23,0,0,0,32,26.78Zm0,7.44A2.22,2.22,0,1,1,34.22,32,2.22,2.22,0,0,1,32,34.22Z"/><path  d="M32,44a12.11,12.11,0,0,1-11.41-8.21,1.5,1.5,0,1,0-2.85.94A15.12,15.12,0,0,0,32,47a1.5,1.5,0,0,0,0-3Z"/><path  d="M59.51,44.61,57,42.11a2.85,2.85,0,0,0-1.42-.77l-2.69-.49a22.39,22.39,0,0,0,1.58-7.1H57a2,2,0,0,0,1.45-.62A2,2,0,0,0,59,31.67C58.4,17.1,46.3,5.25,32,5.25S5.6,17.1,5,31.67a2,2,0,0,0,.56,1.46A2,2,0,0,0,7,33.75h2.5A22.49,22.49,0,0,0,40.9,53.16l.46,2.49A2.75,2.75,0,0,0,42.11,57l2.5,2.51a1.51,1.51,0,0,0,2.13,0,1.51,1.51,0,0,0,0-2.12l-2.47-2.47-2.4-13.05,13.05,2.4,2.47,2.47a1.5,1.5,0,0,0,2.12-2.13ZM32,8.25c12.37,0,22.88,10,23.91,22.5h-7c-1-8.63-8.39-15.5-16.87-15.5s-15.86,6.87-16.87,15.5h-7C9.12,18.25,19.63,8.25,32,8.25Zm9,30.41a2,2,0,0,0-1.78.55A2,2,0,0,0,38.66,41l1.68,9.14A19.49,19.49,0,0,1,12.56,33.75h3.5a2,2,0,0,0,2-1.88c.47-7.51,6.73-13.62,14-13.62s13.49,6.11,14,13.62a2,2,0,0,0,2,1.88h3.52a19.41,19.41,0,0,1-1.58,6.54Z"/></g></svg>