<svg id="Service_Time_Delivery--2h_24px" xmlns="http://www.w3.org/2000/svg" viewBox="0 0 24 24"><path d="M19.4 5.3l.6-.59.15.14a.48.48 0 00.7 0 .48.48 0 000-.7l-1-1a.49.49 0 00-.7.7l.14.15-.59.6a9.93 9.93 0 00-13.4 0L4.21 3.5l.64-.65a.49.49 0 00-.7-.7l-2 2a.48.48 0 000 .7.48.48 0 00.7 0l.65-.64L4.6 5.3a10 10 0 1014.8 0zM12 20a8 8 0 118-8 8 8 0 01-8 8z"/><path d="M10.67 12.27a3.26 3.26 0 00.67-.8 1.62 1.62 0 00.21-.8 1.29 1.29 0 00-.46-1 1.82 1.82 0 00-1.26-.4 1.88 1.88 0 00-1.12.31 1.48 1.48 0 00-.59.78l.87.25a.77.77 0 01.32-.39.84.84 0 01.5-.15.76.76 0 01.55.2.63.63 0 01.21.5 1 1 0 01-.14.49 3 3 0 01-.49.57l-1.7 1.6v.79h3.36v-.84H9.5zM14.34 10.36a1.18 1.18 0 00-.56.13 1.31 1.31 0 00-.42.35V9h-.89v5.2h.89V12a.8.8 0 01.21-.59.67.67 0 01.51-.22.66.66 0 01.5.21.73.73 0 01.21.56v2.24h.88v-2.43a1.38 1.38 0 00-.37-1 1.27 1.27 0 00-.96-.41z"/></svg>