<svg xmlns="http://www.w3.org/2000/svg" viewBox="0 0 64 64"><defs></defs><g id="Icon"><path  d="M52.11,14l1.39-1.39.94.94a1.5,1.5,0,0,0,2.12,0,1.49,1.49,0,0,0,0-2.12l-4-4a1.5,1.5,0,0,0-2.12,2.12l.94.94L50,11.89a26.93,26.93,0,0,0-36,0L11.37,9.25l1.94-1.94a1.5,1.5,0,0,0-2.12-2.12l-6,6a1.49,1.49,0,0,0,0,2.12,1.5,1.5,0,0,0,2.12,0l1.94-1.94L11.89,14a27,27,0,1,0,40.22,0ZM32,56A24,24,0,1,1,56,32,24,24,0,0,1,32,56Z"/><path  d="M29.87,31.91a3.73,3.73,0,0,0-.66-.61,2.91,2.91,0,0,0-.73-.36v0a2.56,2.56,0,0,0,1.33-1,3.06,3.06,0,0,0,.48-1.76,2.92,2.92,0,0,0-1.19-2.45,5,5,0,0,0-3.08-.9,5.63,5.63,0,0,0-1.63.23,4.43,4.43,0,0,0-1.29.63,4.16,4.16,0,0,0-.88.9,3.43,3.43,0,0,0-.52,1.05l2.27.65a2,2,0,0,1,2-1.38,2,2,0,0,1,1.3.43,1.4,1.4,0,0,1,.54,1.17q0,1.74-2.07,1.74h-1.4v1.89H25.8a2.83,2.83,0,0,1,1.64.46,1.51,1.51,0,0,1,.65,1.32,1.62,1.62,0,0,1-.6,1.34,2.26,2.26,0,0,1-1.45.48,2.82,2.82,0,0,1-1.59-.43,2.49,2.49,0,0,1-.95-1.13l-2.17.66A4.1,4.1,0,0,0,23,37a5.31,5.31,0,0,0,3,.81,4.85,4.85,0,0,0,3.28-1.07,3.5,3.5,0,0,0,1.26-2.8,3.54,3.54,0,0,0-.18-1.14A2.58,2.58,0,0,0,29.87,31.91Z"/><path  d="M37.59,27.67a3.13,3.13,0,0,0-1.47.35,3.67,3.67,0,0,0-1.09.89V24.07H32.72v13.5H35V31.92a2.09,2.09,0,0,1,.54-1.52,1.87,1.87,0,0,1,2.64,0,2,2,0,0,1,.52,1.46v5.74H41V31.3a3.59,3.59,0,0,0-1-2.65A3.34,3.34,0,0,0,37.59,27.67Z"/></g></svg>