<svg id="Service_Delivery_Delivery_Pickup--Store_48px" xmlns="http://www.w3.org/2000/svg" viewBox="0 0 48 48"><path d="M35.55 31.73L25.8 34.4a4.77 4.77 0 00-1.6-.93l-5.78-21.18L12.18 6a1.5 1.5 0 00-2.12 2.12l5.67 5.71 5.39 19.74a4.58 4.58 0 001.65 8.85 4.7 4.7 0 001.23-.15 4.59 4.59 0 003.3-5.17l9.05-2.47a1.5 1.5 0 10-.79-2.9zm-11.39 6.9a1.59 1.59 0 01-2.92-.38 1.57 1.57 0 01.15-1.2 1.59 1.59 0 011-.75 1.52 1.52 0 01.42-.06 1.59 1.59 0 011.53 1.18 1.55 1.55 0 01-.18 1.21z"/><path d="M38.31 26.75l-2.45-9a2 2 0 00-2.46-1.4l-9 2.44a2 2 0 00-1.4 2.49l2.45 9a2 2 0 002.46 1.4l9-2.44a2 2 0 001.4-2.49zm-10.2 1.75l-1.92-7 7-1.93 1.92 7z"/></svg>