<svg xmlns="http://www.w3.org/2000/svg" viewBox="0 0 64 64"><defs></defs><g id="Icon"><path  d="M56.57,43.1a4.91,4.91,0,0,0-6.49-2.49L42.9,43.8A4.75,4.75,0,0,0,38.25,40h-13a9.52,9.52,0,0,0-3.93.85l-9.42,4.28a1.5,1.5,0,1,0,1.24,2.74l9.42-4.29A6.57,6.57,0,0,1,25.23,43h13a1.75,1.75,0,0,1,0,3.5H32.5a1.5,1.5,0,0,0,0,3h5.75a4.73,4.73,0,0,0,3.93-2.09l9.12-4.06a1.92,1.92,0,0,1,1.47,0,1.85,1.85,0,0,1,1.06,1,1.92,1.92,0,0,1-1,2.53L33.57,55.44a6.52,6.52,0,0,1-2.64.56H19a1.5,1.5,0,0,0,0,3H30.93a9.49,9.49,0,0,0,3.86-.82l19.29-8.59A4.91,4.91,0,0,0,56.57,43.1Z"/><path  d="M19.5,18.85V26.5A5,5,0,1,0,24.45,32H43.5a5,5,0,1,0,5-5h-.08a7.56,7.56,0,0,0-6.77-6.43l-8.17-1.42a.88.88,0,0,0,0-.16V13.5a2,2,0,0,0-2-2H19.18l-2.7-5.4A2,2,0,0,0,14.69,5H9A1.5,1.5,0,0,0,9,8h5.07Zm0,14.65a2,2,0,1,1,2-2A2,2,0,0,1,19.5,33.5Zm31-1.5a2,2,0,1,1-2-2A2,2,0,0,1,50.5,32Zm-9.16-8.43A4.52,4.52,0,0,1,45.5,28a4.69,4.69,0,0,0-1,1H23.8a4.94,4.94,0,0,0-1.3-1.47V20.29l18.7,3.26ZM30.5,14.5v4.14L22,17.15,20.68,14.5Z"/></g></svg>