<svg xmlns="http://www.w3.org/2000/svg" viewBox="0 0 32 32"><defs></defs><g id="Icon"><path  d="M20.88,21.55a1.81,1.81,0,0,0-2.49.57,1.79,1.79,0,0,0-.23,1.37,1.81,1.81,0,0,0,1.76,1.41,1.92,1.92,0,0,0,.41,0,1.81,1.81,0,0,0,.55-3.3Zm-.27,2a.78.78,0,0,1-.5.37.85.85,0,0,1-.62-.11.8.8,0,0,1-.36-.5.81.81,0,0,1,.79-1,.82.82,0,0,1,.43.12A.81.81,0,0,1,20.61,23.51Z"/><path  d="M26.71,13.05a6.56,6.56,0,0,0-4.86-1.47L16.32,5A2,2,0,0,0,15,4.26l-2.2-.19A2,2,0,0,0,10.6,5.88l-.19,2.2a2,2,0,0,0,.45,1.46l5.46,6.52-.5.19L8.33,11.57a2,2,0,0,0-1.51-.25l-2.23.51a2,2,0,0,0-1.5,2.4l.51,2.23a2.07,2.07,0,0,0,.89,1.25L12,22.43a6.57,6.57,0,0,0,6.56,6.35,6.43,6.43,0,0,0,3.38-1A6.61,6.61,0,0,0,24.85,24a7.05,7.05,0,0,0,4.25-5.09,2.42,2.42,0,0,0,.06-.66A7.21,7.21,0,0,0,26.71,13.05ZM20.89,26.12A4.56,4.56,0,0,1,14,22.37,2,2,0,0,0,13,20.69L9,18.13l.34-.53a.5.5,0,1,0-.85-.53l-.33.53L7,16.92l.34-.54a.5.5,0,0,0-.16-.69.51.51,0,0,0-.69.16l-.34.54L5.55,16,5,13.78l2.22-.51L14.75,18a2.07,2.07,0,0,0,1.92.11A4.56,4.56,0,0,1,20.24,18a5.35,5.35,0,0,1,2.91,3.13l.93-.37-.91.42A5.1,5.1,0,0,1,20.89,26.12Zm4.28-4.57c0-.17,0-.34,0-.51a2.11,2.11,0,0,0-.15-.66,7.28,7.28,0,0,0-4-4.25,6.72,6.72,0,0,0-2.39-.46l-3.69-4.41.46-.38a.5.5,0,1,0-.64-.77l-.46.39-.79-.95.46-.39a.5.5,0,0,0-.64-.77l-.46.39-.44-.53.19-2.19,2.2.19,5.53,6.62a2,2,0,0,0,1.78.69,4.48,4.48,0,0,1,3.32,1,5.29,5.29,0,0,1,1.74,3.83A5.51,5.51,0,0,1,25.17,21.55Z"/></g></svg>