<svg id="Service_Time_Delivery--24h_32px" xmlns="http://www.w3.org/2000/svg" viewBox="0 0 32 32"><path fill-rule="evenodd" d="M6.354 3.687a.5.5 0 00-.708-.707L4.313 4.313 2.98 5.646a.5.5 0 00.707.708l.98-.98L6.46 7.168A12.954 12.954 0 003 16c0 7.18 5.82 13 13 13s13-5.82 13-13c0-3.41-1.313-6.513-3.46-8.832l1.127-1.128.313.314a.5.5 0 10.707-.708l-.667-.666-.666-.667a.5.5 0 00-.708.707l.314.313-1.128 1.128A12.954 12.954 0 0016 3c-3.41 0-6.513 1.313-8.832 3.46L5.374 4.668l.98-.98zM5 16C5 9.925 9.925 5 16 5s11 4.925 11 11-4.925 11-11 11S5 22.075 5 16zm15.02-4h-1.186v7h1.186v-2.93c0-.33.093-.592.28-.785a.912.912 0 01.681-.289c.274 0 .498.093.672.28.18.18.27.43.27.747V19h1.186v-3.248c0-.386-.078-.719-.233-.999a1.547 1.547 0 00-.626-.653 1.786 1.786 0 00-.914-.233c-.274 0-.526.062-.756.186-.224.119-.41.271-.56.458V12zM8.159 17.936l2.277-2.128c.317-.305.535-.557.653-.756.119-.205.178-.426.178-.663a.863.863 0 00-.271-.662c-.18-.175-.426-.262-.737-.262-.255 0-.48.066-.672.196a1.062 1.062 0 00-.42.523L8 13.848c.124-.41.386-.756.784-1.036s.896-.42 1.493-.42c.486 0 .9.084 1.242.252.348.168.61.395.784.681.18.287.27.607.27.962 0 .38-.093.737-.28 1.073-.18.33-.476.684-.886 1.064L9.848 17.88h2.8V19h-4.49v-1.064zm7.853-.336h-2.828v-.97l1.755-4.117h1.279l-1.727 4.042h1.521v-1.531h1.158v1.53h.728V17.6h-.728V19h-1.158v-1.4z"/></svg>