<svg id="Service_Custom_CutWoodGlass_48px" xmlns="http://www.w3.org/2000/svg" viewBox="0 0 48 48"><path d="M24 30.08a4.27 4.27 0 10-4.26-4.27A4.27 4.27 0 0024 30.08zm0-6.53a2.27 2.27 0 11-2.26 2.26A2.26 2.26 0 0124 23.55z"/><path d="M42.5 32h-2.23l-.19-.94 1.62-1.5a1.52 1.52 0 00.3-1.84l-1.09-1.88.19-.34h1.4A1.5 1.5 0 0044 24a19.9 19.9 0 00-4.85-13l1.91-1.92a1.5 1.5 0 10-2.12-2.12L37 8.85A19.9 19.9 0 0024 4H5.5A1.5 1.5 0 004 5.5v19h.09a1.51 1.51 0 001.41 1h1.42l.17.29L6 27.72a1.52 1.52 0 00.3 1.84L7.91 31l-.2 1H5.5a1.5 1.5 0 000 3h3.16l1.64.73.26 2.21a1.52 1.52 0 001.32 1.31l2.16.23.93 2a1.5 1.5 0 001.65.85l2.13-.45 1.51 1.63a1.49 1.49 0 001.83.29L24 42.72l1.93 1.09a1.47 1.47 0 00.73.19 1.51 1.51 0 001.1-.48l1.44-1.62 2.18.44a1.5 1.5 0 001.62-.85l.89-2 2.2-.26a1.52 1.52 0 001.32-1.31l.23-2.17 1.71-.75h3.15a1.5 1.5 0 000-3zm-1.57-9.5h-4a13 13 0 00-25.82 0h-4a17 17 0 0133.86 0zM7 7h6.52A20.11 20.11 0 007 13.52zm27.72 28.38l-.12 1-1 .12a3 3 0 00-2.34 1.7l-.43.93-1-.2a3 3 0 00-2.75.89l-.7.76-.9-.5a2.9 2.9 0 00-2.88 0l-.9.5-.7-.76a3 3 0 00-2.79-.82l-1 .2-.43-.94a3 3 0 00-2.34-1.69l-1-.12-.12-1a2.94 2.94 0 00-1.69-2.33l-.94-.43.2-1a3 3 0 00-.89-2.83l-.76-.7.51-.9A3 3 0 0010 25.5h2.5A1.5 1.5 0 0014 24a10 10 0 0120 0 1.5 1.5 0 001.5 1.5H38a3 3 0 00.33 1.76l.51.9-.76.7a3 3 0 00-.89 2.74l.08.4H16v3h18.81a2.62 2.62 0 00-.09.38z"/></svg>