<svg id="Service_AfterSales_AfterSalesService_32px" xmlns="http://www.w3.org/2000/svg" viewBox="0 0 32 32"><path d="M29 9.23A2 2 0 0025.55 8l-2.05 2.09-1.59-1.59 2.05-2A2 2 0 0022.77 3a7.94 7.94 0 00-5.69 1.75 2.28 2.28 0 00-.46.47 7.72 7.72 0 00-1.47 6.18L3.79 22.79a3.83 3.83 0 005.42 5.42l11.4-11.35a7.84 7.84 0 006.13-1.48 2.27 2.27 0 00.47-.46A7.91 7.91 0 0029 9.23zm-3.39 4.52A5.75 5.75 0 0121 14.9a2 2 0 00-1.86.54L7.79 26.79a1.82 1.82 0 01-2.58-2.58l11.35-11.36A2 2 0 0017.1 11a5.78 5.78 0 011.19-4.61A6.19 6.19 0 0122 5a5.27 5.27 0 01.56 0L20.5 7.09a2 2 0 000 2.82l1.59 1.59a2 2 0 002.82 0L27 9.45a5.91 5.91 0 01-1.43 4.3z"/><circle cx="6.5" cy="25.5" r="1"/></svg>