<svg xmlns="http://www.w3.org/2000/svg" viewBox="0 0 48 48"><defs></defs><g id="Icon"><path  d="M23.77,4A20,20,0,1,0,44,23.77,20,20,0,0,0,23.77,4Zm.42,37A17,17,0,1,1,41,23.81,17,17,0,0,1,24.19,41Z"/><path  d="M32.84,26a1,1,0,0,0-1.27.62,8,8,0,0,1-15.08.17,1,1,0,0,0-1.29-.59,1,1,0,0,0-.59,1.28,10,10,0,0,0,18.86-.21A1,1,0,0,0,32.84,26Z"/><path  d="M14.9,20.45a2.25,2.25,0,0,1,4.12,0,1,1,0,0,0,.95.64,1.15,1.15,0,0,0,.35-.07,1,1,0,0,0,.57-1.29,4.25,4.25,0,0,0-7.88.08,1,1,0,1,0,1.89.68Z"/><path  d="M30.92,16.92A4.19,4.19,0,0,0,27,19.62a1,1,0,0,0,.6,1.28,1,1,0,0,0,1.28-.6A2.25,2.25,0,0,1,33,20.25a1,1,0,0,0,.95.64,1.15,1.15,0,0,0,.35-.07,1,1,0,0,0,.57-1.29A4.2,4.2,0,0,0,30.92,16.92Z"/></g></svg>