<svg xmlns="http://www.w3.org/2000/svg" viewBox="0 0 24 24"><defs></defs><g id="Calque_5" ><path  d="M22,16a2.5,2.5,0,0,0-2-2.05V13a8,8,0,0,0-4-6.91V5a1,1,0,0,0-1-1H9A1,1,0,0,0,8,5V6.09A8,8,0,0,0,4,13v.92a2.5,2.5,0,0,0,.1,4.92,48.77,48.77,0,0,0,7.9.66,48.77,48.77,0,0,0,7.9-.66A2.5,2.5,0,0,0,22,16Zm-2.39.89a45.92,45.92,0,0,1-15.16,0A.49.49,0,0,1,4,16.3a.48.48,0,0,1,.2-.33.47.47,0,0,1,.38-.09L6,16.1V13A6,6,0,0,1,8,8.54V11a1,1,0,0,0,2,0V6h4v5a1,1,0,0,0,2,0V8.53A6,6,0,0,1,18,13v3.1l1.42-.22a.47.47,0,0,1,.37.09.48.48,0,0,1,.2.33A.49.49,0,0,1,19.58,16.87Z"/></g></svg>