<svg id="Service_Custom_CutWoodGlass_64px" xmlns="http://www.w3.org/2000/svg" viewBox="0 0 64 64"><path d="M32 39.5a5.5 5.5 0 10-5.5-5.5 5.51 5.51 0 005.5 5.5zm0-9a3.5 3.5 0 11-3.5 3.5 3.5 3.5 0 013.5-3.5z"/><path d="M57.5 44h-3.34l-.54-2.72a.5.5 0 01.15-.46L56 38.74a1.49 1.49 0 00.29-1.83l-1.5-2.66a.53.53 0 010-.49l.21-.26h2a2 2 0 001.45-.62 2 2 0 00.55-1.46 27.6 27.6 0 00-7-17.26l1.6-1.6a1.5 1.5 0 00-2.12-2.12L49.86 12A26.61 26.61 0 0032 5H10.5A5.51 5.51 0 005 10.5v21a2 2 0 00.56 1.38A2 2 0 007 33.5h2l.15.25a.53.53 0 010 .49l-1.5 2.67A1.49 1.49 0 008 38.74l2.25 2.08a.5.5 0 01.15.46L9.84 44H6.5a1.5 1.5 0 000 3h6.44l.46.21a.51.51 0 01.29.4l.35 3A1.53 1.53 0 0015.36 52l3 .35a.51.51 0 01.4.29l1.28 2.78a1.5 1.5 0 001.65.84l3-.6a.52.52 0 01.46.15L27.26 58a1.49 1.49 0 001.83.29l2.66-1.5a.53.53 0 01.49 0l2.67 1.5a1.47 1.47 0 00.73.19 1.51 1.51 0 001.1-.48l2.08-2.25a.5.5 0 01.46-.15l3 .6a1.5 1.5 0 001.65-.84l1.28-2.78a.51.51 0 01.4-.29l3-.35a1.53 1.53 0 001.39-1.3l.35-3a.51.51 0 01.29-.4l.46-.21h6.4a1.5 1.5 0 000-3zm-47-36h9.4A27.94 27.94 0 008 20.06V10.5A2.5 2.5 0 0110.5 8zM32 8c12.37 0 22.88 10 23.91 22.5h-7C47.86 21.87 40.48 15 32 15s-15.86 6.87-16.87 15.5h-7C9.12 18 19.63 8 32 8zm15.33 39.26l-.21 1.86-1.86.21a3.54 3.54 0 00-2.77 2l-.78 1.7-1.84-.37a3.52 3.52 0 00-3.26 1.06l-1.27 1.37-1.63-.91a3.53 3.53 0 00-3.42 0l-1.63.91-1.27-1.37a3.52 3.52 0 00-3.26-1.06l-1.84.37-.78-1.71a3.55 3.55 0 00-2.77-2l-1.86-.21-.21-1.86a3.54 3.54 0 00-2-2.77L13 43.71l.37-1.84a3.52 3.52 0 00-1.06-3.26l-1.37-1.27.91-1.63a3.48 3.48 0 00.38-2.21h3.88a2 2 0 002-1.88C18.51 24.11 24.77 18 32 18s13.49 6.11 14 13.62a2 2 0 002 1.88h3.88a3.48 3.48 0 00.38 2.21l.91 1.63-1.37 1.27a3.52 3.52 0 00-1.06 3.26l.37 1.84-.64.29H20v3h27.38a2.38 2.38 0 01-.05.26z"/></svg>