<svg xmlns="http://www.w3.org/2000/svg" viewBox="0 0 24 24"><defs></defs><g id="Calque_5" ><path  d="M12,2A10,10,0,1,0,22,12,10,10,0,0,0,12,2Zm0,18a8,8,0,1,1,8-8A8,8,0,0,1,12,20Z"/><path  d="M16.42,13a.5.5,0,0,0-.64.3,4,4,0,0,1-7.56,0,.49.49,0,0,0-.64-.3.5.5,0,0,0-.3.64,5,5,0,0,0,9.44,0A.5.5,0,0,0,16.42,13Z"/><path  d="M15,8.5a2.05,2.05,0,0,0-2,1.34.5.5,0,0,0,.94.32,1.13,1.13,0,0,1,2.06,0,.49.49,0,0,0,.47.34.45.45,0,0,0,.16,0A.5.5,0,0,0,17,9.84,2.05,2.05,0,0,0,15,8.5Z"/><path  d="M8,10.16a1.13,1.13,0,0,1,2.06,0,.49.49,0,0,0,.47.34.45.45,0,0,0,.16,0A.5.5,0,0,0,11,9.84,2.05,2.05,0,0,0,9,8.5,2.05,2.05,0,0,0,7,9.84a.5.5,0,1,0,.94.32Z"/></g></svg>