<svg xmlns="http://www.w3.org/2000/svg" viewBox="0 0 48 48"><defs></defs><g id="Icon"><path  d="M39,7H9A2,2,0,0,0,7,9V39a2,2,0,0,0,2,2h8.42a16.86,16.86,0,0,1,.16-5.62l2.17-9.17a6,6,0,0,1-.53-2.68,5,5,0,0,1,.94-3.08,2.79,2.79,0,0,1,2.29-1.26,2,2,0,0,1,1.67.72,2.79,2.79,0,0,1,.59,1.81,6.55,6.55,0,0,1-.25,1.65c-.16.64-.38,1.39-.65,2.26s-.47,1.54-.59,2A2.51,2.51,0,0,0,23.73,30a2.67,2.67,0,0,0,2.15,1q2.34,0,3.84-2.62A12.51,12.51,0,0,0,31.21,22a6.17,6.17,0,0,0-1.84-4.64,7.08,7.08,0,0,0-5.15-1.8,8,8,0,0,0-6,2.36,7.87,7.87,0,0,0-2.29,5.68,5.12,5.12,0,0,0,1.11,3.32,1,1,0,0,1,.24.93q-.11.38-.33,1.35a.59.59,0,0,1-.84.42,5,5,0,0,1-2.58-2.44,8.74,8.74,0,0,1-.88-4,9.41,9.41,0,0,1,.48-2.93,10.26,10.26,0,0,1,1.47-2.84A12.39,12.39,0,0,1,17,15a10.76,10.76,0,0,1,3.39-1.69,13.93,13.93,0,0,1,4.3-.64,11.63,11.63,0,0,1,4.37.81,10.21,10.21,0,0,1,3.37,2.15,10,10,0,0,1,2.14,3.08,8.81,8.81,0,0,1,.77,3.59,13.08,13.08,0,0,1-2.53,8.27,7.91,7.91,0,0,1-6.4,3.27,5.4,5.4,0,0,1-2.47-.54,3.9,3.9,0,0,1-1.79-1.57c-.65,2.59-1,4.13-1.17,4.63A15.56,15.56,0,0,1,18.58,41H39a2,2,0,0,0,2-2V9A2,2,0,0,0,39,7Z"/></g></svg>