<svg xmlns="http://www.w3.org/2000/svg" viewBox="0 0 32 32"><defs></defs><g id="Name"><path  d="M16,3A13,13,0,1,0,29,16,13,13,0,0,0,16,3Zm0,24A11,11,0,1,1,27,16,11,11,0,0,1,16,27Z"/><path  d="M22.58,12.63l-3.76-.53L17.14,8.73a1.29,1.29,0,0,0-2.32,0l-1.71,3.4-3.83.68A1.3,1.3,0,0,0,8.61,15l2.78,2.6-.58,3.7a1.3,1.3,0,0,0,1.29,1.5,1.34,1.34,0,0,0,.63-.16L16,20.86l3.4,1.79a1.26,1.26,0,0,0,.61.16,1.3,1.3,0,0,0,1.27-1.54l-.69-3.77,2.73-2.65A1.3,1.3,0,0,0,22.58,12.63Zm-3.39,3.44-.77.74.2,1.05.43,2.35-2.12-1.12-1-.5-1,.53-2,1.11.36-2.29.16-1-.77-.72L11,14.53l2.46-.43,1-.17.45-.9L16,10.88,17,13l.47.94,1,.15,2.34.33Z"/></g></svg>