<svg id="Social_SocialNetwork_Spotify_48px" xmlns="http://www.w3.org/2000/svg" viewBox="0 0 48 48"><path d="M24 4C12.954 4 4 12.954 4 24c0 11.045 8.954 19.999 20 19.999 11.047 0 20-8.954 20-20 0-11.044-8.953-19.998-20-19.998V4zm9.172 28.845a1.246 1.246 0 01-1.715.413C26.76 30.39 20.85 29.74 13.888 31.331a1.247 1.247 0 01-.555-2.431c7.619-1.741 14.154-.991 19.425 2.23.588.361.774 1.128.414 1.715zM35.62 27.4a1.559 1.559 0 01-2.145.514c-5.376-3.305-13.57-4.262-19.93-2.331a1.561 1.561 0 01-1.945-1.04 1.561 1.561 0 011.04-1.944c7.263-2.204 16.293-1.136 22.466 2.657a1.56 1.56 0 01.514 2.144zm.21-5.67c-6.446-3.83-17.08-4.181-23.235-2.314a1.87 1.87 0 11-1.086-3.58c7.064-2.144 18.809-1.73 26.23 2.676a1.868 1.868 0 01.654 2.563 1.87 1.87 0 01-2.562.654h-.001z"/></svg>