<svg xmlns="http://www.w3.org/2000/svg" viewBox="0 0 64 64"><path d="M32 5.333C17.274 5.333 5.335 17.273 5.335 32c0 14.727 11.94 26.666 26.667 26.666 14.728 0 26.666-11.938 26.666-26.666C58.667 17.273 46.73 5.335 32 5.335v-.002zm12.23 38.46a1.661 1.661 0 01-2.287.552c-6.26-3.825-14.143-4.69-23.425-2.57a1.663 1.663 0 01-.74-3.242c10.158-2.321 18.872-1.321 25.9 2.974a1.662 1.662 0 01.552 2.287zm3.264-7.261a2.079 2.079 0 01-2.86.686c-7.168-4.407-18.094-5.683-26.573-3.109a2.082 2.082 0 01-2.594-1.385 2.082 2.082 0 011.386-2.593c9.685-2.939 21.724-1.515 29.956 3.543a2.078 2.078 0 01.684 2.858zm.28-7.56c-8.595-5.106-22.775-5.575-30.98-3.085a2.494 2.494 0 11-1.448-4.773c9.42-2.86 25.078-2.307 34.973 3.567a2.491 2.491 0 01.873 3.418 2.492 2.492 0 01-3.417.872h-.001z"/></svg>