<svg xmlns="http://www.w3.org/2000/svg" viewBox="0 0 64 64"><defs></defs><g id="Icon"><path  d="M57,5H7A2,2,0,0,0,5,7V49a2,2,0,0,0,2,2H21v6.09a2,2,0,0,0,1,1.75,1.94,1.94,0,0,0,1,.25,2,2,0,0,0,1.08-.31L36.35,51H57a2,2,0,0,0,2-2V7A2,2,0,0,0,57,5ZM56,48H35.48L24,55.27V48H8V8H56Z"/><path  d="M26,24a2,2,0,0,0,2-2,4,4,0,0,1,4.88-3.91,4,4,0,0,1,3,3,4,4,0,0,1-1.83,4.3A8.31,8.31,0,0,0,30,32.5a2,2,0,0,0,4,0,4.33,4.33,0,0,1,2.17-3.67A8,8,0,1,0,24,22,2,2,0,0,0,26,24Z"/><path  d="M33.39,36.92a2.43,2.43,0,0,0-.9-.37,2.31,2.31,0,0,0-1,0,2.43,2.43,0,0,0-.9.37,2.85,2.85,0,0,0-.38.31A2.5,2.5,0,0,0,32,41.5a2.72,2.72,0,0,0,.49,0,2.54,2.54,0,0,0,.47-.14,3.55,3.55,0,0,0,.43-.23,3.68,3.68,0,0,0,.38-.31,2.51,2.51,0,0,0,0-3.54A3.68,3.68,0,0,0,33.39,36.92Z"/></g></svg>