<svg xmlns="http://www.w3.org/2000/svg" viewBox="0 0 64 64"><defs></defs><g id="Icon"><path  d="M45.39,28c0-.52,0-1.23-.07-2.11a16.3,16.3,0,0,0-.21-2.25,8.83,8.83,0,0,0-.41-1.57,5.64,5.64,0,0,0-1.27-1.93A5.84,5.84,0,0,0,41.5,18.9a8.77,8.77,0,0,0-1.56-.4,17.82,17.82,0,0,0-2.26-.22c-.88,0-1.58-.06-2.11-.07H33.26l-1.67,0-1.68,0H27.6c-.52,0-1.23,0-2.11.07a18,18,0,0,0-2.26.22,8.77,8.77,0,0,0-1.56.4,5.94,5.94,0,0,0-1.93,1.27,5.79,5.79,0,0,0-1.27,1.93,8.9,8.9,0,0,0-.4,1.57,16.14,16.14,0,0,0-.22,2.25c0,.88-.06,1.59-.07,2.11s0,1.3,0,2.31,0,1.58,0,1.68,0,.66,0,1.67,0,1.79,0,2.31,0,1.23.07,2.12a16.14,16.14,0,0,0,.22,2.25,9.14,9.14,0,0,0,.4,1.57,5.74,5.74,0,0,0,3.2,3.19,7.93,7.93,0,0,0,1.56.41,18,18,0,0,0,2.26.22c.88,0,1.59.06,2.11.06h8c.53,0,1.23,0,2.11-.06a17.82,17.82,0,0,0,2.26-.22,7.93,7.93,0,0,0,1.56-.41,5.74,5.74,0,0,0,3.2-3.19,9.07,9.07,0,0,0,.41-1.57,16.3,16.3,0,0,0,.21-2.25c0-.89.06-1.59.07-2.12s0-1.29,0-2.31,0-1.57,0-1.67,0-.66,0-1.68S45.4,28.56,45.39,28Zm-7.7,10.1a8.66,8.66,0,0,1-12.21,0,8.67,8.67,0,0,1,0-12.22,8.66,8.66,0,0,1,12.21,0,8.67,8.67,0,0,1,0,12.22ZM42,24.47a2,2,0,0,1-1.43.59,2,2,0,0,1-1.42-.59A2,2,0,0,1,38.55,23a2,2,0,0,1,.59-1.42A1.91,1.91,0,0,1,40.56,21a2,2,0,0,1,2,2A2,2,0,0,1,42,24.47Z"/><path  d="M31.59,26.41a5.61,5.61,0,0,0-4,9.57,5.6,5.6,0,1,0,7.93-7.92A5.4,5.4,0,0,0,31.59,26.41Z"/><path  d="M53,9H11a2,2,0,0,0-2,2V53a2,2,0,0,0,2,2H53a2,2,0,0,0,2-2V11A2,2,0,0,0,53,9ZM48.29,39a10.24,10.24,0,0,1-2.71,7,10.28,10.28,0,0,1-7,2.71c-1.29.08-3.6.11-6.94.11s-5.66,0-6.94-.11a10.24,10.24,0,0,1-7-2.71,10.25,10.25,0,0,1-2.72-7c-.07-1.28-.11-3.6-.11-6.94s0-5.66.11-6.94a10.25,10.25,0,0,1,2.72-7,10.25,10.25,0,0,1,7-2.72q1.92-.11,6.94-.11t6.94.11a10.29,10.29,0,0,1,7,2.72,10.24,10.24,0,0,1,2.71,7c.07,1.28.11,3.6.11,6.94S48.36,37.68,48.29,39Z"/></g></svg>