<svg xmlns="http://www.w3.org/2000/svg" viewBox="0 0 64 64"><defs></defs><g id="Icon"><path  d="M58.94,25.71A5.63,5.63,0,0,0,53.25,21H40.55l1.65-8.87a6,6,0,0,0-11.12-4L22.5,23.68V23a2,2,0,0,0-2-2H7.08a2,2,0,0,0-2,2.28L9,50.78a2,2,0,0,0,2,1.72H20.5a2,2,0,0,0,2-2V49.12l3.84,1.38a8.55,8.55,0,0,0,2.88.5H47.31A5.61,5.61,0,0,0,53,45.85a5.74,5.74,0,0,0-.22-1.94A5.49,5.49,0,0,0,55,39.5a5.38,5.38,0,0,0-.38-2A5.49,5.49,0,0,0,57,33a5.36,5.36,0,0,0-.38-2A5.44,5.44,0,0,0,58.94,25.71ZM19.5,49.5H11.8L8.23,24H19.5ZM54.33,28.84a1.75,1.75,0,0,0-.82,2.7A2.44,2.44,0,0,1,54,33a2.49,2.49,0,0,1-1.67,2.34,1.75,1.75,0,0,0-.82,2.7A2.44,2.44,0,0,1,52,39.5a2.49,2.49,0,0,1-1.51,2.28,1.73,1.73,0,0,0-.82,2.47A2.58,2.58,0,0,1,50,45.66,2.65,2.65,0,0,1,47.31,48H29.22a5.6,5.6,0,0,1-1.86-.32L22.5,45.93v-16L33.71,9.59a3,3,0,0,1,5.54,2L36.94,24h16.4A2.6,2.6,0,0,1,56,26.13,2.47,2.47,0,0,1,54.33,28.84Z"/></g></svg>