<svg xmlns="http://www.w3.org/2000/svg" viewBox="0 0 48 48"><defs></defs><g id="Icon"><polygon  points="21.71 27.43 27.65 24 21.71 20.57 21.71 27.43"/><path  d="M39,7H9A2,2,0,0,0,7,9V39a2,2,0,0,0,2,2H39a2,2,0,0,0,2-2V9A2,2,0,0,0,39,7ZM35,29.5a2.86,2.86,0,0,1-2,2C31.15,32,24,32,24,32s-7.15,0-8.93-.48a2.86,2.86,0,0,1-2-2,29.57,29.57,0,0,1-.48-5.5,29.57,29.57,0,0,1,.48-5.5,2.86,2.86,0,0,1,2-2C16.85,16,24,16,24,16s7.15,0,8.93.48a2.86,2.86,0,0,1,2,2,29.57,29.57,0,0,1,.48,5.5A29.57,29.57,0,0,1,35,29.5Z"/></g></svg>