<svg xmlns="http://www.w3.org/2000/svg" viewBox="0 0 24 24"><defs></defs><g id="Calque_5" ><path  d="M10,9.5a1,1,0,0,0,1-1,1,1,0,1,1,1.49.87A3,3,0,0,0,11,12a1,1,0,0,0,2,0,1,1,0,0,1,.47-.89A3,3,0,1,0,9,8.5,1,1,0,0,0,10,9.5Z"/><path  d="M12.56,13.67l-.18-.09-.18-.06a.9.9,0,0,0-.4,0l-.18.06-.18.09-.15.12a1.05,1.05,0,0,0-.29.71,1,1,0,0,0,.07.38,1.46,1.46,0,0,0,.22.33,1,1,0,0,0,1.42,0,1.15,1.15,0,0,0,.21-.33A1,1,0,0,0,13,14.5a1.05,1.05,0,0,0-.29-.71Z"/><path  d="M20.75,2H3.25A1.25,1.25,0,0,0,2,3.25v14.5A1.25,1.25,0,0,0,3.25,19H8v1.92a1.24,1.24,0,0,0,1.25,1.25,1.23,1.23,0,0,0,.85-.33l3-2.84h7.61A1.25,1.25,0,0,0,22,17.75V3.25A1.25,1.25,0,0,0,20.75,2ZM20,17H12.36L10,19.2V17H4V4H20Z"/></g></svg>