<svg xmlns="http://www.w3.org/2000/svg" viewBox="0 0 32 32"><defs></defs><g id="Icon"><path  d="M27.66,12.25A3,3,0,0,0,25.23,11H20.78l1.08-4.32a3,3,0,0,0-5.25-2.47l-5,6.79H5.18a2,2,0,0,0-1.53.71,2,2,0,0,0-.44,1.62l1.66,10a2,2,0,0,0,2,1.67H10a2,2,0,0,0,2-1.64l1.59.94a5,5,0,0,0,2.54.7h6.47A3,3,0,0,0,25.4,23l2.67-8A3,3,0,0,0,27.66,12.25ZM10,23H6.85L5.18,13H10Zm16.17-8.68-2.66,8a1,1,0,0,1-1,.68H16.09a2.93,2.93,0,0,1-1.52-.42L12,21.06V13.87l6.22-8.48a1,1,0,0,1,1.53,0,1,1,0,0,1,.17.82L18.22,13h7a1,1,0,0,1,.81.42A1,1,0,0,1,26.17,14.32Z"/></g></svg>