<svg id="Social_SocialNetwork_Instagram_24px" xmlns="http://www.w3.org/2000/svg" viewBox="0 0 24 24"><g clip-path="url(#a)"><path d="M7.858 2.07c-1.064.05-1.79.22-2.425.47-.658.256-1.215.6-1.77 1.156a4.899 4.899 0 00-1.15 1.772c-.246.637-.413 1.364-.46 2.429-.047 1.064-.057 1.407-.052 4.122.005 2.716.017 3.056.069 4.123.05 1.064.22 1.79.47 2.426.256.657.6 1.214 1.156 1.769a4.894 4.894 0 001.774 1.15c.636.245 1.363.413 2.428.46 1.064.046 1.407.057 4.122.052 2.715-.005 3.056-.017 4.123-.068 1.067-.05 1.79-.221 2.425-.47a4.901 4.901 0 001.769-1.156 4.9 4.9 0 001.15-1.774c.246-.636.413-1.363.46-2.427.046-1.067.057-1.408.052-4.123-.005-2.715-.018-3.056-.068-4.122-.05-1.067-.22-1.79-.47-2.427a4.91 4.91 0 00-1.156-1.769 4.88 4.88 0 00-1.773-1.15c-.637-.245-1.364-.413-2.428-.46-1.065-.045-1.407-.057-4.123-.052-2.716.005-3.056.017-4.123.069zm.117 18.078c-.975-.043-1.504-.205-1.857-.34-.467-.18-.8-.398-1.152-.746a3.08 3.08 0 01-.75-1.149c-.137-.352-.302-.881-.347-1.856-.05-1.054-.06-1.37-.066-4.04-.006-2.67.004-2.986.05-4.04.042-.974.205-1.504.34-1.857.18-.468.397-.8.746-1.151a3.087 3.087 0 011.15-.75c.351-.138.88-.302 1.855-.348 1.054-.05 1.37-.06 4.04-.066 2.67-.006 2.986.004 4.041.05.974.043 1.505.204 1.857.34.467.18.8.397 1.151.746.352.35.568.682.75 1.15.138.35.302.88.348 1.855.05 1.054.062 1.37.066 4.04.005 2.669-.004 2.986-.05 4.04-.043.975-.205 1.504-.34 1.857a3.1 3.1 0 01-.747 1.152c-.349.35-.681.567-1.148.75-.352.137-.882.301-1.855.347-1.055.05-1.371.06-4.041.066-2.67.006-2.986-.005-4.04-.05m8.152-13.493a1.2 1.2 0 102.4-.003 1.2 1.2 0 00-2.4.003zM6.865 12.01a5.134 5.134 0 1010.27-.02 5.134 5.134 0 00-10.27.02zm1.802-.004a3.334 3.334 0 116.667-.013 3.334 3.334 0 01-6.667.013z"/></g><defs><clipPath id="a"><path d="M0 0h24v24H0z"/></clipPath></defs></svg>