<svg xmlns="http://www.w3.org/2000/svg" viewBox="0 0 24 24"><defs></defs><g id="Icon"><path  d="M20,5V18.32A1.68,1.68,0,0,1,18.32,20H5.68A1.68,1.68,0,0,1,4,18.32V5A1,1,0,0,1,5,4H19A1,1,0,0,1,20,5ZM17.33,9a5.1,5.1,0,0,1-1.26.36,2.11,2.11,0,0,0,1-1.22,4.47,4.47,0,0,1-1.39.53,2.2,2.2,0,0,0-3.79,1.5,1.75,1.75,0,0,0,.06.5A6.22,6.22,0,0,1,9.4,10a6.05,6.05,0,0,1-2-1.61,2.06,2.06,0,0,0-.31,1.1A2.06,2.06,0,0,0,8,11.32a2.4,2.4,0,0,1-1-.27v0a2.05,2.05,0,0,0,.52,1.39,2.22,2.22,0,0,0,1.28.76,2.27,2.27,0,0,1-.53.08,2.71,2.71,0,0,1-.41,0,2.23,2.23,0,0,0,.78,1.08,2.06,2.06,0,0,0,1.27.44,4.42,4.42,0,0,1-3.24.91,6.12,6.12,0,0,0,3.35,1,6.54,6.54,0,0,0,2.19-.37,5.83,5.83,0,0,0,1.75-1,6.83,6.83,0,0,0,1.25-1.43,6.39,6.39,0,0,0,1-3.44,2,2,0,0,0,0-.28A4.22,4.22,0,0,0,17.33,9Z"/></g></svg>