<svg xmlns="http://www.w3.org/2000/svg" viewBox="0 0 32 32"><defs></defs><g id="Icon"><path  d="M28.07,17.05l-2.67-8A3,3,0,0,0,22.56,7H16.09a5,5,0,0,0-2.54.7L12,8.64A2,2,0,0,0,10,7H6.85a2,2,0,0,0-2,1.67l-1.66,10a2,2,0,0,0,.44,1.62A2,2,0,0,0,5.18,21h6.44l5,6.79a3,3,0,0,0,5.25-2.47L20.78,21h4.45a3,3,0,0,0,2.84-3.95ZM10,19H5.18L6.85,9H10Zm16-.42a1,1,0,0,1-.81.42h-7l1.7,6.81a1,1,0,0,1-.17.82,1,1,0,0,1-1.53,0L12,18.13V10.94l2.57-1.52A2.93,2.93,0,0,1,16.09,9h6.47a1,1,0,0,1,1,.68l2.66,8A1,1,0,0,1,26,18.58Z"/></g></svg>