<svg xmlns="http://www.w3.org/2000/svg" viewBox="0 0 64 64"><defs></defs><g id="Icon"><path  d="M33.74,29.77v-.09l-.07.09Z"/><path  d="M53,9H11a2,2,0,0,0-2,2V53a2,2,0,0,0,2,2H53a2,2,0,0,0,2-2V11A2,2,0,0,0,53,9ZM23,47.53H16.1V26.74H23Zm-.63-24.64a3.91,3.91,0,0,1-2.84,1h0a3.8,3.8,0,0,1-2.77-1,3.42,3.42,0,0,1-1.06-2.56,3.35,3.35,0,0,1,1.09-2.57,4,4,0,0,1,2.83-1,3.79,3.79,0,0,1,2.78,1,3.52,3.52,0,0,1,1.08,2.57A3.4,3.4,0,0,1,22.38,22.89ZM47.9,47.53H41V36.41c0-3.13-1.15-4.7-3.47-4.7a3.4,3.4,0,0,0-2.22.74,4.61,4.61,0,0,0-1.35,1.78,5,5,0,0,0-.2,1.68V47.53H26.82q.09-18.81,0-20.79h6.92v2.94a6.94,6.94,0,0,1,6.19-3.42,7.47,7.47,0,0,1,5.78,2.37c1.46,1.58,2.19,3.9,2.19,7Z"/></g></svg>