<svg xmlns="http://www.w3.org/2000/svg" viewBox="0 0 32 32" aria-hidden="true"><path d="M27 7v18a2 2 0 01-2 2H7a2 2 0 01-2-2V7a2 2 0 012-2h18a2 2 0 012 2zm-3.67 4.9a6.41 6.41 0 01-1.73.49 2.91 2.91 0 001.33-1.68 6 6 0 01-1.92.74 2.85 2.85 0 00-2.19-.95 2.9 2.9 0 00-2.13.88 2.94 2.94 0 00-.88 2.13 2.67 2.67 0 00.08.69 8.47 8.47 0 01-3.47-.94A8.37 8.37 0 019.67 11a3 3 0 00-.42 1.52 2.84 2.84 0 001.31 2.51 3.49 3.49 0 01-1.43-.37 2.85 2.85 0 00.71 1.91 3.06 3.06 0 001.76 1 3 3 0 01-.73.11 4 4 0 01-.56-.06 3.07 3.07 0 001.07 1.49 2.8 2.8 0 001.74.6A5.94 5.94 0 019.38 21a5.43 5.43 0 01-.71 0 8.41 8.41 0 004.61 1.35 8.77 8.77 0 003-.51 7.78 7.78 0 002.4-1.36 9 9 0 001.73-2 8.67 8.67 0 001.07-2.32 8.48 8.48 0 00.35-2.42v-.39a5.71 5.71 0 001.5-1.45z"/></svg>