<svg xmlns="http://www.w3.org/2000/svg" viewBox="0 0 64 64"><defs></defs><g id="Icon"><path  d="M59,40.72l-3.86-27.5a2,2,0,0,0-2-1.72H43.58a2,2,0,0,0-2,2v1.38L37.73,13.5a8.5,8.5,0,0,0-2.87-.5H16.77a5.6,5.6,0,0,0-5.68,5.15,5.27,5.27,0,0,0,.22,1.94A5.47,5.47,0,0,0,9.08,24.5a5.37,5.37,0,0,0,.37,2A5.48,5.48,0,0,0,7.08,31a5.32,5.32,0,0,0,.37,2,5.46,5.46,0,0,0-2.32,5.31A5.63,5.63,0,0,0,10.83,43H23.52l-1.65,8.87a6,6,0,0,0,4.72,7,5.94,5.94,0,0,0,6.4-3l8.59-15.54V41a2,2,0,0,0,2,2H57a2,2,0,0,0,2-2.28ZM30.37,54.41a3,3,0,0,1-5.55-2L27.13,40H10.74A2.61,2.61,0,0,1,8.1,37.87a2.48,2.48,0,0,1,1.64-2.71,1.75,1.75,0,0,0,.83-2.7A2.44,2.44,0,0,1,10.08,31a2.49,2.49,0,0,1,1.66-2.34,1.75,1.75,0,0,0,.83-2.7,2.44,2.44,0,0,1-.49-1.46,2.49,2.49,0,0,1,1.5-2.28,1.74,1.74,0,0,0,.83-2.47,2.5,2.5,0,0,1-.33-1.41A2.65,2.65,0,0,1,16.77,16H34.86a5.64,5.64,0,0,1,1.86.32l4.86,1.75v16ZM44.58,40V14.5h7.69L55.85,40Z"/></g></svg>