<svg xmlns="http://www.w3.org/2000/svg" viewBox="0 0 64 64"><defs></defs><g id="Icon"><polygon  points="28.91 36.64 36.94 32 28.91 27.36 28.91 36.64"/><path  d="M53,9H11a2,2,0,0,0-2,2V53a2,2,0,0,0,2,2H53a2,2,0,0,0,2-2V11A2,2,0,0,0,53,9ZM46.82,39.45a3.88,3.88,0,0,1-2.74,2.73c-2.41.65-12.08.65-12.08.65s-9.67,0-12.08-.65a3.88,3.88,0,0,1-2.74-2.73A40.67,40.67,0,0,1,16.54,32a40.59,40.59,0,0,1,.64-7.44,3.88,3.88,0,0,1,2.74-2.73c2.41-.65,12.08-.65,12.08-.65s9.67,0,12.08.65a3.88,3.88,0,0,1,2.74,2.73A40.59,40.59,0,0,1,47.46,32,40.67,40.67,0,0,1,46.82,39.45Z"/></g></svg>