<svg id="Store_Monochrome_StoreLocation-bm_32px" xmlns="http://www.w3.org/2000/svg" viewBox="0 0 32 32"><path fill-rule="evenodd" d="M7.66 14.543C7.06 9.749 10.66 5 16.001 5c2.645 0 4.874 1.319 6.386 3.208 1.524 1.905 2.246 4.302 1.958 6.317-.137.955-.711 2.227-1.601 3.669-.874 1.416-1.99 2.9-3.1 4.256a73.812 73.812 0 01-3.668 4.14 57.772 57.772 0 01-3.627-3.902c-1.106-1.31-2.216-2.766-3.086-4.205-.88-1.456-1.462-2.813-1.603-3.94zm9.049 14.164L16 28l-.679.735v-.001l-.002-.001-.005-.006-.02-.018a17.728 17.728 0 01-.36-.342 59.773 59.773 0 01-4.114-4.388c-1.145-1.357-2.326-2.9-3.27-4.462-.932-1.544-1.683-3.187-1.875-4.726C4.94 8.918 9.343 3 16 3c3.355 0 6.126 1.681 7.948 3.959 1.809 2.26 2.754 5.198 2.375 7.85-.197 1.378-.955 2.94-1.878 4.435-.939 1.52-2.115 3.08-3.254 4.473a75.884 75.884 0 01-4.38 4.886l-.076.076-.02.02-.006.006-.001.001zM16 28l.707.707a1 1 0 01-1.385.028L16 28zm-5.796-16.858a.5.5 0 01.462-.309h10.667a.5.5 0 01.353.854l-5.333 5.333a.5.5 0 01-.707 0l-5.334-5.333a.5.5 0 01-.108-.545z"/></svg>