<svg xmlns="http://www.w3.org/2000/svg" viewBox="0 0 24 24"><defs></defs><g id="Calque_5" ><path  d="M15.93,7.75l0,0a.41.41,0,0,0-.11-.12l-3.5-2.25a.48.48,0,0,0-.54,0L8.23,7.58a.57.57,0,0,0-.11.11l0,.06A.55.55,0,0,0,8,8v4.19a.49.49,0,0,0,.22.41l3.5,2.32h0v0a.51.51,0,0,0,.48,0v0h0l3.5-2.32a.49.49,0,0,0,.22-.41V8h0A.55.55,0,0,0,15.93,7.75ZM12,6.34,14.58,8l-.86.55L11.19,6.86ZM10.28,7.45,12.8,9.14l-.8.52L9.42,8ZM9,8.93l2.5,1.65v3L9,11.92Zm3.5,4.64v-3L15,8.93v3Z"/><path  d="M12,2a8,8,0,0,0-8,8c0,4.16,6.54,10.94,7.29,11.7a1,1,0,0,0,1.42,0C13.46,20.94,20,14.16,20,10A8,8,0,0,0,12,2Zm0,17.55c-2.16-2.34-6-7-6-9.55a6,6,0,0,1,12,0C18,12.52,14.16,17.21,12,19.55Z"/></g></svg>