<svg xmlns="http://www.w3.org/2000/svg" viewBox="0 0 48 48"><defs></defs><g id="Icon"><path  d="M24,4A16.49,16.49,0,0,0,7.53,20.51c0,7.34,10.64,18.65,14.82,22.81a2.34,2.34,0,0,0,3.3,0c4.18-4.16,14.82-15.47,14.82-22.81A16.49,16.49,0,0,0,24,4Zm0,36.73c-8.32-8.38-13.47-16.09-13.47-20.22a13.47,13.47,0,1,1,26.94,0C37.47,24.64,32.32,32.35,24,40.73Z"/><path  d="M30.21,18.71l-3.35-3.34L24.8,13.3a1.13,1.13,0,0,0-1.58,0l-2.06,2.07-3.35,3.34-1.45,1.45a1.12,1.12,0,0,0,.79,1.91H30.87a1.12,1.12,0,0,0,.79-1.91Z"/></g></svg>