<svg xmlns="http://www.w3.org/2000/svg" viewBox="0 0 20 20">
  <g clip-path="url(#a)">
    <path fill-rule="evenodd" d="M7.083 5.833a1.667 1.667 0 1 0 0-3.333 1.667 1.667 0 0 0 0 3.333Zm0 11.667a1.667 1.667 0 1 0 0-3.333 1.667 1.667 0 0 0 0 3.333ZM8.75 10a1.667 1.667 0 1 1-3.333 0 1.667 1.667 0 0 1 3.333 0Zm4.167-4.167a1.667 1.667 0 1 0 0-3.333 1.667 1.667 0 0 0 0 3.333Zm1.666 10a1.667 1.667 0 1 1-3.333 0 1.667 1.667 0 0 1 3.333 0Zm-1.666-4.166a1.667 1.667 0 1 0 0-3.334 1.667 1.667 0 0 0 0 3.334Z"/>
  </g>
  <defs>
    <clipPath id="a">
      <rect width="20" height="20" fill="#fff"/>
    </clipPath>
  </defs>
</svg>
