<svg xmlns="http://www.w3.org/2000/svg" viewBox="0 0 24 24">
  <g clip-path="url(#a)">
    <path fill-rule="evenodd" d="M19.207 2.293a1 1 0 0 0-1.414 0l-10 10a1 1 0 0 0-.23.356l-1.5 4a1 1 0 0 0 1.288 1.287l4-1.5a1 1 0 0 0 .356-.229l10-10a1 1 0 0 0 0-1.414l-2.5-2.5ZM9.084 14.29l-.375 1 1-.375-.625-.625Zm1.562.148 7.043-7.043-1.085-1.085-7.043 7.043 1.085 1.085Zm7.75-7.75-1.085-1.085 1.189-1.19L19.586 5.5l-1.19 1.19ZM3 6a1 1 0 0 0-1 1v14a1 1 0 0 0 1 1h14a1 1 0 0 0 1-1v-4a1 1 0 1 0-2 0v3H4V8h3a1 1 0 0 0 0-2H3Z"/>
  </g>
  <defs>
    <clipPath id="a">
      <rect width="24" height="24" fill="#fff"/>
    </clipPath>
  </defs>
</svg>
