<svg xmlns="http://www.w3.org/2000/svg" viewBox="0 0 48 48">
  <path fill-rule="evenodd" d="M25.5 6a1.5 1.5 0 0 0-3 0v8a1.5 1.5 0 0 0 3 0V6Zm-7.44 12.06a1.5 1.5 0 0 1-2.12 0l-6-6a1.5 1.5 0 0 1 2.12-2.12l6 6a1.5 1.5 0 0 1 0 2.12Zm20-8.12a1.5 1.5 0 0 1 0 2.12l-6 6a1.5 1.5 0 0 1-2.12-2.12l6-6a1.5 1.5 0 0 1 2.12 0ZM9.94 38.06a1.5 1.5 0 0 1 0-2.12l6-6a1.5 1.5 0 0 1 2.12 2.12l-6 6a1.5 1.5 0 0 1-2.12 0Zm22.12-8.12a1.5 1.5 0 0 0-2.12 2.12l6 6a1.5 1.5 0 0 0 2.12-2.12l-6-6ZM25.5 34a1.5 1.5 0 0 0-3 0v8a1.5 1.5 0 0 0 3 0v-8Zm7-10a1.5 1.5 0 0 1 1.5-1.5h8a1.5 1.5 0 0 1 0 3h-8a1.5 1.5 0 0 1-1.5-1.5ZM14 25.5a1.5 1.5 0 0 0 0-3H6a1.5 1.5 0 0 0 0 3h8ZM27 24a3 3 0 1 1-6 0 3 3 0 0 1 6 0Z"/>
</svg>
