<svg xmlns="http://www.w3.org/2000/svg" viewBox="0 0 32 32">
  <g clip-path="url(#a)">
    <path fill-rule="evenodd" d="M11.334 9.667H6.932A10.986 10.986 0 0 1 15.927 5c6.075 0 11 4.925 11 11s-4.925 11-11 11c-5.661 0-10.325-4.278-10.933-9.776a1 1 0 1 0-1.988.22C3.725 23.943 9.235 29 15.927 29c7.18 0 13-5.82 13-13s-5.82-13-13-13a12.978 12.978 0 0 0-10.26 5.016V4a1 1 0 1 0-2 0v6.667a1 1 0 0 0 1 1h6.667a1 1 0 1 0 0-2Zm5.666 1a1 1 0 1 0-2 0V16a1 1 0 0 0 .293.707l2.667 2.667a1 1 0 0 0 1.414-1.414L17 15.586v-4.92Z"/>
  </g>
  <defs>
    <clipPath id="a">
      <rect width="32" height="32" fill="#fff"/>
    </clipPath>
  </defs>
</svg>
