<svg xmlns="http://www.w3.org/2000/svg" viewBox="0 0 24 24">
  <path fill-rule="evenodd" d="M7 7a5 5 0 0 1 9.7-1.708c.112.037.228.069.346.095a5.003 5.003 0 0 0 .94.113H18a.5.5 0 0 1 .39.812A5.098 5.098 0 0 1 17 7.528V9A5 5 0 0 1 7 9V7Zm8 .193V7a3 3 0 1 0-6 0v.31c.057-.023.113-.047.168-.075.323-.165.632-.454.885-.959l.268-.535.479.359a5.928 5.928 0 0 0 3.45 1.15c.252 0 .503-.018.75-.057ZM9 8.354c.211-.05.42-.125.623-.229a2.843 2.843 0 0 0 1.034-.913A6.948 6.948 0 0 0 14.25 8.25c.25 0 .5-.015.75-.047V9a3 3 0 1 1-6 0v-.646Zm-6.217 7.17 3.841-.854a.496.496 0 0 1 .022-.024l1-1a.5.5 0 0 1 .578-.093L12 15.44l3.776-1.888a.5.5 0 0 1 .578.093l1 1a.558.558 0 0 1 .022.024l3.84.854A1 1 0 0 1 22 16.5V21a1 1 0 0 1-1 1H3a1 1 0 0 1-1-1v-4.5a1 1 0 0 1 .783-.976ZM4 17.302l3.624-.805 1.996 2.328a.5.5 0 0 0 .77-.013L12 16.8l1.61 2.012a.5.5 0 0 0 .77.013l1.996-2.328 3.624.805V20H4v-2.698Zm10.013.414-1.236-1.545 3.124-1.563.418.418-2.306 2.69ZM8.1 14.608l-.418.418 2.306 2.69 1.236-1.545L8.1 14.608Z"/>
</svg>
