<svg xmlns="http://www.w3.org/2000/svg" viewBox="0 0 32 32">
  <g clip-path="url(#a)">
    <path fill-rule="evenodd" d="M4 3a1 1 0 0 0-1 1v5.333a1 1 0 0 0 1 1h5.333a1 1 0 0 0 1-1V4a1 1 0 0 0-1-1H4Zm9.333 0a1 1 0 0 0-1 1v5.333a1 1 0 0 0 1 1h5.334a1 1 0 0 0 1-1V4a1 1 0 0 0-1-1h-5.334Zm9.334 0a1 1 0 0 0-1 1v5.333a1 1 0 0 0 1 1H28a1 1 0 0 0 1-1V4a1 1 0 0 0-1-1h-5.333ZM4 12.333a1 1 0 0 0-1 1v5.334a1 1 0 0 0 1 1h5.333a1 1 0 0 0 1-1v-5.334a1 1 0 0 0-1-1H4Zm9.333 0a1 1 0 0 0-1 1v5.334a1 1 0 0 0 1 1h5.334a1 1 0 0 0 1-1v-5.334a1 1 0 0 0-1-1h-5.334Zm9.334 0a1 1 0 0 0-1 1v5.334a1 1 0 0 0 1 1H28a1 1 0 0 0 1-1v-5.334a1 1 0 0 0-1-1h-5.333ZM4 21.667a1 1 0 0 0-1 1V28a1 1 0 0 0 1 1h5.333a1 1 0 0 0 1-1v-5.333a1 1 0 0 0-1-1H4Zm9.333 0a1 1 0 0 0-1 1V28a1 1 0 0 0 1 1h5.334a1 1 0 0 0 1-1v-5.333a1 1 0 0 0-1-1h-5.334Zm9.334 0a1 1 0 0 0-1 1V28a1 1 0 0 0 1 1H28a1 1 0 0 0 1-1v-5.333a1 1 0 0 0-1-1h-5.333Z"/>
  </g>
  <defs>
    <clipPath id="a">
      <rect width="32" height="32" fill="#fff"/>
    </clipPath>
  </defs>
</svg>
