<svg xmlns="http://www.w3.org/2000/svg" viewBox="0 0 20 20">
  <path fill-rule="evenodd" d="M2.5 1.75a.75.75 0 0 0-.75.75v3.333c0 .415.336.75.75.75h3.333a.75.75 0 0 0 .75-.75V2.5a.75.75 0 0 0-.75-.75H2.5Zm5.833 0a.75.75 0 0 0-.75.75v3.333c0 .415.336.75.75.75h3.334a.75.75 0 0 0 .75-.75V2.5a.75.75 0 0 0-.75-.75H8.333Zm5.834 0a.75.75 0 0 0-.75.75v3.333c0 .415.335.75.75.75H17.5a.75.75 0 0 0 .75-.75V2.5a.75.75 0 0 0-.75-.75h-3.333ZM2.5 7.583a.75.75 0 0 0-.75.75v3.334c0 .414.336.75.75.75h3.333a.75.75 0 0 0 .75-.75V8.333a.75.75 0 0 0-.75-.75H2.5Zm5.833 0a.75.75 0 0 0-.75.75v3.334c0 .414.336.75.75.75h3.334a.75.75 0 0 0 .75-.75V8.333a.75.75 0 0 0-.75-.75H8.333Zm5.834 0a.75.75 0 0 0-.75.75v3.334c0 .414.335.75.75.75H17.5a.75.75 0 0 0 .75-.75V8.333a.75.75 0 0 0-.75-.75h-3.333ZM2.5 13.417a.75.75 0 0 0-.75.75V17.5c0 .414.336.75.75.75h3.333a.75.75 0 0 0 .75-.75v-3.333a.75.75 0 0 0-.75-.75H2.5Zm5.833 0a.75.75 0 0 0-.75.75V17.5c0 .414.336.75.75.75h3.334a.75.75 0 0 0 .75-.75v-3.333a.75.75 0 0 0-.75-.75H8.333Zm5.834 0a.75.75 0 0 0-.75.75V17.5c0 .414.335.75.75.75H17.5a.75.75 0 0 0 .75-.75v-3.333a.75.75 0 0 0-.75-.75h-3.333Z"/>
</svg>
