<svg xmlns="http://www.w3.org/2000/svg" viewBox="0 0 48 48">
  <g clip-path="url(#a)">
    <path fill-rule="evenodd" d="M4.5 6A1.5 1.5 0 0 1 6 4.5h14A1.5 1.5 0 0 1 21.5 6v14a1.5 1.5 0 0 1-1.5 1.5H6A1.5 1.5 0 0 1 4.5 20V6Zm3 1.5v11h11v-11h-11Zm19-1.5A1.5 1.5 0 0 1 28 4.5h14A1.5 1.5 0 0 1 43.5 6v14a1.5 1.5 0 0 1-1.5 1.5H28a1.5 1.5 0 0 1-1.5-1.5V6Zm3 1.5v11h11v-11h-11ZM4.5 28A1.5 1.5 0 0 1 6 26.5h14a1.5 1.5 0 0 1 1.5 1.5v14a1.5 1.5 0 0 1-1.5 1.5H6A1.5 1.5 0 0 1 4.5 42V28Zm3 1.5v11h11v-11h-11Zm19-1.5a1.5 1.5 0 0 1 1.5-1.5h14a1.5 1.5 0 0 1 1.5 1.5v14a1.5 1.5 0 0 1-1.5 1.5H28a1.5 1.5 0 0 1-1.5-1.5V28Zm3 1.5v11h11v-11h-11Z"/>
  </g>
  <defs>
    <clipPath id="a">
      <rect width="48" height="48" fill="#fff"/>
    </clipPath>
  </defs>
</svg>
