<svg xmlns="http://www.w3.org/2000/svg" viewBox="0 0 20 20">
  <path fill-rule="evenodd" d="M1.75 2.5a.75.75 0 0 1 .75-.75h3.333a.75.75 0 0 1 .75.75v3.333a.75.75 0 0 1-.75.75H2.5a.75.75 0 0 1-.75-.75V2.5Zm1.5.75v1.833h1.833V3.25H3.25Zm4.333-.75a.75.75 0 0 1 .75-.75h3.334a.75.75 0 0 1 .75.75v3.333a.75.75 0 0 1-.75.75H8.333a.75.75 0 0 1-.75-.75V2.5Zm1.5.75v1.833h1.834V3.25H9.083Zm4.334-.75a.75.75 0 0 1 .75-.75H17.5a.75.75 0 0 1 .75.75v3.333a.75.75 0 0 1-.75.75h-3.333a.75.75 0 0 1-.75-.75V2.5Zm1.5.75v1.833h1.833V3.25h-1.833ZM1.75 8.333a.75.75 0 0 1 .75-.75h3.333a.75.75 0 0 1 .75.75v3.334a.75.75 0 0 1-.75.75H2.5a.75.75 0 0 1-.75-.75V8.333Zm1.5.75v1.834h1.833V9.083H3.25Zm4.333-.75a.75.75 0 0 1 .75-.75h3.334a.75.75 0 0 1 .75.75v3.334a.75.75 0 0 1-.75.75H8.333a.75.75 0 0 1-.75-.75V8.333Zm1.5.75v1.834h1.834V9.083H9.083Zm4.334-.75a.75.75 0 0 1 .75-.75H17.5a.75.75 0 0 1 .75.75v3.334a.75.75 0 0 1-.75.75h-3.333a.75.75 0 0 1-.75-.75V8.333Zm1.5.75v1.834h1.833V9.083h-1.833ZM1.75 14.167a.75.75 0 0 1 .75-.75h3.333a.75.75 0 0 1 .75.75V17.5a.75.75 0 0 1-.75.75H2.5a.75.75 0 0 1-.75-.75v-3.333Zm1.5.75v1.833h1.833v-1.833H3.25Zm4.333-.75a.75.75 0 0 1 .75-.75h3.334a.75.75 0 0 1 .75.75V17.5a.75.75 0 0 1-.75.75H8.333a.75.75 0 0 1-.75-.75v-3.333Zm1.5.75v1.833h1.834v-1.833H9.083Zm4.334-.75a.75.75 0 0 1 .75-.75H17.5a.75.75 0 0 1 .75.75V17.5a.75.75 0 0 1-.75.75h-3.333a.75.75 0 0 1-.75-.75v-3.333Zm1.5.75v1.833h1.833v-1.833h-1.833Z"/>
</svg>
