<svg xmlns="http://www.w3.org/2000/svg" viewBox="0 0 20 20">
  <path fill-rule="evenodd" d="M1.75 2.5a.75.75 0 0 1 .75-.75h15a.75.75 0 0 1 .75.75v2.917a.75.75 0 0 1-.75.75h-15a.75.75 0 0 1-.75-.75V2.5Zm1.5.75v1.417h13.5V3.25H3.25Zm-1.5 5.292a.75.75 0 0 1 .75-.75h15a.75.75 0 0 1 .75.75v2.916a.75.75 0 0 1-.75.75h-15a.75.75 0 0 1-.75-.75V8.542Zm1.5.75v1.416h13.5V9.292H3.25Zm-1.5 5.291a.75.75 0 0 1 .75-.75h15a.75.75 0 0 1 .75.75V17.5a.75.75 0 0 1-.75.75h-15a.75.75 0 0 1-.75-.75v-2.917Zm1.5.75v1.417h13.5v-1.417H3.25Z"/>
</svg>
