<svg xmlns="http://www.w3.org/2000/svg" viewBox="0 0 64 64">
  <path fill-rule="evenodd" d="M31 9.522a22.54 22.54 0 0 0-3.436.415 40.176 40.176 0 0 0-4.218 8.474 63.69 63.69 0 0 0 7.654.581v-9.47Zm-6.256 1.174a22.52 22.52 0 0 0-9.329 6.098c1.938.528 3.913.965 5.92 1.307.9-2.592 2.046-5.07 3.409-7.405Zm-10.73 7.783A22.39 22.39 0 0 0 9.522 31h9.49a42.289 42.289 0 0 1 1.706-10.976 64.585 64.585 0 0 1-6.704-1.545ZM9.522 33a22.388 22.388 0 0 0 4.431 12.44 64.559 64.559 0 0 1 6.738-1.558A42.291 42.291 0 0 1 19.01 33H9.52Zm5.822 14.127a22.523 22.523 0 0 0 9.4 6.177 42.125 42.125 0 0 1-3.441-7.498 62.568 62.568 0 0 0-5.96 1.32Zm12.22 6.936a22.53 22.53 0 0 0 3.436.415V44.91a63.5 63.5 0 0 0-7.687.587 40.174 40.174 0 0 0 4.25 8.567Zm5.436.415a22.53 22.53 0 0 0 3.436-.415 40.174 40.174 0 0 0 4.251-8.567A63.5 63.5 0 0 0 33 44.909v9.57Zm6.256-1.174a22.523 22.523 0 0 0 9.4-6.177 62.599 62.599 0 0 0-5.959-1.321 42.132 42.132 0 0 1-3.44 7.498Zm10.79-7.864A22.388 22.388 0 0 0 54.479 33h-9.49a42.291 42.291 0 0 1-1.679 10.882c2.29.402 4.538.923 6.738 1.558ZM54.479 31a22.39 22.39 0 0 0-4.492-12.52 64.585 64.585 0 0 1-6.704 1.544A42.289 42.289 0 0 1 44.988 31h9.49Zm-5.893-14.206a22.52 22.52 0 0 0-9.329-6.098 42.131 42.131 0 0 1 3.41 7.405 62.594 62.594 0 0 0 5.919-1.306Zm-12.15-6.856A22.54 22.54 0 0 0 33 9.522v9.47a63.487 63.487 0 0 0 7.654-.581 40.176 40.176 0 0 0-4.218-8.474ZM32 6.5C17.917 6.5 6.5 17.917 6.5 32S17.917 57.5 32 57.5 57.5 46.083 57.5 32 46.083 6.5 32 6.5Zm1 14.492a65.464 65.464 0 0 0 8.29-.65A40.285 40.285 0 0 1 42.988 31H33V20.992ZM33 33h9.988a40.285 40.285 0 0 1-1.67 10.565A65.452 65.452 0 0 0 33 42.909V33Zm-2 0v9.91a65.32 65.32 0 0 0-8.318.655A40.286 40.286 0 0 1 21.012 33H31Zm0-2h-9.988c.09-3.698.678-7.273 1.698-10.659 2.713.388 5.48.61 8.29.651V31Z"/>
</svg>
