<svg xmlns="http://www.w3.org/2000/svg" viewBox="0 0 20 20">
  <path fill-rule="evenodd" d="M5.817 6.808C6.177 4.946 7.932 3.25 10 3.25c1.713 0 3.21 1.163 3.879 2.62-.67.661-1.442.922-2.212.922-.913 0-1.852-.368-2.617-.942l-.48-.36-.267.536c-.174.347-.377.561-.586.696-.21.135-.45.206-.724.227-.368.029-.769-.035-1.176-.141Zm-.07 1.013c-.016 1.088-.12 1.861-.374 2.431a2.247 2.247 0 0 1-.606.821c.2.217.473.435.792.638.188.12.37.22.527.301.063-.099.139-.194.227-.282l.228-.228.301.113L10 12.8l3.16-1.184.3-.113.228.228c.089.088.164.183.228.282.156-.08.339-.182.526-.301.318-.203.593-.42.792-.638a2.248 2.248 0 0 1-.606-.82c-.277-.625-.377-1.493-.377-2.753 0-.195-.016-.39-.048-.583a4.112 4.112 0 0 1-.82.505 3.417 3.417 0 1 1-6.798.527 5.138 5.138 0 0 1-.836-.128Zm8.358 5.817c-.14.51-.447.996-.877 1.337-.92.73-2.245.742-3.097-.11a2.198 2.198 0 0 1-.133-.145c-.041.05-.086.098-.133.145-.851.852-2.174.837-3.092.11a2.61 2.61 0 0 1-.878-1.337 8.018 8.018 0 0 0-1.116 0 4.421 4.421 0 0 0-1.062.195c-.32.108-.519.243-.627.38-.106.136-.191.358-.226.687a4.41 4.41 0 0 0 .04 1.05c.042.298.102.576.159.8h13.875a7.77 7.77 0 0 0 .16-.8c.05-.361.072-.727.038-1.05-.034-.33-.119-.551-.225-.686-.108-.138-.308-.273-.628-.381a4.422 4.422 0 0 0-1.06-.194 8.018 8.018 0 0 0-1.118 0ZM7.584 7.86v.056a2.417 2.417 0 1 0 4.825-.19 4.223 4.223 0 0 1-.742.066c-.984 0-1.948-.329-2.766-.835a2.381 2.381 0 0 1-1.317.902Zm-3.758 4.396c-.334-.326-.633-.722-.788-1.186l-.205-.617.582-.29c.356-.179.483-.286.587-.52.14-.313.248-.903.248-2.143 0-2.889 2.55-5.75 5.75-5.75s5.75 2.861 5.75 5.75c0 1.24.109 1.83.248 2.143.104.234.231.341.587.52l.582.29-.206.617c-.154.464-.453.86-.787 1.186.198.04.396.09.59.156.47.159.97.422 1.326.874.346.44.488.975.538 1.457.051.489.016.988-.046 1.42a9.398 9.398 0 0 1-.36 1.544l-.01.027-.002.008v.003l-.001.001-.709-.246.709.247a.75.75 0 0 1-.709.503h-15a.75.75 0 0 1-.708-.503L2.5 17.5l-.708.246v-.001l-.001-.003-.003-.008-.01-.027a8.944 8.944 0 0 1-.13-.435 9.413 9.413 0 0 1-.23-1.11 5.89 5.89 0 0 1-.046-1.418c.05-.483.192-1.017.539-1.458.355-.452.856-.715 1.327-.874.192-.065.39-.116.588-.156Zm3.035.434c-.057.156-.07.348-.03.564.067.354.273.708.563.937.57.451 1.314.417 1.764-.033a1.15 1.15 0 0 0 .295-.496l-2.592-.972Zm3.977 1.468a1.16 1.16 0 0 1-.294-.496l2.595-.972c.057.156.071.347.03.564a1.613 1.613 0 0 1-.563.938c-.57.451-1.317.417-1.768-.034Z"/>
</svg>
