<svg xmlns="http://www.w3.org/2000/svg" viewBox="0 0 48 48"><path fill-rule="evenodd" d="M10.629 9.012a1.5 1.5 0 00-2.258 0l-3.5 4A1.5 1.5 0 004.5 14v24A1.5 1.5 0 006 39.5h7a1.5 1.5 0 001.5-1.5v-5H19v5a1.5 1.5 0 001.5 1.5h7A1.5 1.5 0 0029 38v-5h4.5v5a1.5 1.5 0 001.5 1.5h7a1.5 1.5 0 001.5-1.5V14a1.5 1.5 0 00-.371-.988l-3.5-4a1.5 1.5 0 00-2.258 0l-3.5 4A1.5 1.5 0 0033.5 14v5H29v-5a1.5 1.5 0 00-.371-.988l-3.5-4a1.5 1.5 0 00-2.258 0l-3.5 4A1.5 1.5 0 0019 14v5h-4.5v-5a1.5 1.5 0 00-.371-.988l-3.5-4zM14.5 21v4H19v-4h-4.5zm4.5 6h-4.5v4H19v-4zm10-6v4h4.5v-4H29zm4.5 6H29v4h4.5v-4zm-26 9.5V14.564l2-2.286 2 2.286V36.5h-4zm14.5 0V14.564l2-2.286 2 2.286V36.5h-4zm14.5-21.936V36.5h4V14.564l-2-2.286-2 2.286z"/></svg>