<svg xmlns="http://www.w3.org/2000/svg" viewBox="0 0 64 64"><defs></defs><g id="Icon"><path  d="M42.5,11c-.49,0-1,0-1.5.08A13,13,0,0,0,17,18c0,.18,0,.36,0,.54A11.5,11.5,0,1,0,28.5,37.74V57.5a1.5,1.5,0,0,0,3,0V45.62l4.89-4.89A15.49,15.49,0,1,0,42.5,11Zm-11,30.38v-4a16.26,16.26,0,0,0,2.16,1.82ZM42.5,39a12.62,12.62,0,0,1-3.79-.59l3.85-3.85a1.5,1.5,0,0,0-2.12-2.12l-4.62,4.62a12.39,12.39,0,0,1-4.32-4.67V21.5a1.5,1.5,0,0,0-3,0V32.33a8.49,8.49,0,1,1-9.58-11.18l1.41-.26-.21-1.43A10.2,10.2,0,0,1,20,18a10,10,0,0,1,18.87-4.6l.5,1,1.08-.18a12.74,12.74,0,0,1,2-.18,12.5,12.5,0,0,1,0,25Z"/></g></svg>