<svg id="Universe_Hard-hat-alt_32px" xmlns="http://www.w3.org/2000/svg" viewBox="0 0 32 32"><path fill-rule="evenodd" d="M11 2.667a1 1 0 011-1h8a1 1 0 011 1v1.538c3.154 1.634 5.333 4.79 5.333 8.462v1.248c.5-.073 1.002-.151 1.502-.235a1 1 0 01.33 1.973 73.499 73.499 0 01-24.33 0 1 1 0 11.33-1.973c.5.084 1 .162 1.501.235v-1.248c0-3.673 2.18-6.828 5.334-8.463V2.667zm13.333 10v1.51a71.253 71.253 0 01-16.667 0v-1.51c0-2.486 1.292-4.724 3.334-6.135V8a1 1 0 102 0V3.667h6V8a1 1 0 102 0V6.533c2.041 1.41 3.333 3.648 3.333 6.133zm-14.165-.043a.5.5 0 01.54-.456c1.505.128 3.269.214 5.292.214 2.023 0 3.786-.086 5.29-.214a.5.5 0 11.085.997c-1.532.13-3.324.217-5.375.217a63.66 63.66 0 01-5.376-.217.5.5 0 01-.456-.54zM10.667 21a3 3 0 000 6c.857 0 1.34-.177 1.642-.367.308-.194.523-.462.758-.834.04-.062.083-.136.132-.217.193-.321.457-.762.776-1.09.486-.502 1.133-.826 2.025-.826.892 0 1.54.324 2.025.826.318.328.583.769.776 1.09.049.081.093.155.132.217.235.372.45.64.758.834.301.19.785.367 1.642.367a3 3 0 002.446-4.738L21.02 25.02a.5.5 0 01-.707-.707l2.759-2.758a2.989 2.989 0 00-.836-.417l-1.883 1.882a.5.5 0 01-.707-.707L20.96 21H10.667zm-5.334 4.666h.618A5.002 5.002 0 0010.667 29c1.143 0 2.018-.24 2.708-.675.684-.43 1.091-.996 1.383-1.458.099-.157.179-.289.248-.403.16-.266.26-.431.405-.581.12-.123.253-.216.589-.216.336 0 .47.093.589.216.144.15.245.315.405.581.07.114.149.246.248.403.292.462.7 1.027 1.383 1.458.69.435 1.565.675 2.708.675a5.002 5.002 0 004.716-3.334h.618a1 1 0 001-1v-2a1 1 0 00-1-1h-.91A5 5 0 0021.333 19H10.667a5 5 0 00-4.424 2.666h-.91a1 1 0 00-1 1v2a1 1 0 001 1z"/></svg>