<svg xmlns="http://www.w3.org/2000/svg" viewBox="0 0 32 32"><defs></defs><g id="Icon"><path  d="M29,22V17a2,2,0,0,0-2-2,7,7,0,0,0-3.59,1H16.5V11H28a1,1,0,0,0,.45-1.89L16.89,3.33a2,2,0,0,0-1.78,0L3.55,9.11A1,1,0,0,0,4,11H15.5v5H8.59A7,7,0,0,0,5,15a2,2,0,0,0-2,2v5a2,2,0,0,0,1.33,1.88l-.82,4.53a.5.5,0,0,0,.4.58H4a.49.49,0,0,0,.49-.41L5.33,24H8.67l.84,4.59A.49.49,0,0,0,10,29h.09a.5.5,0,0,0,.4-.58L9.69,24H10a2,2,0,0,0,2-2,6.63,6.63,0,0,0-.08-1h2v1.54h1.16v3.69A2.46,2.46,0,0,1,13.9,28.1a.49.49,0,0,0,.29.9h3.62a.49.49,0,0,0,.29-.9,2.46,2.46,0,0,1-1.18-1.87V22.54h1.16V21h2A6.63,6.63,0,0,0,20,22a2,2,0,0,0,2,2h.31l-.8,4.41a.5.5,0,0,0,.4.58H22a.49.49,0,0,0,.49-.41L23.33,24h3.34l.84,4.59A.49.49,0,0,0,28,29h.09a.5.5,0,0,0,.4-.58l-.82-4.53A2,2,0,0,0,29,22ZM16,5.12,23.76,9H8.24ZM5,22V17a5,5,0,0,1,5,5Zm6.32-3a7,7,0,0,0-.58-1H21.26a7,7,0,0,0-.58,1ZM27,17v5H22A5,5,0,0,1,27,17Z"/></g></svg>