<svg xmlns="http://www.w3.org/2000/svg" viewBox="0 0 64 64"><defs></defs><g id="Icon"><path  d="M47.12,26.6l0-6.27a15.11,15.11,0,1,0-30.22,0l0,6.28H15a2,2,0,0,0-2,2V57.1a2,2,0,0,0,2,2H49a2,2,0,0,0,2-2V28.6a2,2,0,0,0-2-2ZM48,56.1H16V29.6h3.85l0-9.27a12.11,12.11,0,1,1,24.22,0l0,9.27H48Z"/><path  d="M32,11.1a9.07,9.07,0,0,0-9,9.14V29.6H41V20.24A9.07,9.07,0,0,0,32,11.1Zm6,15.5H26V20.24a6,6,0,1,1,12,0Z"/><path  d="M32,32.1a7,7,0,0,0-7,7,6.91,6.91,0,0,0,1.57,4.41l-1.48,5.85A3,3,0,0,0,28,53.1h8a3,3,0,0,0,2.36-1.16,3,3,0,0,0,.55-2.58l-1.49-5.85A6.92,6.92,0,0,0,39,39.1,7,7,0,0,0,32,32.1Zm4,18H28l1.92-7.6a4,4,0,1,1,4.15,0Z"/></g></svg>