<svg id="Universe_Heater_24px" xmlns="http://www.w3.org/2000/svg" viewBox="0 0 24 24"><path d="M11.63 6.17a.48.48 0 000 .7A.46.46 0 0012 7a.5.5 0 00.37-.17 2 2 0 000-2.66 1 1 0 010-1.34.48.48 0 000-.7.49.49 0 00-.7 0 2 2 0 000 2.66 1 1 0 01-.04 1.38zM8.61 7.19a.5.5 0 00.08.7A.51.51 0 009 8a.48.48 0 00.39-.19 1.74 1.74 0 000-2.12.75.75 0 010-.88.5.5 0 10-.78-.62 1.74 1.74 0 000 2.12.75.75 0 010 .88zM14.61 7.19a.5.5 0 00.08.7A.51.51 0 0015 8a.48.48 0 00.39-.19 1.74 1.74 0 000-2.12.75.75 0 010-.88.5.5 0 10-.78-.62 1.74 1.74 0 000 2.12.75.75 0 010 .88zM14.91 11.41a7.47 7.47 0 01-2-2.73 1 1 0 00-1.9 0 7.47 7.47 0 01-2 2.73C7.88 12.67 6.5 14.09 6.5 16.5a5.5 5.5 0 0011 0c0-2.41-1.38-3.83-2.59-5.09zM12 20a3.5 3.5 0 01-3.5-3.5c0-1.6.94-2.57 2-3.7a15.36 15.36 0 001.5-1.68 15.36 15.36 0 001.47 1.68c1.09 1.13 2 2.1 2 3.7A3.5 3.5 0 0112 20z"/></svg>