<svg id="Universe_Living_32px" xmlns="http://www.w3.org/2000/svg" viewBox="0 0 32 32"><path d="M26.59 11a11 11 0 00-21.17 0A2.5 2.5 0 003 13.5l1.69 10.25A1.51 1.51 0 006.17 25h.21l-1.27 2.55a1 1 0 00.44 1.34A.93.93 0 006 29a1 1 0 00.89-.55L8.62 25h14.76l1.73 3.45A1 1 0 0026 29a.93.93 0 00.45-.11 1 1 0 00.44-1.34L25.61 25a1.5 1.5 0 001.45-1.24l1.68-10.09v-.17a2.5 2.5 0 00-2.15-2.5zM16 5a9 9 0 018.67 6.58 2.48 2.48 0 00-.92 1.83l-.38 2.26A39.34 39.34 0 0016 15a39.07 39.07 0 00-7.62.72L8 13.41a2.52 2.52 0 00-.71-1.65A9 9 0 0116 5zm7.05 12.64l-.4 2.36H9.1l-.39-2.32A37.41 37.41 0 0116 17a37.53 37.53 0 017.05.64zm2.1 5.36H6.6L5 13.44a.5.5 0 011 .06L7.4 22h17l1.39-8.34v-.16a.5.5 0 011-.06z"/></svg>