<svg id="Universe_Garden_24px" xmlns="http://www.w3.org/2000/svg" viewBox="0 0 24 24"><path fill-rule="evenodd" d="M5.503 4.341a1 1 0 00-1.506 0l-1.75 2A1 1 0 002 7v12a1 1 0 001 1h3.5a1 1 0 001-1v-1.5h1.75V19a1 1 0 001 1h3.5a1 1 0 001-1v-1.5h1.75V19a1 1 0 001 1H21a1 1 0 001-1V7a1 1 0 00-.247-.659l-1.75-2a1 1 0 00-1.506 0l-1.75 2A1 1 0 0016.5 7v2.5h-1.75V7a1 1 0 00-.247-.659l-1.75-2a1 1 0 00-1.506 0l-1.75 2A1 1 0 009.25 7v2.5H7.5V7a1 1 0 00-.247-.659l-1.75-2zM7.5 10.5v1h1.75v-1H7.5zm1.75 2H7.5v2h1.75v-2zm0 3H7.5v1h1.75v-1zm5.5-5v1h1.75v-1h-1.75zm1.75 2h-1.75v2h1.75v-2zm0 3h-1.75v1h1.75v-1zM4 18V7.376l.75-.857.75.857V18H4zm7.25 0V7.376l.75-.857.75.857V18h-1.5zM18.5 7.376V18H20V7.376l-.75-.857-.75.857z"/></svg>