<svg id="Universe_Insulation-alt_24px" xmlns="http://www.w3.org/2000/svg" viewBox="0 0 24 24"><g clip-path="url(#a)"><path fill-rule="evenodd" d="M8 4a4 4 0 00-4 4v3.528A5.978 5.978 0 018 10c1.537 0 2.938.578 4 1.528V8a4 4 0 00-4-4zM2 8v8a6 6 0 006 6h13a1 1 0 001-1V10a1 1 0 00-1-1h-7V8A6 6 0 002 8zm12 5.5v-1.793l.354-.353A.499.499 0 0014.5 11h1.793l-.647.646a.5.5 0 00.708.708l1-1A.499.499 0 0017.5 11h1.793l-.647.646a.5.5 0 00.708.708l.646-.647V13.5a.499.499 0 00-.354.146l-1 1a.5.5 0 00.708.708l.646-.647V16.5a.499.499 0 00-.354.146l-1 1a.5.5 0 00.708.708l.646-.647V19.5a.499.499 0 00-.354.146l-.353.354H17.5a.499.499 0 00-.854-.354l-.353.354H14.5a.499.499 0 00-.854-.354l-.353.354h-.82a5.998 5.998 0 001.158-1.924l.723-.722a.5.5 0 00-.375-.854A5.9 5.9 0 0014 16v-1.293l.354-.353A.5.5 0 0014 13.5zM8 20a4 4 0 100-8 4 4 0 000 8zm-1-4a1 1 0 112 0 1 1 0 01-2 0zm1-3a3 3 0 100 6 3 3 0 000-6zm9.354 1.354a.5.5 0 00-.708-.708l-1 1a.5.5 0 00.708.708l1-1zm-1 4l1-1a.5.5 0 00-.708-.708l-1 1a.5.5 0 00.708.708z"/></g><defs><clipPath id="a"><path d="M0 0h24v24H0z"/></clipPath></defs></svg>