<svg id="Universe_ConnectedHome_64px" xmlns="http://www.w3.org/2000/svg" viewBox="0 0 64 64"><path d="M32 32.5a15.5 15.5 0 00-10.24 3.86 1.5 1.5 0 002 2.25 12.5 12.5 0 0116.5 0 1.52 1.52 0 001 .38 1.47 1.47 0 001.12-.51 1.5 1.5 0 00-.13-2.12A15.5 15.5 0 0032 32.5z"/><path d="M32 38.5a9.46 9.46 0 00-6.72 2.78 1.51 1.51 0 000 2.12 1.48 1.48 0 001.06.44 1.45 1.45 0 001.06-.44 6.52 6.52 0 018.88-.3 1.5 1.5 0 102-2.25A9.46 9.46 0 0032 38.5z"/><circle cx="32" cy="47" r="2"/><path d="M17.78 31.87a1.5 1.5 0 002 2.25 18.52 18.52 0 0124.48 0 1.45 1.45 0 001 .38 1.47 1.47 0 001.09-.5 1.5 1.5 0 00-.13-2.12 21.51 21.51 0 00-28.44 0z"/><path d="M58.46 26.85L33.28 5.77a2 2 0 00-2.56 0L5.54 26.85a1.5 1.5 0 101.92 2.3L9 27.86V57a2 2 0 002 2h42a2 2 0 002-2V27.86l1.54 1.29a1.46 1.46 0 001 .35 1.5 1.5 0 001-2.65zM52 56H12V25.35L32 8.61l20 16.74z"/></svg>