<svg id="Universe_Attic_48px" xmlns="http://www.w3.org/2000/svg" viewBox="0 0 48 48"><path d="M43.07 11.61a1.5 1.5 0 00-1.63.33l-29.5 29.5a1.5 1.5 0 00-.33 1.63A1.51 1.51 0 0013 44h29.5a1.5 1.5 0 001.5-1.5V13a1.51 1.51 0 00-.93-1.39zM41 33.13a5.08 5.08 0 00-2.16 0 6.45 6.45 0 00-.68-.88 7 7 0 00-12.1 3.85A5.38 5.38 0 0025 36h-.42a5 5 0 00-1.24-1.75L41 16.62zM16.62 41l5.29-5.29a3.35 3.35 0 01.74.89 5 5 0 00-2.26 2.45 1 1 0 00.53 1.31.91.91 0 00.39.08 1 1 0 00.93-.61 3 3 0 011.88-1.7A2.82 2.82 0 0125 38a3 3 0 011.52.41h.07l.2.07h.4a.76.76 0 00.2-.06l.16-.07.15-.12.13-.15.06-.06a.45.45 0 000-.11 1 1 0 00.07-.18 1.49 1.49 0 000-.21v-.1-.46a5 5 0 0110 0 1 1 0 002 0 7.27 7.27 0 00-.28-2 3.1 3.1 0 011.28.16V41zM43.56 4.44a1.49 1.49 0 00-2.12 0L36.88 9H33a1 1 0 000 2h1.88l-5.5 5.5H25.5a1 1 0 000 2h1.88l-4.5 4.5H18.5a1 1 0 000 2h2.38l-5 5H11.5a1 1 0 000 2h2.38l-5 5H5a1 1 0 000 2h1.88l-2.44 2.44a1.49 1.49 0 000 2.12 1.5 1.5 0 002.12 0l37-37a1.49 1.49 0 000-2.12z"/><circle cx="32" cy="35.5" r=".5"/><circle cx="35" cy="37.5" r="1"/><circle cx="30.5" cy="38.5" r=".5"/></svg>