<svg xmlns="http://www.w3.org/2000/svg" viewBox="0 0 64 64"><defs></defs><g id="Icon"><path  d="M58.07,13.11a1.5,1.5,0,0,0-1.63.33l-43,43a1.5,1.5,0,0,0-.33,1.63A1.51,1.51,0,0,0,14.5,59h43A1.5,1.5,0,0,0,59,57.5v-43A1.51,1.51,0,0,0,58.07,13.11ZM56,46.15a8.14,8.14,0,0,0-4.15.29,10.76,10.76,0,0,0-5.19-4.6h0a11,11,0,0,0-2.6-.72l-.26,0A11.05,11.05,0,0,0,42.5,41a10.82,10.82,0,0,0-10.41,8.09A6.19,6.19,0,0,0,31,49h-.15a6.51,6.51,0,0,0-.88.06h0a8.26,8.26,0,0,0-.86.2l-.24.07c-.21.07-.41.15-.62.24l-.21.09a7.53,7.53,0,0,0-.73.41l-.22.16-.3.21a8.2,8.2,0,0,0-1.32-1.83L56,18.12ZM18.12,56l6-6a6.4,6.4,0,0,1,1.25,2.06,6,6,0,0,0-.54,1,1,1,0,0,0,.52,1.31.91.91,0,0,0,.39.08,1,1,0,0,0,.92-.6,4.9,4.9,0,0,1,.64-1.06,4.4,4.4,0,0,1,.46-.5l0,0a4.71,4.71,0,0,1,4.78-1,1,1,0,0,0,.85-.09,1,1,0,0,0,.47-.71A8.79,8.79,0,0,1,42.5,43a8.92,8.92,0,0,1,1.16.08l.18,0a8.92,8.92,0,0,1,1.14.25h0a8.76,8.76,0,0,1,5.47,4.76l0,0a9.21,9.21,0,0,1,.63,2,1,1,0,0,0,1,.82h.18a1,1,0,0,0,.81-1.16,11.25,11.25,0,0,0-.41-1.54,6.18,6.18,0,0,1,3.33-.1V56Z"/><path  d="M58.56,7.56a1.5,1.5,0,0,0-2.12-2.12L50.38,11.5H44.5a1.5,1.5,0,0,0,0,3h2.88L40.88,21H35a1.5,1.5,0,0,0,0,3h2.88l-6.5,6.5H25.5a1.5,1.5,0,0,0,0,3h2.88L21.88,40H16a1.5,1.5,0,0,0,0,3h2.88l-6.5,6.5H6.5a1.5,1.5,0,0,0,0,3H9.38L5.44,56.44a1.49,1.49,0,0,0,0,2.12,1.5,1.5,0,0,0,2.12,0Z"/><circle  cx="45.5" cy="51.5" r="1.5"/><circle  cx="41" cy="48" r="1"/><circle  cx="38" cy="53" r="1"/></g></svg>