<svg xmlns="http://www.w3.org/2000/svg" viewBox="0 0 32 32"><path fill-rule="evenodd" d="M3.1 11.704a1 1 0 01-.33-1.032l1.38-5.151a1 1 0 01.88-.738l8.573-.747c4.081-.356 7.275 3.452 6.215 7.408l-.432 1.61-.431 1.61a5.531 5.531 0 01-.757 1.669h2.135v-7a1 1 0 011-1h3.334a1 1 0 01.894.553l3.333 6.667A1 1 0 0129 16v6.667a1 1 0 01-1 1h-2.471a3.668 3.668 0 01-7.058 0h-3.609a3.668 3.668 0 01-7.057 0H5.333a1 1 0 01-1-1v-5.334a1 1 0 011-1h3.395l-5.627-4.63zm8.43 6.63H6.333v3.333h1.472a3.668 3.668 0 017.057 0h3.61a3.676 3.676 0 011.861-2.267v-1.067H15.73a5.5 5.5 0 01-4.2 0zm5.493-4.188l.431-1.61.432-1.61c.086-.32.13-.641.135-.955l-5.317 6.654c1.79.492 3.793-.515 4.32-2.479zm-5.263 2.058l6.046-7.566a3.936 3.936 0 00-2.223-2.342l-6.31 7.896 2.134 1.755c.114.095.232.18.353.257zM8.5 13.556l-2.043-1.68 4.047-5.562 3.273-.286a3.97 3.97 0 01.737.004L8.5 13.556zm-3.632-2.988l.816.671 3.5-4.81-3.283.286-1.033 3.853zM27 21.667h-1.471a3.67 3.67 0 00-3.196-2.652V17H27v4.667zm-5 2.666A1.667 1.667 0 1122 21a1.667 1.667 0 010 3.333zM22.333 15h4.049l-2.333-4.667h-1.716V15zM13 22.667a1.667 1.667 0 10-3.333 0 1.667 1.667 0 003.333 0z"/></svg>