<svg id="Universe_Ventilation_24px" xmlns="http://www.w3.org/2000/svg" viewBox="0 0 24 24"><path fill-rule="evenodd" d="M13.086 4.074A8 8 0 005.29 7.643a1 1 0 11-1.678-1.09 10 10 0 019.744-4.46 1 1 0 11-.271 1.981zM4.1 16.426a1 1 0 011.395.231 8 8 0 005.947 3.323 1 1 0 01-.14 1.996A9.998 9.998 0 013.87 17.82a1 1 0 01.231-1.395zm17.603-6.845a1 1 0 00-1.94.484 8 8 0 01-.346 4.932 1 1 0 001.855.75 10 10 0 00.431-6.166zM12 11a1 1 0 11-.964 1.268l-.002-.009-.002-.007A1 1 0 0112 11zm-.513 3.956a3.001 3.001 0 01-1.96-1.257l-5.962 1.597-.965.259-.26-.966a4.5 4.5 0 017.357-4.511 2.994 2.994 0 012.851-1.028l3.086-5.345.5-.866.866.5a4.5 4.5 0 01-2.012 8.391 2.987 2.987 0 01-.28 1.563l4.363 4.364.707.707-.707.707a4.5 4.5 0 01-7.584-4.115zm2.075.02l3.241 3.241a2.5 2.5 0 01-3.241-3.241zM4.215 13.05l4.427-1.186a2.5 2.5 0 00-4.427 1.187zM14.47 9.72l2.292-3.97a2.5 2.5 0 01-2.292 3.97z"/></svg>