<svg id="Universe_Renewable-energy_32px" xmlns="http://www.w3.org/2000/svg" viewBox="0 0 32 32"><path fill-rule="evenodd" d="M11.667 2.667a4.333 4.333 0 108.666 0h2a6.333 6.333 0 11-12.666 0h2zM5.697 17.09a1 1 0 01.97-.758h18.666a1 1 0 01.97.758l2.667 10.666A1 1 0 0128 29H4a1 1 0 01-.97-1.242L5.697 17.09zm1.75 1.242l-.958 3.834h4.403l.48-3.834H7.446zM5.281 27l.958-3.833h4.528L10.287 27H5.282zm6.015 0l.479-3.833H15.5V27h-4.204zm5.204 0v-3.833h3.725l.48 3.833H16.5zm0-4.833h3.6l-.479-3.834H16.5v3.834zM21.712 27l-.479-3.833h4.528L26.719 27h-5.007zm-.604-4.833h4.403l-.958-3.834h-3.924l.48 3.834zm-9.208 0h3.6v-3.834h-3.121l-.48 3.834zm4.6-10.834a.5.5 0 10-1 0v2a.5.5 0 001 0v-2zm-11.667-8a.5.5 0 01.5-.5h2a.5.5 0 010 1h-2a.5.5 0 01-.5-.5zm19.834-.5a.5.5 0 100 1h2a.5.5 0 000-1h-2zm-16.354 7.52a.5.5 0 010-.707l1.205-1.205a.5.5 0 11.707.707L9.02 10.354a.5.5 0 01-.707 0zm14.169-1.912a.5.5 0 10-.707.707l1.205 1.206a.5.5 0 00.707-.708l-1.205-1.205z"/></svg>