<svg xmlns="http://www.w3.org/2000/svg" viewBox="0 0 32 32"><defs></defs><g id="Icon"><path  d="M23,15V5a2,2,0,0,0-2-2H11A2,2,0,0,0,9,5V15H5a2,2,0,0,0-2,2V27a2,2,0,0,0,2,2H27a2,2,0,0,0,2-2V17a2,2,0,0,0-2-2ZM11,5H21V15H11Zm4,22H5V17H15Zm12,0H17V17H27Z"/><path  d="M17.41,11.44l.64,1.28a.5.5,0,0,0,.45.28.54.54,0,0,0,.22-.05.51.51,0,0,0,.23-.67l-2.5-5a.52.52,0,0,0-.9,0l-2.5,5a.5.5,0,0,0,.9.44l.64-1.28ZM16,8.62l.91,1.82H15.09Z"/><path  d="M19.5,22a3,3,0,0,0,3,3,2.94,2.94,0,0,0,2.05-.82.49.49,0,0,0,0-.7.49.49,0,0,0-.71,0,2,2,0,1,1,0-2.92.49.49,0,0,0,.71,0,.49.49,0,0,0,0-.7A2.94,2.94,0,0,0,22.5,19,3,3,0,0,0,19.5,22Z"/><path  d="M7.91,19.5v5a.5.5,0,0,0,.5.5h1.82a1.86,1.86,0,0,0,1.08-3.38,1.7,1.7,0,0,0,.33-1A1.64,1.64,0,0,0,10,19H8.41A.5.5,0,0,0,7.91,19.5Zm1,.5H10a.64.64,0,0,1,.64.64.64.64,0,0,1-.64.63H8.91Zm0,2.27h1.32a.87.87,0,0,1,0,1.73H8.91Z"/></g></svg>