<svg id="Universe_ConnectedHome_48px" xmlns="http://www.w3.org/2000/svg" viewBox="0 0 48 48"><path d="M14 25a1 1 0 00-.09 1.41 1 1 0 001.41.09 13.17 13.17 0 0117.42 0 1 1 0 00.66.25 1 1 0 00.75-.34A1 1 0 0034 25a15.17 15.17 0 00-20 0z"/><path d="M24 25.42a10.86 10.86 0 00-7.21 2.72 1 1 0 001.32 1.5 8.92 8.92 0 0111.78 0 1 1 0 00.66.25 1 1 0 00.66-1.75A10.86 10.86 0 0024 25.42z"/><path d="M24 29.67a6.59 6.59 0 00-4.71 1.95 1 1 0 000 1.41 1 1 0 00.7.3 1 1 0 00.71-.3 4.63 4.63 0 013.3-1.36 4.68 4.68 0 013.07 1.15 1 1 0 001.41-.09 1 1 0 00-.09-1.42A6.67 6.67 0 0024 29.67z"/><circle cx="24" cy="35.5" r="1.5"/><path d="M43.56 22.94l-18.5-18.5a1.49 1.49 0 00-2.12 0l-18.5 18.5a1.5 1.5 0 002.12 2.12l.44-.44V42.5A1.5 1.5 0 008.5 44h31a1.5 1.5 0 001.5-1.5V24.62l.44.44a1.5 1.5 0 002.12 0 1.49 1.49 0 000-2.12zM38 41H10V21.62l14-14 14 14z"/></svg>