<svg xmlns="http://www.w3.org/2000/svg" viewBox="0 0 64 64" aria-hidden="true"><path d="M51.21 26.58a.58.58 0 01.59-.58.57.57 0 01.58.58.58.58 0 01-.58.6.59.59 0 01-.59-.6zm.15 2.8h.84v8.42h-.84zM55.48 35.63v-5.48h-1.55v-.77h1.55v-2.52l.84-.15v2.67h2.23v.77h-2.23v5.33c0 1.2.4 1.71 1.29 1.71a2.57 2.57 0 001.24-.36l.15.78a3.33 3.33 0 01-1.48.39c-1.31 0-2.04-.77-2.04-2.37z"/><polygon points="10.33 33.16 6.66 26.29 5 26.29 5 37.79 6.55 37.79 6.55 29.07 9.69 35.09 10.98 35.09 14.14 29.07 14.14 37.79 15.69 37.79 15.69 26.29 14.01 26.29 10.33 33.16"/><polygon points="36.23 26.29 34.35 26.29 29.99 31.57 29.99 26.29 28.44 26.29 28.44 37.79 29.99 37.79 29.99 33.97 31.05 32.66 34.86 37.79 36.8 37.79 32.07 31.41 36.23 26.29"/><polygon points="40.06 36.42 40.06 32.7 44.47 32.7 44.47 31.34 40.06 31.34 40.06 27.67 45.12 27.67 45.12 26.29 38.51 26.29 38.51 37.79 45.56 37.79 45.56 36.42 40.06 36.42"/><polygon points="26.7 29.56 24.54 30.92 23.05 26.29 21.09 26.29 17.36 37.79 18.94 37.79 22.01 27.95 23.21 31.75 20.68 33.34 21.49 34.67 23.7 33.29 25.12 37.79 26.76 37.79 25.04 32.44 27.51 30.89 26.7 29.56"/></svg>
