<svg id="Universe_WoodSaw_48px" xmlns="http://www.w3.org/2000/svg" viewBox="0 0 48 48"><path fill-rule="evenodd" d="M6.055 32.54a1.5 1.5 0 000 2.12l8.485 8.486a1.5 1.5 0 002.121 0l4.657-4.657a1.5 1.5 0 002.102-.99l1.2-4.8 3.89-1.038a1.5 1.5 0 001.112-1.414l.092-3.929 2.887-.89a1.5 1.5 0 001.057-1.49l-.157-4.066 3-.625a1.5 1.5 0 001.194-1.497l-.068-3.62 3.127-1.162a1.5 1.5 0 00.538-2.467l-5.539-5.539a1.5 1.5 0 00-2.121 0L11.713 26.881l-.001.002-5.657 5.656zm6.717-2.475l6.364 6.363-3.535 3.536L9.237 33.6l3.535-3.535zm9.152 1.05l-.772 3.087-3.076-3.077 7.424-7.424a1 1 0 10-1.414-1.415l-7.425 7.425-1.767-1.768L34.693 8.144l2.825 2.826-1.933.718a1.5 1.5 0 00-.978 1.434l.065 3.442-3.025.63a1.5 1.5 0 00-1.193 1.526l.161 4.181-2.817.869a1.5 1.5 0 00-1.057 1.398l-.092 3.885-3.657.977a1.5 1.5 0 00-1.068 1.085zm-8.091 2.131a1 1 0 00-1.414 1.415l2.121 2.121a1 1 0 001.414-1.414l-2.121-2.122z"/></svg>