<svg id="Universe_Kitchen-alt_32px" xmlns="http://www.w3.org/2000/svg" viewBox="0 0 32 32"><g clip-path="url(#a)"><path fill-rule="evenodd" d="M8.333 3a1 1 0 00-1 1v6.167H6a.5.5 0 100 1h10a.5.5 0 000-1h-1.333V4a1 1 0 00-1-1H8.333zm4.334 7.167V5H9.333v5.167h3.334zM19 6.667a1 1 0 011-1h8a1 1 0 011 1V28a1 1 0 01-1 1H4a1 1 0 01-1-1v-9.333a1 1 0 011-1h1.667v-.334a1 1 0 011-1h8.666a1 1 0 011 1v.334H19v-11zm0 13V27h-6.5v-7.333H19zm-7.5 0V27H5v-7.333h6.5zM27 27h-6V13.833h6V27zm0-14.167h-6V7.667h6v5.166z"/></g><defs><clipPath id="a"><path d="M0 0h32v32H0z"/></clipPath></defs></svg>