<svg xmlns="http://www.w3.org/2000/svg" viewBox="0 0 48 48"><defs></defs><g id="Icon"><path  d="M31.11,8.5A10.5,10.5,0,0,0,12,14.41a8.24,8.24,0,1,0,8.5,14.08v14a1.5,1.5,0,0,0,3,0V35.57L27.57,31A11.29,11.29,0,0,0,31,31.5a11.5,11.5,0,0,0,.11-23ZM23.5,31V28.67a10.29,10.29,0,0,0,1.25.95ZM31,28.5a7.85,7.85,0,0,1-1.19-.09l.81-.92a1.49,1.49,0,1,0-2.24-2l-1.62,1.82a8.51,8.51,0,0,1-3.26-3.39V18a1.5,1.5,0,0,0-3,0v6A5.24,5.24,0,1,1,14,16.79l1.11-.38L15,15.23a5.85,5.85,0,0,1,0-.73,7.5,7.5,0,0,1,14-3.72l.46.82,1.06-.08.47,0a8.5,8.5,0,0,1,0,17Z"/></g></svg>