<svg xmlns="http://www.w3.org/2000/svg" viewBox="0 0 48 48"><path fill-rule="evenodd" d="M6.586 6.586a2 2 0 012.828 0 .632.632 0 01.065.094c.041.068.09.161.142.283.108.247.217.568.326.952.217.767.408 1.706.567 2.633.097.562.18 1.112.25 1.605-.277-.16-.572-.333-.874-.512a48.438 48.438 0 01-2.007-1.252c-.63-.419-1.082-.76-1.297-.974a2 2 0 010-2.829zm3.711 7.606C8.265 19.352 7.33 26.14 6.888 31.63a126.96 126.96 0 00-.37 7.37 106.647 106.647 0 00-.02 2.968v.042l.001.011v.004L8 42l-1.5.026A1.5 1.5 0 008 43.5h32a1.5 1.5 0 001.5-1.474L40 42l1.5.025v-.057l.001-.052.001-.107A105.974 105.974 0 0041.48 39a126.298 126.298 0 00-.37-7.37c-.44-5.489-1.378-12.277-3.409-17.437.42-.24.916-.526 1.432-.833a50.466 50.466 0 002.093-1.305c.628-.418 1.233-.855 1.603-1.226a4 4 0 00-5.656-5.657c-.28.28-.48.655-.627.993a9.695 9.695 0 00-.416 1.205c-.245.865-.45 1.883-.615 2.84a53.46 53.46 0 00-.195 1.225c-.995-.891-2.191-1.363-3.512-1.522-2.026-.244-4.32.247-6.574.873-.865.24-1.72.499-2.569.756-1.447.437-2.88.87-4.325 1.202-1.42.327-2.76.53-3.997.527a11.908 11.908 0 01-1.481-.522 59.65 59.65 0 00-.375-2.54c-.165-.956-.37-1.974-.615-2.84a9.695 9.695 0 00-.416-1.204c-.147-.338-.346-.713-.627-.993a4 4 0 10-5.656 5.657c.37.37.975.807 1.603 1.226a51.71 51.71 0 002.092 1.305c.516.306 1.01.593 1.43.832zm31.117-7.606a2 2 0 00-2.828 0 .627.627 0 00-.065.094c-.041.068-.09.161-.142.283a7.74 7.74 0 00-.326.952c-.217.767-.408 1.706-.567 2.633a54.71 54.71 0 00-.25 1.605c.277-.16.572-.333.874-.512a48.437 48.437 0 002.007-1.252c.63-.419 1.082-.76 1.297-.974a2 2 0 000-2.829zm-7.01 6.772c-.761-.905-1.713-1.324-2.836-1.46-1.599-.192-3.555.192-5.8.816-.771.214-1.585.46-2.417.71-1.094.33-2.22.67-3.332.964a52.43 52.43 0 004.056.364c2.437.122 4.824.058 6.81-.264 1.598-.258 2.77-.658 3.518-1.13zM38.5 40.5H9.497a123.271 123.271 0 01.382-8.63c.417-5.204 1.27-11.286 2.961-15.924.611.202 1.299.392 2.037.568l-1.858 9.29a1 1 0 001.962.393l1.854-9.272c2.139.397 4.614.7 7.09.823 2.528.127 5.105.07 7.348-.284l1.746 8.733a1 1 0 001.962-.393l-1.75-8.75a11.434 11.434 0 002.05-.757c1.608 4.591 2.43 10.499 2.838 15.573a123.296 123.296 0 01.382 8.63z"/></svg>