<svg xmlns="http://www.w3.org/2000/svg" viewBox="0 0 24 24"><defs></defs><g id="Calque_5" ><path  d="M21.5,7.5h-3A.5.5,0,0,0,18.16,7L16.58,6.5a1.48,1.48,0,0,0-.78,0A5.6,5.6,0,0,0,15.2,5a2,2,0,0,0-1.7-1H5.83a2,2,0,0,0-2,1.64l-1.64,9A2,2,0,0,0,4.2,17H5.5v2.5A2.5,2.5,0,0,0,8,22a.5.5,0,0,0,0-1,1.5,1.5,0,0,1-1.5-1.5V17H7.68a2,2,0,0,0,2-1.61L10.32,12H11v2a.5.5,0,0,0,1,0V12h1.5a2,2,0,0,0,1.7-.95,5.68,5.68,0,0,0,.6-1.51,1.26,1.26,0,0,0,.28,0,1.49,1.49,0,0,0,.5-.08L18.16,9a.5.5,0,0,0,.34-.47h3a.5.5,0,0,0,0-1Zm-8,2.5H8.68l-1,5H4.2L5.83,6h7.66A3.83,3.83,0,0,1,14,8,3.87,3.87,0,0,1,13.5,10Z"/><path  d="M11.5,7.5h-2a.5.5,0,0,0,0,1h2a.5.5,0,0,0,0-1Z"/></g></svg>