<svg xmlns="http://www.w3.org/2000/svg" viewBox="0 0 32 32"><defs></defs><g id="Icon"><path  d="M28,27H27V14.47l.36.3A1,1,0,0,0,28,15a1,1,0,0,0,.77-.36,1,1,0,0,0-.13-1.41L17.28,3.76a2,2,0,0,0-2.56,0L3.36,13.23a1,1,0,1,0,1.28,1.54l.36-.3V27H4a1,1,0,0,0,0,2H28a1,1,0,0,0,0-2Zm-6.5,0h-11V25.38h11Zm0-2.62h-11V22.75h11Zm0-2.63h-11V20.12h11Zm0-2.63h-11V17.5h11ZM25,13V27H22.5V17.5a1,1,0,0,0-1-1h-11a1,1,0,0,0-1,1V27H7V13a1,1,0,0,0,0-.17L16,5.3l9,7.53A1,1,0,0,0,25,13Z"/><path  d="M13.5,12.5A2.5,2.5,0,1,0,16,10,2.5,2.5,0,0,0,13.5,12.5Zm4,0A1.5,1.5,0,1,1,16,11,1.5,1.5,0,0,1,17.5,12.5Z"/></g></svg>