<svg id="Universe_Tool_48px" xmlns="http://www.w3.org/2000/svg" viewBox="0 0 48 48"><path d="M43 16.5h-7v-.2a1.5 1.5 0 00-1.07-1.44l-3.13-.93a3.61 3.61 0 00-2.11 0C29 10.35 27.15 10 26.5 10H14.43a5.46 5.46 0 00-5.24 3.84l-4.3 13.61A3.5 3.5 0 008.23 32H9v3a6 6 0 006 6 1 1 0 000-2 4 4 0 01-4-4v-3h2a3.48 3.48 0 003.34-2.45l1.28-4.05H19V28a1 1 0 002 0v-2.5h5.86c.58-.15 2.17-.88 2.84-4.38a3.51 3.51 0 001 .16 3.64 3.64 0 001.08-.17l3.13-.93A1.5 1.5 0 0036 18.7v-.2h7a1 1 0 000-2zm-17 6H15.45l-1.94 6.15A.5.5 0 0113 29H8.23a.49.49 0 01-.4-.2.51.51 0 01-.08-.45l4.3-13.6A2.49 2.49 0 0114.43 13h11.76c.21.27.81 1.32.81 4.5s-.61 4.56-1 5zm7-4.92l-2.06.62a.75.75 0 01-.65-.11.75.75 0 010-1.18.79.79 0 01.44-.14h.21l2.06.62z"/><path d="M23 18.5h-6a1 1 0 000 2h6a1 1 0 000-2zM23 15h-6a1 1 0 000 2h6a1 1 0 000-2z"/></svg>