<svg xmlns="http://www.w3.org/2000/svg" viewBox="0 0 48 48"><defs></defs><g id="Icon"><path  d="M42.54,17.29a3.94,3.94,0,0,0-2.3-1.24,17,17,0,0,0-32.49,0,3.93,3.93,0,0,0-3.28,4.52L7,36.31a2,2,0,0,0,2,1.69H9L7.59,42a1.5,1.5,0,0,0,.9,1.92A1.52,1.52,0,0,0,9,44a1.5,1.5,0,0,0,1.41-1l1.82-5H35.77l1.82,5A1.5,1.5,0,0,0,39,44a1.52,1.52,0,0,0,.51-.09,1.5,1.5,0,0,0,.9-1.92L39,38h.11a2,2,0,0,0,2-1.69l2.48-15.72A4,4,0,0,0,42.54,17.29ZM24,7a13.92,13.92,0,0,1,13.33,9.76,4.18,4.18,0,0,0-1.66,2.72l-.63,4a62.23,62.23,0,0,0-22.07,0l-.66-4.18a3.94,3.94,0,0,0-1.63-2.61A13.91,13.91,0,0,1,24,7ZM34.57,26.45,34,30H14l-.55-3.51A59.3,59.3,0,0,1,34.57,26.45ZM38.22,35H9.78L7.43,20.12a1,1,0,0,1,1.92-.3L11.43,33H36.57l2.06-13a1.08,1.08,0,0,1,.91-.95,1,1,0,0,1,1,1.12Z"/></g></svg>