<svg id="Universe_Terrace_32px" xmlns="http://www.w3.org/2000/svg" viewBox="0 0 32 32"><path d="M29 22v-5a2 2 0 00-2-2 7 7 0 00-3.59 1H16.5v-5H28a1 1 0 00.45-1.89L16.89 3.33a2 2 0 00-1.78 0L3.55 9.11A1 1 0 004 11h11.5v5H8.59A7 7 0 005 15a2 2 0 00-2 2v5a2 2 0 001.33 1.88l-.82 4.53a.5.5 0 00.4.58H4a.49.49 0 00.49-.41L5.33 24h3.34l.84 4.59A.49.49 0 0010 29h.09a.5.5 0 00.4-.58L9.69 24H10a2 2 0 002-2 6.63 6.63 0 00-.08-1h2v1.54h1.16v3.69a2.46 2.46 0 01-1.18 1.87.49.49 0 00.29.9h3.62a.49.49 0 00.29-.9 2.46 2.46 0 01-1.18-1.87v-3.69h1.16V21h2a6.63 6.63 0 00-.08 1 2 2 0 002 2h.31l-.8 4.41a.5.5 0 00.4.58H22a.49.49 0 00.49-.41l.84-4.58h3.34l.84 4.59A.49.49 0 0028 29h.09a.5.5 0 00.4-.58l-.82-4.53A2 2 0 0029 22zM16 5.12L23.76 9H8.24zM5 22v-5a5 5 0 015 5zm6.32-3a7 7 0 00-.58-1h10.52a7 7 0 00-.58 1zM27 17v5h-5a5 5 0 015-5z"/></svg>