<svg id="Universe_MakeIt_64px" xmlns="http://www.w3.org/2000/svg" viewBox="0 0 64 64"><path d="M51.21 26.58a.58.58 0 01.59-.58.57.57 0 01.58.58.58.58 0 01-.58.6.59.59 0 01-.59-.6zm.15 2.8h.84v8.42h-.84zM55.48 35.63v-5.48h-1.55v-.77h1.55v-2.52l.84-.15v2.67h2.23v.77h-2.23v5.33c0 1.2.4 1.71 1.29 1.71a2.57 2.57 0 001.24-.36l.15.78a3.33 3.33 0 01-1.48.39c-1.31 0-2.04-.77-2.04-2.37zM10.33 33.16l-3.67-6.87H5v11.5h1.55v-8.72l3.14 6.02h1.29l3.16-6.02v8.72h1.55v-11.5h-1.68l-3.68 6.87zM36.23 26.29h-1.88l-4.36 5.28v-5.28h-1.55v11.5h1.55v-3.82l1.06-1.31 3.81 5.13h1.94l-4.73-6.38 4.16-5.12zM40.06 36.42V32.7h4.41v-1.36h-4.41v-3.67h5.06v-1.38h-6.61v11.5h7.05v-1.37h-5.5zM26.7 29.56l-2.16 1.36-1.49-4.63h-1.96l-3.73 11.5h1.58l3.07-9.84 1.2 3.8-2.53 1.59.81 1.33 2.21-1.38 1.42 4.5h1.64l-1.72-5.35 2.47-1.55-.81-1.33z"/></svg>