<svg xmlns="http://www.w3.org/2000/svg" viewBox="0 0 32 32"><defs></defs><g id="Icon"><path  d="M29,19a5,5,0,0,0-2-4V8.6a2,2,0,0,0-1.13-1.8C24.48,6.12,21.34,5,16,5S7.51,6.12,6.13,6.79A2,2,0,0,0,5,8.6V15a5,5,0,0,0-2,4v3.5A1.5,1.5,0,0,0,4.5,24H5v1a2,2,0,0,0,2,2H9a2,2,0,0,0,2-2V24H21v1a2,2,0,0,0,2,2h2a2,2,0,0,0,2-2V24h.5A1.5,1.5,0,0,0,29,22.5ZM7,8.6C8,8.12,10.85,7,16,7s8,1.12,9,1.6v5.5a5.47,5.47,0,0,0-1-.1h-.5V11.5A1.5,1.5,0,0,0,22,10H18.5A1.5,1.5,0,0,0,17,11.5V14H15V11.5A1.5,1.5,0,0,0,13.5,10H10a1.5,1.5,0,0,0-1.5,1.5V14H8a5.47,5.47,0,0,0-1,.1ZM22.5,14H18V11.5a.5.5,0,0,1,.5-.5H22a.5.5,0,0,1,.5.5ZM14,14H9.5V11.5A.5.5,0,0,1,10,11h3.5a.5.5,0,0,1,.5.5ZM8,16H24a3,3,0,0,1,3,3v1H5V19A3,3,0,0,1,8,16Zm1,9H7V24H9Zm16,0H23V24h2Zm-4-3H5V21H27v1Z"/></g></svg>