<svg id="Universe_Paint_24px" xmlns="http://www.w3.org/2000/svg" viewBox="0 0 24 24"><path fill-rule="evenodd" d="M4 4a2 2 0 012-2h12a2 2 0 012 2v.5h1.5a.5.5 0 01.5.5v4a.5.5 0 01-.397.49l-8.706 1.832a.5.5 0 00-.397.49v.688h1a1 1 0 01.97 1.242l-.215.862.244 6.358A1 1 0 0113.5 22h-3a1 1 0 01-1-1.038l.245-6.358-.215-.861a1 1 0 01.97-1.243h1v-.689a1.5 1.5 0 011.191-1.467L21 8.594V5.5h-1V6a2 2 0 01-2 2H6a2 2 0 01-2-2V4zm12.293 0h-2.586l-2 2h2.586l2-2zM9.707 4h2.586l-2 2H7.707l2-2zM8.293 4H6v2h.293l2-2zm9.414 0l-2 2H18V4h-.293z"/></svg>