<svg xmlns="http://www.w3.org/2000/svg" viewBox="0 0 64 64"><defs></defs><g id="Icon"><path  d="M31.82,7.94A13.52,13.52,0,0,1,46,21.43a1.5,1.5,0,1,0,3,0A16.52,16.52,0,0,0,32.78,4.93C23.55,4.78,16,12.64,16,21.86V42.93h-.5a2,2,0,0,0-2,2v12a2,2,0,0,0,2,2h4a2,2,0,0,0,2-2v-2h6a2,2,0,0,0,2-2v-4a2,2,0,0,0-2-2h-.09l5.3-5.3a1,1,0,0,0,0-1.41,1,1,0,0,0-1.42,0l-6.7,6.71H21.5v-2a2,2,0,0,0-2-2H19V21.82A13.77,13.77,0,0,1,31.82,7.94Zm-12.32,37v4h8v4h-8v4h-4v-12Z"/><path  d="M48.32,29.36l-.82-1.19-.82,1.19c-.66.95-2.18,3.29-2.18,4.57a3,3,0,1,0,6,0C50.5,32.65,49,30.31,48.32,29.36Zm-.82,5.57a1,1,0,0,1-1-1,7.36,7.36,0,0,1,1-2.15,7.36,7.36,0,0,1,1,2.15A1,1,0,0,1,47.5,34.93Z"/></g></svg>