<svg xmlns="http://www.w3.org/2000/svg" viewBox="0 0 64 64"><defs></defs><g id="Icon"><path  d="M26.57,16.86a1,1,0,0,0,0,1.41,1,1,0,0,0,1.42,0,4.26,4.26,0,0,0,.19-5.55A10.29,10.29,0,0,1,26.66,8.8a1,1,0,1,0-2,.23,12.06,12.06,0,0,0,1.81,4.83C27.66,15.59,26.75,16.67,26.57,16.86Z"/><path  d="M37.91,16.94a1,1,0,0,0,.49,1.33,1.06,1.06,0,0,0,.42.09,1,1,0,0,0,.91-.58c.1-.22.94-2.24-.95-5.09a4.74,4.74,0,0,1-.57-4.08,1,1,0,0,0-1.86-.74,6.76,6.76,0,0,0,.77,5.93C38.38,15.71,37.93,16.91,37.91,16.94Z"/><path  d="M32.49,15.88c.15.28,1.44,2.77-1.41,5.16a1,1,0,0,0,.64,1.76,1,1,0,0,0,.64-.23c3.38-2.82,2.69-6.27,1.82-7.75a22.36,22.36,0,0,1-1.51-2.75c-1.41-3-.87-4.55-.84-4.63A1,1,0,0,0,30,6.62c-.11.23-1,2.37.85,6.3A21,21,0,0,0,32.49,15.88Z"/><path  d="M54.71,57.25l-14-14A19,19,0,0,0,51,26.46h0A1.5,1.5,0,0,0,49.5,25h-35a1.5,1.5,0,0,0-1.5,1.5h0A19,19,0,0,0,23,43.18L9.28,57.26a1,1,0,0,0,0,1.41,1,1,0,0,0,1.42,0l14.2-14.58A18.68,18.68,0,0,0,31,45.4V58a1,1,0,1,0,2,0V45.4a18.3,18.3,0,0,0,5.8-1.23L53.29,58.66a1,1,0,0,0,1.42-1.41ZM16.07,28H47.93a16,16,0,0,1-31.86,0Z"/><path  d="M29.33,37.55a11.17,11.17,0,0,1-7.43-6.16,1,1,0,0,0-1.81.83A13.15,13.15,0,0,0,26,38.41a13.43,13.43,0,0,0,2.87,1.08l.24,0a1,1,0,0,0,1-.76A1,1,0,0,0,29.33,37.55Z"/></g></svg>