<svg xmlns="http://www.w3.org/2000/svg" viewBox="0 0 32 32"><defs></defs><g id="Icon"><path  d="M28.38,7.08a1,1,0,0,0-1.09.21l-20,20a1,1,0,0,0-.21,1.09A1,1,0,0,0,8,29H28a1,1,0,0,0,1-1V8A1,1,0,0,0,28.38,7.08ZM27,22.66a3.76,3.76,0,0,0-1.49.16A4.82,4.82,0,0,0,16.68,24a3,3,0,0,0-2.28.58,3.68,3.68,0,0,0-.69-.88L27,10.41ZM10.41,27,13,24.4a2.71,2.71,0,0,1,.72,1.19.54.54,0,0,0,.39.36h.09a.52.52,0,0,0,.4-.2,2,2,0,0,1,2.28-.68.5.5,0,0,0,.43,0,.48.48,0,0,0,.23-.35,3.82,3.82,0,0,1,7.26-1,.45.45,0,0,0,.28.26.48.48,0,0,0,.39,0A2.82,2.82,0,0,1,27,23.67V27Z"/><path  d="M8,25.47l4.29-4.29h0l4.47-4.47h0l4.47-4.47h0l4.65-4.64h0l2.88-2.87a1,1,0,1,0-1.42-1.42L24.71,5.88H22.06a1,1,0,0,0,0,2h.65l-2.65,2.65H17.41a1,1,0,0,0,0,2h.65L15.59,15H12.94a1,1,0,1,0,0,2h.65l-2.47,2.47H8.47a1,1,0,1,0,0,2h.65L6.83,23.76H4.18a1,1,0,1,0,0,2h.65L3.29,27.29a1,1,0,0,0,0,1.42,1,1,0,0,0,1.42,0L8,25.47Z"/><path  d="M22.67,24.47a.66.66,0,0,0-.67.66.67.67,0,0,0,.67.67.66.66,0,0,0,.66-.67A.65.65,0,0,0,22.67,24.47Z"/><circle  cx="20.67" cy="23.58" r="0.44"/><circle  cx="19.34" cy="25.8" r="0.44"/></g></svg>