<svg id="Universe_Drill-alt_48px" xmlns="http://www.w3.org/2000/svg" viewBox="0 0 48 48"><path fill-rule="evenodd" d="M10.5 4.5a8 8 0 100 16h1.482l-3.008 10H7A2.5 2.5 0 004.5 33v8A2.5 2.5 0 007 43.5h21a2.5 2.5 0 002.5-2.5v-8a2.5 2.5 0 00-2.5-2.5h-7.63l1.384-4.5h4.037a1 1 0 001-1v-4.5H29a1.5 1.5 0 001.5-1.5v-1.078c.952-.099 1.765-.28 2.4-.46.473-.136.85-.272 1.112-.377a7.491 7.491 0 00.395-.17l.026-.014.008-.004.004-.001.001-.001L34 16l.447.894A1 1 0 0035 16h2a1 1 0 00.707-.293l2-2A1 1 0 0040 13h5a1 1 0 100-2h-5a1 1 0 00-.293-.707l-2-2A1 1 0 0037 8h-2a1 1 0 00-.553-.894L34 8l.447-.895h-.002l-.004-.002-.008-.005-.026-.012a7.682 7.682 0 00-.395-.17 11.573 11.573 0 00-1.112-.378 14.065 14.065 0 00-2.4-.46V6A1.5 1.5 0 0029 4.5H10.5zm20 3.59v7.82a12.02 12.02 0 001.85-.371 9.81 9.81 0 00.65-.21V8.67a10.21 10.21 0 00-.65-.208 12.048 12.048 0 00-1.85-.372zM35 10v4h1.586L38 12.586v-1.172L36.586 10H35zM24.791 24H22.37l1.077-3.5h1.344V24zM5.5 12.5a5 5 0 015-5h17v10h-5.161a1.5 1.5 0 00-1.434 1.059l-4 13A1.5 1.5 0 0018.34 33.5h9.16v7h-20v-7h2.59a1.5 1.5 0 001.436-1.068l3.91-13A1.5 1.5 0 0014 17.5h-3.5a5 5 0 01-5-5zM18 12a1 1 0 011-1h5a1 1 0 110 2h-5a1 1 0 01-1-1z"/></svg>