<svg xmlns="http://www.w3.org/2000/svg" fill="#222020" viewBox="0 0 64 64"><path d="M57.47 23A5.65 5.65 0 0054 21.08 22.44 22.44 0 0011 21a5.7 5.7 0 00-5.62 6.63L9 49.75A1.5 1.5 0 0010.5 51h2.58l-1.54 6.14a1.51 1.51 0 001.1 1.86 1.47 1.47 0 00.36 0 1.51 1.51 0 001.46-1.14L16.17 51h31.66l1.71 6.86A1.51 1.51 0 0051 59a1.47 1.47 0 00.36 0 1.51 1.51 0 001.1-1.82L50.92 51h2.66a1.5 1.5 0 001.48-1.25l3.68-22.12A5.65 5.65 0 0057.47 23zM32.5 8A19.42 19.42 0 0151 21.42a5.68 5.68 0 00-3.49 4.34l-.85 5.1A113.59 113.59 0 0032 30a112.8 112.8 0 00-14.59.87l-.85-5.09a5.68 5.68 0 00-2.68-4A19.43 19.43 0 0132.5 8zM20.27 48l-1.58-9.5h26.7L43.81 48zm25.45-11.5H18.35l-.44-2.69A111.24 111.24 0 0132 33a112.33 112.33 0 0114.17.84zM11.77 48L8.29 27.14A2.69 2.69 0 0111 24a2.68 2.68 0 012.65 2.25L17.23 48zm44-20.87L52.31 48h-5.46l3.62-21.75a2.7 2.7 0 015.32.88z"/><circle cx="24.5" cy="21" r="1.5"/><circle cx="39.5" cy="21" r="1.5"/></svg>