<svg xmlns="http://www.w3.org/2000/svg" viewBox="0 0 24 24"><path fill-rule="evenodd" d="M3.293 3.293a1 1 0 011.414 0 .297.297 0 01.033.047c.02.034.044.08.07.142.054.123.11.283.163.475.109.384.205.853.284 1.317.048.281.09.556.125.802a42.41 42.41 0 01-.437-.256 24.241 24.241 0 01-1.003-.625c-.315-.21-.542-.38-.65-.488a1 1 0 010-1.414zM4.93 6.97c-1.04 2.622-1.514 6.065-1.735 8.825a63.391 63.391 0 00-.198 4.809l.001.303.001.08v.029L4 21l-1 .017A1 1 0 004 22h16a1 1 0 001-.983L20 21l1 .017v-.03l.002-.08v-.303c0-.263-.002-.64-.011-1.11a63.412 63.412 0 00-.186-3.699c-.222-2.76-.695-6.203-1.735-8.824.156-.09.324-.188.497-.291.35-.208.722-.437 1.046-.653.314-.209.617-.427.802-.613a2 2 0 10-2.828-2.828c-.14.14-.24.327-.314.497a4.97 4.97 0 00-.208.602c-.122.433-.225.942-.307 1.42-.036.21-.069.418-.097.612-.498-.445-1.096-.68-1.756-.76-1.014-.123-2.16.123-3.288.436-.432.12-.86.25-1.284.378a33.08 33.08 0 01-2.163.601c-.41.095-.809.169-1.19.214-.714-.164-1.243-.335-1.533-.48a1 1 0 00-.054-.026 28.58 28.58 0 00-.15-.975 14.323 14.323 0 00-.306-1.42 4.847 4.847 0 00-.208-.602 1.615 1.615 0 00-.314-.497 2 2 0 10-2.828 2.828c.185.186.488.404.802.613.324.216.696.445 1.046.653.172.103.34.2.496.29zm15.777-3.677a1 1 0 00-1.414 0 .297.297 0 00-.033.047c-.02.034-.044.08-.07.142a3.87 3.87 0 00-.164.475 13.38 13.38 0 00-.283 1.317c-.048.281-.09.556-.125.802a33.345 33.345 0 001.44-.881c.315-.21.542-.38.65-.488a1 1 0 000-1.414zM10.65 7.017c.46.048.93.086 1.4.11 1.21.06 2.384.027 3.353-.13.76-.123 1.293-.307 1.624-.504-.348-.326-.764-.486-1.242-.544-.8-.096-1.777.096-2.9.408-.386.107-.792.23-1.209.355-.338.102-.682.206-1.026.305zM18.998 20H5c.002-.142.004-.297.008-.463.019-.908.066-2.169.18-3.582.201-2.515.606-5.416 1.386-7.67.254.076.528.15.815.217l-.88 4.4a.5.5 0 10.98.196l.878-4.39c1.082.2 2.332.353 3.582.416 1.278.064 2.589.035 3.736-.146l.824 4.12a.5.5 0 00.98-.196l-.826-4.13a6.58 6.58 0 00.83-.281c.734 2.223 1.12 5.025 1.316 7.464A61.434 61.434 0 0118.998 20z"/></svg>