<svg id="Universe_Garden1_24px" xmlns="http://www.w3.org/2000/svg" viewBox="0 0 24 24"><path d="M20.21 20.29l-4.42-4.41A7 7 0 0019 10a1 1 0 00-1-1H6a1 1 0 00-1 1 7 7 0 003.21 5.88l-4.42 4.41a1 1 0 000 1.42 1 1 0 001.42 0l5-5a7.63 7.63 0 00.83.17V21a1 1 0 002 0v-4.08a7.63 7.63 0 00.83-.17l5 5a1 1 0 001.42 0 1 1 0 00-.08-1.46zM16.9 11a5 5 0 01-4.9 4 5 5 0 01-4.9-4zM11.59 7.21A.5.5 0 0012 8a.51.51 0 00.41-.21 2.78 2.78 0 000-3.08 1.76 1.76 0 010-1.92.5.5 0 00-.12-.7.51.51 0 00-.7.12 2.78 2.78 0 000 3.08 1.76 1.76 0 010 1.92zM9.11 6.19a.5.5 0 00.08.7.51.51 0 00.31.11.48.48 0 00.39-.19 1.74 1.74 0 000-2.12.75.75 0 010-.88.5.5 0 10-.78-.62 1.74 1.74 0 000 2.12.75.75 0 010 .88zM14.11 6.19a.5.5 0 00.08.7.51.51 0 00.31.11.48.48 0 00.39-.19 1.74 1.74 0 000-2.12.75.75 0 010-.88.5.5 0 10-.78-.62 1.74 1.74 0 000 2.12.75.75 0 010 .88z"/></svg>