<svg xmlns="http://www.w3.org/2000/svg" viewBox="0 0 48 48"><defs></defs><g id="Icon"><path  d="M43.41,36.34l-1.53-1.53.09,0a1,1,0,0,0,.58-1.28,1,1,0,0,0-1.29-.59l-.93.35-2.69-2.68.08,0a1,1,0,1,0-.7-1.87l-.94.35-2.69-2.69.09,0a1,1,0,1,0-.7-1.87l-.94.35L31.05,24l5.84-5.85,5.27-1.75a2,2,0,0,0,1.31-1.44,2,2,0,0,0-.54-1.87l-8-8A2,2,0,0,0,33,4.48,2,2,0,0,0,31.58,5.8l-1.76,5.26L25,15.93a1,1,0,0,0-.66,0l-.94.35-5.17-5.17L16.43,5.85a2,2,0,0,0-3.32-.78l-8,8A2,2,0,0,0,4.53,15a2,2,0,0,0,1.32,1.43l5.26,1.76,2,2-.09,0a1,1,0,0,0,.35,1.94,1,1,0,0,0,.35-.06l.94-.36L16.9,24,4.59,36.29A2,2,0,0,0,4,37.71V42a2,2,0,0,0,2,2h4.24a2,2,0,0,0,1.42-.58L24,31.05l1.82,1.82-.09,0a1,1,0,0,0,.35,1.94.87.87,0,0,0,.35-.07l.94-.35L30,37.11l-.09,0a1,1,0,0,0,.35,1.94,1,1,0,0,0,.35-.06l.94-.35,4.76,4.75a2,2,0,0,0,1.41.58H42a2,2,0,0,0,2-2V37.76A2,2,0,0,0,43.41,36.34Zm-32.67-2L19,26.1l2.52,2.53-.08,0a1,1,0,0,0-.6,1.25l-7.3,7.3H10.74ZM22,24.78l4.12-1.54,2.68,2.69-4.11,1.54Zm12-16.5L39.67,14,36,15.28,32.67,12Zm-2.42,5.36,2.82,2.83-4.46,4.46a1,1,0,0,0,0-.17,1,1,0,0,0-1.29-.59l-.94.36L26.1,19Zm-23.16.45,5.76-5.76L15.33,12,12,15.33Zm5.36,2.42,2.82-2.82,3.76,3.75L16.16,19ZM21.82,19l2.69,2.69L20.4,23.23l-2.69-2.69ZM8.74,36.38v1.38L7,39.5V38.12ZM9.83,41H8.38l1.74-1.74h1.45ZM26.19,29l4.12-1.54L33,30.17l-4.12,1.54Zm4.25,4.25,4.11-1.55,2.69,2.69L33.13,36ZM41,41H38.17l-3.49-3.49L38.79,36,41,38.17Z"/></g></svg>