<svg xmlns="http://www.w3.org/2000/svg" viewBox="0 0 64 64"><defs></defs><g id="Icon"><path  d="M32,5A27,27,0,1,0,59,32,27,27,0,0,0,32,5ZM56,30.5H49a32.33,32.33,0,0,0-3.18-12.58,31.37,31.37,0,0,0,3.88-2.16A23.89,23.89,0,0,1,56,30.5ZM33.74,55.93l-.24,0V46.06a29.43,29.43,0,0,1,8,1.53A29.71,29.71,0,0,1,33.74,55.93Zm10.62-7.2a28.2,28.2,0,0,1,3.07,1.63,23.86,23.86,0,0,1-7.69,4.35A33.29,33.29,0,0,0,44.36,48.73ZM22.47,47.58a29.72,29.72,0,0,1,8-1.52V56l-.24,0A29.47,29.47,0,0,1,22.47,47.58Zm1.79,7.13a23.86,23.86,0,0,1-7.69-4.35,30.13,30.13,0,0,1,3.07-1.64A33,33,0,0,0,24.26,54.71Zm6-46.64.24,0v9.89a29.72,29.72,0,0,1-8-1.52A29.62,29.62,0,0,1,30.26,8.07ZM19.64,15.28a30.13,30.13,0,0,1-3.07-1.64,23.86,23.86,0,0,1,7.69-4.35A33,33,0,0,0,19.64,15.28Zm21.89,1.13a29.43,29.43,0,0,1-8,1.53V8.05l.24,0A29.71,29.71,0,0,1,41.53,16.41ZM39.74,9.29a23.86,23.86,0,0,1,7.69,4.35,28.2,28.2,0,0,1-3.07,1.63A33.29,33.29,0,0,0,39.74,9.29ZM30.5,20.94V30.5H18.05A29.52,29.52,0,0,1,21,19.07,32.44,32.44,0,0,0,30.5,20.94Zm0,12.56v9.56A32.44,32.44,0,0,0,21,44.93,29.52,29.52,0,0,1,18.05,33.5Zm3,9.56V33.5H46a29.36,29.36,0,0,1-3,11.43A32.38,32.38,0,0,0,33.5,43.06Zm0-12.56V20.94A32.51,32.51,0,0,0,43,19.07,29.52,29.52,0,0,1,46,30.5ZM14.34,15.76a32.32,32.32,0,0,0,3.89,2.17A32.24,32.24,0,0,0,15.05,30.5h-7A24,24,0,0,1,14.34,15.76ZM8.05,33.5h7a32.24,32.24,0,0,0,3.18,12.57,32.32,32.32,0,0,0-3.89,2.17A24,24,0,0,1,8.05,33.5Zm41.6,14.74a31.37,31.37,0,0,0-3.88-2.16A32.33,32.33,0,0,0,49,33.5h7A23.89,23.89,0,0,1,49.65,48.24Z"/></g></svg>