<svg id="User_Contact_Website_24px" xmlns="http://www.w3.org/2000/svg" viewBox="0 0 24 24"><path d="M12 2a10 10 0 1010 10A10 10 0 0012 2zm6.25 15a15 15 0 00-1.73-.45 16.58 16.58 0 00.59-4H20A8 8 0 0118.25 17zM4 12.5h2.89a16.58 16.58 0 00.59 4 15 15 0 00-1.73.5A8 8 0 014 12.5zM5.75 7a15 15 0 001.73.45 16.58 16.58 0 00-.59 4H4A8 8 0 015.75 7zm9.43-.34a25.16 25.16 0 01-2.68.2V4a8.87 8.87 0 011.05.12 6.44 6.44 0 011.63 2.55zm.15-1.93a7.76 7.76 0 012.16 1.47c-.4.11-.84.21-1.29.3a9.31 9.31 0 00-.87-1.76zM11.5 11.5H7.89a15.31 15.31 0 01.6-3.87 24 24 0 003 .24zm0 1v3.63a24 24 0 00-3 .24 15.31 15.31 0 01-.6-3.87zm1 0h3.61a15.31 15.31 0 01-.6 3.87 24 24 0 00-3-.24zm0-1V7.87a24 24 0 003-.24 15.31 15.31 0 01.6 3.87zm-1-7.5v2.87a25.16 25.16 0 01-2.68-.2 6.44 6.44 0 011.63-2.52A8.87 8.87 0 0111.5 4zM7.8 6.5c-.45-.09-.89-.19-1.29-.3a7.76 7.76 0 012.16-1.46A9.31 9.31 0 007.8 6.5zm0 11a9.31 9.31 0 00.87 1.76 7.76 7.76 0 01-2.16-1.46c.4-.11.84-.21 1.29-.3zm1-.17a25.16 25.16 0 012.68-.2V20a8.87 8.87 0 01-1.05-.12 6.44 6.44 0 01-1.61-2.55zM12.5 20v-2.87a25.16 25.16 0 012.68.2 6.44 6.44 0 01-1.63 2.52 8.87 8.87 0 01-1.05.15zm3.7-2.47c.45.09.89.19 1.29.3a7.76 7.76 0 01-2.16 1.46 9.31 9.31 0 00.87-1.79zm.91-6a16.58 16.58 0 00-.59-4A15 15 0 0018.25 7 8 8 0 0120 11.5z"/></svg>