<svg id="User_Account_Customer--Passion_48px" xmlns="http://www.w3.org/2000/svg" viewBox="0 0 48 48"><path d="M21 26a10.25 10.25 0 10-10.25-10.25A10.26 10.26 0 0021 26zm0-17.5a7.25 7.25 0 11-7.25 7.25A7.26 7.26 0 0121 8.5zM42.2 28.2a5.45 5.45 0 00-7.27.52l-.7.7-.61-.61A5.91 5.91 0 0029.69 27a4.63 4.63 0 00-4.45 2.3A14.14 14.14 0 0114 28.11l-.58-.34-6.34 2.12A4.5 4.5 0 004 34.16v6.27l.83.41C5.09 41 11.26 44 21 44a43.74 43.74 0 0011.36-1.46l1.16 1.17a1 1 0 001.41 0l7.66-7.66a5.31 5.31 0 00-.39-7.85zM21 41a38.65 38.65 0 01-14-2.48v-4.36a1.48 1.48 0 011-1.42L13.1 31a17.18 17.18 0 0011.24 1.58 5.29 5.29 0 001.52 3.43l4 4A41.47 41.47 0 0121 41zm20.18-6.36l-7 7-6.95-7a3.3 3.3 0 010-4.67A3.3 3.3 0 0132 30l2.28 2.28L36.51 30a3.3 3.3 0 014.67 4.67z"/></svg>