<svg id="User_Card_Funding-zloty_64px" xmlns="http://www.w3.org/2000/svg" viewBox="0 0 64 64"><path fill-rule="evenodd" d="M6.5 13.333a1.5 1.5 0 011.5-1.5h48a1.5 1.5 0 011.5 1.5v37.334a1.5 1.5 0 01-1.5 1.5H8a1.5 1.5 0 01-1.5-1.5V13.333zm3 1.5v34.334h45V14.833h-45zM31.85 40c-1.41 0-2.513-.41-3.311-1.231-.798-.838-1.197-1.995-1.197-3.473v-3.3l-1.367.542V29.78l1.367-.542v-7.905h2.735v6.846l1.795-.69v2.759l-1.795.69v3.792c0 .772.171 1.38.513 1.822.342.444.812.665 1.41.665L31.85 40zM16 37.267l5.683-7.88h-5.576v-2.808h8.909v2.34l-5.662 8.077h5.918v2.807h-9.25L16 37.267zm21.333-11.6a1 1 0 00-1 1v10.666a1 1 0 001 1H48a1 1 0 001-1V26.667a1 1 0 00-1-1H37.333zm1 10.666v-8.666h3.334v8.666h-3.334zM43.667 31v-3.333H47V31h-3.333zm0 2H47v3.333h-3.333V33z"/></svg>