<svg xmlns="http://www.w3.org/2000/svg" viewBox="0 0 24 24"><defs></defs><g id="Calque_5" ><path  d="M21,4H3A1,1,0,0,0,2,5V19a1,1,0,0,0,1,1H21a1,1,0,0,0,1-1V5A1,1,0,0,0,21,4ZM20,18H4V6H20Z"/><path  d="M5.41,12.88a.5.5,0,0,0,.5.5h.5A3.51,3.51,0,0,0,9.63,15.5a3.55,3.55,0,0,0,2.29-.84.5.5,0,0,0-.65-.76,2.53,2.53,0,0,1-1.64.6,2.5,2.5,0,0,1-2.09-1.12H9.46a.5.5,0,0,0,.5-.5.5.5,0,0,0-.5-.5H7.16a1.83,1.83,0,0,1,0-.76h2.3a.5.5,0,0,0,.5-.5.5.5,0,0,0-.5-.5H7.54A2.5,2.5,0,0,1,9.63,9.5a2.54,2.54,0,0,1,1.53.51.5.5,0,0,0,.7-.1.51.51,0,0,0-.1-.7,3.52,3.52,0,0,0-5.35,1.41h-.5a.5.5,0,0,0-.5.5.5.5,0,0,0,.5.5h.25a1.83,1.83,0,0,0,0,.76H5.91A.5.5,0,0,0,5.41,12.88Z"/><path  d="M14,14.5h4a.5.5,0,0,0,.5-.5V10a.5.5,0,0,0-.5-.5H14a.5.5,0,0,0-.5.5v4A.5.5,0,0,0,14,14.5Zm3.5-1h-1v-1h1Zm0-3v1h-1v-1Zm-3,0h1v3h-1Z"/></g></svg>