<svg xmlns="http://www.w3.org/2000/svg" viewBox="0 0 64 64"><defs></defs><g id="Icon"><path  d="M58.51,25.76,33.24,5.58a2,2,0,0,0-2.49,0L5.48,25.76A1.5,1.5,0,1,0,7.35,28.1L9,26.78V57a2,2,0,0,0,2,2H53a2,2,0,0,0,2-2V26.79l1.64,1.31a1.49,1.49,0,0,0,2.11-.24A1.49,1.49,0,0,0,58.51,25.76ZM52,56H12V24.39l20-16,20,16Z"/><path  d="M23.5,29A8.5,8.5,0,1,0,32,20.5,8.51,8.51,0,0,0,23.5,29Zm14,0A5.5,5.5,0,1,1,32,23.5,5.51,5.51,0,0,1,37.5,29Z"/><path  d="M32,39.5a10.42,10.42,0,0,1-7.68-3.34,1.52,1.52,0,0,0-1.89-.25L19,38.08a2,2,0,0,0-.95,1.7V49.5a1.5,1.5,0,0,0,3,0V40.33l2-1.25a13.5,13.5,0,0,0,18,0l2,1.25V49.5a1.5,1.5,0,0,0,3,0V39.78a2,2,0,0,0-.94-1.7l-3.49-2.17a1.52,1.52,0,0,0-1.89.25A10.38,10.38,0,0,1,32,39.5Z"/></g></svg>