<svg xmlns="http://www.w3.org/2000/svg" viewBox="0 0 48 48"><defs></defs><g id="Icon"><path  d="M42,10H6a2,2,0,0,0-2,2V36a2,2,0,0,0,2,2H42a2,2,0,0,0,2-2V12A2,2,0,0,0,42,10ZM41,35H7V13H41Z"/><path  d="M12,25.76a1,1,0,0,0,1,1h.93A6.85,6.85,0,0,0,20.21,31a6.74,6.74,0,0,0,4.45-1.69,1,1,0,1,0-1.32-1.5A4.72,4.72,0,0,1,20.21,29a4.77,4.77,0,0,1-4-2.24h3.69a1,1,0,0,0,0-2H15.45a4.16,4.16,0,0,1,0-1.52h4.43a1,1,0,0,0,0-2H16.19a4.77,4.77,0,0,1,4-2.24,4.68,4.68,0,0,1,2.91,1,1,1,0,0,0,1.41-.17,1,1,0,0,0-.17-1.4A6.68,6.68,0,0,0,20.21,17a6.85,6.85,0,0,0-6.28,4.24H13a1,1,0,1,0,0,2h.42a7.24,7.24,0,0,0,0,1.52H13A1,1,0,0,0,12,25.76Z"/><path  d="M31,28.5h7a1,1,0,0,0,1-1v-7a1,1,0,0,0-1-1H31a1,1,0,0,0-1,1v7A1,1,0,0,0,31,28.5Zm4.5-2V25H37v1.5ZM37,23H35.5V21.5H37Zm-5-1.5h1.5v5H32Z"/></g></svg>