<svg id="User_Card_Funding_64px" xmlns="http://www.w3.org/2000/svg" viewBox="0 0 64 64"><path d="M57 13H7a2 2 0 00-2 2v34a2 2 0 002 2h50a2 2 0 002-2V15a2 2 0 00-2-2zm-1 35H8V16h48z"/><path d="M13.5 34.5A1.5 1.5 0 0015 36h1.42A10.52 10.52 0 0033 40a1.5 1.5 0 10-2-2.3A7.52 7.52 0 0119.79 36H26a1.5 1.5 0 000-3h-7.3a6.29 6.29 0 010-2H26a1.5 1.5 0 000-3h-6.21a7.52 7.52 0 0110.9-2 1.5 1.5 0 001.81-2.39 10.42 10.42 0 00-6.36-2.14A10.53 10.53 0 0016.42 28H15a1.5 1.5 0 000 3h.68a8.36 8.36 0 000 2H15a1.5 1.5 0 00-1.5 1.5zM41 38h10a1 1 0 001-1V27a1 1 0 00-1-1H41a1 1 0 00-1 1v10a1 1 0 001 1zm6-2v-3h3v3zm3-5h-3v-3h3zm-8-3h3v8h-3z"/></svg>