<svg id="User_Contact_Phone_64px" xmlns="http://www.w3.org/2000/svg" viewBox="0 0 64 64"><path d="M56.89 45.49l-9.1-6.38a4.4 4.4 0 00-6 1l-.94 1.29a3.48 3.48 0 01-2.91 1.2c-.05 0-4.91-1-10.24-6.29s-6.28-10.11-6.29-10.15a3.48 3.48 0 011.17-3l1.32-1a4.39 4.39 0 001-6l-6.37-9.02a5.2 5.2 0 00-6-1.82 11.24 11.24 0 00-3.45 2.42C5.13 11.69 4 17.88 5.88 25.18c1.81 7 6.22 14.31 12.43 20.52 8.53 8.53 18.79 13.24 27.08 13.24 4.35 0 8.15-1.29 10.88-4a11 11 0 002.4-3.43 5.21 5.21 0 00-1.78-6.02zm-1 4.89a8.2 8.2 0 01-1.74 2.42c-6.75 6.75-21.87 2.61-33.71-9.22C14.6 37.74 10.46 31 8.78 24.44 7.18 18.2 8 13 11.2 9.87a8.41 8.41 0 012.46-1.76 1.59 1.59 0 01.62-.11 2.26 2.26 0 011.79.86l6.35 9.06a1.39 1.39 0 01-.29 1.88l-1.33 1a6.4 6.4 0 00-2.35 5.91c0 .23 1.06 5.72 7.11 11.77s11.6 7.07 11.84 7.11a6.38 6.38 0 005.85-2.38l.94-1.28a1.39 1.39 0 011.88-.33l9.1 6.37a2.25 2.25 0 01.71 2.41z"/></svg>