<svg xmlns="http://www.w3.org/2000/svg" viewBox="0 0 48 48"><defs></defs><g id="Icon"><path  d="M33.63,44c-6.07,0-13.51-3.46-19.85-9.8A34.1,34.1,0,0,1,4.66,19.14c-1.41-5.44-.54-10.07,2.42-13A8.34,8.34,0,0,1,9.75,4.26a4.21,4.21,0,0,1,4.82,1.46l4.6,6.57a3.6,3.6,0,0,1-.8,4.94l-1,.7a2.14,2.14,0,0,0-.68,1.75s.67,3.39,4.43,7.15a15.72,15.72,0,0,0,7.2,4.44,2.14,2.14,0,0,0,1.72-.71l.68-.93a3.6,3.6,0,0,1,4.93-.83l6.61,4.62a4.24,4.24,0,0,1,1.44,4.85h0a8.37,8.37,0,0,1-1.83,2.62A11.38,11.38,0,0,1,33.63,44ZM10.85,7.05A5.82,5.82,0,0,0,9.21,8.23C7,10.41,6.43,14,7.56,18.4A31.06,31.06,0,0,0,15.9,32.08c8.29,8.28,19.22,11.34,23.88,6.69A6,6,0,0,0,41,37.16a1.26,1.26,0,0,0-.37-1.28L34,31.26a.6.6,0,0,0-.79.14l-.68.93a5.06,5.06,0,0,1-4.65,1.89c-.18,0-4.33-.8-8.81-5.27s-5.24-8.58-5.27-8.75a5.09,5.09,0,0,1,1.87-4.69l1-.7a.6.6,0,0,0,.12-.8L12.11,7.44a1.21,1.21,0,0,0-1.26-.39ZM42.34,37.71h0Z"/></g></svg>