<svg xmlns="http://www.w3.org/2000/svg" viewBox="0 0 64 64"><defs></defs><g id="Icon"><path  d="M53,21H46.2A9,9,0,0,0,33.14,8.64h0A9.36,9.36,0,0,0,32,10a9.36,9.36,0,0,0-1.14-1.39h0A9,9,0,0,0,17.81,21H11a2,2,0,0,0-2,2V53a2,2,0,0,0,2,2H53a2,2,0,0,0,2-2V23A2,2,0,0,0,53,21ZM52,36H33.5V24H52ZM35.26,10.76a6,6,0,0,1,8.49,8.48A6,6,0,0,1,39.5,21h-6V18.06c0-1.22,0-2.39,0-3.09A6,6,0,0,1,35.26,10.76Zm-15,8.48A6,6,0,1,1,30.5,15v6h-6A5.93,5.93,0,0,1,20.26,19.24ZM24.5,24h6V36H12V24ZM12,39H30.5V52H12ZM33.5,52V39H52V52Z"/></g></svg>
