<svg xmlns="http://www.w3.org/2000/svg" viewBox="0 0 48 48"><defs></defs><g id="Icon"><path  d="M21,26A10.25,10.25,0,1,0,10.75,15.75,10.26,10.26,0,0,0,21,26ZM21,8.5a7.25,7.25,0,1,1-7.25,7.25A7.26,7.26,0,0,1,21,8.5Z"/><path  d="M42.2,28.2a5.45,5.45,0,0,0-7.27.52l-.7.7-.61-.61A5.91,5.91,0,0,0,29.69,27a4.63,4.63,0,0,0-4.45,2.3A14.14,14.14,0,0,1,14,28.11l-.58-.34L7.08,29.89A4.5,4.5,0,0,0,4,34.16v6.27l.83.41C5.09,41,11.26,44,21,44a43.74,43.74,0,0,0,11.36-1.46l1.16,1.17a1,1,0,0,0,1.41,0l7.66-7.66A5.31,5.31,0,0,0,42.2,28.2ZM21,41A38.65,38.65,0,0,1,7,38.52V34.16a1.48,1.48,0,0,1,1-1.42L13.1,31a17.18,17.18,0,0,0,11.24,1.58,5.29,5.29,0,0,0,1.52,3.43l4,4A41.47,41.47,0,0,1,21,41Zm20.18-6.36-7,7-6.95-7a3.3,3.3,0,0,1,0-4.67A3.3,3.3,0,0,1,32,30l2.28,2.28L36.51,30a3.3,3.3,0,0,1,4.67,4.67Z"/></g></svg>