<svg id="User_Account_Customer--Passion_24px" xmlns="http://www.w3.org/2000/svg" viewBox="0 0 24 24"><path d="M10 13a5 5 0 10-5-5 5 5 0 005 5zm0-8a3 3 0 11-3 3 3 3 0 013-3zM21.19 13.83a2.74 2.74 0 00-2-.83 2.74 2.74 0 00-2 .83l-.48.49-.48-.49a2.74 2.74 0 00-2-.83 2.74 2.74 0 00-2 .83 3 3 0 00-.42.58 7.29 7.29 0 01-5.53-.74 1 1 0 00-.8-.09l-2.85.88a1 1 0 00-.71 1V20a1 1 0 00.68.95A25.42 25.42 0 0010 22a23.23 23.23 0 005.79-.65l.42.42a.75.75 0 001.08 0l3.9-3.95a2.86 2.86 0 000-3.99zM10 20a25.1 25.1 0 01-6-.75v-3.11l1.75-.53a9.31 9.31 0 005.84.9 2.88 2.88 0 00.72 1.31l1.82 1.85A25 25 0 0110 20zm10.47-2.88l-3.72 3.78-1.46-1.48-2.29-2.3a1.84 1.84 0 010-2.59 1.76 1.76 0 011.29-.53 1.79 1.79 0 011.27.53l1.19 1.21 1.19-1.21a1.79 1.79 0 011.27-.53 1.76 1.76 0 011.26.53 1.84 1.84 0 010 2.59z"/></svg>