<svg xmlns="http://www.w3.org/2000/svg" viewBox="0 0 48 48"><defs></defs><g id="Icon"><path  d="M43.44,19.33,25.25,4.59a2,2,0,0,0-2.49,0L4.57,18.82a1.5,1.5,0,0,0,1.86,2.36L7,20.73V42a2,2,0,0,0,2,2H39a2,2,0,0,0,2-2V21.21l.56.46a1.5,1.5,0,0,0,1.88-2.34ZM38,41H10V18.5s0-.07,0-.11l14-11L38,18.78Z"/><path  d="M17,22a7,7,0,1,0,7-7A7,7,0,0,0,17,22Zm7-4a4,4,0,1,1-4,4A4,4,0,0,1,24,18Z"/><path  d="M29.31,28.63a8.47,8.47,0,0,1-10.62,0,1.51,1.51,0,0,0-1.46-.24L14,29.59A1.5,1.5,0,0,0,13,31v5.5a1.5,1.5,0,0,0,3,0V32.05l1.51-.56a11.48,11.48,0,0,0,13,0l1.51.56V36.5a1.5,1.5,0,0,0,3,0V31a1.5,1.5,0,0,0-1-1.41l-3.25-1.2A1.51,1.51,0,0,0,29.31,28.63Z"/></g></svg>