<svg id="Various_IncreaseValue_24px" xmlns="http://www.w3.org/2000/svg" viewBox="0 0 24 24"><path d="M21 20H4V3a1 1 0 00-2 0v18a1 1 0 001 1h18a1 1 0 000-2z"/><path d="M8 17a.5.5 0 000 1c7.24 0 11.09-3.64 11.46-10.82l1.19 1.18a.52.52 0 00.35.14.5.5 0 00.35-.86l-2-1.92A.48.48 0 0019 5.5a.54.54 0 00-.37.14l-2 2a.49.49 0 000 .7.5.5 0 00.71 0l1.11-1.1C18.1 13.79 14.67 17 8 17zM7 8.25a.5.5 0 00.5.5h.74a3.47 3.47 0 005.55 1.38.5.5 0 000-.7.49.49 0 00-.7 0 2.47 2.47 0 01-3.78-.63H12a.5.5 0 000-1H9a1.9 1.9 0 010-.3 1.9 1.9 0 010-.25h3a.5.5 0 000-1H9.35a2.46 2.46 0 013.81-.6.5.5 0 00.68-.74 3.48 3.48 0 00-5.6 1.34H7.5a.5.5 0 000 1H8a1.9 1.9 0 000 .25 1.9 1.9 0 000 .25h-.5a.5.5 0 00-.5.5z"/></svg>