<svg xmlns="http://www.w3.org/2000/svg" viewBox="0 0 32 32"><defs></defs><g id="Icon"><path  d="M15.69,12.6h0a.75.75,0,0,1-.17-.1L11.33,24.07s0,0,0,0l-1.25,3.44A1,1,0,0,0,11,28.88h2.06a1.08,1.08,0,0,0,.94-.66l.56-1.56h0l4.65-12.81a.58.58,0,0,1-.19,0Z"/><path  d="M27.07,6.74a.84.84,0,0,0-.58-.39c-.42-.07-1.54-.17-2.7-.25a1,1,0,0,1-.89-.74,1,1,0,0,0-.6-.68L18.69,3.35a5.29,5.29,0,0,0-2.89-.26c-2.51.47-4.51,2.62-5.8,4.2a.84.84,0,0,0-.06,1,.81.81,0,0,0,.89.37A9.66,9.66,0,0,1,15,8.69,1,1,0,0,1,15.73,10l-.32.93a.82.82,0,0,0,.27.9.11.11,0,0,1,0,.13l0-.08a.54.54,0,0,0,.16.1h0l3.33,1.23a1.08,1.08,0,0,0,.19,0h0a.78.78,0,0,0,.45-.06.85.85,0,0,0,.43-.48L21,10.85a.27.27,0,0,0,0-.08,1.24,1.24,0,0,1,.44.14c1,.58,2.57,1.74,2.75,1.87a.82.82,0,0,0,.64.15l.1,0a.86.86,0,0,0,.54-.53l1.69-4.94A.86.86,0,0,0,27.07,6.74Z"/></g></svg>