<svg id="Various_EcoSaving_48px" xmlns="http://www.w3.org/2000/svg" viewBox="0 0 48 48"><path d="M24 4c-.51 0-1 0-1.54.08a13.49 13.49 0 00-9 21.84A11 11 0 0116 32.78V33a2 2 0 001 1.76V36a3.49 3.49 0 002 3.16 5 5 0 0010 0A3.49 3.49 0 0031 36v-1.28A2 2 0 0032 33v-.22a11 11 0 012.53-6.85A13.49 13.49 0 0024 4zm3.5 32.5h-7a.5.5 0 01-.5-.5v-1h8v1a.5.5 0 01-.5.5zM24 41a2 2 0 01-1.93-1.5h3.86A2 2 0 0124 41zm8.19-16.95A14 14 0 0029 32H19a14 14 0 00-3.18-8 10.48 10.48 0 017-17A9.93 9.93 0 0124 7a10.51 10.51 0 0110.5 10.5 10.35 10.35 0 01-2.31 6.55z"/><path d="M24.63 11.22a1 1 0 00-1.26 0 10.73 10.73 0 00-4.12 8.28A10.64 10.64 0 0023 27.44V29a1 1 0 002 0v-1.56a10.64 10.64 0 003.75-7.94 10.73 10.73 0 00-4.12-8.28zM25 24.54V20a1 1 0 00-2 0v4.54a8.29 8.29 0 01-1.75-5A8.46 8.46 0 0124 13.33a8.46 8.46 0 012.75 6.17A8.29 8.29 0 0125 24.54z"/></svg>