<svg id="Various_PartnerCompany_64px" xmlns="http://www.w3.org/2000/svg" viewBox="0 0 64 64"><path d="M59.81 28.4L43.35 11.94a1.5 1.5 0 00-2.12 2.12l1 1-2.23 2.2a1.41 1.41 0 01-1 .41H25a1.41 1.41 0 01-1-.41l-2.2-2.2 1-1a1.5 1.5 0 10-2.12-2.12L4.19 28.4a1.51 1.51 0 000 2.12 1.53 1.53 0 001.06.48 1.49 1.49 0 001.06-.44l1-1 6.11 6.11-1 1a4.39 4.39 0 002.85 7.5A4.4 4.4 0 0016.54 47a4.32 4.32 0 002.85 1.26 4.35 4.35 0 001.26 2.85 4.41 4.41 0 002.85 1.27 4.4 4.4 0 007.5 2.83L32.2 54a4.33 4.33 0 001.86.43 4.4 4.4 0 003.12-1.29 4.35 4.35 0 001.26-2.85A4.32 4.32 0 0041.29 49a4.4 4.4 0 001.27-2.85 4.46 4.46 0 002.85-1.27 4.35 4.35 0 001.26-2.85 4.34 4.34 0 002.85-1.26 4.42 4.42 0 00.86-5l6.31-6.31 1 1a1.49 1.49 0 001.06.44 1.53 1.53 0 001.06-.44 1.51 1.51 0 000-2.06zM14.54 38.75l1-1 1.79 1.79.2.21-1 1a1.41 1.41 0 11-2-2zm3.71 5.11a1.39 1.39 0 01.41-1l1-1 .09.09 1.9 1.9-1 1a1.44 1.44 0 01-2 0 1.39 1.39 0 01-.4-.99zM22.77 47l1-1 2 2-1 1a1.41 1.41 0 01-2-2zm6.11 6.11a1.44 1.44 0 01-2 0 1.42 1.42 0 010-2l1-1 .81.81 1.18 1.18zM47.4 38.69a1.44 1.44 0 01-2 0l-7.22-7.22a1.5 1.5 0 10-2.13 2.12l7.23 7.23a1.41 1.41 0 01-2 2l-7.23-7.23a1.5 1.5 0 10-2.12 2.12l7.23 7.23a1.39 1.39 0 01.41 1 1.41 1.41 0 01-.41 1 1.44 1.44 0 01-2 0L30 39.69a1.5 1.5 0 10-2.13 2.12L35.05 49a1.41 1.41 0 01-2 2L30 48l-4.12-4.12-4.11-4.11-6.24-6.24-6.1-6.13 10.23-10.22 2.2 2.2A4.38 4.38 0 0025 20.67h3.41l-7.26 7.23a5.12 5.12 0 007.24 7.23l5.31-5.31 6-.83 7.7 7.7a1.42 1.42 0 010 2zm1.06-5.18l-7.7-7.7L32.3 27l-6 6a2.12 2.12 0 11-3-3l8.94-8.94a1.41 1.41 0 011-.41H39a4.39 4.39 0 003.12-1.29l2.2-2.2L54.57 27.4z"/></svg>