<svg xmlns="http://www.w3.org/2000/svg" viewBox="0 0 64 64"><defs></defs><g id="Icon"><path  d="M49,5H15a2,2,0,0,0-2,2V57a2,2,0,0,0,2,2H49a2,2,0,0,0,2-2V7A2,2,0,0,0,49,5ZM48,56H16V8H48Z"/><path  d="M22.5,45h19a1.5,1.5,0,0,0,0-3h-19a1.5,1.5,0,0,0,0,3Z"/><path  d="M22.5,51h19a1.5,1.5,0,0,0,0-3h-19a1.5,1.5,0,0,0,0,3Z"/><path  d="M26.94,21a1.5,1.5,0,0,0,1.5-1.5,4,4,0,0,1,4.92-3.93,4,4,0,0,1,3,3.05A4,4,0,0,1,34.57,23,7.33,7.33,0,0,0,31,29.22a1.5,1.5,0,0,0,3,0,4.34,4.34,0,0,1,2.16-3.68A7,7,0,0,0,34,12.67,7.08,7.08,0,0,0,28,14.09a7,7,0,0,0-2.6,5.45A1.5,1.5,0,0,0,26.94,21Z"/><path  d="M34.13,34.1a1.48,1.48,0,0,0-.25-.31,2.07,2.07,0,0,0-2.82,0,1.89,1.89,0,0,0-.25.31,1.83,1.83,0,0,0-.18.34,2.4,2.4,0,0,0-.12.38,2.58,2.58,0,0,0,0,.39,2,2,0,0,0,.15.76,2,2,0,0,0,.44.65,1.92,1.92,0,0,0,.65.44,2,2,0,0,0,2.17-.44,2,2,0,0,0,.44-.65,2,2,0,0,0,.15-.76,1.72,1.72,0,0,0,0-.39,1.66,1.66,0,0,0-.11-.38A1.41,1.41,0,0,0,34.13,34.1Z"/></g></svg>