<svg id="Various_IncreaseValue_32px" xmlns="http://www.w3.org/2000/svg" viewBox="0 0 32 32"><path d="M28 27H5V4a1 1 0 00-2 0v23a2 2 0 002 2h23a1 1 0 000-2z"/><path d="M8.18 11a.5.5 0 00.5.5h.86a4.77 4.77 0 007.52 1.86.5.5 0 10-.65-.76 3.76 3.76 0 01-5.76-1.1h3.07a.5.5 0 000-1h-3.45a3.56 3.56 0 010-1.5h3.45a.5.5 0 000-1h-3.07a3.76 3.76 0 015.59-1.24.5.5 0 00.61-.76 4.77 4.77 0 00-7.31 2h-.86a.5.5 0 000 1h.59a4.65 4.65 0 00-.08.75 4.65 4.65 0 00.08.75h-.59a.5.5 0 00-.5.5zM10 23a1 1 0 000 2A16 16 0 0026 9v-.34L27.29 10a1 1 0 001.42 0 1 1 0 000-1.42l-3-3a1 1 0 00-1.42 0l-3 3A1 1 0 0022.71 10L24 8.66V9a14 14 0 01-14 14z"/></svg>