<svg xmlns="http://www.w3.org/2000/svg" viewBox="0 0 48 48"><defs></defs><g id="Icon"><path  d="M43.45,21.07,32.13,9.75A1.5,1.5,0,1,0,30,11.88l.71.7-1.18,1.18a1,1,0,0,1-.71.3H19.17a1,1,0,0,1-.71-.3l-1.18-1.18.71-.7a1.5,1.5,0,0,0-2.12-2.13L4.55,21.07a1.51,1.51,0,0,0,0,2.12,1.51,1.51,0,0,0,2.13,0l.7-.71,3.89,3.89-.7.71a3,3,0,0,0-.88,2.12,3,3,0,0,0,.87,2.12,2.94,2.94,0,0,0,2,.86A2.94,2.94,0,0,0,15.36,35a2.94,2.94,0,0,0,2.83,2.83,2.94,2.94,0,0,0,.86,2,3,3,0,0,0,4.24,0l.84-.84a3,3,0,0,0,1.28.3,3,3,0,0,0,3-2.84,3,3,0,0,0,2.83-2.83,3,3,0,0,0,2.83-2.83,3,3,0,0,0,2-.86,3,3,0,0,0,.58-3.41l4-4,.7.71a1.51,1.51,0,0,0,2.13,0A1.51,1.51,0,0,0,43.45,21.07ZM11.69,29.2a1,1,0,0,1,.29-.71l.71-.71L14.1,29.2l-.71.71a1,1,0,0,1-1.41,0A1,1,0,0,1,11.69,29.2Zm3.12,2.12.7-.71L16.93,32l-.71.7a1,1,0,0,1-1.41,0A1,1,0,0,1,14.81,31.32Zm2.83,2.83.7-.71,1.42,1.42-.71.7a1,1,0,1,1-1.41-1.41Zm4.24,4.24A1,1,0,0,1,20.46,37l.71-.71,1.42,1.42Zm12.73-9.9a1,1,0,0,1-1.42,0L29,24.25h0l-1.41-1.41-1.42,1.41,5.66,5.66a1,1,0,0,1,0,1.41,1,1,0,0,1-1.42,0l-5.65-5.66-1.42,1.42L29,32.73a1,1,0,0,1,.29.71,1,1,0,0,1-1.7.71l-5.66-5.66-1.42,1.42,5.66,5.65a1,1,0,0,1,0,1.42,1,1,0,0,1-1.41,0l-2.12-2.12h0l-.71-.71-.71-.71h0l-2.83-2.83L16.93,29.2,12.69,25h0L8.8,21.07,15.87,14l1.18,1.18a3,3,0,0,0,2.12.88h2.42l-5.37,5.36a3,3,0,0,0,4.24,4.24L24.12,22a1,1,0,0,1,.71-.3h4a1,1,0,0,1,.71.3l5.07,5.07A1,1,0,0,1,34.61,28.49Zm.7-3.53L31,20.59a3,3,0,0,0-2.12-.88h-4a3,3,0,0,0-2.12.88l-3.66,3.66a1,1,0,0,1-1.71-.71,1,1,0,0,1,.3-.7l6.48-6.49a1,1,0,0,1,.71-.29h4A3,3,0,0,0,31,15.18L32.13,14l7.07,7.07Z"/></g></svg>