<svg xmlns="http://www.w3.org/2000/svg" viewBox="0 0 64 64"><defs></defs><g id="Icon"><path  d="M58.07,18.78l-7.33-8.56A3.53,3.53,0,0,0,48.08,9H15.92a3.53,3.53,0,0,0-2.66,1.22L5.93,18.78a3.51,3.51,0,0,0-.09,4.44L29.25,52.93a3.49,3.49,0,0,0,5.5,0L58.16,23.22A3.51,3.51,0,0,0,58.07,18.78ZM19.49,22.5l9.45,25.19L9.09,22.5ZM31,12v7.5H21.49L23.74,12Zm9.26,0,2.28,7.5H33V12Zm2.06,10.5L33,47.46v-25ZM31,22.5v25l-9.37-25Zm13.46,0H54.91L35,47.72Zm4-10.33h0l6.28,7.33H44.63L42.35,12h5.73A.5.5,0,0,1,48.46,12.17Zm-32.92,0a.5.5,0,0,1,.38-.17h5.74l-2.25,7.5H9.26Z"/></g></svg>