<svg id="Various_Insulation_64px" xmlns="http://www.w3.org/2000/svg" viewBox="0 0 64 64"><path d="M57.5 55h-51a1.5 1.5 0 010-3h51a1.5 1.5 0 010 3zM57.5 12h-51a1.5 1.5 0 010-3h51a1.5 1.5 0 010 3zM16.11 25.09a1 1 0 01-1-1A5.24 5.24 0 009.75 19a1 1 0 010-2 7.24 7.24 0 017.36 7.09 1 1 0 01-1 1zM16.11 47a7.24 7.24 0 01-7.36-7.09C8.75 36.36 14.6 27 15.26 26a1 1 0 01.85-.47A1 1 0 0117 26c.67 1.05 6.51 10.37 6.51 13.92a7.23 7.23 0 01-7.4 7.08zm0-18.58c-2.36 3.88-5.36 9.51-5.36 11.49A5.23 5.23 0 0016.11 45a5.23 5.23 0 005.35-5.09c0-1.98-3-7.61-5.35-11.49z"/><path d="M22.46 38.48a1 1 0 01-.84-.47c-.67-1-6.51-10.37-6.51-13.92A7.23 7.23 0 0122.46 17a7.24 7.24 0 017.36 7.09C29.82 27.64 24 37 23.31 38a1 1 0 01-.85.48zm0-19.48a5.23 5.23 0 00-5.35 5.09c0 2 3 7.61 5.35 11.49 2.36-3.88 5.36-9.51 5.36-11.49A5.23 5.23 0 0022.46 19z"/><path d="M28.82 47a7.24 7.24 0 01-7.36-7.09C21.46 36.36 27.31 27 28 26a1 1 0 011.69 0c.66 1.05 6.51 10.37 6.51 13.92A7.24 7.24 0 0128.82 47zm0-18.58c-2.35 3.88-5.36 9.51-5.36 11.49a5.37 5.37 0 0010.72 0c0-1.99-3.01-7.61-5.36-11.49zM13.57 31.84a1 1 0 01-.46-.12 1 1 0 01-.43-1.34c2.11-4.07 2.43-5.69 2.43-6.29A5.24 5.24 0 009.75 19a1 1 0 010-2 7.24 7.24 0 017.36 7.09c0 1.42-.87 3.77-2.65 7.21a1 1 0 01-.89.54z"/><path d="M35.18 38.48a1 1 0 01-.85-.47c-.66-1-6.51-10.37-6.51-13.92a7.37 7.37 0 0114.72 0C42.54 27.64 36.69 37 36 38a1 1 0 01-.82.48zm0-19.48a5.23 5.23 0 00-5.36 5.09c0 2 3 7.61 5.36 11.49 2.35-3.88 5.36-9.51 5.36-11.49A5.24 5.24 0 0035.18 19z"/><path d="M41.54 47a7.24 7.24 0 01-7.36-7.09C34.18 36.36 40 27 40.69 26a1 1 0 01.85-.47 1 1 0 01.84.47c.67 1.05 6.51 10.37 6.51 13.92A7.23 7.23 0 0141.54 47zm0-18.58c-2.36 3.88-5.36 9.51-5.36 11.49a5.36 5.36 0 0010.71 0c0-1.98-3-7.61-5.35-11.49z"/><path d="M47.89 38.48a1 1 0 01-.84-.47c-.67-1-6.51-10.37-6.51-13.92a7.36 7.36 0 0114.71 0c0 3.55-5.85 12.91-6.51 13.91a1 1 0 01-.85.48zm0-19.48a5.23 5.23 0 00-5.35 5.09c0 2 3 7.61 5.35 11.49 2.36-3.88 5.36-9.51 5.36-11.49A5.23 5.23 0 0047.89 19z"/><path d="M54.25 47a7.24 7.24 0 01-7.36-7.09c0-1.35.8-3.57 2.43-6.77a1 1 0 011.34-.43 1 1 0 01.44 1.34c-1.92 3.76-2.21 5.29-2.21 5.86A5.24 5.24 0 0054.25 45a1 1 0 010 2z"/></svg>