<svg id="Various_ThermalControl_32px" xmlns="http://www.w3.org/2000/svg" viewBox="0 0 32 32"><path d="M26 26h-1.7a13 13 0 004.5-12.26A13 13 0 0013.74 3.2a1 1 0 00.34 2 11 11 0 0112.75 8.91A11 11 0 0123 24.48V23a1 1 0 00-2 0v4a1 1 0 001 1h4a1 1 0 000-2zM18 26.82A11 11 0 019 7.55V9a1 1 0 001 1 1 1 0 001-1V5a1 1 0 00-1-1H6a1 1 0 000 2h1.7a13 13 0 0010.61 22.79 1 1 0 00.81-1.16 1 1 0 00-1.12-.81z"/><path d="M17.11 17.84a2.27 2.27 0 00-.34-.19 1.38 1.38 0 00-.27-.08v-3.71h-1v3.72a1.84 1.84 0 00-.91.51A2 2 0 0014 19.5a1.72 1.72 0 000 .39 1.66 1.66 0 00.11.38 2.21 2.21 0 00.18.34 1.87 1.87 0 00.26.3 2 2 0 002.82 0 1.87 1.87 0 00.26-.3 2.21 2.21 0 00.18-.34 1.66 1.66 0 00.11-.38 1.72 1.72 0 000-.39 2 2 0 00-.59-1.41 1.42 1.42 0 00-.22-.25z"/><path d="M18.6 11.1a2.6 2.6 0 00-5.2 0v5.38a4 4 0 00-1.4 3 4 4 0 008 0 4 4 0 00-1.4-3zm.4 8.4a3 3 0 11-4.8-2.39l.2-.16V11.1a1.6 1.6 0 013.2 0V17l.2.15A3 3 0 0119 19.5z"/></svg>