<svg xmlns="http://www.w3.org/2000/svg" viewBox="0 0 64 64"><defs></defs><g id="Icon"><path  d="M57.5,55H6.5a1.5,1.5,0,0,1,0-3h51a1.5,1.5,0,0,1,0,3Z"/><path  d="M57.5,12H6.5a1.5,1.5,0,0,1,0-3h51a1.5,1.5,0,0,1,0,3Z"/><path  d="M16.11,25.09a1,1,0,0,1-1-1A5.24,5.24,0,0,0,9.75,19a1,1,0,0,1,0-2,7.24,7.24,0,0,1,7.36,7.09A1,1,0,0,1,16.11,25.09Z"/><path  d="M16.11,47a7.24,7.24,0,0,1-7.36-7.09C8.75,36.36,14.6,27,15.26,26a1,1,0,0,1,.85-.47h0A1,1,0,0,1,17,26c.67,1.05,6.51,10.37,6.51,13.92A7.23,7.23,0,0,1,16.11,47Zm0-18.58c-2.36,3.88-5.36,9.51-5.36,11.49A5.23,5.23,0,0,0,16.11,45a5.23,5.23,0,0,0,5.35-5.09C21.46,37.93,18.46,32.3,16.11,28.42Z"/><path  d="M22.46,38.48h0a1,1,0,0,1-.84-.47c-.67-1-6.51-10.37-6.51-13.92A7.23,7.23,0,0,1,22.46,17a7.24,7.24,0,0,1,7.36,7.09C29.82,27.64,24,37,23.31,38A1,1,0,0,1,22.46,38.48Zm0-19.48a5.23,5.23,0,0,0-5.35,5.09c0,2,3,7.61,5.35,11.49,2.36-3.88,5.36-9.51,5.36-11.49A5.23,5.23,0,0,0,22.46,19Z"/><path  d="M28.82,47a7.24,7.24,0,0,1-7.36-7.09C21.46,36.36,27.31,27,28,26a1,1,0,0,1,1.69,0c.66,1.05,6.51,10.37,6.51,13.92A7.24,7.24,0,0,1,28.82,47Zm0-18.58c-2.35,3.88-5.36,9.51-5.36,11.49a5.37,5.37,0,0,0,10.72,0C34.18,37.92,31.17,32.3,28.82,28.42Z"/><path  d="M13.57,31.84a1,1,0,0,1-.46-.12,1,1,0,0,1-.43-1.34c2.11-4.07,2.43-5.69,2.43-6.29A5.24,5.24,0,0,0,9.75,19a1,1,0,0,1,0-2,7.24,7.24,0,0,1,7.36,7.09c0,1.42-.87,3.77-2.65,7.21A1,1,0,0,1,13.57,31.84Z"/><path  d="M35.18,38.48a1,1,0,0,1-.85-.47c-.66-1-6.51-10.37-6.51-13.92a7.37,7.37,0,0,1,14.72,0C42.54,27.64,36.69,37,36,38A1,1,0,0,1,35.18,38.48Zm0-19.48a5.23,5.23,0,0,0-5.36,5.09c0,2,3,7.61,5.36,11.49,2.35-3.88,5.36-9.51,5.36-11.49A5.24,5.24,0,0,0,35.18,19Z"/><path  d="M41.54,47a7.24,7.24,0,0,1-7.36-7.09C34.18,36.36,40,27,40.69,26a1,1,0,0,1,.85-.47h0a1,1,0,0,1,.84.47c.67,1.05,6.51,10.37,6.51,13.92A7.23,7.23,0,0,1,41.54,47Zm0-18.58c-2.36,3.88-5.36,9.51-5.36,11.49a5.36,5.36,0,0,0,10.71,0C46.89,37.93,43.89,32.3,41.54,28.42Z"/><path  d="M47.89,38.48h0a1,1,0,0,1-.84-.47c-.67-1-6.51-10.37-6.51-13.92a7.36,7.36,0,0,1,14.71,0C55.25,27.64,49.4,37,48.74,38A1,1,0,0,1,47.89,38.48Zm0-19.48a5.23,5.23,0,0,0-5.35,5.09c0,2,3,7.61,5.35,11.49,2.36-3.88,5.36-9.51,5.36-11.49A5.23,5.23,0,0,0,47.89,19Z"/><path  d="M54.25,47a7.24,7.24,0,0,1-7.36-7.09c0-1.35.8-3.57,2.43-6.77a1,1,0,0,1,1.34-.43,1,1,0,0,1,.44,1.34c-1.92,3.76-2.21,5.29-2.21,5.86A5.24,5.24,0,0,0,54.25,45a1,1,0,0,1,0,2Z"/></g></svg>