<svg xmlns="http://www.w3.org/2000/svg" viewBox="0 0 32 32"><defs></defs><g id="Name"><path  d="M23,3H9A2,2,0,0,0,7,5V27a2,2,0,0,0,2,2H23a2,2,0,0,0,2-2V5A2,2,0,0,0,23,3Zm0,24H9V5H23Z"/><path  d="M10.86,15H21.14a.36.36,0,0,0,.36-.36V6.86a.36.36,0,0,0-.36-.36H10.86a.36.36,0,0,0-.36.36v7.78A.36.36,0,0,0,10.86,15Zm.64-7.5h9V14h-9Z"/><path  d="M10.84,25.5H21.16a.34.34,0,0,0,.34-.34V18.34a.34.34,0,0,0-.34-.34H10.84a.34.34,0,0,0-.34.34v6.82A.34.34,0,0,0,10.84,25.5ZM11.5,19h9v5.5h-9Z"/><path  d="M20.75,16h-1.5a.5.5,0,0,0,0,1h1.5a.5.5,0,0,0,0-1Z"/></g></svg>