<svg xmlns="http://www.w3.org/2000/svg" viewBox="0 0 24 24"><defs></defs><g id="Calque_5" ><path  d="M3.71,4.29a1,1,0,0,0-1.09-.21A1,1,0,0,0,2,5V21a1,1,0,0,0,1,1H19a1,1,0,0,0,.92-.62,1,1,0,0,0-.21-1.09ZM4,20V7.41l2.8,2.8-.4.4a.5.5,0,0,0,0,.71.51.51,0,0,0,.7,0l.4-.4,2.43,2.43-.4.4a.51.51,0,0,0,0,.71.54.54,0,0,0,.36.14.52.52,0,0,0,.35-.14l.4-.4,2.19,2.19-.4.4a.5.5,0,0,0,.35.85.51.51,0,0,0,.36-.15l.4-.4L16.59,20Z"/><path  d="M7.35,14.15A.47.47,0,0,0,6.81,14a.5.5,0,0,0-.31.46V17a.5.5,0,0,0,.5.5H9.5a.5.5,0,0,0,.46-.31.47.47,0,0,0-.11-.54Z"/><path  d="M21.71,11.49l-9.2-9.2a1,1,0,0,0-1.41,0L8.27,5.12A1,1,0,0,0,8,5.83a1,1,0,0,0,.29.71l9.19,9.19a1,1,0,0,0,.71.29H21a1,1,0,0,0,1-1V12.19A1,1,0,0,0,21.71,11.49Zm-9.9-7.08,1.41,1.42L11.81,7.24,10.39,5.83ZM20,14H18.59L12.51,8l1.42-1.41L20,12.61Z"/></g></svg>