<svg id="Various_Level_48px" xmlns="http://www.w3.org/2000/svg" viewBox="0 0 48 48"><path d="M23 18.76a1 1 0 01-.26-.16l-6.42 17.81v.05L15 39.94a3.05 3.05 0 001.81 3.88A3 3 0 0020.72 42l.59-1.61 7.15-19.7a1.35 1.35 0 01-.29-.05zM40.54 9.76a1.24 1.24 0 00-.89-.61c-.79-.13-3.21-.32-5.4-.47a.18.18 0 01-.16-.24 1.48 1.48 0 00-.88-1.86l-5.56-2a8.23 8.23 0 00-4.44-.4c-3.86.71-6.94 4-8.92 6.46a1.28 1.28 0 00-.1 1.49 1.25 1.25 0 001.37.58 15.65 15.65 0 017.91.48.17.17 0 01.11.23l-1 2.82a1.3 1.3 0 00.42 1.35.16.16 0 01.06.19l.05-.12a.82.82 0 00.25.16l5.13 1.89a1.55 1.55 0 00.29 0 1.19 1.19 0 00.7-.09 1.31 1.31 0 00.66-.74l1-2.85a.42.42 0 00.05-.12 1.67 1.67 0 01.67.23c1.52.88 4 2.67 4.24 2.87a1.27 1.27 0 001 .23h.15a1.27 1.27 0 00.83-.8l2.6-7.61a1.29 1.29 0 00-.14-1.07z"/></svg>