<svg xmlns="http://www.w3.org/2000/svg" viewBox="0 0 64 64"><defs></defs><g id="Icon"><path  d="M32,5a19.82,19.82,0,0,0-2.16.12A19.36,19.36,0,0,0,13.18,21.87a20,20,0,0,0,4,15,16.29,16.29,0,0,1,3.57,10V45a2.91,2.91,0,0,0,2,2.83v1.39A3.7,3.7,0,0,0,25,52.53a7,7,0,0,0,13.94,0,3.7,3.7,0,0,0,2.28-3.28V47.86a2.88,2.88,0,0,0,2-2.77v-.32c0-3.65,1.35-5,3.56-7.89A19.88,19.88,0,0,0,51,24.63C51,13.79,42.49,5,32,5Zm4.93,45H27.07c-.81,0-1.32-.44-1.32-.75V48h12.5v1.25C38.25,49.56,37.74,50,36.93,50ZM32,56a4,4,0,0,1-3.86-3h7.72A4,4,0,0,1,32,56ZM44.46,35l-.53.66c-2,2.51-3.67,4.68-3.67,9.07V45H23.65a19.57,19.57,0,0,0-4.11-10,16.93,16.93,0,0,1-3.38-12.76,16.38,16.38,0,0,1,14-14.17C30.78,8,31.4,8,32,8c8.82,0,16,7.46,16,16.63A16.84,16.84,0,0,1,44.46,35Z"/><path  d="M32.63,17.22a1,1,0,0,0-1.26,0A14.62,14.62,0,0,0,25.75,28.5,14.53,14.53,0,0,0,31,39.44V42a1,1,0,0,0,2,0V39.44A14.53,14.53,0,0,0,38.25,28.5,14.62,14.62,0,0,0,32.63,17.22ZM33,36.68V29.5a1,1,0,0,0-2,0v7.18a12.09,12.09,0,0,1-3.25-8.18A12.29,12.29,0,0,1,32,19.32a12.29,12.29,0,0,1,4.25,9.18A12.09,12.09,0,0,1,33,36.68Z"/></g></svg>