<svg xmlns="http://www.w3.org/2000/svg" viewBox="0 0 64 64"><defs></defs><g id="Icon"><path  d="M51.5,18h-7V11A3.5,3.5,0,0,0,41,7.5H23A3.5,3.5,0,0,0,19.5,11v7h-7A7.5,7.5,0,0,0,5,25.5V53a2,2,0,0,0,2,2H57a2,2,0,0,0,2-2V25.5A7.5,7.5,0,0,0,51.5,18Zm-29-7a.5.5,0,0,1,.5-.5H41a.5.5,0,0,1,.5.5v7h-19Zm-10,10h39A4.51,4.51,0,0,1,56,25.5v8H44.5V31.17a1.5,1.5,0,0,0-3,0V33.5h-19V31.17a1.5,1.5,0,0,0-3,0V33.5H8v-8A4.51,4.51,0,0,1,12.5,21ZM8,52V36.5H19.5v2.67a1.5,1.5,0,0,0,3,0V36.5h19v2.67a1.5,1.5,0,0,0,3,0V36.5H56V52Z"/></g></svg>