<svg xmlns="http://www.w3.org/2000/svg" viewBox="0 0 32 32"><defs></defs><g id="Icon"><path  d="M20.8,21.08A7,7,0,0,0,23,16a6.82,6.82,0,0,0-.45-2.44A2.26,2.26,0,0,0,24,11.5a1,1,0,0,0-.55-.89L23,10.36a6.34,6.34,0,0,0-5-5.11V4.5a.5.5,0,0,0-.5-.5h-3a.5.5,0,0,0-.5.5v.75a6.34,6.34,0,0,0-5,5.11l-.49.25A1,1,0,0,0,8,11.5a2.26,2.26,0,0,0,1.45,2.06A6.82,6.82,0,0,0,9,16a7,7,0,0,0,2.2,5.08A5,5,0,0,0,7,26v1a2,2,0,0,0,2,2H23a2,2,0,0,0,2-2V26A5,5,0,0,0,20.8,21.08ZM11,11a4.09,4.09,0,0,1,3-3.66V9.5a.5.5,0,0,0,1,0V7.08a6.29,6.29,0,0,1,2,0V9.5a.5.5,0,0,0,1,0V7.34A4.09,4.09,0,0,1,21,11a1,1,0,0,0,.49.86c-.67.28-2.16.64-5.49.64s-4.82-.36-5.48-.64A1,1,0,0,0,11,11Zm0,5a5.06,5.06,0,0,1,.36-1.83A25.74,25.74,0,0,0,16,14.5a25.74,25.74,0,0,0,4.64-.33A5.06,5.06,0,0,1,21,16a5,5,0,0,1-10,0ZM23,27H9V26a3,3,0,0,1,3-3h8a3,3,0,0,1,3,3Z"/></g></svg>