<svg id="Various_EcoSaving_32px" xmlns="http://www.w3.org/2000/svg" viewBox="0 0 32 32"><path d="M21.89 5.25a8.82 8.82 0 00-14.63 5.34 8.72 8.72 0 001.85 6.74 5.35 5.35 0 011.25 3.36v.1a2.18 2.18 0 001.14 1.91v.8a2.71 2.71 0 001.5 2.58 3 3 0 006 0 2.71 2.71 0 001.5-2.58v-.79a2.18 2.18 0 001.14-1.9v-.13a5.29 5.29 0 011.25-3.34 8.82 8.82 0 00-1-12.09zM16 27a1 1 0 01-.95-.75H17a1 1 0 01-1 .75zm2.5-3.5a1 1 0 01-.27.75h-4.44a.88.88 0 01-.29-.75V23h5zm2.83-7.41a7.26 7.26 0 00-1.69 4.59v.13a.16.16 0 01-.16.16h-7a.16.16 0 01-.16-.18v-.1a7.31 7.31 0 00-1.69-4.61 6.78 6.78 0 01-1.43-5.22 6.87 6.87 0 016-5.82A7 7 0 0116 5a6.71 6.71 0 014.54 1.74 6.82 6.82 0 012.28 5.09 6.75 6.75 0 01-1.49 4.26z"/><path d="M16.32 7.61a.51.51 0 00-.64 0 6.36 6.36 0 00-2.43 4.89 6.28 6.28 0 002.25 4.72v1.28a.5.5 0 001 0v-1.28a6.28 6.28 0 002.25-4.72 6.36 6.36 0 00-2.43-4.89zm.18 8.2V13.5a.5.5 0 00-1 0v2.31a5.09 5.09 0 01-1.25-3.31A5.21 5.21 0 0116 8.66a5.21 5.21 0 011.75 3.84 5.09 5.09 0 01-1.25 3.31z"/></svg>