<svg xmlns="http://www.w3.org/2000/svg" viewBox="0 0 64 64"><defs></defs><g id="Icon"><path  d="M57.5,56H55V50a2,2,0,0,0-2-2H51V28.57h5.81a2.2,2.2,0,0,0,1.34-3.93L33.34,5.52h0a2.19,2.19,0,0,0-2.67,0L5.85,24.64a2.2,2.2,0,0,0,1.34,3.93H13V48H11a2,2,0,0,0-2,2v6H6.5a1.5,1.5,0,0,0,0,3h51a1.5,1.5,0,0,0,0-3ZM48,48H42V28.57h6ZM31,28.57V48H24V28.57Zm2,0h7V48H33ZM32,8.28,54.43,25.57H9.57ZM16,28.57h6V48H16ZM12,56V51H52v5Z"/><path  d="M32,14a4.5,4.5,0,1,0,4.5,4.5A4.51,4.51,0,0,0,32,14Zm0,7a2.5,2.5,0,1,1,2.5-2.5A2.5,2.5,0,0,1,32,21Z"/></g></svg>