<svg id="Various_PartnerCompany_32px" xmlns="http://www.w3.org/2000/svg" viewBox="0 0 32 32"><path d="M28.71 13.24L21.33 5.8a1 1 0 10-1.42 1.4l.22.23-.85.86h-6.56l-.85-.86.22-.23a1 1 0 10-1.42-1.4l-.91.92-6.47 6.52a1 1 0 101.42 1.41l.21-.22 2.29 2.31L7 17a2.34 2.34 0 000 3.27 2.27 2.27 0 001.22.64 2.35 2.35 0 00.63 1.23 2.38 2.38 0 001.21.64 2.29 2.29 0 001.85 1.86 2.36 2.36 0 00.63 1.22 2.29 2.29 0 001.63.68 2.3 2.3 0 001.64-.68l.38-.39a2.12 2.12 0 00.75.14 2.3 2.3 0 001.64-.68 2.36 2.36 0 00.63-1.22A2.34 2.34 0 0020.4 23a2.28 2.28 0 00.6-1.2 2.32 2.32 0 001.22-.63 2.35 2.35 0 00.63-1.23 2.27 2.27 0 001.22-.64 2.33 2.33 0 00.53-2.4l2.45-2.47.21.22a1 1 0 101.42-1.41zM8.83 18.83a.27.27 0 01-.43 0 .34.34 0 010-.46l.22-.21.43.44zm1.84 1.86a.26.26 0 01-.42 0 .32.32 0 010-.46l.21-.21.35.36.09.08zm1.85 1.86a.26.26 0 01-.43 0 .33.33 0 010-.45l.22-.22.44.44zm1.85 1.86a.33.33 0 01-.22.09.31.31 0 01-.21-.09.33.33 0 010-.45l.21-.22.44.44zm8.3-6.51a.26.26 0 01-.42 0l-3.69-3.73-1.42 1.41.92.93 2.77 2.79a.34.34 0 010 .46.27.27 0 01-.43 0L16.71 16l-1.42 1.41L19 21.17a.31.31 0 010 .45.26.26 0 01-.42 0l-3.7-3.72-1.42 1.4 3.68 3.7a.33.33 0 010 .45.26.26 0 01-.43 0L6.33 13l4.13-4.16.84.85a2 2 0 001.42.59h.88l-2.93 3a2.31 2.31 0 003.27 3.27L16.42 14h2.86l3.39 3.43a.32.32 0 010 .47zm.71-2.58l-2.68-2.71a2 2 0 00-1.42-.6h-2.86a2 2 0 00-1.42.6l-2.48 2.49a.25.25 0 01-.42 0 .32.32 0 010-.45l4.33-4.36h2.86a2 2 0 001.41-.59l.84-.85L25.67 13z"/></svg>