<svg xmlns="http://www.w3.org/2000/svg" viewBox="0 0 64 64"><defs></defs><g id="Icon"><path  d="M57.5,56H55V26l1.31,1a1.5,1.5,0,1,0,1.84-2.38L33.33,5.52a2.19,2.19,0,0,0-2.67,0L5.85,24.64A1.5,1.5,0,0,0,7.69,27L9,26V56H6.5a1.5,1.5,0,0,0,0,3h51a1.5,1.5,0,0,0,0-3ZM27,56V44.5H37V56Zm13,0V43.5a2,2,0,0,0-2-2H26a2,2,0,0,0-2,2V56H12V23.69L32,8.28,52,23.69V56Z"/><path  d="M26.5,25.5h-7A1.5,1.5,0,0,0,18,27v7a1.5,1.5,0,0,0,1.5,1.5h7A1.5,1.5,0,0,0,28,34V27A1.5,1.5,0,0,0,26.5,25.5Zm-.5,8H20v-6h6Z"/><path  d="M44.5,25.5h-7A1.5,1.5,0,0,0,36,27v7a1.5,1.5,0,0,0,1.5,1.5h7A1.5,1.5,0,0,0,46,34V27A1.5,1.5,0,0,0,44.5,25.5Zm-.5,8H38v-6h6Z"/></g></svg>