<svg xmlns="http://www.w3.org/2000/svg" viewBox="0 0 24 24"><defs></defs><g id="Calque_5" ><path  d="M12,20a8,8,0,0,1-8-8A7.91,7.91,0,0,1,6,6.72V8A1,1,0,0,0,8,8V4A1,1,0,0,0,7,3H3A1,1,0,0,0,3,5H4.87A9.91,9.91,0,0,0,2,12,10,10,0,0,0,12,22a1,1,0,0,0,0-2Z"/><path  d="M21,19H19.13A9.91,9.91,0,0,0,22,12,10,10,0,0,0,12,2a1,1,0,0,0,0,2,8,8,0,0,1,8,8,7.91,7.91,0,0,1-2,5.28V16a1,1,0,0,0-2,0v4a1,1,0,0,0,1,1h4a1,1,0,0,0,0-2Z"/><path  d="M12.5,12.59V10h-1v2.59a1.5,1.5,0,1,0,1,0Z"/><path  d="M14,8a2,2,0,0,0-4,0v3.78A2.94,2.94,0,0,0,9,14a3,3,0,0,0,6,0,2.94,2.94,0,0,0-1-2.22Zm-2,8a2,2,0,0,1-1.2-3.59l.2-.15V8a1,1,0,0,1,2,0v4.26l.2.15A2,2,0,0,1,12,16Z"/></g></svg>