<svg xmlns="http://www.w3.org/2000/svg" viewBox="0 0 48 48"><defs></defs><g id="Icon"><path  d="M36.26,28.88a1.47,1.47,0,0,0,.57.38l5.08,1.93a1.6,1.6,0,0,0,.53.09,1.5,1.5,0,0,0,1-.39,1.52,1.52,0,0,0,.42-1.52l-1.47-5.12a1.42,1.42,0,0,0-.34-.61L24.25,4.48a1.49,1.49,0,0,0-2.09-.1l-3.61,3.2a1.52,1.52,0,0,0-.5,1.05,1.47,1.47,0,0,0,.4,1.09Zm2.27-2.18,1.17-1,.47,1.66Zm-.11-2.58-1.36,1.21-13-14,1.36-1.21ZM23.05,7.6l1,1-1.36,1.2-1-1Z"/><path  d="M43.41,40.61l-36-36A2,2,0,0,0,6,4,2,2,0,0,0,4,6V42a2,2,0,0,0,2,2H42A2,2,0,0,0,43.41,40.61ZM7,41V8.44l6.65,6.64-1.83,1.84a1,1,0,0,0,0,1.41,1,1,0,0,0,1.41,0l1.84-1.83,3,3.05-1.83,1.83a1,1,0,1,0,1.42,1.41L19.52,21,22.57,24l-1.83,1.83a1,1,0,0,0,1.41,1.42L24,25.42l3.05,3L25.2,30.31a1,1,0,0,0,0,1.41,1,1,0,0,0,1.41,0l1.84-1.83,3.05,3-1.84,1.83a1,1,0,1,0,1.42,1.41l1.83-1.83L39.56,41Z"/><path  d="M13,25.17a.58.58,0,0,0-.41-.17.59.59,0,0,0-.6.59v9.82a.59.59,0,0,0,.59.59H22.4a.59.59,0,0,0,.42-1ZM14,34V29l5,5Z"/></g></svg>