<svg xmlns="http://www.w3.org/2000/svg" viewBox="0 0 24 24"><defs></defs><g id="Calque_5" ><path  d="M12,2A10,10,0,1,0,22,12,10,10,0,0,0,12,2Zm0,18a8,8,0,1,1,8-8A8,8,0,0,1,12,20Z"/><path  d="M17,11.35a3.41,3.41,0,0,0-3.07,0A2,2,0,0,0,12.39,10a2.34,2.34,0,0,1,.53-.94,3.6,3.6,0,0,1,.94-.61C14.37,8.23,15,7.91,15,7.1a1.36,1.36,0,0,0-.45-1A3.39,3.39,0,0,0,12,5.5c-1.55.12-3.21.9-3.21,2.7a3.33,3.33,0,0,0,1.66,2.58A2,2,0,0,0,10,12a1.84,1.84,0,0,0,.08.53,1.79,1.79,0,0,1-1.23.14,2.34,2.34,0,0,1-.94-.62c-.39-.36-.91-.84-1.64-.43a1.6,1.6,0,0,0-.76,1.07,3.54,3.54,0,0,0,.59,2.67A3.52,3.52,0,0,0,8.79,17a2.55,2.55,0,0,0,1.27-.35,3.25,3.25,0,0,0,1.39-2.71,1.91,1.91,0,0,0,2-.58,2.55,2.55,0,0,1,.55,1,3.73,3.73,0,0,1,.05,1.15c0,.63-.09,1.35.61,1.77a1.28,1.28,0,0,0,.68.2,1.45,1.45,0,0,0,.41-.06,3.62,3.62,0,0,0,1.92-2C18.34,14.16,18.54,12.31,17,11.35ZM9.77,8.2c0-1.41,1.75-1.66,2.29-1.71l.44,0a2.09,2.09,0,0,1,1.37.35A.34.34,0,0,1,14,7.1c0,.17-.09.24-.59.5a4.37,4.37,0,0,0-1.19.79,3.4,3.4,0,0,0-.88,1.73l-.06,0C10.64,9.75,9.77,9.06,9.77,8.2Zm-.2,7.55c-1.44.81-2.59-.87-2.64-.95a2.5,2.5,0,0,1-.44-1.87.65.65,0,0,1,.27-.44l0,0c.06,0,.15.06.42.31a3.08,3.08,0,0,0,1.35.85,2.8,2.8,0,0,0,1.89-.17C10.46,14.28,10.28,15.36,9.57,15.75ZM16.8,15a2.77,2.77,0,0,1-1.3,1.45.39.39,0,0,1-.3,0c-.15-.1-.16-.27-.13-.85A4.64,4.64,0,0,0,15,14.12a3.75,3.75,0,0,0-1-1.71,2.74,2.74,0,0,1,2.45-.2C17.73,13,17,14.68,16.8,15Z"/></g></svg>