<svg xmlns="http://www.w3.org/2000/svg" viewBox="0 0 32 32"><defs></defs><g id="Icon"><path  d="M28.25,16.67,27.64,15a2,2,0,0,0-.46-.74L16.57,3.64a2,2,0,0,0-2.82,0L12.66,4.72a2,2,0,0,0,0,2.83l10.6,10.6a2.07,2.07,0,0,0,.74.47l1.69.6a2.09,2.09,0,0,0,.69.12,2,2,0,0,0,1.87-2.67ZM14.08,6.13l1.08-1.08.7.7L14.78,6.83Zm1.4,1.41,1.09-1.08,9,9-1.09,1.08Zm10,9.47.6-.6.34.93Z"/><path  d="M6.41,5A2,2,0,0,0,3,6.41V27a2,2,0,0,0,2,2H25.59a2,2,0,0,0,1.84-1.23A2,2,0,0,0,27,25.59ZM25.59,27H5V6.41l3.94,3.94L7.59,11.71a.48.48,0,0,0,0,.7.48.48,0,0,0,.7,0l1.36-1.35,2.29,2.29-1.35,1.36a.48.48,0,0,0,0,.7.48.48,0,0,0,.7,0l1.36-1.35,2.29,2.29-1.35,1.36a.48.48,0,0,0,0,.7.48.48,0,0,0,.7,0l1.36-1.35,2.29,2.29-1.35,1.36a.48.48,0,0,0,0,.7.48.48,0,0,0,.7,0l1.36-1.35,2.29,2.29-1.35,1.36a.48.48,0,0,0,0,.7.48.48,0,0,0,.7,0l1.36-1.35,4,3.94Z"/><path  d="M10.21,18.5a1,1,0,0,0-1.71.71V22.5a1,1,0,0,0,1,1h3.29a1,1,0,0,0,.71-1.71Zm2.58,4H9.5V19.21l3.3,3.29Z"/></g></svg>