<svg xmlns="http://www.w3.org/2000/svg" viewBox="0 0 64 64"><defs></defs><g id="Icon"><path  d="M39.78,43A13.47,13.47,0,0,0,45.5,32a13.31,13.31,0,0,0-1.09-5.31c1.17-.24,2.33-.52,3.49-.84A1.5,1.5,0,1,0,47.1,23l-1.1.28V23a14.12,14.12,0,0,0-8-12.65V9a2,2,0,0,0-2-2H28a2,2,0,0,0-2,2v1.36A14,14,0,0,0,18,23v.24L16.9,23a1.5,1.5,0,1,0-.8,2.89q1.72.48,3.48.84A13.49,13.49,0,0,0,24.22,43,11.51,11.51,0,0,0,13,54.5V57a2,2,0,0,0,2,2H49a2,2,0,0,0,2-2V54.5A11.51,11.51,0,0,0,39.78,43ZM21,23a11,11,0,0,1,5-9.22V17.5a1.5,1.5,0,0,0,3,0V10h6v7.5a1.5,1.5,0,0,0,3,0V13.79A11.07,11.07,0,0,1,43,23v.92l-.64.12a57.42,57.42,0,0,1-20.83,0l-.27-.21-.09.14-.17,0Zm.5,9a10.41,10.41,0,0,1,1.13-4.74A60,60,0,0,0,32,28a60,60,0,0,0,9.36-.74A10.39,10.39,0,0,1,42.5,32a10.5,10.5,0,0,1-21,0ZM48,56H16V54.5A8.51,8.51,0,0,1,24.5,46h15A8.51,8.51,0,0,1,48,54.5Z"/></g></svg>