<svg xmlns="http://www.w3.org/2000/svg" viewBox="0 0 64 64"><defs></defs><g id="Icon"><path  d="M57.5,33.5H6.5a1.5,1.5,0,0,0,0,3h3V56H9a1.5,1.5,0,0,0,0,3H55a1.5,1.5,0,0,0,0-3h-.5V36.5h3a1.5,1.5,0,0,0,0-3Zm-35.25,3h3.37V56H22.25Zm-2,19.5H16.88V36.5h3.37Zm7.37-19.5H31V56H27.62Zm5.38,0h3.38V56H33Zm5.38,0h3.37V56H38.38Zm5.37,0h3.37V56H43.75Zm-32.25,0h3.38V56H11.5ZM52.5,56H49.12V36.5H52.5Z"/><path  d="M16,18.5H31v12h2v-12H48v12h3V7a2,2,0,0,0-2-2H15a2,2,0,0,0-2,2V30.5h3Zm32-2H33V8H48ZM31,8v8.5H16V8Z"/><path  d="M37.88,28a1,1,0,1,0,0,2h4.24a1,1,0,1,0,0-2Z"/></g></svg>