<svg xmlns="http://www.w3.org/2000/svg" viewBox="0 0 32 32"><defs></defs><g id="Icon"><path  d="M29,9.24a14.15,14.15,0,0,0-.2-2.35A2.29,2.29,0,0,0,26.53,5H26V4a1,1,0,0,0-1-1H7A1,1,0,0,0,6,4V5H5.47A2.29,2.29,0,0,0,3.2,6.89,14.15,14.15,0,0,0,3,9.24a13,13,0,0,0,3,8.3V28a1,1,0,0,0,1,1H25a1,1,0,0,0,1-1V17.54A13,13,0,0,0,29,9.24ZM26.53,7a.3.3,0,0,1,.3.23,12.3,12.3,0,0,1,.17,2,10.86,10.86,0,0,1-1,4.56V7Zm-13.2,9A2.68,2.68,0,0,0,16,13.33V9h8v7.77a11,11,0,0,1-16,0V9h2.67v4.33A2.67,2.67,0,0,0,13.33,16ZM24,5V7H14v6.33a.67.67,0,1,1-1.33,0V7H8V5ZM5,9.24a12.3,12.3,0,0,1,.17-2A.3.3,0,0,1,5.47,7H6v6.8A10.86,10.86,0,0,1,5,9.24ZM8,27V19.47a12.94,12.94,0,0,0,16,0V27Z"/></g></svg>