<svg xmlns="http://www.w3.org/2000/svg" viewBox="0 0 32 32"><defs></defs><g id="Icon"><path  d="M28,27H27V14.47l.36.3A1,1,0,0,0,28,15a1,1,0,0,0,.77-.36,1,1,0,0,0-.13-1.41L17.28,3.76a2,2,0,0,0-2.56,0L3.36,13.23a1,1,0,1,0,1.28,1.54l.36-.3V27H4a1,1,0,0,0,0,2H28a1,1,0,0,0,0-2Zm-9.5,0h-5V21.5h5ZM25,13V27H19.5V21.5a1,1,0,0,0-1-1h-5a1,1,0,0,0-1,1V27H7V13a1,1,0,0,0,0-.17L16,5.3l9,7.53A1,1,0,0,0,25,13Z"/><path  d="M18.5,17.5H21a1,1,0,0,0,1-1V14a1,1,0,0,0-1-1H18.5a1,1,0,0,0-1,1v2.5A1,1,0,0,0,18.5,17.5Zm0-3.5H21v2.5H18.5Z"/><path  d="M13.5,13H11a1,1,0,0,0-1,1v2.5a1,1,0,0,0,1,1h2.5a1,1,0,0,0,1-1V14A1,1,0,0,0,13.5,13Zm0,3.5H11V14h2.5Z"/></g></svg>