<svg id="Various_Level_64px" xmlns="http://www.w3.org/2000/svg" viewBox="0 0 64 64"><path d="M31.18 24.93a2.5 2.5 0 01-.35-.21l-8.7 24v.07l-1.71 4.69a4.1 4.1 0 002.44 5.24 4.09 4.09 0 005.23-2.44l.78-2.16 9.63-26.6a1.76 1.76 0 01-.39-.06zM54.76 12.77a1.71 1.71 0 00-1.2-.82c-1.06-.18-4.34-.43-7.28-.64a.25.25 0 01-.22-.32 2 2 0 00-1.18-2.5l-7.49-2.77a11.12 11.12 0 00-6-.53c-5.21 1-9.35 5.44-12 8.72a1.73 1.73 0 00-.13 2 1.67 1.67 0 001.84.78 21.1 21.1 0 0110.65.65.24.24 0 01.16.31l-1.31 3.82a1.73 1.73 0 00.55 1.87.24.24 0 01.08.27l.06-.16a2.5 2.5 0 00.35.21l6.91 2.55a1.76 1.76 0 00.39.06 1.66 1.66 0 00.94-.12 1.78 1.78 0 00.89-1l1.31-3.84c0-.09.06-.14.06-.16a2.11 2.11 0 01.91.3c2 1.19 5.33 3.6 5.71 3.88a1.73 1.73 0 001.32.31l.2-.05a1.76 1.76 0 001.12-1.09l3.51-10.27a1.76 1.76 0 00-.15-1.46z"/></svg>