<svg xmlns="http://www.w3.org/2000/svg" viewBox="0 0 48 48"><defs></defs><g id="Icon"><path  d="M24,30.8V16.5H21V30.8a4,4,0,1,0,3,0Z"/><path  d="M29,10.5a6.5,6.5,0,0,0-13,0V27.58a9.49,9.49,0,0,0,5.41,16.36,9.59,9.59,0,0,0,1.07.06A9.49,9.49,0,0,0,29,27.58ZM26.83,39.35a6.5,6.5,0,1,1-8.39-9.92L19,29V10.5a3.5,3.5,0,0,1,7,0V29l.56.45a6.5,6.5,0,0,1,.27,9.92Z"/><path  d="M33.5,10h6a1.5,1.5,0,0,0,0-3h-6a1.5,1.5,0,0,0,0,3Z"/><path  d="M39.5,21h-6a1.5,1.5,0,0,0,0,3h6a1.5,1.5,0,0,0,0-3Z"/><path  d="M39.5,14h-6a1.5,1.5,0,0,0,0,3h6a1.5,1.5,0,0,0,0-3Z"/></g></svg>