<svg xmlns="http://www.w3.org/2000/svg" viewBox="0 0 24 24"><defs></defs><g id="Calque_5" ><path  d="M11.58,6.73A.5.5,0,0,0,12,7a.46.46,0,0,0,.23-.06.49.49,0,0,0,.21-.67,1.66,1.66,0,0,1,0-1.62,2.69,2.69,0,0,0,0-2.37.51.51,0,0,0-.67-.23.5.5,0,0,0-.23.67,1.67,1.67,0,0,1,0,1.57A2.62,2.62,0,0,0,11.58,6.73Z"/><path  d="M15.58,6.73A.5.5,0,0,0,16,7a.46.46,0,0,0,.23-.06.49.49,0,0,0,.21-.67,1.66,1.66,0,0,1,0-1.62,2.69,2.69,0,0,0,0-2.37.5.5,0,0,0-.9.44,1.67,1.67,0,0,1,0,1.57A2.62,2.62,0,0,0,15.58,6.73Z"/><path  d="M7.58,6.73A.5.5,0,0,0,8,7a.46.46,0,0,0,.23-.06.49.49,0,0,0,.21-.67,1.66,1.66,0,0,1,0-1.62,2.69,2.69,0,0,0,0-2.37.5.5,0,1,0-.9.44,1.67,1.67,0,0,1,0,1.57A2.62,2.62,0,0,0,7.58,6.73Z"/><path  d="M20,14a2,2,0,0,0-1-1.72V12a3,3,0,0,0-3-3,3,3,0,0,0-2,.78,3,3,0,0,0-4,0A3,3,0,0,0,8,9a3,3,0,0,0-3,3v7a3,3,0,0,0,3,3,3,3,0,0,0,2-.78,3,3,0,0,0,4,0A3,3,0,0,0,16,22a3,3,0,0,0,3-3V15.72A2,2,0,0,0,20,14ZM8,20a1,1,0,0,1-1-1V12a1,1,0,0,1,2,0v7A1,1,0,0,1,8,20Zm4,0a1,1,0,0,1-1-1V12a1,1,0,0,1,2,0v7A1,1,0,0,1,12,20Zm4,0a1,1,0,0,1-1-1V12a1,1,0,0,1,2,0v.28a2,2,0,0,0,0,3.44V19A1,1,0,0,1,16,20Z"/></g></svg>