<svg xmlns="http://www.w3.org/2000/svg" viewBox="0 0 16 16"><defs><style>.cls-1{fill:none;}.cls-2{fill:#999;}</style></defs><title>Media_ReduceScreen_16px</title><g id="Square"><rect class="cls-1" width="16" height="16"/></g><g id="Name"><path class="cls-2" d="M5.7,9H3a1,1,0,0,0,0,2H5v2a1,1,0,0,0,2,0V10.3A1.3,1.3,0,0,0,5.7,9Z"/><path class="cls-2" d="M6,2A1,1,0,0,0,5,3V5H3A1,1,0,0,0,3,7H5.7A1.3,1.3,0,0,0,7,5.7V3A1,1,0,0,0,6,2Z"/><path class="cls-2" d="M10.3,7H13a1,1,0,0,0,0-2H11V3A1,1,0,0,0,9,3V5.7A1.3,1.3,0,0,0,10.3,7Z"/><path class="cls-2" d="M13,9H10.3A1.3,1.3,0,0,0,9,10.3V13a1,1,0,0,0,2,0V11h2a1,1,0,0,0,0-2Z"/></g></svg>