<?xml version="1.0" encoding="UTF-8"?>
<svg width="16px" height="16px" viewBox="0 0 16 16" version="1.1" xmlns="http://www.w3.org/2000/svg" xmlns:xlink="http://www.w3.org/1999/xlink">
    <!-- Generator: Sketch 51 (57462) - http://www.bohemiancoding.com/sketch -->
    <title>Navigation/Display/Tag_Delete/16px</title>
    <desc>Created with Sketch.</desc>
    <defs>
        <path d="M8,8.70710678 L9.64644661,10.3535534 C9.84170876,10.5488155 10.1582912,10.5488155 10.3535534,10.3535534 C10.5488155,10.1582912 10.5488155,9.84170876 10.3535534,9.64644661 L8.70710678,8 L10.3535534,6.35355339 C10.5488155,6.15829124 10.5488155,5.84170876 10.3535534,5.64644661 C10.1582912,5.45118446 9.84170876,5.45118446 9.64644661,5.64644661 L8,7.29289322 L6.35355339,5.64644661 C6.15829124,5.45118446 5.84170876,5.45118446 5.64644661,5.64644661 C5.45118446,5.84170876 5.45118446,6.15829124 5.64644661,6.35355339 L7.29289322,8 L5.64644661,9.64644661 C5.45118446,9.84170876 5.45118446,10.1582912 5.64644661,10.3535534 C5.84170876,10.5488155 6.15829124,10.5488155 6.35355339,10.3535534 L8,8.70710678 Z M8,14 C4.6862915,14 2,11.3137085 2,8 C2,4.6862915 4.6862915,2 8,2 C11.3137085,2 14,4.6862915 14,8 C14,11.3137085 11.3137085,14 8,14 Z" id="path-1"></path>
    </defs>
    <g id="Navigation/Display/Tag_Delete/16px" stroke="none" stroke-width="1" fill="none" fill-rule="evenodd">
        <mask id="mask-2" fill="white">
            <use xlink:href="#path-1"></use>
        </mask>
        <use id="Combined-Shape" fill="#000000" fill-rule="nonzero" xlink:href="#path-1"></use>
        <g id="Tint/brand/brand-01" mask="url(#mask-2)" fill="#78BE20">
            <rect id="Rectangle" x="0" y="0" width="16" height="16"></rect>
        </g>
    </g>
</svg>