<svg xmlns="http://www.w3.org/2000/svg" viewBox="0 0 16 16"><defs><style>.cls-1{fill:none;}.cls-2{fill:#999;}</style></defs><title>Navigation_Publish_Favorite_16px</title><g id="Square"><rect class="cls-1" width="16" height="16"/></g><g id="Icon"><path class="cls-2" d="M7.29,12.91,3.08,8.7a3.53,3.53,0,0,1-1-1.8A3.4,3.4,0,0,1,3.18,3.63,3.52,3.52,0,0,1,8,3.92L8,4l.17-.18a3.5,3.5,0,0,1,4.83,0h0a3.42,3.42,0,0,1,.94,3.06,3.59,3.59,0,0,1-1,1.86l-4.2,4.2A1,1,0,0,1,7.29,12.91ZM5.41,4.79A1.42,1.42,0,0,0,4,6.21a1.45,1.45,0,0,0,.41,1L8,10.79l3.59-3.58a1.45,1.45,0,0,0,.41-1,1.41,1.41,0,0,0-.41-1h0a1.44,1.44,0,0,0-2,0L8,6.8,6.41,5.21A1.4,1.4,0,0,0,5.41,4.79Z"/></g></svg>