<svg xmlns="http://www.w3.org/2000/svg" viewBox="0 0 16 16"><defs><style>.cls-1{fill:none;}.cls-2{fill:#999;}</style></defs><title>Social_View_Like-Negative_16px</title><g id="Square"><rect class="cls-1" width="16" height="16"/></g><g id="Icon"><path class="cls-2" d="M13.91,7.91l-1.4-4.5A2,2,0,0,0,10.6,2H3.71a1,1,0,0,0-1,.84L2,7.34A1,1,0,0,0,3,8.5H4.12L6.35,13l.08.13A2.12,2.12,0,0,0,8.09,14a1.81,1.81,0,0,0,.4,0A1.93,1.93,0,0,0,10,11.8V10.5h2a2,2,0,0,0,1.91-2.59ZM8,8.5v3.35L5.91,7.6V4H10.6L12,8.5Z"/></g></svg>