<svg xmlns="http://www.w3.org/2000/svg" viewBox="0 0 16 16"><defs><style>.cls-1{fill:none;}.cls-2{fill:#999;}</style></defs><title>Social_View_Star--First_16px</title><g id="Square"><rect class="cls-1" width="16" height="16"/></g><g id="Icon"><g id="fiche-produit_avis_full_24px" data-name="fiche-produit/avis/full/24px"><g id="Mask"><path id="path-1" class="cls-2" d="M8,5.16l.52,1L9,7.14l1,.15,1.14.16-.83.81L9.59,9l.19,1.05L10,11.19l-1-.54-1-.51-.94.53-1,.53.17-1.09.16-1-.77-.72-.87-.81L6,7.31l1-.18.45-.9L8,5.16M8,1.93a1,1,0,0,0-.89.55L5.69,5.34,2.47,5.9A1,1,0,0,0,2,7.62L4.29,9.8l-.48,3.12a1,1,0,0,0,1,1.15,1,1,0,0,0,.48-.13L8,12.42l2.85,1.5a1,1,0,0,0,1.45-1.06l-.58-3.17L14,7.46a1,1,0,0,0-.56-1.71l-3.16-.44L8.91,2.48A1,1,0,0,0,8,1.93Z"/></g></g></g></svg>