<svg xmlns="http://www.w3.org/2000/svg" viewBox="0 0 16 16"><defs><style>.cls-1{fill:none;}.cls-2{fill:#999;}</style></defs><title>Social_View_Like_16px</title><g id="Square"><rect class="cls-1" width="16" height="16"/></g><g id="Icon"><path class="cls-2" d="M13.61,6.33A2,2,0,0,0,12,5.52H10V4.22A1.93,1.93,0,0,0,8.49,2a2.09,2.09,0,0,0-2.06.81L4.13,7.52H3A1,1,0,0,0,2,8.68l.71,4.5a1,1,0,0,0,1,.84H10.6a2,2,0,0,0,1.91-1.41l1.4-4.5A2,2,0,0,0,13.61,6.33ZM8.08,4h0Zm2.52,8H5.91V8.42L8,4.17V7.52h4Z"/></g></svg>