<svg xmlns="http://www.w3.org/2000/svg" width="48" height="48" viewBox="0 0 48 48">
    <path d="M42 10H6a2.01 2.01 0 0 0-2 2v24a2.01 2.01 0 0 0 2 2h36a2.01 2.01 0 0 0 2-2V12a2.01 2.01 0 0 0-2-2zm0 2v24H6V12h36zM19.86 28.17h2.27l1.42-8.32h-2.27l-1.42 8.32zm10.49-8.11a5.8 5.8 0 0 0-2.03-.35c-2.24 0-3.82 1.13-3.83 2.74-.01 1.2 1.13 1.86 1.99 2.26.86.4 1.17.67 1.17 1.03-.01.56-.7.82-1.36.82-.9 0-1.39-.13-2.13-.44l-.29-.13-.32 1.86c.53.23 1.51.43 2.53.44 2.38 0 3.92-1.11 3.94-2.84.01-.95-.59-1.67-1.9-2.26-.79-.38-1.28-.64-1.27-1.03.01-.39.41-.72 1.29-.72a4.17 4.17 0 0 1 1.7.32l.2.1.31-1.8zm4.06-.2c-.54 0-.95.15-1.18.69l-3.37 7.62h2.38l.48-1.25h2.9c.07.29.28 1.24.28 1.24H38l-1.83-8.31-1.76.01zm-22.026 1.08A9.44 9.44 0 0 0 10 20.03l.03-.18h3.65c.5.02.89.18 1.03.71l.8 3.82.23 1.15 2.22-5.67h2.4l-3.56 8.3h-2.4l-2.016-7.22zm20.986 4.27l.9-2.32c-.01.02.19-.49.3-.8l.16.72.52 2.4h-1.88z"></path>
</svg>
