<svg xmlns="http://www.w3.org/2000/svg" width="48" height="48" viewBox="0 0 48 48">
    <path d="M42 10H6a2.01 2.01 0 0 0-2 2v24a2.01 2.01 0 0 0 2 2h36a2.01 2.01 0 0 0 2-2V12a2.01 2.01 0 0 0-2-2zm0 2v24H6V12h36zM16.45 31.14a.97.97 0 0 0-.24-.15.73.73 0 0 0-.3-.05h-.18l-.18.05a.57.57 0 0 0-.16.11.44.44 0 0 0-.14.16.78.78 0 0 0-.26-.25.75.75 0 0 0-.37-.08h-.15l-.15.04a.55.55 0 0 0-.14.09.5.5 0 0 0-.12.13v-.23h-.4v1.89h.4v-1.03a.54.54 0 0 1 .14-.37.38.38 0 0 1 .15-.09.57.57 0 0 1 .18-.03.42.42 0 0 1 .32.12.58.58 0 0 1 .11.37v1.05h.4v-1.05a.66.66 0 0 1 .03-.21.57.57 0 0 1 .11-.16.48.48 0 0 1 .33-.12.4.4 0 0 1 .31.12.53.53 0 0 1 .11.37v1.05h.4v-1.19a.94.94 0 0 0-.05-.3.97.97 0 0 0-.15-.24zm2.1.07a.68.68 0 0 0-.59-.27.9.9 0 0 0-.37.07 1.21 1.21 0 0 0-.3.2 1.02 1.02 0 0 0-.27.72 1.03 1.03 0 0 0 .27.71.98.98 0 0 0 .67.28.75.75 0 0 0 .35-.08.59.59 0 0 0 .24-.2v.23h.41v-1.89h-.41v.23zm-.01.96a.76.76 0 0 1-.12.19.59.59 0 0 1-.65.12.46.46 0 0 1-.18-.13.59.59 0 0 1-.11-.19.59.59 0 0 1-.04-.23.64.64 0 0 1 .04-.24.53.53 0 0 1 .29-.32.59.59 0 0 1 .47 0 .46.46 0 0 1 .18.13.52.52 0 0 1 .12.19.86.86 0 0 1 .04.24 1 1 0 0 1-.04.24zm2.31-.25a.44.44 0 0 1 .17.38.53.53 0 0 1-.05.25.61.61 0 0 1-.17.19.68.68 0 0 1-.27.13 1.37 1.37 0 0 1-.36.04H20l-.21-.04-.22-.07a1.2 1.2 0 0 1-.21-.13l.19-.31.11.08.14.06.16.04.21.02a.56.56 0 0 0 .32-.07.18.18 0 0 0 .11-.16.17.17 0 0 0-.08-.14.58.58 0 0 0-.25-.07l-.19-.03a.97.97 0 0 1-.48-.18.46.46 0 0 1-.16-.37.66.66 0 0 1 .05-.25.49.49 0 0 1 .16-.19.9.9 0 0 1 .24-.12 1.15 1.15 0 0 1 .33-.04 1.51 1.51 0 0 1 .42.05.95.95 0 0 1 .34.15l-.18.32-.1-.06-.14-.05-.17-.04-.17-.02a.47.47 0 0 0-.26.07.19.19 0 0 0-.1.16.11.11 0 0 0 .03.08l.07.06.09.03.13.02.19.03a.97.97 0 0 1 .48.18zm3.85-.71a.69.69 0 0 0-.28-.2.86.86 0 0 0-.36-.07.92.92 0 0 0-.38.07.69.69 0 0 0-.3.2.89.89 0 0 0-.19.31c-.05.13-.074.27-.07.41a1.02 1.02 0 0 0 .27.72c.088.083.19.151.3.2.125.044.257.068.39.07a1.35 1.35 0 0 0 .41-.06 1.07 1.07 0 0 0 .37-.21l-.21-.29a.82.82 0 0 1-.26.14.71.71 0 0 1-.28.06.58.58 0 0 1-.36-.12.44.44 0 0 1-.13-.14.52.52 0 0 1-.07-.22h1.39a.22.22 0 0 1 .01-.08v-.08a1.05 1.05 0 0 0-.07-.4.87.87 0 0 0-.18-.31zm-1.15.55a.95.95 0 0 1 .05-.18.42.42 0 0 1 .11-.15.71.71 0 0 1 .14-.1.64.64 0 0 1 .2-.03.44.44 0 0 1 .32.12.68.68 0 0 1 .16.34h-.98zm6.61-.55a.71.71 0 0 0-.59-.27.93.93 0 0 0-.67.27.83.83 0 0 0-.2.32 1.02 1.02 0 0 0 0 .79.76.76 0 0 0 .2.32.79.79 0 0 0 .3.2.87.87 0 0 0 .37.08.71.71 0 0 0 .34-.08.69.69 0 0 0 .25-.2v.23h.41v-1.89h-.41v.23zm-.02.96a.72.72 0 0 1-.11.19.6.6 0 0 1-.42.17.59.59 0 0 1-.23-.05.46.46 0 0 1-.18-.13.45.45 0 0 1-.11-.19.59.59 0 0 1-.04-.23.64.64 0 0 1 .04-.24.45.45 0 0 1 .11-.19.56.56 0 0 1 .41-.18.6.6 0 0 1 .24.05.46.46 0 0 1 .18.13.5.5 0 0 1 .11.19.61.61 0 0 1 .04.24.67.67 0 0 1-.04.24zm-7.53.32a.31.31 0 0 0 .13-.06l.14.35a.98.98 0 0 1-.18.08.79.79 0 0 1-.32.06.68.68 0 0 1-.5-.18.79.79 0 0 1-.17-.55v-.83h-.38v-.38h.38v-.57h.41v.57h.66v.38h-.66v.82a.78.78 0 0 0 .02.16.41.41 0 0 0 .07.11.15.15 0 0 0 .09.06l.12.02a.43.43 0 0 0 .19-.04zm3.71-1.55h.17l.1.02-.12.4-.08-.03h-.16a.48.48 0 0 0-.18.03.28.28 0 0 0-.14.1.49.49 0 0 0-.1.16.66.66 0 0 0-.03.21v1.04h-.38v-1.89h.38v.25a.63.63 0 0 1 .23-.23.78.78 0 0 1 .31-.06zm5.71 0h.17l.1.02-.12.4-.08-.03h-.16a.48.48 0 0 0-.18.03.28.28 0 0 0-.14.1.35.35 0 0 0-.09.16.46.46 0 0 0-.04.21v1.04h-.38v-1.89h.38v.25a.63.63 0 0 1 .23-.23.78.78 0 0 1 .31-.06zm1.92-.72v.99a.68.68 0 0 0-.59-.27.94.94 0 0 0-.37.07 1.21 1.21 0 0 0-.3.2 1.02 1.02 0 0 0-.27.72 1.03 1.03 0 0 0 .27.71.98.98 0 0 0 .67.28.75.75 0 0 0 .35-.08.59.59 0 0 0 .24-.2v.23h.41v-2.65h-.41zm-.01 1.95a.76.76 0 0 1-.12.19.57.57 0 0 1-.18.12.56.56 0 0 1-.23.05.6.6 0 0 1-.24-.05.46.46 0 0 1-.18-.13.86.86 0 0 1-.11-.19.85.85 0 0 1-.04-.23.93.93 0 0 1 .04-.24.86.86 0 0 1 .11-.19.59.59 0 0 1 .18-.13.6.6 0 0 1 .24-.05.56.56 0 0 1 .41.18.52.52 0 0 1 .12.19.86.86 0 0 1 .04.24 1 1 0 0 1-.04.24zm-6.63-.68a.5.5 0 0 0-.13.19.69.69 0 0 0-.04.25.64.64 0 0 0 .04.24.5.5 0 0 0 .13.19.59.59 0 0 0 .18.13.86.86 0 0 0 .24.04 1.01 1.01 0 0 0 .25-.04.56.56 0 0 0 .2-.12l.2.33a1.48 1.48 0 0 1-.25.14 1.06 1.06 0 0 1-1.13-.21.95.95 0 0 1-.21-.31 1.01 1.01 0 0 1 .21-1.1.99.99 0 0 1 .32-.21 1.1 1.1 0 0 1 .41-.07c.137-.003.272.02.4.07.09.038.174.089.25.15l-.2.33a.37.37 0 0 0-.2-.12.7.7 0 0 0-.25-.05.6.6 0 0 0-.42.17zm-6.01-9.31a7.09 7.09 0 0 0 2.7 5.57 7.1 7.1 0 1 1 0-11.13 7.07 7.07 0 0 0-2.7 5.56zm7.1-6.1a6.1 6.1 0 0 1 0 12.2 5.96 5.96 0 0 1-2.79-.68 8.07 8.07 0 0 0 0-10.84 5.96 5.96 0 0 1 2.79-.68zm0-1a7.06 7.06 0 0 0-4.4 1.54 7.09 7.09 0 0 1 0 11.13 7.1 7.1 0 1 0 4.4-12.67z"></path>
</svg>
