<svg xmlns="http://www.w3.org/2000/svg" width="48" height="48" viewBox="0 0 48 48">
    <path d="M42 10H6a2.01 2.01 0 0 0-2 2v24a2.01 2.01 0 0 0 2 2h36a2.01 2.01 0 0 0 2-2V12a2.01 2.01 0 0 0-2-2zm0 2v24H6V12h36zM14.56 31.31h18.88L24 21.83l-9.44 9.48zm-.41-.42l1.46-1.46-.49-.49-.92.92-1.66-1.67-.54.55 2.15 2.15zm.56-3.99l.93-.94-.43-.44-1.48 1.49 2.14 2.15 1.48-1.48-.43-.44-.94.94-.47-.47.76-.76-.44-.44-.75.76-.37-.37zm4.84-1.43l-1.46-.41c.17-.32.09-.75-.2-1.05-.29-.3-.86-.31-1.23.06l-1.08 1.09 2.14 2.16.55-.55-1.74-1.75.35-.35a.4.4 0 0 1 .56-.01.4.4 0 0 1-.01.56l-.32.32 1.86.53.58-.6zm-1-3.4c.67-.67 1.56-.61 2.18.03.62.64.7 1.52.03 2.19-.67.67-1.56.61-2.19-.02-.63-.63-.7-1.52-.02-2.2zm.42.43c-.34.34-.22.76.19 1.18.41.42.83.53 1.17.18.34-.35.23-.75-.19-1.17-.42-.42-.83-.53-1.17-.19zm2.42-1.56l-.4-1.22.63-.64.54 2.09.84.84-.55.55-.84-.84-1.99-.63.6-.61 1.15.45.02.01zm9.92 7.4l-.58-.57 2.15-2.16.58.58-2.15 2.15zm-8.2-8.22l-.33-.33.8-1.68-1.23 1.24-.5-.5L24 16.69l.7.71-.81 1.6 1.62-.79.68.69-2.15 2.15-.49-.5 1.23-1.23-1.67.8zm3.72.3l-.36.37.82.83-.44.44-.82-.83-.47.47 1 1-.43.44-1.55-1.55 2.15-2.16 1.54 1.56-.43.44-1.01-1.01zm2.03 5.47l2.15-2.15.55.54-1.66 1.67.91.92-.49.49-1.46-1.47zm5.84 1.54l-.69 2.29 1.48-1.49.51.51-2.15 2.16-.67-.68.59-2.35v-.01l-1.47 1.48-.5-.5 2.15-2.16.75.75zm-6.2-1.9l-.58-.6.45-1.93.39.39a.39.39 0 1 0 .55-.55l-.42-.42-1.74 1.75-.54-.55 2.14-2.16 1.16 1.16c.36.37.37.91.06 1.23a.92.92 0 0 1-1.05.21l-.42 1.47z"></path>
</svg>
