<svg xmlns="http://www.w3.org/2000/svg" width="48" height="48" viewBox="0 0 48 48">
    <path d="M42 12v24H6V12h36zm0-2H6a2.01 2.01 0 0 0-2 2v24a2.01 2.01 0 0 0 2 2h36a2.01 2.01 0 0 0 2-2V12a2.01 2.01 0 0 0-2-2zM9.14 30.62h23.21a6.46 6.46 0 0 0 3.55-1.02c1.61-1.03 2.63-2.48 2.98-4.36a6.61 6.61 0 0 0-6.5-7.85H15.62A6.61 6.61 0 0 0 9 23.92v6.58c0 .12-.01.12.14.12zm23.24-5.8c.14-.59.46-1.04 1.03-1.29a2.07 2.07 0 0 1 .89-.16c.64.04 1.13.33 1.44.9.113.222.188.462.22.71a1.74 1.74 0 0 1-.67 1.67 1.72 1.72 0 0 1-1.21.39 2.29 2.29 0 0 1-.37-.01 1.79 1.79 0 0 1-1.36-1.29 2.2 2.2 0 0 1 .03-.92zm-4.02-.15c.06-.298.21-.57.43-.78.45-.42.99-.53 1.57-.47.146.019.289.063.42.13v-.08c-.02-.87.02-1.74.07-2.61a.44.44 0 0 1 .34-.41h.16c.17-.01.23.04.25.21a1.55 1.55 0 0 1-.02.43c-.06.58-.08 1.16-.11 1.74-.03.58.01 1.17.03 1.75.01.25.02.5.05.75.06.44.14.87.22 1.3a.18.18 0 0 1-.01.16c-.06.14-.32.22-.45.15a.29.29 0 0 1-.11-.11c-.04-.09-.07-.18-.1-.27-.03-.09.01-.06-.03-.07-.04-.01-.23.19-.35.27a1.6 1.6 0 0 1-1.27.22c-.54-.12-.87-.49-1.05-.99a2.17 2.17 0 0 1-.04-1.32zm-4.49.43a1.94 1.94 0 0 1 .7-1.29c.55-.44 1.53-.51 2.06-.25l.16.07a.2.2 0 0 0 .22-.01.48.48 0 0 1 .26-.07c.18 0 .24.06.24.24v.59c0 .2 0 .54.01.81.032.458.098.912.2 1.36.04.2-.01.29-.19.37-.18.08-.34.06-.44-.16a1.89 1.89 0 0 1-.11-.25l-.22.15c-.48.3-.99.46-1.55.33s-1.12-.55-1.3-1.23a1.64 1.64 0 0 1-.04-.66zm-3.99-.79c.26-.402.653-.7 1.11-.84a1.71 1.71 0 0 1 .81-.08 2.01 2.01 0 0 1 1.06.52c.09.078.167.169.23.27.09.16.06.28-.09.4s-.23.12-.37 0l-.24-.21a1.17 1.17 0 0 0-1.05-.31c-.55.11-1.15.56-1.03 1.38.06.42.28.72.7.86.267.09.553.11.83.06a1 1 0 0 0 .77-.5.83.83 0 0 1 .11-.15.25.25 0 0 1 .34-.06l.11.07a.28.28 0 0 1 .08.32l-.06.14a1.41 1.41 0 0 1-.84.71 2.61 2.61 0 0 1-1.27.12c-.66-.1-1.12-.46-1.35-1.09a1.58 1.58 0 0 1-.12-.62 1.62 1.62 0 0 1 .27-.99zm-2.09 1.08c.02-.4.01-.8.03-1.2a1.98 1.98 0 0 1 .1-.54.35.35 0 0 1 .41-.23.34.34 0 0 1 .31.38l-.06.92a12.78 12.78 0 0 0 0 1.75c.009.083.012.167.01.25a.26.26 0 0 1-.26.28.61.61 0 0 1-.43-.13.26.26 0 0 1-.1-.2c0-.43-.03-.85-.01-1.28zm-.1-3.37c0-.42.41-.75.8-.63.39.12.4.26.47.51a.58.58 0 0 1-.41.75.63.63 0 0 1-.84-.47c-.01-.05-.01-.1-.02-.16zm-1.95 2.05c.01-.29 0-.67.01-1.04a17.76 17.76 0 0 1 .16-1.79c.02-.177.06-.352.12-.52a.31.31 0 0 1 .18-.22.53.53 0 0 1 .41-.02c.11.03.18.138.16.25l-.09.72c-.066.49-.103.985-.11 1.48-.02.65-.03 1.3.01 1.94.02.35.05.7.07 1.05.02.35.04.45.07.68a.4.4 0 0 1-.06.28c-.09.15-.58.17-.67-.03-.02-.04-.05-.09-.07-.14a1.94 1.94 0 0 1-.05-.2 9.65 9.65 0 0 1-.14-1.52c-.01-.28 0-.55 0-.92zm-1.94.15a24.78 24.78 0 0 1 .12-2.52c.02-.13.03-.26.05-.39a2.4 2.4 0 0 1 .12-.58c.08-.23.24-.32.49-.26a.27.27 0 0 1 .24.28.81.81 0 0 1 0 .22c-.04.22-.06.44-.08.67-.05.43-.09.87-.11 1.31-.03.72-.01 1.45.03 2.17.01.27.04.54.06.81.02.27.05.52.08.78a.23.23 0 0 1-.2.27.41.41 0 0 1-.19.01.4.4 0 0 1-.37-.24 1.09 1.09 0 0 1-.07-.24 4.21 4.21 0 0 1-.12-.78c-.01-.07-.01-.13-.02-.19-.027-.44-.037-.88-.03-1.32zm-1.76-.67a.49.49 0 0 1 .46-.12.38.38 0 0 1 .26.3c.032.134.049.272.05.41 0 .85.01 1.7-.03 2.54-.01.2-.08.28-.27.31h-.08c-.29.02-.41-.08-.41-.38.007-.473.007-.943 0-1.41v-.09c-.01-.45-.03-.91-.05-1.37a.27.27 0 0 1 .07-.19zm-.41-1.47c0-.38.31-.72.63-.72a.66.66 0 0 1 .66.64c.01.39-.26.69-.62.68-.36-.01-.69-.32-.67-.6zm18.42 1.97l.15.01a.64.64 0 0 1 .54.38c.028.062.051.125.07.19.053.246.067.5.04.75a.93.93 0 0 1-.69.89c-.75.22-1.19-.29-1.24-.81a1.84 1.84 0 0 1 .1-.77.92.92 0 0 1 .71-.6l.32-.04zm-3.16 1.19v.16a.75.75 0 0 1-.25.61 1.56 1.56 0 0 1-.68.37c-.45.11-.84-.03-1.17-.34a.94.94 0 0 1-.25-.47 1.25 1.25 0 0 1 .83-1.46 1.6 1.6 0 0 1 .84-.03c.4.08.58.27.65.67.03.162.04.326.03.49zm7.27 1.16c-.58.02-1.06-.34-1.18-.85a1.51 1.51 0 0 1 .01-.67c.07-.37.34-.67.7-.78a1.85 1.85 0 0 1 .58-.09 1 1 0 0 1 .96.7c.088.254.112.525.07.79a.96.96 0 0 1-.43.67c-.23.15-.48.25-.71.23z"></path>
</svg>
