<svg xmlns="http://www.w3.org/2000/svg" width="48" height="48" viewBox="0 0 48 48">
    <path d="M42 10H6a2.01 2.01 0 0 0-2 2v24a2.01 2.01 0 0 0 2 2h36a2.01 2.01 0 0 0 2-2V12a2.01 2.01 0 0 0-2-2zm0 2v24H6V12h36zm-32 9.05v6.4c0 .16.01.42.01.5 0 .08.02.11.11.1h1.11v-4.96c0-.12.01-.24.02-.36.03-.39.22-.64.56-.72a2.1 2.1 0 0 1 .9 0 .64.64 0 0 1 .51.45c.025.086.045.172.06.26.06.474.07.954.03 1.43a2.63 2.63 0 0 1-.1.56.62.62 0 0 1-.53.49 5.07 5.07 0 0 1-.56.05h-.43v1.03c.44-.02.87-.01 1.3-.07.73-.1 1.22-.52 1.41-1.24a4.61 4.61 0 0 0 .13-.97c.03-.57.06-1.04-.09-1.69-.15-.65-.51-1.1-1.18-1.27a3.57 3.57 0 0 0-1.13-.06 2.13 2.13 0 0 0-1.09.4H11v-.33h-1zm21.97-3.23v.15c0 2.13 0 4.27.01 6.4 0 .26.03.518.09.77.13.54.49.88 1.02 1.02a4.15 4.15 0 0 0 2.07 0c.69-.19 1.1-.66 1.25-1.34a5.66 5.66 0 0 0 0-2.39c-.16-.77-.69-1.25-1.48-1.33-.4-.05-.81-.03-1.22-.04h-.04v1.01h.12c.23 0 .47-.01.7.01.43.03.68.23.75.66a5.62 5.62 0 0 1-.02 1.83c-.09.46-.29.64-.75.68a2.73 2.73 0 0 1-.7-.01c-.37-.05-.54-.27-.57-.68-.01-.1-.01-.2-.01-.3v-6.3c1.85.49 3.26 1.53 4.1 3.24 1.1 2.25.92 4.45-.54 6.48a6.09 6.09 0 0 1-5.56 2.48V22.9h-1.28v7.02c-2-.71-3.39-2.02-4.03-4.02-.64-2-.25-4.09 1.11-5.85h.04v4.78c-.002.18.012.361.04.54.08.46.35.74.81.84.42.1.84.05 1.28.06v-1.06h-.65c-.16 0-.22-.06-.23-.22-.01-.16-.01-.21-.01-.32-.01-1.87 0-3.74-.01-5.61a.24.24 0 0 1 .13-.24 6.18 6.18 0 0 1 3.5-1h.08zm-2.14 3.93c0 .37.17.62.49.68.128.027.26.033.39.02.34-.04.52-.23.56-.57v-.23a.61.61 0 0 0-.51-.58 1.41 1.41 0 0 0-.29-.01c-.43.03-.64.26-.64.69zm-9.59-.69h1.22v.14c-.01 1.07-.01 2.14-.01 3.21 0 .137.01.274.03.41a.45.45 0 0 0 .32.36 1.82 1.82 0 0 0 1.13-.01.48.48 0 0 0 .35-.46c.01-.12.02-.23.02-.35.01-1.05.01-2.11.01-3.16v-.14h1.19c0 .04.01.08.01.12 0 1.85 0 3.7-.01 5.55 0 .188-.02.376-.06.56-.08.39-.34.63-.73.72-.39.09-.85.04-1.28.06v-1.01h.66a.2.2 0 0 0 .2-.19v-.67l-.84.06a3.11 3.11 0 0 1-1.21-.16c-.6-.22-.93-.66-.98-1.3-.01-.19-.01-.38-.01-.57 0-1.01 0-2.02-.01-3.03v-.14zm-.67-.01v5.21h-1.21V26a2.65 2.65 0 0 1-.44.17 2.97 2.97 0 0 1-1.67-.04c-.63-.19-.97-.65-1.1-1.27a4.17 4.17 0 0 1-.1-.78c-.02-.58-.04-1.15.09-1.72.2-.87.71-1.31 1.6-1.38a3.85 3.85 0 0 1 1.07.06c.27.062.524.185.74.36v-.35h1.02zm-1.21 2.54c0-.14.01-.28 0-.42-.01-.14.01-.28 0-.42-.03-.45-.24-.71-.65-.76a4.33 4.33 0 0 0-.72 0 .68.68 0 0 0-.63.53 2.3 2.3 0 0 0-.06.28c-.01.46-.03.93-.03 1.39.008.197.042.392.1.58a.62.62 0 0 0 .54.47c.232.037.467.043.7.02.5-.07.74-.36.75-.86v-.81z"></path>
</svg>
