<svg xmlns="http://www.w3.org/2000/svg" width="48" height="48" viewBox="0 0 48 48">
    <path d="M42 10H6a2.01 2.01 0 0 0-2 2v24a2.01 2.01 0 0 0 2 2h36a2.01 2.01 0 0 0 2-2V12a2.01 2.01 0 0 0-2-2zm0 2v24H6V12h36zM17.78 23.53h6.81c-.06-1.34-.41-2.73-1.45-3.62-1.23-1.06-3.4-1.45-5.34-1.45s-4.25.43-5.49 1.57C11.23 21.01 11 22.58 11 24c0 1.42.45 3.21 1.62 4.21 1.17 1 3.24 1.33 5.18 1.33 1.94 0 3.92-.31 5.15-1.32 1.23-1.01 1.65-2.69 1.65-4.22h-6.82v-.47zm7.26.46v5.31h9.47A2.62 2.62 0 0 0 37 26.68c0-1.4-1.1-2.62-2.49-2.69h-9.47zm11.79-2.89a2.41 2.41 0 0 0-2.43-2.42 2.81 2.81 0 0 0-.29-.01h-9.07v4.86h9.55a2.45 2.45 0 0 0 2.24-2.43z"></path>
</svg>
