<svg xmlns="http://www.w3.org/2000/svg" width="48" height="48" viewBox="0 0 48 48">
    <path d="M42 12v24H6V12h36zm0-2H6a2.01 2.01 0 0 0-2 2v24a2.01 2.01 0 0 0 2 2h36a2.01 2.01 0 0 0 2-2V12a2.01 2.01 0 0 0-2-2zm-6.63 8.49v.58l-.33-.58h-2.41v.58l-.3-.58h-3.25c-.55 0-1.02.07-1.41.29v-.29h-2.25v.29c-.24-.22-.58-.29-.95-.29h-8.2l-.55 1.27-.57-1.27h-2.58v.58l-.29-.58h-2.2l-.04.18-.11.24-1.51 3.54-.42.98h2.5l.32-.78h.74l.32.78h2.84v-.6l.25.6h1.48l.25-.61v.61h7.06v-1.3h.13c.1 0 .13.01.13.17v1.12h3.65v-.3c.418.21.882.313 1.35.3h1.54l.33-.79h.73l.32.79h2.96v-.75l.45.75h2.37v-4.93h-2.35zm-18.06 4.23v-2.76l-1.22 2.76h-.75l-1.22-2.77v2.77H12.4l-.33-.78h-1.76l-.33.78h-.91l1.51-3.53h1.26l1.43 3.35v-3.35h1.38l1.11 2.4 1.01-2.4h1.41v3.53h-.87zm4.32-2.79h-1.98v.63h1.93v.73h-1.93v.7h1.98v.73h-2.82v-3.53h2.82v.74zm3.8 1.45c.12.18.14.33.14.65v.69h-.85v-.44c0-.21.02-.52-.13-.69-.15-.17-.32-.15-.62-.15h-.91v1.28h-.84v-3.53h1.94c.43 0 .75.01 1.02.17a.82.82 0 0 1 .43.78.97.97 0 0 1-.59.94.97.97 0 0 1 .41.3zm1.53 1.34h-.86v-3.53h.86v3.53zm10.01 0h-1.2l-1.6-2.65v2.65h-1.72l-.33-.78h-1.76l-.32.78h-.99c-.41 0-.93-.09-1.22-.39-.29-.3-.45-.7-.45-1.35 0-.65.09-1 .45-1.38.36-.38.7-.41 1.29-.41h.82v.76h-.81c-.3 0-.48.04-.65.21-.17.17-.24.43-.24.8 0 .37.08.65.23.83.15.18.37.18.59.18h.38l1.19-2.78h1.27l1.43 3.34v-3.34h1.29l1.48 2.46v-2.46h.87v3.53zM24.5 19.99a.32.32 0 0 1 .18.31.36.36 0 0 1-.17.34.81.81 0 0 1-.42.07h-1.03v-.78h1.04a.82.82 0 0 1 .4.06zm6.16 1.21h1.17l-.58-1.41-.59 1.41zm-20.05 0l.58-1.41.58 1.41h-1.16zm13.4 4.81c.31 0 .52.12.52.43s-.2.47-.53.47h-1.09v-.9h1.1zm-7.37 0h2.12l.92 1.03-.96 1.03h-2.08v-.7h1.85v-.72h-1.85v-.64zm5.43 2.48l-1.3-1.44 1.3-1.4v2.84zm6.05-2.42a.35.35 0 0 1 .18.32.39.39 0 0 1-.18.34.86.86 0 0 1-.41.07h-1.03v-.79h1.04a.82.82 0 0 1 .4.06zM40 27.69a1.82 1.82 0 0 0-.24-.96h.07v-2.16h-2.4a2.18 2.18 0 0 0-.93.19v-.19h-2.32c-.37 0-.8.09-1 .29v-.29h-4.14v.29c-.32-.24-.88-.29-1.13-.29h-2.73v.29c-.26-.25-.84-.29-1.19-.29h-3.05l-.7.76-.65-.76h-4.55v4.93h4.46l.72-.76.68.76h2.76v-1.15h.27c.36 0 .79-.01 1.17-.18v1.33h2.27v-1.28h.11c.14 0 .16 0 .16.14v1.14h6.9c.4 0 .82-.09 1.08-.26v.27h2.35a2.57 2.57 0 0 0 1-.17l.15-.06c.8-.43.88-1.27.88-1.59zm-16.04-.07h-1.05v1.19h-1.64l-1.04-1.17-1.08 1.17H15.8v-3.54h3.4l1.04 1.16 1.07-1.16h2.7c.67 0 1.42.19 1.42 1.17s-.73 1.18-1.47 1.18zm5.09-.16c.12.18.14.34.14.65v.7h-.85v-.44c0-.21.02-.53-.14-.69-.16-.16-.31-.16-.62-.16h-.9v1.29h-.85v-3.54h1.95c.43 0 .74.02 1.02.17.28.15.43.38.43.79a.99.99 0 0 1-.6.94.94.94 0 0 1 .42.29zm3.47-1.45h-1.98v.64h1.93v.72h-1.93v.7h1.98v.73H29.7v-3.53h2.82v.74zm.51 2.8v-.76h1.64c.16 0 .27-.02.34-.09a.31.31 0 0 0 0-.46.47.47 0 0 0-.3-.08c-.79-.03-1.78.03-1.78-1.09 0-.52.32-1.06 1.21-1.06h1.69v.76h-1.55c-.15 0-.25 0-.34.06a.28.28 0 0 0-.12.26.26.26 0 0 0 .18.26.99.99 0 0 0 .33.04h.45c.46.01.78.09.97.29.19.2.25.38.25.74 0 .77-.47 1.12-1.33 1.12l-1.64.01zm6.08-.44l-.04.05-.06.06-.07.07-.03.02-.09.06h-.02a1.63 1.63 0 0 1-.44.14h-.03l-.13.02h-1.86v-.76h1.63c.16 0 .27-.02.34-.09a.29.29 0 0 0 .1-.23.27.27 0 0 0-.11-.21.44.44 0 0 0-.29-.08c-.8-.03-1.79.03-1.79-1.09a1.02 1.02 0 0 1 .26-.7c.01-.02.03-.03.04-.04l.04-.04.04-.03.05-.04.04-.02.06-.04.04-.02.08-.03h.03l.09-.03h.03l.11-.02h2v.76h-1.66a.39.39 0 0 0-.23.06.26.26 0 0 0-.13.26.27.27 0 0 0 .18.26c.107.031.219.045.33.04h.46c.35.01.61.06.8.16a.7.7 0 0 1 .16.13c.01 0 .01.01.02.02.15.16.24.37.24.72a1.14 1.14 0 0 1-.19.64z"></path>
</svg>
