<svg xmlns="http://www.w3.org/2000/svg" viewBox="0 0 48 48"><path fill="#222020" d="M42 8l-18 4L6 8a2 2 0 0 0-2 2v24a2 2 0 0 0 2 2l18 4 18-4a2 2 0 0 0 2-2V10a2 2 0 0 0-2-2zM7 11.3l16 3.55V36.7L7 33.15zm34 21.85L25 36.7V14.85l16-3.55z"/><path d="M29 20a1 1 0 0 0 .24 0l8-2a1 1 0 1 0-.48-2l-8 2a1 1 0 0 0 .24 2zM29 26a1 1 0 0 0 .24 0l8-2a1 1 0 1 0-.48-2l-8 2a1 1 0 0 0 .24 2zM10.76 18l8 2a1 1 0 0 0 1.24-.76 1 1 0 0 0-.76-1.24l-8-2a1 1 0 0 0-.48 2zM19.24 24l-8-2a1 1 0 0 0-.48 2l8 2a1 1 0 0 0 1.24-.76 1 1 0 0 0-.76-1.24zM19.24 30l-8-2a1 1 0 1 0-.48 2l8 2a1 1 0 0 0 1.24-.76 1 1 0 0 0-.76-1.24zM34.76 28.53l-6 1.5A1 1 0 0 0 29 32a1 1 0 0 0 .24 0l6-1.5a1 1 0 1 0-.48-1.94z"/></svg>