<svg xmlns="http://www.w3.org/2000/svg" viewBox="0 0 24 24"><path fill="#222020" d="M9.41 15.13a1.67 1.67 0 0 0-.69-.13H7.5v3.38h.81v-1.13h.4a1.84 1.84 0 0 0 .69-.13 1 1 0 0 0 .48-.4 1 1 0 0 0 .17-.61 1 1 0 0 0-.17-.6 1.12 1.12 0 0 0-.47-.38zm-.34 1.35a.65.65 0 0 1-.41.13h-.35v-1h.37a.62.62 0 0 1 .4.12.42.42 0 0 1 .14.35.43.43 0 0 1-.15.4z"/><path d="M11.88 15h-1.26v3.38h1.26a1.52 1.52 0 0 0 1.65-1.69 1.65 1.65 0 0 0-.45-1.28 1.69 1.69 0 0 0-1.2-.41zm.57 2.5a.92.92 0 0 1-.65.23h-.37v-2.08h.37a1 1 0 0 1 .66.22 1.1 1.1 0 0 1 .24.82 1.06 1.06 0 0 1-.25.81zM14.18 18.38h.81v-1.3h1.25v-.62h-1.25v-.81h1.51V15h-2.32v3.38z"/><path d="M14 2H5a1 1 0 0 0-1 1v18a1 1 0 0 0 1 1h14a1 1 0 0 0 1-1V8a1 1 0 0 0-.29-.71l-5-5A1 1 0 0 0 14 2zm1 3.41L16.59 7H15zM6 20V4h7v4a1 1 0 0 0 1 1h4v11z"/></svg>