<svg xmlns="http://www.w3.org/2000/svg" viewBox="0 0 24 24"><path fill="#222020" d="M12 17a4.5 4.5 0 1 1 4.5-4.5A4.51 4.51 0 0 1 12 17zm0-7a2.5 2.5 0 1 0 2.5 2.5A2.5 2.5 0 0 0 12 10z"/><path d="M15.17 6l1.12 1.12a3 3 0 0 0 2.12.88H20v10H4V8h1.59a3 3 0 0 0 2.12-.88L8.83 6h6.34m.42-2H8.41a1 1 0 0 0-.7.29L6.29 5.71a1 1 0 0 1-.7.29H3a1 1 0 0 0-1 1v12a1 1 0 0 0 1 1h18a1 1 0 0 0 1-1V7a1 1 0 0 0-1-1h-2.59a1 1 0 0 1-.7-.29l-1.42-1.42a1 1 0 0 0-.7-.29z"/><path d="M6 11a1 1 0 1 1 0-2 1 1 0 0 1 0 2z"/></svg>