<svg xmlns="http://www.w3.org/2000/svg" viewBox="0 0 48 48"><path fill="#222020" d="M32 17a1 1 0 0 0 1 1h5a1 1 0 0 0 0-2h-5a1 1 0 0 0-1 1z"/><path d="M42 10h-4V6a2 2 0 0 0-2-2H12a2 2 0 0 0-2 2v4H6a2 2 0 0 0-2 2v24a2 2 0 0 0 2 2h4v4a2 2 0 0 0 2 2h24a2 2 0 0 0 2-2v-4h4a2 2 0 0 0 2-2V12a2 2 0 0 0-2-2zM13 7h22v3H13zm22 28v6H13V27h22zm6 0h-3v-8.09a1.5 1.5 0 0 0-.5-2.91h-27a1.5 1.5 0 0 0-.5 2.91V35H7V13h34z"/><path d="M17 32h14a1 1 0 0 0 0-2H17a1 1 0 0 0 0 2zM17 38h14a1 1 0 0 0 0-2H17a1 1 0 0 0 0 2z"/></svg>