<svg xmlns="http://www.w3.org/2000/svg" viewBox="0 0 48 48"><path fill="#222020" d="M19.4 32.23a3.17 3.17 0 0 0-1.23-.23H16v6h1.44v-2h.71a3 3 0 0 0 1.23-.24 1.9 1.9 0 0 0 .85-.7 1.83 1.83 0 0 0 .31-1.06 1.89 1.89 0 0 0-.3-1.07 2.09 2.09 0 0 0-.84-.7zm-.61 2.4a1.1 1.1 0 0 1-.73.23h-.62v-1.71h.66a1.08 1.08 0 0 1 .7.21.77.77 0 0 1 .26.63.78.78 0 0 1-.27.64z"/><path d="M23.79 32h-2.25v6h2.25a3 3 0 0 0 2.13-.74 3 3 0 0 0 .8-2.26 2.94 2.94 0 0 0-.8-2.27 3 3 0 0 0-2.13-.73zm1 4.44a1.62 1.62 0 0 1-1.17.41H23v-3.7h.65a1.65 1.65 0 0 1 1.17.4 1.93 1.93 0 0 1 .43 1.45 1.92 1.92 0 0 1-.44 1.44zM27.87 38h1.45v-2.3h2.22v-1.11h-2.22v-1.44H32V32h-4.13v6z"/><path d="M37.41 11.41l-6.82-6.82A2 2 0 0 0 29.17 4H12a2 2 0 0 0-2 2v36a2 2 0 0 0 2 2h24a2 2 0 0 0 2-2V12.83a2 2 0 0 0-.59-1.42zM29.5 7.74l4.76 4.76H29.5zM35 41H13V7h13.5v7a1.5 1.5 0 0 0 1.5 1.5h7z"/></svg>