<svg xmlns="http://www.w3.org/2000/svg" viewBox="0 0 64 64"><path fill="#222020" d="M57.5 11.5H20.85A8 8 0 005 13v38a8 8 0 008 8h44.5a1.5 1.5 0 001.5-1.5V13a1.5 1.5 0 00-1.5-1.5zM8 13a5 5 0 0110 0v31.76A8 8 0 0013 43a6.34 6.34 0 00-.76 0h-.25l-.5.08-.28.06-.45.11-.27.09-.43.16-.26.1-.45.22-.2.1a8.23 8.23 0 00-1.15.84zm48 43H13a5 5 0 115-5 1.5 1.5 0 003 0V14.5h35z"/><path d="M29.5 33a1 1 0 001-1v-.55l8-7.11 8 7.11V45a1 1 0 000 2h1a1 1 0 001-1V31a1 1 0 00-.34-.75l-9-8a1 1 0 00-1.32 0l-9 8a1.15 1.15 0 00-.14.17 1.1 1.1 0 00-.09.14 3 3 0 00-.08.38v1A1 1 0 0029.5 33zM29.5 42.75a1 1 0 001-1v-1.63a1 1 0 00-2 0v1.63a1 1 0 001 1zM29.5 37.88a1 1 0 001-1v-1.63a1 1 0 00-2 0v1.63a1 1 0 001 1zM29.5 47h1a1 1 0 000-2 1 1 0 00-2 0v1a1 1 0 001 1zM42.5 45h-2a1 1 0 000 2h2a1 1 0 000-2zM36.5 45h-2a1 1 0 000 2h2a1 1 0 000-2z"/></svg>