<svg xmlns="http://www.w3.org/2000/svg" viewBox="0 0 32 32"><path fill="#222020" d="M13.35 3H4.5A1.5 1.5 0 0 0 3 4.5v8.85a1.5 1.5 0 0 0 1.5 1.5h8.85a1.5 1.5 0 0 0 1.5-1.5V4.5a1.5 1.5 0 0 0-1.5-1.5zm-.5 9.85H5V5h7.85z"/><path d="M27.5 3h-8.85a1.5 1.5 0 0 0-1.5 1.5v8.85a1.5 1.5 0 0 0 1.5 1.5h8.85a1.5 1.5 0 0 0 1.5-1.5V4.5A1.5 1.5 0 0 0 27.5 3zm-.5 9.85h-7.85V5H27zM13.35 17.15H4.5a1.5 1.5 0 0 0-1.5 1.5v8.85A1.5 1.5 0 0 0 4.5 29h8.85a1.5 1.5 0 0 0 1.5-1.5v-8.85a1.5 1.5 0 0 0-1.5-1.5zm-.5 9.85H5v-7.85h7.85zM27.5 17.15h-8.85a1.5 1.5 0 0 0-1.5 1.5v8.85a1.5 1.5 0 0 0 1.5 1.5h8.85a1.5 1.5 0 0 0 1.5-1.5v-8.85a1.5 1.5 0 0 0-1.5-1.5zM27 27h-7.85v-7.85H27z"/></svg>