<svg xmlns="http://www.w3.org/2000/svg" viewBox="0 0 48 48"><path fill="#222020" d="M25.45 24.76V11.5A1.5 1.5 0 0 0 24 10a1.5 1.5 0 0 0-1.5 1.5v13.29a4.48 4.48 0 0 0 0 8.42v3.29A1.5 1.5 0 0 0 24 38a1.5 1.5 0 0 0 1.5-1.5v-3.26a4.47 4.47 0 0 0 0-8.48zM24 30.5a1.5 1.5 0 1 1 1.5-1.5 1.5 1.5 0 0 1-1.5 1.5z"/><path d="M42.5 24a4.49 4.49 0 0 0-3-4.24V11.5A1.5 1.5 0 0 0 38 10a1.5 1.5 0 0 0-1.5 1.5v8.29a4.48 4.48 0 0 0 0 8.42v8.29A1.5 1.5 0 0 0 38 38a1.5 1.5 0 0 0 1.5-1.5v-8.26a4.49 4.49 0 0 0 3-4.24zM38 25.5a1.5 1.5 0 1 1 1.5-1.5 1.5 1.5 0 0 1-1.5 1.5zM11.45 15.76V11.5A1.5 1.5 0 0 0 10 10a1.5 1.5 0 0 0-1.5 1.5v4.29a4.48 4.48 0 0 0 0 8.42V36.5A1.5 1.5 0 0 0 10 38a1.5 1.5 0 0 0 1.5-1.5V24.24a4.47 4.47 0 0 0 0-8.48zM10 21.5a1.5 1.5 0 1 1 1.5-1.5 1.5 1.5 0 0 1-1.5 1.5z"/></svg>