<svg xmlns="http://www.w3.org/2000/svg" viewBox="0 0 48 48"><path fill="#222020" d="M24 4a20 20 0 1 0 20 20A20 20 0 0 0 24 4zm0 37a17 17 0 1 1 17-17 17 17 0 0 1-17 17z"/><path d="M24 14a6 6 0 0 0-6 6 1.5 1.5 0 0 0 3 0 3 3 0 0 1 3-3 3.08 3.08 0 0 1 3 3 3 3 0 0 1-1.69 2.7A4.84 4.84 0 0 0 22.5 27v.5a1.5 1.5 0 0 0 3 0V27a1.85 1.85 0 0 1 1.13-1.63A6 6 0 0 0 24 14z"/><circle cx="24" cy="32.48" r="1.5"/><path d="M24 4a20 20 0 1 0 20 20A20 20 0 0 0 24 4zm0 37a17 17 0 1 1 17-17 17 17 0 0 1-17 17z"/><path d="M24 14a6 6 0 0 0-6 6 1.5 1.5 0 0 0 3 0 3 3 0 0 1 3-3 3.08 3.08 0 0 1 3 3 3 3 0 0 1-1.69 2.7A4.84 4.84 0 0 0 22.5 27v.5a1.5 1.5 0 0 0 3 0V27a1.85 1.85 0 0 1 1.13-1.63A6 6 0 0 0 24 14z"/><circle cx="24" cy="32.48" r="1.5"/></svg>