<svg xmlns="http://www.w3.org/2000/svg" viewBox="0 0 48 48"><path fill="#222020" d="M25.54 23H17a1 1 0 0 0 0 2h8.54a1 1 0 0 0 0-2z"/><path d="M31 23h-1.83a1 1 0 0 0 0 2H31a1 1 0 0 0 0-2zM25.54 30H17a1 1 0 0 0 0 2h8.54a1 1 0 0 0 0-2zM31 30h-1.83a1 1 0 0 0 0 2H31a1 1 0 0 0 0-2z"/><path d="M41 12a8 8 0 0 0-14.24-5H12a2 2 0 0 0-2 2v30a2 2 0 0 0 2 2h24a2 2 0 0 0 2-2V18.24A8 8 0 0 0 41 12zm-8-6a6 6 0 1 1-6 6 6 6 0 0 1 6-6zm2 32H13V10h12.26a8.24 8.24 0 0 0-.26 2 8 8 0 0 0 1.08 4H17a1 1 0 0 0 0 2h10.72A8 8 0 0 0 33 20a8.24 8.24 0 0 0 2-.26z"/><path d="M30 13h2v2a1 1 0 0 0 2 0v-2h2a1 1 0 0 0 0-2h-2V9a1 1 0 0 0-2 0v2h-2a1 1 0 0 0 0 2z"/></svg>