<svg xmlns="http://www.w3.org/2000/svg" viewBox="0 0 48 48"><path fill="#222020" d="M40.37 41H7.63a2 2 0 0 1-1.95-2.44l4.77-21a2 2 0 0 1 2-1.56h4.89a7.11 7.11 0 0 1-.34-2 6.94 6.94 0 0 1 2.59-5.43 7.05 7.05 0 0 1 6.46-1.28 6.9 6.9 0 0 1 4.61 4.5 7.28 7.28 0 0 1 .05 4.21h4.89a2 2 0 0 1 1.95 1.56l4.77 21A2 2 0 0 1 40.37 41zM8.88 38h30.24L34.8 19h-6.56a1.5 1.5 0 0 1-1.15-2.46 4 4 0 0 0 .8-3.52 3.87 3.87 0 0 0-3.05-2.94 4 4 0 0 0-3.92 1.36 3.8 3.8 0 0 0-.86 1.85 4 4 0 0 0 .85 3.25A1.5 1.5 0 0 1 19.76 19H13.2z"/><circle cx="24" cy="14" r="2"/></svg>