<svg xmlns="http://www.w3.org/2000/svg" viewBox="0 0 48 48"><path fill="#222020" d="M19 35a4.5 4.5 0 1 0 4.5 4.5A4.49 4.49 0 0 0 19 35zm0 6a1.5 1.5 0 1 1 1.5-1.5A1.5 1.5 0 0 1 19 41z"/><path d="M32 35a4.5 4.5 0 1 0 4.5 4.5A4.49 4.49 0 0 0 32 35zm0 6a1.5 1.5 0 1 1 1.5-1.5A1.5 1.5 0 0 1 32 41zM44 13a8 8 0 1 0-16 0H12.83L11.6 8.47A2 2 0 0 0 9.67 7H5.55a1.5 1.5 0 0 0 0 3H8.9l5.6 20.53A2 2 0 0 0 16.43 32h18.26a2 2 0 0 0 1.89-1.35l3.78-11A8 8 0 0 0 44 13zm-8-6a6 6 0 1 1-6 6 6 6 0 0 1 6-6zm-2 22H17.2l-3.55-13h14.89A8 8 0 0 0 36 21a6.85 6.85 0 0 0 .79 0z"/><path d="M33 14h2v2a1 1 0 0 0 2 0v-2h2a1 1 0 0 0 0-2h-2v-2a1 1 0 0 0-2 0v2h-2a1 1 0 0 0 0 2z"/></svg>