<svg xmlns="http://www.w3.org/2000/svg" viewBox="0 0 48 48"><path fill="#222020" d="M10 13h19v9.5a1.5 1.5 0 0 0 3 0V12a2 2 0 0 0-2-2H9a2 2 0 0 0-2 2v3h3z"/><path d="M14 18a1 1 0 0 0-1-1H5a1 1 0 0 0 0 2h8a1 1 0 0 0 1-1zM13 21H9a1 1 0 0 0 0 2h4a1 1 0 1 0 0-2zM14 26a1 1 0 0 0-1-1H6.37a1 1 0 1 0 0 2H13a1 1 0 0 0 1-1z"/><path d="M42 21h-.89l-2-6.58A2 2 0 0 0 37.19 13H32v3h4.46l2.44 8H41v8h-1.53a5.5 5.5 0 0 0-10.95 0H24a5.5 5.5 0 0 0-11 0h-3v-3H7v4a2 2 0 0 0 2 2h4.63a5.5 5.5 0 0 0 9.8 0h5.67a5.49 5.49 0 0 0 9.79 0H42a2 2 0 0 0 2-2V23a2 2 0 0 0-2-2zM18.51 35A2.5 2.5 0 1 1 21 32.5a2.5 2.5 0 0 1-2.49 2.5zM34 35a2.5 2.5 0 1 1 2.51-2.5A2.5 2.5 0 0 1 34 35z"/></svg>