<svg xmlns="http://www.w3.org/2000/svg" viewBox="0 0 24 24"><path fill="#222020" d="M21.71 20.3l-18-18A1 1 0 002 3v18a1 1 0 001 1h18a1 1 0 00.71-1.7zM4 20V5.42l2.47 2.47-.86.87a.5.5 0 00.39.85.47.47 0 00.35-.15l.87-.86 1.48 1.53-.86.87a.5.5 0 000 .71.52.52 0 00.71 0l.86-.87 1.52 1.53-.86.86a.51.51 0 000 .71.5.5 0 00.35.15.51.51 0 00.36-.15l.86-.86 1.53 1.52-.87.86a.51.51 0 000 .71.51.51 0 00.36.15.5.5 0 00.35-.15l.86-.86 1.53 1.52-.86.87a.48.48 0 000 .7.47.47 0 00.35.15.49.49 0 00.35-.15l.86-.86L18.58 20z"/><path d="M6.51 12.59a.32.32 0 00-.21-.09.3.3 0 00-.3.3v4.9a.29.29 0 00.3.3h4.9a.3.3 0 00.21-.51zM7 17v-2.5L9.5 17z"/></svg>