<svg xmlns="http://www.w3.org/2000/svg" viewBox="0 0 32 32"><path fill="#222020" d="M16 3a13 13 0 1 0 13 13A13 13 0 0 0 16 3zm0 24a11 11 0 1 1 11-11 11 11 0 0 1-11 11z"/><path d="M13.4 13.9a.51.51 0 0 1-.47-.32 1.61 1.61 0 0 0-3 0 .52.52 0 0 1-.65.29.51.51 0 0 1-.28-.65 2.62 2.62 0 0 1 4.84 0 .51.51 0 0 1-.29.65.57.57 0 0 1-.15.03zM22.5 13.9a.51.51 0 0 1-.47-.32 1.61 1.61 0 0 0-3 0 .52.52 0 0 1-.65.29.51.51 0 0 1-.29-.65 2.62 2.62 0 0 1 4.84 0 .51.51 0 0 1-.29.65.57.57 0 0 1-.14.03zM22.36 17.42a.5.5 0 0 0-.62.34 6 6 0 0 1-11.47 0 .5.5 0 0 0-.62-.33.51.51 0 0 0-.33.63 7 7 0 0 0 13.38-.05.5.5 0 0 0-.34-.59z"/></svg>