<svg xmlns="http://www.w3.org/2000/svg" viewBox="0 0 32 32"><path fill="#222020" d="M9.5 12a.5.5 0 0 0-.5-.5H3.5a.5.5 0 0 0 0 1H9a.5.5 0 0 0 .5-.5z"/><path d="M9 14.23H6a.5.5 0 0 0-.5.5.5.5 0 0 0 .5.5h3a.5.5 0 0 0 .5-.5.5.5 0 0 0-.5-.5zM9.5 17.5A.5.5 0 0 0 9 17H4.5a.5.5 0 0 0 0 1H9a.5.5 0 0 0 .5-.5z"/><path d="M27 14l-1.07-3.57A2 2 0 0 0 24 9h-3a2 2 0 0 0-2-2H7a2 2 0 0 0-2 2v1h2V9h12v6a1 1 0 0 0 1 1 1 1 0 0 0 1-1v-4h3l1.5 5H27v5h-1.16a3.48 3.48 0 0 0-6.9 0h-3A3.48 3.48 0 0 0 9 21H7v-1.5H5V21a2 2 0 0 0 2 2h2.31a3.48 3.48 0 0 0 6.3 0h3.63a3.48 3.48 0 0 0 6.3 0H27a2 2 0 0 0 2-2v-5a2 2 0 0 0-2-2zm-14.54 9A1.5 1.5 0 1 1 14 21.5a1.5 1.5 0 0 1-1.54 1.5zm9.93 0a1.5 1.5 0 1 1 1.5-1.5 1.5 1.5 0 0 1-1.5 1.5z"/></svg>