<svg xmlns="http://www.w3.org/2000/svg" viewBox="0 0 64 64"><path fill="#222020" d="M45.8 28c0-.52 0-1.23-.06-2.11a18 18 0 00-.22-2.26 7.93 7.93 0 00-.41-1.56 5.74 5.74 0 00-3.19-3.2 9.14 9.14 0 00-1.57-.4 16.14 16.14 0 00-2.25-.22c-.89 0-1.59-.06-2.12-.07H28c-.52 0-1.22 0-2.11.07a16.14 16.14 0 00-2.25.22 8.9 8.9 0 00-1.57.4 5.79 5.79 0 00-1.93 1.27 5.94 5.94 0 00-1.27 1.93 8.77 8.77 0 00-.4 1.56 18 18 0 00-.22 2.26c0 .88-.06 1.59-.06 2.11V35.97c0 .52 0 1.23.06 2.11a17.82 17.82 0 00.22 2.26 8.77 8.77 0 00.4 1.56 5.74 5.74 0 001.27 1.93 5.64 5.64 0 001.93 1.27 8.83 8.83 0 001.57.41 17.83 17.83 0 002.25.22l2.11.06h8l2.12-.06a17.83 17.83 0 002.25-.22 9.07 9.07 0 001.57-.41 5.74 5.74 0 003.19-3.2 7.93 7.93 0 00.41-1.56 17.82 17.82 0 00.22-2.26c0-.88.06-1.58.06-2.11v-2.31-1.67-1.68c0-1.02-.01-1.76-.02-2.31zm-7.69 10.1a8.69 8.69 0 01-12.22 0 8.67 8.67 0 010-12.22 8.67 8.67 0 0112.22 0 8.67 8.67 0 010 12.22zm4.29-13.65A1.91 1.91 0 0141 25a2 2 0 110-4 1.91 1.91 0 011.42.59 2 2 0 010 2.84z"/><path d="M32 26.4a5.6 5.6 0 00-4 9.6 5.6 5.6 0 008-8 5.4 5.4 0 00-4-1.6z"/><path d="M53 9H11a2 2 0 00-2 2v42a2 2 0 002 2h42a2 2 0 002-2V11a2 2 0 00-2-2zm-4.29 30A10.33 10.33 0 0146 46a10.24 10.24 0 01-7.05 2.71c-1.28.08-3.6.11-6.94.11s-5.66 0-6.94-.11A10.24 10.24 0 0118 46a10.29 10.29 0 01-2.72-7q-.09-2-.1-7c0-3.34 0-5.66.11-6.94A10.25 10.25 0 0118 18a10.25 10.25 0 017-2.72c1.28-.07 3.6-.11 6.94-.11s5.66 0 6.94.11A10.25 10.25 0 0146 18a10.3 10.3 0 012.72 7.05c.07 1.28.1 3.6.1 6.94s-.04 5.67-.11 7.01z"/></svg>