<svg xmlns="http://www.w3.org/2000/svg" viewBox="0 0 64 64"><path d="M28.91 36.65l8.03-4.64-8.03-4.64v9.28z"/><path fill="#222020" d="M53 9H11a2 2 0 0 0-2 2v42a2 2 0 0 0 2 2h42a2 2 0 0 0 2-2V11a2 2 0 0 0-2-2zm-6.18 30.46a3.89 3.89 0 0 1-2.74 2.73c-2.41.65-12.08.65-12.08.65s-9.67 0-12.08-.65a3.86 3.86 0 0 1-2.73-2.73 40.12 40.12 0 0 1-.65-7.46 40 40 0 0 1 .65-7.44 3.84 3.84 0 0 1 2.73-2.73c2.41-.65 12.08-.65 12.08-.65s9.67 0 12.08.65a3.88 3.88 0 0 1 2.74 2.73 40.59 40.59 0 0 1 .64 7.44 40.73 40.73 0 0 1-.64 7.46z"/></svg>