<svg xmlns="http://www.w3.org/2000/svg" viewBox="0 0 24 24"><path fill="#222020" d="M17 4v10.41h-5.88l-.52.39-1.5 1.09v-1.48H4V4h13m1.15-2H2.85a.85.85 0 0 0-.85.83v12.73a.85.85 0 0 0 .85.85H7.1v1.73A.85.85 0 0 0 8 19a.88.88 0 0 0 .5-.17l3.32-2.42h6.38a.85.85 0 0 0 .85-.85V2.83a.85.85 0 0 0-.9-.83z"/><path d="M21 13v6.49h-3v1l-1.16-.85-.26-.19H13v-3.52h5.52v-2.94H21m.5-1h-4v2.94H12V20a.5.5 0 0 0 .5.5h3.75l2 1.42a.46.46 0 0 0 .29.1.5.5 0 0 0 .5-.5v-1h2.5A.5.5 0 0 0 22 20v-7.51a.5.5 0 0 0-.5-.5z"/></svg>