<svg xmlns="http://www.w3.org/2000/svg" viewBox="0 0 32 32"><path fill="#222020" d="M17 5a6 6 0 0 1 6 6 1 1 0 0 0 2 0 8 8 0 0 0-16 0v8a2 2 0 0 0-2 2v6a2 2 0 0 0 2 2h2a2 2 0 0 0 2-2h3a2 2 0 0 0 2-2v-2a2 2 0 0 0-2-2l1.94-3.32a1 1 0 1 0-1.72-1L13.67 21H13a2 2 0 0 0-2-2v-8a6 6 0 0 1 6-6zm-1 18v2h-5v2H9v-6h2v2z"/><path d="M24.38 14.67l-.38-.43-.38.43c-.08.1-2.12 2.45-2.12 4.33a2.5 2.5 0 0 0 5 0c0-1.88-2.04-4.23-2.12-4.33zM24 20.5a1.5 1.5 0 0 1-1.5-1.5 6.65 6.65 0 0 1 1.5-3.2 6.56 6.56 0 0 1 1.5 3.2 1.5 1.5 0 0 1-1.5 1.5z"/></svg>