<svg xmlns="http://www.w3.org/2000/svg" viewBox="0 0 64 64"><path fill="#222020" d="M47.7 33H33V20.42h20a2 2 0 0 0 .93-3.78l-21-10.93a2 2 0 0 0-1.86 0l-21 10.93a2 2 0 0 0 .93 3.78h20V33H16.3a13.4 13.4 0 0 0-7.8-2.5H7a2 2 0 0 0-2 2V42a5.51 5.51 0 0 0 3.77 5.22L7 57.24A1.51 1.51 0 0 0 8.24 59h.26a1.5 1.5 0 0 0 1.5-1.24l1.76-10.26h3.48L17 57.76A1.5 1.5 0 0 0 18.5 59h.26A1.51 1.51 0 0 0 20 57.24l-1.7-9.74H20a2 2 0 0 0 2-2V44a13.43 13.43 0 0 0-.79-4.5h5.29V43a2 2 0 0 0 2 2h.5v7a5 5 0 0 1-5 5 1 1 0 0 0 0 2h16a1 1 0 0 0 0-2 5 5 0 0 1-5-5v-7h.5a2 2 0 0 0 2-2v-3.5h5.29A13.43 13.43 0 0 0 42 44v1.5a2 2 0 0 0 2 2h1.72L44 57.24A1.51 1.51 0 0 0 45.24 59h.26a1.5 1.5 0 0 0 1.5-1.24l1.76-10.26h3.48L54 57.76A1.5 1.5 0 0 0 55.5 59h.26A1.51 1.51 0 0 0 57 57.24l-1.75-10A5.51 5.51 0 0 0 59 42v-9.5a2 2 0 0 0-2-2h-1.5a13.4 13.4 0 0 0-7.8 2.5zM32 8.61l16.88 8.81H15.12zM19 44.5h-8.5A2.5 2.5 0 0 1 8 42v-8.5h.5A10.51 10.51 0 0 1 19 44zM35.5 43H33v9a7 7 0 0 0 2.11 5h-6.22A7 7 0 0 0 31 52v-9h-2.5v-3.5h7zm-15.17-5.5a13.45 13.45 0 0 0-1.8-2.5h26.94a13.45 13.45 0 0 0-1.8 2.5zM56 42a2.5 2.5 0 0 1-2.5 2.5H45V44a10.51 10.51 0 0 1 10.5-10.5h.5z"/></svg>