<svg xmlns="http://www.w3.org/2000/svg" viewBox="0 0 48 48"><path fill="#222020" d="M31.11 8.5A10.5 10.5 0 0 0 12 14.41a8.24 8.24 0 1 0 8.5 14.08v14a1.5 1.5 0 0 0 3 0v-6.92L27.57 31a11.29 11.29 0 0 0 3.43.5 11.5 11.5 0 0 0 .11-23zM23.5 31v-2.33a10.29 10.29 0 0 0 1.25.95zm7.5-2.5a7.85 7.85 0 0 1-1.19-.09l.81-.92a1.49 1.49 0 1 0-2.24-2l-1.62 1.82a8.51 8.51 0 0 1-3.26-3.39V18a1.5 1.5 0 0 0-3 0v6a5.24 5.24 0 1 1-6.5-7.21l1.11-.38-.11-1.18a5.85 5.85 0 0 1 0-.73 7.5 7.5 0 0 1 14-3.72l.46.82 1.06-.08h.47a8.5 8.5 0 0 1 0 17z"/></svg>