<svg xmlns="http://www.w3.org/2000/svg" viewBox="0 0 32 32"><path fill="#222020" d="M27.26 27.29l-5.88-5.87A10 10 0 0 0 26 13v-1H6v1a10 10 0 0 0 4.62 8.42l-5.88 5.87a1 1 0 0 0 0 1.42 1 1 0 0 0 1.42 0l6.35-6.35A10.28 10.28 0 0 0 15 23v5a1 1 0 0 0 2 0v-5a10.28 10.28 0 0 0 2.49-.59l6.35 6.35a1 1 0 0 0 1.42 0 1 1 0 0 0 0-1.47zM8.06 14h15.88a8 8 0 0 1-15.88 0z"/><path d="M13.38 18.4a6.08 6.08 0 0 1-2.7-2.63.5.5 0 0 0-.89.46 7.14 7.14 0 0 0 3.15 3.07.54.54 0 0 0 .22.05.5.5 0 0 0 .22-1zM11.56 9.27a.49.49 0 0 0 .21.67.46.46 0 0 0 .23.06.5.5 0 0 0 .44-.27 2.61 2.61 0 0 0 0-2.46 1.62 1.62 0 0 1 0-1.54.5.5 0 1 0-.88-.46 2.61 2.61 0 0 0 0 2.46 1.62 1.62 0 0 1 0 1.54zM19.56 9.27a.49.49 0 0 0 .21.67.46.46 0 0 0 .23.06.5.5 0 0 0 .44-.27 2.61 2.61 0 0 0 0-2.46 1.62 1.62 0 0 1 0-1.54.5.5 0 0 0-.88-.46 2.61 2.61 0 0 0 0 2.46 1.62 1.62 0 0 1 0 1.54zM15.68 9.27a.5.5 0 0 0 .21.67.53.53 0 0 0 .23.06.51.51 0 0 0 .45-.27 3.71 3.71 0 0 0 0-3.46 2.72 2.72 0 0 1 0-2.54.5.5 0 0 0-.89-.46 3.71 3.71 0 0 0 0 3.46 2.72 2.72 0 0 1 0 2.54z"/></svg>