<svg xmlns="http://www.w3.org/2000/svg" viewBox="0 0 32 32"><path fill="#222020" d="M28 6H10.86A4 4 0 003 7v18a4 4 0 004 4h21a1 1 0 001-1V7a1 1 0 00-1-1zM5 7a2 2 0 014 0v14.54a4 4 0 00-4 0zm22 20H7a2 2 0 112-2 1 1 0 002 0V8h16z"/><path d="M14.5 16.75a.5.5 0 00.5-.5v-.78l4-3.55 4 3.55v6.78h-.5a.5.5 0 000 1h1a.5.5 0 00.5-.5v-7.5a.48.48 0 00-.17-.37l-4.5-4a.49.49 0 00-.66 0l-4.5 4a.31.31 0 00-.07.09.43.43 0 000 .07v1.19a.5.5 0 00.4.52zM14.5 20.05a.5.5 0 00.5-.5v-1.1a.5.5 0 00-1 0v1.1a.5.5 0 00.5.5zM14.5 23.25h1a.5.5 0 000-1H15v-.5a.5.5 0 00-1 0v1a.5.5 0 00.5.5zM19.7 22.25h-1.4a.5.5 0 100 1h1.4a.5.5 0 100-1z"/></svg>