<svg xmlns="http://www.w3.org/2000/svg" viewBox="0 0 64 64"><path fill="#222020" d="M55.5 30.5H46a4 4 0 0 0 0-.5V8.5A3.5 3.5 0 0 0 42.5 5h-21A3.5 3.5 0 0 0 18 8.5V30a4 4 0 0 0 .05.5H8.5A3.5 3.5 0 0 0 5 34v21.5A3.5 3.5 0 0 0 8.5 59h47a3.5 3.5 0 0 0 3.5-3.5V34a3.5 3.5 0 0 0-3.5-3.5zM21 8.5a.5.5 0 0 1 .5-.5h21a.5.5 0 0 1 .5.5V30a.5.5 0 0 1-.5.5h-21a.5.5 0 0 1-.5-.5zM30.5 56h-22a.5.5 0 0 1-.5-.5V34a.5.5 0 0 1 .5-.5h22zm25.5-.5a.5.5 0 0 1-.5.5h-22V33.5h22a.5.5 0 0 1 .5.5z"/><path d="M25.83 25.84a1.5 1.5 0 0 0 2-.67l1.31-2.61h5.7l1.31 2.61a1.49 1.49 0 0 0 1.35.83 1.47 1.47 0 0 0 .67-.16 1.5 1.5 0 0 0 .67-2l-5.5-11a1.5 1.5 0 0 0-2.68 0l-5.5 11a1.5 1.5 0 0 0 .67 2zm6.17-9l1.35 2.71h-2.7zM45.87 41a4 4 0 0 1 2.74 1.09 1.5 1.5 0 1 0 2-2.18 7 7 0 1 0 0 10.18 1.5 1.5 0 1 0-2-2.18A4 4 0 1 1 45.87 41zM15.5 38a1.5 1.5 0 0 0-1.5 1.5v11a1.5 1.5 0 0 0 1.5 1.5h4a4.5 4.5 0 0 0 2.92-7.92A4 4 0 0 0 19 38zm5.5 9.5a1.5 1.5 0 0 1-1.5 1.5H17v-3h2.5a1.5 1.5 0 0 1 1.5 1.5zM20 42a1 1 0 0 1-1 1h-2v-2h2a1 1 0 0 1 1 1z"/></svg>