<svg xmlns="http://www.w3.org/2000/svg" viewBox="0 0 64 64"><path fill="#222020" d="M24 20.58a1 1 0 0 0 .49 1.33 1 1 0 0 0 .42.09 1 1 0 0 0 .91-.58c0-.09 1.05-2.36-1-5.49a5.27 5.27 0 0 1-.64-4.56 1 1 0 1 0-1.85-.74 7.19 7.19 0 0 0 .79 6.37c1.43 2.19.88 3.54.88 3.58z"/><path d="M41 20.58a1 1 0 0 0 .49 1.33 1 1 0 0 0 .42.09 1 1 0 0 0 .91-.58c0-.09 1.05-2.36-1-5.49a5.27 5.27 0 0 1-.64-4.56 1 1 0 1 0-1.85-.74 7.19 7.19 0 0 0 .79 6.37c1.43 2.19.88 3.54.88 3.58zM32 15.58a1 1 0 0 0 .49 1.33 1 1 0 0 0 .42.09 1 1 0 0 0 .91-.58c0-.09 1.05-2.36-1-5.49a5.27 5.27 0 0 1-.64-4.56 1 1 0 1 0-1.85-.74 7.19 7.19 0 0 0 .79 6.37c1.43 2.19.88 3.54.88 3.58zM40 34.51a36.93 36.93 0 0 1-2.57-3.12 29.13 29.13 0 0 1-4-9.21 1.51 1.51 0 0 0-2.94 0 29.13 29.13 0 0 1-4 9.21A36.93 36.93 0 0 1 24 34.51c-2.69 3-5.47 6.19-5.47 11.67C18.5 53.49 24.3 59 32 59s13.5-5.51 13.5-12.82c0-5.48-2.78-8.63-5.5-11.67zM32 56c-6 0-10.5-4.22-10.5-9.82 0-4.35 2.18-6.82 4.71-9.68A41 41 0 0 0 29 33.12a27.53 27.53 0 0 0 3-5.68 27.53 27.53 0 0 0 3 5.68 41 41 0 0 0 2.78 3.38c2.53 2.86 4.71 5.33 4.71 9.68C42.5 51.78 38 56 32 56z"/></svg>