<svg xmlns="http://www.w3.org/2000/svg" viewBox="0 0 48 48"><text transform="translate(-12.28 -21.2)">A<tspan x="5.71" y="0">vis p</tspan><tspan x="23.63" y="0">r</tspan><tspan x="26.6" y="0">oduit/ch</tspan><tspan x="60.75" y="0">a</tspan><tspan x="65.33" y="0">t/</tspan><tspan><tspan x="8.22" y="10">P</tspan><tspan x="13.18" y="10">r</tspan><tspan x="16.15" y="10">ofil </tspan><tspan x="30.55" y="10">c</tspan><tspan x="34.77" y="10">omm</tspan><tspan x="56.34" y="10">u</tspan><tspan x="61.57" y="10">.</tspan></tspan></text><path fill="#222020" d="M41 13v22H7V13h34m1-3H6a2 2 0 00-2 2v24a2 2 0 002 2h36a2 2 0 002-2V12a2 2 0 00-2-2z"/><path d="M22.91 32a1 1 0 01-1-.85 5 5 0 00-9.86 0 1 1 0 01-1 .85 1 1 0 01-1-1.14 7 7 0 0113.82 0 1 1 0 01-.96 1.14z"/><path d="M17 25a4.5 4.5 0 114.5-4.5A4.51 4.51 0 0117 25zm0-7a2.5 2.5 0 102.5 2.5A2.5 2.5 0 0017 18z"/><rect width="12" height="2" x="26" y="17" rx="1"/><rect width="12" height="2" x="26" y="22" rx="1"/></svg>