<svg xmlns="http://www.w3.org/2000/svg" viewBox="0 0 128 128"><path fill="#222020" d="M94.61 68.84v-.58h-.24v-.13H95v.13h-.24v.58zm1.21 0v-.5l-.16.42h-.19l-.15-.42v.5h-.19v-.71h.26l.19.45.16-.45H96v.71z"/><path d="M38.73 82.23H88.4L63.57 57.29 38.73 82.23zM37.66 81.12l3.84-3.84L40.21 76l-2.42 2.42-4.37-4.4L32 75.47l5.66 5.65zM39.13 70.63l.97.97 1.98-2 1.15 1.16-2 2L42.47 74l2.47-2.48 1.13 1.16-3.89 3.89-5.63-5.65L40.44 67l1.14 1.16-2.45 2.47M51.86 66.87L48 65.79a2.4 2.4 0 00-.51-2.79 2.31 2.31 0 00-3.23.15l-2.84 2.87 5.63 5.68 1.44-1.44-4.57-4.61.92-.92a1 1 0 111.44 1.45l-.84.84 4.89 1.4zM49.23 57.92A3.83 3.83 0 0155 58a4 4 0 11-5.68 5.71 3.89 3.89 0 01-.09-5.79zm1.1 1.13c-.89.9-.57 2 .5 3.11s2.19 1.39 3.08.47.61-2-.5-3.08-2.18-1.39-3.08-.5zM56.7 54.95l-1.05-3.21 1.65-1.68 1.43 5.5 2.21 2.21-1.45 1.44L57.28 57l-5.24-1.66 1.58-1.6 3.03 1.18.05.03zM82.8 74.42l5.65-5.66-1.53-1.53-5.65 5.69 1.53 1.5zM61.23 52.79l4.39-2.1-3.24 3.23 1.29 1.32 5.66-5.66-1.79-1.81-4.26 2.08 2.13-4.21-1.84-1.87-5.66 5.68 1.32 1.32 3.23-3.26-2.1 4.42.87.86zM71.01 53.58l-.95.98 2.16 2.18-1.16 1.16-2.15-2.19-1.24 1.24 2.63 2.63-1.13 1.16-4.08-4.08 5.66-5.68 4.05 4.1-1.13 1.16-2.66-2.66M76.35 67.97l3.84 3.87 1.29-1.29-2.39-2.42 4.36-4.39-1.44-1.42-5.66 5.65zM91.71 72.02l-1.81 6.03 3.89-3.92 1.34 1.34-5.65 5.68-1.77-1.79 1.56-6.18v-.03l-3.87 3.9-1.32-1.32 5.66-5.68 1.97 1.97zM75.4 67l1.11-3.86a2.44 2.44 0 002.76-.55 2.32 2.32 0 00-.16-3.24l-3-3L70.43 62l1.42 1.45 4.58-4.61 1.1 1.16a1 1 0 11-1.33 1.5l-.11-.1-1-1-1.18 5.08z"/><path d="M112 100H16a4 4 0 01-4-4V32a4 4 0 014-4h96a4 4 0 014 4v64a4 4 0 01-4 4zM16 32v64h96V32z"/></svg>