<svg xmlns="http://www.w3.org/2000/svg" viewBox="0 0 96 96"><path fill="#222020" d="M38.43 47.28h10.48a7.55 7.55 0 00-2.23-5.57c-1.9-1.63-5.23-2.23-8.22-2.23s-6.54.66-8.44 2.41c-1.67 1.51-2 3.93-2 6.11s.69 4.94 2.49 6.48 5 2 8 2 6-.47 7.92-2 2.54-4.14 2.54-6.49H38.43z"/><path d="M49.6 48v8.17h14.57a4 4 0 003.83-4A4.14 4.14 0 0064.17 48zM67.74 43.54a3.7 3.7 0 00-3.69-3.72 3.39 3.39 0 00-.45 0h-14v7.48h14.69a3.77 3.77 0 003.45-3.76z"/><path d="M85 76H11a3 3 0 01-3-3V23a3 3 0 013-3h74a3 3 0 013 3v50a3 3 0 01-3 3zm-73-4h72V24H12z"/></svg>