<svg xmlns="http://www.w3.org/2000/svg" viewBox="0 0 48 48"><path fill="#222020" d="M24 26a10.25 10.25 0 10-10.25-10.25A10.26 10.26 0 0024 26zm0-17.5a7.25 7.25 0 11-7.25 7.25A7.26 7.26 0 0124 8.5z"/><path d="M37.93 29.89l-6.35-2.12-.58.34a14.15 14.15 0 01-14 0l-.58-.34-6.35 2.12A4.51 4.51 0 007 34.16v6.27l.83.41C8.09 41 14.26 44 24 44s15.91-3 16.17-3.16l.83-.41v-6.27a4.51 4.51 0 00-3.07-4.27zm.07 8.63A38.45 38.45 0 0124 41a38.6 38.6 0 01-14-2.48v-4.36a1.49 1.49 0 011-1.42L16.1 31a17.15 17.15 0 0015.8 0l5.1 1.74a1.48 1.48 0 011 1.42z"/></svg>