<svg xmlns="http://www.w3.org/2000/svg" viewBox="0 0 96 96"><path fill="#222020" d="M67.9 38.36v1l-.58-1H63.1v1l-.52-1h-5.69a5 5 0 00-2.47.5v-.5h-3.94v.5a2.4 2.4 0 00-1.66-.5H34.47l-1 2.22-1-2.22H28v1l-.51-1h-3.85l-.07.31-.19.42-2.65 6.2L20 47h4.37l.56-1.36h1.3l.56 1.36h5v-1l.44 1h2.59l.43-1.07V47h12.33v-2.27h.23c.17 0 .22 0 .22.29v2h6.39v-.52a4.85 4.85 0 002.36.52h2.7l.58-1.38h1.27l.56 1.36h5.18v-1.33l.79 1.33H72v-8.64zm-31.61 7.4v-4.83l-2.13 4.83h-1.32l-2.13-4.85v4.85h-3l-.58-1.37H24l-.58 1.37h-1.55l2.64-6.18h2.21l2.5 5.86v-5.86h2.42l1.94 4.2 1.77-4.2h2.46v6.18zm7.56-4.88h-3.46V42h3.37v1.28h-3.37v1.22h3.46v1.28h-4.93v-6.2h4.93zm6.65 2.53a1.79 1.79 0 01.25 1.14v1.21h-1.49V45a1.93 1.93 0 00-.26-1.22c-.26-.3-.56-.26-1.08-.26h-1.6v2.24h-1.44v-6.18h3.4a3.4 3.4 0 011.78.3 1.44 1.44 0 01.76 1.36 1.71 1.71 0 01-1 1.65 1.72 1.72 0 01.68.52zm2.68 2.35h-1.51v-6.18h1.51zm17.52 0h-2.1l-2.8-4.64v4.64h-3l-.58-1.37h-3.09l-.56 1.37h-1.73a3.11 3.11 0 01-2.14-.68 3.16 3.16 0 01-.79-2.37 3 3 0 01.79-2.41 2.6 2.6 0 012.3-.72h1.43v1.33H57a1.4 1.4 0 00-1.14.37 1.88 1.88 0 00-.42 1.4 2.24 2.24 0 00.4 1.45 1.2 1.2 0 001 .32h.67l2.08-4.87h2.22l2.51 5.85v-5.85h2.25l2.59 4.31v-4.31h1.54z"/><path d="M48.87 41a1.39 1.39 0 00-.7-.1h-1.82v1.36h1.81a1.41 1.41 0 00.73-.12.64.64 0 00.3-.6.57.57 0 00-.32-.54zM59.65 43.1h2.05l-1.01-2.47-1.04 2.47zM24.57 43.1h2.03l-1.02-2.47-1.01 2.47zM48 51.52h-1.91v1.57H48c.58 0 .93-.28.93-.82s-.37-.75-.93-.75zM35.12 51.52v1.12h3.24v1.26h-3.24v1.22h3.64l1.68-1.8-1.61-1.8h-3.71zM44.62 55.86v-4.97l-2.27 2.45 2.27 2.52zM55.21 51.62a1.39 1.39 0 00-.7-.1h-1.82v1.38h1.8a1.48 1.48 0 00.72-.12.69.69 0 00.31-.6.61.61 0 00-.31-.56z"/><path d="M76 54.46a3.18 3.18 0 00-.42-1.68h.12V49h-4.2a3.84 3.84 0 00-1.63.33V49h-4.06a2.72 2.72 0 00-1.75.5V49h-7.24v.5a3.73 3.73 0 00-2-.5h-4.76v.5A3.43 3.43 0 0048 49h-5.36l-1.22 1.33L40.28 49h-8v8.62h7.8l1.26-1.33 1.19 1.33h4.87v-2h.48a5.08 5.08 0 002-.31v2.32h4v-2.25h.19c.24 0 .28 0 .28.25v2h12.09a3.65 3.65 0 001.89-.45v.47h4.12a4.39 4.39 0 001.75-.3l.26-.1A3.08 3.08 0 0076 54.46zm-28.07-.13h-1.84v2.09h-2.87l-1.82-2.05-1.89 2.05h-5.86v-6.2h6l1.82 2 1.87-2H48c1.17 0 2.48.33 2.48 2.05s-1.28 2.06-2.57 2.06zm8.91-.28a1.83 1.83 0 01.24 1.14v1.23h-1.49v-.77c0-.37 0-.93-.24-1.21s-.54-.28-1.09-.28h-1.57v2.26H51.2v-6.2h3.41a3.67 3.67 0 011.79.3 1.38 1.38 0 01.75 1.38 1.74 1.74 0 01-1 1.65 1.63 1.63 0 01.74.5zm6.07-2.53h-3.47v1.12h3.38v1.26h-3.38v1.22h3.47v1.28H58v-6.18h4.94zm.89 4.9v-1.33h2.87a.85.85 0 00.6-.16.55.55 0 000-.77.9.9 0 00-.53-.14c-1.38 0-3.11.06-3.11-1.9a1.84 1.84 0 012.11-1.86h3v1.33H66a1 1 0 00-.6.11.52.52 0 00-.21.45.46.46 0 00.32.46 1.88 1.88 0 00.58.07h.78a2.3 2.3 0 011.7.5 1.63 1.63 0 01.44 1.3c0 1.35-.82 2-2.33 2zm10.64-.77l-.07.08-.1.11-.13.12-.16.1a3 3 0 01-.77.25h-3.62v-1.26h2.86a.76.76 0 00.59-.16.5.5 0 00.18-.4.51.51 0 00-.2-.37.79.79 0 00-.5-.14c-1.4 0-3.14.06-3.14-1.9a1.86 1.86 0 01.46-1.23.46.46 0 01.07-.07l.07-.07.07-.05.09-.07h.07l.1-.07h.07l.14-.05.16-.06h3.7v1.33h-2.81a.7.7 0 00-.4.1.48.48 0 00-.23.46.46.46 0 00.32.45 1.57 1.57 0 00.57.07h.81A3.35 3.35 0 0174 53a1.56 1.56 0 01.28.23 1.66 1.66 0 01.42 1.26 2 2 0 01-.33 1.12z"/><path d="M85 76H11a3 3 0 01-3-3V23a3 3 0 013-3h74a3 3 0 013 3v50a3 3 0 01-3 3zm-73-4h72V24H12z"/></svg>