<svg xmlns="http://www.w3.org/2000/svg" viewBox="0 0 48 48"><path fill="#222020" d="M21 26a10.25 10.25 0 1 0-10.25-10.25A10.26 10.26 0 0 0 21 26zm0-17.5a7.25 7.25 0 1 1-7.25 7.25A7.26 7.26 0 0 1 21 8.5z"/><path d="M43 27.5h-7a1 1 0 0 0 0-2h-5a1 1 0 0 0 0 2h-7a1 1 0 0 0-1 1v1.31a14.09 14.09 0 0 1-9-1.7l-.58-.34-6.35 2.12A4.51 4.51 0 0 0 4 34.16v6.27l.83.41C5.09 41 11.26 44 21 44c.91 0 1.78 0 2.63-.08A.91.91 0 0 0 24 44h19a1 1 0 0 0 1-1V28.5a1 1 0 0 0-1-1zM23 41h-2a38.65 38.65 0 0 1-14-2.48v-4.36a1.48 1.48 0 0 1 1-1.42L13.1 31a17.1 17.1 0 0 0 9.9 1.8zm19 1H25v-6.64l2.5.79v1.35a1 1 0 0 0 2 0v-.71l4 1.26 4-1.26v.71a1 1 0 0 0 2 0v-1.35l2.5-.79zm0-8.73L33.5 36 25 33.27V29.5h17z"/></svg>