<svg xmlns="http://www.w3.org/2000/svg" viewBox="0 0 192 192"><path fill="#222020" d="M143.2 104.88V104h-.36v-.2h1v.2h-.36v.88zm1.84 0v-.76l-.24.64h-.28l-.24-.64v.76H144v-1.08h.4l.28.68.24-.68h.4v1.08z"/><path d="M40 84.2h4v1.32h.16a8.52 8.52 0 014.36-1.6 14.29 14.29 0 014.52.24 6.19 6.19 0 014.72 5.08 21.86 21.86 0 01.36 6.76 18.77 18.77 0 01-.52 3.88 6.33 6.33 0 01-5.64 5c-1.72.24-3.44.2-5.2.28V101h1.72a20.94 20.94 0 002.24-.2 2.48 2.48 0 002.12-2 10.63 10.63 0 00.4-2.24 27.34 27.34 0 00-.12-5.72 9.22 9.22 0 00-.24-1 2.56 2.56 0 00-2-1.8 8.41 8.41 0 00-3.6 0A2.87 2.87 0 0045 90.92c0 .48-.08 1-.08 1.44v19.84h-4.44c-.36 0-.44-.08-.44-.4v-2zM127.88 71.28V97.48a13.3 13.3 0 00.36 3.08 5.33 5.33 0 004.08 4.08 16.59 16.59 0 008.28 0 6.69 6.69 0 005-5.36 22.66 22.66 0 000-9.56 6.35 6.35 0 00-5.92-5.32c-1.6-.2-3.24-.12-4.88-.16h-.16v4h3.28A2.88 2.88 0 01141 91a22.48 22.48 0 01-.08 7.32 2.86 2.86 0 01-3 2.72 10.94 10.94 0 01-2.8 0c-1.48-.2-2.16-1.08-2.28-2.72V71.84c7.4 2 13 6.12 16.4 13 4.4 9 3.68 17.8-2.16 25.92a24.37 24.37 0 01-22.24 9.92v-29h-5.12v28.08c-8-2.84-13.56-8.08-16.12-16.08s-1-16.36 4.44-23.4h.16v19.04a13 13 0 00.16 2.16 3.86 3.86 0 003.24 3.36 24.17 24.17 0 005.12.24v-4.24H114c-.64 0-.88-.24-.92-.88s0-.84 0-1.28V76.24a1 1 0 01.52-1 24.73 24.73 0 0114-4zM119.32 87a2.45 2.45 0 002 2.72 5.1 5.1 0 001.56.08 2.32 2.32 0 002.24-2.28v-.92a2.43 2.43 0 00-2-2.32 5.61 5.61 0 00-1.16 0 2.45 2.45 0 00-2.64 2.72zM81 84.24h4.88v13.4a11.21 11.21 0 00.12 1.64 1.79 1.79 0 001.28 1.44 7.27 7.27 0 004.52 0 1.91 1.91 0 001.4-1.84c0-.48.08-.92.08-1.4V84.28H98v22.68a10.59 10.59 0 01-.24 2.24 3.57 3.57 0 01-2.92 2.8 30.53 30.53 0 01-5.12.24v-4h2.64a.79.79 0 00.8-.76v-2.68l-3.36.2a12.44 12.44 0 01-4.8-.6 5.63 5.63 0 01-4-5.2v-2.28V84.8zM78.28 84.2V105h-4.84v-1a10.16 10.16 0 01-1.76.68 11.86 11.86 0 01-6.68-.16 6.2 6.2 0 01-4.4-5.08 16.45 16.45 0 01-.4-3.12 26.43 26.43 0 01.36-6.88c.8-3.48 2.84-5.24 6.4-5.52a15.37 15.37 0 014.28.24 7.3 7.3 0 013 1.44v-1.4zm-4.84 10.16v-1.68V91c-.12-1.8-1-2.84-2.6-3A17.31 17.31 0 0068 88a2.73 2.73 0 00-2.52 2.12 10.62 10.62 0 00-.24 1.12c0 1.84-.12 3.72-.12 5.56a9.1 9.1 0 00.4 2.32 2.48 2.48 0 002.12 1.88 11 11 0 002.8.08 3.15 3.15 0 003-3.44z"/><path d="M170 152H22a6 6 0 01-6-6V46a6 6 0 016-6h148a6 6 0 016 6v100a6 6 0 01-6 6zm-146-8h144V48H24z"/></svg>