<svg xmlns="http://www.w3.org/2000/svg" viewBox="0 0 24 24"><path fill="#222020" d="M16.69 22c-3 0-6.72-1.71-9.86-4.85a16.87 16.87 0 0 1-4.51-7.44C1.62 7 2.06 4.62 3.58 3.1A4.39 4.39 0 0 1 5 2.14 2.3 2.3 0 0 1 7.63 3l2.24 3.2a2 2 0 0 1-.45 2.77l-.42.3a.77.77 0 0 0-.22.58 7.31 7.31 0 0 0 2.08 3.34 7.46 7.46 0 0 0 3.37 2.09.81.81 0 0 0 .56-.24l.33-.45a2 2 0 0 1 2.77-.47l3.21 2.25a2.3 2.3 0 0 1 .8 2.68 4.41 4.41 0 0 1-1 1.37A5.79 5.79 0 0 1 16.69 22zM5.7 4a2.47 2.47 0 0 0-.7.52c-1 1-1.25 2.66-.73 4.69a14.86 14.86 0 0 0 4 6.54c3.93 3.92 9.07 5.42 11.23 3.26a2.49 2.49 0 0 0 .51-.7.34.34 0 0 0-.08-.3l-3.23-2.25-.35.46a2.77 2.77 0 0 1-2.53 1 9.22 9.22 0 0 1-4.43-2.62 9.18 9.18 0 0 1-2.64-4.4 2.8 2.8 0 0 1 1-2.55l.47-.34L6 4.1a.36.36 0 0 0-.3-.1zm15.22 14.68z"/></svg>