<svg xmlns="http://www.w3.org/2000/svg" viewBox="0 0 128 128"><path fill="#222020" d="M72.38 76h-3.73a.52.52 0 00-.51.44L66.63 86a.32.32 0 00.26.36h2a.37.37 0 00.36-.31l.43-2.71a.52.52 0 01.5-.44h1.18c2.46 0 3.88-1.19 4.25-3.54a2.91 2.91 0 00-.48-2.41 3.4 3.4 0 00-2.75-.95zm.43 3.5c-.2 1.34-1.22 1.34-2.21 1.34H70l.4-2.51a.31.31 0 01.3-.25h.3c.67 0 1.31 0 1.63.38a1.14 1.14 0 01.19 1z"/><path d="M45.76 76H42a.52.52 0 00-.51.44L40 86a.32.32 0 00.26.36h1.83a.52.52 0 00.51-.44l.4-2.61a.52.52 0 01.51-.44h1.18c2.46 0 3.88-1.19 4.25-3.54a2.88 2.88 0 00-.48-2.41 3.44 3.44 0 00-2.7-.92zm.43 3.5C46 80.8 45 80.8 44 80.8h-.56l.39-2.51a.32.32 0 01.31-.25h.25c.67 0 1.31 0 1.64.38a1.24 1.24 0 01.19 1zM56.92 79.41h-1.79a.32.32 0 00-.31.26l-.07.5-.13-.17a2.56 2.56 0 00-2.11-.76 4.11 4.11 0 00-4 3.6 3.34 3.34 0 00.67 2.74 2.79 2.79 0 002.25.91 3.42 3.42 0 002.47-1l-.08.5a.31.31 0 00.26.36h1.66a.52.52 0 00.51-.44l1-6.12a.31.31 0 00-.25-.36zm-2.49 3.48a2 2 0 01-2 1.71 1.38 1.38 0 01-1.52-1.23 1.26 1.26 0 010-.51 2 2 0 012-1.72 1.52 1.52 0 011.19.49 1.54 1.54 0 01.3 1.26zM83.54 79.41h-1.79a.32.32 0 00-.31.26l-.08.5-.12-.17a2.56 2.56 0 00-2.11-.76 4.11 4.11 0 00-4 3.6 3.34 3.34 0 00.67 2.74 2.79 2.79 0 002.25.91 3.42 3.42 0 002.47-1l-.08.5a.3.3 0 00.26.36h1.66a.52.52 0 00.5-.44l1-6.12a.31.31 0 00-.25-.36zm-2.49 3.48a2 2 0 01-2 1.71 1.49 1.49 0 01-1.2-.48 1.52 1.52 0 01-.28-1.27 2 2 0 012-1.72 1.43 1.43 0 011.5 1.76zM66.43 79.41h-1.79a.54.54 0 00-.43.23l-2.49 3.65-1-3.51a.53.53 0 00-.5-.37H58.4a.31.31 0 00-.31.32.28.28 0 000 .09l2 5.82-1.86 2.62a.3.3 0 00.08.43.27.27 0 00.17.06h1.8a.53.53 0 00.43-.22l6-8.62a.32.32 0 00-.08-.44.28.28 0 00-.2-.06zM85.65 76.22L84.11 86a.32.32 0 00.26.36H86a.51.51 0 00.51-.44l1.49-9.6a.31.31 0 00-.26-.35H86a.31.31 0 00-.35.25zM75.63 49.12c.38-2.41 0-4-1.3-5.54s-4-2.33-7.35-2.33h-9.62A1.37 1.37 0 0056 42.41l-4 25.42a.82.82 0 00.68.94h6.08l1.49-9.46-.05.29a1.38 1.38 0 011.36-1.16h2.83c5.54 0 9.88-2.25 11.16-8.77l.09-.56"/><path d="M77.79 49.49a5.29 5.29 0 00-.41-.41v.3c0 .19-.06.39-.1.6a18.1 18.1 0 01-.44 1.76 6.65 6.65 0 01.19 4c-.9 4.6-3.76 6.83-8.74 6.83h-.76a2.24 2.24 0 00-2.22 1.88l-.06.31-.94 6v.23a.16.16 0 01-.16.14h-4.73l.11-.66h-2.11l-.11.7a1.78 1.78 0 001.48 2h5.26a2.25 2.25 0 002.22-1.88v-.24l1-6 .06-.32a.16.16 0 01.16-.14h.76a11.69 11.69 0 006.89-1.89A10.24 10.24 0 0079 56.16c.58-2.86.15-5.1-1.21-6.67z"/><path d="M112 100H16a4 4 0 01-4-4V32a4 4 0 014-4h96a4 4 0 014 4v64a4 4 0 01-4 4zM16 32v64h96V32z"/></svg>