<svg xmlns="http://www.w3.org/2000/svg" viewBox="0 0 128 128"><path fill="#222020" d="M74.55 55.43c.56.07 1.13.11 1.67.22A8.77 8.77 0 0183 62.76a11.33 11.33 0 010 2.91H69a.28.28 0 000 .13 5.62 5.62 0 005.69 4.53 5.94 5.94 0 004.18-1.8.3.3 0 01.23-.11H82.51c-.15.25-.28.53-.43.77a8.91 8.91 0 01-16.23-3 9 9 0 013.87-9.48A8.53 8.53 0 0174 55.46h.3zm-5.43 7.36h10.55c0-2-2.61-4.15-4.92-4.27a5.45 5.45 0 00-5.63 4.27z"/><path d="M37.63 55.43c.44.07.88.13 1.32.22a9 9 0 014.84 14.65 8.44 8.44 0 01-7.11 3.1 8.58 8.58 0 01-8.08-5.74 15.47 15.47 0 01-.55-2.28c0-.09 0-.18-.05-.27V63.7a1.42 1.42 0 00.05-.22 8.84 8.84 0 016.87-7.82c.47-.1.94-.15 1.41-.23zm5.16 9c0-.42-.08-.84-.16-1.25a5.79 5.79 0 00-6.78-4.56 6.32 6.32 0 00-.85.24 5.92 5.92 0 00-3.64 7.07 5.79 5.79 0 006.46 4.37 5.94 5.94 0 004.97-5.87zM87.17 78.57l2.55-6.24a.5.5 0 000-.34l-6.93-16.54h3.6a.79.79 0 000 .13l5 12.24.08.16a3 3 0 00.13-.29l1.88-4.6 3.12-7.64h3.4c0 .09 0 .19-.08.29l-6.75 16.43q-1.31 3.21-2.63 6.4zM56.6 55.43c.45.08.91.12 1.35.23A7.17 7.17 0 0163.59 61a9.06 9.06 0 01.25 2.26V73.4H60.6v-.33-9.46a9.84 9.84 0 00-.23-2.09 3.72 3.72 0 00-3-2.94 7 7 0 00-3 0 3.86 3.86 0 00-3.18 3.36 11.32 11.32 0 00-.13 1.74v9.73h-3.23a.77.77 0 010-.15V62.87a7 7 0 012.48-5.48 7.88 7.88 0 014.47-1.87l.3-.06z"/><path d="M112 100H16a4 4 0 01-4-4V32a4 4 0 014-4h96a4 4 0 014 4v64a4 4 0 01-4 4zM16 32v64h96V32z"/></svg>