<svg xmlns="http://www.w3.org/2000/svg" viewBox="0 0 96 96"><path fill="#222020" d="M70 52.13v-.41h-.17v-.09h.45v.09h-.17v.41zm.86 0v-.35l-.11.3h-.13l-.12-.3v.35h-.1v-.5h.19l.13.32.11-.32H71v.5z"/><path d="M20.26 60.35h43.33a12.08 12.08 0 006.63-1.91 12 12 0 005.56-8.13A12.34 12.34 0 0066 35.87a12 12 0 00-2.33-.22H32.36A12.32 12.32 0 0020 47.84v12.28c0 .23 0 .23.26.23zm43.38-10.83a3.31 3.31 0 011.93-2.41 3.92 3.92 0 011.66-.3 3.12 3.12 0 012.69 1.68 4.19 4.19 0 01.41 1.33 3.39 3.39 0 01-3.51 3.85 5.3 5.3 0 01-.69 0 3.34 3.34 0 01-2.54-2.41 4.33 4.33 0 010-1.72zm-7.5-.28a2.72 2.72 0 01.8-1.45 3.53 3.53 0 012.93-.88 2.2 2.2 0 01.79.24V47c0-1.62 0-3.25.13-4.87a.82.82 0 01.63-.77h.3c.32 0 .43.08.47.4a3.09 3.09 0 010 .8C62 43.64 62 44.72 62 45.81v3.26c0 .47 0 .94.1 1.4.11.82.26 1.63.41 2.43a.35.35 0 010 .3.71.71 0 01-.84.28.53.53 0 01-.21-.21 4.24 4.24 0 01-.18-.5c-.06-.17 0-.11-.06-.13s-.43.35-.65.5a3 3 0 01-2.37.41 2.63 2.63 0 01-2-1.84 4 4 0 01-.08-2.47zm-8.38.8a3.57 3.57 0 011.31-2.4 4.06 4.06 0 013.84-.47l.3.13a.36.36 0 00.41 0 .92.92 0 01.49-.13c.33 0 .44.11.44.45V50.23a16.56 16.56 0 00.45 2.52.52.52 0 01-.36.69.55.55 0 01-.82-.3 3.82 3.82 0 01-.21-.46l-.41.28a3.72 3.72 0 01-2.89.61A3.14 3.14 0 0147.76 50zm-7.45-1.47A3.78 3.78 0 0142.38 47a3.25 3.25 0 011.51-.15 3.74 3.74 0 012 1 2.08 2.08 0 01.43.51.51.51 0 01-.17.74c-.28.23-.42.23-.69 0l-.46-.42a2.22 2.22 0 00-2-.58 2.26 2.26 0 00-1.93 2.58 1.85 1.85 0 001.31 1.6 3.14 3.14 0 001.62.12 1.87 1.87 0 001.44-.94 1.31 1.31 0 01.2-.28.47.47 0 01.64-.11l.2.13a.51.51 0 01.15.6l-.11.26a2.65 2.65 0 01-1.57 1.33 5 5 0 01-2.37.22 3 3 0 01-2.52-2 2.84 2.84 0 01-.22-1.15 3 3 0 01.5-1.85zm-3.9 2c0-.75 0-1.5.05-2.24a3.76 3.76 0 01.19-1 .65.65 0 01.77-.43.63.63 0 01.58.68l-.12 1.71a25.49 25.49 0 000 3.27 2.47 2.47 0 010 .47.48.48 0 01-.44.52 1.18 1.18 0 01-.81-.24.49.49 0 01-.18-.38c0-.8-.06-1.58 0-2.38zm-.19-6.3a1.2 1.2 0 011.5-1.17c.72.22.74.48.87 1a1.07 1.07 0 01-.67 1.37h-.09a1.18 1.18 0 01-1.52-.69 1.05 1.05 0 01-.05-.19v-.3zm-3.64 3.83v-1.94a31.15 31.15 0 01.3-3.34 4.55 4.55 0 01.22-1 .57.57 0 01.34-.41 1 1 0 01.76 0 .4.4 0 01.3.47l-.16 1.34a21.37 21.37 0 00-.19 2.78c0 1.22-.06 2.43 0 3.62 0 .66.09 1.31.13 2a12.33 12.33 0 00.13 1.27.76.76 0 01-.11.53c-.17.28-1.08.31-1.25-.06a1.58 1.58 0 01-.13-.26c0-.12-.07-.25-.1-.37a18.07 18.07 0 01-.26-2.84v-1.72zm-3.58.3c0-1.57.07-3.14.22-4.7 0-.25.06-.49.1-.73a4.41 4.41 0 01.22-1.08.69.69 0 01.92-.49.49.49 0 01.44.52 1.41 1.41 0 010 .41c-.07.41-.11.83-.14 1.25-.1.81-.17 1.63-.21 2.45a39.09 39.09 0 00.06 4c0 .51.07 1 .11 1.51s.09 1 .15 1.46a.43.43 0 01-.35.5.69.69 0 01-.35 0 .74.74 0 01-.69-.45 1.71 1.71 0 01-.13-.44 8.07 8.07 0 01-.23-1.46v-.35C29 50 29 49.22 29 48.4zm-3.28-1.25a.89.89 0 01.85-.22.69.69 0 01.49.56 3.22 3.22 0 01.09.76c0 1.59 0 3.18-.05 4.74 0 .38-.15.53-.51.58h-.19c-.54 0-.76-.15-.76-.71v-2.8c0-.84-.06-1.7-.1-2.55a.52.52 0 01.14-.36zm-.77-2.74a1.34 1.34 0 011.18-1.35 1.24 1.24 0 011.23 1.2 1.17 1.17 0 01-1.16 1.27c-.71-.02-1.33-.6-1.29-1.12z"/><path d="M59.3 48.08l-.6.08a1.71 1.71 0 00-1.33 1.12 3.51 3.51 0 00-.18 1.44 1.7 1.7 0 002.31 1.51 1.74 1.74 0 001.29-1.66 4.39 4.39 0 00-.08-1.4 1.74 1.74 0 00-.13-.36 1.19 1.19 0 00-1-.71zM53.4 50.31a4 4 0 00-.06-.92 1.34 1.34 0 00-1.21-1.25 3 3 0 00-1.57.06A2.33 2.33 0 0049 50.92a1.76 1.76 0 00.47.88 2.24 2.24 0 002.18.63 2.88 2.88 0 001.27-.69 1.42 1.42 0 00.47-1.14zM67 52.47a2.16 2.16 0 001.29-.47 1.81 1.81 0 00.81-1.25 3.19 3.19 0 00-.1-1.43A1.87 1.87 0 0067.17 48a3.34 3.34 0 00-1.08.17 1.88 1.88 0 00-1.31 1.45 2.93 2.93 0 000 1.25 2.13 2.13 0 002.22 1.6z"/><path d="M85 76H11a3 3 0 01-3-3V23a3 3 0 013-3h74a3 3 0 013 3v50a3 3 0 01-3 3zm-73-4h72V24H12z"/></svg>