<svg xmlns="http://www.w3.org/2000/svg" viewBox="0 0 128 128"><path fill="#222020" d="M94.58 70v-.59h-.24v-.14H95v.14h-.24V70zm1.23 0v-.51l-.16.43h-.19l-.16-.43V70h-.19v-.73h.27l.19.46.16-.46H96V70z"/><path d="M42.63 83.17a2.68 2.68 0 00-.64-.41 2.06 2.06 0 00-.81-.13h-.48l-.49.13a1.84 1.84 0 00-.43.3 1.28 1.28 0 00-.37.43 1.84 1.84 0 00-1.69-.89h-.41l-.4.11a1.31 1.31 0 00-.37.24 1.56 1.56 0 00-.33.35v-.62h-1.07v5.08h1.07V85a1.22 1.22 0 01.11-.56 1.48 1.48 0 01.27-.43 1 1 0 01.4-.24 1.36 1.36 0 01.49-.08 1.08 1.08 0 01.85.32 1.55 1.55 0 01.3 1v2.82h1.07V85a2.1 2.1 0 01.08-.56 1.66 1.66 0 01.3-.43 1 1 0 01.4-.24 1.18 1.18 0 01.49-.08 1.08 1.08 0 01.83.32 1.42 1.42 0 01.29 1v2.82h1.08v-3.21a2.46 2.46 0 00-.14-.81 2.65 2.65 0 00-.4-.64zM48.27 83.35a1.77 1.77 0 00-.65-.53 2 2 0 00-.94-.19 2.39 2.39 0 00-1 .19 3.65 3.65 0 00-.81.53 3.33 3.33 0 00-.53.86 2.68 2.68 0 00-.19 1.08 2.8 2.8 0 00.72 1.9 2.73 2.73 0 00.81.54 2.59 2.59 0 001 .22 2 2 0 00.94-.22 1.62 1.62 0 00.65-.54v.62h1.1v-5.07h-1.1zm0 2.58a1.91 1.91 0 01-.32.51 1.39 1.39 0 01-.48.32 1.51 1.51 0 01-.62.14 1.65 1.65 0 01-.65-.14 1.24 1.24 0 01-.48-.34 1.76 1.76 0 01-.3-.51 1.65 1.65 0 01-.1-.62 1.8 1.8 0 01.1-.65 1.47 1.47 0 01.78-.86 1.84 1.84 0 01.65-.13 1.68 1.68 0 01.62.13 1.38 1.38 0 01.48.35 1.52 1.52 0 01.32.51 2.39 2.39 0 01.11.65 2.77 2.77 0 01-.14.64zM54.44 85.26a2.6 2.6 0 00-1.29-.48l-.51-.08-.35-.06-.24-.08-.19-.16a.32.32 0 01-.08-.21.51.51 0 01.27-.43 1.23 1.23 0 01.7-.19l.46.05.45.11.38.13.27.17.48-.86a2.5 2.5 0 00-.91-.41 4.31 4.31 0 00-1.13-.13 3 3 0 00-.89.11 2.4 2.4 0 00-.64.32 1.42 1.42 0 00-.43.51 1.7 1.7 0 00-.13.67 1.21 1.21 0 00.43 1 2.58 2.58 0 001.28.49l.51.08a1.48 1.48 0 01.68.19.44.44 0 01.21.37.49.49 0 01-.29.43 1.53 1.53 0 01-.86.19h-.57l-.43-.11-.37-.16-.3-.22-.51.83a2.82 2.82 0 00.57.35l.59.19.56.11h.46a3.45 3.45 0 001-.11 1.77 1.77 0 00.73-.35 1.58 1.58 0 00.45-.51 1.42 1.42 0 00.14-.67 1.17 1.17 0 00-.5-1.08zM64.78 83.35a1.9 1.9 0 00-.75-.53 2.33 2.33 0 00-1-.19 2.37 2.37 0 00-1 .19 1.91 1.91 0 00-.81.53 2.49 2.49 0 00-.51.84 2.92 2.92 0 00-.18 1.1 2.8 2.8 0 00.18 1.07 2.66 2.66 0 00.54.86 2.94 2.94 0 00.81.54 3.35 3.35 0 001 .19 3.67 3.67 0 001.1-.17 2.9 2.9 0 001-.56l-.57-.78a2 2 0 01-.69.38 2 2 0 01-.76.16 1.81 1.81 0 01-.51-.08 1.31 1.31 0 01-.45-.24 1.16 1.16 0 01-.35-.38 1.37 1.37 0 01-.19-.59h3.73a.71.71 0 010-.21v-.22a2.78 2.78 0 00-.19-1.07 2.51 2.51 0 00-.4-.84zm-3.09 1.48a2.62 2.62 0 01.13-.48 1.08 1.08 0 01.3-.4 1.46 1.46 0 01.38-.27 1.37 1.37 0 01.5-.08 1.14 1.14 0 01.86.32 1.75 1.75 0 01.43.91zM79.44 83.35a2.19 2.19 0 00-.68-.53 1.89 1.89 0 00-.91-.19 2.24 2.24 0 00-1 .19 2.42 2.42 0 00-.81.53 2.34 2.34 0 00-.53.86 2.66 2.66 0 000 2.12 1.92 1.92 0 00.53.86 2.1 2.1 0 00.81.54 2.42 2.42 0 001 .22 1.91 1.91 0 00.91-.22 1.8 1.8 0 00.68-.54v.62h1.1v-5.07h-1.1zm-.06 2.58a1.83 1.83 0 01-.29.51 1.43 1.43 0 01-.49.32 1.57 1.57 0 01-.64.14 1.51 1.51 0 01-.62-.14 1.17 1.17 0 01-.48-.34 1.32 1.32 0 01-.3-.51 1.65 1.65 0 01-.1-.62 1.8 1.8 0 01.1-.65 1.32 1.32 0 01.3-.51 1.51 1.51 0 011.1-.48 1.74 1.74 0 01.64.13 1.33 1.33 0 01.49.35 1.44 1.44 0 01.29.51 1.62 1.62 0 01.11.65 1.72 1.72 0 01-.11.64zM59.17 86.79a1.14 1.14 0 01-.51.11l-.33-.06a.38.38 0 01-.24-.16 1 1 0 01-.18-.29 1.59 1.59 0 01-.06-.43v-2.2h1.77v-1h-1.77v-1.55h-1.1v1.53h-1v1h1V86a2.07 2.07 0 00.46 1.47 1.84 1.84 0 001.34.49 2.13 2.13 0 00.86-.17 2.06 2.06 0 00.48-.21l-.37-.94a.85.85 0 01-.35.15zM69.13 82.63a2.2 2.2 0 00-.84.16 1.73 1.73 0 00-.61.62v-.67h-1v5.07h1V85a1.52 1.52 0 01.08-.56A1.21 1.21 0 0168 84a.72.72 0 01.37-.27 1.18 1.18 0 01.49-.08h.42l.22.08.32-1.08-.27-.05zM84.46 82.63a2.2 2.2 0 00-.84.16 1.65 1.65 0 00-.61.62v-.67H82v5.07h1V85a1.19 1.19 0 01.1-.56.89.89 0 01.25-.43.72.72 0 01.37-.27 1.16 1.16 0 01.48-.08h.43l.22.08.32-1.08-.27-.05zM89.61 80.7v2.65a1.82 1.82 0 00-.64-.53 2.06 2.06 0 00-.94-.19 2.47 2.47 0 00-1 .19 3.59 3.59 0 00-.8.53 3.11 3.11 0 00-.54.86 2.86 2.86 0 00-.19 1.08 2.74 2.74 0 00.73 1.9 2.57 2.57 0 00.8.54A2.64 2.64 0 0088 88a2.06 2.06 0 00.94-.22 1.53 1.53 0 00.64-.54v.62h1.1V80.7zm0 5.23a1.91 1.91 0 01-.32.51 1.39 1.39 0 01-.48.32 1.51 1.51 0 01-.62.14 1.57 1.57 0 01-.64-.14 1.21 1.21 0 01-.49-.34 2.16 2.16 0 01-.29-.51 2.18 2.18 0 01-.11-.62 2.39 2.39 0 01.11-.65 2.16 2.16 0 01.29-.51 1.51 1.51 0 011.13-.48 1.68 1.68 0 01.62.13 1.3 1.3 0 01.48.35 1.52 1.52 0 01.32.51 2.06 2.06 0 01.11.65 2.32 2.32 0 01-.14.64zM71.78 84.11a1.63 1.63 0 01.49-.33 1.74 1.74 0 01.64-.13 1.9 1.9 0 01.67.13 1 1 0 01.54.33l.54-.89a3 3 0 00-.67-.4 2.86 2.86 0 00-1.08-.19 3 3 0 00-1.1.19 2.72 2.72 0 00-.86.56 2.59 2.59 0 00-.56.83 2.66 2.66 0 000 2.12 2.53 2.53 0 00.56.84 2.72 2.72 0 00.86.56 3.22 3.22 0 001.1.22 3.06 3.06 0 001.09-.22 3.72 3.72 0 00.67-.38l-.54-.88a1.55 1.55 0 01-.54.32 2.93 2.93 0 01-.67.11 2.32 2.32 0 01-.64-.11 1.52 1.52 0 01-.49-.35 1.27 1.27 0 01-.34-.51 1.54 1.54 0 01-.11-.64 1.69 1.69 0 01.11-.67 1.27 1.27 0 01.33-.51zM55.65 59.11a19 19 0 017.25-14.92 19.06 19.06 0 100 29.88 19.05 19.05 0 01-7.25-14.96z"/><path d="M74.71 42.74a16.38 16.38 0 010 32.75 16 16 0 01-7.49-1.83 21.65 21.65 0 000-29.1 16 16 0 017.49-1.82m0-2.69a18.91 18.91 0 00-11.81 4.14 19.06 19.06 0 010 29.88 19.06 19.06 0 1011.81-34z"/><path d="M112 100H16a4 4 0 01-4-4V32a4 4 0 014-4h96a4 4 0 014 4v64a4 4 0 01-4 4zM16 32v64h96V32z"/></svg>