<svg xmlns="http://www.w3.org/2000/svg" viewBox="0 0 64 64"><path fill="#222020" d="M45 10a19.49 19.49 0 00-26.59 28.45 8.4 8.4 0 012.59 6 3.5 3.5 0 002 3.15V50a3.51 3.51 0 002.56 3.36 6.5 6.5 0 0012.88 0A3.51 3.51 0 0041 50v-2.35a3.5 3.5 0 002-3.16 8.58 8.58 0 012.68-6.12A19.33 19.33 0 0051.5 24.5 19.55 19.55 0 0045 10zm-7 38v2a.5.5 0 01-.5.5h-11a.5.5 0 01-.5-.5v-2zm-6 8a3.5 3.5 0 01-3.34-2.5h6.68A3.5 3.5 0 0132 56zm11.58-19.77A11.56 11.56 0 0040 44.5a.5.5 0 01-.5.5h-6v-8.38l6.06-6.06a1.5 1.5 0 00-2.12-2.12L32 33.88l-5.44-5.44a1.5 1.5 0 00-2.12 2.12l6.06 6.06V45h-6a.51.51 0 01-.5-.52 11.54 11.54 0 00-3.5-8.18 16.48 16.48 0 019.61-28.2A17.62 17.62 0 0132 8a16.28 16.28 0 0111 4.2 16.47 16.47 0 01.58 24z"/></svg>