<svg xmlns="http://www.w3.org/2000/svg" viewBox="0 0 48 48"><path fill="#222020" d="M43.45 21.07L32.13 9.75A1.5 1.5 0 1 0 30 11.88l.71.7-1.18 1.18a1 1 0 0 1-.71.3h-9.65a1 1 0 0 1-.71-.3l-1.18-1.18.71-.7a1.5 1.5 0 0 0-2.12-2.13L4.55 21.07a1.51 1.51 0 0 0 0 2.12 1.51 1.51 0 0 0 2.13 0l.7-.71 3.89 3.89-.7.71a3 3 0 0 0-.88 2.12 3 3 0 0 0 .87 2.12 2.94 2.94 0 0 0 2 .86 2.94 2.94 0 0 0 2.8 2.82 2.94 2.94 0 0 0 2.83 2.83 2.94 2.94 0 0 0 .86 2 3 3 0 0 0 4.24 0l.84-.84a3 3 0 0 0 1.28.3 3 3 0 0 0 3-2.84 3 3 0 0 0 2.83-2.83 3 3 0 0 0 2.83-2.83 3 3 0 0 0 2-.86 3 3 0 0 0 .58-3.41l4-4 .7.71a1.51 1.51 0 0 0 2.13 0 1.51 1.51 0 0 0-.03-2.16zM11.69 29.2a1 1 0 0 1 .29-.71l.71-.71 1.41 1.42-.71.71a1 1 0 0 1-1.41 0 1 1 0 0 1-.29-.71zm3.12 2.12l.7-.71L16.93 32l-.71.7a1 1 0 0 1-1.41 0 1 1 0 0 1 0-1.38zm2.83 2.83l.7-.71 1.42 1.42-.71.7a1 1 0 1 1-1.41-1.41zm4.24 4.24A1 1 0 0 1 20.46 37l.71-.71 1.42 1.42zm12.73-9.9a1 1 0 0 1-1.42 0L29 24.25l-1.41-1.41-1.42 1.41 5.66 5.66a1 1 0 0 1 0 1.41 1 1 0 0 1-1.42 0l-5.65-5.66-1.42 1.42L29 32.73a1 1 0 0 1 .29.71 1 1 0 0 1-1.7.71l-5.66-5.66-1.42 1.42 5.66 5.65a1 1 0 0 1 0 1.42 1 1 0 0 1-1.41 0l-2.12-2.12-.71-.71-.71-.71-2.83-2.83-1.46-1.41-4.24-4.2-3.89-3.93L15.87 14l1.18 1.18a3 3 0 0 0 2.12.88h2.42l-5.37 5.36a3 3 0 0 0 4.24 4.24L24.12 22a1 1 0 0 1 .71-.3h4a1 1 0 0 1 .71.3l5.07 5.07a1 1 0 0 1 0 1.42zm.7-3.53L31 20.59a3 3 0 0 0-2.12-.88h-4a3 3 0 0 0-2.12.88l-3.66 3.66a1 1 0 0 1-1.71-.71 1 1 0 0 1 .3-.7l6.48-6.49a1 1 0 0 1 .71-.29h4a3 3 0 0 0 2.12-.88L32.13 14l7.07 7.07z"/></svg>