<svg xmlns="http://www.w3.org/2000/svg" viewBox="0 0 48 48"><path fill="#222020" d="M39.15 11l.05-.05-2.12-2.15A20 20 0 0 0 8.85 37l2.12 2.12.05-.05A20 20 0 0 0 39.15 11zM7 24a17 17 0 0 1 27.9-13l-4.64 4.65L29 14.18a2 2 0 0 0-1.5-.68h-7a2 2 0 0 0-1.5.68L17.4 16H15a2 2 0 0 0-2 2v12a2 2 0 0 0 1.1 1.78L11 34.9A16.93 16.93 0 0 1 7 24zm23.6-6H33v12H15V18h2.4a2 2 0 0 0 1.5-.68l1.6-1.82h7l1.6 1.82a2 2 0 0 0 1.5.68zM14.54 31.94zM24 41a16.93 16.93 0 0 1-10.9-4l5-5H33a2 2 0 0 0 2-2V18a2 2 0 0 0-1.1-1.78L37 13.1A17 17 0 0 1 24 41zm9.46-24.94z"/><path d="M17.71 19.29a1 1 0 0 0-1.42 0 1.15 1.15 0 0 0-.21.33.84.84 0 0 0-.08.38 1 1 0 0 0 .29.71 1.15 1.15 0 0 0 .33.21.94.94 0 0 0 .76 0 1.15 1.15 0 0 0 .33-.21 1 1 0 0 0 .21-1.09 1.15 1.15 0 0 0-.21-.33zM24 19a5 5 0 1 0 5 5 5 5 0 0 0-5-5zm0 8a3 3 0 1 1 3-3 3 3 0 0 1-3 3z"/></svg>