<svg xmlns="http://www.w3.org/2000/svg" viewBox="0 0 48 48"><path fill="#222020" d="M36 4H12a2 2 0 0 0-2 2v36a2 2 0 0 0 2 2h24a2 2 0 0 0 2-2V6a2 2 0 0 0-2-2zm-1 37H13V7h22z"/><path d="M17 34h14a1 1 0 0 0 0-2H17a1 1 0 0 0 0 2zM17 38h14a1 1 0 0 0 0-2H17a1 1 0 0 0 0 2zM19.5 17.51A1.5 1.5 0 0 0 21 16a3 3 0 0 1 3-3 3.08 3.08 0 0 1 3 3 3 3 0 0 1-1.69 2.7A4.84 4.84 0 0 0 22.5 23v.5a1.5 1.5 0 0 0 3 0V23a1.85 1.85 0 0 1 1.13-1.63A6 6 0 0 0 24 10a6 6 0 0 0-6 6 1.5 1.5 0 0 0 1.5 1.51zM22.5 28.47a1.5 1.5 0 0 0 3 0 1.5 1.5 0 0 0-3 0z"/><path d="M36 4H12a2 2 0 0 0-2 2v36a2 2 0 0 0 2 2h24a2 2 0 0 0 2-2V6a2 2 0 0 0-2-2zm-1 37H13V7h22z"/><path d="M17 34h14a1 1 0 1 0 0-2H17a1 1 0 0 0 0 2zM17 38h14a1 1 0 1 0 0-2H17a1 1 0 0 0 0 2zM19.5 17.49A1.5 1.5 0 0 0 21 16a3 3 0 0 1 3-3 3.08 3.08 0 0 1 3 3 3 3 0 0 1-1.69 2.7A4.83 4.83 0 0 0 22.5 23v.5a1.5 1.5 0 1 0 3 0V23a1.84 1.84 0 0 1 1.13-1.63A6 6 0 0 0 24 10a6 6 0 0 0-6 6 1.5 1.5 0 0 0 1.5 1.49zM22.5 28.44a1.5 1.5 0 0 0 3 0 1.5 1.5 0 1 0-3 0z"/></svg>