<svg xmlns="http://www.w3.org/2000/svg" viewBox="0 0 48 48"><path fill="#222020" d="M30 32a10 10 0 0 0 4-8 9.92 9.92 0 0 0-.62-3.94c1.67-.77 2.62-1.77 2.62-2.87s-.11-1.08-1.68-1.72A.52.52 0 0 1 34 15a8 8 0 0 0-7-7.93V7a1 1 0 0 0-1-1h-4a1 1 0 0 0-1 1v.07A8 8 0 0 0 14 15a.52.52 0 0 1-.32.47c-1.57.64-1.68.7-1.68 1.72s.95 2.1 2.62 2.87A10.13 10.13 0 0 0 14 24a10 10 0 0 0 4 8 8 8 0 0 0-8 8v2a2 2 0 0 0 2 2h24a2 2 0 0 0 2-2v-2a8 8 0 0 0-8-8zM17 15a5 5 0 0 1 4-4.9v4.26a1 1 0 0 0 2 0V10h2v4.36a1 1 0 0 0 2 0V10.1a5 5 0 0 1 4 4.9 3.51 3.51 0 0 0 1 2.42 17.44 17.44 0 0 1-5.25 1.14c-1 .06-2 .1-2.94.1a30.81 30.81 0 0 1-4-.28 15.56 15.56 0 0 1-3.73-1A3.51 3.51 0 0 0 17 15zm.45 6c.54.11 1.08.19 1.63.27a32 32 0 0 0 4.92.36c.94 0 1.83 0 2.69-.1a31.08 31.08 0 0 0 3.88-.47A6.8 6.8 0 0 1 31 24a7 7 0 0 1-14 0 7 7 0 0 1 .45-3zM35 41H13v-1a5 5 0 0 1 5-5h12a5 5 0 0 1 5 5z"/></svg>