<svg xmlns="http://www.w3.org/2000/svg" viewBox="0 0 48 48"><path fill="#222020" d="M23.8 16.5a1.52 1.52 0 0 1-1.34-.82 6.7 6.7 0 0 1 .25-6.44 3.7 3.7 0 0 0 .15-3.56 1.5 1.5 0 1 1 2.68-1.36 6.7 6.7 0 0 1-.25 6.44 3.7 3.7 0 0 0-.15 3.56 1.5 1.5 0 0 1-1.34 2.18z"/><path d="M31.3 16.5a1.52 1.52 0 0 1-1.3-.82 6.7 6.7 0 0 1 .25-6.44 3.7 3.7 0 0 0 .15-3.56A1.5 1.5 0 1 1 33 4.32a6.7 6.7 0 0 1-.25 6.44 3.7 3.7 0 0 0-.15 3.56 1.5 1.5 0 0 1-1.3 2.18zM16.3 16.5a1.52 1.52 0 0 1-1.3-.82 6.7 6.7 0 0 1 .25-6.44 3.7 3.7 0 0 0 .15-3.56A1.5 1.5 0 1 1 18 4.32a6.7 6.7 0 0 1-.25 6.44 3.7 3.7 0 0 0-.15 3.56 1.5 1.5 0 0 1-1.3 2.18zM39.5 21.5h-.25A5 5 0 0 0 31 19.44a5 5 0 0 0-7 0 5 5 0 0 0-7 0A5 5 0 0 0 8.5 23v16a5 5 0 0 0 8.5 3.56 5 5 0 0 0 7 0 5 5 0 0 0 7 0A5 5 0 0 0 39.5 39v-8.5a4.5 4.5 0 0 0 0-9zM15.5 39a2 2 0 0 1-4 0V23a2 2 0 0 1 4 0zm7 0a2 2 0 0 1-4 0V23a2 2 0 0 1 4 0zm7 0a2 2 0 0 1-4 0V23a2 2 0 0 1 4 0zm7 0a2 2 0 0 1-4 0V23a2 2 0 0 1 4-.3 4.44 4.44 0 0 0 0 6.63zm3-11.5A1.5 1.5 0 1 1 41 26a1.5 1.5 0 0 1-1.5 1.5z"/></svg>