<svg xmlns="http://www.w3.org/2000/svg" viewBox="0 0 64 64"><defs><style>.a{fill:none;}.b{fill:#999;}</style></defs><title>Media-TimeRead-64px</title><rect class="a" width="64" height="64"/><path class="b" d="M32,19.7a1.5,1.5,0,0,0-1.5,1.5V31.4l-5,4.9a1.8,1.8,0,0,0,0,2.2,1.7,1.7,0,0,0,2.2,0l5.4-5.4a2.1,2.1,0,0,0,.4-1.1V21.2A1.5,1.5,0,0,0,32,19.7Z"/><path class="b" d="M32,5A27,27,0,1,0,59,32,27,27,0,0,0,32,5Zm1,51V52a1,1,0,0,0-2,0v4A24.1,24.1,0,0,1,8,33h4a1,1,0,0,0,0-2H8A24.1,24.1,0,0,1,31,8v4a1,1,0,0,0,2,0V8A24.1,24.1,0,0,1,56,31H52a1,1,0,0,0,0,2h4A24.1,24.1,0,0,1,33,56Z"/></svg>