<svg xmlns="http://www.w3.org/2000/svg" viewBox="0 0 64 64"><defs><style>.cls-1{fill:none;}.cls-2{fill:#999;}</style></defs><title>Navigation_Publish_Edit_64px</title><g id="Square"><rect class="cls-1" width="64" height="64"/></g><g id="Icon"><path class="cls-2" d="M51.85,52H12V12H30.5A1.5,1.5,0,0,0,32,10.5h0A1.5,1.5,0,0,0,30.5,9H11a2,2,0,0,0-2,2V53a2,2,0,0,0,2,2H52.85a2,2,0,0,0,2-2V33.5a1.5,1.5,0,0,0-1.5-1.5h0a1.5,1.5,0,0,0-1.5,1.5Z"/><path class="cls-2" d="M58.31,11.63,52.47,5.79A2.65,2.65,0,0,0,50.57,5a2.72,2.72,0,0,0-1.94.81L21.55,32.89a2.14,2.14,0,0,0-.49.82l-3,9.76A2,2,0,0,0,20.5,46l9.88-2.93a1.94,1.94,0,0,0,.85-.5L58.29,15.47A2.73,2.73,0,0,0,58.31,11.63ZM25,33.69,46.33,12.35l5.42,5.42L30.42,39.11Zm-1.28,1.55,5.13,5.14-7.41,2.19ZM53.16,16.36l-5.42-5.42,2.82-2.82L56,13.54Z"/></g></svg>