<svg xmlns="http://www.w3.org/2000/svg" viewBox="0 0 64 64"><defs><style>.cls-1{fill:none;}.cls-2{fill:#999;}</style></defs><title>Navigation_Display_Calendar_64px</title><g id="Square"><rect class="cls-1" width="64" height="64"/></g><g id="Icon"><path class="cls-2" d="M53,9H44.5V6.54a1.5,1.5,0,1,0-3,0V9h-8V6.54a1.5,1.5,0,1,0-3,0V9h-8V6.54a1.5,1.5,0,1,0-3,0V9H11a2,2,0,0,0-2,2V53a2,2,0,0,0,2,2H53a2,2,0,0,0,2-2V11A2,2,0,0,0,53,9ZM19.5,12v3.53a1.5,1.5,0,0,0,3,0V12h8v3.53a1.5,1.5,0,0,0,3,0V12h8v3.53a1.5,1.5,0,0,0,3,0V12H52v9H12V12ZM12,52V24H52V52Z"/></g></svg>