<svg xmlns="http://www.w3.org/2000/svg" viewBox="0 0 64 64"><defs><style>.cls-1{fill:none;}.cls-2{fill:#999;}</style></defs><title>Navigation_Display_LinkOut_64px</title><g id="Square"><rect class="cls-1" width="64" height="64"/></g><g id="Icon"><path class="cls-2" d="M57.22,5H33.5a1.5,1.5,0,0,0,0,3H53.88L24.44,37.44a1.49,1.49,0,0,0,0,2.12,1.5,1.5,0,0,0,2.12,0L56,10.12V30.5a1.5,1.5,0,0,0,3,0V6.78A1.78,1.78,0,0,0,57.22,5Z"/><path class="cls-2" d="M51,56H8V13H20.5V10H7a2,2,0,0,0-2,2V57a2,2,0,0,0,2,2H52a2,2,0,0,0,2-2V43H51Z"/></g></svg>