<svg xmlns="http://www.w3.org/2000/svg" viewBox="0 0 64 64"><defs><style>.a{fill:none;}.b{fill:#999;}</style></defs><title>NU-User-Account-Profile_View-64px</title><rect class="a" width="64" height="64"/><path class="b" d="M31.3,12.7a9.2,9.2,0,0,1,9.2,9.2,9.2,9.2,0,1,1-18.4,0,9.2,9.2,0,0,1,9.2-9.2m0-3a12.2,12.2,0,0,0,.1,24.4,12.2,12.2,0,0,0-.1-24.4Z"/><path class="b" d="M31.3,39.8a23.6,23.6,0,0,1,16,6v6.9h-32V45.8a24.1,24.1,0,0,1,16-6m0-3a26.9,26.9,0,0,0-18.1,6.9,2.5,2.5,0,0,0-.9,2v8.7a1.3,1.3,0,0,0,1.4,1.3H48.9a1.4,1.4,0,0,0,1.4-1.4h0V45.7a2.5,2.5,0,0,0-.9-2,26.2,26.2,0,0,0-18.1-6.9Z"/></svg>