<svg xmlns="http://www.w3.org/2000/svg" viewBox="0 0 64 64"><defs><style>.cls-1{fill:none;}.cls-2{fill:#999;}</style></defs><title>Payment_Euro_64px</title><g id="Square"><rect class="cls-1" width="64" height="64"/></g><g id="Icon"><path class="cls-2" d="M52.53,50.29A24,24,0,0,1,14,39H41.5a1.5,1.5,0,0,0,0-3H13.34a23.7,23.7,0,0,1,0-8H41.5a1.5,1.5,0,0,0,0-3H14A24,24,0,0,1,52.53,13.71a1.5,1.5,0,0,0,1.94-2.29A27,27,0,0,0,10.93,25H6.5a1.5,1.5,0,0,0,0,3h3.8a26.82,26.82,0,0,0,0,8H6.5a1.5,1.5,0,0,0,0,3h4.43A27,27,0,0,0,54.47,52.58a1.5,1.5,0,0,0-1.94-2.29Z"/></g></svg>