<svg xmlns="http://www.w3.org/2000/svg" viewBox="0 0 64 64"><defs><style>.cls-1{fill:none;}.cls-2,.cls-3{fill:#999;}.cls-2{fill-rule:evenodd;}</style></defs><title>Product_Promise_ProductSheet_64px</title><g id="Square"><rect class="cls-1" width="64" height="64"/></g><g id="Icon"><path class="cls-2" d="M49,5H15a2,2,0,0,0-2,2V57a2,2,0,0,0,2,2H49a2,2,0,0,0,2-2V7A2,2,0,0,0,49,5ZM48,8V19.5H16V8ZM16,56V22.5H48V56Z"/><path class="cls-2" d="M41.5,32H28.61a1.5,1.5,0,0,0,0,3H41.5a1.5,1.5,0,0,0,0-3Z"/><circle class="cls-3" cx="22.5" cy="33.54" r="1.5"/><path class="cls-2" d="M41.5,43H28.61a1.5,1.5,0,0,0,0,3H41.5a1.5,1.5,0,0,0,0-3Z"/><circle class="cls-3" cx="22.5" cy="44.54" r="1.5"/></g></svg>