<svg xmlns="http://www.w3.org/2000/svg" viewBox="0 0 64 64"><defs><style>.cls-1{fill:none;}.cls-2{fill:#999;}</style></defs><title>Service_Delay_TimeDecline_64px</title><g id="Square"><rect class="cls-1" width="64" height="64"/></g><g id="Icon"><path class="cls-2" d="M41.58,20.3l-8.41,8.41a3.53,3.53,0,1,0,2.12,2.12l8.41-8.41a1.5,1.5,0,1,0-2.12-2.12Z"/><path class="cls-2" d="M52.12,14l1.38-1.38.94.94a1.5,1.5,0,0,0,2.12,0,1.49,1.49,0,0,0,0-2.12l-4-4a1.5,1.5,0,0,0-2.12,2.12l.94.94L50,11.88a27,27,0,0,0-36,0L11.37,9.25l1.94-1.94a1.5,1.5,0,0,0-2.12-2.12l-6,6a1.49,1.49,0,0,0,0,2.12,1.5,1.5,0,0,0,2.12,0l1.94-1.94L11.88,14a27,27,0,1,0,40.24,0ZM32,56A24,24,0,1,1,56,32,24,24,0,0,1,32,56Z"/></g></svg>