<svg xmlns="http://www.w3.org/2000/svg" viewBox="0 0 64 64"><defs><style>.a{fill:none;}.b{fill:#999;}</style></defs><title>Service-Delivery-AtHome-64px</title><rect class="a" width="64" height="64"/><path class="b" d="M55.5,29.8H54.3l-3.2-8a3.5,3.5,0,0,0-3.2-2.2H43V16.5A3.5,3.5,0,0,0,39.5,13h-27A3.5,3.5,0,0,0,9,16.5V20h3V16.5a.5.5,0,0,1,.5-.5h27a.5.5,0,0,1,.5.5V29.6a1.5,1.5,0,0,0,1.5,1.5A1.5,1.5,0,0,0,43,29.6h0v-7h4.9c.2,0,.3.1.4.3l3.9,9.9h3.3a.5.5,0,0,1,.5.5v9.3a.5.5,0,0,1-.5.5H52.6a7.3,7.3,0,0,0-14.6,0H32a7.3,7.3,0,0,0-14.6,0h-5a.5.5,0,0,1-.5-.5v-4H9v4a3.5,3.5,0,0,0,3.5,3.5h5.3a7.3,7.3,0,0,0,9.3,4.5,7.2,7.2,0,0,0,4.5-4.5h6.8a7.2,7.2,0,0,0,9.2,4.5,7.1,7.1,0,0,0,4.6-4.5h3.3A3.5,3.5,0,0,0,59,42.6V33.3A3.5,3.5,0,0,0,55.5,29.8Zm-38,15h0ZM24.7,48a4.3,4.3,0,0,1-4.3-4.3,4.2,4.2,0,0,1,4.2-4.3A4.4,4.4,0,0,1,29,43.7h0A4.3,4.3,0,0,1,24.7,48Zm7.2-3.2h0Zm6.2,0h0ZM45.3,48a4.3,4.3,0,1,1,4.3-4.3A4.3,4.3,0,0,1,45.3,48Zm7.2-3.2h0Z"/><path class="b" d="M19.7,34.7a.9.9,0,0,0-1-1H7.2a1,1,0,0,0-1,1,1.1,1.1,0,0,0,1,1H18.7A1,1,0,0,0,19.7,34.7Z"/><path class="b" d="M18.7,28.3h-8a1.1,1.1,0,0,0-1,1,1,1,0,0,0,1,1h8a.9.9,0,0,0,1-1A1,1,0,0,0,18.7,28.3Z"/><path class="b" d="M19.7,24a.9.9,0,0,0-1-1H6a1,1,0,0,0-1,1,1.1,1.1,0,0,0,1,1H18.7A1,1,0,0,0,19.7,24Z"/></svg>