<svg xmlns="http://www.w3.org/2000/svg" viewBox="0 0 64 64"><defs><style>.a{fill:none;}.b{fill:#999;}</style></defs><title>Service-Delivery-PickupPoint-64px</title><rect class="a" width="64" height="64"/><path class="b" d="M52.1,18.5,34,8a4.1,4.1,0,0,0-4,0L11.9,18.5A3.7,3.7,0,0,0,10,21.7V42.3a3.7,3.7,0,0,0,1.9,3.2L30,56a4.1,4.1,0,0,0,4,0L52.1,45.5A3.7,3.7,0,0,0,54,42.3V21.7A3.7,3.7,0,0,0,52.1,18.5ZM31.5,10.6h1l16.9,9.8-7.1,3.9L24.6,14.6ZM32,30,14.6,20.4l7-4L39.2,26ZM13.4,42.9a.7.7,0,0,1-.4-.6V22.9l17.5,9.7V52.8Zm37.2,0L33.5,52.8V32.6L51,23V42.3A.5.5,0,0,1,50.6,42.9Z"/></svg>