<svg xmlns="http://www.w3.org/2000/svg" viewBox="0 0 64 64"><defs><style>.a{fill:none;}.b{fill:#999;}</style></defs><title>Service-AfterSales-AfterSalesService-64px</title><rect class="a" width="64" height="64"/><path class="b" d="M54.2,17.4a1.3,1.3,0,0,0-1.1-.9,1.2,1.2,0,0,0-1.3.4l-5.6,5.6a1.7,1.7,0,0,1-2.1,0l-2.5-2.6a1.6,1.6,0,0,1-.5-1.1,1.6,1.6,0,0,1,.5-1l5.5-5.6a1.2,1.2,0,0,0,.4-1.3,1.3,1.3,0,0,0-.9-1.1,13.1,13.1,0,0,0-13.6,3,12.8,12.8,0,0,0-3.3,12.1,1.9,1.9,0,0,1-.2.7L6.9,48.1A6.7,6.7,0,0,0,5,52.6a6.4,6.4,0,0,0,1.9,4.5A6,6,0,0,0,11.4,59a6.3,6.3,0,0,0,4.5-1.9L38.4,34.5a.8.8,0,0,1,.7-.1A12.9,12.9,0,0,0,51.2,31,13.1,13.1,0,0,0,54.2,17.4ZM49.1,28.9a9.7,9.7,0,0,1-9.3,2.5,3.7,3.7,0,0,0-3.5,1L13.7,55A3.3,3.3,0,0,1,9,55a3.5,3.5,0,0,1-1-2.4,3.4,3.4,0,0,1,1-2.3L31.6,27.7a3.8,3.8,0,0,0,1-3.5A9.9,9.9,0,0,1,42.2,12h.9l-3.7,3.6a4.6,4.6,0,0,0-1.3,3.1A4.6,4.6,0,0,0,39.4,22L42,24.6a4.6,4.6,0,0,0,3.2,1.3,4.4,4.4,0,0,0,3.1-1.3L52,20.9A10.1,10.1,0,0,1,49.1,28.9Z"/><path class="b" d="M11.4,50.9a1.7,1.7,0,0,0-1.6,1.7,1.6,1.6,0,0,0,1.6,1.6,1.7,1.7,0,0,0,1.7-1.6A1.8,1.8,0,0,0,11.4,50.9Z"/></svg>