<svg xmlns="http://www.w3.org/2000/svg" viewBox="0 0 64 64"><defs><style>.cls-1{fill:none;}.cls-2{fill:#999;}</style></defs><title>Social_SocialNetwork_Youtube_64px</title><g id="Square"><rect class="cls-1" y="3" width="64" height="64"/></g><g id="Icon"><polygon class="cls-2" points="28.91 36.65 36.94 32.01 28.91 27.37 28.91 36.65"/><path class="cls-2" d="M53,9H11a2,2,0,0,0-2,2V53a2,2,0,0,0,2,2H53a2,2,0,0,0,2-2V11A2,2,0,0,0,53,9ZM46.82,39.46a3.89,3.89,0,0,1-2.74,2.73c-2.41.65-12.08.65-12.08.65s-9.67,0-12.08-.65a3.86,3.86,0,0,1-2.73-2.73A40.12,40.12,0,0,1,16.54,32a40,40,0,0,1,.65-7.44,3.84,3.84,0,0,1,2.73-2.73c2.41-.65,12.08-.65,12.08-.65s9.67,0,12.08.65a3.88,3.88,0,0,1,2.74,2.73A40.59,40.59,0,0,1,47.46,32,40.73,40.73,0,0,1,46.82,39.46Z"/></g></svg>