<svg xmlns="http://www.w3.org/2000/svg" viewBox="0 0 64 64"><defs><style>.cls-1{fill:none;}.cls-2{fill:#999;}</style></defs><title>Social_SocialNetwork_Instagram_64px</title><g id="Square"><rect class="cls-1" y="3" width="64" height="64"/></g><g id="Icon"><path class="cls-2" d="M45.8,28c0-.52,0-1.23-.06-2.11a18,18,0,0,0-.22-2.26,7.93,7.93,0,0,0-.41-1.56,5.74,5.74,0,0,0-3.19-3.2,9.14,9.14,0,0,0-1.57-.4,16.14,16.14,0,0,0-2.25-.22c-.89,0-1.59-.06-2.12-.07H28c-.52,0-1.22,0-2.11.07a16.14,16.14,0,0,0-2.25.22,8.9,8.9,0,0,0-1.57.4,5.79,5.79,0,0,0-1.93,1.27,5.94,5.94,0,0,0-1.27,1.93,8.77,8.77,0,0,0-.4,1.56,18,18,0,0,0-.22,2.26c0,.88-.06,1.59-.06,2.11s0,1.3,0,2.31,0,1.58,0,1.68,0,.66,0,1.67,0,1.79,0,2.31,0,1.23.06,2.11a17.82,17.82,0,0,0,.22,2.26,8.77,8.77,0,0,0,.4,1.56,5.74,5.74,0,0,0,1.27,1.93,5.64,5.64,0,0,0,1.93,1.27,8.83,8.83,0,0,0,1.57.41,17.83,17.83,0,0,0,2.25.22l2.11.06h8l2.12-.06a17.83,17.83,0,0,0,2.25-.22,9.07,9.07,0,0,0,1.57-.41,5.74,5.74,0,0,0,3.19-3.2,7.93,7.93,0,0,0,.41-1.56,17.82,17.82,0,0,0,.22-2.26c0-.88.06-1.58.06-2.11s0-1.29,0-2.31,0-1.57,0-1.67,0-.66,0-1.68S45.81,28.55,45.8,28Zm-7.69,10.1a8.69,8.69,0,0,1-12.22,0,8.67,8.67,0,0,1,0-12.22,8.67,8.67,0,0,1,12.22,0,8.67,8.67,0,0,1,0,12.22ZM42.4,24.45A1.91,1.91,0,0,1,41,25a2,2,0,1,1,0-4,1.91,1.91,0,0,1,1.42.59,2,2,0,0,1,0,2.84Z"/><path class="cls-2" d="M32,26.4A5.6,5.6,0,0,0,28,36,5.6,5.6,0,0,0,36,28,5.4,5.4,0,0,0,32,26.4Z"/><path class="cls-2" d="M53,9H11a2,2,0,0,0-2,2V53a2,2,0,0,0,2,2H53a2,2,0,0,0,2-2V11A2,2,0,0,0,53,9ZM48.71,39A10.33,10.33,0,0,1,46,46a10.24,10.24,0,0,1-7.05,2.71c-1.28.08-3.6.11-6.94.11s-5.66,0-6.94-.11A10.24,10.24,0,0,1,18,46a10.29,10.29,0,0,1-2.72-7Q15.19,37,15.18,32c0-3.34,0-5.66.11-6.94A10.25,10.25,0,0,1,18,18a10.25,10.25,0,0,1,7-2.72c1.28-.07,3.6-.11,6.94-.11s5.66,0,6.94.11A10.25,10.25,0,0,1,46,18a10.3,10.3,0,0,1,2.72,7.05c.07,1.28.1,3.6.1,6.94S48.78,37.66,48.71,39Z"/></g></svg>