<svg xmlns="http://www.w3.org/2000/svg" viewBox="0 0 64 64"><defs><style>.cls-1{fill:none;}.cls-2{fill:#999;}</style></defs><title>Social_SocialNetwork_Facebook_64px</title><g id="Square"><rect class="cls-1" y="3" width="64" height="64"/></g><g id="Icon"><path class="cls-2" d="M55,11V53a2,2,0,0,1-2,2H40.74V37.18h6l.9-6.95H40.74V25.8a3.8,3.8,0,0,1,.71-2.51,3.49,3.49,0,0,1,2.74-.84l3.65,0v-6.2A40,40,0,0,0,42.51,16,8.93,8.93,0,0,0,36,18.34a9.06,9.06,0,0,0-2.44,6.77v5.12h-6v7h6V55H11a2,2,0,0,1-2-2V11a2,2,0,0,1,2-2H53A2,2,0,0,1,55,11Z"/></g></svg>