<svg xmlns="http://www.w3.org/2000/svg" viewBox="0 0 64 64"><defs><style>.cls-1{fill:none;}.cls-2{fill:#999;}</style></defs><title>Social_SocialNetwork_Pinterest_64px</title><g id="Square"><rect class="cls-1" y="3" width="64" height="64"/></g><g id="Icon"><path class="cls-2" d="M55,11V53a2,2,0,0,1-2,2H24.66a20.92,20.92,0,0,0,3.24-6.29c.18-.68.71-2.76,1.58-6.26a5.3,5.3,0,0,0,2.41,2.11,7.23,7.23,0,0,0,3.39.74,10.72,10.72,0,0,0,8.62-4.42,17.68,17.68,0,0,0,3.43-11.19,11.82,11.82,0,0,0-1-4.86,13.34,13.34,0,0,0-2.89-4.17,13.77,13.77,0,0,0-4.56-2.9,15.71,15.71,0,0,0-5.9-1.09,19.29,19.29,0,0,0-5.83.85,14.77,14.77,0,0,0-4.58,2.29,16.13,16.13,0,0,0-3.22,3.28,13.62,13.62,0,0,0-2,3.83,12.82,12.82,0,0,0-.64,4,11.72,11.72,0,0,0,1.18,5.39,6.72,6.72,0,0,0,3.49,3.3A.81.81,0,0,0,22.48,39q.3-1.32.45-1.83a1.3,1.3,0,0,0-.33-1.26,6.9,6.9,0,0,1-1.5-4.49,10.62,10.62,0,0,1,3.1-7.68,10.76,10.76,0,0,1,8.1-3.19,9.56,9.56,0,0,1,7,2.43,8.35,8.35,0,0,1,2.5,6.29,17,17,0,0,1-2,8.56c-1.35,2.36-3.08,3.53-5.19,3.53a3.63,3.63,0,0,1-2.91-1.3A3.35,3.35,0,0,1,31,37c.16-.68.43-1.6.8-2.77s.66-2.18.88-3.05A9.38,9.38,0,0,0,33,28.92a3.71,3.71,0,0,0-.8-2.44,2.74,2.74,0,0,0-2.26-1,3.81,3.81,0,0,0-3.1,1.69,6.81,6.81,0,0,0-1.27,4.18A8.13,8.13,0,0,0,26.25,35l-2.93,12.4A22.67,22.67,0,0,0,23.11,55H11a2,2,0,0,1-2-2V11a2,2,0,0,1,2-2H53A2,2,0,0,1,55,11Z"/></g></svg>