<svg xmlns="http://www.w3.org/2000/svg" viewBox="0 0 64 64"><defs><style>.cls-1{fill:none;}.cls-2{fill:#999;}</style></defs><title>Store_RelayLocation--Outline_64px</title><g id="Square"><rect class="cls-1" width="64" height="64"/></g><g id="Icon"><path class="cls-2" d="M32,5A22.52,22.52,0,0,0,9.5,27.5c0,11.24,17.63,27.65,21.17,30.82a2,2,0,0,0,2.66,0C36.87,55.15,54.5,38.74,54.5,27.5A22.52,22.52,0,0,0,32,5Zm0,50.48C28.12,51.91,12.5,37,12.5,27.5a19.5,19.5,0,0,1,39,0C51.5,37,35.88,51.91,32,55.48Z"/><path class="cls-2" d="M43.51,19.64l-11-6.5a1,1,0,0,0-1,0l-11,6.5a1,1,0,0,0-.49.86v13a1,1,0,0,0,.49.86l11,6.5a1,1,0,0,0,1,0l11-6.5A1,1,0,0,0,44,33.5v-13A1,1,0,0,0,43.51,19.64ZM32,15.16l9,5.34-3.56,2.1-9-5.36Zm0,10.68L23,20.5l3.56-2.11,9,5.37ZM22,22.25l9,5.34V38.27l-9-5.34Zm11,16V27.55l9-5.3V32.93Z"/></g></svg>