<svg xmlns="http://www.w3.org/2000/svg" viewBox="0 0 64 64"><defs><style>.a{fill:none;}.b{fill:#999;}</style></defs><title>Store-StoreLM-64px</title><rect class="a" width="64" height="64"/><path class="b" d="M33.1,20.1a1.5,1.5,0,0,0-2.1,0l-9.3,9.3a1.4,1.4,0,0,0,0,2.1,1.4,1.4,0,0,0,1,.5H41.3a1.5,1.5,0,0,0,1.5-1.6,1.4,1.4,0,0,0-.4-1Z"/><path class="b" d="M57,21.2H47L33.4,7.6a1.9,1.9,0,0,0-2.8,0L17,21.2H7a2,2,0,0,0-2,2V53a2,2,0,0,0,2,2H57a2,2,0,0,0,2-2V23.2A2,2,0,0,0,57,21.2ZM24,40.4h6.5V52H24ZM33.5,52V40.4H40V52ZM56,52H43V39.4a2,2,0,0,0-2-2H23a2,2,0,0,0-2,2V52H8V24.2H18.2l.9-.9L32,10.4,44.9,23.3l.9.9H56Z"/></svg>