<svg xmlns="http://www.w3.org/2000/svg" viewBox="0 0 64 64"><defs><style>.a{fill:none;}.b{fill:#999;}</style></defs><title>Universe-Security-64px</title><rect class="a" width="64" height="64"/><path class="b" d="M47.1,26.6V20.3a15.1,15.1,0,1,0-30.2,0v6.3H15a2,2,0,0,0-2,2V57.1a2,2,0,0,0,2,2H49a2,2,0,0,0,2-2V28.6a2,2,0,0,0-2-2ZM48,56.1H16V29.6h3.8V20.3a12.1,12.1,0,1,1,24.2,0v9.3H48Z"/><path class="b" d="M32,11.1a9,9,0,0,0-9,9.1v9.4H41V20.2A9,9,0,0,0,32,11.1Zm6,15.5H26V20.2a6,6,0,1,1,12,0Z"/><path class="b" d="M32,32.1a7,7,0,0,0-5.4,11.4l-1.5,5.9a3.1,3.1,0,0,0,.5,2.5A3,3,0,0,0,28,53.1h8a3,3,0,0,0,2.4-1.2,3.1,3.1,0,0,0,.5-2.5l-1.5-5.9A7,7,0,0,0,32,32.1Zm4,18H28l1.9-7.6A4.1,4.1,0,0,1,28,39.1a4,4,0,1,1,8,0,4.1,4.1,0,0,1-1.9,3.4Z"/></svg>