<svg xmlns="http://www.w3.org/2000/svg" viewBox="0 0 64 64"><defs><style>.cls-1{fill:none;}.cls-2{fill:#999;}</style></defs><title>Universe-Kids-64px</title><g id="Square"><g id="page1"><rect class="cls-1" width="64" height="64"/></g></g><g id="Name"><path class="cls-2" d="M55.5,30.5H46a4,4,0,0,0,0-.5V8.5A3.5,3.5,0,0,0,42.5,5h-21A3.5,3.5,0,0,0,18,8.5V30a4,4,0,0,0,.05.5H8.5A3.5,3.5,0,0,0,5,34V55.5A3.5,3.5,0,0,0,8.5,59h47A3.5,3.5,0,0,0,59,55.5V34A3.5,3.5,0,0,0,55.5,30.5ZM21,8.5a.5.5,0,0,1,.5-.5h21a.5.5,0,0,1,.5.5V30a.5.5,0,0,1-.5.5h-21A.5.5,0,0,1,21,30ZM30.5,56H8.5a.5.5,0,0,1-.5-.5V34a.5.5,0,0,1,.5-.5h22ZM56,55.5a.5.5,0,0,1-.5.5h-22V33.5h22a.5.5,0,0,1,.5.5Z"/><path class="cls-2" d="M25.83,25.84a1.5,1.5,0,0,0,2-.67l1.31-2.61h5.7l1.31,2.61A1.49,1.49,0,0,0,37.5,26a1.47,1.47,0,0,0,.67-.16,1.5,1.5,0,0,0,.67-2l-5.5-11a1.5,1.5,0,0,0-2.68,0l-5.5,11A1.5,1.5,0,0,0,25.83,25.84Zm6.17-9,1.35,2.71h-2.7Z"/><path class="cls-2" d="M45.87,41a4,4,0,0,1,2.74,1.09,1.5,1.5,0,1,0,2-2.18,7,7,0,1,0,0,10.18,1.5,1.5,0,1,0-2-2.18A4,4,0,1,1,45.87,41Z"/><path class="cls-2" d="M15.5,38A1.5,1.5,0,0,0,14,39.5v11A1.5,1.5,0,0,0,15.5,52h4a4.5,4.5,0,0,0,2.92-7.92A4,4,0,0,0,19,38ZM21,47.5A1.5,1.5,0,0,1,19.5,49H17V46h2.5A1.5,1.5,0,0,1,21,47.5ZM20,42a1,1,0,0,1-1,1H17V41h2A1,1,0,0,1,20,42Z"/></g></svg>