<svg xmlns="http://www.w3.org/2000/svg" viewBox="0 0 64 64"><defs><style>.a{fill:none;}.b{fill:#999;}</style></defs><title>Universe-Dressing-64px</title><rect class="a" width="64" height="64"/><path class="b" d="M22.5,36h-3a1,1,0,0,0,0,2h3a1,1,0,0,0,0-2Z"/><path class="b" d="M11,9a2,2,0,0,0-2,2V53.5a1.5,1.5,0,0,0,3,0V43H31V53.5a1,1,0,0,0,2,0V21h9v1.7a5.5,5.5,0,0,0-3.6,2.5,1,1,0,1,0,1.8,1,3.3,3.3,0,0,1,5.6,0,1.1,1.1,0,0,0,.9.5h.5a1.1,1.1,0,0,0,.4-1.4A5.5,5.5,0,0,0,44,22.7V21h8V53.5a1.5,1.5,0,0,0,3,0V11a2,2,0,0,0-2-2Zm20,3v7H12V12ZM12,41V34H31v7Zm19-9H12V21H31Zm2-13V12H52v7Z"/></svg>