<svg xmlns="http://www.w3.org/2000/svg" viewBox="0 0 64 64"><defs><style>.cls-1{fill:none;}.cls-2{fill:#999;}</style></defs><title>Universe-MakeIt-64px</title><g id="Square"><g id="page1"><rect class="cls-1" width="64" height="64"/></g></g><g id="Name"><polygon class="cls-2" points="21.41 30.65 20.85 32.7 22.15 32.68 21.41 30.65"/><path class="cls-2" d="M5,39H42.1V25H5ZM34.42,28.54h-.27V27.09h.26v-.27h1.37v.25l4-.07v1.44l-4,.08,0,2.78,3.44-.18.09,1.47-3.52.16,0,2.8,3.85-.3.09,1.54-3.92.28v.24H34.51v-.14l-.55,0-.15-1.49.69-.06Zm-6.61-2.06.05,4,3.53-4.16,1.09,1.15-3.72,4.16,4.1,4.69-1,1.06-4-4.77L28,37.33l-1.37-.09-.16-10.67Zm-9.07,7.78-.13-1.53h.74l1.2-4.45-.36-1,1.3-.83.39,1.1.34.09-.13.5,1.6,4.48h.51l-.06,1.28,1,2.89-1.26.72L22.7,34.19l-2.26,0-.87,3.19-1.41-.28.78-2.88ZM6.65,27.74,7,27.25,7,27h.13l.36-.51.58.51H8.4l0,.28L12,30.49l3.22-4.06v-.18l.17,0,.31-.4.35.31.52-.07,0,.54.3.27-.28.34L17,37.31l-1.4.11-.3-8.62-3.29,4-1.08-1,.17-.21L8.25,29.14l-.6,8.73L6.22,38l.71-10Z"/><path class="cls-2" d="M43.87,25,42.78,39H59V25Zm2.07,12.24-.13-10h1.4l.16,9.88Zm7.64-9.07-.16,9.39H52l.13-9.3-3,.17L49,26.84l7.81-.48L57,27.92Z"/></g></svg>