<svg xmlns="http://www.w3.org/2000/svg" viewBox="0 0 64 64"><defs><style>.a{fill:none;}.b{fill:#999;}</style></defs><title>Universe-Kitchen1-64px</title><rect class="a" width="64" height="64"/><path class="b" d="M31.8,7.9A13.6,13.6,0,0,1,46,21.4a1.5,1.5,0,1,0,3,0A16.6,16.6,0,0,0,32.8,4.9C23.6,4.8,16,12.6,16,21.9v21h-.5a2,2,0,0,0-2,2v12a2,2,0,0,0,2,2h4a2,2,0,0,0,2-2v-2h6a2,2,0,0,0,2-2v-4a2,2,0,0,0-2-2h-.1l5.3-5.3a1,1,0,0,0-1.4-1.4l-6.7,6.7H21.5v-2a2,2,0,0,0-2-2H19V21.8A13.9,13.9,0,0,1,31.8,7.9Zm-12.3,37v4h8v4h-8v4h-4v-12Z"/><path class="b" d="M48.3,29.4l-.8-1.2-.8,1.2c-.7.9-2.2,3.2-2.2,4.5a3,3,0,1,0,6,0C50.5,32.6,49,30.3,48.3,29.4Zm-.8,5.5a.9.9,0,0,1-1-1,6.9,6.9,0,0,1,1-2.1,6,6,0,0,1,1,2.1A.9.9,0,0,1,47.5,34.9Z"/></svg>