<svg xmlns="http://www.w3.org/2000/svg" viewBox="0 0 64 64"><defs><style>.cls-1{fill:none;}.cls-2{fill:#999;}</style></defs><title>Universe_Tool_64px</title><g id="Square"><rect class="cls-1" width="64" height="64"/></g><g id="Icon"><path class="cls-2" d="M58,21.5H49.49a3.47,3.47,0,0,0-2.64-3.33l-5.2-1.3a4.48,4.48,0,0,0-3.58.62l-.12.07-.18.14a10.3,10.3,0,0,0-1.37-2.5A5.52,5.52,0,0,0,32,13H17.31A7.46,7.46,0,0,0,10,18.87L5.58,38.74A3.49,3.49,0,0,0,9,43h3v4a8,8,0,0,0,8,8,1,1,0,0,0,0-2,6,6,0,0,1-6-6V43h2.9a3.48,3.48,0,0,0,3.41-2.74L22.15,32H25v3.75a1,1,0,0,0,2,0V32h5a5.52,5.52,0,0,0,4.4-2.2,10.69,10.69,0,0,0,1.38-2.5l.17.14.11.07a4.44,4.44,0,0,0,3.59.62l5.2-1.3a3.47,3.47,0,0,0,2.64-3.33H58a1,1,0,0,0,0-2Zm-22.5,2A7.53,7.53,0,0,1,34,28a2.51,2.51,0,0,1-2,1H21.75a2.48,2.48,0,0,0-2.44,2l-1.93,8.65a.49.49,0,0,1-.48.39H9a.5.5,0,0,1-.39-.19.49.49,0,0,1-.09-.42l4.41-19.87A4.48,4.48,0,0,1,17.31,16H32a2.51,2.51,0,0,1,2,1,7.53,7.53,0,0,1,1.5,4.5v2Zm11-.06a.49.49,0,0,1-.38.48l-5.2,1.3A1.44,1.44,0,0,1,39.73,25l-.12-.07a2.51,2.51,0,0,1-1.11-2.08v-.72a2.51,2.51,0,0,1,1.11-2.08l.12-.08a1.55,1.55,0,0,1,.83-.25,1.49,1.49,0,0,1,.36.05l5.2,1.3a.49.49,0,0,1,.38.48Z"/><path class="cls-2" d="M31,23.25H23a1,1,0,0,0,0,2h8a1,1,0,0,0,0-2Z"/><path class="cls-2" d="M31,19.25H23a1,1,0,0,0,0,2h8a1,1,0,0,0,0-2Z"/></g></svg>