<svg xmlns="http://www.w3.org/2000/svg" viewBox="0 0 64 64"><defs><style>.a{fill:none;}.b{fill:#999;}</style></defs><title>Universe-Electricity-64px</title><rect class="a" width="64" height="64"/><path class="b" d="M53,9H11a2,2,0,0,0-2,2V53a2,2,0,0,0,2,2H53a2,2,0,0,0,2-2V11A2,2,0,0,0,53,9ZM52,52H12V12H52Z"/><path class="b" d="M32,45.5A13.5,13.5,0,1,0,18.5,32,13.4,13.4,0,0,0,32,45.5Zm0-25A11.5,11.5,0,1,1,20.5,32,11.6,11.6,0,0,1,32,20.5Z"/><circle class="b" cx="27" cy="32" r="2"/><circle class="b" cx="37" cy="32" r="2"/></svg>