<svg xmlns="http://www.w3.org/2000/svg" viewBox="0 0 64 64"><defs><style>.a{fill:none;}.b{fill:#999;}</style></defs><title>Universe-Lighting-64px</title><rect class="a" width="64" height="64"/><path class="b" d="M50.8,29.5l-6.2-23a2.1,2.1,0,0,0-2-1.5H21.4a1.9,1.9,0,0,0-1.9,1.5l-6.3,23a2,2,0,0,0,2,2.5H30.5V51h-3A6.5,6.5,0,0,0,21,57.5V59H43V57.5A6.5,6.5,0,0,0,36.5,51h-3V32H41v4.2a3.4,3.4,0,0,0-2.5,3.3,3.5,3.5,0,0,0,7,0A3.4,3.4,0,0,0,43,36.2V32h5.8A2,2,0,0,0,50.8,29.5ZM39.7,56H24.3a3.6,3.6,0,0,1,3.2-2h9A3.6,3.6,0,0,1,39.7,56Zm3.8-16.5A1.5,1.5,0,1,1,42,38,1.5,1.5,0,0,1,43.5,39.5ZM16.5,29,22.2,8H41.9l5.6,21Z"/></svg>