<svg xmlns="http://www.w3.org/2000/svg" viewBox="0 0 64 64"><defs><style>.a{fill:none;}.b{fill:#999;}</style></defs><title>Universe-Tool-64px</title><rect class="a" width="64" height="64"/><path class="b" d="M58,21.5H49.5a3.4,3.4,0,0,0-2.7-3.3l-5.1-1.3a4.5,4.5,0,0,0-3.6.6h-.3a12.3,12.3,0,0,0-1.4-2.5A5.4,5.4,0,0,0,32,13H17.3A7.5,7.5,0,0,0,10,18.9L5.6,38.7a3.2,3.2,0,0,0,.7,3A3.4,3.4,0,0,0,9,43h3v4a8,8,0,0,0,8,8,1,1,0,0,0,0-2,6,6,0,0,1-6-6V43h2.9a3.4,3.4,0,0,0,3.4-2.7L22.1,32H25v3.8a1,1,0,0,0,2,0V32h5a5.4,5.4,0,0,0,4.4-2.2,12.3,12.3,0,0,0,1.4-2.5h.3a4.4,4.4,0,0,0,2.5.8l1.1-.2,5.1-1.3a3.4,3.4,0,0,0,2.7-3.3H58a1,1,0,0,0,0-2Zm-22.5,2A7.4,7.4,0,0,1,34,28a2.6,2.6,0,0,1-2,1H21.7a2.5,2.5,0,0,0-2.4,2l-1.9,8.6a.7.7,0,0,1-.5.4H9a.5.5,0,0,1-.4-.2c-.1-.1-.1-.2-.1-.4l4.4-19.9A4.5,4.5,0,0,1,17.3,16H32a2.6,2.6,0,0,1,2,1,7.4,7.4,0,0,1,1.5,4.5v2Zm11-.1a.5.5,0,0,1-.4.5l-5.2,1.3a1.7,1.7,0,0,1-1.2-.2h-.1a2.3,2.3,0,0,1-1.1-2v-.8a2.3,2.3,0,0,1,1.1-2h.1a1.6,1.6,0,0,1,.9-.3h.3l5.2,1.3a.5.5,0,0,1,.4.5Z"/><path class="b" d="M31,23.2H23a1,1,0,0,0-1,1,.9.9,0,0,0,1,1h8a.9.9,0,0,0,1-1A1,1,0,0,0,31,23.2Z"/><path class="b" d="M31,19.2H23a1,1,0,0,0-1,1,.9.9,0,0,0,1,1h8a.9.9,0,0,0,1-1A1,1,0,0,0,31,19.2Z"/></svg>