<svg xmlns="http://www.w3.org/2000/svg" viewBox="0 0 64 64"><defs><style>.a{fill:none;}.b{fill:#999;}</style></defs><title>Universe-Carpentry-64px</title><rect class="a" width="64" height="64"/><path class="b" d="M57,35.3H50.5V27.7a2,2,0,0,0-2-2H42V18a2,2,0,0,0-2-2H24a2,2,0,0,0-2,2v7.7H15.5a2,2,0,0,0-2,2v7.6H7a2,2,0,0,0-2,2V46a2,2,0,0,0,2,2H57a2,2,0,0,0,2-2V37.3A2,2,0,0,0,57,35.3Zm-9.5-6.6v6.6h-14V28.7h14ZM25,19H39v6.7H25Zm-8.5,9.7h14v6.6h-14ZM22,45H8V38.3H22Zm17,0H25V38.3H39Zm17,0H42V38.3H56Z"/></svg>