<svg xmlns="http://www.w3.org/2000/svg" viewBox="0 0 64 64"><defs><style>.cls-1{fill:none;}.cls-2{fill:#999;}</style></defs><title>Universe_Project_64px</title><g id="Square"><rect class="cls-1" width="64" height="64"/></g><g id="Icon"><path class="cls-2" d="M57.5,11.5H20.85A8,8,0,0,0,5,13V51a8,8,0,0,0,8,8H57.5A1.5,1.5,0,0,0,59,57.5V13A1.5,1.5,0,0,0,57.5,11.5ZM8,13a5,5,0,0,1,10,0V44.76A8,8,0,0,0,13,43a6.34,6.34,0,0,0-.76,0l-.25,0-.5.08-.28.06-.45.11-.27.09-.43.16-.26.1-.45.22-.2.1A8.23,8.23,0,0,0,8,44.76ZM56,56H13a5,5,0,1,1,5-5,1.5,1.5,0,0,0,3,0V14.5H56Z"/><path class="cls-2" d="M29.5,33a1,1,0,0,0,1-1v-.55l8-7.11,8,7.11V45a1,1,0,0,0,0,2h1a1,1,0,0,0,1-1V31a1,1,0,0,0-.34-.75l-9-8a1,1,0,0,0-1.32,0l-9,8,0,0a1.15,1.15,0,0,0-.14.17,1.1,1.1,0,0,0-.09.14,3,3,0,0,0-.08.38s0,0,0,0v1A1,1,0,0,0,29.5,33Z"/><path class="cls-2" d="M29.5,42.75a1,1,0,0,0,1-1V40.12a1,1,0,0,0-2,0v1.63A1,1,0,0,0,29.5,42.75Z"/><path class="cls-2" d="M29.5,37.88a1,1,0,0,0,1-1V35.25a1,1,0,0,0-2,0v1.63A1,1,0,0,0,29.5,37.88Z"/><path class="cls-2" d="M29.5,47h1a1,1,0,0,0,0-2,1,1,0,0,0-2,0v1A1,1,0,0,0,29.5,47Z"/><path class="cls-2" d="M42.5,45h-2a1,1,0,0,0,0,2h2a1,1,0,0,0,0-2Z"/><path class="cls-2" d="M36.5,45h-2a1,1,0,0,0,0,2h2a1,1,0,0,0,0-2Z"/></g></svg>