<svg xmlns="http://www.w3.org/2000/svg" viewBox="0 0 64 64"><defs><style>.cls-1{fill:none;}.cls-2{fill:#999;}</style></defs><title>Universe-ConnectedHome-64px</title><g id="Square"><g id="page1"><rect class="cls-1" width="64" height="64"/></g></g><g id="Name"><path class="cls-2" d="M32,26.5a21.51,21.51,0,0,0-14.22,5.37,1.5,1.5,0,0,0,2,2.25,18.52,18.52,0,0,1,24.48,0,1.45,1.45,0,0,0,1,.38A1.47,1.47,0,0,0,46.35,34a1.5,1.5,0,0,0-.13-2.12A21.51,21.51,0,0,0,32,26.5Z"/><path class="cls-2" d="M32,32.5a15.5,15.5,0,0,0-10.24,3.86,1.5,1.5,0,0,0,2,2.25,12.5,12.5,0,0,1,16.5,0,1.52,1.52,0,0,0,1,.38,1.47,1.47,0,0,0,1.12-.51,1.5,1.5,0,0,0-.13-2.12A15.5,15.5,0,0,0,32,32.5Z"/><path class="cls-2" d="M32,38.5a9.46,9.46,0,0,0-6.72,2.78,1.51,1.51,0,0,0,0,2.12,1.48,1.48,0,0,0,1.06.44,1.45,1.45,0,0,0,1.06-.44,6.52,6.52,0,0,1,8.88-.3,1.5,1.5,0,1,0,2-2.25A9.46,9.46,0,0,0,32,38.5Z"/><circle class="cls-2" cx="32" cy="47" r="2"/><path class="cls-2" d="M57.72,28.09,54,24.58V13a3,3,0,0,0-3-3H45a3,3,0,0,0-3,3v.29l-8-7.47A2.94,2.94,0,0,0,32,5a3,3,0,0,0-2.06.82L6.28,28.09A4,4,0,0,0,9,35h1V56a3,3,0,0,0,3,3H51a3,3,0,0,0,3-3V35h1a4,4,0,0,0,2.74-6.91ZM55,32H52.5A1.5,1.5,0,0,0,51,33.5V56H13V33.5A1.5,1.5,0,0,0,11.5,32H9a1,1,0,0,1-.68-1.73L32,8,43.31,18.65a1,1,0,0,0,.68.27,1,1,0,0,0,1-1V13h6V25.45a1,1,0,0,0,.31.73l4.35,4.09A1,1,0,0,1,55,32Z"/></g></svg>