<svg xmlns="http://www.w3.org/2000/svg" viewBox="0 0 64 64"><defs><style>.cls-1{fill:none;}.cls-2{fill:#999;}</style></defs><title>Universe_Dressing_64px</title><g id="Square"><rect class="cls-1" width="64" height="64"/></g><g id="Icon"><path class="cls-2" d="M22.5,36h-3a1,1,0,0,0,0,2h3a1,1,0,0,0,0-2Z"/><path class="cls-2" d="M11,9a2,2,0,0,0-2,2V53.5a1.5,1.5,0,0,0,3,0V43H31V53.5a1,1,0,0,0,2,0V21h9v1.68a5.29,5.29,0,0,0-3.55,2.51,1,1,0,1,0,1.73,1,3.25,3.25,0,0,1,5.64,0,1,1,0,0,0,.87.5,1,1,0,0,0,.5-.14,1,1,0,0,0,.36-1.37A5.29,5.29,0,0,0,44,22.68V21h8V53.5a1.5,1.5,0,0,0,3,0V11a2,2,0,0,0-2-2Zm20,3v7H12V12ZM12,41V34H31v7Zm19-9H12V21H31Zm2-13V12H52v7Z"/></g></svg>