<svg xmlns="http://www.w3.org/2000/svg" viewBox="0 0 64 64"><defs><style>.cls-1{fill:none;}.cls-2{fill:#999;}</style></defs><title>Universe_Floor_64px</title><g id="Square"><rect class="cls-1" width="64" height="64"/></g><g id="Icon"><path class="cls-2" d="M46,34H30V18a2,2,0,0,0-2-2H11a2,2,0,0,0-2,2V53a2,2,0,0,0,2,2H46a2,2,0,0,0,2-2V36A2,2,0,0,0,46,34ZM12,19H27V34H12ZM27,52H12V37H27Zm18,0H30V37H45Z"/><path class="cls-2" d="M53,9H36a2,2,0,0,0-2,2V28a2,2,0,0,0,2,2H53a2,2,0,0,0,2-2V11A2,2,0,0,0,53,9ZM52,27H37V12H52Z"/></g></svg>