<svg xmlns="http://www.w3.org/2000/svg" viewBox="0 0 64 64"><defs><style>.a{fill:none;}.b{fill:#999;}</style></defs><title>Universe-Garden-64px</title><rect class="a" width="64" height="64"/><path class="b" d="M26.6,16.9a1.1,1.1,0,0,0-.1,1.4,1.1,1.1,0,0,0,.8.3,1.1,1.1,0,0,0,.7-.3,4.3,4.3,0,0,0,.1-5.6,9.1,9.1,0,0,1-1.4-3.9,1.1,1.1,0,0,0-1.1-.9A1,1,0,0,0,24.7,9a11.7,11.7,0,0,0,1.8,4.9C27.7,15.6,26.8,16.7,26.6,16.9Z"/><path class="b" d="M37.9,16.9a1.1,1.1,0,0,0,.5,1.4h.4a1,1,0,0,0,.9-.6c.1-.2,1-2.3-.9-5.1a5.1,5.1,0,0,1-.6-4.1,1,1,0,1,0-1.8-.7,6.5,6.5,0,0,0,.7,5.9C38.4,15.7,37.9,16.9,37.9,16.9Z"/><path class="b" d="M32.5,15.9A4.1,4.1,0,0,1,31.1,21a1,1,0,0,0-.1,1.4.7.7,0,0,0,.7.4l.7-.2c3.3-2.9,2.7-6.3,1.8-7.8a15.9,15.9,0,0,1-1.5-2.7c-1.4-3-.9-4.6-.9-4.7a1,1,0,0,0-.5-1.3,1,1,0,0,0-1.3.5c-.1.3-1,2.4.9,6.3A22.2,22.2,0,0,0,32.5,15.9Z"/><path class="b" d="M54.7,57.2,40.8,43.3A19.1,19.1,0,0,0,51,26.5h0A1.5,1.5,0,0,0,49.5,25h-35A1.5,1.5,0,0,0,13,26.5h0A19.1,19.1,0,0,0,23,43.2L9.3,57.3a1,1,0,0,0,0,1.4,1,1,0,0,0,1.4,0L24.9,44.1A20.7,20.7,0,0,0,31,45.4V58a1,1,0,0,0,2,0V45.4a18.7,18.7,0,0,0,5.8-1.2L53.3,58.7a1,1,0,0,0,1.4,0A1.1,1.1,0,0,0,54.7,57.2ZM16.1,28H47.9a16,16,0,0,1-31.8,0Z"/><path class="b" d="M29.3,37.5a11.7,11.7,0,0,1-2.4-.9,11,11,0,0,1-5-5.2,1,1,0,0,0-1.8.8A12.7,12.7,0,0,0,26,38.4a14.5,14.5,0,0,0,2.9,1.1h.2a1.1,1.1,0,0,0,1-.7A1.1,1.1,0,0,0,29.3,37.5Z"/></svg>