<svg xmlns="http://www.w3.org/2000/svg" viewBox="0 0 64 64"><defs><style>.a{fill:none;}.b{fill:#999;}</style></defs><title>Universe-Paint-64px</title><rect class="a" width="64" height="64"/><path class="b" d="M53,11.5H47V7a2,2,0,0,0-2-2H11A2,2,0,0,0,9,7V19a2,2,0,0,0,2,2H45a2,2,0,0,0,2-2V14.5h5v8.7a3.4,3.4,0,0,1-2.4,3.3L30.9,33a6.6,6.6,0,0,0-4.4,6.1V43h-2a2,2,0,0,0-2,2V57a2,2,0,0,0,2,2h7a2,2,0,0,0,2-2V45a2,2,0,0,0-2-2h-2V39.1a3.5,3.5,0,0,1,2.4-3.3l18.7-6.5A6.5,6.5,0,0,0,55,23.2V13.5A2,2,0,0,0,53,11.5ZM44,18H12V8H44v3.5h0v3h0ZM30.5,56h-5V46h5Z"/></svg>