<svg xmlns="http://www.w3.org/2000/svg" viewBox="0 0 32 32"><defs><style>.cls-1{fill:none;}.cls-2{fill:#999;}</style></defs><title>Universe_ConnectedHome_32px</title><g id="Square"><rect class="cls-1" width="32" height="32"/></g><g id="Icon"><path class="cls-2" d="M10.17,16.7a.51.51,0,0,0-.05.71.5.5,0,0,0,.71,0,7.83,7.83,0,0,1,10.34,0,.46.46,0,0,0,.33.13.52.52,0,0,0,.38-.17.51.51,0,0,0-.05-.71,8.82,8.82,0,0,0-11.66,0Z"/><path class="cls-2" d="M16,17a6.27,6.27,0,0,0-4.17,1.58.49.49,0,0,0-.05.7.51.51,0,0,0,.71.05,5.44,5.44,0,0,1,7,0,.54.54,0,0,0,.33.12.48.48,0,0,0,.38-.17.49.49,0,0,0,0-.7A6.27,6.27,0,0,0,16,17Z"/><path class="cls-2" d="M13.29,20.61a.51.51,0,0,0,0,.71.5.5,0,0,0,.36.14.47.47,0,0,0,.35-.14,2.89,2.89,0,0,1,3.86-.13.5.5,0,0,0,.66-.76A3.93,3.93,0,0,0,13.29,20.61Z"/><circle class="cls-2" cx="16" cy="23" r="1"/><path class="cls-2" d="M28.71,15.29l-2-2h0l-10-10a1,1,0,0,0-1.42,0l-10,10h0l-2,2a1,1,0,0,0,1.42,1.42l.29-.3V28a1,1,0,0,0,1,1H26a1,1,0,0,0,1-1V16.41l.29.3a1,1,0,0,0,1.42,0A1,1,0,0,0,28.71,15.29ZM25,27H7V14.41l9-9,9,9Z"/></g></svg>