<svg xmlns="http://www.w3.org/2000/svg" viewBox="0 0 64 64"><defs><style>.a{fill:none;}.b{fill:#999;}</style></defs><title>Universe-Heater-64px</title><rect class="a" width="64" height="64"/><path class="b" d="M24,20.6a1,1,0,0,0,.5,1.3h.4a.9.9,0,0,0,.9-.6c.1-.1,1.1-2.3-1-5.5a5.4,5.4,0,0,1-.7-4.5,1,1,0,0,0-1.8-.8,7,7,0,0,0,.8,6.4C24.6,19.2,24,20.5,24,20.6Z"/><path class="b" d="M41,20.6a1,1,0,0,0,.5,1.3h.4a.9.9,0,0,0,.9-.6c.1-.1,1.1-2.3-1-5.5a5.4,5.4,0,0,1-.7-4.5,1,1,0,0,0-1.8-.8,7,7,0,0,0,.8,6.4C41.6,19.2,41,20.5,41,20.6Z"/><path class="b" d="M32,15.6a1,1,0,0,0,.5,1.3h.4a.9.9,0,0,0,.9-.6c.1-.1,1.1-2.3-1-5.5a5.4,5.4,0,0,1-.7-4.5,1,1,0,1,0-1.8-.8,7,7,0,0,0,.8,6.4C32.6,14.2,32,15.5,32,15.6Z"/><path class="b" d="M40,34.5a24.2,24.2,0,0,1-2.5-3.1,27.7,27.7,0,0,1-4-9.2,1.5,1.5,0,0,0-3,0,27.7,27.7,0,0,1-4,9.2A24.2,24.2,0,0,1,24,34.5c-2.7,3.1-5.5,6.2-5.5,11.7C18.5,53.5,24.3,59,32,59s13.5-5.5,13.5-12.8C45.5,40.7,42.7,37.6,40,34.5ZM32,56c-6,0-10.5-4.2-10.5-9.8s2.2-6.8,4.7-9.7c1-1.1,1.9-2.2,2.8-3.4a28.6,28.6,0,0,0,3-5.7,28.6,28.6,0,0,0,3,5.7c.9,1.2,1.8,2.3,2.8,3.4,2.5,2.9,4.7,5.3,4.7,9.7S38,56,32,56Z"/></svg>