<svg xmlns="http://www.w3.org/2000/svg" viewBox="0 0 64 64"><defs><style>.a{fill:none;}.b{fill:#999;}</style></defs><title>Universe-Bathroom-64px</title><rect class="a" width="64" height="64"/><path class="b" d="M56,37.6V7.1a2,2,0,0,0-2-2H41a2,2,0,0,0-2,2v5a4,4,0,0,0-4,4h0a2,2,0,0,0,2,2h7a2,2,0,0,0,2-2h0a4,4,0,0,0-4-4v-4H53V37.6H7a2,2,0,0,0-2,2v.5a15,15,0,0,0,9.6,14l-3.1,3.1a1,1,0,0,0,0,1.4h0a1,1,0,0,0,1.4,0l3.9-3.9a11.2,11.2,0,0,0,3.2.4H44a11.2,11.2,0,0,0,3.2-.4l3.9,3.9a1,1,0,0,0,1.4,0h0a1,1,0,0,0,0-1.4l-3.1-3.1a15,15,0,0,0,9.6-14v-.5a2,2,0,0,0-2-2ZM44,16.1H37a2,2,0,0,1,2-2h3A2,2,0,0,1,44,16.1Zm0,36H20a12.1,12.1,0,0,1-10.9-7H54.9A12.1,12.1,0,0,1,44,52.1Zm11.6-9H8.4A10.1,10.1,0,0,1,8,40.6H56A10.1,10.1,0,0,1,55.6,43.1Z"/></svg>