<svg xmlns="http://www.w3.org/2000/svg" viewBox="0 0 64 64"><defs><style>.cls-1{fill:none;}.cls-2{fill:#999;}</style></defs><title>User_Contact_Mail_64px</title><g id="Square"><rect class="cls-1" width="64" height="64"/></g><g id="Icon"><path class="cls-2" d="M48,20V11a2,2,0,0,0-2-2H18a2,2,0,0,0-2,2v9H11a2,2,0,0,0-2,2V53a2,2,0,0,0,2,2H53a2,2,0,0,0,2-2V22a2,2,0,0,0-2-2ZM34.53,37.49,52,24.62V50.35ZM49.2,23,48,23.82V23ZM45,12V26L32,35.62,19,26V12ZM16,23.82,14.8,23H16Zm-4,.8L49.2,52H12Z"/><path class="cls-2" d="M23.86,19H40.14a1,1,0,0,0,0-2H23.86a1,1,0,0,0,0,2Z"/><path class="cls-2" d="M23.86,26H40.14a1,1,0,0,0,0-2H23.86a1,1,0,0,0,0,2Z"/></g></svg>