<svg xmlns="http://www.w3.org/2000/svg" viewBox="0 0 64 64"><defs><style>.cls-1{fill:none;}.cls-2{fill:#999;}</style></defs><title>User_Account_Profile--View_64px</title><g id="Square"><rect class="cls-1" width="64" height="64"/></g><g id="Icon"><g id="Calque_1" data-name="Calque 1"><path class="cls-2" d="M31.31,12.69a9.18,9.18,0,1,1-9.21,9.18,9.19,9.19,0,0,1,9.21-9.18m0-3A12.18,12.18,0,1,0,43.52,21.87,12.18,12.18,0,0,0,31.31,9.69Z"/><path class="cls-2" d="M31.31,39.75a24.17,24.17,0,0,1,16,6v6.94h-32v-6.9a24.19,24.19,0,0,1,16-6m0-3a27.11,27.11,0,0,0-18.14,6.9,2.65,2.65,0,0,0-.86,2v8.7a1.33,1.33,0,0,0,1.35,1.3H48.94a1.35,1.35,0,0,0,1.37-1.34h0V45.69a2.72,2.72,0,0,0-.86-2,27.12,27.12,0,0,0-18.14-6.94Z"/></g></g></svg>