<svg xmlns="http://www.w3.org/2000/svg" viewBox="0 0 64 64"><defs><style>.a{fill:none;}.b{fill:#999;}</style></defs><title>User-Card-LoyaltyCard-64px</title><rect class="a" width="64" height="64"/><path class="b" d="M21.2,36.6a1.1,1.1,0,0,0,.7-.3L32,26.2,42.1,36.3a1.1,1.1,0,0,0,1.4-.1,1.1,1.1,0,0,0,0-1.3L32,23.3,20.5,34.9a1,1,0,0,0,0,1.4A.9.9,0,0,0,21.2,36.6Z"/><path class="b" d="M57,13H7a2,2,0,0,0-2,2V49a2,2,0,0,0,2,2H57a2,2,0,0,0,2-2V15A2,2,0,0,0,57,13ZM56,48H8V16H56Z"/><path class="b" d="M32.7,31.4a1.1,1.1,0,0,0-1.4-.1h0l-5.8,5.7a1.2,1.2,0,0,0,0,1.4,1.1,1.1,0,0,0,.8.3H37.7a.9.9,0,0,0,1-1,1.9,1.9,0,0,0-.2-.7Z"/></svg>