<svg xmlns="http://www.w3.org/2000/svg" viewBox="0 0 64 64"><defs><style>.cls-1{fill:none;}.cls-2{fill:#999;}</style></defs><title>User_Account_Profile--View_64px</title><g id="Square"><rect class="cls-1" width="64" height="64"/></g><g id="Icon"><path class="cls-2" d="M32,8A11.5,11.5,0,1,1,20.5,19.5,11.51,11.51,0,0,1,32,8m0-3A14.5,14.5,0,1,0,46.5,19.5,14.5,14.5,0,0,0,32,5Z"/><path class="cls-2" d="M53,59H11a2,2,0,0,1-2-2V41.89A2,2,0,0,1,10.55,40l10.33-2.4a1.94,1.94,0,0,1,1.34.16,22,22,0,0,0,19.56,0,2.06,2.06,0,0,1,1.34-.16L53.45,40A2,2,0,0,1,55,41.9V57A2,2,0,0,1,53,59ZM12,56H52V42.69l-9.21-2.14a25,25,0,0,1-21.58,0L12,42.69Zm8.88-15.61h0Zm22.25,0h0Z"/></g></svg>