<svg xmlns="http://www.w3.org/2000/svg" viewBox="0 0 64 64"><defs><style>.cls-1{fill:none;}.cls-2{fill:#999;}</style></defs><title>Various_Blink_64px</title><g id="Square"><rect class="cls-1" width="64" height="64"/></g><g id="Icon"><path class="cls-2" d="M45,10A19.49,19.49,0,0,0,18.41,38.45a8.4,8.4,0,0,1,2.59,6,3.5,3.5,0,0,0,2,3.15V50a3.51,3.51,0,0,0,2.56,3.36,6.5,6.5,0,0,0,12.88,0A3.51,3.51,0,0,0,41,50V47.65a3.5,3.5,0,0,0,2-3.16,8.58,8.58,0,0,1,2.68-6.12A19.33,19.33,0,0,0,51.5,24.5,19.55,19.55,0,0,0,45,10ZM38,48v2a.5.5,0,0,1-.5.5h-11A.5.5,0,0,1,26,50V48Zm-6,8a3.5,3.5,0,0,1-3.34-2.5h6.68A3.5,3.5,0,0,1,32,56ZM43.58,36.23A11.56,11.56,0,0,0,40,44.5a.5.5,0,0,1-.5.5h-6V36.62l6.06-6.06a1.5,1.5,0,0,0-2.12-2.12L32,33.88l-5.44-5.44a1.5,1.5,0,0,0-2.12,2.12l6.06,6.06V45h-6a.51.51,0,0,1-.5-.52,11.54,11.54,0,0,0-3.5-8.18A16.48,16.48,0,0,1,30.11,8.1,17.62,17.62,0,0,1,32,8,16.28,16.28,0,0,1,43,12.2a16.47,16.47,0,0,1,.58,24Z"/></g></svg>