<svg xmlns="http://www.w3.org/2000/svg" viewBox="0 0 261 64"><g fill-rule="evenodd"><path fill="#0B1643" d="M82.487 48.299a.531.531 0 01-.16-.392v-22.5c0-.154.052-.284.16-.392a.531.531 0 01.391-.162h4.232c.153 0 .283.054.39.162a.536.536 0 01.162.392v22.5a.535.535 0 01-.162.392.531.531 0 01-.39.161h-4.232a.529.529 0 01-.39-.161zm.253-27.549c-.614-.614-.92-1.398-.92-2.351 0-.953.306-1.737.92-2.352.613-.614 1.395-.922 2.346-.922.95 0 1.732.308 2.346.922.613.615.92 1.4.92 2.352 0 .953-.307 1.737-.92 2.351-.614.615-1.396.922-2.346.922-.95 0-1.733-.307-2.346-.922zm-5.358 4.265a.535.535 0 01.16.392v3.642a.534.534 0 01-.16.392.531.531 0 01-.391.162h-4.554c-.153 0-.23.076-.23.23v18.074a.534.534 0 01-.16.392.531.531 0 01-.392.161h-4.23a.529.529 0 01-.392-.161.532.532 0 01-.16-.392V29.833c0-.153-.078-.23-.23-.23H63.79a.53.53 0 01-.391-.162.532.532 0 01-.161-.392v-3.642c0-.154.053-.284.16-.392a.531.531 0 01.392-.162h2.851c.153 0 .23-.076.23-.23v-.83c0-1.998.26-3.542.782-4.634.521-1.09 1.38-1.867 2.576-2.328 1.196-.461 2.882-.676 5.059-.646h1.61c.153 0 .283.055.39.162a.537.537 0 01.162.392v3.227a.534.534 0 01-.161.392.53.53 0 01-.391.162h-1.196c-1.319 0-2.23.26-2.737.783-.505.523-.759 1.476-.759 2.859v.461c0 .154.077.23.23.23h4.554c.153 0 .283.054.39.162zm32.93 1.729c1.487 1.475 2.231 3.489 2.231 6.04v15.123a.534.534 0 01-.161.392.531.531 0 01-.391.161h-4.231a.528.528 0 01-.391-.161.53.53 0 01-.161-.392V33.89c0-1.413-.399-2.558-1.196-3.434-.798-.877-1.856-1.314-3.174-1.314-1.318 0-2.384.43-3.196 1.29-.813.861-1.219 1.999-1.219 3.412v14.063a.533.533 0 01-.161.392.53.53 0 01-.39.161H93.64a.53.53 0 01-.391-.161.531.531 0 01-.161-.392V25.453c0-.154.053-.284.16-.392a.532.532 0 01.392-.161h4.231c.153 0 .283.054.391.161a.536.536 0 01.161.392v1.476c0 .092.03.154.092.184.061.03.107 0 .138-.092 1.257-1.66 3.158-2.49 5.703-2.49 2.484 0 4.469.737 5.956 2.213zm19.41 2.329a.532.532 0 01-.391.16h-4.691c-.154 0-.23.078-.23.231v11.112c0 1.169.253 2.014.759 2.536.505.523 1.31.784 2.414.784h1.38c.153 0 .283.054.391.161a.537.537 0 01.161.392v3.458c0 .339-.184.538-.552.6l-2.392.045c-2.422 0-4.231-.415-5.427-1.244-1.196-.83-1.81-2.398-1.84-4.703v-13.14c0-.154-.077-.231-.23-.231h-2.621a.53.53 0 01-.391-.162.53.53 0 01-.161-.392v-3.227c0-.154.053-.284.161-.392a.53.53 0 01.391-.161h2.621c.153 0 .23-.077.23-.23v-5.395c0-.154.053-.284.161-.392a.532.532 0 01.391-.162h4.002c.153 0 .283.055.391.162a.537.537 0 01.161.392v5.394c0 .154.076.23.23.23h4.691c.153 0 .283.055.391.162a.536.536 0 01.161.392v3.227a.535.535 0 01-.161.393zm10.533.921c-.752.57-1.281 1.36-1.587 2.375-.184.523-.307 1.199-.368 2.029-.062.154 0 .23.184.23h9.337c.153 0 .23-.076.23-.23-.062-.768-.154-1.353-.276-1.752-.276-1.107-.821-1.967-1.633-2.582-.813-.615-1.833-.922-3.059-.922-1.135 0-2.077.284-2.828.852zm13.223 6.617l-.046 1.43c0 .368-.184.552-.552.552h-14.396c-.154 0-.23.077-.23.23.092 1.015.23 1.707.414 2.076.736 2.213 2.53 3.335 5.381 3.365 2.085 0 3.741-.86 4.968-2.581.122-.185.276-.277.459-.277a.44.44 0 01.322.138l2.852 2.352c.276.215.322.46.138.737-.951 1.353-2.216 2.398-3.794 3.136-1.58.737-3.335 1.106-5.267 1.106-2.392 0-4.423-.537-6.094-1.614-1.672-1.075-2.891-2.582-3.657-4.518-.706-1.66-1.058-3.965-1.058-6.916 0-1.782.184-3.227.552-4.334.613-2.151 1.771-3.85 3.473-5.095 1.702-1.245 3.748-1.867 6.14-1.867 6.041 0 9.444 3.166 10.211 9.498.122.768.184 1.63.184 2.582zm7.865 10.397c-1.718-1.214-2.913-2.85-3.588-4.91-.49-1.383-.735-3.228-.735-5.533 0-2.213.245-4.027.735-5.44.644-2.03 1.832-3.635 3.565-4.819 1.732-1.183 3.779-1.775 6.14-1.775 2.392 0 4.477.6 6.255 1.798 1.778 1.199 2.959 2.705 3.542 4.519.153.492.26.984.322 1.475v.092c0 .308-.169.492-.506.553l-4.14.6h-.091c-.277 0-.46-.154-.552-.461 0-.154-.016-.277-.046-.369a9.478 9.478 0 00-.184-.646c-.276-.86-.828-1.567-1.656-2.12-.828-.554-1.81-.83-2.944-.83-1.165 0-2.154.3-2.966.899-.813.599-1.357 1.422-1.633 2.466-.307.985-.46 2.352-.46 4.104 0 1.69.138 3.059.414 4.104.306 1.076.858 1.928 1.656 2.558.797.63 1.793.946 2.989.946 1.165 0 2.169-.3 3.013-.9a4.045 4.045 0 001.633-2.42.523.523 0 00.046-.23c.03-.03.046-.077.046-.139.092-.369.306-.522.644-.461l4.139.646c.153.03.283.1.391.207.107.108.145.253.115.438-.092.492-.169.846-.23 1.06-.583 1.968-1.764 3.528-3.542 4.68-1.778 1.153-3.863 1.73-6.255 1.73-2.361 0-4.4-.608-6.117-1.822zm32.356-17.935a.532.532 0 01-.391.16h-4.691c-.154 0-.23.078-.23.231v11.112c0 1.169.253 2.014.759 2.536.505.523 1.31.784 2.414.784h1.38c.153 0 .283.054.391.161a.537.537 0 01.161.392v3.458c0 .339-.184.538-.552.6l-2.392.045c-2.422 0-4.231-.415-5.427-1.244-1.196-.83-1.809-2.398-1.84-4.703v-13.14c0-.154-.077-.231-.23-.231h-2.621a.53.53 0 01-.391-.162.53.53 0 01-.161-.392v-3.227c0-.154.053-.284.161-.392a.53.53 0 01.391-.161h2.621c.153 0 .23-.077.23-.23v-5.395c0-.154.054-.284.161-.392a.532.532 0 01.391-.162h4.002c.153 0 .283.055.391.162a.537.537 0 01.161.392v5.394c0 .154.076.23.23.23h4.691c.153 0 .283.055.391.162a.536.536 0 01.161.392v3.227a.535.535 0 01-.161.393zm18.26-4.012a.53.53 0 01.39-.161h4.186c.153 0 .283.054.391.161a.536.536 0 01.161.392v22.454a.535.535 0 01-.161.392.532.532 0 01-.391.161h-4.186a.528.528 0 01-.39-.161.53.53 0 01-.161-.392v-1.476c0-.092-.031-.153-.092-.184-.062-.03-.123 0-.184.092-1.258 1.63-3.144 2.444-5.657 2.444-2.331 0-4.286-.676-5.865-2.029-1.579-1.352-2.368-3.273-2.368-5.763V25.453c0-.154.053-.284.16-.392a.534.534 0 01.391-.161h4.232c.153 0 .283.054.391.161a.536.536 0 01.161.392v14.016c0 1.446.375 2.598 1.127 3.459.751.86 1.801 1.29 3.15 1.29 1.38 0 2.484-.43 3.312-1.29.828-.86 1.242-2.013 1.242-3.459V25.453c0-.154.053-.284.161-.392zm23.662.161c.245.123.337.354.276.692l-.782 4.15c-.031.368-.245.476-.643.322-.46-.153-.997-.23-1.61-.23-.399 0-.706.016-.92.046-1.288.062-2.362.515-3.22 1.36-.859.846-1.288 1.944-1.288 3.297v13.048a.535.535 0 01-.161.392.528.528 0 01-.391.161h-4.231a.528.528 0 01-.391-.161.53.53 0 01-.161-.392V25.453c0-.154.053-.284.161-.392a.53.53 0 01.391-.161h4.231a.53.53 0 01.391.161.536.536 0 01.161.392v2.075c0 .123.023.192.069.207.046.016.1-.023.161-.115 1.288-1.998 3.082-2.997 5.382-2.997.981 0 1.839.2 2.575.6zm9.406 4.772c-.752.57-1.281 1.36-1.587 2.375-.184.523-.307 1.199-.368 2.029-.062.154 0 .23.184.23h9.337c.153 0 .229-.076.229-.23-.061-.768-.153-1.353-.275-1.752-.276-1.107-.821-1.967-1.633-2.582-.813-.615-1.833-.922-3.059-.922-1.135 0-2.077.284-2.828.852zm13.223 6.617l-.046 1.43c0 .368-.184.552-.552.552h-14.396c-.154 0-.23.077-.23.23.092 1.015.23 1.707.414 2.076.736 2.213 2.529 3.335 5.381 3.365 2.085 0 3.741-.86 4.967-2.581.123-.185.276-.277.46-.277a.44.44 0 01.322.138l2.852 2.352c.276.215.322.46.138.737-.951 1.353-2.216 2.398-3.794 3.136-1.58.737-3.335 1.106-5.267 1.106-2.392 0-4.423-.537-6.094-1.614-1.672-1.075-2.891-2.582-3.657-4.518-.705-1.66-1.058-3.965-1.058-6.916 0-1.782.185-3.227.553-4.334.612-2.151 1.77-3.85 3.472-5.095 1.702-1.245 3.749-1.867 6.14-1.867 6.04 0 9.444 3.166 10.211 9.498.122.768.184 1.63.184 2.582z"/><path fill="#1DDBA9" d="M35.666 2c-.588 0-1.14.152-1.619.418L3.7 19.968c-.978.55-1.7 1.563-1.7 2.77v32.995c0 1.408 1.07 2.56 2.367 2.952l11.859 3.195c.282.077.578.12.884.12 1.736 0 3.335-1.338 3.334-3.025v-4.623l-6.418-.798c-1.549-.221-2.71-1.643-2.719-3.273V26.597a3.352 3.352 0 012.02-2.946l25.728-10.482V5.085C38.92 3.359 37.422 2 35.665 2z"/><path fill="#0B1643" d="M23.038 29.339c-1.474.401-2.594 1.676-2.594 3.265v21.748l5.98.744c1.87.251 3.345-1.501 3.345-3.353l.025-12.022c-.004-1.623 1.368-2.908 2.974-3.142l12.672-1.6.005-.003c1.525-.212 2.83-1.393 2.83-2.936V13.93c0-1.677-1.615-2.907-3.311-2.907-.41 0-.8.078-1.163.213l-4.746 1.933v9.353c0 1.5-1.028 2.768-2.385 3.196l-13.632 3.62z"/></g></svg>