<svg xmlns="http://www.w3.org/2000/svg" viewBox="0 0 24 24"><path fill="#16D6FF" d="M2 5.75a1 1 0 011-1h18a1 1 0 011 1v12a1 1 0 01-1 1H3a1 1 0 01-1-1v-12z"/><path fill="#fff" d="M6 10.732h.428v.143h.017c.137-.1.299-.16.467-.172a1.5 1.5 0 01.486.027.662.662 0 01.5.543c.05.238.064.482.04.725a1.93 1.93 0 01-.058.415.675.675 0 01-.603.532c-.184.025-.37.02-.557.03v-.442h.183c.082 0 .162 0 .25-.02a.265.265 0 00.227-.21 1.19 1.19 0 00.043-.25c.018-.205.014-.41-.013-.613a.905.905 0 00-.025-.112.278.278 0 00-.217-.193.92.92 0 00-.388 0 .308.308 0 00-.25.308v2.279h-.475c-.04 0-.047 0-.047-.042v-.215L6 10.733z"/><path fill="#fff" fill-rule="evenodd" d="M15.415 9.35h-.022a2.635 2.635 0 00-1.5.428.105.105 0 00-.058.102v2.405l-.001.042c-.001.026-.002.05.001.095.005.068.03.093.097.093h.285v.452a2.668 2.668 0 01-.55-.024.412.412 0 01-.347-.36 1.458 1.458 0 01-.015-.233v-2.047h-.018a2.688 2.688 0 00-.477 2.5 2.623 2.623 0 001.727 1.722v-3h.55v3.112a2.605 2.605 0 002.383-1.062c.619-.8.709-1.887.23-2.777a2.587 2.587 0 00-1.75-1.388v2.83c.018.175.093.27.25.293.1.012.2.012.3 0a.308.308 0 00.317-.283c.043-.26.043-.525 0-.785a.308.308 0 00-.322-.283c-.1-.005-.2-.005-.3 0h-.05v-.432h.018a5.05 5.05 0 01.522 0c.32.022.583.265.63.582.072.338.072.688 0 1.025a.715.715 0 01-.538.573 1.778 1.778 0 01-.887 0 .57.57 0 01-.435-.438 1.326 1.326 0 01-.04-.33V9.35zm-.872 1.873a.25.25 0 01-.043-.19.25.25 0 01.283-.283.513.513 0 01.125 0 .25.25 0 01.217.25v.075a.25.25 0 01-.25.25.525.525 0 01-.165 0 .25.25 0 01-.167-.102z"/><path fill="#fff" d="M10.387 10.75h.525v1.435a1.42 1.42 0 000 .178.19.19 0 00.138.152.785.785 0 00.485 0 .213.213 0 00.15-.197V10.75h.5v2.43c0 .084-.009.168-.025.25a.383.383 0 01-.315.308 3.244 3.244 0 01-.548.027v-.455h.283a.087.087 0 00.085-.083v-.287l-.36.025a1.303 1.303 0 01-.518-.067.6.6 0 01-.42-.558v-1.547l.02-.043z"/><path fill="#fff" fill-rule="evenodd" d="M10.102 12.965v-2.232l-.437-.013v.15a.765.765 0 00-.317-.152 1.667 1.667 0 00-.46-.028.69.69 0 00-.685.593c-.047.247-.06.499-.038.75.003.112.017.223.043.332a.657.657 0 00.47.545c.232.074.481.08.717.018a1 1 0 00.188-.073v.11h.52zm-.52-1.143l.013.343a.338.338 0 01-.32.368c-.1.012-.2.012-.3 0a.27.27 0 01-.232-.203.935.935 0 01-.043-.25v-.598c.006-.04.014-.08.025-.12.03-.127.14-.22.27-.227.103-.008.207-.008.31 0 .167.015.29.16.277.328v.36z"/></svg>