<svg xmlns="http://www.w3.org/2000/svg" viewBox="0 0 24 24"><path fill="url(#a)" d="M2.125 5.875a1 1 0 011-1h17.75a1 1 0 011 1v11.75a1 1 0 01-1 1H3.125a1 1 0 01-1-1V5.875z"/><path fill="#DDD" fill-rule="evenodd" d="M3 4.75h18a1 1 0 011 1v12a1 1 0 01-1 1H3a1 1 0 01-1-1v-12a1 1 0 011-1zm18.75 1A.75.75 0 0021 5H3a.75.75 0 00-.75.75v12c0 .414.336.75.75.75h18a.75.75 0 00.75-.75v-12z"/><path fill="#179BD7" fill-rule="evenodd" d="M12.75 14.185h.623a.57.57 0 01.452.162.485.485 0 01.078.403.638.638 0 01-.706.585h-.194a.09.09 0 00-.085.075l-.073.45a.06.06 0 01-.058.053h-.327a.055.055 0 01-.045-.06l.25-1.595a.085.085 0 01.085-.073zm.325.815c.175 0 .335 0 .37-.232v.01a.193.193 0 00-.033-.173c-.055-.065-.16-.065-.272-.065h-.043a.05.05 0 00-.05.043L12.98 15h.095z"/><path fill="#253B80" fill-rule="evenodd" d="M8.313 14.185h.622a.58.58 0 01.455.162.485.485 0 01.077.403.638.638 0 01-.717.585h-.188a.082.082 0 00-.082.075l-.072.43a.083.083 0 01-.083.072h-.3a.055.055 0 01-.045-.06l.25-1.595a.083.083 0 01.082-.072zm.317.805c.165 0 .335 0 .37-.223a.192.192 0 00-.033-.172c-.055-.065-.16-.065-.272-.065h-.043a.05.05 0 00-.05.043l-.067.417h.095zm1.87-.24h.295v.01a.05.05 0 01.043.06l-.16 1.02a.085.085 0 01-.086.072h-.274a.053.053 0 01-.045-.06l.014-.082a.582.582 0 01-.412.168.463.463 0 01-.375-.153.565.565 0 01-.102-.467.685.685 0 01.665-.598c.13-.015.26.031.352.125l.02.03.015-.082a.05.05 0 01.05-.043zm-.457.865a.332.332 0 00.337-.285h-.005a.268.268 0 00-.05-.213.25.25 0 00-.2-.08.33.33 0 00-.332.288.23.23 0 00.25.29z"/><path fill="#179BD7" fill-rule="evenodd" d="M14.935 14.75h.315c.024.01.038.035.033.06l-.163 1.02a.083.083 0 01-.082.072h-.278a.053.053 0 01-.043-.06l.013-.082a.575.575 0 01-.412.168.468.468 0 01-.375-.153.555.555 0 01-.11-.457.683.683 0 01.665-.598.43.43 0 01.352.125l.02.03.013-.082a.053.053 0 01.052-.043zm-.455.865a.338.338 0 00.338-.285.25.25 0 00-.053-.213.25.25 0 00-.197-.082.34.34 0 00-.335.287.25.25 0 00.047.21.25.25 0 00.2.083z"/><path fill="#253B80" d="M12.383 14.75h-.3a.085.085 0 00-.073.037l-.415.608-.175-.582a.085.085 0 00-.082-.063h-.295a.052.052 0 00-.053.053.032.032 0 000 .014l.33.97-.31.438a.053.053 0 00.013.072.06.06 0 00.03 0h.3a.083.083 0 00.07-.037l1-1.435a.052.052 0 00-.015-.072.037.037 0 00-.025-.003z"/><path fill="#179BD7" d="M15.582 14.227l-.25 1.625a.053.053 0 00.045.06h.265c.043.001.08-.03.085-.072l.25-1.595a.053.053 0 00-.042-.06h-.298a.053.053 0 00-.055.042zM14 9.65c0 .032 0 .063-.018.098-.214 1.104-.95 1.485-1.89 1.485h-.47a.233.233 0 00-.23.197l-.25 1.555-.07.44a.125.125 0 00.123.143h.848a.203.203 0 00.202-.173v-.043l.16-1.014v-.058a.208.208 0 01.203-.172h.142c.822 0 1.467-.333 1.655-1.3a1.113 1.113 0 00-.155-.978.802.802 0 00-.25-.18z"/><path fill="#222D65" d="M13.785 9.56l-.103-.025-.107-.02a2.457 2.457 0 00-.422-.033h-1.278a.215.215 0 00-.09.02.21.21 0 00-.113.153L11.4 11.38v.05a.233.233 0 01.23-.197h.48c.94 0 1.675-.383 1.89-1.486 0-.034.012-.065.018-.097a1.452 1.452 0 00-.178-.075l-.055-.015z"/><path fill="#253B80" d="M11.672 9.655a.2.2 0 01.113-.15.183.183 0 01.09-.02h1.277c.142 0 .283.01.423.03l.107.02.103.025.047.015c.061.021.12.046.178.075.084-.33.002-.68-.22-.938-.25-.277-.685-.394-1.25-.394h-1.627a.233.233 0 00-.23.197L10 12.822a.14.14 0 00.137.163h1l.25-1.605.285-1.725z"/><defs><linearGradient id="a" x1="12.032" x2="24.721" y1="24.996" y2="6.76" gradientUnits="userSpaceOnUse"><stop stop-color="#fff"/><stop offset=".4" stop-color="#F9F9F9"/><stop offset=".93" stop-color="#E9E9E9"/><stop offset="1" stop-color="#E6E6E6"/></linearGradient></defs></svg>