<svg xmlns="http://www.w3.org/2000/svg" viewBox="0 0 64 64"><path fill="#ECAA3A" d="M8.037 50.625h47.925a2.66 2.66 0 002.663-2.66v-31.93a2.66 2.66 0 00-2.663-2.66H8.038a2.66 2.66 0 00-2.662 2.66v31.93a2.66 2.66 0 002.662 2.66z"/><path fill="#111116" d="M13.485 40.042h28.92a8.27 8.27 0 008.135-6.702 8.25 8.25 0 00-8.1-9.783H21.56a8.25 8.25 0 00-7.987 6.168 8.055 8.055 0 00-.25 1.97v8.197c-.01.15-.023.15.162.15z"/><path fill="#fff" fill-rule="evenodd" d="M13.273 29.648a8.547 8.547 0 018.272-6.4v-.006H42.45c.538 0 1.076.05 1.605.15a8.55 8.55 0 016.79 10 8.583 8.583 0 01-8.36 6.96h-29a.475.475 0 01-.377-.11.425.425 0 01-.108-.325v-8.225c.005-.69.097-1.377.273-2.044zm29.177-6.09H21.545a8.235 8.235 0 00-7.983 6.167 8.055 8.055 0 00-.25 1.97v8.197c0 .072-.002.11.015.13.019.02.062.02.158.02h29a8.27 8.27 0 008.055-6.702 8.25 8.25 0 00-8.09-9.783z"/><path fill="#fff" d="M30.83 33.85a.313.313 0 00-.425.075c-.052.058-.098.12-.138.188-.2.35-.556.581-.957.622a2.076 2.076 0 01-1.035-.075 1.227 1.227 0 01-.872-1.072c-.15-1.02.597-1.583 1.285-1.72A1.46 1.46 0 0130 32.25l.297.25c.175.148.276.148.463 0a.345.345 0 00.112-.5 1.535 1.535 0 00-.287-.335 2.477 2.477 0 00-1.32-.648 2.13 2.13 0 00-1 .098c-.57.176-1.06.547-1.383 1.048-.241.364-.36.796-.337 1.232a2.185 2.185 0 001.832 2.133c.532.08 1.076.029 1.583-.15A1.75 1.75 0 0031 34.5l.075-.175a.347.347 0 00-.098-.398l-.147-.077z"/><path fill="#ECAA3A" d="M25.135 28.543a.802.802 0 00-1 .785c0 .075 0 .137.025.2.01.042.022.084.038.125a.782.782 0 001 .46l.06-.018a.723.723 0 00.45-.918c-.073-.312-.085-.485-.573-.634zm-.2 2.527a.438.438 0 00-.5.288 2.477 2.477 0 00-.125.672c-.025.5 0 1-.037 1.5-.026.538 0 1.06 0 1.595.002.098.048.19.125.25.151.12.342.178.535.163h.027a.322.322 0 00.297-.348 2.567 2.567 0 00-.012-.31c-.05-.727-.05-1.456 0-2.183l.075-1.145a.428.428 0 00-.385-.482z"/><path fill="#D35D91" d="M20.265 27.395a.46.46 0 00-.613.325 2.972 2.972 0 00-.147.723c-.025.162-.037.324-.063.484a29.959 29.959 0 00-.15 3.14c0 .548 0 1.098.038 1.645.013.075.013.15.025.25.017.328.068.653.15.97.017.103.045.204.085.3a.5.5 0 00.462.3.545.545 0 00.25-.012h.018a.287.287 0 00.23-.335c-.038-.323-.075-.635-.1-.973-.025-.337-.063-.672-.075-1a28.718 28.718 0 01-.038-2.705 24.36 24.36 0 01.138-1.632c.025-.285.05-.56.1-.832a1.013 1.013 0 000-.276.337.337 0 00-.31-.372z"/><path fill="#B9CD5C" d="M18 31.457a.48.48 0 00-.325-.375.615.615 0 00-.573.15.335.335 0 00-.087.238c.025.572.05 1.145.063 1.708v1.862c0 .375.15.5.5.475h.1c.25-.038.325-.138.334-.388.05-1.044.038-2.105.038-3.165a2.354 2.354 0 00-.05-.505zm-.628-2.957a.887.887 0 00-.785.898c-.024.347.388.735.835.75a.775.775 0 00.773-.848.823.823 0 00-.823-.8z"/><path fill="#9779AB" d="M22.892 28.617l.113-.897a.275.275 0 00-.2-.313.668.668 0 00-.5.026.392.392 0 00-.225.274 2.89 2.89 0 00-.15.648 22.26 22.26 0 00-.197 2.23v2.443c.007.634.065 1.267.172 1.892.017.085.037.167.063.25.024.082.062.125.087.175.113.25.723.225.835.038a.5.5 0 00.075-.35 8.452 8.452 0 01-.087-.848c-.026-.435-.063-.87-.088-1.308a22.28 22.28 0 010-2.417c-.002-.616.032-1.23.102-1.843z"/><path fill="#fff" fill-rule="evenodd" d="M41.345 32.521c.013.309.025.62.063.929.051.378.114.75.178 1.119l.084.501a.225.225 0 010 .2.475.475 0 01-.563.188.363.363 0 01-.137-.138c-.04-.09-.07-.18-.1-.268l-.023-.07c-.024-.07-.012-.082-.013-.084l-.024-.003c-.029-.006-.118.072-.217.158a2.67 2.67 0 01-.22.18 2 2 0 01-1.583.275 1.78 1.78 0 01-1.307-1.236 2.7 2.7 0 01-.05-1.645c.074-.37.26-.709.535-.97a2.367 2.367 0 011.957-.587c.182.025.359.08.523.163v-.1c-.026-1.083.024-2.168.087-3.25a.55.55 0 01.423-.5h.2c.212-.025.287.037.312.25.016.178.007.358-.025.535-.06.58-.088 1.158-.116 1.739l-.022.428c-.029.566-.005 1.138.02 1.705l.018.477v.004zm-1.67 2.102a1.16 1.16 0 00.86-1.11c.034-.314.017-.63-.05-.938a1.59 1.59 0 00-.087-.238.803.803 0 00-.673-.475h-.188l-.397.05a1.148 1.148 0 00-.885.75 2.28 2.28 0 00-.125.96 1.14 1.14 0 001.545 1zm5.158-3.613a2.062 2.062 0 011.794 1.12 2.7 2.7 0 01.276.885 2.17 2.17 0 01-.153 1.207l-.047.098a2.298 2.298 0 01-2.143 1.263 3.174 3.174 0 01-.463-.013 2.228 2.228 0 01-1.692-1.608c-.07-.38-.058-.771.035-1.147a2.2 2.2 0 011.285-1.607 2.55 2.55 0 011.108-.198zm.71 3.488a1.2 1.2 0 00.537-.835 2.03 2.03 0 00-.097-.985 1.25 1.25 0 00-1.198-.87 2.291 2.291 0 00-.722.11 1.268 1.268 0 00-.873.972c-.063.275-.063.56 0 .835.17.661.789 1.107 1.47 1.06a1.46 1.46 0 00.883-.287zm-9.158-1.22c.044.569.132 1.134.263 1.69a.347.347 0 01-.238.462.365.365 0 01-.547-.2 2.69 2.69 0 01-.138-.313l-.273.188a2.5 2.5 0 01-1.932.413 2.168 2.168 0 01-1.62-1.533 2.073 2.073 0 01-.05-.822c.07-.63.382-1.207.872-1.608a2.75 2.75 0 012.568-.313l.2.088a.25.25 0 00.273 0c.097-.06.21-.09.325-.087.224 0 .297.075.297.3v1.735zm-1.095 1a.93.93 0 00.31-.75v-.208c.012-.205 0-.41-.035-.612a.897.897 0 00-.81-.835 2.013 2.013 0 00-1.047.037 1.558 1.558 0 00-1.035 1.82c.045.221.154.424.312.585.375.392.93.555 1.458.425.316-.08.608-.24.847-.462z"/></svg>