<svg xmlns="http://www.w3.org/2000/svg" viewBox="0 0 108 24">
      <g id="Square"> </g>
  <path fill="#1D1D1B" d="M45.006 8.177a.865.865 0 0 1 .871-.868.873.873 0 0 1 .871.868v4.683a3.884 3.884 0 0 1-1.143 2.746 3.92 3.92 0 0 1-2.756 1.142 3.92 3.92 0 0 1-2.758-1.139 3.884 3.884 0 0 1-1.148-2.744V8.182a.863.863 0 0 1 .52-.861.874.874 0 0 1 1.172.51.85.85 0 0 1 .046.35v4.684c.005.572.236 1.118.642 1.522.407.404.956.632 1.53.636a2.183 2.183 0 0 0 1.532-.636c.407-.406.635-.954.637-1.527l-.016-4.683Zm8.241 6.841a.873.873 0 0 1 .871.867.865.865 0 0 1-.871.868h-2.419a3.272 3.272 0 0 1-2.308-.952 3.243 3.243 0 0 1-.957-2.298V8.177a.86.86 0 0 1 .867-.863.868.868 0 0 1 .866.863v5.316c0 .406.162.795.45 1.082.288.287.68.448 1.087.448h2.414v-.005Zm-14.642.771a.862.862 0 0 1-.42.904.874.874 0 0 1-1.307-.7l-.743-6.24-2.66 6.122a.87.87 0 0 1-1.594 0l-2.66-6.122-.748 6.24a.861.861 0 0 1-.31.615.872.872 0 0 1-1.417-.82l.877-7.244a1.39 1.39 0 0 1 .763-1.076 1.18 1.18 0 0 1 .17-.077h.066c.083-.029.169-.047.256-.056a1.487 1.487 0 0 1 1.215.383 1.424 1.424 0 0 1 .277.362.683.683 0 0 1 .05.097l2.256 5.204 2.255-5.245a1.429 1.429 0 0 1 1.025-.821c.084-.018.17-.03.256-.036h.266a1.47 1.47 0 0 1 1.087.689 1.244 1.244 0 0 1 .164.418.876.876 0 0 1 0 .112l.876 7.29Zm18.435.097a.873.873 0 0 1-1.742 0V9.044H52.82a.873.873 0 0 1-.87-.867.865.865 0 0 1 .87-.867h6.693a.873.873 0 0 1 .872.867.865.865 0 0 1-.872.867H57.04v6.842Zm5.431 0a.865.865 0 0 1-.87.867.873.873 0 0 1-.872-.867v-7.71a.865.865 0 0 1 .871-.866.873.873 0 0 1 .871.867v7.709Zm17.839-.097a.864.864 0 0 1-.763.918.874.874 0 0 1-.963-.709l-.308-2.449h-2.992a.875.875 0 0 1-.866-.517.865.865 0 0 1 .865-1.212h2.799L78 11.182v-.061a2.906 2.906 0 0 0-.277-.898 1.972 1.972 0 0 0-1.763-1.168 1.738 1.738 0 0 0-.83.199 2.43 2.43 0 0 0-1.21 1.928l-.543 4.816a.858.858 0 0 1-.619.734.87.87 0 0 1-1.074-.587.859.859 0 0 1-.029-.336l.543-4.816a4.132 4.132 0 0 1 2.148-3.285 3.6 3.6 0 0 1 .768-.281c.278-.064.561-.097.846-.097.698.004 1.38.206 1.967.583a3.652 3.652 0 0 1 1.343 1.545c.12.236.219.482.298.734.067.233.116.47.148.71a.205.205 0 0 1 0 .076l.595 4.81Zm2.66.097a.864.864 0 0 1-.52.861.875.875 0 0 1-1.17-.51.865.865 0 0 1-.047-.351V8.743a.704.704 0 0 1 0-.148 1.27 1.27 0 0 1 .067-.28l.072-.153a1.25 1.25 0 0 1 .681-.567l.118-.03h.323a1.234 1.234 0 0 1 .918.469l4.612 5.882v-5.74a.865.865 0 0 1 .871-.866.873.873 0 0 1 .871.867v7.142a1.215 1.215 0 0 1-.456.944 1.108 1.108 0 0 1-.287.174l-.072.03a1.23 1.23 0 0 1-.932-.05l-.113-.057a1.023 1.023 0 0 1-.17-.132 1.16 1.16 0 0 1-.112-.113l-.03-.035-4.623-5.903v5.709Zm13.592-.868a.873.873 0 0 1 .87.868.865.865 0 0 1-.87.867h-2.563c-.909 0-1.781-.36-2.424-1a3.405 3.405 0 0 1-1.004-2.413v-2.607a3.416 3.416 0 0 1 1.007-2.41c.642-.64 1.513-1 2.421-1.003h2.563a.873.873 0 0 1 .87.867.865.865 0 0 1-.87.867h-2.563a1.71 1.71 0 0 0-1.199.51 1.673 1.673 0 0 0-.512 1.19v2.606c.002.447.182.875.5 1.192a1.71 1.71 0 0 0 1.196.497h2.562l.016-.03Zm5.037-5.978a2.374 2.374 0 0 0-1.645.652 2.122 2.122 0 0 0-.671 1.53v1.618a2.11 2.11 0 0 0 .666 1.53 2.373 2.373 0 0 0 1.645.654 2.373 2.373 0 0 0 1.645-.653 2.117 2.117 0 0 0 .671-1.531v-1.617a2.121 2.121 0 0 0-.666-1.53 2.397 2.397 0 0 0-1.65-.654m0-1.73a4.108 4.108 0 0 1 2.849 1.133 3.84 3.84 0 0 1 1.205 2.776v1.617a3.832 3.832 0 0 1-1.205 2.775 4.108 4.108 0 0 1-2.849 1.133 4.11 4.11 0 0 1-2.85-1.133 3.857 3.857 0 0 1-1.199-2.775v-1.617a3.842 3.842 0 0 1 1.2-2.776 4.11 4.11 0 0 1 2.849-1.132ZM64.936 9.044v5.974h3.362a1.097 1.097 0 0 0 1.01-.674 1.079 1.079 0 0 0-.205-1.152l-.036-.03a1.073 1.073 0 0 0-.769-.327H67.14a.873.873 0 0 1-.871-.868.865.865 0 0 1 .87-.867h.395c.248-.022.48-.128.656-.3a1.02 1.02 0 0 0 .308-.73c0-.271-.108-.53-.3-.722a1.027 1.027 0 0 0-.725-.299h-2.537v-.005Zm-1.742 2.934V8.212c0-.117.024-.234.072-.341a.983.983 0 0 1 .2-.301.894.894 0 0 1 .573-.245h3.408c.736 0 1.44.29 1.96.808s.813 1.22.813 1.952a2.782 2.782 0 0 1-.425 1.47c.185.108.357.238.512.387l.056.061a2.8 2.8 0 0 1 .774 1.934 2.815 2.815 0 0 1-.83 1.99 2.84 2.84 0 0 1-1.999.826h-4.243a.865.865 0 0 1-.871-.867v-3.908Z"/>
  <path fill="#3D73B9" fill-rule="evenodd" d="M12.728 22h8.643c1.973 0 1.993-2.088 1.792-3.118-.11-.693-1.293-.682-1.423 0v.804a.669.669 0 0 1-.672.669H4.501a.675.675 0 0 1-.672-.67v-.803c-.13-.682-1.313-.693-1.422 0C2.205 19.912 2.226 22 4.197 22h8.531ZM6.62 2h13.325c.936 0 1.702.808 1.702 1.794v.857a.826.826 0 0 1-1.645.008v-.466a.545.545 0 0 0-.548-.546H6.102a.55.55 0 0 0-.549.546v.458c0 1.205-1.57 1.197-1.57.026v-.881C3.987 2.809 4.752 2 5.688 2h.932Z"/>
  <path fill="#1D1D1B" fill-rule="evenodd" d="M21.311 11.852c.458.204.847.533 1.124.95.276.415.427.901.436 1.4 0 1.444-1.267 2.625-2.814 2.625h-4.34a.718.718 0 0 1-.738-.682V7.92a.722.722 0 0 1 .725-.72h3.614a2.768 2.768 0 0 1 1.525.453 2.735 2.735 0 0 1 .468 4.2Zm-3.239-.668h1.378v-.015a1.308 1.308 0 0 0 1.113-1.29 1.306 1.306 0 0 0-.385-.92 1.317 1.317 0 0 0-.925-.384h-2.776v6.822h3.518a1.36 1.36 0 0 0 1.29-.821 1.343 1.343 0 0 0-.758-1.784 1.36 1.36 0 0 0-.532-.09h-1.923a.765.765 0 0 1-.702-.467.754.754 0 0 1 .411-.99.765.765 0 0 1 .291-.057"/>
  <path fill="#1D1D1B" d="M14.29 16.008a.865.865 0 0 1-.77.987.874.874 0 0 1-.962-.805l-.717-6.537-2.523 6.393v.078a.837.837 0 0 1-.218.248l-.014.01a.787.787 0 0 1-.15.107l-.017.008-.015.009h-.086a.833.833 0 0 1-.256.047H8.5a.837.837 0 0 1-.285-.058h-.072l-.015-.009-.014-.008h-.008a.82.82 0 0 1-.137-.091l-.029-.026-.022-.02-.052-.014-.026-.029a.82.82 0 0 1-.092-.136v-.008l-.008-.014-.008-.015v-.064l-2.57-6.408-.714 6.537a.865.865 0 0 1-.958.77.871.871 0 0 1-.773-.952L3.558 8.3a1.432 1.432 0 0 1 .613-1.022c.188-.13.405-.214.632-.244h.046a1.63 1.63 0 0 1 .221 0 1.432 1.432 0 0 1 1.276.906l2.157 5.428 2.154-5.446a1.426 1.426 0 0 1 1.276-.906c.073-.005.147-.005.22 0h.047a1.451 1.451 0 0 1 1.083.748 1.404 1.404 0 0 1 .162.524l.845 7.719Z"/>
</svg>
