<svg viewBox="0 0 29 28" xmlns="http://www.w3.org/2000/svg">
<g id="Square"> </g>
<path fill-rule="evenodd" clip-rule="evenodd" d="M15.1902 3.44294C15.4148 3.68029 15.6379 3.91922 15.8591 4.15651L16.2202 4.53497C16.2477 4.56385 16.2734 4.59463 16.2933 4.62211L15.6535 5.29831C15.1517 4.75158 14.1139 3.57776 14.0716 3.52995L14.0715 3.6083L14.0716 3.62104L14.0714 11.3333H13.1817V3.62104L13.1818 3.60832L13.1816 3.52995C13.1394 3.57776 12.1016 4.75158 11.5998 5.29831C11.3613 5.04632 11.1587 4.83217 10.96 4.61694C10.9659 4.61032 10.9723 4.60295 10.9791 4.5951C10.9953 4.57652 11.0138 4.55527 11.0331 4.53497L11.3942 4.15648C11.6153 3.91921 11.8385 3.68029 12.0631 3.44294C12.3687 3.12005 12.6766 2.7995 12.9844 2.47896C13.0745 2.38516 13.1646 2.29136 13.2546 2.1975C13.3826 2.06409 13.5045 1.9983 13.6266 2.00003C13.7488 1.9983 13.8707 2.06409 13.9987 2.1975C14.0887 2.29134 14.1787 2.38511 14.2688 2.47889C14.5767 2.79946 14.8845 3.12002 15.1902 3.44294ZM10.6945 11.474H5.33802C4.90474 11.474 4.48038 11.3522 4.11311 11.1296V23.2498C4.11311 24.1291 4.82402 24.8444 5.69868 24.8444H22.2752C22.752 24.8444 23.14 24.4538 23.14 23.9737V22.9459C23.14 22.6269 23.3983 22.3681 23.7166 22.3681C24.0349 22.3681 24.2932 22.6269 24.2932 22.9459V23.9737C24.2932 25.0912 23.388 26 22.2752 26H5.69868C4.18864 26 2.95996 24.7664 2.95996 23.2498V9.24452C2.95996 9.22476 2.96095 9.20524 2.96289 9.18599C2.95725 9.0709 2.95972 8.95478 2.97057 8.83847C3.08416 7.62059 4.15891 6.66667 5.41586 6.66667H10.6945C11.0127 6.66667 11.271 6.91942 11.271 7.23078C11.271 7.54218 11.0127 7.79489 10.6945 7.79489H5.41586C4.74875 7.79489 4.17909 8.29863 4.11855 8.94115C4.08395 9.31795 4.20792 9.68856 4.45931 9.95822C4.69225 10.2081 5.00476 10.3457 5.33802 10.3457H10.6945C11.0127 10.3457 11.271 10.5985 11.271 10.9099C11.271 11.2212 11.0127 11.474 10.6945 11.474ZM23.7166 14C23.3983 14 23.14 13.7473 23.14 13.4359V12.381C23.14 11.8812 22.7526 11.474 22.2751 11.474H16.3046C15.9863 11.474 15.728 11.2212 15.728 10.9099C15.728 10.5985 15.9863 10.3457 16.3046 10.3457H21.6986V8.70254C21.6986 8.20218 21.3111 7.79489 20.8337 7.79489H16.074C15.7557 7.79489 15.4974 7.54218 15.4974 7.23078C15.4974 6.91942 15.7557 6.66667 16.074 6.66667H20.8337C21.9465 6.66667 22.8517 7.57998 22.8517 8.70254V10.37C22.8517 10.3903 22.8506 10.4101 22.8489 10.4292C23.6831 10.6791 24.2932 11.4598 24.2932 12.381V13.4359C24.2932 13.7473 24.0355 14 23.7166 14ZM17.0708 15.8889C16.4122 15.8889 15.7844 16.1963 15.3479 16.7329C14.9039 17.2786 14.7096 18.004 14.8146 18.7238C14.9856 19.8947 15.9925 20.7778 17.156 20.7778H25.6661C25.7403 20.7778 25.8006 20.7093 25.8006 20.625V16.0417C25.8006 15.9574 25.7397 15.8889 25.6644 15.8889H17.0708ZM25.6661 22H17.156C15.4256 22 13.9259 20.6715 13.6685 18.9096C13.512 17.8371 13.8035 16.7542 14.4679 15.9372C15.1253 15.1299 16.0737 14.6667 17.0708 14.6667H25.6644C26.3786 14.6667 26.96 15.2833 26.96 16.0417V20.625C26.96 21.3834 26.3797 22 25.6661 22ZM17.2932 17.7779C16.9871 17.7779 16.7377 18.0273 16.7377 18.3334C16.7377 18.6395 16.9871 18.889 17.2932 18.889C17.5993 18.889 17.8488 18.6395 17.8488 18.3334C17.8488 18.0273 17.5993 17.7779 17.2932 17.7779ZM17.2932 20.0001C16.3743 20.0001 15.6266 19.2523 15.6266 18.3334C15.6266 17.4145 16.3743 16.6667 17.2932 16.6667C18.2121 16.6667 18.9599 17.4145 18.9599 18.3334C18.9599 19.2523 18.2121 20.0001 17.2932 20.0001Z" fill="#666666"/>
</svg>
