<svg xmlns="http://www.w3.org/2000/svg" xmlns:xlink="http://www.w3.org/1999/xlink" viewBox="0 0 24 24"><defs><style>.cls-1{fill:none;}.cls-2{fill:#ecaa3a;}.cls-3{opacity:0.3;fill:url(#Dégradé_sans_nom_17);}.cls-4{fill:#111116;}.cls-5{fill:#fff;}.cls-6{fill:#d35d91;}.cls-7{fill:#9779ab;}.cls-8{fill:#b9cd5c;}</style><radialGradient id="Dégradé_sans_nom_17" cx="12" cy="-458.87" r="7.5" gradientTransform="translate(0 76.93) scale(1 0.13)" gradientUnits="userSpaceOnUse"><stop offset="0" stop-color="#7f4413"/><stop offset="0.24" stop-color="#7f4413" stop-opacity="0.71"/><stop offset="0.58" stop-color="#7f4413" stop-opacity="0.33"/><stop offset="0.85" stop-color="#7f4413" stop-opacity="0.09"/><stop offset="1" stop-color="#7f4413" stop-opacity="0"/></radialGradient></defs><title>Payment_Colors_Illicado_24px</title><g id="Square"><rect class="cls-1" width="24" height="24"/></g><g id="Icon"><rect class="cls-2" x="2" y="5" width="20" height="14" rx="1"/><ellipse class="cls-3" cx="12" cy="15.75" rx="7.5" ry="1"/><path class="cls-4" d="M5.07,15.09H15.9a3,3,0,0,0,1.65-.48,3,3,0,0,0,1.39-2A3.08,3.08,0,0,0,16.49,9a2.78,2.78,0,0,0-.58-.06H8.09A3.09,3.09,0,0,0,5,12V15C5,15.09,5,15.09,5.07,15.09Z"/><path class="cls-5" d="M8.08,8.91h7.83a2.78,2.78,0,0,1,.58.06,3.08,3.08,0,0,1,2.45,3.61,3,3,0,0,1-1.39,2,3,3,0,0,1-1.62.48H5.07C5,15.09,5,15.09,5,15V12A3.09,3.09,0,0,1,8.08,8.91m0-.12A3.2,3.2,0,0,0,5,11.19a2.86,2.86,0,0,0-.1.77V15a.14.14,0,0,0,0,.14.19.19,0,0,0,.15,0H15.93a3.21,3.21,0,0,0,3.14-2.61,3.22,3.22,0,0,0-2.55-3.76,4.07,4.07,0,0,0-.61-.05H8.08Z"/><path class="cls-5" d="M13.64,12.55V11.9c0-.08,0-.11-.11-.11a.21.21,0,0,0-.12,0,.11.11,0,0,1-.11,0l-.07,0a1,1,0,0,0-1,.12.91.91,0,0,0-.33.6.65.65,0,0,0,0,.31.79.79,0,0,0,.61.57.93.93,0,0,0,.72-.15l.1-.07,0,.12a.14.14,0,0,0,.21.07c.08,0,.11-.08.09-.17A4.49,4.49,0,0,1,13.64,12.55Zm-.29.1a.36.36,0,0,1-.12.29.79.79,0,0,1-.31.17.59.59,0,0,1-.55-.16.48.48,0,0,1-.12-.22.58.58,0,0,1,.39-.68A.74.74,0,0,1,13,12a.35.35,0,0,1,.31.32,1.69,1.69,0,0,1,0,.23Z"/><path class="cls-5" d="M11.56,12.77a.11.11,0,0,0-.16,0l-.05.07a.47.47,0,0,1-.36.23.86.86,0,0,1-.39,0,.45.45,0,0,1-.32-.4.55.55,0,0,1,.48-.64.52.52,0,0,1,.49.14l.11.1a.12.12,0,0,0,.17,0c.07-.06.09-.11.05-.19a.43.43,0,0,0-.11-.12,1,1,0,0,0-.5-.25.78.78,0,0,0-.37,0,.93.93,0,0,0-.52.39.77.77,0,0,0-.13.46.83.83,0,0,0,.69.8,1.31,1.31,0,0,0,.59-.05.69.69,0,0,0,.39-.34l0-.06a.13.13,0,0,0,0-.15Z"/><path class="cls-6" d="M7.6,10.35a.16.16,0,0,0-.22.12,1.31,1.31,0,0,0-.06.27c0,.06,0,.12,0,.18a11.81,11.81,0,0,0-.06,1.18c0,.21,0,.41,0,.62a.19.19,0,0,1,0,.08,2.2,2.2,0,0,0,.06.37l0,.11a.18.18,0,0,0,.17.11h.1a.11.11,0,0,0,.09-.13c0-.12,0-.24,0-.36l0-.38a8.53,8.53,0,0,1,0-1c0-.21,0-.41,0-.61s0-.21,0-.32v-.1A.13.13,0,0,0,7.6,10.35Z"/><path class="cls-7" d="M8.59,10.81l0-.34a.11.11,0,0,0-.07-.12.34.34,0,0,0-.2,0,.15.15,0,0,0-.08.11,1.05,1.05,0,0,0-.06.24c0,.28-.06.56-.07.83V12c0,.17,0,.3,0,.43a4.25,4.25,0,0,0,.06.71s0,.06,0,.09a.43.43,0,0,0,0,.07c0,.09.27.08.31,0a.28.28,0,0,0,0-.13,2,2,0,0,1,0-.32c0-.16,0-.32,0-.49s0-.6,0-.9A5.34,5.34,0,0,1,8.59,10.81Z"/><path class="cls-2" d="M9.43,10.78a.3.3,0,0,0-.37.29v.08s0,0,0,0a.3.3,0,0,0,.38.17h0A.27.27,0,0,0,9.65,11C9.62,10.9,9.61,10.84,9.43,10.78Z"/><path class="cls-2" d="M9.35,11.73a.16.16,0,0,0-.19.1,1.17,1.17,0,0,0,0,.26c0,.18,0,.37,0,.56s0,.39,0,.59a.13.13,0,0,0,0,.1.36.36,0,0,0,.2.06h0a.14.14,0,0,0,.12-.13s0-.08,0-.12a5.61,5.61,0,0,1,0-.82l0-.43h0A.15.15,0,0,0,9.35,11.73Z"/><path class="cls-8" d="M6.52,10.77a.32.32,0,0,0-.29.33.31.31,0,0,0,.31.28.29.29,0,0,0,.29-.32A.31.31,0,0,0,6.52,10.77Z"/><path class="cls-8" d="M6.63,11.73a.21.21,0,0,0-.21.06.12.12,0,0,0,0,.09c0,.21,0,.43,0,.64v.7c0,.14.06.18.19.17h0c.09,0,.12-.05.12-.14,0-.39,0-.79,0-1.19a.63.63,0,0,0,0-.19A.17.17,0,0,0,6.63,11.73Z"/><path class="cls-5" d="M17.48,12.12a.79.79,0,0,0-.67-.42,1,1,0,0,0-.42.08.82.82,0,0,0-.48.6,1,1,0,0,0,0,.43.82.82,0,0,0,.63.6h.17a.84.84,0,0,0,.57-.19.76.76,0,0,0,.24-.29v0a.72.72,0,0,0,.06-.46A1,1,0,0,0,17.48,12.12Zm-.21.58a.41.41,0,0,1-.2.31.52.52,0,0,1-.33.11.53.53,0,0,1-.55-.4.65.65,0,0,1,0-.31.48.48,0,0,1,.32-.37,1.26,1.26,0,0,1,.27,0,.46.46,0,0,1,.45.33A.77.77,0,0,1,17.27,12.7Z"/><path class="cls-5" d="M15.52,12.62c0-.12,0-.24,0-.35a7.48,7.48,0,0,1,0-.82c0-.27,0-.54,0-.81a1.34,1.34,0,0,0,0-.2c0-.08,0-.1-.12-.1h-.07a.2.2,0,0,0-.16.19c0,.41,0,.81,0,1.22v0a.6.6,0,0,0-.19-.06.86.86,0,0,0-.73.22.57.57,0,0,0-.2.36,1,1,0,0,0,0,.62.69.69,0,0,0,.49.46.79.79,0,0,0,.6-.1s.14-.14.16-.13,0,0,0,0,0,.09,0,.13l.05,0a.19.19,0,0,0,.21-.07.08.08,0,0,0,0-.08C15.59,13,15.55,12.82,15.52,12.62Zm-.32,0a.44.44,0,0,1-.32.42.43.43,0,0,1-.58-.38.87.87,0,0,1,0-.36.43.43,0,0,1,.33-.28l.15,0h.07a.3.3,0,0,1,.26.17l0,.09A1.37,1.37,0,0,1,15.2,12.64Z"/></g></svg>