<svg xmlns="http://www.w3.org/2000/svg" xmlns:xlink="http://www.w3.org/1999/xlink" viewBox="0 0 24 24"><defs><style>.cls-1{fill:none;}.cls-2{fill:#fff;}.cls-3{fill:#d3d2d6;}.cls-4{opacity:0.1;fill:url(#Dégradé_sans_nom_244);}.cls-5{fill:#1b2070;}.cls-6{fill:#f7b601;}</style><linearGradient id="Dégradé_sans_nom_244" x1="2.32" y1="18.78" x2="21.68" y2="5.22" gradientUnits="userSpaceOnUse"><stop offset="0" stop-color="#000070" stop-opacity="0"/><stop offset="0.25" stop-color="#00006e" stop-opacity="0.05"/><stop offset="0.48" stop-color="#000067" stop-opacity="0.22"/><stop offset="0.71" stop-color="#00005c" stop-opacity="0.49"/><stop offset="0.93" stop-color="#00004c" stop-opacity="0.86"/><stop offset="1" stop-color="#000046"/></linearGradient></defs><title>Payment_Colors_Visa_24px</title><g id="Square"><rect class="cls-1" width="24" height="24"/></g><g id="Icon"><rect class="cls-2" x="2" y="5" width="20" height="14" rx="1"/><path class="cls-3" d="M21,5.5a.5.5,0,0,1,.5.5V18a.5.5,0,0,1-.5.5H3a.5.5,0,0,1-.5-.5V6A.5.5,0,0,1,3,5.5H21M21,5H3A1,1,0,0,0,2,6V18a1,1,0,0,0,1,1H21a1,1,0,0,0,1-1V6a1,1,0,0,0-1-1Z"/><rect class="cls-4" x="2" y="5" width="20" height="14" rx="1"/><polygon class="cls-5" points="9.98 14.04 10.58 10.47 11.56 10.47 10.95 14.04 9.98 14.04"/><path class="cls-5" d="M14.47,10.56a2.57,2.57,0,0,0-.87-.15c-1,0-1.64.49-1.64,1.18,0,.51.48.79.85,1s.5.29.5.45-.3.35-.58.35a2.09,2.09,0,0,1-.91-.19l-.13-.06-.13.8a3.13,3.13,0,0,0,1.08.19c1,0,1.68-.48,1.69-1.22,0-.41-.25-.71-.81-1-.34-.16-.55-.27-.55-.44s.18-.31.55-.31a1.83,1.83,0,0,1,.73.14l.09,0,.13-.77"/><path class="cls-5" d="M17,10.48h-.76a.46.46,0,0,0-.5.29L14.26,14h1l.21-.54h1.24l.12.53h.9L17,10.47m-1.2,2.3.38-1,.13-.34.07.31.22,1Z"/><path class="cls-5" d="M9.16,10.48l-.95,2.43-.1-.5a2.8,2.8,0,0,0-1.34-1.49L7.64,14h1l1.53-3.55h-1"/><path class="cls-5" d="M7.33,10.47H5.76v.08a3.2,3.2,0,0,1,2.36,1.86l-.34-1.63a.41.41,0,0,0-.44-.31"/><path class="cls-6" d="M2,16v2a1,1,0,0,0,1,1H21a1,1,0,0,0,1-1V16Z"/><path class="cls-5" d="M22,6a1,1,0,0,0-1-1H3A1,1,0,0,0,2,6V8H22Z"/></g></svg>