<svg xmlns="http://www.w3.org/2000/svg" viewBox="0 0 24 24">
    <g id="Square"> </g>
  <path fill="#4DB901" d="M21 4.75H3a1 1 0 0 0-1 1v12a1 1 0 0 0 1 1h18a1 1 0 0 0 1-1v-12a1 1 0 0 0-1-1Z"/>
  <path fill="#fff" fill-rule="evenodd" d="M11.856 7.007a3.509 3.509 0 0 1-.104-.012l-.028-.017h-.052a1.382 1.382 0 0 0-.71.222 1.5 1.5 0 0 0-.645 1.58 1.482 1.482 0 0 0 2.705.5c.015-.023.029-.049.043-.075a1.58 1.58 0 0 1 .03-.052h-.569a.075.075 0 0 0-.04.02.98.98 0 0 1-.698.3.938.938 0 0 1-.947-.75V8.7h2.317a1.75 1.75 0 0 0 0-.485 1.462 1.462 0 0 0-1.13-1.185 2.105 2.105 0 0 0-.173-.023Zm.74 1.213h-1.74a.908.908 0 0 1 .923-.712c.385.02.818.385.818.712Zm-6.9-1.211-.09-.014h-.225a3.488 3.488 0 0 1-.078.012 1.475 1.475 0 0 0-1.302 1.331v.315a2.5 2.5 0 0 0 .1.38c.202.572.741.955 1.348.957.455.03.897-.164 1.185-.517a1.5 1.5 0 0 0-.938-2.464Zm.743 1.276a2 2 0 0 1 .027.21 1 1 0 0 1-.827.985.965.965 0 0 1-1.078-.727 1 1 0 0 1 .608-1.18.96.96 0 0 1 1.27.712Z"/>
  <path fill="#fff" d="M13.862 10.852c.145-.347.285-.695.425-1.042a.07.07 0 0 0 0-.055c-.384-.92-.768-1.837-1.153-2.75h.6a.07.07 0 0 0 0 .022l.833 2.043c.004.009.01.017.015.025a.51.51 0 0 0 .02-.048c.105-.25.21-.515.315-.767l.52-1.275h.565a.38.38 0 0 1 0 .05l-1.125 2.75-.44 1.065-.575-.018ZM8.77 6.995c.074.013.15.018.224.038.46.088.826.435.938.89.03.122.045.248.045.375V9.99h-.543V8.348c0-.118-.012-.235-.037-.35a.615.615 0 0 0-.5-.488 1.103 1.103 0 0 0-.5 0 .637.637 0 0 0-.528.56 1.394 1.394 0 0 0-.022.288V9.98h-.54a.084.084 0 0 1 0-.025V8.223a1.152 1.152 0 0 1 .415-.913c.21-.18.473-.29.75-.312h.05l.247-.003Z"/>
  <path fill="#96E51F" d="M21.719 13.95h-7.536l3.77-3.449 3.766 3.449Z"/>
  <path fill="#89C067" d="m19.422 18.736 2.574-2.359v-.018H16.83l2.593 2.377Z"/>
  <path fill="#A8DA88" d="M16.835 16.35h5.161v-.008l-2.576-2.36-2.585 2.368Z"/>
  <path fill="#EAF8E4" d="M19.413 13.974 16.82 16.35h-.002l-2.6-2.383h5.186l.009.007Zm.022-.007-.008.007 2.57 2.354.003-2.114-.27-.247h-2.295Z"/>
  <path fill="#3B950F" d="m14.191 13.957-.004-.004-.005.004h.01Zm-.02.01-2.593 2.371.013.012h5.211l-2.6-2.383h-.03Zm-2.601 2.378.006.004h-.01l.005-.004Z"/>
  <path fill="#96E51F" d="M11.587 16.36h-.032l-2.614 2.39 5.25-.005-2.604-2.386Z"/>
  <path fill="#A8DA88" d="M16.809 16.36h-5.207l2.603 2.385 2.604-2.386Z"/>
  <path fill="#EAF8E4" d="m14.22 18.745 2.599-2.38 2.592 2.375-5.19.005Z"/>
  <path fill="#3B950F" d="m19.433 18.74 1.718-.002a1 1 0 0 0 .843-.876l.002-1.471-2.563 2.349Z"/>
</svg>
