<svg xmlns="http://www.w3.org/2000/svg" viewBox="0 0 24 24"><defs><style>.cls-1{fill:none;}.cls-2{fill:#81bc00;}.cls-3{fill:#fff;}</style></defs><title>Payment_Colors_Oney_24px</title><g id="Square"><rect class="cls-1" width="24" height="24"/></g><g id="Icon"><rect class="cls-2" x="2" y="5" width="20" height="14" rx="1"/><path class="cls-3" d="M13.76,10.82l.28,0A1.46,1.46,0,0,1,15.17,12a2.68,2.68,0,0,1,0,.49H12.84v0a1,1,0,0,0,.95.76,1,1,0,0,0,.69-.3,0,0,0,0,1,0,0h.57a.54.54,0,0,1-.07.13,1.49,1.49,0,0,1-1,.67,1.45,1.45,0,0,1-1.7-1.16A1.49,1.49,0,0,1,13,11.05a1.38,1.38,0,0,1,.71-.22h.09Zm-.91,1.23h1.76a.9.9,0,0,0-1.76,0Z"/><path class="cls-3" d="M7.6,10.82l.22,0a1.5,1.5,0,0,1,.81,2.44,1.42,1.42,0,0,1-1.18.52,1.43,1.43,0,0,1-1.35-1A2.34,2.34,0,0,1,6,12.48s0,0,0-.05V12.2s0,0,0,0a1.48,1.48,0,0,1,1.14-1.3l.24,0Zm.87,1.5,0-.21a1,1,0,0,0-1.13-.76l-.14,0a1,1,0,0,0-.61,1.18,1,1,0,0,0,1.08.73A1,1,0,0,0,8.47,12.32Z"/><path class="cls-3" d="M15.86,14.68c.14-.35.29-.69.43-1v-.06l-1.16-2.76h.6v0c.27.68.55,1.36.83,2v0l0-.05.32-.77.52-1.27H18s0,0,0,0c-.38.91-.75,1.83-1.13,2.74-.14.36-.29.71-.44,1.07Z"/><path class="cls-3" d="M10.77,10.82l.22,0a1.19,1.19,0,0,1,.94.89,1.17,1.17,0,0,1,0,.37c0,.55,0,1.1,0,1.65v0h-.55v-.05c0-.53,0-1,0-1.58a2.07,2.07,0,0,0,0-.35.64.64,0,0,0-.51-.49,1.35,1.35,0,0,0-.49,0,.65.65,0,0,0-.53.56,1.46,1.46,0,0,0,0,.29v1.62H9.31V12.06a1.19,1.19,0,0,1,.42-.92,1.44,1.44,0,0,1,.74-.31h.31Z"/></g></svg>