<svg width="24" height="24" viewBox="0 0 24 24" fill="none" xmlns="http://www.w3.org/2000/svg">
  <g id="Square"> </g>
  <g id="Icon">
<path fill-rule="evenodd" clip-rule="evenodd" d="M19.4201 11.9976C19.4201 16.0971 16.0968 19.4203 11.9974 19.4203C7.89795 19.4203 4.57471 16.0971 4.57471 11.9976C4.57471 7.8982 7.89795 4.57495 11.9974 4.57495C16.0968 4.57495 19.4201 7.8982 19.4201 11.9976ZM10.0253 14.2244C9.60078 14.2421 9.18134 14.1271 8.82526 13.8953C8.51637 13.6844 8.2927 13.3704 8.19434 13.0096L9.18403 12.7176C9.23819 12.8866 9.3481 13.0323 9.49578 13.1308C9.65666 13.2331 9.84456 13.2849 10.0352 13.2792C10.2059 13.2832 10.3728 13.2282 10.5077 13.1234C10.6386 13.0188 10.7113 12.8577 10.7032 12.6904C10.7102 12.522 10.6309 12.3616 10.4929 12.2648C10.3358 12.1602 10.1495 12.1082 9.96093 12.1164H9.41166V11.2553H9.93619C10.1113 11.266 10.2851 11.219 10.431 11.1217C10.557 11.0138 10.6225 10.8513 10.6067 10.6863C10.6132 10.5401 10.5498 10.3996 10.436 10.3077C10.317 10.2143 10.1691 10.1653 10.0178 10.1691C9.69996 10.159 9.41965 10.376 9.3498 10.6863L8.32547 10.3893C8.36548 10.2354 8.43069 10.0891 8.51846 9.95636C8.6131 9.81706 8.72726 9.69207 8.85743 9.58522C9.0101 9.46516 9.18378 9.37455 9.36959 9.318C9.58595 9.25124 9.81122 9.21787 10.0376 9.21904C10.4718 9.19842 10.9004 9.32385 11.255 9.57532C11.7369 9.96253 11.8641 10.6436 11.5543 11.1786C11.4434 11.3524 11.2781 11.4846 11.0842 11.5547C11.2952 11.628 11.4761 11.7689 11.5989 11.9555C11.7472 12.1739 11.8217 12.434 11.8117 12.6978C11.8236 13.1204 11.6413 13.5253 11.3168 13.7964C10.9526 14.0913 10.4935 14.2435 10.0253 14.2244ZM16.1744 10.4041L14.8779 12.2128L16.1522 14.1253H14.8854L14.2247 13.1356L13.6235 14.1253H12.4111L13.6482 12.2746L12.4111 10.4041H13.6804L14.3237 11.374L14.9769 10.4041H16.1744Z" fill="#81BC00"/>
</g>
</svg>
