<svg xmlns="http://www.w3.org/2000/svg" xmlns:xlink="http://www.w3.org/1999/xlink" viewBox="0 0 24 24"><defs><style>.cls-1{fill:none;}.cls-2{fill:url(#Dégradé_sans_nom_196);}.cls-3{fill:#d3d2d6;}.cls-4{fill:#78be20;}</style><linearGradient id="Dégradé_sans_nom_196" x1="775.45" y1="-2097.8" x2="778.41" y2="-2094.82" gradientTransform="matrix(6.51, 0, 0, -4.54, -5045.75, -9506.33)" gradientUnits="userSpaceOnUse"><stop offset="0" stop-color="#fff"/><stop offset="0.4" stop-color="#f9f9f9"/><stop offset="0.93" stop-color="#e9e9e9"/><stop offset="1" stop-color="#e6e6e6"/></linearGradient></defs><title>Payment_Colors_Loyalty_24px</title><g id="Square"><rect class="cls-1" width="24" height="24"/></g><g id="Icon"><rect class="cls-2" x="2" y="5" width="20" height="14" rx="1"/><path class="cls-3" d="M21,5.5a.5.5,0,0,1,.5.5V18a.5.5,0,0,1-.5.5H3a.5.5,0,0,1-.5-.5V6A.5.5,0,0,1,3,5.5H21M21,5H3A1,1,0,0,0,2,6V18a1,1,0,0,0,1,1H21a1,1,0,0,0,1-1V6a1,1,0,0,0-1-1Z"/><polygon class="cls-4" points="7.26 15.61 16.57 15.61 11.92 10.93 7.26 15.61"/><polygon points="7.06 15.4 7.78 14.68 7.54 14.44 7.08 14.89 6.27 14.07 6 14.34 7.06 15.4"/><polyline points="7.34 13.43 7.52 13.61 7.89 13.24 8.11 13.46 7.73 13.83 7.96 14.06 8.43 13.6 8.64 13.81 7.91 14.54 6.85 13.48 7.58 12.75 7.79 12.97 7.34 13.43"/><path d="M9.72,12.73,9,12.52H9A.43.43,0,0,0,8.3,12h0l-.53.54,1.05,1.07.27-.27-.86-.87.18-.17a.18.18,0,0,1,.27,0,.19.19,0,0,1,0,.27l-.16.16.92.26Z"/><path d="M9.23,11.05a.73.73,0,0,1,1.08,0,.74.74,0,0,1,0,1.08.77.77,0,0,1-1.09-1.09Zm.21.21c-.17.17-.11.38.09.58s.41.26.58.09.11-.37-.1-.58S9.61,11.09,9.44,11.26Z"/><polygon points="10.63 10.49 10.43 9.89 10.74 9.57 11.01 10.6 11.43 11.02 11.15 11.29 10.74 10.88 9.76 10.56 10.05 10.26 10.62 10.49 10.63 10.49"/><polygon points="15.52 14.14 16.58 13.08 16.3 12.79 15.24 13.86 15.52 14.14"/><polygon points="11.48 10.09 12.3 9.69 11.7 10.3 11.94 10.54 13 9.48 12.66 9.14 11.86 9.53 11.86 9.53 12.26 8.74 11.92 8.39 10.86 9.46 11.11 9.71 11.71 9.1 11.32 9.92 11.48 10.09"/><polyline points="13.31 10.23 13.14 10.42 13.54 10.83 13.32 11.04 12.92 10.63 12.69 10.87 13.18 11.36 12.97 11.58 12.21 10.81 13.27 9.75 14.03 10.52 13.81 10.73 13.31 10.23"/><polygon points="14.32 12.93 15.04 13.66 15.28 13.42 14.83 12.96 15.65 12.14 15.38 11.87 14.32 12.93"/><polygon points="17.2 13.69 16.86 14.82 16.86 14.82 17.59 14.09 17.84 14.34 16.78 15.4 16.45 15.07 16.74 13.91 16.74 13.9 16.01 14.63 15.77 14.39 16.83 13.32 17.2 13.69"/><path d="M14.14,12.75l.21-.72h0a.44.44,0,0,0,.51-.1.43.43,0,0,0,0-.61h0l-.57-.57-1,1.06.26.27.86-.86.21.21a.19.19,0,1,1-.25.29s0,0,0,0l-.2-.19-.22,1Z"/></g></svg>