<svg xmlns="http://www.w3.org/2000/svg" viewBox="0 0 24 24"><defs><style>.cls-1{fill:none;}.cls-2{fill:#fff;}.cls-3{fill:#d3d2d6;}.cls-4{fill:#eaf3e2;}.cls-5{fill:#add585;}.cls-6{fill:#78be20;}</style></defs><title>Payment_Colors_Gift_24px</title><g id="Square"><rect class="cls-1" width="24" height="24"/></g><g id="Icon"><rect class="cls-2" x="2.25" y="5.25" width="19.5" height="13.5" rx="0.75"/><path class="cls-3" d="M21,19H3a1,1,0,0,1-1-1V6A1,1,0,0,1,3,5H21a1,1,0,0,1,1,1V18A1,1,0,0,1,21,19ZM3,5.5a.5.5,0,0,0-.5.5V18a.5.5,0,0,0,.5.5H21a.5.5,0,0,0,.5-.5V6a.5.5,0,0,0-.5-.5Z"/><path class="cls-4" d="M8,18.75H21a.76.76,0,0,0,.75-.75V6A.76.76,0,0,0,21,5.25H8"/><path class="cls-5" d="M21,19H8v-.5H21a.5.5,0,0,0,.5-.5V6a.5.5,0,0,0-.5-.5H8V5H21a1,1,0,0,1,1,1V18A1,1,0,0,1,21,19Z"/><path class="cls-6" d="M5.61,6.5,7.4,8.29A.51.51,0,0,1,7,9.15H3.46a.5.5,0,0,1-.35-.86L4.9,6.5A.5.5,0,0,1,5.61,6.5Z"/><path class="cls-6" d="M18.5,10h-.28A2,2,0,0,0,15,7.69,2,2,0,0,0,11.78,10H11.5a.5.5,0,0,0-.5.5v6a.5.5,0,0,0,.5.5h7a.5.5,0,0,0,.5-.5v-6A.5.5,0,0,0,18.5,10Zm-4,3H12V11h2.5Zm1-2H18v2H15.5Zm1-3a1,1,0,0,1,0,2h-1V9A1,1,0,0,1,16.5,8Zm-4,1a1,1,0,0,1,2,0v1h-1A1,1,0,0,1,12.5,9ZM12,14h2.5v2H12Zm3.5,2V14H18v2Z"/></g></svg>