<svg xmlns="http://www.w3.org/2000/svg" xmlns:xlink="http://www.w3.org/1999/xlink" viewBox="0 0 24 24"><defs><style>.cls-1{fill:none;}.cls-2{fill:url(#Dégradé_sans_nom_196);}.cls-3{fill:#d3d2d6;}.cls-4{fill:#179bd7;}.cls-5{fill:#253b80;}.cls-6{fill:#222d65;}</style><linearGradient id="Dégradé_sans_nom_196" x1="910.87" y1="-2195.42" x2="913.84" y2="-2192.44" gradientTransform="matrix(6.51, 0, 0, -4.54, -5927.34, -9949.57)" gradientUnits="userSpaceOnUse"><stop offset="0" stop-color="#fff"/><stop offset="0.4" stop-color="#f9f9f9"/><stop offset="0.93" stop-color="#e9e9e9"/><stop offset="1" stop-color="#e6e6e6"/></linearGradient></defs><title>Payment_Colors_Paypal_24px</title><g id="Square"><rect class="cls-1" width="24" height="24"/></g><g id="Icon"><rect class="cls-2" x="2" y="5" width="20" height="14" rx="1"/><path class="cls-3" d="M21,5.5a.5.5,0,0,1,.5.5V18a.5.5,0,0,1-.5.5H3a.5.5,0,0,1-.5-.5V6A.5.5,0,0,1,3,5.5H21M21,5H3A1,1,0,0,0,2,6V18a1,1,0,0,0,1,1H21a1,1,0,0,0,1-1V6a1,1,0,0,0-1-1Z"/><path class="cls-4" d="M13.37,14.43h-.62a.09.09,0,0,0-.08.08l-.26,1.59a.06.06,0,0,0,.05.06h.32a.06.06,0,0,0,.06-.05l.07-.45a.1.1,0,0,1,.09-.07h.2a.63.63,0,0,0,.7-.59.49.49,0,0,0-.08-.41A.57.57,0,0,0,13.37,14.43Zm.07.59c0,.22-.2.22-.37.22H13l.07-.42a0,0,0,0,1,0,0h0c.11,0,.22,0,.27.06a.18.18,0,0,1,0,.18Z"/><path class="cls-5" d="M8.94,14.43H8.31s-.07,0-.08.08L8,16.1a0,0,0,0,0,0,.06h.3a.09.09,0,0,0,.09-.07l.07-.43a.08.08,0,0,1,.08-.07h.2A.64.64,0,0,0,9.47,15a.49.49,0,0,0-.08-.41A.6.6,0,0,0,8.94,14.43ZM9,15c0,.22-.21.22-.37.22h-.1l.07-.42s0,0,.05,0h0a.4.4,0,0,1,.28.06A.25.25,0,0,1,9,15Z"/><path class="cls-5" d="M10.8,15h-.3a0,0,0,0,0-.05,0l0,.09,0,0a.4.4,0,0,0-.35-.13.68.68,0,0,0-.66.6.52.52,0,0,0,.11.46.48.48,0,0,0,.37.15.55.55,0,0,0,.41-.17v.08s0,.06,0,.06h.28a.08.08,0,0,0,.08-.07l.17-1a.06.06,0,0,0,0-.06Zm-.42.58a.32.32,0,0,1-.34.28.22.22,0,0,1-.25-.2.28.28,0,0,1,0-.09.33.33,0,0,1,.33-.28.22.22,0,0,1,.2.08.27.27,0,0,1,.05.21Z"/><path class="cls-4" d="M15.23,15h-.3a.07.07,0,0,0,0,0v.09l0,0A.41.41,0,0,0,14.5,15a.69.69,0,0,0-.67.6.58.58,0,0,0,.11.46.49.49,0,0,0,.38.15.58.58,0,0,0,.41-.17v.08a0,0,0,0,0,0,.06H15a.08.08,0,0,0,.08-.07l.16-1s0-.05,0-.06Zm-.41.58a.33.33,0,0,1-.34.28.22.22,0,0,1-.2-.08.26.26,0,0,1,0-.21.33.33,0,0,1,.34-.28.23.23,0,0,1,.2.08.3.3,0,0,1,.05.21Z"/><path class="cls-5" d="M12.38,15h-.3a.08.08,0,0,0-.07,0l-.41.61-.18-.59a.08.08,0,0,0-.08-.06H11a0,0,0,0,0,0,.05v0l.33,1-.31.43a.08.08,0,0,0,0,.08h.33a.08.08,0,0,0,.07,0l1-1.44a0,0,0,0,0,0-.07Z"/><path class="cls-4" d="M15.58,14.48l-.25,1.62a0,0,0,0,0,0,.06h.27a.08.08,0,0,0,.08-.07l.25-1.6s0-.05,0-.06h-.29A.06.06,0,0,0,15.58,14.48Z"/><path class="cls-4" d="M14,9.9a.44.44,0,0,1,0,.1,1.71,1.71,0,0,1-1.89,1.48h-.48a.24.24,0,0,0-.23.2l-.24,1.55-.07.45a.12.12,0,0,0,.12.14h.85a.21.21,0,0,0,.2-.18v0l.16-1v-.06a.2.2,0,0,1,.2-.17h.13a1.5,1.5,0,0,0,1.65-1.3,1.1,1.1,0,0,0-.17-1A.84.84,0,0,0,14,9.9Z"/><path class="cls-6" d="M13.78,9.81l-.1,0-.1,0a2.81,2.81,0,0,0-.43,0H11.87l-.08,0a.22.22,0,0,0-.12.16l-.27,1.72v0a.24.24,0,0,1,.23-.2h.48A1.71,1.71,0,0,0,14,10a.44.44,0,0,0,0-.1.75.75,0,0,0-.18-.07Z"/><path class="cls-5" d="M11.67,9.91a.22.22,0,0,1,.12-.16l.08,0h1.28a2.81,2.81,0,0,1,.43,0l.1,0,.1,0,.05,0A.75.75,0,0,1,14,9.9,1.06,1.06,0,0,0,13.79,9a1.65,1.65,0,0,0-1.25-.39H10.91a.24.24,0,0,0-.23.19L10,13.07a.14.14,0,0,0,.14.16h1l.25-1.6Z"/></g></svg>