<svg xmlns="http://www.w3.org/2000/svg" xmlns:xlink="http://www.w3.org/1999/xlink" viewBox="0 0 24 24"><defs><style>.cls-1{fill:none;}.cls-2{fill:url(#Dégradé_sans_nom_208);}.cls-3{fill:#fff;}.cls-4{fill:#ff5f00;}.cls-5{fill:#eb001b;}.cls-6{fill:#f79e1b;}</style><linearGradient id="Dégradé_sans_nom_208" x1="709.22" y1="-2097.85" x2="709.22" y2="-2094.77" gradientTransform="matrix(6.51, 0, 0, -4.54, -4604.96, -9506.33)" gradientUnits="userSpaceOnUse"><stop offset="0" stop-color="#0b0a0c"/><stop offset="0.27" stop-color="#100f12"/><stop offset="0.63" stop-color="#1f1e22"/><stop offset="1" stop-color="#35333a"/></linearGradient></defs><title>Payment_Colors_Mastercard_24px</title><g id="Square"><rect class="cls-1" width="24" height="24"/></g><g id="Icon"><rect class="cls-2" x="2" y="5" width="20" height="14" rx="1"/><path class="cls-3" d="M8.66,15.24l-.1-.06-.13,0H8.36l-.08,0-.06.05a.13.13,0,0,0-.06.07.38.38,0,0,0-.11-.11.29.29,0,0,0-.16,0H7.77l-.06,0s0,0,0,.06v-.1H7.49V16h.17v-.43a.15.15,0,0,1,0-.09.25.25,0,0,1,0-.07l.06,0,.08,0a.21.21,0,0,1,.13,0,.3.3,0,0,1,0,.16V16H8.2v-.44a.29.29,0,0,1,0-.09.25.25,0,0,1,0-.07.15.15,0,0,1,.07,0l.07,0a.19.19,0,0,1,.13,0,.24.24,0,0,1,.05.16V16h.16v-.5a.25.25,0,0,0,0-.12A.3.3,0,0,0,8.66,15.24Z"/><path class="cls-3" d="M9.54,15.27a.27.27,0,0,0-.1-.08.37.37,0,0,0-.15,0l-.15,0a.57.57,0,0,0-.13.08.64.64,0,0,0-.08.14.47.47,0,0,0,0,.17.45.45,0,0,0,0,.16.57.57,0,0,0,.08.13.38.38,0,0,0,.13.09l.15,0a.33.33,0,0,0,.15,0,.22.22,0,0,0,.1-.09V16h.17v-.79H9.54Zm0,.41,0,.08-.08.05-.09,0-.11,0a.19.19,0,0,1-.07-.06.22.22,0,0,1-.05-.08.28.28,0,0,1,0-.09.31.31,0,0,1,0-.1.28.28,0,0,1,.12-.14l.11,0,.09,0a.16.16,0,0,1,.08.06.22.22,0,0,1,0,.08.31.31,0,0,1,0,.1A.38.38,0,0,1,9.54,15.68Z"/><path class="cls-3" d="M10.51,15.57a.37.37,0,0,0-.2-.07l-.08,0h-.06l0,0,0,0s0,0,0,0a.08.08,0,0,1,0-.06.23.23,0,0,1,.11,0h.14l.06,0,.05,0,.07-.14a.35.35,0,0,0-.14-.06l-.18,0-.14,0-.1.05a.16.16,0,0,0-.06.08.18.18,0,0,0,0,.1.19.19,0,0,0,.06.16.37.37,0,0,0,.2.07l.08,0a.2.2,0,0,1,.11,0,.05.05,0,0,1,0,.05.08.08,0,0,1,0,.07.35.35,0,0,1-.14,0h-.15l-.06,0,0,0-.08.13.09,0,.09,0,.09,0h.07l.15,0,.12-.05.07-.08a.43.43,0,0,0,0-.11A.2.2,0,0,0,10.51,15.57Z"/><path class="cls-3" d="M12.12,15.27a.36.36,0,0,0-.12-.08.37.37,0,0,0-.15,0,.45.45,0,0,0-.16,0l-.12.08a.46.46,0,0,0-.08.13.57.57,0,0,0,0,.18.45.45,0,0,0,0,.16.64.64,0,0,0,.08.14.57.57,0,0,0,.13.08.45.45,0,0,0,.16,0L12,16a.51.51,0,0,0,.16-.09l-.09-.12-.11.06-.12,0h-.08l-.07,0-.05-.06a.16.16,0,0,1,0-.09h.58a0,0,0,0,1,0,0v0a.51.51,0,0,0,0-.17A.46.46,0,0,0,12.12,15.27Zm-.48.23a.19.19,0,0,1,0-.07.15.15,0,0,1,.05-.06l0,0h.09a.19.19,0,0,1,.13,0,.27.27,0,0,1,.07.14Z"/><path class="cls-3" d="M14.41,15.27a.39.39,0,0,0-.1-.08l-.15,0-.15,0a.57.57,0,0,0-.13.08.64.64,0,0,0-.08.14.47.47,0,0,0,0,.17.45.45,0,0,0,0,.16.29.29,0,0,0,.08.13A.38.38,0,0,0,14,16l.15,0,.15,0a.28.28,0,0,0,.1-.09V16h.17v-.79h-.17Zm0,.41a.3.3,0,0,1,0,.08l-.08.05-.1,0-.1,0a.19.19,0,0,1-.07-.06.22.22,0,0,1,0-.08.28.28,0,0,1,0-.09.31.31,0,0,1,0-.1.22.22,0,0,1,0-.08.23.23,0,0,1,.17-.08l.1,0a.16.16,0,0,1,.08.06.2.2,0,0,1,0,.08.16.16,0,0,1,0,.1A.2.2,0,0,1,14.4,15.68Z"/><path class="cls-3" d="M11.24,15.81l-.07,0h-.06s0,0,0,0,0,0,0,0a.17.17,0,0,1,0-.07v-.34h.28v-.16H11v-.24h-.17v.24h-.16v.16h.16v.35a.33.33,0,0,0,.07.23.27.27,0,0,0,.21.07l.13,0,.08,0-.06-.14Z"/><path class="cls-3" d="M12.8,15.16a.31.31,0,0,0-.13,0,.28.28,0,0,0-.1.09v-.1h-.15V16h.15v-.44a.19.19,0,0,1,0-.08.16.16,0,0,1,0-.07.07.07,0,0,1,.06,0l.07,0h.07l0,0,.05-.17H12.8Z"/><path class="cls-3" d="M15.2,15.16a.28.28,0,0,0-.13,0,.22.22,0,0,0-.1.09v-.1h-.16V16H15v-.44a.11.11,0,0,1,0-.08.15.15,0,0,1,0-.07s0,0,.06,0l.08,0h.07l0,0,.05-.17H15.2Z"/><path class="cls-3" d="M16,14.86v.41a.27.27,0,0,0-.1-.08.37.37,0,0,0-.15,0l-.15,0a.57.57,0,0,0-.13.08.64.64,0,0,0-.08.14.47.47,0,0,0,0,.17.45.45,0,0,0,0,.16.57.57,0,0,0,.08.13.38.38,0,0,0,.13.09l.15,0a.33.33,0,0,0,.15,0,.22.22,0,0,0,.1-.09V16h.17V14.86Zm0,.82-.05.08-.08.05-.09,0-.11,0a.19.19,0,0,1-.07-.06.22.22,0,0,1,0-.08.28.28,0,0,1,0-.09.31.31,0,0,1,0-.1.22.22,0,0,1,0-.08.19.19,0,0,1,.07-.06l.11,0,.09,0a.16.16,0,0,1,.08.06.22.22,0,0,1,.05.08.31.31,0,0,1,0,.1A.38.38,0,0,1,16,15.68Z"/><path class="cls-3" d="M13.22,15.39a.18.18,0,0,1,.07-.05l.1,0h0l.11,0,.08.05.09-.14-.11-.06a.47.47,0,0,0-.17,0,.51.51,0,0,0-.17,0,.3.3,0,0,0-.13.09.38.38,0,0,0-.09.13.36.36,0,0,0,0,.33.38.38,0,0,0,.09.13.3.3,0,0,0,.13.09.51.51,0,0,0,.17,0,.47.47,0,0,0,.17,0l.11-.06-.09-.14-.08.05-.11,0h0l-.1,0a.18.18,0,0,1-.07-.05.21.21,0,0,1-.06-.08.18.18,0,0,1,0-.1.2.2,0,0,1,0-.11A.16.16,0,0,1,13.22,15.39Z"/><rect class="cls-4" x="10.52" y="9.17" width="2.6" height="4.67"/><path class="cls-5" d="M10.69,11.5a2.94,2.94,0,0,1,1.13-2.33A2.93,2.93,0,0,0,10,8.53a3,3,0,1,0,0,5.94,2.93,2.93,0,0,0,1.83-.64A2.93,2.93,0,0,1,10.69,11.5Z"/><path class="cls-6" d="M16.62,11.5a3,3,0,0,1-3,3,2.91,2.91,0,0,1-1.83-.64A2.94,2.94,0,0,0,13,11.5a3,3,0,0,0-1.13-2.33,2.91,2.91,0,0,1,1.83-.64A3,3,0,0,1,16.62,11.5Z"/></g></svg>