<svg xmlns="http://www.w3.org/2000/svg" viewBox="0 0 24 24"><defs><style>.cls-1{fill:none;}.cls-2{fill:#81bc00;}.cls-3{fill:#fff;}</style></defs><title>Payment_Colors_OneyX3_24px</title><g id="Square"><rect class="cls-1" width="24" height="24"/></g><g id="Icon"><circle class="cls-2" cx="12" cy="12" r="7.5"/><path class="cls-3" d="M12,10.39l-1.31,1.83,1.29,1.93H10.66l-.67-1-.61,1H8.16l1.25-1.87L8.16,10.39H9.44l.65,1,.65-1Z"/><path class="cls-3" d="M14.12,14.24a2.08,2.08,0,0,1-1.21-.33,1.59,1.59,0,0,1-.64-.9l1-.29a.8.8,0,0,0,.32.42,1,1,0,0,0,.54.15.71.71,0,0,0,.48-.16.53.53,0,0,0,.2-.44.5.5,0,0,0-.21-.43.91.91,0,0,0-.54-.15H13.5v-.87H14a.84.84,0,0,0,.51-.13.5.5,0,0,0,.17-.44.44.44,0,0,0-.17-.38.59.59,0,0,0-.42-.14.65.65,0,0,0-.67.52l-1-.29a1.46,1.46,0,0,1,.2-.44,1.72,1.72,0,0,1,.34-.38,1.7,1.7,0,0,1,.52-.27,2.35,2.35,0,0,1,.67-.1,2,2,0,0,1,1.23.36,1.16,1.16,0,0,1,.48,1,1.18,1.18,0,0,1-.17.65,1,1,0,0,1-.48.38h0a1,1,0,0,1,.52.41,1.27,1.27,0,0,1,.21.74,1.41,1.41,0,0,1-.49,1.11A2,2,0,0,1,14.12,14.24Z"/></g></svg>