<svg xmlns="http://www.w3.org/2000/svg" xmlns:xlink="http://www.w3.org/1999/xlink" viewBox="0 0 24 24"><defs><style>.cls-1{fill:none;}.cls-2{fill:url(#Dégradé_sans_nom_16);}.cls-3{fill:#b7eef5;}.cls-4{fill:#84dbeb;}.cls-5{fill:#25a8d0;}</style><linearGradient id="Dégradé_sans_nom_16" x1="2.32" y1="18.78" x2="21.68" y2="5.22" gradientUnits="userSpaceOnUse"><stop offset="0" stop-color="#fff"/><stop offset="0.53" stop-color="#f1fdfe"/><stop offset="1" stop-color="#ecfcfd"/></linearGradient></defs><title>Payment_Colors_Cheque_24px</title><g id="Square"><rect class="cls-1" width="24" height="24"/></g><g id="Icon"><rect class="cls-2" x="2" y="5" width="20" height="14" rx="1"/><path class="cls-3" d="M21,5.5a.5.5,0,0,1,.5.5V18a.5.5,0,0,1-.5.5H3a.5.5,0,0,1-.5-.5V6A.5.5,0,0,1,3,5.5H21M21,5H3A1,1,0,0,0,2,6V18a1,1,0,0,0,1,1H21a1,1,0,0,0,1-1V6a1,1,0,0,0-1-1Z"/><path class="cls-4" d="M18.5,10H12.21l1-1H18.5a.5.5,0,0,0,0-1H14.21l.14-.15a.49.49,0,0,0-.7-.7L12.79,8H5.5a.5.5,0,0,0,0,1h6.29l-1,1H5.5a.5.5,0,0,0,0,1H9.79l-.14.15a.48.48,0,0,0,0,.7.48.48,0,0,0,.7,0l.86-.85H18.5a.5.5,0,0,0,0-1Z"/><rect class="cls-3" x="5" y="13" width="6" height="4" rx="0.5"/><path class="cls-5" d="M13,17l-.13,0a.5.5,0,0,1-.35-.61c.4-1.54,1.1-3.37,2.07-3.37.7,0,1.25.94,1.66,2,.58-1.18.92-1.18,1.13-1.18s.7,0,1.54,2.14h.58a.5.5,0,0,1,0,1h-.93a.51.51,0,0,1-.47-.33,12.16,12.16,0,0,0-.72-1.6,10.87,10.87,0,0,0-.73,1.6.48.48,0,0,1-.49.33.5.5,0,0,1-.46-.37A7.44,7.44,0,0,0,14.59,14a7.44,7.44,0,0,0-1.11,2.6A.5.5,0,0,1,13,17Z"/></g></svg>