<svg width="24" height="24" viewBox="0 0 24 24" fill="none" xmlns="http://www.w3.org/2000/svg">
  <g id="Square"> </g>
  <g id="Icon">
<path fill-rule="evenodd" clip-rule="evenodd" d="M19.4201 11.9976C19.4201 16.0971 16.0968 19.4203 11.9974 19.4203C7.89795 19.4203 4.57471 16.0971 4.57471 11.9976C4.57471 7.8982 7.89795 4.57495 11.9974 4.57495C16.0968 4.57495 19.4201 7.8982 19.4201 11.9976ZM11.406 14.2315H10.3463V13.179H8.19092V12.2852L9.43801 9.22148H10.613L9.40197 12.2203H10.3463V11.139H11.406V12.2203H11.9394V13.179H11.406V14.2315ZM16.1744 10.4041L14.8779 12.2128L16.1522 14.1253H14.8854L14.2247 13.1356L13.6235 14.1253H12.4111L13.6482 12.2746L12.4111 10.4041H13.6804L14.3237 11.374L14.9769 10.4041H16.1744Z" fill="#81BC00"/>
</g>
</svg>
