<svg xmlns="http://www.w3.org/2000/svg" viewBox="0 0 24 24"><defs><style>.cls-1{fill:none;}.cls-2{fill:#16d6ff;}.cls-3{fill:#fff;}</style></defs><title>Payment_Colors_Paylib_24px</title><g id="Square"><rect class="cls-1" width="24" height="24"/></g><g id="Icon"><rect class="cls-2" x="2" y="5" width="20" height="14" rx="1"/><path class="cls-3" d="M17.06,13.2v-.1h0v0h.1v0h0v.1Zm.19,0v-.08l0,.07h0l0-.07v.08h0v-.12h.05l0,.08,0-.08h0v.12Z"/><path class="cls-3" d="M6,11h.43v.14h0A1,1,0,0,1,6.91,11a1.62,1.62,0,0,1,.49,0,.65.65,0,0,1,.5.54,2.29,2.29,0,0,1,0,.73,1.84,1.84,0,0,1-.05.41.69.69,0,0,1-.61.53,3.44,3.44,0,0,1-.56,0v-.44h.19l.24,0a.28.28,0,0,0,.23-.21,2,2,0,0,0,0-.24,3.11,3.11,0,0,0,0-.61l0-.11a.28.28,0,0,0-.22-.2,1.21,1.21,0,0,0-.38,0,.31.31,0,0,0-.24.31.86.86,0,0,0,0,.16V14H6.05s0,0,0,0V11Z"/><path class="cls-3" d="M15.42,9.6v2.81a1.24,1.24,0,0,0,0,.33.56.56,0,0,0,.44.43,1.64,1.64,0,0,0,.88,0,.72.72,0,0,0,.54-.57,2.55,2.55,0,0,0,0-1,.69.69,0,0,0-.64-.57,4.47,4.47,0,0,0-.52,0h0v.43h.36a.32.32,0,0,1,.32.29,2.55,2.55,0,0,1,0,.78.3.3,0,0,1-.32.29h-.3c-.16,0-.23-.12-.25-.29V9.66a2.58,2.58,0,0,1,1.76,1.39,2.54,2.54,0,0,1-.24,2.77,2.6,2.6,0,0,1-2.38,1.07V11.78h-.55v3a2.6,2.6,0,0,1-1.72-1.72,2.68,2.68,0,0,1,.47-2.51h0v2a.86.86,0,0,0,0,.23.4.4,0,0,0,.34.36,2,2,0,0,0,.55,0v-.45h-.28c-.07,0-.09,0-.1-.1V10.13a.09.09,0,0,1,.05-.1,2.67,2.67,0,0,1,1.5-.43Zm-.92,1.68c0,.16.07.27.21.29a.32.32,0,0,0,.17,0,.25.25,0,0,0,.24-.24v-.1A.28.28,0,0,0,14.9,11h-.13a.26.26,0,0,0-.27.29Z"/><path class="cls-3" d="M10.39,11h.52v1.43a1.09,1.09,0,0,0,0,.18.19.19,0,0,0,.14.15.79.79,0,0,0,.48,0,.21.21,0,0,0,.15-.2.76.76,0,0,0,0-.15V11h.51a.43.43,0,0,1,0,0c0,.79,0,1.58,0,2.38a1,1,0,0,1,0,.24.41.41,0,0,1-.31.31,5,5,0,0,1-.55,0v-.43h.28a.1.1,0,0,0,.09-.08v-.29l-.36,0a1.49,1.49,0,0,1-.52-.07.61.61,0,0,1-.42-.56,1.93,1.93,0,0,1,0-.24V11Z"/><path class="cls-3" d="M10.1,11v2.24H9.58V13.1l-.19.08a1.32,1.32,0,0,1-.71,0,.65.65,0,0,1-.47-.54,2,2,0,0,1-.05-.34,3.68,3.68,0,0,1,0-.74A.7.7,0,0,1,8.89,11a1.78,1.78,0,0,1,.46,0,.89.89,0,0,1,.31.15V11Zm-.52,1.09h0a1.08,1.08,0,0,0,0-.18,1.08,1.08,0,0,0,0-.18.3.3,0,0,0-.28-.32H9a.28.28,0,0,0-.27.22.53.53,0,0,0,0,.12c0,.2,0,.4,0,.6a1.09,1.09,0,0,0,0,.25.27.27,0,0,0,.23.2,1.51,1.51,0,0,0,.3,0,.33.33,0,0,0,.32-.37Z"/></g></svg>