<svg xmlns="http://www.w3.org/2000/svg" viewBox="0 0 48 48"><defs><style>.a{fill:none;}.b{fill:#999;}</style></defs><title>Media-Sound-48px</title><rect class="a" width="48" height="48"/><path class="b" d="M22.9,7a2.1,2.1,0,0,0-1.5.7L11,15.9H7A2,2,0,0,0,5,18V30a2,2,0,0,0,2,2.1h4l10.4,8.2a2.1,2.1,0,0,0,1.5.7,2,2,0,0,0,2-2V9A2,2,0,0,0,22.9,7Zm-1,29.9-9.1-7.2a3,3,0,0,0-1.8-.6H8V18.9h3a3,3,0,0,0,1.8-.6l9.1-7.2Z"/><path class="b" d="M29.4,9a.9.9,0,0,0-1,1,.9.9,0,0,0,1,1c8,0,11.6,6.5,11.6,13S37.4,37,29.4,37a1,1,0,0,0,0,2C38.7,39,43,31.2,43,24S38.7,9,29.4,9Z"/><path class="b" d="M29.4,30a1,1,0,0,0,0,2c5,0,7.3-4.1,7.3-8s-2.3-8-7.3-8a1,1,0,0,0,0,2c3.9,0,5.3,3.2,5.3,6S33.3,30,29.4,30Z"/></svg>