<svg xmlns="http://www.w3.org/2000/svg" viewBox="0 0 48 48"><defs><style>.cls-1{fill:none;}.cls-2{fill:#999;}</style></defs><title>Media_BookStore_48px</title><g id="Square"><rect class="cls-1" width="48" height="48"/></g><g id="Icon"><path class="cls-2" d="M42,8,24,12,6,8a2,2,0,0,0-2,2V34a2,2,0,0,0,2,2l18,4,18-4a2,2,0,0,0,2-2V10A2,2,0,0,0,42,8ZM7,11.3l16,3.55V36.7L7,33.15ZM41,33.15,25,36.7V14.85L41,11.3Z"/><path class="cls-2" d="M29,20a1,1,0,0,0,.24,0l8-2A1,1,0,1,0,36.76,16l-8,2A1,1,0,0,0,29,20Z"/><path class="cls-2" d="M29,26a1,1,0,0,0,.24,0l8-2A1,1,0,1,0,36.76,22l-8,2A1,1,0,0,0,29,26Z"/><path class="cls-2" d="M10.76,18l8,2A1,1,0,0,0,20,19.24,1,1,0,0,0,19.24,18l-8-2A1,1,0,0,0,10.76,18Z"/><path class="cls-2" d="M19.24,24l-8-2A1,1,0,0,0,10.76,24l8,2A1,1,0,0,0,20,25.24,1,1,0,0,0,19.24,24Z"/><path class="cls-2" d="M19.24,30l-8-2A1,1,0,1,0,10.76,30l8,2A1,1,0,0,0,20,31.24,1,1,0,0,0,19.24,30Z"/><path class="cls-2" d="M34.76,28.53l-6,1.5A1,1,0,0,0,29,32a1,1,0,0,0,.24,0l6-1.5a1,1,0,1,0-.48-1.94Z"/></g></svg>