<svg xmlns="http://www.w3.org/2000/svg" viewBox="0 0 48 48"><defs><style>.a{fill:none;}.b{fill:#999;}</style></defs><title>Media-FullScreen-48px</title><rect class="a" width="48" height="48"/><path class="b" d="M11,13V35a2,2,0,0,0,2,2H35a2,2,0,0,0,2-2V13a2,2,0,0,0-2-2H13A2,2,0,0,0,11,13Zm3,1H34V34H14Z"/><path class="b" d="M5.5,16A1.5,1.5,0,0,0,7,14.5V7h7.5A1.5,1.5,0,0,0,16,5.5,1.5,1.5,0,0,0,14.5,4H6A2,2,0,0,0,4,6v8.5A1.5,1.5,0,0,0,5.5,16Z"/><path class="b" d="M33.5,4A1.5,1.5,0,0,0,32,5.5,1.5,1.5,0,0,0,33.5,7H41v7.5a1.5,1.5,0,0,0,3,0V6a2,2,0,0,0-2-2Z"/><path class="b" d="M14.5,41H7V33.5A1.5,1.5,0,0,0,5.5,32,1.5,1.5,0,0,0,4,33.5V42a2,2,0,0,0,2,2h8.5a1.5,1.5,0,0,0,0-3Z"/><path class="b" d="M42.5,32A1.5,1.5,0,0,0,41,33.5V41H33.5a1.5,1.5,0,0,0,0,3H42a2,2,0,0,0,2-2V33.5A1.5,1.5,0,0,0,42.5,32Z"/></svg>