<svg xmlns="http://www.w3.org/2000/svg" viewBox="0 0 48 48"><defs><style>.a{fill:none;}.b{fill:#999;}</style></defs><title>Media-Print-48px</title><rect class="a" width="48" height="48"/><path class="b" d="M32,17a.9.9,0,0,0,1,1h5a1,1,0,0,0,0-2H33A.9.9,0,0,0,32,17Z"/><path class="b" d="M42,10H38V6a2,2,0,0,0-2-2H12a2,2,0,0,0-2,2v4H6a2,2,0,0,0-2,2V36a2,2,0,0,0,2,2h4v4a2,2,0,0,0,2,2H36a2,2,0,0,0,2-2V38h4a2,2,0,0,0,2-2V12A2,2,0,0,0,42,10ZM13,7H35v3H13ZM35,35v6H13V27H35Zm6,0H38V26.9a1.4,1.4,0,0,0,1-1.4A1.5,1.5,0,0,0,37.5,24h-27A1.5,1.5,0,0,0,9,25.5a1.4,1.4,0,0,0,1,1.4V35H7V13H41Z"/><path class="b" d="M17,32H31a1,1,0,0,0,0-2H17a1,1,0,0,0,0,2Z"/><path class="b" d="M17,38H31a1,1,0,0,0,0-2H17a1,1,0,0,0,0,2Z"/></svg>