<svg xmlns="http://www.w3.org/2000/svg" viewBox="0 0 48 48"><defs><style>.cls-1{fill:none;}.cls-2{fill:#999;}</style></defs><title>Media_Pdf_48px</title><g id="Square"><rect class="cls-1" width="48" height="48"/></g><g id="Icon"><path class="cls-2" d="M19.4,32.23A3.17,3.17,0,0,0,18.17,32H16v6h1.44V36h.71a3,3,0,0,0,1.23-.24,1.9,1.9,0,0,0,.85-.7A1.83,1.83,0,0,0,20.54,34a1.89,1.89,0,0,0-.3-1.07A2.09,2.09,0,0,0,19.4,32.23Zm-.61,2.4a1.1,1.1,0,0,1-.73.23h-.62V33.15h.66a1.08,1.08,0,0,1,.7.21.77.77,0,0,1,.26.63A.78.78,0,0,1,18.79,34.63Z"/><path class="cls-2" d="M23.79,32H21.54v6h2.25a3,3,0,0,0,2.13-.74,3,3,0,0,0,.8-2.26,2.94,2.94,0,0,0-.8-2.27A3,3,0,0,0,23.79,32Zm1,4.44a1.62,1.62,0,0,1-1.17.41H23v-3.7h.65a1.65,1.65,0,0,1,1.17.4A1.93,1.93,0,0,1,25.25,35,1.92,1.92,0,0,1,24.81,36.44Z"/><polygon class="cls-2" points="27.87 38 29.32 38 29.32 35.7 31.54 35.7 31.54 34.59 29.32 34.59 29.32 33.15 32 33.15 32 32 27.87 32 27.87 38"/><path class="cls-2" d="M37.41,11.41,30.59,4.59A2,2,0,0,0,29.17,4H12a2,2,0,0,0-2,2V42a2,2,0,0,0,2,2H36a2,2,0,0,0,2-2V12.83A2,2,0,0,0,37.41,11.41ZM29.5,7.74l4.76,4.76H29.5ZM35,41H13V7H26.5v7A1.5,1.5,0,0,0,28,15.5h7Z"/></g></svg>