<svg xmlns="http://www.w3.org/2000/svg" viewBox="0 0 48 48"><defs><style>.cls-1{fill:none;}.cls-2{fill:#999;}</style></defs><title>Media_TimeRead_48px</title><g id="Square"><rect class="cls-1" width="48" height="48"/></g><g id="Icon"><path class="cls-2" d="M24,14.5A1.5,1.5,0,0,0,22.5,16v7.38l-3.56,3.56a1.49,1.49,0,0,0,0,2.12,1.5,1.5,0,0,0,2.12,0l4-4A1.5,1.5,0,0,0,25.5,24V16A1.5,1.5,0,0,0,24,14.5Z"/><path class="cls-2" d="M24,4A20,20,0,1,0,44,24,20,20,0,0,0,24,4Zm1,37V39a1,1,0,0,0-2,0v2A17,17,0,0,1,7.05,25H9a1,1,0,0,0,0-2H7.05A17,17,0,0,1,23,7.05V9a1,1,0,0,0,2,0V7.05A17,17,0,0,1,41,23H39a1,1,0,0,0,0,2h2A17,17,0,0,1,25,41Z"/></g></svg>