<svg xmlns="http://www.w3.org/2000/svg" viewBox="0 0 48 48"><defs><style>.a{fill:none;}.b{fill:#999;}</style></defs><title>Media-BookStore-48px</title><rect class="a" width="48" height="48"/><path class="b" d="M42,8,24,12,6,8a2,2,0,0,0-2,2V34a2,2,0,0,0,2,2l18,4,18-4a2,2,0,0,0,2-2V10A2,2,0,0,0,42,8ZM7,11.3l16,3.6V36.7L7,33.1ZM41,33.1,25,36.7V14.9l16-3.6Z"/><path class="b" d="M29,20h.2l8-2a1,1,0,1,0-.4-2l-8,2a1,1,0,0,0,.2,2Z"/><path class="b" d="M29,26h.2l8-2a1,1,0,1,0-.4-2l-8,2a1,1,0,0,0,.2,2Z"/><path class="b" d="M10.8,18l8,2H19a1,1,0,0,0,.2-2l-8-2a1,1,0,1,0-.4,2Z"/><path class="b" d="M19.2,24l-8-2a1,1,0,1,0-.4,2l8,2H19a1,1,0,0,0,.2-2Z"/><path class="b" d="M19.2,30l-8-2a1,1,0,0,0-.4,2l8,2H19a1,1,0,0,0,.2-2Z"/><path class="b" d="M34.8,28.5l-6,1.5a1,1,0,0,0,.2,2h.2l6-1.5a1,1,0,1,0-.4-2Z"/></svg>