<svg xmlns="http://www.w3.org/2000/svg" viewBox="0 0 48 48"><defs><style>.cls-1{fill:none;}.cls-2{fill:#999;}</style></defs><title>Media_ReduceScreen_48px</title><g id="Square"><rect class="cls-1" width="48" height="48"/></g><g id="Icon"><g id="Name-2" data-name="Name"><path class="cls-2" d="M14.51,4A1.5,1.5,0,0,0,13,5.49V13H5.51a1.5,1.5,0,1,0,0,3H14a2,2,0,0,0,2-2V5.52A1.5,1.5,0,0,0,14.52,4Z"/><path class="cls-2" d="M44,14.51A1.5,1.5,0,0,0,42.5,13H35V5.51a1.5,1.5,0,1,0-3,0V14a2,2,0,0,0,2,2h8.5A1.51,1.51,0,0,0,44,14.51Z"/><path class="cls-2" d="M4,33.48A1.5,1.5,0,0,0,5.48,35H13v7.5a1.5,1.5,0,0,0,3,0V34a2,2,0,0,0-2-2H5.51A1.5,1.5,0,0,0,4,33.48Z"/><path class="cls-2" d="M42.49,32H34a2,2,0,0,0-2,2v8.5a1.5,1.5,0,0,0,3,0V35h7.5a1.5,1.5,0,0,0,0-3Z"/><path class="cls-2" d="M20,30h8a2,2,0,0,0,2-2V20a2,2,0,0,0-2-2H20a2,2,0,0,0-2,2v8A2,2,0,0,0,20,30Zm1-9h6v6H21Z"/></g></g></svg>