<svg xmlns="http://www.w3.org/2000/svg" viewBox="0 0 48 48"><defs><style>.a{fill:none;}.b{fill:#999;}</style></defs><title>Media-Camera-48px</title><rect class="a" width="48" height="48"/><path class="b" d="M24,35a9,9,0,1,1,9-9A9,9,0,0,1,24,35Zm0-15a6,6,0,1,0,6,6A6,6,0,0,0,24,20Z"/><circle class="b" cx="12" cy="19" r="2"/><path class="b" d="M30.8,10l2.5,2.5A4.7,4.7,0,0,0,36.8,14H41V38H7V14h4.2a4.7,4.7,0,0,0,3.5-1.5L17.2,10H30.8m.4-3H16.8a2,2,0,0,0-1.4.6l-2.8,2.8a2,2,0,0,1-1.4.6H6a2,2,0,0,0-2,2V39a2,2,0,0,0,2,2H42a2,2,0,0,0,2-2V13a2,2,0,0,0-2-2H36.8a2,2,0,0,1-1.4-.6L32.6,7.6A2,2,0,0,0,31.2,7Z"/></svg>