<svg xmlns="http://www.w3.org/2000/svg" viewBox="0 0 48 48"><defs><style>.cls-1{fill:none;}.cls-2{fill:#999;}</style></defs><title>Media_360_48px</title><g id="Square"><rect class="cls-1" width="48" height="48"/></g><g id="Icon"><path class="cls-2" d="M19.19,28a1.5,1.5,0,1,0-2.45,1.72l1.18,1.68C11.58,30.23,7,27.18,7,24c0-2,1.83-4.06,5-5.59V15.16c-4.88,2-8,5.18-8,8.84,0,4.84,5.29,8.88,13.36,10.39l-1.65,1.15a1.5,1.5,0,0,0,.87,2.73,1.56,1.56,0,0,0,.86-.27l4.63-3.25a1.5,1.5,0,0,0,.37-2.09Z"/><path class="cls-2" d="M36,15.16v3.25c3.17,1.53,5,3.6,5,5.59,0,3.47-5.46,6.79-12.69,7.72a1.5,1.5,0,0,0,.19,3h.19C37.85,33.52,44,29.22,44,24,44,20.34,40.88,17.15,36,15.16Z"/><path class="cls-2" d="M16.77,17.54a1.55,1.55,0,0,1-.93-.26,1.39,1.39,0,0,1-.55-.71l-1.71.5a2.72,2.72,0,0,0,1.09,1.54,3.57,3.57,0,0,0,2.08.57A3.37,3.37,0,0,0,19,18.45a2.38,2.38,0,0,0,.85-1.9,2.22,2.22,0,0,0-.36-1.28,1.8,1.8,0,0,0-.9-.69h0a1.67,1.67,0,0,0,.82-.65,2.1,2.1,0,0,0,.29-1.12,2,2,0,0,0-.81-1.66,3.39,3.39,0,0,0-2.11-.62,3.92,3.92,0,0,0-1.16.17,2.63,2.63,0,0,0-.88.47,2.72,2.72,0,0,0-.59.64,2.1,2.1,0,0,0-.33.75l1.78.5a1.15,1.15,0,0,1,1.16-.89,1.12,1.12,0,0,1,.72.24.79.79,0,0,1,.3.65.89.89,0,0,1-.3.76,1.45,1.45,0,0,1-.87.23h-.91v1.49h1a1.57,1.57,0,0,1,.93.25.87.87,0,0,1,.36.74.92.92,0,0,1-.34.75A1.28,1.28,0,0,1,16.77,17.54Z"/><path class="cls-2" d="M27,15.07a2.6,2.6,0,0,0-.61-.91,2.84,2.84,0,0,0-1.93-.74,2.59,2.59,0,0,0-1,.2,2.4,2.4,0,0,0-.82.58,2.85,2.85,0,0,1,.5-1.47,1.29,1.29,0,0,1,1.09-.57,1.25,1.25,0,0,1,.7.18,1.56,1.56,0,0,1,.49.57L27,12.47a2.52,2.52,0,0,0-.92-1.4,2.85,2.85,0,0,0-1.81-.55,3,3,0,0,0-1.32.28,3.17,3.17,0,0,0-1.09.82,3.89,3.89,0,0,0-.75,1.45,6.8,6.8,0,0,0-.28,2.06,4.67,4.67,0,0,0,.86,3,2.91,2.91,0,0,0,2.39,1.08,3.47,3.47,0,0,0,1.36-.25,2.71,2.71,0,0,0,1-.65,2.87,2.87,0,0,0,.58-.92,2.9,2.9,0,0,0,.21-1.09A3.09,3.09,0,0,0,27,15.07ZM25,17.2a1.26,1.26,0,0,1-1.72,0,1.25,1.25,0,0,1-.34-.92,1.29,1.29,0,0,1,.34-.9,1.23,1.23,0,0,1,1.72,0,1.25,1.25,0,0,1,.34.9A1.21,1.21,0,0,1,25,17.2Z"/><path class="cls-2" d="M31.31,19.18a2.79,2.79,0,0,0,2.38-1.12,5.35,5.35,0,0,0,.83-3.22,5.32,5.32,0,0,0-.83-3.21,2.78,2.78,0,0,0-2.38-1.11A2.75,2.75,0,0,0,29,11.63a5.39,5.39,0,0,0-.82,3.21A5.4,5.4,0,0,0,29,18.06,2.73,2.73,0,0,0,31.31,19.18Zm-.94-6.33a1,1,0,0,1,.94-.69,1,1,0,0,1,1,.69,4.71,4.71,0,0,1,.33,2,4.84,4.84,0,0,1-.33,2,1,1,0,0,1-1,.69,1,1,0,0,1-.94-.7,4.79,4.79,0,0,1-.33-2A4.71,4.71,0,0,1,30.37,12.85Z"/><path class="cls-2" d="M37.09,13.75a1.6,1.6,0,0,0,1.61-1.61A1.61,1.61,0,0,0,35.94,11a1.53,1.53,0,0,0-.48,1.14,1.56,1.56,0,0,0,.48,1.14A1.59,1.59,0,0,0,37.09,13.75Zm-.54-2.15a.77.77,0,0,1,.54-.22.75.75,0,0,1,.53.22.76.76,0,0,1,.21.54.72.72,0,0,1-.74.74.76.76,0,0,1-.54-.21.71.71,0,0,1-.22-.53A.73.73,0,0,1,36.55,11.6Z"/></g></svg>