<svg xmlns="http://www.w3.org/2000/svg" viewBox="0 0 48 48"><defs><style>.cls-1{fill:none;}.cls-2{fill:#999;}</style></defs><title>Media_Print_48px</title><g id="Square"><rect class="cls-1" width="48" height="48"/></g><g id="Icon"><path class="cls-2" d="M32,17a1,1,0,0,0,1,1h5a1,1,0,0,0,0-2H33A1,1,0,0,0,32,17Z"/><path class="cls-2" d="M42,10H38V6a2,2,0,0,0-2-2H12a2,2,0,0,0-2,2v4H6a2,2,0,0,0-2,2V36a2,2,0,0,0,2,2h4v4a2,2,0,0,0,2,2H36a2,2,0,0,0,2-2V38h4a2,2,0,0,0,2-2V12A2,2,0,0,0,42,10ZM13,7H35v3H13ZM35,35v6H13V27H35Zm6,0H38V26.91A1.5,1.5,0,0,0,37.5,24h-27a1.5,1.5,0,0,0-.5,2.91V35H7V13H41Z"/><path class="cls-2" d="M17,32H31a1,1,0,0,0,0-2H17a1,1,0,0,0,0,2Z"/><path class="cls-2" d="M17,38H31a1,1,0,0,0,0-2H17a1,1,0,0,0,0,2Z"/></g></svg>