<svg xmlns="http://www.w3.org/2000/svg" viewBox="0 0 48 48"><defs><style>.cls-1{fill:none;}.cls-2{fill:#999;}</style></defs><title>Media_Sound_48px</title><g id="Square"><rect class="cls-1" width="48" height="48"/></g><g id="Icon"><path class="cls-2" d="M22.89,7a1.92,1.92,0,0,0-1.45.66L11,15.93H7a2,2,0,0,0-2,2v12.1a2,2,0,0,0,2,2h4l10.47,8.27a1.92,1.92,0,0,0,1.45.66,2,2,0,0,0,2-2V9A2,2,0,0,0,22.89,7Zm-1,29.88-9.07-7.17A3,3,0,0,0,11,29.07H8V18.93h3a3,3,0,0,0,1.86-.64l9.07-7.17Z"/><path class="cls-2" d="M29.38,9a1,1,0,1,0,0,2C37.41,11,41,17.53,41,24S37.41,37,29.38,37a1,1,0,1,0,0,2C38.74,39,43,31.22,43,24S38.74,9,29.38,9Z"/><path class="cls-2" d="M29.38,30a1,1,0,1,0,0,2c5,0,7.31-4.15,7.31-8s-2.29-8-7.31-8a1,1,0,1,0,0,2c3.92,0,5.31,3.23,5.31,6S33.3,30,29.38,30Z"/></g></svg>