<svg xmlns="http://www.w3.org/2000/svg" viewBox="0 0 48 48"><defs><style>.a{fill:none;}.b{fill:#999;}</style></defs><title>Media-Pdf-48px</title><rect class="a" width="48" height="48"/><path class="b" d="M19.4,32.2,18.2,32H16v6h1.4V36h.8l1.2-.2a2.7,2.7,0,0,0,.8-.7,2.2,2.2,0,0,0,0-2.2A1.9,1.9,0,0,0,19.4,32.2Zm-.6,2.4a.9.9,0,0,1-.7.3h-.7V33.1h.7a.9.9,0,0,1,.7.3.7.7,0,0,1,0,1.2Z"/><path class="b" d="M23.8,32H21.5v6h2.3a2.6,2.6,0,0,0,2.9-3,2.6,2.6,0,0,0-2.9-3Zm1,4.4a1.7,1.7,0,0,1-1.2.5H23V33.1h.6a2.1,2.1,0,0,1,1.2.4,2.1,2.1,0,0,1,.4,1.5C25.2,35.7,25.1,36.2,24.8,36.4Z"/><polygon class="b" points="27.9 38 29.3 38 29.3 35.7 31.5 35.7 31.5 34.6 29.3 34.6 29.3 33.1 32 33.1 32 32 27.9 32 27.9 38"/><path class="b" d="M37.4,11.4,30.6,4.6A2,2,0,0,0,29.2,4H12a2,2,0,0,0-2,2V42a2,2,0,0,0,2,2H36a2,2,0,0,0,2-2V12.8A2,2,0,0,0,37.4,11.4ZM29.5,7.7l4.8,4.8H29.5ZM35,41H13V7H26.5v7A1.5,1.5,0,0,0,28,15.5h7Z"/></svg>