<svg xmlns="http://www.w3.org/2000/svg" viewBox="0 0 48 48"><defs><style>.a{fill:none;}.b{fill:#999;}</style></defs><title>Media-TimeRead-48px</title><rect class="a" width="48" height="48"/><path class="b" d="M24,14.5A1.5,1.5,0,0,0,22.5,16v7.4l-3.6,3.5a1.8,1.8,0,0,0,0,2.2,1.7,1.7,0,0,0,2.2,0l4-4a2.1,2.1,0,0,0,.4-1.1V16A1.5,1.5,0,0,0,24,14.5Z"/><path class="b" d="M24,4A20,20,0,1,0,44,24,20.1,20.1,0,0,0,24,4Zm1,36.9V39a1,1,0,0,0-2,0v1.9A16.9,16.9,0,0,1,7.1,25H9a1,1,0,0,0,0-2H7.1A17,17,0,0,1,23,7V9a1,1,0,0,0,2,0V7A17,17,0,0,1,40.9,23H39a1,1,0,0,0,0,2h1.9A16.9,16.9,0,0,1,25,40.9Z"/></svg>