<svg xmlns="http://www.w3.org/2000/svg" viewBox="0 0 48 48"><defs><style>.cls-1{fill:none;}.cls-2{fill:#999;}</style></defs><title>Media_Project_48px</title><g id="Square"><rect class="cls-1" width="48" height="48"/></g><g id="Icon"><path class="cls-2" d="M38.51,4A6,6,0,0,0,32.2,8.5H6a2,2,0,0,0-2,2V42a2,2,0,0,0,2,2H37.5A6.5,6.5,0,0,0,44,37.5V10.25A6.17,6.17,0,0,0,38.51,4ZM38,7a3,3,0,0,1,3,3V32a6.52,6.52,0,0,0-3.5-1,6.38,6.38,0,0,0-2.5.5V10A3,3,0,0,1,38,7Zm-.5,34H7V11.5H32v23a1.5,1.5,0,0,0,2.7.89A3.5,3.5,0,1,1,37.5,41Z"/><path class="cls-2" d="M26,26a1,1,0,0,0-1,1v2a1,1,0,0,0,2,0V27A1,1,0,0,0,26,26Z"/><path class="cls-2" d="M26,31.5a1,1,0,0,0-1,1v1H24a1,1,0,0,0,0,2h2a1,1,0,0,0,1-1v-2A1,1,0,0,0,26,31.5Z"/><path class="cls-2" d="M15,33.5H14V23.94l5.5-5.08,5.82,5.37a1,1,0,1,0,1.36-1.46l-6.5-6a1,1,0,0,0-1.36,0l-6.5,6a1,1,0,0,0-.32.73v11a1,1,0,0,0,1,1h2a1,1,0,0,0,0-2Z"/><path class="cls-2" d="M20.5,33.5h-2a1,1,0,0,0,0,2h2a1,1,0,0,0,0-2Z"/></g></svg>