<svg xmlns="http://www.w3.org/2000/svg" viewBox="0 0 48 48"><defs><style>.cls-1{fill:none;}.cls-2{fill:#999;}</style></defs><title>Media_Player_48px</title><g id="Square"><rect class="cls-1" width="48" height="48"/></g><g id="Icon"><path class="cls-2" d="M24,7A17,17,0,1,1,7,24,17,17,0,0,1,24,7m0-3A20,20,0,1,0,44,24,20,20,0,0,0,24,4Z"/><path class="cls-2" d="M20.5,18.22,30.5,24l-10,5.78V18.22m-1-3.73a2,2,0,0,0-2,2v15a2,2,0,0,0,2,2,1.93,1.93,0,0,0,1-.27l13-7.51a2,2,0,0,0,0-3.46l-13-7.51a1.93,1.93,0,0,0-1-.27Z"/></g></svg>