<svg xmlns="http://www.w3.org/2000/svg" viewBox="0 0 48 48"><defs><style>.a{fill:none;}.b{fill:#999;}</style></defs><title>Media-Download-48px</title><rect class="a" width="48" height="48"/><path class="b" d="M38.4,28.6a1.6,1.6,0,0,0-1.9,1.1,1.5,1.5,0,0,0,1.1,1.8c.1,0,3.4.9,3.4,3S33.4,41,24,41,7,37.5,7,34.5s3.3-3,3.4-3a1.5,1.5,0,0,0,1.1-1.8,1.6,1.6,0,0,0-1.9-1.1C7.5,29.1,4,31,4,34.5,4,40.4,14.4,44,24,44s20-3.6,20-9.5C44,31,40.5,29.1,38.4,28.6Z"/><path class="b" d="M22.9,31.6a1.6,1.6,0,0,0,2.2,0l6.9-7a1.5,1.5,0,0,0-2.1-2.1l-4.4,4.4V5.5A1.5,1.5,0,0,0,24,4h0a1.5,1.5,0,0,0-1.5,1.5V26.9l-4.4-4.4A1.5,1.5,0,0,0,16,24.6Z"/></svg>