<svg xmlns="http://www.w3.org/2000/svg" viewBox="0 0 48 48"><defs><style>.cls-1{fill:none;}.cls-2{fill:#999;}</style></defs><title>Media_BookStore_48px</title><g id="Square"><rect class="cls-1" width="48" height="48"/></g><g id="Icon"><path class="cls-2" d="M42,4H15a2,2,0,0,0-2,2V24H6a2,2,0,0,0-2,2V38a6,6,0,0,0,6,6l.33,0,.17,0H38a6,6,0,0,0,6-6V6A2,2,0,0,0,42,4ZM7,38V27h6V38a3,3,0,0,1-6,0Zm34,0a3,3,0,0,1-3,3H15.19A6,6,0,0,0,16,38V7H41Z"/><path class="cls-2" d="M20.14,20H36.86a1,1,0,0,0,1-1V11a1,1,0,0,0-1-1H20.14a1,1,0,0,0-1,1v8A1,1,0,0,0,20.14,20Zm1-8H35.86v6H21.14Z"/><path class="cls-2" d="M20,26H37a1,1,0,0,0,0-2H20a1,1,0,0,0,0,2Z"/><path class="cls-2" d="M20,31H37a1,1,0,0,0,0-2H20a1,1,0,0,0,0,2Z"/><path class="cls-2" d="M20,36h9a1,1,0,0,0,0-2H20a1,1,0,0,0,0,2Z"/></g></svg>