<svg xmlns="http://www.w3.org/2000/svg" viewBox="0 0 48 48"><defs><style>.cls-1{fill:none;}.cls-2{fill:#999;}</style></defs><title>Media_Empty_48px</title><g id="Square"><rect class="cls-1" width="48" height="48"/></g><g id="Icon"><path class="cls-2" d="M18.06,13.56,22.5,9.12V32.5a1.5,1.5,0,0,0,3,0V9.12l4.44,4.44a1.5,1.5,0,0,0,2.12,0,1.49,1.49,0,0,0,0-2.12l-7-7a1.63,1.63,0,0,0-.49-.33h0a1.43,1.43,0,0,0-1.1,0h0a1.63,1.63,0,0,0-.49.33l-7,7a1.5,1.5,0,0,0,2.12,2.12Z"/><path class="cls-2" d="M30.21,26.43a1.5,1.5,0,1,0-.42,3C37.07,30.41,41,33,41,35c0,2.51-6.47,6-17,6S7,37.51,7,35c0-2,3.93-4.59,11.21-5.6a1.5,1.5,0,1,0-.42-3C9.29,27.61,4,30.89,4,35c0,5.85,10.3,9,20,9s20-3.15,20-9C44,30.89,38.71,27.61,30.21,26.43Z"/></g></svg>