<svg xmlns="http://www.w3.org/2000/svg" viewBox="0 0 48 48"><defs><style>.cls-1{fill:none;}.cls-2{fill:#999;}</style></defs><title>Navigation_Publish_Edit_48px</title><g id="Square"><rect class="cls-1" width="48" height="48"/></g><g id="Icon"><path class="cls-2" d="M39.5,24A1.5,1.5,0,0,0,38,25.5V38H10V10H22.5a1.5,1.5,0,0,0,0-3H9A2,2,0,0,0,7,9V39a2,2,0,0,0,2,2H39a2,2,0,0,0,2-2V25.5A1.5,1.5,0,0,0,39.5,24Z"/><path class="cls-2" d="M43.41,8.83,39.17,4.59a2,2,0,0,0-2.83,0l-20,20a2,2,0,0,0-.5.84l-1.8,6.05a2,2,0,0,0,2.48,2.48l6.05-1.8a2,2,0,0,0,.84-.5L43.41,11.66A2,2,0,0,0,43.41,8.83ZM17.49,30.51l1-3.28,2.3,2.3Zm5-2.13-2.83-2.83L35,10.15,37.85,13ZM39.27,11.56,36.44,8.73l1.32-1.32,2.83,2.83Z"/></g></svg>