<svg xmlns="http://www.w3.org/2000/svg" viewBox="0 0 48 48"><defs><style>.cls-1{fill:none;}.cls-2{fill:#999;}</style></defs><title>Navigation_Notification_Question_48px</title><g id="Square"><rect class="cls-1" width="48" height="48"/></g><g id="Icon"><path class="cls-2" d="M24,4A20,20,0,1,0,44,24,20,20,0,0,0,24,4Zm0,37A17,17,0,1,1,41,24,17,17,0,0,1,24,41Z"/><path class="cls-2" d="M24,14h0a6,6,0,0,0-6,6,1.5,1.5,0,0,0,3,0,3,3,0,0,1,3-3h0a3.08,3.08,0,0,1,3,3,3,3,0,0,1-1.69,2.7A4.84,4.84,0,0,0,22.5,27v.5a1.5,1.5,0,0,0,3,0V27a1.85,1.85,0,0,1,1.13-1.63A6,6,0,0,0,24,14Z"/><circle class="cls-2" cx="24" cy="32.48" r="1.5"/><path class="cls-2" d="M24,4A20,20,0,1,0,44,24,20,20,0,0,0,24,4Zm0,37A17,17,0,1,1,41,24,17,17,0,0,1,24,41Z"/><path class="cls-2" d="M24,14h0a6,6,0,0,0-6,6,1.5,1.5,0,0,0,3,0,3,3,0,0,1,3-3h0a3.08,3.08,0,0,1,3,3,3,3,0,0,1-1.69,2.7A4.84,4.84,0,0,0,22.5,27v.5a1.5,1.5,0,0,0,3,0V27a1.85,1.85,0,0,1,1.13-1.63A6,6,0,0,0,24,14Z"/><circle class="cls-2" cx="24" cy="32.48" r="1.5"/></g></svg>