<svg xmlns="http://www.w3.org/2000/svg" viewBox="0 0 48 48"><defs><style>.a{fill:none;}.b{fill:#999;}</style></defs><title>Navigation-Publish-Delete-48px</title><rect class="a" width="48" height="48"/><path class="b" d="M35,44H13a1.5,1.5,0,0,1-1.5-1.4l-1-26.5a1.5,1.5,0,1,1,3-.2L14.4,41H33.6l.9-25.1a1.5,1.5,0,1,1,3,.2l-1,26.5A1.5,1.5,0,0,1,35,44Z"/><path class="b" d="M24,37a.9.9,0,0,1-1-1V20a1,1,0,0,1,2,0V36A.9.9,0,0,1,24,37Z"/><path class="b" d="M29,37h0a1,1,0,0,1-1-1l.5-16a.9.9,0,0,1,1-1,1,1,0,0,1,1,1L30,36A1,1,0,0,1,29,37Z"/><path class="b" d="M19,37a1,1,0,0,1-1-1l-.5-16a1,1,0,0,1,2,0L20,36a1,1,0,0,1-1,1Z"/><path class="b" d="M38.5,9H30.7L28.9,4.6A.9.9,0,0,0,28,4H20a.9.9,0,0,0-.9.6L17.3,9H9.5a1.5,1.5,0,0,0,0,3h29a1.5,1.5,0,0,0,0-3ZM20.7,6h6.6l1.2,3h-9Z"/></svg>