<svg xmlns="http://www.w3.org/2000/svg" viewBox="0 0 48 48"><defs><style>.cls-1{fill:none;}.cls-2{fill:#999;}</style></defs><title>Navigation_Notification_Information_48px</title><g id="Square"><rect class="cls-1" width="48" height="48"/></g><g id="Icon"><path class="cls-2" d="M24,32.75a1.5,1.5,0,0,1-1.5-1.5v-9a1.5,1.5,0,0,1,3,0v9A1.5,1.5,0,0,1,24,32.75Z"/><circle class="cls-2" cx="24" cy="16.75" r="1.5"/><path class="cls-2" d="M24,7A17,17,0,1,1,7,24,17,17,0,0,1,24,7m0-3A20,20,0,1,0,44,24,20,20,0,0,0,24,4Z"/></g></svg>