<svg xmlns="http://www.w3.org/2000/svg" viewBox="0 0 48 48"><defs><style>.cls-1{fill:none;}.cls-2{fill:#999;}</style></defs><title>Navigation-Display-Display_Mobile_Vertical-48px</title><g id="Square"><g id="page1"><rect class="cls-1" width="48" height="48"/></g></g><g id="Name"><path class="cls-2" d="M42,4H6A2,2,0,0,0,4,6V21.5a2,2,0,0,0,2,2H42a2,2,0,0,0,2-2V6A2,2,0,0,0,42,4ZM41,20.5H7V7H41Z"/><path class="cls-2" d="M42.5,30H5.5a1.5,1.5,0,0,0,0,3h37a1.5,1.5,0,0,0,0-3Z"/><path class="cls-2" d="M42.5,39H5.5a1.5,1.5,0,0,0,0,3h37a1.5,1.5,0,0,0,0-3Z"/></g></svg>