<svg xmlns="http://www.w3.org/2000/svg" viewBox="0 0 48 48"><defs><style>.cls-1{fill:none;}.cls-2{fill:#999;}</style></defs><title>Navigation_Display_DisplayProductX9_48px</title><g id="Square"><rect class="cls-1" width="48" height="48"/></g><g id="Icon"><path class="cls-2" d="M14,32H6a2,2,0,0,0-2,2v8a2,2,0,0,0,2,2h8a2,2,0,0,0,2-2V34A2,2,0,0,0,14,32Zm-1,9H7V35h6Z"/><path class="cls-2" d="M28,32H20a2,2,0,0,0-2,2v8a2,2,0,0,0,2,2h8a2,2,0,0,0,2-2V34A2,2,0,0,0,28,32Zm-1,9H21V35h6Z"/><path class="cls-2" d="M42,32H34a2,2,0,0,0-2,2v8a2,2,0,0,0,2,2h8a2,2,0,0,0,2-2V34A2,2,0,0,0,42,32Zm-1,9H35V35h6Z"/><path class="cls-2" d="M14,18H6a2,2,0,0,0-2,2v8a2,2,0,0,0,2,2h8a2,2,0,0,0,2-2V20A2,2,0,0,0,14,18Zm-1,9H7V21h6Z"/><path class="cls-2" d="M28,18H20a2,2,0,0,0-2,2v8a2,2,0,0,0,2,2h8a2,2,0,0,0,2-2V20A2,2,0,0,0,28,18Zm-1,9H21V21h6Z"/><path class="cls-2" d="M42,18H34a2,2,0,0,0-2,2v8a2,2,0,0,0,2,2h8a2,2,0,0,0,2-2V20A2,2,0,0,0,42,18Zm-1,9H35V21h6Z"/><path class="cls-2" d="M14,4H6A2,2,0,0,0,4,6v8a2,2,0,0,0,2,2h8a2,2,0,0,0,2-2V6A2,2,0,0,0,14,4Zm-1,9H7V7h6Z"/><path class="cls-2" d="M28,4H20a2,2,0,0,0-2,2v8a2,2,0,0,0,2,2h8a2,2,0,0,0,2-2V6A2,2,0,0,0,28,4Zm-1,9H21V7h6Z"/><path class="cls-2" d="M42,4H34a2,2,0,0,0-2,2v8a2,2,0,0,0,2,2h8a2,2,0,0,0,2-2V6A2,2,0,0,0,42,4Zm-1,9H35V7h6Z"/></g></svg>