<svg xmlns="http://www.w3.org/2000/svg" viewBox="0 0 48 48"><defs><style>.a{fill:none;}.b{fill:#999;}</style></defs><title>Navigation-Display-Filter-48px</title><rect class="a" width="48" height="48"/><path class="b" d="M25.4,24.8V11.5A1.5,1.5,0,0,0,23.9,10h0a1.5,1.5,0,0,0-1.5,1.5V24.8a4.5,4.5,0,0,0,0,8.4v3.3A1.5,1.5,0,0,0,23.9,38h0a1.5,1.5,0,0,0,1.5-1.5V33.2a4.4,4.4,0,0,0,0-8.4ZM24,30.5A1.5,1.5,0,1,1,25.5,29,1.5,1.5,0,0,1,24,30.5Z"/><path class="b" d="M42.5,24a4.4,4.4,0,0,0-3.1-4.2V11.5A1.5,1.5,0,0,0,37.9,10h0a1.5,1.5,0,0,0-1.5,1.5v8.3a4.5,4.5,0,0,0,0,8.4v8.3A1.5,1.5,0,0,0,37.9,38h0a1.5,1.5,0,0,0,1.5-1.5V28.2A4.4,4.4,0,0,0,42.5,24ZM38,25.5A1.5,1.5,0,1,1,39.5,24,1.5,1.5,0,0,1,38,25.5Z"/><path class="b" d="M11.4,15.8V11.5A1.5,1.5,0,0,0,9.9,10h0a1.5,1.5,0,0,0-1.5,1.5v4.3a4.5,4.5,0,0,0,0,8.4V36.5A1.5,1.5,0,0,0,9.9,38h0a1.5,1.5,0,0,0,1.5-1.5V24.2a4.4,4.4,0,0,0,0-8.4ZM10,21.5A1.5,1.5,0,1,1,11.5,20,1.5,1.5,0,0,1,10,21.5Z"/></svg>