<svg xmlns="http://www.w3.org/2000/svg" viewBox="0 0 48 48"><defs><style>.a{fill:none;}.b{fill:#999;}</style></defs><title>Navigation-Publish-Circle_Delete-48px</title><rect class="a" width="48" height="48"/><path class="b" d="M24,4A20,20,0,1,0,44,24,20.1,20.1,0,0,0,24,4Zm0,37A17,17,0,1,1,41,24,17,17,0,0,1,24,41Z"/><path class="b" d="M31.6,16.5a1.6,1.6,0,0,0-2.2,0L24,21.9l-5.4-5.5a1.8,1.8,0,0,0-2.2,0,1.8,1.8,0,0,0,0,2.2L21.9,24l-5.4,5.4a1.6,1.6,0,0,0,0,2.2,1.3,1.3,0,0,0,1,.4,1.5,1.5,0,0,0,1.1-.4L24,26.1l5.4,5.5a1.7,1.7,0,0,0,2.2,0,1.8,1.8,0,0,0,0-2.2L26.1,24l5.5-5.4A1.4,1.4,0,0,0,31.6,16.5Z"/></svg>