<svg xmlns="http://www.w3.org/2000/svg" viewBox="0 0 48 48"><defs><style>.cls-1{fill:none;}.cls-2{fill:#999;}</style></defs><title>Navigation_Display_Home_48px</title><g id="Square"><rect class="cls-1" width="48" height="48"/></g><g id="Icon"><path class="cls-2" d="M24,7l16.6,15.27A1,1,0,0,1,39.94,24H38a1,1,0,0,0-1,1V41H29V32a2,2,0,0,0-2-2H21a2,2,0,0,0-2,2v9H11V25a1,1,0,0,0-1-1H8.07a1,1,0,0,1-.68-1.73L24,7m0-3a3,3,0,0,0-2,.79L5.36,20.06A4,4,0,0,0,8,27V41a3,3,0,0,0,3,3h8a3,3,0,0,0,3-3V33h4v8a3,3,0,0,0,3,3h8a3,3,0,0,0,3-3V27a4,4,0,0,0,2.64-6.94L26,4.79A3,3,0,0,0,24,4Z"/></g></svg>