<svg xmlns="http://www.w3.org/2000/svg" viewBox="0 0 48 48"><defs><style>.cls-1{fill:none;}.cls-2{fill:#999;}</style></defs><title>Navigation_Display_DisplayMobile--Horizontal_48px</title><g id="Square"><rect class="cls-1" width="48" height="48"/></g><g id="Icon"><path class="cls-2" d="M18,4H6A2,2,0,0,0,4,6V18a2,2,0,0,0,2,2H18a2,2,0,0,0,2-2V6A2,2,0,0,0,18,4ZM17,17H7V7H17Z"/><path class="cls-2" d="M27.5,9h15a1.5,1.5,0,0,0,0-3h-15a1.5,1.5,0,0,0,0,3Z"/><path class="cls-2" d="M42.5,15h-15a1.5,1.5,0,0,0,0,3h15a1.5,1.5,0,0,0,0-3Z"/><path class="cls-2" d="M18,28H6a2,2,0,0,0-2,2V42a2,2,0,0,0,2,2H18a2,2,0,0,0,2-2V30A2,2,0,0,0,18,28ZM17,41H7V31H17Z"/><path class="cls-2" d="M42.5,30h-15a1.5,1.5,0,0,0,0,3h15a1.5,1.5,0,0,0,0-3Z"/><path class="cls-2" d="M42.5,39h-15a1.5,1.5,0,0,0,0,3h15a1.5,1.5,0,0,0,0-3Z"/></g></svg>