<svg xmlns="http://www.w3.org/2000/svg" viewBox="0 0 48 48"><defs><style>.cls-1{fill:none;}.cls-2{fill:#999;}</style></defs><title>Navigation_Display_VocalSearch_48px</title><g id="Square"><rect class="cls-1" width="48" height="48"/></g><g id="Icon"><path class="cls-2" d="M36.5,16A1.5,1.5,0,0,0,35,17.5V24a11,11,0,0,1-22,0V17.5a1.5,1.5,0,0,0-3,0V24A14,14,0,0,0,22.5,37.92V41H19a1.5,1.5,0,0,0,0,3H29a1.5,1.5,0,0,0,0-3H25.5V37.92A14,14,0,0,0,38,24V17.5A1.5,1.5,0,0,0,36.5,16Z"/><path class="cls-2" d="M24,32a8,8,0,0,0,8-8V12a8,8,0,0,0-16,0V24A8,8,0,0,0,24,32ZM19,12a5,5,0,0,1,10,0V24a5,5,0,0,1-10,0Z"/></g></svg>