<svg xmlns="http://www.w3.org/2000/svg" viewBox="0 0 48 48"><defs><style>.cls-1{fill:none;}.cls-2{fill:#999;}</style></defs><title>Navigation_Publish_Favorite_48px</title><g id="Square"><rect class="cls-1" width="48" height="48"/></g><g id="Icon"><path class="cls-2" d="M22.55,38.81,8.85,25.11a9.76,9.76,0,0,1-.68-13.24,9.53,9.53,0,0,1,13.92-.48L24,13.27l1.64-1.64A9.75,9.75,0,0,1,38.84,11a9.53,9.53,0,0,1,.48,13.92L25.38,38.81A2,2,0,0,1,22.55,38.81ZM15.35,11.6a6.53,6.53,0,0,0-4.62,11.15L24,36,37.2,22.75A6.53,6.53,0,0,0,28,13.51l-4,4-4-4A6.49,6.49,0,0,0,15.35,11.6Z"/></g></svg>