<svg xmlns="http://www.w3.org/2000/svg" viewBox="0 0 48 48"><defs><style>.a{fill:#999;}</style></defs><title>Navigation-Display-DisplayProductX9-48px</title><path class="a" d="M13,35v6H7V35h6m1-3H6a2,2,0,0,0-2,2v8a2,2,0,0,0,2,2h8a2,2,0,0,0,2-2V34a2,2,0,0,0-2-2Z"/><path class="a" d="M27,35v6H21V35h6m1-3H20a2,2,0,0,0-2,2v8a2,2,0,0,0,2,2h8a2,2,0,0,0,2-2V34a2,2,0,0,0-2-2Z"/><path class="a" d="M41,35v6H35V35h6m1-3H34a2,2,0,0,0-2,2v8a2,2,0,0,0,2,2h8a2,2,0,0,0,2-2V34a2,2,0,0,0-2-2Z"/><path class="a" d="M13,21v6H7V21h6m1-3H6a2,2,0,0,0-2,2v8a2,2,0,0,0,2,2h8a2,2,0,0,0,2-2V20a2,2,0,0,0-2-2Z"/><path class="a" d="M27,21v6H21V21h6m1-3H20a2,2,0,0,0-2,2v8a2,2,0,0,0,2,2h8a2,2,0,0,0,2-2V20a2,2,0,0,0-2-2Z"/><path class="a" d="M41,21v6H35V21h6m1-3H34a2,2,0,0,0-2,2v8a2,2,0,0,0,2,2h8a2,2,0,0,0,2-2V20a2,2,0,0,0-2-2Z"/><path class="a" d="M13,7v6H7V7h6m1-3H6A2,2,0,0,0,4,6v8a2,2,0,0,0,2,2h8a2,2,0,0,0,2-2V6a2,2,0,0,0-2-2Z"/><path class="a" d="M27,7v6H21V7h6m1-3H20a2,2,0,0,0-2,2v8a2,2,0,0,0,2,2h8a2,2,0,0,0,2-2V6a2,2,0,0,0-2-2Z"/><path class="a" d="M41,7v6H35V7h6m1-3H34a2,2,0,0,0-2,2v8a2,2,0,0,0,2,2h8a2,2,0,0,0,2-2V6a2,2,0,0,0-2-2Z"/></svg>