<svg xmlns="http://www.w3.org/2000/svg" viewBox="0 0 48 48"><defs><style>.cls-1{fill:none;}.cls-2{fill:#999;}</style></defs><title>Navigation_Publish_Trashbin_48px</title><g id="Square"><rect class="cls-1" width="48" height="48"/></g><g id="Icon"><path class="cls-2" d="M35,44H13a1.5,1.5,0,0,1-1.5-1.44l-1-26.5a1.5,1.5,0,1,1,3-.12L14.44,41H33.56l.94-25.06a1.5,1.5,0,0,1,3,.12l-1,26.5A1.5,1.5,0,0,1,35,44Z"/><path class="cls-2" d="M24,37a1,1,0,0,1-1-1V20a1,1,0,0,1,2,0V36A1,1,0,0,1,24,37Z"/><path class="cls-2" d="M29,37h0a1,1,0,0,1-1-1l.5-16a1,1,0,0,1,1-1,1,1,0,0,1,1,1L30,36A1,1,0,0,1,29,37Z"/><path class="cls-2" d="M19,37a1,1,0,0,1-1-1l-.5-16a1,1,0,0,1,1-1,1,1,0,0,1,1,1L20,36a1,1,0,0,1-1,1Z"/><path class="cls-2" d="M38.5,9H30.68L28.93,4.63A1,1,0,0,0,28,4H20a1,1,0,0,0-.93.63L17.32,9H9.5a1.5,1.5,0,0,0,0,3h29a1.5,1.5,0,0,0,0-3ZM20.68,6h6.64l1.2,3h-9Z"/></g></svg>