<svg xmlns="http://www.w3.org/2000/svg" viewBox="0 0 48 48"><defs><style>.cls-1{fill:none;}.cls-2{fill:#999;}</style></defs><title>Navigation_Display_ScreenRotation_48px</title><g id="Square"><rect class="cls-1" width="48" height="48"/></g><g id="Icon"><path class="cls-2" d="M15,38H13a1,1,0,0,0,0,2h2a1,1,0,0,0,0-2Z"/><path class="cls-2" d="M41.7,27H24V12a2,2,0,0,0-2-2H6a2,2,0,0,0-2,2V42a2,2,0,0,0,2,2H41.7A2.09,2.09,0,0,0,44,42.21V28.79A2.09,2.09,0,0,0,41.7,27ZM21,13V35H7V13ZM7,41V37H21v4Zm34,0H24V30H41Z"/><path class="cls-2" d="M27.24,6.72a10,10,0,0,1,9.46,9.43l-.92-.93a1,1,0,0,0-1.42,1.41l2.8,2.81a1,1,0,0,0,.71.29h0a1,1,0,0,0,.71-.29l2.8-2.8a1,1,0,0,0,0-1.41,1,1,0,0,0-1.42,0l-1.26,1.27A12,12,0,0,0,27.35,4.72a1,1,0,0,0-1.05,1A1,1,0,0,0,27.24,6.72Z"/></g></svg>