<svg xmlns="http://www.w3.org/2000/svg" viewBox="0 0 48 48"><defs><style>.a{fill:none;}.b{fill:#999;}</style></defs><title>Navigation-Display-DisplayProductX4-48px</title><rect class="a" width="48" height="48"/><path class="b" d="M19.2,7V19.2H7V7H19.2m1-3H6A2,2,0,0,0,4,6V20.2a2,2,0,0,0,2,2H20.2a2,2,0,0,0,2-2V6a2,2,0,0,0-2-2Z"/><path class="b" d="M41,7V19.2H28.8V7H41m1-3H27.8a2,2,0,0,0-2,2V20.2a2,2,0,0,0,2,2H42a2,2,0,0,0,2-2V6a2,2,0,0,0-2-2Z"/><path class="b" d="M19.2,28.8V41H7V28.8H19.2m1-3H6a2,2,0,0,0-2,2V42a2,2,0,0,0,2,2H20.2a2,2,0,0,0,2-2V27.8a2,2,0,0,0-2-2Z"/><path class="b" d="M41,28.8V41H28.8V28.8H41m1-3H27.8a2,2,0,0,0-2,2V42a2,2,0,0,0,2,2H42a2,2,0,0,0,2-2V27.8a2,2,0,0,0-2-2Z"/></svg>