<svg xmlns="http://www.w3.org/2000/svg" viewBox="0 0 48 48"><defs><style>.a{fill:none;}.b{fill:#999;}</style></defs><title>Navigation-Notification-Question-48px</title><rect class="a" width="48" height="48"/><path class="b" d="M24,4A20,20,0,1,0,44,24,20.1,20.1,0,0,0,24,4Zm0,37A17,17,0,1,1,41,24,17,17,0,0,1,24,41Z"/><path class="b" d="M24,14h0a6,6,0,0,0-6,6,1.5,1.5,0,0,0,3,0,3,3,0,0,1,3-3h0a3.1,3.1,0,0,1,3,3,2.8,2.8,0,0,1-1.7,2.7A4.9,4.9,0,0,0,22.5,27v.5a1.5,1.5,0,0,0,3,0V27a1.9,1.9,0,0,1,1.1-1.6A6,6,0,0,0,30,20a5.6,5.6,0,0,0-1.8-4.2A6,6,0,0,0,24,14Z"/><circle class="b" cx="24" cy="32.5" r="1.5"/><path class="b" d="M24,4A20,20,0,1,0,44,24,20.1,20.1,0,0,0,24,4Zm0,37A17,17,0,1,1,41,24,17,17,0,0,1,24,41Z"/><path class="b" d="M24,14h0a6,6,0,0,0-6,6,1.5,1.5,0,0,0,3,0,3,3,0,0,1,3-3h0a3.1,3.1,0,0,1,3,3,2.8,2.8,0,0,1-1.7,2.7A4.9,4.9,0,0,0,22.5,27v.5a1.5,1.5,0,0,0,3,0V27a1.9,1.9,0,0,1,1.1-1.6A6,6,0,0,0,30,20a5.6,5.6,0,0,0-1.8-4.2A6,6,0,0,0,24,14Z"/><circle class="b" cx="24" cy="32.5" r="1.5"/></svg>