<svg xmlns="http://www.w3.org/2000/svg" viewBox="0 0 48 48"><defs><style>.cls-1{fill:none;}.cls-2{fill:#999;}</style></defs><title>Navigation_Display_ExternalLink_48px</title><g id="Square"><rect class="cls-1" width="48" height="48"/></g><g id="Name"><path class="cls-2" d="M42.15,4H25.5a1.5,1.5,0,0,0,0,3H38.88L17.44,28.44a1.49,1.49,0,0,0,0,2.12,1.5,1.5,0,0,0,2.12,0L41,9.12V22.5a1.5,1.5,0,0,0,3,0V5.85A1.85,1.85,0,0,0,42.15,4Z"/><path class="cls-2" d="M37,41H7V11h9V8H6a2,2,0,0,0-2,2V42a2,2,0,0,0,2,2H38a2,2,0,0,0,2-2V32H37Z"/></g></svg>
