<svg xmlns="http://www.w3.org/2000/svg" viewBox="0 0 48 48"><defs><style>.cls-1{fill:none;}.cls-2{fill:#999;}</style></defs><title>Navigation_Display_DisplayProductX4_48px</title><g id="Square"><rect class="cls-1" width="48" height="48"/></g><g id="Icon"><path class="cls-2" d="M19.24,7V19.24H7V7H19.24m1-3H6A2,2,0,0,0,4,6V20.24a2,2,0,0,0,2,2H20.24a2,2,0,0,0,2-2V6a2,2,0,0,0-2-2Z"/><path class="cls-2" d="M41,7V19.24H28.76V7H41m1-3H27.76a2,2,0,0,0-2,2V20.24a2,2,0,0,0,2,2H42a2,2,0,0,0,2-2V6a2,2,0,0,0-2-2Z"/><path class="cls-2" d="M19.24,28.76V41H7V28.76H19.24m1-3H6a2,2,0,0,0-2,2V42a2,2,0,0,0,2,2H20.24a2,2,0,0,0,2-2V27.76a2,2,0,0,0-2-2Z"/><path class="cls-2" d="M41,28.76V41H28.76V28.76H41m1-3H27.76a2,2,0,0,0-2,2V42a2,2,0,0,0,2,2H42a2,2,0,0,0,2-2V27.76a2,2,0,0,0-2-2Z"/></g></svg>