<svg xmlns="http://www.w3.org/2000/svg" viewBox="0 0 48 48"><defs><style>.cls-1{fill:none;}.cls-2{fill:#999;}</style></defs><title>Navigation_Display_Refresh_48px</title><g id="Square"><rect class="cls-1" width="48" height="48"/></g><g id="Name"><path class="cls-2" d="M31,13a1.5,1.5,0,0,0,0,3h9a1.52,1.52,0,0,0,1.06-.44,1.5,1.5,0,0,0,.44-1.06v-9A1.5,1.5,0,0,0,40,4h0a1.5,1.5,0,0,0-1.5,1.5v4.74A19.79,19.79,0,0,0,24,4,20,20,0,1,0,41.14,34.27a1.5,1.5,0,1,0-2.57-1.54A17,17,0,1,1,24,7a16.8,16.8,0,0,1,12.93,6Z"/></g></svg>