<svg xmlns="http://www.w3.org/2000/svg" viewBox="0 0 48 48"><defs><style>.cls-1{fill:none;}.cls-2{fill:#999;}</style></defs><title>Navigation-Display-Display_Mobile_Horizontal-48px</title><g id="Square"><g id="page1"><rect class="cls-1" width="48" height="48"/></g></g><g id="Name"><path class="cls-2" d="M17,7V17H7V7H17m1-3H6A2,2,0,0,0,4,6V18a2,2,0,0,0,2,2H18a2,2,0,0,0,2-2V6a2,2,0,0,0-2-2Z"/><path class="cls-2" d="M42.5,9h-15a1.5,1.5,0,0,1,0-3h15a1.5,1.5,0,0,1,0,3Z"/><path class="cls-2" d="M42.5,18h-15a1.5,1.5,0,0,1,0-3h15a1.5,1.5,0,0,1,0,3Z"/><path class="cls-2" d="M17,31V41H7V31H17m1-3H6a2,2,0,0,0-2,2V42a2,2,0,0,0,2,2H18a2,2,0,0,0,2-2V30a2,2,0,0,0-2-2Z"/><path class="cls-2" d="M42.5,33h-15a1.5,1.5,0,0,1,0-3h15a1.5,1.5,0,0,1,0,3Z"/><path class="cls-2" d="M42.5,42h-15a1.5,1.5,0,0,1,0-3h15a1.5,1.5,0,0,1,0,3Z"/></g></svg>