<svg xmlns="http://www.w3.org/2000/svg" viewBox="0 0 48 48"><defs><style>.a{fill:none;}.b{fill:#999;}</style></defs><title>Navigation-Publish-Edit-48px</title><rect class="a" width="48" height="48"/><path class="b" d="M39.5,24A1.5,1.5,0,0,0,38,25.5V38H10V10H22.5a1.5,1.5,0,0,0,0-3H9A2,2,0,0,0,7,9V39a2,2,0,0,0,2,2H39a2,2,0,0,0,2-2V25.5A1.5,1.5,0,0,0,39.5,24Z"/><path class="b" d="M43.4,8.8,39.2,4.6a2.1,2.1,0,0,0-2.9,0L16.4,24.5a4.1,4.1,0,0,0-.5.9l-1.8,6a2,2,0,0,0,2.5,2.5l6-1.8.9-.5L43.4,11.7A2.1,2.1,0,0,0,43.4,8.8ZM17.5,30.5l1-3.3,2.3,2.3Zm4.9-2.1-2.8-2.8L35,10.1,37.9,13ZM39.3,11.6,36.4,8.7l1.4-1.3,2.8,2.8Z"/></svg>