<svg xmlns="http://www.w3.org/2000/svg" viewBox="0 0 48 48"><defs><style>.cls-1{fill:none;}.cls-2{fill:#999;}</style></defs><title>Payment_Receipt_48px</title><g id="Square"><rect class="cls-1" width="48" height="48"/></g><g id="Icon"><path class="cls-2" d="M16,6V33.5H12a2,2,0,0,0-2,2v4A4.49,4.49,0,0,0,14.5,44h18A5.5,5.5,0,0,0,38,38.5V6a2,2,0,0,0-2-2H18A2,2,0,0,0,16,6ZM14.5,41A1.5,1.5,0,0,1,13,39.5v-3H27v2a5.52,5.52,0,0,0,.6,2.5ZM35,38.5A2.51,2.51,0,0,1,32.24,41,2.61,2.61,0,0,1,30,38.35V35.5a2,2,0,0,0-2-2H19V7H35Z"/><path class="cls-2" d="M21.5,17.4a1,1,0,0,0,1,1h.66a5.78,5.78,0,0,0,9,2,1,1,0,0,0-1.3-1.52,3.76,3.76,0,0,1-5.33-.45h2.6a1,1,0,0,0,0-2H24.67a2.57,2.57,0,0,1-.05-.4,2.57,2.57,0,0,1,.05-.4h3.45a1,1,0,0,0,0-2h-2.6a3.76,3.76,0,0,1,2.88-1.35,3.69,3.69,0,0,1,2.28.77,1,1,0,0,0,1.21-1.6,5.78,5.78,0,0,0-8.73,2.18H22.5a1,1,0,0,0,0,2h.15c0,.13,0,.27,0,.4s0,.27,0,.4H22.5A1,1,0,0,0,21.5,17.4Z"/></g></svg>