<svg xmlns="http://www.w3.org/2000/svg" viewBox="0 0 48 48"><defs><style>.cls-1{fill:none;}.cls-2{fill:#f59e00;}.cls-3{fill:#999;}</style></defs><title>Payment_Monochrome_Mastercard_48px</title><g id="Square"><rect class="cls-1" width="48" height="48"/></g><g id="Icon"><path class="cls-2" d="M35.8,26.22V26h-.09V26H36V26h-.09v.22Zm.46,0V26l-.06.16h-.07L36.07,26v.19H36V26h.1l.07.17.06-.17h.1v.27Z"/><path class="cls-3" d="M16.45,31.14a1,1,0,0,0-.24-.15.79.79,0,0,0-.3,0h-.18l-.18,0a.57.57,0,0,0-.16.11.43.43,0,0,0-.14.16A.78.78,0,0,0,15,31a.67.67,0,0,0-.37-.08h-.15l-.15,0a.42.42,0,0,0-.14.09.49.49,0,0,0-.12.13V31h-.4v1.89h.4v-1a.52.52,0,0,1,0-.21.54.54,0,0,1,.1-.16.38.38,0,0,1,.15-.09.57.57,0,0,1,.18,0,.41.41,0,0,1,.32.12.56.56,0,0,1,.11.37v1h.4v-1a.76.76,0,0,1,0-.21.57.57,0,0,1,.11-.16.38.38,0,0,1,.15-.09.57.57,0,0,1,.18,0,.39.39,0,0,1,.31.12.56.56,0,0,1,.11.37v1h.4V31.68a1,1,0,0,0,0-.3A1,1,0,0,0,16.45,31.14Z"/><path class="cls-3" d="M18.55,31.21a.78.78,0,0,0-.24-.2.71.71,0,0,0-.35-.07.94.94,0,0,0-.37.07,1.21,1.21,0,0,0-.3.2,1.32,1.32,0,0,0-.2.32,1.09,1.09,0,0,0-.07.4,1,1,0,0,0,.07.39,1,1,0,0,0,.2.32,1.21,1.21,0,0,0,.3.2,1,1,0,0,0,.37.08.85.85,0,0,0,.35-.08.52.52,0,0,0,.24-.2v.23H19V31h-.41Zm0,1a.76.76,0,0,1-.12.19.57.57,0,0,1-.18.12.59.59,0,0,1-.23.05.69.69,0,0,1-.24-.05.46.46,0,0,1-.18-.13.52.52,0,0,1-.11-.19.59.59,0,0,1,0-.23.67.67,0,0,1,0-.24.54.54,0,0,1,.29-.32.69.69,0,0,1,.24-.05.59.59,0,0,1,.23.05.46.46,0,0,1,.18.13.62.62,0,0,1,.12.19.74.74,0,0,1,0,.48Z"/><path class="cls-3" d="M20.85,31.92a1,1,0,0,0-.48-.18l-.19,0-.13,0-.09,0-.07-.06a.11.11,0,0,1,0-.08.18.18,0,0,1,.1-.16.48.48,0,0,1,.26-.07l.17,0,.17,0,.14,0,.1.06.18-.32a1,1,0,0,0-.34-.15,1.51,1.51,0,0,0-.42,0,1.24,1.24,0,0,0-.33,0,.9.9,0,0,0-.24.12.49.49,0,0,0-.16.19.7.7,0,0,0,0,.25.44.44,0,0,0,.16.37,1,1,0,0,0,.48.18l.19,0a.55.55,0,0,1,.25.07.16.16,0,0,1,.08.14.19.19,0,0,1-.11.16.6.6,0,0,1-.32.07l-.21,0-.16,0-.14-.06-.11-.08-.19.31.21.13.22.07.21,0h.17a1.47,1.47,0,0,0,.36,0,.68.68,0,0,0,.27-.13.61.61,0,0,0,.17-.19A.53.53,0,0,0,21,32.3.43.43,0,0,0,20.85,31.92Z"/><path class="cls-3" d="M24.7,31.21a.63.63,0,0,0-.28-.2.89.89,0,0,0-.36-.07,1,1,0,0,0-.38.07.69.69,0,0,0-.3.2.89.89,0,0,0-.19.31,1.14,1.14,0,0,0-.07.41,1.09,1.09,0,0,0,.07.4.83.83,0,0,0,.2.32,1.21,1.21,0,0,0,.3.2,1.34,1.34,0,0,0,.39.07,1.4,1.4,0,0,0,.41-.06,1,1,0,0,0,.37-.21l-.21-.29a.94.94,0,0,1-.26.14.67.67,0,0,1-.28.06.63.63,0,0,1-.19,0,.56.56,0,0,1-.17-.09.44.44,0,0,1-.13-.14.57.57,0,0,1-.07-.22h1.39A.22.22,0,0,1,25,32v-.08a1.09,1.09,0,0,0-.07-.4A1,1,0,0,0,24.7,31.21Zm-1.15.55a1.21,1.21,0,0,1,.05-.18.33.33,0,0,1,.11-.15.71.71,0,0,1,.14-.1.64.64,0,0,1,.2,0,.47.47,0,0,1,.32.12.71.71,0,0,1,.16.34Z"/><path class="cls-3" d="M30.16,31.21a.82.82,0,0,0-.25-.2.67.67,0,0,0-.34-.07.94.94,0,0,0-.37.07,1,1,0,0,0-.3.2.83.83,0,0,0-.2.32,1.1,1.1,0,0,0-.08.4,1,1,0,0,0,.08.39.83.83,0,0,0,.2.32.75.75,0,0,0,.3.2,1,1,0,0,0,.37.08.77.77,0,0,0,.34-.08.69.69,0,0,0,.25-.2v.23h.41V31h-.41Zm0,1a.72.72,0,0,1-.11.19.57.57,0,0,1-.18.12.69.69,0,0,1-.24.05.59.59,0,0,1-.23-.05.46.46,0,0,1-.18-.13.45.45,0,0,1-.11-.19.59.59,0,0,1,0-.23.67.67,0,0,1,0-.24.45.45,0,0,1,.11-.19.58.58,0,0,1,.41-.18.69.69,0,0,1,.24.05.46.46,0,0,1,.18.13.45.45,0,0,1,.11.19.74.74,0,0,1,0,.48Z"/><path class="cls-3" d="M22.61,32.49a.41.41,0,0,1-.19,0l-.12,0a.15.15,0,0,1-.09-.06.41.41,0,0,1-.07-.11.88.88,0,0,1,0-.16v-.82h.66V31h-.66v-.57h-.41V31h-.38v.38h.38v.83a.84.84,0,0,0,.17.55.68.68,0,0,0,.5.18.87.87,0,0,0,.32-.06l.18-.08-.14-.35A.31.31,0,0,1,22.61,32.49Z"/><path class="cls-3" d="M26.32,30.94A.81.81,0,0,0,26,31a.63.63,0,0,0-.23.23V31H25.4v1.89h.38v-1a.76.76,0,0,1,0-.21.54.54,0,0,1,.1-.16.28.28,0,0,1,.14-.1.57.57,0,0,1,.18,0h.16l.08,0,.12-.4-.1,0Z"/><path class="cls-3" d="M32,30.94a.81.81,0,0,0-.31.06.63.63,0,0,0-.23.23V31h-.38v1.89h.38v-1a.52.52,0,0,1,0-.21.42.42,0,0,1,.09-.16.28.28,0,0,1,.14-.1.57.57,0,0,1,.18,0h.16l.08,0,.12-.4-.1,0Z"/><path class="cls-3" d="M34,30.22v1a.78.78,0,0,0-.24-.2.71.71,0,0,0-.35-.07A.94.94,0,0,0,33,31a1.21,1.21,0,0,0-.3.2,1.32,1.32,0,0,0-.2.32,1.09,1.09,0,0,0-.07.4,1,1,0,0,0,.07.39,1,1,0,0,0,.2.32,1.21,1.21,0,0,0,.3.2,1,1,0,0,0,.37.08.85.85,0,0,0,.35-.08.52.52,0,0,0,.24-.2v.23h.41V30.22Zm0,2a.76.76,0,0,1-.12.19.57.57,0,0,1-.18.12.59.59,0,0,1-.23.05.69.69,0,0,1-.24-.05.46.46,0,0,1-.18-.13,1.18,1.18,0,0,1-.11-.19.85.85,0,0,1,0-.23,1,1,0,0,1,0-.24A1.18,1.18,0,0,1,33,31.5a.59.59,0,0,1,.18-.13.69.69,0,0,1,.24-.05.59.59,0,0,1,.23.05.46.46,0,0,1,.18.13.62.62,0,0,1,.12.19.74.74,0,0,1,0,.48Z"/><path class="cls-3" d="M27.31,31.49a.57.57,0,0,1,.18-.12.69.69,0,0,1,.24-.05h0a.7.7,0,0,1,.25.05.37.37,0,0,1,.2.12l.2-.33a1.28,1.28,0,0,0-.25-.15,1.09,1.09,0,0,0-.4-.07,1.14,1.14,0,0,0-.41.07,1,1,0,0,0-.32.21,1,1,0,0,0-.21.31,1.1,1.1,0,0,0-.08.4,1,1,0,0,0,.08.39,1,1,0,0,0,.21.31,1,1,0,0,0,.32.21,1.15,1.15,0,0,0,.41.08,1.1,1.1,0,0,0,.4-.08,2,2,0,0,0,.25-.14l-.2-.33a.82.82,0,0,1-.2.12,1.09,1.09,0,0,1-.25,0h0a1,1,0,0,1-.24,0,.59.59,0,0,1-.18-.13.5.5,0,0,1-.13-.19.67.67,0,0,1,0-.24.69.69,0,0,1,0-.25A.5.5,0,0,1,27.31,31.49Z"/><path class="cls-3" d="M21.3,22.18A7.06,7.06,0,0,1,24,16.62a7.1,7.1,0,1,0,0,11.13A7.09,7.09,0,0,1,21.3,22.18Z"/><path class="cls-3" d="M28.4,16.08a6.1,6.1,0,0,1,0,12.2,6,6,0,0,1-2.79-.68,8.07,8.07,0,0,0,0-10.84,6,6,0,0,1,2.79-.68m0-1A7,7,0,0,0,24,16.62a7.09,7.09,0,0,1,1.17,10A6.82,6.82,0,0,1,24,27.75a7.1,7.1,0,1,0,4.4-12.67Z"/><path class="cls-3" d="M42,12V36H6V12H42m0-2H6a2,2,0,0,0-2,2V36a2,2,0,0,0,2,2H42a2,2,0,0,0,2-2V12a2,2,0,0,0-2-2Z"/></g></svg>