<svg xmlns="http://www.w3.org/2000/svg" viewBox="0 0 48 48"><defs><style>.cls-1{fill:none;}.cls-2{fill:#999;}</style></defs><title>Payment_Monochrome_Oney3_48px</title><g id="Square"><rect class="cls-1" width="48" height="48"/></g><g id="Icon"><path class="cls-2" d="M23.94,9a15,15,0,1,0,15,15A15,15,0,0,0,23.94,9Zm-.38,19.31H21l-1.33-2-1.22,2H16l2.5-3.74L16,20.79h2.56l1.3,2,1.3-2H23.6L21,24.45Zm7-.67a3.87,3.87,0,0,1-2.61.85,4.14,4.14,0,0,1-2.42-.66A3.19,3.19,0,0,1,24.22,26l2-.59a1.64,1.64,0,0,0,.64.84,1.89,1.89,0,0,0,1.09.3,1.47,1.47,0,0,0,.95-.32,1.06,1.06,0,0,0,.39-.87,1,1,0,0,0-.42-.86,1.8,1.8,0,0,0-1.07-.3H26.69V22.5h1.06a1.64,1.64,0,0,0,1-.27,1,1,0,0,0,.35-.88,1,1,0,0,0-.35-.77,1.4,1.4,0,0,0-2.19.77l-2.08-.59a2.81,2.81,0,0,1,.38-.87,3.05,3.05,0,0,1,.69-.75,3,3,0,0,1,1-.54A4.16,4.16,0,0,1,28,18.4a4,4,0,0,1,2.46.72,2.29,2.29,0,0,1,.94,1.94,2.35,2.35,0,0,1-.34,1.3,1.83,1.83,0,0,1-1,.75v0a2,2,0,0,1,1,.81,2.49,2.49,0,0,1,.43,1.48A2.75,2.75,0,0,1,30.53,27.64Z"/></g></svg>