<svg id="Calque_1" data-name="Calque 1" xmlns="http://www.w3.org/2000/svg" viewBox="0 0 468 456"><defs><style>.cls-1{fill:#ebebeb;}.cls-2{fill:#78be20;}</style></defs><title>Plan de travail 8</title><ellipse class="cls-1" cx="229.7" cy="401.01" rx="100" ry="8"/><path class="cls-2" d="M121,103h-.86v-.85a2,2,0,0,0-4,0V103h-.86a2,2,0,0,0,0,4h.86v.86a2,2,0,0,0,4,0V107H121a2,2,0,0,0,0-4Z"/><path d="M362.37,126.3a9,9,0,1,1,9-9A9,9,0,0,1,362.37,126.3Zm0-14a5,5,0,1,0,5,5A5,5,0,0,0,362.37,112.3Z"/><path d="M367.87,259.55h-3.5v-3.5a2,2,0,0,0-4,0v3.5h-3.5a2,2,0,0,0,0,4h3.5v3.5a2,2,0,1,0,4,0v-3.5h3.5a2,2,0,0,0,0-4Z"/><path d="M405.12,233.89H395.7v-9.41a2,2,0,1,0-4,0v9.41h-9.41a2,2,0,0,0,0,4h9.41v9.41a2,2,0,0,0,4,0v-9.41h9.42a2,2,0,0,0,0-4Z"/><path class="cls-2" d="M349.12,202.3a5,5,0,1,1,5-5A5,5,0,0,1,349.12,202.3Zm0-6a1,1,0,1,0,1,1A1,1,0,0,0,349.12,196.3Z"/><path d="M104.16,279.45h-3.5V276a2,2,0,0,0-4,0v3.5h-3.5a2,2,0,0,0,0,4h3.5V287a2,2,0,0,0,4,0v-3.5h3.5a2,2,0,1,0,0-4Z"/><path class="cls-2" d="M84.47,202.7a8.5,8.5,0,1,1,8.5-8.5A8.51,8.51,0,0,1,84.47,202.7Zm0-13a4.5,4.5,0,1,0,4.5,4.5A4.51,4.51,0,0,0,84.47,189.7Z"/><path d="M96,222.71a5,5,0,1,1,4.82-6.36,4.9,4.9,0,0,1-.45,3.8h0a4.93,4.93,0,0,1-3,2.37A5.19,5.19,0,0,1,96,222.71Zm0-6a1,1,0,0,0-.27,0,1,1,0,0,0-.6.47A1,1,0,0,0,95,218a1,1,0,0,0,.47.61,1,1,0,0,0,.76.09,1,1,0,0,0,.6-.48h0a.94.94,0,0,0,.09-.76,1,1,0,0,0-.47-.6A1,1,0,0,0,96,216.7Z"/><path d="M186.2,303h-18a4,4,0,0,0-4,4v10a4,4,0,0,0,4,4h18a4,4,0,0,0,4-4V307A4,4,0,0,0,186.2,303Zm0,14h-18V307h18Z"/><path d="M287.2,203h-115a8,8,0,0,0-8,8v64a8,8,0,0,0,8,8h115a8,8,0,0,0,8-8V211A8,8,0,0,0,287.2,203Zm4,72a4,4,0,0,1-4,4h-115a4,4,0,0,1-4-4V211a4,4,0,0,1,4-4h115a4,4,0,0,1,4,4Z"/><path d="M221.2,303h-18a4,4,0,0,0-4,4v10a4,4,0,0,0,4,4h18a4,4,0,0,0,4-4V307A4,4,0,0,0,221.2,303Zm0,14h-18V307h18Z"/><path d="M256.2,303h-18a4,4,0,0,0-4,4v10a4,4,0,0,0,4,4h18a4,4,0,0,0,4-4V307A4,4,0,0,0,256.2,303Zm0,14h-18V307h18Z"/><path d="M291.2,303h-18a4,4,0,0,0-4,4v10a4,4,0,0,0,4,4h18a4,4,0,0,0,4-4V307A4,4,0,0,0,291.2,303Zm0,14h-18V307h18Z"/><path d="M186.2,330h-18a4,4,0,0,0-4,4v10a4,4,0,0,0,4,4h18a4,4,0,0,0,4-4V334A4,4,0,0,0,186.2,330Zm0,14h-18V334h18Z"/><path d="M221.2,330h-18a4,4,0,0,0-4,4v10a4,4,0,0,0,4,4h18a4,4,0,0,0,4-4V334A4,4,0,0,0,221.2,330Zm0,14h-18V334h18Z"/><path d="M256.2,330h-18a4,4,0,0,0-4,4v10a4,4,0,0,0,4,4h18a4,4,0,0,0,4-4V334A4,4,0,0,0,256.2,330Zm0,14h-18V334h18Z"/><path d="M291.2,330h-18a4,4,0,0,0-4,4v37a4,4,0,0,0,4,4h18a4,4,0,0,0,4-4V334A4,4,0,0,0,291.2,330Zm0,41h-18V334h18Z"/><path d="M186.2,357h-18a4,4,0,0,0-4,4v10a4,4,0,0,0,4,4h18a4,4,0,0,0,4-4V361A4,4,0,0,0,186.2,357Zm0,14h-18V361h18Z"/><path d="M221.2,357h-18a4,4,0,0,0-4,4v10a4,4,0,0,0,4,4h18a4,4,0,0,0,4-4V361A4,4,0,0,0,221.2,357Zm0,14h-18V361h18Z"/><path d="M256.2,357h-18a4,4,0,0,0-4,4v10a4,4,0,0,0,4,4h18a4,4,0,0,0,4-4V361A4,4,0,0,0,256.2,357Zm0,14h-18V361h18Z"/><path d="M321.3,154.84a4,4,0,0,0-4-3.83H283.7V95.93A5.87,5.87,0,0,0,281.07,91l-8-5.35a6.08,6.08,0,0,0-6.74,0l-6.63,4.43-6.63-4.43a6.08,6.08,0,0,0-6.74,0l-6.63,4.43-6.63-4.43a6.08,6.08,0,0,0-6.74,0l-6.63,4.43-6.63-4.43a6.08,6.08,0,0,0-6.74,0l-6.63,4.43-6.63-4.43a6.08,6.08,0,0,0-6.74,0l-8,5.35a5.87,5.87,0,0,0-2.63,4.89V151H142.1a4,4,0,0,0-4,3.83c0,.57-2.4,58.13-2.4,120.17s2.38,119.59,2.4,120.17a4,4,0,0,0,4,3.83H317.3a4,4,0,0,0,4-3.83c0-.58,2.4-58.14,2.4-120.17S321.32,155.41,321.3,154.84ZM313.45,159c.09,2.35.22,5.74.36,10H283.7V159ZM179.7,95.93a1.88,1.88,0,0,1,.85-1.56l8-5.35a2.06,2.06,0,0,1,2.3,0l7.7,5.15a2.11,2.11,0,0,0,2.3,0l7.7-5.15a2.06,2.06,0,0,1,2.3,0l7.7,5.15a2.11,2.11,0,0,0,2.3,0l7.7-5.15a2.06,2.06,0,0,1,2.3,0l7.7,5.15a2.11,2.11,0,0,0,2.3,0l7.7-5.15a2.06,2.06,0,0,1,2.3,0l7.7,5.15a2.11,2.11,0,0,0,2.3,0l7.7-5.15a2.06,2.06,0,0,1,2.3,0l8,5.35a1.88,1.88,0,0,1,.85,1.56V169h0v4h0v15.68h-100V95.93Zm-4,63.08v10H145.59c.14-4.24.27-7.63.36-10ZM313.45,391H146c-.53-13.86-2.25-63.31-2.25-116,0-41.09,1.05-80.21,1.76-102H175.7v9.68h0a6,6,0,0,0,0,12h108a6,6,0,0,0,0-12V173h30.24c.71,21.81,1.76,60.93,1.76,102C315.7,327.69,314,377.14,313.45,391Z"/><path d="M232.12,247.65c-8.16,0-14.89,5.21-15.64,12.12a2,2,0,0,0,4,.43c.6-5.56,6.46-8.55,11.66-8.55s11.17,3.06,11.69,8.73a2,2,0,0,0,2,1.82H246a2,2,0,0,0,1.81-2.18C247.14,253,240.41,247.65,232.12,247.65Z"/><path d="M208.9,224.67a2,2,0,0,0-2.82,0l-5.24,5.23-5.23-5.23a2,2,0,1,0-2.83,2.83l5.24,5.23L192.78,238a2,2,0,0,0,0,2.82,2,2,0,0,0,2.83,0l5.23-5.23,5.24,5.23a2,2,0,0,0,2.82,0,2,2,0,0,0,0-2.82l-5.23-5.24,5.23-5.23A2,2,0,0,0,208.9,224.67Z"/><path d="M270.9,224.67a2,2,0,0,0-2.82,0l-5.24,5.23-5.23-5.23a2,2,0,1,0-2.83,2.83l5.24,5.23L254.78,238a2,2,0,0,0,0,2.82,2,2,0,0,0,2.83,0l5.23-5.23,5.24,5.23a2,2,0,0,0,2.82,0,2,2,0,0,0,0-2.82l-5.23-5.24,5.23-5.23A2,2,0,0,0,270.9,224.67Z"/></svg>