<svg xmlns="http://www.w3.org/2000/svg" viewBox="0 0 48 48"><defs><style>.a{fill:none;}.b{fill:#999;}</style></defs><title>Product-List-AddShoppingList-48px</title><rect class="a" width="48" height="48"/><path class="b" d="M25.5,23H17a1,1,0,0,0,0,2h8.5a1,1,0,0,0,0-2Z"/><path class="b" d="M31,23H29.2a1,1,0,0,0,0,2H31a1,1,0,0,0,0-2Z"/><path class="b" d="M25.5,30H17a1,1,0,0,0,0,2h8.5a1,1,0,0,0,0-2Z"/><path class="b" d="M31,30H29.2a1,1,0,0,0,0,2H31a1,1,0,0,0,0-2Z"/><path class="b" d="M41,12a8,8,0,0,0-8-8,7.9,7.9,0,0,0-6.2,3H12a2,2,0,0,0-2,2V39a2,2,0,0,0,2,2H36a2,2,0,0,0,2-2V18.2A7.9,7.9,0,0,0,41,12ZM33,6a6,6,0,1,1-6,6A6,6,0,0,1,33,6Zm2,32H13V10H25.3a6.4,6.4,0,0,0-.3,2,7.7,7.7,0,0,0,1.1,4H17a1,1,0,0,0,0,2H27.7A8.3,8.3,0,0,0,33,20a6.4,6.4,0,0,0,2-.3Z"/><path class="b" d="M30,13h2v2a1,1,0,0,0,2,0V13h2a1,1,0,0,0,0-2H34V9a1,1,0,0,0-2,0v2H30a1,1,0,0,0,0,2Z"/></svg>