<svg xmlns="http://www.w3.org/2000/svg" viewBox="0 0 48 48"><defs><style>.a{fill:none;}.b{fill:#999;}</style></defs><title>Product-List-ShoppingList-48px</title><rect class="a" width="48" height="48"/><path class="b" d="M36,7H12a2,2,0,0,0-2,2V39a2,2,0,0,0,2,2H36a2,2,0,0,0,2-2V9A2,2,0,0,0,36,7ZM35,38H13V10H35Z"/><path class="b" d="M17,18H31a1,1,0,0,0,0-2H17a1,1,0,0,0,0,2Z"/><path class="b" d="M17,25h8.5a1,1,0,0,0,0-2H17a1,1,0,0,0,0,2Z"/><path class="b" d="M31,23H29.2a1,1,0,0,0,0,2H31a1,1,0,0,0,0-2Z"/><path class="b" d="M17,32h8.5a1,1,0,0,0,0-2H17a1,1,0,0,0,0,2Z"/><path class="b" d="M31,30H29.2a1,1,0,0,0,0,2H31a1,1,0,0,0,0-2Z"/></svg>