<svg xmlns="http://www.w3.org/2000/svg" viewBox="0 0 48 48"><defs><style>.a{fill:none;}.b{fill:#999;}</style></defs><title>Product-Promise-RelatedProduct-48px</title><rect class="a" width="48" height="48"/><path class="b" d="M29.5,6.7h0M41,7V18.8L19.2,40.6,7.4,28.9,29.3,7H41m1-3H28.8a2,2,0,0,0-1.4.6L4.6,27.4a2.1,2.1,0,0,0,0,2.9L17.8,43.4a1.9,1.9,0,0,0,2.8,0L43.4,20.6a2,2,0,0,0,.6-1.4V6a2,2,0,0,0-2-2Z"/><path class="b" d="M32.1,14.6a1.5,1.5,0,0,1,1.5,1.5,1.5,1.5,0,0,1-1.5,1.5,1.5,1.5,0,0,1-1.5-1.5,1.4,1.4,0,0,1,1.5-1.5m0-2a3.4,3.4,0,0,0-3.5,3.5,3.5,3.5,0,0,0,3.5,3.5,3.5,3.5,0,0,0,3.5-3.5,3.5,3.5,0,0,0-3.5-3.5Z"/></svg>