<svg xmlns="http://www.w3.org/2000/svg" viewBox="0 0 48 48"><defs><style>.cls-1{fill:none;}.cls-2{fill:#999;}</style></defs><title>Product_Aspect_Weight_48px</title><g id="Square"><rect class="cls-1" width="48" height="48"/></g><g id="Icon"><path class="cls-2" d="M40.37,41H7.63a2,2,0,0,1-1.95-2.44l4.77-21a2,2,0,0,1,2-1.56h4.89A7.11,7.11,0,0,1,17,14a6.94,6.94,0,0,1,2.59-5.43,7.05,7.05,0,0,1,6.46-1.28,6.9,6.9,0,0,1,4.61,4.5A7.28,7.28,0,0,1,30.71,16H35.6a2,2,0,0,1,1.95,1.56l4.77,21A2,2,0,0,1,40.37,41ZM8.88,38H39.12L34.8,19H28.24a1.5,1.5,0,0,1-1.15-2.46h0a4,4,0,0,0,.8-3.52,3.87,3.87,0,0,0-3.05-2.94,4,4,0,0,0-3.92,1.36,3.8,3.8,0,0,0-.86,1.85,4,4,0,0,0,.85,3.25h0A1.5,1.5,0,0,1,19.76,19H13.2Z"/><circle class="cls-2" cx="24" cy="14" r="2"/></g></svg>