<svg xmlns="http://www.w3.org/2000/svg" viewBox="0 0 48 48"><defs><style>.a{fill:none;}.b{fill:#999;}</style></defs><title>Product-Promise-Warranty-48px</title><rect class="a" width="48" height="48"/><path class="b" d="M22.1,29.5a1.4,1.4,0,0,1-1-.4L16,24.4a1.6,1.6,0,0,1-.1-2.2,1.5,1.5,0,0,1,2.1,0l4.1,3.7,7.8-8a1.8,1.8,0,0,1,2.2,0,1.8,1.8,0,0,1,0,2.2l-8.9,9A1.5,1.5,0,0,1,22.1,29.5Z"/><path class="b" d="M24,44a8.8,8.8,0,0,1-6.9-3.3,8.5,8.5,0,0,1-7.2-2.6,8.5,8.5,0,0,1-2.6-7.2,8.9,8.9,0,0,1,0-13.8A8.5,8.5,0,0,1,9.9,9.9a8.5,8.5,0,0,1,7.2-2.6,8.9,8.9,0,0,1,13.8,0,8.5,8.5,0,0,1,7.2,2.6,8.5,8.5,0,0,1,2.6,7.2,8.9,8.9,0,0,1,0,13.8,8.5,8.5,0,0,1-2.6,7.2,8.5,8.5,0,0,1-7.2,2.6A8.8,8.8,0,0,1,24,44Zm-6.7-6.3a2.3,2.3,0,0,1,2,1,6,6,0,0,0,9.4,0,2.3,2.3,0,0,1,2.3-1A6,6,0,0,0,37.7,31a2.3,2.3,0,0,1,1-2.3,6,6,0,0,0,0-9.4,2.3,2.3,0,0,1-1-2.3A6,6,0,0,0,31,10.3a2.1,2.1,0,0,1-2.3-1,6,6,0,0,0-9.4,0,2.3,2.3,0,0,1-2.3,1A6,6,0,0,0,10.3,17a2.3,2.3,0,0,1-1,2.3,6,6,0,0,0,0,9.4,2.3,2.3,0,0,1,1,2.3A6,6,0,0,0,17,37.7Z"/></svg>