<svg xmlns="http://www.w3.org/2000/svg" viewBox="0 0 48 48"><defs><style>.a{fill:none;}.b{fill:#999;}</style></defs><title>Product-Aspect-Weight-48px</title><rect class="a" width="48" height="48"/><path class="b" d="M40.4,41H7.6a1.9,1.9,0,0,1-1.9-2.4l4.7-21a2.1,2.1,0,0,1,2-1.6h4.9a6.4,6.4,0,0,1-.3-2,6.7,6.7,0,0,1,2.6-5.4,7,7,0,0,1,11.1,3.2,7.5,7.5,0,0,1,0,4.2h4.9a2.1,2.1,0,0,1,2,1.6l4.7,21A1.9,1.9,0,0,1,40.4,41ZM8.9,38H39.1L34.8,19H28.2a1.5,1.5,0,0,1-1.1-2.5h0a3.9,3.9,0,0,0,.8-3.5,3.9,3.9,0,0,0-3.1-2.9,4.1,4.1,0,0,0-3.9,1.3,4.6,4.6,0,0,0-.8,1.9,4,4,0,0,0,.8,3.2h0A1.5,1.5,0,0,1,19.8,19H13.2Z"/><circle class="b" cx="24" cy="14" r="2"/></svg>