<svg xmlns="http://www.w3.org/2000/svg" viewBox="0 0 48 48"><defs><style>.cls-1{fill:none;}.cls-2{fill:#999;}</style></defs><title>Product_List_Standard_48px</title><g id="Square"><rect class="cls-1" width="48" height="48"/></g><g id="Icon"><path class="cls-2" d="M36,7H12a2,2,0,0,0-2,2V39a2,2,0,0,0,2,2H36a2,2,0,0,0,2-2V9A2,2,0,0,0,36,7ZM35,38H13V10H35Z"/><path class="cls-2" d="M17,18H31a1,1,0,0,0,0-2H17a1,1,0,0,0,0,2Z"/><path class="cls-2" d="M17,25h8.54a1,1,0,0,0,0-2H17a1,1,0,0,0,0,2Z"/><path class="cls-2" d="M31,23H29.17a1,1,0,0,0,0,2H31a1,1,0,0,0,0-2Z"/><path class="cls-2" d="M17,32h8.54a1,1,0,0,0,0-2H17a1,1,0,0,0,0,2Z"/><path class="cls-2" d="M31,30H29.17a1,1,0,0,0,0,2H31a1,1,0,0,0,0-2Z"/></g></svg>