<svg xmlns="http://www.w3.org/2000/svg" viewBox="0 0 48 48"><defs><style>.cls-1{fill:none;}.cls-2{fill:#999;}</style></defs><title>Product_Basket_Basket--Add_48px</title><g id="Square"><rect class="cls-1" width="48" height="48"/></g><g id="Icon"><path class="cls-2" d="M19,35a4.5,4.5,0,1,0,4.5,4.5A4.49,4.49,0,0,0,19,35Zm0,6a1.5,1.5,0,1,1,1.5-1.5A1.5,1.5,0,0,1,19,41Z"/><path class="cls-2" d="M32,35a4.5,4.5,0,1,0,4.5,4.5A4.49,4.49,0,0,0,32,35Zm0,6a1.5,1.5,0,1,1,1.5-1.5A1.5,1.5,0,0,1,32,41Z"/><path class="cls-2" d="M44,13a8,8,0,1,0-16,0H12.83L11.6,8.47A2,2,0,0,0,9.67,7H5.55a1.5,1.5,0,0,0,0,3H8.9l5.6,20.53A2,2,0,0,0,16.43,32H34.69a2,2,0,0,0,1.89-1.35l3.78-11A8,8,0,0,0,44,13ZM36,7a6,6,0,1,1-6,6A6,6,0,0,1,36,7ZM34,29H17.2L13.65,16H28.54A8,8,0,0,0,36,21a6.85,6.85,0,0,0,.79,0Z"/><path class="cls-2" d="M33,14h2v2a1,1,0,0,0,2,0V14h2a1,1,0,0,0,0-2H37V10a1,1,0,0,0-2,0v2H33a1,1,0,0,0,0,2Z"/></g></svg>