<svg xmlns="http://www.w3.org/2000/svg" viewBox="0 0 48 48"><defs><style>.cls-1{fill:none;}.cls-2{fill:#999;}</style></defs><title>Product_Aspect_Size_48px</title><g id="Square"><rect class="cls-1" width="48" height="48"/></g><g id="Icon"><path class="cls-2" d="M11.5,36h-3V10.5a2,2,0,0,1,2-2H35v3H11.5Z"/><path class="cls-2" d="M10,37.25a1.51,1.51,0,0,1-1.06-.44l-4.5-4.5a1.5,1.5,0,1,1,2.12-2.12L10,33.63l3.44-3.44a1.5,1.5,0,1,1,2.12,2.12l-4.5,4.5A1.51,1.51,0,0,1,10,37.25Z"/><path class="cls-2" d="M31.75,16a1.51,1.51,0,0,1-1.06-.44,1.49,1.49,0,0,1,0-2.12L34.13,10,30.69,6.56a1.5,1.5,0,1,1,2.12-2.12l4.5,4.5a1.49,1.49,0,0,1,0,2.12l-4.5,4.5A1.51,1.51,0,0,1,31.75,16Z"/><path class="cls-2" d="M18.5,39.5h-2a1.5,1.5,0,0,1,0-3h2a1.5,1.5,0,0,1,0,3Z"/><path class="cls-2" d="M26.5,39.5h-2a1.5,1.5,0,0,1,0-3h2a1.5,1.5,0,0,1,0,3Z"/><path class="cls-2" d="M38,39.5H32.5a1.5,1.5,0,0,1,0-3H38a1.5,1.5,0,0,1,0,3Z"/><path class="cls-2" d="M38,20a1.5,1.5,0,0,1-1.5-1.5v-2a1.5,1.5,0,0,1,3,0v2A1.5,1.5,0,0,1,38,20Z"/><path class="cls-2" d="M38,28a1.5,1.5,0,0,1-1.5-1.5v-2a1.5,1.5,0,0,1,3,0v2A1.5,1.5,0,0,1,38,28Z"/><path class="cls-2" d="M38,39.5A1.5,1.5,0,0,1,36.5,38V32.5a1.5,1.5,0,0,1,3,0V38A1.5,1.5,0,0,1,38,39.5Z"/></g></svg>