<svg xmlns="http://www.w3.org/2000/svg" viewBox="0 0 48 48"><defs><style>.cls-1{fill:none;}.cls-2{fill:#999;}</style></defs><title>Product_Promise_MadeInFrance_48px</title><g id="Square"><rect class="cls-1" width="48" height="48"/></g><g id="Icon"><path class="cls-2" d="M37.16,26.9A29.63,29.63,0,0,1,40,22.56C42.27,19.4,43.2,18,43.2,16.84c0-2.15-2.18-3.27-4.7-4.56a27.51,27.51,0,0,1-4-2.32,46.46,46.46,0,0,1-3.6-3C29,5.28,27.78,4.24,26.48,4.24c-2.69,0-6.11,4.18-7.61,6.2-1.14-1-3.32-2.39-5-1.15-1.4,1-1.47,2.88-1.35,4.07-1.84-.28-5.2-.6-6.69.48a2.29,2.29,0,0,0-.93,1.52C4.36,19.1,7,21,9,22.35c1.64,1.15,2.64,1.91,2.67,3.09,0,1.45-1.05,4.21-1.91,6.43-1.19,3.06-1.7,4.46-1.26,5.53h0c.73,1.76,7,4.37,8.24,4.87,2.95,1.19,4.46,1.49,5.3,1.49a2.18,2.18,0,0,0,1-.2,14.62,14.62,0,0,0,3.4-2.64,21.26,21.26,0,0,1,1.82-1.58A25.37,25.37,0,0,1,31,40.42a11.41,11.41,0,0,0,3.78,1.28h0c1.91,0,4.66-2.18,5.25-3.76.36-1,0-2.36-1.59-7C37.93,29.49,37.27,27.54,37.16,26.9ZM34.81,38.7a18.15,18.15,0,0,1-2.65-1c-2.26-1-3.48-1.49-4.44-1.33s-1.78.93-3.35,2.38a17.09,17.09,0,0,1-2.44,2h0c-1.7,0-8.83-3.2-10.54-4.51A34.8,34.8,0,0,1,12.54,33c1-2.59,2.15-5.52,2.12-7.56-.06-2.77-2.21-4.28-3.95-5.5s-2.94-2.14-2.91-3.7a15.41,15.41,0,0,1,4.68.21,2.56,2.56,0,0,0,3.12-2.27,1.5,1.5,0,0,0,0-.47,4.1,4.1,0,0,1,0-1.81,6.24,6.24,0,0,1,1.82,1.25,1.21,1.21,0,0,0,.26.2,2.54,2.54,0,0,0,3-.26,1.86,1.86,0,0,0,.23-.26c2-2.82,4.58-5.4,5.53-5.53a17.3,17.3,0,0,1,2.51,2c1,.92,2.34,2.06,3.81,3.14A31.37,31.37,0,0,0,37.13,15a12.48,12.48,0,0,1,3,1.85,31.08,31.08,0,0,1-2.63,4c-2.48,3.43-3.48,5-3.39,6.22a27.61,27.61,0,0,0,1.42,4.88A46.63,46.63,0,0,1,37.12,37,5.51,5.51,0,0,1,34.81,38.7Z"/></g></svg>