<svg xmlns="http://www.w3.org/2000/svg" viewBox="0 0 48 48"><defs><style>.a{fill:none;}.b{fill:#999;}</style></defs><title>Product-Promise-FairPrice-48px</title><rect class="a" width="48" height="48"/><path class="b" d="M12.7,16.5A1.5,1.5,0,0,0,14.2,18h1.4a9.9,9.9,0,0,0,9.1,6,10.2,10.2,0,0,0,6.5-2.4,1.5,1.5,0,0,0,.2-2.1,1.6,1.6,0,0,0-2.1-.2A7,7,0,0,1,19,18h5.2a1.5,1.5,0,1,0,0-3H17.8c0-.3-.1-.7-.1-1s.1-.7.1-1h6.4a1.5,1.5,0,1,0,0-3H19a7.1,7.1,0,0,1,5.7-3A7.4,7.4,0,0,1,29,8.4a1.5,1.5,0,0,0,2.1-.3A1.6,1.6,0,0,0,30.8,6a10.4,10.4,0,0,0-6.1-2,9.9,9.9,0,0,0-9.1,6H14.2a1.5,1.5,0,0,0,0,3h.6c0,.3-.1.7-.1,1s.1.7.1,1h-.6A1.5,1.5,0,0,0,12.7,16.5Z"/><path class="b" d="M43.6,32.3a4.1,4.1,0,0,0-5.3-2.2L33,32.2A4.1,4.1,0,0,0,29,29H18.9a19.4,19.4,0,0,0-8.3,1.9L7.8,32.3a1.5,1.5,0,0,0-.6,2,1.4,1.4,0,0,0,2,.7l2.7-1.4a17.1,17.1,0,0,1,7-1.6H29a1,1,0,0,1,1,1,.9.9,0,0,1-1,1H23.2a1.5,1.5,0,0,0,0,3H29a4.1,4.1,0,0,0,2.7-1l7.7-3.1a1.2,1.2,0,0,1,1.5.6,1.7,1.7,0,0,1,0,1,1.1,1.1,0,0,1-.7.6L26.5,40.6a3.3,3.3,0,0,1-1.7.4H16.2a1.5,1.5,0,0,0,0,3h8.6a7.2,7.2,0,0,0,2.9-.6l13.7-5.5a4.3,4.3,0,0,0,2.3-2.3A4.2,4.2,0,0,0,43.6,32.3Z"/></svg>