<svg xmlns="http://www.w3.org/2000/svg" viewBox="0 0 48 48"><defs><style>.a{fill:none;}.b{fill:#999;}</style></defs><title>Product-Aspect-Size-48px</title><rect class="a" width="48" height="48"/><path class="b" d="M11.5,36h-3V10.5a2,2,0,0,1,2-2H35v3H11.5Z"/><path class="b" d="M10,37.2a1.5,1.5,0,0,1-1.1-.4L4.4,32.3a1.7,1.7,0,0,1,0-2.1,1.6,1.6,0,0,1,2.2,0L10,33.6l3.4-3.4a1.6,1.6,0,0,1,2.2,0,1.7,1.7,0,0,1,0,2.1l-4.5,4.5A1.5,1.5,0,0,1,10,37.2Z"/><path class="b" d="M31.8,16a1.5,1.5,0,0,1-1.1-.4,1.6,1.6,0,0,1,0-2.2L34.1,10,30.7,6.6a1.6,1.6,0,0,1,0-2.2,1.7,1.7,0,0,1,2.1,0l4.5,4.5a1.6,1.6,0,0,1,0,2.2l-4.5,4.5A1.4,1.4,0,0,1,31.8,16Z"/><path class="b" d="M18.5,39.5h-2a1.5,1.5,0,0,1,0-3h2a1.5,1.5,0,0,1,0,3Z"/><path class="b" d="M26.5,39.5h-2a1.5,1.5,0,0,1,0-3h2a1.5,1.5,0,0,1,0,3Z"/><path class="b" d="M38,39.5H32.5a1.5,1.5,0,0,1,0-3H38a1.5,1.5,0,0,1,0,3Z"/><path class="b" d="M38,20a1.5,1.5,0,0,1-1.5-1.5v-2a1.5,1.5,0,0,1,3,0v2A1.5,1.5,0,0,1,38,20Z"/><path class="b" d="M38,28a1.5,1.5,0,0,1-1.5-1.5v-2a1.5,1.5,0,0,1,3,0v2A1.5,1.5,0,0,1,38,28Z"/><path class="b" d="M38,39.5A1.5,1.5,0,0,1,36.5,38V32.5a1.5,1.5,0,0,1,3,0V38A1.5,1.5,0,0,1,38,39.5Z"/></svg>