<svg xmlns="http://www.w3.org/2000/svg" viewBox="0 0 48 48"><defs><style>.cls-1{fill:none;}.cls-2{fill:#999;}</style></defs><title>Product_Aspect_Weight_48px</title><g id="Square"><rect class="cls-1" width="48" height="48"/></g><g id="Icon"><path class="cls-2" d="M41.89,41.68l-3.84-24a2,2,0,0,0-2-1.68H31.74a8.5,8.5,0,1,0-15.48,0H11.93a2,2,0,0,0-2,1.68l-3.84,24a2,2,0,0,0,2,2.32H39.91a2,2,0,0,0,2-2.32ZM18.5,12.5a5.5,5.5,0,0,1,11,0A5.41,5.41,0,0,1,28.2,16H19.8A5.41,5.41,0,0,1,18.5,12.5ZM9.26,41l3.52-22H35.22l3.52,22Z"/></g></svg>