<svg xmlns="http://www.w3.org/2000/svg" viewBox="0 0 48 48"><defs><style>.a{fill:none;}.b{fill:#999;}</style></defs><title>Product-Promise-Scan-48px</title><rect class="a" width="48" height="48"/><path class="b" d="M5.5,16A1.5,1.5,0,0,1,4,14.5V6A2,2,0,0,1,6,4h8.5A1.5,1.5,0,0,1,16,5.5,1.5,1.5,0,0,1,14.5,7H7v7.5A1.5,1.5,0,0,1,5.5,16Z"/><path class="b" d="M42.5,16A1.5,1.5,0,0,1,41,14.5V7H33.5A1.5,1.5,0,0,1,32,5.5,1.5,1.5,0,0,1,33.5,4H42a2,2,0,0,1,2,2v8.5A1.5,1.5,0,0,1,42.5,16Z"/><path class="b" d="M14.5,44H6a2,2,0,0,1-2-2V33.5A1.5,1.5,0,0,1,5.5,32,1.5,1.5,0,0,1,7,33.5V41h7.5a1.5,1.5,0,0,1,0,3Z"/><path class="b" d="M44,42a2,2,0,0,1-2,2H33.5a1.5,1.5,0,0,1,0-3H41V33.5a1.5,1.5,0,0,1,3,0Z"/><rect class="b" x="17.5" y="16.2" width="1.2" height="16"/><rect class="b" x="25.7" y="16.2" width="1.2" height="16"/><rect class="b" x="34.2" y="16.2" width="1.2" height="16"/><rect class="b" x="12.5" y="16.2" width="3.2" height="16"/><rect class="b" x="20.3" y="16.2" width="3.2" height="16"/><rect class="b" x="29.2" y="16.2" width="3.2" height="16"/></svg>