<svg xmlns="http://www.w3.org/2000/svg" viewBox="0 0 48 48"><defs><style>.a{fill:none;}.b{fill:#999;}</style></defs><title>Product-Cart-Add-48px</title><rect class="a" width="48" height="48"/><path class="b" d="M18.9,35a4.5,4.5,0,1,0,0,9,4.5,4.5,0,0,0,0-9Zm0,6a1.5,1.5,0,0,1,0-3,1.5,1.5,0,0,1,0,3Z"/><path class="b" d="M31.9,35a4.5,4.5,0,0,0,0,9,4.5,4.5,0,1,0,0-9Zm0,6a1.5,1.5,0,0,1,0-3,1.5,1.5,0,1,1,0,3Z"/><path class="b" d="M43.9,13a8,8,0,0,0-16,0H12.8L11.6,8.5A1.9,1.9,0,0,0,9.7,7H5.6a1.5,1.5,0,0,0,0,3H8.9l5.6,20.5A1.9,1.9,0,0,0,16.4,32H34.7a2.1,2.1,0,0,0,1.9-1.3l3.8-11A8.2,8.2,0,0,0,43.9,13Zm-8-6a6,6,0,0,1,0,12,6,6,0,0,1,0-12ZM34,29H17.2L13.7,16H28.5a8.1,8.1,0,0,0,7.4,5h.8Z"/><path class="b" d="M32.9,14h2v2a1,1,0,0,0,1,1,.9.9,0,0,0,1-1V14h2a1,1,0,0,0,0-2h-2V10a.9.9,0,0,0-1-1,1,1,0,0,0-1,1v2h-2a1,1,0,0,0,0,2Z"/></svg>