<svg xmlns="http://www.w3.org/2000/svg" viewBox="0 0 48 48"><defs><style>.cls-1{fill:none;}.cls-2{fill:#999;}</style></defs><title>Product_Promise_EcoProduct_48px</title><g id="Square"><rect class="cls-1" width="48" height="48"/></g><g id="Icon"><path class="cls-2" d="M40,21l-1.26-8.71a2.19,2.19,0,0,0-1.34-1.7,2.16,2.16,0,0,0-2.15.31L29.46,15.5C25.09,8.14,15.78,3.78,15.31,3.56a1.51,1.51,0,0,0-2.1,1.62A7.84,7.84,0,0,1,13,7.69a42.74,42.74,0,0,1-2.85,8.06C8.45,19.54,7,22.82,7.91,28c1.57,9.06,14.2,12.23,16,12.64a24.83,24.83,0,0,0,6.88,3.8,1.48,1.48,0,0,0,.51.09,1.5,1.5,0,0,0,.51-2.91A23,23,0,0,1,28.3,40a16,16,0,0,0,9.43-6.18C41.49,28.39,40.19,21.87,40,21ZM10.86,27.52c-.74-4.32.41-6.94,2-10.57a45,45,0,0,0,3-8.6c.08-.35.15-.69.2-1C19.68,9.41,27,14.29,28.44,20.86S26.12,34.22,24.25,37C20.61,33.45,19,29.2,19.14,26.34A26.43,26.43,0,0,1,19.75,22a16.4,16.4,0,0,0,.44-5.69,1.5,1.5,0,1,0-3,.4,14.07,14.07,0,0,1-.41,4.7,29.09,29.09,0,0,0-.67,4.78,16.38,16.38,0,0,0,3.34,9.84C15.87,34.49,11.6,31.79,10.86,27.52Zm24.39,4.64a13,13,0,0,1-7.49,4.91C30,33.4,32.87,27,31.37,20.21a14,14,0,0,0-.57-1.94L36,14.18,37,21.54l0,.13C37.08,21.73,38.42,27.58,35.25,32.16Z"/></g></svg>