<svg xmlns="http://www.w3.org/2000/svg" viewBox="0 0 48 48"><defs><style>.cls-1{fill:none;}.cls-2{fill:#999;}</style></defs><title>Project_Inspiration_48px</title><g id="Square"><rect class="cls-1" width="48" height="48"/></g><g id="Icon"><path class="cls-2" d="M36,4H12a2,2,0,0,0-2,2V42a2,2,0,0,0,2,2H36a2,2,0,0,0,2-2V6A2,2,0,0,0,36,4ZM35,7V30.68H33.54L28.7,20.87a1,1,0,0,0-.87-.56,1,1,0,0,0-.89.51l-2.86,5L19.4,16.08a1,1,0,0,0-.85-.57,1,1,0,0,0-.9.49L13,23.73V7ZM13,27.61l5.4-9,4.7,9.83A1,1,0,0,0,24,29a1,1,0,0,0,.9-.5l2.87-5.06,3.57,7.23H13ZM13,41V33.68H35V41Z"/><path class="cls-2" d="M29.7,15.71a3.5,3.5,0,1,0-3.5-3.5A3.5,3.5,0,0,0,29.7,15.71Zm0-5a1.5,1.5,0,1,1-1.5,1.5A1.5,1.5,0,0,1,29.7,10.71Z"/></g></svg>