<svg xmlns="http://www.w3.org/2000/svg" viewBox="0 0 48 48"><defs><style>.a{fill:none;}.b{fill:#999;}</style></defs><title>Project-ProductNumb-48px</title><rect class="a" width="48" height="48"/><path class="b" d="M17.5,13h25a1.5,1.5,0,0,0,0-3h-25a1.5,1.5,0,0,0,0,3Z"/><path class="b" d="M42.5,22.5h-25a1.5,1.5,0,0,0,0,3h25a1.5,1.5,0,0,0,0-3Z"/><path class="b" d="M42.5,35h-25a1.5,1.5,0,0,0,0,3h25a1.5,1.5,0,0,0,0-3Z"/><circle class="b" cx="6.5" cy="11.5" r="2.5"/><circle class="b" cx="6.5" cy="24" r="2.5"/><circle class="b" cx="6.5" cy="36.5" r="2.5"/></svg>