<svg xmlns="http://www.w3.org/2000/svg" viewBox="0 0 48 48"><defs><style>.a{fill:none;}.b{fill:#999;}</style></defs><title>Project-DescribeProject-48px</title><rect class="a" width="48" height="48"/><path class="b" d="M31.1,24l9.3-9.3a2.1,2.1,0,0,0,0-2.9L36.2,7.6a1.9,1.9,0,0,0-2.8,0L24,16.9,14.6,7.6a1.9,1.9,0,0,0-2.8,0L7.6,11.8a2.1,2.1,0,0,0,0,2.9L16.9,24,9.4,31.5a4.1,4.1,0,0,0-.5.9l-1.8,6a2,2,0,0,0,2.5,2.5l6-1.8a1.9,1.9,0,0,0,.9-.5L24,31.1l9.3,9.3a1.9,1.9,0,0,0,2.8,0l4.3-4.2a2.1,2.1,0,0,0,0-2.9Zm6.5-10.8-1.3,1.4-2.9-2.9,1.4-1.3ZM32,13.1,34.9,16l-6,5.9-2.8-2.8ZM11.5,34.2l2.3,2.3-3.3,1Zm4,1.2-2.9-2.8,6.5-6.5L21.9,29Zm19.2,2.2-3-3,.7-.7A1,1,0,0,0,31,32.5l-.7.7-2.8-2.8.7-.7a1.1,1.1,0,0,0,0-1.5,1.2,1.2,0,0,0-1.4,0l-.7.7-2.8-2.8.7-.7A1,1,0,0,0,22.6,24l-.7.7L19,21.9l.7-.7a1,1,0,0,0-1.4-1.4l-.7.7-2.8-2.9.7-.7a1,1,0,1,0-1.4-1.4l-.7.7-3-3,2.8-2.8L37.6,34.8Z"/></svg>