<svg xmlns="http://www.w3.org/2000/svg" viewBox="0 0 48 48"><defs><style>.cls-1{fill:none;}.cls-2{fill:#999;}</style></defs><title>Project_MakeProject_48px</title><g id="Square"><rect class="cls-1" width="48" height="48"/></g><g id="Icon"><path class="cls-2" d="M8.27,30.71a18.51,18.51,0,0,1,.21-13.85,9.46,9.46,0,0,0,3,2.49,6.44,6.44,0,0,0,6.73.07,6.34,6.34,0,0,0,2.9-5.68A5.63,5.63,0,0,0,17.63,9c-2.41-1.11-5.21-.34-7.68,2.11a13.11,13.11,0,0,0-1.2,1.35,19,19,0,0,1,.64-7.19A1,1,0,0,0,8.68,4h0a1,1,0,0,0-1.23.72c-.84,3.43-1.3,7-.17,10a20.16,20.16,0,0,0-.85,16.77,1,1,0,1,0,1.84-.77Zm3.08-18.22c1.85-1.83,3.84-2.45,5.44-1.71a3.64,3.64,0,0,1,2.31,3.09,4.38,4.38,0,0,1-2,3.86,4.48,4.48,0,0,1-4.7-.13,7,7,0,0,1-2.89-2.79A12.72,12.72,0,0,1,11.35,12.49Z"/><path class="cls-2" d="M41.4,11.84,37.15,7.6a2,2,0,0,0-2.83,0l-24,24a1.85,1.85,0,0,0-.5.84l-1.8,6a2,2,0,0,0,2.48,2.49l6.05-1.8a2,2,0,0,0,.84-.5l24-24A2,2,0,0,0,41.4,11.84Zm-25,23.56L13.6,32.57,33,13.16,35.83,16Zm-4-1.15,2.3,2.3-3.28,1Zm24.8-19.67-2.83-2.83,1.32-1.32,2.83,2.83Z"/></g></svg>