<svg xmlns="http://www.w3.org/2000/svg" viewBox="0 0 48 48"><defs><style>.cls-1{fill:none;}.cls-2{fill:#999;}</style></defs><title>Project_ProductNumb_48px</title><g id="Square"><rect class="cls-1" width="48" height="48"/></g><g id="Icon"><path class="cls-2" d="M17.5,13h25a1.5,1.5,0,0,0,0-3h-25a1.5,1.5,0,0,0,0,3Z"/><path class="cls-2" d="M42.5,22.5h-25a1.5,1.5,0,0,0,0,3h25a1.5,1.5,0,0,0,0-3Z"/><path class="cls-2" d="M42.5,35h-25a1.5,1.5,0,0,0,0,3h25a1.5,1.5,0,0,0,0-3Z"/><circle class="cls-2" cx="6.5" cy="11.5" r="2.5"/><circle class="cls-2" cx="6.5" cy="24" r="2.5"/><circle class="cls-2" cx="6.5" cy="36.5" r="2.5"/></g></svg>