<svg xmlns="http://www.w3.org/2000/svg" viewBox="0 0 48 48"><defs><style>.a{fill:none;}.b{fill:#999;}</style></defs><title>Project-Inspiration-48px</title><rect class="a" width="48" height="48"/><path class="b" d="M36,4H12a2,2,0,0,0-2,2V42a2,2,0,0,0,2,2H36a2,2,0,0,0,2-2V6A2,2,0,0,0,36,4ZM35,7V30.7H33.5l-4.8-9.8a1,1,0,0,0-.9-.6,1.2,1.2,0,0,0-.9.5l-2.8,5.1-4.7-9.8a1,1,0,0,0-.9-.6,1.2,1.2,0,0,0-.9.5L13,23.7V7ZM13,27.6l5.4-9,4.7,9.8a1,1,0,0,0,.9.6,1.2,1.2,0,0,0,.9-.5l2.8-5.1,3.6,7.3H13ZM13,41V33.7H35V41Z"/><path class="b" d="M29.7,15.7a3.5,3.5,0,1,0-3.5-3.5A3.5,3.5,0,0,0,29.7,15.7Zm0-5a1.5,1.5,0,1,1-1.5,1.5A1.5,1.5,0,0,1,29.7,10.7Z"/></svg>