<svg xmlns="http://www.w3.org/2000/svg" viewBox="0 0 48 48"><defs><style>.cls-1{fill:none;}.cls-2{fill:#999;}</style></defs><title>Service_Delivery_Delivery--Home_48px</title><g id="Square"><rect class="cls-1" width="48" height="48"/></g><g id="Icon"><path class="cls-2" d="M10,13H29v9.5a1.5,1.5,0,0,0,3,0V12a2,2,0,0,0-2-2H9a2,2,0,0,0-2,2v3h3Z"/><path class="cls-2" d="M14,18a1,1,0,0,0-1-1H5a1,1,0,0,0,0,2h8A1,1,0,0,0,14,18Z"/><path class="cls-2" d="M13,21H9a1,1,0,0,0,0,2h4a1,1,0,1,0,0-2Z"/><path class="cls-2" d="M14,26a1,1,0,0,0-1-1H6.37a1,1,0,1,0,0,2H13A1,1,0,0,0,14,26Z"/><path class="cls-2" d="M42,21h-.89l-2-6.58A2,2,0,0,0,37.19,13H32v3h4.46l2.44,8H41v8H39.47a5.5,5.5,0,0,0-10.95,0H24a5.5,5.5,0,0,0-11,0H10V29H7v4a2,2,0,0,0,2,2h4.63a5.5,5.5,0,0,0,9.8,0H29.1a5.49,5.49,0,0,0,9.79,0H42a2,2,0,0,0,2-2V23A2,2,0,0,0,42,21ZM18.51,35A2.5,2.5,0,1,1,21,32.5,2.5,2.5,0,0,1,18.51,35ZM34,35a2.5,2.5,0,1,1,2.51-2.5A2.5,2.5,0,0,1,34,35Z"/></g></svg>