<svg xmlns="http://www.w3.org/2000/svg" viewBox="0 0 48 48"><defs><style>.a{fill:none;}.b{fill:#999;}</style></defs><title>Service-Delivery-PickupStore-48px</title><rect class="a" width="48" height="48"/><path class="b" d="M35.6,31.7l-9.8,2.7a5.1,5.1,0,0,0-1.6-.9L18.4,12.3,12.2,6a1.5,1.5,0,1,0-2.1,2.1l5.6,5.7,5.4,19.8A4.6,4.6,0,0,0,18.3,39a4.7,4.7,0,0,0,4.5,3.4H24a4.6,4.6,0,0,0,3.3-5.2l9-2.5a1.5,1.5,0,0,0,1.1-1.8A1.5,1.5,0,0,0,35.6,31.7ZM24.2,38.6a1.9,1.9,0,0,1-1,.8h-.4a1.8,1.8,0,0,1-1.6-1.1,1.9,1.9,0,0,1,.2-1.3,1.5,1.5,0,0,1,1-.7h.4a1.6,1.6,0,0,1,1.5,1.2A1.6,1.6,0,0,1,24.2,38.6Z"/><path class="b" d="M38.3,26.8l-2.4-9a2.1,2.1,0,0,0-2-1.5h-.5l-9,2.4A2.1,2.1,0,0,0,23,21.3l2.5,9a2,2,0,0,0,1.9,1.4h.5l9-2.5A1.9,1.9,0,0,0,38.3,26.8ZM28.1,28.5l-1.9-7,7-2,2,7.1Z"/></svg>