<svg xmlns="http://www.w3.org/2000/svg" viewBox="0 0 48 48"><defs><style>.a{fill:none;}.b{fill:#999;}</style></defs><title>Service-Delivery-PickupPoint-48px</title><rect class="a" width="48" height="48"/><path class="b" d="M40,13.3l-15-9a1.8,1.8,0,0,0-2,0l-15,9A1.9,1.9,0,0,0,7,15V33a1.9,1.9,0,0,0,1,1.7l15,9a1.8,1.8,0,0,0,2,0l15-9A1.9,1.9,0,0,0,41,33V15A1.9,1.9,0,0,0,40,13.3ZM24,7.2l12.6,7.5-4.7,2.9L19.2,10ZM22.5,39.9,10,32.5V17.4l12.5,7.5ZM24,22.3,11.4,14.7l4.9-2.9,12.6,7.5ZM38,32.5,25.5,39.9v-15L38,17.4Z"/></svg>