<svg xmlns="http://www.w3.org/2000/svg" viewBox="0 0 48 48"><defs><style>.cls-1{fill:none;}.cls-2{fill:#999;}</style></defs><title>Service_Custom_Course_48px</title><g id="Square"><rect class="cls-1" width="48" height="48"/></g><g id="Icon"><path class="cls-2" d="M42.69,20.81a2,2,0,0,0,0-3.62h0L24.86,8.75a2,2,0,0,0-1.72,0L5.31,17.19a2,2,0,0,0,0,3.62L10,23v8.41a3.45,3.45,0,0,0,.61,2C11.86,35.24,15.68,39.5,24,39.5s12.14-4.26,13.4-6.09a3.52,3.52,0,0,0,.6-2V23l2-1v12.2A2,2,0,0,0,39,36a2,2,0,0,0,4,0,2,2,0,0,0-1-1.72V21.13ZM35,31.44a.5.5,0,0,1-.08.27c-1,1.44-4,4.79-10.92,4.79s-9.93-3.35-10.92-4.79a.5.5,0,0,1-.08-.27v-7l10.14,4.8a1.95,1.95,0,0,0,1.72,0L35,24.45Zm-11-5.1L8.5,19,24,11.66,39.5,19Z"/><ellipse class="cls-2" cx="24" cy="19" rx="2" ry="1.5"/></g></svg>