<svg xmlns="http://www.w3.org/2000/svg" viewBox="0 0 48 48"><defs><style>.cls-1{fill:none;}.cls-2{fill:#999;}</style></defs><title>Service_AfterSales_AfterSalesService_48px</title><g id="Square"><rect class="cls-1" width="48" height="48"/></g><g id="Icon"><path class="cls-2" d="M42.3,9.92a1.51,1.51,0,0,0-1.39.4l-4.39,4.39a.83.83,0,0,1-.58.23h0a.79.79,0,0,1-.58-.24l-2-2a.85.85,0,0,1,0-1.18l4.39-4.38a1.5,1.5,0,0,0,.41-1.39,1.48,1.48,0,0,0-1-1.08A10.43,10.43,0,0,0,23.43,16.89a.24.24,0,0,1-.06.23L5.56,34.9a5.34,5.34,0,0,0,0,7.52A5.27,5.27,0,0,0,9.3,44h0a5.27,5.27,0,0,0,3.76-1.56L30.84,24.66a.21.21,0,0,1,.22-.06,10.33,10.33,0,0,0,9.83-2.71,10.54,10.54,0,0,0,2.49-11A1.52,1.52,0,0,0,42.3,9.92Zm-3.52,9.83a7.34,7.34,0,0,1-7,1.94,3.27,3.27,0,0,0-3.06.85L11,40.32A2.33,2.33,0,0,1,9.31,41h0a2.34,2.34,0,0,1-1.64-.69,2.31,2.31,0,0,1,0-3.29L25.49,19.24a3.22,3.22,0,0,0,.85-3.06,7.51,7.51,0,0,1,2-7A7.36,7.36,0,0,1,33.54,7h.05L31.21,9.37a3.84,3.84,0,0,0,0,5.41l2,2a3.8,3.8,0,0,0,2.7,1.12h0a3.79,3.79,0,0,0,2.7-1.11L41,14.47A7.35,7.35,0,0,1,38.78,19.75Z"/><circle class="cls-2" cx="9.49" cy="38.5" r="1.5"/></g></svg>