<svg xmlns="http://www.w3.org/2000/svg" viewBox="0 0 48 48"><defs><style>.a{fill:none;}.b{fill:#999;}</style></defs><title>Service-Custom-Cuts-48px</title><rect class="a" width="48" height="48"/><path class="b" d="M43.4,40.6l-36-36A2,2,0,0,0,6,4,2,2,0,0,0,4,6V42a2,2,0,0,0,2,2H42A2,2,0,0,0,43.4,40.6ZM7,41V8.4l6.6,6.7-1.8,1.8a1,1,0,0,0,0,1.4,1.1,1.1,0,0,0,.7.3.9.9,0,0,0,.7-.3l1.9-1.8,3,3-1.8,1.9a1,1,0,0,0,0,1.4.9.9,0,0,0,.7.3,1.1,1.1,0,0,0,.7-.3L19.5,21l3.1,3-1.9,1.8a1.4,1.4,0,0,0,0,1.5,1.1,1.1,0,0,0,.8.3,1.1,1.1,0,0,0,.7-.3L24,25.4l3,3.1-1.8,1.8a1,1,0,0,0,0,1.4,1.1,1.1,0,0,0,.7.3.9.9,0,0,0,.7-.3l1.9-1.8,3,3-1.8,1.9a1,1,0,0,0,0,1.4.9.9,0,0,0,.7.3,1.1,1.1,0,0,0,.7-.3l1.8-1.8L39.6,41Z"/><path class="b" d="M13,25.2l-.4-.2a.6.6,0,0,0-.6.6v9.8a.6.6,0,0,0,.6.6h9.8a.6.6,0,0,0,.4-1ZM14,34V29l5,5Z"/></svg>