<svg xmlns="http://www.w3.org/2000/svg" viewBox="0 0 48 48"><defs><style>.cls-1{fill:none;}.cls-2{fill:#999;}</style></defs><title>Service_Delay_Delivery--2h_48px</title><g id="Square"><rect class="cls-1" width="48" height="48"/></g><g id="Icon"><path class="cls-2" d="M38.82,10.6,40,9.41l.29.3a1,1,0,0,0,1.42,0,1,1,0,0,0,0-1.42l-2-2a1,1,0,0,0-1.42,1.42l.3.29L37.4,9.18a19.92,19.92,0,0,0-26.8,0L8.41,7l1.3-1.29A1,1,0,1,0,8.29,4.29l-4,4a1,1,0,0,0,0,1.42,1,1,0,0,0,1.42,0L7,8.41,9.18,10.6a20,20,0,1,0,29.64,0ZM24,41A17,17,0,1,1,41,24,17,17,0,0,1,24,41Z"/><path class="cls-2" d="M21.53,24.65A7.43,7.43,0,0,0,23,22.88a3.61,3.61,0,0,0,.46-1.78A3,3,0,0,0,23,19.5a3.14,3.14,0,0,0-1.32-1.13A4.75,4.75,0,0,0,19.63,18a4.31,4.31,0,0,0-2.5.7,3.25,3.25,0,0,0-1.31,1.72l1.95.56a1.86,1.86,0,0,1,.71-.88,2,2,0,0,1,1.12-.31,1.76,1.76,0,0,1,1.24.42,1.48,1.48,0,0,1,.45,1.11A2.17,2.17,0,0,1,21,22.36a6.68,6.68,0,0,1-1.1,1.27l-3.82,3.53v1.77h7.53V27.07H18.92Z"/><path class="cls-2" d="M32.33,21.87a2.71,2.71,0,0,0-1.06-1.09,3,3,0,0,0-1.53-.38,2.56,2.56,0,0,0-1.26.31,2.94,2.94,0,0,0-.94.76V17.3h-2V28.93h2V24.06a1.78,1.78,0,0,1,.46-1.3,1.56,1.56,0,0,1,1.15-.48,1.49,1.49,0,0,1,1.13.46A1.69,1.69,0,0,1,30.73,24v4.95h2v-5.4A3.36,3.36,0,0,0,32.33,21.87Z"/></g></svg>