<svg xmlns="http://www.w3.org/2000/svg" viewBox="0 0 48 48"><defs><style>.a{fill:none;}.b{fill:#999;}</style></defs><title>Service-Tools-Calculator-48px</title><rect class="a" width="48" height="48"/><path class="b" d="M39,7H9A2,2,0,0,0,7,9V39a2,2,0,0,0,2,2H39a2,2,0,0,0,2-2V9A2,2,0,0,0,39,7ZM38,38H10V10H38Z"/><path class="b" d="M15,19h6a1,1,0,0,0,0-2H15a1,1,0,0,0,0,2Z"/><path class="b" d="M27,19h2v2a1,1,0,0,0,2,0V19h2a1,1,0,0,0,0-2H31V15a1,1,0,0,0-2,0v2H27a1,1,0,0,0,0,2Z"/><path class="b" d="M27,31h6a1,1,0,0,0,0-2H27a1,1,0,0,0,0,2Z"/><path class="b" d="M21.5,26.5a1.4,1.4,0,0,0-1.5,0l-2,2.1-2-2.1a1.4,1.4,0,0,0-1.5,0,1.4,1.4,0,0,0,0,1.5l2.1,2-2.1,2a1.4,1.4,0,0,0,0,1.5,1.1,1.1,0,0,0,.8.3,1.1,1.1,0,0,0,.7-.3l2-2.1,2,2.1a1.1,1.1,0,0,0,.8.3,1.1,1.1,0,0,0,.7-.3,1.4,1.4,0,0,0,0-1.5l-2.1-2,2.1-2A1.4,1.4,0,0,0,21.5,26.5Z"/><path class="b" d="M30.4,26.1h-1a.1.1,0,0,0-.1.1A1,1,0,0,0,30,28h.4l.3-.2a1,1,0,0,0,0-1.4.1.1,0,0,0-.1-.1Z"/><path class="b" d="M29.3,32.3c-.1.1-.2.2-.2.3a.6.6,0,0,0-.1.4,1,1,0,0,0,1,1h.4l.3-.2c.1-.1.2-.2.2-.3A.6.6,0,0,0,31,33a.9.9,0,0,0-.3-.7A1,1,0,0,0,29.3,32.3Z"/></svg>