<svg xmlns="http://www.w3.org/2000/svg" viewBox="0 0 48 48"><defs><style>.a{fill:none;}.b{fill:#999;}</style></defs><title>Service-Delivery-AtHome-48px</title><rect class="a" width="48" height="48"/><path class="b" d="M10,13H29v9.5a1.5,1.5,0,0,0,3,0V12a2,2,0,0,0-2-2H9a2,2,0,0,0-2,2v3h3Z"/><path class="b" d="M14,18a.9.9,0,0,0-1-1H5a1,1,0,0,0,0,2h8A.9.9,0,0,0,14,18Z"/><path class="b" d="M13,21H9a1,1,0,0,0-1,1,1.1,1.1,0,0,0,1,1h4a1,1,0,0,0,1-1A.9.9,0,0,0,13,21Z"/><path class="b" d="M14,26a1.1,1.1,0,0,0-1-1H6.4a1,1,0,0,0-1,1,.9.9,0,0,0,1,1H13A1,1,0,0,0,14,26Z"/><path class="b" d="M42,21h-.9l-2-6.6A2,2,0,0,0,37.2,13H32v3h4.4l2.5,8H41v8H39.5a5.5,5.5,0,0,0-11,0H24a5.5,5.5,0,0,0-11,0H10V29H7v4a2,2,0,0,0,2,2h4.6a5.5,5.5,0,0,0,9.8,0h5.7a5.5,5.5,0,0,0,9.8,0H42a2,2,0,0,0,2-2V23A2,2,0,0,0,42,21ZM18.5,35A2.5,2.5,0,1,1,21,32.5,2.5,2.5,0,0,1,18.5,35ZM34,35a2.5,2.5,0,1,1,2.5-2.5A2.5,2.5,0,0,1,34,35Z"/></svg>