<svg xmlns="http://www.w3.org/2000/svg" viewBox="0 0 48 48"><defs><style>.cls-1{fill:none;}.cls-2{fill:#999;}</style></defs><title>Service_PurchaseHelp_CarRent_48px</title><g id="Square"><rect class="cls-1" width="48" height="48"/></g><g id="Icon"><path class="cls-2" d="M12,21.66h2.51a3.84,3.84,0,0,0,7.06,0h4.75a3.83,3.83,0,0,0,7.05,0H36a2,2,0,0,0,2-2V13.18a2,2,0,0,0-2-2H35.8l-.31-2.46A2,2,0,0,0,33.5,7H29.41V6a2,2,0,0,0-2-2H12a2,2,0,0,0-2,2V19.66A2,2,0,0,0,12,21.66Zm6,.33a1.83,1.83,0,1,1,1.84-1.83A1.83,1.83,0,0,1,18.06,22Zm11.8,0a1.83,1.83,0,1,1,1.84-1.83A1.83,1.83,0,0,1,29.86,22ZM13,7H26.41v5.74a1.5,1.5,0,0,0,3,0V10h3.22l.54,4.2H35v4.49H33.39a3.83,3.83,0,0,0-7,0H21.59a3.84,3.84,0,0,0-7.06,0H13Z"/><path class="cls-2" d="M43.64,32.32a4.16,4.16,0,0,0-5.37-2.21L33,32.24A4,4,0,0,0,29,29H18.86A18.75,18.75,0,0,0,10.58,31L7.83,32.31A1.5,1.5,0,0,0,9.17,35l2.74-1.35a15.7,15.7,0,0,1,7-1.63H29a1,1,0,0,1,0,2H23.18a1.5,1.5,0,0,0,0,3H29A4,4,0,0,0,31.72,36l7.67-3.07a1.18,1.18,0,0,1,1.51.63,1.28,1.28,0,0,1,0,1,1.2,1.2,0,0,1-.66.65L26.47,40.64a3.89,3.89,0,0,1-1.65.36H16.18a1.5,1.5,0,0,0,0,3h8.64a6.81,6.81,0,0,0,2.83-.61l13.71-5.48a4.2,4.2,0,0,0,2.28-5.59Z"/></g></svg>