<svg xmlns="http://www.w3.org/2000/svg" viewBox="0 0 48 48"><defs><style>.a{fill:none;}.b{fill:#999;}</style></defs><title>Service-AfterSales-RefundReturn-48px</title><rect class="a" width="48" height="48"/><path class="b" d="M39.5,30.5A1.5,1.5,0,0,0,38,32v6H10V30.1l2.4,2.5a1.5,1.5,0,0,0,1.1.4,1.6,1.6,0,0,0,1.1-.5,1.5,1.5,0,0,0-.1-2.1L9.9,25.8a1.9,1.9,0,0,0-2.8,0L2.4,30.4a1.8,1.8,0,0,0,0,2.2,1.8,1.8,0,0,0,2.2,0L7,30.1V39a2,2,0,0,0,2,2H39a2,2,0,0,0,2-2V32A1.5,1.5,0,0,0,39.5,30.5Z"/><path class="b" d="M45.6,15.4a1.8,1.8,0,0,0-2.2,0L41,17.9V9a2,2,0,0,0-2-2H9A2,2,0,0,0,7,9v7a1.5,1.5,0,0,0,3,0V10H38v7.9l-2.4-2.5a1.8,1.8,0,0,0-2.2,0,1.8,1.8,0,0,0,0,2.2l4.7,4.6a1.9,1.9,0,0,0,2.8,0l4.7-4.6A1.8,1.8,0,0,0,45.6,15.4Z"/></svg>