<svg xmlns="http://www.w3.org/2000/svg" viewBox="0 0 48 48"><defs><style>.a{fill:none;}.b{fill:#999;}</style></defs><title>Service-AfterSales-AfterSalesService-48px</title><rect class="a" width="48" height="48"/><path class="b" d="M42.3,9.9a1.8,1.8,0,0,0-1.4.4l-4.4,4.4a.7.7,0,0,1-.6.2h0a.6.6,0,0,1-.5-.2l-2.1-2a.9.9,0,0,1,0-1.2l4.4-4.4a1.5,1.5,0,0,0,.4-1.4,1.4,1.4,0,0,0-.9-1.1A10.8,10.8,0,0,0,26.2,7a10.7,10.7,0,0,0-2.8,9.9v.2L5.6,34.9a5.3,5.3,0,0,0-.1,7.5A5.7,5.7,0,0,0,9.3,44h0a5.5,5.5,0,0,0,3.8-1.6L30.8,24.7h.3a10.2,10.2,0,0,0,9.8-2.7,10.4,10.4,0,0,0,2.5-11A1.6,1.6,0,0,0,42.3,9.9Zm-3.5,9.9a7.6,7.6,0,0,1-7,1.9,3.2,3.2,0,0,0-3.1.8L10.9,40.3a2,2,0,0,1-1.6.7h0a2,2,0,0,1-1.6-.7,2.4,2.4,0,0,1,0-3.3L25.5,19.2a3,3,0,0,0,.8-3,7.5,7.5,0,0,1,2-7A7,7,0,0,1,33.5,7h.1L31.2,9.4a3.8,3.8,0,0,0,0,5.4l2,2a3.9,3.9,0,0,0,2.7,1.1h0a3.7,3.7,0,0,0,2.7-1.1L41,14.5A7.9,7.9,0,0,1,38.8,19.8Z"/><circle class="b" cx="9.5" cy="38.5" r="1.5"/></svg>