<svg xmlns="http://www.w3.org/2000/svg" viewBox="0 0 48 48"><defs><style>.cls-1{fill:none;}.cls-2{fill:#999;}</style></defs><title>Service_Delay_Delivery--3h_48px</title><g id="Square"><rect class="cls-1" width="48" height="48"/></g><g id="Icon"><path class="cls-2" d="M38.82,10.6,40,9.41l.29.3a1,1,0,0,0,1.42,0,1,1,0,0,0,0-1.42l-2-2a1,1,0,0,0-1.42,1.42l.3.29L37.4,9.18a19.92,19.92,0,0,0-26.8,0L8.41,7l1.3-1.29A1,1,0,1,0,8.29,4.29l-4,4a1,1,0,0,0,0,1.42,1,1,0,0,0,1.42,0L7,8.41,9.18,10.6a20,20,0,1,0,29.64,0ZM24,41A17,17,0,1,1,41,24,17,17,0,0,1,24,41Z"/><path class="cls-2" d="M21.89,23.22h0A2.26,2.26,0,0,0,23,22.36a2.69,2.69,0,0,0,.41-1.52A2.53,2.53,0,0,0,23,19.3a3,3,0,0,0-1.3-1,4.88,4.88,0,0,0-1.9-.35,4.08,4.08,0,0,0-2.45.7,3.34,3.34,0,0,0-1.28,1.72l2,.56a1.88,1.88,0,0,1,2.87-.82,1.22,1.22,0,0,1,.46,1c0,1-.59,1.5-1.78,1.5H18.35v1.63h1.24a2.44,2.44,0,0,1,1.41.39,1.33,1.33,0,0,1,.56,1.14A1.39,1.39,0,0,1,21,26.94a2,2,0,0,1-1.25.41A2.44,2.44,0,0,1,18.42,27a2.07,2.07,0,0,1-.82-1l-1.86.57a3.49,3.49,0,0,0,1.41,1.85,4.46,4.46,0,0,0,2.61.71,4.69,4.69,0,0,0,2-.42,3.28,3.28,0,0,0,1.39-1.17,3.08,3.08,0,0,0,.49-1.74,2.62,2.62,0,0,0-1.78-2.58Z"/><path class="cls-2" d="M31.27,20.78a3,3,0,0,0-1.53-.38,2.56,2.56,0,0,0-1.26.31,2.94,2.94,0,0,0-.94.76V17.3h-2V28.93h2V24.06a1.78,1.78,0,0,1,.46-1.3,1.56,1.56,0,0,1,1.15-.48,1.49,1.49,0,0,1,1.13.46A1.69,1.69,0,0,1,30.73,24v4.95h2v-5.4a3.36,3.36,0,0,0-.38-1.66A2.71,2.71,0,0,0,31.27,20.78Z"/></g></svg>