<svg xmlns="http://www.w3.org/2000/svg" viewBox="0 0 48 48"><defs><style>.cls-1{fill:none;}.cls-2{fill:#999;}</style></defs><title>Service_PurchaseHelp_ToolRent_48px</title><g id="Square"><rect class="cls-1" width="48" height="48"/></g><g id="Icon"><path class="cls-2" d="M24,9a1,1,0,0,0-1,1v3.59l-1.71,1.71a1,1,0,0,0,0,1.41,1,1,0,0,0,1.42,0l2-2A1,1,0,0,0,25,14V10A1,1,0,0,0,24,9Z"/><path class="cls-2" d="M24,4A10,10,0,1,0,34,14,10,10,0,0,0,24,4Zm1,17.93V21a1,1,0,1,0-2,0v.93A8,8,0,0,1,16.07,15H17a1,1,0,0,0,0-2h-.93A8,8,0,0,1,23,6.06V7a1,1,0,1,0,2,0V6.06A8,8,0,0,1,31.93,13H31a1,1,0,0,0,0,2h.93A8,8,0,0,1,25,21.92Z"/><path class="cls-2" d="M43.64,32.32a4.16,4.16,0,0,0-5.37-2.21L33,32.24A4,4,0,0,0,29,29H18.86A18.75,18.75,0,0,0,10.58,31L7.83,32.31A1.5,1.5,0,0,0,9.17,35l2.74-1.35a15.7,15.7,0,0,1,7-1.63H29a1,1,0,0,1,0,2H23.18a1.5,1.5,0,0,0,0,3H29A4,4,0,0,0,31.72,36l7.67-3.07a1.18,1.18,0,0,1,1.51.63,1.28,1.28,0,0,1,0,1,1.2,1.2,0,0,1-.66.65L26.47,40.64a3.89,3.89,0,0,1-1.65.36H16.18a1.5,1.5,0,0,0,0,3h8.64a6.81,6.81,0,0,0,2.83-.61l13.71-5.48a4.2,4.2,0,0,0,2.28-5.59Z"/></g></svg>