<svg xmlns="http://www.w3.org/2000/svg" viewBox="0 0 48 48"><defs><style>.a{fill:none;}.b{fill:#999;}</style></defs><title>Service-Time-Delivery48h-48px</title><rect class="a" width="48" height="48"/><polygon class="b" points="17.8 22.5 15.9 22.5 15.9 25 13.4 25 16.2 18.3 14.1 18.3 11.3 25.1 11.3 26.7 15.9 26.7 15.9 29 17.8 29 17.8 26.7 19 26.7 19 25 17.8 25 17.8 22.5"/><path class="b" d="M26.1,23.6a2.6,2.6,0,0,0,1.6-2.4c0-1.7-1.4-3.1-3.7-3.1s-3.7,1.4-3.7,3.1a2.6,2.6,0,0,0,1.6,2.4,2.7,2.7,0,0,0-1.7,2.5c0,1.9,1.4,3.1,3.8,3.1s3.9-1.2,3.9-3.1A2.7,2.7,0,0,0,26.1,23.6ZM24,19.7a1.5,1.5,0,0,1,1.7,1.5,1.7,1.7,0,0,1-3.4,0A1.5,1.5,0,0,1,24,19.7Zm0,8A1.7,1.7,0,1,1,25.8,26,1.7,1.7,0,0,1,24,27.7Z"/><path class="b" d="M33.8,20.6a2.8,2.8,0,0,0-2.1,1V17.5h-2V29h2V24.2a1.6,1.6,0,0,1,1.5-1.8,1.6,1.6,0,0,1,1.6,1.7V29h1.9V23.7A2.8,2.8,0,0,0,33.8,20.6Z"/><path class="b" d="M38.8,10.6,40,9.4l.3.3a1,1,0,0,0,1.4,0,1,1,0,0,0,0-1.4l-2-2a1,1,0,0,0-1.4,1.4l.3.3L37.4,9.2a19.9,19.9,0,0,0-26.8,0L8.4,7,9.7,5.7A1,1,0,0,0,8.3,4.3l-4,4a1,1,0,0,0,0,1.4A.9.9,0,0,0,5,10a.9.9,0,0,0,.7-.3L7,8.4l2.2,2.2A19.8,19.8,0,0,0,4,24a20,20,0,0,0,40,0A19.8,19.8,0,0,0,38.8,10.6ZM24,41A17,17,0,1,1,41,24,17,17,0,0,1,24,41Z"/></svg>