<svg xmlns="http://www.w3.org/2000/svg" viewBox="0 0 48 48"><defs><style>.cls-1{fill:none;}.cls-2{fill:#999;}</style></defs><title>Service_CopyKey_48px</title><g id="Square"><rect class="cls-1" width="48" height="48"/></g><g id="Icon"><path class="cls-2" d="M31.49,31.82a3,3,0,1,0-3.18,5.09,3,3,0,0,0,1.58.46,3.16,3.16,0,0,0,.68-.08A3,3,0,0,0,32.44,36,3,3,0,0,0,31.49,31.82Zm-.75,3.08a1,1,0,0,1-.62.44.94.94,0,0,1-.75-.13,1,1,0,0,1-.32-1.37,1,1,0,0,1,.85-.47,1,1,0,0,1,.53.15A1,1,0,0,1,30.74,34.9Z"/><path class="cls-2" d="M43.1,24.14A10,10,0,0,0,34,18.31h-.1L26.16,6.81A2,2,0,0,0,24.88,6L20,5A2,2,0,0,0,17.7,6.6l-.94,4.84a2,2,0,0,0,.31,1.5l7.27,10.79c-.23.08-.47.15-.71.26L11.86,16.63a2,2,0,0,0-1.51-.25L5.54,17.49a2,2,0,0,0-1.49,2.39l1.11,4.8a2,2,0,0,0,.89,1.25l11.77,7.36A10,10,0,0,0,36.45,38a10.08,10.08,0,0,0,4.11-2.14A9.94,9.94,0,0,0,43.1,24.14ZM29.75,39.73a7,7,0,0,1-8.92-7.16l.07-.9L13.38,27l.52-.84a1,1,0,1,0-1.69-1.06l-.53.84-1.26-.79.53-.84a1,1,0,0,0-1.7-1.06l-.52.84L8,23.61,7.2,20.18l3.42-.79,12.91,8.07.78-.45a6.92,6.92,0,0,1,8.1.83,7,7,0,0,1-2.66,11.89Zm8.85-6.19a7.34,7.34,0,0,1-.91.67,9.93,9.93,0,0,0-10.15-11.1l-4.2-6.24.82-.55A1,1,0,1,0,23,14.66l-.82.56L21.39,14l.82-.55a1,1,0,1,0-1.12-1.66l-.82.56-.49-.72.67-3.45,3.45.67,8.52,12.61.89-.09a6.94,6.94,0,0,1,7.07,4A7,7,0,0,1,38.6,33.54Z"/></g></svg>