<svg xmlns="http://www.w3.org/2000/svg" viewBox="0 0 48 48"><defs><style>.a{fill:none;}.b{fill:#999;}</style></defs><title>Service-AfterSales-Support-48px</title><rect class="a" width="48" height="48"/><path class="b" d="M44,24a7.7,7.7,0,0,0-4.4-7.1C37.1,8.6,31.6,4,24,4S11,8.6,8.4,16.9A7.6,7.6,0,0,0,4,24c0,4.2,3.2,7.7,7.1,7.7l1.7-.2A1.6,1.6,0,0,0,14,30V18a1.6,1.6,0,0,0-1.2-1.5l-1-.2C13.6,11.7,17.1,7,24,7s10.5,4.7,12.3,9.3l-1.1.2A1.6,1.6,0,0,0,34,18V30a1.6,1.6,0,0,0,1.2,1.5h.1c-1.7,3.4-3.2,5.5-5.6,6.6C29,36.3,26.7,35,24,35s-6,2-6,4.5S20.6,44,24,44s4.5-1,5.4-2.6c5-1.5,7.1-5.4,9.2-9.9A7.7,7.7,0,0,0,44,24ZM11,28.7A4.5,4.5,0,0,1,7,24a4.5,4.5,0,0,1,4-4.7ZM24,41c-1.8,0-3-.9-3-1.5S22.2,38,24,38s3,.9,3,1.5S25.8,41,24,41ZM37,28.7V19.3A4.5,4.5,0,0,1,41,24,4.5,4.5,0,0,1,37,28.7Z"/></svg>