<svg xmlns="http://www.w3.org/2000/svg" viewBox="0 0 48 48"><defs><style>.cls-1{fill:none;}.cls-2{fill:#999;}</style></defs><title>Service_Custom_CutWoodGlass_48px</title><g id="Square"><rect class="cls-1" width="48" height="48"/></g><g id="Icon"><path class="cls-2" d="M17.7,44a2,2,0,0,1-1.11-.34c-1.08-.72-4.41-3.29-4.19-7.4A17,17,0,0,1,10,33.4l-2.58.78a2,2,0,0,1-2.54-1.51c-.26-1.28-.79-5.45,2.27-8.2a16.83,16.83,0,0,1,.31-3.74L5.06,19.46a2,2,0,0,1-1-1.28,1.94,1.94,0,0,1,.28-1.59c.72-1.08,3.25-4.41,7.4-4.19A17,17,0,0,1,14.6,10L13.82,7.4a2,2,0,0,1,1.51-2.54c1.28-.26,5.45-.79,8.2,2.27a16.83,16.83,0,0,1,3.74.31l1.27-2.38a2,2,0,0,1,1.28-1,1.94,1.94,0,0,1,1.59.28c1.08.72,4.41,3.29,4.19,7.4A17,17,0,0,1,38,14.6l2.58-.78a2,2,0,0,1,2.54,1.51c.26,1.28.79,5.45-2.27,8.2a16.83,16.83,0,0,1-.31,3.74l2.38,1.27a2,2,0,0,1,1,1.28,1.94,1.94,0,0,1-.28,1.59c-.72,1.08-3.29,4.42-7.4,4.19A17,17,0,0,1,33.4,38l.78,2.58a2,2,0,0,1-1.51,2.54c-1.28.26-5.45.79-8.2-2.27a16.83,16.83,0,0,1-3.74-.31l-1.27,2.38a2,2,0,0,1-1.28,1A2,2,0,0,1,17.7,44Zm-.89-2.47Zm1.45-.36Zm-6.9-11.33.59,1a13.63,13.63,0,0,0,3,3.64l.65.55-.14.84a5,5,0,0,0,1.91,4.58l1.82-3.42,1.16.31a13.55,13.55,0,0,0,4.69.46l.85-.06.49.69A5,5,0,0,0,31,40.35l-1.13-3.71,1-.59a13.63,13.63,0,0,0,3.64-3l.55-.65.84.14a5,5,0,0,0,4.58-1.91l-3.42-1.82.31-1.16A13.55,13.55,0,0,0,37.84,23l-.06-.85.69-.49A5,5,0,0,0,40.35,17l-3.71,1.13-.59-1a13.63,13.63,0,0,0-3-3.64l-.65-.55.14-.84a5,5,0,0,0-1.91-4.58l-1.82,3.42-1.16-.31A13.55,13.55,0,0,0,23,10.16l-.85.06-.49-.69A5,5,0,0,0,17,7.65l1.13,3.71-1,.59a13.63,13.63,0,0,0-3.64,3l-.55.65-.84-.14a5,5,0,0,0-4.58,1.91l3.42,1.82-.31,1.16A13.55,13.55,0,0,0,10.16,25l.06.85-.69.49A5,5,0,0,0,7.65,31Zm30.17,1.35Zm-.36-1.45ZM6.83,18.26Zm-.36-1.45Zm23.27-10Zm1.45-.36Z"/><path class="cls-2" d="M24,35A11,11,0,1,1,35,24,11,11,0,0,1,24,35Zm0-20a9,9,0,1,0,9,9A9,9,0,0,0,24,15Z"/><path class="cls-2" d="M24,28a4,4,0,1,1,4-4A4,4,0,0,1,24,28Zm0-6a2,2,0,1,0,2,2A2,2,0,0,0,24,22Z"/></g></svg>