<svg xmlns="http://www.w3.org/2000/svg" viewBox="0 0 48 48"><defs><style>.a{fill:none;}.b{fill:#999;}</style></defs><title>Service-PurchaseHelp-HomeInstallation-48px</title><rect class="a" width="48" height="48"/><path class="b" d="M42.8,11.1,39.7,10l.6-1L33.9,5.3a10.1,10.1,0,0,0-10.1,0L17.9,8.6a1.5,1.5,0,0,0,.6,2.8,23.4,23.4,0,0,1,7.7,2.1L25,15.4a2,2,0,0,0,.1,2.1l-.7,1.3H16.9a4.2,4.2,0,0,0-3,1.2l-7,6.7a2.3,2.3,0,0,1-1.5.7,1.5,1.5,0,0,0-1.5,1.5,1.5,1.5,0,0,0,1.5,1.5h0A5.5,5.5,0,0,0,9,28.9l7-6.8a1.2,1.2,0,0,1,.9-.3h5.9l-1.3,2.3h-2a1.5,1.5,0,0,0,0,3h9.7A1.8,1.8,0,0,1,31,28.5a1.9,1.9,0,0,1-.4,1.5h-.2a.2.2,0,0,0,0,.3.2.2,0,0,0,.2.2A1.8,1.8,0,0,1,32.4,32a1.8,1.8,0,0,1-.4,1.4,1.7,1.7,0,0,1-1.3.7h-.1c-.1,0-.2,0-.2.1a.2.2,0,0,0,0,.3l.2.2a1.8,1.8,0,0,1,.4,1.4,1.8,1.8,0,0,1-1.8,1.4.2.2,0,0,0-.2.2.2.2,0,0,0,0,.3,1.7,1.7,0,0,1,.6,1.6A1.8,1.8,0,0,1,27.8,41H5.6a1.5,1.5,0,0,0-1.5,1.5A1.5,1.5,0,0,0,5.6,44H27.9a4.7,4.7,0,0,0,4.7-4.7h0A4.8,4.8,0,0,0,34,35.8h0a4.8,4.8,0,0,0,1.4-3.4A4.7,4.7,0,0,0,34,29v-.2a4.8,4.8,0,0,0-3.8-4.6l1.7-3a2,2,0,0,0,1.5-1l.6-1.1,2.8,2.4a2.1,2.1,0,0,0,3.1-.6l4-6.9A2,2,0,0,0,42.8,11.1ZM27.6,19.2l1.5.9-2.2,4h-2Zm10.2-.8-4.6-3.8-1.9,3.1L28.2,16l2.1-3.7L29,11.6a24.2,24.2,0,0,0-6-2.4l2.3-1.3a7.5,7.5,0,0,1,7.1,0l3.8,2.2-.9,1.5,5.4,1.9Z"/></svg>