<svg xmlns="http://www.w3.org/2000/svg" viewBox="0 0 48 48"><defs><style>.a{fill:none;}.b{fill:#999;}</style></defs><title>Social-SocialNetwork-Linkedin-48px</title><rect class="a" width="48" height="48"/><path class="b" d="M25.3,22.4h0Z"/><path class="b" d="M39,7H9A2,2,0,0,0,7,9V39a2,2,0,0,0,2,2H39a2,2,0,0,0,2-2V9A2,2,0,0,0,39,7ZM17.4,35.5H12.2V20.1h5.2Zm-.5-18.2a2.8,2.8,0,0,1-2.1.7h0a2.8,2.8,0,0,1-2.1-.7,2.7,2.7,0,0,1-.8-1.9,2.6,2.6,0,0,1,.8-1.9,3.2,3.2,0,0,1,2.1-.8,2.9,2.9,0,0,1,2.1.8,2.6,2.6,0,0,1,.8,1.9A2.7,2.7,0,0,1,16.9,17.3ZM35.8,35.5H30.6V27.3c0-2.4-.8-3.5-2.5-3.5a3.1,3.1,0,0,0-1.7.5,5,5,0,0,0-1,1.4,3.5,3.5,0,0,0-.1,1.2v8.6H20.2V20.1h5.1v2.2a5.1,5.1,0,0,1,4.6-2.5,5.2,5.2,0,0,1,4.2,1.7,7.4,7.4,0,0,1,1.7,5.2Z"/><path class="b" d="M25.3,22.4h0Z"/><path class="b" d="M39,7H9A2,2,0,0,0,7,9V39a2,2,0,0,0,2,2H39a2,2,0,0,0,2-2V9A2,2,0,0,0,39,7ZM17.4,35.5H12.2V20.1h5.2Zm-.5-18.2a2.8,2.8,0,0,1-2.1.7h0a2.8,2.8,0,0,1-2.1-.7,2.7,2.7,0,0,1-.8-1.9,2.6,2.6,0,0,1,.8-1.9,3.2,3.2,0,0,1,2.1-.8,2.9,2.9,0,0,1,2.1.8,2.6,2.6,0,0,1,.8,1.9A2.7,2.7,0,0,1,16.9,17.3ZM35.8,35.5H30.6V27.3c0-2.4-.8-3.5-2.5-3.5a3.1,3.1,0,0,0-1.7.5,5,5,0,0,0-1,1.4,3.5,3.5,0,0,0-.1,1.2v8.6H20.2V20.1h5.1v2.2a5.1,5.1,0,0,1,4.6-2.5,5.2,5.2,0,0,1,4.2,1.7,7.4,7.4,0,0,1,1.7,5.2Z"/><path class="b" d="M25.3,22.4h0Z"/><path class="b" d="M39,7H9A2,2,0,0,0,7,9V39a2,2,0,0,0,2,2H39a2,2,0,0,0,2-2V9A2,2,0,0,0,39,7ZM17.4,35.5H12.2V20.1h5.2Zm-.5-18.2a2.8,2.8,0,0,1-2.1.7h0a2.8,2.8,0,0,1-2.1-.7,2.7,2.7,0,0,1-.8-1.9,2.6,2.6,0,0,1,.8-1.9,3.2,3.2,0,0,1,2.1-.8,2.9,2.9,0,0,1,2.1.8,2.6,2.6,0,0,1,.8,1.9A2.7,2.7,0,0,1,16.9,17.3ZM35.8,35.5H30.6V27.3c0-2.4-.8-3.5-2.5-3.5a3.1,3.1,0,0,0-1.7.5,5,5,0,0,0-1,1.4,3.5,3.5,0,0,0-.1,1.2v8.6H20.2V20.1h5.1v2.2a5.1,5.1,0,0,1,4.6-2.5,5.2,5.2,0,0,1,4.2,1.7,7.4,7.4,0,0,1,1.7,5.2Z"/></svg>