<svg xmlns="http://www.w3.org/2000/svg" viewBox="0 0 48 48"><defs><style>.cls-1{fill:none;}.cls-2{fill:#999;}</style></defs><title>Social_Comment_Community_48px</title><g id="Square"><rect class="cls-1" width="48" height="48"/></g><g id="Icon"><polygon class="cls-2" points="39 42 39 41 37.7 41 39 42"/><path class="cls-2" d="M35,7V29.84H22.57l-.78.57L17.2,33.74v-3.9H7V7H35m1.3-3H5.7A1.7,1.7,0,0,0,4,5.67V31.14a1.7,1.7,0,0,0,1.7,1.7h8.5V36.3A1.7,1.7,0,0,0,15.91,38a1.66,1.66,0,0,0,1-.33l6.65-4.83H36.3a1.7,1.7,0,0,0,1.7-1.7V5.67A1.7,1.7,0,0,0,36.3,4Z"/><path class="cls-2" d="M42,26V39H36V41l-2.32-1.69L33.15,39H26V31.88H37v-2L37,26h5m1-2H35l0,5.89H24V40a1,1,0,0,0,1,1h7.5l3.91,2.85A1,1,0,0,0,37,44a1,1,0,0,0,1-1V41h5a1,1,0,0,0,1-1V25a1,1,0,0,0-1-1Z"/></g></svg>