<svg xmlns="http://www.w3.org/2000/svg" viewBox="0 0 48 48"><defs><style>.a{fill:none;}.b{fill:#999;}</style></defs><title>Social-View-TesterView-48px</title><rect class="a" width="48" height="48"/><path class="b" d="M24,7A17,17,0,1,1,7,24,17,17,0,0,1,24,7m0-3A20,20,0,1,0,44,24,20.1,20.1,0,0,0,24,4Z"/><path class="b" d="M24,15.9l1.7,3.4.7,1.5,1.5.2,3.8.5L29,24.2l-1.2,1.1.3,1.5.7,3.8-3.4-1.8L24,28.1l-1.5.8-3.2,1.8.6-3.7.2-1.6L19,24.3l-2.9-2.6,4-.7,1.5-.3.6-1.3L24,15.9m0-4.2a2,2,0,0,0-1.8,1.1l-2.6,5.3-5.9,1a2,2,0,0,0-1.1,3.4l4.3,4L16,32.2a2,2,0,0,0,2,2.3l1-.2,5-2.8,5.2,2.7a1.6,1.6,0,0,0,.9.3,2,2,0,0,0,2-2.4l-1-5.8,4.1-4.1a2,2,0,0,0-1.1-3.4L28.3,18l-2.5-5.2A2.1,2.1,0,0,0,24,11.7Z"/></svg>