<svg xmlns="http://www.w3.org/2000/svg" viewBox="0 0 48 48"><defs><style>.a{fill:none;}.b{fill:#999;}</style></defs><title>Social-Comment-Community-48px</title><rect class="a" width="48" height="48"/><polygon class="b" points="39 42 39 41 37.7 41 39 42"/><path class="b" d="M35,7V29.8H22.6l-.8.6-4.6,3.3V29.8H7V7H35m1.3-3H5.7A1.7,1.7,0,0,0,4,5.7V31.1a1.7,1.7,0,0,0,1.7,1.7h8.5v3.5A1.7,1.7,0,0,0,15.9,38a1.9,1.9,0,0,0,1-.3l6.7-4.9H36.3A1.7,1.7,0,0,0,38,31.1V5.7A1.7,1.7,0,0,0,36.3,4Z"/><path class="b" d="M42,26V39H36v2h0l-2.3-1.6-.5-.4H26V31.9H37V26h5m1-2H35v5.9H24V40a1,1,0,0,0,1,1h7.5l3.9,2.8.6.2a1,1,0,0,0,1-1V41h5a1,1,0,0,0,1-1V25a.9.9,0,0,0-1-1Z"/></svg>