<svg xmlns="http://www.w3.org/2000/svg" viewBox="0 0 48 48"><defs><style>.a{fill:none;}.b{fill:#999;}</style></defs><title>Social-SocialNetwork-Pinterest-48px</title><rect class="a" width="48" height="48"/><path class="b" d="M39,7H9A2,2,0,0,0,7,9V39a2,2,0,0,0,2,2h8.4a16.5,16.5,0,0,1,.2-5.6l2.1-9.2a6.8,6.8,0,0,1-.5-2.7,4.8,4.8,0,0,1,1-3.1,2.6,2.6,0,0,1,2.2-1.2,1.9,1.9,0,0,1,1.7.7,2.8,2.8,0,0,1,.6,1.8,12.8,12.8,0,0,1-.2,1.7c-.2.6-.4,1.4-.7,2.2a18.9,18.9,0,0,0-.6,2.1,2.8,2.8,0,0,0,.5,2.3,2.9,2.9,0,0,0,2.2.9c1.5,0,2.8-.9,3.8-2.6A12.2,12.2,0,0,0,31.2,22a6.4,6.4,0,0,0-1.8-4.7,7.3,7.3,0,0,0-5.2-1.8,8,8,0,0,0-8.3,8.1A5.2,5.2,0,0,0,17,26.9a.9.9,0,0,1,.3.9,7.8,7.8,0,0,0-.3,1.4.8.8,0,0,1-.4.4h-.5a5.5,5.5,0,0,1-2.6-2.4,10.2,10.2,0,0,1-.8-4,10.3,10.3,0,0,1,.4-3,12.8,12.8,0,0,1,1.5-2.8A13.6,13.6,0,0,1,17,15a9.8,9.8,0,0,1,3.4-1.7,14.4,14.4,0,0,1,4.3-.6,10.3,10.3,0,0,1,4.3.8,8.9,8.9,0,0,1,3.4,2.1,11.6,11.6,0,0,1,2.2,3.1,8.6,8.6,0,0,1,.7,3.6,13.2,13.2,0,0,1-2.5,8.3,7.9,7.9,0,0,1-6.4,3.2,5.3,5.3,0,0,1-2.5-.5,4.7,4.7,0,0,1-1.8-1.6L21,36.3A19,19,0,0,1,18.6,41H39a2,2,0,0,0,2-2V9A2,2,0,0,0,39,7Z"/></svg>