<svg xmlns="http://www.w3.org/2000/svg" viewBox="0 0 48 48"><defs><style>.a{fill:none;}.b{fill:#999;}</style></defs><title>Social-SocialNetwork-Youtube-48px</title><rect class="a" width="48" height="48"/><polygon class="b" points="21.7 27.4 27.7 24 21.7 20.6 21.7 27.4"/><path class="b" d="M39,7H9A2,2,0,0,0,7,9V39a2,2,0,0,0,2,2H39a2,2,0,0,0,2-2V9A2,2,0,0,0,39,7ZM35,29.5a2.8,2.8,0,0,1-2.1,2c-1.8.5-8.9.5-8.9.5s-7.1,0-8.9-.5a2.8,2.8,0,0,1-2.1-2,35.5,35.5,0,0,1-.4-5.5,35.5,35.5,0,0,1,.4-5.5,2.8,2.8,0,0,1,2.1-2C16.9,16,24,16,24,16s7.1,0,8.9.5a2.8,2.8,0,0,1,2.1,2,35.5,35.5,0,0,1,.4,5.5A35.5,35.5,0,0,1,35,29.5Z"/></svg>