<svg xmlns="http://www.w3.org/2000/svg" viewBox="0 0 48 48"><defs><style>.cls-1{fill:none;}.cls-2{fill:#999;}</style></defs><title>Social_View_Dislike_48px</title><g id="Square"><rect class="cls-1" width="48" height="48"/></g><g id="Icon"><path class="cls-2" d="M43.56,24.36l-4.66-11A5.51,5.51,0,0,0,33.82,10H23.89a9.56,9.56,0,0,0-4.33,1l-2.11,1.07V12a2,2,0,0,0-2-2H8.61a2,2,0,0,0-2,1.71L4,29.71a2,2,0,0,0,.47,1.6A2,2,0,0,0,6,32h9.45a2,2,0,0,0,1.62-.83l7.76,10.91A4.58,4.58,0,0,0,28.55,44,4.56,4.56,0,0,0,33,38.33L31.36,32h7.13a5.5,5.5,0,0,0,5.07-7.64ZM14.44,29H7.16L9.48,13h5Zm26.13-1.12A2.66,2.66,0,0,1,38.32,29H30.07a2,2,0,0,0-1.94,2.49l1.93,7.58a1.59,1.59,0,0,1-.28,1.33,1.62,1.62,0,0,1-2.5,0L17.45,26.52v-11l3.48-1.77a6.49,6.49,0,0,1,3-.71h9.93a2.5,2.5,0,0,1,2.31,1.53l4.66,11A2.41,2.41,0,0,1,40.57,27.88Z"/></g></svg>