<svg xmlns="http://www.w3.org/2000/svg" viewBox="0 0 48 48"><defs><style>.a{fill:none;}.b{fill:#999;}</style></defs><title>Social-SocialNetwork-Twitter-48px</title><rect class="a" width="48" height="48"/><path class="b" d="M39,7H9A2,2,0,0,0,7,9V39a2,2,0,0,0,2,2H39a2,2,0,0,0,2-2V9A2,2,0,0,0,39,7ZM33,20.1v.6a15.7,15.7,0,0,1-.5,3.7A11.9,11.9,0,0,1,30.8,28a10.8,10.8,0,0,1-2.6,3,11.7,11.7,0,0,1-3.8,2.1,11.7,11.7,0,0,1-4.6.8,12.6,12.6,0,0,1-7.1-2.1h1.1a8.6,8.6,0,0,0,5.7-2,3.9,3.9,0,0,1-2.6-.9,4.8,4.8,0,0,1-1.7-2.3h.9l1.1-.2A4.2,4.2,0,0,1,14.5,25a4.3,4.3,0,0,1-1.1-3h0a4.9,4.9,0,0,0,2.2.6,4.3,4.3,0,0,1-2-3.9,4.6,4.6,0,0,1,.6-2.3,14.4,14.4,0,0,0,4.3,3.4,13.4,13.4,0,0,0,5.3,1.4,3.1,3.1,0,0,1-.1-1,4.8,4.8,0,0,1,4.7-4.7A4.3,4.3,0,0,1,31.7,17a7.9,7.9,0,0,0,3-1.2,4.4,4.4,0,0,1-2,2.6,7.7,7.7,0,0,0,2.6-.7A10.4,10.4,0,0,1,33,20.1Z"/></svg>