<svg xmlns="http://www.w3.org/2000/svg" viewBox="0 0 48 48"><defs><style>.a{fill:none;}.b{fill:#999;}</style></defs><title>Social-View-Dislike-48px</title><rect class="a" width="48" height="48"/><path class="b" d="M43.6,24.4l-4.7-11A5.5,5.5,0,0,0,33.8,10H23.9a10.4,10.4,0,0,0-4.3,1l-2.1,1.1h0a2,2,0,0,0-2.1-2H8.6a2,2,0,0,0-2,1.7L4,29.7a1.8,1.8,0,0,0,.5,1.6A2.1,2.1,0,0,0,6,32h9.4a2.1,2.1,0,0,0,1.7-.8l7.7,10.9A4.7,4.7,0,0,0,28.5,44a4.2,4.2,0,0,0,3.6-1.8,4.5,4.5,0,0,0,.9-3.9L31.4,32h7.1a5.5,5.5,0,0,0,5.1-7.6ZM14.4,29H7.2L9.5,13h4.9Zm26.2-1.1A2.8,2.8,0,0,1,38.3,29H30.1a2,2,0,0,0-2,2.5l2,7.6a1.6,1.6,0,0,1-2.8,1.2L17.5,26.5v-11l3.4-1.8a6.3,6.3,0,0,1,3-.7h9.9a2.5,2.5,0,0,1,2.3,1.5l4.7,11A2.9,2.9,0,0,1,40.6,27.9Z"/></svg>