<svg xmlns="http://www.w3.org/2000/svg" viewBox="0 0 48 48"><defs><style>.a{fill:none;}.b{fill:#999;}</style></defs><title>Social-View-Star_First-48px</title><rect class="a" width="48" height="48"/><path class="b" d="M24.8,6.5h0M24,8.3l4.2,8.9.6,1.4,1.6.3L40,20.3l-7,7.2-1.1,1.1.2,1.5,1.7,10-8.3-4.6L24,34.7l-1.5.8-8.3,4.6,1.7-10,.2-1.5L15,27.5,8,20.3l9.6-1.4,1.6-.3.6-1.4L24,8.3m0-4.2a2.2,2.2,0,0,0-1.9,1.2l-5,10.6L5.8,17.6a2.1,2.1,0,0,0-1.2,3.5l8.3,8.5L11,41.5a2,2,0,0,0,2,2.4l1-.2,10-5.6,10,5.6,1,.2a2,2,0,0,0,2-2.4L35.1,29.6l8.3-8.5a2.1,2.1,0,0,0-1.2-3.5L30.9,15.9l-5-10.6A2.2,2.2,0,0,0,24,4.1Z"/></svg>