<svg xmlns="http://www.w3.org/2000/svg" viewBox="0 0 48 48"><defs><style>.a{fill:none;}.b{fill:#999;}</style></defs><title>Social-Comment-ProductQuestion-48px</title><rect class="a" width="48" height="48"/><path class="b" d="M24,26a1.5,1.5,0,0,1-1.5-1.5V24a4.8,4.8,0,0,1,2.8-4.3A2.9,2.9,0,0,0,27,17a2.7,2.7,0,0,0-.9-2.1A2.9,2.9,0,0,0,24,14h0a2.9,2.9,0,0,0-3,3,1.5,1.5,0,0,1-3,0,6,6,0,0,1,6-6h0a5.9,5.9,0,0,1,4.2,1.7A6,6,0,0,1,30,17a6.1,6.1,0,0,1-3.4,5.4A1.7,1.7,0,0,0,25.5,24v.5A1.5,1.5,0,0,1,24,26Z"/><rect class="b" x="22.5" y="27.9" width="3" height="3" rx="1.5" ry="1.5"/><path class="b" d="M41,7V34.9H26l-.8.6L19,40V34.9H7V7H41m1-3H6A2,2,0,0,0,4,6V35.9a2,2,0,0,0,2,2H16V42a2,2,0,0,0,2,2,1.9,1.9,0,0,0,1.2-.4L27,37.9H42a2,2,0,0,0,2-2V6a2,2,0,0,0-2-2Z"/></svg>