<svg xmlns="http://www.w3.org/2000/svg" viewBox="0 0 48 48"><defs><style>.a{fill:none;}.b{fill:#999;}</style></defs><title>Social-View-Like-48px</title><rect class="a" width="48" height="48"/><path class="b" d="M42.2,17.4A6.2,6.2,0,0,0,38.3,16H31.4l1.5-6.1a5,5,0,0,0-.5-3.8,4.6,4.6,0,0,0-7.6-.2L17.1,16.8a2.1,2.1,0,0,0-1.7-.8H6a2.1,2.1,0,0,0-1.5.7A1.8,1.8,0,0,0,4,18.3l2.6,18a2,2,0,0,0,2,1.7h6.8a2,2,0,0,0,2.1-2h0L19.6,37a10.4,10.4,0,0,0,4.3,1h9.9a5.5,5.5,0,0,0,5.1-3.4l4.7-11A5.4,5.4,0,0,0,42.2,17.4ZM14.4,35H9.5L7.2,19h7.2ZM40.7,22.6,36.1,33.5A2.5,2.5,0,0,1,33.8,35H23.9a6.3,6.3,0,0,1-3-.7l-3.4-1.8v-11L27.3,7.7a1.6,1.6,0,0,1,2.8,1.2l-2,7.6a2,2,0,0,0,2,2.5h8.4a2.5,2.5,0,0,1,2.2,3.6Z"/></svg>