<svg xmlns="http://www.w3.org/2000/svg" viewBox="0 0 48 48"><defs><style>.cls-1{fill:none;}.cls-2{fill:#999;}</style></defs><title>Social_Comment_Question--Article_48px</title><g id="Square"><rect class="cls-1" width="48" height="48"/></g><g id="Icon"><path class="cls-2" d="M24,26a1.5,1.5,0,0,1-1.5-1.5V24a4.84,4.84,0,0,1,2.81-4.32,3,3,0,0,0,.79-4.8A3,3,0,0,0,24,14h0a3,3,0,0,0-3,3,1.5,1.5,0,0,1-3,0,6,6,0,0,1,6-6h0a6.08,6.08,0,0,1,6,6,6,6,0,0,1-3.37,5.4A1.83,1.83,0,0,0,25.5,24v.5A1.5,1.5,0,0,1,24,26Z"/><rect class="cls-2" x="22.5" y="27.92" width="3" height="3" rx="1.5"/><path class="cls-2" d="M41,7v28H26l-.78.58L19,40V34.92H7V7H41m1-3H6A2,2,0,0,0,4,6v30a2,2,0,0,0,2,2H16V42a2,2,0,0,0,2,2,2,2,0,0,0,1.17-.39L27,37.92H42a2,2,0,0,0,2-2V6a2,2,0,0,0-2-2Z"/></g></svg>