<svg xmlns="http://www.w3.org/2000/svg" viewBox="0 0 48 48"><defs><style>.a{fill:none;}.b{fill:#999;}</style></defs><title>Store-StoreLM-48px</title><rect class="a" width="48" height="48"/><path class="b" d="M30.2,21.8l-3.3-3.4-2.1-2a1,1,0,0,0-1.6,0l-2.1,2-3.3,3.4-1.5,1.4a1.1,1.1,0,0,0,.8,1.9H30.9a1.1,1.1,0,0,0,.8-1.9Z"/><path class="b" d="M42,16.1H34L25.4,7.6a1.9,1.9,0,0,0-2.8,0L14,16.1H6a2,2,0,0,0-2,2V39a2,2,0,0,0,2,2H42a2,2,0,0,0,2-2V18.1A2,2,0,0,0,42,16.1ZM30,38H25V31h5Zm-7,0H18V31h5Zm18,0H32V31a2,2,0,0,0-2-2H18a2,2,0,0,0-2,2v7H7V19.1h8.3l.8-.9L24,10.4l7.9,7.8.8.9H41Z"/></svg>