<svg xmlns="http://www.w3.org/2000/svg" viewBox="0 0 48 48"><defs><style>.cls-1{fill:none;}.cls-2{fill:#999;}.cls-3{fill:#fff;}</style></defs><title>Store_StoreLocation--Filled_48px</title><g id="Square"><rect class="cls-1" width="48" height="48"/></g><g id="Icon"><path class="cls-2" d="M40.5,20.51a16.5,16.5,0,1,0-33,0h0a13.26,13.26,0,0,0,1.35,5.27c.12.27.25.54.38.81.27.54.56,1.09.87,1.63a46.78,46.78,0,0,0,2.66,4.1c.59.81,1.19,1.61,1.81,2.38s1.24,1.54,1.86,2.27c.41.49.82,1,1.23,1.42,1.41,1.59,2.75,3,3.83,4.1l.85.86a2.34,2.34,0,0,0,3.32,0l.85-.86c1.08-1.1,2.41-2.51,3.83-4.1.4-.46.82-.93,1.23-1.42.62-.73,1.24-1.49,1.86-2.27s1.22-1.57,1.81-2.38a46.78,46.78,0,0,0,2.66-4.1c.31-.54.6-1.09.87-1.63.13-.27.26-.54.38-.81a13.26,13.26,0,0,0,1.35-5.27Z"/><path class="cls-3" d="M30.22,18.7l-3.35-3.35L24.8,13.28a1.13,1.13,0,0,0-1.58,0l-2.07,2.07L17.8,18.7l-1.45,1.46a1.11,1.11,0,0,0,.79,1.9H30.88a1.11,1.11,0,0,0,.79-1.9Z"/></g></svg>