<svg xmlns="http://www.w3.org/2000/svg" viewBox="0 0 48 48"><defs><style>.a{fill:none;}.b{fill:#999;}</style></defs><title>Store-StoreLocation-48px</title><rect class="a" width="48" height="48"/><path class="b" d="M24,4A16.5,16.5,0,0,0,7.5,20.5c0,7.3,10.7,18.7,14.8,22.8a2.4,2.4,0,0,0,3.4,0c4.1-4.1,14.8-15.5,14.8-22.8A16.5,16.5,0,0,0,24,4Zm0,36.7c-8.3-8.4-13.5-16.1-13.5-20.2a13.5,13.5,0,0,1,27,0C37.5,24.6,32.3,32.3,24,40.7Z"/><path class="b" d="M30.2,18.7l-3.3-3.3-2.1-2.1a1.2,1.2,0,0,0-1.6,0l-2,2.1-3.4,3.3-1.4,1.5a1.1,1.1,0,0,0,.8,1.9H30.9a1.1,1.1,0,0,0,.8-1.9Z"/></svg>