<svg xmlns="http://www.w3.org/2000/svg" viewBox="0 0 48 48"><defs><style>.cls-1{fill:none;}.cls-2{fill:#999;}</style></defs><title>Store_StoreLM_48px</title><g id="Square"><rect class="cls-1" width="48" height="48"/></g><g id="Icon"><path class="cls-2" d="M30.21,21.77l-3.35-3.34-2.07-2.06a1.13,1.13,0,0,0-1.58,0l-2.07,2.06-3.35,3.34-1.45,1.45a1.11,1.11,0,0,0,.79,1.9H30.87a1.11,1.11,0,0,0,.79-1.9Z"/><path class="cls-2" d="M42,16.09H34L25.41,7.58a2,2,0,0,0-2.82,0L14,16.09H6a2,2,0,0,0-2,2V39a2,2,0,0,0,2,2H42a2,2,0,0,0,2-2V18.08A2,2,0,0,0,42,16.09ZM30,38H25V31h5Zm-7,0H18V31h5Zm18,0H32V31a2,2,0,0,0-2-2H18a2,2,0,0,0-2,2v7H7V19.08h8.26l.88-.88L24,10.4l7.86,7.8.88.88H41Z"/></g></svg>