<svg xmlns="http://www.w3.org/2000/svg" viewBox="0 0 48 48"><defs><style>.cls-1{fill:#999;}</style></defs><title>Plan de travail 11 copie</title><g id="Grille_secondaire" data-name="Grille secondaire"><path class="cls-1" d="M24,20.17A15.11,15.11,0,0,0,14,24a1,1,0,0,0-.09,1.41,1,1,0,0,0,1.41.09,13.17,13.17,0,0,1,17.42,0,1,1,0,0,0,.66.25,1,1,0,0,0,.75-.34A1,1,0,0,0,34,24,15.11,15.11,0,0,0,24,20.17Z"/><path class="cls-1" d="M24,24.42a10.86,10.86,0,0,0-7.21,2.72,1,1,0,0,0,1.32,1.5,8.92,8.92,0,0,1,11.78,0,1,1,0,0,0,.66.25,1,1,0,0,0,.75-.34,1,1,0,0,0-.09-1.41A10.86,10.86,0,0,0,24,24.42Z"/><path class="cls-1" d="M24,28.67a6.59,6.59,0,0,0-4.71,1.95,1,1,0,0,0,0,1.41,1,1,0,0,0,.7.3,1,1,0,0,0,.71-.3A4.63,4.63,0,0,1,24,30.67a4.68,4.68,0,0,1,3.07,1.15,1,1,0,0,0,1.32-1.51A6.67,6.67,0,0,0,24,28.67Z"/><path class="cls-1" d="M24,33.21a1.42,1.42,0,1,0,1.42,1.41A1.42,1.42,0,0,0,24,33.21Z"/><path class="cls-1" d="M42.71,20.49,41,18.88V9a2,2,0,0,0-2-2H33.21a2,2,0,0,0-2,2v.69L26.06,4.82l-.68-.65a2,2,0,0,0-2.75,0l-.69.65L5.29,20.49a3.87,3.87,0,0,0-1.16,3.74A3.7,3.7,0,0,0,7,26.93V42a2,2,0,0,0,2,2H39a2,2,0,0,0,2-2V26.93a3.71,3.71,0,0,0,2.87-2.7A3.85,3.85,0,0,0,42.71,20.49ZM40.28,24H39a1,1,0,0,0-1,1V41H10V25a1,1,0,0,0-1-1H7.72a.7.7,0,0,1-.48-1.22L24,7l8.52,8.07a1,1,0,0,0,1.69-.73V10H38V20.18l2.76,2.6A.7.7,0,0,1,40.28,24Z"/></g></svg>