<svg xmlns="http://www.w3.org/2000/svg" viewBox="0 0 48 48"><defs><style>.cls-1{fill:none;}.cls-2{fill:#999;}</style></defs><title>Universe_Bathroom_48px</title><g id="Square"><rect class="cls-1" width="48" height="48"/></g><g id="Icon"><path class="cls-2" d="M41.5,28V6a2,2,0,0,0-2-2h-9a2,2,0,0,0-2,2v4a4.5,4.5,0,0,0-2.82,3,1,1,0,0,0,1,1.26h6.7a1,1,0,0,0,1-1.26,4.5,4.5,0,0,0-2.82-3V7h7V28H6a2,2,0,0,0-2,2v1.5a9.51,9.51,0,0,0,6.75,9.09L9.24,42.35a1,1,0,0,0,1.52,1.3L13.05,41l.45,0h21L35,41l2.29,2.67a1,1,0,0,0,1.52-1.3l-1.51-1.76A9.51,9.51,0,0,0,44,31.5V30a2,2,0,0,0-2-2ZM7,31H41v.5a6.69,6.69,0,0,1-.18,1.5H7.18A6.69,6.69,0,0,1,7,31.5Zm27.5,7h-21A6.5,6.5,0,0,1,8,35H40A6.5,6.5,0,0,1,34.5,38Z"/></g></svg>