<svg xmlns="http://www.w3.org/2000/svg" viewBox="0 0 48 48"><defs><style>.cls-1{fill:none;}.cls-2{fill:#999;}</style></defs><title>Universe_Paint_48px</title><g id="Square"><rect class="cls-1" width="48" height="48"/></g><g id="Icon"><path class="cls-2" d="M35,8.5V6a2,2,0,0,0-2-2H9A2,2,0,0,0,7,6v8a2,2,0,0,0,2,2H33a2,2,0,0,0,2-2V11.5h3v7.55a1.49,1.49,0,0,1-1.2,1.47l-14.7,3A4.5,4.5,0,0,0,18.5,28V32H18a2,2,0,0,0-2,2v8a2,2,0,0,0,2,2h4a2,2,0,0,0,2-2V34a2,2,0,0,0-2-2h-.5V28a1.49,1.49,0,0,1,1.2-1.47l14.71-3A4.5,4.5,0,0,0,41,19.05V10.5a2,2,0,0,0-2-2ZM32,13H10V7H32ZM21,41H19V35h2Z"/></g></svg>