<svg xmlns="http://www.w3.org/2000/svg" viewBox="0 0 48 48"><defs><style>.cls-1{fill:none;}.cls-2{fill:#999;}</style></defs><title>Universe_ConnectedHome_48px</title><g id="Square"><rect class="cls-1" width="48" height="48"/></g><g id="Icon"><path class="cls-2" d="M24,20.17A15.11,15.11,0,0,0,14,24a1,1,0,0,0-.09,1.41,1,1,0,0,0,1.41.09,13.17,13.17,0,0,1,17.42,0,1,1,0,0,0,.66.25,1,1,0,0,0,.75-.34A1,1,0,0,0,34,24,15.11,15.11,0,0,0,24,20.17Z"/><path class="cls-2" d="M24,24.42a10.86,10.86,0,0,0-7.21,2.72,1,1,0,0,0,1.32,1.5,8.92,8.92,0,0,1,11.78,0,1,1,0,0,0,.66.25,1,1,0,0,0,.66-1.75A10.86,10.86,0,0,0,24,24.42Z"/><path class="cls-2" d="M24,28.67a6.59,6.59,0,0,0-4.71,1.95,1,1,0,0,0,0,1.41,1,1,0,0,0,.7.3,1,1,0,0,0,.71-.3A4.63,4.63,0,0,1,24,30.67a4.68,4.68,0,0,1,3.07,1.15,1,1,0,0,0,1.41-.09,1,1,0,0,0-.09-1.42A6.67,6.67,0,0,0,24,28.67Z"/><circle class="cls-2" cx="24" cy="34.5" r="1.5"/><path class="cls-2" d="M43.18,21.87,40,18.71V12a3,3,0,0,0-3-3H33a3,3,0,0,0-2,.75L26.12,4.87A3,3,0,0,0,24,4a3,3,0,0,0-2.12.88l-17.06,17A3,3,0,0,0,6.94,27h1.6V41a3,3,0,0,0,3,3H36.46a3,3,0,0,0,3-3V27h1.6a3,3,0,0,0,2.12-5.13ZM36.46,24V41H11.54V24H6.94L24,7l9,9V12h4v8L41.06,24Z"/></g></svg>