<svg xmlns="http://www.w3.org/2000/svg" viewBox="0 0 48 48"><defs><style>.cls-1{fill:none;}.cls-2{fill:#999;}</style></defs><title>Universe_Kitchen2_48px</title><g id="Square"><rect class="cls-1" width="48" height="48"/></g><g id="Icon"><path class="cls-2" d="M42,4H6A2,2,0,0,0,4,6V42a2,2,0,0,0,2,2H42a2,2,0,0,0,2-2V6A2,2,0,0,0,42,4ZM41,7v5H7V7ZM7,41V15H41V41Z"/><path class="cls-2" d="M35,21H13a2,2,0,0,0-2,2V35a2,2,0,0,0,2,2H35a2,2,0,0,0,2-2V23A2,2,0,0,0,35,21Zm0,14H13V23H35Z"/><path class="cls-2" d="M36,17H12a1,1,0,0,0,0,2H36a1,1,0,0,0,0-2Z"/><path class="cls-2" d="M22,10.5h4a1,1,0,0,0,0-2H22a1,1,0,0,0,0,2Z"/><circle class="cls-2" cx="11" cy="9.5" r="1"/><circle class="cls-2" cx="17" cy="9.5" r="1"/><circle class="cls-2" cx="31" cy="9.5" r="1"/><circle class="cls-2" cx="37" cy="9.5" r="1"/></g></svg>