<svg xmlns="http://www.w3.org/2000/svg" viewBox="0 0 48 48"><defs><style>.cls-1{fill:none;}.cls-2{fill:#999;}</style></defs><title>Universe_Carpentry_48px</title><g id="Square"><rect class="cls-1" width="48" height="48"/></g><g id="Icon"><path class="cls-2" d="M37.5,26V21a2,2,0,0,0-2-2h-4V14a2,2,0,0,0-2-2h-11a2,2,0,0,0-2,2v5h-4a2,2,0,0,0-2,2v5h-4a2,2,0,0,0-2,2v6a2,2,0,0,0,2,2h35a2,2,0,0,0,2-2V28a2,2,0,0,0-2-2Zm-3-4v4h-9V22h9Zm-15-7h9v4h-9Zm-6,7h9v4h-9Zm3,11h-9V29h9Zm12,0h-9V29h9Zm12,0h-9V29h9Z"/></g></svg>