<svg xmlns="http://www.w3.org/2000/svg" viewBox="0 0 48 48"><defs><style>.cls-1{fill:none;}.cls-2{fill:#999;}</style></defs><title>Universe_Kitchen_48px</title><g id="Square"><rect class="cls-1" width="48" height="48"/></g><g id="Icon"><path class="cls-2" d="M36.58,17.52A1.5,1.5,0,0,0,38,15.9,13.05,13.05,0,0,0,22.12,4.32,13.26,13.26,0,0,0,12,17.37V32h0a2,2,0,0,0-2,2v8a2,2,0,0,0,2,2h3a2,2,0,0,0,2-2v-.5h4a2,2,0,0,0,2-2v-3a2,2,0,0,0-2-2h-.32l3.1-3.88a1,1,0,1,0-1.56-1.24l-4,5s0,.08-.07.12H17V34a2,2,0,0,0-2-2h0V17.34A10.25,10.25,0,0,1,23,7.21a10,10,0,0,1,12,8.94A1.51,1.51,0,0,0,36.58,17.52ZM21,36.5v3H15V42H12V34h3v2.5Z"/><path class="cls-2" d="M37.32,21.93l-.82-1.19-.82,1.19c-.66.95-2.18,3.29-2.18,4.57a3,3,0,0,0,6,0C39.5,25.22,38,22.88,37.32,21.93ZM36.5,27.5a1,1,0,0,1-1-1,7.48,7.48,0,0,1,1-2.15,7.36,7.36,0,0,1,1,2.15A1,1,0,0,1,36.5,27.5Z"/></g></svg>