<svg xmlns="http://www.w3.org/2000/svg" viewBox="0 0 48 48"><defs><style>.cls-1{fill:none;}.cls-2{fill:#999;}</style></defs><title>Universe_MakeIt_48px</title><g id="Square"><rect class="cls-1" width="48" height="48"/></g><g id="Icon"><path class="cls-2" d="M38.23,19.93a.44.44,0,1,1,.43.45A.43.43,0,0,1,38.23,19.93ZM38.34,22H39v6.31h-.62Z"/><path class="cls-2" d="M41.39,26.73V22.61H40.24V22h1.15V20.15L42,20v2h1.66v.57H42v4c0,.9.3,1.28,1,1.28a1.9,1.9,0,0,0,.92-.27l.11.59a2.47,2.47,0,0,1-1.1.29C41.93,28.5,41.39,27.92,41.39,26.73Z"/><polygon class="cls-2" points="7.95 24.87 5.23 19.72 4 19.72 4 28.34 5.15 28.34 5.15 21.8 7.47 26.32 8.43 26.32 10.77 21.8 10.77 28.34 11.92 28.34 11.92 19.72 10.67 19.72 7.95 24.87"/><polygon class="cls-2" points="27.13 19.72 25.74 19.72 22.51 23.68 22.51 19.72 21.36 19.72 21.36 28.34 22.51 28.34 22.51 25.48 23.29 24.5 26.12 28.34 27.55 28.34 24.05 23.55 27.13 19.72"/><polygon class="cls-2" points="29.97 27.31 29.97 24.52 33.24 24.52 33.24 23.5 29.97 23.5 29.97 20.75 33.72 20.75 33.72 19.72 28.82 19.72 28.82 28.34 34.05 28.34 34.05 27.31 29.97 27.31"/><polygon class="cls-2" points="20.07 22.17 18.48 23.19 17.37 19.72 15.92 19.72 13.16 28.34 14.33 28.34 16.6 20.96 17.49 23.82 15.61 25.01 16.22 26 17.85 24.97 18.9 28.34 20.12 28.34 18.84 24.33 20.67 23.17 20.07 22.17"/></g></svg>