<svg xmlns="http://www.w3.org/2000/svg" viewBox="0 0 48 48"><defs><style>.cls-1{fill:none;}.cls-2{fill:#999;}</style></defs><title>Universe_Garden1_48px</title><g id="Square"><rect class="cls-1" width="48" height="48"/></g><g id="Icon"><path class="cls-2" d="M20.71,27.38A9,9,0,0,1,16,23.09,1,1,0,0,0,14.2,24,11,11,0,0,0,20,29.24a.92.92,0,0,0,.36.07,1,1,0,0,0,.37-1.93Z"/><path class="cls-2" d="M41.56,41.44l-9.35-9.36a15.24,15.24,0,0,0,7-12.83c0-.08,0-.16,0-.29a1.5,1.5,0,0,0-1.5-1.46H10.26A1.61,1.61,0,0,0,8.76,19a1.93,1.93,0,0,0,0,.24,15.24,15.24,0,0,0,7,12.83L6.44,41.44a1.49,1.49,0,0,0,0,2.12,1.5,1.5,0,0,0,2.12,0L18.62,33.5a14.76,14.76,0,0,0,3.88.92V42.5a1.5,1.5,0,0,0,3,0V34.42a14.76,14.76,0,0,0,3.88-.92L39.44,43.56a1.5,1.5,0,0,0,2.12,0A1.49,1.49,0,0,0,41.56,41.44ZM11.82,20.5H36.19a12.25,12.25,0,0,1-24.37,0Z"/><path class="cls-2" d="M23.19,14.41A1,1,0,0,0,24,16a1,1,0,0,0,.81-.41,5.56,5.56,0,0,0,0-6.18,3.52,3.52,0,0,1,0-3.82,1,1,0,0,0-1.62-1.18,5.56,5.56,0,0,0,0,6.18A3.52,3.52,0,0,1,23.19,14.41Z"/><path class="cls-2" d="M18.22,12.37a1,1,0,0,0,1.56,1.26,3.51,3.51,0,0,0,0-4.26,1.47,1.47,0,0,1,0-1.74,1,1,0,1,0-1.56-1.26,3.51,3.51,0,0,0,0,4.26A1.47,1.47,0,0,1,18.22,12.37Z"/><path class="cls-2" d="M28.22,12.37a1,1,0,0,0,1.56,1.26,3.51,3.51,0,0,0,0-4.26,1.47,1.47,0,0,1,0-1.74,1,1,0,1,0-1.56-1.26,3.51,3.51,0,0,0,0,4.26A1.47,1.47,0,0,1,28.22,12.37Z"/></g></svg>