<svg xmlns="http://www.w3.org/2000/svg" viewBox="0 0 48 48"><defs><style>.cls-1{fill:none;}.cls-2{fill:#999;}</style></defs><title>Universe_ConnectedHome_48px</title><g id="Square"><rect class="cls-1" width="48" height="48"/></g><g id="Icon"><path class="cls-2" d="M14,25a1,1,0,0,0-.09,1.41,1,1,0,0,0,1.41.09,13.17,13.17,0,0,1,17.42,0,1,1,0,0,0,.66.25,1,1,0,0,0,.75-.34A1,1,0,0,0,34,25,15.17,15.17,0,0,0,14,25Z"/><path class="cls-2" d="M24,25.42a10.86,10.86,0,0,0-7.21,2.72,1,1,0,0,0,1.32,1.5,8.92,8.92,0,0,1,11.78,0,1,1,0,0,0,.66.25,1,1,0,0,0,.66-1.75A10.86,10.86,0,0,0,24,25.42Z"/><path class="cls-2" d="M24,29.67a6.59,6.59,0,0,0-4.71,1.95,1,1,0,0,0,0,1.41,1,1,0,0,0,.7.3,1,1,0,0,0,.71-.3A4.63,4.63,0,0,1,24,31.67a4.68,4.68,0,0,1,3.07,1.15,1,1,0,0,0,1.41-.09,1,1,0,0,0-.09-1.42A6.67,6.67,0,0,0,24,29.67Z"/><circle class="cls-2" cx="24" cy="35.5" r="1.5"/><path class="cls-2" d="M43.56,22.94,25.06,4.44a1.49,1.49,0,0,0-2.12,0L4.44,22.94a1.5,1.5,0,0,0,2.12,2.12L7,24.62V42.5A1.5,1.5,0,0,0,8.5,44h31A1.5,1.5,0,0,0,41,42.5V24.62l.44.44a1.5,1.5,0,0,0,2.12,0A1.49,1.49,0,0,0,43.56,22.94ZM38,41H10V21.62l14-14,14,14Z"/></g></svg>