<svg xmlns="http://www.w3.org/2000/svg" viewBox="0 0 48 48"><defs><style>.cls-1{fill:none;}.cls-2{fill:#999;}</style></defs><title>Universe_Floor_48px</title><g id="Square"><rect class="cls-1" width="48" height="48"/></g><g id="Icon"><path class="cls-2" d="M26,9V20a2,2,0,0,0,2,2H39a2,2,0,0,0,2-2V9a2,2,0,0,0-2-2H28A2,2,0,0,0,26,9ZM38,19H29V10h9Z"/><path class="cls-2" d="M20,14H9a2,2,0,0,0-2,2V39a2,2,0,0,0,2,2H32a2,2,0,0,0,2-2V28a2,2,0,0,0-2-2H22V16A2,2,0,0,0,20,14ZM19,38H10V29h9Zm12-9v9H22V29ZM10,26V17h9v9Z"/></g></svg>