<svg xmlns="http://www.w3.org/2000/svg" viewBox="0 0 48 48"><defs><style>.a{fill:none;}.b{fill:#999;}</style></defs><title>User-Account-Profile_View-48px</title><rect class="a" width="48" height="48"/><path class="b" d="M24,25A10.5,10.5,0,1,1,34.5,14.5,10.5,10.5,0,0,1,24,25ZM24,7a7.5,7.5,0,1,0,7.5,7.5A7.6,7.6,0,0,0,24,7Z"/><path class="b" d="M33.1,27.8a2.6,2.6,0,0,0-1.5.2,15.4,15.4,0,0,1-15.2,0,2.6,2.6,0,0,0-1.5-.2L8.5,29.5A1.9,1.9,0,0,0,7,31.4V42a2,2,0,0,0,2,2H39a2,2,0,0,0,2-2V31.4a1.9,1.9,0,0,0-1.5-1.9ZM38,41H10V32.2l5.3-1.4a18.5,18.5,0,0,0,17.4,0L38,32.2Z"/></svg>