<svg xmlns="http://www.w3.org/2000/svg" viewBox="0 0 48 48"><defs><style>.cls-1{fill:none;}.cls-2{fill:#999;}</style></defs><title>User_Situation_Owner_48px</title><g id="Square"><rect class="cls-1" width="48" height="48"/></g><g id="Icon"><path class="cls-2" d="M43.64,32.31a4.16,4.16,0,0,0-5.37-2.21L33,32.23A4,4,0,0,0,29,29H18.86a18.75,18.75,0,0,0-8.28,1.94L7.83,32.3A1.5,1.5,0,0,0,9.17,35l2.74-1.36a15.7,15.7,0,0,1,7-1.63H29a1,1,0,0,1,0,2H23.18a1.5,1.5,0,0,0,0,3H29A4,4,0,0,0,31.72,36l7.67-3.07a1.18,1.18,0,0,1,1.51.63,1.25,1.25,0,0,1,0,.95,1.22,1.22,0,0,1-.66.66L26.47,40.64a3.92,3.92,0,0,1-1.65.36H16.18a1.5,1.5,0,0,0,0,3h8.64a6.65,6.65,0,0,0,2.83-.61l13.71-5.48a4.1,4.1,0,0,0,2.32-2.3A4.16,4.16,0,0,0,43.64,32.31Z"/><path class="cls-2" d="M14.5,22a7.52,7.52,0,0,0,7.35-6H39.5a1.5,1.5,0,0,0,0-3H21.85a7.5,7.5,0,1,0-7.35,9Zm0-12A4.5,4.5,0,1,1,10,14.5,4.51,4.51,0,0,1,14.5,10Z"/><path class="cls-2" d="M39.5,18h-6a1.5,1.5,0,0,0,0,3h6a1.5,1.5,0,0,0,0-3Z"/></g></svg>