<svg xmlns="http://www.w3.org/2000/svg" viewBox="0 0 48 48"><defs><style>.cls-1{fill:none;}.cls-2{fill:#999;}</style></defs><title>User_Account_Profile--View_48px</title><g id="Square"><rect class="cls-1" width="48" height="48"/></g><g id="Icon"><path class="cls-2" d="M24,26A10.25,10.25,0,1,0,13.75,15.75,10.26,10.26,0,0,0,24,26ZM24,8.5a7.25,7.25,0,1,1-7.25,7.25A7.26,7.26,0,0,1,24,8.5Z"/><path class="cls-2" d="M37.93,29.89l-6.35-2.12-.58.34a14.15,14.15,0,0,1-14,0l-.58-.34-6.35,2.12A4.51,4.51,0,0,0,7,34.16v6.27l.83.41C8.09,41,14.26,44,24,44s15.91-3,16.17-3.16l.83-.41V34.16A4.51,4.51,0,0,0,37.93,29.89ZM38,38.52A38.45,38.45,0,0,1,24,41a38.6,38.6,0,0,1-14-2.48V34.16a1.49,1.49,0,0,1,1-1.42L16.1,31a17.15,17.15,0,0,0,15.8,0L37,32.74a1.48,1.48,0,0,1,1,1.42Z"/></g></svg>