<svg xmlns="http://www.w3.org/2000/svg" viewBox="0 0 48 48"><defs><style>.a{fill:none;}.b{fill:#999;}</style></defs><title>User-Contact-Phone-48px</title><rect class="a" width="48" height="48"/><path class="b" d="M33.6,44c-6,0-13.5-3.5-19.8-9.8A33,33,0,0,1,4.7,19.1c-1.4-5.4-.6-10,2.4-13A7.3,7.3,0,0,1,9.7,4.3a4.2,4.2,0,0,1,4.9,1.4l4.6,6.6a3.6,3.6,0,0,1-.8,4.9l-1,.7a2.3,2.3,0,0,0-.7,1.8s.7,3.4,4.5,7.1,7.1,4.5,7.2,4.5a2.2,2.2,0,0,0,1.7-.7l.7-1a3.6,3.6,0,0,1,4.9-.8l6.6,4.6a4.2,4.2,0,0,1,1.4,4.9h0a7.3,7.3,0,0,1-1.8,2.6A11.4,11.4,0,0,1,33.6,44ZM10.9,7A6.3,6.3,0,0,0,9.2,8.2C7,10.4,6.4,14,7.6,18.4a31.3,31.3,0,0,0,8.3,13.7c8.3,8.3,19.2,11.3,23.9,6.7a5,5,0,0,0,1.1-1.6,1.2,1.2,0,0,0-.3-1.3L34,31.3a.6.6,0,0,0-.8.1l-.7.9a5,5,0,0,1-4.7,1.9c-.1,0-4.3-.8-8.8-5.3s-5.2-8.5-5.2-8.7a5.2,5.2,0,0,1,1.8-4.7l1-.7a.6.6,0,0,0,.1-.8L12.1,7.4A1.4,1.4,0,0,0,10.9,7ZM42.3,37.7Z"/></svg>