<svg xmlns="http://www.w3.org/2000/svg" viewBox="0 0 48 48"><defs><style>.a{fill:none;}.b{fill:#999;}</style></defs><title>User-Card-IDCard-48px</title><rect class="a" width="48" height="48"/><path class="b" d="M41,13V35H7V13H41m1-3H6a2,2,0,0,0-2,2V36a2,2,0,0,0,2,2H42a2,2,0,0,0,2-2V12a2,2,0,0,0-2-2Z"/><path class="b" d="M22.9,32h0a1.1,1.1,0,0,1-1-.9,5,5,0,0,0-9.8,0,1.1,1.1,0,0,1-1,.9h0a1,1,0,0,1-1-1.1,7,7,0,0,1,13.8,0A1,1,0,0,1,22.9,32Z"/><path class="b" d="M17,25a4.5,4.5,0,1,1,4.5-4.5A4.5,4.5,0,0,1,17,25Zm0-7a2.5,2.5,0,1,0,2.5,2.5A2.5,2.5,0,0,0,17,18Z"/><rect class="b" x="26" y="17" width="12" height="2" rx="1" ry="1"/><rect class="b" x="26" y="22" width="12" height="2" rx="1" ry="1"/></svg>