<svg xmlns="http://www.w3.org/2000/svg" viewBox="0 0 48 48"><defs><style>.cls-1{fill:none;}.cls-2{fill:#999;}</style></defs><title>User_Contact_Mail_48px</title><g id="Square"><rect class="cls-1" width="48" height="48"/></g><g id="Icon"><path class="cls-2" d="M38,13V9a2,2,0,0,0-2-2H12a2,2,0,0,0-2,2v4H6a2,2,0,0,0-2,2V39a2,2,0,0,0,2,2H42a2,2,0,0,0,2-2V15a2,2,0,0,0-2-2ZM17.49,21h13L24,25.21ZM41,17.79V36.21L26.76,27ZM38.24,16l-.24.15V16ZM35,10v8.1L32,20s0,0,0,0a1,1,0,0,0-1-1H17a1,1,0,0,0-1,1s0,0,0,0L13,18.1V10ZM10,16.15,9.76,16H10ZM7,17.79,38.24,38H7Z"/><path class="cls-2" d="M17,15H31a1,1,0,0,0,0-2H17a1,1,0,0,0,0,2Z"/></g></svg>