<svg xmlns="http://www.w3.org/2000/svg" viewBox="0 0 192 192"><defs><style>.cls-1{fill:none;}.cls-2{fill:#f59e00;}</style></defs><title>User_Payment_Monochrome_LM_48px</title><g id="Square"><rect class="cls-1" width="192" height="192"/></g><g id="Card"><path class="cls-2" d="M143.2,102.88V102h-.36v-.2h1v.2h-.36v.88Zm1.84,0v-.76l-.24.64h-.28l-.24-.64v.76H144V101.8h.4l.28.68.24-.68h.4v1.08Z"/><polygon points="58.24 123.24 133.76 123.24 96 85.32 58.24 123.24"/><polygon points="56.6 121.56 62.44 115.72 60.48 113.76 56.8 117.44 50.16 110.76 48 112.96 56.6 121.56"/><polyline points="58.84 105.6 60.32 107.08 63.32 104.04 65.08 105.8 62.04 108.84 63.92 110.72 67.68 106.96 69.4 108.72 63.48 114.64 54.92 106.04 60.84 100.08 62.56 101.84 58.84 105.6"/><path d="M78.2,99.88l-5.84-1.64h0a3.68,3.68,0,0,0-.8-4.2,3.53,3.53,0,0,0-4.92.24h0l-4.32,4.36,8.56,8.64,2.2-2.2-7-7,1.4-1.4a1.56,1.56,0,1,1,2.2,2.2l-1.28,1.28,7.44,2.12Z"/><path d="M74.2,86.28a5.82,5.82,0,0,1,8.72.12c2.48,2.56,2.8,6.08.12,8.76a6.27,6.27,0,0,1-8.84-8.88ZM75.88,88c-1.36,1.36-.88,3,.76,4.72s3.32,2.12,4.68.72.92-3-.76-4.68S77.24,86.64,75.88,88Z"/><polygon points="85.56 81.76 83.96 76.88 86.48 74.32 88.64 82.68 92 86.04 89.8 88.24 86.44 84.88 78.48 82.36 80.88 79.92 85.48 81.72 85.56 81.76"/><polygon points="125.24 111.36 133.84 102.76 131.52 100.44 122.92 109.08 125.24 111.36"/><polygon points="92.44 78.48 99.12 75.28 94.2 80.2 96.16 82.2 104.76 73.6 102.04 70.84 95.56 74 95.56 74 98.8 67.6 96 64.76 87.4 73.4 89.4 75.4 94.32 70.44 91.12 77.16 92.44 78.48"/><polyline points="107.32 79.68 105.88 81.16 109.16 84.48 107.4 86.24 104.12 82.92 102.24 84.8 106.24 88.8 104.52 90.56 98.32 84.36 106.92 75.72 113.08 81.96 111.36 83.72 107.32 79.68"/><polygon points="115.44 101.56 121.28 107.44 123.24 105.48 119.6 101.8 126.24 95.12 124.04 92.96 115.44 101.56"/><polygon points="138.8 107.72 136.04 116.88 136.04 116.88 141.96 110.92 144 112.96 135.4 121.6 132.72 118.88 135.08 109.48 135.08 109.44 129.2 115.36 127.2 113.36 135.8 104.72 138.8 107.72"/><path d="M114,100.12l1.68-5.88h0a3.68,3.68,0,0,0,4.2-.84,3.53,3.53,0,0,0-.24-4.92h0L115,83.84l-8.56,8.64,2.16,2.2,7-7,1.68,1.68a1.56,1.56,0,1,1-2,2.36s-.11-.1-.16-.16L113.48,90l-1.8,7.72Z"/><path d="M170,152H22a6,6,0,0,1-6-6V46a6,6,0,0,1,6-6H170a6,6,0,0,1,6,6V146A6,6,0,0,1,170,152ZM24,144H168V48H24Z"/></g></svg>