<svg xmlns="http://www.w3.org/2000/svg" viewBox="0 0 192 192"><defs><style>.cls-1{fill:none;}</style></defs><title>User_Payment_Monochrome_Paypal_48px</title><g id="Square"><rect class="cls-1" width="192" height="192"/></g><g id="Card"><path d="M109.28,114.36h-5.91a.79.79,0,0,0-.8.69l-2.4,15.15a.5.5,0,0,0,.41.57h3.11a.59.59,0,0,0,.57-.49l.67-4.29a.81.81,0,0,1,.8-.69h1.87c3.89,0,6.14-1.89,6.72-5.6a4.59,4.59,0,0,0-.75-3.82C112.74,114.88,111.26,114.36,109.28,114.36Zm.68,5.53C109.64,122,108,122,106.45,122h-.89l.62-4a.5.5,0,0,1,.49-.4h.4c1.07,0,2.08,0,2.59.6a1.83,1.83,0,0,1,.3,1.64Z"/><path d="M67.13,114.36H61.22a.81.81,0,0,0-.8.69L58,130.2a.5.5,0,0,0,.41.57h2.9a.82.82,0,0,0,.8-.69L62.8,126a.79.79,0,0,1,.8-.69h1.87c3.89,0,6.14-1.89,6.73-5.6a4.59,4.59,0,0,0-.76-3.82C70.6,114.88,69.11,114.36,67.13,114.36Zm.68,5.53C67.49,122,65.87,122,64.3,122h-.89l.63-4a.48.48,0,0,1,.48-.4h.4c1.06,0,2.07,0,2.59.6a1.86,1.86,0,0,1,.3,1.64Z"/><path d="M84.8,119.82H82a.5.5,0,0,0-.49.4l-.12.8-.2-.29c-.61-.89-2-1.2-3.34-1.2a6.51,6.51,0,0,0-6.32,5.69,5.35,5.35,0,0,0,1.06,4.35A4.4,4.4,0,0,0,76.12,131a5.44,5.44,0,0,0,3.92-1.6l-.13.8a.5.5,0,0,0,.42.56H83a.81.81,0,0,0,.8-.7l1.53-9.68a.48.48,0,0,0-.4-.57Zm-3.94,5.51a3.16,3.16,0,0,1-3.2,2.7,2.19,2.19,0,0,1-2.41-2,2.15,2.15,0,0,1,.06-.8,3.16,3.16,0,0,1,3.17-2.72,2.36,2.36,0,0,1,1.89.77,2.43,2.43,0,0,1,.48,2Z"/><path d="M126.94,119.82h-2.83a.49.49,0,0,0-.48.4l-.13.8-.2-.29c-.61-.89-2-1.2-3.34-1.2a6.52,6.52,0,0,0-6.32,5.69,5.35,5.35,0,0,0,1.06,4.35,4.41,4.41,0,0,0,3.56,1.44,5.42,5.42,0,0,0,3.92-1.6l-.13.8a.5.5,0,0,0,.42.56h2.62a.83.83,0,0,0,.8-.7l1.53-9.68a.5.5,0,0,0-.4-.57ZM123,125.33a3.15,3.15,0,0,1-3.2,2.7,2.42,2.42,0,0,1-1.9-.76,2.39,2.39,0,0,1-.44-2,3.17,3.17,0,0,1,3.17-2.73,2.26,2.26,0,0,1,2.37,2.79Z"/><path d="M99.86,119.82H97a.83.83,0,0,0-.68.36L92.4,126l-1.66-5.55a.84.84,0,0,0-.8-.59h-2.8a.49.49,0,0,0-.49.5.77.77,0,0,0,0,.15l3.13,9.2-2.94,4.16a.48.48,0,0,0,.12.68.47.47,0,0,0,.28.09H90.1a.84.84,0,0,0,.68-.35l9.49-13.65a.51.51,0,0,0-.12-.69A.52.52,0,0,0,99.86,119.82Z"/><path d="M130.28,114.77l-2.43,15.43a.51.51,0,0,0,.42.57h2.53a.79.79,0,0,0,.8-.69l2.4-15.16a.49.49,0,0,0-.41-.56h-2.81A.49.49,0,0,0,130.28,114.77Z"/><path d="M114.42,71.86c.6-3.82,0-6.4-2.06-8.76-2.27-2.59-6.36-3.7-11.63-3.7H85.5a2.18,2.18,0,0,0-2.16,1.84L77,101.48a1.3,1.3,0,0,0,1.08,1.5H87.7l2.36-15-.08.47a2.18,2.18,0,0,1,2.15-1.84H96.6c8.78,0,15.66-3.57,17.67-13.89.06-.31.11-.6.15-.89"/><path d="M117.84,72.44h0c-.2-.22-.42-.44-.64-.64l-.06.48v0c0,.31-.11.62-.17,1a26.24,26.24,0,0,1-.69,2.78,10.66,10.66,0,0,1,.29,6.3c-1.41,7.27-5.94,10.8-13.84,10.8h-1.2a3.54,3.54,0,0,0-3.51,3l-.09.51-1.5,9.49-.07.37v.06a.27.27,0,0,1-.26.22H88.76l.17-1H85.6l-.18,1.12A2.81,2.81,0,0,0,87.77,110a2.73,2.73,0,0,0,.41,0h7.93a3.54,3.54,0,0,0,3.51-3l.07-.38,1.51-9.49.1-.5v0a.26.26,0,0,1,.26-.22h1.2c4.44,0,8.11-1,10.9-3,3.14-2.26,5.23-5.79,6.14-10.47C120.68,78.48,120,74.93,117.84,72.44Z"/><path d="M170,152H22a6,6,0,0,1-6-6V46a6,6,0,0,1,6-6H170a6,6,0,0,1,6,6V146A6,6,0,0,1,170,152ZM24,144H168V48H24Z"/></g></svg>