<svg xmlns="http://www.w3.org/2000/svg" viewBox="0 0 48 48"><defs><style>.cls-1{fill:none;}.cls-2{font-size:10px;fill:#b5b5b5;font-family:MyriadPro-Regular, Myriad Pro;letter-spacing:-0.04em;}.cls-3{letter-spacing:-0.02em;}.cls-4{letter-spacing:-0.03em;}.cls-5{letter-spacing:-0.02em;}.cls-6{letter-spacing:-0.02em;}.cls-7{letter-spacing:-0.04em;}.cls-8{letter-spacing:-0.03em;}.cls-9{letter-spacing:-0.03em;}.cls-10{fill:#999;}</style></defs><title>User_Card_IDCard_48px</title><g id="Square"><rect class="cls-1" width="48" height="48"/></g><g id="Name"><text class="cls-2" transform="translate(-12.28 -21.2)">A<tspan class="cls-3" x="5.71" y="0">vis p</tspan><tspan class="cls-4" x="23.63" y="0">r</tspan><tspan class="cls-5" x="26.6" y="0">oduit/ch</tspan><tspan class="cls-6" x="60.75" y="0">a</tspan><tspan class="cls-3" x="65.33" y="0">t/</tspan><tspan class="cls-7"><tspan x="8.22" y="10">P</tspan><tspan class="cls-4" x="13.18" y="10">r</tspan><tspan class="cls-5" x="16.15" y="10">ofil </tspan><tspan class="cls-8" x="30.55" y="10">c</tspan><tspan class="cls-5" x="34.77" y="10">omm</tspan><tspan class="cls-9" x="56.34" y="10">u</tspan><tspan class="cls-5" x="61.57" y="10">.</tspan></tspan></text></g><g id="Icon"><path class="cls-10" d="M41,13V35H7V13H41m1-3H6a2,2,0,0,0-2,2V36a2,2,0,0,0,2,2H42a2,2,0,0,0,2-2V12a2,2,0,0,0-2-2Z"/><path class="cls-10" d="M22.91,32h0a1,1,0,0,1-1-.85,5,5,0,0,0-9.86,0,1,1,0,0,1-1,.85h0a1,1,0,0,1-1-1.14,7,7,0,0,1,13.82,0A1,1,0,0,1,22.91,32Z"/><path class="cls-10" d="M17,25a4.5,4.5,0,1,1,4.5-4.5A4.51,4.51,0,0,1,17,25Zm0-7a2.5,2.5,0,1,0,2.5,2.5A2.5,2.5,0,0,0,17,18Z"/><rect class="cls-10" x="26" y="17" width="12" height="2" rx="1"/><rect class="cls-10" x="26" y="22" width="12" height="2" rx="1"/></g></svg>