<svg xmlns="http://www.w3.org/2000/svg" viewBox="0 0 192 192"><defs><style>.cls-1{fill:none;}</style></defs><title>User_Payment_Monochrome_Oney_48px</title><g id="Square"><rect class="cls-1" width="192" height="192"/></g><g id="Card"><path d="M112.45,82c.87.11,1.74.16,2.59.34A13.64,13.64,0,0,1,125.6,93.38a17.53,17.53,0,0,1,.07,4.52h-21.8a.67.67,0,0,0,0,.2,8.75,8.75,0,0,0,8.85,7.05,9.23,9.23,0,0,0,6.5-2.8.56.56,0,0,1,.37-.17h5.12a.64.64,0,0,1,.18.06c-.23.4-.44.83-.68,1.2A13.85,13.85,0,0,1,99,98.85a14,14,0,0,1,6-14.74A13.16,13.16,0,0,1,111.62,82a3.91,3.91,0,0,0,.48,0ZM104,93.42h16.4c-.07-3-4.05-6.46-7.65-6.64A8.46,8.46,0,0,0,104,93.42Z"/><path d="M55,82c.69.11,1.38.2,2.06.34A14.05,14.05,0,0,1,64.6,105.1a13.13,13.13,0,0,1-11.06,4.82c-6-.28-10.29-3.29-12.58-8.92a23,23,0,0,1-.85-3.55c0-.14,0-.28-.08-.42V94.84a3.38,3.38,0,0,0,.08-.34A13.74,13.74,0,0,1,50.8,82.34c.72-.16,1.46-.24,2.19-.36Zm8,14c-.08-.66-.12-1.31-.25-2a9,9,0,0,0-10.55-7.08,8.62,8.62,0,0,0-1.32.37,9.23,9.23,0,0,0-5.67,11,9,9,0,0,0,10,6.8A9.21,9.21,0,0,0,63,96Z"/><path d="M132.06,118q2-4.86,4-9.72a.8.8,0,0,0,0-.53Q130.66,94.86,125.26,82l0,0h5.6a1.17,1.17,0,0,0,0,.2l7.77,19a2.54,2.54,0,0,0,.14.25l.2-.46c1-2.4,1.95-4.78,2.92-7.15q2.43-6,4.85-11.89H152c0,.15-.08.3-.13.45q-5.25,12.8-10.5,25.6l-4.08,10Z"/><path d="M84.52,82c.7.11,1.41.18,2.1.35,4.44,1.14,7.58,3.73,8.77,8.28a14.32,14.32,0,0,1,.4,3.51c0,5.14,0,10.28,0,15.42v.36H90.74v-.52c0-4.9,0-9.81,0-14.71a14.85,14.85,0,0,0-.36-3.25,5.74,5.74,0,0,0-4.7-4.57,10.5,10.5,0,0,0-4.6,0,6,6,0,0,0-4.94,5.23,17.35,17.35,0,0,0-.21,2.7v15.13H70.88a2,2,0,0,1,0-.24c0-5.38,0-10.77,0-16.15A10.84,10.84,0,0,1,74.74,85a12.32,12.32,0,0,1,6.94-2.91c.16,0,.32-.06.47-.09Z"/><path d="M170,152H22a6,6,0,0,1-6-6V46a6,6,0,0,1,6-6H170a6,6,0,0,1,6,6V146A6,6,0,0,1,170,152ZM24,144H168V48H24Z"/></g></svg>