<svg xmlns="http://www.w3.org/2000/svg" viewBox="0 0 192 192"><defs><style>.cls-1{fill:none;}.cls-2{fill:#f59e00;}</style></defs><title>User_Payment_Monochrome_PayLib_48px</title><g id="Square"><rect class="cls-1" width="192" height="192"/></g><g id="Card"><path class="cls-2" d="M143.2,104.88V104h-.36v-.2h1v.2h-.36v.88Zm1.84,0v-.76l-.24.64h-.28l-.24-.64v.76H144V103.8h.4l.28.68.24-.68h.4v1.08Z"/><path d="M40,84.2h4v1.32h.16a8.52,8.52,0,0,1,4.36-1.6,14.29,14.29,0,0,1,4.52.24,6.19,6.19,0,0,1,4.72,5.08A21.86,21.86,0,0,1,58.12,96a18.77,18.77,0,0,1-.52,3.88,6.33,6.33,0,0,1-5.64,5c-1.72.24-3.44.2-5.2.28V101h1.72a20.94,20.94,0,0,0,2.24-.2,2.48,2.48,0,0,0,2.12-2,10.63,10.63,0,0,0,.4-2.24,27.34,27.34,0,0,0-.12-5.72,9.22,9.22,0,0,0-.24-1,2.56,2.56,0,0,0-2-1.8,8.41,8.41,0,0,0-3.6,0A2.87,2.87,0,0,0,45,90.92c0,.48-.08,1-.08,1.44V112.2H40.48c-.36,0-.44-.08-.44-.4s0-1.36,0-2Z"/><path d="M127.88,71.28v.6c0,8.52,0,17.08,0,25.6a13.3,13.3,0,0,0,.36,3.08,5.33,5.33,0,0,0,4.08,4.08,16.59,16.59,0,0,0,8.28,0,6.69,6.69,0,0,0,5-5.36,22.66,22.66,0,0,0,0-9.56,6.35,6.35,0,0,0-5.92-5.32c-1.6-.2-3.24-.12-4.88-.16h-.16v4h.48c.92,0,1.88,0,2.8,0A2.88,2.88,0,0,1,141,91a22.48,22.48,0,0,1-.08,7.32,2.86,2.86,0,0,1-3,2.72,10.94,10.94,0,0,1-2.8,0c-1.48-.2-2.16-1.08-2.28-2.72,0-.4,0-.8,0-1.2V71.84c7.4,2,13,6.12,16.4,13,4.4,9,3.68,17.8-2.16,25.92a24.37,24.37,0,0,1-22.24,9.92v-29h-5.12v28.08c-8-2.84-13.56-8.08-16.12-16.08s-1-16.36,4.44-23.4h.16V99.32a13,13,0,0,0,.16,2.16,3.86,3.86,0,0,0,3.24,3.36,24.17,24.17,0,0,0,5.12.24v-4.24H114c-.64,0-.88-.24-.92-.88s0-.84,0-1.28c0-7.48,0-15,0-22.44a1,1,0,0,1,.52-1,24.73,24.73,0,0,1,14-4ZM119.32,87a2.45,2.45,0,0,0,2,2.72,5.1,5.1,0,0,0,1.56.08,2.32,2.32,0,0,0,2.24-2.28V86.6a2.43,2.43,0,0,0-2-2.32,5.61,5.61,0,0,0-1.16,0A2.45,2.45,0,0,0,119.32,87Z"/><path d="M81,84.24h4.88v.56c0,4.28,0,8.56,0,12.84a11.21,11.21,0,0,0,.12,1.64,1.79,1.79,0,0,0,1.28,1.44,7.27,7.27,0,0,0,4.52,0,1.91,1.91,0,0,0,1.4-1.84c0-.48.08-.92.08-1.4,0-4.2,0-8.44,0-12.64v-.56H98c0,.16,0,.32,0,.48,0,7.4,0,14.8,0,22.2a10.59,10.59,0,0,1-.24,2.24A3.57,3.57,0,0,1,94.84,112a30.53,30.53,0,0,1-5.12.24v-4h2.64a.79.79,0,0,0,.8-.76V104.8L89.8,105A12.44,12.44,0,0,1,85,104.4,5.63,5.63,0,0,1,81,99.2c0-.76,0-1.52,0-2.28,0-4,0-8.08,0-12.12Z"/><path d="M78.28,84.2V105H73.44v-1a10.16,10.16,0,0,1-1.76.68,11.86,11.86,0,0,1-6.68-.16,6.2,6.2,0,0,1-4.4-5.08,16.45,16.45,0,0,1-.4-3.12,26.43,26.43,0,0,1,.36-6.88c.8-3.48,2.84-5.24,6.4-5.52a15.37,15.37,0,0,1,4.28.24,7.3,7.3,0,0,1,3,1.44V84.2ZM73.44,94.36h0c0-.56,0-1.12,0-1.68s0-1.12,0-1.68c-.12-1.8-1-2.84-2.6-3A17.31,17.31,0,0,0,68,88a2.73,2.73,0,0,0-2.52,2.12,10.62,10.62,0,0,0-.24,1.12c0,1.84-.12,3.72-.12,5.56a9.1,9.1,0,0,0,.4,2.32A2.48,2.48,0,0,0,67.64,101a11,11,0,0,0,2.8.08,3.15,3.15,0,0,0,3-3.44Z"/><path d="M170,152H22a6,6,0,0,1-6-6V46a6,6,0,0,1,6-6H170a6,6,0,0,1,6,6V146A6,6,0,0,1,170,152ZM24,144H168V48H24Z"/></g></svg>