<svg xmlns="http://www.w3.org/2000/svg" viewBox="0 0 192 192"><defs><style>.cls-1{fill:none;}</style></defs><title>User_Payment_Monochrome_AmericanExpress_48px</title><g id="Square"><rect class="cls-1" width="192" height="192"/></g><g id="Card"><path d="M138.64,75.34v2.17l-1.24-2.17h-9v2.17l-1.12-2.17H115.05a10.55,10.55,0,0,0-5.29,1.09V75.34h-8.44v1.09a5.1,5.1,0,0,0-3.56-1.09H67L65,80.1l-2.14-4.76H53.14v2.17l-1.09-2.17H43.8l-.15.67-.41.9L37.58,90.19,36,93.86h9.38l1.2-2.92h2.77l1.2,2.92H61.2V91.61l.94,2.25h5.55l.94-2.28v2.28H95.1V89h.49c.37,0,.49,0,.49.64v4.2h13.68V92.7a10.71,10.71,0,0,0,5.06,1.13h5.78l1.24-3h2.73l1.2,3h11.1V91l1.69,2.82h8.89V75.34ZM70.91,91.2V80.85L66.34,91.2H63.53L59,80.81V91.2H52.5l-1.24-2.92h-6.6L43.43,91.2H40L45.68,78H50.4l5.36,12.57V78h5.18l4.16,9,3.79-9h5.29V91.2Zm16.2-10.46H79.69V83.1h7.24v2.74H79.69v2.62h7.42V91.2H76.54V78H87.11Zm14.25,5.44a3.78,3.78,0,0,1,.53,2.43V91.2H98.7V89.55A4,4,0,0,0,98.21,87c-.56-.63-1.2-.56-2.32-.56H92.48v4.8H89.33V78H96.6a7.3,7.3,0,0,1,3.82.64A3.09,3.09,0,0,1,102,81.53a3.63,3.63,0,0,1-2.22,3.52A3.54,3.54,0,0,1,101.36,86.18Zm5.74,5h-3.23V78h3.23Zm37.54,0h-4.5l-6-9.94V91.2h-6.45l-1.24-2.92h-6.6l-1.2,2.92h-3.71c-1.54,0-3.49-.34-4.58-1.46a6.74,6.74,0,0,1-1.69-5.06c0-2.44.34-3.75,1.69-5.18S113,78,115.2,78h3.07v2.85h-3a3,3,0,0,0-2.44.79,4,4,0,0,0-.9,3,4.81,4.81,0,0,0,.86,3.11,2.59,2.59,0,0,0,2.21.68h1.43L120.86,78h4.76L131,90.49V78h4.83l5.55,9.23V78h3.27Z"/><path d="M97.88,81a3.09,3.09,0,0,0-1.5-.22h-3.9v2.92h3.86a2.92,2.92,0,0,0,1.57-.26,1.34,1.34,0,0,0,.64-1.27A1.22,1.22,0,0,0,97.88,81Z"/><polygon points="120.97 85.5 125.36 85.5 123.19 80.21 120.97 85.5"/><polygon points="45.79 85.5 50.14 85.5 47.96 80.21 45.79 85.5"/><path d="M96,103.54H91.91v3.37H96c1.24,0,2-.6,2-1.76S97.2,103.54,96,103.54Z"/><polygon points="68.4 103.54 68.4 105.94 75.34 105.94 75.34 108.64 68.4 108.64 68.4 111.26 76.2 111.26 79.8 107.4 76.35 103.54 68.4 103.54"/><polygon points="88.76 112.84 88.76 102.19 83.89 107.44 88.76 112.84"/><path d="M111.45,103.76a3.07,3.07,0,0,0-1.5-.22h-3.9v3h3.86a3.24,3.24,0,0,0,1.54-.26,1.46,1.46,0,0,0,.67-1.28A1.32,1.32,0,0,0,111.45,103.76Z"/><path d="M156,109.84a6.77,6.77,0,0,0-.9-3.6h.26v-8.1h-9a8.23,8.23,0,0,0-3.49.71v-.71h-8.7a5.81,5.81,0,0,0-3.75,1.09V98.14H114.9v1.09a8,8,0,0,0-4.24-1.09H100.42v1.09c-1-.94-3.14-1.09-4.46-1.09H84.53L81.9,101l-2.44-2.85H62.4v18.48H79.13l2.7-2.85,2.55,2.85H94.73v-4.31h1a10.8,10.8,0,0,0,4.38-.67v5h8.52v-4.8h.41c.52,0,.6,0,.6.53v4.27h25.87a7.86,7.86,0,0,0,4-1v1h8.82a9.62,9.62,0,0,0,3.75-.64l.56-.22h0A6.61,6.61,0,0,0,156,109.84Zm-60.15-.27H91.91V114H85.76l-3.9-4.39-4,4.39H65.25V100.76H78l3.9,4.35,4-4.35H96c2.51,0,5.32.71,5.32,4.39s-2.73,4.42-5.51,4.42Zm19.09-.6a3.9,3.9,0,0,1,.52,2.44V114h-3.19v-1.65c0-.79.08-2-.52-2.59s-1.16-.6-2.33-.6h-3.37V114h-3.19V100.76h7.31a7.84,7.84,0,0,1,3.83.64,3,3,0,0,1,1.61,3,3.7,3.7,0,0,1-2.25,3.53,3.53,3.53,0,0,1,1.58,1.08Zm13-5.43h-7.43v2.4h7.24v2.7h-7.24v2.62H128V114H117.37V100.76H128Zm1.91,10.5v-2.85H136a1.77,1.77,0,0,0,1.28-.34,1.17,1.17,0,0,0,.08-1.64l-.08-.09a1.8,1.8,0,0,0-1.13-.3c-3-.11-6.67.12-6.67-4.08,0-1.95,1.2-4,4.53-4h6.34v2.85h-5.81a2.15,2.15,0,0,0-1.28.23,1.06,1.06,0,0,0-.45,1,1,1,0,0,0,.68,1,3.7,3.7,0,0,0,1.24.15h1.68c1.73,0,2.93.33,3.64,1.08a3.46,3.46,0,0,1,.94,2.78c0,2.89-1.76,4.2-5,4.2Zm22.8-1.65-.15.18-.22.23-.27.26-.11.08-.34.22h-.07a6.36,6.36,0,0,1-1.65.53h-.11l-.49.07h-7v-2.85h6.12a1.68,1.68,0,0,0,1.27-.34,1.08,1.08,0,0,0,.38-.86,1,1,0,0,0-.42-.79,1.66,1.66,0,0,0-1.08-.3c-3-.11-6.72.12-6.72-4.08a3.85,3.85,0,0,1,1-2.63A.71.71,0,0,1,143,102l.15-.15.15-.11.19-.15.15-.07.22-.15.15-.08.3-.11h.11l.34-.11h.11l.42-.08h7.5v2.85h-6.23a1.46,1.46,0,0,0-.86.22h0a1.11,1.11,0,0,0,.19,2,3.68,3.68,0,0,0,1.23.15h1.73a7,7,0,0,1,3,.6,3.14,3.14,0,0,1,.6.49s0,0,.07.08a3.6,3.6,0,0,1,.9,2.7,4.27,4.27,0,0,1-.71,2.4Z"/><path d="M170,152H22a6,6,0,0,1-6-6V46a6,6,0,0,1,6-6H170a6,6,0,0,1,6,6V146A6,6,0,0,1,170,152ZM24,144H168V48H24Z"/></g></svg>