<svg xmlns="http://www.w3.org/2000/svg" viewBox="0 0 192 192"><defs><style>.cls-1{fill:none;}.cls-2{fill:#f59e00;}.cls-3{fill:#111116;}.cls-4{fill:#121216;}.cls-5{fill:#121116;}</style></defs><title>User_Payment_Monochrome_Illico_48px</title><g id="Square"><rect class="cls-1" width="192" height="192"/></g><g id="Card"><path class="cls-2" d="M144.2,104.88V104h-.36v-.2h1v.2h-.36v.88Zm1.84,0v-.76l-.24.64h-.28l-.24-.64v.76H145V103.8h.4l.28.68.24-.68h.4v1.08Z"/><path class="cls-3" d="M37.56,122.48H130.4a25.88,25.88,0,0,0,14.2-4.08A25.61,25.61,0,0,0,156.52,101a26.44,26.44,0,0,0-21-30.93,27,27,0,0,0-5-.47h-67a26.44,26.44,0,0,0-25.64,19.8A25.92,25.92,0,0,0,37,95.68V122C37,122.48,37,122.48,37.56,122.48Zm93-23.2a7,7,0,0,1,4.12-5.16,8.34,8.34,0,0,1,3.56-.64,6.63,6.63,0,0,1,5.76,3.6,8.85,8.85,0,0,1,.88,2.84,7,7,0,0,1-2.68,6.68,6.86,6.86,0,0,1-4.84,1.56,9.15,9.15,0,0,1-1.48,0A7.17,7.17,0,0,1,130.4,103a8.78,8.78,0,0,1,.12-3.68Zm-16.08-.6a5.94,5.94,0,0,1,1.72-3.12,7.58,7.58,0,0,1,6.28-1.88,5.21,5.21,0,0,1,1.68.52v-.32c-.08-3.48.08-7,.28-10.44a1.76,1.76,0,0,1,1.36-1.64h.64c.68,0,.92.16,1,.84a6.21,6.21,0,0,1-.08,1.72c-.24,2.32-.32,4.64-.44,7s0,4.68.12,7c0,1,.08,2,.2,3,.24,1.76.56,3.48.88,5.2a.72.72,0,0,1,0,.64,1.52,1.52,0,0,1-1.8.6,1.16,1.16,0,0,1-.44-.44c-.16-.36-.28-.72-.4-1.08s0-.24-.12-.28-.92.76-1.4,1.08a6.42,6.42,0,0,1-5.08.88,5.7,5.7,0,0,1-4.2-4,8.66,8.66,0,0,1-.16-5.28Zm-18,1.72a7.77,7.77,0,0,1,2.8-5.16,8.8,8.8,0,0,1,8.24-1l.64.28a.8.8,0,0,0,.88,0,1.89,1.89,0,0,1,1-.28c.72,0,1,.24,1,1v2.36c0,.8,0,2.16,0,3.24a35.68,35.68,0,0,0,.8,5.44,1.11,1.11,0,0,1-.76,1.48,1.18,1.18,0,0,1-1.76-.64,7.4,7.4,0,0,1-.44-1l-.88.6a8,8,0,0,1-6.2,1.32,7,7,0,0,1-5.2-4.92A6.53,6.53,0,0,1,96.48,100.4Zm-16-3.16A8.11,8.11,0,0,1,85,93.88a6.74,6.74,0,0,1,3.24-.32,8,8,0,0,1,4.24,2.08,4.75,4.75,0,0,1,.92,1.08,1.1,1.1,0,0,1-.36,1.6c-.6.48-.92.48-1.48,0l-1-.84a4.68,4.68,0,0,0-4.2-1.24,4.82,4.82,0,0,0-4.12,5.52A3.94,3.94,0,0,0,85,105.2a6.68,6.68,0,0,0,3.32.24,4,4,0,0,0,3.08-2,2.9,2.9,0,0,1,.44-.6,1,1,0,0,1,1.36-.24l.44.28a1.13,1.13,0,0,1,.32,1.28l-.24.56a5.64,5.64,0,0,1-3.36,2.84,10.44,10.44,0,0,1-5.08.48,6.39,6.39,0,0,1-5.4-4.36,6.23,6.23,0,0,1-.48-2.48,6.48,6.48,0,0,1,1.08-4Zm-8.36,4.32c.08-1.6,0-3.2.12-4.8a7.93,7.93,0,0,1,.4-2.16,1.41,1.41,0,0,1,1.64-.92,1.37,1.37,0,0,1,1.25,1.47.07.07,0,0,0,0,0l-.24,3.68a51.1,51.1,0,0,0,0,7,8.36,8.36,0,0,1,0,1,1,1,0,0,1-1,1.12h-.08a2.43,2.43,0,0,1-1.72-.52,1,1,0,0,1-.4-.8c0-1.72-.12-3.4,0-5.12Zm-.4-13.48A2.58,2.58,0,0,1,75,85.56c1.56.48,1.6,1,1.88,2a2.32,2.32,0,0,1-1.45,2.94,1.39,1.39,0,0,1-.19.06A2.53,2.53,0,0,1,72,89.13c0-.14-.08-.27-.11-.41s0-.4-.08-.64ZM64,96.28c0-1.16,0-2.68,0-4.16A71.31,71.31,0,0,1,64.64,85a9.24,9.24,0,0,1,.48-2.08,1.23,1.23,0,0,1,.72-.88,2.12,2.12,0,0,1,1.64-.08.88.88,0,0,1,.64,1l-.36,2.88a48.82,48.82,0,0,0-.44,5.92c-.08,2.6-.12,5.2,0,7.76.08,1.4.2,2.8.28,4.2s.16,1.8.28,2.72a1.58,1.58,0,0,1-.24,1.12c-.36.6-2.32.68-2.68-.12-.08-.16-.2-.36-.28-.56a7.19,7.19,0,0,1-.2-.8A38.72,38.72,0,0,1,64,100c0-1.12,0-2.2,0-3.68Zm-7.76.6a99.74,99.74,0,0,1,.48-10.08c.08-.52.12-1,.2-1.56a9.21,9.21,0,0,1,.48-2.32,1.47,1.47,0,0,1,2-1,1.08,1.08,0,0,1,1,1.12,3.24,3.24,0,0,1,0,.88c-.16.88-.24,1.76-.32,2.68-.2,1.72-.36,3.48-.44,5.24-.12,2.88,0,5.8.12,8.68,0,1.08.16,2.16.24,3.24s.2,2.08.32,3.12a.92.92,0,0,1-.74,1.07H59.4a1.63,1.63,0,0,1-.76,0,1.59,1.59,0,0,1-1.48-1,4.59,4.59,0,0,1-.28-1,16.46,16.46,0,0,1-.48-3.12c0-.28,0-.52-.08-.76Q56.16,99.52,56.2,96.88Zm-7-2.68A1.94,1.94,0,0,1,51,93.72a1.52,1.52,0,0,1,1,1.2,7,7,0,0,1,.2,1.64c0,3.4,0,6.8-.12,10.16,0,.8-.32,1.12-1.08,1.24h-.32c-1.16.08-1.64-.32-1.64-1.52q0-2.84,0-5.64v-.36c0-1.8-.12-3.64-.2-5.48A1.07,1.07,0,0,1,49.16,94.2Zm-1.64-5.88A2.85,2.85,0,0,1,50,85.44,2.63,2.63,0,0,1,52.68,88a2.48,2.48,0,0,1-2.48,2.72C48.76,90.68,47.44,89.44,47.52,88.32Z"/><path class="cls-4" d="M121.2,96.2l-1.28.16a3.69,3.69,0,0,0-2.84,2.4,7.35,7.35,0,0,0-.4,3.08,3.66,3.66,0,0,0,5,3.24,3.72,3.72,0,0,0,2.76-3.56,9.46,9.46,0,0,0-.16-3,6.92,6.92,0,0,0-.28-.76,2.55,2.55,0,0,0-2.16-1.52Z"/><path class="cls-4" d="M108.56,101a8,8,0,0,0-.12-2,2.87,2.87,0,0,0-2.6-2.68,6.39,6.39,0,0,0-3.36.12,5,5,0,0,0-3.32,5.84,3.79,3.79,0,0,0,1,1.88,4.86,4.86,0,0,0,4.68,1.36,6.31,6.31,0,0,0,2.72-1.48,3,3,0,0,0,1-2.44Z"/><path class="cls-5" d="M137.64,105.6a4.7,4.7,0,0,0,2.84-.92A3.85,3.85,0,0,0,142.2,102a6.52,6.52,0,0,0-.28-3.16,4,4,0,0,0-3.84-2.8,7.6,7.6,0,0,0-2.32.36,4.05,4.05,0,0,0-2.8,3.12,6.06,6.06,0,0,0,0,2.68A4.56,4.56,0,0,0,137.64,105.6Z"/><path d="M170,152H22a6,6,0,0,1-6-6V46a6,6,0,0,1,6-6H170a6,6,0,0,1,6,6V146A6,6,0,0,1,170,152ZM24,144H168V48H24Z"/></g></svg>