<svg xmlns="http://www.w3.org/2000/svg" viewBox="0 0 48 48"><defs><style>.a{fill:none;}.b{fill:#999;}</style></defs><title>Various-NoPicture-48px</title><rect class="a" width="48" height="48"/><path class="b" d="M39.2,11h0L37.1,8.8H37A19.8,19.8,0,0,0,24,4,20.1,20.1,0,0,0,4,24,19.8,19.8,0,0,0,8.8,37h0l2.1,2.1H11A19.8,19.8,0,0,0,24,44,20.1,20.1,0,0,0,44,24,19.8,19.8,0,0,0,39.2,11ZM7,24A17,17,0,0,1,34.9,11l-4.6,4.6L29,14.2a1.8,1.8,0,0,0-1.5-.7h-7a1.8,1.8,0,0,0-1.5.7L17.4,16H15a2,2,0,0,0-2,2V30a2.2,2.2,0,0,0,1.1,1.8h0L11,34.9A17,17,0,0,1,7,24Zm23.6-6H33V30H15V18h2.4a1.8,1.8,0,0,0,1.5-.7l1.6-1.8h7l1.6,1.8A1.8,1.8,0,0,0,30.6,18ZM14.5,31.9ZM24,41a17,17,0,0,1-10.9-4l5-5H33a2,2,0,0,0,2-2V18a2.2,2.2,0,0,0-1.1-1.8h0L37,13.1A17,17,0,0,1,24,41Zm9.5-24.9Z"/><path class="b" d="M17.7,19.3a1,1,0,0,0-1.4,0c-.1.1-.2.2-.2.3a.6.6,0,0,0-.1.4.9.9,0,0,0,.3.7l.3.2h.8l.3-.2A.9.9,0,0,0,18,20a.6.6,0,0,0-.1-.4C17.9,19.5,17.8,19.4,17.7,19.3Z"/><path class="b" d="M24,19a5,5,0,1,0,5,5A5,5,0,0,0,24,19Zm0,8a3,3,0,1,1,3-3A2.9,2.9,0,0,1,24,27Z"/></svg>