<svg xmlns="http://www.w3.org/2000/svg" viewBox="0 0 48 48"><defs><style>.cls-1{fill:none;}.cls-2{fill:#999;}</style></defs><title>Various_Calendar_48px</title><g id="Square"><rect class="cls-1" width="48" height="48"/></g><g id="Icon"><path class="cls-2" d="M39,7H33.5V5.5a1.5,1.5,0,0,0-3,0V7h-5V5.5a1.5,1.5,0,0,0-3,0V7h-5V5.5a1.5,1.5,0,0,0-3,0V7H9A2,2,0,0,0,7,9V39a2,2,0,0,0,2,2H39a2,2,0,0,0,2-2V9A2,2,0,0,0,39,7ZM14.5,10v1.5a1.5,1.5,0,0,0,3,0V10h5v1.5a1.5,1.5,0,0,0,3,0V10h5v1.5a1.5,1.5,0,0,0,3,0V10H38v6H10V10ZM10,38V19H38V38Z"/></g></svg>