<svg xmlns="http://www.w3.org/2000/svg" viewBox="0 0 48 48"><defs><style>.cls-1{fill:none;}.cls-2{fill:#999;}</style></defs><title>Various_Blink_48px</title><g id="Square"><rect class="cls-1" width="48" height="48"/></g><g id="Icon"><circle class="cls-2" cx="24" cy="24" r="3"/><path class="cls-2" d="M24,17.5A1.5,1.5,0,0,1,22.5,16V5.5a1.5,1.5,0,0,1,3,0V16A1.5,1.5,0,0,1,24,17.5Z"/><path class="cls-2" d="M30,19.5a1.51,1.51,0,0,1-1.06-.44,1.49,1.49,0,0,1,0-2.12L36,9.86A1.5,1.5,0,0,1,38.14,12l-7.08,7.08A1.51,1.51,0,0,1,30,19.5Z"/><path class="cls-2" d="M42.5,25.5H32a1.5,1.5,0,0,1,0-3H42.5a1.5,1.5,0,0,1,0,3Z"/><path class="cls-2" d="M37.08,38.58A1.51,1.51,0,0,1,36,38.14l-7.08-7.08a1.5,1.5,0,0,1,2.12-2.12L38.14,36a1.49,1.49,0,0,1,0,2.12A1.51,1.51,0,0,1,37.08,38.58Z"/><path class="cls-2" d="M24,44a1.5,1.5,0,0,1-1.5-1.5V32a1.5,1.5,0,0,1,3,0V42.5A1.5,1.5,0,0,1,24,44Z"/><path class="cls-2" d="M18,19.5a1.51,1.51,0,0,1-1.06-.44L9.86,12A1.5,1.5,0,0,1,12,9.86l7.08,7.08a1.49,1.49,0,0,1,0,2.12A1.51,1.51,0,0,1,18,19.5Z"/><path class="cls-2" d="M16,25.5H5.5a1.5,1.5,0,0,1,0-3H16a1.5,1.5,0,0,1,0,3Z"/><path class="cls-2" d="M10.92,38.58a1.51,1.51,0,0,1-1.06-.44,1.49,1.49,0,0,1,0-2.12l7.08-7.08a1.5,1.5,0,0,1,2.12,2.12L12,38.14A1.51,1.51,0,0,1,10.92,38.58Z"/></g></svg>