<svg xmlns="http://www.w3.org/2000/svg" viewBox="0 0 48 48"><defs><style>.a{fill:none;}.b{fill:#999;}</style></defs><title>Various-Bill-48px</title><rect class="a" width="48" height="48"/><path class="b" d="M36,4H12a2,2,0,0,0-2,2V42a2,2,0,0,0,2,2H36a2,2,0,0,0,2-2V6A2,2,0,0,0,36,4ZM35,41H13V7H35Z"/><path class="b" d="M18.5,18.4a.9.9,0,0,0,1,1h.7a5.7,5.7,0,0,0,5.2,3.4,5.5,5.5,0,0,0,3.7-1.4,1,1,0,1,0-1.2-1.6,3.9,3.9,0,0,1-2.5,1,3.9,3.9,0,0,1-2.9-1.4h2.6a1,1,0,0,0,0-2H21.7c0-.1-.1-.3-.1-.4s.1-.3.1-.4h3.4a1,1,0,0,0,0-2H22.5a3.9,3.9,0,0,1,2.9-1.4,4,4,0,0,1,2.3.8,1,1,0,0,0,1.4-.2,1.1,1.1,0,0,0-.2-1.4,6.2,6.2,0,0,0-3.5-1.2,5.7,5.7,0,0,0-5.2,3.4h-.7a1,1,0,1,0,0,2h.1v.8h-.1A.9.9,0,0,0,18.5,18.4Z"/><path class="b" d="M30,34H21.4a1,1,0,0,0,0,2H30a1,1,0,0,0,0-2Z"/><circle class="b" cx="18" cy="35" r="1"/><path class="b" d="M20.4,30a1,1,0,0,0,1,1H30a1,1,0,0,0,0-2H21.4A1,1,0,0,0,20.4,30Z"/><circle class="b" cx="18" cy="30" r="1"/></svg>