<svg xmlns="http://www.w3.org/2000/svg" viewBox="0 0 48 48"><defs><style>.a{fill:none;}.b{fill:#999;}</style></defs><title>Various-Favorite-48px</title><rect class="a" width="48" height="48"/><path class="b" d="M22.6,38.8,8.9,25.1a9.6,9.6,0,0,1-.7-13.2,9.5,9.5,0,0,1,13.9-.5L24,13.3l1.6-1.7a9.7,9.7,0,0,1,13.2-.7,9.6,9.6,0,0,1,.5,14L25.4,38.8A1.9,1.9,0,0,1,22.6,38.8ZM15.4,11.6a6.8,6.8,0,0,0-4.7,1.9,6.6,6.6,0,0,0-1.9,4.6,6.4,6.4,0,0,0,1.9,4.6L24,36,37.2,22.7a6.4,6.4,0,0,0,1.9-4.6,6.5,6.5,0,0,0-6.5-6.5A6.4,6.4,0,0,0,28,13.5l-4,4-4-4A6.8,6.8,0,0,0,15.4,11.6Z"/></svg>