<svg xmlns="http://www.w3.org/2000/svg" viewBox="0 0 48 48"><defs><style>.a{fill:none;}.b{fill:#999;}</style></defs><title>Various-Receipt-48px</title><rect class="a" width="48" height="48"/><path class="b" d="M16,6V33.5H12a2,2,0,0,0-2,2v4A4.5,4.5,0,0,0,14.5,44h18A5.5,5.5,0,0,0,38,38.5V6a2,2,0,0,0-2-2H18A2,2,0,0,0,16,6ZM14.5,41A1.5,1.5,0,0,1,13,39.5v-3H27v2a5.4,5.4,0,0,0,.6,2.5ZM35,38.5A2.6,2.6,0,0,1,32.2,41,2.5,2.5,0,0,1,30,38.4V35.5a2,2,0,0,0-2-2H19V7H35Z"/><path class="b" d="M21.5,17.4a.9.9,0,0,0,1,1h.7a5.7,5.7,0,0,0,5.2,3.4,5.5,5.5,0,0,0,3.7-1.4,1,1,0,0,0-1.2-1.6,3.9,3.9,0,0,1-2.5,1,3.9,3.9,0,0,1-2.9-1.4h2.6a1,1,0,0,0,0-2H24.7c0-.1-.1-.3-.1-.4v-.4h3.4a1,1,0,0,0,0-2H25.5a3.9,3.9,0,0,1,2.9-1.4,4,4,0,0,1,2.3.8,1,1,0,0,0,1.4-.2,1.1,1.1,0,0,0-.2-1.4,6.2,6.2,0,0,0-3.5-1.2,5.7,5.7,0,0,0-5.2,3.4h-.7a1,1,0,0,0,0,2h.1v.8h-.1A.9.9,0,0,0,21.5,17.4Z"/></svg>