<svg xmlns="http://www.w3.org/2000/svg" viewBox="0 0 48 48"><defs><style>.a{fill:none;}.b{fill:#999;}</style></defs><title>Various-PaintCan-48px</title><rect class="a" width="48" height="48"/><path class="b" d="M44,13.5a21.9,21.9,0,0,0-.3-3.6A3.5,3.5,0,0,0,40.2,7h-.7V6a2,2,0,0,0-2-2h-27a2,2,0,0,0-2,2V7H7.8A3.5,3.5,0,0,0,4.3,9.9,21.9,21.9,0,0,0,4,13.5,19.8,19.8,0,0,0,8.5,26.1V42a2,2,0,0,0,2,2h27a2,2,0,0,0,2-2V26.1A19.8,19.8,0,0,0,44,13.5ZM40.2,10a.5.5,0,0,1,.5.4,16.3,16.3,0,0,1,.3,3.1,15.8,15.8,0,0,1-1.5,6.9V10ZM11.5,13h3v6.5a4.5,4.5,0,0,0,9,0V13h13V25a17,17,0,0,1-25,0Zm25-6v3h-16v9.5a1.5,1.5,0,0,1-3,0V10h-6V7ZM7,13.5a16.3,16.3,0,0,1,.3-3.1.5.5,0,0,1,.5-.4h.7V20.4A15.8,15.8,0,0,1,7,13.5ZM11.5,41V29.1a20,20,0,0,0,25,0V41Z"/></svg>