<svg xmlns="http://www.w3.org/2000/svg" viewBox="0 0 48 48"><defs><style>.cls-1{fill:none;}.cls-2{fill:#999;}</style></defs><title>Various_NoPicture_48px</title><g id="Square"><rect class="cls-1" width="48" height="48"/></g><g id="Icon"><path class="cls-2" d="M39.15,11l.05-.05L37.08,8.8l0,0A20,20,0,0,0,8.85,37l0,0,2.12,2.12.05-.05A20,20,0,0,0,39.15,11ZM7,24A17,17,0,0,1,34.9,11l-4.64,4.65L29,14.18a2,2,0,0,0-1.5-.68h-7a2,2,0,0,0-1.5.68L17.4,16H15a2,2,0,0,0-2,2V30a2,2,0,0,0,1.1,1.78h0L11,34.9A16.93,16.93,0,0,1,7,24Zm23.6-6H33V30H15V18h2.4a2,2,0,0,0,1.5-.68l1.6-1.82h7l1.6,1.82A2,2,0,0,0,30.6,18ZM14.54,31.94h0ZM24,41a16.93,16.93,0,0,1-10.9-4l5-5H33a2,2,0,0,0,2-2V18a2,2,0,0,0-1.1-1.78h0L37,13.1A17,17,0,0,1,24,41Zm9.46-24.94h0Z"/><path class="cls-2" d="M17.71,19.29a1,1,0,0,0-1.42,0,1.15,1.15,0,0,0-.21.33A.84.84,0,0,0,16,20a1,1,0,0,0,.29.71,1.15,1.15,0,0,0,.33.21.94.94,0,0,0,.76,0,1.15,1.15,0,0,0,.33-.21,1,1,0,0,0,.21-1.09A1.15,1.15,0,0,0,17.71,19.29Z"/><path class="cls-2" d="M24,19a5,5,0,1,0,5,5A5,5,0,0,0,24,19Zm0,8a3,3,0,1,1,3-3A3,3,0,0,1,24,27Z"/></g></svg>