<svg xmlns="http://www.w3.org/2000/svg" viewBox="0 0 48 48"><defs><style>.cls-1{fill:none;}.cls-2{fill:#999;}</style></defs><title>Various_Door_48px</title><g id="Square"><rect class="cls-1" width="48" height="48"/></g><g id="Name"><path class="cls-2" d="M36,4H12a2,2,0,0,0-2,2V42a2,2,0,0,0,2,2H36a2,2,0,0,0,2-2V6A2,2,0,0,0,36,4ZM35,41H13V7H35Z"/><path class="cls-2" d="M15.91,22.5H32.09a.91.91,0,0,0,.91-.91V10.41a.91.91,0,0,0-.91-.91H15.91a.91.91,0,0,0-.91.91V21.59A.91.91,0,0,0,15.91,22.5ZM17,11.5H31v9H17Z"/><path class="cls-2" d="M15.84,38.5H32.16a.85.85,0,0,0,.84-.84V28.34a.85.85,0,0,0-.84-.84H15.84a.85.85,0,0,0-.84.84v9.32A.85.85,0,0,0,15.84,38.5Zm1.16-9H31v7H17Z"/><path class="cls-2" d="M31.88,24H30.12a1,1,0,0,0,0,2h1.76a1,1,0,0,0,0-2Z"/></g></svg>