<svg width="48" height="48" viewBox="0 0 96 96" fill="none" xmlns="http://www.w3.org/2000/svg">
<path d="M0 4C0 1.79086 1.79086 0 4 0H92C94.2091 0 96 1.79086 96 4V92C96 94.2091 94.2091 96 92 96H4C1.79086 96 0 94.2091 0 92V4Z" fill="black"/>
<path d="M20.7023 21.8622L25.8469 21.1849L29.3789 45.0414L25.5808 45.5414L24.9706 40.7922L24.9694 40.8618L20.6534 41.43L19.8838 46.2914L16.3619 46.7551L20.7023 21.8622ZM24.5754 37.6129L23.0833 25.7877L23.0143 25.7967L21.1571 38.063L24.5754 37.6129Z" fill="white"/>
<path d="M31.6257 20.4241L37.4264 19.6605C39.3139 19.412 40.7211 19.7363 41.6479 20.6335C42.5747 21.5306 43.0218 22.9658 42.9891 24.939L42.7847 37.2656C42.7519 39.2388 42.2552 40.7982 41.2945 41.9439C40.3338 43.0895 38.9097 43.7866 37.0222 44.0351L31.2215 44.7988L31.6257 20.4241ZM37.0109 40.5621C37.6324 40.4803 38.1074 40.2324 38.4358 39.8186C38.7872 39.4017 38.9699 38.7754 38.9837 37.9397L39.1939 25.2649C39.2077 24.4292 39.0451 23.8484 38.706 23.5224C38.3899 23.1934 37.9211 23.0698 37.2996 23.1517L35.366 23.4062L35.0773 40.8167L37.0109 40.5621Z" fill="white"/>
<path d="M45.6526 18.5775L56.011 17.2138L55.9532 20.6959L49.3929 21.5595L49.2861 28.0014L54.4998 27.315L54.4421 30.7971L49.2284 31.4835L49.1042 38.97L55.6645 38.1063L55.6068 41.5884L45.2484 42.9521L45.6526 18.5775Z" fill="white"/>
<path d="M63.2759 40.9262C61.4114 41.1717 59.9931 40.8256 59.021 39.8881C58.0489 38.9506 57.579 37.5068 57.6114 35.5568L57.8238 22.7428C57.8562 20.7928 58.3761 19.2187 59.3836 18.0206C60.3911 16.8224 61.8271 16.1006 63.6916 15.8551C65.5561 15.6097 66.9744 15.9557 67.9465 16.8932C68.9186 17.8308 69.3884 19.2745 69.3561 21.2245L69.1436 34.0386C69.1113 35.9886 68.5914 37.5626 67.5839 38.7608C66.5764 39.9589 65.1404 40.6807 63.2759 40.9262ZM63.3336 37.4441C64.6457 37.2714 65.315 36.3841 65.3415 34.7824L65.5621 21.4808C65.5887 19.879 64.9459 19.1645 63.6339 19.3372C62.3218 19.51 61.6525 20.3972 61.6259 21.999L61.4054 35.3006C61.3788 36.9023 62.0215 37.6168 63.3336 37.4441Z" fill="white"/>
<path fill-rule="evenodd" clip-rule="evenodd" d="M16.3619 53.2079V79.5048H31.8096C35.3021 79.5048 38.3767 78.8779 41.0334 77.6242C43.6902 76.3406 45.7648 74.5347 47.2573 72.2063C48.7498 69.8481 49.4961 67.0422 49.4961 63.7885C49.4961 60.5646 48.7498 57.7885 47.2573 55.4601C45.7648 53.1318 43.6902 51.3408 41.0334 50.087C40.9638 50.0534 40.8939 50.0202 40.8238 49.9875L16.3619 53.2079ZM31.3619 71.266H26.929V56.4004H31.3619C32.8544 56.4004 34.1529 56.684 35.2574 57.2512C36.3917 57.8183 37.2723 58.6542 37.8991 59.7586C38.526 60.8631 38.8394 62.2064 38.8394 63.7885C38.8394 65.4004 38.526 66.7735 37.8991 67.9078C37.2723 69.0123 36.3917 69.8481 35.2574 70.4153C34.1529 70.9824 32.8544 71.266 31.3619 71.266Z" fill="white"/>
<path d="M57.4291 79.3257C59.8769 79.9227 62.4142 80.2212 65.041 80.2212C68.2947 80.2212 70.9962 79.7436 73.1454 78.7884C75.2947 77.8033 76.9066 76.5197 77.9812 74.9376C79.0857 73.3257 79.6379 71.5645 79.6379 69.6541C79.6379 68.0123 79.3245 66.6392 78.6977 65.5347C78.0708 64.4302 77.235 63.5347 76.1902 62.8482C75.1753 62.1616 74.0559 61.6094 72.832 61.1915C71.6081 60.7735 70.3693 60.4452 69.1156 60.2064C67.8917 59.9676 66.7574 59.7437 65.7126 59.5347C64.6977 59.3258 63.8768 59.0721 63.25 58.7736C62.6231 58.4452 62.3097 58.0124 62.3097 57.4751C62.3097 57.1168 62.4291 56.7885 62.6679 56.49C62.9365 56.1915 63.3694 55.9527 63.9664 55.7736C64.5634 55.5945 65.3694 55.5049 66.3843 55.5049C67.7574 55.5049 69.1604 55.6989 70.5932 56.087C72.0559 56.4751 73.5634 57.0571 75.1156 57.8333L78.2947 50.1766C76.6529 49.2512 74.8022 48.5647 72.7425 48.1169C70.6828 47.6691 68.5932 47.4453 66.4738 47.4453C63.25 47.4453 60.5485 47.9229 58.3694 48.8781C56.2202 49.8333 54.5933 51.1169 53.4888 52.7288C52.4142 54.3109 51.8769 56.0721 51.8769 58.0124C51.8769 59.684 52.1903 61.087 52.8172 62.2213C53.4441 63.3258 54.265 64.2213 55.2799 64.9079C56.3246 65.5944 57.459 66.1467 58.6828 66.5646C59.9366 66.9825 61.1754 67.3257 62.3992 67.5944C63.6231 67.8332 64.7425 68.072 65.7574 68.3108C66.8022 68.5198 67.638 68.7884 68.2649 69.1168C68.8917 69.4451 69.2052 69.8929 69.2052 70.4601C69.2052 70.8183 69.0708 71.1317 68.8022 71.4004C68.5335 71.6392 68.1007 71.8332 67.5037 71.9824C66.9365 72.1018 66.1455 72.1615 65.1306 72.1615C63.3992 72.1615 61.6082 71.9078 59.7575 71.4004C57.9366 70.863 56.2799 70.1616 54.7873 69.2959L51.3844 76.9973C52.9665 77.9526 54.9814 78.7287 57.4291 79.3257Z" fill="white"/>
</svg>

