<svg xmlns="http://www.w3.org/2000/svg" viewBox="0 0 728.36 771.5"><path d="M658.329,544.818c-10.169,12.085-28.738,30.841-58.041,30.841-41.381,0-54.732-29.594-67.282-60.887L470.858,362.823,408.953,514.772c-10.56,25.918-21.983,60.96-67.328,60.96s-56.849-35.046-67.414-60.96L169.827,259.145h88.019l83.769,210.4,62.431-153.357c9.892-24.279,21.656-60.922,66.738-60.922s56.95,36.666,66.87,60.922L605.56,482.221a257.658,257.658,0,0,0,43.27-143.288c0-143.484-116.9-259.8-261.116-259.8A306.921,306.921,0,0,0,169.82,168.936,303.808,303.808,0,0,0,79.584,385.75c0,81.9,32.109,158.9,90.317,216.814s135.7,89.808,218.022,89.808a312.3,312.3,0,0,0,83.291-11.338V762.5a392.4,392.4,0,0,1-83.291,9A387.838,387.838,0,0,1,30.484,535.914a384.186,384.186,0,0,1,83.073-422.93A387.6,387.6,0,0,1,387.708,0C575.845,0,728.36,151.745,728.36,338.933a336.351,336.351,0,0,1-70.031,205.885Z" style="fill:#20252d;fill-rule:evenodd"/></svg>