<svg xmlns="http://www.w3.org/2000/svg" viewBox="0 0 158.35 51.26"><defs><style>.cls-1{font-size:32px;font-family:Alata-Regular, Alata;}.cls-2{font-size:16px;font-family:Karla-BoldItalic, Karla;font-weight:700;font-style:italic;}</style></defs><g id="Calque_2" data-name="Calque 2"><g id="Calque_1-2" data-name="Calque 1"><polygon points="36 13.26 34 13.26 26 27.26 28 27.26 36 13.26"/><path d="M22,9.26H0v42H42v-42ZM5,19.76v-3.5H7v.35a3.39,3.39,0,0,1,3,0,3.5,3.5,0,0,1,1,.71,3.5,3.5,0,0,1,1-.71,3.39,3.39,0,0,1,3,0,3.49,3.49,0,0,1,2,3.15v4.5H15v-4.5a1.5,1.5,0,0,0-3,0v4.5H10v-4.5a1.5,1.5,0,0,0-3,0v4.5H5Zm15,29.5H2V44.59H20Zm0-6.67H2V37.93H20Zm0-6.66H2V31.26H20ZM40,49.26H22V44.2a5.12,5.12,0,0,0,8.08-2.92,5,5,0,0,1,9.92.87h0Zm0-11.93a7.07,7.07,0,0,0-10.46.51,6.42,6.42,0,0,0-1.4,2.93,3,3,0,0,1-3.05,2.51A3.08,3.08,0,0,1,22,40.23v-9H40Zm0-8.07H22v-18H40Z"/><text class="cls-1" transform="translate(54 27.76)">mozaic</text><text class="cls-2" transform="translate(55 45.76)">Angular</text></g></g></svg>