<svg xmlns="http://www.w3.org/2000/svg" viewBox="0 0 64 64">
  <path fill-rule="evenodd" d="M11.833 13.333a1.5 1.5 0 0 1 1.5-1.5h37.334a1.5 1.5 0 0 1 1.5 1.5v24a1.5 1.5 0 0 1-1.5 1.5H13.333a1.5 1.5 0 0 1-1.5-1.5v-24Zm3 9v13.5h34.334v-13.5H14.833Zm0-2h34.334v-5.5H14.833v5.5ZM19 26.666a1 1 0 0 1 1-1h5.333a1 1 0 0 1 0 2H20a1 1 0 0 1-1-1Zm10 26.667a3 3 0 1 1 6 0 3 3 0 0 1-6 0Zm7.9-1a5.002 5.002 0 0 0-9.8 0H15.567a5.002 5.002 0 0 0-9.9 1 5 5 0 0 0 9.9 1H27.1a5.002 5.002 0 0 0 9.8 0h11.533a5.002 5.002 0 0 0 9.9-1 5 5 0 0 0-9.9-1H36.9Zm13.433 1a3 3 0 1 0 6 0 3 3 0 0 0-6 0Z"/>
</svg>
