<svg xmlns="http://www.w3.org/2000/svg" viewBox="0 0 64 64">
  <path fill-rule="evenodd" d="M13.333 11.833a1.5 1.5 0 0 0-1.5 1.5v8a1.5 1.5 0 0 0 3 0v-6.5h34.334v10.879l-2.773-2.773a1.5 1.5 0 1 0-2.121 2.122l5.333 5.333a1.5 1.5 0 0 0 2.121 0l5.334-5.333a1.5 1.5 0 0 0-2.122-2.122l-2.772 2.773V13.333a1.5 1.5 0 0 0-1.5-1.5H13.333Zm1.061 21.773a1.5 1.5 0 0 0-2.121 0l-5.334 5.333a1.5 1.5 0 1 0 2.122 2.122l2.772-2.773v12.379a1.5 1.5 0 0 0 1.5 1.5h37.334a1.5 1.5 0 0 0 1.5-1.5v-8a1.5 1.5 0 0 0-3 0v6.5H14.833V38.288l2.773 2.773a1.5 1.5 0 1 0 2.121-2.122l-5.333-5.333Z"/>
</svg>
