<svg xmlns="http://www.w3.org/2000/svg" viewBox="0 0 64 64">
  <path fill-rule="evenodd" d="M32 6.5a9.498 9.498 0 0 0-8.437 5.13 9.498 9.498 0 0 0-9.594 2.337 9.498 9.498 0 0 0-2.338 9.596A9.498 9.498 0 0 0 6.5 32a9.498 9.498 0 0 0 5.13 8.437 9.498 9.498 0 0 0 2.338 9.594 9.498 9.498 0 0 0 9.595 2.338A9.498 9.498 0 0 0 32 57.5a9.498 9.498 0 0 0 8.438-5.132 9.498 9.498 0 0 0 9.593-2.338 9.498 9.498 0 0 0 2.339-9.593A9.498 9.498 0 0 0 57.5 32a9.498 9.498 0 0 0-5.132-8.438 9.498 9.498 0 0 0-2.338-9.593 9.498 9.498 0 0 0-9.593-2.339A9.498 9.498 0 0 0 32 6.5Zm-6.198 7.535a6.504 6.504 0 0 1 12.396 0l.538 1.7 1.583-.821a6.504 6.504 0 0 1 8.765 8.766l-.822 1.583 1.701.538a6.503 6.503 0 0 1 .002 12.397l-1.7.538.82 1.583a6.503 6.503 0 0 1-8.765 8.765l-1.583-.822-.538 1.701a6.503 6.503 0 0 1-12.398 0l-.538-1.7-1.583.822a6.504 6.504 0 0 1-8.767-8.766l.822-1.583-1.7-.538a6.504 6.504 0 0 1 .001-12.396l1.701-.539-.822-1.583a6.503 6.503 0 0 1 8.766-8.767l1.582.822.539-1.7ZM41.06 25.061a1.5 1.5 0 0 0-2.122-2.122l-16 16a1.5 1.5 0 0 0 2.122 2.122l16-16Zm-20.561.272a4.167 4.167 0 1 1 8.333 0 4.167 4.167 0 0 1-8.333 0ZM39.333 34.5a4.167 4.167 0 1 0 0 8.333 4.167 4.167 0 0 0 0-8.333Z"/>
</svg>
