<svg xmlns="http://www.w3.org/2000/svg" viewBox="0 0 64 64">
  <path fill-rule="evenodd" d="M43.004 9.462c2.837-.655 6.003-.663 8.51-.492a42.67 42.67 0 0 1 3.048.318l.132.019.018.13c.106.746.233 1.806.318 3.049.172 2.507.163 5.673-.492 8.51-.755 3.272-2.68 6.521-5.252 9.596-2.565 3.064-5.708 5.876-8.783 8.273a92.388 92.388 0 0 1-10.572 7.087c-1.122-1.936-2.548-3.839-4.165-5.597l9.961-9.961a1.5 1.5 0 1 0-2.121-2.121l-9.961 9.961c-1.758-1.617-3.66-3.043-5.596-4.165a92.388 92.388 0 0 1 7.087-10.572c2.396-3.075 5.208-6.218 8.273-8.783 3.074-2.573 6.324-4.497 9.595-5.252ZM21.524 40.36c-1.944-1.776-4.074-3.292-6.195-4.353a1.5 1.5 0 0 1-.656-2.04l1.327.699-1.326-.7v-.002l.003-.004.008-.015.029-.055a35.411 35.411 0 0 1 .439-.797l-6.959-8.118a1.5 1.5 0 0 1-.063-1.872L9.333 24a258.76 258.76 0 0 1-1.202-.897v-.001l.003-.003.006-.009.023-.03a17.566 17.566 0 0 1 .392-.502c.266-.333.65-.802 1.13-1.35.954-1.092 2.3-2.52 3.85-3.832 1.534-1.298 3.354-2.556 5.254-3.209 1.933-.664 4.104-.742 6.058.595.758.518 1.52 1.293 2.049 1.87l.075.083a51.548 51.548 0 0 1 4.512-4.301c3.271-2.738 6.943-4.975 10.846-5.875 3.252-.75 6.752-.742 9.39-.562 1.329.09 2.461.227 3.264.34a35.06 35.06 0 0 1 1.203.192l.07.013.02.004h.006l.002.001h.001L56 8l1.473-.285v.003l.001.006.004.02.013.07.045.258c.038.222.09.543.147.945.114.803.25 1.935.34 3.264.18 2.638.189 6.139-.561 9.39-.901 3.903-3.138 7.575-5.876 10.846a51.535 51.535 0 0 1-4.3 4.513l.081.074c.578.528 1.352 1.291 1.871 2.049 1.337 1.954 1.259 4.125.595 6.058-.653 1.9-1.91 3.72-3.209 5.253-1.311 1.55-2.74 2.898-3.832 3.851a40.197 40.197 0 0 1-1.744 1.439l-.108.083-.03.023-.01.006-.002.002h-.001l-.897-1.2.896 1.202a1.5 1.5 0 0 1-1.872-.063l-8.118-6.959a54.289 54.289 0 0 1-.797.44l-.055.029-.014.008-.005.002h-.001l-.7-1.326.699 1.327a1.5 1.5 0 0 1-2.041-.656c-1.06-2.12-2.577-4.251-4.353-6.196a1.5 1.5 0 0 1-2.114-2.114ZM56 8l1.473-.286a1.5 1.5 0 0 0-1.187-1.187L56 8ZM40.036 52.72l-6.396-5.48.18-.11a95.374 95.374 0 0 0 8.527-5.899c.89-.693 1.79-1.424 2.687-2.19.097.085.2.178.308.277.548.5 1.107 1.071 1.42 1.529.636.929.7 2.033.234 3.39-.478 1.39-1.466 2.877-2.662 4.29-1.181 1.396-2.492 2.634-3.516 3.53-.288.251-.552.474-.782.665ZM16.76 30.36l.111-.18a95.349 95.349 0 0 1 5.898-8.527c.693-.89 1.425-1.79 2.19-2.687a20.072 20.072 0 0 0-.277-.309c-.5-.547-1.071-1.106-1.529-1.42-.929-.635-2.033-.699-3.39-.233-1.39.478-2.877 1.466-4.29 2.662-1.396 1.181-2.634 2.491-3.53 3.516a38.62 38.62 0 0 0-.665.782l5.482 6.396Zm-3.79 23.518c-1.212.303-2.441.46-3.389.54.08-.947.238-2.176.54-3.387.313-1.25.752-2.362 1.329-3.131.545-.727 1.14-1.067 1.883-1.067a3.833 3.833 0 0 1 3.834 3.834c0 .744-.34 1.338-1.067 1.883-.77.577-1.881 1.016-3.13 1.328ZM8 57.5V56v1.5h.043a13.304 13.304 0 0 0 .469-.011 27.24 27.24 0 0 0 1.28-.078c1.047-.087 2.466-.263 3.905-.623 1.418-.354 2.972-.915 4.203-1.838 1.273-.955 2.267-2.36 2.267-4.283a6.833 6.833 0 0 0-6.834-6.834c-1.922 0-3.328.994-4.283 2.267-.923 1.23-1.484 2.785-1.839 4.203-.36 1.439-.535 2.858-.622 3.906a27.258 27.258 0 0 0-.089 1.748V56H8 6.5A1.5 1.5 0 0 0 8 57.5ZM44 17a3 3 0 1 0 0 6 3 3 0 0 0 0-6Zm-5 3a5 5 0 1 1 10 0 5 5 0 0 1-10 0Z"/>
</svg>
