<svg xmlns="http://www.w3.org/2000/svg" viewBox="0 0 64 64">
      <g id="Square"> </g>
  <path fill-rule="evenodd" d="M4.523 14.452a1.5 1.5 0 0 1 1.216-1.738l36.767-6.483a1.5 1.5 0 0 1 1.737 1.217l1.835 10.407 11.608 1.016a1.5 1.5 0 0 1 1.363 1.625l-3.254 37.191a1.5 1.5 0 0 1-1.625 1.364l-37.19-3.254a1.5 1.5 0 0 1-1.364-1.625l.2-2.279-3.073.542a1.5 1.5 0 0 1-1.738-1.217L4.523 14.452Zm46.203 29.762-4.108-23.3 9.312.815-2.992 34.202-34.203-2.992.139-1.585 30.635-5.402a1.5 1.5 0 0 0 1.217-1.738Zm-38.445-3.037L13.7 49.22l33.812-5.962-1.418-8.043-6.383 1.125a1.17 1.17 0 0 1-.036.007l-23.592 4.16a1.048 1.048 0 0 1-.053.01l-3.748.66Zm33.465-7.931-5.91 1.041-9.365-8.773a1 1 0 0 0-1.576.278l-2.282 4.503-6.14-8.279a1 1 0 0 0-1.78.378l-3.64 16.264-3.119.55-4.196-23.8 33.811-5.962 4.197 23.8Zm-15.67-5.36 7.298 6.836-20.188 3.56 2.982-13.32 5.803 7.824a1 1 0 0 0 1.695-.143l2.41-4.758Zm.854-8.613a1.667 1.667 0 1 1 3.282-.579 1.667 1.667 0 0 1-3.283.58Zm1.004-3.9a3.667 3.667 0 1 0 1.274 7.222 3.667 3.667 0 0 0-1.274-7.222Z"/>
</svg>
