<svg xmlns="http://www.w3.org/2000/svg" viewBox="0 0 64 64">
  <path fill-rule="evenodd" d="M21.333 9.167a1.5 1.5 0 0 0-1.5 1.5v9.166H16a9.5 9.5 0 0 0-9.5 9.5v24a1.5 1.5 0 0 0 1.5 1.5h48a1.5 1.5 0 0 0 1.5-1.5v-24a9.5 9.5 0 0 0-9.5-9.5h-3.833v-9.166a1.5 1.5 0 0 0-1.5-1.5H21.333ZM9.5 29.333a6.5 6.5 0 0 1 6.5-6.5h32a6.5 6.5 0 0 1 6.5 6.5V35H43.667v-3a1 1 0 1 0-2 0v3H22.333v-3a1 1 0 1 0-2 0v3H9.5v-5.667ZM9.5 37v14.833h45V37H43.667v3a1 1 0 0 1-2 0v-3H22.333v3a1 1 0 0 1-2 0v-3H9.5Zm31.667-17.167H22.833v-7.666h18.334v7.666Z"/>
</svg>
