<svg xmlns="http://www.w3.org/2000/svg" viewBox="0 0 64 64">
  <path fill-rule="evenodd" d="M6.5 8A1.5 1.5 0 0 1 8 6.5h48A1.5 1.5 0 0 1 57.5 8v48a1.5 1.5 0 0 1-1.5 1.5H32a1.5 1.5 0 0 1-1.5-1.5V42.833H15.333a1.46 1.46 0 0 1-.2-.013 8.155 8.155 0 0 1-4.842-1.258A8.167 8.167 0 0 1 6.5 34.667V8ZM32 39.82c.068 0 .134.005.2.013h1.803a4.5 4.5 0 0 0-.003-9H21.878a8.164 8.164 0 0 1-.887 9h10.81c.065-.008.131-.013.199-.013Zm1.5 14.68V42.833h.5a7.5 7.5 0 0 0 4.484-13.512A1.333 1.333 0 0 0 40 28v-2.668a1.333 1.333 0 0 0-2.667 0V28c0 .267.078.515.213.723a7.467 7.467 0 0 0-3.546-.89h-.5V9.5h9.167V12a1.333 1.333 0 1 0 2.666 0V9.5H54.5v45h-9.167V52a1.333 1.333 0 1 0-2.666 0v2.5H33.5ZM17.869 30.604a1.499 1.499 0 0 1 .798-2.77H24v-2.5a1.333 1.333 0 0 1 2.667 0v2.5H30.5V9.5h-9.167V12a1.333 1.333 0 1 1-2.666 0V9.5H9.5v25.167a5.166 5.166 0 0 0 4.435 5.114 1.332 1.332 0 0 1-.602-1.114V36A1.333 1.333 0 0 1 16 36v2.667c0 .466-.24.876-.601 1.114a5.166 5.166 0 0 0 2.561-9.095 1.527 1.527 0 0 1-.091-.082ZM40 14.667a1.333 1.333 0 1 0-2.667 0v2.666a1.333 1.333 0 0 0 2.667 0v-2.666Zm10.667 0a1.333 1.333 0 0 0-2.667 0v2.666a1.333 1.333 0 1 0 2.667 0v-2.666ZM49.333 24c.737 0 1.334.597 1.334 1.333V28A1.333 1.333 0 0 1 48 28v-2.667c0-.736.597-1.333 1.333-1.333Zm0 10.667c.737 0 1.334.597 1.334 1.333v2.667a1.333 1.333 0 0 1-2.667 0V36c0-.736.597-1.333 1.333-1.333Zm0 10.666c.737 0 1.334.597 1.334 1.334v2.666a1.333 1.333 0 0 1-2.667 0v-2.666c0-.737.597-1.334 1.333-1.334Zm-4-25.333a1.333 1.333 0 1 0-2.666 0v2.667a1.333 1.333 0 0 0 2.666 0V20Zm0 10.667a1.333 1.333 0 1 0-2.666 0v2.666a1.333 1.333 0 1 0 2.666 0v-2.666Zm0 10.666a1.333 1.333 0 0 0-2.666 0V44a1.333 1.333 0 1 0 2.666 0v-2.667Zm-6.666 4c.736 0 1.333.597 1.333 1.334v2.666a1.333 1.333 0 1 1-2.667 0v-2.666c0-.737.597-1.334 1.334-1.334Zm-13.334-32c.737 0 1.334.597 1.334 1.334v2.666a1.333 1.333 0 0 1-2.667 0v-2.666c0-.737.597-1.334 1.333-1.334Zm-10.666 0c.736 0 1.333.597 1.333 1.334v2.666a1.333 1.333 0 1 1-2.667 0v-2.666c0-.737.597-1.334 1.334-1.334ZM20 18.667c.736 0 1.333.597 1.333 1.333v2.667a1.333 1.333 0 0 1-2.666 0V20c0-.736.597-1.333 1.333-1.333ZM14.667 24c.736 0 1.333.597 1.333 1.333V28a1.333 1.333 0 0 1-2.667 0v-2.667c0-.736.597-1.333 1.334-1.333Z"/>
</svg>
