<svg xmlns="http://www.w3.org/2000/svg" viewBox="0 0 64 64">
  <path fill-rule="evenodd" d="M39.727 5.606a1.5 1.5 0 1 0-2.12 2.121l4.105 4.106H13.333a1.5 1.5 0 0 0-1.5 1.5v28.38l-4.106-4.107a1.5 1.5 0 1 0-2.12 2.121l6.666 6.667a1.5 1.5 0 0 0 2.121 0l6.667-6.667a1.5 1.5 0 1 0-2.122-2.12l-4.106 4.105V14.833h26.88l-4.107 4.106a1.5 1.5 0 1 0 2.121 2.122l6.667-6.667a1.5 1.5 0 0 0 0-2.121l-6.667-6.667ZM52.167 24a1.5 1.5 0 1 0-3 0v2.667a1.5 1.5 0 1 0 3 0V24Zm0 10.667a1.5 1.5 0 1 0-3 0v2.666a1.5 1.5 0 0 0 3 0v-2.666Zm0 10.666a1.5 1.5 0 1 0-3 0v3.834h-3.834a1.5 1.5 0 0 0 0 3h5.334a1.5 1.5 0 0 0 1.5-1.5v-5.334ZM24 49.167a1.5 1.5 0 0 0 0 3h2.667a1.5 1.5 0 1 0 0-3H24Zm10.667 0a1.5 1.5 0 1 0 0 3h2.666a1.5 1.5 0 1 0 0-3h-2.666Z"/>
</svg>
