<svg xmlns="http://www.w3.org/2000/svg" viewBox="0 0 64 64">
  <path fill-rule="evenodd" d="M6.5 13.333a1.5 1.5 0 0 1 1.5-1.5h12a1.5 1.5 0 0 1 1.342 2.171c-.416.831-.5 2.66.333 4.325.763 1.526 2.263 2.838 4.992 2.838 2.728 0 4.229-1.313 4.991-2.838.833-1.664.75-3.494.334-4.325a1.5 1.5 0 0 1 1.341-2.17h12a1.5 1.5 0 0 1 1.5 1.5V24.55c1.526-.381 3.393-.56 5.148-.183 1.414.303 2.836.986 3.894 2.294C56.934 27.971 57.5 29.75 57.5 32c0 2.251-.566 4.03-1.625 5.339-1.058 1.308-2.48 1.991-3.894 2.294-1.755.376-3.622.198-5.148-.183v11.217a1.5 1.5 0 0 1-1.5 1.5h-12a1.5 1.5 0 0 1-1.341-2.171c.415-.831.499-2.66-.334-4.325-.762-1.526-2.263-2.838-4.991-2.838-2.729 0-4.23 1.313-4.992 2.838-.832 1.664-.749 3.494-.333 4.325A1.5 1.5 0 0 1 20 52.166H8a1.5 1.5 0 0 1-1.5-1.5v-12a1.5 1.5 0 0 1 2.17-1.341c.832.416 2.661.499 4.326-.333 1.525-.763 2.837-2.263 2.837-4.992s-1.312-4.229-2.837-4.992c-1.665-.832-3.494-.749-4.325-.333A1.5 1.5 0 0 1 6.5 25.333v-12Zm3 1.5v8.572c1.544-.148 3.3.151 4.838.92 2.474 1.237 4.495 3.737 4.495 7.675 0 3.938-2.02 6.438-4.495 7.675-1.539.769-3.294 1.068-4.838.92v8.572h8.572c-.148-1.544.15-3.3.92-4.838 1.237-2.474 3.737-4.496 7.675-4.496 3.938 0 6.437 2.022 7.675 4.496.769 1.538 1.067 3.294.92 4.838h8.571V37.333a1.5 1.5 0 0 1 2.171-1.341c1.107.553 3.424 1.12 5.348.708.92-.197 1.664-.597 2.19-1.247.524-.649.958-1.704.958-3.453 0-1.749-.434-2.804-.958-3.453-.526-.65-1.27-1.05-2.19-1.247-1.924-.412-4.241.155-5.348.708a1.5 1.5 0 0 1-2.17-1.341V14.833h-8.572c.147 1.544-.151 3.3-.92 4.838-1.238 2.474-3.737 4.496-7.675 4.496-3.938 0-6.438-2.022-7.675-4.496-.77-1.538-1.068-3.294-.92-4.838H9.5Z"/>
</svg>
