<svg xmlns="http://www.w3.org/2000/svg" viewBox="0 0 64 64">
  <path fill-rule="evenodd" d="M50.394 6.94a1.5 1.5 0 0 0-2.121 0L21.606 33.605a1.5 1.5 0 0 0-.344.534l-4 10.667a1.5 1.5 0 0 0 1.931 1.93l10.667-4a1.5 1.5 0 0 0 .534-.343l26.667-26.667a1.5 1.5 0 0 0 0-2.121l-6.667-6.667ZM23.446 36.86l-2.216 5.91 5.91-2.216-3.694-3.694Zm5.534 2.706 19.252-19.253-4.545-4.545L24.434 35.02l4.546 4.546Zm20.666-20.667-4.545-4.545 4.232-4.233 4.546 4.546-4.233 4.232ZM8 17.167a1.5 1.5 0 0 0-1.5 1.5V56A1.5 1.5 0 0 0 8 57.5h37.333a1.5 1.5 0 0 0 1.5-1.5V45.333a1.5 1.5 0 1 0-3 0V54.5H9.5V20.167h9.167a1.5 1.5 0 0 0 0-3H8Z"/>
</svg>
