<svg xmlns="http://www.w3.org/2000/svg" viewBox="0 0 64 64">
  <path fill-rule="evenodd" d="M8 6.5A1.5 1.5 0 0 0 6.5 8v18.667a1.5 1.5 0 0 0 1.5 1.5h18.667a1.5 1.5 0 0 0 1.5-1.5V8a1.5 1.5 0 0 0-1.5-1.5H8Zm29.333 2.667a1.5 1.5 0 0 0 0 3H56a1.5 1.5 0 0 0 0-3H37.333Zm0 13.333a1.5 1.5 0 0 0 0 3H56a1.5 1.5 0 0 0 0-3H37.333ZM8 35.833a1.5 1.5 0 0 0-1.5 1.5V56A1.5 1.5 0 0 0 8 57.5h18.667a1.5 1.5 0 0 0 1.5-1.5V37.333a1.5 1.5 0 0 0-1.5-1.5H8ZM37.333 38.5a1.5 1.5 0 0 0 0 3H56a1.5 1.5 0 0 0 0-3H37.333Zm0 13.333a1.5 1.5 0 0 0 0 3H56a1.5 1.5 0 1 0 0-3H37.333Z"/>
</svg>
