<svg xmlns="http://www.w3.org/2000/svg" viewBox="0 0 64 64">
  <path fill-rule="evenodd" d="M6.5 8A1.5 1.5 0 0 1 8 6.5h10.667a1.5 1.5 0 0 1 1.5 1.5v10.667a1.5 1.5 0 0 1-1.5 1.5H8a1.5 1.5 0 0 1-1.5-1.5V8Zm3 1.5v7.667h7.667V9.5H9.5ZM25.167 8a1.5 1.5 0 0 1 1.5-1.5h10.666a1.5 1.5 0 0 1 1.5 1.5v10.667a1.5 1.5 0 0 1-1.5 1.5H26.667a1.5 1.5 0 0 1-1.5-1.5V8Zm3 1.5v7.667h7.666V9.5h-7.666ZM43.833 8a1.5 1.5 0 0 1 1.5-1.5H56A1.5 1.5 0 0 1 57.5 8v10.667a1.5 1.5 0 0 1-1.5 1.5H45.333a1.5 1.5 0 0 1-1.5-1.5V8Zm3 1.5v7.667H54.5V9.5h-7.667ZM6.5 26.667a1.5 1.5 0 0 1 1.5-1.5h10.667a1.5 1.5 0 0 1 1.5 1.5v10.666a1.5 1.5 0 0 1-1.5 1.5H8a1.5 1.5 0 0 1-1.5-1.5V26.667Zm3 1.5v7.666h7.667v-7.666H9.5Zm15.667-1.5a1.5 1.5 0 0 1 1.5-1.5h10.666a1.5 1.5 0 0 1 1.5 1.5v10.666a1.5 1.5 0 0 1-1.5 1.5H26.667a1.5 1.5 0 0 1-1.5-1.5V26.667Zm3 1.5v7.666h7.666v-7.666h-7.666Zm15.666-1.5a1.5 1.5 0 0 1 1.5-1.5H56a1.5 1.5 0 0 1 1.5 1.5v10.666a1.5 1.5 0 0 1-1.5 1.5H45.333a1.5 1.5 0 0 1-1.5-1.5V26.667Zm3 1.5v7.666H54.5v-7.666h-7.667ZM6.5 45.333a1.5 1.5 0 0 1 1.5-1.5h10.667a1.5 1.5 0 0 1 1.5 1.5V56a1.5 1.5 0 0 1-1.5 1.5H8A1.5 1.5 0 0 1 6.5 56V45.333Zm3 1.5V54.5h7.667v-7.667H9.5Zm15.667-1.5a1.5 1.5 0 0 1 1.5-1.5h10.666a1.5 1.5 0 0 1 1.5 1.5V56a1.5 1.5 0 0 1-1.5 1.5H26.667a1.5 1.5 0 0 1-1.5-1.5V45.333Zm3 1.5V54.5h7.666v-7.667h-7.666Zm15.666-1.5a1.5 1.5 0 0 1 1.5-1.5H56a1.5 1.5 0 0 1 1.5 1.5V56a1.5 1.5 0 0 1-1.5 1.5H45.333a1.5 1.5 0 0 1-1.5-1.5V45.333Zm3 1.5V54.5H54.5v-7.667h-7.667Z"/>
</svg>
