<svg xmlns="http://www.w3.org/2000/svg" viewBox="0 0 64 64">
  <path fill-rule="evenodd" d="M6.5 8A1.5 1.5 0 0 1 8 6.5h18.667a1.5 1.5 0 0 1 1.5 1.5v18.667a1.5 1.5 0 0 1-1.5 1.5H8a1.5 1.5 0 0 1-1.5-1.5V8Zm3 1.5v15.667h15.667V9.5H9.5ZM35.833 8a1.5 1.5 0 0 1 1.5-1.5H56A1.5 1.5 0 0 1 57.5 8v18.667a1.5 1.5 0 0 1-1.5 1.5H37.333a1.5 1.5 0 0 1-1.5-1.5V8Zm3 1.5v15.667H54.5V9.5H38.833ZM6.5 37.333a1.5 1.5 0 0 1 1.5-1.5h18.667a1.5 1.5 0 0 1 1.5 1.5V56a1.5 1.5 0 0 1-1.5 1.5H8A1.5 1.5 0 0 1 6.5 56V37.333Zm3 1.5V54.5h15.667V38.833H9.5Zm26.333-1.5a1.5 1.5 0 0 1 1.5-1.5H56a1.5 1.5 0 0 1 1.5 1.5V56a1.5 1.5 0 0 1-1.5 1.5H37.333a1.5 1.5 0 0 1-1.5-1.5V37.333Zm3 1.5V54.5H54.5V38.833H38.833Z"/>
</svg>
