<svg xmlns="http://www.w3.org/2000/svg" viewBox="0 0 64 64">
      <g id="Square"> </g>
  <path fill-rule="evenodd" d="M21.333 9.5C14.798 9.5 9.5 14.798 9.5 21.333v12.388a14.81 14.81 0 0 1 11.833-5.888 14.81 14.81 0 0 1 11.834 5.888V21.334c0-6.536-5.298-11.834-11.834-11.834ZM6.5 21.333v21.334c0 8.192 6.641 14.833 14.833 14.833H56a1.5 1.5 0 0 0 1.5-1.5V26.667a1.5 1.5 0 0 0-1.5-1.5H36.167v-3.834c0-8.192-6.641-14.833-14.834-14.833C13.141 6.5 6.5 13.141 6.5 21.333Zm29.667 10.581v5.172l.46-.46a1 1 0 0 1 1.413 1.414l-1.873 1.874v2.753c0 .906-.082 1.794-.238 2.656l.697-.697a1 1 0 0 1 1.414 1.414l-2.666 2.667a.996.996 0 0 1-.622.29A14.892 14.892 0 0 1 30.28 54.5h4.473l1.874-1.874a1 1 0 0 1 1.414 1.414l-.46.46h5.172l1.874-1.874a1 1 0 0 1 1.414 1.414l-.46.46h5.172l1.874-1.874a1 1 0 0 1 1.414 1.414l-.46.46h.92V28.167H36.167v.919l.46-.46a1 1 0 0 1 1.413 1.414l-1.873 1.874ZM21.333 54.5c6.536 0 11.834-5.298 11.834-11.833 0-6.536-5.298-11.834-11.834-11.834-6.535 0-11.833 5.298-11.833 11.834 0 6.535 5.298 11.833 11.833 11.833ZM17.5 42.667a3.833 3.833 0 1 1 7.667 0 3.833 3.833 0 0 1-7.667 0Zm3.833-6.834a6.833 6.833 0 1 0 0 13.667 6.833 6.833 0 0 0 0-13.667ZM46.04 30.04a1 1 0 1 0-1.414-1.414l-2.666 2.667a1 1 0 1 0 1.414 1.414l2.666-2.667Zm8 0a1 1 0 1 0-1.414-1.414l-2.666 2.667a1 1 0 1 0 1.414 1.414l2.666-2.667Zm-8 8a1 1 0 1 0-1.414-1.414l-2.666 2.667a1 1 0 1 0 1.414 1.414l2.666-2.667Zm8 0a1 1 0 1 0-1.414-1.414l-2.666 2.667a1 1 0 1 0 1.414 1.414l2.666-2.667Zm-8 8a1 1 0 1 0-1.414-1.414l-2.666 2.667a1 1 0 1 0 1.414 1.414l2.666-2.667Zm8 0a1 1 0 1 0-1.414-1.414l-2.666 2.667a1 1 0 1 0 1.414 1.414l2.666-2.667Z"/>
</svg>
