<svg width="16" height="16" viewBox="0 0 16 16" fill="none" xmlns="http://www.w3.org/2000/svg">
  <g id="Square"> </g>
  <g id="Icon">
<path id="Union" fill-rule="evenodd" clip-rule="evenodd" d="M4.70711 3.29289C4.31658 2.90237 3.68342 2.90237 3.29289 3.29289C2.90237 3.68342 2.90237 4.31658 3.29289 4.70711L6.58579 8L3.29289 11.2929C2.90237 11.6834 2.90237 12.3166 3.29289 12.7071C3.68342 13.0976 4.31658 13.0976 4.70711 12.7071L8.70711 8.70711C9.09763 8.31658 9.09763 7.68342 8.70711 7.29289L4.70711 3.29289ZM9.70711 3.29289C9.31658 2.90237 8.68342 2.90237 8.29289 3.29289C7.90237 3.68342 7.90237 4.31658 8.29289 4.70711L11.5858 8L8.29289 11.2929C7.90237 11.6834 7.90237 12.3166 8.29289 12.7071C8.68342 13.0976 9.31658 13.0976 9.70711 12.7071L13.7071 8.70711C14.0976 8.31658 14.0976 7.68342 13.7071 7.29289L9.70711 3.29289Z" fill="black"/>
</g>
</svg>
