<svg width="16" height="16" viewBox="0 0 16 16" fill="none" xmlns="http://www.w3.org/2000/svg">
  <g id="Square"> </g>
  <g id="Icon">
<path id="Union" fill-rule="evenodd" clip-rule="evenodd" d="M7.70711 4.70711C8.09763 4.31658 8.09763 3.68342 7.70711 3.29289C7.31658 2.90237 6.68342 2.90237 6.29289 3.29289L2.29289 7.29289C1.90237 7.68342 1.90237 8.31658 2.29289 8.70711L6.29289 12.7071C6.68342 13.0976 7.31658 13.0976 7.70711 12.7071C8.09763 12.3166 8.09763 11.6834 7.70711 11.2929L4.41421 8L7.70711 4.70711ZM12.7071 4.70711C13.0976 4.31658 13.0976 3.68342 12.7071 3.29289C12.3166 2.90237 11.6834 2.90237 11.2929 3.29289L7.29289 7.29289C6.90237 7.68342 6.90237 8.31658 7.29289 8.70711L11.2929 12.7071C11.6834 13.0976 12.3166 13.0976 12.7071 12.7071C13.0976 12.3166 13.0976 11.6834 12.7071 11.2929L9.41421 8L12.7071 4.70711Z" fill="black"/>
</g>
</svg>
