<svg width="16" height="16" viewBox="0 0 16 16" fill="none" xmlns="http://www.w3.org/2000/svg">
  <g id="Square"> </g>
  <g id="Icon">
<path id="Vector" d="M9 3C9 2.44772 8.55228 2 8 2C7.44772 2 7 2.44772 7 3H9ZM8 13L7.29289 13.7071C7.68342 14.0976 8.31658 14.0976 8.70711 13.7071L8 13ZM11.7071 10.7071C12.0976 10.3166 12.0976 9.68342 11.7071 9.29289C11.3166 8.90237 10.6834 8.90237 10.2929 9.29289L11.7071 10.7071ZM5.70711 9.29289C5.31658 8.90237 4.68342 8.90237 4.29289 9.29289C3.90237 9.68342 3.90237 10.3166 4.29289 10.7071L5.70711 9.29289ZM7 3V13H9V3H7ZM8.70711 13.7071L11.7071 10.7071L10.2929 9.29289L7.29289 12.2929L8.70711 13.7071ZM8.70711 12.2929L5.70711 9.29289L4.29289 10.7071L7.29289 13.7071L8.70711 12.2929Z" fill="black"/>
</g>
</svg>
