<svg width="16" height="16" viewBox="0 0 16 16" fill="none" xmlns="http://www.w3.org/2000/svg">
  <g id="Square"> </g>
  <g id="Icon">
<path id="Vector" d="M7 13C7 13.5523 7.44772 14 8 14C8.55228 14 9 13.5523 9 13H7ZM8 3L8.70711 2.29289C8.31658 1.90237 7.68342 1.90237 7.29289 2.29289L8 3ZM4.29289 5.29289C3.90237 5.68342 3.90237 6.31658 4.29289 6.70711C4.68342 7.09763 5.31658 7.09763 5.70711 6.70711L4.29289 5.29289ZM10.2929 6.70711C10.6834 7.09763 11.3166 7.09763 11.7071 6.70711C12.0976 6.31658 12.0976 5.68342 11.7071 5.29289L10.2929 6.70711ZM9 13V3H7V13H9ZM7.29289 2.29289L4.29289 5.29289L5.70711 6.70711L8.70711 3.70711L7.29289 2.29289ZM7.29289 3.70711L10.2929 6.70711L11.7071 5.29289L8.70711 2.29289L7.29289 3.70711Z" fill="black"/>
</g>
</svg>
