<svg xmlns="http://www.w3.org/2000/svg" viewBox="0 0 16 16"><defs><style>.cls-1{fill:none;}.cls-2{fill:#999;}</style></defs><title>Payment_Euro_16px</title><g id="Square"><rect class="cls-1" width="16" height="16"/></g><g id="Name"><path class="cls-2" d="M11.39,11.18A3.89,3.89,0,0,1,9,12,4,4,0,0,1,5.3,9.5h5.2a.5.5,0,0,0,0-1H5.05A4.23,4.23,0,0,1,5,8a4.23,4.23,0,0,1,0-.5H10.5a.5.5,0,0,0,0-1H5.3A4,4,0,0,1,9,4a3.89,3.89,0,0,1,2.39.82,1,1,0,0,0,1.22-1.59A5.94,5.94,0,0,0,9,2,6,6,0,0,0,3.2,6.5H2.5a.5.5,0,0,0,0,1H3a4.18,4.18,0,0,0,0,1H2.5a.5.5,0,0,0,0,1h.7A6,6,0,0,0,9,14a5.94,5.94,0,0,0,3.61-1.23,1,1,0,0,0-1.22-1.59Z"/></g></svg>