<svg xmlns="http://www.w3.org/2000/svg" viewBox="0 0 232 49">
      <g id="Square"> </g>
  <path fill="#1D1D1B" d="M96.23 15.591c0-.506.202-.99.561-1.349a1.921 1.921 0 0 1 2.711 0c.36.358.561.843.561 1.35v10.303a8.544 8.544 0 0 1-2.515 6.04 8.622 8.622 0 0 1-6.064 2.513 8.622 8.622 0 0 1-6.068-2.505 8.544 8.544 0 0 1-2.524-6.037V15.603a1.899 1.899 0 0 1 .505-1.443 1.92 1.92 0 0 1 2.174-.452 1.92 1.92 0 0 1 1.042 1.12c.087.25.122.513.101.775v10.303a4.782 4.782 0 0 0 1.414 3.349 4.826 4.826 0 0 0 3.367 1.4 4.802 4.802 0 0 0 3.37-1.402 4.76 4.76 0 0 0 1.399-3.358l-.034-10.304Zm18.13 15.052c.508 0 .996.2 1.355.558a1.902 1.902 0 0 1 0 2.699 1.92 1.92 0 0 1-1.355.559h-5.322a7.2 7.2 0 0 1-5.078-2.094 7.133 7.133 0 0 1-2.104-5.056V15.591c0-.503.201-.985.559-1.341a1.907 1.907 0 0 1 3.252 1.341v11.696c0 .893.357 1.75.991 2.38a3.39 3.39 0 0 0 2.392.987h5.31v-.011Zm-32.212 1.694a1.9 1.9 0 0 1-.923 1.99 1.92 1.92 0 0 1-2.876-1.54l-1.635-13.728-5.852 13.47a1.924 1.924 0 0 1-2.514.999 1.878 1.878 0 0 1-.992-1L61.505 19.06l-1.647 13.727a1.9 1.9 0 0 1-.681 1.354 1.921 1.921 0 0 1-3.099-1.03 1.9 1.9 0 0 1-.019-.773L57.987 16.4a3.055 3.055 0 0 1 1.68-2.368c.12-.065.244-.121.372-.168h.146c.183-.063.372-.105.564-.124a3.272 3.272 0 0 1 2.672.842 3.14 3.14 0 0 1 .609.797c.042.069.08.14.113.213l4.96 11.449L74.066 15.5a3.163 3.163 0 0 1 2.255-1.807c.185-.038.374-.064.563-.078h.586a3.234 3.234 0 0 1 2.39 1.515c.107.173.194.357.26.55.047.12.081.244.101.37.006.083.006.165 0 .247l1.928 16.04Zm40.554.213c0 .507-.201.992-.561 1.35a1.92 1.92 0 0 1-2.711 0 1.905 1.905 0 0 1-.561-1.35V17.5h-5.445c-.509 0-.996-.202-1.356-.56a1.905 1.905 0 0 1 1.356-3.257h14.724c.508 0 .996.201 1.355.559a1.902 1.902 0 0 1 0 2.698 1.92 1.92 0 0 1-1.355.56h-5.446v15.05Zm11.952 0c0 .507-.202.992-.562 1.35a1.92 1.92 0 0 1-2.71 0 1.902 1.902 0 0 1-.562-1.35V15.592c0-.506.202-.991.562-1.349a1.92 1.92 0 0 1 3.272 1.35V32.55Zm39.247-.212c.032.487-.124.967-.437 1.343a1.917 1.917 0 0 1-2.615.317 1.908 1.908 0 0 1-.748-1.2l-.676-5.387h-6.585a1.924 1.924 0 0 1-1.903-1.139 1.913 1.913 0 0 1 0-1.528 1.923 1.923 0 0 1 1.126-1.038c.25-.086.514-.12.777-.1h6.156l-.18-1.403v-.135a7.576 7.576 0 0 0-.214-.977 6.308 6.308 0 0 0-.395-.998 4.338 4.338 0 0 0-1.564-1.846 4.37 4.37 0 0 0-2.314-.725c-.327.003-.652.04-.97.113a3.823 3.823 0 0 0-.857.325 5.324 5.324 0 0 0-2.661 4.243l-1.195 10.595a1.895 1.895 0 0 1-1.362 1.614 1.912 1.912 0 0 1-2.362-1.292 1.914 1.914 0 0 1-.064-.737l1.195-10.596a9.092 9.092 0 0 1 1.449-4.205 9.141 9.141 0 0 1 3.275-3.023 7.915 7.915 0 0 1 1.691-.617 8.286 8.286 0 0 1 1.861-.213 8.087 8.087 0 0 1 4.327 1.282 8.038 8.038 0 0 1 2.956 3.398c.261.52.48 1.06.654 1.616.147.512.256 1.033.327 1.56a.434.434 0 0 1 0 .169l1.308 10.584Zm5.851.212a1.902 1.902 0 0 1-1.144 1.895 1.922 1.922 0 0 1-2.577-1.12 1.902 1.902 0 0 1-.101-.774V16.837a1.477 1.477 0 0 1 0-.325 2.74 2.74 0 0 1 .147-.618l.157-.337a2.75 2.75 0 0 1 1.5-1.245l.259-.068h.711a2.72 2.72 0 0 1 2.018 1.033l10.147 12.941V15.591c0-.506.202-.991.561-1.349a1.922 1.922 0 0 1 2.711 0c.359.358.561.843.561 1.35v15.713a2.684 2.684 0 0 1-1.003 2.076 2.472 2.472 0 0 1-.632.382l-.157.067a2.705 2.705 0 0 1-2.052-.112l-.248-.124a2.285 2.285 0 0 1-.373-.291 2.603 2.603 0 0 1-.248-.247l-.067-.079-10.17-12.986v12.56Zm29.9-1.907c.508 0 .996.201 1.355.559a1.902 1.902 0 0 1 0 2.698 1.92 1.92 0 0 1-1.355.56h-5.637a7.56 7.56 0 0 1-5.334-2.2 7.494 7.494 0 0 1-2.209-5.31v-5.735a7.516 7.516 0 0 1 2.216-5.303 7.581 7.581 0 0 1 5.327-2.206h5.637c.508 0 .996.201 1.355.559a1.902 1.902 0 0 1 0 2.698 1.92 1.92 0 0 1-1.355.56h-5.637a3.762 3.762 0 0 0-2.638 1.122 3.672 3.672 0 0 0-1.128 2.615v5.735a3.728 3.728 0 0 0 1.1 2.62 3.76 3.76 0 0 0 2.632 1.096h5.637l.034-.068Zm11.083-13.155a5.22 5.22 0 0 0-3.619 1.437 4.672 4.672 0 0 0-1.477 3.367v3.558a4.648 4.648 0 0 0 1.466 3.367 5.22 5.22 0 0 0 3.619 1.437 5.222 5.222 0 0 0 3.619-1.437 4.672 4.672 0 0 0 1.477-3.367v-3.558a4.696 4.696 0 0 0-1.466-3.367 5.277 5.277 0 0 0-3.63-1.437m0-3.805a9.037 9.037 0 0 1 6.268 2.492 8.429 8.429 0 0 1 2.65 6.106v3.558a8.43 8.43 0 0 1-2.65 6.106 9.038 9.038 0 0 1-6.268 2.491 9.042 9.042 0 0 1-6.269-2.491 8.452 8.452 0 0 1-2.638-6.106V22.28a8.451 8.451 0 0 1 2.638-6.106 9.042 9.042 0 0 1 6.269-2.492ZM140.077 17.5v13.143h7.396a2.414 2.414 0 0 0 1.702-.705 2.392 2.392 0 0 0 .068-3.314l-.079-.067a2.359 2.359 0 0 0-1.691-.718h-2.548a1.92 1.92 0 0 1-1.355-.56 1.902 1.902 0 0 1 0-2.698 1.92 1.92 0 0 1 1.355-.558h.868a2.359 2.359 0 0 0 1.443-.663 2.234 2.234 0 0 0 .677-1.605 2.24 2.24 0 0 0-.661-1.587 2.26 2.26 0 0 0-1.594-.657h-5.581v-.012Zm-3.833 6.453V15.67a1.822 1.822 0 0 1 .158-.752 2.21 2.21 0 0 1 .439-.662 1.968 1.968 0 0 1 1.263-.54h7.498c1.617 0 3.169.64 4.313 1.78a6.062 6.062 0 0 1 1.786 4.293 6.116 6.116 0 0 1-.936 3.232c.408.24.786.527 1.128.854l.124.134a6.16 6.16 0 0 1 1.702 4.254 6.19 6.19 0 0 1-1.826 4.378 6.248 6.248 0 0 1-4.397 1.818h-9.336a1.92 1.92 0 0 1-1.355-.56 1.905 1.905 0 0 1-.561-1.348v-8.598Z"/>
  <path fill="#3D73B9" fill-rule="evenodd" d="M25.22 46.002h19.014c4.34 0 4.384-4.593 3.941-6.86-.241-1.524-2.843-1.5-3.13 0v1.769c0 .39-.156.764-.433 1.04-.277.275-.653.43-1.044.43H7.119a1.47 1.47 0 0 1-1.477-1.47v-1.768c-.287-1.501-2.889-1.525-3.13 0-.443 2.266-.398 6.859 3.94 6.859H25.22Zm-13.44-44h29.315c2.06 0 3.745 1.777 3.745 3.947v1.885c0 2.666-3.618 2.654-3.618.018V6.826c0-.319-.127-.624-.353-.85a1.209 1.209 0 0 0-.853-.35H10.64a1.198 1.198 0 0 0-1.206 1.2v1.008c0 2.651-3.456 2.633-3.456.057V5.952c.01-2.17 1.692-3.95 3.751-3.95h2.05Z"/>
  <path fill="#1D1D1B" fill-rule="evenodd" d="M44.102 23.678a5.789 5.789 0 0 1 2.472 2.087c.608.916.94 1.985.96 3.082 0 3.176-2.787 5.775-6.191 5.775h-9.55a1.581 1.581 0 0 1-1.12-.419 1.567 1.567 0 0 1-.502-1.082V15.027c.002-.42.17-.823.47-1.12a1.602 1.602 0 0 1 1.126-.465h7.95a6.09 6.09 0 0 1 3.355.997 6.05 6.05 0 0 1 2.243 2.675 6.017 6.017 0 0 1-1.213 6.564Zm-7.125-1.47h3.03v-.034c.68-.106 1.3-.45 1.749-.97a2.88 2.88 0 0 0 .7-1.867 2.872 2.872 0 0 0-.847-2.026 2.899 2.899 0 0 0-2.036-.843h-6.106v15.009h7.74a2.991 2.991 0 0 0 2.168-.835 2.964 2.964 0 0 0 .906-2.13 2.956 2.956 0 0 0-.906-2.13 2.98 2.98 0 0 0-2.168-.834h-4.23a1.68 1.68 0 0 1-1.546-1.028 1.66 1.66 0 0 1 .906-2.177 1.68 1.68 0 0 1 .64-.127"/>
  <path fill="#1D1D1B" d="M28.655 32.818a1.899 1.899 0 0 1-.384 1.445 1.913 1.913 0 0 1-1.312.727 1.926 1.926 0 0 1-1.436-.437 1.912 1.912 0 0 1-.68-1.333l-1.576-14.38-5.552 14.063v.171a1.84 1.84 0 0 1-.479.546l-.03.024c-.101.091-.212.17-.332.234l-.036.019-.033.018h-.19c-.18.064-.37.1-.561.105h-.139a1.844 1.844 0 0 1-.627-.13h-.157l-.033-.018-.03-.018h-.018a1.809 1.809 0 0 1-.302-.2l-.063-.058-.048-.045-.115-.03-.057-.063a1.8 1.8 0 0 1-.202-.3v-.018l-.018-.03-.018-.033v-.141L8.573 18.839 7.003 33.22a1.904 1.904 0 0 1-.701 1.282 1.921 1.921 0 0 1-2.693-.285 1.9 1.9 0 0 1-.415-1.4l1.851-16.953a3.15 3.15 0 0 1 1.348-2.25c.414-.285.89-.47 1.39-.536h.103c.161-.012.323-.012.485 0a3.15 3.15 0 0 1 2.807 1.993l4.746 11.941 4.737-11.98a3.14 3.14 0 0 1 1.106-1.412 3.161 3.161 0 0 1 1.702-.58 3.02 3.02 0 0 1 .485 0h.102a3.193 3.193 0 0 1 2.383 1.644 3.099 3.099 0 0 1 .356 1.153l1.86 16.98Z"/>
</svg>
