<svg viewBox="0 0 53 52" xmlns="http://www.w3.org/2000/svg">
<g id="Square"> </g>
<path fill-rule="evenodd" clip-rule="evenodd" d="M27.4201 4.88587C27.8694 5.36057 28.3156 5.83845 28.758 6.31301L29.4801 7.06994C29.5352 7.12769 29.5866 7.18926 29.6263 7.24421L28.3467 8.59663C27.3431 7.50316 25.2676 5.15552 25.183 5.0599L25.1827 5.2166L25.183 5.24208L25.1826 20.6666H23.4031V5.24208L23.4034 5.21664L23.403 5.0599C23.3185 5.15552 21.243 7.50316 20.2393 8.59663C19.7624 8.09263 19.3572 7.66433 18.9597 7.23389C18.9715 7.22063 18.9843 7.20588 18.998 7.19019C19.0303 7.15303 19.0673 7.11054 19.106 7.06994L19.8281 6.31296C20.2704 5.83843 20.7167 5.36057 21.166 4.88587C21.7772 4.24014 22.3928 3.5991 23.0085 2.95805C23.1887 2.77041 23.3689 2.58276 23.549 2.395C23.8049 2.12818 24.0488 1.9966 24.293 2.00007C24.5373 1.9966 24.7812 2.12818 25.0371 2.395C25.217 2.58261 25.3971 2.7701 25.5772 2.9576C26.193 3.59879 26.8088 4.23998 27.4201 4.88587ZM18.429 20.9479H7.71609C6.84952 20.9479 6.00081 20.7044 5.26626 20.2593V44.4995C5.26626 46.2583 6.68809 47.6889 8.43741 47.6889H41.5904C42.5441 47.6889 43.3201 46.9077 43.3201 45.9475V43.8917C43.3201 43.2539 43.8367 42.7362 44.4733 42.7362C45.1098 42.7362 45.6264 43.2539 45.6264 43.8917V45.9475C45.6264 48.1823 43.816 50 41.5904 50H8.43741C5.41732 50 2.95996 47.5329 2.95996 44.4995V16.489C2.95996 16.4495 2.96194 16.4105 2.96581 16.372C2.95455 16.1418 2.95948 15.9096 2.98118 15.6769C3.20836 13.2412 5.35786 11.3333 7.87176 11.3333H18.429C19.0655 11.3333 19.5821 11.8388 19.5821 12.4616C19.5821 13.0844 19.0655 13.5898 18.429 13.5898H7.87176C6.53755 13.5898 5.39822 14.5973 5.27713 15.8823C5.20795 16.6359 5.45588 17.3771 5.95866 17.9164C6.42454 18.4162 7.04956 18.6915 7.71609 18.6915H18.429C19.0655 18.6915 19.5821 19.1969 19.5821 19.8197C19.5821 20.4424 19.0655 20.9479 18.429 20.9479ZM44.4732 26C43.8367 26 43.3201 25.4946 43.3201 24.8718V22.762C43.3201 21.7624 42.5451 20.9479 41.5903 20.9479H29.6493C29.0127 20.9479 28.4961 20.4424 28.4961 19.8197C28.4961 19.1969 29.0127 18.6915 29.6493 18.6915H40.4372V15.4051C40.4372 14.4044 39.6622 13.5898 38.7074 13.5898H29.188C28.5515 13.5898 28.0349 13.0844 28.0349 12.4616C28.0349 11.8388 28.5515 11.3333 29.188 11.3333H38.7074C40.933 11.3333 42.7435 13.16 42.7435 15.4051V18.74C42.7435 18.7806 42.7412 18.8201 42.7377 18.8584C44.4063 19.3582 45.6264 20.9196 45.6264 22.762V24.8718C45.6264 25.4946 45.111 26 44.4732 26ZM31.1813 29.7778C29.8643 29.7778 28.6086 30.3926 27.7356 31.4657C26.8475 32.5572 26.4591 34.0079 26.6689 35.4477C27.0109 37.7894 29.0248 39.5555 31.3518 39.5555H48.372C48.5204 39.5555 48.641 39.4187 48.641 39.25V30.0834C48.641 29.9147 48.5192 29.7778 48.3685 29.7778H31.1813ZM48.372 42H31.3517C27.891 42 24.8915 39.3429 24.3768 35.8192C24.0637 33.6742 24.6469 31.5085 25.9755 29.8744C27.2904 28.2598 29.1872 27.3334 31.1813 27.3334H48.3685C49.7969 27.3334 50.9598 28.5666 50.9598 30.0834V39.25C50.9598 40.7668 49.7993 42 48.372 42ZM31.6263 33.5557C31.014 33.5557 30.5151 34.0546 30.5151 34.6669C30.5151 35.2791 31.014 35.778 31.6263 35.778C32.2385 35.778 32.7374 35.2791 32.7374 34.6669C32.7374 34.0546 32.2385 33.5557 31.6263 33.5557ZM31.6263 38.0001C29.7885 38.0001 28.293 36.5046 28.293 34.6669C28.293 32.8291 29.7885 31.3335 31.6263 31.3335C33.464 31.3335 34.9596 32.8291 34.9596 34.6669C34.9596 36.5046 33.464 38.0001 31.6263 38.0001Z" fill="#666666"/>
</svg>
