<svg xmlns="http://www.w3.org/2000/svg" viewBox="0 0 116 48">
      <g id="Square"> </g>
  <path fill="red" d="m5.747 40.39-.157 1.194a.973.973 0 0 0 .849 1.085H45.08c.55 0 .99-.424 1.006-.974v-.126l-.157-1.195a1.692 1.692 0 0 1 1.508-1.854c.912-.094 1.745.566 1.839 1.477l.157 1.163c.299 2.577-1.163 4.84-3.787 4.84H6.03c-2.608 0-4.054-2.263-3.755-4.84l.157-1.163a1.659 1.659 0 0 1 1.823-1.477c.927.11 1.602.927 1.508 1.854"/>
  <path fill="#1D1D1B" d="M41.356 31.448c1.744.095 3.221-1.241 3.331-2.985v-.157c-.031-1.839-1.712-3.033-3.582-3.033h-3.772c-.88 0-1.587-.707-1.587-1.587s.707-1.588 1.587-1.588h2.53c1.697-.062 3.017-1.1 3.096-2.702.078-1.729-1.399-3.018-3.206-3.018h-6.128v15.023h7.731m4.636-12.021a4.955 4.955 0 0 1-1.477 3.551l-.095.11.126.079a6.154 6.154 0 0 1 3.159 5.154 6.332 6.332 0 0 1-6.192 6.412h-9.491c-.912 0-1.65-.755-1.634-1.682v-18.04c0-.911.722-1.666 1.634-1.681h7.731a6.072 6.072 0 0 1 6.239 5.893v.204m-29.999 9.146.047.125.047-.125c.425-1.195.96-2.53 1.51-3.945.55-1.414 1.13-2.954 1.696-4.337a71.717 71.717 0 0 1 1.634-3.724 13.35 13.35 0 0 1 1.258-2.279 2.525 2.525 0 0 1 2.027-.942h.393c.44-.016.864.125 1.21.392.267.22.44.535.487.88l2.404 18.653c.016.425-.126.817-.409 1.132a1.65 1.65 0 0 1-1.162.377 1.756 1.756 0 0 1-1.21-.362 1.327 1.327 0 0 1-.566-.943 47.225 47.225 0 0 1-.22-2.074c-.063-.77-.487-4.007-.581-4.824-.095-.817-.77-6.113-1.006-8.03v-.157l-.77 1.618c-.252.55-.55 1.226-.849 1.996-.298.77-.628 1.603-.927 2.467-.299.864-1.823 5.092-1.823 5.092a38.752 38.752 0 0 0-.628 1.901c-.22.739-.456 1.367-.519 1.477a2.164 2.164 0 0 1-2.907.943 2.208 2.208 0 0 1-.974-.959c-.063-.125-.283-.77-.519-1.477-.236-.707-.487-1.492-.628-1.901 0 0-1.493-4.259-1.823-5.091-.33-.833-.629-1.682-.928-2.468a31.878 31.878 0 0 0-.848-1.995l-.77-1.603v.157c-.236 1.901-.911 7.181-1.006 8.03-.094.848-.503 4.054-.581 4.808-.079.755-.157 1.446-.236 2.075a1.358 1.358 0 0 1-.566.943 1.93 1.93 0 0 1-1.21.361 1.65 1.65 0 0 1-1.162-.377 1.576 1.576 0 0 1-.41-1.132l2.374-18.637c.063-.33.236-.628.487-.832a1.81 1.81 0 0 1 1.21-.425h.393a2.48 2.48 0 0 1 2.011.927c.503.707.927 1.478 1.257 2.279a66.102 66.102 0 0 1 1.635 3.724 361.028 361.028 0 0 1 1.712 4.337c.55 1.43 1.07 2.75 1.493 3.945"/>
  <path fill="red" d="M11.263 2.016h29.244c2.75 0 4.133 2.074 4.432 4.793l.126.88a1.715 1.715 0 0 1-1.509 1.901 1.673 1.673 0 0 1-1.807-1.524l-.126-.849c-.126-1.037-.55-1.838-1.618-1.838H11.782c-1.053 0-1.493.801-1.619 1.838l-.11.833A1.677 1.677 0 0 1 8.23 9.574a1.715 1.715 0 0 1-1.508-1.901l.125-.88C7.177 4.074 8.545 2 11.28 2"/>
  <path fill="#1D1D1B" d="M68.243 20.417c-.314 1.21-.644 2.514-.99 3.944-.346 1.43-.691 2.719-.99 3.945a32.744 32.744 0 0 1-.99 3.315 11.61 11.61 0 0 1-.754 1.98 1.948 1.948 0 0 1-1.87.927c-.33 0-.66-.062-.99-.141a1.608 1.608 0 0 1-.99-.849 11.96 11.96 0 0 1-.755-2.058c-.298-.99-.612-2.184-.99-3.52-.377-1.336-.66-2.734-.99-4.227-.33-1.493-.644-2.876-.895-4.149a198.313 198.313 0 0 0-.676-3.253c-.188-.88-.283-1.43-.298-1.618v-.346c0-.361.157-.707.44-.911a1.618 1.618 0 0 1 1.068-.346c.346 0 .691.078.99.251.283.22.471.535.534.88l.173.99c.11.629.283 1.367.472 2.279.188.911.408 1.98.628 3.127.22 1.147.472 2.326.739 3.52s.518 2.326.77 3.441c.251 1.116.487 2.059.707 2.86.22-.754.471-1.602.723-2.577.251-.974.55-1.98.817-2.954.267-.974.518-2.059.754-3.096s.472-1.98.692-2.875c.22-.896.392-1.666.55-2.358.157-.691.282-1.194.361-1.524.094-.393.314-.738.629-.99a1.782 1.782 0 0 1 2.31-.063c.314.252.518.597.597.99.267 1.069.518 2.295.817 3.646.299 1.351.597 2.703.896 4.07.298 1.367.644 2.719.99 4.054.345 1.336.66 2.483.99 3.505.22-.802.471-1.745.722-2.86.252-1.116.503-2.248.77-3.442.268-1.194.535-2.326.77-3.488.236-1.163.472-2.185.676-3.112.204-.927.362-1.666.472-2.247.11-.581.188-.896.188-.911.063-.346.252-.645.534-.865.299-.188.645-.267.99-.251.393 0 .77.11 1.069.346.283.22.44.565.44.911v.361c0 .173-.126.708-.314 1.619-.189.911-.409 1.98-.676 3.253a327.058 327.058 0 0 1-.896 4.133c-.33 1.477-.675 2.875-.99 4.211-.314 1.336-.628 2.514-.99 3.52-.188.707-.44 1.383-.754 2.027-.204.409-.55.739-.99.896a2.98 2.98 0 0 1-.99.173h-.408c-.19-.032-.393-.063-.566-.126a3.104 3.104 0 0 1-.597-.314 1.455 1.455 0 0 1-.472-.597 16.34 16.34 0 0 1-.707-2.09 226.12 226.12 0 0 1-.911-3.3c-.33-1.226-.629-2.53-.99-3.866-.362-1.336-.597-2.593-.865-3.756m17.49 7.842c-.33 1.068-.628 2.058-.88 2.954-.251.896-.502 1.65-.722 2.231a1.502 1.502 0 0 1-1.682 1.289 1.501 1.501 0 0 1-1.289-1.681c0-.142.016-.3.063-.44l.409-1.368c.236-.77.55-1.728.911-2.891.362-1.163.802-2.404 1.257-3.787a136.77 136.77 0 0 1 1.415-4.07c.487-1.336.99-2.593 1.445-3.756.378-.974.818-1.917 1.336-2.829a1.47 1.47 0 0 1 .723-.754c.393-.141.801-.22 1.226-.204.424 0 .848.063 1.257.22.33.157.597.456.707.801.314.66.692 1.556 1.116 2.672.424 1.116.895 2.326 1.367 3.63.471 1.304.99 2.624 1.414 3.944.424 1.32.896 2.609 1.289 3.771.393 1.163.723 2.169.99 2.955s.456 1.351.518 1.603c.047.141.079.282.063.44a1.24 1.24 0 0 1-.408.99 1.57 1.57 0 0 1-1.163.392 1.223 1.223 0 0 1-.864-.251 1.586 1.586 0 0 1-.44-.707c-.22-.581-.488-1.32-.786-2.231-.299-.912-.629-1.902-.99-2.955h-8.344m7.4-2.891a140.241 140.241 0 0 0-1.335-3.945c-.424-1.178-.801-2.325-1.273-3.441-.11-.251-.22-.518-.345-.864-.126-.346-.205-.503-.22-.566a2.258 2.258 0 0 0-.22.534 7.509 7.509 0 0 1-.362.896 76.552 76.552 0 0 0-1.288 3.441c-.425 1.21-.849 2.53-1.32 3.945h6.363Zm11.378.707a2.48 2.48 0 0 1-.314-.377l-.33-.456c-.314-.44-.644-.99-.99-1.618-.346-.629-.739-1.304-1.1-1.98a39.445 39.445 0 0 1-1.053-2.153c-.33-.723-.676-1.399-.943-1.98-.267-.581-.518-1.163-.723-1.619a6.729 6.729 0 0 1-.361-.99c-.031-.078-.063-.172-.094-.251v-.251c0-.378.141-.723.408-.99.314-.283.739-.44 1.163-.409a1.22 1.22 0 0 1 .99.33c.173.189.314.424.409.66l.33.723c.173.377.377.833.613 1.398.235.566.518 1.163.832 1.839.315.676.629 1.32.99 1.98l.943 1.839c.252.502.535.974.849 1.445a24.78 24.78 0 0 0 1.367-2.435c.487-.99.99-1.933 1.399-2.876.408-.943.832-1.792 1.162-2.514l.582-1.368a2.22 2.22 0 0 1 .408-.66 1.11 1.11 0 0 1 .99-.33 1.52 1.52 0 0 1 1.163.409c.267.251.425.613.409.99v.251l-.079.252-.393.99c-.188.471-.424.99-.707 1.618a96.204 96.204 0 0 1-.911 1.98c-.33.692-.707 1.43-1.069 2.153a22.795 22.795 0 0 1-1.1 1.98c-.377.597-.707 1.195-.99 1.635a5.028 5.028 0 0 1-.644.77v6.914a1.5 1.5 0 0 1-.409 1.1 1.507 1.507 0 0 1-2.121 0 1.604 1.604 0 0 1-.471-1.132V26.09"/>
</svg>
