<svg xmlns="http://www.w3.org/2000/svg" viewBox="0 0 48 48"><defs><style>.cls-1{fill:none;}.cls-2{fill:#81bc00;}.cls-3{fill:#fff;}</style></defs><title>Payment_Colors_Oney_48px</title><g id="Square"><rect class="cls-1" width="48" height="48"/></g><g id="Icon"><rect class="cls-2" x="4" y="10" width="40" height="28" rx="2"/><path class="cls-3" d="M28.11,20.49c.22,0,.44.05.65.09a3.42,3.42,0,0,1,2.64,2.76,4.28,4.28,0,0,1,0,1.13H26v.05a2.2,2.2,0,0,0,2.21,1.77,2.3,2.3,0,0,0,1.62-.7.19.19,0,0,1,.1-.05h1.28l0,0c-.06.1-.11.21-.17.3a3.35,3.35,0,0,1-2.33,1.55,3.4,3.4,0,0,1-4-2.7A3.5,3.5,0,0,1,26.25,21a3.25,3.25,0,0,1,1.66-.52l.11,0ZM26,23.36h4.1a2.09,2.09,0,0,0-4.1,0Z"/><path class="cls-3" d="M13.75,20.49c.17,0,.35.05.52.09a3.51,3.51,0,0,1,1.88,5.69,3.28,3.28,0,0,1-2.77,1.21,3.33,3.33,0,0,1-3.14-2.23,6.41,6.41,0,0,1-.21-.89.36.36,0,0,1,0-.1v-.55s0-.06,0-.08a3.41,3.41,0,0,1,2.67-3l.55-.1Zm2,3.5c0-.16,0-.32-.06-.48a2.24,2.24,0,0,0-2.64-1.77l-.33.09a2.3,2.3,0,0,0-1.42,2.75,2.27,2.27,0,0,0,2.52,1.7A2.32,2.32,0,0,0,15.76,24Z"/><path class="cls-3" d="M33,29.49l1-2.42a.33.33,0,0,0,0-.14l-2.7-6.43h1.4a.43.43,0,0,0,0,.05l2,4.77a.15.15,0,0,0,0,.06l0-.12c.24-.6.49-1.19.73-1.79.41-1,.81-2,1.21-3H38l0,.12L35.35,27l-1,2.49Z"/><path class="cls-3" d="M21.13,20.49c.17,0,.35.05.52.09a2.8,2.8,0,0,1,2.2,2.07,3.77,3.77,0,0,1,.1.88c0,1.28,0,2.57,0,3.85v.1H22.69V23.67a3.59,3.59,0,0,0-.09-.81,1.45,1.45,0,0,0-1.18-1.15,2.79,2.79,0,0,0-1.15,0A1.49,1.49,0,0,0,19,23a3.79,3.79,0,0,0-.06.67v3.79H17.72s0,0,0-.06c0-1.35,0-2.69,0-4a2.7,2.7,0,0,1,1-2.13,3.06,3.06,0,0,1,1.73-.73l.12,0Z"/></g></svg>