<svg xmlns="http://www.w3.org/2000/svg" xmlns:xlink="http://www.w3.org/1999/xlink" viewBox="0 0 48 48"><defs><style>.cls-1{fill:none;}.cls-2{fill:#ecaa3a;}.cls-3{opacity:0.3;fill:url(#Dégradé_sans_nom_17);}.cls-4{fill:#111116;}.cls-5{fill:#fff;}.cls-6{fill:#d35d91;}.cls-7{fill:#b9cd5c;}.cls-8{fill:#9779ab;}</style><radialGradient id="Dégradé_sans_nom_17" cx="24" cy="-415" r="15" gradientTransform="translate(0 87.33) scale(1 0.13)" gradientUnits="userSpaceOnUse"><stop offset="0" stop-color="#7f4413"/><stop offset="0.24" stop-color="#7f4413" stop-opacity="0.71"/><stop offset="0.58" stop-color="#7f4413" stop-opacity="0.33"/><stop offset="0.85" stop-color="#7f4413" stop-opacity="0.09"/><stop offset="1" stop-color="#7f4413" stop-opacity="0"/></radialGradient></defs><title>Payment_Colors_Illicado_48px</title><g id="Square"><rect class="cls-1" width="48" height="48"/></g><g id="Icon"><rect class="cls-2" x="4" y="10" width="40" height="28" rx="2"/><ellipse class="cls-3" cx="24" cy="32" rx="15" ry="2"/><path class="cls-4" d="M9.39,30.62H32.6a6.63,6.63,0,0,0,6.53-5.38,6.61,6.61,0,0,0-5.25-7.73,6.54,6.54,0,0,0-1.25-.12H15.87a6.6,6.6,0,0,0-6.41,4.95,6.53,6.53,0,0,0-.21,1.58V30.5C9.25,30.62,9.24,30.62,9.39,30.62Z"/><path class="cls-5" d="M15.86,17.39H32.64a6.51,6.51,0,0,1,1.24.12,6.61,6.61,0,0,1,5.25,7.73,6.63,6.63,0,0,1-6.46,5.38H9.39c-.15,0-.14,0-.14-.12V23.92a6.53,6.53,0,0,1,.21-1.58,6.61,6.61,0,0,1,6.4-4.95m0-.25a6.85,6.85,0,0,0-6.64,5.14A6.42,6.42,0,0,0,9,23.92v6.6a.33.33,0,0,0,.09.26.36.36,0,0,0,.3.09H32.67a6.91,6.91,0,0,0,6.71-5.58,6.86,6.86,0,0,0-6.74-8.15H15.86Z"/><path class="cls-5" d="M23.31,25.65a.25.25,0,0,0-.34.06l-.11.15a1,1,0,0,1-.77.5,1.67,1.67,0,0,1-.83-.06,1,1,0,0,1-.7-.86,1.2,1.2,0,0,1,1-1.38,1.17,1.17,0,0,1,1.05.31l.24.21c.14.12.22.12.37,0a.28.28,0,0,0,.09-.4,1.18,1.18,0,0,0-.23-.27,1.94,1.94,0,0,0-1.06-.52,1.72,1.72,0,0,0-.81.08,2,2,0,0,0-1.11.84,1.65,1.65,0,0,0-.27,1,1.67,1.67,0,0,0,.12.62A1.6,1.6,0,0,0,21.33,27a2.61,2.61,0,0,0,1.27-.12,1.41,1.41,0,0,0,.84-.71L23.5,26a.28.28,0,0,0-.08-.32Z"/><path class="cls-5" d="M31.8,25.33c0-.25,0-.5-.05-.75,0-.58-.06-1.17,0-1.75s.05-1.16.11-1.74a1.55,1.55,0,0,0,0-.43c0-.17-.08-.22-.25-.21h-.16a.44.44,0,0,0-.34.41c-.05.87-.09,1.74-.07,2.61v.08a1.21,1.21,0,0,0-.42-.13,1.89,1.89,0,0,0-1.57.47,1.47,1.47,0,0,0-.43.78,2.2,2.2,0,0,0,0,1.32,1.42,1.42,0,0,0,1.05,1A1.58,1.58,0,0,0,31,26.76c.12-.08.31-.28.35-.27s0,0,0,.07.06.18.1.27a.29.29,0,0,0,.11.11.38.38,0,0,0,.45-.15.18.18,0,0,0,0-.16C31.94,26.2,31.86,25.77,31.8,25.33Zm-.7.05a.93.93,0,0,1-.69.89.91.91,0,0,1-1.24-.81,1.84,1.84,0,0,1,.1-.77.93.93,0,0,1,.71-.6l.32,0h.15a.64.64,0,0,1,.54.38,1.46,1.46,0,0,1,.07.19A2.37,2.37,0,0,1,31.1,25.38Z"/><path class="cls-5" d="M36,24.27a1.66,1.66,0,0,0-1.44-.9,2.1,2.1,0,0,0-.89.16,1.76,1.76,0,0,0-1,1.29,2.37,2.37,0,0,0,0,.92A1.79,1.79,0,0,0,34,27a2.29,2.29,0,0,0,.37,0,1.72,1.72,0,0,0,1.21-.39,1.79,1.79,0,0,0,.51-.62l0-.08a1.78,1.78,0,0,0,.12-1A2.18,2.18,0,0,0,36,24.27Zm-.44,1.23a1,1,0,0,1-.43.67,1.18,1.18,0,0,1-.71.23,1.14,1.14,0,0,1-1.18-.85,1.52,1.52,0,0,1,0-.67,1,1,0,0,1,.7-.78,1.9,1.9,0,0,1,.58-.09,1,1,0,0,1,1,.7A1.62,1.62,0,0,1,35.55,25.5Z"/><path class="cls-5" d="M27.77,25.19c0-.27,0-.61,0-.81v-.59c0-.18-.06-.24-.24-.24a.48.48,0,0,0-.26.07.2.2,0,0,1-.22,0l-.16-.07a2.2,2.2,0,0,0-2.06.25,2,2,0,0,0-.7,1.29,1.64,1.64,0,0,0,0,.66A1.74,1.74,0,0,0,25.46,27,2,2,0,0,0,27,26.66l.22-.15a1.89,1.89,0,0,0,.11.25.29.29,0,0,0,.44.16.28.28,0,0,0,.19-.37A8.92,8.92,0,0,1,27.77,25.19Zm-.63.21a.74.74,0,0,1-.25.61,1.51,1.51,0,0,1-.68.37A1.21,1.21,0,0,1,25,26a.94.94,0,0,1-.25-.47,1.25,1.25,0,0,1,.83-1.46,1.6,1.6,0,0,1,.84,0,.72.72,0,0,1,.65.67,2,2,0,0,1,0,.49Z"/><path class="cls-2" d="M18.74,21.39a.64.64,0,0,0-.8.63c0,.06,0,.11,0,.16l0,.1a.63.63,0,0,0,.81.37h.05a.59.59,0,0,0,.36-.74C19.14,21.65,19.13,21.51,18.74,21.39Z"/><path class="cls-2" d="M18.58,23.42a.35.35,0,0,0-.41.23,2,2,0,0,0-.1.54c0,.4,0,.8,0,1.2s0,.85,0,1.28a.26.26,0,0,0,.1.2.61.61,0,0,0,.43.13h0a.27.27,0,0,0,.24-.28,2.09,2.09,0,0,0,0-.25,12.78,12.78,0,0,1,0-1.75l.06-.92h0A.34.34,0,0,0,18.58,23.42Z"/><path class="cls-6" d="M14.83,20.47a.37.37,0,0,0-.49.26,2.85,2.85,0,0,0-.12.58c0,.13,0,.26-.05.39q-.12,1.26-.12,2.52,0,.66,0,1.32c0,.06,0,.12,0,.19a5.26,5.26,0,0,0,.12.78,1.09,1.09,0,0,0,.07.24.39.39,0,0,0,.37.24.41.41,0,0,0,.19,0h0a.24.24,0,0,0,.18-.27c0-.26-.06-.51-.08-.78s-.05-.54-.06-.81c0-.72-.06-1.45,0-2.17,0-.44.06-.88.11-1.31,0-.23,0-.45.08-.67a.81.81,0,0,0,0-.22A.27.27,0,0,0,14.83,20.47Z"/><path class="cls-7" d="M13,23.73a.37.37,0,0,0-.26-.3.49.49,0,0,0-.46.12.26.26,0,0,0-.07.19c0,.46,0,.92,0,1.37v.09q0,.71,0,1.41c0,.3.12.4.41.38h.08c.19,0,.26-.11.27-.31,0-.84,0-1.69,0-2.54A1.84,1.84,0,0,0,13,23.73Z"/><path class="cls-7" d="M12.51,21.36a.71.71,0,0,0-.63.72.68.68,0,0,0,.67.6.62.62,0,0,0,.62-.68A.66.66,0,0,0,12.51,21.36Z"/><path class="cls-8" d="M16.94,21.45l.09-.72a.22.22,0,0,0-.16-.25.53.53,0,0,0-.41,0,.31.31,0,0,0-.18.22,2.31,2.31,0,0,0-.12.52A17.76,17.76,0,0,0,16,23c0,.37,0,.75,0,1s0,.64,0,.92a9.65,9.65,0,0,0,.14,1.52,1.46,1.46,0,0,0,.05.2c0,.05.05.1.07.14.09.2.58.18.67,0A.39.39,0,0,0,17,26.6c0-.23-.05-.33-.07-.68s-.05-.7-.07-1.05c0-.64,0-1.29,0-1.94A12.13,12.13,0,0,1,16.94,21.45Z"/></g></svg>