<svg xmlns="http://www.w3.org/2000/svg" xmlns:xlink="http://www.w3.org/1999/xlink" viewBox="0 0 48 48"><defs><style>.cls-1{fill:none;}.cls-2{fill:url(#Dégradé_sans_nom_16);}.cls-3{fill:#b7eef5;}.cls-4{fill:#84dbeb;}.cls-5{fill:#25a8d0;}</style><linearGradient id="Dégradé_sans_nom_16" x1="2292.74" y1="-1976.73" x2="2258.82" y2="-2010.78" gradientTransform="matrix(-1.14, 0, 0, 0.79, 2615.83, 1607.72)" gradientUnits="userSpaceOnUse"><stop offset="0" stop-color="#fff"/><stop offset="0.53" stop-color="#f1fdfe"/><stop offset="1" stop-color="#ecfcfd"/></linearGradient></defs><title>Payment_Colors_Cheque_48px</title><g id="Square"><rect class="cls-1" width="48" height="48"/></g><g id="Icon"><rect class="cls-2" x="4" y="10" width="40" height="28" rx="2"/><path class="cls-3" d="M42,11a1,1,0,0,1,1,1V36a1,1,0,0,1-1,1H6a1,1,0,0,1-1-1V12a1,1,0,0,1,1-1H42m0-1H6a2,2,0,0,0-2,2V36a2,2,0,0,0,2,2H42a2,2,0,0,0,2-2V12a2,2,0,0,0-2-2Z"/><path class="cls-4" d="M37,20H24.41l2-2H37a1,1,0,0,0,0-2H28.41l.8-.79a1,1,0,0,0-1.42-1.42L25.59,16H11a1,1,0,0,0,0,2H23.59l-2,2H11a1,1,0,0,0,0,2h8.59l-.8.79a1,1,0,0,0,0,1.42,1,1,0,0,0,1.42,0L22.41,22H37a1,1,0,0,0,0-2Z"/><rect class="cls-3" x="10" y="27" width="12" height="7" rx="1"/><path class="cls-5" d="M25,34a1,1,0,0,1-.37-.07,1,1,0,0,1-.56-1.3C26.32,27,27.5,27,28,27s1.38,0,3.09,3.67C32.57,28,33,28,33.5,28s1.07,0,3.12,4H38a1,1,0,0,1,0,2H36a1,1,0,0,1-.89-.55c-.51-1-1.15-2.19-1.61-2.92-.46.73-1.1,1.9-1.61,2.92A1,1,0,0,1,31,34a1,1,0,0,1-.89-.63A23,23,0,0,0,28,29.25a23,23,0,0,0-2.07,4.12A1,1,0,0,1,25,34Zm8-4.16Z"/></g></svg>