<svg xmlns="http://www.w3.org/2000/svg" xmlns:xlink="http://www.w3.org/1999/xlink" viewBox="0 0 48 48"><defs><style>.cls-1{fill:none;}.cls-2{fill:url(#Dégradé_sans_nom_196);}.cls-3{fill:#d3d2d6;}.cls-4{fill:#179bd7;}.cls-5{fill:#253b80;}.cls-6{fill:#222d65;}</style><linearGradient id="Dégradé_sans_nom_196" x1="2893.71" y1="-1976.73" x2="2859.8" y2="-2010.78" gradientTransform="matrix(-1.14, 0, 0, 0.79, 3300.27, 1607.72)" gradientUnits="userSpaceOnUse"><stop offset="0" stop-color="#fff"/><stop offset="0.4" stop-color="#f9f9f9"/><stop offset="0.93" stop-color="#e9e9e9"/><stop offset="1" stop-color="#e6e6e6"/></linearGradient></defs><title>Payment_Colors_Paypal_48px</title><g id="Square"><rect class="cls-1" width="48" height="48"/></g><g id="Icon"><rect class="cls-2" x="4" y="10" width="40" height="28" rx="2"/><path class="cls-3" d="M42,11a1,1,0,0,1,1,1V36a1,1,0,0,1-1,1H6a1,1,0,0,1-1-1V12a1,1,0,0,1,1-1H42m0-1H6a2,2,0,0,0-2,2V36a2,2,0,0,0,2,2H42a2,2,0,0,0,2-2V12a2,2,0,0,0-2-2Z"/><path class="cls-4" d="M27.3,28.59H25.82a.2.2,0,0,0-.2.17L25,32.55a.12.12,0,0,0,.1.14h.78a.14.14,0,0,0,.14-.12l.17-1.07a.21.21,0,0,1,.2-.18h.47a1.52,1.52,0,0,0,1.68-1.4,1.17,1.17,0,0,0-.19-1A1.35,1.35,0,0,0,27.3,28.59ZM27.47,30c-.08.53-.49.53-.88.53h-.22l.15-1a.12.12,0,0,1,.12-.1h.1c.27,0,.52,0,.65.15a.45.45,0,0,1,.08.41Z"/><path class="cls-5" d="M16.76,28.59H15.28a.2.2,0,0,0-.2.17l-.6,3.79a.12.12,0,0,0,.1.14h.73a.2.2,0,0,0,.2-.17l.17-1a.2.2,0,0,1,.2-.18h.46A1.51,1.51,0,0,0,18,29.92a1.15,1.15,0,0,0-.18-1A1.39,1.39,0,0,0,16.76,28.59ZM16.93,30c-.08.53-.49.53-.88.53h-.22l.15-1a.14.14,0,0,1,.13-.1h.1c.26,0,.51,0,.64.15a.48.48,0,0,1,.08.41Z"/><path class="cls-5" d="M21.18,30h-.71a.13.13,0,0,0-.12.1l0,.2-.05-.07a1,1,0,0,0-.84-.3,1.64,1.64,0,0,0-1.58,1.43,1.34,1.34,0,0,0,.26,1.08,1.11,1.11,0,0,0,.9.36,1.31,1.31,0,0,0,1-.4l0,.2a.12.12,0,0,0,.11.14h.65a.19.19,0,0,0,.2-.17l.39-2.42a.12.12,0,0,0-.11-.14Zm-1,1.38a.79.79,0,0,1-.8.68.55.55,0,0,1-.6-.49.67.67,0,0,1,0-.2.8.8,0,0,1,.8-.68.6.6,0,0,1,.47.19.64.64,0,0,1,.12.5Z"/><path class="cls-4" d="M31.71,30H31a.13.13,0,0,0-.12.1l0,.2-.05-.07a1,1,0,0,0-.83-.3,1.63,1.63,0,0,0-1.58,1.43,1.31,1.31,0,0,0,.26,1.08,1.09,1.09,0,0,0,.89.36,1.34,1.34,0,0,0,1-.4l0,.2a.12.12,0,0,0,.1.14h.66a.2.2,0,0,0,.2-.17l.38-2.42a.12.12,0,0,0-.1-.14Zm-1,1.38a.8.8,0,0,1-.8.68.61.61,0,0,1-.48-.19.6.6,0,0,1-.11-.5.78.78,0,0,1,.79-.68.59.59,0,0,1,.47.19.6.6,0,0,1,.13.5Z"/><path class="cls-5" d="M24.94,30h-.71a.26.26,0,0,0-.17.09l-1,1.45-.42-1.39a.21.21,0,0,0-.2-.15h-.7a.13.13,0,0,0-.12.13v0l.79,2.3-.74,1a.12.12,0,0,0,0,.17l.07,0h.71a.2.2,0,0,0,.17-.09L25,30.15A.12.12,0,0,0,25,30S25,30,24.94,30Z"/><path class="cls-4" d="M32.55,28.69l-.61,3.86a.12.12,0,0,0,.1.14h.64a.2.2,0,0,0,.2-.17l.6-3.79a.12.12,0,0,0-.11-.14h-.7A.12.12,0,0,0,32.55,28.69Z"/><path class="cls-4" d="M28.94,18.18c0,.07,0,.15,0,.22-.52,2.63-2.27,3.54-4.51,3.54H23.25a.55.55,0,0,0-.54.47l-.59,3.7L22,27.16a.29.29,0,0,0,.28.34h2a.48.48,0,0,0,.48-.41l0-.1.38-2.42,0-.13a.48.48,0,0,1,.48-.41H26c2,0,3.5-.8,3.95-3.1a2.65,2.65,0,0,0-.41-2.33A1.91,1.91,0,0,0,28.94,18.18Z"/><path class="cls-6" d="M28.4,18l-.24-.06-.26,0a6.19,6.19,0,0,0-1-.07h-3a.54.54,0,0,0-.21,0,.48.48,0,0,0-.27.36l-.65,4.1v.12a.55.55,0,0,1,.54-.47h1.14c2.24,0,4-.91,4.51-3.54,0-.07,0-.15,0-.22a2.65,2.65,0,0,0-.42-.18Z"/><path class="cls-5" d="M23.37,18.19a.48.48,0,0,1,.27-.36.54.54,0,0,1,.21,0h3a6.19,6.19,0,0,1,1,.07l.26,0,.24.06.12,0a2.65,2.65,0,0,1,.42.18,2.49,2.49,0,0,0-.53-2.24,3.86,3.86,0,0,0-3-.94H21.56a.56.56,0,0,0-.55.47L19.39,25.73a.33.33,0,0,0,.33.38h2.4l.6-3.82Z"/></g></svg>