<svg xmlns="http://www.w3.org/2000/svg" viewBox="0 0 48 48"><defs><style>.cls-1{fill:none;}.cls-2{fill:#fff;}.cls-3{fill:#d3d2d6;}.cls-4{fill:#eaf3e2;}.cls-5{fill:#78be20;}.cls-6{fill:#add585;}</style></defs><title>Payment_Colors_Gift_48px</title><g id="Square"><rect class="cls-1" width="48" height="48"/></g><g id="Icon"><rect class="cls-2" x="4" y="10" width="40" height="28" rx="2"/><path class="cls-3" d="M42,11a1,1,0,0,1,1,1V36a1,1,0,0,1-1,1H6a1,1,0,0,1-1-1V12a1,1,0,0,1,1-1H42m0-1H6a2,2,0,0,0-2,2V36a2,2,0,0,0,2,2H42a2,2,0,0,0,2-2V12a2,2,0,0,0-2-2Z"/><path class="cls-4" d="M42,10H16V38H42a2,2,0,0,0,2-2V12A2,2,0,0,0,42,10Z"/><path class="cls-5" d="M10.92,12.5l3.59,3.59a1,1,0,0,1-.71,1.7H6.63a1,1,0,0,1-.71-1.7L9.51,12.5A1,1,0,0,1,10.92,12.5Z"/><path class="cls-6" d="M42,38H16V37H42a1,1,0,0,0,1-1V12a1,1,0,0,0-1-1H16V10H42a2,2,0,0,1,2,2V36A2,2,0,0,1,42,38Z"/><path class="cls-5" d="M37,20h-.56A3.91,3.91,0,0,0,37,18a4,4,0,0,0-7-2.62A4,4,0,0,0,23,18a3.91,3.91,0,0,0,.56,2H23a1,1,0,0,0-1,1V33a1,1,0,0,0,1,1H37a1,1,0,0,0,1-1V21A1,1,0,0,0,37,20Zm-8,6H24V22h5Zm2-4h5v4H31Zm2-6a2,2,0,0,1,0,4H31V18A2,2,0,0,1,33,16Zm-8,2a2,2,0,0,1,4,0v2H27A2,2,0,0,1,25,18ZM24,28h5v4H24Zm7,4V28h5v4Z"/></g></svg>