<svg xmlns="http://www.w3.org/2000/svg" viewBox="0 0 48 48"><defs><style>.cls-1{fill:none;}.cls-2{fill:#81bc00;}.cls-3{fill:#fff;}</style></defs><title>Payment_Colors_OneyX3_48px</title><g id="Square"><rect class="cls-1" width="48" height="48"/></g><g id="Icon"><circle class="cls-2" cx="24" cy="24" r="15"/><path class="cls-3" d="M23.66,20.79,21,24.45l2.58,3.86H21.05l-1.33-2-1.22,2H16.05l2.51-3.74-2.51-3.78h2.57l1.3,2,1.3-2Z"/><path class="cls-3" d="M28,28.49a4.19,4.19,0,0,1-2.43-.66A3.17,3.17,0,0,1,24.28,26l2-.59a1.63,1.63,0,0,0,.63.84,1.94,1.94,0,0,0,1.09.3,1.48,1.48,0,0,0,1-.32,1.06,1.06,0,0,0,.39-.87,1,1,0,0,0-.42-.86,1.81,1.81,0,0,0-1.08-.3h-1.1V22.5h1.06a1.61,1.61,0,0,0,1-.27,1,1,0,0,0,.36-.88,1,1,0,0,0-.35-.77,1.4,1.4,0,0,0-2.19.77l-2.08-.59a2.59,2.59,0,0,1,.38-.87,3.19,3.19,0,0,1,1.72-1.29A4.24,4.24,0,0,1,28,18.4a4,4,0,0,1,2.47.72,2.31,2.31,0,0,1,.94,1.94,2.35,2.35,0,0,1-.34,1.3,1.87,1.87,0,0,1-.95.75v0a2.07,2.07,0,0,1,1,.81,2.56,2.56,0,0,1,.43,1.48,2.78,2.78,0,0,1-1,2.22A3.89,3.89,0,0,1,28,28.49Z"/></g></svg>