<svg xmlns="http://www.w3.org/2000/svg" xmlns:xlink="http://www.w3.org/1999/xlink" viewBox="0 0 48 48"><defs><style>.cls-1{fill:none;}.cls-2{fill:url(#Dégradé_sans_nom_196);}.cls-3{fill:#d3d2d6;}.cls-4{fill:#f7b601;}.cls-5{fill:#1b2070;}</style><linearGradient id="Dégradé_sans_nom_196" x1="3043.96" y1="-1976.73" x2="3010.04" y2="-2010.78" gradientTransform="matrix(-1.14, 0, 0, 0.79, 3471.38, 1607.72)" gradientUnits="userSpaceOnUse"><stop offset="0" stop-color="#fff"/><stop offset="0.4" stop-color="#f9f9f9"/><stop offset="0.93" stop-color="#e9e9e9"/><stop offset="1" stop-color="#e6e6e6"/></linearGradient></defs><title>Payment_Colors_Visa_48px</title><g id="Square"><rect class="cls-1" width="48" height="48"/></g><g id="Icon"><rect class="cls-2" x="4" y="10" width="40" height="28" rx="2"/><path class="cls-3" d="M42,11a1,1,0,0,1,1,1V36a1,1,0,0,1-1,1H6a1,1,0,0,1-1-1V12a1,1,0,0,1,1-1H42m0-1H6a2,2,0,0,0-2,2V36a2,2,0,0,0,2,2H42a2,2,0,0,0,2-2V12a2,2,0,0,0-2-2Z"/><path class="cls-4" d="M4,32v4a2,2,0,0,0,2,2H42a2,2,0,0,0,2-2V32Z"/><path class="cls-5" d="M44,16V12a2,2,0,0,0-2-2H6a2,2,0,0,0-2,2v4Z"/><polygon class="cls-5" points="18.86 28.17 20.28 19.85 22.55 19.85 21.13 28.17 18.86 28.17"/><path class="cls-5" d="M29.35,20.06a5.63,5.63,0,0,0-2-.35c-2.24,0-3.82,1.13-3.83,2.74,0,1.2,1.13,1.86,2,2.26s1.17.67,1.17,1c0,.56-.7.82-1.36.82a4.75,4.75,0,0,1-2.13-.44L22.87,26l-.32,1.86a7.24,7.24,0,0,0,2.53.44c2.38,0,3.92-1.11,3.94-2.84,0-.95-.59-1.67-1.9-2.26-.79-.38-1.28-.64-1.27-1s.41-.72,1.29-.72a4.32,4.32,0,0,1,1.7.32l.2.1.31-1.8"/><path class="cls-5" d="M35.17,19.86H33.41a1.12,1.12,0,0,0-1.18.69l-3.37,7.62h2.38l.48-1.25h2.9c.07.29.28,1.24.28,1.24H37l-1.83-8.31m-2.8,5.36.9-2.32s.19-.49.3-.8l.16.72.52,2.4Z"/><path class="cls-5" d="M17,19.86l-2.22,5.67-.23-1.15a6.51,6.51,0,0,0-3.14-3.49l2,7.27h2.4l3.56-8.3H17"/><path class="cls-5" d="M12.68,19.85H9L9,20a7.49,7.49,0,0,1,5.51,4.35l-.8-3.82a1,1,0,0,0-1-.71"/></g></svg>