<svg xmlns="http://www.w3.org/2000/svg" viewBox="0 0 48 48">
    <g id="Square"> </g>
  <rect width="40" height="32" x="4" y="8" fill="#0B4448" rx="1"/>
  <path fill="#fff" fill-rule="evenodd" d="M23.712 14.014a6.698 6.698 0 0 1-.209-.024l-.055-.035h-.105a2.77 2.77 0 0 0-1.42.445 3 3 0 0 0-1.29 3.16 2.965 2.965 0 0 0 5.41 1c.03-.045.059-.098.088-.151.018-.035.038-.07.057-.104h-1.135a.15.15 0 0 0-.08.04 1.96 1.96 0 0 1-1.395.6 1.875 1.875 0 0 1-1.895-1.5V17.4h4.635a3.502 3.502 0 0 0 0-.97 2.925 2.925 0 0 0-2.26-2.37 4.245 4.245 0 0 0-.346-.046Zm1.481 2.426h-3.48c.189-.86.966-1.46 1.845-1.425.77.04 1.635.77 1.635 1.425Zm-13.801-2.423a5.957 5.957 0 0 1-.179-.027h-.45l-.156.023c-.104.014-.209.028-.309.052a2.95 2.95 0 0 0-2.295 2.61v.63c.046.258.113.512.2.76a2.865 2.865 0 0 0 2.695 1.915 2.825 2.825 0 0 0 2.37-1.035 3 3 0 0 0-1.615-4.885c-.086-.018-.174-.03-.261-.043Zm1.486 2.553c.026.139.044.279.055.42a2 2 0 0 1-1.655 1.97 1.93 1.93 0 0 1-2.155-1.455 2 2 0 0 1 1.215-2.36c.092-.033.185-.058.28-.075a1.92 1.92 0 0 1 2.26 1.5Z"/>
  <path fill="#fff" d="M27.723 21.705c.29-.695.57-1.39.85-2.085a.14.14 0 0 0 0-.11c-.766-1.84-1.535-3.674-2.305-5.5h1.2a.142.142 0 0 0 0 .045l1.665 4.085a.32.32 0 0 0 .03.05.87.87 0 0 0 .04-.095c.21-.5.42-1.03.63-1.535l1.04-2.55h1.13a.758.758 0 0 1 0 .1l-2.25 5.5-.88 2.13-1.15-.035ZM17.538 13.99c.15.025.3.035.45.075.92.176 1.652.871 1.875 1.78.06.245.09.497.09.75v3.385h-1.085v-3.285c0-.236-.025-.47-.075-.7a1.23 1.23 0 0 0-1-.975 2.207 2.207 0 0 0-1 0 1.275 1.275 0 0 0-1.055 1.12c-.034.19-.05.382-.045.575v3.245h-1.08a.168.168 0 0 1 0-.05v-3.465a2.305 2.305 0 0 1 .83-1.825 2.63 2.63 0 0 1 1.5-.625h.1l.495-.005Z"/>
  <path fill="#96E51F" d="m36 24 8 7v8a1 1 0 0 1-1 1H18l18-16Z"/>
</svg>
