<svg xmlns="http://www.w3.org/2000/svg" viewBox="0 0 24 24">
  <path fill-rule="evenodd" d="M6.535 4a2 2 0 0 0-1.664.89L2.588 8.316a2 2 0 0 0-.205.398.998.998 0 0 0 .1 1.643c.068.13.152.254.25.37l7.748 9.039a2 2 0 0 0 3.037 0l7.748-9.039a2.05 2.05 0 0 0 .252-.37 1 1 0 0 0 .099-1.643 1.997 1.997 0 0 0-.205-.398l-2.283-3.424A2 2 0 0 0 17.465 4H6.535Zm12.596 4.5L17.465 6h-1.973l1.11 2.5h2.53Zm-3.623 0H8.492L9.602 6h4.795l1.111 2.5Zm.02 2-3.299 7.696-.229.267-.23-.267L8.474 10.5h7.054Zm-1.123 5.157 2.21-5.157h2.21l-4.42 5.157ZM7.397 8.5 8.508 6H6.535L4.87 8.5h2.528Zm-2.223 2h2.21l2.211 5.158-4.42-5.158Z"/>
</svg>
