<svg xmlns="http://www.w3.org/2000/svg" viewBox="0 0 24 24">
  <g clip-path="url(#a)">
    <path fill-rule="evenodd" d="M18 3a1 1 0 1 0-2 0v4a1 1 0 0 0 1 1h4a1 1 0 1 0 0-2h-3V3ZM7 2a1 1 0 0 1 1 1v4a1 1 0 0 1-1 1H3a1 1 0 1 1 0-2h3V3a1 1 0 0 1 1-1Zm9 15a1 1 0 0 1 1-1h4a1 1 0 1 1 0 2h-3v3a1 1 0 1 1-2 0v-4ZM2 17a1 1 0 0 1 1-1h4a1 1 0 0 1 1 1v4a1 1 0 1 1-2 0v-3H3a1 1 0 0 1-1-1Zm7.5-8.5a1 1 0 0 0-1 1v5a1 1 0 0 0 1 1h5a1 1 0 0 0 1-1v-5a1 1 0 0 0-1-1h-5Zm1 5v-3h3v3h-3Z"/>
  </g>
  <defs>
    <clipPath id="a">
      <rect width="24" height="24" fill="#fff"/>
    </clipPath>
  </defs>
</svg>
