<svg xmlns="http://www.w3.org/2000/svg" viewBox="0 0 24 24">
  <g clip-path="url(#a)">
    <path fill-rule="evenodd" d="M4 3a1 1 0 0 1 1-1h9a1 1 0 0 1 .707.293l5 5A1 1 0 0 1 20 8v13a1 1 0 0 1-1 1H5a1 1 0 0 1-1-1V3Zm2 1v16h12V9h-4a1 1 0 0 1-1-1V4H6Zm9 1.414L16.586 7H15V5.414ZM9 16a1 1 0 1 0 0 2h6a1 1 0 1 0 0-2H9Zm-1-3a1 1 0 0 1 1-1h6a1 1 0 1 1 0 2H9a1 1 0 0 1-1-1Zm1-5a1 1 0 0 0 0 2h2a1 1 0 1 0 0-2H9Z"/>
  </g>
  <defs>
    <clipPath id="a">
      <rect width="24" height="24" fill="#fff"/>
    </clipPath>
  </defs>
</svg>
