<svg xmlns="http://www.w3.org/2000/svg" viewBox="0 0 24 24"><defs><style>.cls-1{fill:none;}.cls-2{fill:#999;}</style></defs><title>Media_BookStore_24px</title><g id="Square"><rect class="cls-1" width="24" height="24"/></g><g id="Icon"><path class="cls-2" d="M12,6,3.2,4.24a1,1,0,0,0-1.2,1v12a1,1,0,0,0,.8,1l8.81,1.76a2,2,0,0,0,.78,0l8.81-1.76a1,1,0,0,0,.8-1v-12a1,1,0,0,0-1.2-1ZM4,6.44l7,1.4v9.92l-7-1.4Zm16,9.92-7,1.4V7.84l7-1.4Z"/><path class="cls-2" d="M5.4,9.59l4,.8h.1a.5.5,0,0,0,.1-1l-4-.8a.5.5,0,0,0-.2,1Z"/><path class="cls-2" d="M9.6,11.91l-4-.8a.5.5,0,0,0-.2,1l4,.8h.1a.5.5,0,0,0,.1-1Z"/><path class="cls-2" d="M9.6,14.41l-4-.8A.49.49,0,0,0,5,14a.5.5,0,0,0,.39.59l4,.8h.1a.5.5,0,0,0,.1-1Z"/><path class="cls-2" d="M14.5,10.4h.1l4-.8a.5.5,0,0,0-.2-1l-4,.8a.5.5,0,0,0,.1,1Z"/><path class="cls-2" d="M14.5,12.9h.1l4-.8a.5.5,0,0,0-.2-1l-4,.8a.5.5,0,0,0,.1,1Z"/><path class="cls-2" d="M16.4,14l-2,.4a.5.5,0,0,0,.1,1h.1l2-.4a.5.5,0,0,0-.2-1Z"/></g></svg>