<svg xmlns="http://www.w3.org/2000/svg" viewBox="0 0 24 24"><defs><style>.a{fill:none;}.b{fill:#999;}</style></defs><title>Media-TimeRead-24px</title><rect class="a" width="24" height="24"/><path class="b" d="M12,7a.9.9,0,0,0-1,1v3.6L9.3,13.3a1,1,0,0,0,0,1.4,1,1,0,0,0,1.4,0l2-2A.9.9,0,0,0,13,12V8A.9.9,0,0,0,12,7Z"/><path class="b" d="M12,2A10,10,0,1,0,22,12,10,10,0,0,0,12,2Zm1,17.9V19a1,1,0,0,0-2,0v.9A7.9,7.9,0,0,1,4.1,13H5a1,1,0,0,0,0-2H4.1A7.9,7.9,0,0,1,11,4.1V5a1,1,0,0,0,2,0V4.1A7.9,7.9,0,0,1,19.9,11H19a1,1,0,0,0,0,2h.9A7.9,7.9,0,0,1,13,19.9Z"/></svg>