<svg xmlns="http://www.w3.org/2000/svg" viewBox="0 0 24 24"><defs><style>.cls-1{fill:none;}.cls-2{fill:#999;}</style></defs><title>Media_Player_24px</title><g id="Square"><rect class="cls-1" width="24" height="24"/></g><g id="Icon"><path class="cls-2" d="M12,4a8,8,0,1,1-8,8,8,8,0,0,1,8-8m0-2A10,10,0,1,0,22,12,10,10,0,0,0,12,2Z"/><path class="cls-2" d="M10.72,9.77,14.36,12l-3.64,2.22V9.77M9.73,7a1,1,0,0,0-1,1v8a1,1,0,0,0,1,1,.94.94,0,0,0,.52-.15l6.55-4a1,1,0,0,0,0-1.71l-6.55-4A1,1,0,0,0,9.73,7Z"/></g></svg>