<svg xmlns="http://www.w3.org/2000/svg" viewBox="0 0 24 24"><defs><style>.cls-1{fill:none;}.cls-2{fill:#999;}</style></defs><title>Media_FullScreen_24px</title><g id="Square"><rect class="cls-1" width="24" height="24"/></g><g id="Icon"><path class="cls-2" d="M17.59,18.59H6.41a1,1,0,0,1-1-1V6.41a1,1,0,0,1,1-1H17.59a1,1,0,0,1,1,1V17.59A1,1,0,0,1,17.59,18.59Zm-10.18-2h9.18V7.41H7.41Z"/><path class="cls-2" d="M3,8.39a1,1,0,0,1-1-1V3A1,1,0,0,1,3,2H7.38a1,1,0,0,1,0,2H4V7.39A1,1,0,0,1,3,8.39Z"/><path class="cls-2" d="M21,8.38a1,1,0,0,1-1-1V4H16.62a1,1,0,1,1,0-2H21a1,1,0,0,1,1,1V7.38A1,1,0,0,1,21,8.38Z"/><path class="cls-2" d="M7.38,22H3a1,1,0,0,1-1-1V16.61a1,1,0,0,1,2,0V20H7.38a1,1,0,1,1,0,2Z"/><path class="cls-2" d="M22,21a1,1,0,0,1-1,1H16.62a1,1,0,0,1,0-2H20V16.62a1,1,0,1,1,2,0Z"/></g></svg>