<svg xmlns="http://www.w3.org/2000/svg" viewBox="0 0 24 24">
    <defs>
        <style>.a{fill:none;}.b{fill:#999;}</style>
    </defs>
    <title>Media-FullScreen-24px</title>
    <rect class="a" width="24" height="24"/>
    <path class="b" d="M17.6,18.6H6.4a1.1,1.1,0,0,1-1-1V6.4a1.1,1.1,0,0,1,1-1H17.6a1.1,1.1,0,0,1,1,1V17.6A1.1,1.1,0,0,1,17.6,18.6Zm-10.2-2h9.2V7.4H7.4Z"/><path class="b" d="M3,8.4a1,1,0,0,1-1-1V3A1,1,0,0,1,3,2H7.4a1.1,1.1,0,0,1,1,1,1,1,0,0,1-1,1H4V7.4A1,1,0,0,1,3,8.4Z"/><path class="b" d="M21,8.4a1,1,0,0,1-1-1V4H16.6a1,1,0,0,1,0-2H21a.9.9,0,0,1,1,1V7.4A1,1,0,0,1,21,8.4Z"/><path class="b" d="M7.4,22H3a1,1,0,0,1-1-1V16.6a1,1,0,1,1,2,0V20H7.4a1,1,0,0,1,1,1A1.1,1.1,0,0,1,7.4,22Z"/><path class="b" d="M22,21a.9.9,0,0,1-1,1H16.6a1,1,0,0,1,0-2H20V16.6a1,1,0,1,1,2,0Z"/></svg>