<svg xmlns="http://www.w3.org/2000/svg" viewBox="0 0 24 24"><defs><style>.cls-1{fill:none;}.cls-2{fill:#999;}</style></defs><title>Media_360_24px</title><g id="Square"><rect class="cls-1" width="24" height="24"/></g><g id="Name"><path class="cls-2" d="M9.14,13.22a1,1,0,0,0-1.82.83l.62,1.36C5.57,14.68,4,13.36,4,12a2.64,2.64,0,0,1,1-1.85V7.68C3.14,8.77,2,10.29,2,12c0,2.3,2,4.29,5.28,5.31L5.85,18a1,1,0,0,0-.51,1.32,1,1,0,0,0,.92.59,1,1,0,0,0,.41-.09l3.61-1.62a1,1,0,0,0,.53-.56,1,1,0,0,0,0-.77Z"/><path class="cls-2" d="M19,7.68v2.47A2.64,2.64,0,0,1,20,12c0,1.59-2.14,3.13-5.19,3.73a1,1,0,0,0,.19,2l.19,0C19.33,16.88,22,14.64,22,12,22,10.29,20.86,8.77,19,7.68Z"/><path class="cls-2" d="M7.6,10.27a2.08,2.08,0,0,1-1.21-.33,1.6,1.6,0,0,1-.64-.89l1-.3a.78.78,0,0,0,.31.42,1,1,0,0,0,.55.15.71.71,0,0,0,.47-.16.52.52,0,0,0,.2-.43.49.49,0,0,0-.21-.43.84.84,0,0,0-.54-.15H7V7.28h.53A.78.78,0,0,0,8,7.14.49.49,0,0,0,8.2,6.7.47.47,0,0,0,8,6.32a.69.69,0,0,0-.43-.14.66.66,0,0,0-.67.52l-1-.29A1.43,1.43,0,0,1,6.08,6a1.7,1.7,0,0,1,.34-.37,1.62,1.62,0,0,1,.52-.28,2.43,2.43,0,0,1,.68-.09,2.06,2.06,0,0,1,1.23.35,1.18,1.18,0,0,1,.47,1,1.23,1.23,0,0,1-.17.65.9.9,0,0,1-.48.37h0A1,1,0,0,1,9.19,8a1.2,1.2,0,0,1,.22.74,1.4,1.4,0,0,1-.5,1.11A2,2,0,0,1,7.6,10.27Z"/><path class="cls-2" d="M11.87,10.27a1.72,1.72,0,0,1-1.4-.62A2.75,2.75,0,0,1,10,7.91a4,4,0,0,1,.16-1.2,2.22,2.22,0,0,1,.44-.84,1.68,1.68,0,0,1,.63-.48A1.83,1.83,0,0,1,12,5.23,1.71,1.71,0,0,1,13,5.54a1.56,1.56,0,0,1,.54.82l-.93.26a1,1,0,0,0-.29-.33.71.71,0,0,0-.41-.11.74.74,0,0,0-.63.33,1.69,1.69,0,0,0-.29.86A1.43,1.43,0,0,1,11.49,7a1.34,1.34,0,0,1,.59-.13,1.62,1.62,0,0,1,.61.12,1.52,1.52,0,0,1,.51.32,1.46,1.46,0,0,1,.36.53,1.75,1.75,0,0,1,.13.7,1.68,1.68,0,0,1-.12.63,1.46,1.46,0,0,1-.34.54,1.54,1.54,0,0,1-.57.38A2,2,0,0,1,11.87,10.27Zm-.49-1.15a.69.69,0,0,0,.51.2.69.69,0,0,0,.5-.2.72.72,0,0,0,.2-.53.74.74,0,0,0-.2-.53.69.69,0,0,0-.5-.2.67.67,0,0,0-.5.2.7.7,0,0,0-.2.53A.72.72,0,0,0,11.38,9.12Z"/><path class="cls-2" d="M16.1,5.23a1.63,1.63,0,0,1,1.39.64A3.13,3.13,0,0,1,18,7.74a3.12,3.12,0,0,1-.48,1.88,1.61,1.61,0,0,1-1.39.65,1.59,1.59,0,0,1-1.37-.64,3.18,3.18,0,0,1-.48-1.89,3.13,3.13,0,0,1,.48-1.87A1.59,1.59,0,0,1,16.1,5.23Zm0,.95a.6.6,0,0,0-.55.4,2.77,2.77,0,0,0-.19,1.16,2.79,2.79,0,0,0,.19,1.17.59.59,0,0,0,.55.41.6.6,0,0,0,.56-.4,2.79,2.79,0,0,0,.2-1.18,2.75,2.75,0,0,0-.2-1.16A.6.6,0,0,0,16.1,6.18Z"/><path class="cls-2" d="M20.13,6.83a.87.87,0,0,1-.66.28.91.91,0,0,1-.67-.28.87.87,0,0,1-.28-.66.91.91,0,0,1,.28-.67.94.94,0,0,1,.67-.27.94.94,0,0,1,.94.94A.87.87,0,0,1,20.13,6.83Zm-1-.35a.41.41,0,0,0,.31.12.41.41,0,0,0,.43-.43.43.43,0,0,0-.12-.31.42.42,0,0,0-.31-.13.39.39,0,0,0-.31.13.4.4,0,0,0-.13.31A.42.42,0,0,0,19.16,6.48Z"/></g></svg>