<svg xmlns="http://www.w3.org/2000/svg" viewBox="0 0 24 24"><defs><style>.cls-1{fill:none;}.cls-2{fill:#999;}</style></defs><title>Media_Camera_24px</title><g id="Square"><rect class="cls-1" width="24" height="24"/></g><g id="Icon"><path class="cls-2" d="M12,17a4.5,4.5,0,1,1,4.5-4.5A4.51,4.51,0,0,1,12,17Zm0-7a2.5,2.5,0,1,0,2.5,2.5A2.5,2.5,0,0,0,12,10Z"/><path class="cls-2" d="M15.17,6l1.12,1.12A3,3,0,0,0,18.41,8H20V18H4V8H5.59a3,3,0,0,0,2.12-.88L8.83,6h6.34m.42-2H8.41a1,1,0,0,0-.7.29L6.29,5.71a1,1,0,0,1-.7.29H3A1,1,0,0,0,2,7V19a1,1,0,0,0,1,1H21a1,1,0,0,0,1-1V7a1,1,0,0,0-1-1H18.41a1,1,0,0,1-.7-.29L16.29,4.29a1,1,0,0,0-.7-.29Z"/><path class="cls-2" d="M6,11A1,1,0,1,1,6,9H6a1,1,0,0,1,0,2Z"/></g></svg>