<svg xmlns="http://www.w3.org/2000/svg" viewBox="0 0 24 24"><defs><style>.cls-1{fill:none;}.cls-2{fill:#999;}</style></defs><title>Media_Upload_24px</title><g id="Square"><rect class="cls-1" width="24" height="24"/></g><g id="Name"><path class="cls-2" d="M8.71,7.71,11,5.41V16a1,1,0,0,0,2,0V5.41l2.29,2.3a1,1,0,0,0,1.42,0,1,1,0,0,0,0-1.42l-4-4a1,1,0,0,0-1.42,0l-4,4A1,1,0,1,0,8.71,7.71Z"/><path class="cls-2" d="M16.22,12.44a1,1,0,0,0-1.2.77,1,1,0,0,0,.76,1.19C18.55,15,20,16.17,20,17c0,1.22-3.12,3-8,3s-8-1.78-8-3c0-.83,1.45-2,4.22-2.6A1,1,0,0,0,9,13.21a1,1,0,0,0-1.2-.77C4.16,13.25,2,15,2,17c0,2.85,4.3,5,10,5s10-2.15,10-5C22,15,19.84,13.25,16.22,12.44Z"/></g></svg>