<svg xmlns="http://www.w3.org/2000/svg" viewBox="0 0 24 24"><defs><style>.a{fill:none;}.b{fill:#999;}</style></defs><title>Navigation-Notification-Question-24px</title><rect class="a" width="24" height="24"/><polygon class="b" points="11.7 12 11.8 12 11.8 12 11.7 12"/><path class="b" d="M12,7h0a3,3,0,0,0-3,3,.8.8,0,0,0,.7.8.8.8,0,0,0,.8-.8A1.5,1.5,0,0,1,12,8.5h0a1.6,1.6,0,0,1,1.1.5,1.5,1.5,0,0,1,.4,1,1.6,1.6,0,0,1-.8,1.4,2.4,2.4,0,0,0-1.5,2.1v.3a.8.8,0,0,0,.8.7.7.7,0,0,0,.7-.7v-.3c0-.3.3-.6.6-.8A2.8,2.8,0,0,0,15,10a2.9,2.9,0,0,0-.9-2.1A2.9,2.9,0,0,0,12,7Z"/><circle class="b" cx="12" cy="16.2" r="0.8"/><path class="b" d="M12,2A10,10,0,1,0,22,12,10,10,0,0,0,12,2Zm0,18a8,8,0,1,1,8-8A8,8,0,0,1,12,20Z"/></svg>