<svg xmlns="http://www.w3.org/2000/svg" viewBox="0 0 24 24"><defs><style>.a{fill:none;}.b{fill:#999;}</style></defs><title>Navigation-Display-Search-32px</title><rect class="a" width="24" height="24"/><path class="b" d="M17.9,6.1a6.8,6.8,0,0,0-9.8,0,6.9,6.9,0,0,0-.7,9.1L4.3,18.3a1,1,0,0,0,0,1.4A1.1,1.1,0,0,0,5,20a.9.9,0,0,0,.7-.3l3.1-3.1A7.3,7.3,0,0,0,13,18a6.7,6.7,0,0,0,4.9-2.1A6.8,6.8,0,0,0,17.9,6.1Zm-1.4,8.4a4.8,4.8,0,0,1-7,0,4.8,4.8,0,0,1,0-7,4.8,4.8,0,0,1,7,0A4.8,4.8,0,0,1,16.5,14.5Z"/></svg>