<svg xmlns="http://www.w3.org/2000/svg" viewBox="0 0 24 24"><defs><style>.cls-1{fill:none;}.cls-2{fill:#999;}</style></defs><title>Navigation_Notification_Question_24px</title><g id="Square"><rect class="cls-1" width="24" height="24"/></g><g id="Icon"><polygon class="cls-2" points="11.74 12.03 11.76 12.03 11.75 12.03 11.74 12.03"/><path class="cls-2" d="M12,7h0a3,3,0,0,0-3,3,.75.75,0,0,0,1.5,0A1.5,1.5,0,0,1,12,8.51h0a1.5,1.5,0,0,1,.66,2.85,2.41,2.41,0,0,0-1.41,2.16v.25a.75.75,0,0,0,1.5,0v-.25a.91.91,0,0,1,.57-.81A3,3,0,0,0,12,7Z"/><circle class="cls-2" cx="12" cy="16.24" r="0.75"/><path class="cls-2" d="M12,2A10,10,0,1,0,22,12,10,10,0,0,0,12,2Zm0,18a8,8,0,1,1,8-8A8,8,0,0,1,12,20Z"/></g></svg>