<svg xmlns="http://www.w3.org/2000/svg" viewBox="0 0 24 24"><defs><style>.cls-1{fill:none;}.cls-2{fill:#999;}</style></defs><title>Navigation_Display_Filter_24px</title><g id="Square"><rect class="cls-1" width="24" height="24"/></g><g id="Icon"><path class="cls-2" d="M13,11.71V5a1,1,0,0,0-2,0v6.71a2.5,2.5,0,0,0,0,4.58V19a1,1,0,0,0,2,0V16.29a2.5,2.5,0,0,0,0-4.58Z"/><path class="cls-2" d="M20.5,12A2.51,2.51,0,0,0,19,9.71V5a1,1,0,0,0-2,0V9.71a2.5,2.5,0,0,0,0,4.58V19a1,1,0,0,0,2,0V14.29A2.51,2.51,0,0,0,20.5,12Z"/><path class="cls-2" d="M7,7.71V5A1,1,0,0,0,5,5V7.71a2.5,2.5,0,0,0,0,4.58L5,19a1,1,0,0,0,1,1H6a1,1,0,0,0,1-1l0-6.71A2.5,2.5,0,0,0,7,7.71Z"/></g></svg>