<svg xmlns="http://www.w3.org/2000/svg" viewBox="0 0 24 24"><defs><style>.a{fill:none;}.b{fill:#999;}</style></defs><title>Navigation-Publish-Edit-24px</title><rect class="a" width="24" height="24"/><path class="b" d="M19,12a1,1,0,0,0-1,1v5H6V6h5a1,1,0,0,0,1-1,.9.9,0,0,0-1-1H5A1,1,0,0,0,4,5V19a1,1,0,0,0,1,1H19a.9.9,0,0,0,1-1V13A.9.9,0,0,0,19,12Z"/><path class="b" d="M21.7,4.2l-2-1.9A1.1,1.1,0,0,0,19,2a.9.9,0,0,0-.7.3L8.7,11.6a.8.8,0,0,0-.2.4L7.3,15.7a.5.5,0,0,0,.6.6l3.8-1.1.5-.2,9.5-9.3A1.1,1.1,0,0,0,21.7,4.2ZM19.6,5l-.6.5L18.4,5l.6-.6ZM11,12.2l6.7-6.5.6.5-6.8,6.6Zm-.7.8.5.4-.8.2Z"/></svg>