<svg xmlns="http://www.w3.org/2000/svg" viewBox="0 0 24 24"><defs><style>.cls-1{fill:none;}.cls-2{fill:#999;}</style></defs><title>Navigation_Publish_Delete_24px</title><g id="Square"><rect class="cls-1" width="24" height="24"/></g><g id="Icon"><path class="cls-2" d="M18.08,8A1,1,0,0,0,17,8.92L16.08,20H7.92L7,8.92a1,1,0,1,0-2,.16l1,12A1,1,0,0,0,7,22H17a1,1,0,0,0,1-.92l1-12A1,1,0,0,0,18.08,8Z"/><path class="cls-2" d="M19,5H15.23l-.65-2.27a1,1,0,0,0-1-.73H10.38a1,1,0,0,0-1,.73L8.77,5H5A1,1,0,0,0,5,7H19a1,1,0,0,0,0-2ZM10.38,3h3.24l.57,2H9.81Z"/><path class="cls-2" d="M12.5,18V10a.5.5,0,0,0-1,0v8a.5.5,0,0,0,1,0Z"/><path class="cls-2" d="M14.25,18.5a.5.5,0,0,0,.5-.47l.5-8a.5.5,0,0,0-.47-.53.49.49,0,0,0-.53.47l-.5,8a.5.5,0,0,0,.47.53Z"/><path class="cls-2" d="M9.75,18.5h0a.5.5,0,0,0,.47-.53l-.5-8a.49.49,0,0,0-.53-.47.5.5,0,0,0-.47.53l.5,8A.5.5,0,0,0,9.75,18.5Z"/></g></svg>