<svg xmlns="http://www.w3.org/2000/svg" viewBox="0 0 24 24"><defs><style>.a{fill:none;}.b{fill:#999;}</style></defs><title>Navigation-Publish-Circle_Delete-24px</title><rect class="a" width="24" height="24"/><path class="b" d="M12,2A10,10,0,1,0,22,12,10,10,0,0,0,12,2Zm0,18a8,8,0,1,1,8-8A8,8,0,0,1,12,20Z"/><path class="b" d="M16.2,7.9a1,1,0,0,0-1.4,0L12,10.6,9.2,7.8A1,1,0,0,0,7.8,9.2L10.6,12,7.9,14.8a1,1,0,0,0,0,1.4.9.9,0,0,0,.7.3,1.1,1.1,0,0,0,.7-.3L12,13.4l2.7,2.7a1.1,1.1,0,0,0,.7.3.9.9,0,0,0,.7-.3,1,1,0,0,0,0-1.4L13.5,12l2.7-2.7A1,1,0,0,0,16.2,7.9Z"/></svg>