<svg xmlns="http://www.w3.org/2000/svg" viewBox="0 0 24 24"><defs><style>.cls-1{fill:none;}.cls-2{fill:#999;}</style></defs><title>Navigation_Display_Filter_24px</title><g id="Square"><rect class="cls-1" width="24" height="24"/></g><g id="Icon"><path class="cls-2" d="M13.09,11.71V5a1,1,0,0,0-2,0v6.71a2.5,2.5,0,0,0,0,4.58V19a1,1,0,0,0,2,0V16.29a2.5,2.5,0,0,0,0-4.58Z"/><path class="cls-2" d="M20.59,12a2.5,2.5,0,0,0-1.5-2.29V5a1,1,0,0,0-2,0V9.71a2.5,2.5,0,0,0,0,4.58V19a1,1,0,0,0,2,0V14.29A2.5,2.5,0,0,0,20.59,12Z"/><path class="cls-2" d="M7.09,7.71V5a1,1,0,0,0-2,0V7.71a2.5,2.5,0,0,0,0,4.58l0,6.71a1,1,0,0,0,1,1h0a1,1,0,0,0,1-1l0-6.71a2.5,2.5,0,0,0,0-4.58Z"/></g></svg>