<svg xmlns="http://www.w3.org/2000/svg" viewBox="0 0 24 24"><defs><style>.cls-1{fill:none;}.cls-2{fill:#999;}</style></defs><title>Payment_Euro_24px</title><g id="Square"><rect class="cls-1" width="24" height="24"/></g><g id="Name"><path class="cls-2" d="M18.44,18.65A8,8,0,0,1,6.59,15H15a1,1,0,0,0,0-2H6.07A8.26,8.26,0,0,1,6,12a8.26,8.26,0,0,1,.07-1H15a1,1,0,0,0,0-2H6.59A8,8,0,0,1,18.44,5.35a1,1,0,0,0,1.39-.28,1,1,0,0,0-.27-1.38A9.91,9.91,0,0,0,14,2,10,10,0,0,0,4.46,9H3a1,1,0,0,0,0,2h1c0,.33,0,.66,0,1s0,.67,0,1H3a1,1,0,0,0,0,2H4.46A10,10,0,0,0,14,22a9.91,9.91,0,0,0,5.56-1.69,1,1,0,0,0,.27-1.38A1,1,0,0,0,18.44,18.65Z"/></g></svg>