<svg xmlns="http://www.w3.org/2000/svg" viewBox="0 0 24 24"><defs><style>.cls-1{fill:none;}.cls-2{fill:#999;}</style></defs><title>Payment_Cards_Monochrome_Mastercard_24px</title><g id="Square"><rect class="cls-1" width="24" height="24"/></g><g id="Icon"><path class="cls-2" d="M16.78,13.93v-.09h0v0h.1v0h0v.09Zm.19,0v-.08l0,.07h0l0-.07v.08h0v-.11h0l0,.07,0-.07h0v.11Z"/><path class="cls-2" d="M8.66,16l-.1-.06-.13,0H8.36l-.08,0L8.22,16a.13.13,0,0,0-.06.07.38.38,0,0,0-.11-.11.29.29,0,0,0-.16,0H7.77l-.06,0s0,0,0,.06v-.1H7.49v.79h.17v-.43a.15.15,0,0,1,0-.09.25.25,0,0,1,0-.07.11.11,0,0,1,.06,0l.08,0a.21.21,0,0,1,.13.05.3.3,0,0,1,0,.16v.44H8.2v-.44a.29.29,0,0,1,0-.09.25.25,0,0,1,0-.07.15.15,0,0,1,.07,0l.07,0a.19.19,0,0,1,.13.05.24.24,0,0,1,.05.16v.44h.16v-.5a.25.25,0,0,0,0-.12A.3.3,0,0,0,8.66,16Z"/><path class="cls-2" d="M9.54,16a.27.27,0,0,0-.1-.08.37.37,0,0,0-.15,0l-.15,0A.57.57,0,0,0,9,16a.64.64,0,0,0-.08.14.47.47,0,0,0,0,.17.45.45,0,0,0,0,.16.57.57,0,0,0,.08.13.38.38,0,0,0,.13.09.4.4,0,0,0,.15,0,.33.33,0,0,0,.15,0,.22.22,0,0,0,.1-.09v.1h.17v-.79H9.54Zm0,.41,0,.08-.08,0-.09,0-.11,0a.19.19,0,0,1-.07-.06.22.22,0,0,1-.05-.08.28.28,0,0,1,0-.09.31.31,0,0,1,0-.1.28.28,0,0,1,.12-.14l.11,0,.09,0a.16.16,0,0,1,.08.06.22.22,0,0,1,0,.08.31.31,0,0,1,0,.1A.38.38,0,0,1,9.54,16.43Z"/><path class="cls-2" d="M10.51,16.32a.37.37,0,0,0-.2-.07l-.08,0h-.06l0,0,0,0s0,0,0,0a.08.08,0,0,1,0-.06.23.23,0,0,1,.11,0h.14l.06,0,.05,0,.07-.14a.35.35,0,0,0-.14-.06l-.18,0-.14,0L10,16a.16.16,0,0,0-.06.08.18.18,0,0,0,0,.1.19.19,0,0,0,.06.16.37.37,0,0,0,.2.07l.08,0a.2.2,0,0,1,.11,0,.05.05,0,0,1,0,0,.08.08,0,0,1,0,.07.35.35,0,0,1-.14,0h-.15l-.06,0,0,0-.08.13.09.05.09,0,.09,0h.07l.15,0,.12,0,.07-.08a.43.43,0,0,0,0-.11A.2.2,0,0,0,10.51,16.32Z"/><path class="cls-2" d="M12.12,16a.36.36,0,0,0-.12-.08.37.37,0,0,0-.15,0,.45.45,0,0,0-.16,0l-.12.08a.46.46,0,0,0-.08.13.57.57,0,0,0,0,.18.45.45,0,0,0,0,.16.64.64,0,0,0,.08.14.57.57,0,0,0,.13.08.45.45,0,0,0,.16,0l.17,0a.51.51,0,0,0,.16-.09l-.09-.12-.11.06-.12,0h-.08l-.07,0-.05-.06a.16.16,0,0,1,0-.09h.58a0,0,0,0,1,0,0v0a.51.51,0,0,0,0-.17A.46.46,0,0,0,12.12,16Zm-.48.23a.19.19,0,0,1,0-.07.15.15,0,0,1,.05-.06l0-.05h.09a.19.19,0,0,1,.13.05.27.27,0,0,1,.07.14Z"/><path class="cls-2" d="M14.41,16a.39.39,0,0,0-.1-.08l-.15,0-.15,0a.57.57,0,0,0-.13.08.64.64,0,0,0-.08.14.47.47,0,0,0,0,.17.45.45,0,0,0,0,.16.29.29,0,0,0,.08.13.38.38,0,0,0,.13.09.39.39,0,0,0,.3,0,.28.28,0,0,0,.1-.09v.1h.17v-.79h-.17Zm0,.41a.3.3,0,0,1,0,.08l-.08,0-.1,0-.1,0A.19.19,0,0,1,14,16.5a.22.22,0,0,1,0-.08.28.28,0,0,1,0-.09.31.31,0,0,1,0-.1.22.22,0,0,1,0-.08.23.23,0,0,1,.17-.08l.1,0a.16.16,0,0,1,.08.06.2.2,0,0,1,0,.08.16.16,0,0,1,0,.1A.2.2,0,0,1,14.4,16.43Z"/><path class="cls-2" d="M11.24,16.56l-.07,0h-.06s0,0,0,0,0,0,0,0a.17.17,0,0,1,0-.07v-.34h.28v-.16H11v-.24h-.17v.24h-.16v.16h.16v.35a.33.33,0,0,0,.07.23.27.27,0,0,0,.21.07l.13,0,.08,0-.06-.14Z"/><path class="cls-2" d="M12.8,15.91a.31.31,0,0,0-.13,0,.28.28,0,0,0-.1.09v-.1h-.15v.79h.15v-.44a.19.19,0,0,1,0-.08.16.16,0,0,1,0-.07.07.07,0,0,1,.06,0l.07,0h.07l0,0,.05-.17H12.8Z"/><path class="cls-2" d="M15.2,15.91a.28.28,0,0,0-.13,0A.22.22,0,0,0,15,16v-.1h-.16v.79H15v-.44a.11.11,0,0,1,0-.08.15.15,0,0,1,0-.07s0,0,.06,0l.08,0h.07l0,0,.05-.17H15.2Z"/><path class="cls-2" d="M16,15.61V16a.27.27,0,0,0-.1-.08.37.37,0,0,0-.15,0l-.15,0a.57.57,0,0,0-.13.08.64.64,0,0,0-.08.14.47.47,0,0,0,0,.17.45.45,0,0,0,0,.16.57.57,0,0,0,.08.13.38.38,0,0,0,.13.09.4.4,0,0,0,.15,0,.33.33,0,0,0,.15,0,.22.22,0,0,0,.1-.09v.1h.17V15.61Zm0,.82-.05.08-.08,0-.09,0-.11,0a.19.19,0,0,1-.07-.06.22.22,0,0,1,0-.08.28.28,0,0,1,0-.09.31.31,0,0,1,0-.1.22.22,0,0,1,0-.08.19.19,0,0,1,.07-.06l.11,0,.09,0a.16.16,0,0,1,.08.06.22.22,0,0,1,.05.08.31.31,0,0,1,0,.1A.38.38,0,0,1,16,16.43Z"/><path class="cls-2" d="M13.22,16.14a.18.18,0,0,1,.07-.05l.1,0h0l.11,0,.08.05.09-.14-.11-.06a.47.47,0,0,0-.17,0,.51.51,0,0,0-.17,0,.3.3,0,0,0-.13.09.38.38,0,0,0-.09.13.36.36,0,0,0,0,.33.38.38,0,0,0,.09.13.3.3,0,0,0,.13.09.51.51,0,0,0,.17,0,.47.47,0,0,0,.17,0l.11-.06-.09-.14-.08,0-.11,0h0l-.1,0a.18.18,0,0,1-.07,0,.21.21,0,0,1-.06-.08.18.18,0,0,1,0-.1.2.2,0,0,1,0-.11A.16.16,0,0,1,13.22,16.14Z"/><path class="cls-2" d="M10.7,12.24A3,3,0,0,1,11.83,9.9a3,3,0,1,0,0,4.67A2.91,2.91,0,0,1,10.7,12.24Z"/><path class="cls-2" d="M13.67,9.68a2.56,2.56,0,1,1-1.17,4.83,3.39,3.39,0,0,0,0-4.55,2.52,2.52,0,0,1,1.17-.28m0-.42a3,3,0,0,0-1.84.64,3,3,0,0,1,.49,4.18,2.84,2.84,0,0,1-.49.49,3,3,0,1,0,1.84-5.31Z"/><path class="cls-2" d="M21,20H3a1,1,0,0,1-1-1V7A1,1,0,0,1,3,6H21a1,1,0,0,1,1,1V19A1,1,0,0,1,21,20Zm0-1v0ZM3,7V19H21V7Z"/></g></svg>