<svg xmlns="http://www.w3.org/2000/svg" viewBox="0 0 24 24"><defs><style>.cls-1{fill:none;}.cls-2{fill:#999;}</style></defs><title>Payment_Bill_24px</title><g id="Square"><rect class="cls-1" width="24" height="24"/></g><g id="Icon"><path class="cls-2" d="M19,22H5a1,1,0,0,1-1-1V3A1,1,0,0,1,5,2H19a1,1,0,0,1,1,1V21A1,1,0,0,1,19,22ZM6,20H18V4H6Z"/><path class="cls-2" d="M12.63,13a3.5,3.5,0,1,1,2.13-6.29.51.51,0,0,1,.1.7.5.5,0,0,1-.7.1A2.54,2.54,0,0,0,12.63,7a2.5,2.5,0,1,0,1.64,4.4.5.5,0,0,1,.65.76A3.55,3.55,0,0,1,12.63,13Z"/><path class="cls-2" d="M12.46,9.12H8.91a.5.5,0,0,1-.5-.5.5.5,0,0,1,.5-.5h3.55a.5.5,0,0,1,.5.5A.5.5,0,0,1,12.46,9.12Z"/><path class="cls-2" d="M12.46,10.88H8.91a.5.5,0,0,1-.5-.5.5.5,0,0,1,.5-.5h3.55a.5.5,0,0,1,.5.5A.5.5,0,0,1,12.46,10.88Z"/><path class="cls-2" d="M15.5,18h-7a.5.5,0,0,1,0-1h7a.5.5,0,0,1,0,1Z"/><path class="cls-2" d="M15.5,15.5h-7a.5.5,0,0,1,0-1h7a.5.5,0,0,1,0,1Z"/></g></svg>