<svg xmlns="http://www.w3.org/2000/svg" viewBox="0 0 24 24"><defs><style>.cls-1{fill:none;}.cls-2{fill:#999;}</style></defs><title>Payment_Cards_Monochrome_Oney_24px</title><g id="Square"><rect class="cls-1" width="24" height="24"/></g><g id="Icon"><path class="cls-2" d="M13.4,14.08h-.63a.08.08,0,0,0-.08.07l-.25,1.59a0,0,0,0,0,0,.06h.33s0,0,.06-.06l.07-.45a.08.08,0,0,1,.08-.07h.2a.64.64,0,0,0,.71-.59.47.47,0,0,0-.08-.4A.55.55,0,0,0,13.4,14.08Zm.07.58c0,.22-.21.22-.37.22H13l.06-.41s0-.05,0-.05h0c.12,0,.22,0,.28.07a.21.21,0,0,1,0,.17Z"/><path class="cls-2" d="M9,14.08H8.34a.1.1,0,0,0-.09.07L8,15.74s0,.06,0,.06h.31s.08,0,.08-.08l.07-.43a.1.1,0,0,1,.09-.07h.19a.64.64,0,0,0,.71-.59.47.47,0,0,0-.08-.4A.55.55,0,0,0,9,14.08Zm.07.58c0,.22-.2.22-.37.22H8.57l.06-.41s0-.05,0-.05h.05c.11,0,.22,0,.27.07a.21.21,0,0,1,0,.17Z"/><path class="cls-2" d="M10.82,14.65h-.3a.07.07,0,0,0,0,0v.09l0,0a.41.41,0,0,0-.35-.13.69.69,0,0,0-.67.6.58.58,0,0,0,.11.46.46.46,0,0,0,.38.15.58.58,0,0,0,.41-.17v.09s0,.05,0,.06h.27a.1.1,0,0,0,.09-.08l.16-1s0-.05,0-.06Zm-.42.58a.33.33,0,0,1-.33.29.24.24,0,0,1-.26-.21.19.19,0,0,1,0-.08.34.34,0,0,1,.34-.29.27.27,0,0,1,.19.08.23.23,0,0,1,.05.21Z"/><path class="cls-2" d="M15.26,14.65H15a0,0,0,0,0-.05,0l0,.09,0,0a.4.4,0,0,0-.35-.13.68.68,0,0,0-.66.6.55.55,0,0,0,.11.46.45.45,0,0,0,.37.15.59.59,0,0,0,.42-.17l0,.09a.07.07,0,0,0,0,.06h.27a.11.11,0,0,0,.09-.08l.16-1a.07.07,0,0,0-.05-.06Zm-.42.58a.34.34,0,0,1-.34.29.32.32,0,0,1-.2-.08.26.26,0,0,1,0-.21.33.33,0,0,1,.33-.29.24.24,0,0,1,.2.08.23.23,0,0,1,.05.21Z"/><path class="cls-2" d="M12.41,14.65h-.3a.12.12,0,0,0-.08,0l-.41.61-.17-.59a.11.11,0,0,0-.09-.06h-.29a.06.06,0,0,0-.06,0v0l.33,1-.31.44a0,0,0,0,0,0,.07h.33a.1.1,0,0,0,.07,0l1-1.44a.06.06,0,0,0,0-.07Z"/><path class="cls-2" d="M15.61,14.12l-.26,1.62a.06.06,0,0,0,.05.06h.26a.1.1,0,0,0,.09-.08L16,14.14s0-.06,0-.06h-.3S15.61,14.09,15.61,14.12Z"/><path class="cls-2" d="M13.94,9.6a1,1,0,0,0-.22-.92,1.6,1.6,0,0,0-1.22-.39H10.89a.22.22,0,0,0-.22.2L10,12.72a.14.14,0,0,0,.11.16h1l.25-1.58v0a.22.22,0,0,1,.22-.19h.47A1.68,1.68,0,0,0,13.92,9.7s0-.07,0-.1"/><path class="cls-2" d="M14.3,9.66h0l-.07-.06v.05h0s0,.07,0,.1a2.45,2.45,0,0,1-.08.29,1,1,0,0,1,0,.67,1.29,1.29,0,0,1-1.45,1.13h-.13a.38.38,0,0,0-.37.32v.05l-.16,1v0h0l0,0h-.77v-.11H10.9v.12a.28.28,0,0,0,.24.33H12a.37.37,0,0,0,.37-.31v0l.16-1v0h0s0,0,0,0h.13a2,2,0,0,0,1.15-.31,1.68,1.68,0,0,0,.64-1.1A1.25,1.25,0,0,0,14.3,9.66Z"/><path class="cls-2" d="M21,19H3a1,1,0,0,1-1-1V6A1,1,0,0,1,3,5H21a1,1,0,0,1,1,1V18A1,1,0,0,1,21,19Zm0-1v0ZM3,6V18H21V6Z"/></g></svg>