<svg xmlns="http://www.w3.org/2000/svg" viewBox="0 0 24 24"><defs><style>.cls-1{fill:none;}.cls-2{fill:#999;}</style></defs><title>Product_Basket_Standard_24px</title><g id="Square"><rect class="cls-1" width="24" height="24"/></g><g id="Icon"><path class="cls-2" d="M17.13,16.57H8a1,1,0,0,1-1-.74L4.39,6H3A1,1,0,0,1,3,4H5.15a1,1,0,0,1,1,.74l.53,2H20A1,1,0,0,1,20.94,8l-2.87,7.87A1,1,0,0,1,17.13,16.57Zm-8.34-2h7.64L18.57,8.7H7.2Z"/><circle class="cls-2" cx="9.46" cy="19.85" r="2.15"/><circle class="cls-2" cx="15.69" cy="19.85" r="2.15"/></g></svg>