<svg xmlns="http://www.w3.org/2000/svg" viewBox="0 0 24 24"><defs><style>.a{fill:none;}.b{fill:#999;}</style></defs><title>Product-Promise-Scan-24px</title><rect class="a" width="24" height="24"/><path class="b" d="M3,8.4a1,1,0,0,1-1-1V3A.9.9,0,0,1,3,2H7.4a1,1,0,0,1,0,2H4V7.4A1,1,0,0,1,3,8.4Z"/><path class="b" d="M21,8.4a1,1,0,0,1-1-1V4H16.6a1.1,1.1,0,0,1-1-1,1,1,0,0,1,1-1H21a.9.9,0,0,1,1,1V7.4A1,1,0,0,1,21,8.4Z"/><path class="b" d="M7.4,22H3a1,1,0,0,1-1-1V16.6a1,1,0,1,1,2,0V20H7.4a1,1,0,0,1,1,1A1.1,1.1,0,0,1,7.4,22Z"/><path class="b" d="M22,21a1,1,0,0,1-1,1H16.6a1.1,1.1,0,0,1-1-1,1,1,0,0,1,1-1H20V16.6a1,1,0,1,1,2,0Z"/><rect class="b" x="8.9" y="8.2" width="0.6" height="7.78"/><rect class="b" x="12.8" y="8.2" width="0.6" height="7.78"/><rect class="b" x="17" y="8.2" width="0.6" height="7.78"/><rect class="b" x="6.4" y="8.2" width="1.6" height="7.78"/><rect class="b" x="10.2" y="8.2" width="1.6" height="7.78"/><rect class="b" x="14.5" y="8.2" width="1.6" height="7.78"/></svg>