<svg xmlns="http://www.w3.org/2000/svg" viewBox="0 0 24 24"><defs><style>.cls-1{fill:none;}.cls-2{fill:#999;}</style></defs><title>Product_Basket_Add_24px</title><g id="Square"><rect class="cls-1" width="24" height="24"/></g><g id="Icon"><circle class="cls-2" cx="9.46" cy="19.85" r="2.15"/><path class="cls-2" d="M15.69,17.7a2.15,2.15,0,1,0,2.15,2.15A2.15,2.15,0,0,0,15.69,17.7Z"/><path class="cls-2" d="M22.5,6.5a4.5,4.5,0,0,0-9,0c0,.07,0,.13,0,.2H6.65l-.53-2a1,1,0,0,0-1-.74H3A1,1,0,0,0,3,6H4.39l2.67,9.83a1,1,0,0,0,1,.74h9.1a1,1,0,0,0,.94-.66l2-5.43A4.47,4.47,0,0,0,22.5,6.5Zm-6.07,8.07H8.79L7.2,8.7h6.9A4.47,4.47,0,0,0,17.74,11ZM18,10a3.5,3.5,0,1,1,3.5-3.5A3.5,3.5,0,0,1,18,10Z"/><path class="cls-2" d="M20,6H18.5V4.5a.5.5,0,0,0-1,0V6H16a.5.5,0,0,0,0,1h1.5V8.5a.5.5,0,0,0,1,0V7H20a.5.5,0,0,0,0-1Z"/></g></svg>