<svg xmlns="http://www.w3.org/2000/svg" viewBox="0 0 24 24"><defs><style>.cls-1{fill:none;}.cls-2{fill:#999;}</style></defs><title>Product_Aspect_Weight_24px</title><g id="Square"><rect class="cls-1" width="24" height="24"/></g><g id="Icon"><ellipse class="cls-2" cx="12" cy="7" rx="0.99" ry="1.01"/><path class="cls-2" d="M19.33,8.71a1,1,0,0,0-1-.79H15.89a4,4,0,1,0-7.78,0H5.65a1,1,0,0,0-1,.79L2,20.78A1,1,0,0,0,3,22H21a1,1,0,0,0,1-1.21ZM4.24,20,6.45,9.92H9.71a1,1,0,0,0,.91-.58,1,1,0,0,0-.14-1.06A2,2,0,0,1,10,7a2,2,0,0,1,4,0,2,2,0,0,1-.48,1.28,1,1,0,0,0-.14,1.06,1,1,0,0,0,.91.58h3.26L19.76,20Z"/></g></svg>