<svg xmlns="http://www.w3.org/2000/svg" viewBox="0 0 24 24"><defs><style>.cls-1{fill:none;}.cls-2{fill:#999;}</style></defs><title>Product_Aspect_Weight_24px</title><g id="Square"><rect class="cls-1" width="24" height="24"/></g><g id="Icon"><path class="cls-2" d="M19,8.84A1,1,0,0,0,18,8H16.22a4.48,4.48,0,0,0,.28-1.5,4.5,4.5,0,0,0-9,0A4.48,4.48,0,0,0,7.78,8H6a1,1,0,0,0-1,.84l-2,12A1,1,0,0,0,4,22H20a1,1,0,0,0,1-1.16ZM9.5,6.5a2.5,2.5,0,0,1,5,0A2.46,2.46,0,0,1,14,8H10A2.46,2.46,0,0,1,9.5,6.5ZM5.18,20,6.85,10h10.3l1.67,10Z"/></g></svg>