<svg xmlns="http://www.w3.org/2000/svg" viewBox="0 0 24 24"><defs><style>.a{fill:none;}.b{fill:#999;}</style></defs><title>Product-List-ShoppingList-24px</title><rect class="a" width="24" height="24"/><path class="b" d="M16,6V18H8V6h8m1.1-2H6.9a.9.9,0,0,0-.9.9V19.1a.9.9,0,0,0,.9.9H17.1a.9.9,0,0,0,.9-.9V4.9a.9.9,0,0,0-.9-.9Z"/><path class="b" d="M14.5,9h-5a.5.5,0,0,1,0-1h5a.5.5,0,0,1,0,1Z"/><path class="b" d="M12.5,12.5h-3a.5.5,0,0,1,0-1h3a.5.5,0,0,1,0,1Z"/><path class="b" d="M12.5,16h-3a.5.5,0,0,1,0-1h3a.5.5,0,0,1,0,1Z"/><circle class="b" cx="14.5" cy="12" r="0.5"/><circle class="b" cx="14.5" cy="15.5" r="0.5"/></svg>