<svg xmlns="http://www.w3.org/2000/svg" viewBox="0 0 24 24"><defs><style>.cls-1{fill:none;}.cls-2{fill:#999;}</style></defs><title>Product_Aspect_Size_24px</title><g id="Square"><rect class="cls-1" width="24" height="24"/></g><g id="Icon"><path class="cls-2" d="M18.33,5.7a1,1,0,0,0,0-1.42L16.09,2a1,1,0,1,0-1.42,1.42l.55.54H5.1A1.1,1.1,0,0,0,4,5.1v10l-.53-.53A1,1,0,1,0,2.05,16L4,17.9V18h.1l.19.2a1,1,0,0,0,1.42,0L5.9,18H6v-.1L8,16a1,1,0,0,0-1.42-1.42L6,15.07V6h9.19l-.52.52a1,1,0,1,0,1.42,1.41Z"/><path class="cls-2" d="M13.75,18H13a1,1,0,0,0,0,2h.75a1,1,0,0,0,0-2Z"/><path class="cls-2" d="M9.75,18H9a1,1,0,0,0,0,2h.75a1,1,0,0,0,0-2Z"/><path class="cls-2" d="M19,12a1,1,0,0,0-1,1v.75a1,1,0,0,0,2,0V13A1,1,0,0,0,19,12Z"/><path class="cls-2" d="M19,8a1,1,0,0,0-1,1v.75a1,1,0,0,0,2,0V9A1,1,0,0,0,19,8Z"/><path class="cls-2" d="M19,15.9a1,1,0,0,0-1,1V18H17a1,1,0,0,0,0,2h2a1,1,0,0,0,1-1s0,0,0-.05,0,0,0-.05v-2A1,1,0,0,0,19,15.9Z"/></g></svg>