<svg xmlns="http://www.w3.org/2000/svg" viewBox="0 0 24 24"><defs><style>.cls-1{fill:none;}.cls-2{fill:#999;}</style></defs><title>Project_ProductNumb_24px</title><g id="Square"><rect class="cls-1" width="24" height="24"/></g><g id="Icon"><path class="cls-2" d="M21,7H8A1,1,0,0,1,8,5H21a1,1,0,0,1,0,2Z"/><circle class="cls-2" cx="3.25" cy="6" r="1.25"/><path class="cls-2" d="M21,13H8a1,1,0,0,1,0-2H21a1,1,0,0,1,0,2Z"/><circle class="cls-2" cx="3.25" cy="12" r="1.25"/><path class="cls-2" d="M21,19H8a1,1,0,0,1,0-2H21a1,1,0,0,1,0,2Z"/><circle class="cls-2" cx="3.25" cy="18" r="1.25"/></g></svg>