<svg xmlns="http://www.w3.org/2000/svg" viewBox="0 0 24 24"><defs><style>.a{fill:none;}.b{fill:#999;}</style></defs><title>Service-Custom-Cuts-24px</title><rect class="a" width="24" height="24"/><path class="b" d="M21.7,20.3l-18-18A1.1,1.1,0,0,0,3,2,1,1,0,0,0,2,3V21a.9.9,0,0,0,1,1H21A1,1,0,0,0,21.7,20.3ZM4,20V5.4L6.5,7.9l-.9.9a.5.5,0,0,0,0,.7h.7l.9-.9,1.5,1.5-.9.9a.5.5,0,0,0,0,.7h.7l.9-.9,1.5,1.6-.8.8a.5.5,0,0,0,0,.7l.3.2.4-.2.8-.8,1.6,1.5-.9.9c-.2.1-.2.5,0,.7H13l.9-.9,1.5,1.5-.9.9a.5.5,0,0,0,0,.7h.7l.9-.9L18.6,20Z"/><path class="b" d="M6.5,12.6H6.3a.3.3,0,0,0-.3.3v4.9a.3.3,0,0,0,.3.3h4.9a.3.3,0,0,0,.2-.5ZM7,17V14.5L9.5,17Z"/></svg>