<svg xmlns="http://www.w3.org/2000/svg" viewBox="0 0 24 24"><defs><style>.a{fill:none;}.b{fill:#999;}</style></defs><title>Service-AfterSales-Payback-24px</title><rect class="a" width="24" height="24"/><path class="b" d="M19,14.6a1,1,0,0,0-1,1V18H6V15.5l.6.6a.9.9,0,0,0,.7.3,1.1,1.1,0,0,0,.7-.3,1,1,0,0,0,0-1.4L5.7,12.4a1,1,0,0,0-1.4,0L2,14.7a1.2,1.2,0,0,0,0,1.4,1.1,1.1,0,0,0,1.5,0l.5-.6V19a1,1,0,0,0,1,1H19a1,1,0,0,0,1-1V15.6A1.1,1.1,0,0,0,19,14.6Z"/><path class="b" d="M22,7.9a1.1,1.1,0,0,0-1.5,0l-.5.6V5a1,1,0,0,0-1-1H5A1,1,0,0,0,4,5V8.4a1.1,1.1,0,0,0,1,1,1,1,0,0,0,1-1V6H18V8.5l-.6-.6A1,1,0,0,0,16,9.3l2.3,2.3a1,1,0,0,0,1.4,0L22,9.3A1.2,1.2,0,0,0,22,7.9Z"/></svg>