<svg xmlns="http://www.w3.org/2000/svg" viewBox="0 0 24 24"><defs><style>.cls-1{fill:none;}.cls-2{fill:#999;}</style></defs><title>Service_Custom_CutWoodGlass_24px</title><g id="Square"><rect class="cls-1" width="24" height="24"/></g><g id="Icon"><path class="cls-2" d="M21.71,20.3l-18-18A1,1,0,0,0,2,3V21a1,1,0,0,0,1,1H21A1,1,0,0,0,21.71,20.3ZM4,20V5.42L6.47,7.89l-.86.87A.5.5,0,0,0,6,9.61a.47.47,0,0,0,.35-.15l.87-.86L8.7,10.13,7.84,11a.5.5,0,0,0,0,.71.52.52,0,0,0,.71,0l.86-.87,1.52,1.53-.86.86a.51.51,0,0,0,0,.71.5.5,0,0,0,.35.15.51.51,0,0,0,.36-.15l.86-.86,1.53,1.52-.87.86a.51.51,0,0,0,0,.71.51.51,0,0,0,.36.15.5.5,0,0,0,.35-.15l.86-.86,1.53,1.52-.86.87a.48.48,0,0,0,0,.7.47.47,0,0,0,.35.15.49.49,0,0,0,.35-.15l.86-.86L18.58,20Z"/><path class="cls-2" d="M6.51,12.59a.32.32,0,0,0-.21-.09.3.3,0,0,0-.3.3v4.9a.29.29,0,0,0,.3.3h4.9a.3.3,0,0,0,.21-.51ZM7,17V14.5L9.5,17Z"/></g></svg>