<svg xmlns="http://www.w3.org/2000/svg" viewBox="0 0 24 24"><defs><style>.cls-1{fill:none;}.cls-2{fill:#999;}</style></defs><title>Service_Delivery_Delivery_Pickup--Store_24px</title><g id="Square"><rect class="cls-1" width="24" height="24"/></g><g id="Icon"><path class="cls-2" d="M17.05,16l-3,1.09A3,3,0,0,0,11.73,16L7.94,5.66a1,1,0,0,0-.49-.55l-4-2a1,1,0,0,0-.9,1.78L6.2,6.72l3.65,10A3,3,0,0,0,11.75,22a3.1,3.1,0,0,0,1-.18,3,3,0,0,0,2-2.84l3-1.09A1,1,0,0,0,17.05,16Zm-4.39,3.41a1,1,0,0,1-.57.52,1,1,0,0,1-.76,0,1,1,0,0,1-.52-.57,1,1,0,0,1,0-.76,1,1,0,0,1,.57-.52h0a1,1,0,0,1,.34-.06,1,1,0,0,1,.42.09,1,1,0,0,1,.49,1.33Z"/><path class="cls-2" d="M19.48,12.46l-1.71-4.7a1,1,0,0,0-.52-.56,1,1,0,0,0-.76,0l-4.7,1.71a1,1,0,0,0-.56.51,1,1,0,0,0,0,.77l1.71,4.7a1,1,0,0,0,.94.65,1,1,0,0,0,.34-.06l4.7-1.71A1,1,0,0,0,19.48,12.46Zm-5,.77-1-2.82,2.82-1,1,2.82Z"/></g></svg>