<svg xmlns="http://www.w3.org/2000/svg" viewBox="0 0 24 24"><defs><style>.cls-1{fill:none;}.cls-2{fill:#999;}</style></defs><title>Social_SocialNetwork_Pinterest_24px</title><g id="Square"><rect class="cls-1" width="24" height="24"/></g><g id="Icon"><path class="cls-2" d="M20,5V18.32A1.68,1.68,0,0,1,18.32,20H10.06a.05.05,0,0,1-.05-.06l.56-2.13c.07-.23.25-1,.55-2.17a1.9,1.9,0,0,0,.85.73,2.45,2.45,0,0,0,1.16.25,3.7,3.7,0,0,0,3-1.53,6.13,6.13,0,0,0,1.19-3.89A4.11,4.11,0,0,0,17,9.51a4.56,4.56,0,0,0-1-1.45,4.62,4.62,0,0,0-1.58-1,5.39,5.39,0,0,0-2.06-.38,7,7,0,0,0-2,.29,5.33,5.33,0,0,0-1.6.8A5.76,5.76,0,0,0,7.58,8.9a4.83,4.83,0,0,0-.69,1.33,4.51,4.51,0,0,0-.22,1.38,4,4,0,0,0,.41,1.88,2.38,2.38,0,0,0,1.21,1.15.36.36,0,0,0,.25,0,.35.35,0,0,0,.15-.2c.07-.31.12-.52.15-.64a.44.44,0,0,0-.11-.44,2.39,2.39,0,0,1-.52-1.56A3.69,3.69,0,0,1,9.29,9.13,3.74,3.74,0,0,1,12.1,8a3.35,3.35,0,0,1,2.43.84,2.94,2.94,0,0,1,.87,2.19,5.89,5.89,0,0,1-.71,3,2.07,2.07,0,0,1-1.8,1.23,1.29,1.29,0,0,1-1-.45,1.17,1.17,0,0,1-.23-1.08,9.67,9.67,0,0,1,.27-1c.13-.41.23-.76.31-1.07a3,3,0,0,0,.11-.77,1.31,1.31,0,0,0-.27-.85,1,1,0,0,0-.79-.34,1.33,1.33,0,0,0-1.08.59,2.38,2.38,0,0,0-.44,1.45A2.8,2.8,0,0,0,10,13L9,17.35A7.79,7.79,0,0,0,8.91,20H5.68A1.68,1.68,0,0,1,4,18.32V5A1,1,0,0,1,5,4H19A1,1,0,0,1,20,5Z"/></g></svg>