<svg xmlns="http://www.w3.org/2000/svg" viewBox="0 0 24 24"><defs><style>.a{fill:none;}.b{fill:#999;}</style></defs><title>Social-Comment-Community-24px</title><rect class="a" width="24" height="24"/><path class="b" d="M17,4V14.4H11.1l-.5.4L9.1,15.9V14.4H4V4H17m1.1-2H2.8a.9.9,0,0,0-.8.8V15.6a.9.9,0,0,0,.8.8H7.1v1.7A.9.9,0,0,0,8,19l.4-.2,3.4-2.4h6.3a.9.9,0,0,0,.9-.8V2.8a.9.9,0,0,0-.9-.8Z"/><path class="b" d="M21,13v6.5H18v1h0l-1.2-.8-.2-.2H13V15.9h5.5V13H21m.5-1h-4v2.9H12V20a.5.5,0,0,0,.5.5h3.7l2,1.4h.3a.5.5,0,0,0,.5-.5v-1h2.5A.5.5,0,0,0,22,20V12.5a.5.5,0,0,0-.5-.5Z"/></svg>