<svg xmlns="http://www.w3.org/2000/svg" viewBox="0 0 24 24"><defs><style>.a{fill:none;}.b{fill:#999;}</style></defs><title>NU-Social-Share-TesterView-24px</title><rect class="a" width="24" height="24"/><path class="b" d="M12,4a8,8,0,1,1-8,8,8,8,0,0,1,8-8m0-2A10,10,0,1,0,22,12,10,10,0,0,0,12,2Z"/><path class="b" d="M12,9.1l.4.8.5.9,1,.2h.9l-.7.6-.7.8.2,1v.9l-.8-.4-.9-.5L11,14l-.7.4v-.8l.2-1.1-.8-.7-.7-.6,1-.2,1-.2.5-.9.4-.8m0-3.2a.9.9,0,0,0-.9.5L9.8,9l-3,.5a1.1,1.1,0,0,0-.5,1.8l2.2,2L8,16.1a1,1,0,0,0,1,1.2l.5-.2L12,15.7l2.6,1.4h.5a1,1,0,0,0,1-1.1l-.6-2.9,2.1-2.1a1,1,0,0,0-.5-1.7L14.2,9,12.9,6.4a1,1,0,0,0-.9-.5Z"/></svg>