<svg xmlns="http://www.w3.org/2000/svg" viewBox="0 0 24 24"><defs><style>.a{fill:none;}.b{fill:#999;}</style></defs><title>Social-SocialNetwork-Instagram-24px</title><rect class="a" width="24" height="24"/><path class="b" d="M18,10.3V9.4c0-.4-.1-.8-.1-1a6.4,6.4,0,0,0-.2-.7,1.6,1.6,0,0,0-.6-.8,1.6,1.6,0,0,0-.8-.6l-.7-.2H8.4l-.7.2a2.4,2.4,0,0,0-.9.6,2.2,2.2,0,0,0-.5.8,6.4,6.4,0,0,0-.2.7c0,.2-.1.6-.1,1v5.3c0,.3.1.7.1.9a6.4,6.4,0,0,0,.2.7,4.1,4.1,0,0,0,.5.9l.9.5.7.2h7.2l.7-.2.8-.5a2.4,2.4,0,0,0,.6-.9,6.4,6.4,0,0,0,.2-.7c0-.2.1-.6.1-.9V10.3Zm-3.3,4.4A4,4,0,0,1,12,15.8a4,4,0,0,1-2.7-1.1A4,4,0,0,1,8.2,12,4,4,0,0,1,9.3,9.3a3.9,3.9,0,0,1,2.7-1,3.9,3.9,0,0,1,2.7,1A4,4,0,0,1,15.8,12,4,4,0,0,1,14.7,14.7Zm1.8-6a.7.7,0,0,1-.6.3.9.9,0,0,1-.6-.3.9.9,0,0,1-.3-.6.9.9,0,0,1,.3-.6.9.9,0,0,1,.6-.3.7.7,0,0,1,.6.3.9.9,0,0,1,.3.6A.9.9,0,0,1,16.5,8.7Z"/><path class="b" d="M12,9.6A2.4,2.4,0,0,0,9.6,12,2.4,2.4,0,0,0,12,14.4,2.4,2.4,0,0,0,14.4,12,2.4,2.4,0,0,0,12,9.6Z"/><path class="b" d="M21,2H3A.9.9,0,0,0,2,3V21a.9.9,0,0,0,1,1H21a.9.9,0,0,0,1-1V3A.9.9,0,0,0,21,2ZM19.3,15a4.9,4.9,0,0,1-1.2,3.1A4.9,4.9,0,0,1,15,19.3H9a4.9,4.9,0,0,1-3.1-1.2A4.9,4.9,0,0,1,4.7,15V9A4.9,4.9,0,0,1,5.9,5.9,4.9,4.9,0,0,1,9,4.7h6a4.9,4.9,0,0,1,3.1,1.2A4.9,4.9,0,0,1,19.3,9v6Z"/></svg>