<svg xmlns="http://www.w3.org/2000/svg" viewBox="0 0 24 24"><defs><style>.a{fill:none;}.b{fill:#999;}</style></defs><title>Social-SocialNetwork-Pinterest-24px</title><rect class="a" width="24" height="24"/><path class="b" d="M22,3V21a.9.9,0,0,1-1,1H8.8a11.7,11.7,0,0,0,1.4-2.7c.1-.3.3-1.2.7-2.8a2.7,2.7,0,0,0,1.1,1,3.2,3.2,0,0,0,1.4.3,4.9,4.9,0,0,0,3.8-1.9A7.7,7.7,0,0,0,18.7,11a5.4,5.4,0,0,0-.5-2.1A5.7,5.7,0,0,0,17,7.1a5.3,5.3,0,0,0-2-1.3,7.5,7.5,0,0,0-2.6-.5,10.1,10.1,0,0,0-2.5.4,7.5,7.5,0,0,0-2,1A6.2,6.2,0,0,0,6.5,8.1a7,7,0,0,0-.9,1.7,5.1,5.1,0,0,0-.3,1.7,6,6,0,0,0,.5,2.4,3.6,3.6,0,0,0,1.6,1.4h.3c.1,0,.1-.1.2-.3a1.2,1.2,0,0,1,.2-.7.7.7,0,0,0-.2-.6,3.1,3.1,0,0,1-.6-1.9A4.7,4.7,0,0,1,8.6,8.4,4.8,4.8,0,0,1,12.1,7a4.5,4.5,0,0,1,3.1,1.1,3.6,3.6,0,0,1,1,2.7,7,7,0,0,1-.8,3.7,2.6,2.6,0,0,1-2.3,1.6,1.8,1.8,0,0,1-1.3-.6,1.5,1.5,0,0,1-.3-1.3c.1-.3.2-.7.4-1.2a12.7,12.7,0,0,1,.4-1.4,3.1,3.1,0,0,0,.1-.9,1.8,1.8,0,0,0-.3-1.1,1.3,1.3,0,0,0-1-.4,1.7,1.7,0,0,0-1.4.7,3.5,3.5,0,0,0-.5,1.8,3.5,3.5,0,0,0,.3,1.6L8.2,18.7A11.6,11.6,0,0,0,8.1,22H3a.9.9,0,0,1-1-1V3A.9.9,0,0,1,3,2H21A.9.9,0,0,1,22,3Z"/></svg>