<svg xmlns="http://www.w3.org/2000/svg" viewBox="0 0 24 24"><defs><style>.a{fill:none;}.b{fill:#999;}</style></defs><title>Social-Comment-ProductQuestion-24px</title><rect class="a" width="24" height="24"/><path class="b" d="M12,13a.8.8,0,0,1-.8-.8V12a2.6,2.6,0,0,1,1.5-2.2,1.3,1.3,0,0,0,.8-1.3,2.1,2.1,0,0,0-.4-1.1A1.5,1.5,0,0,0,12,7h0a1.5,1.5,0,0,0-1.5,1.5.7.7,0,0,1-.8.7A.7.7,0,0,1,9,8.5a2.9,2.9,0,0,1,3-3h0a2.9,2.9,0,0,1,2.1.9A2.7,2.7,0,0,1,15,8.5a2.9,2.9,0,0,1-1.7,2.7c-.3.2-.6.5-.6.8v.2A.7.7,0,0,1,12,13Z"/><rect class="b" x="11.3" y="14" width="1.5" height="1.5" rx="0.7" ry="0.7"/><path class="b" d="M20,4V17H12.8l-.5.3L10,19h0V17H4V4H20m1-2H3A.9.9,0,0,0,2,3V18a1,1,0,0,0,1,1H8v2a1,1,0,0,0,1,1l.6-.2L13.5,19H21a1,1,0,0,0,1-1V3a.9.9,0,0,0-1-1Z"/></svg>