<svg xmlns="http://www.w3.org/2000/svg" viewBox="0 0 24 24"><defs><style>.cls-1{fill:none;}.cls-2{fill:#999;}</style></defs><title>Social_Comment_Community_24px</title><g id="Square"><rect class="cls-1" width="24" height="24"/></g><g id="Icon"><path class="cls-2" d="M21.5,12H19V2.83A.85.85,0,0,0,18.15,2H2.85A.85.85,0,0,0,2,2.83V15.56a.85.85,0,0,0,.85.85H7.1v1.73A.85.85,0,0,0,8,19a.88.88,0,0,0,.5-.17l3.32-2.42H12V20a.5.5,0,0,0,.5.5h3.75l2,1.42a.46.46,0,0,0,.29.1.5.5,0,0,0,.5-.5v-1h2.5A.5.5,0,0,0,22,20V12.49A.5.5,0,0,0,21.5,12ZM11.12,14.41l-.52.39L9.1,15.89V14.41H4V4H17V14.41H11.12ZM21,19.48H18v1l-1.16-.85-.26-.19H13V16.41h5.15a.85.85,0,0,0,.85-.85V13h2Z"/></g></svg>