<svg xmlns="http://www.w3.org/2000/svg" viewBox="0 0 24 24"><defs><style>.a{fill:none;}.b{fill:#999;}</style></defs><title>NU-Social-View-Star_First-24px</title><rect class="a" width="24" height="24"/><path class="b" d="M12,6l1.6,3.2.5.9,1,.2,3.5.5-2.5,2.5-.8.7.2,1.1.7,3.5L13,17l-1-.6L11,17,8,18.7l.5-3.5.2-1.1-.8-.7L5.3,11l3.6-.7,1-.2.5-.9L12,6m0-3.4a.9.9,0,0,0-.9.5L8.5,8.3l-5.7,1A1,1,0,0,0,2.2,11l4.2,3.9-.8,5.7a1,1,0,0,0,1,1.1H7l5-2.8,5.2,2.7.4.2a1.1,1.1,0,0,0,1-1.2l-1-5.7,4.1-4.1A1,1,0,0,0,21.1,9l-5.7-.8L12.9,3.1a1,1,0,0,0-.9-.5Z"/></svg>