<svg xmlns="http://www.w3.org/2000/svg" viewBox="0 0 24 24"><defs><style>.a{fill:none;}.b{fill:#999;}</style></defs><title>Store-StoreLocation-24px</title><rect class="a" width="24" height="24"/><path class="b" d="M12,4a6.2,6.2,0,0,1,6.2,6.2c0,2.2-3.3,6.4-6.2,9.4-2.9-3-6.2-7.2-6.2-9.4A6.2,6.2,0,0,1,12,4m0-2a8.2,8.2,0,0,0-8.2,8.2c0,3.8,5.5,9.6,7.5,11.5a1,1,0,0,0,1.4,0c2-1.9,7.5-7.7,7.5-11.5A8.2,8.2,0,0,0,12,2Z"/><path class="b" d="M15.2,9.2,13.5,7.5,12.4,6.4a.6.6,0,0,0-.8,0L10.5,7.5,8.8,9.2,8,10c-.4.3-.1,1,.4,1h7.2c.5,0,.8-.7.4-1Z"/></svg>