<svg xmlns="http://www.w3.org/2000/svg" viewBox="0 0 24 24"><defs><style>.cls-1{fill:none;}.cls-2{fill:#999;}</style></defs><title>Universe_Security_24px</title><g id="Square"><rect class="cls-1" width="24" height="24"/></g><g id="Icon"><path class="cls-2" d="M17,9V7.22A5.16,5.16,0,0,0,12.5,2,5,5,0,0,0,7,7V9H7a2,2,0,0,0-2,2v9a2,2,0,0,0,2,2H17a2,2,0,0,0,2-2V11a2,2,0,0,0-2-2ZM9,7a3,3,0,0,1,6,0V9H9Zm8,13H7V11H17Z"/><path class="cls-2" d="M11,16.22V18.5h2V16.22a2,2,0,0,0,1-1.72,2,2,0,0,0-4,0A2,2,0,0,0,11,16.22Z"/></g></svg>