<svg xmlns="http://www.w3.org/2000/svg" viewBox="0 0 96 96"><defs><style>.cls-1{fill:none;}.cls-2{fill:#f59e00;}.cls-3{fill:#111116;}.cls-4{fill:#121216;}.cls-5{fill:#121116;}</style></defs><title>User_Payment_Monochrome_Illico_24px</title><g id="Square"><rect class="cls-1" width="96" height="96"/></g><g id="Card"><path class="cls-2" d="M70,52.13v-.41h-.17v-.09h.45v.09h-.17v.41Zm.86,0v-.35l-.11.3h-.13l-.12-.3v.35H70.4v-.5h.19l.13.32.11-.32H71v.5Z"/><path class="cls-3" d="M20.26,60.35H63.59a12.08,12.08,0,0,0,6.63-1.91,12,12,0,0,0,5.56-8.13A12.34,12.34,0,0,0,66,35.87a12,12,0,0,0-2.33-.22H32.36A12.32,12.32,0,0,0,20,47.84V60.12C20,60.35,20,60.35,20.26,60.35ZM63.64,49.52a3.31,3.31,0,0,1,1.93-2.41,3.92,3.92,0,0,1,1.66-.3,3.12,3.12,0,0,1,2.69,1.68,4.19,4.19,0,0,1,.41,1.33,3.39,3.39,0,0,1-3.51,3.85,5.3,5.3,0,0,1-.69,0,3.34,3.34,0,0,1-2.54-2.41,4.33,4.33,0,0,1,0-1.72Zm-7.5-.28a2.72,2.72,0,0,1,.8-1.45,3.53,3.53,0,0,1,2.93-.88,2.2,2.2,0,0,1,.79.24V47c0-1.62,0-3.25.13-4.87a.82.82,0,0,1,.63-.77h.3c.32,0,.43.08.47.4a3.09,3.09,0,0,1,0,.8C62,43.64,62,44.72,62,45.81s0,2.18,0,3.26c0,.47,0,.94.1,1.4.11.82.26,1.63.41,2.43a.35.35,0,0,1,0,.3.71.71,0,0,1-.84.28.53.53,0,0,1-.21-.21,4.24,4.24,0,0,1-.18-.5c-.06-.17,0-.11-.06-.13s-.43.35-.65.5a3,3,0,0,1-2.37.41,2.63,2.63,0,0,1-2-1.84,4,4,0,0,1-.08-2.47Zm-8.38.8a3.57,3.57,0,0,1,1.31-2.4,4.06,4.06,0,0,1,3.84-.47l.3.13a.36.36,0,0,0,.41,0,.92.92,0,0,1,.49-.13c.33,0,.44.11.44.45v1.1c0,.37,0,1,0,1.51A16.56,16.56,0,0,0,55,52.75a.52.52,0,0,1-.36.69.55.55,0,0,1-.82-.3,3.82,3.82,0,0,1-.21-.46l-.41.28a3.72,3.72,0,0,1-2.89.61A3.14,3.14,0,0,1,47.76,50Zm-7.45-1.47A3.78,3.78,0,0,1,42.38,47a3.25,3.25,0,0,1,1.51-.15,3.74,3.74,0,0,1,2,1,2.08,2.08,0,0,1,.43.51.51.51,0,0,1-.17.74c-.28.23-.42.23-.69,0L45,48.68a2.22,2.22,0,0,0-2-.58,2.26,2.26,0,0,0-1.93,2.58,1.85,1.85,0,0,0,1.31,1.6A3.14,3.14,0,0,0,44,52.4a1.87,1.87,0,0,0,1.44-.94,1.31,1.31,0,0,1,.2-.28.47.47,0,0,1,.64-.11l.2.13a.51.51,0,0,1,.15.6l-.11.26a2.65,2.65,0,0,1-1.57,1.33,5,5,0,0,1-2.37.22,3,3,0,0,1-2.52-2,2.84,2.84,0,0,1-.22-1.15,3,3,0,0,1,.5-1.85Zm-3.9,2c0-.75,0-1.5.05-2.24a3.76,3.76,0,0,1,.19-1,.65.65,0,0,1,.77-.43.63.63,0,0,1,.58.68v0l-.12,1.71a25.49,25.49,0,0,0,0,3.27,2.47,2.47,0,0,1,0,.47.48.48,0,0,1-.44.52h0a1.18,1.18,0,0,1-.81-.24.49.49,0,0,1-.18-.38c0-.8-.06-1.58,0-2.38Zm-.19-6.3a1.2,1.2,0,0,1,1.5-1.17c.72.22.74.48.87,1a1.07,1.07,0,0,1-.67,1.37l-.09,0a1.18,1.18,0,0,1-1.52-.69,1.05,1.05,0,0,1-.05-.19c0-.09,0-.18,0-.3Zm-3.64,3.83c0-.54,0-1.25,0-1.94a31.15,31.15,0,0,1,.3-3.34,4.55,4.55,0,0,1,.22-1,.57.57,0,0,1,.34-.41,1,1,0,0,1,.76,0,.4.4,0,0,1,.3.47l-.16,1.34A21.37,21.37,0,0,0,34.15,46c0,1.22-.06,2.43,0,3.62,0,.66.09,1.31.13,2a12.33,12.33,0,0,0,.13,1.27.76.76,0,0,1-.11.53c-.17.28-1.08.31-1.25-.06a1.58,1.58,0,0,1-.13-.26c0-.12-.07-.25-.1-.37a18.07,18.07,0,0,1-.26-2.84c0-.52,0-1,0-1.72ZM29,48.4c0-1.57.07-3.14.22-4.7,0-.25.06-.49.1-.73a4.41,4.41,0,0,1,.22-1.08.69.69,0,0,1,.92-.49.49.49,0,0,1,.44.52,1.41,1.41,0,0,1,0,.41c-.07.41-.11.83-.14,1.25-.1.81-.17,1.63-.21,2.45a39.09,39.09,0,0,0,.06,4c0,.51.07,1,.11,1.51s.09,1,.15,1.46a.43.43,0,0,1-.35.5h0a.69.69,0,0,1-.35,0,.74.74,0,0,1-.69-.45,1.71,1.71,0,0,1-.13-.44,8.07,8.07,0,0,1-.23-1.46c0-.13,0-.24,0-.35C29,50,29,49.22,29,48.4Zm-3.28-1.25a.89.89,0,0,1,.85-.22.69.69,0,0,1,.49.56,3.22,3.22,0,0,1,.09.76c0,1.59,0,3.18-.05,4.74,0,.38-.15.53-.51.58H26.4c-.54,0-.76-.15-.76-.71,0-.88,0-1.76,0-2.63v-.17c0-.84-.06-1.7-.1-2.55A.52.52,0,0,1,25.68,47.15Zm-.77-2.74a1.34,1.34,0,0,1,1.18-1.35,1.24,1.24,0,0,1,1.23,1.2,1.17,1.17,0,0,1-1.16,1.27C25.49,45.51,24.87,44.93,24.91,44.41Z"/><path class="cls-4" d="M59.3,48.08l-.6.08a1.71,1.71,0,0,0-1.33,1.12,3.51,3.51,0,0,0-.18,1.44,1.7,1.7,0,0,0,2.31,1.51,1.74,1.74,0,0,0,1.29-1.66,4.39,4.39,0,0,0-.08-1.4,1.74,1.74,0,0,0-.13-.36,1.19,1.19,0,0,0-1-.71Z"/><path class="cls-4" d="M53.4,50.31a4,4,0,0,0-.06-.92,1.34,1.34,0,0,0-1.21-1.25,3,3,0,0,0-1.57.06A2.33,2.33,0,0,0,49,50.92a1.76,1.76,0,0,0,.47.88,2.24,2.24,0,0,0,2.18.63,2.88,2.88,0,0,0,1.27-.69,1.42,1.42,0,0,0,.47-1.14Z"/><path class="cls-5" d="M67,52.47A2.16,2.16,0,0,0,68.29,52a1.81,1.81,0,0,0,.81-1.25A3.19,3.19,0,0,0,69,49.32,1.87,1.87,0,0,0,67.17,48a3.34,3.34,0,0,0-1.08.17,1.88,1.88,0,0,0-1.31,1.45,2.93,2.93,0,0,0,0,1.25A2.13,2.13,0,0,0,67,52.47Z"/><path d="M85,76H11a3,3,0,0,1-3-3V23a3,3,0,0,1,3-3H85a3,3,0,0,1,3,3V73A3,3,0,0,1,85,76ZM12,72H84V24H12Z"/></g></svg>