<svg xmlns="http://www.w3.org/2000/svg" viewBox="0 0 96 96"><defs><style>.cls-1{fill:none;}</style></defs><title>User_Payment_Monochrome_Oney_24px</title><g id="Square"><rect class="cls-1" width="96" height="96"/></g><g id="Card"><path d="M55,42.29c.37.05.74.07,1.11.14a5.85,5.85,0,0,1,4.52,4.74,7,7,0,0,1,0,1.94H51.36v.09a3.75,3.75,0,0,0,3.79,3A3.92,3.92,0,0,0,57.94,51a.3.3,0,0,1,.16-.08h2.19l.08,0c-.1.17-.19.36-.29.51a5.93,5.93,0,0,1-10.82-2,6,6,0,0,1,2.58-6.32,5.53,5.53,0,0,1,2.84-.89l.21,0Zm-3.62,4.9h7c0-1.31-1.73-2.77-3.27-2.85A3.63,3.63,0,0,0,51.42,47.19Z"/><path d="M30.42,42.29c.29.05.59.08.88.14a6,6,0,0,1,3.23,9.77,5.65,5.65,0,0,1-4.74,2.07,5.73,5.73,0,0,1-5.39-3.83A9.63,9.63,0,0,1,24,48.92l0-.18V47.8l0-.14a5.9,5.9,0,0,1,4.59-5.22c.3-.07.62-.1.93-.15Zm3.44,6a8,8,0,0,0-.11-.84,3.84,3.84,0,0,0-4.52-3,3.56,3.56,0,0,0-.56.15,4,4,0,0,0-2.43,4.72,3.86,3.86,0,0,0,4.31,2.91A4,4,0,0,0,33.86,48.29Z"/><path d="M63.44,57.72c.58-1.39,1.14-2.78,1.7-4.17a.28.28,0,0,0,0-.22q-2.3-5.52-4.61-11v0h2.4a.29.29,0,0,0,0,.09l3.33,8.17a.64.64,0,0,0,.06.1,2.05,2.05,0,0,0,.08-.19c.42-1,.84-2.06,1.26-3.07l2.08-5.1H72a1.46,1.46,0,0,1,0,.2l-4.5,11-1.76,4.26Z"/><path d="M43.07,42.29c.3.05.6.07.9.15A4.79,4.79,0,0,1,47.72,46a6.34,6.34,0,0,1,.18,1.5c0,2.2,0,4.41,0,6.61v.16H45.73V54c0-2.1,0-4.2,0-6.3a6.59,6.59,0,0,0-.15-1.4,2.46,2.46,0,0,0-2-1.95,4.41,4.41,0,0,0-2,0,2.55,2.55,0,0,0-2.11,2.24,5.58,5.58,0,0,0-.09,1.15v6.49H37.22a.34.34,0,0,1,0-.1c0-2.31,0-4.62,0-6.93a4.61,4.61,0,0,1,1.66-3.65,5.25,5.25,0,0,1,3-1.25l.2,0Z"/><path d="M85,76H11a3,3,0,0,1-3-3V23a3,3,0,0,1,3-3H85a3,3,0,0,1,3,3V73A3,3,0,0,1,85,76ZM12,72H84V24H12Z"/></g></svg>