<svg xmlns="http://www.w3.org/2000/svg" viewBox="0 0 96 96"><defs><style>.cls-1{fill:none;}.cls-2{fill:#f59e00;}</style></defs><title>User_Payment_Monochrome_MasterCard_24px</title><g id="Square"><rect class="cls-1" width="96" height="96"/></g><g id="Card"><path class="cls-2" d="M67.11,51.72v-.37H67v-.08h.4v.08h-.15v.37Zm.77,0v-.31l-.1.26h-.12l-.1-.26v.31h-.11v-.45h.16l.12.29.1-.29H68v.45Z"/><path d="M34.64,60a1.5,1.5,0,0,0-.4-.25,1.23,1.23,0,0,0-.5-.09h-.3l-.31.09a1,1,0,0,0-.27.18.87.87,0,0,0-.23.27,1.26,1.26,0,0,0-.44-.42,1.2,1.2,0,0,0-.62-.13h-.25l-.25.06a.78.78,0,0,0-.24.16,1.34,1.34,0,0,0-.2.21v-.38H30v3.17h.67V61.12a.84.84,0,0,1,.07-.35,1,1,0,0,1,.17-.27.64.64,0,0,1,.25-.15,1,1,0,0,1,.3-.05.71.71,0,0,1,.54.2,1,1,0,0,1,.18.62v1.76h.67V61.12a1.34,1.34,0,0,1,0-.35,1,1,0,0,1,.19-.27.64.64,0,0,1,.25-.15.79.79,0,0,1,.3-.05.66.66,0,0,1,.52.2.88.88,0,0,1,.19.62v1.76H35v-2a1.19,1.19,0,0,0-.34-.91Z"/><path d="M38.17,60.1a1.23,1.23,0,0,0-.41-.34,1.29,1.29,0,0,0-.58-.12,1.59,1.59,0,0,0-.62.12,1.46,1.46,0,0,0-.84.87,1.59,1.59,0,0,0-.12.67,1.65,1.65,0,0,0,.12.66,1.87,1.87,0,0,0,.33.54,1.72,1.72,0,0,0,.51.33,1.44,1.44,0,0,0,.62.14,1.3,1.3,0,0,0,.58-.14,1,1,0,0,0,.41-.33v.38h.69V59.71h-.69Zm0,1.61A1.55,1.55,0,0,1,38,62a1.21,1.21,0,0,1-.3.2,1,1,0,0,1-.39.08,1.1,1.1,0,0,1-.4-.08.73.73,0,0,1-.3-.22.94.94,0,0,1-.19-.32,1,1,0,0,1-.07-.39,1.12,1.12,0,0,1,.07-.4.88.88,0,0,1,.49-.53.93.93,0,0,1,.4-.09.89.89,0,0,1,.39.09.78.78,0,0,1,.3.21.83.83,0,0,1,.2.32,1.21,1.21,0,0,1,0,.81Z"/><path d="M42,61.29a1.6,1.6,0,0,0-.81-.3l-.32-.05-.22,0-.15,0-.11-.1a.14.14,0,0,1-.05-.13.29.29,0,0,1,.16-.27.86.86,0,0,1,.44-.12l.28,0,.29.07.23.09.17.1.3-.54a1.46,1.46,0,0,0-.57-.25,2.74,2.74,0,0,0-.7-.09,2,2,0,0,0-.55.07,2,2,0,0,0-.41.2.84.84,0,0,0-.27.32,1.2,1.2,0,0,0-.08.42.76.76,0,0,0,.27.62,1.57,1.57,0,0,0,.8.3l.32,0a1,1,0,0,1,.42.12.32.32,0,0,1,.14.24.31.31,0,0,1-.19.26.83.83,0,0,1-.53.12l-.36,0-.27-.07-.23-.1L39.84,62l-.31.52a2,2,0,0,0,.35.21l.37.12.35.07h.29a2.46,2.46,0,0,0,.6-.07,1.11,1.11,0,0,0,.45-.22,1,1,0,0,0,.29-.31.9.9,0,0,0,.08-.42A.74.74,0,0,0,42,61.29Z"/><path d="M48.49,60.1a1.21,1.21,0,0,0-.47-.34,1.58,1.58,0,0,0-.61-.12,1.77,1.77,0,0,0-.64.12,1.21,1.21,0,0,0-.5.34,1.46,1.46,0,0,0-.32.52A2.16,2.16,0,0,0,46,62a1.55,1.55,0,0,0,.34.53,1.85,1.85,0,0,0,.5.34,2.41,2.41,0,0,0,.66.12,2.6,2.6,0,0,0,.68-.1,1.83,1.83,0,0,0,.62-.36L48.4,62a1.49,1.49,0,0,1-.43.23,1.1,1.1,0,0,1-.47.1.86.86,0,0,1-.32,0,1,1,0,0,1-.51-.38,1,1,0,0,1-.11-.37h2.33a.34.34,0,0,1,0-.14v-.13a1.89,1.89,0,0,0-.12-.67A1.58,1.58,0,0,0,48.49,60.1ZM46.56,61a1.11,1.11,0,0,1,.08-.3.6.6,0,0,1,.19-.25.91.91,0,0,1,.23-.17,1,1,0,0,1,.34,0,.71.71,0,0,1,.53.2,1.12,1.12,0,0,1,.27.57Z"/><path d="M57.65,60.1a1.37,1.37,0,0,0-.42-.34,1.42,1.42,0,0,0-.57-.12,1.59,1.59,0,0,0-.62.12,1.57,1.57,0,0,0-.51.34,1.39,1.39,0,0,0-.33.53,1.75,1.75,0,0,0-.14.67,1.66,1.66,0,0,0,.14.66,1.4,1.4,0,0,0,.84.87,1.44,1.44,0,0,0,.62.14,1.26,1.26,0,0,0,.57-.14,1.23,1.23,0,0,0,.42-.33v.38h.69V59.71h-.69Zm0,1.61a1.14,1.14,0,0,1-.18.32,1.21,1.21,0,0,1-.3.2,1.15,1.15,0,0,1-.41.08,1,1,0,0,1-.38-.08A.73.73,0,0,1,56,62a.8.8,0,0,1-.19-.32,1,1,0,0,1-.07-.39,1.12,1.12,0,0,1,.07-.4.8.8,0,0,1,.19-.32.92.92,0,0,1,.68-.3,1,1,0,0,1,.41.09.83.83,0,0,1,.48.53.94.94,0,0,1,.07.4A1.14,1.14,0,0,1,57.61,61.71Z"/><path d="M45,62.24a.71.71,0,0,1-.32.07l-.2,0a.27.27,0,0,1-.15-.1.76.76,0,0,1-.12-.19,1.24,1.24,0,0,1,0-.27V60.35h1.1v-.64h-1.1v-1h-.69v1h-.64v.64h.64v1.39a1.33,1.33,0,0,0,.28.92,1.19,1.19,0,0,0,.84.31,1.4,1.4,0,0,0,.54-.1,1.38,1.38,0,0,0,.3-.14l-.23-.59A.49.49,0,0,1,45,62.24Z"/><path d="M51.2,59.64a1.6,1.6,0,0,0-.52.1,1.09,1.09,0,0,0-.38.39v-.42h-.64v3.17h.64V61.14a1.12,1.12,0,0,1,.05-.36.73.73,0,0,1,.17-.26.48.48,0,0,1,.23-.17.79.79,0,0,1,.3-.05h.27l.14.05.2-.67-.17,0Z"/><path d="M60.79,59.64a1.61,1.61,0,0,0-.53.1,1.09,1.09,0,0,0-.38.39v-.42h-.64v3.17h.64V61.14a.77.77,0,0,1,.07-.36.46.46,0,0,1,.15-.26.48.48,0,0,1,.23-.17.79.79,0,0,1,.3-.05h.27l.14.05.2-.67-.17,0Z"/><path d="M64,58.44V60.1a1.23,1.23,0,0,0-.41-.34,1.29,1.29,0,0,0-.58-.12,1.59,1.59,0,0,0-.62.12,1.46,1.46,0,0,0-.84.87,1.59,1.59,0,0,0-.12.67,1.49,1.49,0,0,0,.12.66,1.67,1.67,0,0,0,.33.54,1.72,1.72,0,0,0,.51.33A1.61,1.61,0,0,0,63,63a1.3,1.3,0,0,0,.58-.14A1,1,0,0,0,64,62.5v.38h.68V58.44Zm0,3.27a1.55,1.55,0,0,1-.2.32,1.21,1.21,0,0,1-.3.2,1,1,0,0,1-.39.08,1.06,1.06,0,0,1-.4-.08.73.73,0,0,1-.3-.22,1.5,1.5,0,0,1-.19-.32,1.59,1.59,0,0,1-.07-.39,1.87,1.87,0,0,1,.07-.4,1.5,1.5,0,0,1,.19-.32.81.81,0,0,1,.3-.21.9.9,0,0,1,.4-.09.89.89,0,0,1,.39.09.78.78,0,0,1,.3.21.83.83,0,0,1,.2.32,1.21,1.21,0,0,1,0,.81Z"/><path d="M52.87,60.57a.69.69,0,0,1,.3-.2.9.9,0,0,1,.4-.09h0a1,1,0,0,1,.42.09.55.55,0,0,1,.34.2l.33-.56a1.79,1.79,0,0,0-.42-.25,1.89,1.89,0,0,0-.67-.12,2,2,0,0,0-.69.12,1.58,1.58,0,0,0-.53.35,1.52,1.52,0,0,0-.36.52,1.74,1.74,0,0,0-.13.67A1.85,1.85,0,0,0,52,62a1.52,1.52,0,0,0,.36.52,1.58,1.58,0,0,0,.53.35,1.81,1.81,0,0,0,.69.14,1.71,1.71,0,0,0,.67-.14,2.13,2.13,0,0,0,.42-.23L54.33,62a1,1,0,0,1-.34.2,1.54,1.54,0,0,1-.42.07h0a1.09,1.09,0,0,1-.4-.07.81.81,0,0,1-.3-.21.77.77,0,0,1-.22-.32,1.24,1.24,0,0,1,0-.82A.66.66,0,0,1,52.87,60.57Z"/><path d="M42.78,45a11.87,11.87,0,0,1,4.53-9.33,11.91,11.91,0,1,0,0,18.67A11.91,11.91,0,0,1,42.78,45Z"/><path d="M54.69,34.71a10.24,10.24,0,0,1,0,20.47A9.93,9.93,0,0,1,50,54a13.54,13.54,0,0,0,0-18.19,10,10,0,0,1,4.68-1.14m0-1.68a11.81,11.81,0,0,0-7.38,2.59,11.89,11.89,0,0,1,2,16.7,12.24,12.24,0,0,1-2,2A11.91,11.91,0,1,0,54.69,33Z"/><path d="M85,76H11a3,3,0,0,1-3-3V23a3,3,0,0,1,3-3H85a3,3,0,0,1,3,3V73A3,3,0,0,1,85,76ZM12,72H84V24H12Z"/></g></svg>