<?xml version="1.0" encoding="UTF-8"?>
<svg width="24px" height="24px" viewBox="0 0 24 24" version="1.1" xmlns="http://www.w3.org/2000/svg" xmlns:xlink="http://www.w3.org/1999/xlink">
    <!-- Generator: Sketch 50.2 (55047) - http://www.bohemiancoding.com/sketch -->
    <title>User/Card/LoyaltyCard/24px</title>
    <desc>Created with Sketch.</desc>
    <defs>
        <path d="M20,4 L4,4 C2.8954305,4 2,4.8954305 2,6 L2,18 C2,19.1045695 2.8954305,20 4,20 L20,20 C21.1045695,20 22,19.1045695 22,18 L22,6 C22,4.8954305 21.1045695,4 20,4 Z M20,6 L20,18 L4,18 L4,6 L20,6 Z M8.34905007,13.5580001 L12,9.99832389 L15.6509499,13.5580001 C15.8486679,13.7507751 16.165225,13.746768 16.3580001,13.5490501 C16.5507751,13.3513321 16.546768,13.034775 16.3490501,12.8419999 L12.3490501,8.94199993 C12.1548621,8.75266669 11.8451379,8.75266669 11.6509499,8.94199993 L7.65094993,12.8419999 C7.45323195,13.034775 7.4492249,13.3513321 7.64199993,13.5490501 C7.83477496,13.746768 8.15133209,13.7507751 8.34905007,13.5580001 Z M14.3,13.8 L12.4,11.9 C12.1722395,11.6962848 11.8277605,11.6962848 11.6,11.9 L9.7,13.8 C9.55053914,13.9560614 9.49654084,14.180436 9.55863306,14.3874101 C9.62072529,14.5943842 9.78931538,14.7519822 10,14.8 L14,14.8 C14.2106846,14.7519822 14.3792747,14.5943842 14.4413669,14.3874101 C14.5034592,14.180436 14.4494609,13.9560614 14.3,13.8 Z" id="path-1"></path>
    </defs>
    <g id="User/Card/LoyaltyCard/24px" stroke="none" stroke-width="1" fill="none" fill-rule="evenodd">
        <mask id="mask-2" fill="white">
            <use xlink:href="#path-1"></use>
        </mask>
        <use id="Shape" fill="#242424" fill-rule="nonzero" xlink:href="#path-1"></use>
    </g>
</svg>