<svg xmlns="http://www.w3.org/2000/svg" viewBox="0 0 24 24"><defs><style>.cls-1{fill:none;}.cls-2{fill:#999;}</style></defs><title>User_Situation_Owner_24px</title><g id="Square"><rect class="cls-1" width="24" height="24"/></g><g id="Icon"><path class="cls-2" d="M21.56,13.54a2.77,2.77,0,0,0-3.81-.81l-2.43,1.58a2.74,2.74,0,0,0-2.57-1.81H7.16a6.93,6.93,0,0,0-3.6,1l-1.07.64a1,1,0,0,0,1,1.72l1.08-.65a5.07,5.07,0,0,1,2.57-.71h5.59a.75.75,0,0,1,0,1.5H9.62a1,1,0,1,0,0,2h3.13a2.73,2.73,0,0,0,2.17-1.08c.05,0,.11,0,.15-.06l3.77-2.45a.75.75,0,0,1,1,.22.77.77,0,0,1-.23,1l-5.19,3.47a5,5,0,0,1-2.79.85H6a1,1,0,0,0,0,2h5.67a6.92,6.92,0,0,0,3.9-1.19l5.18-3.46a2.77,2.77,0,0,0,.81-3.81Z"/><path class="cls-2" d="M7.5,9a3.5,3.5,0,0,0,3.34-2.5H19a1,1,0,0,0,0-2H10.84A3.49,3.49,0,1,0,7.5,9Zm0-5A1.5,1.5,0,1,1,6,5.5,1.5,1.5,0,0,1,7.5,4Z"/><path class="cls-2" d="M19,7.5H17a1,1,0,0,0,0,2h2a1,1,0,0,0,0-2Z"/></g></svg>