<svg xmlns="http://www.w3.org/2000/svg" viewBox="0 0 96 96"><defs><style>.cls-1{fill:none;}.cls-2{fill:#f59e00;}</style></defs><title>User_Payment_Monochrome_PayLib_24px</title><g id="Square"><rect class="cls-1" width="96" height="96"/></g><g id="Card"><path class="cls-2" d="M68.23,51.8v-.38h-.15v-.09h.41v.09h-.16v.38Zm.79,0v-.33l-.1.27H68.8l-.11-.27v.33h-.12v-.47h.17l.12.29.11-.29h.17v.47Z"/><path d="M24,42.93h1.71v.57h.07a3.65,3.65,0,0,1,1.87-.69,6,6,0,0,1,1.94.11,2.65,2.65,0,0,1,2,2.17,9.36,9.36,0,0,1,.16,2.9,7.72,7.72,0,0,1-.23,1.66,2.7,2.7,0,0,1-2.41,2.13c-.74.1-1.48.08-2.23.12V50.13h.73c.33,0,.65,0,1-.08a1.06,1.06,0,0,0,.91-.84,4.61,4.61,0,0,0,.17-1,11.14,11.14,0,0,0-.05-2.45,3.63,3.63,0,0,0-.1-.45,1.11,1.11,0,0,0-.87-.77,3.68,3.68,0,0,0-1.55,0,1.23,1.23,0,0,0-1,1.23c0,.21,0,.41,0,.62v8.5h-1.9c-.16,0-.19,0-.19-.17s0-.58,0-.86Z"/><path d="M61.66,37.4v.25c0,3.65,0,7.32,0,11a5.3,5.3,0,0,0,.16,1.32,2.28,2.28,0,0,0,1.74,1.75,7.11,7.11,0,0,0,3.55,0,2.86,2.86,0,0,0,2.15-2.29,9.77,9.77,0,0,0,0-4.1A2.74,2.74,0,0,0,66.74,43,20.75,20.75,0,0,0,64.65,43h-.07v1.73h.2a12,12,0,0,1,1.2,0,1.23,1.23,0,0,1,1.29,1.13,9.73,9.73,0,0,1,0,3.14A1.23,1.23,0,0,1,66,50.13a4.82,4.82,0,0,1-1.2,0c-.63-.09-.93-.47-1-1.17,0-.17,0-.34,0-.51V37.64a10.35,10.35,0,0,1,7,5.55,10.23,10.23,0,0,1-.92,11.11,10.42,10.42,0,0,1-9.53,4.25V46.1h-2.2v12a10.49,10.49,0,0,1-6.91-6.89,10.75,10.75,0,0,1,1.91-10h.07v8.19a5.81,5.81,0,0,0,.06.93,1.65,1.65,0,0,0,1.39,1.44,10.69,10.69,0,0,0,2.2.1V50.06H55.73c-.27,0-.37-.1-.39-.37s0-.36,0-.55c0-3.21,0-6.41,0-9.62a.42.42,0,0,1,.23-.41,10.54,10.54,0,0,1,6-1.71ZM58,44.13a1,1,0,0,0,.84,1.17,2.09,2.09,0,0,0,.66,0,1,1,0,0,0,1-1V44a1,1,0,0,0-.87-1,2.07,2.07,0,0,0-.5,0A1,1,0,0,0,58,44.13Z"/><path d="M41.55,43h2.1v.24c0,1.83,0,3.67,0,5.5a5.65,5.65,0,0,0,0,.71.76.76,0,0,0,.55.61,3.14,3.14,0,0,0,1.94,0,.85.85,0,0,0,.6-.79c0-.21,0-.4,0-.6,0-1.8,0-3.62,0-5.42V43h2c0,.07,0,.14,0,.21,0,3.17,0,6.34,0,9.51a5.21,5.21,0,0,1-.1,1,1.53,1.53,0,0,1-1.26,1.23,13,13,0,0,1-2.19.11V53.24h1.13a.35.35,0,0,0,.34-.33V51.76l-1.44.1a5.21,5.21,0,0,1-2.07-.27,2.4,2.4,0,0,1-1.68-2.23c0-.32,0-.65,0-1,0-1.73,0-3.46,0-5.19Z"/><path d="M40.41,42.93v8.93H38.33v-.44a4,4,0,0,1-.75.29,5.1,5.1,0,0,1-2.87-.07,2.63,2.63,0,0,1-1.88-2.18,6.54,6.54,0,0,1-.17-1.33,11.21,11.21,0,0,1,.15-3,2.76,2.76,0,0,1,2.74-2.37,6.66,6.66,0,0,1,1.84.11,3.06,3.06,0,0,1,1.27.61v-.6Zm-2.08,4.36h0c0-.24,0-.48,0-.72s0-.48,0-.72a1.22,1.22,0,0,0-1.11-1.31,8.55,8.55,0,0,0-1.24,0,1.18,1.18,0,0,0-1.08.91,4.1,4.1,0,0,0-.1.48c0,.79,0,1.6,0,2.39a3.74,3.74,0,0,0,.17,1,1.08,1.08,0,0,0,.93.81,4.81,4.81,0,0,0,1.2,0,1.35,1.35,0,0,0,1.28-1.47Z"/><path d="M85,76H11a3,3,0,0,1-3-3V23a3,3,0,0,1,3-3H85a3,3,0,0,1,3,3V73A3,3,0,0,1,85,76ZM12,72H84V24H12Z"/></g></svg>