<svg xmlns="http://www.w3.org/2000/svg" viewBox="0 0 24 24"><defs><style>.a{fill:none;}.b{fill:#999;}</style></defs><title>User-Account-Profile_View-24px</title><rect class="a" width="24" height="24"/><path class="b" d="M12,12.8A5.4,5.4,0,0,1,6.6,7.4a5.4,5.4,0,1,1,10.8,0A5.4,5.4,0,0,1,12,12.8ZM12,4A3.4,3.4,0,0,0,8.6,7.4a3.4,3.4,0,1,0,6.8,0A3.4,3.4,0,0,0,12,4Z"/><path class="b" d="M16.5,13.6a.8.8,0,0,0-.8.1,7.9,7.9,0,0,1-3.7,1,7.9,7.9,0,0,1-3.7-1,.8.8,0,0,0-.8-.1l-2.8.8a1.2,1.2,0,0,0-.7,1V21a.9.9,0,0,0,1,1H19a.9.9,0,0,0,1-1V15.4a1.2,1.2,0,0,0-.7-1ZM18,20H6V16.1l1.7-.5a9.3,9.3,0,0,0,8.6,0l1.7.5Z"/></svg>