<svg xmlns="http://www.w3.org/2000/svg" viewBox="0 0 96 96"><defs><style>.cls-1{fill:none;}</style></defs><title>User_Payment_Monochrome_CarteBleue_24px</title><g id="Square"><rect class="cls-1" width="96" height="96"/></g><g id="Card"><path d="M38.43,47.28H48.91a7.55,7.55,0,0,0-2.23-5.57c-1.9-1.63-5.23-2.23-8.22-2.23s-6.54.66-8.44,2.41c-1.67,1.51-2,3.93-2,6.11s.69,4.94,2.49,6.48,5,2,8,2,6-.47,7.92-2,2.54-4.14,2.54-6.49H38.43Z"/><path d="M49.6,48v8.17H64.17a4,4,0,0,0,3.83-4A4.14,4.14,0,0,0,64.17,48Z"/><path d="M67.74,43.54a3.7,3.7,0,0,0-3.69-3.72h0a3.39,3.39,0,0,0-.45,0H49.6v7.48H64.29A3.77,3.77,0,0,0,67.74,43.54Z"/><path d="M85,76H11a3,3,0,0,1-3-3V23a3,3,0,0,1,3-3H85a3,3,0,0,1,3,3V73A3,3,0,0,1,85,76ZM12,72H84V24H12Z"/></g></svg>