<svg xmlns="http://www.w3.org/2000/svg" viewBox="0 0 24 24"><defs><style>.a{fill:none;}.b{fill:#999;}</style></defs><title>User-Contact-Phone-24px</title><rect class="a" width="24" height="24"/><path class="b" d="M16.7,22c-3,0-6.7-1.7-9.9-4.8A17.9,17.9,0,0,1,2.3,9.7C1.6,7,2.1,4.6,3.6,3.1A4.5,4.5,0,0,1,5,2.1,2.3,2.3,0,0,1,7.6,3L9.9,6.1a2,2,0,0,1-.5,2.8L9,9.3a.7.7,0,0,0-.3.6,7.3,7.3,0,0,0,2.1,3.3,8.6,8.6,0,0,0,3.4,2.1.7.7,0,0,0,.5-.3l.4-.4a1.9,1.9,0,0,1,2.7-.5l3.3,2.3a2.5,2.5,0,0,1,.8,2.7h0a7,7,0,0,1-1,1.3A5.7,5.7,0,0,1,16.7,22ZM5.7,4,5,4.5c-1,1-1.3,2.7-.7,4.7a14,14,0,0,0,3.9,6.5c4,4,9.1,5.5,11.3,3.3a1.8,1.8,0,0,0,.5-.7.4.4,0,0,0-.1-.3l-3.2-2.2-.3.4a2.7,2.7,0,0,1-2.6,1,8.8,8.8,0,0,1-4.4-2.6,8.8,8.8,0,0,1-2.6-4.4,2.4,2.4,0,0,1,1-2.5l.4-.4L6,4.1ZM20.9,18.7Z"/></svg>