<svg xmlns="http://www.w3.org/2000/svg" viewBox="0 0 96 96"><defs><style>.cls-1{fill:none;}.cls-2{fill:#f59e00;}</style></defs><title>User_Payment_Monochrome_LM_24px</title><g id="Square"><rect class="cls-1" width="96" height="96"/></g><g id="Card"><path class="cls-2" d="M71,51.38V51h-.17v-.1h.47V51h-.18v.43Zm.91,0V51l-.12.32h-.13L71.49,51v.38h-.14v-.53h.2l.13.33.12-.33H72v.53Z"/><polygon points="29.05 61.42 66.3 61.42 47.67 42.72 29.05 61.42"/><polygon points="28.24 60.59 31.12 57.71 30.16 56.75 28.34 58.56 25.07 55.27 24 56.35 28.24 60.59"/><polyline points="29.35 52.72 30.08 53.45 31.56 51.95 32.42 52.82 30.93 54.32 31.85 55.25 33.71 53.39 34.55 54.26 31.64 57.18 27.41 52.94 30.33 50 31.18 50.87 29.35 52.72"/><path d="M38.9,49.9,36,49.09h0A1.81,1.81,0,0,0,35.62,47a1.75,1.75,0,0,0-2.43.12h0l-2.13,2.15,4.22,4.26,1.09-1.09L32.94,49l.69-.69a.77.77,0,1,1,1.08,1.09l-.63.63,3.67,1Z"/><path d="M36.92,43.19a2.87,2.87,0,0,1,4.3.06A3,3,0,1,1,37,47.53,2.92,2.92,0,0,1,36.92,43.19Zm.83.85c-.67.67-.43,1.5.38,2.33s1.63,1,2.3.35.46-1.48-.37-2.3S38.42,43.37,37.75,44Z"/><polygon points="42.52 40.96 41.74 38.56 42.98 37.29 44.04 41.42 45.7 43.07 44.62 44.16 42.96 42.5 39.03 41.26 40.22 40.05 42.49 40.94 42.52 40.96"/><polygon points="62.1 55.56 66.34 51.32 65.19 50.18 60.95 54.44 62.1 55.56"/><polygon points="45.92 39.34 49.21 37.77 46.79 40.19 47.75 41.18 51.99 36.94 50.65 35.58 47.46 37.14 47.46 37.14 49.05 33.98 47.67 32.58 43.43 36.84 44.42 37.83 46.85 35.38 45.27 38.69 45.92 39.34"/><polyline points="53.26 39.94 52.55 40.67 54.16 42.3 53.3 43.17 51.68 41.53 50.75 42.46 52.73 44.44 51.88 45.3 48.82 42.24 53.06 37.98 56.1 41.06 55.25 41.93 53.26 39.94"/><polygon points="57.26 50.73 60.14 53.63 61.11 52.66 59.31 50.85 62.59 47.55 61.5 46.49 57.26 50.73"/><polygon points="68.78 53.77 67.42 58.28 67.42 58.28 70.34 55.34 71.35 56.35 67.11 60.61 65.78 59.27 66.95 54.63 66.95 54.62 64.05 57.53 63.06 56.55 67.31 52.29 68.78 53.77"/><path d="M56.55,50l.83-2.9h0a1.81,1.81,0,0,0,2.07-.42,1.73,1.73,0,0,0-.12-2.42h0L57.05,42l-4.23,4.26,1.07,1.09,3.43-3.46.83.83a.77.77,0,0,1,.08,1.09.76.76,0,0,1-1.08.08l-.08-.08L56.3,45l-.89,3.8Z"/><path d="M85,76H11a3,3,0,0,1-3-3V23a3,3,0,0,1,3-3H85a3,3,0,0,1,3,3V73A3,3,0,0,1,85,76ZM12,72H84V24H12Z"/></g></svg>