<svg xmlns="http://www.w3.org/2000/svg" viewBox="0 0 96 96"><defs><style>.cls-1{fill:none;}</style></defs><title>User_Payment_Monochrome_AmericanExpress_24px</title><g id="Square"><rect class="cls-1" width="96" height="96"/></g><g id="Card"><path d="M67.9,38.36v1l-.58-1H63.1v1l-.52-1H56.89a5,5,0,0,0-2.47.5v-.5H50.48v.5a2.4,2.4,0,0,0-1.66-.5H34.47l-1,2.22-1-2.22H28v1l-.51-1H23.64l-.07.31-.19.42-2.65,6.2L20,47h4.37l.56-1.36h1.3L26.79,47h5V46l.44,1h2.59l.43-1.07V47H47.58V44.73h.23c.17,0,.22,0,.22.29v2h6.39v-.52a4.85,4.85,0,0,0,2.36.52h2.7l.58-1.38h1.27L61.89,47h5.18V45.67L67.86,47H72V38.36Zm-31.61,7.4V40.93l-2.13,4.83H32.84l-2.13-4.85v4.85h-3l-.58-1.37H24l-.58,1.37H21.87l2.64-6.18h2.21l2.5,5.86V39.58h2.42l1.94,4.2,1.77-4.2h2.46v6.18Zm7.56-4.88H40.39V42h3.37v1.28H40.39v1.22h3.46v1.28H38.92V39.58h4.93Zm6.65,2.53a1.79,1.79,0,0,1,.25,1.14v1.21H49.26V45A1.93,1.93,0,0,0,49,43.78c-.26-.3-.56-.26-1.08-.26h-1.6v2.24H44.88V39.58h3.4a3.4,3.4,0,0,1,1.78.3,1.44,1.44,0,0,1,.76,1.36,1.71,1.71,0,0,1-1,1.65A1.72,1.72,0,0,1,50.5,43.41Zm2.68,2.35H51.67V39.58h1.51Zm17.52,0H68.6l-2.8-4.64v4.64h-3l-.58-1.37H59.13l-.56,1.37H56.84a3.11,3.11,0,0,1-2.14-.68,3.16,3.16,0,0,1-.79-2.37,3,3,0,0,1,.79-2.41A2.6,2.6,0,0,1,57,39.58h1.43v1.33H57a1.4,1.4,0,0,0-1.14.37,1.88,1.88,0,0,0-.42,1.4,2.24,2.24,0,0,0,.4,1.45,1.2,1.2,0,0,0,1,.32h.67l2.08-4.87h2.22l2.51,5.85V39.58h2.25l2.59,4.31V39.58H70.7Z"/><path d="M48.87,41a1.39,1.39,0,0,0-.7-.1H46.35v1.36h1.81a1.41,1.41,0,0,0,.73-.12.64.64,0,0,0,.3-.6A.57.57,0,0,0,48.87,41Z"/><polygon points="59.65 43.1 61.7 43.1 60.69 40.63 59.65 43.1"/><polygon points="24.57 43.1 26.6 43.1 25.58 40.63 24.57 43.1"/><path d="M48,51.52H46.09v1.57H48c.58,0,.93-.28.93-.82S48.56,51.52,48,51.52Z"/><polygon points="35.12 51.52 35.12 52.64 38.36 52.64 38.36 53.9 35.12 53.9 35.12 55.12 38.76 55.12 40.44 53.32 38.83 51.52 35.12 51.52"/><polygon points="44.62 55.86 44.62 50.89 42.35 53.34 44.62 55.86"/><path d="M55.21,51.62a1.39,1.39,0,0,0-.7-.1H52.69V52.9h1.8a1.48,1.48,0,0,0,.72-.12.69.69,0,0,0,.31-.6A.61.61,0,0,0,55.21,51.62Z"/><path d="M76,54.46a3.18,3.18,0,0,0-.42-1.68h.12V49H71.5a3.84,3.84,0,0,0-1.63.33V49H65.81a2.72,2.72,0,0,0-1.75.5V49H56.82v.5a3.73,3.73,0,0,0-2-.5H50.06v.5A3.43,3.43,0,0,0,48,49H42.64l-1.22,1.33L40.28,49h-8v8.62h7.8l1.26-1.33,1.19,1.33H47.4v-2h.48a5.08,5.08,0,0,0,2-.31v2.32h4V55.38h.19c.24,0,.28,0,.28.25v2H66.44a3.65,3.65,0,0,0,1.89-.45v.47h4.12a4.39,4.39,0,0,0,1.75-.3l.26-.1h0A3.08,3.08,0,0,0,76,54.46Zm-28.07-.13H46.09v2.09H43.22L41.4,54.37l-1.89,2.05H33.65v-6.2h6l1.82,2,1.87-2H48c1.17,0,2.48.33,2.48,2.05s-1.28,2.06-2.57,2.06Zm8.91-.28a1.83,1.83,0,0,1,.24,1.14v1.23H55.59v-.77c0-.37,0-.93-.24-1.21s-.54-.28-1.09-.28H52.69v2.26H51.2v-6.2h3.41a3.67,3.67,0,0,1,1.79.3,1.38,1.38,0,0,1,.75,1.38,1.74,1.74,0,0,1-1,1.65,1.63,1.63,0,0,1,.74.5Zm6.07-2.53H59.44v1.12h3.38V53.9H59.44v1.22h3.47V56.4H58V50.22h4.94Zm.89,4.9V55.09h2.87a.85.85,0,0,0,.6-.16.55.55,0,0,0,0-.77l0,0a.9.9,0,0,0-.53-.14c-1.38,0-3.11.06-3.11-1.9a1.84,1.84,0,0,1,2.11-1.86h3v1.33H66a1,1,0,0,0-.6.11.52.52,0,0,0-.21.45.46.46,0,0,0,.32.46,1.88,1.88,0,0,0,.58.07h.78a2.3,2.3,0,0,1,1.7.5,1.63,1.63,0,0,1,.44,1.3c0,1.35-.82,2-2.33,2Zm10.64-.77-.07.08-.1.11-.13.12,0,0-.16.1h0a3,3,0,0,1-.77.25h0l-.23,0H69.59V55.05h2.86a.76.76,0,0,0,.59-.16.5.5,0,0,0,.18-.4.51.51,0,0,0-.2-.37.79.79,0,0,0-.5-.14c-1.4,0-3.14.06-3.14-1.9a1.86,1.86,0,0,1,.46-1.23.46.46,0,0,1,.07-.07l.07-.07.07-.05.09-.07.07,0,.1-.07.07,0,.14-.05h0l.16-.06h0l.2,0h3.5v1.33H71.57a.7.7,0,0,0-.4.1h0a.48.48,0,0,0-.23.46.46.46,0,0,0,.32.45,1.57,1.57,0,0,0,.57.07h.81A3.35,3.35,0,0,1,74,53a1.56,1.56,0,0,1,.28.23s0,0,0,0a1.66,1.66,0,0,1,.42,1.26,2,2,0,0,1-.33,1.12Z"/><path d="M85,76H11a3,3,0,0,1-3-3V23a3,3,0,0,1,3-3H85a3,3,0,0,1,3,3V73A3,3,0,0,1,85,76ZM12,72H84V24H12Z"/></g></svg>