<svg xmlns="http://www.w3.org/2000/svg" viewBox="0 0 96 96"><defs><style>.cls-1{fill:none;}</style></defs><title>User_Payment_Monochrome_Visa_24px</title><g id="Square"><rect class="cls-1" width="96" height="96"/></g><g id="Card"><polygon points="39.9 55.15 42.34 40.89 46.23 40.89 43.79 55.15 39.9 55.15"/><path d="M57.89,41.25a9.88,9.88,0,0,0-3.48-.6c-3.84,0-6.55,1.93-6.57,4.69,0,2.06,1.94,3.19,3.41,3.88s2,1.15,2,1.76c0,1-1.2,1.41-2.33,1.41a8.05,8.05,0,0,1-3.66-.76l-.49-.22-.55,3.19a12.38,12.38,0,0,0,4.34.75c4.08,0,6.72-1.9,6.75-4.86,0-1.63-1-2.87-3.26-3.88-1.35-.65-2.19-1.1-2.17-1.76s.7-1.24,2.21-1.24a7.24,7.24,0,0,1,2.91.55l.34.17.54-3.08"/><path d="M67.86,40.9h-3a1.93,1.93,0,0,0-2,1.19L57.05,55.15h4.08L62,53h5c.12.49.48,2.12.48,2.12H71L67.86,40.89m-4.8,9.18,1.55-4s.32-.84.51-1.37L65.39,46l.9,4.11Z"/><path d="M36.65,40.9l-3.81,9.72-.39-2a11.15,11.15,0,0,0-5.39-6l3.48,12.46h4.12l6.1-14.23H36.65"/><path d="M29.31,40.89H23.05l-.05.3c4.87,1.17,8.11,4,9.45,7.46L31.07,42.1a1.61,1.61,0,0,0-1.76-1.21"/><path d="M85,76H11a3,3,0,0,1-3-3V23a3,3,0,0,1,3-3H85a3,3,0,0,1,3,3V73A3,3,0,0,1,85,76ZM12,72H84V24H12Z"/></g></svg>