<svg xmlns="http://www.w3.org/2000/svg" viewBox="0 0 24 24"><defs><style>.cls-1{fill:none;}.cls-2{fill:#999;}</style></defs><title>User_Contact_Website_24px</title><g id="Square"><rect class="cls-1" width="24" height="24"/></g><g id="Name"><path class="cls-2" d="M12,2A10,10,0,1,0,22,12,10,10,0,0,0,12,2Zm6.25,15a15,15,0,0,0-1.73-.45,16.58,16.58,0,0,0,.59-4H20A8,8,0,0,1,18.25,17ZM4,12.5H6.89a16.58,16.58,0,0,0,.59,4A15,15,0,0,0,5.75,17,8,8,0,0,1,4,12.5ZM5.75,7a15,15,0,0,0,1.73.45,16.58,16.58,0,0,0-.59,4H4A8,8,0,0,1,5.75,7Zm9.43-.34a25.16,25.16,0,0,1-2.68.2V4a8.87,8.87,0,0,1,1.05.12A6.44,6.44,0,0,1,15.18,6.67Zm.15-1.93A7.76,7.76,0,0,1,17.49,6.2c-.4.11-.84.21-1.29.3A9.31,9.31,0,0,0,15.33,4.74ZM11.5,11.5H7.89a15.31,15.31,0,0,1,.6-3.87,24,24,0,0,0,3,.24Zm0,1v3.63a24,24,0,0,0-3,.24,15.31,15.31,0,0,1-.6-3.87Zm1,0h3.61a15.31,15.31,0,0,1-.6,3.87,24,24,0,0,0-3-.24Zm0-1V7.87a24,24,0,0,0,3-.24,15.31,15.31,0,0,1,.6,3.87ZM11.5,4V6.87a25.16,25.16,0,0,1-2.68-.2,6.44,6.44,0,0,1,1.63-2.52A8.87,8.87,0,0,1,11.5,4ZM7.8,6.5c-.45-.09-.89-.19-1.29-.3A7.76,7.76,0,0,1,8.67,4.74,9.31,9.31,0,0,0,7.8,6.5Zm0,11a9.31,9.31,0,0,0,.87,1.76A7.76,7.76,0,0,1,6.51,17.8C6.91,17.69,7.35,17.59,7.8,17.5Zm1-.17a25.16,25.16,0,0,1,2.68-.2V20a8.87,8.87,0,0,1-1.05-.12A6.44,6.44,0,0,1,8.82,17.33ZM12.5,20V17.13a25.16,25.16,0,0,1,2.68.2,6.44,6.44,0,0,1-1.63,2.52A8.87,8.87,0,0,1,12.5,20Zm3.7-2.47c.45.09.89.19,1.29.3a7.76,7.76,0,0,1-2.16,1.46A9.31,9.31,0,0,0,16.2,17.5Zm.91-6a16.58,16.58,0,0,0-.59-4A15,15,0,0,0,18.25,7,8,8,0,0,1,20,11.5Z"/></g></svg>