<svg xmlns="http://www.w3.org/2000/svg" viewBox="0 0 24 24"><defs><style>.cls-1{fill:none;}.cls-2{fill:#999;}</style></defs><title>Various_House_24px</title><g id="Square"><rect class="cls-1" width="24" height="24"/></g><g id="Icon"><path class="cls-2" d="M21,20H20V11.43l.31.3A1,1,0,0,0,21,12a1,1,0,0,0,.73-.31,1,1,0,0,0,0-1.42l-9-8.5a1,1,0,0,0-1.38,0l-9,8.5a1,1,0,1,0,1.38,1.46l.31-.3V20H3a1,1,0,0,0,0,2H21a1,1,0,0,0,0-2ZM10.5,20V16h3v4Zm5,0V15a1,1,0,0,0-1-1h-5a1,1,0,0,0-1,1v5H6V9.54l6-5.66,6,5.66V20Z"/></g></svg>