<svg xmlns="http://www.w3.org/2000/svg" viewBox="0 0 24 24"><defs><style>.cls-1{fill:none;}.cls-2{fill:#999;}</style></defs><title>Various_SafePayment2_24px</title><g id="Square"><rect class="cls-1" width="24" height="24"/></g><g id="Icon"><path class="cls-2" d="M18.5,9.5H17V7A5,5,0,0,0,7,7V9.5H5.5a1,1,0,0,0-1,1V21a1,1,0,0,0,1,1h13a1,1,0,0,0,1-1V10.5A1,1,0,0,0,18.5,9.5ZM9,7a3,3,0,0,1,6,0V9.5H9Zm8.5,13H6.5V11.5h11Z"/><path class="cls-2" d="M14.15,13.52l-2.84,2.79L9.83,15a.5.5,0,1,0-.66.74L11,17.37a.5.5,0,0,0,.34.13.54.54,0,0,0,.35-.14l3.17-3.13a.5.5,0,0,0,0-.71A.51.51,0,0,0,14.15,13.52Z"/></g></svg>