<svg xmlns="http://www.w3.org/2000/svg" viewBox="0 0 24 24"><defs><style>.cls-1{fill:none;}.cls-2{fill:#999;}</style></defs><title>Various_Apartment_24px</title><g id="Square"><rect class="cls-1" width="24" height="24"/></g><g id="Icon"><path class="cls-2" d="M21,20H19V5a1,1,0,0,0-1-1H17V3a1,1,0,0,0-1-1H8A1,1,0,0,0,7,3V4H6A1,1,0,0,0,5,5V20H3a1,1,0,0,0,0,2H21a1,1,0,0,0,0-2ZM10.5,20V16h3v4Zm5,0V15a1,1,0,0,0-1-1h-5a1,1,0,0,0-1,1v5H7V6H17V20Z"/><path class="cls-2" d="M14.5,10.5h-5a1,1,0,0,0,0,2h5a1,1,0,0,0,0-2Z"/><path class="cls-2" d="M14.5,7.5h-5a1,1,0,0,0,0,2h5a1,1,0,0,0,0-2Z"/></g></svg>