<svg xmlns="http://www.w3.org/2000/svg" viewBox="0 0 24 24"><defs><style>.cls-1{fill:none;}.cls-2{fill:#999;}</style></defs><title>Various-Calendar-24px</title><g id="Square"><g id="page10"><rect class="cls-1" width="24" height="24"/></g></g><g id="Grid"><path class="cls-2" d="M17.5,4V3a1,1,0,0,0-2,0V4H13V3a1,1,0,0,0-2,0V4H8.5V3a1,1,0,0,0-2,0V4H3A1,1,0,0,0,2,5V21a1,1,0,0,0,1,1H21a1,1,0,0,0,1-1V5a1,1,0,0,0-1-1ZM6.5,6V7a1,1,0,0,0,2,0V6H11V7a1,1,0,0,0,2,0V6h2.5V7a1,1,0,0,0,2,0V6H20V9.5H4V6ZM4,20V11.5H20V20Z"/></g></svg>