<svg xmlns="http://www.w3.org/2000/svg" viewBox="0 0 24 24"><defs><style>.cls-1{fill:none;}.cls-2{fill:#999;}</style></defs><title>Various_Favorite_24px</title><g id="Square"><rect class="cls-1" width="24" height="24"/></g><g id="Icon"><path class="cls-2" d="M11.28,19.7l-7-7a5.32,5.32,0,0,1-1.58-3A5,5,0,0,1,8.36,4a5.37,5.37,0,0,1,3,1.57l.6.6.6-.6a5.31,5.31,0,0,1,3-1.57,5,5,0,0,1,4.21,1.43h0a5,5,0,0,1,1.43,4.21,5.32,5.32,0,0,1-1.58,3l-7,7A1,1,0,0,1,11.28,19.7ZM7.71,6.05A3,3,0,0,0,5.6,11.13l6.4,6.4,6.4-6.4a3,3,0,0,0,0-4.21h0a3.06,3.06,0,0,0-4.21,0L12,9.11,9.81,6.92A3,3,0,0,0,7.71,6.05Z"/></g></svg>