<svg xmlns="http://www.w3.org/2000/svg" viewBox="0 0 24 24"><defs><style>.a{fill:none;}.b{fill:#999;}</style></defs><title>Various-Favorite-24px</title><rect class="a" width="24" height="24"/><path class="b" d="M11.3,19.5,4.5,12.7a5.5,5.5,0,0,1-1.6-3A5.2,5.2,0,0,1,4.3,5.6,4.9,4.9,0,0,1,8.4,4.2a5.5,5.5,0,0,1,3,1.6l.6.5.6-.5a5.5,5.5,0,0,1,3-1.6,4.9,4.9,0,0,1,4.1,1.4h0a5.2,5.2,0,0,1,1.4,4.1,5.5,5.5,0,0,1-1.6,3l-6.8,6.8A1,1,0,0,1,11.3,19.5ZM7.8,6.2a2.8,2.8,0,0,0-2,.8,2.9,2.9,0,0,0,0,4.2L12,17.4l6.2-6.2a2.9,2.9,0,0,0,0-4.2h0a3,3,0,0,0-4.1,0L12,9.2,9.9,7A3.2,3.2,0,0,0,7.8,6.2Z"/></svg>