<svg xmlns="http://www.w3.org/2000/svg" viewBox="0 0 24 24"><defs><style>.cls-1{fill:none;}.cls-2{fill:#999;}</style></defs><title>Various_Level_24px</title><g id="Square"><rect class="cls-1" width="24" height="24"/></g><g id="Icon"><path class="cls-2" d="M18.67,4.69l-1.93-.31.32-.87L13.82,2.33a5.57,5.57,0,0,0-5.57,1l-1,.88a.5.5,0,0,0,.28.87,19.16,19.16,0,0,1,3.87.74l-.46,1.26a.49.49,0,0,0,.3.64L14.53,9a.5.5,0,0,0,.64-.3l.31-.83,1.68,1a.5.5,0,0,0,.71-.27l1.18-3.22A.5.5,0,0,0,18.67,4.69Z"/><path class="cls-2" d="M9.27,13.73,7,20a1.5,1.5,0,0,0,.9,1.92,1.52,1.52,0,0,0,.51.09,1.5,1.5,0,0,0,1.41-1l2.25-6.26L14,9.51l-2.82-1Z"/></g></svg>