<svg xmlns="http://www.w3.org/2000/svg" viewBox="0 0 24 24"><defs><style>.cls-1{fill:none;}.cls-2{fill:#999;}</style></defs><title>Various_Insulation_24px</title><g id="Square"><rect class="cls-1" width="24" height="24"/></g><g id="Icon"><path class="cls-2" d="M8.25,16.7a3.05,3.05,0,0,0,5,0,3.05,3.05,0,0,0,5,0,3,3,0,0,0,2.5,1.3.5.5,0,0,0,0-1,2,2,0,0,1-2-1.89,6,6,0,0,1,.83-2.21,11.71,11.71,0,0,0,1.67-4,3,3,0,0,0-3-2.89,3,3,0,0,0-2.5,1.3,3.05,3.05,0,0,0-5,0,3.05,3.05,0,0,0-5,0A3,3,0,0,0,3.25,6a.5.5,0,0,0,0,1,2,2,0,0,1,2,1.89,6.08,6.08,0,0,1-.85,2.23,11.73,11.73,0,0,0-1.65,4,3,3,0,0,0,3,2.89A3,3,0,0,0,8.25,16.7Zm2.5.3a2,2,0,0,1-2-1.89,7.12,7.12,0,0,1,.84-2.23c.23-.4.47-.84.7-1.29l.46-.79.46.79c.23.45.47.89.7,1.29a7.12,7.12,0,0,1,.84,2.23A2,2,0,0,1,10.75,17Zm5,0a2,2,0,0,1-2-1.89,7.12,7.12,0,0,1,.84-2.23c.23-.4.47-.84.7-1.29l.46-.79.46.79c.23.45.47.89.7,1.29a7.12,7.12,0,0,1,.84,2.23A2,2,0,0,1,15.75,17Zm2.5-10a2,2,0,0,1,2,1.89,11.76,11.76,0,0,1-1.53,3.51h0c-.15.27-.31.54-.46.79l-.46-.79c-.23-.45-.47-.89-.7-1.29a7.12,7.12,0,0,1-.84-2.23A2,2,0,0,1,18.25,7Zm-5,0a2,2,0,0,1,2,1.89,7.12,7.12,0,0,1-.84,2.23c-.23.4-.47.84-.7,1.29l-.46.79-.46-.79c-.23-.45-.47-.89-.7-1.29a7.12,7.12,0,0,1-.84-2.23A2,2,0,0,1,13.25,7Zm-5,0a2,2,0,0,1,2,1.89,7.12,7.12,0,0,1-.84,2.23c-.23.4-.47.84-.7,1.29l-.46.79-.46-.79c-.23-.45-.47-.89-.7-1.29a7.12,7.12,0,0,1-.84-2.23A2,2,0,0,1,8.25,7ZM5.75,17a2,2,0,0,1-2-1.89A10.92,10.92,0,0,1,5.17,11.8l0,0,0-.11.5-.86.46.79c.23.45.47.89.7,1.29a7.12,7.12,0,0,1,.84,2.23A2,2,0,0,1,5.75,17Z"/><path class="cls-2" d="M13.25,6H21a1,1,0,0,0,0-2H3A1,1,0,0,0,3,6H13.25Z"/><path class="cls-2" d="M21,18H3a1,1,0,0,0,0,2H21a1,1,0,0,0,0-2Z"/></g></svg>