<svg xmlns="http://www.w3.org/2000/svg" viewBox="0 0 24 24"><defs><style>.a{fill:none;}.b{fill:#999;}</style></defs><title>Various-PaintCan-24px</title><rect class="a" width="24" height="24"/><path class="b" d="M22,6.9a11,11,0,0,0-.2-1.8,1.9,1.9,0,0,0-1.9-1.6H19V3a.9.9,0,0,0-1-1H6A.9.9,0,0,0,5,3v.5H4.1A1.9,1.9,0,0,0,2.2,5.1,11,11,0,0,0,2,6.9,10.1,10.1,0,0,0,5,14v7a.9.9,0,0,0,1,1H18a.9.9,0,0,0,1-1V14A10.1,10.1,0,0,0,22,6.9ZM7,7H8V9.5a1.5,1.5,0,0,0,3,0V7h6v6.1a8,8,0,0,1-5,1.8,8,8,0,0,1-5-1.8ZM17,4V6H10V9.5a.5.5,0,0,1-1,0V6H7V4ZM4,6.9a6.1,6.1,0,0,1,.1-1.4H5v5.3A8.7,8.7,0,0,1,4,6.9ZM17,20H7V15.5a9.6,9.6,0,0,0,10,0ZM19,5.5h.9A7.6,7.6,0,0,1,20,6.9a8.7,8.7,0,0,1-1,3.9Z"/></svg>