<svg xmlns="http://www.w3.org/2000/svg" viewBox="0 0 48 48">
  <path fill-rule="evenodd" d="M29.993 6.31a8 8 0 0 1 8.322.8 1.5 1.5 0 0 0 1.805-2.395A11 11 0 0 0 23.463 9H21a1.5 1.5 0 0 0 0 3h1.603a11.006 11.006 0 0 0 0 3H21a1.5 1.5 0 0 0 0 3h2.463a10.99 10.99 0 0 0 4.873 5.212 11 11 0 0 0 11.473-.701 1.5 1.5 0 1 0-1.72-2.458A8 8 0 0 1 26.886 18H33a1.5 1.5 0 0 0 0-3h-7.358a8 8 0 0 1 0-3H33a1.5 1.5 0 0 0 0-3h-6.114a8 8 0 0 1 3.107-2.69ZM7.5 23a1.5 1.5 0 0 0-3 0v18a1.5 1.5 0 0 0 3 0v-.994c.424.267.9.544 1.426.821C11.476 42.17 15.214 43.5 20 43.5c3.621 0 7.763-.907 11.442-1.99 3.7-1.089 7.036-2.388 9.076-3.235 1.85-.768 2.982-2.574 2.982-4.522 0-3.37-3.262-5.78-6.484-4.789l-6.569 2.021c-.374-2.517-2.68-4.324-5.224-4.178-2.742.158-6.338.21-8.945-.281-1.69-.319-3.842-1.031-5.623-1.69a74.249 74.249 0 0 1-2.836-1.118l-.17-.072-.042-.018-.01-.004-.002-.001a1.574 1.574 0 0 0-.095-.037V23Zm.336 13.592c-.127-.098-.24-.188-.336-.267V26.83c.554.224 1.287.512 2.114.819 1.81.669 4.157 1.457 6.108 1.824 2.995.564 6.907.487 9.673.328 1.157-.067 2.105.841 2.105 1.903 0 .991-.804 1.795-1.795 1.795H20a1.5 1.5 0 0 0 0 3h5.705a4.79 4.79 0 0 0 3.998-2.147l8.195-2.522a2.01 2.01 0 0 1 2.602 1.922c0 .792-.453 1.47-1.133 1.751-1.982.824-5.21 2.08-8.772 3.128C27.011 39.687 23.193 40.5 20 40.5c-4.214 0-7.476-1.17-9.676-2.328a17.378 17.378 0 0 1-2.488-1.58Z"/>
</svg>
