<svg xmlns="http://www.w3.org/2000/svg" viewBox="0 0 48 48">
  <path fill-rule="evenodd" d="M12.535 8.5a2.5 2.5 0 0 0-2.08 1.113l-5.283 7.925c-.08.12-.15.246-.207.376a1.498 1.498 0 0 0 .138 2.289c.073.122.157.238.251.348l16.748 19.54a2.5 2.5 0 0 0 3.796 0l16.747-19.54a2.49 2.49 0 0 0 .25-.348 1.497 1.497 0 0 0 .139-2.29 2.51 2.51 0 0 0-.207-.375l-5.282-7.925a2.5 2.5 0 0 0-2.08-1.113h-22.93Zm26.662 9-4-6H30.76l2.667 6h5.769Zm-7.958 0H16.761l2.667-6h9.144l2.667 6Zm.03 3L24 37.461 16.73 20.5h14.54Zm-3.117 12.351L33.445 20.5h5.293L28.152 32.851ZM14.572 17.5l2.667-6h-4.436l-4 6h5.77Zm-5.31 3h5.293l5.294 12.352L9.26 20.5Z"/>
</svg>
