<svg xmlns="http://www.w3.org/2000/svg" viewBox="0 0 48 48">
  <path fill-rule="evenodd" d="M8.5 10A1.5 1.5 0 0 1 10 8.5h28a1.5 1.5 0 0 1 1.5 1.5v18a1.5 1.5 0 0 1-1.5 1.5H10A1.5 1.5 0 0 1 8.5 28V10Zm3 7v9.5h25V17h-25Zm0-2h25v-3.5h-25V15Zm2.5 5a1 1 0 0 1 1-1h4a1 1 0 1 1 0 2h-4a1 1 0 0 1-1-1Zm8 20a2 2 0 1 1 4 0 2 2 0 0 1-4 0Zm5.874-1a4.002 4.002 0 0 0-7.748 0h-8.252A4.002 4.002 0 0 0 4 40a4 4 0 0 0 7.874 1h8.252a4.002 4.002 0 0 0 7.748 0h8.252A4.002 4.002 0 0 0 44 40a4 4 0 0 0-7.874-1h-8.252ZM38 40a2 2 0 1 0 4 0 2 2 0 0 0-4 0Z"/>
</svg>
