<svg xmlns="http://www.w3.org/2000/svg" viewBox="0 0 48 48">
  <path fill-rule="evenodd" d="m29.498 12.735 1.982.482.99.242 1.983.482-.82 1.759-.473 1.014-.82 1.759-1.644-1.208-.822-.604-1.643-1.208-.423.907-.87 1.866-.398.853-1.813-.846-.906-.422-1.813-.845.423-.907.845-1.812.423-.907a34.456 34.456 0 0 0-2.781-1.134 53.575 53.575 0 0 0-1.778-.607 63.432 63.432 0 0 0-4.02-1.156c.894-.944 2.436-1.6 4.117-1.96 2.407-.513 5.099-.415 6.575.326l1.813.845 2.356 1.099.363.169-.846 1.813Zm-.239 7.611.144-.308 1.16.852a3 3 0 0 0 4.495-1.15l2.114-4.53a3 3 0 0 0-2.01-4.184l-1.838-.447a2.998 2.998 0 0 0-1.712-2.376l-4.498-2.097c-2.04-1.006-4.86-1.095-7.17-.787-2.31.309-5.201 1.16-7.003 3.062a3 3 0 0 0 1.468 4.977l.008.002.035.008.147.037a64.149 64.149 0 0 1 2.58.723c.77.234 1.617.507 2.465.809l-.354.76a2.994 2.994 0 0 0 .036 2.611l-.017.035-.006.011-.005.012L10.423 37.4a4.5 4.5 0 1 0 8.156 3.803l8.872-19.024.139-.289a2.99 2.99 0 0 0 1.669-1.543Zm-4.77 1.086-2.72-1.268L16.25 32h3.31l4.928-10.568Z"/>
</svg>
