<svg xmlns="http://www.w3.org/2000/svg" viewBox="0 0 48 48">
  <g clip-path="url(#a)">
    <path fill-rule="evenodd" d="M6 4.5A1.5 1.5 0 0 0 4.5 6v8A1.5 1.5 0 0 0 6 15.5h8a1.5 1.5 0 0 0 1.5-1.5V6A1.5 1.5 0 0 0 14 4.5H6Zm14 0A1.5 1.5 0 0 0 18.5 6v8a1.5 1.5 0 0 0 1.5 1.5h8a1.5 1.5 0 0 0 1.5-1.5V6A1.5 1.5 0 0 0 28 4.5h-8Zm14 0A1.5 1.5 0 0 0 32.5 6v8a1.5 1.5 0 0 0 1.5 1.5h8a1.5 1.5 0 0 0 1.5-1.5V6A1.5 1.5 0 0 0 42 4.5h-8Zm-28 14A1.5 1.5 0 0 0 4.5 20v8A1.5 1.5 0 0 0 6 29.5h8a1.5 1.5 0 0 0 1.5-1.5v-8a1.5 1.5 0 0 0-1.5-1.5H6Zm14 0a1.5 1.5 0 0 0-1.5 1.5v8a1.5 1.5 0 0 0 1.5 1.5h8a1.5 1.5 0 0 0 1.5-1.5v-8a1.5 1.5 0 0 0-1.5-1.5h-8Zm14 0a1.5 1.5 0 0 0-1.5 1.5v8a1.5 1.5 0 0 0 1.5 1.5h8a1.5 1.5 0 0 0 1.5-1.5v-8a1.5 1.5 0 0 0-1.5-1.5h-8Zm-28 14A1.5 1.5 0 0 0 4.5 34v8A1.5 1.5 0 0 0 6 43.5h8a1.5 1.5 0 0 0 1.5-1.5v-8a1.5 1.5 0 0 0-1.5-1.5H6Zm14 0a1.5 1.5 0 0 0-1.5 1.5v8a1.5 1.5 0 0 0 1.5 1.5h8a1.5 1.5 0 0 0 1.5-1.5v-8a1.5 1.5 0 0 0-1.5-1.5h-8Zm14 0a1.5 1.5 0 0 0-1.5 1.5v8a1.5 1.5 0 0 0 1.5 1.5h8a1.5 1.5 0 0 0 1.5-1.5v-8a1.5 1.5 0 0 0-1.5-1.5h-8Z"/>
  </g>
  <defs>
    <clipPath id="a">
      <rect width="48" height="48" fill="#fff"/>
    </clipPath>
  </defs>
</svg>
