<svg xmlns="http://www.w3.org/2000/svg" viewBox="0 0 48 48">
  <g clip-path="url(#a)">
    <path fill-rule="evenodd" d="M6 4.5A1.5 1.5 0 0 0 4.5 6v14A1.5 1.5 0 0 0 6 21.5h14a1.5 1.5 0 0 0 1.5-1.5V6A1.5 1.5 0 0 0 20 4.5H6Zm22 2a1.5 1.5 0 0 0 0 3h14a1.5 1.5 0 0 0 0-3H28Zm0 10a1.5 1.5 0 0 0 0 3h14a1.5 1.5 0 0 0 0-3H28Zm-22 10A1.5 1.5 0 0 0 4.5 28v14A1.5 1.5 0 0 0 6 43.5h14a1.5 1.5 0 0 0 1.5-1.5V28a1.5 1.5 0 0 0-1.5-1.5H6Zm22 2a1.5 1.5 0 0 0 0 3h14a1.5 1.5 0 0 0 0-3H28Zm0 10a1.5 1.5 0 0 0 0 3h14a1.5 1.5 0 0 0 0-3H28Z"/>
  </g>
  <defs>
    <clipPath id="a">
      <rect width="48" height="48" fill="#fff"/>
    </clipPath>
  </defs>
</svg>
