<svg xmlns="http://www.w3.org/2000/svg" viewBox="0 0 48 48">
  <path fill-rule="evenodd" d="M13.635 16.458C14.447 11.788 18.818 7.5 24 7.5c4.273 0 7.994 2.915 9.623 6.556C31.94 15.808 29.968 16.5 28 16.5c-2.242 0-4.536-.902-6.4-2.3l-.959-.719-.535 1.072c-.43.86-.942 1.403-1.476 1.747-.537.346-1.15.526-1.832.578-.996.077-2.08-.12-3.163-.42Zm-.137 2.034c-.026 2.75-.274 4.635-.877 5.992a5.087 5.087 0 0 1-1.61 2.052c.52.638 1.291 1.265 2.17 1.823.526.336 1.036.612 1.451.82.17-.316.389-.614.66-.886l.456-.455.603.226 7.645 2.867 7.654-2.867.603-.226.455.455c.272.272.49.57.66.887.415-.209.925-.485 1.452-.82.878-.56 1.65-1.186 2.169-1.824a5.087 5.087 0 0 1-1.61-2.052C34.741 23.048 34.5 21.02 34.5 18c0-.616-.066-1.233-.192-1.841a9.738 9.738 0 0 1-2.414 1.534A8 8 0 1 1 16 18.887c-.853-.036-1.703-.192-2.503-.395ZM33.72 32.44a6.08 6.08 0 0 1-2.099 3.344c-2.137 1.694-5.202 1.714-7.165-.249a5.035 5.035 0 0 1-.461-.529 5.032 5.032 0 0 1-.46.53c-1.964 1.963-5.022 1.938-7.157.248-1.066-.844-1.806-2.075-2.1-3.344a19.609 19.609 0 0 0-2.833-.005c-.914.067-1.834.214-2.62.48-.797.269-1.337.62-1.646 1.012-.303.386-.518.981-.604 1.8-.085.809-.03 1.715.095 2.597a19.2 19.2 0 0 0 .448 2.176h33.764c.153-.578.33-1.345.447-2.176.126-.882.18-1.788.096-2.596-.086-.82-.301-1.416-.604-1.8-.31-.394-.85-.744-1.646-1.013-.787-.266-1.706-.413-2.62-.48a19.609 19.609 0 0 0-2.835.005ZM18.007 18.707a6 6 0 1 0 11.953-.4A9.887 9.887 0 0 1 28 18.5c-2.38 0-4.72-.817-6.69-2.07a5.807 5.807 0 0 1-1.596 1.551 5.546 5.546 0 0 1-1.707.726ZM9.829 29.602c-.949-.828-1.834-1.875-2.252-3.128l-.411-1.234 1.163-.582c.88-.44 1.259-.737 1.55-1.392.362-.814.621-2.285.621-5.266 0-6.778 5.994-13.5 13.5-13.5S37.5 11.222 37.5 18c0 2.98.26 4.452.62 5.266.292.655.672.953 1.55 1.392l1.164.582-.411 1.234c-.418 1.253-1.303 2.3-2.251 3.128.654.104 1.322.254 1.964.47 1.098.372 2.24.979 3.044 2 .783.997 1.111 2.217 1.23 3.344.118 1.138.036 2.31-.11 3.332a22.267 22.267 0 0 1-.852 3.654l-.021.063-.006.019-.002.006-.001.002L42 42l1.416.493A1.5 1.5 0 0 1 42 43.5H6a1.5 1.5 0 0 1-1.417-1.007L6.001 42l-1.417.493v-.001l-.001-.002-.002-.006-.006-.019-.022-.063-.073-.227a22.282 22.282 0 0 1-.78-3.428c-.145-1.022-.227-2.193-.108-3.331.118-1.127.446-2.347 1.23-3.343.803-1.022 1.945-1.63 3.044-2 .64-.217 1.309-.367 1.963-.47Zm6.528.6c-.217.448-.279 1.013-.159 1.645.17.895.689 1.788 1.423 2.369 1.436 1.137 3.34 1.066 4.5-.095.416-.416.684-.922.805-1.456l-6.569-2.463Zm9.514 3.92a2.984 2.984 0 0 1-.805-1.456l6.577-2.464c.217.447.279 1.012.16 1.644a4.071 4.071 0 0 1-1.424 2.37c-1.437 1.14-3.347 1.066-4.508-.095Z"/>
</svg>
