<svg xmlns="http://www.w3.org/2000/svg" viewBox="0 0 48 48">
      <g id="Square"> </g>
  <path fill-rule="evenodd" d="M10.629 9.012a1.5 1.5 0 0 0-2.258 0l-3.5 4A1.5 1.5 0 0 0 4.5 14v24A1.5 1.5 0 0 0 6 39.5h7a1.5 1.5 0 0 0 1.5-1.5v-3H19v3a1.5 1.5 0 0 0 1.5 1.5h7A1.5 1.5 0 0 0 29 38v-3h4.5v3a1.5 1.5 0 0 0 1.5 1.5h7a1.5 1.5 0 0 0 1.5-1.5V14a1.5 1.5 0 0 0-.371-.988l-3.5-4a1.5 1.5 0 0 0-2.258 0l-3.5 4A1.5 1.5 0 0 0 33.5 14v5H29v-5a1.5 1.5 0 0 0-.371-.988l-3.5-4a1.5 1.5 0 0 0-2.258 0l-3.5 4A1.5 1.5 0 0 0 19 14v5h-4.5v-5a1.5 1.5 0 0 0-.371-.988l-3.5-4ZM14.5 21v2H19v-2h-4.5Zm4.5 4h-4.5v4H19v-4Zm0 6h-4.5v2H19v-2Zm10-10v2h4.5v-2H29Zm4.5 4H29v4h4.5v-4Zm0 6H29v2h4.5v-2Zm-26 5.5V14.564l2-2.286 2 2.286V36.5h-4Zm14.5 0V14.564l2-2.286 2 2.286V36.5h-4Zm14.5-21.936V36.5h4V14.564l-2-2.286-2 2.286Z"/>
</svg>
