<svg xmlns="http://www.w3.org/2000/svg" viewBox="0 0 48 48">
      <g id="Square"> </g>
  <path fill-rule="evenodd" d="M7.5 6A1.5 1.5 0 0 1 9 4.5h20A1.5 1.5 0 0 1 30.5 6v12.5H39a1.5 1.5 0 0 1 1.5 1.5v20.5H42a1.5 1.5 0 0 1 0 3H6a1.5 1.5 0 0 1 0-3h1.5V6Zm20 1.5v33h-3V34a1.5 1.5 0 0 0-1.5-1.5h-7a1.5 1.5 0 0 0-1.5 1.5v6.5h-4v-33h17Zm10 14h-7v19h7v-19Zm-16 19v-5h-4v5h4Zm-6.5-29a1.5 1.5 0 0 0 0 3h1a1.5 1.5 0 0 0 0-3h-1Zm7 0a1.5 1.5 0 0 0 0 3h1a1.5 1.5 0 0 0 0-3h-1Zm-7 6a1.5 1.5 0 0 0 0 3h1a1.5 1.5 0 0 0 0-3h-1Zm7 0a1.5 1.5 0 0 0 0 3h1a1.5 1.5 0 0 0 0-3h-1Zm-7 7a1.5 1.5 0 0 0 0 3h1a1.5 1.5 0 0 0 0-3h-1Zm7 0a1.5 1.5 0 0 0 0 3h1a1.5 1.5 0 0 0 0-3h-1Z"/>
</svg>
