<svg xmlns="http://www.w3.org/2000/svg" xmlns:xlink="http://www.w3.org/1999/xlink" viewBox="0 0 32 32"><defs><style>.cls-1{fill:none;}.cls-2{fill:url(#Dégradé_sans_nom_52);}.cls-3{fill:#fff;}</style><linearGradient id="Dégradé_sans_nom_52" x1="956.24" y1="-2109.73" x2="959.14" y2="-2106.8" gradientTransform="matrix(8.46, 0, 0, -5.84, -8088.82, -12291.64)" gradientUnits="userSpaceOnUse"><stop offset="0" stop-color="#109a72"/><stop offset="0.3" stop-color="#008a8d"/><stop offset="0.69" stop-color="#01679b"/><stop offset="1" stop-color="#03376f"/></linearGradient></defs><title>Payment_Colors_CB_32px</title><g id="Square"><rect class="cls-1" width="32" height="32"/></g><g id="Icon"><rect class="cls-2" x="3" y="7" width="26" height="18" rx="2"/><path class="cls-3" d="M12.17,15.71h4.19a3,3,0,0,0-.89-2.23,5.34,5.34,0,0,0-3.29-.89,5.32,5.32,0,0,0-3.37,1A3.19,3.19,0,0,0,8,16a3.5,3.5,0,0,0,1,2.59,5.12,5.12,0,0,0,3.18.82,5.12,5.12,0,0,0,3.17-.81,3.31,3.31,0,0,0,1-2.6h-4.2Z"/><path class="cls-3" d="M16.64,16v3.27h5.83A1.61,1.61,0,0,0,24,17.65,1.67,1.67,0,0,0,22.47,16Z"/><path class="cls-3" d="M23.9,14.22a1.49,1.49,0,0,0-1.48-1.49H16.64v3h5.88A1.52,1.52,0,0,0,23.9,14.22Z"/></g></svg>