<svg width="32" height="32" viewBox="0 0 32 32" fill="none" xmlns="http://www.w3.org/2000/svg">
  <g id="Square"> </g>
  <g id="Icon">
<path fill-rule="evenodd" clip-rule="evenodd" d="M25.4274 16.0013C25.4274 21.2073 21.2071 25.4277 16.0011 25.4277C10.795 25.4277 6.57471 21.2073 6.57471 16.0013C6.57471 10.7953 10.795 6.57495 16.0011 6.57495C21.2071 6.57495 25.4274 10.7953 25.4274 16.0013ZM13.4239 18.8811C12.8773 18.9032 12.3373 18.755 11.8785 18.457C11.48 18.1845 11.1916 17.7791 11.0648 17.3134L12.3424 16.9388C12.4127 17.156 12.5532 17.3436 12.7417 17.4722C12.9493 17.6031 13.191 17.6696 13.4363 17.6632C13.6569 17.6691 13.8726 17.598 14.0465 17.4622C14.2132 17.3262 14.3053 17.119 14.2946 16.9041C14.3052 16.6875 14.2041 16.4806 14.0267 16.3559C13.8239 16.2203 13.5833 16.1526 13.3396 16.1624H12.64V15.056H13.3148C13.5426 15.0705 13.769 15.0104 13.9597 14.8849C14.1206 14.7452 14.2038 14.5363 14.183 14.3242C14.1948 14.1328 14.1123 13.9476 13.9622 13.8281C13.8096 13.7067 13.6188 13.6434 13.4239 13.6495C13.0142 13.6353 12.6529 13.9162 12.5656 14.3168L11.236 13.9398C11.2874 13.7413 11.3712 13.5527 11.4841 13.3816C11.6052 13.2006 11.7533 13.0392 11.9231 12.9029C12.1196 12.7476 12.3434 12.6307 12.583 12.558C12.8616 12.4714 13.152 12.4287 13.4438 12.4315C14.0036 12.4062 14.5559 12.5677 15.014 12.8905C15.4083 13.1783 15.6341 13.6429 15.6168 14.1308C15.6267 14.422 15.5517 14.7099 15.401 14.9593C15.2583 15.1878 15.0436 15.3624 14.7907 15.4554C15.0637 15.5509 15.298 15.733 15.458 15.9739C15.6419 16.2547 15.7331 16.5861 15.7185 16.9215C15.736 17.4662 15.5018 17.9886 15.0834 18.3379C14.6144 18.7141 14.0247 18.9072 13.4239 18.8811ZM21.1625 13.9646L19.493 16.2989L21.1377 18.7621H19.5153L18.6521 17.4896L17.8756 18.7671H16.3153L17.9104 16.3832L16.3153 13.9646H17.9501L18.7711 15.2173L19.5997 13.9646H21.1625Z" fill="#81BC00"/>
</g>
</svg>
