<svg xmlns="http://www.w3.org/2000/svg" viewBox="0 0 32 32"><defs><style>.cls-1{fill:none;}.cls-2{fill:#81bc00;}.cls-3{fill:#fff;}</style></defs><title>Payment_Colors_OneyX3_32px</title><g id="Square"><rect class="cls-1" width="32" height="32"/></g><g id="Icon"><circle class="cls-2" cx="16" cy="16" r="9.5"/><path class="cls-3" d="M15.91,14,14.23,16.3l1.65,2.48H14.24l-.86-1.28-.78,1.28H11l1.61-2.4L11,14h1.65l.84,1.26L14.34,14Z"/><path class="cls-3" d="M18.69,18.9a2.71,2.71,0,0,1-1.56-.42,2.07,2.07,0,0,1-.82-1.16L17.6,17a1.06,1.06,0,0,0,.4.53,1.26,1.26,0,0,0,.71.2.92.92,0,0,0,.61-.21.66.66,0,0,0,.25-.56.63.63,0,0,0-.27-.55,1.15,1.15,0,0,0-.69-.2H17.9V15.05h.68a1.09,1.09,0,0,0,.65-.17.68.68,0,0,0,.22-.57.59.59,0,0,0-.22-.49.84.84,0,0,0-.54-.18.86.86,0,0,0-.87.67l-1.34-.38a1.66,1.66,0,0,1,.25-.56,2,2,0,0,1,.44-.48,1.85,1.85,0,0,1,.67-.35,2.65,2.65,0,0,1,.87-.13,2.53,2.53,0,0,1,1.58.46,1.5,1.5,0,0,1,.6,1.25,1.59,1.59,0,0,1-.21.84,1.25,1.25,0,0,1-.62.48h0a1.3,1.3,0,0,1,.67.52,1.6,1.6,0,0,1,.28,1,1.8,1.8,0,0,1-.64,1.42A2.48,2.48,0,0,1,18.69,18.9Z"/></g></svg>