<svg xmlns="http://www.w3.org/2000/svg" xmlns:xlink="http://www.w3.org/1999/xlink" viewBox="0 0 32 32"><defs><style>.cls-1{fill:none;}.cls-2{fill:url(#Dégradé_sans_nom_196);}.cls-3{fill:#d3d2d6;}.cls-4{fill:#179bd7;}.cls-5{fill:#253b80;}.cls-6{fill:#222d65;}</style><linearGradient id="Dégradé_sans_nom_196" x1="956.24" y1="-2203.44" x2="959.14" y2="-2200.5" gradientTransform="matrix(8.46, 0, 0, -5.84, -8088.82, -12838.66)" gradientUnits="userSpaceOnUse"><stop offset="0" stop-color="#fff"/><stop offset="0.4" stop-color="#f9f9f9"/><stop offset="0.93" stop-color="#e9e9e9"/><stop offset="1" stop-color="#e6e6e6"/></linearGradient></defs><title>Payment_Colors_Paypal_32px</title><g id="Square"><rect class="cls-1" width="32" height="32"/></g><g id="Icon"><rect class="cls-2" x="3" y="7" width="26" height="18" rx="2"/><path class="cls-3" d="M27,7.5A1.5,1.5,0,0,1,28.5,9V23A1.5,1.5,0,0,1,27,24.5H5A1.5,1.5,0,0,1,3.5,23V9A1.5,1.5,0,0,1,5,7.5H27M27,7H5A2,2,0,0,0,3,9V23a2,2,0,0,0,2,2H27a2,2,0,0,0,2-2V9a2,2,0,0,0-2-2Z"/><path class="cls-4" d="M18.07,19h-.93a.13.13,0,0,0-.13.11l-.38,2.39c0,.05,0,.09.07.09h.49a.1.1,0,0,0,.09-.07l.1-.68a.13.13,0,0,1,.13-.11h.3a1,1,0,0,0,1.06-.89.73.73,0,0,0-.12-.6A.85.85,0,0,0,18.07,19Zm.11.87c-.05.34-.31.34-.56.34h-.14l.1-.63a.09.09,0,0,1,.08-.06h.06c.17,0,.33,0,.41.1a.28.28,0,0,1,.05.25Z"/><path class="cls-5" d="M11.41,19h-.93a.13.13,0,0,0-.12.11L10,21.49a.08.08,0,0,0,.06.09h.46a.13.13,0,0,0,.13-.11l.1-.64a.12.12,0,0,1,.13-.11h.29a1,1,0,0,0,1.07-.89.73.73,0,0,0-.12-.6A.87.87,0,0,0,11.41,19Zm.11.87c0,.34-.3.34-.55.34h-.14l.1-.63s0-.06.07-.06h.07a.54.54,0,0,1,.41.1.28.28,0,0,1,0,.25Z"/><path class="cls-5" d="M14.21,19.85h-.45a.08.08,0,0,0-.08.07l0,.12,0,0a.64.64,0,0,0-.53-.19,1,1,0,0,0-1,.9.83.83,0,0,0,.16.68.7.7,0,0,0,.56.23.87.87,0,0,0,.62-.25l0,.12a.08.08,0,0,0,.07.09h.41a.12.12,0,0,0,.13-.11l.24-1.53a.08.08,0,0,0-.06-.09Zm-.63.87a.49.49,0,0,1-.5.43.35.35,0,0,1-.38-.31.25.25,0,0,1,0-.12.49.49,0,0,1,.5-.43.35.35,0,0,1,.3.12.38.38,0,0,1,.07.31Z"/><path class="cls-4" d="M20.86,19.85h-.45a.08.08,0,0,0-.07.07l0,.12,0,0a.65.65,0,0,0-.53-.19,1,1,0,0,0-1,.9.8.8,0,0,0,.17.68.69.69,0,0,0,.56.23.9.9,0,0,0,.62-.25l0,.12a.07.07,0,0,0,.06.09h.42a.12.12,0,0,0,.12-.11l.24-1.53a.08.08,0,0,0-.06-.09Zm-.62.87a.51.51,0,0,1-.51.43.39.39,0,0,1-.3-.12.41.41,0,0,1-.07-.32.51.51,0,0,1,.5-.43.37.37,0,0,1,.38.44Z"/><path class="cls-5" d="M16.58,19.85h-.44a.11.11,0,0,0-.11.06l-.62.91L15.14,20a.12.12,0,0,0-.12-.1h-.45a.08.08,0,0,0-.07.08v0l.5,1.45-.47.66a.07.07,0,0,0,0,.1l0,0H15a.11.11,0,0,0,.11-.06L16.65,20a.09.09,0,0,0,0-.11Z"/><path class="cls-4" d="M21.39,19.06,21,21.49a.08.08,0,0,0,.07.09h.4a.13.13,0,0,0,.13-.11L22,19.08a.08.08,0,0,0-.06-.09h-.44A.08.08,0,0,0,21.39,19.06Z"/><path class="cls-4" d="M18.94,12.28a.77.77,0,0,1,0,.15A2.61,2.61,0,0,1,16,14.69h-.72A.37.37,0,0,0,15,15l-.37,2.37-.1.67a.19.19,0,0,0,.18.22H16a.3.3,0,0,0,.31-.26v-.07l.25-1.54v-.09a.32.32,0,0,1,.31-.26H17a2.29,2.29,0,0,0,2.53-2,1.7,1.7,0,0,0-.26-1.49A1.45,1.45,0,0,0,18.94,12.28Z"/><path class="cls-6" d="M18.6,12.15l-.15,0-.17,0a4.31,4.31,0,0,0-.64,0h-2a.35.35,0,0,0-.14,0,.31.31,0,0,0-.17.23L15,14.92,15,15a.37.37,0,0,1,.36-.3H16a2.61,2.61,0,0,0,2.89-2.26.77.77,0,0,0,0-.15,1.69,1.69,0,0,0-.27-.11Z"/><path class="cls-5" d="M15.38,12.29a.31.31,0,0,1,.17-.23.35.35,0,0,1,.14,0h2a3.26,3.26,0,0,1,.64.05.51.51,0,0,1,.17,0l.15,0,.07,0a1.69,1.69,0,0,1,.27.11,1.61,1.61,0,0,0-.33-1.43,2.48,2.48,0,0,0-1.9-.6H14.22a.36.36,0,0,0-.35.3l-1,6.57a.21.21,0,0,0,.21.24h1.53L15,14.92Z"/></g></svg>