<svg xmlns="http://www.w3.org/2000/svg" xmlns:xlink="http://www.w3.org/1999/xlink" viewBox="0 0 32 32"><defs><style>.cls-1{fill:none;}.cls-2{fill:url(#Dégradé_sans_nom_208);}.cls-3{fill:#fff;}.cls-4{fill:#ff5f00;}.cls-5{fill:#eb001b;}.cls-6{fill:#f79e1b;}</style><linearGradient id="Dégradé_sans_nom_208" x1="746.05" y1="-2109.81" x2="746.05" y2="-2106.72" gradientTransform="matrix(8.46, 0, 0, -5.84, -6297.72, -12291.64)" gradientUnits="userSpaceOnUse"><stop offset="0" stop-color="#0b0a0c"/><stop offset="0.27" stop-color="#100f12"/><stop offset="0.63" stop-color="#1f1e22"/><stop offset="1" stop-color="#35333a"/></linearGradient></defs><title>Payment_Colors_Mastercard_32px</title><g id="Square"><rect class="cls-1" width="32" height="32"/></g><g id="Icon"><rect class="cls-2" x="3" y="7" width="26" height="18" rx="2"/><path class="cls-3" d="M10.66,20.79l-.16-.1a.51.51,0,0,0-.21,0h-.12l-.12,0-.1.07a.35.35,0,0,0-.1.11.55.55,0,0,0-.17-.17.7.7,0,0,0-.25-.05h-.1l-.1,0a.21.21,0,0,0-.1.06.24.24,0,0,0-.08.09v-.16H8.78v1.27h.27v-.69a.32.32,0,0,1,0-.14A.41.41,0,0,1,9.15,21a.21.21,0,0,1,.1-.06l.12,0a.24.24,0,0,1,.21.08.38.38,0,0,1,.08.25V22h.27v-.7a.22.22,0,0,1,0-.14A.26.26,0,0,1,10,21a.21.21,0,0,1,.1-.06.25.25,0,0,1,.12,0,.25.25,0,0,1,.21.08.37.37,0,0,1,.07.25V22h.27v-.8a.75.75,0,0,0,0-.2A.86.86,0,0,0,10.66,20.79Z"/><path class="cls-3" d="M12.07,20.84a.7.7,0,0,0-.16-.14.51.51,0,0,0-.24,0,.73.73,0,0,0-.25,0,.9.9,0,0,0-.2.14.92.92,0,0,0-.13.21.65.65,0,0,0-.05.27.58.58,0,0,0,.05.26.61.61,0,0,0,.13.22.63.63,0,0,0,.2.13.57.57,0,0,0,.25.06.53.53,0,0,0,.24-.06.4.4,0,0,0,.16-.13V22h.27V20.68h-.27Zm0,.64a.57.57,0,0,1-.08.13l-.12.08a.41.41,0,0,1-.16,0,.45.45,0,0,1-.16,0,.36.36,0,0,1-.19-.21.44.44,0,0,1,0-.32.33.33,0,0,1,.19-.21.32.32,0,0,1,.16,0,.29.29,0,0,1,.16,0A.2.2,0,0,1,12,21a.35.35,0,0,1,.08.13.45.45,0,0,1,0,.16A.76.76,0,0,1,12.06,21.48Z"/><path class="cls-3" d="M13.61,21.32a.75.75,0,0,0-.32-.13l-.13,0h-.09l-.06,0,0,0s0,0,0-.05a.11.11,0,0,1,.06-.11.41.41,0,0,1,.18-.05l.11,0,.12,0,.09,0,.07,0,.12-.22a.67.67,0,0,0-.23-.1,1.33,1.33,0,0,0-.28,0,.78.78,0,0,0-.22,0,.6.6,0,0,0-.16.08.33.33,0,0,0-.11.13.53.53,0,0,0,0,.17.33.33,0,0,0,.11.25.66.66,0,0,0,.32.12l.13,0a.34.34,0,0,1,.17.05.11.11,0,0,1,0,.09.12.12,0,0,1-.07.11.41.41,0,0,1-.22,0H13l-.1,0-.1,0-.07-.05-.13.21.14.09.15,0L13,22h.11a1,1,0,0,0,.25,0,.48.48,0,0,0,.18-.08.69.69,0,0,0,.11-.13.25.25,0,0,0,0-.17A.27.27,0,0,0,13.61,21.32Z"/><path class="cls-3" d="M16.19,20.84A.49.49,0,0,0,16,20.7a.69.69,0,0,0-.25,0,.55.55,0,0,0-.25,0,.48.48,0,0,0-.2.14.57.57,0,0,0-.13.21.81.81,0,0,0,0,.27.86.86,0,0,0,0,.27.74.74,0,0,0,.14.22.58.58,0,0,0,.2.13,1.09,1.09,0,0,0,.26,0,1.26,1.26,0,0,0,.27,0,.77.77,0,0,0,.25-.14l-.14-.2a.56.56,0,0,1-.17.09.43.43,0,0,1-.19,0,.2.2,0,0,1-.13,0,.24.24,0,0,1-.11-.06.2.2,0,0,1-.09-.09.38.38,0,0,1-.05-.15h.94s0,0,0-.05v-.05a.77.77,0,0,0,0-.27A.57.57,0,0,0,16.19,20.84Zm-.77.37a.56.56,0,0,1,0-.12.18.18,0,0,1,.07-.1l.09-.07.14,0A.26.26,0,0,1,16,21a.38.38,0,0,1,.11.23Z"/><path class="cls-3" d="M19.86,20.84a.58.58,0,0,0-.17-.14.45.45,0,0,0-.23,0,.55.55,0,0,0-.25,0,.9.9,0,0,0-.2.14.57.57,0,0,0-.13.21.65.65,0,0,0-.05.27.58.58,0,0,0,.05.26.54.54,0,0,0,.13.22.63.63,0,0,0,.2.13.57.57,0,0,0,.25.06.46.46,0,0,0,.23-.06.43.43,0,0,0,.17-.13V22h.27V20.68h-.27Zm0,.64a.57.57,0,0,1-.08.13.36.36,0,0,1-.12.08.41.41,0,0,1-.16,0,.37.37,0,0,1-.15,0,.38.38,0,0,1-.13-.09.29.29,0,0,1-.07-.12.44.44,0,0,1,0-.32.33.33,0,0,1,.07-.13.44.44,0,0,1,.28-.12.29.29,0,0,1,.16,0,.2.2,0,0,1,.12.08.35.35,0,0,1,.08.13.44.44,0,0,1,0,.16A.78.78,0,0,1,19.85,21.48Z"/><path class="cls-3" d="M14.79,21.7a.19.19,0,0,1-.13,0h-.08s0,0-.06,0a.25.25,0,0,1,0-.07.43.43,0,0,1,0-.11v-.55h.45v-.26h-.45V20.3h-.27v.38h-.26v.26h.26v.56a.56.56,0,0,0,.11.37.5.5,0,0,0,.34.12.78.78,0,0,0,.21,0l.12-.06-.09-.23Z"/><path class="cls-3" d="M17.28,20.66a.52.52,0,0,0-.21,0,.43.43,0,0,0-.15.15v-.17h-.26V22h.26v-.7a.78.78,0,0,1,0-.14A.23.23,0,0,1,17,21a.13.13,0,0,1,.09-.07.25.25,0,0,1,.12,0h.11l.05,0,.08-.27h-.18Z"/><path class="cls-3" d="M21.11,20.66a.45.45,0,0,0-.2,0,.39.39,0,0,0-.16.15v-.17H20.5V22h.25v-.7a.39.39,0,0,1,0-.14.21.21,0,0,1,.06-.1.15.15,0,0,1,.09-.07.25.25,0,0,1,.12,0h.11l.05,0,.09-.27h-.19Z"/><path class="cls-3" d="M22.4,20.17v.67a.54.54,0,0,0-.16-.14.45.45,0,0,0-.23,0,.69.69,0,0,0-.25,0,.72.72,0,0,0-.2.14,1,1,0,0,0-.14.21.63.63,0,0,0,0,.27.57.57,0,0,0,0,.26.64.64,0,0,0,.14.22.53.53,0,0,0,.2.13A.54.54,0,0,0,22,22a.46.46,0,0,0,.23-.06.34.34,0,0,0,.16-.13V22h.28V20.17Zm0,1.31a.33.33,0,0,1-.21.21.37.37,0,0,1-.15,0,.41.41,0,0,1-.16,0,.27.27,0,0,1-.12-.09.83.83,0,0,1-.08-.12.65.65,0,0,1,0-.32l.08-.13a.36.36,0,0,1,.12-.08.29.29,0,0,1,.16,0,.26.26,0,0,1,.15,0,.26.26,0,0,1,.13.08.57.57,0,0,1,.08.13.88.88,0,0,1,0,.16A.78.78,0,0,1,22.4,21.48Z"/><path class="cls-3" d="M18,21a.2.2,0,0,1,.12-.08.29.29,0,0,1,.16,0h0a.35.35,0,0,1,.17,0,.22.22,0,0,1,.13.08l.13-.22a.57.57,0,0,0-.16-.11.84.84,0,0,0-.27,0,.86.86,0,0,0-.28,0,.62.62,0,0,0-.21.15.56.56,0,0,0-.14.2.66.66,0,0,0-.06.27.58.58,0,0,0,.06.26.64.64,0,0,0,.35.35.67.67,0,0,0,.28.06.66.66,0,0,0,.27-.06.51.51,0,0,0,.16-.09l-.13-.22a.57.57,0,0,1-.13.08l-.17,0h0l-.16,0a.27.27,0,0,1-.12-.09.3.3,0,0,1-.09-.13.41.41,0,0,1,0-.16.51.51,0,0,1,0-.17A.34.34,0,0,1,18,21Z"/><rect class="cls-4" x="13.67" y="11.02" width="4.16" height="7.47"/><path class="cls-5" d="M13.94,14.75A4.76,4.76,0,0,1,15.74,11a4.67,4.67,0,0,0-2.93-1,4.75,4.75,0,0,0,0,9.5,4.67,4.67,0,0,0,2.93-1A4.73,4.73,0,0,1,13.94,14.75Z"/><path class="cls-6" d="M23.44,14.75a4.75,4.75,0,0,1-4.75,4.75,4.67,4.67,0,0,1-2.93-1,4.76,4.76,0,0,0,0-7.46,4.67,4.67,0,0,1,2.93-1A4.76,4.76,0,0,1,23.44,14.75Z"/></g></svg>