<svg xmlns="http://www.w3.org/2000/svg" xmlns:xlink="http://www.w3.org/1999/xlink" viewBox="0 0 32 32"><defs><style>.cls-1{fill:none;}.cls-2{fill:url(#Dégradé_sans_nom_196);}.cls-3{fill:#d3d2d6;}.cls-4{fill:#78be20;}</style><linearGradient id="Dégradé_sans_nom_196" x1="815.15" y1="-2109.73" x2="818.04" y2="-2106.8" gradientTransform="matrix(8.46, 0, 0, -5.84, -6894.75, -12291.64)" gradientUnits="userSpaceOnUse"><stop offset="0" stop-color="#fff"/><stop offset="0.4" stop-color="#f9f9f9"/><stop offset="0.93" stop-color="#e9e9e9"/><stop offset="1" stop-color="#e6e6e6"/></linearGradient></defs><title>Payment_Colors_Loyalty_32px</title><g id="Square"><rect class="cls-1" width="32" height="32"/></g><g id="Icon"><rect class="cls-2" x="3" y="7" width="26" height="18" rx="2"/><path class="cls-3" d="M27,7.5A1.5,1.5,0,0,1,28.5,9V23A1.5,1.5,0,0,1,27,24.5H5A1.5,1.5,0,0,1,3.5,23V9A1.5,1.5,0,0,1,5,7.5H27M27,7H5A2,2,0,0,0,3,9V23a2,2,0,0,0,2,2H27a2,2,0,0,0,2-2V9a2,2,0,0,0-2-2Z"/><polygon class="cls-4" points="9.68 20.56 22.1 20.56 15.89 14.32 9.68 20.56"/><polygon points="9.41 20.28 10.37 19.32 10.05 19 9.45 19.6 8.36 18.5 8 18.87 9.41 20.28"/><polyline points="9.78 17.66 10.03 17.9 10.52 17.4 10.81 17.69 10.31 18.19 10.62 18.5 11.24 17.88 11.52 18.17 10.54 19.14 9.14 17.73 10.11 16.75 10.39 17.04 9.78 17.66"/><path d="M13,16.72l-1-.27h0a.59.59,0,0,0-.13-.69.57.57,0,0,0-.81,0h0l-.71.71,1.41,1.42.36-.36L11,16.42l.23-.23a.28.28,0,0,1,.37,0,.27.27,0,0,1,0,.37l-.21.21,1.22.35Z"/><path d="M12.31,14.48a1,1,0,0,1,1.43,0,1,1,0,1,1-1.43,0Zm.27.28c-.22.23-.14.5.13.78s.54.35.77.12.15-.5-.13-.77S12.81,14.54,12.58,14.76Z"/><polygon points="14.18 13.74 13.91 12.94 14.33 12.51 14.68 13.89 15.23 14.44 14.87 14.8 14.32 14.25 13.01 13.84 13.41 13.44 14.16 13.73 14.18 13.74"/><polygon points="20.7 18.6 22.11 17.19 21.73 16.81 20.32 18.23 20.7 18.6"/><polygon points="15.31 13.2 16.4 12.67 15.6 13.48 15.92 13.81 17.33 12.4 16.89 11.94 15.82 12.46 15.82 12.46 16.35 11.41 15.89 10.94 14.48 12.36 14.81 12.69 15.62 11.88 15.09 12.98 15.31 13.2"/><polyline points="17.75 13.4 17.52 13.64 18.05 14.19 17.77 14.47 17.23 13.93 16.92 14.24 17.57 14.89 17.29 15.18 16.27 14.16 17.69 12.74 18.7 13.77 18.42 14.06 17.75 13.4"/><polygon points="19.09 16.99 20.05 17.96 20.37 17.64 19.77 17.03 20.86 15.93 20.5 15.58 19.09 16.99"/><polygon points="22.93 18.01 22.47 19.51 22.47 19.51 23.45 18.53 23.78 18.87 22.37 20.29 21.93 19.84 22.32 18.3 22.32 18.29 21.35 19.26 21.02 18.93 22.43 17.51 22.93 18.01"/><path d="M18.85,16.76l.28-1h0a.6.6,0,0,0,.69-.14.59.59,0,0,0,0-.81h0L19,14.08,17.61,15.5l.35.36,1.15-1.15.27.28a.26.26,0,1,1-.33.39l0,0-.25-.26-.3,1.27Z"/></g></svg>