<svg xmlns="http://www.w3.org/2000/svg" viewBox="0 0 32 32"><defs><style>.cls-1{fill:none;}.cls-2{fill:#81bc00;}.cls-3{fill:#fff;}</style></defs><title>Payment_Colors_Oney_32px</title><g id="Square"><rect class="cls-1" width="32" height="32"/></g><g id="Icon"><rect class="cls-2" x="3" y="7" width="26" height="18" rx="2"/><path class="cls-3" d="M18.64,13.86c.14,0,.28,0,.42.05a2.2,2.2,0,0,1,1.69,1.78,2.55,2.55,0,0,1,0,.73h-3.5v0a1.4,1.4,0,0,0,1.42,1.13,1.44,1.44,0,0,0,1.05-.45l.06,0h.85c0,.07-.07.14-.11.2a2.22,2.22,0,0,1-1.5,1,2.2,2.2,0,0,1-2.56-1.74,2.26,2.26,0,0,1,1-2.37,2,2,0,0,1,1.07-.33h.13ZM17.28,15.7h2.64a1.35,1.35,0,0,0-2.64,0Z"/><path class="cls-3" d="M9.41,13.86l.33.05A2.26,2.26,0,0,1,11,17.57a2.11,2.11,0,0,1-1.78.78,2.16,2.16,0,0,1-2-1.43A4.92,4.92,0,0,1,7,16.34s0,0,0-.06v-.36a.07.07,0,0,0,0-.05,2.2,2.2,0,0,1,1.72-1.95l.35-.06Zm1.29,2.25c0-.11,0-.21,0-.32A1.44,1.44,0,0,0,9,14.66l-.21.05a1.49,1.49,0,0,0-.91,1.77,1.43,1.43,0,0,0,1.61,1.09A1.48,1.48,0,0,0,10.7,16.11Z"/><path class="cls-3" d="M21.79,19.64c.22-.52.43-1,.64-1.56a.11.11,0,0,0,0-.08L20.7,13.86h.89a0,0,0,0,1,0,0c.42,1,.84,2,1.25,3.06l0,0,0-.07c.15-.39.31-.77.47-1.15l.78-1.91H25s0,.05,0,.07c-.56,1.37-1.12,2.74-1.69,4.11-.22.54-.44,1.07-.65,1.6Z"/><path class="cls-3" d="M14.15,13.86l.34.05a1.81,1.81,0,0,1,1.41,1.34,2.6,2.6,0,0,1,.06.56c0,.83,0,1.65,0,2.48v.06h-.81V15.9a2.24,2.24,0,0,0-.06-.52.93.93,0,0,0-.75-.74,1.84,1.84,0,0,0-.74,0,1,1,0,0,0-.8.84,3.11,3.11,0,0,0,0,.43v2.44H12s0,0,0,0c0-.87,0-1.73,0-2.6a1.74,1.74,0,0,1,.62-1.37,2,2,0,0,1,1.11-.47h.46Z"/></g></svg>