<svg xmlns="http://www.w3.org/2000/svg" xmlns:xlink="http://www.w3.org/1999/xlink" viewBox="0 0 32 32"><defs><style>.cls-1{fill:none;}.cls-2{fill:#ecaa3a;}.cls-3{opacity:0.3;fill:url(#Dégradé_sans_nom_17);}.cls-4{fill:#111116;}.cls-5{fill:#fff;}.cls-6{fill:#9779ab;}.cls-7{fill:#b9cd5c;}.cls-8{fill:#d35d91;}</style><radialGradient id="Dégradé_sans_nom_17" cx="16" cy="-443.62" r="9.38" gradientTransform="translate(0 80.4) scale(1 0.13)" gradientUnits="userSpaceOnUse"><stop offset="0" stop-color="#7f4413"/><stop offset="0.24" stop-color="#7f4413" stop-opacity="0.71"/><stop offset="0.58" stop-color="#7f4413" stop-opacity="0.33"/><stop offset="0.85" stop-color="#7f4413" stop-opacity="0.09"/><stop offset="1" stop-color="#7f4413" stop-opacity="0"/></radialGradient></defs><title>Payment_Colors_Illicado_32px</title><g id="Square"><rect class="cls-1" width="32" height="32"/></g><g id="Icon"><rect class="cls-2" x="3" y="7" width="26" height="18" rx="2"/><ellipse class="cls-3" cx="16" cy="21.25" rx="9.38" ry="1.25"/><path class="cls-4" d="M6.09,20.41H21.57a4.43,4.43,0,0,0,4.35-3.59,4.4,4.4,0,0,0-3.5-5.15,4.67,4.67,0,0,0-.83-.08H10.41a4.41,4.41,0,0,0-4.27,3.3,4.15,4.15,0,0,0-.14,1v4.39C6,20.41,6,20.41,6.09,20.41Z"/><path class="cls-5" d="M10.41,11.59H21.59a4.58,4.58,0,0,1,.83.08,4.4,4.4,0,0,1,3.5,5.15,4.24,4.24,0,0,1-2,2.91,4.33,4.33,0,0,1-2.32.68H6.09c-.1,0-.09,0-.09-.08V15.94a4.15,4.15,0,0,1,.14-1,4.41,4.41,0,0,1,4.27-3.3m0-.19a4.61,4.61,0,0,0-4.6,4.54v4.39h0a.23.23,0,0,0,.07.19.25.25,0,0,0,.21.07H21.61A4.56,4.56,0,0,0,24,19.89a4.49,4.49,0,0,0,2.07-3,4.61,4.61,0,0,0-3.66-5.38,4.91,4.91,0,0,0-.86-.08Z"/><path class="cls-5" d="M15.37,17.1a.16.16,0,0,0-.22,0,.39.39,0,0,0-.08.1.65.65,0,0,1-.51.33,1.15,1.15,0,0,1-.55,0,.65.65,0,0,1-.47-.57.8.8,0,0,1,.69-.92.79.79,0,0,1,.7.2l.16.14c.09.08.14.08.24,0a.18.18,0,0,0,.06-.26.65.65,0,0,0-.15-.18,1.29,1.29,0,0,0-.71-.35,1.11,1.11,0,0,0-.54.05,1.47,1.47,0,0,0-.74.56,1.12,1.12,0,0,0-.18.66,1.16,1.16,0,0,0,.08.42,1.06,1.06,0,0,0,.9.72,1.64,1.64,0,0,0,.85-.08.9.9,0,0,0,.56-.47l0-.09a.2.2,0,0,0-.05-.22Z"/><path class="cls-6" d="M11.13,14.3l.06-.48a.16.16,0,0,0-.11-.17.36.36,0,0,0-.27,0,.22.22,0,0,0-.12.15,1.37,1.37,0,0,0-.08.35,11.69,11.69,0,0,0-.11,1.19c0,.25,0,.5,0,.69v.62a6.78,6.78,0,0,0,.1,1l0,.13a.31.31,0,0,0,.05.1c.06.13.38.12.44,0a.26.26,0,0,0,0-.19,3.93,3.93,0,0,1,0-.45c0-.24,0-.47,0-.7,0-.43,0-.86,0-1.3A7.93,7.93,0,0,1,11.13,14.3Z"/><path class="cls-2" d="M12.33,14.26a.43.43,0,0,0-.54.42s0,.07,0,.1a.14.14,0,0,0,0,.07.42.42,0,0,0,.54.25h0a.39.39,0,0,0,.24-.49C12.59,14.43,12.59,14.34,12.33,14.26Z"/><path class="cls-2" d="M12.22,15.61a.23.23,0,0,0-.27.15,1.53,1.53,0,0,0-.07.36c0,.27,0,.54,0,.8s0,.57,0,.86a.16.16,0,0,0,.06.13.4.4,0,0,0,.29.09h0a.17.17,0,0,0,.16-.19,1,1,0,0,0,0-.17,7.49,7.49,0,0,1,0-1.16l0-.62h0A.22.22,0,0,0,12.22,15.61Z"/><path class="cls-7" d="M8.33,15.62a.3.3,0,0,0-.3.08.18.18,0,0,0,0,.12c0,.31,0,.62,0,.92v.06c0,.31,0,.62,0,.94s.08.26.28.25h.05c.13,0,.17-.07.18-.21,0-.56,0-1.12,0-1.69a1.24,1.24,0,0,0,0-.27A.26.26,0,0,0,8.33,15.62Z"/><path class="cls-7" d="M8.17,14.24a.47.47,0,0,0-.42.48.46.46,0,0,0,.45.4.42.42,0,0,0,.41-.46A.43.43,0,0,0,8.17,14.24Z"/><path class="cls-8" d="M9.72,13.64a.25.25,0,0,0-.33.18,1.61,1.61,0,0,0-.08.38l0,.26a15.74,15.74,0,0,0-.08,1.68c0,.3,0,.59,0,.88a.53.53,0,0,1,0,.13,3,3,0,0,0,.08.52.75.75,0,0,0,0,.16.26.26,0,0,0,.25.16.17.17,0,0,0,.12,0h0a.15.15,0,0,0,.13-.18l-.06-.52c0-.18,0-.36,0-.54,0-.48,0-1,0-1.44,0-.3,0-.59.08-.88A3.12,3.12,0,0,1,9.88,14a.38.38,0,0,0,0-.15A.19.19,0,0,0,9.72,13.64Z"/><path class="cls-5" d="M21,16.88c0-.16,0-.33,0-.5,0-.38,0-.78,0-1.16s0-.78.07-1.16a1,1,0,0,0,0-.29c0-.11-.06-.15-.17-.14h-.11a.29.29,0,0,0-.22.27c0,.58-.06,1.16-.05,1.74v.06a.71.71,0,0,0-.28-.09,1.26,1.26,0,0,0-1,.31,1,1,0,0,0-.28.52,1.39,1.39,0,0,0,0,.88.94.94,0,0,0,.7.66,1.1,1.1,0,0,0,.85-.14c.08-.06.21-.19.23-.18s0,0,0,0a1.34,1.34,0,0,0,.07.18.27.27,0,0,0,.07.08.27.27,0,0,0,.3-.1.11.11,0,0,0,0-.11C21.13,17.46,21.07,17.18,21,16.88Zm-.46,0a.62.62,0,0,1-.46.59.61.61,0,0,1-.83-.54,1.26,1.26,0,0,1,.07-.51.59.59,0,0,1,.47-.4L20,16h.1a.4.4,0,0,1,.36.25.5.5,0,0,1,.05.13A1.39,1.39,0,0,1,20.57,16.92Z"/><path class="cls-5" d="M23.83,16.18a1.1,1.1,0,0,0-1-.6,1.36,1.36,0,0,0-.6.1,1.17,1.17,0,0,0-.68.86,1.44,1.44,0,0,0,0,.62,1.19,1.19,0,0,0,.9.86,2.08,2.08,0,0,0,.25,0,1.15,1.15,0,0,0,.81-.26,1.12,1.12,0,0,0,.34-.41l0-.05a1.12,1.12,0,0,0,.08-.65A1.43,1.43,0,0,0,23.83,16.18Zm-.3.82a.62.62,0,0,1-.28.44.84.84,0,0,1-.48.16A.76.76,0,0,1,22,17a1.14,1.14,0,0,1,0-.45.69.69,0,0,1,.47-.52,1.32,1.32,0,0,1,.39-.06.68.68,0,0,1,.64.47A1.06,1.06,0,0,1,23.53,17Z"/><path class="cls-5" d="M18.35,16.79c0-.18,0-.41,0-.54v-.39c0-.12,0-.16-.16-.16a.25.25,0,0,0-.17,0,.14.14,0,0,1-.15,0l-.11-.05a1.48,1.48,0,0,0-1.37.17,1.3,1.3,0,0,0-.47.86,1.08,1.08,0,0,0,0,.44,1.16,1.16,0,0,0,.87.82,1.31,1.31,0,0,0,1-.22l.15-.1a1.22,1.22,0,0,0,.07.17.19.19,0,0,0,.29.1c.12-.05.16-.11.13-.24A5.7,5.7,0,0,1,18.35,16.79Zm-.42.14a.51.51,0,0,1-.17.41,1,1,0,0,1-.45.24.81.81,0,0,1-.78-.22.59.59,0,0,1-.17-.32.83.83,0,0,1,.55-1,1.07,1.07,0,0,1,.56,0,.48.48,0,0,1,.44.45,1.67,1.67,0,0,1,0,.32Z"/></g></svg>