<svg xmlns="http://www.w3.org/2000/svg" xmlns:xlink="http://www.w3.org/1999/xlink" viewBox="0 0 32 32"><defs><style>.cls-1{fill:none;}.cls-2{fill:url(#Dégradé_sans_nom_16);}.cls-3{fill:#b7eef5;}.cls-4{fill:#84dbeb;}.cls-5{fill:#25a8d0;}</style><linearGradient id="Dégradé_sans_nom_16" x1="674.05" y1="-2203.44" x2="676.95" y2="-2200.5" gradientTransform="matrix(8.46, 0, 0, -5.84, -5700.69, -12838.66)" gradientUnits="userSpaceOnUse"><stop offset="0" stop-color="#fff"/><stop offset="0.53" stop-color="#f1fdfe"/><stop offset="1" stop-color="#ecfcfd"/></linearGradient></defs><title>Payment_Colors_Cheque_32px</title><g id="Square"><rect class="cls-1" width="32" height="32"/></g><g id="Icon"><rect class="cls-2" x="3" y="7" width="26" height="18" rx="2"/><path class="cls-3" d="M27,8a1,1,0,0,1,1,1V23a1,1,0,0,1-1,1H5a1,1,0,0,1-1-1V9A1,1,0,0,1,5,8H27m0-1H5A2,2,0,0,0,3,9V23a2,2,0,0,0,2,2H27a2,2,0,0,0,2-2V9a2,2,0,0,0-2-2Z"/><path class="cls-4" d="M24.5,14H15.71l2-2H24.5a.5.5,0,0,0,0-1H18.71l.64-.65a.49.49,0,1,0-.7-.7L17.29,11H7.5a.5.5,0,0,0,0,1h8.79l-2,2H7.5a.5.5,0,0,0,0,1h5.79l-.64.65a.48.48,0,0,0,0,.7.48.48,0,0,0,.7,0L14.71,15H24.5a.5.5,0,0,0,0-1Z"/><rect class="cls-3" x="7" y="18" width="7" height="4.5" rx="0.5"/><path class="cls-5" d="M16.5,22.5l-.14,0a.5.5,0,0,1-.34-.62C16.43,20.42,17.3,18,18.5,18c.89,0,1.59,1.33,2.07,2.6C21.35,19,21.79,19,22,19s.79,0,1.84,2.5H25a.5.5,0,0,1,0,1H23.5a.49.49,0,0,1-.46-.31,11.44,11.44,0,0,0-1-2.07,11.44,11.44,0,0,0-1,2.07.48.48,0,0,1-.49.31.5.5,0,0,1-.45-.36c-.45-1.56-1.18-3.06-1.53-3.14-.33.08-1.06,1.58-1.51,3.14A.49.49,0,0,1,16.5,22.5Z"/></g></svg>