<svg width="32" height="32" viewBox="0 0 32 32" fill="none" xmlns="http://www.w3.org/2000/svg">
  <g id="Square"> </g>
  <g id="Icon">
<path fill-rule="evenodd" clip-rule="evenodd" d="M25.4274 16.0013C25.4274 21.2073 21.2071 25.4277 16.0011 25.4277C10.795 25.4277 6.57471 21.2073 6.57471 16.0013C6.57471 10.7953 10.795 6.57495 16.0011 6.57495C21.2071 6.57495 25.4274 10.7953 25.4274 16.0013ZM15.2046 18.8753H13.8403V17.5204H11.0654V16.3696L12.671 12.4253H14.1837L12.6246 16.2861H13.8403V14.894H15.2046V16.2861H15.8913V17.5204H15.2046V18.8753ZM21.1626 13.9646L19.4931 16.2989L21.1378 18.7622H19.5154L18.6522 17.4896L17.8757 18.7671H16.3154L17.9105 16.3833L16.3154 13.9646H17.9502L18.7712 15.2174L19.5998 13.9646H21.1626Z" fill="#81BC00"/>
</g>
</svg>
