<svg xmlns="http://www.w3.org/2000/svg" viewBox="0 0 32 32"><defs><style>.cls-1{fill:none;}.cls-2{fill:#fff;}.cls-3{fill:#d3d2d6;}.cls-4{fill:#eaf3e2;}.cls-5{fill:#add585;}.cls-6{fill:#78be20;}</style></defs><title>Payment_Colors_Gift_32px</title><g id="Square"><rect class="cls-1" width="32" height="32"/></g><g id="Icon"><rect class="cls-2" x="3.25" y="7.25" width="25.5" height="17.5" rx="1.75"/><path class="cls-3" d="M27,25H5a2,2,0,0,1-2-2V9A2,2,0,0,1,5,7H27a2,2,0,0,1,2,2V23A2,2,0,0,1,27,25ZM5,7.5A1.5,1.5,0,0,0,3.5,9V23A1.5,1.5,0,0,0,5,24.5H27A1.5,1.5,0,0,0,28.5,23V9A1.5,1.5,0,0,0,27,7.5Z"/><path class="cls-4" d="M11,24.75H27A1.75,1.75,0,0,0,28.75,23V9A1.75,1.75,0,0,0,27,7.25H11"/><path class="cls-5" d="M27,25H11v-.5H27A1.5,1.5,0,0,0,28.5,23V9A1.5,1.5,0,0,0,27,7.5H11V7H27a2,2,0,0,1,2,2V23A2,2,0,0,1,27,25Z"/><path class="cls-6" d="M7.66,8.78,9.85,11a.75.75,0,0,1-.53,1.28H5A.75.75,0,0,1,4.41,11L6.6,8.78A.75.75,0,0,1,7.66,8.78Z"/><path class="cls-6" d="M24.5,13h-.88A2.24,2.24,0,0,0,20,10.35,2.25,2.25,0,0,0,16.38,13H15.5a.5.5,0,0,0-.5.5v8a.5.5,0,0,0,.5.5h9a.5.5,0,0,0,.5-.5v-8A.5.5,0,0,0,24.5,13ZM24,17H20.5V14H24Zm-2.25-6.5a1.25,1.25,0,0,1,0,2.5H20.5V11.75A1.25,1.25,0,0,1,21.75,10.5ZM17,11.75a1.25,1.25,0,0,1,2.5,0V13H18.25A1.25,1.25,0,0,1,17,11.75ZM18.25,14H19.5v3H16V14ZM16,18h3.5v3H16Zm4.5,3V18H24v3Z"/></g></svg>