<svg xmlns="http://www.w3.org/2000/svg" viewBox="0 0 32 32">
<g id="Square"> </g>
  <path fill="#fff" d="M9.334 6.667h13.333v10.666H9.334V6.667Z"/>
  <path fill-rule="evenodd" d="M16.706 28.707 16 28l-.679.735v-.001l-.002-.001-.005-.006-.02-.018a55.538 55.538 0 0 1-1.37-1.34 59.776 59.776 0 0 1-3.105-3.39c-1.144-1.357-2.325-2.9-3.268-4.462-.933-1.544-1.684-3.187-1.876-4.726C4.939 8.918 9.34 3 15.999 3c3.355 0 6.126 1.681 7.948 3.959 1.809 2.26 2.754 5.198 2.376 7.85-.197 1.378-.956 2.94-1.879 4.435-.938 1.52-2.114 3.08-3.254 4.473a75.88 75.88 0 0 1-4.38 4.886l-.076.076-.02.02-.005.006-.002.001ZM16 28l.707.707a1 1 0 0 1-1.385.028L16 28Zm-5.333-17.167a.5.5 0 0 0-.353.854l5.333 5.333a.5.5 0 0 0 .707 0l5.333-5.333a.5.5 0 0 0-.353-.854H10.666Z"/>
</svg>
