<svg xmlns="http://www.w3.org/2000/svg" viewBox="0 0 32 32"><defs><style>.cls-1{fill:none;}.cls-2{fill:#919191;}</style></defs><title>Store_Colors_RelayLocation_32px</title><g id="Square"><rect class="cls-1" width="32" height="32"/></g><g id="Icon"><path class="cls-2" d="M16,3A10.73,10.73,0,0,0,5.29,13.73c0,5,7.64,12.88,10,15.2a1,1,0,0,0,1.4,0c2.37-2.32,10-10.19,10-15.2A10.73,10.73,0,0,0,16,3Zm0,3.76h0l4.72,2.83-1.8,1.08L14.2,7.82Zm-.52,12.3-4.71-2.83V10.54l4.67,2.81,0,0Zm-4.2-9.47,1.89-1.14,4.74,2.85L16,12.43Zm10,6.64-4.71,2.83V13.37l0,0,4.67-2.81Z"/></g></svg>