<svg xmlns="http://www.w3.org/2000/svg" viewBox="0 0 32 32"><defs><style>.cls-1{fill:none;}.cls-2{fill:#919191;}</style></defs><title>Store_Colors_StoreLocation_32px</title><g id="Square"><rect class="cls-1" width="32" height="32"/></g><g id="Icon"><path class="cls-2" d="M16,3A10.73,10.73,0,0,0,5.29,13.73c0,5,7.64,12.88,10,15.2a1,1,0,0,0,1.4,0c2.37-2.32,10-10.19,10-15.2A10.73,10.73,0,0,0,16,3Zm4.47,11.74H11.55A.72.72,0,0,1,11,13.51l.94-.95,2.17-2.17,1.34-1.34a.72.72,0,0,1,1,0l1.34,1.34L20,12.56l.95.95A.72.72,0,0,1,20.47,14.74Z"/></g></svg>