<svg xmlns="http://www.w3.org/2000/svg" viewBox="0 0 32 32">
  <path fill-rule="evenodd" d="M8.292 12.333C9.802 8.061 13.877 5 18.666 5c2.263 0 4.364.682 6.111 1.852A1 1 0 1 0 25.89 5.19 12.944 12.944 0 0 0 18.666 3C12.76 3 7.774 6.939 6.191 12.333H4a1 1 0 1 0 0 2h1.772a13.125 13.125 0 0 0 0 3.334H4a1 1 0 1 0 0 2h2.19C7.775 25.06 12.76 29 18.667 29c2.672 0 5.157-.807 7.224-2.19a1 1 0 1 0-1.113-1.662A10.944 10.944 0 0 1 18.667 27c-4.79 0-8.865-3.061-10.375-7.333H20a1 1 0 1 0 0-2H7.792a11.086 11.086 0 0 1 0-3.334H20a1 1 0 1 0 0-2H8.292Z"/>
</svg>
