<svg xmlns="http://www.w3.org/2000/svg" viewBox="0 0 32 32">
  <g clip-path="url(#a)">
    <path fill-rule="evenodd" d="M4 3a1 1 0 0 0-1 1v24a1 1 0 0 0 1 1h24a1 1 0 0 0 1-1V4a1 1 0 0 0-1-1H4Zm1 24V5h22v22H5Zm3.5-11a7.5 7.5 0 1 1 15 0 7.5 7.5 0 0 1-15 0ZM16 7.5a8.5 8.5 0 1 0 0 17 8.5 8.5 0 0 0 0-17ZM14 16a1.333 1.333 0 1 1-2.667 0A1.333 1.333 0 0 1 14 16Zm5.333 1.333a1.333 1.333 0 1 0 0-2.666 1.333 1.333 0 0 0 0 2.666Z"/>
  </g>
  <defs>
    <clipPath id="a">
      <rect width="32" height="32" fill="#fff"/>
    </clipPath>
  </defs>
</svg>
