<svg xmlns="http://www.w3.org/2000/svg" viewBox="0 0 32 32">
  <g clip-path="url(#a)">
    <path fill-rule="evenodd" d="M7.086 6.008a1 1 0 0 0-1.505 0L3.247 8.675A1 1 0 0 0 3 9.333v16a1 1 0 0 0 1 1h4.667a1 1 0 0 0 1-1v-3.5h3v3.5a1 1 0 0 0 1 1h4.666a1 1 0 0 0 1-1v-3.5h3v3.5a1 1 0 0 0 1 1H28a1 1 0 0 0 1-1v-16a1 1 0 0 0-.247-.658l-2.334-2.667a1 1 0 0 0-1.505 0l-2.333 2.667a1 1 0 0 0-.248.658v3.5h-3v-3.5a1 1 0 0 0-.247-.658l-2.333-2.667a1 1 0 0 0-1.506 0l-2.333 2.667a1 1 0 0 0-.247.658v3.5h-3v-3.5a1 1 0 0 0-.248-.658L7.086 6.008Zm2.58 7.825v3h3v-3h-3Zm3 4h-3v3h3v-3Zm6.667-4v3h3v-3h-3Zm3 4h-3v3h3v-3ZM5 24.333V9.71l1.333-1.524L7.667 9.71v14.624H5Zm9.667 0V9.71L16 8.185l1.333 1.524v14.624h-2.666ZM24.333 9.71v14.624H27V9.71l-1.333-1.524-1.334 1.524Z"/>
  </g>
  <defs>
    <clipPath id="a">
      <rect width="32" height="32" fill="#fff"/>
    </clipPath>
  </defs>
</svg>
