<svg xmlns="http://www.w3.org/2000/svg" viewBox="0 0 32 32">
  <g clip-path="url(#a)">
    <path fill-rule="evenodd" d="M16.614 1.21a1 1 0 0 0-1.228 0l-6 4.667a1 1 0 0 0 0 1.579l6 4.667a1 1 0 0 0 1.228 0l6-4.667a1 1 0 0 0 0-1.579l-6-4.666ZM16 10.068l-4.371-3.4L16 3.267l4.371 3.4-4.371 3.4Zm-5.386.477a1 1 0 0 0-1.228 0l-6 4.667a1 1 0 0 0 0 1.578l.114.089v2.455a.5.5 0 0 0 .193.395l12 9.333a.5.5 0 0 0 .614 0l12-9.333a.5.5 0 0 0 .193-.395v-2.455l.114-.089a1 1 0 0 0 0-1.578l-6-4.667a1 1 0 0 0-1.228 0L16 14.734l-5.386-4.19ZM27.5 17.656l-5 3.889v1.433l5-3.89v-1.432Zm-10.886 8.467 4.886-3.8v1.433l-5 3.888V26.2a.941.941 0 0 0 .114-.076Zm-1.114.076v1.445l-5-3.888v-1.434l4.886 3.8c.037.03.075.055.114.077Zm-6-4.654v1.433l-5-3.89v-1.432l5 3.889Zm6.5 2.521-4.371-3.4 4.371-3.4 4.371 3.4-4.371 3.4ZM5.629 16 10 19.4l4.371-3.4L10 12.6 5.629 16ZM22 19.4l4.371-3.4L22 12.6 17.629 16 22 19.4Z"/>
  </g>
  <defs>
    <clipPath id="a">
      <rect width="32" height="32" fill="#fff"/>
    </clipPath>
  </defs>
</svg>
