<svg xmlns="http://www.w3.org/2000/svg" viewBox="0 0 32 32">
  <g clip-path="url(#a)">
    <path fill-rule="evenodd" d="M6.667 5.667a1 1 0 0 1 1 1V8.47a3.668 3.668 0 0 1 0 7.058v9.804a1 1 0 1 1-2 0V15.53a3.668 3.668 0 0 1 0-7.058V6.667a1 1 0 0 1 1-1Zm0 4.666a1.667 1.667 0 1 0 0 3.334 1.667 1.667 0 0 0 0-3.334Zm18.666-4.666a1 1 0 0 1 1 1V8.47a3.668 3.668 0 0 1 0 7.058v9.804a1 1 0 1 1-2 0V15.53a3.668 3.668 0 0 1 0-7.058V6.667a1 1 0 0 1 1-1Zm0 4.666a1.667 1.667 0 1 0 0 3.334 1.667 1.667 0 0 0 0-3.334ZM17 6.667a1 1 0 1 0-2 0v9.804a3.668 3.668 0 0 0 0 7.058v1.804a1 1 0 1 0 2 0V23.53a3.668 3.668 0 0 0 0-7.058V6.667ZM14.333 20a1.667 1.667 0 1 1 3.334 0 1.667 1.667 0 0 1-3.334 0Z"/>
  </g>
  <defs>
    <clipPath id="a">
      <rect width="32" height="32" fill="#fff"/>
    </clipPath>
  </defs>
</svg>
