<svg xmlns="http://www.w3.org/2000/svg" viewBox="0 0 32 32">
  <g clip-path="url(#a)">
    <path fill-rule="evenodd" d="M3 4a1 1 0 0 1 1-1h5.333a1 1 0 0 1 1 1v5.333a1 1 0 0 1-1 1H4a1 1 0 0 1-1-1V4Zm2 1v3.333h3.333V5H5Zm7.333-1a1 1 0 0 1 1-1h5.334a1 1 0 0 1 1 1v5.333a1 1 0 0 1-1 1h-5.334a1 1 0 0 1-1-1V4Zm2 1v3.333h3.334V5h-3.334Zm7.334-1a1 1 0 0 1 1-1H28a1 1 0 0 1 1 1v5.333a1 1 0 0 1-1 1h-5.333a1 1 0 0 1-1-1V4Zm2 1v3.333H27V5h-3.333ZM3 13.333a1 1 0 0 1 1-1h5.333a1 1 0 0 1 1 1v5.334a1 1 0 0 1-1 1H4a1 1 0 0 1-1-1v-5.334Zm2 1v3.334h3.333v-3.334H5Zm7.333-1a1 1 0 0 1 1-1h5.334a1 1 0 0 1 1 1v5.334a1 1 0 0 1-1 1h-5.334a1 1 0 0 1-1-1v-5.334Zm2 1v3.334h3.334v-3.334h-3.334Zm7.334-1a1 1 0 0 1 1-1H28a1 1 0 0 1 1 1v5.334a1 1 0 0 1-1 1h-5.333a1 1 0 0 1-1-1v-5.334Zm2 1v3.334H27v-3.334h-3.333ZM3 22.667a1 1 0 0 1 1-1h5.333a1 1 0 0 1 1 1V28a1 1 0 0 1-1 1H4a1 1 0 0 1-1-1v-5.333Zm2 1V27h3.333v-3.333H5Zm7.333-1a1 1 0 0 1 1-1h5.334a1 1 0 0 1 1 1V28a1 1 0 0 1-1 1h-5.334a1 1 0 0 1-1-1v-5.333Zm2 1V27h3.334v-3.333h-3.334Zm7.334-1a1 1 0 0 1 1-1H28a1 1 0 0 1 1 1V28a1 1 0 0 1-1 1h-5.333a1 1 0 0 1-1-1v-5.333Zm2 1V27H27v-3.333h-3.333Z"/>
  </g>
  <defs>
    <clipPath id="a">
      <rect width="32" height="32" fill="#fff"/>
    </clipPath>
  </defs>
</svg>
