<svg xmlns="http://www.w3.org/2000/svg" viewBox="0 0 32 32">
      <g id="Square"> </g>
  <path fill-rule="evenodd" d="M10.667 5A5.667 5.667 0 0 0 5 10.667v5.502a7.647 7.647 0 0 1 5.667-2.502c2.245 0 4.264.965 5.666 2.502v-5.502A5.667 5.667 0 0 0 10.667 5ZM3 10.667v10.666A7.667 7.667 0 0 0 10.667 29H28a1 1 0 0 0 1-1V13.333a1 1 0 0 0-1-1h-9.667v-1.666a7.667 7.667 0 1 0-15.333 0Zm15.333 5.04v2.587a.5.5 0 0 1 .687.726l-.687.687v1.626c0 .349-.023.692-.068 1.028l.048-.048a.5.5 0 0 1 .707.707l-1.283 1.284A7.684 7.684 0 0 1 15.83 27h1.795l.687-.687a.5.5 0 0 1 .726.687h2.587l.687-.687a.5.5 0 0 1 .726.687h2.587l.687-.687a.5.5 0 0 1 .687-.019V23.04l-1.313 1.314a.5.5 0 0 1-.707-.708l1.333-1.333a.5.5 0 0 1 .687-.019V19.04l-1.313 1.314a.5.5 0 0 1-.707-.708l1.333-1.333a.5.5 0 0 1 .687-.019V15.04l-1.313 1.314a.5.5 0 0 1-.707-.708l1.313-1.313h-3.254a.5.5 0 0 1-.019.687l-1.333 1.334a.5.5 0 0 1-.707-.708l1.313-1.313h-3.254a.5.5 0 0 1-.019.687l-.687.687ZM10.667 27a5.667 5.667 0 1 0 0-11.333 5.667 5.667 0 0 0 0 11.333ZM9 21.333a1.667 1.667 0 1 1 3.333 0 1.667 1.667 0 0 1-3.333 0Zm1.667-3.666a3.667 3.667 0 1 0 0 7.333 3.667 3.667 0 0 0 0-7.333ZM23.02 19.02a.5.5 0 1 0-.707-.707l-1.333 1.333a.5.5 0 0 0 .707.708l1.333-1.334Zm0 4a.5.5 0 1 0-.707-.707l-1.333 1.333a.5.5 0 0 0 .707.708l1.333-1.334Z"/>
</svg>
