<svg xmlns="http://www.w3.org/2000/svg" viewBox="0 0 32 32">
      <g id="Square"> </g>
  <path fill-rule="evenodd" d="M5 4a1 1 0 0 1 1-1h13.333a1 1 0 0 1 1 1v8.333H26a1 1 0 0 1 1 1V27h1a1 1 0 1 1 0 2H4a1 1 0 1 1 0-2h1V4Zm13.333 1v22h-2v-4.333a1 1 0 0 0-1-1h-4.666a1 1 0 0 0-1 1V27H7V5h11.333ZM25 14.333h-4.667V27H25V14.333ZM14.333 27v-3.333h-2.666V27h2.666ZM10 7.667a1 1 0 1 0 0 2h.667a1 1 0 1 0 0-2H10Zm4.667 0a1 1 0 1 0 0 2h.666a1 1 0 1 0 0-2h-.666Zm-4.667 4a1 1 0 1 0 0 2h.667a1 1 0 1 0 0-2H10Zm4.667 0a1 1 0 1 0 0 2h.666a1 1 0 1 0 0-2h-.666ZM10 16.333a1 1 0 1 0 0 2h.667a1 1 0 1 0 0-2H10Zm4.667 0a1 1 0 1 0 0 2h.666a1 1 0 1 0 0-2h-.666Z"/>
</svg>
