<svg xmlns="http://www.w3.org/2000/svg" viewBox="0 0 48 48"><defs><style>.cls-1{fill:none;}.cls-2{fill:#999;}</style></defs><title>Instruction_Service_PurchaseHelp_Request_48px</title><g id="Square"><rect class="cls-1" width="48" height="48"/></g><g id="Icon"><path class="cls-2" d="M18.7,19.73a12.13,12.13,0,0,0-5.4,5.32,1,1,0,0,0,.44,1.35,1.06,1.06,0,0,0,.45.11,1,1,0,0,0,.9-.55,10.07,10.07,0,0,1,4.5-4.44,1,1,0,0,0-.89-1.79Z"/><path class="cls-2" d="M23,18.54c-.3,0-.59.06-.88.11a1,1,0,0,0,.15,2l.17,0,.73-.08a1,1,0,0,0,.91-1.09A1,1,0,0,0,23,18.54Z"/><path class="cls-2" d="M39.5,35h-14V32H39a2,2,0,0,0,2-2.07A16.92,16.92,0,0,0,25.5,13.57V11.5H29a1.5,1.5,0,0,0,0-3H19a1.5,1.5,0,0,0,0,3h3.5v2.07A16.92,16.92,0,0,0,7,29.93,2,2,0,0,0,9,32H22.5v3H8.5a1.5,1.5,0,0,0,0,3h31a1.5,1.5,0,0,0,0-3ZM24,16.5A13.93,13.93,0,0,1,37.92,29H10.08A13.93,13.93,0,0,1,24,16.5Z"/></g></svg>