<svg xmlns="http://www.w3.org/2000/svg" viewBox="0 0 48 48"><defs><style>.cls-1{fill:none;}.cls-2{fill:#999;}</style></defs><title>Instruction_Hygiene_Plexiglas_48px</title><g id="Square"><rect class="cls-1" width="48" height="48"/></g><g id="Icon"><path class="cls-2" d="M42,4H6A2,2,0,0,0,4,6V42a2,2,0,0,0,2,2H17a2,2,0,0,0,2-2V37H29v5a2,2,0,0,0,2,2H42a2,2,0,0,0,2-2V32a1.5,1.5,0,0,0-3,0v9H32V36a2,2,0,0,0-2-2H18a2,2,0,0,0-2,2v5H7V7H41V22a1.5,1.5,0,0,0,3,0V6A2,2,0,0,0,42,4Z"/><path class="cls-2" d="M11,16a1,1,0,0,0,.71-.29l4-4a1,1,0,0,0-1.42-1.42l-4,4a1,1,0,0,0,0,1.42A1,1,0,0,0,11,16Z"/><path class="cls-2" d="M10.29,21.71a1,1,0,0,0,1.42,0l10-10a1,1,0,0,0-1.42-1.42l-10,10A1,1,0,0,0,10.29,21.71Z"/><path class="cls-2" d="M34.5,14a.5.5,0,0,0,1,0A1.5,1.5,0,0,1,37,12.5a.5.5,0,0,0,0-1A1.5,1.5,0,0,1,35.5,10a.5.5,0,0,0-1,0A1.5,1.5,0,0,1,33,11.5a.5.5,0,0,0,0,1A1.5,1.5,0,0,1,34.5,14Z"/><path class="cls-2" d="M22.5,17.75A3.26,3.26,0,0,1,25.75,21a.75.75,0,0,0,1.5,0,3.26,3.26,0,0,1,3.25-3.25.75.75,0,0,0,0-1.5A3.26,3.26,0,0,1,27.25,13a.75.75,0,0,0-1.5,0,3.26,3.26,0,0,1-3.25,3.25.75.75,0,0,0,0,1.5Z"/><path class="cls-2" d="M27,28a7,7,0,0,1,7,7,1,1,0,0,0,2,0,7,7,0,0,1,7-7,1,1,0,0,0,0-2,7,7,0,0,1-7-7,1,1,0,0,0-2,0,7,7,0,0,1-7,7,1,1,0,0,0,0,2Zm8-4.88A9.08,9.08,0,0,0,38.88,27,9.08,9.08,0,0,0,35,30.88,9.08,9.08,0,0,0,31.12,27,9.08,9.08,0,0,0,35,23.12Z"/></g></svg>