<svg xmlns="http://www.w3.org/2000/svg" viewBox="0 0 48 48"><defs><style>.cls-1{fill:none;}.cls-2{fill:#999;}</style></defs><title>Instruction_Service_PurchaseHelp_Car--OpenBoot_48px</title><g id="Square"><rect class="cls-1" width="48" height="48"/></g><g id="Icon"><path class="cls-2" d="M42.43,20.45l-8.22-1.83-3.08-2.73a5.45,5.45,0,0,0-3.65-1.39H20.06a5.53,5.53,0,0,0-2.72.72L10.56,8.44a1.49,1.49,0,0,0-2.12,0l-2,2a1.5,1.5,0,1,0,2.12,2.12l.94-.94,5.14,5.14-2.36,1.35a6.32,6.32,0,0,1-1.76.69L5.55,20A2,2,0,0,0,4,21.9v5.17a2,2,0,0,0,1.71,2l3.92.57a5,5,0,0,0,9.61.38h9.52a5,5,0,0,0,9.48,0H42a2,2,0,0,0,2-2V22.4A2,2,0,0,0,42.43,20.45ZM14.49,30.5a2,2,0,1,1,2-2A2,2,0,0,1,14.49,30.5Zm19,0a2,2,0,1,1,2-2A2,2,0,0,1,33.5,30.5ZM41,27H38.24a5,5,0,0,0-9.48,0H19.24a5,5,0,0,0-9.37-.38L7,26.2V22.69l4.19-1a9.68,9.68,0,0,0,2.58-1l5.05-2.89a2.48,2.48,0,0,1,1.24-.33h7.42a2.49,2.49,0,0,1,1.66.63l3.65,3.25L41,23.2Z"/><path class="cls-2" d="M42.5,35H5.5a1.5,1.5,0,0,0,0,3h37a1.5,1.5,0,0,0,0-3Z"/></g></svg>