<svg xmlns="http://www.w3.org/2000/svg" viewBox="0 0 48 48"><defs><style>.cls-1{fill:none;}.cls-2{fill:#999;}</style></defs><title>Instruction_Payment_Checkout_48px</title><g id="Square"><rect class="cls-1" width="48" height="48"/></g><g id="Icon"><path class="cls-2" d="M42,32H40.75L38.59,20.49A5.51,5.51,0,0,0,33.18,16H25.5V13H30a2,2,0,0,0,2-2V6a2,2,0,0,0-2-2H18a2,2,0,0,0-2,2v5a2,2,0,0,0,2,2h4.5v3H14.82a5.51,5.51,0,0,0-5.41,4.49L7.25,32H6a2,2,0,0,0-2,2v8a2,2,0,0,0,2,2H42a2,2,0,0,0,2-2V34A2,2,0,0,0,42,32ZM19,7H29v3H19ZM12.36,21a2.51,2.51,0,0,1,2.46-2H33.18a2.51,2.51,0,0,1,2.46,2l2,11H10.31ZM41,41H7V35H41Z"/><rect class="cls-2" x="15.5" y="22" width="17" height="4"/><path class="cls-2" d="M21.5,39h5a1,1,0,0,0,0-2h-5a1,1,0,0,0,0,2Z"/></g></svg>