<svg xmlns="http://www.w3.org/2000/svg" viewBox="0 0 48 48"><defs><style>.cls-1{fill:none;}.cls-2{fill:#999;}</style></defs><title>Instruction_Payment_NoContact_48px</title><g id="Square"><rect class="cls-1" width="48" height="48"/></g><g id="Icon"><path class="cls-2" d="M42,10H6a2,2,0,0,0-2,2V36a2,2,0,0,0,2,2H42a2,2,0,0,0,2-2V12A2,2,0,0,0,42,10ZM41,35H7V13H41Z"/><path class="cls-2" d="M10,28.5h7a1,1,0,0,0,1-1v-7a1,1,0,0,0-1-1H10a1,1,0,0,0-1,1v7A1,1,0,0,0,10,28.5ZM11,25h1.5v1.5H11Zm5,1.5H14.5v-5H16Zm-3.5-5V23H11V21.5Z"/><circle class="cls-2" cx="27" cy="24" r="1.5"/><path class="cls-2" d="M33.38,30.65a1,1,0,0,0,1.42,0,9.49,9.49,0,0,0,0-13.26,1,1,0,1,0-1.43,1.4,7.49,7.49,0,0,1,0,10.46A1,1,0,0,0,33.38,30.65Z"/><path class="cls-2" d="M30,27.85a1,1,0,0,0,.7.29,1,1,0,0,0,.71-.3,5.48,5.48,0,0,0,0-7.68A1,1,0,0,0,30,21.56a3.48,3.48,0,0,1,0,4.88A1,1,0,0,0,30,27.85Z"/></g></svg>