<svg xmlns="http://www.w3.org/2000/svg" viewBox="0 0 64 32">
    <g id="Square"> </g>
  <path d="M18.843 22.743a3.155 3.155 0 1 1 0-6.31 3.155 3.155 0 0 1 0 6.31Z"/>
  <path fill-rule="evenodd" d="M6.267 2h52.27a3.455 3.455 0 0 1 3.453 3.45v21.1A3.456 3.456 0 0 1 58.537 30H6.267a3.455 3.455 0 0 1-3.453-3.45V5.45A3.455 3.455 0 0 1 6.267 2ZM25.4 8.514a3.092 3.092 0 1 0-6.184-.04 3.092 3.092 0 0 0 6.184.04Zm-6.556 4.518a6.53 6.53 0 0 0-3.1.778V6.393h-3.458v13.194a6.557 6.557 0 1 0 6.558-6.555Zm8.987-6.64h3.457v19.614H27.83V6.393Zm9.98 6.768h-3.456v12.846h3.457V13.16Zm15.824 12.847h-4.452L44.33 19.15l.002 6.856h-3.457V6.395h3.457v12.74l4.764-5.974h4.039l-4.851 5.937 5.35 6.909Z"/>
</svg>
