<svg xmlns="http://www.w3.org/2000/svg" viewBox="0 0 232 49">
      <g id="Square"> </g>
  <path d="M96.23 15.594c0-.506.202-.992.561-1.35a1.921 1.921 0 0 1 2.711 0c.36.358.561.844.561 1.35v10.304a8.545 8.545 0 0 1-2.515 6.04 8.622 8.622 0 0 1-6.064 2.512 8.622 8.622 0 0 1-6.068-2.504 8.544 8.544 0 0 1-2.524-6.037V15.605a1.898 1.898 0 0 1 .505-1.443 1.916 1.916 0 0 1 1.406-.611 1.923 1.923 0 0 1 1.407.611 1.907 1.907 0 0 1 .504 1.443V25.91a4.782 4.782 0 0 0 1.414 3.348 4.825 4.825 0 0 0 3.367 1.4 4.802 4.802 0 0 0 3.37-1.402 4.76 4.76 0 0 0 1.399-3.357l-.034-10.304Zm18.13 15.051c.508 0 .996.201 1.355.559a1.902 1.902 0 0 1 0 2.698 1.92 1.92 0 0 1-1.355.56h-5.322a7.199 7.199 0 0 1-5.078-2.095 7.133 7.133 0 0 1-2.104-5.055V15.593a1.907 1.907 0 0 1 3.811 0v11.695c0 .893.357 1.75.991 2.381a3.39 3.39 0 0 0 2.392.986h5.31v-.01ZM82.148 32.34a1.9 1.9 0 0 1-.923 1.99 1.921 1.921 0 0 1-2.676-.794 1.902 1.902 0 0 1-.2-.747l-1.635-13.727-5.852 13.469a1.925 1.925 0 0 1-2.514.999 1.878 1.878 0 0 1-.992-1l-5.851-13.468-1.647 13.727a1.902 1.902 0 0 1-.681 1.353 1.92 1.92 0 0 1-2.194.188 1.913 1.913 0 0 1-.905-1.217 1.9 1.9 0 0 1-.019-.773l1.928-15.938a3.07 3.07 0 0 1 .54-1.395 3.074 3.074 0 0 1 1.14-.974c.12-.064.244-.12.372-.168h.146c.183-.063.372-.104.564-.123a3.273 3.273 0 0 1 2.672.841 3.13 3.13 0 0 1 .609.797c.042.069.08.14.113.214l4.96 11.448 4.962-11.538a3.144 3.144 0 0 1 2.254-1.807c.186-.038.375-.064.564-.079h.586a3.234 3.234 0 0 1 2.39 1.515c.107.174.194.358.26.55.047.12.081.244.101.37a1.71 1.71 0 0 1 0 .248l1.928 16.039Zm40.554.213a1.9 1.9 0 0 1-.561 1.35 1.92 1.92 0 0 1-3.272-1.35V17.502h-5.445c-.509 0-.996-.201-1.356-.56a1.905 1.905 0 0 1 1.356-3.257h14.724c.508 0 .996.202 1.355.56a1.902 1.902 0 0 1 0 2.698 1.92 1.92 0 0 1-1.355.559h-5.446v15.051Zm11.952 0c0 .506-.202.992-.562 1.35a1.92 1.92 0 0 1-3.272-1.35v-16.96c0-.505.202-.99.562-1.349a1.92 1.92 0 0 1 2.71 0c.36.358.562.844.562 1.35v16.96Zm39.247-.213c.032.487-.124.968-.437 1.344a1.917 1.917 0 0 1-2.615.316 1.909 1.909 0 0 1-.748-1.2l-.676-5.387h-6.585a1.924 1.924 0 0 1-1.903-1.139 1.912 1.912 0 0 1 0-1.527 1.923 1.923 0 0 1 1.126-1.038c.25-.087.514-.121.777-.1h6.156l-.18-1.404v-.135a7.58 7.58 0 0 0-.214-.976 6.303 6.303 0 0 0-.395-.999 4.339 4.339 0 0 0-1.564-1.845 4.368 4.368 0 0 0-2.314-.725 4.53 4.53 0 0 0-.97.112 3.832 3.832 0 0 0-.857.325 5.323 5.323 0 0 0-2.661 4.243l-1.195 10.596a1.895 1.895 0 0 1-1.362 1.614 1.912 1.912 0 0 1-2.362-1.292 1.913 1.913 0 0 1-.064-.738l1.195-10.595a9.092 9.092 0 0 1 1.449-4.206 9.142 9.142 0 0 1 3.275-3.022 7.926 7.926 0 0 1 1.691-.618 8.286 8.286 0 0 1 1.861-.213 8.087 8.087 0 0 1 4.327 1.283 8.037 8.037 0 0 1 2.956 3.397c.261.52.48 1.061.654 1.617.147.511.256 1.033.327 1.56a.433.433 0 0 1 0 .168l1.308 10.584Zm5.851.213a1.902 1.902 0 0 1-1.144 1.895 1.924 1.924 0 0 1-2.173-.452 1.9 1.9 0 0 1-.505-1.443V16.84a1.476 1.476 0 0 1 0-.326c.025-.21.074-.418.147-.617l.157-.337a2.75 2.75 0 0 1 1.5-1.246l.259-.067h.711a2.72 2.72 0 0 1 2.018 1.032l10.147 12.942V15.594c0-.506.202-.992.561-1.35a1.922 1.922 0 0 1 2.711 0c.359.358.561.844.561 1.35v15.713a2.684 2.684 0 0 1-1.003 2.077 2.472 2.472 0 0 1-.632.381l-.157.068a2.706 2.706 0 0 1-2.052-.113l-.248-.123a2.291 2.291 0 0 1-.373-.292 2.58 2.58 0 0 1-.248-.247l-.067-.078-10.17-12.987v12.56Zm29.9-1.907c.508 0 .996.2 1.355.558a1.902 1.902 0 0 1 0 2.699 1.92 1.92 0 0 1-1.355.559h-5.637a7.56 7.56 0 0 1-5.334-2.2 7.494 7.494 0 0 1-2.209-5.31v-5.735a7.516 7.516 0 0 1 2.216-5.303 7.581 7.581 0 0 1 5.327-2.205h5.637c.508 0 .996.2 1.355.558a1.902 1.902 0 0 1 0 2.699 1.92 1.92 0 0 1-1.355.559h-5.637a3.761 3.761 0 0 0-2.638 1.122 3.67 3.67 0 0 0-1.128 2.615v5.736a3.728 3.728 0 0 0 1.1 2.62 3.76 3.76 0 0 0 2.632 1.095h5.637l.034-.067Zm11.083-13.156a5.22 5.22 0 0 0-3.619 1.437 4.673 4.673 0 0 0-1.477 3.367v3.558a4.647 4.647 0 0 0 1.466 3.368 5.22 5.22 0 0 0 3.619 1.436 5.222 5.222 0 0 0 3.619-1.436 4.673 4.673 0 0 0 1.477-3.368v-3.558a4.697 4.697 0 0 0-1.466-3.367 5.278 5.278 0 0 0-3.63-1.436m0-3.805a9.038 9.038 0 0 1 6.268 2.491 8.43 8.43 0 0 1 2.65 6.106v3.558a8.429 8.429 0 0 1-2.65 6.106 9.038 9.038 0 0 1-6.268 2.492 9.042 9.042 0 0 1-6.269-2.492 8.452 8.452 0 0 1-2.638-6.106v-3.558a8.452 8.452 0 0 1 2.638-6.106 9.042 9.042 0 0 1 6.269-2.491Zm-80.647 3.816v13.143h7.396a2.413 2.413 0 0 0 1.702-.704 2.393 2.393 0 0 0 .068-3.314l-.079-.067a2.36 2.36 0 0 0-1.691-.719h-2.548a1.92 1.92 0 0 1-1.355-.559 1.902 1.902 0 0 1 0-2.698 1.92 1.92 0 0 1 1.355-.559h.868a2.358 2.358 0 0 0 1.443-.662 2.233 2.233 0 0 0 .677-1.605 2.24 2.24 0 0 0-.661-1.587 2.26 2.26 0 0 0-1.594-.658h-5.581v-.011Zm-3.833 6.454v-8.284a1.822 1.822 0 0 1 .158-.752c.105-.245.254-.469.439-.662a1.968 1.968 0 0 1 1.263-.539h7.498c1.617 0 3.169.64 4.313 1.779a6.062 6.062 0 0 1 1.786 4.293 6.116 6.116 0 0 1-.936 3.233c.408.24.786.526 1.128.853l.124.135a6.16 6.16 0 0 1 1.702 4.254 6.19 6.19 0 0 1-1.826 4.377 6.248 6.248 0 0 1-4.397 1.818h-9.336a1.92 1.92 0 0 1-1.355-.559 1.905 1.905 0 0 1-.561-1.349v-8.597Z"/>
  <path fill-rule="evenodd" d="M25.22 46.004h19.014c4.34 0 4.384-4.592 3.941-6.859-.241-1.525-2.843-1.5-3.13 0v1.768c0 .39-.156.764-.433 1.04-.277.275-.653.43-1.044.431H7.119c-.391 0-.767-.156-1.044-.431a1.47 1.47 0 0 1-.433-1.04v-1.768c-.287-1.5-2.889-1.525-3.13 0-.443 2.267-.398 6.86 3.94 6.86H25.22Zm-13.44-44h29.315c2.06 0 3.745 1.777 3.745 3.948v1.885c0 2.665-3.618 2.653-3.618.018V6.828c0-.318-.127-.624-.353-.849a1.209 1.209 0 0 0-.853-.351H10.64a1.198 1.198 0 0 0-1.206 1.201v1.008c0 2.65-3.456 2.632-3.456.057v-1.94c.01-2.17 1.692-3.95 3.751-3.95h2.05ZM44.102 23.68a5.788 5.788 0 0 1 2.472 2.087 5.75 5.75 0 0 1 .96 3.082c0 3.176-2.787 5.776-6.191 5.776h-9.55a1.581 1.581 0 0 1-1.12-.42 1.567 1.567 0 0 1-.502-1.081V15.029c.002-.42.17-.823.47-1.12a1.601 1.601 0 0 1 1.126-.465h7.95a6.09 6.09 0 0 1 3.355.997 6.05 6.05 0 0 1 2.243 2.676 6.016 6.016 0 0 1-1.213 6.563Zm-7.125-1.47h3.03v-.034a2.9 2.9 0 0 0 1.749-.97c.448-.52.697-1.18.7-1.866a2.872 2.872 0 0 0-.847-2.027 2.898 2.898 0 0 0-2.036-.843h-6.106v15.01h7.74a2.991 2.991 0 0 0 2.168-.834 2.965 2.965 0 0 0 .906-2.13 2.956 2.956 0 0 0-.906-2.13 2.979 2.979 0 0 0-2.168-.835h-4.23a1.68 1.68 0 0 1-1.546-1.028 1.66 1.66 0 0 1 .906-2.177c.202-.083.42-.127.64-.127"/>
  <path d="M28.655 32.82a1.899 1.899 0 0 1-.384 1.445 1.916 1.916 0 0 1-2.075.654 1.92 1.92 0 0 1-1.15-.961 1.904 1.904 0 0 1-.203-.735L23.267 18.84l-5.552 14.063v.171a1.838 1.838 0 0 1-.479.547l-.03.024c-.101.09-.212.17-.332.234l-.036.018-.033.018h-.19c-.18.064-.37.1-.561.105h-.139a1.842 1.842 0 0 1-.627-.129h-.157l-.033-.018-.03-.018h-.018a1.809 1.809 0 0 1-.302-.201l-.063-.057-.048-.045-.115-.03-.057-.063a1.8 1.8 0 0 1-.202-.3v-.018l-.018-.03-.018-.034v-.141L8.573 18.841l-1.57 14.382a1.904 1.904 0 0 1-.701 1.281 1.92 1.92 0 0 1-2.693-.284 1.9 1.9 0 0 1-.415-1.4l1.851-16.954a3.17 3.17 0 0 1 2.738-2.786h.103c.161-.011.323-.011.485 0 .195.008.389.035.579.079a3.151 3.151 0 0 1 2.228 1.915l4.746 11.94 4.737-11.98a3.139 3.139 0 0 1 1.106-1.412 3.16 3.16 0 0 1 1.702-.58c.161-.012.323-.012.485 0h.102a3.191 3.191 0 0 1 2.383 1.645 3.098 3.098 0 0 1 .356 1.153l1.86 16.98Z"/>
</svg>
