<svg xmlns="http://www.w3.org/2000/svg" viewBox="0 0 138 48">
<g id="Square"> </g>
  <path d="M60.365 13c-5.832-.052-10.57 4.645-10.622 10.437v.26c-.053 5.845 4.582 10.646 10.414 10.698h.208c5.833.052 10.571-4.644 10.623-10.489v-.208c.104-5.845-4.582-10.593-10.362-10.698h-.26Zm0 17.742c-3.8 0-6.873-3.13-6.873-6.992v-.052c-.104-3.81 2.916-6.993 6.717-7.097 3.801-.104 6.978 2.87 7.082 6.68v.364c0 3.914-3.072 7.045-6.926 7.097 0 0 .052 0 0 0ZM135.09 13l-8.124 19.882-2.031 4.905-1.093 2.713h-4.01l3.125-7.618L114.677 13h4.218l6.093 14.924L131.08 13h4.01Zm-52.385 3.55c-3.75 0-5.676 2.035-5.676 6v11.794h-3.854V22.289c.052-2.14.417-3.6 1.25-5.01 1.041-1.565 3.437-4.226 8.228-4.226 4.79 0 7.238 2.66 8.227 4.226.885 1.514 1.354 3.288 1.25 5.01v12.106h-3.854V22.55c.105-4.018-1.77-6.001-5.571-6.001Zm15.778 5.218c.729-3.496 4.113-5.688 7.602-4.957a6.361 6.361 0 0 1 4.947 4.957h-12.55Zm16.611 1.67c0-5.688-4.583-10.332-10.311-10.384-5.832 0-10.362 4.696-10.362 10.645 0 2.765 1.093 5.479 3.02 7.514a9.92 9.92 0 0 0 7.29 3.183c3.125 0 7.551-1.514 9.634-5.792 0-.053.052-.105.052-.157h-4.218v.052a7.236 7.236 0 0 1-5.311 2.296c-3.229-.052-5.937-2.4-6.51-5.583h16.664c0-.47.052-1.252.052-1.774Z"/>
  <path fill-rule="evenodd" d="M46.076 24c0 12.15-9.829 22-21.954 22S2.168 36.15 2.168 24s9.83-22 21.954-22c12.125 0 21.954 9.85 21.954 22ZM22.02 30.618h-3.138v-3.115h-6.38v-2.647l3.691-9.07h3.479l-3.585 8.878h2.795v-3.2h3.137v3.2h1.58v2.839h-1.58v3.115Zm13.659-11.326-3.835 5.364 3.773 5.665h-3.75l-1.951-2.933-1.782 2.933h-3.582l3.659-5.5-3.66-5.544h3.751l1.903 2.89 1.9-2.879 3.574.004Z"/>
</svg>
