<svg xmlns="http://www.w3.org/2000/svg" viewBox="0 0 48 48">
      <g id="Square"> </g>
  <path fill-rule="evenodd" d="M29.675 7.975A17 17 0 0 0 7 24.09a1.5 1.5 0 1 1-3 .016A20 20 0 0 1 30.676 5.147a1.5 1.5 0 1 1-1.001 2.828ZM7.229 31.951a1.5 1.5 0 0 1 2.049.549c.178.308.365.611.562.908a1.5 1.5 0 1 1-2.498 1.66A19.984 19.984 0 0 1 6.679 34a1.5 1.5 0 0 1 .55-2.049Zm8.271 6.771a1.5 1.5 0 1 0-1.5 2.599c.363.209.732.407 1.107.593a1.5 1.5 0 1 0 1.334-2.687 16.968 16.968 0 0 1-.941-.505Zm11.159 3.647a1.5 1.5 0 0 1-1.403 1.592c-.418.026-.837.039-1.256.039a1.5 1.5 0 0 1 0-3c.356 0 .712-.011 1.067-.033a1.5 1.5 0 0 1 1.592 1.402Zm8.409-1.71a1.5 1.5 0 1 0-1.66-2.5c-.297.198-.6.385-.908.563a1.5 1.5 0 0 0 1.5 2.599 19.9 19.9 0 0 0 1.068-.663Zm6.17-9.777a1.5 1.5 0 0 1 .676 2.01c-.186.376-.384.745-.593 1.108a1.5 1.5 0 1 1-2.599-1.5c.178-.308.347-.622.505-.941a1.5 1.5 0 0 1 2.01-.677Zm1.58-13.657a1.5 1.5 0 0 0-2.823 1.016A17 17 0 0 1 41 24a1.5 1.5 0 0 0 3 0c0-2.31-.4-4.602-1.182-6.775ZM24 27a3 3 0 1 0 0-6 3 3 0 0 0 0 6Zm0 3a6 6 0 0 0 5.17-9.048l9.89-9.891a1.5 1.5 0 0 0-2.12-2.122l-9.892 9.892A6 6 0 1 0 24 30Z"/>
</svg>
