<svg xmlns="http://www.w3.org/2000/svg" viewBox="0 0 48 48"><defs><style>.cls-1{fill:none;}.cls-2{fill:#999;}</style></defs><title>Media_Download_App_48px</title><g id="Square"><rect class="cls-1" width="48" height="48"/></g><g id="Icon"><path class="cls-2" d="M22.94,31.56a1.5,1.5,0,0,0,2.12,0l6.5-6.5a1.5,1.5,0,0,0-2.12-2.12L25.5,26.88V5.5a1.5,1.5,0,0,0-3,0V26.88l-3.94-3.94a1.5,1.5,0,0,0-2.12,2.12Z"/><path class="cls-2" d="M39,7H35a1.5,1.5,0,0,0,0,3h3V38H10V10h3a1.5,1.5,0,0,0,0-3H9A2,2,0,0,0,7,9V39a2,2,0,0,0,2,2H39a2,2,0,0,0,2-2V9A2,2,0,0,0,39,7Z"/></g></svg>