<svg xmlns="http://www.w3.org/2000/svg" viewBox="0 0 48 48"><defs><style>.cls-1{fill:none;}.cls-2{fill:#999;}</style></defs><title>Media_Read_48px</title><g id="Square"><rect class="cls-1" width="48" height="48"/></g><g id="Icon"><path class="cls-2" d="M42,10H35V6a2,2,0,0,0-2-2H32a9.52,9.52,0,0,0-9.16,7,6.12,6.12,0,0,0-3.34-1H6a2,2,0,0,0-2,2V36a2,2,0,0,0,2,2H19.5a3.65,3.65,0,0,1,3.1,2,2,2,0,0,0,.13.25,1.51,1.51,0,0,0,2.55,0,1.75,1.75,0,0,0,.13-.28,3.67,3.67,0,0,1,3.09-2H42a2,2,0,0,0,2-2V12A2,2,0,0,0,42,10ZM32,7V29a9.46,9.46,0,0,0-6.5,2.58V13.5A6.51,6.51,0,0,1,32,7ZM19.5,35H7V13H19.5a3,3,0,0,1,.85.12,3.19,3.19,0,0,1,2.15,3.09V35.8A6.1,6.1,0,0,0,19.5,35ZM41,35H28.5a6.07,6.07,0,0,0-2.23.44A6.49,6.49,0,0,1,32,32h1a2,2,0,0,0,2-2V13h6Z"/><path class="cls-2" d="M18.5,23H11a1,1,0,0,0,0,2h7.5a1,1,0,0,0,0-2Z"/><path class="cls-2" d="M18.5,17H11a1,1,0,0,0,0,2h7.5a1,1,0,0,0,0-2Z"/><path class="cls-2" d="M18.5,29H11a1,1,0,0,0,0,2h7.5a1,1,0,0,0,0-2Z"/></g></svg>