<svg xmlns="http://www.w3.org/2000/svg" viewBox="0 0 48 48"><defs><style>.cls-1{fill:none;}.cls-2{fill:#999;}</style></defs><title>Navigation_Publish_Send_48px</title><g id="Square"><rect class="cls-1" width="48" height="48"/></g><g id="Icon"><path class="cls-2" d="M41.49,9.75,5.66,16.35a2,2,0,0,0-1,3.38l7.14,7.14v9.22a2,2,0,0,0,3.41,1.41l3.61-3.61,3.76,3.76a2,2,0,0,0,3-.24L43.47,12.9A2,2,0,0,0,41.49,9.75Zm-4.14,3.82L13.82,24.7,8.08,19Zm-22.6,20.1v-3.8l1.9,1.9Zm.58-7.46L37.81,15.56l-14,19.14Z"/></g></svg>