<svg width="48" height="48" viewBox="0 0 48 48" fill="none" xmlns="http://www.w3.org/2000/svg">
  <g id="Square"> </g>
  <g id="Icon">
<path id="Union" fill-rule="evenodd" clip-rule="evenodd" d="M9.56066 7.43934C8.97487 6.85355 8.02513 6.85355 7.43934 7.43934C6.85355 8.02513 6.85355 8.97487 7.43934 9.56066L21.8787 24L7.43934 38.4393C6.85355 39.0251 6.85355 39.9749 7.43934 40.5607C8.02513 41.1464 8.97487 41.1464 9.56066 40.5607L25.0607 25.0607C25.6464 24.4749 25.6464 23.5251 25.0607 22.9393L9.56066 7.43934ZM28.0607 7.43934C27.4749 6.85355 26.5251 6.85355 25.9393 7.43934C25.3536 8.02513 25.3536 8.97487 25.9393 9.56066L40.3787 24L25.9393 38.4393C25.3536 39.0251 25.3536 39.9749 25.9393 40.5607C26.5251 41.1464 27.4749 41.1464 28.0607 40.5607L43.5607 25.0607C44.1464 24.4749 44.1464 23.5251 43.5607 22.9393L28.0607 7.43934Z" fill="black"/>
</g>
</svg>
