<svg width="48" height="48" viewBox="0 0 48 48" fill="none" xmlns="http://www.w3.org/2000/svg">
  <g id="Square"> </g>
  <g id="Icon">
<path id="Union" fill-rule="evenodd" clip-rule="evenodd" d="M22.0607 9.56066C22.6464 8.97487 22.6464 8.02513 22.0607 7.43934C21.4749 6.85355 20.5251 6.85355 19.9393 7.43934L4.43934 22.9393C3.85355 23.5251 3.85355 24.4749 4.43934 25.0607L19.9393 40.5607C20.5251 41.1464 21.4749 41.1464 22.0607 40.5607C22.6464 39.9749 22.6464 39.0251 22.0607 38.4393L7.62132 24L22.0607 9.56066ZM40.5607 9.56066C41.1464 8.97487 41.1464 8.02513 40.5607 7.43934C39.9749 6.85355 39.0251 6.85355 38.4393 7.43934L22.9393 22.9393C22.3536 23.5251 22.3536 24.4749 22.9393 25.0607L38.4393 40.5607C39.0251 41.1464 39.9749 41.1464 40.5607 40.5607C41.1464 39.9749 41.1464 39.0251 40.5607 38.4393L26.1213 24L40.5607 9.56066Z" fill="black"/>
</g>
</svg>
