<svg xmlns="http://www.w3.org/2000/svg" viewBox="0 0 48 48"><defs><style>.cls-1{fill:none;}.cls-2{fill:#5b5b5b;}</style></defs><title>Navigation_Display_DisplayList_Outline_48px</title><g id="Square"><rect class="cls-1" width="48" height="48"/></g><g id="Icon"><path class="cls-2" d="M42,4H6A2,2,0,0,0,4,6v6a2,2,0,0,0,2,2H42a2,2,0,0,0,2-2V6A2,2,0,0,0,42,4Zm-1,7H7V7H41Z"/><path class="cls-2" d="M42,19H6a2,2,0,0,0-2,2v6a2,2,0,0,0,2,2H42a2,2,0,0,0,2-2V21A2,2,0,0,0,42,19Zm-1,7H7V22H41Z"/><path class="cls-2" d="M42,34H6a2,2,0,0,0-2,2v6a2,2,0,0,0,2,2H42a2,2,0,0,0,2-2V36A2,2,0,0,0,42,34Zm-1,7H7V37H41Z"/></g></svg>