<svg width="48" height="48" viewBox="0 0 48 48" fill="none" xmlns="http://www.w3.org/2000/svg">
<g id="Square"> </g>
<g id="Icon">
<path id="Subtract" fill-rule="evenodd" clip-rule="evenodd" d="M38.8125 24C38.8125 32.1807 32.1807 38.8125 24 38.8125C15.8193 38.8125 9.1875 32.1807 9.1875 24C9.1875 15.8193 15.8193 9.1875 24 9.1875C32.1807 9.1875 38.8125 15.8193 38.8125 24ZM22.4371 28.8801H20.1506V26.6092H15.5V24.6805L18.1908 18.0701H20.7261L18.1131 24.5405H20.1506V22.2074H22.4371V24.5405H23.5881V26.6092H22.4371V28.8801ZM32.4692 20.625L29.6567 24.5437L32.4242 28.6875H29.6774L28.2505 26.5406L26.938 28.6875H24.313L26.9924 24.6806L24.3242 20.625H27.0711L28.4624 22.7269L29.8536 20.625H32.4692Z" fill="black"/>
</g>
</svg>
