<svg xmlns="http://www.w3.org/2000/svg" viewBox="0 0 48 48">
    <g id="Square"> </g>
  <path fill-rule="evenodd" d="M6 8.5A1.5 1.5 0 0 0 4.5 10v28A1.5 1.5 0 0 0 6 39.5h36a1.5 1.5 0 0 0 1.5-1.5V10A1.5 1.5 0 0 0 42 8.5H6Zm1.5 28v-25h33v15.56l-6.593-6.04L16.98 36.5H7.5Zm15.593-20.496a5.65 5.65 0 0 1-.174-.02l-.046-.03h-.087c-.421.014-.83.142-1.183.372a2.5 2.5 0 0 0-1.075 2.633 2.47 2.47 0 0 0 4.508.833c.024-.036.047-.078.07-.12l.002-.006.049-.086h-.946a.124.124 0 0 0-.067.033 1.633 1.633 0 0 1-1.162.5 1.562 1.562 0 0 1-1.58-1.25v-.037h3.863c.037-.269.037-.54 0-.809a2.437 2.437 0 0 0-1.883-1.975 3.528 3.528 0 0 0-.29-.038Zm1.234 2.021h-2.9a1.512 1.512 0 0 1 1.538-1.187c.642.033 1.362.642 1.362 1.188Zm-11.5-2.018h-.002a4.892 4.892 0 0 1-.147-.023h-.375l-.13.019a2.458 2.458 0 0 0-2.17 2.218v.525c.039.216.094.427.167.634a2.387 2.387 0 0 0 2.246 1.595 2.354 2.354 0 0 0 1.975-.862 2.5 2.5 0 0 0-1.346-4.07 3.514 3.514 0 0 0-.218-.036Zm1.239 2.127c.021.116.036.232.045.35 0 .81-.581 1.502-1.379 1.641-.821.12-1.6-.405-1.795-1.212a1.666 1.666 0 0 1 1.012-1.966 1.47 1.47 0 0 1 .233-.063 1.6 1.6 0 0 1 1.884 1.25Zm13.077 2.542v.001c-.233.58-.466 1.157-.707 1.736l.958.029.733-1.775 1.875-4.583a.643.643 0 0 0 0-.083h-.942l-.866 2.124c-.08.192-.16.387-.239.583-.095.235-.19.47-.286.697a.832.832 0 0 1-.034.079.27.27 0 0 1-.025-.042l-1.387-3.404a.118.118 0 0 1 0-.037h-1c.642 1.522 1.282 3.05 1.92 4.583a.117.117 0 0 1 0 .091v.001Zm-9.194-4.692c.041.007.083.012.125.018.083.011.166.022.25.045a1.996 1.996 0 0 1 1.562 1.483c.05.204.075.414.075.625v2.82h-.904v-2.737c0-.196-.021-.392-.063-.583a1.025 1.025 0 0 0-.833-.813 1.838 1.838 0 0 0-.833 0c-.469.08-.828.46-.88.934a2.325 2.325 0 0 0-.037.479v2.704h-.9a.139.139 0 0 1 0-.042V18.03a1.92 1.92 0 0 1 .692-1.521 2.187 2.187 0 0 1 1.25-.52h.083l.413-.005Z"/>
</svg>
