<svg xmlns="http://www.w3.org/2000/svg" viewBox="0 0 48 48"><defs><style>.cls-1{fill:none;}.cls-2{fill:#999;}</style></defs><title>Payment_Monochrome_Gift_48px</title><g id="Square"><rect class="cls-1" width="48" height="48"/></g><g id="Icon"><path class="cls-2" d="M42,10H6a2,2,0,0,0-2,2V36a2,2,0,0,0,2,2H42a2,2,0,0,0,2-2V12A2,2,0,0,0,42,10Zm0,26H6V12H42Z"/><path class="cls-2" d="M17,34H31a1,1,0,0,0,1-1V21a1,1,0,0,0-1-1h-.56A3.91,3.91,0,0,0,31,18a4,4,0,0,0-7-2.62A4,4,0,0,0,17,18a3.91,3.91,0,0,0,.56,2H17a1,1,0,0,0-1,1V33A1,1,0,0,0,17,34Zm1-6h5v4H18Zm12-2H25V22h5Zm-7,0H18V22h5Zm2,6V28h5v4Zm2-16a2,2,0,0,1,0,4H25V18A2,2,0,0,1,27,16Zm-8,2a2,2,0,0,1,4,0v2H21A2,2,0,0,1,19,18Z"/></g></svg>