<svg xmlns="http://www.w3.org/2000/svg" viewBox="0 0 48 48"><defs><style>.cls-1{fill:none;}.cls-2{fill:#999;}</style></defs><title>Payment_Monochrome_CB_48px</title><g id="Square"><rect class="cls-1" width="48" height="48"/></g><g id="Icon"><path class="cls-2" d="M17.78,23.53h6.81a4.91,4.91,0,0,0-1.45-3.62c-1.23-1.06-3.4-1.45-5.34-1.45s-4.25.43-5.49,1.57A5.22,5.22,0,0,0,11,24a5.69,5.69,0,0,0,1.62,4.21c1.17,1,3.24,1.33,5.18,1.33s3.92-.31,5.15-1.32A5.38,5.38,0,0,0,24.6,24H17.78Z"/><path class="cls-2" d="M25,24V29.3h9.47A2.62,2.62,0,0,0,37,26.68,2.69,2.69,0,0,0,34.51,24Z"/><path class="cls-2" d="M36.83,21.1a2.41,2.41,0,0,0-2.4-2.42H25v4.86h9.55A2.45,2.45,0,0,0,36.83,21.1Z"/><path class="cls-2" d="M42,12V36H6V12H42m0-2H6a2,2,0,0,0-2,2V36a2,2,0,0,0,2,2H42a2,2,0,0,0,2-2V12a2,2,0,0,0-2-2Z"/></g></svg>