<svg xmlns="http://www.w3.org/2000/svg" viewBox="0 0 48 48"><defs><style>.cls-1{fill:none;}.cls-2{fill:#f59e00;}.cls-3{fill:#999;}</style></defs><title>Payment_Monochrome_Paylib_48px</title><g id="Square"><rect class="cls-1" width="48" height="48"/></g><g id="Icon"><path class="cls-2" d="M35.8,26.22V26h-.09V26H36V26h-.09v.22Zm.46,0V26l-.06.16h-.07L36.07,26v.19H36V26h.1l.07.17.06-.17h.1v.27Z"/><path class="cls-3" d="M10,21.05h1v.33h0a2.16,2.16,0,0,1,1.09-.4,3.57,3.57,0,0,1,1.13.06,1.55,1.55,0,0,1,1.18,1.27A5.46,5.46,0,0,1,14.53,24a4.53,4.53,0,0,1-.13,1A1.58,1.58,0,0,1,13,26.21c-.43.06-.86.05-1.3.07v-1h.43a5.29,5.29,0,0,0,.56-.05.62.62,0,0,0,.53-.49,2.63,2.63,0,0,0,.1-.56,6.83,6.83,0,0,0,0-1.43l-.06-.26a.64.64,0,0,0-.51-.45,2,2,0,0,0-.9,0,.72.72,0,0,0-.56.72c0,.12,0,.24,0,.36v5H10.12c-.09,0-.11,0-.11-.1s0-.34,0-.5Z"/><path class="cls-3" d="M32,17.82V18c0,2.13,0,4.27,0,6.4a3.31,3.31,0,0,0,.09.77,1.33,1.33,0,0,0,1,1,4.26,4.26,0,0,0,2.07,0,1.67,1.67,0,0,0,1.25-1.34,5.66,5.66,0,0,0,0-2.39,1.59,1.59,0,0,0-1.48-1.33c-.4-.05-.81,0-1.22,0h0v1h.12c.23,0,.47,0,.7,0a.72.72,0,0,1,.75.66,5.62,5.62,0,0,1,0,1.83.72.72,0,0,1-.75.68,2.73,2.73,0,0,1-.7,0c-.37,0-.54-.27-.57-.68,0-.1,0-.2,0-.3V18a6,6,0,0,1,4.1,3.24,6,6,0,0,1-.54,6.48,6.09,6.09,0,0,1-5.56,2.48V22.9H29.91v7a6.12,6.12,0,0,1-4-4A6.26,6.26,0,0,1,27,20.05h0v4.78a3.27,3.27,0,0,0,0,.54,1,1,0,0,0,.81.84,6,6,0,0,0,1.28.06V25.21h-.65c-.16,0-.22-.06-.23-.22s0-.21,0-.32c0-1.87,0-3.74,0-5.61a.24.24,0,0,1,.13-.24,6.13,6.13,0,0,1,3.5-1Zm-2.14,3.93a.61.61,0,0,0,.49.68,1.28,1.28,0,0,0,.39,0,.58.58,0,0,0,.56-.57v-.23a.61.61,0,0,0-.51-.58,1.41,1.41,0,0,0-.29,0,.61.61,0,0,0-.64.69Z"/><path class="cls-3" d="M20.24,21.06h1.22v.14c0,1.07,0,2.14,0,3.21a2.83,2.83,0,0,0,0,.41.45.45,0,0,0,.32.36,1.82,1.82,0,0,0,1.13,0,.48.48,0,0,0,.35-.46c0-.12,0-.23,0-.35,0-1.05,0-2.11,0-3.16v-.14H24.5s0,.08,0,.12c0,1.85,0,3.7,0,5.55a2.6,2.6,0,0,1-.06.56.89.89,0,0,1-.73.72,7.63,7.63,0,0,1-1.28.06v-1h.66a.2.2,0,0,0,.2-.19V26.2l-.84.06a3.11,3.11,0,0,1-1.21-.16,1.41,1.41,0,0,1-1-1.3c0-.19,0-.38,0-.57,0-1,0-2,0-3Z"/><path class="cls-3" d="M19.57,21.05v5.21H18.36V26a2.35,2.35,0,0,1-.44.17,3,3,0,0,1-1.67,0,1.55,1.55,0,0,1-1.1-1.27,4.17,4.17,0,0,1-.1-.78,6.61,6.61,0,0,1,.09-1.72A1.61,1.61,0,0,1,16.74,21a3.83,3.83,0,0,1,1.07.06,1.89,1.89,0,0,1,.74.36v-.35Zm-1.21,2.54h0c0-.14,0-.28,0-.42s0-.28,0-.42a.71.71,0,0,0-.65-.76A4.33,4.33,0,0,0,17,22a.68.68,0,0,0-.63.53,1.4,1.4,0,0,0-.06.28c0,.46,0,.93,0,1.39a2.27,2.27,0,0,0,.1.58.62.62,0,0,0,.54.47,2.74,2.74,0,0,0,.7,0,.79.79,0,0,0,.75-.86Z"/><path class="cls-3" d="M42,12V36H6V12H42m0-2H6a2,2,0,0,0-2,2V36a2,2,0,0,0,2,2H42a2,2,0,0,0,2-2V12a2,2,0,0,0-2-2Z"/></g></svg>