<svg xmlns="http://www.w3.org/2000/svg" viewBox="0 0 48 48"><defs><style>.cls-1{fill:none;}.cls-2{fill:#999;}</style></defs><title>Payment_SafePayment1_48px</title><g id="Square"><rect class="cls-1" width="48" height="48"/></g><g id="Icon"><path class="cls-2" d="M14,31H10a1,1,0,0,0,0,2h4a1,1,0,0,0,0-2Z"/><path class="cls-2" d="M17,27a2,2,0,0,0,2-2h0V23h0a2,2,0,0,0-2-2H11a2,2,0,0,0-2,2H9v2H9a2,2,0,0,0,2,2h6Zm-2-2H11V23h6v2Z"/><path class="cls-2" d="M22,31H18a1,1,0,0,0,0,2h4a1,1,0,0,0,0-2Z"/><path class="cls-2" d="M42.5,25V22.5A6.47,6.47,0,0,0,40,17.39V12a2,2,0,0,0-2-2H6a2,2,0,0,0-2,2V36a2,2,0,0,0,2,2H28v1.5A1.5,1.5,0,0,0,29.5,41h13A1.5,1.5,0,0,0,44,39.5v-13A1.5,1.5,0,0,0,42.5,25Zm-10-2.5a3.5,3.5,0,0,1,7,0V25h-7ZM7,13H37v3H7ZM7,35V19H30.53a6.44,6.44,0,0,0-1,3.5V25h0A1.5,1.5,0,0,0,28,26.5V31H26a1,1,0,0,0,0,2h2v2Zm34,3H31V28H41Z"/><path class="cls-2" d="M35,33.72V35a1,1,0,0,0,2,0V33.72A2,2,0,0,0,38,32a2,2,0,0,0-4,0A2,2,0,0,0,35,33.72Z"/></g></svg>