<svg xmlns="http://www.w3.org/2000/svg" viewBox="0 0 48 48">
      <g id="Square"> </g>
  <path fill-rule="evenodd" d="M8.5 6A1.5 1.5 0 0 1 10 4.5h28A1.5 1.5 0 0 1 39.5 6v36a1.5 1.5 0 0 1-1.5 1.5H10A1.5 1.5 0 0 1 8.5 42V6Zm3 1.5v33h25v-33h-25ZM17 29a1 1 0 1 0 0 2h14a1 1 0 1 0 0-2H17Zm0 5a1 1 0 1 0 0 2h14a1 1 0 1 0 0-2H17Zm10.96-9.06c.7.7 1.66 1.06 2.9 1.06v-.02L31 23.6c-.52 0-.94-.18-1.24-.56-.3-.38-.44-.9-.44-1.56v-3.26l1.58-.6v-2.36l-1.58.6V10h-2.4v6.78l-1.2.46v2.36l1.2-.46v2.82c0 1.28.34 2.26 1.04 2.98Zm-5.98-8.04L17 23.66l.02-.02v2.18h8.1v-2.4h-5.18l4.96-6.92v-2h-7.8v2.4h4.88Z"/>
</svg>
