<svg xmlns="http://www.w3.org/2000/svg" viewBox="0 0 48 48"><defs><style>.cls-1{fill:none;}.cls-2{fill:#999;}</style></defs><title>Product_Basket_Save_48px</title><g id="Square"><rect class="cls-1" width="48" height="48"/></g><g id="Icon"><path class="cls-2" d="M39.85,13H27V5a1,1,0,0,0-2,0v8H12.83L11.6,8.47A2,2,0,0,0,9.67,7H5.55a1.5,1.5,0,0,0,0,3H8.9l5.6,20.53A2,2,0,0,0,16.43,32H34.69a2,2,0,0,0,1.89-1.35l5.16-15A2,2,0,0,0,39.85,13ZM34,29H17.2L13.65,16H25v6.29l-2.71-2.7A1,1,0,0,0,20.83,21l4.41,4.41a1,1,0,0,0,1.42,0L31.07,21a1,1,0,0,0-1.41-1.41L27,22.29V16h11.5Z"/><path class="cls-2" d="M19,35a4.5,4.5,0,1,0,4.5,4.5A4.49,4.49,0,0,0,19,35Zm0,6a1.5,1.5,0,1,1,1.5-1.5A1.5,1.5,0,0,1,19,41Z"/><path class="cls-2" d="M32,35a4.5,4.5,0,1,0,4.5,4.5A4.49,4.49,0,0,0,32,35Zm0,6a1.5,1.5,0,1,1,1.5-1.5A1.5,1.5,0,0,1,32,41Z"/></g></svg>