<svg xmlns="http://www.w3.org/2000/svg" viewBox="0 0 48 48"><defs><style>.cls-1{fill:none;}.cls-2{fill:#999;}</style></defs><title>Product_Promise_Scan_48px</title><g id="Square"><rect class="cls-1" width="48" height="48"/></g><g id="Icon"><path class="cls-2" d="M5.5,16A1.5,1.5,0,0,1,4,14.52V6A2,2,0,0,1,6,4h8.51a1.5,1.5,0,1,1,0,3H7v7.51A1.5,1.5,0,0,1,5.5,16Z"/><path class="cls-2" d="M42.5,16a1.5,1.5,0,0,1-1.5-1.5V7H33.49a1.5,1.5,0,0,1,0-3H42a2,2,0,0,1,2,2v8.51A1.5,1.5,0,0,1,42.5,16Z"/><path class="cls-2" d="M14.51,44H6a2,2,0,0,1-2-2V33.48a1.5,1.5,0,0,1,3,0V41h7.51a1.5,1.5,0,1,1,0,3Z"/><path class="cls-2" d="M44,42a2,2,0,0,1-2,2H33.49a1.5,1.5,0,0,1,0-3H41V33.49a1.5,1.5,0,1,1,3,0Z"/><rect class="cls-2" x="17.53" y="16.19" width="1.25" height="16"/><rect class="cls-2" x="25.7" y="16.19" width="1.25" height="16"/><rect class="cls-2" x="34.21" y="16.19" width="1.25" height="16"/><rect class="cls-2" x="12.54" y="16.19" width="3.21" height="16"/><rect class="cls-2" x="20.33" y="16.19" width="3.21" height="16"/><rect class="cls-2" x="29.23" y="16.19" width="3.21" height="16"/></g></svg>