<svg xmlns="http://www.w3.org/2000/svg" viewBox="0 0 48 48">
    <g id="Square"> </g>
  <path fill-rule="evenodd" d="M4.5 6A1.5 1.5 0 0 1 6 4.5h4A1.5 1.5 0 0 1 11.5 6v23.5h5V15a1.5 1.5 0 0 1 1.5-1.5h16a1.5 1.5 0 0 1 1.5 1.5v14.5h3.879l1.56-1.56a1.5 1.5 0 0 1 2.122 2.12l-2 2A1.5 1.5 0 0 1 40 32.5H10A1.5 1.5 0 0 1 8.5 31V7.5H6A1.5 1.5 0 0 1 4.5 6Zm28 10.5v13h-13v-13H25V20a1 1 0 1 0 2 0v-3.5h5.5ZM17 38.5a1 1 0 1 0 0 2 1 1 0 0 0 0-2Zm-4 1a4 4 0 1 1 8 0 4 4 0 0 1-8 0Zm19.5 0a1 1 0 1 1 2 0 1 1 0 0 1-2 0Zm1-4a4 4 0 1 0 0 8 4 4 0 0 0 0-8Z"/>
</svg>
