<svg xmlns="http://www.w3.org/2000/svg" viewBox="0 0 48 48"><defs><style>.cls-1{fill:none;}</style></defs><title>Product_Promise_Certification_48px</title><g id="Square"><rect class="cls-1" width="48" height="48"/></g><g id="Icon"><path d="M22.19,22.56a1.5,1.5,0,0,0,2.12,0l6.5-6.5a1.5,1.5,0,0,0-2.12-2.12l-5.44,5.44-2.94-2.94a1.5,1.5,0,0,0-2.12,2.12Z"/><path d="M40.3,35.75,35,26.61a14,14,0,1,0-22,.08L7.81,35.75A1.5,1.5,0,0,0,9.11,38h0l6.08,0,3,5.27a1.48,1.48,0,0,0,1.3.76h0a1.51,1.51,0,0,0,1.3-.75l3.25-5.64,3.26,5.64a1.51,1.51,0,0,0,1.3.75h0a1.5,1.5,0,0,0,1.3-.76l3-5.27L39,38a1.5,1.5,0,0,0,1.31-2.25ZM24,7A11,11,0,1,1,13,18,11,11,0,0,1,24,7ZM19.51,39.49l-2.15-3.77A1.46,1.46,0,0,0,16.05,35l-4.34,0,3.52-6.09a13.92,13.92,0,0,0,5.33,2.65l1.76,3.06ZM32.06,35h0a1.52,1.52,0,0,0-1.3.75L28.6,39.49,24.27,32a14,14,0,0,0,8.58-3.15L36.4,35Z"/></g></svg>