<svg xmlns="http://www.w3.org/2000/svg" viewBox="0 0 48 48"><defs><style>.cls-1{fill:none;}.cls-2{fill:#999;}</style></defs><title>Service_Delivery_Delivery_Pickup--Store_48px</title><g id="Square"><rect class="cls-1" width="48" height="48"/></g><g id="Icon"><path class="cls-2" d="M35.55,31.73,25.8,34.4a4.77,4.77,0,0,0-1.6-.93L18.42,12.29,12.18,6a1.5,1.5,0,0,0-2.12,2.12l5.67,5.71,5.39,19.74a4.58,4.58,0,0,0,1.65,8.85A4.7,4.7,0,0,0,24,42.27a4.59,4.59,0,0,0,3.3-5.17l9.05-2.47a1.5,1.5,0,1,0-.79-2.9Zm-11.39,6.9a1.59,1.59,0,0,1-2.92-.38,1.57,1.57,0,0,1,.15-1.2,1.59,1.59,0,0,1,1-.75,1.52,1.52,0,0,1,.42-.06,1.59,1.59,0,0,1,1.53,1.18A1.55,1.55,0,0,1,24.16,38.63Z"/><path class="cls-2" d="M38.31,26.75l-2.45-9a2,2,0,0,0-2.46-1.4l-9,2.44A2,2,0,0,0,23,21.28l2.45,9a2,2,0,0,0,2.46,1.4l9-2.44A2,2,0,0,0,38.31,26.75ZM28.11,28.5l-1.92-7,7-1.93,1.92,7Z"/></g></svg>