<svg xmlns="http://www.w3.org/2000/svg" viewBox="0 0 48 48"><defs><style>.cls-1{fill:none;}.cls-2{fill:#999;}</style></defs><title>Service_Tools_3d_48px</title><g id="Square"><rect class="cls-1" width="48" height="48"/></g><g id="Icon"><path class="cls-2" d="M23,4.28l-15,9A2,2,0,0,0,7,15V33a2,2,0,0,0,1,1.72l15,9a2.05,2.05,0,0,0,2.06,0l15-9A2,2,0,0,0,41,33V15a2,2,0,0,0-1-1.72l-15-9A2.05,2.05,0,0,0,23,4.28ZM36.61,14.71,24,22.25,11.39,14.71,24,7.17ZM10,17.38l12.5,7.47V39.94L10,32.46ZM25.5,39.94V24.85L38,17.38V32.46Z"/></g></svg>