<svg width="48" height="48" viewBox="0 0 48 48" fill="none" xmlns="http://www.w3.org/2000/svg">
  <g id="Square"> </g>
  <g id="Icon">
<path id="Union" fill-rule="evenodd" clip-rule="evenodd" d="M7 29V23H15V29H7ZM17 23V21V15V13V7H31V29H17V23ZM31 31H17V41H31V31ZM33 41V31H41V41H33ZM33 44H31H17H15H6C4.89543 44 4 43.1046 4 42V6C4 4.89543 4.89543 4 6 4H15H17H31H33H42C43.1046 4 44 4.89543 44 6V13V15V21V23V29V31V42C44 43.1046 43.1046 44 42 44H33ZM33 7V13H41V7H33ZM33 15V21H41V15H33ZM33 23H41V29H33V23ZM15 21V15H7V21H15ZM15 7V13H7V7H15ZM15 41V31H7V41H15ZM27 15H21V21H27V15ZM21 13C19.8954 13 19 13.8954 19 15V21V23C19 24.1046 19.8954 25 21 25H27C28.1046 25 29 24.1046 29 23V21V15C29 13.8954 28.1046 13 27 13H21Z" fill="black"/>
</g>
</svg>
