<svg xmlns="http://www.w3.org/2000/svg" viewBox="0 0 48 48"><defs><style>.cls-1{fill:none;}.cls-2{fill:#999;}</style></defs><title>Service_Custom_Sharpening_48px</title><g id="Square"><rect class="cls-1" width="48" height="48"/></g><g id="Icon"><path class="cls-2" d="M24,20a4,4,0,1,0,4,4A4,4,0,0,0,24,20Zm0,6a2,2,0,1,1,2-2A2,2,0,0,1,24,26Z"/><path class="cls-2" d="M24,33a9,9,0,0,1-8.31-5.53,1,1,0,0,0-1.31-.53,1,1,0,0,0-.53,1.31A11,11,0,0,0,24,35a1,1,0,0,0,0-2Z"/><path class="cls-2" d="M43.56,33.93,41.63,32a2.54,2.54,0,0,0-1.21-.67l-1-.22a17.27,17.27,0,0,0,1.49-5.61H42a2,2,0,0,0,1.44-.61A2,2,0,0,0,44,23.44,20.13,20.13,0,0,0,24,4,20.13,20.13,0,0,0,4,23.44a2,2,0,0,0,.56,1.45A2,2,0,0,0,6,25.5H7.08a17,17,0,0,0,24,13.94l.22,1A2.54,2.54,0,0,0,32,41.63l1.93,1.93a1.5,1.5,0,0,0,2.12,0,1.49,1.49,0,0,0,0-2.12l-1.82-1.82-1.6-7,7,1.6,1.82,1.82a1.5,1.5,0,0,0,2.12-2.12ZM24,7A17.12,17.12,0,0,1,40.93,22.5h-3a14,14,0,0,0-27.84,0h-3A17.12,17.12,0,0,1,24,7Zm5.35,24.74,1.07,4.7A14,14,0,0,1,10.08,25.5H11a2,2,0,0,0,2-1.93,11,11,0,0,1,22,0,2,2,0,0,0,2,1.93h.93a13.88,13.88,0,0,1-1.47,4.92l-4.7-1.07A2,2,0,0,0,29.35,31.74Z"/></g></svg>