<svg xmlns="http://www.w3.org/2000/svg" viewBox="0 0 48 48"><defs><style>.cls-1{fill:none;}.cls-2{fill:#999;}</style></defs><title>Service_Tools_Calculator_48px</title><g id="Square"><rect class="cls-1" width="48" height="48"/></g><g id="Icon"><path class="cls-2" d="M39,7H9A2,2,0,0,0,7,9V39a2,2,0,0,0,2,2H39a2,2,0,0,0,2-2V9A2,2,0,0,0,39,7ZM38,38H10V10H38Z"/><path class="cls-2" d="M15,19h6a1,1,0,0,0,0-2H15a1,1,0,0,0,0,2Z"/><path class="cls-2" d="M27,19h2v2a1,1,0,0,0,2,0V19h2a1,1,0,0,0,0-2H31V15a1,1,0,0,0-2,0v2H27a1,1,0,0,0,0,2Z"/><path class="cls-2" d="M27,31h6a1,1,0,0,0,0-2H27a1,1,0,0,0,0,2Z"/><path class="cls-2" d="M21.46,26.54a1,1,0,0,0-1.42,0l-2,2.05-2-2.05A1,1,0,0,0,14.54,28l2.05,2-2.05,2a1,1,0,0,0,0,1.42,1,1,0,0,0,.71.29,1,1,0,0,0,.71-.29l2-2.05,2,2.05a1,1,0,0,0,.71.29,1,1,0,0,0,.71-.29,1,1,0,0,0,0-1.42l-2-2,2-2A1,1,0,0,0,21.46,26.54Z"/><path class="cls-2" d="M30.38,26.08,30.2,26a.86.86,0,0,0-.39,0,.6.6,0,0,0-.19.06.76.76,0,0,0-.18.09,1.58,1.58,0,0,0-.15.12A1.05,1.05,0,0,0,29,27a1,1,0,0,0,.29.71A1,1,0,0,0,30,28a.84.84,0,0,0,.38-.08,1.15,1.15,0,0,0,.33-.21A1,1,0,0,0,31,27a1.05,1.05,0,0,0-.29-.71,1.58,1.58,0,0,0-.15-.12A.76.76,0,0,0,30.38,26.08Z"/><path class="cls-2" d="M29.29,32.29a1,1,0,0,0-.21.33A1,1,0,0,0,29,33a1,1,0,0,0,.29.71,1,1,0,0,0,1.09.21,1.15,1.15,0,0,0,.33-.21,1.46,1.46,0,0,0,.22-.33A1,1,0,0,0,31,33a1,1,0,0,0-1.71-.71Z"/></g></svg>