<svg xmlns="http://www.w3.org/2000/svg" viewBox="0 0 48 48"><defs><style>.cls-1{fill:none;}.cls-2{fill:#999;}</style></defs><title>Social_View_Like--Positive_48px</title><g id="Square"><rect class="cls-1" width="48" height="48"/></g><g id="Icon"><path class="cls-2" d="M42.17,17.4A5.7,5.7,0,0,0,38.34,16h-7l1.56-6.13a4.8,4.8,0,0,0-.52-3.76,4.57,4.57,0,0,0-7.57-.19L17.07,16.83A2,2,0,0,0,15.45,16H6a2,2,0,0,0-1.51.69A2,2,0,0,0,4,18.29l2.61,18a2,2,0,0,0,2,1.71h6.84a2,2,0,0,0,2-2v-.11L19.56,37a9.56,9.56,0,0,0,4.33,1h9.93a5.52,5.52,0,0,0,5.08-3.36l4.66-11A5.5,5.5,0,0,0,42.17,17.4ZM14.44,35h-5L7.16,19h7.28Zm26.3-12.39L36.13,33.47A2.5,2.5,0,0,1,33.82,35H23.89a6.46,6.46,0,0,1-3-.71l-3.48-1.77v-11L27.28,7.65a1.62,1.62,0,0,1,2.5-.05,1.59,1.59,0,0,1,.28,1.33l-1.93,7.58A2,2,0,0,0,30.07,19h8.42a2.48,2.48,0,0,1,2,1.05A2.68,2.68,0,0,1,40.74,22.61Z"/></g></svg>