<svg xmlns="http://www.w3.org/2000/svg" viewBox="0 0 48 48">
      <g id="Square"> </g>
  <path d="M35.55 12.018A9.587 9.587 0 0 1 31.21 4h-6.848l-.012 27.56c-.115 3.087-2.644 5.564-5.745 5.564a5.69 5.69 0 0 1-2.67-.664 5.787 5.787 0 0 1-3.087-5.117c0-3.188 2.583-5.781 5.757-5.781.592 0 1.16.098 1.698.267v-7.02a12.515 12.515 0 0 0-1.698-.124C11.655 18.685 6 24.363 6 31.342c0 4.283 2.13 8.072 5.381 10.364A12.496 12.496 0 0 0 18.605 44c6.95 0 12.604-5.678 12.604-12.658V17.367a16.239 16.239 0 0 0 9.528 3.077v-6.877a9.438 9.438 0 0 1-5.189-1.55h.001Z"/>
</svg>
