<svg xmlns="http://www.w3.org/2000/svg" viewBox="0 0 48 48"><defs><style>.cls-1{fill:none;}.cls-2{fill:#999;}</style></defs><title>Store_Itinerary_48px</title><g id="Square"><rect class="cls-1" width="48" height="48"/></g><g id="Icon"><path class="cls-2" d="M40.57,16.44l-6-6a1.5,1.5,0,0,0-2.12,2.12L35.89,16H9a2,2,0,0,0-2,2V36.5A1.5,1.5,0,0,0,8.5,38h0A1.5,1.5,0,0,0,10,36.5V19H35.88l-3.36,3.36a1.58,1.58,0,0,0-.16,2.11,1.51,1.51,0,0,0,1.15.53,1.53,1.53,0,0,0,1.06-.44l6-6A1.51,1.51,0,0,0,40.57,16.44Z"/></g></svg>