<svg xmlns="http://www.w3.org/2000/svg" viewBox="0 0 48 48">
      <g id="Square"> </g>
  <path fill-rule="evenodd" d="M6 4.5A1.5 1.5 0 0 0 4.5 6v36A1.5 1.5 0 0 0 6 43.5h36a1.5 1.5 0 0 0 1.5-1.5V6A1.5 1.5 0 0 0 42 4.5H6Zm1.5 10.586V7.5h7.586l-1.793 1.793L7.5 15.086Zm0 2.828v9.172l1.793-1.793L18.586 16 14 11.414l-6.5 6.5Zm0 12v9.172l3.793-3.793L14.586 32 10 27.414l-2.5 2.5ZM8.914 40.5h6.172L12 37.414 8.914 40.5Zm9.172 0h-.172l-4.5-4.5 3.293-3.293L24 25.414 28.586 30l-3.292 3.292h-.001v.002L18.085 40.5Zm2.828 0h9.172l.5-.5L26 35.414 20.914 40.5Zm12 0H40.5v-7.586L32.914 40.5ZM40.5 30.086v-9.172l-9.792 9.792v.001h-.002L27.414 34 32 38.586l8.5-8.5Zm0-12V8.914l-9.793 9.793L25.414 24 30 28.586l10.5-10.5ZM39.086 7.5h-9.172l-4.5 4.5L30 16.586 39.086 7.5Zm-12 0h-9.172l-2.5 2.5L20 14.586l3.293-3.293L27.086 7.5ZM11.414 26l9.293-9.293L24 13.414 28.586 18l-5.292 5.292h-.001v.002L16 30.586 11.414 26Z"/>
</svg>
