<svg xmlns="http://www.w3.org/2000/svg" viewBox="0 0 48 48"><defs><style>.cls-1{fill:none;}.cls-2{fill:#999;}</style></defs><title>Universe_Electricity_48px</title><g id="Square"><rect class="cls-1" width="48" height="48"/></g><g id="Icon"><path class="cls-2" d="M39,7H9A2,2,0,0,0,7,9V39a2,2,0,0,0,2,2H39a2,2,0,0,0,2-2V9A2,2,0,0,0,39,7ZM38,38H10V10H38Z"/><path class="cls-2" d="M24,34A10,10,0,1,0,14,24,10,10,0,0,0,24,34Zm0-18a8,8,0,1,1-8,8A8,8,0,0,1,24,16Z"/><circle class="cls-2" cx="20.5" cy="24" r="1.5"/><circle class="cls-2" cx="27.5" cy="24" r="1.5"/></g></svg>