<svg xmlns="http://www.w3.org/2000/svg" viewBox="0 0 48 48">
  <g id="Square"> </g>
  <path fill-rule="evenodd" d="M39.001 5.61a1.5 1.5 0 0 1-.352 1.645l-15.547 14.91a1.5 1.5 0 0 1-2.43-.521l-2.621-6.49-2.886 1.166a4.502 4.502 0 0 1-2.758 4.889l-3.709 1.498a4.5 4.5 0 0 1-3.371-8.345l3.708-1.498a4.502 4.502 0 0 1 5.38 1.601l2.886-1.166-2.622-6.49a1.5 1.5 0 0 1 1.386-2.062l21.54-.075a1.5 1.5 0 0 1 1.396.938ZM22.624 18.466l-1.792-4.436 2.318-.937a1 1 0 0 0-.75-1.854l-2.317.936L18.29 7.74l15.575-.054-11.242 10.78Zm-12.465-2.82a1.5 1.5 0 0 1 1.124 2.78l-3.709 1.5a1.5 1.5 0 0 1-1.123-2.782l3.708-1.499ZM4.5 35A1.5 1.5 0 0 1 6 33.5h6.5V27a1.5 1.5 0 0 1 1.5-1.5h18.5V19a1.5 1.5 0 0 1 1.5-1.5h8a1.5 1.5 0 0 1 1.5 1.5v24a1.5 1.5 0 0 1-1.5 1.5H6A1.5 1.5 0 0 1 4.5 43v-8Zm36-9.5h-5v-5h5v5Zm-11 3h11v5h-11v-5Zm-3 0h-11v5h11v-5Zm-8 8h-11v5h11v-5Zm3 0v5h11v-5h-11Zm19 5h-5v-5h5v5Z"/>
</svg>
