<svg xmlns="http://www.w3.org/2000/svg" viewBox="0 0 48 48">
    <g id="Square"> </g>
  <path fill-rule="evenodd" d="M26.24 7.653a16.5 16.5 0 0 0-16.078 7.36 1.5 1.5 0 0 1-2.516-1.633 19.5 19.5 0 0 1 19-8.7 1.5 1.5 0 1 1-.407 2.973ZM8.49 33.259a1.5 1.5 0 0 1 2.093.346 16.5 16.5 0 0 0 12.265 6.855 1.5 1.5 0 0 1-.21 2.992 19.498 19.498 0 0 1-14.494-8.1 1.5 1.5 0 0 1 .346-2.093Zm34.43-13.977a1.5 1.5 0 0 0-2.911.726 16.5 16.5 0 0 1-.711 10.173 1.5 1.5 0 1 0 2.781 1.124 19.5 19.5 0 0 0 .84-12.023ZM24 21.5a2.5 2.5 0 1 1-2.407 3.18l-.008-.032-.007-.026A2.5 2.5 0 0 1 24 21.5Zm-.407 7.985a5.5 5.5 0 0 1-4.316-2.665L7.002 30.11l-1.45.387-.388-1.449a8.5 8.5 0 0 1 14.29-8.143 5.494 5.494 0 0 1 5.893-2.239L31.7 7.66l.75-1.299 1.299.75a8.5 8.5 0 0 1-4.346 15.862 5.53 5.53 0 0 1-.6 3.709l8.985 8.986 1.06 1.06-1.06 1.061a8.5 8.5 0 0 1-14.197-8.304Zm3.382-.388 7.486 7.485a5.502 5.502 0 0 1-7.486-7.485ZM7.874 26.769l10.225-2.74a5.503 5.503 0 0 0-10.225 2.74Zm20.279-6.963 5.293-9.168a5.503 5.503 0 0 1-5.293 9.168Z"/>
</svg>
