<svg xmlns="http://www.w3.org/2000/svg" viewBox="0 0 48 48"><defs><style>.cls-1{fill:none;}</style></defs><title>Universe_Attic_48px</title><g id="Square"><rect class="cls-1" width="48" height="48"/></g><g id="Icon"><path d="M43.07,11.61a1.5,1.5,0,0,0-1.63.33l-29.5,29.5a1.5,1.5,0,0,0-.33,1.63A1.51,1.51,0,0,0,13,44H42.5A1.5,1.5,0,0,0,44,42.5V13A1.51,1.51,0,0,0,43.07,11.61ZM41,33.13a5.08,5.08,0,0,0-2.16,0,6.45,6.45,0,0,0-.68-.88,7,7,0,0,0-12.1,3.85A5.38,5.38,0,0,0,25,36l-.42,0a5,5,0,0,0-1.24-1.75L41,16.62ZM16.62,41l5.29-5.29a3.35,3.35,0,0,1,.74.89,5,5,0,0,0-2.26,2.45,1,1,0,0,0,.53,1.31.91.91,0,0,0,.39.08,1,1,0,0,0,.93-.61,3,3,0,0,1,1.88-1.7h0A2.82,2.82,0,0,1,25,38a3,3,0,0,1,1.52.41l.07,0,.2.07.17,0h.15l.08,0a.76.76,0,0,0,.2-.06l.16-.07.15-.12.13-.15.06-.06a.45.45,0,0,0,0-.11,1,1,0,0,0,.07-.18,1.49,1.49,0,0,0,0-.21s0-.06,0-.1,0-.3,0-.46a5,5,0,0,1,10,0,1,1,0,0,0,2,0,7.27,7.27,0,0,0-.28-2,3.1,3.1,0,0,1,1.28.16V41Z"/><path d="M43.56,4.44a1.49,1.49,0,0,0-2.12,0L36.88,9H33a1,1,0,0,0,0,2h1.88l-5.5,5.5H25.5a1,1,0,0,0,0,2h1.88L22.88,23H18.5a1,1,0,0,0,0,2h2.38l-5,5H11.5a1,1,0,0,0,0,2h2.38l-5,5H5a1,1,0,0,0,0,2H6.88L4.44,41.44a1.49,1.49,0,0,0,0,2.12,1.5,1.5,0,0,0,2.12,0l37-37A1.49,1.49,0,0,0,43.56,4.44Z"/><circle cx="32" cy="35.5" r="0.5"/><circle cx="35" cy="37.5" r="1"/><circle cx="30.5" cy="38.5" r="0.5"/></g></svg>