<svg xmlns="http://www.w3.org/2000/svg" viewBox="0 0 48 48"><defs><style>.cls-1{fill:none;}.cls-2{fill:#999;}</style></defs><title>Various_Comfort_48px</title><g id="Square"><rect class="cls-1" width="48" height="48"/></g><g id="Icon"><path class="cls-2" d="M42.63,17.39A4,4,0,0,0,40,16V11.5A7.5,7.5,0,0,0,32.5,4h-18A7.5,7.5,0,0,0,7,11.5v4.77a3.91,3.91,0,0,0-2.53,4.32L7,36.73A1.5,1.5,0,0,0,8.5,38H9L7.59,42a1.5,1.5,0,0,0,.9,1.92A1.52,1.52,0,0,0,9,44a1.5,1.5,0,0,0,1.41-1l1.82-5H35.77l1.82,5A1.5,1.5,0,0,0,39,44a1.52,1.52,0,0,0,.51-.09,1.5,1.5,0,0,0,.9-1.92L39,38h.54A1.5,1.5,0,0,0,41,36.73l2.55-16.14A4,4,0,0,0,42.63,17.39Zm-29.53,7a59.39,59.39,0,0,1,21.8-.05L34.64,26H13.36ZM14.5,7h18A4.51,4.51,0,0,1,37,11.5v5.11a1.24,1.24,0,0,0,0,.33,3.92,3.92,0,0,0-1.35,2.41l-.32,2a62.25,62.25,0,0,0-22.73.05l-.33-2.06a4,4,0,0,0-2.31-3V11.5A4.51,4.51,0,0,1,14.5,7ZM7.43,20.12a1,1,0,0,1,1.92-.3L11.74,35h-2ZM14.78,35l-1.1-7H34.32l-1.1,7ZM40.57,20.12,38.22,35h-2l2.39-15.18a1,1,0,0,1,1-.82,1,1,0,0,1,1,1.12Z"/><circle class="cls-2" cx="17.5" cy="14.5" r="1.5"/><circle class="cls-2" cx="30.5" cy="14.5" r="1.5"/></g></svg>