<svg xmlns="http://www.w3.org/2000/svg" viewBox="0 0 48 48">
    <g id="Square"> </g>
  <path fill-rule="evenodd" d="M4.65 17.555a1.5 1.5 0 0 1-.495-1.546l2.07-7.728a1.5 1.5 0 0 1 1.319-1.106l12.86-1.121c4.067-.355 7.546 2.046 8.957 5.438a.975.975 0 0 1 .07.171 8.768 8.768 0 0 1 .296 5.504l-.648 2.414-.647 2.415a8.297 8.297 0 0 1-1.135 2.504H30.5V14a1.5 1.5 0 0 1 1.5-1.5h5a1.5 1.5 0 0 1 1.342.83l5 10a1.5 1.5 0 0 1 .158.67v10a1.5 1.5 0 0 1-1.5 1.5h-3.707a5.503 5.503 0 0 1-10.586 0h-5.414a5.503 5.503 0 0 1-10.586 0H8A1.5 1.5 0 0 1 6.5 34v-8A1.5 1.5 0 0 1 8 24.5h5.092l-8.441-6.945ZM17.295 27.5H9.5v5h2.207a5.502 5.502 0 0 1 10.586 0h5.414a5.514 5.514 0 0 1 2.793-3.4v-1.6h-6.907a8.251 8.251 0 0 1-6.299 0Zm6.318-17.953a5.91 5.91 0 0 1 2.995 3.138l-9.175 11.481a5.475 5.475 0 0 1-.322-.245l-3.007-2.474 9.509-11.9Zm-2.144-.52a5.998 5.998 0 0 0-.803.016l-4.58.399-6.205 8.53 2.678 2.204 8.91-11.15ZM8.851 10.072l4.594-.4-5.113 7.026-1.03-.847 1.55-5.78ZM25.535 21.22c-.764 2.848-3.599 4.354-6.212 3.783l7.685-9.617c-.03.332-.09.668-.18 1.004l-.646 2.415-.647 2.415ZM40.5 32.5h-2.207a5.504 5.504 0 0 0-4.793-3.978V25.5h7v7Zm-7-10h6.073l-3.5-7H33.5v7Zm-19 11.501a2.5 2.5 0 1 0 5 0 2.5 2.5 0 0 0-5-.001v.001ZM33 31.5a2.5 2.5 0 1 0 0 5 2.5 2.5 0 0 0 0-5Z"/>
</svg>
