<svg xmlns="http://www.w3.org/2000/svg" viewBox="0 0 48 48">
  <g id="Square"> </g>
  <path fill-rule="evenodd" d="M7.5 24c0-9.113 7.387-16.5 16.5-16.5 3.58 0 6.419 1.39 8.378 3.597C34.354 13.32 35.5 16.452 35.5 20c0 3.675-1.137 6.226-2.996 7.879C30.615 29.557 27.769 30.5 24 30.5a6.5 6.5 0 1 1 0-13 2.5 2.5 0 0 1 0 5 1.5 1.5 0 0 0 0 3 5.5 5.5 0 1 0 0-11 9.5 9.5 0 0 0 0 19h16.5v7H24c-9.113 0-16.5-7.387-16.5-16.5ZM34.622 9.104C32.082 6.244 28.42 4.5 24 4.5 13.23 4.5 4.5 13.23 4.5 24S13.23 43.5 24 43.5h18a1.5 1.5 0 0 0 1.5-1.5V32a1.5 1.5 0 0 0-1.5-1.5h-7.953c.153-.122.303-.249.45-.379C37.136 27.774 38.5 24.325 38.5 20c0-4.184-1.354-8.053-3.878-10.896Z"/>
</svg>
