<svg xmlns="http://www.w3.org/2000/svg" viewBox="0 0 48 48"><defs><style>.cls-1{fill:none;}.cls-2{fill:#999;}</style></defs><title>Universe_Security_48px</title><g id="Square"><rect class="cls-1" width="48" height="48"/></g><g id="Icon"><path class="cls-2" d="M37.5,44h-27a2,2,0,0,1-2-2V21a2,2,0,0,1,2-2H13V15.32A11.22,11.22,0,0,1,22.94,4.05,11,11,0,0,1,35,15v4h2.5a2,2,0,0,1,2,2V42A2,2,0,0,1,37.5,44Zm-26-3h25V22H32V15a8,8,0,0,0-16,0v7H11.5Z"/><path class="cls-2" d="M30.07,22H17.93V15.57a6.07,6.07,0,0,1,12.14,0Zm-9.14-3h6.14V15.57a3.07,3.07,0,0,0-6.14,0Z"/><path class="cls-2" d="M27.84,38H20.16l1-5a4.5,4.5,0,1,1,5.72,0Zm-5.25-2h2.82l-.78-4,.62-.36a2.5,2.5,0,1,0-2.5,0l.62.36Z"/></g></svg>