<svg xmlns="http://www.w3.org/2000/svg" viewBox="0 0 48 48">
      <g id="Square"> </g>
  <path fill-rule="evenodd" d="M6 4.5A1.5 1.5 0 0 0 4.5 6v36A1.5 1.5 0 0 0 6 43.5h36a1.5 1.5 0 0 0 1.5-1.5V6A1.5 1.5 0 0 0 42 4.5H6Zm1.5 12.874V7.5h9.874l-4.125 4.126L7.5 17.374Zm0 2.818v8.496l5.748-5.748.001-.001 4.95-4.95-4.243-4.242-6.364 6.364a.988.988 0 0 1-.092.081Zm0 11.314v8.496l5.748-5.748.002-.002 4.948-4.949-4.242-4.242-6.364 6.364a1.16 1.16 0 0 1-.092.081ZM9.83 40.5h8.251l-4.125-4.126L9.83 40.5Zm11.08 0h8.485l-4.833-4.833-4.95-4.95-4.242 4.243 5.54 5.54Zm11.548 0H40.5v-8.042L32.458 40.5ZM40.5 29.63v-8.486l-8.866 8.867-4.95 4.95 4.242 4.242 9.574-9.574Zm0-11.314V9.83l-8.866 8.867-4.95 4.95 4.242 4.242 9.574-9.573ZM40.002 7.5h-8.486l-4.832 4.833 4.242 4.242L40.002 7.5Zm-11.314 0h-6.836l3.418 3.418L28.688 7.5ZM15.37 12.333l4.243-4.243 4.932 4.932.017.018.018.018 4.932 4.932-4.242 4.242-4.949-4.948-.001-.002h-.001l-4.949-4.95Zm4.243 7.07 4.95 4.95 4.95 4.95-4.244 4.243-4.948-4.949h-.001l-.001-.002-4.949-4.948 4.243-4.243Z"/>
</svg>
