<svg xmlns="http://www.w3.org/2000/svg" viewBox="0 0 48 48"><defs><style>.cls-1{fill:none;}.cls-2{fill:#999;}</style></defs><title>Universe_Kids_48px</title><g id="Square"><rect class="cls-1" width="48" height="48"/></g><g id="Icon"><path class="cls-2" d="M40.5,22.5h-6a4,4,0,0,0,0-.5V7.5A3.5,3.5,0,0,0,31.07,4H16.93a3.5,3.5,0,0,0-3.5,3.5V22a4,4,0,0,0,.05.5h-6A3.5,3.5,0,0,0,4,26V40.5A3.5,3.5,0,0,0,7.5,44h33A3.5,3.5,0,0,0,44,40.5V26A3.5,3.5,0,0,0,40.5,22.5ZM16.43,22V7.5a.5.5,0,0,1,.5-.5H31.07a.5.5,0,0,1,.5.5V22a.5.5,0,0,1-.5.5H16.93A.5.5,0,0,1,16.43,22ZM7,40.5V26a.5.5,0,0,1,.5-.5h15V41H7.5A.5.5,0,0,1,7,40.5Zm34,0a.5.5,0,0,1-.5.5h-15V25.5h15a.5.5,0,0,1,.5.5Z"/><path class="cls-2" d="M24.89,10.05a1,1,0,0,0-1.79,0l-4,8a1,1,0,0,0,.45,1.34A1,1,0,0,0,20.89,19l1-1.95h4.26l1,1.95a1,1,0,0,0,.9.55.93.93,0,0,0,.45-.11,1,1,0,0,0,.44-1.34Zm-2,4.95L24,12.74,25.13,15Z"/><path class="cls-2" d="M34.13,30.5a3,3,0,0,1,2,.82,1,1,0,0,0,1.38-1.46,5,5,0,1,0,0,7.28,1,1,0,0,0-1.38-1.46,3,3,0,0,1-2,.82,3,3,0,0,1,0-6Z"/><path class="cls-2" d="M17.37,32.85a2.86,2.86,0,0,0,.45-1.53A2.82,2.82,0,0,0,15,28.5H12.45a1,1,0,0,0-1,1v8a1,1,0,0,0,1,1h2.91a3.18,3.18,0,0,0,2-5.65ZM13.45,30.5H15a.82.82,0,0,1,0,1.64H13.45Zm1.91,6H13.45V34.14h1.91a1.18,1.18,0,1,1,0,2.36Z"/></g></svg>