<svg xmlns="http://www.w3.org/2000/svg" viewBox="0 0 48 48">
      <g id="Square"> </g>
  <path fill-rule="evenodd" d="M17.5 4a6.5 6.5 0 0 0 13 0h3a9.5 9.5 0 0 1-19 0h3ZM8.545 25.636A1.5 1.5 0 0 1 10 24.5h28a1.5 1.5 0 0 1 1.455 1.136l4 16A1.5 1.5 0 0 1 42 43.5H6a1.5 1.5 0 0 1-1.455-1.864l4-16ZM11.17 27.5 9.796 33h6.321l.688-5.5H11.17Zm-3.25 13L9.296 35h6.571l-.687 5.5H7.92Zm9.274 0 .688-5.5H23v5.5h-5.805Zm7.805 0V35h5.117l.688 5.5H25Zm0-7.5h4.867l-.687-5.5H25V33Zm7.82 7.5-.687-5.5h6.57l1.376 5.5H32.82Zm-.937-7.5h6.32l-1.374-5.5h-5.634l.688 5.5Zm-13.75 0H23v-5.5h-4.18l-.687 5.5ZM25 17a1 1 0 1 0-2 0v3a1 1 0 1 0 2 0v-3ZM7 5a1 1 0 0 1 1-1h3a1 1 0 1 1 0 2H8a1 1 0 0 1-1-1Zm30-1a1 1 0 1 0 0 2h3a1 1 0 1 0 0-2h-3ZM12.293 15.707a1 1 0 0 1 0-1.414l1.808-1.808a1 1 0 0 1 1.414 1.415l-1.808 1.807a1 1 0 0 1-1.414 0ZM33.9 12.485a1 1 0 0 0-1.415 1.415l1.808 1.807a1 1 0 0 0 1.414-1.414L33.9 12.485Z"/>
</svg>
