<svg xmlns="http://www.w3.org/2000/svg" viewBox="0 0 48 48"><defs><style>.cls-1{fill:none;}.cls-2{fill:#999;}</style></defs><title>User_Contact_Website_48px</title><g id="Square"><rect class="cls-1" width="48" height="48"/></g><g id="Name"><path class="cls-2" d="M24,4A20,20,0,1,0,44,24,20,20,0,0,0,24,4ZM37.38,34.46a30.11,30.11,0,0,0-4.13-1.1A33.53,33.53,0,0,0,34.47,25H41A17,17,0,0,1,37.38,34.46ZM7.05,25h6.48a33.53,33.53,0,0,0,1.22,8.36,30.11,30.11,0,0,0-4.13,1.1A17,17,0,0,1,7.05,25Zm3.57-11.46a30.11,30.11,0,0,0,4.13,1.1A33.53,33.53,0,0,0,13.53,23H7.05A17,17,0,0,1,10.62,13.54Zm20-.48a48.85,48.85,0,0,1-5.57.42V7.05c.42,0,.83.06,1.25.12C28,8.17,29.47,10.26,30.57,13.06ZM30.2,8.19a17,17,0,0,1,5.73,3.72,30.42,30.42,0,0,1-3.32.82A18.49,18.49,0,0,0,30.2,8.19ZM23,23H15.53a30.92,30.92,0,0,1,1.24-8,49.28,49.28,0,0,0,6.23.5Zm0,2v7.52a49.28,49.28,0,0,0-6.23.5,30.92,30.92,0,0,1-1.24-8Zm2,0h7.47a30.92,30.92,0,0,1-1.24,8,49.28,49.28,0,0,0-6.23-.5Zm0-2V15.48a49.28,49.28,0,0,0,6.23-.5,30.92,30.92,0,0,1,1.24,8ZM23,7.05v6.43a48.85,48.85,0,0,1-5.57-.42c1.1-2.8,2.61-4.89,4.32-5.89C22.17,7.11,22.58,7.08,23,7.05Zm-7.61,5.68a30.42,30.42,0,0,1-3.32-.82A17,17,0,0,1,17.8,8.19,18.49,18.49,0,0,0,15.39,12.73Zm0,22.54a18.49,18.49,0,0,0,2.41,4.54,17,17,0,0,1-5.73-3.72A30.42,30.42,0,0,1,15.39,35.27Zm2-.33A48.85,48.85,0,0,1,23,34.52V41c-.42,0-.83-.06-1.25-.12C20,39.83,18.53,37.74,17.43,34.94ZM25,41V34.52a48.85,48.85,0,0,1,5.57.42c-1.1,2.8-2.61,4.89-4.32,5.89C25.83,40.89,25.42,40.92,25,41Zm7.61-5.68a30.42,30.42,0,0,1,3.32.82,17,17,0,0,1-5.73,3.72A18.49,18.49,0,0,0,32.61,35.27ZM34.47,23a33.53,33.53,0,0,0-1.22-8.36,30.11,30.11,0,0,0,4.13-1.1A17,17,0,0,1,41,23Z"/></g></svg>