<svg xmlns="http://www.w3.org/2000/svg" viewBox="0 0 48 48"><defs><style>.cls-1{fill:none;}.cls-2{fill:#999;}</style></defs><title>User_Account_Customer--Collaborator_48px</title><g id="Square"><rect class="cls-1" width="48" height="48"/></g><g id="Icon"><path class="cls-2" d="M21,26A10.25,10.25,0,1,0,10.75,15.75,10.26,10.26,0,0,0,21,26ZM21,8.5a7.25,7.25,0,1,1-7.25,7.25A7.26,7.26,0,0,1,21,8.5Z"/><path class="cls-2" d="M43,27.5H24a1,1,0,0,0-1,1v1.31a14.09,14.09,0,0,1-9-1.7l-.58-.34L7.07,29.89A4.51,4.51,0,0,0,4,34.16v6.27l.83.41C5.09,41,11.26,44,21,44c.91,0,1.78,0,2.63-.08A.91.91,0,0,0,24,44H43a1,1,0,0,0,1-1V28.5A1,1,0,0,0,43,27.5Zm-36,11V34.16a1.48,1.48,0,0,1,1-1.42L13.1,31a17.1,17.1,0,0,0,9.9,1.8V41c-.65,0-1.31,0-2,0A38.65,38.65,0,0,1,7,38.52ZM42,42H25V29.5H42Z"/><path class="cls-2" d="M29.26,38.5h8.48a.82.82,0,0,0,.54-1.38l-4.06-4.3a1,1,0,0,0-1.44,0l-4.06,4.3A.82.82,0,0,0,29.26,38.5Z"/></g></svg>