<svg xmlns="http://www.w3.org/2000/svg" viewBox="0 0 48 48"><defs><style>.cls-1{fill:none;}.cls-2{fill:#999;}</style></defs><title>User_Card_IDCard_48px</title><g id="Square"><rect class="cls-1" width="48" height="48"/></g><g id="Icon"><path class="cls-2" d="M42,10H6a2,2,0,0,0-2,2V36a2,2,0,0,0,2,2H42a2,2,0,0,0,2-2V12A2,2,0,0,0,42,10ZM41,35H7V13H41Z"/><path class="cls-2" d="M17,26.5a5,5,0,0,1,4.93,4.15,1,1,0,0,0,1,.85h0a1,1,0,0,0,1-1.14,7,7,0,0,0-4.66-5.48,4.5,4.5,0,1,0-4.5,0,7,7,0,0,0-4.66,5.48,1,1,0,0,0,1,1.14h0a1,1,0,0,0,1-.85A5,5,0,0,1,17,26.5Zm0-8A2.5,2.5,0,1,1,14.5,21,2.5,2.5,0,0,1,17,18.5Z"/><rect class="cls-2" x="26" y="18" width="12" height="2" rx="1"/><rect class="cls-2" x="26" y="23" width="12" height="2" rx="1"/></g></svg>