<svg xmlns="http://www.w3.org/2000/svg" viewBox="0 0 48 48"><defs><style>.cls-1{fill:none;}.cls-2{fill:#999;}</style></defs><title>User_Account_Profile--View_48px</title><g id="Square"><rect class="cls-1" width="48" height="48"/></g><g id="Icon"><path class="cls-2" d="M24,25A10.5,10.5,0,1,1,34.5,14.5,10.51,10.51,0,0,1,24,25ZM24,7a7.5,7.5,0,1,0,7.5,7.5A7.5,7.5,0,0,0,24,7Z"/><path class="cls-2" d="M39,44H9a2,2,0,0,1-2-2V31.36a2,2,0,0,1,1.37-1.9l7.16-2.39a2,2,0,0,1,1.58.14,14.41,14.41,0,0,0,13.77,0,2,2,0,0,1,1.6-.15l7.15,2.39A2,2,0,0,1,41,31.36V42A2,2,0,0,1,39,44ZM10,41H38V32.08l-6.06-2a17.5,17.5,0,0,1-15.88,0l-6.06,2ZM31.52,29.92h0Zm-15,0h0Z"/></g></svg>