<svg xmlns="http://www.w3.org/2000/svg" viewBox="0 0 48 48"><defs><style>.cls-1{fill:none;}.cls-2{fill:#999;}</style></defs><title>User_Card_Gift_48px</title><g id="Square"><rect class="cls-1" width="48" height="48"/></g><g id="Icon"><path class="cls-2" d="M39,16H34.79a5.76,5.76,0,0,0,.8-1.74,5.75,5.75,0,1,0-11.11-3L24,13l-.47-1.75A5.75,5.75,0,1,0,13.23,16H9a2,2,0,0,0-2,2V39a2,2,0,0,0,2,2H39a2,2,0,0,0,2-2V18A2,2,0,0,0,39,16ZM38,27H25.5V19.06l0-.07H38ZM29.32,10.1a2.75,2.75,0,0,1,1.43,5.32L28.62,16h-2.3l1.06-3.94A2.72,2.72,0,0,1,29.32,10.1Zm-12,5.32a2.75,2.75,0,1,1,3.37-3.37L21.7,16H19.41ZM22.5,19v8H10V19ZM10,38V30H22.5v8Zm15.5,0V30H38v8Z"/></g></svg>