<svg xmlns="http://www.w3.org/2000/svg" viewBox="0 0 48 48"><defs><style>.cls-1{fill:none;}.cls-2{fill:#999;}</style></defs><title>Various_ToolBox_48px</title><g id="Square"><rect class="cls-1" width="48" height="48"/></g><g id="Icon"><path class="cls-2" d="M38,13H33.5V9A3.5,3.5,0,0,0,30,5.5H18A3.5,3.5,0,0,0,14.5,9v4H10a6,6,0,0,0-6,6V39a2,2,0,0,0,2,2H42a2,2,0,0,0,2-2V19A6,6,0,0,0,38,13ZM17.5,9a.5.5,0,0,1,.5-.5H30a.5.5,0,0,1,.5.5v4h-13ZM10,16H38a3,3,0,0,1,3,3v6.1H33V23a1,1,0,0,0-2,0v2.1H17V23a1,1,0,0,0-2,0v2.1H7V19A3,3,0,0,1,10,16ZM7,38V27.1h8V29a1,1,0,0,0,2,0V27.1H31V29a1,1,0,0,0,2,0V27.1h8V38Z"/></g></svg>