<svg xmlns="http://www.w3.org/2000/svg" viewBox="0 0 48 48"><defs><style>.cls-1{fill:none;}.cls-2{fill:#999;}</style></defs><title>Various_Heat_48px</title><g id="Square"><rect class="cls-1" width="48" height="48"/></g><g id="Icon"><path class="cls-2" d="M23.8,16.5a1.52,1.52,0,0,1-1.34-.82,6.7,6.7,0,0,1,.25-6.44,3.7,3.7,0,0,0,.15-3.56,1.5,1.5,0,1,1,2.68-1.36,6.7,6.7,0,0,1-.25,6.44,3.7,3.7,0,0,0-.15,3.56A1.5,1.5,0,0,1,23.8,16.5Z"/><path class="cls-2" d="M31.3,16.5A1.52,1.52,0,0,1,30,15.68a6.7,6.7,0,0,1,.25-6.44,3.7,3.7,0,0,0,.15-3.56A1.5,1.5,0,1,1,33,4.32a6.7,6.7,0,0,1-.25,6.44,3.7,3.7,0,0,0-.15,3.56A1.5,1.5,0,0,1,31.3,16.5Z"/><path class="cls-2" d="M16.3,16.5A1.52,1.52,0,0,1,15,15.68a6.7,6.7,0,0,1,.25-6.44,3.7,3.7,0,0,0,.15-3.56A1.5,1.5,0,1,1,18,4.32a6.7,6.7,0,0,1-.25,6.44,3.7,3.7,0,0,0-.15,3.56A1.5,1.5,0,0,1,16.3,16.5Z"/><path class="cls-2" d="M39.5,21.5l-.25,0A5,5,0,0,0,31,19.44a5,5,0,0,0-7,0,5,5,0,0,0-7,0A5,5,0,0,0,8.5,23V39A5,5,0,0,0,17,42.56a5,5,0,0,0,7,0,5,5,0,0,0,7,0A5,5,0,0,0,39.5,39V30.5a4.5,4.5,0,0,0,0-9ZM15.5,39a2,2,0,0,1-4,0V23a2,2,0,0,1,4,0Zm7,0a2,2,0,0,1-4,0V23a2,2,0,0,1,4,0Zm7,0a2,2,0,0,1-4,0V23a2,2,0,0,1,4,0Zm7,0a2,2,0,0,1-4,0V23a2,2,0,0,1,4-.3,4.44,4.44,0,0,0,0,6.63Zm3-11.5A1.5,1.5,0,1,1,41,26,1.5,1.5,0,0,1,39.5,27.5Z"/></g></svg>