<svg xmlns="http://www.w3.org/2000/svg" viewBox="0 0 48 48"><defs><style>.cls-1{fill:none;}.cls-2{fill:#999;}</style></defs><title>Various_Apartment_48px</title><g id="Square"><rect class="cls-1" width="48" height="48"/></g><g id="Icon"><path class="cls-2" d="M42.5,41H38V10.5a2,2,0,0,0-2-2H35V5a2,2,0,0,0-2-2H15a2,2,0,0,0-2,2V8.5H12a2,2,0,0,0-2,2V41H5.5a1.5,1.5,0,0,0,0,3h37a1.5,1.5,0,0,0,0-3ZM16,6H32V8.5H16ZM27.5,41h-7V33h7Zm2,0V32a1,1,0,0,0-1-1h-9a1,1,0,0,0-1,1v9H13V11.5H35V41Z"/><path class="cls-2" d="M21,25H17.5a1,1,0,0,0,0,2H21a1,1,0,0,0,0-2Z"/><path class="cls-2" d="M30.5,25H27a1,1,0,0,0,0,2h3.5a1,1,0,0,0,0-2Z"/><path class="cls-2" d="M21,20H17.5a1,1,0,0,0,0,2H21a1,1,0,0,0,0-2Z"/><path class="cls-2" d="M30.5,20H27a1,1,0,0,0,0,2h3.5a1,1,0,0,0,0-2Z"/><path class="cls-2" d="M21,15H17.5a1,1,0,0,0,0,2H21a1,1,0,0,0,0-2Z"/><path class="cls-2" d="M30.5,15H27a1,1,0,0,0,0,2h3.5a1,1,0,0,0,0-2Z"/></g></svg>