<svg xmlns="http://www.w3.org/2000/svg" viewBox="0 0 48 48"><defs><style>.cls-1{fill:none;}.cls-2{fill:#999;}</style></defs><title>Various_IncreaseValue_48px</title><g id="Square"><rect class="cls-1" width="48" height="48"/></g><g id="Icon"><path class="cls-2" d="M42.5,41H7V5.5a1.5,1.5,0,0,0-3,0v37A1.5,1.5,0,0,0,5.5,44h37a1.5,1.5,0,0,0,0-3Z"/><path class="cls-2" d="M13.5,35a1.5,1.5,0,0,0,0,3,26,26,0,0,0,26-25.67l1.94,2a1.5,1.5,0,0,0,2.12,0,1.5,1.5,0,0,0,0-2.12L39.15,7.7a1.5,1.5,0,0,0-2.1,0L32.47,12a1.5,1.5,0,1,0,2.06,2.17l2-1.85A23,23,0,0,1,13.5,35Z"/><path class="cls-2" d="M11.12,16a1,1,0,0,0,1,1h1.44a7.48,7.48,0,0,0,12.11,3,1,1,0,0,0,.07-1.42,1,1,0,0,0-1.41-.06A5.49,5.49,0,0,1,15.73,17h6.39a1,1,0,1,0,0-2h-7c0-.17,0-.33,0-.5s0-.33,0-.5h7a1,1,0,1,0,0-2H15.73a5.49,5.49,0,0,1,8.6-1.56,1,1,0,0,0,1.41-.06A1,1,0,0,0,25.67,9a7.48,7.48,0,0,0-12.11,3H12.12a1,1,0,1,0,0,2h1c0,.17,0,.33,0,.5s0,.33,0,.5h-1A1,1,0,0,0,11.12,16Z"/></g></svg>