<svg xmlns="http://www.w3.org/2000/svg" viewBox="0 0 48 48"><defs><style>.cls-1{fill:none;}.cls-2{fill:#999;}</style></defs><title>Various_ThermalControl_48px</title><g id="Square"><rect class="cls-1" width="48" height="48"/></g><g id="Icon"><path class="cls-2" d="M27.25,40.66A17,17,0,0,1,12.77,11.24v3a1.5,1.5,0,0,0,1.5,1.5h0a1.5,1.5,0,0,0,1.5-1.5V7.73a1.5,1.5,0,0,0-1.5-1.5H7.72a1.5,1.5,0,1,0,0,3h2.81A20,20,0,0,0,24,44a19.52,19.52,0,0,0,3.78-.37,1.5,1.5,0,0,0-.57-2.94Z"/><path class="cls-2" d="M40.28,38.78H37.47A20,20,0,0,0,20.22,4.37a1.5,1.5,0,1,0,.57,2.94A17,17,0,0,1,35.23,36.76v-3a1.5,1.5,0,0,0-1.5-1.5h0a1.5,1.5,0,0,0-1.5,1.5v6.55a1.5,1.5,0,0,0,1.5,1.5h6.56a1.5,1.5,0,0,0,0-3Z"/><path class="cls-2" d="M25,26.19V20.94H23v5.24l-.15.05a3.74,3.74,0,0,0-.52.28,3.16,3.16,0,0,0-.45.37A3,3,0,0,0,21,29a3,3,0,0,0,.06.59,2.78,2.78,0,0,0,.17.56,3.67,3.67,0,0,0,.27.52,3.23,3.23,0,0,0,.38.45,3.16,3.16,0,0,0,.45.37,3.74,3.74,0,0,0,.52.28,3.62,3.62,0,0,0,.56.17,3,3,0,0,0,2.71-.82,3,3,0,0,0,0-4.24A3,3,0,0,0,25,26.19Z"/><path class="cls-2" d="M28,24.55V17a4,4,0,0,0-8,0v7.55A5.93,5.93,0,0,0,18,29a6,6,0,0,0,12,0A5.93,5.93,0,0,0,28,24.55ZM24,33a4,4,0,0,1-2.4-7.18l.4-.3V17a2,2,0,0,1,4,0v8.52l.4.3A4,4,0,0,1,24,33Z"/></g></svg>