<svg xmlns="http://www.w3.org/2000/svg" viewBox="0 0 48 48"><defs><style>.cls-1{fill:none;}.cls-2{fill:#999;}</style></defs><title>Various_Administration_48px</title><g id="Square"><rect class="cls-1" width="48" height="48"/></g><g id="Icon"><path class="cls-2" d="M42.5,41H41V37a2,2,0,0,0-2-2H38V22h4a2,2,0,0,0,1.22-3.58l-18-13.87h0a2,2,0,0,0-2.44,0l-18,13.87A2,2,0,0,0,6,22h4V35H9a2,2,0,0,0-2,2v4H5.5a1.5,1.5,0,0,0,0,3h37a1.5,1.5,0,0,0,0-3ZM35,35H31V22h4ZM23,22V35H19V22Zm2,0h4V35H25ZM24,7.39,39.09,19H8.91ZM13,22h4V35H13ZM10,41V38H38v3Z"/><path class="cls-2" d="M24,11.5a3,3,0,1,0,3,3A3,3,0,0,0,24,11.5Zm0,4a1,1,0,1,1,1-1A1,1,0,0,1,24,15.5Z"/></g></svg>