<svg xmlns="http://www.w3.org/2000/svg" viewBox="0 0 48 48"><defs><style>.cls-1{fill:none;}.cls-2{fill:#999;}</style></defs><title>Various_PaintCan_48px</title><g id="Square"><rect class="cls-1" width="48" height="48"/></g><g id="Icon"><path class="cls-2" d="M44,13.5a21.93,21.93,0,0,0-.31-3.62A3.5,3.5,0,0,0,40.24,7H39.5V6a2,2,0,0,0-2-2h-27a2,2,0,0,0-2,2V7H7.76A3.48,3.48,0,0,0,4.31,9.88,21.93,21.93,0,0,0,4,13.5,19.92,19.92,0,0,0,8.5,26.12V42a2,2,0,0,0,2,2h27a2,2,0,0,0,2-2V26.12A19.92,19.92,0,0,0,44,13.5ZM40.24,10a.5.5,0,0,1,.49.39A18,18,0,0,1,41,13.5a16.83,16.83,0,0,1-1.5,7V10ZM11.5,13h3v6.5a4.5,4.5,0,0,0,9,0V13h13V25a16.91,16.91,0,0,1-25,0Zm25-6v3h-16v9.5a1.5,1.5,0,0,1-3,0V10h-6V7ZM7,13.5a18,18,0,0,1,.27-3.11A.5.5,0,0,1,7.76,10H8.5V20.45A16.83,16.83,0,0,1,7,13.5ZM11.5,41V29.09a19.92,19.92,0,0,0,25,0V41Z"/></g></svg>