<svg viewBox="0 0 69 68" xmlns="http://www.w3.org/2000/svg">
<g id="Square"> </g>
<path fill-rule="evenodd" clip-rule="evenodd" d="M35.5738 5.84783C36.1729 6.48077 36.7678 7.11793 37.3576 7.75068L38.3204 8.75992C38.3939 8.83692 38.4625 8.91901 38.5154 8.99228L36.8093 10.7955C35.4711 9.33755 32.7038 6.20736 32.5911 6.07987L32.5906 6.2888L32.5911 6.32278L32.5905 26.8888H30.2178V6.32278L30.2183 6.28886L30.2177 6.07987C30.105 6.20736 27.3377 9.33755 25.9994 10.7955C25.3636 10.1235 24.8233 9.55244 24.2933 8.97851C24.309 8.96085 24.3261 8.94119 24.3443 8.92027C24.3874 8.87072 24.4367 8.81406 24.4883 8.75992L25.4512 7.75062C26.0409 7.1179 26.6359 6.48077 27.235 5.84783C28.05 4.98674 28.871 4.1319 29.692 3.27707C29.9322 3.02698 30.1723 2.7769 30.4124 2.52666C30.7536 2.17091 31.0788 1.99547 31.4044 2.00009C31.7301 1.99547 32.0553 2.17091 32.3965 2.52666C32.6365 2.77688 32.8766 3.02693 33.1168 3.27699C33.9378 4.13185 34.7588 4.98671 35.5738 5.84783ZM23.5854 27.2639H9.30146C8.14604 27.2639 7.01442 26.9392 6.03503 26.3457V58.666C6.03503 61.011 7.9308 62.9185 10.2632 62.9185H54.4672C55.7388 62.9185 56.7735 61.8769 56.7735 60.5966V57.8556C56.7735 57.0051 57.4623 56.3149 58.3111 56.3149C59.1598 56.3149 59.8486 57.0051 59.8486 57.8556V60.5966C59.8486 63.5764 57.4347 66 54.4672 66H10.2632C6.23643 66 2.95996 62.7105 2.95996 58.666V21.3187C2.95996 21.266 2.9626 21.214 2.96776 21.1626C2.95274 20.8557 2.95932 20.5461 2.98826 20.2359C3.29116 16.9882 6.15716 14.4445 9.50903 14.4445H23.5854C24.4341 14.4445 25.1229 15.1185 25.1229 15.9488C25.1229 16.7791 24.4341 17.453 23.5854 17.453H9.50903C7.73008 17.453 6.21098 18.7963 6.04953 20.5097C5.95728 21.5145 6.28786 22.5028 6.95822 23.2219C7.5794 23.8883 8.41275 24.2553 9.30146 24.2553H23.5854C24.4341 24.2553 25.1229 24.9292 25.1229 25.7596C25.1229 26.5899 24.4341 27.2639 23.5854 27.2639ZM58.311 34C57.4623 34 56.7735 33.3261 56.7735 32.4957V29.6827C56.7735 28.3499 55.7402 27.2639 54.4671 27.2639H38.5458C37.697 27.2639 37.0082 26.5899 37.0082 25.7596C37.0082 24.9292 37.697 24.2553 38.5458 24.2553H52.9296V19.8734C52.9296 18.5391 51.8963 17.453 50.6232 17.453H37.9307C37.082 17.453 36.3932 16.7791 36.3932 15.9488C36.3932 15.1185 37.082 14.4445 37.9307 14.4445H50.6232C53.5907 14.4445 56.0047 16.8799 56.0047 19.8734V24.32C56.0047 24.3741 56.0016 24.4268 55.997 24.4779C58.2218 25.1443 59.8486 27.2262 59.8486 29.6827V32.4957C59.8486 33.3261 59.1613 34 58.311 34ZM40.5885 39.0371C38.8324 39.0371 37.1582 39.8568 35.9941 41.2876C34.81 42.7429 34.2921 44.6772 34.5719 46.5969C35.0279 49.7193 37.7131 52.0741 40.8158 52.0741H63.5094C63.7072 52.0741 63.868 51.8916 63.868 51.6667V39.4445C63.868 39.2196 63.7057 39.0371 63.5047 39.0371H40.5885ZM63.5094 55.3333H40.8157C36.2013 55.3333 32.202 51.7906 31.5157 47.0923C31.0983 44.2323 31.8758 41.3446 33.6474 39.1658C35.4005 37.0131 37.9296 35.7778 40.5885 35.7778H63.5047C65.4093 35.7778 66.9598 37.4221 66.9598 39.4445V51.6667C66.9598 53.689 65.4124 55.3333 63.5094 55.3333ZM41.1817 44.0743C40.3654 44.0743 39.7002 44.7395 39.7002 45.5558C39.7002 46.3721 40.3654 47.0373 41.1817 47.0373C41.998 47.0373 42.6632 46.3721 42.6632 45.5558C42.6632 44.7395 41.998 44.0743 41.1817 44.0743ZM41.1817 50.0002C38.7313 50.0002 36.7373 48.0061 36.7373 45.5558C36.7373 43.1054 38.7313 41.1113 41.1817 41.1113C43.6321 41.1113 45.6262 43.1054 45.6262 45.5558C45.6262 48.0061 43.6321 50.0002 41.1817 50.0002Z" fill="#666666"/>
</svg>
