<svg xmlns="http://www.w3.org/2000/svg" viewBox="0 0 225 65">
    <g id="Square"> </g>
  <path fill-rule="evenodd" d="M11 32.997H5a3 3 0 0 1-2.79-1.92 3 3 0 0 1 .81-3.33L30.022 3.744a3 3 0 0 1 3.96 0l27.002 24.001a3 3 0 0 1 .81 3.33 3 3 0 0 1-2.79 1.92h-6v15.002h1.5a3 3 0 1 1 0 6H9.5a3 3 0 1 1 0-6H11v-15Zm6.001 0v15h6v-15h-6Zm12 15v-15h6.001v15h-6Zm12.001 0h6v-15h-6v15Zm-9-37.982 19.111 16.981H12.891L32 10.016ZM2 59.998a3 3 0 0 1 3-3h54.004a3 3 0 1 1 0 6H5a3 3 0 0 1-3-3Zm30.002-36.002a4.5 4.5 0 1 0 0-9 4.5 4.5 0 0 0 0 9Zm73.575 6.39c-5.28 0-8.85-3.72-8.85-10.83 0-7.08 3.57-10.8 8.85-10.8 5.281 0 8.851 3.72 8.851 10.8 0 7.11-3.57 10.83-8.851 10.83Zm0-4.08c2.34 0 4.11-1.77 4.11-6.75 0-4.95-1.77-6.72-4.11-6.72-2.37 0-4.11 1.77-4.11 6.72 0 4.98 1.74 6.75 4.11 6.75Zm-26.201 3.69V9.146h7.56c2.94 0 6.87.81 6.87 5.34 0 3.06-1.77 4.2-3 4.83v.03c1.23.42 3.36 1.8 3.36 4.8 0 4.5-3.15 5.85-7.38 5.85h-7.41Zm4.65-12.48h2.49c1.62 0 2.49-.81 2.49-2.28 0-1.5-1.02-2.1-2.49-2.1h-2.49v4.38Zm0 8.49h2.67c1.59 0 2.64-.66 2.64-2.25 0-1.53-1.08-2.25-2.67-2.25h-2.64v4.5Zm34.111-16.86v20.85h4.65v-12.57l7.921 12.57h4.32V9.146h-4.65v12.54l-7.921-12.54h-4.32Zm21.623 20.85V9.146h4.651v20.85h-4.651Zm9.434-20.85v20.85h4.65v-7.98h7.171v-3.87h-7.171v-5.01h8.641v-3.99h-13.291Zm16.319 20.85V9.146h4.65v20.85h-4.65Zm8.415-10.41c0 7.17 4.05 10.8 9.42 10.8 4.321 0 6.991-2.52 7.741-5.19l-4.26-1.26c-.57 1.35-1.56 2.37-3.391 2.37-2.82 0-4.77-1.98-4.77-6.72 0-4.71 1.86-6.75 4.68-6.75 1.861 0 2.821 1.02 3.391 2.37l4.26-1.26c-.75-2.67-3.42-5.19-7.741-5.19-5.31 0-9.33 3.69-9.33 10.83Zm27.807 10.8c-5.281 0-8.851-3.72-8.851-10.83 0-7.08 3.57-10.8 8.851-10.8 5.28 0 8.85 3.72 8.85 10.8 0 7.11-3.57 10.83-8.85 10.83Zm0-4.08c2.34 0 4.11-1.77 4.11-6.75 0-4.95-1.77-6.72-4.11-6.72-2.371 0-4.111 1.77-4.111 6.72 0 4.98 1.74 6.75 4.111 6.75ZM79.375 39.147v20.851h7.411c4.23 0 7.38-1.35 7.38-5.85 0-3-2.13-4.38-3.36-4.8v-.03c1.23-.63 3-1.77 3-4.83 0-4.53-3.93-5.341-6.87-5.341h-7.56Zm7.141 8.37h-2.49v-4.38h2.49c1.47 0 2.49.6 2.49 2.1 0 1.47-.87 2.28-2.49 2.28Zm.18 8.491h-2.67v-4.5h2.64c1.59 0 2.67.72 2.67 2.25 0 1.59-1.05 2.25-2.64 2.25Zm22.513 3.99-1.08-3.87h-6.631l-1.05 3.87h-4.8l6.33-20.851h5.941l6.3 20.851h-5.01Zm-6.661-7.83h4.47l-2.28-8.07-2.19 8.07Zm14.417-13.021v20.851h4.65v-12.57l7.921 12.57h4.32V39.147h-4.65v12.54l-7.921-12.54h-4.32Zm30.024 21.241c-5.371 0-9.421-3.63-9.421-10.8 0-7.14 4.02-10.831 9.331-10.831 4.32 0 6.99 2.52 7.74 5.19l-4.26 1.26c-.57-1.35-1.53-2.37-3.39-2.37-2.82 0-4.68 2.04-4.68 6.75 0 4.741 1.95 6.721 4.77 6.721 1.83 0 2.82-1.02 3.39-2.37l4.26 1.26c-.75 2.67-3.42 5.19-7.74 5.19Zm21.378-4.26 1.08 3.87h5.01l-6.3-20.851h-5.941l-6.33 20.851h4.8l1.05-3.87h6.631Zm-1.11-3.96h-4.471l2.191-8.07 2.28 8.07Zm25.667 7.83h-5.49l-3.42-7.02h-2.16v7.02h-4.651V39.147h7.441c4.02 0 7.56 2.19 7.56 6.84 0 2.91-1.32 4.98-3.48 6.09l4.2 7.921Zm-11.07-16.86v5.85h2.37c1.71 0 3.21-.69 3.21-2.97 0-2.04-1.26-2.88-3-2.88h-2.58Zm14.189-3.991v20.851h4.65V39.147h-4.65Zm17.264 21.241c-5.28 0-8.85-3.72-8.85-10.83 0-7.08 3.57-10.801 8.85-10.801 5.281 0 8.851 3.72 8.851 10.8 0 7.111-3.57 10.831-8.851 10.831Zm0-4.08c2.341 0 4.111-1.77 4.111-6.75 0-4.95-1.77-6.72-4.111-6.72-2.37 0-4.11 1.77-4.11 6.72 0 4.98 1.74 6.75 4.11 6.75Z"/>
</svg>
