<svg xmlns="http://www.w3.org/2000/svg" viewBox="0 0 314 65">
      <g id="Square"> </g>
  <path fill="#1D1D1B" d="M130.046 20.533c0-.69.276-1.352.766-1.84a2.62 2.62 0 0 1 3.696 0c.49.488.765 1.15.765 1.84v14.05a11.65 11.65 0 0 1-3.43 8.237 11.757 11.757 0 0 1-8.269 3.426 11.755 11.755 0 0 1-8.274-3.415 11.651 11.651 0 0 1-3.442-8.233v-14.05a2.609 2.609 0 0 1 .689-1.967 2.606 2.606 0 0 1 1.917-.834 2.628 2.628 0 0 1 1.918.834 2.586 2.586 0 0 1 .688 1.967v14.05a6.522 6.522 0 0 0 1.928 4.566 6.58 6.58 0 0 0 4.591 1.909 6.548 6.548 0 0 0 4.595-1.911 6.49 6.49 0 0 0 1.908-4.579l-.046-14.05Zm24.722 20.524c.694 0 1.358.274 1.849.762a2.596 2.596 0 0 1 0 3.68 2.622 2.622 0 0 1-1.849.762h-7.256a9.814 9.814 0 0 1-6.925-2.856 9.727 9.727 0 0 1-2.869-6.894V20.532c0-.686.274-1.343.761-1.829a2.606 2.606 0 0 1 3.675 0c.487.486.761 1.143.761 1.83V36.48c0 1.218.486 2.385 1.351 3.246a4.622 4.622 0 0 0 3.261 1.345h7.241v-.015Zm-43.924 2.311a2.585 2.585 0 0 1-.471 2.01 2.602 2.602 0 0 1-1.793 1.038 2.626 2.626 0 0 1-1.987-.59 2.595 2.595 0 0 1-.93-1.845l-2.23-18.719-7.979 18.367a2.609 2.609 0 0 1-1.431 1.386 2.625 2.625 0 0 1-1.998-.024 2.561 2.561 0 0 1-1.352-1.362l-7.98-18.367-2.244 18.719a2.592 2.592 0 0 1-.93 1.845 2.617 2.617 0 0 1-1.988.59 2.622 2.622 0 0 1-1.793-1.037 2.595 2.595 0 0 1-.47-2.01l2.629-21.734a4.167 4.167 0 0 1 .737-1.902c.4-.563.933-1.02 1.553-1.328.164-.088.333-.165.508-.23h.2a3.41 3.41 0 0 1 .768-.168 4.462 4.462 0 0 1 3.644 1.148 4.269 4.269 0 0 1 .83 1.087c.057.094.109.19.154.29l6.765 15.612L99.82 20.41a4.283 4.283 0 0 1 1.237-1.603 4.313 4.313 0 0 1 1.838-.861 6.18 6.18 0 0 1 .769-.107h.799a4.407 4.407 0 0 1 3.26 2.066c.145.236.264.488.353.75.065.163.111.332.139.505.007.112.007.225 0 .337l2.629 21.871Zm55.301.292c0 .69-.275 1.351-.765 1.839a2.621 2.621 0 0 1-3.697 0 2.596 2.596 0 0 1-.765-1.84V23.135h-7.426a2.62 2.62 0 0 1-1.848-.763 2.597 2.597 0 0 1-.766-1.84 2.6 2.6 0 0 1 .766-1.84 2.62 2.62 0 0 1 1.848-.761h20.079a2.62 2.62 0 0 1 1.848.762 2.597 2.597 0 0 1 0 3.68 2.62 2.62 0 0 1-1.848.761h-7.426V43.66Zm16.297 0c0 .69-.275 1.351-.765 1.839a2.622 2.622 0 0 1-3.697 0 2.596 2.596 0 0 1-.765-1.84V20.533c0-.69.275-1.352.765-1.84a2.621 2.621 0 0 1 3.697 0c.49.488.765 1.15.765 1.84v23.126Zm53.518-.291a2.587 2.587 0 0 1-.595 1.831 2.624 2.624 0 0 1-3.567.432 2.601 2.601 0 0 1-1.019-1.636l-.922-7.346h-8.979a2.623 2.623 0 0 1-1.976-.686 2.6 2.6 0 0 1-.838-1.909 2.595 2.595 0 0 1 .838-1.909 2.613 2.613 0 0 1 1.976-.685h8.395l-.246-1.913v-.184a10.44 10.44 0 0 0-.292-1.331 8.668 8.668 0 0 0-.539-1.363 5.914 5.914 0 0 0-2.133-2.516 5.956 5.956 0 0 0-3.155-.989 6.188 6.188 0 0 0-1.323.154c-.406.1-.798.25-1.168.443a7.292 7.292 0 0 0-2.538 2.443 7.238 7.238 0 0 0-1.09 3.343l-1.63 14.448a2.574 2.574 0 0 1-.958 1.735 2.605 2.605 0 0 1-4.12-1.296 2.588 2.588 0 0 1-.088-1.005l1.63-14.448a12.393 12.393 0 0 1 1.976-5.735 12.46 12.46 0 0 1 4.466-4.122c.734-.367 1.507-.65 2.306-.842a11.29 11.29 0 0 1 2.537-.29 11.03 11.03 0 0 1 5.901 1.748 10.954 10.954 0 0 1 4.03 4.634c.357.71.655 1.446.892 2.204.2.697.349 1.408.446 2.127a.591.591 0 0 1 0 .23l1.783 14.433Zm7.98.291a2.601 2.601 0 0 1-1.56 2.584 2.623 2.623 0 0 1-2.964-.617 2.601 2.601 0 0 1-.688-1.968V22.232a2.059 2.059 0 0 1 0-.444 3.75 3.75 0 0 1 .2-.842l.215-.46a3.75 3.75 0 0 1 2.045-1.698l.354-.092h.968a3.704 3.704 0 0 1 2.752 1.408l13.837 17.647V20.533c0-.69.276-1.352.766-1.84a2.62 2.62 0 0 1 3.696 0c.49.488.765 1.15.765 1.84V41.96a3.653 3.653 0 0 1-1.368 2.832 3.335 3.335 0 0 1-.861.52l-.215.092a3.69 3.69 0 0 1-2.798-.153l-.338-.168a3.079 3.079 0 0 1-.508-.398 3.533 3.533 0 0 1-.338-.337l-.092-.107-13.868-17.709V43.66Zm40.773-2.603a2.62 2.62 0 0 1 1.848.762c.49.488.766 1.15.766 1.84 0 .69-.276 1.352-.766 1.84a2.62 2.62 0 0 1-1.848.762h-7.687a10.309 10.309 0 0 1-7.273-2.999 10.216 10.216 0 0 1-3.013-7.24V28.2a10.247 10.247 0 0 1 3.022-7.232 10.34 10.34 0 0 1 7.264-3.008h7.687a2.62 2.62 0 0 1 1.848.763c.49.488.766 1.15.766 1.84a2.6 2.6 0 0 1-.766 1.84 2.62 2.62 0 0 1-1.848.761h-7.687a5.13 5.13 0 0 0-3.598 1.53 5.023 5.023 0 0 0-1.129 1.63 4.986 4.986 0 0 0-.408 1.937v7.821a5.083 5.083 0 0 0 1.499 3.574 5.132 5.132 0 0 0 3.59 1.492h7.687l.046-.092Zm15.113-17.937a7.122 7.122 0 0 0-4.936 1.958 6.366 6.366 0 0 0-2.014 4.592v4.852a6.347 6.347 0 0 0 1.999 4.592 7.122 7.122 0 0 0 4.935 1.959 7.118 7.118 0 0 0 4.935-1.96 6.352 6.352 0 0 0 2.015-4.591V29.67a6.395 6.395 0 0 0-1.999-4.592 7.198 7.198 0 0 0-4.951-1.959m0-5.188a12.328 12.328 0 0 1 8.548 3.398 11.518 11.518 0 0 1 2.664 3.794c.621 1.431.944 2.973.949 4.532v4.852a11.477 11.477 0 0 1-.949 4.531 11.52 11.52 0 0 1-2.664 3.795 12.328 12.328 0 0 1-8.548 3.398 12.33 12.33 0 0 1-8.548-3.398 11.579 11.579 0 0 1-2.652-3.798 11.51 11.51 0 0 1-.945-4.528v-4.852c.005-1.558.327-3.098.945-4.529a11.577 11.577 0 0 1 2.652-3.797 12.33 12.33 0 0 1 8.548-3.398Zm-109.973 5.203v17.923h10.086a3.284 3.284 0 0 0 3.03-2.023 3.24 3.24 0 0 0 .244-1.252 3.236 3.236 0 0 0-.86-2.204l-.108-.092a3.217 3.217 0 0 0-2.306-.98h-3.475a2.62 2.62 0 0 1-1.848-.762 2.596 2.596 0 0 1 0-3.68 2.62 2.62 0 0 1 1.848-.761h1.184a3.22 3.22 0 0 0 1.968-.903 3.045 3.045 0 0 0 .922-2.189c0-.812-.324-1.59-.9-2.165a3.083 3.083 0 0 0-2.175-.896h-7.61v-.015Zm-5.227 8.801V20.64a2.499 2.499 0 0 1 .215-1.026c.145-.334.348-.64.6-.903a2.678 2.678 0 0 1 1.722-.734h10.224c2.206 0 4.321.872 5.881 2.425a8.26 8.26 0 0 1 2.436 5.855 8.349 8.349 0 0 1-1.276 4.408 8.33 8.33 0 0 1 1.537 1.163l.17.184a8.397 8.397 0 0 1 2.321 5.8 8.443 8.443 0 0 1-2.49 5.97 8.522 8.522 0 0 1-5.997 2.48h-12.729a2.622 2.622 0 0 1-1.849-.763 2.596 2.596 0 0 1-.765-1.84V31.935Z"/>
  <path fill="#3D73B9" fill-rule="evenodd" d="M33.214 62.002h25.929c5.916 0 5.978-6.263 5.374-9.353-.33-2.08-3.878-2.047-4.268 0v2.41a2.005 2.005 0 0 1-.592 1.418 2.02 2.02 0 0 1-1.423.588H8.531a2.023 2.023 0 0 1-1.423-.588 2.005 2.005 0 0 1-.592-1.417v-2.411c-.39-2.047-3.939-2.08-4.268 0-.604 3.09-.542 9.353 5.374 9.353h25.592Zm-18.326-60h39.974c2.809 0 5.107 2.423 5.107 5.383v2.57c0 3.635-4.934 3.619-4.934.025v-1.4c0-.434-.173-.85-.482-1.158a1.648 1.648 0 0 0-1.163-.48H13.334c-.436 0-.855.173-1.163.48a1.634 1.634 0 0 0-.482 1.158v1.375c0 3.615-4.712 3.59-4.712.078V7.39c.012-2.96 2.307-5.387 5.115-5.387h2.796Z"/>
  <path fill="#1D1D1B" fill-rule="evenodd" d="M58.963 31.56a7.894 7.894 0 0 1 3.37 2.846 7.842 7.842 0 0 1 1.309 4.203c0 4.33-3.8 7.875-8.442 7.875H42.178a2.156 2.156 0 0 1-1.527-.572 2.137 2.137 0 0 1-.685-1.475V19.763a2.165 2.165 0 0 1 .64-1.527c.408-.405.96-.633 1.535-.634h10.843a8.303 8.303 0 0 1 4.574 1.36 8.248 8.248 0 0 1 3.059 3.648 8.206 8.206 0 0 1-1.654 8.95Zm-9.717-2.006h4.133v-.045a3.956 3.956 0 0 0 2.384-1.322 3.93 3.93 0 0 0 .955-2.546 3.917 3.917 0 0 0-1.155-2.764 3.952 3.952 0 0 0-2.776-1.15H44.46v20.467h10.555a4.081 4.081 0 0 0 2.956-1.137 4.044 4.044 0 0 0 1.236-2.905 4.029 4.029 0 0 0-1.236-2.905 4.066 4.066 0 0 0-2.956-1.137h-5.769a2.29 2.29 0 0 1-1.613-.665 2.272 2.272 0 0 1-.669-1.607 2.262 2.262 0 0 1 .669-1.606 2.283 2.283 0 0 1 1.613-.666"/>
  <path fill="#1D1D1B" d="M37.898 44.024a2.59 2.59 0 0 1-.523 1.97 2.612 2.612 0 0 1-1.79.992 2.626 2.626 0 0 1-1.957-.596 2.603 2.603 0 0 1-.927-1.817l-2.15-19.611-7.57 19.177v.233c-.166.29-.388.542-.654.745l-.041.033c-.138.124-.29.23-.452.32l-.05.024-.045.024h-.259a2.497 2.497 0 0 1-.765.143h-.189a2.512 2.512 0 0 1-.855-.175h-.213l-.046-.025-.041-.025h-.025a2.469 2.469 0 0 1-.411-.274l-.086-.078-.066-.061-.157-.041-.078-.086a2.457 2.457 0 0 1-.275-.41v-.024l-.025-.04-.024-.046v-.192l-7.71-19.222-2.142 19.61a2.597 2.597 0 0 1-.956 1.748 2.62 2.62 0 0 1-3.672-.388 2.591 2.591 0 0 1-.565-1.908l2.524-23.119a4.32 4.32 0 0 1 1.837-3.067 4.346 4.346 0 0 1 1.897-.732h.14c.22-.016.441-.016.662 0 .265.011.53.047.789.107a4.295 4.295 0 0 1 1.845.93 4.27 4.27 0 0 1 1.194 1.681l6.471 16.284 6.46-16.337a4.281 4.281 0 0 1 1.507-1.926 4.31 4.31 0 0 1 2.321-.792c.22-.016.442-.016.662 0h.14c.68.091 1.33.342 1.895.732a4.33 4.33 0 0 1 1.353 1.511 4.16 4.16 0 0 1 .485 1.573l2.537 23.155Z"/>
</svg>
