<svg xmlns="http://www.w3.org/2000/svg" xmlns:xlink="http://www.w3.org/1999/xlink" viewBox="0 0 64 64"><defs><style>.cls-1{fill:none;}.cls-2{fill:url(#Dégradé_sans_nom_52);}.cls-3{fill:#fff;}</style><linearGradient id="Dégradé_sans_nom_52" x1="23.51" y1="-2044.83" x2="69.84" y2="-1998.32" gradientTransform="matrix(1.14, 0, 0, -0.79, -21.16, -1573.81)" gradientUnits="userSpaceOnUse"><stop offset="0" stop-color="#109a72"/><stop offset="0.3" stop-color="#008a8d"/><stop offset="0.69" stop-color="#01679b"/><stop offset="1" stop-color="#03376f"/></linearGradient></defs><title>Payment_Cards_Colors_CB_64px</title><g id="Square"><rect class="cls-1" width="64" height="64"/></g><g id="Icon"><rect class="cls-2" x="5" y="13" width="54" height="38" rx="2"/><path class="cls-3" d="M22.91,31.31h10A7.18,7.18,0,0,0,30.74,26c-1.79-1.55-5-2.12-7.8-2.12s-6.21.63-8,2.3C13.34,27.63,13,29.92,13,32s.66,4.69,2.37,6.15,4.73,2,7.57,2,5.73-.46,7.53-1.93,2.41-3.93,2.41-6.17h-10Z"/><path class="cls-3" d="M33.52,32v7.76H47.36A3.84,3.84,0,0,0,51,35.92,3.93,3.93,0,0,0,47.36,32Z"/><path class="cls-3" d="M50.75,27.76a3.53,3.53,0,0,0-3.51-3.54H33.52v7.1h14A3.58,3.58,0,0,0,50.75,27.76Z"/></g></svg>