<svg width="64" height="64" viewBox="0 0 64 64" fill="none" xmlns="http://www.w3.org/2000/svg">
  <g id="Square"> </g>
  <g id="Icon">
<path fill-rule="evenodd" clip-rule="evenodd" d="M51.75 32C51.75 42.9076 42.9076 51.75 32 51.75C21.0924 51.75 12.25 42.9076 12.25 32C12.25 21.0924 21.0924 12.25 32 12.25C42.9076 12.25 51.75 21.0924 51.75 32ZM29.7937 38.5201H26.7438V35.4909H20.54V32.9181L24.1295 24.1001H27.5114L24.0257 32.7313H26.7438V29.6191H29.7937V32.7313H31.3291V35.4909H29.7937V38.5201ZM42.9595 27.5L39.2095 32.725L42.8995 38.25H39.237L37.3345 35.3875L35.5845 38.25H32.0845L35.657 32.9075L32.0995 27.5H35.762L37.617 30.3025L39.472 27.5H42.9595Z" fill="#81BC00"/>
</g>
</svg>
