<svg xmlns="http://www.w3.org/2000/svg" xmlns:xlink="http://www.w3.org/1999/xlink" viewBox="0 0 64 64"><defs><style>.cls-1{fill:none;}.cls-2{fill:url(#Dégradé_sans_nom_16);}.cls-3{fill:#b7eef5;}.cls-4{fill:#25a8d0;}.cls-5{fill:#84dbeb;}</style><linearGradient id="Dégradé_sans_nom_16" x1="2682.55" y1="-1962.5" x2="2636.22" y2="-2009.01" gradientTransform="matrix(-1.14, 0, 0, 0.79, 3060.72, 1609.36)" gradientUnits="userSpaceOnUse"><stop offset="0" stop-color="#fff"/><stop offset="0.53" stop-color="#f1fdfe"/><stop offset="1" stop-color="#ecfcfd"/></linearGradient></defs><title>Payment_Cards_Colors_Cheque_64px</title><g id="Square"><rect class="cls-1" width="64" height="64"/></g><g id="Icon"><rect class="cls-2" x="5" y="13" width="54" height="38" rx="2"/><path class="cls-3" d="M57,14a1,1,0,0,1,1,1V49a1,1,0,0,1-1,1H7a1,1,0,0,1-1-1V15a1,1,0,0,1,1-1H57m0-1H7a2,2,0,0,0-2,2V49a2,2,0,0,0,2,2H57a2,2,0,0,0,2-2V15a2,2,0,0,0-2-2Z"/><rect class="cls-3" x="13" y="36" width="16" height="9" rx="1"/><path class="cls-4" d="M34,45a1.07,1.07,0,0,1-.35-.06,1,1,0,0,1-.59-1.29C35.92,36,37.38,36,37.92,36s1.71,0,4,5.51C44,37.4,44.59,37.4,45.12,37.4s1.24,0,3.9,5.6h2a1,1,0,0,1,0,2H48.38a1,1,0,0,1-.9-.58c-.77-1.65-1.75-3.53-2.36-4.52a49.57,49.57,0,0,0-2.37,4.52,1,1,0,0,1-.94.58,1,1,0,0,1-.9-.65,28.26,28.26,0,0,0-3-6.18,28.35,28.35,0,0,0-3,6.18A1,1,0,0,1,34,45Z"/><path class="cls-5" d="M50,27H31.91l3-3H50a1,1,0,0,0,0-2H36.91l.8-.79a1,1,0,0,0-1.42-1.42L34.09,22H14a1,1,0,0,0,0,2H32.09l-3,3H14a1,1,0,0,0,0,2H27.09l-.8.79a1,1,0,0,0,0,1.42,1,1,0,0,0,1.42,0L29.91,29H50a1,1,0,0,0,0-2Z"/></g></svg>