<svg xmlns="http://www.w3.org/2000/svg" xmlns:xlink="http://www.w3.org/1999/xlink" viewBox="0 0 64 64"><defs><style>.cls-1{fill:none;}.cls-2{fill:url(#Dégradé_sans_nom_208);}.cls-3{fill:#ff5f00;}.cls-4{fill:#eb001b;}.cls-5{fill:#f79e1b;}.cls-6{fill:#fff;}</style><linearGradient id="Dégradé_sans_nom_208" x1="2809.63" y1="-1982.54" x2="2809.63" y2="-2030.38" gradientTransform="matrix(-1.14, 0, 0, 0.79, 3231.83, 1625.81)" gradientUnits="userSpaceOnUse"><stop offset="0" stop-color="#0b0a0c"/><stop offset="0.27" stop-color="#100f12"/><stop offset="0.63" stop-color="#1f1e22"/><stop offset="1" stop-color="#35333a"/></linearGradient></defs><title>Payment_Cards_Colors_Mastercard_64px</title><g id="Square"><rect class="cls-1" width="64" height="64"/></g><g id="Icon"><rect class="cls-2" x="5" y="13" width="54" height="38" rx="2"/><rect class="cls-3" x="27.94" y="22.31" width="8.11" height="14.58"/><path class="cls-4" d="M28.46,29.59A9.28,9.28,0,0,1,32,22.31a9.27,9.27,0,1,0,0,14.57A9.24,9.24,0,0,1,28.46,29.59Z"/><path class="cls-5" d="M47,29.59a9.27,9.27,0,0,1-15,7.29,9.28,9.28,0,0,0,0-14.57,9.26,9.26,0,0,1,15,7.28Z"/><path class="cls-6" d="M22.14,41.35a1.44,1.44,0,0,0-.31-.19,1.09,1.09,0,0,0-.4-.07H21.2l-.23.07a.6.6,0,0,0-.21.14.64.64,0,0,0-.19.21,1,1,0,0,0-.34-.33,1,1,0,0,0-.48-.1h-.19l-.2.05a.57.57,0,0,0-.18.12.65.65,0,0,0-.16.17v-.3H18.5v2.46H19V42.24a.81.81,0,0,1,.05-.27.74.74,0,0,1,.13-.21.47.47,0,0,1,.2-.12.62.62,0,0,1,.23,0,.54.54,0,0,1,.42.16.83.83,0,0,1,.15.48v1.37h.52V42.24a.8.8,0,0,1,0-.27.6.6,0,0,1,.14-.21.41.41,0,0,1,.2-.12.59.59,0,0,1,.23,0,.5.5,0,0,1,.4.16.69.69,0,0,1,.15.48v1.37h.52V42.06a1,1,0,0,0-.07-.39A1,1,0,0,0,22.14,41.35Z"/><path class="cls-6" d="M24.88,41.44a.86.86,0,0,0-.31-.26,1.22,1.22,0,0,0-.46-.09,1.28,1.28,0,0,0-.48.09,1.84,1.84,0,0,0-.4.26,2.26,2.26,0,0,0-.26.42,1.58,1.58,0,0,0-.09.52,1.44,1.44,0,0,0,.09.51,1.29,1.29,0,0,0,.26.42,1.31,1.31,0,0,0,.4.26,1.12,1.12,0,0,0,.48.1.93.93,0,0,0,.46-.1.86.86,0,0,0,.31-.26v.3h.53V41.14h-.53Zm0,1.26a1,1,0,0,1-.16.24.78.78,0,0,1-.24.16.94.94,0,0,1-.3.07.87.87,0,0,1-.31-.07.55.55,0,0,1-.23-.17.64.64,0,0,1-.15-.25.94.94,0,0,1-.05-.3,1.12,1.12,0,0,1,.05-.31.69.69,0,0,1,.38-.42.85.85,0,0,1,.31-.06.73.73,0,0,1,.3.06.7.7,0,0,1,.24.17.82.82,0,0,1,.16.25,1.67,1.67,0,0,1,.05.31A1.77,1.77,0,0,1,24.87,42.7Z"/><path class="cls-6" d="M27.88,42.37a1.3,1.3,0,0,0-.63-.23l-.25,0-.17,0-.11,0L26.63,42a.13.13,0,0,1,0-.1.23.23,0,0,1,.13-.21.67.67,0,0,1,.34-.09l.22,0,.22.06.18.06.13.08.24-.42a1.27,1.27,0,0,0-.45-.19,2,2,0,0,0-.54-.07,2,2,0,0,0-.43,0,1.2,1.2,0,0,0-.32.16.64.64,0,0,0-.21.25.87.87,0,0,0-.06.32.6.6,0,0,0,.21.49,1.27,1.27,0,0,0,.62.23l.25,0a.9.9,0,0,1,.33.09.23.23,0,0,1,.1.19.22.22,0,0,1-.14.2.69.69,0,0,1-.42.1l-.27,0-.21,0-.18-.08-.15-.11-.25.41a2.61,2.61,0,0,0,.28.17l.29.09.27,0H27a1.48,1.48,0,0,0,.47,0,.88.88,0,0,0,.35-.17.75.75,0,0,0,.22-.25.6.6,0,0,0,.07-.32A.59.59,0,0,0,27.88,42.37Z"/><path class="cls-6" d="M32.9,41.44a1,1,0,0,0-.37-.26,1.18,1.18,0,0,0-.46-.09,1.43,1.43,0,0,0-.5.09.87.87,0,0,0-.39.26,1.16,1.16,0,0,0-.25.41,1.61,1.61,0,0,0,0,1.06,1.36,1.36,0,0,0,.26.41,1.4,1.4,0,0,0,.39.26,1.52,1.52,0,0,0,.51.09,1.67,1.67,0,0,0,.54-.07,1.38,1.38,0,0,0,.48-.28l-.28-.38a.92.92,0,0,1-.33.19,1.17,1.17,0,0,1-.37.08,1.09,1.09,0,0,1-.25,0,.94.94,0,0,1-.22-.12.58.58,0,0,1-.17-.18.75.75,0,0,1-.09-.29h1.81a.43.43,0,0,1,0-.11v-.1a1.3,1.3,0,0,0-.1-.52A1,1,0,0,0,32.9,41.44Zm-1.5.72a.88.88,0,0,1,.07-.23.48.48,0,0,1,.14-.2,1.18,1.18,0,0,1,.18-.13.78.78,0,0,1,.26,0,.58.58,0,0,1,.42.16.9.9,0,0,1,.21.44Z"/><path class="cls-6" d="M40,41.44a1.35,1.35,0,0,0-.32-.26,1.13,1.13,0,0,0-.45-.09,1.32,1.32,0,0,0-.48.09,1.16,1.16,0,0,0-.39.26,1,1,0,0,0-.26.42,1.35,1.35,0,0,0-.11.52,1.26,1.26,0,0,0,.11.51,1.13,1.13,0,0,0,.65.68,1,1,0,0,0,.48.1.87.87,0,0,0,.45-.1,1,1,0,0,0,.32-.26v.3h.54V41.14H40Zm0,1.26a1,1,0,0,1-.15.24.78.78,0,0,1-.55.23,1.09,1.09,0,0,1-.3-.07.55.55,0,0,1-.23-.17.48.48,0,0,1-.14-.25.73.73,0,0,1-.06-.3.85.85,0,0,1,.06-.31.52.52,0,0,1,.14-.25.72.72,0,0,1,.53-.23.87.87,0,0,1,.32.06.66.66,0,0,1,.23.17.64.64,0,0,1,.15.25,1.12,1.12,0,0,1,0,.31A1.13,1.13,0,0,1,40,42.7Z"/><path class="cls-6" d="M30.17,43.11a.5.5,0,0,1-.24.06l-.16,0a.2.2,0,0,1-.12-.08.42.42,0,0,1-.09-.14,1.52,1.52,0,0,1,0-.21V41.64h.87v-.5h-.87V40.4H29v.74h-.5v.5H29v1.08a1,1,0,0,0,.22.72.87.87,0,0,0,.65.23,1,1,0,0,0,.42-.07l.24-.11L30.34,43A.44.44,0,0,1,30.17,43.11Z"/><path class="cls-6" d="M35,41.09a1.1,1.1,0,0,0-.4.08.79.79,0,0,0-.3.3v-.33h-.5v2.47h.5V42.25a.84.84,0,0,1,0-.27.57.57,0,0,1,.13-.21.34.34,0,0,1,.18-.13.67.67,0,0,1,.24,0h.2l.11,0,.16-.52-.14,0Z"/><path class="cls-6" d="M42.46,41.09a1.06,1.06,0,0,0-.4.08.79.79,0,0,0-.3.3v-.33h-.5v2.47h.5V42.25a.52.52,0,0,1,.05-.27.45.45,0,0,1,.12-.21.34.34,0,0,1,.18-.13.59.59,0,0,1,.23,0h.21l.11,0,.15-.52-.13,0Z"/><path class="cls-6" d="M45,40.15v1.29a.9.9,0,0,0-.32-.26,1.17,1.17,0,0,0-.45-.09,1.37,1.37,0,0,0-.49.09,2,2,0,0,0-.39.26,1.54,1.54,0,0,0-.26.42,1.36,1.36,0,0,0-.09.52,1.44,1.44,0,0,0,.09.51,1.29,1.29,0,0,0,.26.42,1.27,1.27,0,0,0,.39.26,1.19,1.19,0,0,0,.49.1.9.9,0,0,0,.45-.1.82.82,0,0,0,.32-.26v.3h.53V40.15Zm0,2.55a1,1,0,0,1-.15.24.84.84,0,0,1-.54.23A.82.82,0,0,1,44,43.1a.66.66,0,0,1-.24-.17,1,1,0,0,1-.14-.25.94.94,0,0,1,0-.3,1.12,1.12,0,0,1,0-.31,1.23,1.23,0,0,1,.14-.25.81.81,0,0,1,.24-.17.81.81,0,0,1,.31-.06.77.77,0,0,1,.3.06.81.81,0,0,1,.24.17.64.64,0,0,1,.15.25,1.12,1.12,0,0,1,0,.31A1.19,1.19,0,0,1,45,42.7Z"/><path class="cls-6" d="M36.3,41.81a.78.78,0,0,1,.24-.16.81.81,0,0,1,.31-.06h0a1,1,0,0,1,.33.06.54.54,0,0,1,.26.16l.26-.43a1.38,1.38,0,0,0-.33-.2,1.5,1.5,0,0,0-.52-.09,1.6,1.6,0,0,0-.53.09,1.34,1.34,0,0,0-.42.28,1.09,1.09,0,0,0-.27.4,1.35,1.35,0,0,0-.11.52,1.26,1.26,0,0,0,.11.51,1.22,1.22,0,0,0,.27.41,1.32,1.32,0,0,0,.42.27,1.39,1.39,0,0,0,.53.1,1.3,1.3,0,0,0,.52-.1,1.74,1.74,0,0,0,.33-.18L37.44,43a.68.68,0,0,1-.26.15l-.33.06h0a1.13,1.13,0,0,1-.31-.06.66.66,0,0,1-.24-.17.7.7,0,0,1-.17-.24,1,1,0,0,1,0-.64A.74.74,0,0,1,36.3,41.81Z"/></g></svg>