<svg xmlns="http://www.w3.org/2000/svg" viewBox="0 0 64 64"><defs><style>.cls-1{fill:none;}.cls-2{fill:#16d6ff;}.cls-3{fill:#fff;}</style></defs><title>Payment_Cards_Colors_Paylib_64px</title><g id="Square"><rect class="cls-1" width="64" height="64"/></g><g id="Icon"><rect class="cls-2" x="5" y="13" width="54" height="38" rx="2"/><path class="cls-3" d="M48,35v-.3h-.13v-.07h.33v.07H48.1V35Zm.62,0v-.26l-.08.21h-.1l-.08-.21V35h-.09v-.37h.13l.1.23.08-.23h.13V35Z"/><path class="cls-3" d="M13,28h1.36v.45h.05a2.85,2.85,0,0,1,1.48-.55,5.23,5.23,0,0,1,1.53.08A2.14,2.14,0,0,1,19,29.7,7.53,7.53,0,0,1,19.15,32,5.83,5.83,0,0,1,19,33.31,2.14,2.14,0,0,1,17.06,35c-.59.08-1.17.07-1.77.1v-1.4h.59a6.51,6.51,0,0,0,.76-.07.85.85,0,0,0,.72-.66,4,4,0,0,0,.13-.76,9.09,9.09,0,0,0,0-2c0-.11-.05-.23-.08-.35a.87.87,0,0,0-.69-.61,2.79,2.79,0,0,0-1.22,0,1,1,0,0,0-.76,1,3.91,3.91,0,0,0,0,.49v6.73H13.16c-.12,0-.15,0-.15-.14s0-.46,0-.68Z"/><path class="cls-3" d="M42.82,23.6v.21c0,2.89,0,5.79,0,8.68a4.57,4.57,0,0,0,.12,1,1.82,1.82,0,0,0,1.39,1.38,5.57,5.57,0,0,0,2.81,0,2.25,2.25,0,0,0,1.69-1.81,7.74,7.74,0,0,0,0-3.25,2.13,2.13,0,0,0-2-1.8c-.54-.07-1.09,0-1.65-.06h-.06v1.37h.17c.31,0,.64,0,1,0a1,1,0,0,1,1,.89,8,8,0,0,1,0,2.49,1,1,0,0,1-1,.92,4.31,4.31,0,0,1-1,0c-.5-.07-.73-.37-.77-.93a2.68,2.68,0,0,1,0-.4V23.79A8.24,8.24,0,0,1,50,28.19,8.1,8.1,0,0,1,49.3,37a8.24,8.24,0,0,1-7.54,3.36V30.5H40V40a8.32,8.32,0,0,1-5.47-5.46,8.48,8.48,0,0,1,1.51-7.94h0v6.49a4.49,4.49,0,0,0,.06.73A1.29,1.29,0,0,0,37.27,35a7.67,7.67,0,0,0,1.73.08V33.63h-.88c-.22,0-.3-.08-.31-.29s0-.29,0-.44c0-2.54,0-5.07,0-7.61A.34.34,0,0,1,38,25a8.42,8.42,0,0,1,4.75-1.36Zm-2.91,5.34a.83.83,0,0,0,.67.92,1.56,1.56,0,0,0,.53,0,.8.8,0,0,0,.76-.78V28.8a.83.83,0,0,0-.69-.78,1.82,1.82,0,0,0-.4,0,.83.83,0,0,0-.87.94Z"/><path class="cls-3" d="M26.9,28h1.65v.19c0,1.45,0,2.91,0,4.36a3.6,3.6,0,0,0,0,.56.61.61,0,0,0,.43.48,2.46,2.46,0,0,0,1.54,0A.64.64,0,0,0,31,33a4,4,0,0,0,0-.48c0-1.42,0-2.86,0-4.29V28h1.62c0,.06,0,.11,0,.16q0,3.78,0,7.54a3.92,3.92,0,0,1-.08.76,1.2,1.2,0,0,1-1,1,9.89,9.89,0,0,1-1.74.09V36.15h.9a.28.28,0,0,0,.27-.26V35l-1.14.08a4.2,4.2,0,0,1-1.65-.22,1.91,1.91,0,0,1-1.33-1.76c0-.26,0-.52,0-.78,0-1.37,0-2.74,0-4.11Z"/><path class="cls-3" d="M26,28v7.07H24.35v-.35a4.92,4.92,0,0,1-.6.23,4,4,0,0,1-2.27-.06A2.1,2.1,0,0,1,20,33.16a6.28,6.28,0,0,1-.14-1.06A9.08,9.08,0,0,1,20,29.77a2.19,2.19,0,0,1,2.17-1.88A5.44,5.44,0,0,1,23.6,28a2.6,2.6,0,0,1,1,.49V28Zm-1.64,3.45h0c0-.19,0-.38,0-.57s0-.38,0-.57a1,1,0,0,0-.89-1,7.85,7.85,0,0,0-1,0,.93.93,0,0,0-.86.72c0,.13-.06.26-.08.38,0,.63,0,1.27,0,1.89a3,3,0,0,0,.14.79.84.84,0,0,0,.73.64,4.3,4.3,0,0,0,.95,0,1.07,1.07,0,0,0,1-1.16Z"/></g></svg>