<svg xmlns="http://www.w3.org/2000/svg" xmlns:xlink="http://www.w3.org/1999/xlink" viewBox="0 0 64 64"><defs><style>.cls-1{fill:none;}.cls-2{fill:url(#Dégradé_sans_nom_196);}.cls-3{fill:#d3d2d6;}.cls-4{fill:#179bd7;}.cls-5{fill:#253b80;}.cls-6{fill:#222d65;}</style><linearGradient id="Dégradé_sans_nom_196" x1="3283.53" y1="-1962.5" x2="3237.2" y2="-2009.01" gradientTransform="matrix(-1.14, 0, 0, 0.79, 3745.16, 1609.36)" gradientUnits="userSpaceOnUse"><stop offset="0" stop-color="#fff"/><stop offset="0.4" stop-color="#f9f9f9"/><stop offset="0.93" stop-color="#e9e9e9"/><stop offset="1" stop-color="#e6e6e6"/></linearGradient></defs><title>Payment_Cards_Colors_Paypal_64px</title><g id="Square"><rect class="cls-1" width="64" height="64"/></g><g id="Icon"><rect class="cls-2" x="5" y="13" width="54" height="38" rx="2"/><path class="cls-3" d="M57,14a1,1,0,0,1,1,1V49a1,1,0,0,1-1,1H7a1,1,0,0,1-1-1V15a1,1,0,0,1,1-1H57m0-1H7a2,2,0,0,0-2,2V49a2,2,0,0,0,2,2H57a2,2,0,0,0,2-2V15a2,2,0,0,0-2-2Z"/><path class="cls-4" d="M36.54,37.83h-2a.29.29,0,0,0-.28.24l-.82,5.19a.17.17,0,0,0,.14.19h1.07a.19.19,0,0,0,.19-.17l.23-1.47a.28.28,0,0,1,.28-.23H36a2.08,2.08,0,0,0,2.3-1.92,1.55,1.55,0,0,0-.26-1.3A1.81,1.81,0,0,0,36.54,37.83Zm.23,1.9c-.11.72-.66.72-1.2.72h-.3l.21-1.35a.18.18,0,0,1,.17-.14h.13c.37,0,.72,0,.89.21a.62.62,0,0,1,.1.56Z"/><path class="cls-5" d="M22.12,37.83h-2a.3.3,0,0,0-.28.24L19,43.26a.18.18,0,0,0,.14.19h1a.28.28,0,0,0,.28-.24l.23-1.4a.27.27,0,0,1,.27-.23h.64a2.08,2.08,0,0,0,2.3-1.92,1.55,1.55,0,0,0-.26-1.3A1.81,1.81,0,0,0,22.12,37.83Zm.23,1.9c-.11.72-.66.72-1.2.72h-.3l.21-1.35a.18.18,0,0,1,.17-.14h.13c.37,0,.71,0,.89.21a.65.65,0,0,1,.1.56Z"/><path class="cls-5" d="M28.16,39.7h-1a.18.18,0,0,0-.17.14l0,.27L26.92,40a1.36,1.36,0,0,0-1.14-.41,2.22,2.22,0,0,0-2.16,1.94A1.78,1.78,0,0,0,24,43a1.48,1.48,0,0,0,1.21.49A1.81,1.81,0,0,0,26.53,43l0,.28a.17.17,0,0,0,.14.19h.9a.26.26,0,0,0,.27-.23l.53-3.32a.17.17,0,0,0-.14-.19Zm-1.34,1.89a1.07,1.07,0,0,1-1.1.92.74.74,0,0,1-.82-.66.65.65,0,0,1,0-.28A1.07,1.07,0,0,1,26,40.64a.83.83,0,0,1,.65.26.86.86,0,0,1,.16.69Z"/><path class="cls-4" d="M42.58,39.7h-1a.16.16,0,0,0-.16.14l0,.27L41.34,40a1.37,1.37,0,0,0-1.15-.41A2.23,2.23,0,0,0,38,41.55,1.85,1.85,0,0,0,38.39,43a1.52,1.52,0,0,0,1.22.49A1.81,1.81,0,0,0,41,43l0,.28a.17.17,0,0,0,.14.19H42a.27.27,0,0,0,.27-.23l.53-3.32a.17.17,0,0,0-.14-.19Zm-1.35,1.89a1.06,1.06,0,0,1-1.09.92.8.8,0,0,1-.65-.26.79.79,0,0,1-.15-.68,1.07,1.07,0,0,1,1.08-.93.8.8,0,0,1,.65.26.85.85,0,0,1,.16.69Z"/><path class="cls-5" d="M33.32,39.7h-1a.29.29,0,0,0-.24.13l-1.35,2-.56-1.9a.29.29,0,0,0-.28-.21H29a.17.17,0,0,0-.17.17.13.13,0,0,0,0,.06l1.07,3.15-1,1.42a.16.16,0,0,0,0,.23.17.17,0,0,0,.1,0h1a.27.27,0,0,0,.23-.12L33.46,40a.18.18,0,0,0-.05-.24Z"/><path class="cls-4" d="M43.73,38l-.84,5.28a.17.17,0,0,0,.15.19h.86a.28.28,0,0,0,.28-.24L45,38a.17.17,0,0,0-.14-.19h-1A.16.16,0,0,0,43.73,38Z"/><path class="cls-4" d="M38.79,23.58l-.06.32c-.7,3.6-3.1,4.84-6.16,4.84H31a.75.75,0,0,0-.75.64l-.8,5.07-.23,1.43a.4.4,0,0,0,.4.46h2.76a.66.66,0,0,0,.66-.56l0-.14.52-3.3,0-.18a.67.67,0,0,1,.66-.57h.42c2.68,0,4.77-1.09,5.39-4.24a3.61,3.61,0,0,0-.56-3.18A2.58,2.58,0,0,0,38.79,23.58Z"/><path class="cls-6" d="M38.05,23.29l-.33-.08-.35-.07A8.4,8.4,0,0,0,36,23H31.83a.72.72,0,0,0-.29.06.71.71,0,0,0-.37.5l-.89,5.62,0,.16a.75.75,0,0,1,.75-.64h1.56c3.06,0,5.46-1.24,6.16-4.84l.06-.32a4.39,4.39,0,0,0-.58-.24Z"/><path class="cls-5" d="M31.17,23.6a.67.67,0,0,1,.37-.49.59.59,0,0,1,.29-.07H36a8.4,8.4,0,0,1,1.37.1l.35.07.33.08.16.05a4.39,4.39,0,0,1,.58.24,3.38,3.38,0,0,0-.72-3c-.8-.91-2.23-1.29-4.06-1.29H28.69a.76.76,0,0,0-.75.64l-2.21,14a.45.45,0,0,0,.45.53h3.28l.82-5.23Z"/></g></svg>