<svg xmlns="http://www.w3.org/2000/svg" xmlns:xlink="http://www.w3.org/1999/xlink" viewBox="0 0 64 64"><defs><style>.cls-1{fill:none;}.cls-2{fill:url(#radial-gradient);}.cls-3{fill:#fff;}</style><radialGradient id="radial-gradient" cx="353.09" cy="-2004.16" r="32.77" gradientTransform="matrix(1.54, 0, 0, -1.08, -528.4, -2140.92)" gradientUnits="userSpaceOnUse"><stop offset="0" stop-color="#9dd5f6"/><stop offset="0.07" stop-color="#98d3f5"/><stop offset="0.16" stop-color="#89cef3"/><stop offset="0.25" stop-color="#70c6ef"/><stop offset="0.35" stop-color="#4ebbea"/><stop offset="0.45" stop-color="#23ade3"/><stop offset="0.5" stop-color="#0da6e0"/><stop offset="1" stop-color="#2e77bc"/></radialGradient></defs><title>Payment_Cards_Colors_AmericanExpress_64px</title><g id="Square"><rect class="cls-1" width="64" height="64"/></g><g id="Icon"><rect class="cls-2" x="5" y="13" width="54" height="38" rx="2"/><path class="cls-3" d="M45.5,25.46v.69l-.39-.69H42.25v.69l-.36-.69H38a3.35,3.35,0,0,0-1.67.34v-.34H33.69v.34a1.64,1.64,0,0,0-1.13-.34H22.82L22.17,27l-.68-1.5H18.43v.69l-.35-.69H15.47l-.05.21-.13.29-1.79,4.2L13,31.32h3l.38-.92h.88l.38.92H21v-.71l.3.71H23l.3-.72v.72h8.38V29.78h.16c.12,0,.15,0,.15.2v1.33h4.34V31a3.29,3.29,0,0,0,1.6.36h1.83l.39-.94h.87l.38.94h3.51v-.89l.54.89h2.81V25.46Zm-21.44,5V27.2l-1.45,3.28h-.89l-1.45-3.29v3.29H18.22l-.39-.93H15.74l-.39.93H14.27l1.79-4.19h1.5l1.7,4v-4H20.9l1.31,2.85,1.2-2.85h1.68v4.19Zm5.13-3.31H26.83v.74h2.3v.87h-2.3v.83h2.36v.87H25.84V26.29h3.35Zm4.51,1.72a1.21,1.21,0,0,1,.16.77v.82h-1V30a1.28,1.28,0,0,0-.15-.82c-.18-.2-.38-.18-.74-.18H30.88v1.52h-1V26.29h2.3a2.32,2.32,0,0,1,1.21.2,1,1,0,0,1,.51.93,1.14,1.14,0,0,1-.7,1.11A1.25,1.25,0,0,1,33.7,28.89Zm1.81,1.59h-1V26.29h1Zm11.89,0H46l-1.9-3.15v3.15H42l-.39-.93H39.55l-.38.93H38a1.78,1.78,0,0,1-2-2.07,2.05,2.05,0,0,1,.54-1.64,1.76,1.76,0,0,1,1.53-.48h1v.9h-1a1,1,0,0,0-.77.25,1.29,1.29,0,0,0-.29.95,1.49,1.49,0,0,0,.28,1,.81.81,0,0,0,.7.22h.45l1.41-3.3h1.51l1.7,4v-4h1.53l1.76,2.92V26.29h1Z"/><path class="cls-3" d="M32.59,27.24a.85.85,0,0,0-.47-.07H30.88v.92h1.23a1,1,0,0,0,.5-.08.46.46,0,0,0,.2-.4A.39.39,0,0,0,32.59,27.24Z"/><polygon class="cls-3" points="39.91 28.67 41.3 28.67 40.61 27 39.91 28.67"/><polygon class="cls-3" points="16.1 28.67 17.48 28.67 16.79 27 16.1 28.67"/><path class="cls-3" d="M32,34.39h-1.3v1.06H32c.39,0,.63-.19.63-.55S32.38,34.39,32,34.39Z"/><polygon class="cls-3" points="23.26 34.39 23.26 35.15 25.46 35.15 25.46 36 23.26 36 23.26 36.83 25.73 36.83 26.87 35.61 25.78 34.39 23.26 34.39"/><polygon class="cls-3" points="29.71 37.33 29.71 33.96 28.16 35.62 29.71 37.33"/><path class="cls-3" d="M36.89,34.46a.85.85,0,0,0-.47-.07H35.18v.93h1.23a.89.89,0,0,0,.48-.08.47.47,0,0,0,.22-.4A.42.42,0,0,0,36.89,34.46Z"/><path class="cls-3" d="M51,36.38a2.18,2.18,0,0,0-.29-1.14h.09V32.68H48a2.65,2.65,0,0,0-1.11.22v-.22H44.09A1.83,1.83,0,0,0,42.9,33v-.34H38V33a2.56,2.56,0,0,0-1.34-.34H33.4V33A2.28,2.28,0,0,0,32,32.68H28.37l-.84.9-.77-.9h-5.4v5.85h5.3l.85-.9.81.9H31.6V37.16h.32A3.47,3.47,0,0,0,33.31,37v1.58H36V37h.13c.17,0,.19,0,.19.17v1.35h8.2a2.53,2.53,0,0,0,1.28-.31v.32h2.79a3,3,0,0,0,1.19-.2l.17-.07h0A2.1,2.1,0,0,0,51,36.38ZM32,36.3H30.71v1.41H28.76l-1.24-1.39-1.28,1.39h-4v-4.2h4l1.23,1.37,1.28-1.37H32c.8,0,1.69.22,1.69,1.39s-.87,1.4-1.75,1.4ZM38,36.11a1.23,1.23,0,0,1,.16.77v.83h-1v-.52c0-.25,0-.63-.16-.82s-.37-.19-.74-.19H35.18v1.53h-1v-4.2h2.32a2.44,2.44,0,0,1,1.21.2,1,1,0,0,1,.51.94,1.18,1.18,0,0,1-.71,1.11,1.23,1.23,0,0,1,.5.35Zm4.12-1.72H39.77v.76h2.29V36H39.77v.83h2.35v.87H38.77V33.51h3.35Zm.6,3.32v-.9h2a.55.55,0,0,0,.4-.11.37.37,0,0,0,0-.52l0,0a.5.5,0,0,0-.35-.1c-.94,0-2.12,0-2.12-1.29,0-.62.38-1.26,1.44-1.26h2v.9H44.21a.72.72,0,0,0-.41.07.34.34,0,0,0-.14.31.3.3,0,0,0,.21.31,1.33,1.33,0,0,0,.4,0h.53a1.55,1.55,0,0,1,1.15.34,1.08,1.08,0,0,1,.3.88c0,.91-.56,1.33-1.58,1.33Zm7.22-.52,0,.06-.07.07-.08.08,0,0-.1.07h0a1.85,1.85,0,0,1-.52.16h0l-.16,0H46.65v-.91h1.94a.55.55,0,0,0,.4-.1.36.36,0,0,0,.12-.28.29.29,0,0,0-.13-.24.47.47,0,0,0-.34-.1c-1,0-2.13,0-2.13-1.29a1.19,1.19,0,0,1,.31-.84.1.1,0,0,1,0,0l0,0,.05,0,.06,0,0,0,.07,0,0,0,.09,0h0l.1,0h0l.13,0H50v.9H48a.44.44,0,0,0-.27.07h0a.3.3,0,0,0-.15.31.31.31,0,0,0,.21.31,1.31,1.31,0,0,0,.39.05h.55a2.18,2.18,0,0,1,1,.19.9.9,0,0,1,.19.15l0,0a1.15,1.15,0,0,1,.29.86,1.38,1.38,0,0,1-.23.76Z"/></g></svg>