<svg xmlns="http://www.w3.org/2000/svg" xmlns:xlink="http://www.w3.org/1999/xlink" viewBox="0 0 64 64"><defs><style>.cls-1{fill:none;}.cls-2{fill:url(#Dégradé_sans_nom_196);}.cls-3{fill:#d3d2d6;}.cls-4{fill:#78be20;}</style><linearGradient id="Dégradé_sans_nom_196" x1="2983.04" y1="-1983.21" x2="2936.71" y2="-2029.72" gradientTransform="matrix(-1.14, 0, 0, 0.79, 3402.94, 1625.81)" gradientUnits="userSpaceOnUse"><stop offset="0" stop-color="#fff"/><stop offset="0.4" stop-color="#f9f9f9"/><stop offset="0.93" stop-color="#e9e9e9"/><stop offset="1" stop-color="#e6e6e6"/></linearGradient></defs><title>Payment_Cards_Colors_Loyalty_64px</title><g id="Square"><rect class="cls-1" width="64" height="64"/></g><g id="Icon"><rect class="cls-2" x="5" y="13" width="54" height="38" rx="2"/><path class="cls-3" d="M57,14a1,1,0,0,1,1,1V49a1,1,0,0,1-1,1H7a1,1,0,0,1-1-1V15a1,1,0,0,1,1-1H57m0-1H7a2,2,0,0,0-2,2V49a2,2,0,0,0,2,2H57a2,2,0,0,0,2-2V15a2,2,0,0,0-2-2Z"/><polygon class="cls-4" points="20.2 40.14 43.8 40.14 32 28.29 20.2 40.14"/><polygon points="19.69 39.61 21.51 37.79 20.9 37.17 19.75 38.33 17.68 36.24 17 36.92 19.69 39.61"/><polyline points="20.39 34.63 20.85 35.09 21.79 34.14 22.34 34.69 21.39 35.64 21.98 36.23 23.15 35.05 23.69 35.6 21.84 37.45 19.16 34.76 21.01 32.9 21.55 33.45 20.39 34.63"/><path d="M26.44,32.84l-1.83-.52h0A1.16,1.16,0,0,0,24.36,31a1.1,1.1,0,0,0-1.54.08h0l-1.35,1.36,2.68,2.7.69-.69-2.18-2.19.44-.43a.48.48,0,1,1,.69.68l-.4.4,2.32.67Z"/><path d="M25.19,28.59a1.81,1.81,0,0,1,2.72,0,1.92,1.92,0,1,1-2.72,0Zm.52.53c-.42.43-.27,1,.24,1.48s1,.66,1.46.23.29-.94-.24-1.47S26.14,28.7,25.71,29.12Z"/><polygon points="28.74 27.18 28.24 25.65 29.02 24.85 29.7 27.46 30.75 28.51 30.06 29.2 29.01 28.15 26.52 27.36 27.27 26.6 28.71 27.16 28.74 27.18"/><polygon points="41.14 36.42 43.83 33.74 43.1 33.01 40.41 35.71 41.14 36.42"/><polygon points="30.89 26.15 32.98 25.15 31.44 26.69 32.05 27.31 34.74 24.63 33.89 23.76 31.86 24.75 31.86 24.75 32.88 22.75 32 21.86 29.31 24.56 29.94 25.19 31.48 23.64 30.48 25.74 30.89 26.15"/><polyline points="35.54 26.52 35.09 26.99 36.11 28.02 35.56 28.57 34.54 27.54 33.95 28.13 35.2 29.38 34.66 29.93 32.73 27.99 35.41 25.29 37.34 27.24 36.8 27.79 35.54 26.52"/><polygon points="38.08 33.36 39.9 35.2 40.51 34.59 39.38 33.44 41.45 31.35 40.76 30.68 38.08 33.36"/><polygon points="45.38 35.29 44.51 38.15 44.51 38.15 46.36 36.29 47 36.92 44.31 39.63 43.48 38.77 44.21 35.84 44.21 35.83 42.38 37.67 41.75 37.05 44.44 34.35 45.38 35.29"/><path d="M37.62,32.91l.53-1.83h0a1.15,1.15,0,0,0,1.31-.27,1.1,1.1,0,0,0-.07-1.54h0l-1.45-1.45-2.68,2.7.68.69L38.11,29l.53.53a.49.49,0,0,1-.64.74l0-.05-.49-.49-.56,2.41Z"/></g></svg>