<svg xmlns="http://www.w3.org/2000/svg" viewBox="0 0 64 64"><defs><style>.cls-1{fill:none;}.cls-2{fill:#81bc00;}.cls-3{fill:#fff;}</style></defs><title>Payment_Cards_Colors_Oney_64px</title><g id="Square"><rect class="cls-1" width="64" height="64"/></g><g id="Icon"><rect class="cls-2" x="5" y="13" width="54" height="38" rx="2"/><path class="cls-3" d="M37.57,27.39c.3,0,.59.06.88.12A4.62,4.62,0,0,1,42,31.26a5.68,5.68,0,0,1,0,1.54h-7.4v.06a3,3,0,0,0,3,2.4,3.13,3.13,0,0,0,2.21-.95.16.16,0,0,1,.12-.06h1.74l.06,0c-.08.13-.15.28-.23.41A4.7,4.7,0,0,1,33,33.12a4.75,4.75,0,0,1,2-5,4.39,4.39,0,0,1,2.25-.71l.16,0ZM34.7,31.28h5.57a2.84,2.84,0,0,0-5.57,0Z"/><path class="cls-3" d="M18.08,27.39c.23,0,.47.07.7.12a4.65,4.65,0,0,1,3.61,3.79,4.72,4.72,0,0,1-1.05,3.94,4.49,4.49,0,0,1-3.76,1.64,4.55,4.55,0,0,1-4.27-3A7.9,7.9,0,0,1,13,32.64l0-.14v-.74l0-.12a4.66,4.66,0,0,1,3.62-4.12c.25-.06.5-.09.75-.13Zm2.73,4.75c0-.22,0-.44-.09-.66a3,3,0,0,0-3.58-2.4,3.17,3.17,0,0,0-.44.12,3.13,3.13,0,0,0-1.93,3.73,3.05,3.05,0,0,0,3.41,2.31A3.14,3.14,0,0,0,20.81,32.14Z"/><path class="cls-3" d="M44.23,39.61c.45-1.1.9-2.2,1.34-3.3a.28.28,0,0,0,0-.18q-1.82-4.37-3.65-8.73h1.89a.19.19,0,0,0,0,.07l2.64,6.46,0,.09.07-.16,1-2.43,1.65-4H51c0,.05,0,.1,0,.15L47.4,36.23c-.47,1.13-.93,2.25-1.39,3.38Z"/><path class="cls-3" d="M28.09,27.39c.24,0,.48.07.72.12a3.79,3.79,0,0,1,3,2.81,4.81,4.81,0,0,1,.14,1.2c0,1.74,0,3.48,0,5.23v.12H30.21V31.7a4.53,4.53,0,0,0-.13-1.1,1.94,1.94,0,0,0-1.59-1.55,3.43,3.43,0,0,0-1.56,0,2,2,0,0,0-1.68,1.77,5.62,5.62,0,0,0-.07.92v5.13H23.47a.22.22,0,0,1,0-.08c0-1.83,0-3.65,0-5.48a3.68,3.68,0,0,1,1.32-2.89,4.1,4.1,0,0,1,2.35-1l.16,0Z"/></g></svg>