<svg xmlns="http://www.w3.org/2000/svg" xmlns:xlink="http://www.w3.org/1999/xlink" viewBox="0 0 64 64"><defs><style>.cls-1{fill:none;}.cls-2{fill:#ecaa3a;}.cls-3{opacity:0.3;fill:url(#Dégradé_sans_nom_17);}.cls-4{fill:#111116;}.cls-5{fill:#fff;}.cls-6{fill:#d35d91;}.cls-7{fill:#b9cd5c;}.cls-8{fill:#9779ab;}</style><radialGradient id="Dégradé_sans_nom_17" cx="31.69" cy="-393.79" r="18.69" gradientTransform="translate(0 94.27) scale(1 0.13)" gradientUnits="userSpaceOnUse"><stop offset="0" stop-color="#7f4413"/><stop offset="0.24" stop-color="#7f4413" stop-opacity="0.71"/><stop offset="0.58" stop-color="#7f4413" stop-opacity="0.33"/><stop offset="0.85" stop-color="#7f4413" stop-opacity="0.09"/><stop offset="1" stop-color="#7f4413" stop-opacity="0"/></radialGradient></defs><title>Payment_Cards_Colors_Illicado_64px</title><g id="Square"><rect class="cls-1" width="64" height="64"/></g><g id="Icon"><rect class="cls-2" x="5" y="13" width="54" height="38" rx="2"/><ellipse class="cls-3" cx="31.69" cy="41.76" rx="18.69" ry="2.49"/><path class="cls-4" d="M13.49,40H42.4a8.26,8.26,0,0,0,8.14-6.7A8.25,8.25,0,0,0,44,23.7a9.14,9.14,0,0,0-1.56-.14H21.56a8.24,8.24,0,0,0-8,6.17,8.64,8.64,0,0,0-.26,2v8.2C13.31,40,13.3,40,13.49,40Z"/><path class="cls-5" d="M21.54,23.56H42.45A8.93,8.93,0,0,1,44,23.7a8.25,8.25,0,0,1,6.54,9.64,8.26,8.26,0,0,1-8,6.7h-29c-.19,0-.18,0-.18-.15v-8.2a8.64,8.64,0,0,1,.26-2,8.23,8.23,0,0,1,8-6.17m0-.31a8.55,8.55,0,0,0-8.27,6.4,8.71,8.71,0,0,0-.27,2v8.23a.42.42,0,0,0,.11.32.48.48,0,0,0,.38.11h29a8.6,8.6,0,0,0,8.36-7,8.55,8.55,0,0,0-8.4-10.15H21.54Z"/><path class="cls-5" d="M30.83,33.85a.31.31,0,0,0-.42.07.85.85,0,0,0-.14.19,1.25,1.25,0,0,1-1,.62,2,2,0,0,1-1-.07,1.23,1.23,0,0,1-.88-1.07,1.5,1.5,0,0,1,1.29-1.72,1.45,1.45,0,0,1,1.3.38l.3.27a.29.29,0,0,0,.46,0,.35.35,0,0,0,.12-.5,1.58,1.58,0,0,0-.29-.34A2.57,2.57,0,0,0,29.26,31a2.3,2.3,0,0,0-1,.1,2.54,2.54,0,0,0-1.38,1.05,2,2,0,0,0-.34,1.23,2.08,2.08,0,0,0,.15.78,2,2,0,0,0,1.68,1.35,3.14,3.14,0,0,0,1.58-.15,1.74,1.74,0,0,0,1-.88l.08-.17a.37.37,0,0,0-.1-.4Z"/><path class="cls-2" d="M25.14,28.54a.8.8,0,0,0-1,.79c0,.07,0,.13,0,.2a.56.56,0,0,0,0,.12.78.78,0,0,0,1,.46l.06,0a.71.71,0,0,0,.45-.91C25.63,28.87,25.62,28.69,25.14,28.54Z"/><path class="cls-2" d="M24.94,31.07a.44.44,0,0,0-.51.29,2.21,2.21,0,0,0-.13.67c0,.5,0,1,0,1.5s0,1,0,1.59a.3.3,0,0,0,.12.25.74.74,0,0,0,.54.16h0a.33.33,0,0,0,.3-.35c0-.1,0-.21,0-.31a15.86,15.86,0,0,1,0-2.18l.07-1.15h0A.42.42,0,0,0,24.94,31.07Z"/><path class="cls-6" d="M20.26,27.4a.45.45,0,0,0-.61.32,3,3,0,0,0-.15.72c0,.16,0,.33-.06.49-.1,1-.15,2.09-.15,3.14,0,.55,0,1.09,0,1.64,0,.08,0,.15,0,.24a5.29,5.29,0,0,0,.15,1,1.71,1.71,0,0,0,.09.3.51.51,0,0,0,.46.3.65.65,0,0,0,.24,0h0a.28.28,0,0,0,.23-.33c0-.32-.08-.64-.1-1s-.06-.67-.08-1c-.05-.9-.07-1.81,0-2.7,0-.55.07-1.1.13-1.64,0-.28.05-.56.1-.83a.66.66,0,0,0,0-.28A.33.33,0,0,0,20.26,27.4Z"/><path class="cls-7" d="M18,31.46a.49.49,0,0,0-.33-.38.63.63,0,0,0-.57.15.36.36,0,0,0-.09.24c0,.57,0,1.15.06,1.71v.11c0,.58,0,1.17,0,1.76,0,.37.15.49.52.47h.09a.34.34,0,0,0,.34-.39c.05-1,0-2.1,0-3.16A2.16,2.16,0,0,0,18,31.46Z"/><path class="cls-7" d="M17.37,28.5a.89.89,0,0,0-.78.9.83.83,0,0,0,.83.75.78.78,0,0,0,.78-.85A.84.84,0,0,0,17.37,28.5Z"/><path class="cls-8" d="M22.89,28.62l.11-.9a.26.26,0,0,0-.19-.31.72.72,0,0,0-.52,0,.42.42,0,0,0-.22.28,3.42,3.42,0,0,0-.15.65c-.1.73-.17,1.48-.2,2.23,0,.46,0,.93,0,1.29s0,.8,0,1.15a13.28,13.28,0,0,0,.17,1.89,1.82,1.82,0,0,0,.07.25c0,.06.06.12.08.17.12.25.73.23.84,0a.53.53,0,0,0,.07-.35c0-.28-.06-.41-.08-.84s-.07-.88-.09-1.31c-.05-.8,0-1.61,0-2.42A14.1,14.1,0,0,1,22.89,28.62Z"/><path class="cls-5" d="M41.41,33.45c0-.31,0-.62-.07-.93,0-.73-.07-1.46,0-2.18s.06-1.45.13-2.17a1.64,1.64,0,0,0,0-.54c0-.21-.1-.27-.31-.26H41a.58.58,0,0,0-.43.51c-.06,1.09-.11,2.17-.08,3.25v.1a1.63,1.63,0,0,0-.53-.16,2.35,2.35,0,0,0-2,.59,1.84,1.84,0,0,0-.54,1,2.78,2.78,0,0,0,0,1.64,1.79,1.79,0,0,0,1.31,1.24,2,2,0,0,0,1.58-.28c.15-.1.39-.35.44-.33s0,0,0,.08a2,2,0,0,0,.12.34.38.38,0,0,0,.14.14.49.49,0,0,0,.56-.19.23.23,0,0,0,0-.2C41.58,34.53,41.48,34,41.41,33.45Zm-.88.06a1.2,1.2,0,0,1-2.4.1,2.42,2.42,0,0,1,.12-1,1.15,1.15,0,0,1,.89-.74l.4-.05h.19a.8.8,0,0,1,.67.47l.09.24A2.91,2.91,0,0,1,40.53,33.51Z"/><path class="cls-5" d="M46.63,32.13A2.07,2.07,0,0,0,44.83,31a2.49,2.49,0,0,0-1.11.2,2.19,2.19,0,0,0-1.28,1.61,2.91,2.91,0,0,0,0,1.14,2.25,2.25,0,0,0,1.7,1.61,2.36,2.36,0,0,0,.46,0,2.25,2.25,0,0,0,2.14-1.26l0-.1A2.16,2.16,0,0,0,46.9,33,2.8,2.8,0,0,0,46.63,32.13Zm-.55,1.53a1.21,1.21,0,0,1-.54.84,1.43,1.43,0,0,1-.88.28,1.41,1.41,0,0,1-1.47-1.05,1.83,1.83,0,0,1,0-.84,1.25,1.25,0,0,1,.87-1,2.27,2.27,0,0,1,.73-.11,1.23,1.23,0,0,1,1.19.87A2,2,0,0,1,46.08,33.66Z"/><path class="cls-5" d="M36.39,33.28c0-.34,0-.76,0-1v-.74c0-.22-.07-.3-.3-.3a.62.62,0,0,0-.32.09.24.24,0,0,1-.27,0l-.2-.08a2.73,2.73,0,0,0-2.57.31,2.42,2.42,0,0,0-.87,1.6,2.11,2.11,0,0,0,.05.83,2.16,2.16,0,0,0,1.62,1.53,2.51,2.51,0,0,0,1.93-.41l.27-.19a2.92,2.92,0,0,0,.14.31.36.36,0,0,0,.55.2.35.35,0,0,0,.24-.46A10.77,10.77,0,0,1,36.39,33.28Zm-.79.26a.91.91,0,0,1-.31.76,2,2,0,0,1-.85.46A1.53,1.53,0,0,1,33,34.34a1.35,1.35,0,0,1-.31-.59,1.57,1.57,0,0,1,1-1.82,2,2,0,0,1,1,0,.89.89,0,0,1,.81.84,2.47,2.47,0,0,1,0,.61Z"/></g></svg>