<svg xmlns="http://www.w3.org/2000/svg" viewBox="0 0 64 64"><defs><style>.cls-1{fill:none;}.cls-2{fill:#fff;}.cls-3{fill:#d3d2d6;}.cls-4{fill:#eaf3e2;}.cls-5{fill:#cbe3b5;}.cls-6{fill:#78be20;}</style></defs><title>Payment_Cards_Colors_Gift_64px</title><g id="Square"><rect class="cls-1" width="64" height="64"/></g><g id="Icon"><rect class="cls-2" x="5" y="13" width="54" height="38" rx="2"/><path class="cls-3" d="M57,14a1,1,0,0,1,1,1V49a1,1,0,0,1-1,1H7a1,1,0,0,1-1-1V15a1,1,0,0,1,1-1H57m0-1H7a2,2,0,0,0-2,2V49a2,2,0,0,0,2,2H57a2,2,0,0,0,2-2V15a2,2,0,0,0-2-2Z"/><path class="cls-4" d="M57,13H21V51H57a2,2,0,0,0,2-2V15A2,2,0,0,0,57,13Z"/><path class="cls-5" d="M57,51H21V50H57a1,1,0,0,0,1-1V15a1,1,0,0,0-1-1H21V13H57a2,2,0,0,1,2,2V49A2,2,0,0,1,57,51Z"/><path class="cls-6" d="M14.44,16.62,18.81,21a1.5,1.5,0,0,1-1.06,2.56H9A1.5,1.5,0,0,1,7.94,21l4.37-4.38A1.52,1.52,0,0,1,14.44,16.62Z"/><path class="cls-6" d="M49,26H47.24A4.49,4.49,0,0,0,40,20.71,4.46,4.46,0,0,0,36.5,19a4.5,4.5,0,0,0-3.74,7H31a1,1,0,0,0-1,1V43a1,1,0,0,0,1,1H49a1,1,0,0,0,1-1V27A1,1,0,0,0,49,26Zm-1,8H41V28h7ZM43.5,21a2.5,2.5,0,0,1,0,5H41V23.5A2.5,2.5,0,0,1,43.5,21ZM34,23.5a2.5,2.5,0,0,1,5,0V26H36.5A2.5,2.5,0,0,1,34,23.5ZM36.5,28H39v6H32V28ZM32,36h7v6H32Zm9,6V36h7v6Z"/></g></svg>