<svg xmlns="http://www.w3.org/2000/svg" xmlns:xlink="http://www.w3.org/1999/xlink" viewBox="0 0 64 64"><defs><style>.cls-1{fill:none;}.cls-2{fill:url(#Dégradé_sans_nom_196);}.cls-3{fill:#d3d2d6;}.cls-4{opacity:0.1;}.cls-5{fill:url(#Dégradé_sans_nom_244);}.cls-6{fill:#1b2070;}.cls-7{fill:#f7b601;}</style><linearGradient id="Dégradé_sans_nom_196" x1="3433.78" y1="-1962.5" x2="3387.45" y2="-2009.01" gradientTransform="matrix(-1.14, 0, 0, 0.79, 3916.27, 1609.36)" gradientUnits="userSpaceOnUse"><stop offset="0" stop-color="#fff"/><stop offset="0.4" stop-color="#f9f9f9"/><stop offset="0.93" stop-color="#e9e9e9"/><stop offset="1" stop-color="#e6e6e6"/></linearGradient><linearGradient id="Dégradé_sans_nom_244" x1="3433.78" y1="-1962.5" x2="3387.45" y2="-2009.01" gradientTransform="matrix(-1.14, 0, 0, 0.79, 3916.27, 1609.36)" gradientUnits="userSpaceOnUse"><stop offset="0" stop-color="#000070" stop-opacity="0"/><stop offset="0.25" stop-color="#00006e" stop-opacity="0.05"/><stop offset="0.48" stop-color="#000067" stop-opacity="0.22"/><stop offset="0.71" stop-color="#00005c" stop-opacity="0.49"/><stop offset="0.93" stop-color="#00004c" stop-opacity="0.86"/><stop offset="1" stop-color="#000046"/></linearGradient></defs><title>Payment_Cards_Colors_Visa_64px</title><g id="Square"><rect class="cls-1" width="64" height="64"/></g><g id="Icon"><rect class="cls-2" x="5" y="13" width="54" height="38" rx="2"/><path class="cls-3" d="M57,14a1,1,0,0,1,1,1V49a1,1,0,0,1-1,1H7a1,1,0,0,1-1-1V15a1,1,0,0,1,1-1H57m0-1H7a2,2,0,0,0-2,2V49a2,2,0,0,0,2,2H57a2,2,0,0,0,2-2V15a2,2,0,0,0-2-2Z"/><g class="cls-4"><rect class="cls-5" x="5" y="13" width="54" height="38" rx="2"/></g><polygon class="cls-6" points="24.88 37.66 26.81 26.37 29.89 26.37 27.96 37.66 24.88 37.66"/><path class="cls-6" d="M39.12,26.65a7.85,7.85,0,0,0-2.76-.47c-3,0-5.18,1.53-5.19,3.72,0,1.63,1.53,2.52,2.7,3.06s1.58.91,1.58,1.4c0,.76-1,1.11-1.84,1.11a6.45,6.45,0,0,1-2.89-.59l-.4-.18-.43,2.53a9.82,9.82,0,0,0,3.43.59c3.23,0,5.32-1.5,5.35-3.85,0-1.29-.8-2.27-2.58-3.07-1.07-.51-1.74-.87-1.72-1.4s.55-1,1.75-1a5.71,5.71,0,0,1,2.31.43l.27.14.42-2.45"/><path class="cls-6" d="M47,26.38H44.63a1.52,1.52,0,0,0-1.6.94L38.45,37.66h3.23l.65-1.7h3.94c.1.4.38,1.69.38,1.69H49.5L47,26.37m-3.8,7.27,1.22-3.15s.26-.66.41-1.08l.21,1,.71,3.25Z"/><path class="cls-6" d="M22.3,26.38l-3,7.7L19,32.52a8.85,8.85,0,0,0-4.26-4.74l2.75,9.87h3.26l4.83-11.27H22.3"/><path class="cls-6" d="M16.49,26.37H11.54l0,.24c3.85.93,6.42,3.19,7.48,5.91l-1.09-5.19a1.29,1.29,0,0,0-1.4-1"/><path class="cls-7" d="M5,43v6a2,2,0,0,0,2,2H57a2,2,0,0,0,2-2V43Z"/><path class="cls-6" d="M59,21V15a2,2,0,0,0-2-2H7a2,2,0,0,0-2,2v6Z"/></g></svg>