<svg xmlns="http://www.w3.org/2000/svg" viewBox="0 0 64 64"><defs><style>.cls-1{fill:none;}.cls-2{fill:#999;}.cls-3{fill:#fff;}</style></defs><title>Store_StoreLocation--Colors_64px</title><g id="Square"><rect class="cls-1" width="64" height="64"/></g><g id="Icon"><path class="cls-2" d="M32,5A22.52,22.52,0,0,0,9.5,27.5c0,11.24,17.63,27.65,21.17,30.83a2,2,0,0,0,1.33.5,2,2,0,0,0,1.33-.51C36.87,55.15,54.5,38.74,54.5,27.5A22.52,22.52,0,0,0,32,5Z"/><path class="cls-3" d="M33.41,16.91,43.59,27.09a2,2,0,0,1-1.42,3.41H21.83a2,2,0,0,1-1.42-3.41L30.59,16.91A2,2,0,0,1,33.41,16.91Z"/></g></svg>