<svg xmlns="http://www.w3.org/2000/svg" viewBox="0 0 64 64"><defs><style>.cls-1{fill:none;}.cls-2{fill:#999;}.cls-3{fill:#fff;}</style></defs><title>Store_relayLocation--Colors_64px</title><g id="Square"><rect class="cls-1" width="64" height="64"/></g><g id="Icon"><path class="cls-2" d="M32,5A22.52,22.52,0,0,0,9.5,27.5c0,11.24,17.63,27.65,21.17,30.83a2,2,0,0,0,1.33.5,2,2,0,0,0,1.33-.51C36.87,55.15,54.5,38.74,54.5,27.5A22.52,22.52,0,0,0,32,5Z"/><path class="cls-3" d="M38.48,22,43,19.34l-10-5.9a2,2,0,0,0-2,0l-3.44,2Z"/><polygon class="cls-3" points="25.58 16.63 21 19.34 32 25.84 36.52 23.17 25.58 16.63"/><path class="cls-3" d="M33,27.55v13l10-5.9a2,2,0,0,0,1-1.72V21.07Z"/><path class="cls-3" d="M31,27.59,20,21.07V32.93a2,2,0,0,0,1,1.72L31,40.59Z"/></g></svg>