<svg xmlns="http://www.w3.org/2000/svg" viewBox="0 0 224 64"><g clip-path="url(#a)"><path fill="#A70584" d="M32.035 48.83V36.083H19.183v12.745h12.852z"/><path fill="#36B588" d="M31.983 31.64V18.786H19.131v12.852h12.852z"/><path fill="#FAD05B" d="M14.847 48.775V35.923H1.994v12.852h12.853z"/><path d="M70.354 17.98c0 8.868-7.133 15.98-16.323 15.98h-7.004v14.652H36.359V2H54.01c9.211 0 16.344 7.133 16.344 15.98zm-10.646 0c0-3.406-2.4-5.998-5.655-5.998h-7.005v11.996h7.005c3.256 0 5.655-2.592 5.655-5.998zm47.833-3.556v34.188h-10.26v-3.213c-2.25 2.591-5.613 4.177-10.197 4.177-8.954 0-16.344-7.862-16.344-18.058 0-10.197 7.39-18.058 16.344-18.058 4.584 0 7.926 1.564 10.196 4.177v-3.213h10.261zm-10.26 17.094c0-5.12-3.428-8.354-8.14-8.354-4.713 0-8.14 3.213-8.14 8.354 0 5.12 3.427 8.354 8.14 8.354 4.712-.022 8.14-3.235 8.14-8.354zm49.224-17.094l-11.61 32.946c-3.813 10.796-9.853 15.08-19.364 14.609v-9.511c4.755 0 7.004-1.5 8.482-5.634l-13.495-32.41h11.203l7.541 20.779 6.383-20.779h10.86zm37.98 3.556c0 8.868-7.133 15.98-16.323 15.98h-7.005v14.652H150.49V2h17.651c9.211 0 16.344 7.133 16.344 15.98zm-10.646 0c0-3.406-2.4-5.998-5.656-5.998h-7.004v11.996h7.004c3.256 0 5.656-2.592 5.656-5.998zm11.974 14.01c0-9.918 7.861-17.587 17.651-17.587 9.789 0 17.651 7.668 17.651 17.586s-7.862 17.587-17.651 17.587c-9.79 0-17.651-7.669-17.651-17.587zm25.319 0c0-4.735-3.341-7.862-7.668-7.862s-7.669 3.127-7.669 7.861 3.342 7.862 7.669 7.862c4.348 0 7.668-3.128 7.668-7.862z"/></g><defs><clipPath id="a"><path fill="#fff" transform="translate(2 2)" d="M0 0h219.136v60H0z"/></clipPath></defs></svg>