<svg xmlns="http://www.w3.org/2000/svg" viewBox="0 0 142 48"><path fill="#81BC00" d="M19.825 2C10.494 1.918 2.912 9.432 2.83 18.7v.417c-.084 9.351 7.332 17.032 16.663 17.116h.333c9.332.083 16.914-7.431 16.997-16.782v-.334c.166-9.35-7.332-16.948-16.58-17.115h-.417zm0 28.387c-6.082 0-10.997-5.01-10.997-11.187v-.084C8.66 13.021 13.493 7.928 19.575 7.762c6.082-.167 11.165 4.592 11.331 10.686v.585c0 6.261-4.915 11.27-11.08 11.354 0 0 .083 0 0 0zM139.384 2.001l-12.997 31.81-3.25 7.847L121.388 46h-6.416l4.999-12.19L106.724 2h6.749l9.748 23.879L132.969 2h6.415zM55.568 7.678c-5.999 0-9.081 3.256-9.081 9.601v18.87H40.32V16.861c.083-3.423.667-5.76 2-8.015 1.666-2.505 5.499-6.763 13.164-6.763s11.58 4.258 13.164 6.763c1.416 2.421 2.166 5.26 2 8.015v19.37h-6.166V17.279c.166-6.428-2.833-9.601-8.915-9.601zm25.245 8.349c1.166-5.594 6.582-9.1 12.164-7.932 4 .835 7.082 3.925 7.915 7.932h-20.08zm26.578 2.672c0-9.1-7.332-16.531-16.497-16.615-9.331 0-16.58 7.514-16.58 17.032 0 4.425 1.75 8.767 4.832 12.023 3 3.256 7.249 5.093 11.665 5.093 4.999 0 12.081-2.422 15.413-9.268 0-.083.083-.167.083-.25h-6.748v.083c-2.166 2.338-5.249 3.674-8.498 3.674-5.166-.084-9.498-3.84-10.415-8.934h26.661c0-.751.084-2.003.084-2.838z"/></svg>