<svg xmlns="http://www.w3.org/2000/svg" viewBox="0 0 193 48">
      
  <g fill-rule="evenodd">
    <path fill="#0B1643" d="M61.9 35.952a.39.39 0 0 1-.118-.287v-16.5a.39.39 0 0 1 .118-.287.39.39 0 0 1 .286-.119h3.103a.39.39 0 0 1 .287.119.39.39 0 0 1 .118.287v16.5c0 .113-.04.209-.118.287a.39.39 0 0 1-.287.119h-3.103a.388.388 0 0 1-.286-.119Zm.185-20.202c-.45-.45-.675-1.025-.675-1.724 0-.699.225-1.274.675-1.725.45-.45 1.023-.676 1.72-.676.697 0 1.27.226 1.72.676.45.451.675 1.026.675 1.725 0 .699-.225 1.273-.675 1.724-.45.451-1.023.676-1.72.676-.697 0-1.27-.225-1.72-.676Zm-3.93 3.128c.08.079.119.174.119.287v2.671c0 .113-.04.209-.118.288a.389.389 0 0 1-.287.118h-3.34c-.112 0-.168.056-.168.169v13.254c0 .113-.04.209-.118.287a.389.389 0 0 1-.287.119h-3.103a.387.387 0 0 1-.286-.119.39.39 0 0 1-.118-.287V22.411c0-.113-.057-.17-.17-.17h-2.09a.388.388 0 0 1-.287-.117.39.39 0 0 1-.118-.288v-2.671a.39.39 0 0 1 .118-.287.39.39 0 0 1 .287-.119h2.09c.113 0 .17-.056.17-.169v-.608c0-1.465.19-2.598.573-3.398.382-.8 1.012-1.37 1.889-1.708.877-.338 2.113-.495 3.71-.473h1.18c.113 0 .208.04.287.118.079.08.118.175.118.287v2.367c0 .113-.04.209-.118.288a.39.39 0 0 1-.287.118h-.877c-.966 0-1.635.192-2.006.575-.371.383-.557 1.082-.557 2.096v.338c0 .113.056.17.169.17h3.339c.112 0 .208.039.287.118Zm24.15 1.267c1.09 1.083 1.636 2.56 1.636 4.43v11.09c0 .113-.04.209-.118.288a.39.39 0 0 1-.287.118h-3.103a.388.388 0 0 1-.287-.118.39.39 0 0 1-.118-.288V25.386c0-1.036-.292-1.876-.877-2.518-.585-.643-1.36-.964-2.327-.964-.967 0-1.749.316-2.344.947-.596.63-.894 1.465-.894 2.502v10.312c0 .113-.04.209-.118.288a.39.39 0 0 1-.287.118h-3.103a.388.388 0 0 1-.287-.118.39.39 0 0 1-.118-.288V19.2c0-.113.04-.208.118-.288a.39.39 0 0 1 .287-.118h3.103c.112 0 .208.04.287.118.078.08.118.175.118.288v1.082c0 .068.022.113.067.135.045.023.079 0 .102-.067.921-1.218 2.315-1.826 4.182-1.826 1.821 0 3.277.54 4.368 1.622Zm14.233 1.708a.39.39 0 0 1-.286.118h-3.44c-.114 0-.17.057-.17.17v8.148c0 .857.186 1.477.557 1.86.371.383.962.574 1.771.574h1.012c.112 0 .207.04.287.119.078.08.118.175.118.287v2.536c0 .248-.135.395-.405.44l-1.754.033c-1.777 0-3.103-.304-3.98-.912-.877-.609-1.327-1.759-1.35-3.45V22.14c0-.112-.056-.169-.168-.169h-1.922a.388.388 0 0 1-.287-.118.389.389 0 0 1-.118-.287v-2.367a.39.39 0 0 1 .118-.288.39.39 0 0 1 .287-.118h1.922c.112 0 .169-.056.169-.169v-3.956c0-.112.039-.208.118-.287a.39.39 0 0 1 .287-.119h2.934c.112 0 .208.04.287.119a.395.395 0 0 1 .118.287v3.956c0 .113.055.17.168.17h3.44c.113 0 .208.039.287.117.079.08.118.175.118.288v2.367c0 .113-.04.208-.118.287Zm7.724.677c-.551.417-.939.997-1.163 1.74-.135.384-.225.88-.27 1.488-.045.113 0 .17.135.17h6.847c.112 0 .168-.057.168-.17-.045-.563-.112-.991-.202-1.284-.202-.812-.602-1.443-1.197-1.894-.596-.45-1.344-.676-2.243-.676-.832 0-1.524.209-2.075.625Zm9.698 4.851-.034 1.048c0 .27-.135.406-.405.406h-10.557c-.113 0-.169.057-.169.17.068.743.169 1.25.304 1.52.539 1.624 1.855 2.447 3.946 2.469 1.529 0 2.743-.63 3.643-1.893.089-.136.202-.203.337-.203.09 0 .169.034.236.101l2.091 1.725c.203.158.237.338.102.54-.698.993-1.625 1.759-2.783 2.3-1.158.54-2.445.811-3.862.811-1.754 0-3.244-.394-4.469-1.183-1.226-.789-2.12-1.894-2.681-3.314-.518-1.217-.776-2.908-.776-5.072 0-1.306.134-2.366.404-3.178.45-1.577 1.299-2.823 2.547-3.736 1.248-.913 2.749-1.37 4.503-1.37 4.429 0 6.925 2.323 7.488 6.966.089.563.135 1.195.135 1.893Zm5.767 7.625c-1.259-.89-2.136-2.09-2.631-3.601-.36-1.014-.539-2.367-.539-4.058 0-1.623.179-2.952.539-3.99.472-1.487 1.344-2.665 2.614-3.533 1.27-.867 2.771-1.301 4.503-1.301 1.754 0 3.283.44 4.587 1.318 1.304.88 2.17 1.984 2.597 3.314.113.36.191.721.237 1.082v.067c0 .226-.124.361-.371.406l-3.036.44h-.068c-.202 0-.337-.113-.404-.338a.895.895 0 0 0-.034-.27 6.567 6.567 0 0 0-.135-.474c-.202-.63-.607-1.15-1.214-1.556-.607-.405-1.327-.608-2.159-.608-.855 0-1.58.22-2.175.66-.597.439-.995 1.042-1.198 1.808-.225.722-.337 1.724-.337 3.01 0 1.24.101 2.242.304 3.009.224.789.629 1.414 1.214 1.876.584.462 1.315.693 2.192.693.854 0 1.591-.22 2.209-.66a2.962 2.962 0 0 0 1.198-1.774.384.384 0 0 0 .033-.17c.023-.021.034-.055.034-.1.068-.271.225-.384.472-.339l3.036.474a.554.554 0 0 1 .287.152c.078.079.106.186.084.32a9.383 9.383 0 0 1-.169.779c-.427 1.442-1.293 2.586-2.597 3.432-1.304.845-2.833 1.267-4.587 1.267-1.732 0-3.227-.444-4.486-1.335Zm23.728-13.153a.39.39 0 0 1-.287.118h-3.44c-.113 0-.169.057-.169.17v8.148c0 .857.186 1.477.557 1.86.371.383.961.574 1.77.574h1.012a.39.39 0 0 1 .287.119c.079.08.118.175.118.287v2.536c0 .248-.135.395-.405.44l-1.754.033c-1.776 0-3.103-.304-3.98-.912-.877-.609-1.327-1.759-1.349-3.45V22.14c0-.112-.056-.169-.168-.169h-1.923a.39.39 0 0 1-.287-.118.39.39 0 0 1-.118-.287v-2.367c0-.113.039-.208.118-.288a.39.39 0 0 1 .287-.118h1.923c.112 0 .168-.056.168-.169v-3.956c0-.112.039-.208.118-.287a.39.39 0 0 1 .287-.119h2.934a.39.39 0 0 1 .287.119.391.391 0 0 1 .118.287v3.956c0 .113.056.17.169.17h3.44c.112 0 .208.039.287.117.078.08.118.175.118.288v2.367c0 .113-.04.208-.118.287Zm13.39-2.941a.39.39 0 0 1 .287-.119h3.069a.39.39 0 0 1 .287.119.39.39 0 0 1 .118.287v16.466a.39.39 0 0 1-.118.288.389.389 0 0 1-.287.118h-3.069a.389.389 0 0 1-.287-.118.39.39 0 0 1-.118-.288v-1.082c0-.068-.022-.112-.067-.135-.045-.022-.09 0-.135.067-.922 1.195-2.305 1.792-4.149 1.792-1.709 0-3.142-.495-4.3-1.487-1.158-.992-1.737-2.4-1.737-4.227V19.2c0-.113.039-.208.118-.288a.388.388 0 0 1 .286-.118h3.104a.39.39 0 0 1 .286.119.39.39 0 0 1 .118.287v10.278c0 1.06.276 1.905.827 2.537.55.63 1.32.946 2.31.946 1.012 0 1.822-.315 2.429-.947.607-.63.91-1.476.91-2.535v-10.28c0-.112.039-.207.118-.287Zm17.353.118c.18.09.247.259.202.507l-.573 3.043c-.023.27-.18.35-.472.237a3.738 3.738 0 0 0-1.181-.17c-.292 0-.517.012-.674.034-.945.046-1.732.378-2.361.998-.63.62-.945 1.426-.945 2.417v9.569a.39.39 0 0 1-.118.287.388.388 0 0 1-.286.119h-3.104a.387.387 0 0 1-.286-.119.39.39 0 0 1-.118-.287V19.199c0-.113.039-.208.118-.288a.388.388 0 0 1 .286-.118h3.104a.39.39 0 0 1 .286.118c.079.08.118.175.118.288v1.521c0 .09.017.141.051.152.034.012.073-.017.118-.084.944-1.465 2.26-2.198 3.946-2.198.72 0 1.349.147 1.889.44Zm6.897 3.5c-.551.417-.939.997-1.164 1.74-.134.384-.225.88-.269 1.488-.046.113 0 .17.135.17h6.847c.112 0 .168-.057.168-.17-.045-.563-.113-.991-.202-1.284-.202-.812-.602-1.443-1.197-1.894-.597-.45-1.344-.676-2.244-.676-.832 0-1.523.209-2.074.625Zm9.697 4.851-.033 1.048c0 .27-.135.406-.405.406h-10.557c-.113 0-.169.057-.169.17.067.743.169 1.25.303 1.52.54 1.624 1.856 2.447 3.947 2.469 1.529 0 2.743-.63 3.643-1.893.089-.136.202-.203.337-.203.089 0 .168.034.236.101l2.091 1.725c.203.158.236.338.101.54-.697.993-1.624 1.759-2.782 2.3-1.159.54-2.446.811-3.862.811-1.754 0-3.244-.394-4.469-1.183-1.226-.789-2.12-1.894-2.682-3.314-.517-1.217-.776-2.908-.776-5.072 0-1.306.135-2.366.405-3.178.45-1.577 1.299-2.823 2.547-3.736 1.248-.913 2.749-1.37 4.502-1.37 4.43 0 6.926 2.323 7.488 6.966.09.563.135 1.195.135 1.893Z"/>
    <path fill="#1DDBA9" d="M27.564 2c-.43 0-.835.111-1.187.306 0 0-22.24 12.863-22.255 12.87-.717.404-1.246 1.147-1.246 2.031v24.197c0 1.033.784 1.877 1.735 2.165l8.697 2.343c.207.056.424.088.648.088 1.274 0 2.446-.981 2.445-2.218v-3.39l-4.706-.586c-1.136-.162-1.987-1.205-1.994-2.4V20.038a2.458 2.458 0 0 1 1.482-2.16l18.866-7.687V4.262C29.95 2.997 28.852 2 27.564 2Z"/>
    <path fill="#0B1643" d="M18.304 22.048c-1.081.295-1.902 1.23-1.902 2.395v15.949l4.385.545c1.37.184 2.453-1.1 2.453-2.459l.018-8.816c-.003-1.19 1.003-2.132 2.18-2.304l9.294-1.174.004-.001c1.118-.156 2.075-1.022 2.075-2.154V10.75c0-1.23-1.184-2.132-2.428-2.132-.3 0-.587.057-.853.156l-3.48 1.418v6.858c0 1.1-.754 2.03-1.75 2.345l-9.996 2.654Z"/>
  </g>
</svg>
