<svg id="Logotypes_Payment_GooglePay_24px" xmlns="http://www.w3.org/2000/svg" viewBox="0 0 43 24"><path fill="#fff" d="M30.2 2H12.6c-5.5 0-10 4.5-10 10s4.5 10 10 10h17.6c5.5 0 10-4.5 10-10s-4.5-10-10-10z"/><path fill="#3C4043" d="M30.2 2.81c1.235 0 2.435.245 3.565.725a9.27 9.27 0 014.9 4.9c.48 1.13.725 2.33.725 3.565a9.072 9.072 0 01-.725 3.565 9.27 9.27 0 01-4.9 4.9c-1.13.48-2.33.725-3.565.725H12.6a9.071 9.071 0 01-3.565-.725 9.27 9.27 0 01-4.9-4.9A9.072 9.072 0 013.41 12c0-1.235.245-2.435.725-3.565a9.27 9.27 0 014.9-4.9A9.071 9.071 0 0112.6 2.81h17.6zm0-.81H12.6c-5.5 0-10 4.5-10 10s4.5 10 10 10h17.6c5.5 0 10-4.5 10-10s-4.5-10-10-10z"/><path fill="#3C4043" d="M20.528 12.71v3.025h-.96v-7.47h2.545c.645 0 1.195.215 1.645.645.46.43.69.955.69 1.575 0 .635-.23 1.16-.69 1.585-.445.425-.995.635-1.645.635h-1.585v.005zm0-3.525v2.605h1.605c.38 0 .7-.13.95-.385a1.26 1.26 0 00.385-.915c0-.345-.13-.65-.385-.905a1.245 1.245 0 00-.95-.395h-1.605v-.005zm6.431 1.27c.71 0 1.27.19 1.68.57.41.38.614.9.614 1.56v3.15h-.915v-.71h-.04c-.394.585-.924.875-1.584.875-.566 0-1.035-.165-1.415-.5-.38-.335-.57-.75-.57-1.25 0-.53.2-.95.6-1.26.4-.315.934-.47 1.6-.47.57 0 1.04.105 1.405.315v-.22c0-.335-.13-.615-.395-.85a1.355 1.355 0 00-.93-.35c-.535 0-.96.225-1.27.68l-.846-.53c.465-.675 1.155-1.01 2.066-1.01zm-1.24 3.71c0 .25.104.46.32.625.21.165.46.25.744.25.405 0 .765-.15 1.08-.45.316-.3.476-.65.476-1.055-.3-.235-.715-.355-1.25-.355-.39 0-.715.095-.976.28-.264.195-.395.43-.395.705zm8.754-3.545l-3.2 7.36h-.99l1.19-2.575-2.11-4.785h1.045l1.52 3.67h.02l1.48-3.67h1.045z"/><path fill="#4285F4" d="M16.71 12.1c0-.313-.029-.613-.08-.9h-4.024v1.65h2.317a1.985 1.985 0 01-.86 1.329v1.07h1.38c.805-.745 1.266-1.847 1.266-3.15z"/><path fill="#34A853" d="M14.064 14.179c-.384.259-.878.41-1.457.41-1.117 0-2.065-.753-2.405-1.768H8.78v1.104a4.284 4.284 0 003.828 2.36c1.157 0 2.13-.381 2.837-1.036l-1.38-1.07z"/><path fill="#FABB05" d="M10.069 12.003c0-.285.047-.56.134-.82V10.08H8.78a4.261 4.261 0 00-.456 1.924c0 .692.165 1.345.456 1.923l1.423-1.104a2.583 2.583 0 01-.134-.82z"/><path fill="#E94235" d="M12.607 9.415c.632 0 1.197.217 1.644.642l1.222-1.221a4.115 4.115 0 00-2.866-1.116c-1.673 0-3.123.96-3.828 2.359l1.423 1.104c.34-1.015 1.288-1.768 2.405-1.768z"/></svg>