<svg id="Logotypes_Payment_MB--Way_48px" xmlns="http://www.w3.org/2000/svg" viewBox="0 0 116 48"><path fill="red" d="M5.747 40.39l-.157 1.194a.973.973 0 00.849 1.085H45.08c.55 0 .99-.425 1.006-.975v-.125l-.157-1.195a1.692 1.692 0 011.508-1.854c.912-.094 1.745.566 1.839 1.477l.157 1.163c.299 2.577-1.163 4.84-3.787 4.84H6.03c-2.608 0-4.054-2.263-3.755-4.84l.157-1.163a1.659 1.659 0 011.823-1.477c.927.11 1.602.927 1.508 1.854"/><path fill="#1D1D1B" d="M41.356 31.449c1.744.094 3.221-1.242 3.331-2.986v-.157c-.03-1.839-1.712-3.033-3.582-3.033h-3.772c-.88 0-1.587-.707-1.587-1.587s.707-1.587 1.587-1.587h2.53c1.697-.063 3.017-1.1 3.096-2.703.078-1.729-1.399-3.017-3.206-3.017h-6.128V31.4h7.731m4.636-12.021a4.955 4.955 0 01-1.477 3.551l-.095.11.126.079a6.155 6.155 0 013.159 5.154 6.332 6.332 0 01-6.192 6.412h-9.491c-.912 0-1.65-.755-1.634-1.682v-18.04c0-.911.722-1.665 1.634-1.681h7.731a6.072 6.072 0 016.239 5.893v.204zm-29.999 9.147l.047.125.047-.125c.425-1.195.96-2.53 1.51-3.945.55-1.414 1.13-2.954 1.696-4.337a71.546 71.546 0 011.634-3.724c.346-.801.77-1.571 1.258-2.279a2.525 2.525 0 012.027-.942h.393c.44-.016.864.125 1.21.392.267.22.44.535.487.88l2.404 18.653c.016.425-.126.817-.409 1.132a1.65 1.65 0 01-1.162.377 1.757 1.757 0 01-1.21-.362 1.327 1.327 0 01-.566-.942 47.4 47.4 0 01-.22-2.075c-.063-.77-.487-4.007-.581-4.824-.095-.817-.77-6.113-1.006-8.03v-.157l-.77 1.618a36.47 36.47 0 00-.849 1.996c-.298.77-.628 1.603-.927 2.467a954.03 954.03 0 01-1.823 5.092 38.806 38.806 0 00-.628 1.901c-.22.739-.456 1.367-.519 1.477a2.164 2.164 0 01-2.907.943 2.207 2.207 0 01-.974-.958c-.063-.126-.283-.77-.519-1.478-.236-.707-.487-1.492-.628-1.901 0 0-1.493-4.259-1.823-5.091-.33-.833-.629-1.682-.928-2.468a31.895 31.895 0 00-.848-1.995l-.77-1.603v.157c-.236 1.901-.912 7.181-1.006 8.03-.094.849-.503 4.054-.581 4.809-.079.754-.157 1.445-.236 2.074a1.358 1.358 0 01-.566.943 1.93 1.93 0 01-1.21.361 1.65 1.65 0 01-1.163-.377 1.576 1.576 0 01-.408-1.131L5.842 14.57c.063-.33.235-.628.487-.832a1.81 1.81 0 011.21-.425h.393a2.48 2.48 0 012.011.927c.503.708.927 1.478 1.257 2.279a66.102 66.102 0 011.635 3.724 362.327 362.327 0 011.712 4.337c.55 1.43 1.07 2.75 1.493 3.945"/><path fill="red" d="M11.263 2.016h29.244c2.75 0 4.133 2.074 4.432 4.793l.126.88a1.715 1.715 0 01-1.509 1.901 1.673 1.673 0 01-1.807-1.524l-.126-.849c-.126-1.037-.55-1.838-1.618-1.838H11.782c-1.053 0-1.493.801-1.619 1.838l-.11.833A1.677 1.677 0 018.23 9.574a1.715 1.715 0 01-1.508-1.901l.125-.88C7.177 4.074 8.545 2 11.28 2"/><path fill="#1D1D1B" d="M68.243 20.417c-.314 1.21-.644 2.514-.99 3.944-.346 1.43-.691 2.719-.99 3.945a32.736 32.736 0 01-.99 3.315 11.61 11.61 0 01-.754 1.98 1.948 1.948 0 01-1.87.928c-.33 0-.66-.063-.99-.142a1.608 1.608 0 01-.99-.848 11.961 11.961 0 01-.754-2.059c-.299-.99-.613-2.184-.99-3.52-.378-1.336-.66-2.734-.99-4.227-.33-1.493-.645-2.876-.896-4.149a198.131 198.131 0 00-.676-3.253c-.188-.88-.283-1.43-.298-1.618v-.346c0-.361.157-.707.44-.911a1.618 1.618 0 011.068-.346c.346 0 .692.079.99.251.283.22.472.535.534.88l.173.99c.11.629.283 1.368.472 2.279.188.911.408 1.98.628 3.127.22 1.147.472 2.326.739 3.52s.518 2.326.77 3.442a64.12 64.12 0 00.707 2.86c.22-.755.471-1.603.723-2.578.251-.974.55-1.98.817-2.954a74.5 74.5 0 00.754-3.096c.236-1.037.472-1.98.692-2.875.22-.896.393-1.666.55-2.357.157-.692.283-1.195.361-1.525.094-.393.314-.738.629-.99a1.782 1.782 0 012.31-.063c.314.252.518.598.597.99.267 1.069.518 2.295.817 3.646.299 1.352.597 2.703.896 4.07.298 1.367.644 2.719.99 4.054.345 1.336.66 2.483.99 3.505.22-.802.471-1.745.723-2.86.251-1.116.502-2.247.77-3.442.267-1.194.534-2.325.77-3.488.235-1.163.471-2.185.675-3.112.205-.927.362-1.665.472-2.247.11-.581.188-.896.188-.911.063-.346.252-.645.535-.865.298-.188.644-.267.99-.251.392 0 .77.11 1.068.346.283.22.44.565.44.911v.362c0 .172-.126.707-.314 1.618-.189.912-.409 1.98-.676 3.253a327.054 327.054 0 01-.896 4.133c-.33 1.477-.675 2.876-.99 4.211-.314 1.336-.628 2.515-.99 3.52-.188.707-.44 1.383-.754 2.027-.204.409-.55.739-.99.896a2.98 2.98 0 01-.99.173h-.408c-.189-.031-.393-.063-.566-.126a3.11 3.11 0 01-.597-.314 1.454 1.454 0 01-.472-.597 16.351 16.351 0 01-.707-2.09c-.283-.99-.581-2.074-.911-3.3-.33-1.226-.629-2.53-.99-3.866-.362-1.336-.597-2.593-.865-3.756m17.49 7.842a121.58 121.58 0 00-.88 2.954c-.251.896-.503 1.65-.723 2.232a1.501 1.501 0 01-1.681 1.288 1.501 1.501 0 01-1.289-1.681c0-.142.016-.299.063-.44l.409-1.367c.236-.77.55-1.729.911-2.892.362-1.163.802-2.404 1.257-3.787.456-1.383.928-2.734 1.415-4.07.487-1.336.99-2.593 1.445-3.756.378-.974.818-1.917 1.336-2.828.142-.33.393-.597.723-.755.393-.141.801-.22 1.226-.204.424 0 .848.063 1.257.22.33.157.597.456.707.802.314.66.691 1.555 1.116 2.671.424 1.116.895 2.326 1.367 3.63.471 1.304.99 2.624 1.414 3.944.424 1.32.896 2.609 1.289 3.772.393 1.163.723 2.168.99 2.954s.455 1.351.518 1.603c.047.141.079.283.063.44.016.377-.126.738-.408.99a1.571 1.571 0 01-1.163.393 1.223 1.223 0 01-.865-.252 1.588 1.588 0 01-.44-.707 52.01 52.01 0 01-.785-2.231c-.299-.912-.629-1.902-.99-2.955h-8.345m7.402-2.891a140.766 140.766 0 00-1.336-3.944c-.424-1.179-.801-2.326-1.273-3.442-.11-.251-.22-.518-.345-.864-.126-.346-.205-.503-.22-.566a2.25 2.25 0 00-.22.535 7.498 7.498 0 01-.362.895 76.549 76.549 0 00-1.288 3.442c-.425 1.21-.849 2.53-1.32 3.944h6.364zm11.377.707c-.11-.11-.22-.236-.314-.377l-.33-.456c-.314-.44-.644-.99-.99-1.618-.346-.629-.739-1.305-1.1-1.98a38.729 38.729 0 01-1.053-2.153c-.33-.723-.676-1.399-.943-1.98-.267-.582-.518-1.163-.723-1.619a6.74 6.74 0 01-.361-.99c-.031-.078-.063-.173-.094-.251v-.252c0-.377.141-.722.408-.99.314-.282.739-.44 1.163-.408.361-.047.723.078.99.33.173.188.314.424.409.66l.33.723c.172.377.377.833.612 1.398.236.566.519 1.163.833 1.839.315.676.629 1.32.99 1.98l.943 1.838c.252.503.534.975.849 1.446.503-.786.958-1.603 1.367-2.436.487-.99.99-1.932 1.398-2.875.409-.943.833-1.792 1.163-2.515l.582-1.367a2.2 2.2 0 01.408-.66 1.11 1.11 0 01.99-.33 1.52 1.52 0 011.163.409c.267.251.424.613.409.99v.251l-.079.252-.393.99c-.188.471-.424.99-.707 1.618a96.204 96.204 0 01-.911 1.98c-.33.692-.707 1.43-1.069 2.153a22.765 22.765 0 01-1.1 1.98c-.377.597-.707 1.194-.99 1.634a5.018 5.018 0 01-.644.77v6.915a1.5 1.5 0 01-.409 1.1 1.508 1.508 0 01-2.121 0 1.605 1.605 0 01-.472-1.132V26.09"/></svg>