<svg id="Logotypes_Payment_Oney_24px" xmlns="http://www.w3.org/2000/svg" viewBox="0 0 67 24"><path fill="#81BC00" d="M9.797 2C5.555 1.962 2.109 5.378 2.07 9.59v.19c-.038 4.25 3.333 7.742 7.574 7.78h.152c4.241.038 7.688-3.378 7.726-7.628V9.78C17.598 5.53 14.19 2.076 9.986 2h-.19zm0 12.903c-2.765 0-5-2.277-5-5.085V9.78a5.034 5.034 0 014.887-5.16c2.765-.076 5.075 2.087 5.15 4.857v.266c0 2.846-2.234 5.123-5.036 5.161 0 0 .038 0 0 0zM64.142 2l-5.908 14.46-1.477 3.567L55.962 22h-2.917l2.273-5.54L49.296 2h3.068l4.43 10.854L61.227 2h2.916zM26.044 4.58c-2.727 0-4.128 1.481-4.128 4.365v8.577h-2.803V8.755c.038-1.556.303-2.618.909-3.643.757-1.138 2.5-3.074 5.984-3.074s5.264 1.936 5.983 3.074c.644 1.1.985 2.391.91 3.643v8.805h-2.803V8.945c.075-2.922-1.288-4.364-4.052-4.364zm11.474 3.796a4.644 4.644 0 015.53-3.605 4.626 4.626 0 013.597 3.605h-9.127zM49.6 9.59a7.556 7.556 0 00-7.498-7.552c-4.242 0-7.537 3.416-7.537 7.742a8 8 0 002.197 5.465 7.215 7.215 0 005.302 2.315c2.272 0 5.491-1.1 7.006-4.213 0-.038.038-.075.038-.114H46.04v.038a5.262 5.262 0 01-3.863 1.67c-2.348-.038-4.317-1.745-4.733-4.06H49.56c0-.342.038-.911.038-1.29z"/></svg>