<svg id="Logotypes_Payment_GooglePay_32px" xmlns="http://www.w3.org/2000/svg" viewBox="0 0 57 32"><path fill="#fff" d="M40.72 2H16.08c-7.7 0-14 6.3-14 14s6.3 14 14 14h24.64c7.7 0 14-6.3 14-14s-6.3-14-14-14z"/><path fill="#3C4043" d="M40.72 3.134a12.7 12.7 0 014.991 1.015 12.978 12.978 0 016.86 6.86A12.7 12.7 0 0153.586 16a12.7 12.7 0 01-1.015 4.991 12.978 12.978 0 01-6.86 6.86 12.7 12.7 0 01-4.99 1.015H16.08a12.7 12.7 0 01-4.992-1.015 12.978 12.978 0 01-6.86-6.86A12.7 12.7 0 013.214 16a12.7 12.7 0 011.015-4.991 12.978 12.978 0 016.86-6.86 12.7 12.7 0 014.991-1.015h24.64zm0-1.134H16.08c-7.7 0-14 6.3-14 14s6.3 14 14 14h24.64c7.7 0 14-6.3 14-14s-6.3-14-14-14z"/><path fill="#3C4043" d="M27.182 16.994v4.235h-1.344V10.77H29.4c.903 0 1.673.3 2.303.902.644.602.966 1.338.966 2.206 0 .889-.322 1.623-.966 2.219-.623.595-1.393.889-2.303.889h-2.22v.007zm0-4.935v3.647h2.247c.532 0 .98-.182 1.33-.54a1.76 1.76 0 00.539-1.28c0-.483-.182-.91-.54-1.268-.35-.37-.79-.553-1.33-.553h-2.246v-.006zm9.002 1.778c.995 0 1.779.266 2.352.798.575.532.861 1.26.861 2.184v4.41h-1.28v-.994h-.056c-.553.819-1.295 1.225-2.22 1.225-.79 0-1.449-.231-1.98-.7-.532-.47-.798-1.05-.798-1.75 0-.742.28-1.33.84-1.764.56-.441 1.309-.658 2.24-.658.797 0 1.456.147 1.966.44v-.307c0-.47-.181-.861-.553-1.19a1.897 1.897 0 00-1.301-.49c-.75 0-1.345.315-1.779.952l-1.182-.742c.65-.945 1.617-1.414 2.89-1.414zM34.45 19.03c0 .35.147.644.448.875.294.23.644.35 1.043.35.567 0 1.07-.21 1.512-.63.44-.42.665-.91.665-1.477-.42-.33-1.002-.497-1.75-.497-.546 0-1.002.133-1.365.392-.372.273-.553.602-.553.987zm12.255-4.963l-4.48 10.304h-1.386l1.666-3.605-2.954-6.699h1.463l2.128 5.138h.028l2.072-5.138h1.463z"/><path fill="#4285F4" d="M21.835 16.14c0-.439-.039-.858-.111-1.261H16.09v2.31h3.244a2.779 2.779 0 01-1.204 1.861v1.499h1.932c1.127-1.044 1.773-2.587 1.773-4.41z"/><path fill="#34A853" d="M18.131 19.05c-.537.363-1.23.576-2.04.576-1.564 0-2.891-1.055-3.366-2.476h-1.993v1.546a5.997 5.997 0 005.36 3.303c1.62 0 2.98-.533 3.97-1.45l-1.93-1.498z"/><path fill="#FABB05" d="M12.538 16.003c0-.399.066-.784.188-1.147V13.31h-1.993a5.965 5.965 0 00-.637 2.693c0 .97.23 1.883.637 2.693l1.993-1.545a3.616 3.616 0 01-.188-1.148z"/><path fill="#E94235" d="M16.092 12.38c.884 0 1.675.305 2.3.9l1.712-1.71c-1.04-.968-2.395-1.562-4.012-1.562a5.998 5.998 0 00-5.36 3.302l1.993 1.546c.475-1.421 1.802-2.475 3.367-2.475z"/></svg>