<svg xmlns="http://www.w3.org/2000/svg" viewBox="0 0 136 48">
    
  <path fill="#81BC00" d="M58.784 13c-5.832-.052-10.57 4.645-10.622 10.437v.26c-.053 5.845 4.582 10.646 10.414 10.698h.208c5.833.052 10.571-4.644 10.623-10.489v-.208c.104-5.845-4.582-10.593-10.362-10.698h-.26Zm0 17.742c-3.8 0-6.873-3.13-6.873-6.992v-.052c-.104-3.81 2.916-6.993 6.717-7.097 3.801-.104 6.978 2.87 7.082 6.68v.364c0 3.914-3.072 7.045-6.926 7.097 0 0 .053 0 0 0ZM133.51 13l-8.124 19.882-2.031 4.905-1.093 2.713h-4.01l3.125-7.618L113.096 13h4.218l6.092 14.924L129.499 13h4.01Zm-52.386 3.55c-3.75 0-5.676 2.035-5.676 6v11.794h-3.854V22.289c.052-2.14.417-3.6 1.25-5.01 1.041-1.565 3.437-4.226 8.228-4.226 4.79 0 7.237 2.66 8.227 4.226.885 1.514 1.354 3.288 1.25 5.01v12.106h-3.854V22.55c.104-4.018-1.77-6.001-5.571-6.001Zm15.778 5.218c.728-3.496 4.113-5.688 7.602-4.957a6.361 6.361 0 0 1 4.947 4.957h-12.55Zm16.611 1.67c0-5.688-4.583-10.332-10.311-10.384-5.832 0-10.362 4.696-10.362 10.645 0 2.765 1.093 5.479 3.02 7.514a9.92 9.92 0 0 0 7.29 3.183c3.125 0 7.551-1.514 9.634-5.792 0-.053.052-.105.052-.157h-4.218v.052a7.236 7.236 0 0 1-5.312 2.296c-3.228-.052-5.936-2.4-6.509-5.583h16.664c0-.47.052-1.252.052-1.774ZM24.373 46c12.125 0 21.955-9.85 21.955-22S36.498 2 24.373 2C12.248 2 2.42 11.85 2.42 24s9.83 22 21.954 22Z"/>
  <path fill="#fff" d="m35.93 19.292-3.834 5.364 3.772 5.665h-3.75l-1.95-2.933-1.782 2.933h-3.583l3.66-5.5-3.66-5.544h3.75l1.903 2.89 1.9-2.879 3.574.004ZM18.16 30.6a6.073 6.073 0 0 1-3.549-.975 4.656 4.656 0 0 1-1.866-2.626l2.927-.861c.163.5.49.93.926 1.22.474.308 1.03.463 1.595.444a2.16 2.16 0 0 0 1.394-.462c.386-.31.6-.788.575-1.283.023-.5-.208-.976-.615-1.265a2.637 2.637 0 0 0-1.573-.44h-1.61V21.8h1.548c.517.03 1.03-.108 1.463-.392.37-.323.563-.805.516-1.295a1.376 1.376 0 0 0-.508-1.122 1.882 1.882 0 0 0-1.233-.41c-.976 0-1.634.51-1.973 1.532l-3.051-.861a4.06 4.06 0 0 1 .567-1.284 5.048 5.048 0 0 1 1.002-1.1 4.58 4.58 0 0 1 1.519-.792 6.456 6.456 0 0 1 1.976-.29 5.794 5.794 0 0 1 3.6 1.053 3.39 3.39 0 0 1 1.38 2.849 3.456 3.456 0 0 1-.494 1.903 2.76 2.76 0 0 1-1.394 1.1v.018c.625.22 1.161.64 1.525 1.196a3.72 3.72 0 0 1 .623 2.174 4.074 4.074 0 0 1-1.464 3.252c-.964.846-2.232 1.269-3.806 1.269Z"/>
</svg>
