<svg id="Logotypes_Payment_ApplePay_64px" xmlns="http://www.w3.org/2000/svg" viewBox="0 0 98 64"><path d="M87.329 2H10.393c-.32 0-.641 0-.961.002-.27.002-.54.005-.81.012-.588.016-1.182.05-1.763.155-.59.106-1.139.28-1.675.552a5.624 5.624 0 00-2.463 2.464 5.925 5.925 0 00-.552 1.676c-.105.58-.14 1.174-.156 1.762-.007.27-.01.54-.012.809-.002.32 0 .64 0 .962v43.213c0 .32-.002.64 0 .962.002.27.005.54.012.809.016.587.051 1.18.156 1.761.106.591.28 1.14.552 1.676a5.59 5.59 0 001.036 1.427c.418.419.9.77 1.427 1.037a5.924 5.924 0 001.675.552c.581.104 1.175.14 1.763.155.27.007.54.01.81.012.32.002.64.002.961.002H87.33c.32 0 .64 0 .96-.002.27-.002.54-.005.811-.011a11.88 11.88 0 001.763-.156 5.929 5.929 0 001.674-.553A5.634 5.634 0 0095 58.816a5.887 5.887 0 00.552-1.676c.105-.58.14-1.174.155-1.761.008-.27.011-.54.013-.81.002-.32.002-.64.002-.961V10.394c0-.321 0-.642-.002-.962a35.8 35.8 0 00-.013-.81c-.015-.587-.05-1.18-.155-1.761a5.889 5.889 0 00-.551-1.676 5.646 5.646 0 00-2.464-2.464 5.956 5.956 0 00-1.674-.552 11.8 11.8 0 00-1.763-.155c-.27-.007-.54-.01-.81-.012C87.97 2 87.649 2 87.329 2z"/><path fill="#fff" d="M87.33 4l.945.002c.257.002.513.004.771.011.448.013.973.037 1.462.124.425.077.782.193 1.124.368a3.619 3.619 0 011.587 1.589c.174.34.29.694.366 1.122.087.484.111 1.01.123 1.461.007.255.01.51.012.77.002.316.002.631.002.947v43.213c0 .316 0 .63-.002.953-.001.254-.005.509-.012.764-.012.45-.036.976-.125 1.466-.075.422-.19.777-.364 1.118a3.62 3.62 0 01-1.59 1.59 3.94 3.94 0 01-1.117.365c-.499.089-1.045.113-1.457.124-.259.006-.517.01-.78.01-.315.003-.631.003-.946.003H10.381c-.311 0-.623 0-.94-.002a43.151 43.151 0 01-.765-.01c-.42-.012-.968-.036-1.463-.125a3.927 3.927 0 01-1.124-.368 3.588 3.588 0 01-.919-.668 3.6 3.6 0 01-.667-.919 3.926 3.926 0 01-.366-1.124c-.088-.489-.112-1.012-.124-1.46-.007-.256-.01-.512-.012-.767L4 53.805v-43.61l.001-.75c.002-.256.005-.512.012-.768.012-.448.036-.972.125-1.465a3.92 3.92 0 01.366-1.122 3.608 3.608 0 011.588-1.586 3.94 3.94 0 011.121-.366c.49-.088 1.014-.112 1.464-.125.256-.007.512-.01.767-.011l.95-.002h76.935z"/><path d="M27.585 22.18c.802-1.003 1.347-2.35 1.203-3.728-1.174.059-2.608.775-3.438 1.78-.745.86-1.405 2.264-1.233 3.584 1.32.114 2.636-.66 3.468-1.635zm1.189 1.893c-1.915-.114-3.544 1.087-4.458 1.087-.915 0-2.316-1.03-3.83-1.002-1.972.03-3.801 1.144-4.802 2.917-2.057 3.546-.543 8.807 1.458 11.696.972 1.429 2.143 3.002 3.686 2.946 1.458-.057 2.03-.944 3.802-.944 1.771 0 2.286.944 3.83.915 1.6-.029 2.6-1.43 3.572-2.86 1.115-1.63 1.571-3.202 1.6-3.288-.029-.029-3.086-1.202-3.115-4.719-.029-2.945 2.4-4.346 2.515-4.433-1.372-2.029-3.515-2.257-4.258-2.315zm16.675-3.985c4.162 0 7.06 2.869 7.06 7.046 0 4.192-2.958 7.076-7.165 7.076h-4.608v7.33h-3.33V20.087h8.043zm-4.713 11.328h3.82c2.9 0 4.55-1.561 4.55-4.267 0-2.705-1.65-4.251-4.535-4.251h-3.835v8.518zm12.643 5.679c0-2.736 2.096-4.416 5.813-4.624l4.28-.252v-1.204c0-1.74-1.174-2.78-3.136-2.78-1.858 0-3.018.891-3.3 2.289h-3.033c.179-2.825 2.587-4.906 6.452-4.906 3.79 0 6.214 2.007 6.214 5.144v10.777H63.59v-2.571h-.074c-.906 1.739-2.884 2.839-4.935 2.839-3.062 0-5.203-1.903-5.203-4.712zm10.094-1.413V34.45l-3.85.237c-1.918.134-3.003.981-3.003 2.32 0 1.367 1.13 2.259 2.854 2.259 2.244 0 3.999-1.546 3.999-3.583zm6.1 11.61v-2.601c.238.059.773.059 1.04.059 1.487 0 2.29-.624 2.78-2.23 0-.03.283-.951.283-.966L68.027 25.9h3.478l3.955 12.726h.06L79.473 25.9h3.39l-5.858 16.457c-1.338 3.79-2.884 5.01-6.124 5.01-.268 0-1.071-.03-1.309-.075z"/></svg>