<svg xmlns="http://www.w3.org/2000/svg" viewBox="0 0 89 24">
      
  <g fill-rule="evenodd">
    <path fill="#0B1643" d="M28.698 17.433a.178.178 0 0 1-.053-.13v-7.5c0-.052.017-.095.053-.131a.176.176 0 0 1 .13-.054h1.403c.051 0 .094.018.13.054a.18.18 0 0 1 .053.13v7.5a.178.178 0 0 1-.053.13.176.176 0 0 1-.13.055h-1.403a.175.175 0 0 1-.13-.054Zm.084-9.183a1.065 1.065 0 0 1-.305-.784c0-.317.101-.579.305-.784a1.05 1.05 0 0 1 .778-.307c.315 0 .575.103.778.307.204.205.305.467.305.784 0 .318-.101.58-.305.784a1.05 1.05 0 0 1-.778.307 1.05 1.05 0 0 1-.778-.307Zm-1.777 1.422c.035.036.053.08.053.13v1.214a.178.178 0 0 1-.053.131.176.176 0 0 1-.13.054h-1.51c-.051 0-.077.025-.077.077v6.024a.178.178 0 0 1-.053.13.176.176 0 0 1-.13.055h-1.403a.175.175 0 0 1-.13-.054.178.178 0 0 1-.053-.13v-6.025c0-.052-.026-.077-.077-.077h-.946a.175.175 0 0 1-.13-.054.178.178 0 0 1-.053-.13V9.801c0-.05.018-.094.054-.13a.176.176 0 0 1 .13-.054h.945c.051 0 .076-.026.076-.077v-.277c0-.666.087-1.18.26-1.544.173-.364.458-.623.854-.776.397-.154.956-.226 1.678-.216h.534a.18.18 0 0 1 .13.054.18.18 0 0 1 .053.13V7.99a.178.178 0 0 1-.053.13.175.175 0 0 1-.13.054h-.396c-.438 0-.74.087-.908.261-.168.175-.252.492-.252.953v.154c0 .051.026.077.076.077h1.51c.052 0 .095.018.13.054Zm10.923.576c.493.492.74 1.163.74 2.013v5.041a.178.178 0 0 1-.053.131.176.176 0 0 1-.13.054H37.08a.175.175 0 0 1-.13-.054.178.178 0 0 1-.053-.13V12.63c0-.47-.132-.853-.397-1.145-.264-.292-.615-.438-1.052-.438-.438 0-.791.144-1.06.43-.27.287-.405.667-.405 1.138v4.687a.178.178 0 0 1-.053.131.176.176 0 0 1-.13.054h-1.404a.175.175 0 0 1-.13-.054.178.178 0 0 1-.053-.13V9.817c0-.051.018-.095.054-.131a.176.176 0 0 1 .13-.054H33.8a.181.181 0 0 1 .183.184v.492c0 .031.01.052.03.062.02.01.036 0 .046-.03.417-.554 1.048-.83 1.892-.83.824 0 1.483.245 1.976.737Zm6.438.776a.176.176 0 0 1-.13.054h-1.555c-.052 0-.077.026-.077.077v3.704c0 .39.084.67.252.845.168.174.435.261.8.261h.459a.18.18 0 0 1 .13.054.18.18 0 0 1 .053.13v1.153c0 .113-.061.18-.183.2l-.794.015c-.803 0-1.403-.138-1.8-.415-.397-.276-.6-.799-.61-1.567v-4.38c0-.051-.026-.077-.077-.077h-.87a.175.175 0 0 1-.129-.054.178.178 0 0 1-.053-.13V9.817c0-.051.017-.095.053-.13a.176.176 0 0 1 .13-.055h.87c.05 0 .076-.025.076-.077V7.758c0-.05.017-.094.053-.13a.176.176 0 0 1 .13-.054h1.327c.05 0 .094.018.13.054a.18.18 0 0 1 .053.13v1.798c0 .052.025.077.077.077h1.556a.18.18 0 0 1 .13.054.18.18 0 0 1 .053.13v1.076a.179.179 0 0 1-.054.131Zm3.494.308c-.25.19-.425.453-.526.791-.061.174-.102.4-.122.676-.02.052 0 .077.06.077h3.098c.05 0 .076-.025.076-.077a2.945 2.945 0 0 0-.091-.584c-.092-.369-.273-.655-.542-.86-.27-.205-.608-.308-1.015-.308-.376 0-.689.095-.938.284Zm4.386 2.205-.015.476c0 .123-.06.185-.183.185h-4.775c-.051 0-.077.025-.077.077.031.338.077.568.138.691.244.738.839 1.112 1.785 1.122.691 0 1.24-.287 1.648-.86.04-.062.091-.093.152-.093.04 0 .076.016.107.046l.946.784c.091.072.107.154.046.246-.316.451-.735.8-1.259 1.045a4.061 4.061 0 0 1-1.747.37c-.793 0-1.467-.18-2.021-.539a3.088 3.088 0 0 1-1.213-1.506c-.234-.553-.351-1.322-.351-2.305 0-.594.06-1.076.183-1.445.203-.717.587-1.283 1.152-1.698.564-.415 1.243-.623 2.036-.623 2.004 0 3.133 1.056 3.387 3.166.041.256.061.544.061.86Zm2.609 3.466a3.146 3.146 0 0 1-1.19-1.637c-.163-.461-.244-1.076-.244-1.844 0-.738.081-1.343.244-1.814a2.982 2.982 0 0 1 1.182-1.606c.575-.394 1.254-.592 2.037-.592.794 0 1.485.2 2.075.6.59.4.981.902 1.175 1.506.05.164.086.328.107.492v.03c0 .103-.056.165-.168.185l-1.373.2h-.03c-.092 0-.153-.051-.184-.154a.407.407 0 0 0-.015-.123 3.097 3.097 0 0 0-.061-.215 1.327 1.327 0 0 0-.55-.707 1.71 1.71 0 0 0-.976-.277c-.386 0-.715.1-.984.3-.27.2-.45.474-.541.822-.102.328-.153.784-.153 1.368 0 .564.046 1.02.137 1.368.102.359.285.643.55.853.264.21.594.315.991.315.386 0 .72-.1 1-.3.28-.2.46-.469.541-.807a.176.176 0 0 0 .015-.077c.01-.01.016-.025.016-.046.03-.123.101-.174.213-.153l1.373.215a.25.25 0 0 1 .13.069c.035.036.048.085.038.146-.03.164-.056.282-.076.354a2.738 2.738 0 0 1-1.175 1.56c-.59.384-1.282.576-2.075.576-.783 0-1.46-.203-2.029-.607Zm10.733-5.979a.176.176 0 0 1-.13.054h-1.556c-.05 0-.076.026-.076.077v3.704c0 .39.084.67.252.845.167.174.434.261.8.261h.458c.051 0 .094.018.13.054a.18.18 0 0 1 .053.13v1.153c0 .113-.06.18-.183.2l-.793.015c-.804 0-1.404-.138-1.8-.415-.397-.276-.6-.799-.61-1.567v-4.38c0-.051-.026-.077-.077-.077h-.87a.175.175 0 0 1-.13-.054.178.178 0 0 1-.053-.13V9.817c0-.051.018-.095.054-.13a.176.176 0 0 1 .13-.055h.87c.05 0 .075-.025.075-.077V7.758c0-.05.018-.094.054-.13a.176.176 0 0 1 .13-.054h1.327c.05 0 .094.018.13.054a.18.18 0 0 1 .053.13v1.798c0 .052.025.077.076.077h1.556c.051 0 .094.018.13.054.036.036.053.08.053.13v1.076a.178.178 0 0 1-.053.131Zm6.057-1.337a.176.176 0 0 1 .13-.054h1.388c.05 0 .094.018.13.054a.18.18 0 0 1 .053.13v7.485a.179.179 0 0 1-.054.131.176.176 0 0 1-.13.054h-1.388a.175.175 0 0 1-.13-.054.178.178 0 0 1-.053-.13v-.492c0-.031-.01-.052-.03-.062-.02-.01-.041 0-.061.03-.417.544-1.043.815-1.877.815-.773 0-1.421-.225-1.945-.676-.524-.45-.786-1.091-.786-1.92v-5.18c0-.051.018-.095.054-.13a.176.176 0 0 1 .13-.055h1.403a.181.181 0 0 1 .183.184v4.673c0 .482.125.866.374 1.152.249.288.597.43 1.045.43.458 0 .824-.142 1.098-.43.275-.286.412-.67.412-1.152V9.818c0-.051.018-.095.054-.13Zm7.849.053c.081.042.112.119.091.231l-.259 1.383c-.01.123-.081.16-.213.108a1.686 1.686 0 0 0-.534-.077c-.133 0-.234.005-.306.016a1.57 1.57 0 0 0-1.067.453c-.285.282-.428.648-.428 1.099v4.35a.179.179 0 0 1-.053.13.176.176 0 0 1-.13.054h-1.403a.175.175 0 0 1-.13-.054.178.178 0 0 1-.053-.13V9.817c0-.052.017-.095.053-.131a.176.176 0 0 1 .13-.054h1.403c.051 0 .094.018.13.054a.18.18 0 0 1 .053.13v.692c0 .041.008.064.023.07.015.005.033-.008.054-.04.427-.665 1.022-.998 1.785-.998.325 0 .61.067.854.2Zm3.12 1.592c-.25.19-.425.453-.527.791-.06.174-.102.4-.122.676-.02.052 0 .077.061.077h3.097c.051 0 .077-.025.077-.077a2.945 2.945 0 0 0-.092-.584c-.092-.369-.272-.655-.541-.86-.27-.205-.608-.308-1.015-.308-.377 0-.69.095-.938.284ZM87 13.537l-.015.476c0 .123-.061.185-.183.185h-4.776c-.05 0-.076.025-.076.077.03.338.076.568.137.691.244.738.84 1.112 1.785 1.122.692 0 1.241-.287 1.648-.86.04-.062.092-.093.153-.093.04 0 .076.016.106.046l.946.784c.092.072.107.154.046.246a3.11 3.11 0 0 1-1.259 1.045 4.06 4.06 0 0 1-1.746.37c-.794 0-1.468-.18-2.022-.539a3.088 3.088 0 0 1-1.213-1.506c-.234-.553-.35-1.322-.35-2.305 0-.594.06-1.076.182-1.445.204-.717.588-1.283 1.152-1.698.565-.415 1.244-.623 2.037-.623 2.003 0 3.132 1.056 3.387 3.166.04.256.06.544.06.86Z"/>
    <path fill="#1DDBA9" d="M13.167 2c-.195 0-.378.05-.537.14L2.564 7.99C2.24 8.172 2 8.51 2 8.911V19.91c0 .47.355.853.785.984L6.72 21.96c.093.026.191.04.293.04.576 0 1.106-.446 1.106-1.008V19.45l-2.129-.266c-.514-.074-.899-.548-.902-1.091v-7.895a1.12 1.12 0 0 1 .67-.982l8.534-3.494V3.028A1.13 1.13 0 0 0 13.167 2Z"/>
    <path fill="#0B1643" d="M8.979 11.113c-.49.134-.86.559-.86 1.088v7.25l1.983.248c.62.083 1.11-.5 1.11-1.118l.008-4.007c-.002-.541.453-.97.986-1.048l4.203-.533h.002c.506-.072.939-.466.939-.98V5.977c0-.56-.536-.97-1.099-.97a1.1 1.1 0 0 0-.385.072l-1.575.644v3.118c0 .5-.34.922-.79 1.065l-4.522 1.207Z"/>
  </g>
</svg>
