<svg xmlns="http://www.w3.org/2000/svg" viewBox="0 0 150 33"><path fill="#1D1D1B" d="M62.413 10.648a1.222 1.222 0 012.44 0v6.558a5.438 5.438 0 01-1.601 3.844 5.487 5.487 0 01-3.86 1.599 5.487 5.487 0 01-3.861-1.594 5.438 5.438 0 01-1.606-3.842v-6.558a1.208 1.208 0 01.728-1.205 1.224 1.224 0 011.64.713c.055.158.077.326.064.492v6.558c.008.8.331 1.566.9 2.13a3.07 3.07 0 002.143.892 3.057 3.057 0 002.144-.892 3.029 3.029 0 00.89-2.137l-.02-6.558zm11.538 9.579c.324 0 .634.128.863.356a1.211 1.211 0 010 1.717 1.223 1.223 0 01-.863.356h-3.387a4.581 4.581 0 01-3.232-1.333 4.54 4.54 0 01-1.338-3.218v-7.457c0-.32.127-.627.355-.854a1.216 1.216 0 012.07.854v7.443c0 .569.227 1.114.63 1.515a2.16 2.16 0 001.522.628h3.38v-.007zm-20.5 1.079a1.21 1.21 0 01-.587 1.266 1.225 1.225 0 01-1.703-.505 1.208 1.208 0 01-.128-.476l-1.04-8.736-3.724 8.572a1.218 1.218 0 01-2.232 0l-3.724-8.572-1.047 8.736a1.211 1.211 0 01-.87 1.095 1.225 1.225 0 01-1.329-.442 1.212 1.212 0 01-.22-.938l1.228-10.143a1.946 1.946 0 011.069-1.508c.076-.04.155-.077.236-.107h.094a1.57 1.57 0 01.359-.078 2.083 2.083 0 011.7.535 2.005 2.005 0 01.388.507c.026.044.05.09.071.136l3.157 7.286 3.158-7.343a2 2 0 011.435-1.15 2.88 2.88 0 01.358-.05h.373a2.058 2.058 0 011.522.964c.068.11.123.228.165.35.03.076.051.155.064.236.004.052.004.105 0 .157l1.227 10.208zm25.809.136c0 .322-.128.63-.357.858a1.223 1.223 0 01-1.725 0 1.211 1.211 0 01-.357-.858v-9.58h-3.465a1.212 1.212 0 110-2.429h9.37c.324.001.634.129.863.357a1.211 1.211 0 010 1.717 1.223 1.223 0 01-.863.356h-3.465v9.579zm7.606 0c0 .322-.128.63-.357.858a1.223 1.223 0 01-1.725 0 1.212 1.212 0 01-.357-.858V10.648c0-.322.128-.63.357-.858a1.223 1.223 0 012.082.858v10.794zm24.978-.136a1.213 1.213 0 01-1.07 1.286 1.225 1.225 0 01-.873-.23 1.21 1.21 0 01-.475-.763l-.431-3.429h-4.19a1.223 1.223 0 01-1.212-.724 1.214 1.214 0 011.212-1.697h3.917l-.114-.893v-.086a4.885 4.885 0 00-.137-.621 3.945 3.945 0 00-.251-.636 2.776 2.776 0 00-2.468-1.636 2.873 2.873 0 00-.617.072c-.19.047-.373.116-.546.207a3.403 3.403 0 00-1.693 2.7l-.761 6.743a1.189 1.189 0 01-.446.81 1.221 1.221 0 01-1.343.116 1.2 1.2 0 01-.58-.721 1.202 1.202 0 01-.041-.47l.76-6.742a5.793 5.793 0 013.007-4.6 5.018 5.018 0 011.076-.393c.388-.09.785-.136 1.184-.136a5.147 5.147 0 012.754.816 5.112 5.112 0 011.881 2.163c.166.33.305.675.416 1.028.094.326.163.657.208.993a.276.276 0 010 .107l.833 6.736zm3.723.136a1.211 1.211 0 01-.728 1.206 1.223 1.223 0 01-1.64-.714 1.211 1.211 0 01-.064-.492v-10a1.025 1.025 0 010-.208 1.77 1.77 0 01.093-.393l.101-.214c.21-.372.549-.654.954-.793l.165-.043h.452a1.73 1.73 0 011.284.657l6.458 8.236v-8.036a1.214 1.214 0 011.22-1.214 1.22 1.22 0 011.22 1.214v10a1.707 1.707 0 01-.639 1.321 1.557 1.557 0 01-.402.244l-.1.043a1.723 1.723 0 01-1.306-.072l-.158-.078a1.438 1.438 0 01-.237-.186 1.65 1.65 0 01-.158-.157l-.043-.05-6.472-8.265v7.994zm19.029-1.215c.324 0 .634.128.863.356a1.21 1.21 0 010 1.717 1.223 1.223 0 01-.863.356h-3.587a4.814 4.814 0 01-3.395-1.4 4.769 4.769 0 01-1.406-3.379v-3.65a4.781 4.781 0 011.411-3.375 4.824 4.824 0 013.39-1.404h3.587c.324 0 .634.128.863.356a1.21 1.21 0 010 1.717 1.223 1.223 0 01-.863.356h-3.587a2.393 2.393 0 00-1.679.714 2.334 2.334 0 00-.718 1.665v3.65a2.37 2.37 0 00.7 1.667 2.395 2.395 0 001.675.697h3.588l.021-.043zm7.054-8.371a3.326 3.326 0 00-2.304.914 2.963 2.963 0 00-.939 2.143v2.264a2.947 2.947 0 00.932 2.143c.62.59 1.446.918 2.304.915a3.324 3.324 0 002.303-.915 2.963 2.963 0 00.94-2.143v-2.264a2.981 2.981 0 00-.933-2.143 3.36 3.36 0 00-2.31-.914m0-2.422a5.755 5.755 0 013.989 1.586 5.354 5.354 0 011.686 3.886v2.264a5.347 5.347 0 01-.443 2.115 5.387 5.387 0 01-1.243 1.771 5.755 5.755 0 01-3.989 1.586 5.756 5.756 0 01-3.99-1.586 5.393 5.393 0 01-1.679-3.886v-2.264a5.393 5.393 0 011.679-3.886 5.756 5.756 0 013.99-1.586zm-51.325 2.429v8.364h4.707a1.534 1.534 0 001.414-.944 1.52 1.52 0 00.114-.584 1.512 1.512 0 00-.401-1.029l-.05-.043a1.5 1.5 0 00-1.077-.457h-1.622c-.323 0-.633-.128-.862-.356a1.212 1.212 0 01.862-2.072h.553a1.5 1.5 0 00.918-.422 1.428 1.428 0 00.43-1.021c0-.38-.15-.743-.42-1.01a1.438 1.438 0 00-1.014-.42h-3.552v-.006zm-2.44 4.107v-5.272c0-.164.034-.327.1-.478.068-.156.163-.299.28-.422.218-.207.504-.328.804-.342h4.772a3.89 3.89 0 012.745 1.131 3.856 3.856 0 011.137 2.733 3.894 3.894 0 01-.596 2.057c.26.153.5.335.718.543l.079.086A3.92 3.92 0 0199 18.713a3.941 3.941 0 01-1.162 2.786 3.977 3.977 0 01-2.799 1.157H89.1a1.22 1.22 0 01-.863-.356 1.212 1.212 0 01-.358-.858V15.97z"/><path fill="#3D73B9" fill-rule="evenodd" d="M17.221 30.002h12.101c2.761 0 2.79-2.923 2.508-4.365-.153-.97-1.81-.955-1.992 0v1.125a.944.944 0 01-.94.936H5.7a.944.944 0 01-.94-.936v-1.125c-.182-.955-1.838-.97-1.992 0-.282 1.442-.253 4.365 2.508 4.365H17.22zM8.668 2h18.656c1.311 0 2.384 1.13 2.384 2.512v1.2c0 1.696-2.303 1.689-2.303.011V5.07a.762.762 0 00-.768-.764H7.943a.77.77 0 00-.768.764v.642c0 1.687-2.199 1.675-2.199.036V4.514C4.982 3.133 6.053 2 7.363 2h1.305z"/><path fill="#1D1D1B" fill-rule="evenodd" d="M29.238 15.795a3.68 3.68 0 011.573 1.328 3.66 3.66 0 01.61 1.961c0 2.021-1.773 3.676-3.94 3.676h-6.077a1.006 1.006 0 01-1.032-.955V10.289a1.01 1.01 0 01.299-.713 1.02 1.02 0 01.716-.296h5.06a3.876 3.876 0 012.135.635 3.85 3.85 0 011.428 1.703 3.83 3.83 0 01-.772 4.177zm-4.535-.936h1.929v-.021a1.846 1.846 0 001.112-.618 1.83 1.83 0 00.446-1.188 1.828 1.828 0 00-.54-1.29 1.844 1.844 0 00-1.295-.536H22.47v9.552h4.926a1.904 1.904 0 001.38-.531 1.888 1.888 0 00.427-2.092 1.888 1.888 0 00-1.063-1.024 1.904 1.904 0 00-.744-.126h-2.692a1.069 1.069 0 01-.984-.655 1.057 1.057 0 01.577-1.385 1.07 1.07 0 01.407-.08"/><path fill="#1D1D1B" d="M19.407 21.612a1.209 1.209 0 01-.614 1.235 1.226 1.226 0 01-1.682-.511 1.211 1.211 0 01-.13-.468l-1.003-9.153-3.533 8.95v.11a1.17 1.17 0 01-.305.347l-.019.015a1.097 1.097 0 01-.211.149l-.023.011-.021.012h-.121c-.115.04-.235.063-.357.067H11.3a1.175 1.175 0 01-.4-.082h-.1l-.02-.012-.02-.011h-.011a1.144 1.144 0 01-.192-.128l-.04-.037-.03-.028-.074-.02-.036-.04a1.14 1.14 0 01-.129-.19v-.012l-.011-.019-.012-.021v-.09l-3.598-8.97-1 9.152c-.034.32-.194.613-.446.815a1.222 1.222 0 01-1.713-.18 1.21 1.21 0 01-.264-.891l1.178-10.79a2.005 2.005 0 01.857-1.432c.264-.182.567-.299.885-.34h.065c.103-.009.207-.009.31 0a2.005 2.005 0 011.787 1.269l3.02 7.598 3.014-7.624a1.998 1.998 0 011.787-1.269c.102-.007.206-.007.309 0h.065a2.031 2.031 0 011.516 1.047 1.97 1.97 0 01.226.734l1.184 10.807z"/></svg>