<svg xmlns="http://www.w3.org/2000/svg" viewBox="0 0 49 48">
    
  <path d="m6.865 33.317 2.552-2.552-.85-.85-1.602 1.6-2.902-2.927-.95.951 3.752 3.778Zm1.051-7.055.65.65 1.326-1.326.75.751-1.325 1.326.825.825 1.626-1.626.776.75-2.602 2.603-3.752-3.778 2.6-2.577.776.776-1.651 1.626Zm8.355-2.402-2.551-.725c.3-.55.175-1.326-.35-1.851-.55-.55-1.502-.55-2.127.1l-1.901 1.9 3.752 3.753.95-.95-3.051-3.027.6-.626a.703.703 0 0 1 .976-.025c.25.25.25.7-.025.976l-.55.55 3.252.926 1.025-1Zm-1.701-5.979c1.176-1.175 2.727-1.075 3.828.05 1.1 1.101 1.226 2.652.05 3.853-1.176 1.176-2.727 1.076-3.828-.05-1.125-1.1-1.226-2.677-.05-3.853Zm.75.75c-.6.601-.4 1.327.326 2.052.725.726 1.45.926 2.051.325.6-.6.4-1.325-.325-2.051-.75-.726-1.476-.926-2.051-.325Zm4.203-2.726-.7-2.127 1.1-1.1.951 3.627 1.451 1.476-.95.976-1.451-1.476-3.503-1.1 1.051-1.052 2.026.776h.025ZM36.91 28.914l3.753-3.778-1.001-1-3.752 3.752 1 1.026ZM22.526 14.479l2.927-1.4-2.152 2.175.85.851 3.753-3.752-1.176-1.201-2.827 1.376 1.401-2.802L24.077 8.5l-3.753 3.752.876.876 2.151-2.151-1.4 2.927.575.575Zm6.504.525-.626.65 1.426 1.452-.75.75-1.451-1.45-.826.825 1.777 1.776-.776.75-2.702-2.701 3.753-3.778 2.702 2.727-.776.75-1.751-1.75Zm3.627 9.656 2.552 2.552.85-.85-1.575-1.601 2.877-2.927-.926-.95-3.778 3.777Zm10.133 2.603-1.227 4.002 2.602-2.602.9.901-3.752 3.753-1.176-1.176 1.026-4.128-2.577 2.577-.85-.85 3.752-3.778 1.301 1.3Zm-10.833-3.328.725-2.576c.55.3 1.326.175 1.827-.35.55-.551.525-1.502-.1-2.152l-2.027-2.026-3.752 3.777.95.95 3.027-3.051.726.725c.275.275.275.7.025.976-.25.275-.7.25-.976-.025l-.675-.676-.8 3.378 1.05 1.05Z"/>
  <path fill="#78BE20" d="M7.59 34.042h33.023L24.102 17.456 7.59 34.042Z"/>
</svg>
