<svg xmlns="http://www.w3.org/2000/svg" viewBox="0 0 243 64"><path fill="#253B80" d="M81.339 13.877H67.3a1.95 1.95 0 00-1.928 1.647l-5.678 36.021a1.17 1.17 0 001.158 1.352h6.702c.96 0 1.778-.699 1.928-1.65l1.53-9.715a1.949 1.949 0 011.926-1.65h4.444c9.248 0 14.585-4.477 15.978-13.35.629-3.883.027-6.933-1.79-9.069-1.995-2.346-5.534-3.586-10.232-3.586zm1.62 13.156c-.768 5.04-4.617 5.04-8.338 5.04h-2.119l1.486-9.413a1.17 1.17 0 011.156-.988h.97c2.536 0 4.927 0 6.163 1.446.737.863.963 2.144.681 3.915zm40.342-.163h-6.722c-.573 0-1.068.42-1.156.988l-.298 1.882-.47-.682c-1.455-2.114-4.7-2.82-7.939-2.82-7.43 0-13.774 5.63-15.01 13.527-.642 3.94.271 7.707 2.505 10.334 2.048 2.416 4.98 3.422 8.467 3.422 5.986 0 9.305-3.851 9.305-3.851l-.3 1.869a1.17 1.17 0 001.154 1.356h6.055a1.95 1.95 0 001.927-1.65l3.634-23.023a1.166 1.166 0 00-1.152-1.352zm-9.37 13.092c-.649 3.844-3.697 6.423-7.585 6.423-1.952 0-3.512-.626-4.514-1.813-.993-1.18-1.371-2.857-1.055-4.727.606-3.81 3.705-6.474 7.533-6.474 1.909 0 3.461.635 4.483 1.832 1.025 1.21 1.431 2.899 1.138 4.76zm45.173-13.092h-6.756c-.644 0-1.25.32-1.615.857l-9.317 13.733-3.949-13.197a1.957 1.957 0 00-1.872-1.393h-6.639c-.806 0-1.367.789-1.11 1.549l7.441 21.85-6.996 9.882a1.17 1.17 0 00.955 1.849h6.747c.64 0 1.24-.312 1.603-.838l22.468-32.453c.538-.777-.014-1.839-.96-1.839z"/><path fill="#179BD7" d="M181.47 13.877h-14.041a1.95 1.95 0 00-1.925 1.647l-5.678 36.021a1.169 1.169 0 001.154 1.352h7.205c.669 0 1.242-.49 1.346-1.155l1.612-10.21a1.948 1.948 0 011.925-1.65h4.442c9.249 0 14.584-4.477 15.98-13.35.63-3.883.025-6.933-1.792-9.069-1.993-2.346-5.53-3.586-10.228-3.586zm1.619 13.156c-.765 5.04-4.614 5.04-8.338 5.04h-2.116l1.488-9.413a1.166 1.166 0 011.154-.988h.971c2.533 0 4.926 0 6.162 1.446.737.863.96 2.144.679 3.915zm40.341-.163h-6.718c-.577 0-1.068.42-1.154.988l-.297 1.882-.473-.682c-1.455-2.114-4.698-2.82-7.937-2.82-7.429 0-13.772 5.63-15.007 13.527-.641 3.94.269 7.707 2.502 10.334 2.053 2.416 4.98 3.422 8.467 3.422 5.986 0 9.305-3.851 9.305-3.851l-.3 1.869a1.17 1.17 0 001.158 1.356h6.053a1.95 1.95 0 001.926-1.65l3.635-23.023a1.172 1.172 0 00-1.16-1.352zm-9.37 13.092c-.645 3.844-3.697 6.423-7.585 6.423-1.948 0-3.512-.626-4.514-1.813-.993-1.18-1.367-2.857-1.055-4.727.61-3.81 3.705-6.474 7.533-6.474 1.909 0 3.461.635 4.484 1.832 1.028 1.21 1.434 2.899 1.137 4.76zm17.296-25.098l-5.762 36.681a1.168 1.168 0 001.154 1.352h5.792c.963 0 1.78-.699 1.928-1.65l5.681-36.019a1.17 1.17 0 00-1.153-1.354h-6.487a1.173 1.173 0 00-1.153.99zM44.967 16.302c-.052.334-.111.676-.179 1.026-2.306 11.848-10.195 15.94-20.271 15.94h-5.13a2.492 2.492 0 00-2.463 2.112l-2.627 16.67-.744 4.725a1.313 1.313 0 001.296 1.519h9.099a2.19 2.19 0 002.162-1.847l.09-.463 1.713-10.879.11-.597a2.189 2.189 0 012.163-1.85h1.36c8.817 0 15.718-3.582 17.735-13.947.843-4.33.407-7.945-1.823-10.487-.675-.767-1.512-1.403-2.49-1.922z"/><path fill="#222D65" d="M42.554 15.34a18.202 18.202 0 00-2.242-.498c-1.383-.224-2.899-.33-4.523-.33H22.083a2.187 2.187 0 00-2.16 1.85l-2.916 18.48-.084.538a2.492 2.492 0 012.463-2.111h5.13c10.076 0 17.966-4.095 20.272-15.94.069-.351.127-.693.179-1.027a12.29 12.29 0 00-1.896-.8c-.168-.056-.341-.11-.517-.162z"/><path fill="#253B80" d="M19.923 16.362a2.18 2.18 0 012.16-1.848H35.79c1.624 0 3.14.106 4.523.33a18.242 18.242 0 012.76.659c.681.225 1.313.492 1.897.8.686-4.379-.006-7.36-2.372-10.06C39.99 3.274 35.282 2 29.26 2H11.772a2.5 2.5 0 00-2.47 2.114L2.02 50.312A1.503 1.503 0 003.5 52.05h10.796l2.71-17.209 2.916-18.479z"/></svg>