<svg id="Logotypes_Payment_Oney_64px" xmlns="http://www.w3.org/2000/svg" viewBox="0 0 191 64"><path fill="#81BC00" d="M25.178 2C12.453 1.888 2.115 12.135 2.001 24.772v.57c-.114 12.75 9.998 23.225 22.723 23.338h.454c12.725.114 23.063-10.132 23.177-22.883v-.456C48.582 12.59 38.357 2.23 25.746 2h-.568zm0 38.71c-8.294 0-14.997-6.831-14.997-15.256v-.114c-.227-8.31 6.362-15.256 14.656-15.483 8.294-.228 15.224 6.261 15.451 14.572v.797c0 8.54-6.703 15.37-15.11 15.484 0 0 .114 0 0 0zM188.213 2l-17.724 43.378-4.431 10.702-2.386 5.92h-8.748l6.817-16.622L143.676 2h9.203l13.293 32.561L179.464 2h8.749zM73.918 9.744c-8.18 0-12.384 4.44-12.384 13.092v25.73h-8.407V22.267c.113-4.668.909-7.855 2.726-10.93 2.273-3.415 7.499-9.221 17.951-9.221 10.453 0 15.793 5.806 17.951 9.222 1.932 3.301 2.954 7.172 2.727 10.93V48.68h-8.407V22.835c.227-8.766-3.863-13.092-12.157-13.092zm34.425 11.385c1.59-7.628 8.975-12.41 16.587-10.816 5.454 1.139 9.657 5.351 10.793 10.816h-27.38zm36.242 3.643c0-12.41-9.998-22.542-22.495-22.656-12.725 0-22.61 10.246-22.61 23.225 0 6.034 2.387 11.954 6.59 16.395 4.09 4.44 9.885 6.944 15.906 6.944 6.817 0 16.474-3.301 21.019-12.637 0-.114.113-.227.113-.341h-9.202v.114c-2.954 3.187-7.158 5.009-11.589 5.009-7.044-.114-12.952-5.237-14.202-12.182h36.357c0-1.025.113-2.732.113-3.871z"/></svg>