<svg id="Payment_Cards_Colors_Mastercard_24px" xmlns="http://www.w3.org/2000/svg" viewBox="0 0 24 24"><path fill="url(#a)" d="M2 5.75a1 1 0 011-1h18a1 1 0 011 1v12a1 1 0 01-1 1H3a1 1 0 01-1-1v-12z"/><path fill="#FF5F00" d="M10.525 8.918h2.598v4.665h-2.598V8.918z"/><path fill="#EB001B" d="M10.69 11.25c0-.91.416-1.769 1.13-2.332a2.967 2.967 0 100 4.665 2.96 2.96 0 01-1.13-2.333z"/><path fill="#F79E1B" d="M16.625 11.25a2.965 2.965 0 01-4.797 2.332 2.972 2.972 0 000-4.665 2.965 2.965 0 014.797 2.333z"/><path fill="#fff" fill-rule="evenodd" d="M16.994 15.11v.5a.341.341 0 00-.128-.1.404.404 0 00-.18-.035.492.492 0 00-.179.025.444.444 0 00-.256.26.506.506 0 00-.036.2.488.488 0 00.138.355.5.5 0 00.344.14.385.385 0 00.18-.04.298.298 0 00.128-.1v.115h.21v-1.325l-.22.005zm0 .975a.359.359 0 01-.061.095.3.3 0 01-.092.06.319.319 0 01-.246 0 .229.229 0 01-.093-.065.318.318 0 01-.077-.21c0-.042.008-.085.02-.125a.4.4 0 01.062-.09.299.299 0 01.339-.065.229.229 0 01.092.065.26.26 0 01.062.095c.013.04.02.083.02.125a.47.47 0 01-.03.115h.004z"/><path fill="#fff" d="M11.305 16.25a.21.21 0 01-.095.02l-.06-.02a.075.075 0 01-.045-.03.195.195 0 01-.035-.055.342.342 0 01-.01-.08v-.41h.33v-.19h-.33V15.2h-.205v.285h-.19v.19h.19v.415c-.008.1.023.198.085.275a.34.34 0 00.25.09.392.392 0 00.16-.03.48.48 0 00.09-.04l-.07-.175a.155.155 0 01-.065.04zM8.1 15.495a.46.46 0 01.125.075.46.46 0 01.08.115.472.472 0 01.025.15v.595h-.2v-.525a.266.266 0 00-.055-.185.2.2 0 00-.155-.06.221.221 0 00-.09.015.178.178 0 00-.075.045.294.294 0 00-.055.08.301.301 0 00-.015.105v.525h-.2v-.525a.289.289 0 00-.055-.185.212.212 0 00-.16-.06.278.278 0 00-.09.015.178.178 0 00-.075.045.25.25 0 00-.05.08.231.231 0 00-.02.105v.515h-.2v-.945h.2v.115a.25.25 0 01.06-.065.279.279 0 01.07-.045l.075-.02h.075a.375.375 0 01.185.04c.05.031.093.074.125.125a.206.206 0 01.065-.075.295.295 0 01.08-.055l.09-.025h.09a.361.361 0 01.15.025zm5.645.195a.292.292 0 00-.09.06.25.25 0 00-.065.09.354.354 0 00-.02.125.329.329 0 00.02.125.25.25 0 00.065.095c.026.027.056.05.09.065.04.013.083.02.125.02a.477.477 0 00.125-.02.28.28 0 00.1-.06l.1.165a.681.681 0 01-.125.07.524.524 0 01-.565-.105.5.5 0 01.16-.81.546.546 0 01.205-.035.489.489 0 01.325.11l-.1.165a.188.188 0 00-.1-.06.333.333 0 00-.25 0z"/><path fill="#fff" fill-rule="evenodd" d="M9.166 15.505a.34.34 0 01.129.101v-.116h.21v.954h-.21v-.116a.3.3 0 01-.129.101.383.383 0 01-.179.04.499.499 0 01-.344-.141.498.498 0 01-.138-.358.516.516 0 01.036-.202.465.465 0 01.446-.298.401.401 0 01.18.035zm.067.682a.36.36 0 00.062-.096H9.29a.482.482 0 00.025-.121.43.43 0 00-.02-.126.263.263 0 00-.062-.096.292.292 0 00-.21-.09.317.317 0 00-.128.024.27.27 0 00-.149.162.326.326 0 00-.02.126.325.325 0 00.076.212c.025.03.057.052.093.066a.315.315 0 00.338-.061z"/><path fill="#fff" d="M10.185 15.87c.087.008.17.039.24.09a.22.22 0 01.085.195.25.25 0 01-.025.125.295.295 0 01-.085.095.348.348 0 01-.135.06.674.674 0 01-.18.02H10l-.105-.02-.11-.035a.57.57 0 01-.105-.065l.095-.155.055.04.07.03.085.025.105.01a.274.274 0 00.16-.035.09.09 0 00.04-.085.087.087 0 00-.04-.07.293.293 0 00-.125-.035l-.095-.015a.478.478 0 01-.24-.09.227.227 0 01-.08-.185c0-.043.009-.085.025-.125a.235.235 0 01.08-.095.431.431 0 01.125-.06.564.564 0 01.165-.02.752.752 0 01.21.025.472.472 0 01.17.075l-.09.16-.05-.03-.07-.025-.085-.02-.085-.01a.237.237 0 00-.125.035.095.095 0 00-.05.08c0 .015.005.029.015.04l.035.03.045.015.065.01.095.015z"/><path fill="#fff" fill-rule="evenodd" d="M12.27 15.505a.437.437 0 01.251.258c.027.064.04.133.039.202v.04a.098.098 0 000 .04h-.76a.243.243 0 00.11.182.353.353 0 00.197.06.378.378 0 00.152-.03.447.447 0 00.137-.07l.114.146a.596.596 0 01-.202.106.832.832 0 01-.224.03.714.714 0 01-.213-.035.609.609 0 01-.164-.1.486.486 0 01-.147-.364.512.512 0 01.142-.364.386.386 0 01.164-.1.529.529 0 01.207-.036.499.499 0 01.197.035zm-.448.283a.417.417 0 00-.027.091h.535a.329.329 0 00-.087-.172.25.25 0 00-.175-.06.228.228 0 00-.186.065.209.209 0 00-.06.076zm3.278-.182a.43.43 0 00-.128-.1.376.376 0 00-.175-.036.484.484 0 00-.344.136.416.416 0 00-.102.162.521.521 0 00.103.56c.042.046.095.08.153.101.06.027.125.04.19.04a.36.36 0 00.175-.04.355.355 0 00.128-.1v.115h.21v-.954h-.21v.116zm-.01.485a.4.4 0 01-.057.096.315.315 0 01-.338.06.228.228 0 01-.093-.065.215.215 0 01-.056-.096.3.3 0 01-.02-.116.326.326 0 01.02-.126c.01-.037.03-.07.056-.096a.288.288 0 01.21-.091c.045 0 .088.008.129.025a.23.23 0 01.092.066c.026.027.045.06.056.096.016.04.023.083.021.126a.326.326 0 01-.02.121z"/><path fill="#fff" d="M13 15.5a.385.385 0 01.16-.03h.085l.05.01-.06.2-.04-.015h-.08a.221.221 0 00-.09.015.14.14 0 00-.07.05.25.25 0 00-.05.08.302.302 0 00-.015.105v.52h-.19v-.945h.185v.125A.317.317 0 0113 15.5zm3.015-.03a.385.385 0 00-.155.03.317.317 0 00-.115.115v-.125h-.19v.945h.195v-.52a.231.231 0 01.02-.105.182.182 0 01.045-.08.14.14 0 01.07-.05.221.221 0 01.09-.015h.08l.04.015.06-.2-.05-.01h-.09z"/><defs><linearGradient id="a" x1="21.977" x2="21.977" y1="18.421" y2="4.426" gradientUnits="userSpaceOnUse"><stop stop-color="#0B0A0C"/><stop offset=".27" stop-color="#100F12"/><stop offset=".63" stop-color="#1F1E22"/><stop offset="1" stop-color="#35333A"/></linearGradient></defs></svg>