<svg id="Payment_Cards_Colors_Paylib_48px" xmlns="http://www.w3.org/2000/svg" viewBox="0 0 48 48"><path fill="#16D6FF" d="M4 12a2 2 0 012-2h36a2 2 0 012 2v24a2 2 0 01-2 2H6a2 2 0 01-2-2V12z"/><path fill="#fff" d="M10 21.05h1v.33h.04a2.13 2.13 0 011.09-.4c.377-.04.759-.02 1.13.06a1.547 1.547 0 011.18 1.27c.118.555.148 1.125.09 1.69-.01.327-.053.652-.13.97a1.582 1.582 0 01-1.41 1.25c-.43.06-.86.05-1.3.07v-1.04h.43a5.27 5.27 0 00.56-.05.62.62 0 00.53-.5c.053-.183.087-.37.1-.56.04-.476.03-.956-.03-1.43a2.307 2.307 0 00-.06-.25.64.64 0 00-.5-.45 2.101 2.101 0 00-.9 0 .718.718 0 00-.57.72c0 .12-.02.25-.02.36v4.96h-1.11c-.09 0-.11-.02-.11-.1v-.5l-.01-6.4z"/><path fill="#fff" fill-rule="evenodd" d="M31.97 17.82l-.07-.01a6.183 6.183 0 00-3.5 1 .25.25 0 00-.13.25v5.61l-.002.097a1.69 1.69 0 00.002.223c.01.16.07.22.23.22h.68v1.06a6.045 6.045 0 01-1.28-.06.965.965 0 01-.81-.84 3.255 3.255 0 01-.04-.54v-4.76h-.04c-1.36 1.76-1.75 3.85-1.11 5.85.64 2 2.03 3.31 4.03 4.02v-7.02h1.28v7.25a6.093 6.093 0 005.56-2.48c1.46-2.03 1.64-4.23.54-6.48-.85-1.72-2.25-2.75-4.1-3.25v6.62c.03.41.2.63.57.68.232.03.468.03.7 0a.715.715 0 00.75-.68 5.62 5.62 0 00.02-1.83.72.72 0 00-.77-.69h-.82v-1h.04c.123.003.246.003.369.004.286 0 .571.001.851.036.744.04 1.36.594 1.48 1.33.17.788.17 1.602 0 2.39a1.672 1.672 0 01-1.25 1.34 4.146 4.146 0 01-2.07 0c-.51-.11-.91-.51-1.02-1.02-.06-.252-.09-.51-.09-.77v-6.55zm-1.64 4.61a.612.612 0 01-.5-.68.612.612 0 01.66-.68c.096-.01.194-.01.29 0 .283.05.491.293.5.58v.23a.58.58 0 01-.56.57c-.13.013-.262.007-.39-.02z"/><path fill="#fff" d="M20.25 21.06h1.22v3.35c0 .137.01.274.03.41a.447.447 0 00.32.36c.367.12.763.12 1.13 0a.477.477 0 00.35-.46c0-.12.02-.23.02-.35v-3.3h1.18v5.67c0 .188-.02.376-.06.56a.892.892 0 01-.73.7 7.639 7.639 0 01-1.28.06v-1h.66a.198.198 0 00.2-.19v-.67l-.84.05a3.11 3.11 0 01-1.2-.15 1.407 1.407 0 01-1-1.3v-3.74z"/><path fill="#fff" fill-rule="evenodd" d="M19.57 26.25v-5.2h-1.01v.35a1.826 1.826 0 00-.75-.36 3.841 3.841 0 00-1.07-.06c-.89.07-1.4.51-1.6 1.38a6.607 6.607 0 00-.09 1.72c.008.263.042.524.1.78a1.55 1.55 0 001.1 1.27 2.965 2.965 0 001.67.04c.152-.043.299-.1.44-.17v.25h1.21zm-1.21-1.84a.787.787 0 01-.75.86 2.748 2.748 0 01-.7-.02.62.62 0 01-.53-.47 2.277 2.277 0 01-.1-.58c0-.23.008-.462.015-.695.007-.232.015-.465.015-.695.015-.094.035-.188.06-.28A.683.683 0 0117 22c.236-.02.474-.02.71 0 .4.04.62.3.65.75v1.66z"/></svg>