<svg xmlns="http://www.w3.org/2000/svg" viewBox="0 0 64 64"><defs><linearGradient id="Dégradé_sans_nom_208" x1="2809.63" x2="2809.63" y1="-1982.54" y2="-2030.38" gradientTransform="matrix(-1.14 0 0 .79 3231.83 1625.81)" gradientUnits="userSpaceOnUse"><stop offset="0" stop-color="#0b0a0c"/><stop offset="0.27" stop-color="#100f12"/><stop offset="0.63" stop-color="#1f1e22"/><stop offset="1" stop-color="#35333a"/></linearGradient><style>.cls-6{fill:#fff}</style></defs><g id="Icon"><rect width="54" height="38" x="5" y="13" fill="url(#Dégradé_sans_nom_208)" rx="2"/><rect width="8.11" height="14.58" x="27.94" y="22.31" fill="#ff5f00"/><path fill="#eb001b" d="M28.46 29.59A9.28 9.28 0 0132 22.31a9.27 9.27 0 100 14.57 9.24 9.24 0 01-3.54-7.29z"/><path fill="#f79e1b" d="M47 29.59a9.27 9.27 0 01-15 7.29 9.28 9.28 0 000-14.57 9.26 9.26 0 0115 7.28z"/><path d="M22.14 41.35a1.44 1.44 0 00-.31-.19 1.09 1.09 0 00-.4-.07h-.23l-.23.07a.6.6 0 00-.21.14.64.64 0 00-.19.21 1 1 0 00-.34-.33 1 1 0 00-.48-.1h-.19l-.2.05a.57.57 0 00-.18.12.65.65 0 00-.16.17v-.3h-.52v2.46h.5v-1.34a.81.81 0 01.05-.27.74.74 0 01.13-.21.47.47 0 01.2-.12.62.62 0 01.23 0 .54.54 0 01.42.16.83.83 0 01.15.48v1.37h.52v-1.41a.8.8 0 010-.27.6.6 0 01.14-.21.41.41 0 01.2-.12.59.59 0 01.23 0 .5.5 0 01.4.16.69.69 0 01.15.48v1.37h.52v-1.59a1 1 0 00-.07-.39 1 1 0 00-.13-.32zM24.88 41.44a.86.86 0 00-.31-.26 1.22 1.22 0 00-.46-.09 1.28 1.28 0 00-.48.09 1.84 1.84 0 00-.4.26 2.26 2.26 0 00-.26.42 1.58 1.58 0 00-.09.52 1.44 1.44 0 00.09.51 1.29 1.29 0 00.26.42 1.31 1.31 0 00.4.26 1.12 1.12 0 00.48.1.93.93 0 00.46-.1.86.86 0 00.31-.26v.3h.53v-2.47h-.53zm0 1.26a1 1 0 01-.16.24.78.78 0 01-.24.16.94.94 0 01-.3.07.87.87 0 01-.31-.07.55.55 0 01-.23-.17.64.64 0 01-.15-.25.94.94 0 01-.05-.3 1.12 1.12 0 01.05-.31.69.69 0 01.38-.42.85.85 0 01.31-.06.73.73 0 01.3.06.7.7 0 01.24.17.82.82 0 01.16.25 1.67 1.67 0 01.05.31 1.77 1.77 0 01-.06.32zM27.88 42.37a1.3 1.3 0 00-.63-.23h-.53l-.09-.14a.13.13 0 010-.1.23.23 0 01.13-.21.67.67 0 01.34-.09h.22l.22.06.18.06.13.08.24-.42a1.27 1.27 0 00-.45-.19 2 2 0 00-.54-.07 2 2 0 00-.43 0 1.2 1.2 0 00-.32.16.64.64 0 00-.21.25.87.87 0 00-.06.32.6.6 0 00.21.49 1.27 1.27 0 00.62.23h.25a.9.9 0 01.33.09.23.23 0 01.1.19.22.22 0 01-.14.2.69.69 0 01-.42.1h-.48l-.18-.08-.15-.11-.25.41a2.61 2.61 0 00.28.17l.29.09H27a1.48 1.48 0 00.47 0 .88.88 0 00.35-.17.75.75 0 00.22-.25.6.6 0 00.07-.32.59.59 0 00-.23-.52zM32.9 41.44a1 1 0 00-.37-.26 1.18 1.18 0 00-.46-.09 1.43 1.43 0 00-.5.09.87.87 0 00-.39.26 1.16 1.16 0 00-.25.41 1.61 1.61 0 000 1.06 1.36 1.36 0 00.26.41 1.4 1.4 0 00.39.26 1.52 1.52 0 00.51.09 1.67 1.67 0 00.54-.07 1.38 1.38 0 00.48-.28l-.28-.38a.92.92 0 01-.33.19 1.17 1.17 0 01-.37.08 1.09 1.09 0 01-.25 0 .94.94 0 01-.22-.12.58.58 0 01-.17-.18.75.75 0 01-.09-.29h1.81a.43.43 0 010-.11v-.1a1.3 1.3 0 00-.1-.52 1 1 0 00-.21-.45zm-1.5.72a.88.88 0 01.07-.23.48.48 0 01.14-.2 1.18 1.18 0 01.18-.13.78.78 0 01.26 0 .58.58 0 01.42.16.9.9 0 01.21.44zM40 41.44a1.35 1.35 0 00-.32-.26 1.13 1.13 0 00-.45-.09 1.32 1.32 0 00-.48.09 1.16 1.16 0 00-.39.26 1 1 0 00-.26.42 1.35 1.35 0 00-.11.52 1.26 1.26 0 00.11.51 1.13 1.13 0 00.65.68 1 1 0 00.48.1.87.87 0 00.45-.1 1 1 0 00.32-.26v.3h.54v-2.47H40zm0 1.26a1 1 0 01-.15.24.78.78 0 01-.55.23 1.09 1.09 0 01-.3-.07.55.55 0 01-.23-.17.48.48 0 01-.14-.25.73.73 0 01-.06-.3.85.85 0 01.06-.31.52.52 0 01.14-.25.72.72 0 01.53-.23.87.87 0 01.32.06.66.66 0 01.23.17.64.64 0 01.15.25 1.12 1.12 0 010 .31 1.13 1.13 0 010 .32zM30.17 43.11a.5.5 0 01-.24.06h-.16a.2.2 0 01-.12-.08.42.42 0 01-.09-.14 1.52 1.52 0 010-.21v-1.1h.87v-.5h-.87v-.74H29v.74h-.5v.5h.5v1.08a1 1 0 00.22.72.87.87 0 00.65.23 1 1 0 00.42-.07l.24-.11-.19-.49a.44.44 0 01-.17.11zM35 41.09a1.1 1.1 0 00-.4.08.79.79 0 00-.3.3v-.33h-.5v2.47h.5v-1.36a.84.84 0 010-.27.57.57 0 01.13-.21.34.34 0 01.18-.13.67.67 0 01.24 0h.31l.16-.52h-.14zM42.46 41.09a1.06 1.06 0 00-.4.08.79.79 0 00-.3.3v-.33h-.5v2.47h.5v-1.36a.52.52 0 01.05-.27.45.45 0 01.12-.21.34.34 0 01.18-.13.59.59 0 01.23 0h.32l.15-.52h-.13zM45 40.15v1.29a.9.9 0 00-.32-.26 1.17 1.17 0 00-.45-.09 1.37 1.37 0 00-.49.09 2 2 0 00-.39.26 1.54 1.54 0 00-.26.42 1.36 1.36 0 00-.09.52 1.44 1.44 0 00.09.51 1.29 1.29 0 00.26.42 1.27 1.27 0 00.39.26 1.19 1.19 0 00.49.1.9.9 0 00.45-.1.82.82 0 00.32-.26v.3h.53v-3.46zm0 2.55a1 1 0 01-.15.24.84.84 0 01-.54.23.82.82 0 01-.31-.07.66.66 0 01-.24-.17 1 1 0 01-.14-.25.94.94 0 010-.3 1.12 1.12 0 010-.31 1.23 1.23 0 01.14-.25.81.81 0 01.24-.17.81.81 0 01.31-.06.77.77 0 01.3.06.81.81 0 01.24.17.64.64 0 01.15.25 1.12 1.12 0 010 .31 1.19 1.19 0 010 .32zM36.3 41.81a.78.78 0 01.24-.16.81.81 0 01.31-.06 1 1 0 01.33.06.54.54 0 01.26.16l.26-.43a1.38 1.38 0 00-.33-.2 1.5 1.5 0 00-.52-.09 1.6 1.6 0 00-.53.09 1.34 1.34 0 00-.42.28 1.09 1.09 0 00-.27.4 1.35 1.35 0 00-.11.52 1.26 1.26 0 00.11.51 1.22 1.22 0 00.27.41 1.32 1.32 0 00.42.27 1.39 1.39 0 00.53.1 1.3 1.3 0 00.52-.1 1.74 1.74 0 00.33-.18l-.26-.39a.68.68 0 01-.26.15l-.33.06a1.13 1.13 0 01-.31-.06.66.66 0 01-.24-.17.7.7 0 01-.17-.24 1 1 0 010-.64.74.74 0 01.17-.29z" class="cls-6"/></g></svg>