<svg xmlns="http://www.w3.org/2000/svg" viewBox="0 0 24 24"><rect x="2.25" y="5.25" width="19.5" height="13.5" rx=".75"/><path d="M21 19H3a1 1 0 01-1-1V6a1 1 0 011-1h18a1 1 0 011 1v12a1 1 0 01-1 1zM3 5.5a.5.5 0 00-.5.5v12a.5.5 0 00.5.5h18a.5.5 0 00.5-.5V6a.5.5 0 00-.5-.5z"/><path d="M8 18.75h13a.76.76 0 00.75-.75V6a.76.76 0 00-.75-.75H8"/><path d="M21 19H8v-.5h13a.5.5 0 00.5-.5V6a.5.5 0 00-.5-.5H8V5h13a1 1 0 011 1v12a1 1 0 01-1 1zM5.61 6.5L7.4 8.29a.51.51 0 01-.4.86H3.46a.5.5 0 01-.35-.86L4.9 6.5a.5.5 0 01.71 0z"/><path d="M18.5 10h-.28A2 2 0 0015 7.69 2 2 0 0011.78 10h-.28a.5.5 0 00-.5.5v6a.5.5 0 00.5.5h7a.5.5 0 00.5-.5v-6a.5.5 0 00-.5-.5zm-4 3H12v-2h2.5zm1-2H18v2h-2.5zm1-3a1 1 0 010 2h-1V9a1 1 0 011-1zm-4 1a1 1 0 012 0v1h-1a1 1 0 01-1-1zm-.5 5h2.5v2H12zm3.5 2v-2H18v2z"/></svg>