<svg xmlns="http://www.w3.org/2000/svg" viewBox="0 0 24 24" aria-hidden="true"><defs><linearGradient id="Dégradé_sans_nom_52" x1="910.87" x2="913.84" y1="-2097.92" y2="-2094.94" gradientTransform="matrix(6.51 0 0 -4.54 -5927.34 -9506.97)" gradientUnits="userSpaceOnUse"><stop offset="0" stop-color="#109a72"/><stop offset="0.3" stop-color="#008a8d"/><stop offset="0.69" stop-color="#01679b"/><stop offset="1" stop-color="#03376f"/></linearGradient><style>.cls-3{fill:#fff}</style></defs><g id="Icon"><rect width="20" height="14" x="2" y="4.88" fill="url(#Dégradé_sans_nom_52)" rx="1"/><path d="M9.61 11.7h2.62a1.92 1.92 0 00-.56-1.39 3.3 3.3 0 00-2.05-.56 3.35 3.35 0 00-2.12.61 2 2 0 00-.5 1.52 2.18 2.18 0 00.62 1.62 3.21 3.21 0 002 .51 3.22 3.22 0 002-.5 2.09 2.09 0 00.63-1.63H9.61zM12.4 11.88v2H16a1 1 0 001-1 1 1 0 00-1-1zM16.93 10.77a.92.92 0 00-.93-.93h-3.6v1.86h3.67a.93.93 0 00.86-.93z" class="cls-3"/></g></svg>