<svg id="Payment_Cards_Colors_Mastercard_48px" xmlns="http://www.w3.org/2000/svg" viewBox="0 0 48 48"><path fill="url(#a)" d="M4 12a2 2 0 012-2h36a2 2 0 012 2v24a2 2 0 01-2 2H6a2 2 0 01-2-2V12z"/><path fill="#FF5F00" d="M20.89 16.538h6.22v11.174h-6.22V16.538z"/><path fill="#EB001B" d="M21.285 22.125A7.13 7.13 0 0124 16.538a7.107 7.107 0 100 11.174 7.1 7.1 0 01-2.715-5.587z"/><path fill="#F79E1B" d="M35.5 22.125A7.1 7.1 0 0124 27.712a7.122 7.122 0 000-11.174 7.1 7.1 0 0111.5 5.587z"/><path fill="#fff" d="M16.45 31.14a.923.923 0 00-.25-.15.722.722 0 00-.3-.05h-.18l-.18.05a.586.586 0 00-.16.11.413.413 0 00-.13.15A.777.777 0 0015 31a.75.75 0 00-.37-.08h-.15l-.15.04a.558.558 0 00-.14.09.502.502 0 00-.12.13v-.23h-.4v1.89h.4v-1.03a.461.461 0 01.04-.21.5.5 0 01.1-.16.355.355 0 01.15-.09.554.554 0 01.18-.03.422.422 0 01.32.12.577.577 0 01.11.37v1.05h.4v-1.05a.604.604 0 01.03-.21.586.586 0 01.11-.16.355.355 0 01.15-.09.44.44 0 01.18-.03.4.4 0 01.31.12c.082.105.12.237.11.37v1.05h.4v-1.19a.945.945 0 00-.05-.3.923.923 0 00-.16-.23z"/><path fill="#fff" fill-rule="evenodd" d="M18.3 31.01a.665.665 0 01.25.2v-.23h.41v1.89h-.41v-.23a.585.585 0 01-.25.2.735.735 0 01-.35.08.904.904 0 01-.37-.08.97.97 0 01-.3-.2 1.063 1.063 0 01-.2-.32 1 1 0 01-.07-.39 1.03 1.03 0 01.07-.4.877.877 0 01.5-.52.895.895 0 01.37-.07.77.77 0 01.35.07zm.13 1.35a.72.72 0 00.12-.19h-.01a.965.965 0 00.05-.24.863.863 0 00-.04-.25.522.522 0 00-.12-.19.446.446 0 00-.18-.13.607.607 0 00-.48 0 .533.533 0 00-.29.32.653.653 0 00-.04.25.645.645 0 00.15.42.44.44 0 00.18.13.607.607 0 00.66-.12z"/><path fill="#fff" d="M20.85 31.92a.955.955 0 00-.48-.18l-.19-.03-.13-.02-.09-.03-.07-.06a.117.117 0 01-.03-.08.19.19 0 01.1-.16.473.473 0 01.25-.07l.17.02.17.04.14.05.1.06.18-.32a.946.946 0 00-.34-.15 1.499 1.499 0 00-.42-.05 1.128 1.128 0 00-.33.04.865.865 0 00-.25.12.47.47 0 00-.16.19.666.666 0 00-.05.25.455.455 0 00.16.37.95.95 0 00.48.18l.19.03a.584.584 0 01.25.07c.048.03.078.083.08.14a.18.18 0 01-.08.17.548.548 0 01-.32.07l-.21-.02-.17-.05-.14-.06-.11-.08-.19.31c.065.05.136.094.21.13l.22.07.21.04h.17c.121.003.242-.01.36-.04a.695.695 0 00.27-.12.59.59 0 00.17-.19.5.5 0 00.05-.25.44.44 0 00-.17-.39z"/><path fill="#fff" fill-rule="evenodd" d="M24.42 31.01a.697.697 0 01.28.2c.08.09.142.195.18.31.05.127.073.263.07.4V32a.211.211 0 000 .08h-1.39a.53.53 0 00.07.22.462.462 0 00.13.14.604.604 0 00.36.12.67.67 0 00.28-.06.795.795 0 00.25-.14l.21.29a1.068 1.068 0 01-.37.21c-.133.04-.271.06-.41.06a1.22 1.22 0 01-.39-.07 1.106 1.106 0 01-.3-.2 1.038 1.038 0 01-.27-.72c-.003-.14.02-.28.07-.41a.902.902 0 01.19-.31.697.697 0 01.3-.2.9.9 0 01.38-.07.85.85 0 01.36.07zm-.82.56a.871.871 0 00-.05.18h.98a.67.67 0 00-.16-.34.435.435 0 00-.32-.12.4.4 0 00-.34.13.41.41 0 00-.11.15zm6.31-.56c.095.05.18.118.25.2v-.23h.41v1.89h-.41v-.23a.692.692 0 01-.25.2.702.702 0 01-.34.08.896.896 0 01-.37-.08.765.765 0 01-.3-.2.75.75 0 01-.2-.32 1.002 1.002 0 010-.79c.041-.12.11-.23.2-.32a.941.941 0 01.3-.2.855.855 0 01.37-.07.723.723 0 01.34.07zm.12 1.35a.655.655 0 00.15-.43.608.608 0 00-.04-.25.52.52 0 00-.11-.19.445.445 0 00-.18-.13.607.607 0 00-.25-.05.557.557 0 00-.41.18.428.428 0 00-.11.19.655.655 0 00-.04.25.602.602 0 00.04.23.43.43 0 00.11.19.44.44 0 00.18.13.607.607 0 00.66-.12z"/><path fill="#fff" d="M22.61 32.5a.42.42 0 01-.19.04l-.12-.04a.15.15 0 01-.09-.06.392.392 0 01-.07-.11.685.685 0 01-.02-.16v-.82h.66v-.38h-.66v-.57h-.41v.57h-.38v.38h.38v.83a.782.782 0 00.17.55.68.68 0 00.5.18.782.782 0 00.32-.06.969.969 0 00.18-.08l-.14-.35a.31.31 0 01-.13.08zm3.71-1.56A.77.77 0 0026 31a.636.636 0 00-.23.23v-.25h-.37v1.89h.38v-1.04a.604.604 0 01.03-.21.5.5 0 01.1-.16.28.28 0 01.14-.1.44.44 0 01.18-.03h.16l.08.03.12-.4-.1-.02h-.17zm5.71 0a.77.77 0 00-.31.06.636.636 0 00-.23.23v-.25h-.38v1.89h.39v-1.04a.464.464 0 01.04-.21.366.366 0 01.09-.16.28.28 0 01.14-.1.44.44 0 01.18-.03h.16l.08.03.12-.4-.1-.02h-.18z"/><path fill="#fff" fill-rule="evenodd" d="M33.95 31.22v-1l.43-.01v2.65h-.41v-.23a.585.585 0 01-.25.2.735.735 0 01-.35.08 1 1 0 01-.67-.28 1.063 1.063 0 01-.2-.32 1 1 0 01-.07-.39 1.03 1.03 0 01.07-.4.877.877 0 01.5-.52.937.937 0 01.35-.05.77.77 0 01.35.07.665.665 0 01.25.2zm-.12 1.14a.72.72 0 00.12-.19h-.01a.964.964 0 00.06-.23.863.863 0 00-.04-.25.522.522 0 00-.12-.19.445.445 0 00-.18-.13.607.607 0 00-.48 0 .582.582 0 00-.18.13.8.8 0 00-.12.18.863.863 0 00-.04.25.645.645 0 00.15.42.44.44 0 00.18.13.607.607 0 00.66-.12z"/><path fill="#fff" d="M27.31 31.5a.607.607 0 01.43-.17c.086 0 .17.017.25.05.078.018.148.06.2.12l.2-.33a.977.977 0 00-.25-.15 1.038 1.038 0 00-.4-.07.974.974 0 00-1.02.99 1.002 1.002 0 00.29.7c.092.09.2.162.32.21.13.053.27.08.41.08.137 0 .273-.027.4-.08.088-.038.172-.085.25-.14l-.2-.33a.563.563 0 01-.2.12.95.95 0 01-.25.04.863.863 0 01-.25-.04.582.582 0 01-.18-.13.5.5 0 01-.13-.19.653.653 0 01-.04-.25.706.706 0 01.04-.25.5.5 0 01.13-.18z"/><defs><linearGradient id="a" x1="44.132" x2="44.132" y1="40.032" y2="12.185" gradientUnits="userSpaceOnUse"><stop stop-color="#0B0A0C"/><stop offset=".27" stop-color="#100F12"/><stop offset=".63" stop-color="#1F1E22"/><stop offset="1" stop-color="#35333A"/></linearGradient></defs></svg>