<svg xmlns="http://www.w3.org/2000/svg" viewBox="0 0 32 32"><defs><linearGradient id="Dégradé_sans_nom_16" x1="674.05" y1="-2203.44" x2="676.95" y2="-2200.5" gradientTransform="matrix(8.46 0 0 -5.84 -5700.69 -12838.66)" gradientUnits="userSpaceOnUse"><stop offset="0" stop-color="#fff"/><stop offset=".53" stop-color="#f1fdfe"/><stop offset="1" stop-color="#ecfcfd"/></linearGradient><style>.cls-3{fill:#b7eef5}</style></defs><g id="Icon"><rect x="3" y="7" width="26" height="18" rx="2" fill="url(#Dégradé_sans_nom_16)"/><path class="cls-3" d="M27 8a1 1 0 011 1v14a1 1 0 01-1 1H5a1 1 0 01-1-1V9a1 1 0 011-1h22m0-1H5a2 2 0 00-2 2v14a2 2 0 002 2h22a2 2 0 002-2V9a2 2 0 00-2-2z"/><path d="M24.5 14h-8.79l2-2h6.79a.5.5 0 000-1h-5.79l.64-.65a.49.49 0 10-.7-.7L17.29 11H7.5a.5.5 0 000 1h8.79l-2 2H7.5a.5.5 0 000 1h5.79l-.64.65a.48.48 0 000 .7.48.48 0 00.7 0L14.71 15h9.79a.5.5 0 000-1z" fill="#84dbeb"/><rect class="cls-3" x="7" y="18" width="7" height="4.5" rx=".5"/><path d="M16.5 22.5h-.14a.5.5 0 01-.34-.62C16.43 20.42 17.3 18 18.5 18c.89 0 1.59 1.33 2.07 2.6C21.35 19 21.79 19 22 19s.79 0 1.84 2.5H25a.5.5 0 010 1h-1.5a.49.49 0 01-.46-.31 11.44 11.44 0 00-1-2.07 11.44 11.44 0 00-1 2.07.48.48 0 01-.49.31.5.5 0 01-.45-.36c-.45-1.56-1.18-3.06-1.53-3.14-.33.08-1.06 1.58-1.51 3.14a.49.49 0 01-.56.36z" fill="#25a8d0"/></g></svg>