<svg xmlns="http://www.w3.org/2000/svg" viewBox="0 0 32 32"><defs><linearGradient id="Dégradé_sans_nom_196" x1="956.24" x2="959.14" y1="-2203.44" y2="-2200.5" gradientTransform="matrix(8.46 0 0 -5.84 -8088.82 -12838.66)" gradientUnits="userSpaceOnUse"><stop offset="0" stop-color="#fff"/><stop offset="0.4" stop-color="#f9f9f9"/><stop offset="0.93" stop-color="#e9e9e9"/><stop offset="1" stop-color="#e6e6e6"/></linearGradient><style>.cls-4{fill:#179bd7}.cls-5{fill:#253b80}</style></defs><g id="Icon"><rect width="26" height="18" x="3" y="7" fill="url(#Dégradé_sans_nom_196)" rx="2"/><path fill="#d3d2d6" d="M27 7.5A1.5 1.5 0 0128.5 9v14a1.5 1.5 0 01-1.5 1.5H5A1.5 1.5 0 013.5 23V9A1.5 1.5 0 015 7.5h22m0-.5H5a2 2 0 00-2 2v14a2 2 0 002 2h22a2 2 0 002-2V9a2 2 0 00-2-2z"/><path d="M18.07 19h-.93a.13.13 0 00-.13.11l-.38 2.39c0 .05 0 .09.07.09h.49a.1.1 0 00.09-.07l.1-.68a.13.13 0 01.13-.11h.3a1 1 0 001.06-.89.73.73 0 00-.12-.6.85.85 0 00-.68-.24zm.11.87c-.05.34-.31.34-.56.34h-.14l.1-.63a.09.09 0 01.08-.06h.06c.17 0 .33 0 .41.1a.28.28 0 01.05.25z" class="cls-4"/><path d="M11.41 19h-.93a.13.13 0 00-.12.11L10 21.49a.08.08 0 00.06.09h.46a.13.13 0 00.13-.11l.1-.64a.12.12 0 01.13-.11h.29a1 1 0 001.07-.89.73.73 0 00-.12-.6.87.87 0 00-.71-.23zm.11.87c0 .34-.3.34-.55.34h-.14l.1-.63s0-.06.07-.06h.07a.54.54 0 01.41.1.28.28 0 010 .25zM14.21 19.85h-.45a.08.08 0 00-.08.07v.12a.64.64 0 00-.53-.19 1 1 0 00-1 .9.83.83 0 00.16.68.7.7 0 00.56.23.87.87 0 00.62-.25v.12a.08.08 0 00.07.09h.41a.12.12 0 00.13-.11l.24-1.53a.08.08 0 00-.06-.09zm-.63.87a.49.49 0 01-.5.43.35.35 0 01-.38-.31.25.25 0 010-.12.49.49 0 01.5-.43.35.35 0 01.3.12.38.38 0 01.07.31z" class="cls-5"/><path d="M20.86 19.85h-.45a.08.08 0 00-.07.07v.12a.65.65 0 00-.53-.19 1 1 0 00-1 .9.8.8 0 00.17.68.69.69 0 00.56.23.9.9 0 00.62-.25v.12a.07.07 0 00.06.09h.42a.12.12 0 00.12-.11l.24-1.53a.08.08 0 00-.06-.09zm-.62.87a.51.51 0 01-.51.43.39.39 0 01-.3-.12.41.41 0 01-.07-.32.51.51 0 01.5-.43.37.37 0 01.38.44z" class="cls-4"/><path d="M16.58 19.85h-.44a.11.11 0 00-.11.06l-.62.91-.27-.82a.12.12 0 00-.12-.1h-.45a.08.08 0 00-.07.08l.5 1.45-.47.66a.07.07 0 000 .1H15a.11.11 0 00.11-.06L16.65 20a.09.09 0 000-.11z" class="cls-5"/><path d="M21.39 19.06L21 21.49a.08.08 0 00.07.09h.4a.13.13 0 00.13-.11l.4-2.39a.08.08 0 00-.06-.09h-.44a.08.08 0 00-.11.07zM18.94 12.28a.77.77 0 010 .15A2.61 2.61 0 0116 14.69h-.72A.37.37 0 0015 15l-.37 2.37-.1.67a.19.19 0 00.18.22H16a.3.3 0 00.31-.26v-.07l.25-1.54v-.09a.32.32 0 01.31-.26H17a2.29 2.29 0 002.53-2 1.7 1.7 0 00-.26-1.49 1.45 1.45 0 00-.33-.27z" class="cls-4"/><path fill="#222d65" d="M18.6 12.15h-.32a4.31 4.31 0 00-.64 0h-2a.35.35 0 00-.14 0 .31.31 0 00-.17.23L15 14.92V15a.37.37 0 01.36-.3H16a2.61 2.61 0 002.89-2.26.77.77 0 000-.15 1.69 1.69 0 00-.27-.11z"/><path d="M15.38 12.29a.31.31 0 01.17-.23.35.35 0 01.14 0h2a3.26 3.26 0 01.64.05.51.51 0 01.17 0h.22a1.69 1.69 0 01.27.11 1.61 1.61 0 00-.33-1.43 2.48 2.48 0 00-1.9-.6h-2.54a.36.36 0 00-.35.3l-1 6.57a.21.21 0 00.21.24h1.53l.39-2.38z" class="cls-5"/></g></svg>