<svg id="Payment_Cards_Colors_Visa_64px" xmlns="http://www.w3.org/2000/svg" viewBox="0 0 64 64"><path fill="#fff" d="M8.037 50.625h47.925a2.66 2.66 0 002.663-2.66v-31.93a2.66 2.66 0 00-2.663-2.66H8.038a2.66 2.66 0 00-2.662 2.66v31.93a2.66 2.66 0 002.662 2.66z"/><path fill="#DDD" fill-rule="evenodd" d="M8.037 13.375h47.925c1.47 0 2.662 1.19 2.663 2.66v31.93a2.662 2.662 0 01-2.663 2.66H8.038a2.662 2.662 0 01-2.662-2.66v-31.93a2.662 2.662 0 012.662-2.66zm50.088 2.66a2.165 2.165 0 00-2.163-2.16H8.038a2.165 2.165 0 00-2.162 2.16v31.93a2.165 2.165 0 002.162 2.16h47.925a2.165 2.165 0 002.163-2.16v-31.93z"/><path fill="#1B2070" d="M55.962 13.375H8.038a2.662 2.662 0 00-2.662 2.66v5.323h53.25v-5.323a2.662 2.662 0 00-2.663-2.66z"/><path fill="#F7B601" d="M5.375 42.642v5.323a2.662 2.662 0 002.662 2.66h47.925c1.47 0 2.662-1.19 2.663-2.66v-5.323H5.375z"/><path fill="#1B2070" d="M24.883 37.66l1.925-11.292h3.082L27.962 37.66h-3.08zm14.234-11.008a7.897 7.897 0 00-2.75-.475c-3.04 0-5.184 1.535-5.197 3.72 0 1.628 1.532 2.523 2.7 3.066 1.168.542 1.588.91 1.588 1.4-.013.75-.95 1.112-1.846 1.112a6.463 6.463 0 01-2.89-.598l-.395-.177-.432 2.525c.718.313 2.047.582 3.433.597 3.23 0 5.32-1.5 5.347-3.855 0-1.29-.8-2.264-2.578-3.067-1.072-.515-1.75-.867-1.724-1.397.025-.53.557-.978 1.75-.978a5.657 5.657 0 012.307.435l.273.135.42-2.442"/><path fill="#1B2070" fill-rule="evenodd" d="M44.627 26.383h2.39v-.015L49.5 37.645h-2.85s-.285-1.288-.38-1.683h-3.935l-.653 1.698h-3.23l4.576-10.342c.31-.733.867-.936 1.6-.936zm-.19 4.11l-1.22 3.15 2.55-.008-.705-3.25-.217-.978-.21.559c-.11.293-.205.543-.197.526z"/><path fill="#1B2070" d="M11.54 26.367h4.96l-.005.005c.677.028 1.207.245 1.397.965l1.06 5.065a2.5 2.5 0 01.038.113l.313 1.563 3-7.696h3.27L20.74 37.645h-3.25l-2.725-9.777a12.792 12.792 0 00-3.265-1.25l.04-.25z"/></svg>