<svg id="Payment_Cards_Colors_Oney-LMES-legacy_48px" xmlns="http://www.w3.org/2000/svg" viewBox="0 0 48 48"><path fill="#4DB901" d="M42 9.5H6a2 2 0 00-2 2v24a2 2 0 002 2h36a2 2 0 002-2v-24a2 2 0 00-2-2z"/><path fill="#fff" fill-rule="evenodd" d="M23.712 14.014a7.368 7.368 0 01-.209-.024l-.055-.035h-.105a2.77 2.77 0 00-1.42.445 3 3 0 00-1.29 3.16 2.965 2.965 0 005.41 1c.03-.045.059-.098.088-.15.018-.036.038-.071.057-.105h-1.135a.15.15 0 00-.08.04 1.96 1.96 0 01-1.395.6 1.875 1.875 0 01-1.895-1.5V17.4h4.635a3.502 3.502 0 000-.97 2.925 2.925 0 00-2.26-2.37 4.202 4.202 0 00-.346-.046zm1.481 2.426h-3.48c.189-.86.966-1.46 1.845-1.425.77.04 1.635.77 1.635 1.425zm-13.801-2.423a5.915 5.915 0 01-.179-.027h-.45c-.051.009-.104.016-.156.023a2.95 2.95 0 00-2.604 2.662v.63c.046.259.113.513.2.76a2.865 2.865 0 002.695 1.915 2.825 2.825 0 002.37-1.035 3 3 0 00-1.615-4.885c-.086-.018-.174-.03-.261-.043zm1.486 2.553c.026.14.044.28.055.42a2 2 0 01-1.655 1.97 1.93 1.93 0 01-2.155-1.455 2 2 0 011.215-2.36c.092-.032.185-.057.28-.075a1.92 1.92 0 012.26 1.5z"/><path fill="#fff" d="M27.724 21.705c.29-.695.57-1.39.85-2.085a.14.14 0 000-.11c-.767-1.84-1.535-3.674-2.305-5.5h1.2a.142.142 0 000 .045l1.665 4.085a.33.33 0 00.03.05c.015-.031.028-.063.04-.095.21-.5.42-1.03.63-1.535l1.04-2.55h1.13a.758.758 0 010 .1l-2.25 5.5-.88 2.13-1.15-.035zM17.538 13.99c.15.025.3.035.45.075a2.395 2.395 0 011.875 1.78c.06.246.09.498.09.75v3.385h-1.085v-3.285c0-.235-.025-.47-.075-.7a1.23 1.23 0 00-1-.975 2.207 2.207 0 00-1 0 1.275 1.275 0 00-1.055 1.12c-.035.19-.05.383-.045.575v3.245h-1.08a.168.168 0 010-.05v-3.465a2.305 2.305 0 01.83-1.825c.421-.361.947-.58 1.5-.625h.1l.495-.005z"/><path fill="#96E51F" d="M43.438 27.9H28.364l7.542-6.898 7.53 6.897z"/><path fill="#89C067" d="M38.844 37.473l5.149-4.718v-.035H33.657l5.187 4.753z"/><path fill="#A8DA88" d="M33.669 32.7h10.323v-.016l-5.153-4.722-5.17 4.737z"/><path fill="#EAF8E4" d="M38.825 27.948L33.64 32.7h-.005l-5.2-4.765h10.374l.016.014zm.045-.014l-.015.014 5.138 4.709.007-4.228-.54-.495h-4.59z"/><path fill="#3B950F" d="M28.383 27.913l-.01-.008-.008.008h.018zm-.04.021l-5.186 4.742.025.023h10.424l-5.201-4.765h-.062zm-5.201 4.756l.01.01h-.02l.01-.01z"/><path fill="#96E51F" d="M23.174 32.72h-.064l-5.228 4.78 10.498-.01-5.206-4.77z"/><path fill="#A8DA88" d="M33.618 32.72H23.204l5.206 4.77h.002l5.206-4.77z"/><path fill="#EAF8E4" d="M28.441 37.49l5.196-4.762 5.186 4.752-10.382.01z"/><path fill="#3B950F" d="M38.865 37.48l3.437-.003a2.001 2.001 0 001.685-1.751l.005-2.944-5.127 4.699z"/></svg>