<svg xmlns="http://www.w3.org/2000/svg" viewBox="0 0 32 32">
    
  <path fill="url(#a)" d="M3 9a2 2 0 0 1 2-2h22a2 2 0 0 1 2 2v14a2 2 0 0 1-2 2H5a2 2 0 0 1-2-2V9Z"/>
  <path fill="#fff" d="M10.658 20.793a.67.67 0 0 0-.16-.103.514.514 0 0 0-.203-.033h-.12l-.123.033a.46.46 0 0 0-.107.075.32.32 0 0 0-.093.107.46.46 0 0 0-.422-.222h-.102l-.1.027a.327.327 0 0 0-.093.06.388.388 0 0 0-.082.088v-.155h-.268v1.27h.268v-.69a.37.37 0 0 1 .095-.247.25.25 0 0 1 .1-.06.34.34 0 0 1 .122-.02.27.27 0 0 1 .213.08c.053.072.08.16.075.25v.704h.267v-.707c0-.047.007-.094.02-.14a.414.414 0 0 1 .075-.107.25.25 0 0 1 .1-.06.295.295 0 0 1 .123-.02.27.27 0 0 1 .207.08c.055.07.08.16.073.25v.704h.27v-.802a.616.616 0 0 0-.035-.203.662.662 0 0 0-.1-.16Z"/>
  <path fill="#fff" fill-rule="evenodd" d="M11.905 20.705c.064.03.12.076.163.133v-.153h.274v1.268h-.274v-.155a.501.501 0 0 1-.398.19.683.683 0 0 1-.453-.19.7.7 0 0 1-.18-.475.67.67 0 0 1 .048-.27.834.834 0 0 1 .132-.216.911.911 0 0 1 .203-.132.598.598 0 0 1 .25-.047.499.499 0 0 1 .235.047Zm.083.905a.479.479 0 0 0 .08-.127h-.008a.691.691 0 0 0 .035-.16.598.598 0 0 0-.027-.163.38.38 0 0 0-.08-.128.345.345 0 0 0-.12-.087.419.419 0 0 0-.155-.032.46.46 0 0 0-.163.032.368.368 0 0 0-.195.215.452.452 0 0 0-.025.163.411.411 0 0 0 .1.282.31.31 0 0 0 .12.085.377.377 0 0 0 .317 0 .347.347 0 0 0 .12-.08Z"/>
  <path fill="#fff" d="M13.61 21.315a.65.65 0 0 0-.322-.12l-.128-.02-.088-.015-.06-.02-.047-.04a.08.08 0 0 1-.02-.053.128.128 0 0 1 .067-.107.307.307 0 0 1 .175-.048l.116.013.112.027.095.033.068.043.12-.215a.625.625 0 0 0-.228-.103 1.076 1.076 0 0 0-.283-.033.6.6 0 0 0-.383.108.356.356 0 0 0-.107.128.426.426 0 0 0-.032.167.302.302 0 0 0 .108.25.645.645 0 0 0 .32.123l.127.02a.37.37 0 0 1 .17.047.11.11 0 0 1 .053.093.123.123 0 0 1-.073.107.382.382 0 0 1-.215.047h-.143l-.107-.027-.092-.04-.075-.055-.128.207a.706.706 0 0 0 .143.088l.147.047.14.028h.115a.864.864 0 0 0 .25-.027.443.443 0 0 0 .183-.088.394.394 0 0 0 .112-.127.354.354 0 0 0 .035-.168.293.293 0 0 0-.125-.27Z"/>
  <path fill="#fff" fill-rule="evenodd" d="M16.008 20.705a.475.475 0 0 1 .187.133.63.63 0 0 1 .1.21c.033.085.05.176.047.267v.055a.178.178 0 0 0 0 .052h-.932a.335.335 0 0 0 .135.243.326.326 0 0 0 .113.06.452.452 0 0 0 .317-.02.5.5 0 0 0 .173-.095l.142.195a.726.726 0 0 1-.25.14.916.916 0 0 1-.275.043.836.836 0 0 1-.25-.048.735.735 0 0 1-.203-.135.665.665 0 0 1-.18-.482.73.73 0 0 1 .046-.276.622.622 0 0 1 .127-.21.477.477 0 0 1 .203-.132.591.591 0 0 1 .25-.047.582.582 0 0 1 .25.047Zm-.553.383a.657.657 0 0 0-.033.12h.65a.438.438 0 0 0-.107-.228.285.285 0 0 0-.215-.08.341.341 0 0 0-.125.02.366.366 0 0 0-.095.067.27.27 0 0 0-.075.1Zm4.235-.383a.547.547 0 0 1 .17.133v-.153h.275v1.268h-.275v-.155a.45.45 0 0 1-.17.135.478.478 0 0 1-.228.055.605.605 0 0 1-.25-.055.526.526 0 0 1-.202-.136.48.48 0 0 1-.133-.215.665.665 0 0 1 0-.53.585.585 0 0 1 .133-.215.605.605 0 0 1 .202-.132.56.56 0 0 1 .25-.047.472.472 0 0 1 .228.047Zm.082.905a.458.458 0 0 0 .073-.45.36.36 0 0 0-.072-.128.333.333 0 0 0-.123-.087.435.435 0 0 0-.16-.032.378.378 0 0 0-.275.12.33.33 0 0 0-.075.127.452.452 0 0 0-.025.163.411.411 0 0 0 .1.282.293.293 0 0 0 .12.085.377.377 0 0 0 .315 0 .358.358 0 0 0 .123-.08Z"/>
  <path fill="#fff" d="M14.793 21.698a.285.285 0 0 1-.128.027l-.082-.015a.095.095 0 0 1-.06-.04.25.25 0 0 1-.046-.073.399.399 0 0 1-.014-.107v-.55h.442v-.25h-.442v-.388h-.275v.383h-.25v.25h.25v.565c-.01.133.03.264.114.367a.46.46 0 0 0 .335.123.533.533 0 0 0 .215-.042.515.515 0 0 0 .12-.053l-.092-.235a.212.212 0 0 1-.088.038Zm2.489-1.041a.551.551 0 0 0-.21.04.432.432 0 0 0-.152.155v-.167h-.25v1.268h.25v-.703A.378.378 0 0 1 17 21a.18.18 0 0 1 .093-.067.295.295 0 0 1 .122-.02h.105l.055.02.08-.27-.067-.013-.106.008Zm3.833 0a.551.551 0 0 0-.21.04.413.413 0 0 0-.152.155v-.167H20.5v1.268h.25v-.703a.298.298 0 0 1 .025-.14.223.223 0 0 1 .063-.107.18.18 0 0 1 .092-.068.29.29 0 0 1 .12-.02h.107l.055.02.08-.27-.067-.012-.11.005Z"/>
  <path fill="#fff" fill-rule="evenodd" d="M22.402 20.837v-.662h.268v1.79h-.275v-.155a.382.382 0 0 1-.16.135A.515.515 0 0 1 22 22a.66.66 0 0 1-.242-.067.643.643 0 0 1-.2-.136.685.685 0 0 1-.183-.474.716.716 0 0 1 .047-.27.776.776 0 0 1 .136-.216.897.897 0 0 1 .2-.132.618.618 0 0 1 .25-.047.455.455 0 0 1 .395.18Zm-.08.773a.479.479 0 0 0 .08-.127h-.007a.578.578 0 0 0 .035-.16.53.53 0 0 0-.027-.163.38.38 0 0 0-.08-.128.325.325 0 0 0-.12-.087.419.419 0 0 0-.155-.032.378.378 0 0 0-.283.12.54.54 0 0 0-.073.127.598.598 0 0 0-.027.163c.002.052.01.104.027.154a.54.54 0 0 0 .073.128.303.303 0 0 0 .122.085.377.377 0 0 0 .315 0 .347.347 0 0 0 .12-.08Z"/>
  <path fill="#fff" d="M17.945 21.027a.409.409 0 0 1 .45-.082.25.25 0 0 1 .135.082l.135-.222a.747.747 0 0 0-.168-.1.716.716 0 0 0-.27-.047.75.75 0 0 0-.274.047.648.648 0 0 0-.355.348.665.665 0 0 0 0 .53.633.633 0 0 0 .355.35c.087.034.18.052.274.055a.765.765 0 0 0 .44-.15l-.135-.22a.388.388 0 0 1-.134.08.732.732 0 0 1-.168.027.58.58 0 0 1-.16-.027.38.38 0 0 1-.122-.088.386.386 0 0 1-.113-.287.422.422 0 0 1 .027-.168.318.318 0 0 1 .083-.128Z"/>
  <path fill="#FF5F00" d="M13.672 11.015h4.155v7.468h-4.155v-7.468Z"/>
  <path fill="#EB001B" d="M13.935 14.75a4.768 4.768 0 0 1 1.815-3.735 4.75 4.75 0 1 0 0 7.47 4.75 4.75 0 0 1-1.815-3.735Z"/>
  <path fill="#F79E1B" d="M23.435 14.75a4.75 4.75 0 0 1-7.685 3.735 4.763 4.763 0 0 0 0-7.47 4.75 4.75 0 0 1 7.685 3.735Z"/>
  <defs>
    <linearGradient id="a" x1="29.564" x2="29.564" y1="26.254" y2="8.252" gradientUnits="userSpaceOnUse">
      <stop stop-color="#0B0A0C"/>
      <stop offset=".27" stop-color="#100F12"/>
      <stop offset=".63" stop-color="#1F1E22"/>
      <stop offset="1" stop-color="#35333A"/>
    </linearGradient>
  </defs>
</svg>
