<svg id="Payment_Cards_Colors_Gift_48px" xmlns="http://www.w3.org/2000/svg" viewBox="0 0 48 48"><path fill="#fff" d="M4.125 12.125a2 2 0 012-2h35.75a2 2 0 012 2v23.75a2 2 0 01-2 2H6.125a2 2 0 01-2-2v-23.75z"/><path fill="#EAF3E2" d="M42 10H16v28h26a2 2 0 002-2V12a2 2 0 00-2-2z"/><path fill="#DDD" d="M16 37.975H6.125A2.128 2.128 0 014 35.85V12.1a2.128 2.128 0 012.125-2.125H16v.25H6.125A1.877 1.877 0 004.25 12.1v23.75c0 1.035.84 1.875 1.875 1.875H16v.25z"/><path fill="#CBE3B5" d="M41.875 37.975H16v-.25h25.875c1.035 0 1.875-.84 1.875-1.875V12.1a1.877 1.877 0 00-1.875-1.875H16v-.25h25.875A2.128 2.128 0 0144 12.1v23.75a2.128 2.128 0 01-2.125 2.125z"/><path fill="#78BE20" d="M10.92 12.5l3.58 3.585a1 1 0 01-.707 1.707H6.628a1 1 0 01-.708-1.707L9.5 12.5a1 1 0 011.42 0z"/><path fill="#EAF3E2" d="M41.75 10.225H16v27.5h25.75a2 2 0 002.013-1.962V12.19a2 2 0 00-2.013-1.965z"/><path fill="#78BE20" fill-rule="evenodd" d="M36.375 19.475H35.5a3.5 3.5 0 00-5.625-4.16 3.5 3.5 0 00-5.625 4.16h-.875a1.5 1.5 0 00-1.5 1.5v11a1.5 1.5 0 001.5 1.5h13a1.5 1.5 0 001.5-1.5v-11a1.5 1.5 0 00-1.5-1.5zm0 6.25h-5.75v-4.75h5.75v4.75zm-1.75-8.25a2 2 0 10-4 0v2h2a2 2 0 002-2zm-9.5 0a2 2 0 114 0v2h-2a2 2 0 01-2-2zm4 3.5h-5.75v4.75h5.75v-4.75zm-5.75 6.25h5.75v4.75h-5.75v-4.75zm7.25 0v4.75h5.75v-4.75h-5.75z"/></svg>