<svg xmlns="http://www.w3.org/2000/svg" viewBox="0 0 64 64"><defs><style>.cls-3{fill:#fff}</style></defs><g id="Icon"><circle cx="32" cy="32" r="20" fill="#81bc00"/><path class="cls-3" d="M31.52 27.51l-3.74 5.22 3.68 5.52H27.8l-1.91-2.86-1.74 2.86h-3.49l3.57-5.34-3.57-5.4h3.66l1.85 2.8 1.83-2.8zM37.69 38.51a5.91 5.91 0 01-3.46-.94A4.55 4.55 0 0132.41 35l2.86-.84a2.28 2.28 0 00.9 1.19 2.72 2.72 0 001.56.43 2.1 2.1 0 001.36-.45 1.53 1.53 0 00.56-1.25 1.43 1.43 0 00-.6-1.23 2.55 2.55 0 00-1.54-.43h-1.58V30h1.51a2.35 2.35 0 001.44-.38 1.49 1.49 0 00.51-1.26 1.35 1.35 0 00-.5-1.1 1.87 1.87 0 00-1.2-.4 1.91 1.91 0 00-1.93 1.5l-3-.84a4 4 0 01.55-1.25 4.71 4.71 0 011-1.08 4.6 4.6 0 011.48-.77 6.25 6.25 0 011.93-.28 5.67 5.67 0 013.51 1 3.31 3.31 0 011.35 2.78 3.37 3.37 0 01-.48 1.85 2.75 2.75 0 01-1.37 1.09 2.88 2.88 0 011.5 1.14 3.56 3.56 0 01.61 2.12 4 4 0 01-1.42 3.17 5.56 5.56 0 01-3.73 1.22z"/></g></svg>