<svg xmlns="http://www.w3.org/2000/svg" viewBox="0 0 24 24" aria-hidden="true"><defs><linearGradient id="Dégradé_sans_nom_196" x1="910.87" x2="913.84" y1="-2195.42" y2="-2192.44" gradientTransform="matrix(6.51 0 0 -4.54 -5927.34 -9949.57)" gradientUnits="userSpaceOnUse"><stop offset="0" stop-color="#fff"/><stop offset="0.4" stop-color="#f9f9f9"/><stop offset="0.93" stop-color="#e9e9e9"/><stop offset="1" stop-color="#e6e6e6"/></linearGradient><style>.cls-4{fill:#179bd7}.cls-5{fill:#253b80}</style></defs><g id="Icon"><rect width="20" height="14" x="2" y="5" fill="url(#Dégradé_sans_nom_196)" rx="1"/><path fill="#d3d2d6" d="M21 5.5a.5.5 0 01.5.5v12a.5.5 0 01-.5.5H3a.5.5 0 01-.5-.5V6a.5.5 0 01.5-.5h18m0-.5H3a1 1 0 00-1 1v12a1 1 0 001 1h18a1 1 0 001-1V6a1 1 0 00-1-1z"/><path d="M13.37 14.43h-.62a.09.09 0 00-.08.08l-.26 1.59a.06.06 0 00.05.06h.32a.06.06 0 00.06-.05l.07-.45a.1.1 0 01.09-.07h.2a.63.63 0 00.7-.59.49.49 0 00-.08-.41.57.57 0 00-.45-.16zm.07.59c0 .22-.2.22-.37.22H13l.07-.42c.11 0 .22 0 .27.06a.18.18 0 010 .18z" class="cls-4"/><path d="M8.94 14.43h-.63s-.07 0-.08.08L8 16.1v.06h.3a.09.09 0 00.09-.07l.07-.43a.08.08 0 01.08-.07h.2a.64.64 0 00.73-.59.49.49 0 00-.08-.41.6.6 0 00-.45-.16zM9 15c0 .22-.21.22-.37.22h-.1l.07-.42h.05a.4.4 0 01.28.06A.25.25 0 019 15zM10.8 15h-.3-.05v.09a.4.4 0 00-.35-.13.68.68 0 00-.66.6.52.52 0 00.11.46.48.48 0 00.37.15.55.55 0 00.41-.17v.14h.28a.08.08 0 00.08-.07l.17-1a.06.06 0 000-.06zm-.42.58a.32.32 0 01-.34.28.22.22 0 01-.25-.2.28.28 0 010-.09.33.33 0 01.33-.28.22.22 0 01.2.08.27.27 0 01.05.21z" class="cls-5"/><path d="M15.23 15h-.3v.09a.41.41 0 00-.43-.09.69.69 0 00-.67.6.58.58 0 00.11.46.49.49 0 00.38.15.58.58 0 00.41-.17v.14H15a.08.08 0 00.08-.07l.16-1v-.06zm-.41.58a.33.33 0 01-.34.28.22.22 0 01-.2-.08.26.26 0 010-.21.33.33 0 01.34-.28.23.23 0 01.2.08.3.3 0 01.05.21z" class="cls-4"/><path d="M12.38 15h-.3a.08.08 0 00-.07 0l-.41.61-.18-.59a.08.08 0 00-.08-.06H11v.05l.33 1-.31.43a.08.08 0 000 .08h.33a.08.08 0 00.07 0l1-1.44v-.07z" class="cls-5"/><path d="M15.58 14.48l-.25 1.62v.06h.27a.08.08 0 00.08-.07l.25-1.6v-.06h-.29a.06.06 0 00-.06.05zM14 9.9a.44.44 0 010 .1 1.71 1.71 0 01-1.89 1.48h-.48a.24.24 0 00-.23.2l-.24 1.55-.07.45a.12.12 0 00.12.14h.85a.21.21 0 00.2-.18l.16-1v-.06a.2.2 0 01.2-.17h.13a1.5 1.5 0 001.65-1.3 1.1 1.1 0 00-.17-1A.84.84 0 0014 9.9z" class="cls-4"/><path fill="#222d65" d="M13.78 9.81h-.2a2.81 2.81 0 00-.43 0h-1.36a.22.22 0 00-.12.16l-.27 1.72a.24.24 0 01.23-.2h.48A1.71 1.71 0 0014 10a.44.44 0 000-.1.75.75 0 00-.18-.07z"/><path d="M11.67 9.91a.22.22 0 01.12-.16h1.36a2.81 2.81 0 01.43 0h.25a.75.75 0 01.17.15 1.06 1.06 0 00-.21-.9 1.65 1.65 0 00-1.25-.39h-1.63a.24.24 0 00-.23.19L10 13.07a.14.14 0 00.14.16h1l.25-1.6z" class="cls-5"/></g></svg>