<svg xmlns="http://www.w3.org/2000/svg" viewBox="0 0 64 64"><rect x="5" y="13" width="54" height="38" rx="2"/><path d="M57 14a1 1 0 011 1v34a1 1 0 01-1 1H7a1 1 0 01-1-1V15a1 1 0 011-1h50m0-1H7a2 2 0 00-2 2v34a2 2 0 002 2h50a2 2 0 002-2V15a2 2 0 00-2-2z"/><path d="M20.2 40.14h23.6L32 28.29 20.2 40.14zM19.69 39.61l1.82-1.82-.61-.62-1.15 1.16-2.07-2.09-.68.68 2.69 2.69zM20.39 34.63l.46.46.94-.95.55.55-.95.95.59.59 1.17-1.18.54.55-1.85 1.85-2.68-2.69 1.85-1.86.54.55-1.16 1.18M26.44 32.84l-1.83-.52a1.16 1.16 0 00-.25-1.32 1.1 1.1 0 00-1.54.08l-1.35 1.36 2.68 2.7.69-.69-2.18-2.19.44-.43a.48.48 0 11.69.68l-.4.4 2.32.67zM25.19 28.59a1.81 1.81 0 012.72 0 1.92 1.92 0 11-2.72 0zm.52.53c-.42.43-.27 1 .24 1.48s1 .66 1.46.23.29-.94-.24-1.47-1.03-.66-1.46-.24zM28.74 27.18l-.5-1.53.78-.8.68 2.61 1.05 1.05-.69.69-1.05-1.05-2.49-.79.75-.76 1.44.56.03.02zM41.14 36.42l2.69-2.68-.73-.73-2.69 2.7.73.71zM30.89 26.15l2.09-1-1.54 1.54.61.62 2.69-2.68-.85-.87-2.03.99 1.02-2-.88-.89-2.69 2.7.63.63 1.54-1.55-1 2.1.41.41zM35.54 26.52l-.45.47 1.02 1.03-.55.55-1.02-1.03-.59.59 1.25 1.25-.54.55-1.93-1.94 2.68-2.7 1.93 1.95-.54.55-1.26-1.27M38.08 33.36l1.82 1.84.61-.61-1.13-1.15 2.07-2.09-.69-.67-2.68 2.68zM45.38 35.29l-.87 2.86 1.85-1.86.64.63-2.69 2.71-.83-.86.73-2.93v-.01l-1.83 1.84-.63-.62 2.69-2.7.94.94zM37.62 32.91l.53-1.83a1.15 1.15 0 001.31-.27 1.1 1.1 0 00-.07-1.54l-1.45-1.45-2.68 2.7.68.69L38.11 29l.53.53a.49.49 0 01-.64.74v-.05l-.49-.49-.56 2.41z"/></svg>