<svg xmlns="http://www.w3.org/2000/svg" viewBox="0 0 64 64">
    
  <path fill="#fff" d="M8.15 50.5h47.7a2.648 2.648 0 0 0 2.65-2.642V16.143a2.648 2.648 0 0 0-2.65-2.643H8.15a2.647 2.647 0 0 0-2.65 2.642v31.716A2.647 2.647 0 0 0 8.15 50.5Z"/>
  <path fill="#78BE20" d="M14.435 16.625 18.815 21a1.5 1.5 0 0 1-1.065 2.565H9A1.5 1.5 0 0 1 7.935 21l4.38-4.375a1.5 1.5 0 0 1 2.12 0Z"/>
  <path fill="#EAF3E2" d="M55.962 13.375H21.25v37.25h34.712c1.47 0 2.662-1.19 2.663-2.66v-31.93a2.66 2.66 0 0 0-2.663-2.66Z"/>
  <path fill="#DDD" d="M21.25 50.625H8.262a2.885 2.885 0 0 1-2.887-2.875v-31.5a2.885 2.885 0 0 1 2.887-2.875H21.25v.5H8.262a2.383 2.383 0 0 0-2.387 2.375v31.5a2.383 2.383 0 0 0 2.387 2.375H21.25v.5Z"/>
  <path fill="#CBE3B5" d="M55.75 50.625h-34.5v-.5h34.5a2.383 2.383 0 0 0 2.388-2.375v-31.5a2.383 2.383 0 0 0-2.388-2.375h-34.5v-.5h34.5a2.885 2.885 0 0 1 2.875 2.875v31.5a2.885 2.885 0 0 1-2.875 2.875Z"/>
  <path fill="#78BE20" fill-rule="evenodd" d="M48.438 26.25h-2.023a4 4 0 0 0-6.477-4.62 4 4 0 0 0-6.478 4.62h-2.023a1.5 1.5 0 0 0-1.5 1.5v14a1.5 1.5 0 0 0 1.5 1.5h17a1.5 1.5 0 0 0 1.5-1.5v-14a1.5 1.5 0 0 0-1.5-1.5Zm-.5 7.5h-7.08v-5.5h7.08v5.5Zm-4.983-11.5a2 2 0 0 0-2 2v2h2a2 2 0 1 0 0-4Zm-8.035 2a2 2 0 1 1 4 0v2h-2a2 2 0 0 1-2-2Zm3.938 4h-6.92v5.5h6.92v-5.5Zm-6.92 7.5h6.92v5.5h-6.92v-5.5Zm8.92 0v5.5h7.08v-5.5h-7.08Z"/>
</svg>
