<svg xmlns="http://www.w3.org/2000/svg" viewBox="0 0 64 64"><defs><linearGradient id="Dégradé_sans_nom_16" x1="2682.55" y1="-1962.5" x2="2636.22" y2="-2009.01" gradientTransform="matrix(-1.14 0 0 .79 3060.72 1609.36)" gradientUnits="userSpaceOnUse"><stop offset="0" stop-color="#fff"/><stop offset=".53" stop-color="#f1fdfe"/><stop offset="1" stop-color="#ecfcfd"/></linearGradient><style>.cls-3{fill:#b7eef5}</style></defs><g id="Icon"><rect x="5" y="13" width="54" height="38" rx="2" fill="url(#Dégradé_sans_nom_16)"/><path class="cls-3" d="M57 14a1 1 0 011 1v34a1 1 0 01-1 1H7a1 1 0 01-1-1V15a1 1 0 011-1h50m0-1H7a2 2 0 00-2 2v34a2 2 0 002 2h50a2 2 0 002-2V15a2 2 0 00-2-2z"/><rect class="cls-3" x="13" y="36" width="16" height="9" rx="1"/><path d="M34 45a1.07 1.07 0 01-.35-.06 1 1 0 01-.59-1.29C35.92 36 37.38 36 37.92 36s1.71 0 4 5.51c2.08-4.11 2.67-4.11 3.2-4.11s1.24 0 3.9 5.6h2a1 1 0 010 2h-2.64a1 1 0 01-.9-.58c-.77-1.65-1.75-3.53-2.36-4.52a49.57 49.57 0 00-2.37 4.52 1 1 0 01-.94.58 1 1 0 01-.9-.65 28.26 28.26 0 00-3-6.18 28.35 28.35 0 00-3 6.18A1 1 0 0134 45z" fill="#25a8d0"/><path d="M50 27H31.91l3-3H50a1 1 0 000-2H36.91l.8-.79a1 1 0 00-1.42-1.42L34.09 22H14a1 1 0 000 2h18.09l-3 3H14a1 1 0 000 2h13.09l-.8.79a1 1 0 000 1.42 1 1 0 001.42 0l2.2-2.21H50a1 1 0 000-2z" fill="#84dbeb"/></g></svg>