<svg xmlns="http://www.w3.org/2000/svg" viewBox="0 0 64 64"><defs><radialGradient id="Dégradé_sans_nom_17" cx="31.69" cy="-393.79" r="18.69" gradientTransform="matrix(1 0 0 .13 0 94.27)" gradientUnits="userSpaceOnUse"><stop offset="0" stop-color="#7f4413"/><stop offset="0.24" stop-color="#7f4413" stop-opacity="0.71"/><stop offset="0.58" stop-color="#7f4413" stop-opacity="0.33"/><stop offset="0.85" stop-color="#7f4413" stop-opacity="0.09"/><stop offset="1" stop-color="#7f4413" stop-opacity="0"/></radialGradient><style>.cls-2{fill:#ecaa3a}.cls-5{fill:#fff}.cls-7{fill:#b9cd5c}</style></defs><g id="Icon"><rect width="54" height="38" x="5" y="13" class="cls-2" rx="2"/><ellipse cx="31.69" cy="41.76" fill="url(#Dégradé_sans_nom_17)" opacity=".3" rx="18.69" ry="2.49"/><path fill="#111116" d="M13.49 40H42.4a8.26 8.26 0 008.14-6.7A8.25 8.25 0 0044 23.7a9.14 9.14 0 00-1.56-.14H21.56a8.24 8.24 0 00-8 6.17 8.64 8.64 0 00-.26 2v8.2c.01.07 0 .07.19.07z"/><path d="M21.54 23.56h20.91a8.93 8.93 0 011.55.14 8.25 8.25 0 016.54 9.64 8.26 8.26 0 01-8 6.7h-29c-.19 0-.18 0-.18-.15v-8.2a8.64 8.64 0 01.26-2 8.23 8.23 0 018-6.17m0-.31a8.55 8.55 0 00-8.27 6.4 8.71 8.71 0 00-.27 2v8.23a.42.42 0 00.11.32.48.48 0 00.38.11h29a8.6 8.6 0 008.36-7 8.55 8.55 0 00-8.4-10.15H21.54z" class="cls-5"/><path d="M30.83 33.85a.31.31 0 00-.42.07.85.85 0 00-.14.19 1.25 1.25 0 01-1 .62 2 2 0 01-1-.07 1.23 1.23 0 01-.88-1.07 1.5 1.5 0 011.29-1.72 1.45 1.45 0 011.3.38l.3.27a.29.29 0 00.46 0 .35.35 0 00.12-.5 1.58 1.58 0 00-.29-.34 2.57 2.57 0 00-1.31-.68 2.3 2.3 0 00-1 .1 2.54 2.54 0 00-1.38 1.05 2 2 0 00-.34 1.23 2.08 2.08 0 00.15.78 2 2 0 001.68 1.35 3.14 3.14 0 001.58-.15 1.74 1.74 0 001-.88l.08-.17a.37.37 0 00-.1-.4z" class="cls-5"/><path d="M25.14 28.54a.8.8 0 00-1 .79v.2a.56.56 0 000 .12.78.78 0 001 .46h.06a.71.71 0 00.45-.91c-.02-.33-.03-.51-.51-.66zM24.94 31.07a.44.44 0 00-.51.29 2.21 2.21 0 00-.13.67v3.09a.3.3 0 00.12.25.74.74 0 00.54.16.33.33 0 00.3-.35v-.31a15.86 15.86 0 010-2.18l.07-1.15a.42.42 0 00-.39-.47z" class="cls-2"/><path fill="#d35d91" d="M20.26 27.4a.45.45 0 00-.61.32 3 3 0 00-.15.72c0 .16 0 .33-.06.49-.1 1-.15 2.09-.15 3.14v1.88a5.29 5.29 0 00.15 1 1.71 1.71 0 00.09.3.51.51 0 00.46.3.65.65 0 00.24 0 .28.28 0 00.23-.33c0-.32-.08-.64-.1-1s-.06-.67-.08-1c-.05-.9-.07-1.81 0-2.7 0-.55.07-1.1.13-1.64 0-.28.05-.56.1-.83a.66.66 0 000-.28.33.33 0 00-.25-.37z"/><path d="M18 31.46a.49.49 0 00-.33-.38.63.63 0 00-.57.15.36.36 0 00-.09.24c0 .57 0 1.15.06 1.71v1.87c0 .37.15.49.52.47h.09a.34.34 0 00.34-.39c.05-1 0-2.1 0-3.16a2.16 2.16 0 00-.02-.51zM17.37 28.5a.89.89 0 00-.78.9.83.83 0 00.83.75.78.78 0 00.78-.85.84.84 0 00-.83-.8z" class="cls-7"/><path fill="#9779ab" d="M22.89 28.62l.11-.9a.26.26 0 00-.19-.31.72.72 0 00-.52 0 .42.42 0 00-.22.28 3.42 3.42 0 00-.15.65c-.1.73-.17 1.48-.2 2.23v2.44a13.28 13.28 0 00.17 1.89 1.82 1.82 0 00.07.25c0 .06.06.12.08.17.12.25.73.23.84 0a.53.53 0 00.07-.35c0-.28-.06-.41-.08-.84s-.07-.88-.09-1.31c-.05-.8 0-1.61 0-2.42a14.1 14.1 0 01.11-1.78z"/><path d="M41.41 33.45c0-.31 0-.62-.07-.93 0-.73-.07-1.46 0-2.18s.06-1.45.13-2.17a1.64 1.64 0 000-.54c0-.21-.1-.27-.31-.26H41a.58.58 0 00-.43.51c-.06 1.09-.11 2.17-.08 3.25v.1a1.63 1.63 0 00-.53-.16 2.35 2.35 0 00-2 .59 1.84 1.84 0 00-.54 1 2.78 2.78 0 000 1.64 1.79 1.79 0 001.31 1.24 2 2 0 001.58-.28c.15-.1.39-.35.44-.33s0 0 0 .08a2 2 0 00.12.34.38.38 0 00.14.14.49.49 0 00.56-.19.23.23 0 000-.2c.01-.57-.09-1.1-.16-1.65zm-.88.06a1.2 1.2 0 01-2.4.1 2.42 2.42 0 01.12-1 1.15 1.15 0 01.89-.74l.4-.05h.19a.8.8 0 01.67.47l.09.24a2.91 2.91 0 01.04.98zM46.63 32.13a2.07 2.07 0 00-1.8-1.13 2.49 2.49 0 00-1.11.2 2.19 2.19 0 00-1.28 1.61 2.91 2.91 0 000 1.14 2.25 2.25 0 001.7 1.61 2.36 2.36 0 00.46 0 2.25 2.25 0 002.14-1.26v-.1a2.16 2.16 0 00.16-1.2 2.8 2.8 0 00-.27-.87zm-.55 1.53a1.21 1.21 0 01-.54.84 1.43 1.43 0 01-.88.28 1.41 1.41 0 01-1.47-1.05 1.83 1.83 0 010-.84 1.25 1.25 0 01.87-1 2.27 2.27 0 01.73-.11 1.23 1.23 0 011.19.87 2 2 0 01.1 1.01zM36.39 33.28v-1.74c0-.22-.07-.3-.3-.3a.62.62 0 00-.32.09.24.24 0 01-.27 0l-.2-.08a2.73 2.73 0 00-2.57.31 2.42 2.42 0 00-.87 1.6 2.11 2.11 0 00.05.83 2.16 2.16 0 001.62 1.53 2.51 2.51 0 001.93-.41l.27-.19a2.92 2.92 0 00.14.31.36.36 0 00.55.2.35.35 0 00.24-.46 10.77 10.77 0 01-.27-1.69zm-.79.26a.91.91 0 01-.31.76 2 2 0 01-.85.46 1.53 1.53 0 01-1.44-.42 1.35 1.35 0 01-.31-.59 1.57 1.57 0 011-1.82 2 2 0 011 0 .89.89 0 01.81.84 2.47 2.47 0 010 .61z" class="cls-5"/></g></svg>