<svg xmlns="http://www.w3.org/2000/svg" viewBox="0 0 24 24" aria-hidden="true"><defs><radialGradient id="Dégradé_sans_nom_17" cx="12" cy="-458.87" r="7.5" gradientTransform="matrix(1 0 0 .13 0 76.93)" gradientUnits="userSpaceOnUse"><stop offset="0" stop-color="#7f4413"/><stop offset="0.24" stop-color="#7f4413" stop-opacity="0.71"/><stop offset="0.58" stop-color="#7f4413" stop-opacity="0.33"/><stop offset="0.85" stop-color="#7f4413" stop-opacity="0.09"/><stop offset="1" stop-color="#7f4413" stop-opacity="0"/></radialGradient><style>.cls-2{fill:#ecaa3a}.cls-5{fill:#fff}.cls-8{fill:#b9cd5c}</style></defs><g id="Icon"><rect width="20" height="14" x="2" y="5" class="cls-2" rx="1"/><ellipse cx="12" cy="15.75" fill="url(#Dégradé_sans_nom_17)" opacity=".3" rx="7.5" ry="1"/><path fill="#111116" d="M5.07 15.09H15.9a3 3 0 001.65-.48 3 3 0 001.39-2A3.08 3.08 0 0016.49 9a2.78 2.78 0 00-.58-.06H8.09A3.09 3.09 0 005 12v3c0 .09 0 .09.07.09z"/><path d="M8.08 8.91h7.83a2.78 2.78 0 01.58.06 3.08 3.08 0 012.45 3.61 3 3 0 01-1.39 2 3 3 0 01-1.62.48H5.07C5 15.09 5 15.09 5 15v-3a3.09 3.09 0 013.08-3.09m0-.12A3.2 3.2 0 005 11.19a2.86 2.86 0 00-.1.77V15a.14.14 0 000 .14.19.19 0 00.15 0h10.88a3.21 3.21 0 003.14-2.61 3.22 3.22 0 00-2.55-3.76 4.07 4.07 0 00-.61-.05H8.08z" class="cls-5"/><path d="M13.64 12.55v-.65c0-.08 0-.11-.11-.11a.21.21 0 00-.12 0 .11.11 0 01-.11 0h-.07a1 1 0 00-1 .12.91.91 0 00-.33.6.65.65 0 000 .31.79.79 0 00.61.57.93.93 0 00.72-.15l.1-.07v.12a.14.14 0 00.21.07c.08 0 .11-.08.09-.17a4.49 4.49 0 01.01-.64zm-.29.1a.36.36 0 01-.12.29.79.79 0 01-.31.17.59.59 0 01-.55-.16.48.48 0 01-.12-.22.58.58 0 01.39-.68A.74.74 0 0113 12a.35.35 0 01.31.32 1.69 1.69 0 010 .23zM11.56 12.77a.11.11 0 00-.16 0l-.05.07a.47.47 0 01-.36.23.86.86 0 01-.39 0 .45.45 0 01-.32-.4.55.55 0 01.48-.64.52.52 0 01.49.14l.11.1a.12.12 0 00.17 0c.07-.06.09-.11.05-.19a.43.43 0 00-.11-.12 1 1 0 00-.5-.25.78.78 0 00-.37 0 .93.93 0 00-.52.39.77.77 0 00-.13.46.83.83 0 00.69.8 1.31 1.31 0 00.59-.05.69.69 0 00.39-.34v-.06a.13.13 0 000-.15z" class="cls-5"/><path fill="#d35d91" d="M7.6 10.35a.16.16 0 00-.22.12 1.31 1.31 0 00-.06.27v.18a11.81 11.81 0 00-.06 1.18v.62a.19.19 0 010 .08 2.2 2.2 0 00.06.37v.11a.18.18 0 00.17.11h.1a.11.11 0 00.09-.13v-.74a8.53 8.53 0 010-1v-.61V10.49a.13.13 0 00-.08-.14z"/><path fill="#9779ab" d="M8.59 10.81v-.34a.11.11 0 00-.07-.12.34.34 0 00-.2 0 .15.15 0 00-.08.11 1.05 1.05 0 00-.06.24c0 .28-.06.56-.07.83V12.43a4.25 4.25 0 00.06.71v.09a.43.43 0 000 .07c0 .09.27.08.31 0a.28.28 0 000-.13 2 2 0 010-.32v-.49-.9a5.34 5.34 0 01.11-.65z"/><path d="M9.43 10.78a.3.3 0 00-.37.29v.08a.3.3 0 00.38.17.27.27 0 00.21-.32c-.03-.1-.04-.16-.22-.22zM9.35 11.73a.16.16 0 00-.19.1 1.17 1.17 0 000 .26v1.15a.13.13 0 000 .1.36.36 0 00.2.06.14.14 0 00.12-.13v-.12a5.61 5.61 0 010-.82v-.43a.15.15 0 00-.13-.17z" class="cls-2"/><path d="M6.52 10.77a.32.32 0 00-.29.33.31.31 0 00.31.28.29.29 0 00.29-.32.31.31 0 00-.31-.29zM6.63 11.73a.21.21 0 00-.21.06.12.12 0 000 .09V13.22c0 .14.06.18.19.17.09 0 .12-.05.12-.14v-1.19a.63.63 0 000-.19.17.17 0 00-.1-.14z" class="cls-8"/><path d="M17.48 12.12a.79.79 0 00-.67-.42 1 1 0 00-.42.08.82.82 0 00-.48.6 1 1 0 000 .43.82.82 0 00.63.6h.17a.84.84 0 00.57-.19.76.76 0 00.24-.29.72.72 0 00.06-.46 1 1 0 00-.1-.35zm-.21.58a.41.41 0 01-.2.31.52.52 0 01-.33.11.53.53 0 01-.55-.4.65.65 0 010-.31.48.48 0 01.32-.37 1.26 1.26 0 01.27 0 .46.46 0 01.45.33.77.77 0 01.04.33zM15.52 12.62v-.35a7.48 7.48 0 010-.82v-.81a1.34 1.34 0 000-.2c0-.08 0-.1-.12-.1h-.07a.2.2 0 00-.16.19v1.22a.6.6 0 00-.19-.06.86.86 0 00-.73.22.57.57 0 00-.2.36 1 1 0 000 .62.69.69 0 00.49.46.79.79 0 00.6-.1s.14-.14.16-.13 0 .09 0 .13h.05a.19.19 0 00.21-.07.08.08 0 000-.08c.03-.1-.01-.28-.04-.48zm-.32 0a.44.44 0 01-.32.42.43.43 0 01-.58-.38.87.87 0 010-.36.43.43 0 01.33-.28h.22a.3.3 0 01.26.17v.09a1.37 1.37 0 01.09.36z" class="cls-5"/></g></svg>