<svg xmlns="http://www.w3.org/2000/svg" viewBox="0 0 64 64"><rect x="5" y="13" width="54" height="38" rx="2"/><path d="M48 35v-.3h-.13v-.07h.33v.07h-.1v.3zm.62 0v-.26l-.08.21h-.1l-.08-.21V35h-.09v-.37h.13l.1.23.08-.23h.13V35zM13 28h1.36v.45h.05a2.85 2.85 0 011.48-.55 5.23 5.23 0 011.53.08A2.14 2.14 0 0119 29.7a7.53 7.53 0 01.15 2.3 5.83 5.83 0 01-.15 1.31A2.14 2.14 0 0117.06 35c-.59.08-1.17.07-1.77.1v-1.4h.59a6.51 6.51 0 00.76-.07.85.85 0 00.72-.66 4 4 0 00.13-.76 9.09 9.09 0 000-2c0-.11-.05-.23-.08-.35a.87.87 0 00-.69-.61 2.79 2.79 0 00-1.22 0 1 1 0 00-.76 1 3.91 3.91 0 000 .49v6.73h-1.58c-.12 0-.15 0-.15-.14v-.68z"/><path d="M42.82 23.6v8.89a4.57 4.57 0 00.12 1 1.82 1.82 0 001.39 1.38 5.57 5.57 0 002.81 0 2.25 2.25 0 001.69-1.81 7.74 7.74 0 000-3.25 2.13 2.13 0 00-2-1.8c-.54-.07-1.09 0-1.65-.06h-.06v1.37h1.17a1 1 0 011 .89 8 8 0 010 2.49 1 1 0 01-1 .92 4.31 4.31 0 01-1 0c-.5-.07-.73-.37-.77-.93a2.68 2.68 0 010-.4v-8.5a8.24 8.24 0 015.48 4.4 8.1 8.1 0 01-.7 8.81 8.24 8.24 0 01-7.54 3.36V30.5H40V40a8.32 8.32 0 01-5.47-5.46 8.48 8.48 0 011.51-7.94v6.49a4.49 4.49 0 00.06.73A1.29 1.29 0 0037.27 35a7.67 7.67 0 001.73.08v-1.45h-.88c-.22 0-.3-.08-.31-.29s0-.29 0-.44v-7.61A.34.34 0 0138 25a8.42 8.42 0 014.75-1.36zm-2.91 5.34a.83.83 0 00.67.92 1.56 1.56 0 00.53 0 .8.8 0 00.76-.78v-.28a.83.83 0 00-.69-.78 1.82 1.82 0 00-.4 0 .83.83 0 00-.87.94zM26.9 28h1.65V32.55a3.6 3.6 0 000 .56.61.61 0 00.43.48 2.46 2.46 0 001.54 0A.64.64 0 0031 33a4 4 0 000-.48V28h1.62v7.7a3.92 3.92 0 01-.08.76 1.2 1.2 0 01-1 1 9.89 9.89 0 01-1.74.09v-1.4h.9a.28.28 0 00.27-.26V35l-1.14.08a4.2 4.2 0 01-1.65-.22 1.91 1.91 0 01-1.33-1.76v-.78-4.11zM26 28v7.07h-1.65v-.35a4.92 4.92 0 01-.6.23 4 4 0 01-2.27-.06A2.1 2.1 0 0120 33.16a6.28 6.28 0 01-.14-1.06 9.08 9.08 0 01.14-2.33 2.19 2.19 0 012.17-1.88 5.44 5.44 0 011.43.11 2.6 2.6 0 011 .49V28zm-1.64 3.45v-.57-.57a1 1 0 00-.89-1 7.85 7.85 0 00-1 0 .93.93 0 00-.86.72c0 .13-.06.26-.08.38v1.89a3 3 0 00.14.79.84.84 0 00.73.64 4.3 4.3 0 00.95 0 1.07 1.07 0 001-1.16z"/></svg>