<svg xmlns="http://www.w3.org/2000/svg" viewBox="0 0 24 24">
    
  <path fill="#fff" d="M2.125 5.875a1 1 0 0 1 1-1h17.75a1 1 0 0 1 1 1v11.75a1 1 0 0 1-1 1H3.125a1 1 0 0 1-1-1V5.875Z"/>
  <path fill="#EAF3E2" d="M20.875 4.875H8v13.75h12.875a1 1 0 0 0 1-1V5.875a1 1 0 0 0-1-1Z"/>
  <path fill="#CBE3B5" d="M20.875 18.75H8v-.25h12.875a.875.875 0 0 0 .875-.875V5.875A.875.875 0 0 0 20.875 5H8v-.25h12.875c.62.001 1.124.504 1.125 1.125v11.75a1.127 1.127 0 0 1-1.125 1.125Z"/>
  <path fill="#DDD" d="M8 18.75H3.125A1.127 1.127 0 0 1 2 17.625V5.875A1.127 1.127 0 0 1 3.125 4.75H8V5H3.125a.875.875 0 0 0-.875.875v11.75c0 .483.392.875.875.875H8v.25Z"/>
  <path fill="#78BE20" d="m5.478 6.25 1.795 1.793a.5.5 0 0 1-.355.855H3.332a.5.5 0 0 1-.354-.855L4.771 6.25a.5.5 0 0 1 .705 0Z"/>
  <path fill="#78BE20" fill-rule="evenodd" d="M18.438 9.555h-.658a1.68 1.68 0 1 0-2.843-1.785 1.68 1.68 0 1 0-2.842 1.785h-.658a.5.5 0 0 0-.5.5v6a.5.5 0 0 0 .5.5h7a.5.5 0 0 0 .5-.5v-6a.5.5 0 0 0-.5-.5Zm-.25 3.125h-2.875v-2.375h2.874v2.375Zm-1.805-4.985a.93.93 0 0 0-.93.93v.93h.93a.93.93 0 0 0 0-1.86Zm-3.82.93a.93.93 0 0 1 1.86 0v.93H13.5a.933.933 0 0 1-.938-.93Zm2.007 1.68h-2.883v2.375h2.883v-2.375Zm-2.875 3.125h2.875v2.375h-2.883l.008-2.375Zm3.625 0v2.375h2.875V13.43H15.32Z"/>
</svg>
