<svg xmlns="http://www.w3.org/2000/svg" viewBox="0 0 64 64">
    
  <path fill="#81BC00" d="M8.037 50.625h47.925a2.66 2.66 0 0 0 2.663-2.66v-31.93a2.66 2.66 0 0 0-2.663-2.66H8.038a2.66 2.66 0 0 0-2.662 2.66v31.93a2.66 2.66 0 0 0 2.662 2.66Z"/>
  <path fill="#fff" fill-rule="evenodd" d="M37.853 27.427c-.095-.01-.189-.02-.283-.032l-.12-.003c-.055.018-.108.018-.163.018-.8.029-1.577.273-2.25.707a4.75 4.75 0 0 0-2.042 5c.485 2.328 2.72 4.198 5.398 3.666a4.625 4.625 0 0 0 3.164-2.11 3.37 3.37 0 0 0 .146-.251c.028-.053.057-.105.087-.157l-.063-.02H39.99a.198.198 0 0 0-.125.06c-.58.598-1.373.94-2.205.95a2.97 2.97 0 0 1-3-2.393.328.328 0 0 1 0-.07h7.398a5.93 5.93 0 0 0-.026-1.532 4.627 4.627 0 0 0-3.58-3.75 6.273 6.273 0 0 0-.6-.083Zm2.414 3.85h-5.562a2.872 2.872 0 0 1 2.968-2.25c1.222.06 2.572 1.215 2.594 2.25Zm-21.973-3.849a7.34 7.34 0 0 1-.214-.033l-.675.003-.234.035a4.662 4.662 0 0 0-4.143 4.215.9.9 0 0 1-.026.112v.75a.568.568 0 0 0 .013.055c.007.029.015.058.015.088.064.409.16.813.288 1.207.767 1.91 2.22 2.932 4.267 3.028a4.455 4.455 0 0 0 3.75-1.638 4.77 4.77 0 0 0-2.555-7.74 8.958 8.958 0 0 0-.486-.082Zm2.49 4.511.024.206a3.133 3.133 0 0 1-2.625 3.105 3.062 3.062 0 0 1-3.413-2.315 3.135 3.135 0 0 1 1.925-3.733 3.05 3.05 0 0 1 4.027 2.28c.03.15.046.304.063.457Z"/>
  <path fill="#fff" d="M44.227 39.608c.45-1.099.899-2.197 1.346-3.295a.277.277 0 0 0 0-.18c-1.215-2.91-2.434-5.82-3.656-8.73h1.9a.83.83 0 0 0 .018.067l2.637 6.465c0 .023.023.042.045.085.03-.068.05-.113.068-.158.333-.815.667-1.624 1-2.427.547-1.345 1.095-2.69 1.645-4.032H51a3.47 3.47 0 0 1-.042.152l-3.563 8.685a959.81 959.81 0 0 1-1.388 3.375l-1.78-.008ZM28.093 27.395c.237.038.482.06.715.12 1.5.387 2.57 1.25 2.974 2.81.094.39.14.79.136 1.19.015 1.75 0 3.487 0 5.23v.123h-1.72v-5.175c0-.371-.04-.74-.12-1.103a1.955 1.955 0 0 0-1.595-1.55 3.581 3.581 0 0 0-1.563 0 2.03 2.03 0 0 0-1.675 1.773 5.65 5.65 0 0 0-.073.917v5.135h-1.704c0-.028 0-.055-.013-.083v-5.48a3.668 3.668 0 0 1 1.313-2.895 4.203 4.203 0 0 1 2.354-1l.158-.027.813.015Z"/>
</svg>
