<svg xmlns="http://www.w3.org/2000/svg" viewBox="0 0 48 48"><path fill="url(#a)" d="M4.125 12.125a2 2 0 012-2h35.75a2 2 0 012 2v23.75a2 2 0 01-2 2H6.125a2 2 0 01-2-2v-23.75z"/><path fill="#DDD" fill-rule="evenodd" d="M6 10h36a2 2 0 012 2v24a2 2 0 01-2 2H6a2 2 0 01-2-2V12a2 2 0 012-2zm37.75 2A1.75 1.75 0 0042 10.25H6A1.75 1.75 0 004.25 12v24c0 .967.784 1.75 1.75 1.75h36A1.75 1.75 0 0043.75 36V12z"/><path fill="#179BD7" fill-rule="evenodd" d="M25.817 28.59h1.478c.495 0 .867.13 1.072.38.202.274.272.624.19.955-.147.927-.71 1.4-1.682 1.4h-.468a.205.205 0 00-.2.172l-.167 1.073a.147.147 0 01-.143.122h-.777a.125.125 0 01-.103-.142l.6-3.788c.013-.1.1-.174.2-.172zm.77 1.912c.392 0 .797 0 .877-.53v-.01a.468.468 0 00-.072-.41c-.13-.15-.383-.15-.65-.15h-.1a.122.122 0 00-.12.1l-.158 1h.223z"/><path fill="#253B80" fill-rule="evenodd" d="M15.28 28.59h1.47c.5 0 .875.13 1.085.382.202.275.272.625.19.955-.147.928-.71 1.4-1.682 1.4h-.468a.2.2 0 00-.2.173l-.168 1.02a.205.205 0 01-.2.172h-.725a.125.125 0 01-.102-.142l.6-3.788a.203.203 0 01.2-.172zm.77 1.91c.392 0 .797 0 .87-.528l.007-.012a.465.465 0 00-.075-.41c-.13-.15-.38-.15-.647-.15h-.1a.123.123 0 00-.12.1l-.158 1h.223zm4.418-.545h.707l.015-.003a.12.12 0 01.1.143l-.382 2.42a.202.202 0 01-.2.175h-.655a.125.125 0 01-.105-.14l.032-.2a1.36 1.36 0 01-.98.4 1.1 1.1 0 01-.897-.358 1.327 1.327 0 01-.25-1.087c.1-.8.771-1.405 1.577-1.423.338 0 .683.078.838.3l.047.073.033-.2c.01-.058.061-.1.12-.1zm-1.078 2.053c.4.01.743-.28.8-.676l-.002-.012a.608.608 0 00-.12-.5.587.587 0 00-.47-.192.792.792 0 00-.795.68.537.537 0 00-.015.2.548.548 0 00.602.5z"/><path fill="#179BD7" fill-rule="evenodd" d="M31 29.955h.733a.123.123 0 01.1.142l-.383 2.42a.207.207 0 01-.2.175h-.672a.125.125 0 01-.105-.14l.032-.2a1.35 1.35 0 01-.977.4 1.105 1.105 0 01-.893-.36 1.335 1.335 0 01-.25-1.087c.102-.8.772-1.404 1.578-1.423.337 0 .682.078.837.3l.048.073.032-.2a.123.123 0 01.12-.1zm-1.075 2.053c.4.01.744-.28.8-.676a.565.565 0 00-.592-.697.792.792 0 00-.793.682c-.04.175 0 .359.11.5.123.13.297.2.475.19z"/><path fill="#253B80" d="M24.943 29.955h-.713a.212.212 0 00-.17.09l-.985 1.455-.415-1.387a.207.207 0 00-.2-.148h-.71a.122.122 0 00-.122.125.18.18 0 000 .038l.785 2.3-.738 1.04a.123.123 0 00.1.192h.725c.067 0 .13-.032.168-.087l2.372-3.413a.125.125 0 00-.03-.172.123.123 0 00-.067-.033z"/><path fill="#179BD7" d="M32.545 28.692l-.607 3.858a.128.128 0 00.105.142h.632a.195.195 0 00.2-.172l.6-3.79a.122.122 0 00-.102-.14h-.7a.125.125 0 00-.128.102zm-3.607-10.517c0 .075-.025.15-.04.227-.5 2.633-2.265 3.54-4.5 3.54H23.25c-.273 0-.506.2-.547.47l-.748 4.75a.29.29 0 00.295.338h2.023a.5.5 0 00.477-.41l.02-.103.38-2.415.025-.132a.5.5 0 01.48-.413h.303c1.957 0 3.5-.795 3.94-3.097.187-.96.09-1.75-.405-2.328a1.933 1.933 0 00-.555-.427z"/><path fill="#222D65" d="M28.4 17.962a2.605 2.605 0 00-.25-.062c-.092-.018-.17-.035-.25-.048a6.305 6.305 0 00-1-.075h-3.047a.485.485 0 00-.48.413l-.648 4.102-.02.12a.555.555 0 01.545-.47h1.14c2.25 0 4-.907 4.5-3.54.015-.077.028-.152.04-.227a2.824 2.824 0 00-.422-.178l-.108-.035z"/><path fill="#253B80" d="M23.373 18.19a.48.48 0 01.27-.363.467.467 0 01.21-.05h3.044c.335-.001.67.024 1 .075.088 0 .173.03.25.048l.25.063.115.034c.146.048.287.108.423.178.152-.973 0-1.633-.528-2.232-.58-.66-1.625-.943-2.962-.943H21.56c-.273 0-.506.2-.548.47l-1.617 10.25a.332.332 0 00.327.385h2.4l.603-3.813.648-4.102z"/><defs><linearGradient id="a" x1="24.494" x2="49.968" y1="53.161" y2="16.894" gradientUnits="userSpaceOnUse"><stop stop-color="#fff"/><stop offset=".4" stop-color="#F9F9F9"/><stop offset=".93" stop-color="#E9E9E9"/><stop offset="1" stop-color="#E6E6E6"/></linearGradient></defs></svg>