<svg xmlns="http://www.w3.org/2000/svg" viewBox="0 0 32 32" aria-hidden="true"><defs><style>.cls-6{fill:#78be20}</style></defs><g id="Icon"><rect width="25.5" height="17.5" x="3.25" y="7.25" fill="#fff" rx="1.75"/><path fill="#d3d2d6" d="M27 25H5a2 2 0 01-2-2V9a2 2 0 012-2h22a2 2 0 012 2v14a2 2 0 01-2 2zM5 7.5A1.5 1.5 0 003.5 9v14A1.5 1.5 0 005 24.5h22a1.5 1.5 0 001.5-1.5V9A1.5 1.5 0 0027 7.5z"/><path fill="#eaf3e2" d="M11 24.75h16A1.75 1.75 0 0028.75 23V9A1.75 1.75 0 0027 7.25H11"/><path fill="#add585" d="M27 25H11v-.5h16a1.5 1.5 0 001.5-1.5V9A1.5 1.5 0 0027 7.5H11V7h16a2 2 0 012 2v14a2 2 0 01-2 2z"/><path d="M7.66 8.78L9.85 11a.75.75 0 01-.53 1.28H5A.75.75 0 014.41 11L6.6 8.78a.75.75 0 011.06 0zM24.5 13h-.88A2.24 2.24 0 0020 10.35 2.25 2.25 0 0016.38 13h-.88a.5.5 0 00-.5.5v8a.5.5 0 00.5.5h9a.5.5 0 00.5-.5v-8a.5.5 0 00-.5-.5zm-.5 4h-3.5v-3H24zm-2.25-6.5a1.25 1.25 0 010 2.5H20.5v-1.25a1.25 1.25 0 011.25-1.25zM17 11.75a1.25 1.25 0 012.5 0V13h-1.25A1.25 1.25 0 0117 11.75zM18.25 14h1.25v3H16v-3zM16 18h3.5v3H16zm4.5 3v-3H24v3z" class="cls-6"/></g></svg>