<svg xmlns="http://www.w3.org/2000/svg" viewBox="0 0 48 48" aria-hidden="true"><defs><linearGradient id="Dégradé_sans_nom_16" x1="2292.74" x2="2258.82" y1="-1976.73" y2="-2010.78" gradientTransform="matrix(-1.14 0 0 .79 2615.83 1607.72)" gradientUnits="userSpaceOnUse"><stop offset="0" stop-color="#fff"/><stop offset="0.53" stop-color="#f1fdfe"/><stop offset="1" stop-color="#ecfcfd"/></linearGradient><style>.cls-3{fill:#b7eef5}</style></defs><g id="Icon"><rect width="40" height="28" x="4" y="10" fill="url(#Dégradé_sans_nom_16)" rx="2"/><path d="M42 11a1 1 0 011 1v24a1 1 0 01-1 1H6a1 1 0 01-1-1V12a1 1 0 011-1h36m0-1H6a2 2 0 00-2 2v24a2 2 0 002 2h36a2 2 0 002-2V12a2 2 0 00-2-2z" class="cls-3"/><path fill="#84dbeb" d="M37 20H24.41l2-2H37a1 1 0 000-2h-8.59l.8-.79a1 1 0 00-1.42-1.42L25.59 16H11a1 1 0 000 2h12.59l-2 2H11a1 1 0 000 2h8.59l-.8.79a1 1 0 000 1.42 1 1 0 001.42 0l2.2-2.21H37a1 1 0 000-2z"/><rect width="12" height="7" x="10" y="27" class="cls-3" rx="1"/><path fill="#25a8d0" d="M25 34a1 1 0 01-.37-.07 1 1 0 01-.56-1.3C26.32 27 27.5 27 28 27s1.38 0 3.09 3.67C32.57 28 33 28 33.5 28s1.07 0 3.12 4H38a1 1 0 010 2h-2a1 1 0 01-.89-.55c-.51-1-1.15-2.19-1.61-2.92-.46.73-1.1 1.9-1.61 2.92A1 1 0 0131 34a1 1 0 01-.89-.63A23 23 0 0028 29.25a23 23 0 00-2.07 4.12A1 1 0 0125 34zm8-4.16z"/></g></svg>