<svg xmlns="http://www.w3.org/2000/svg" viewBox="0 0 24 24"><rect width="20" height="16" x="2" y="4" fill="#0B4448" rx="1"/><path fill="#fff" fill-rule="evenodd" d="M11.856 7.007a3.509 3.509 0 01-.104-.012l-.028-.018h-.052a1.382 1.382 0 00-.71.223 1.5 1.5 0 00-.645 1.58 1.482 1.482 0 002.705.5.895.895 0 00.043-.076 1.58 1.58 0 01.03-.052h-.569a.075.075 0 00-.04.02.98.98 0 01-.698.3.938.938 0 01-.947-.75V8.7h2.317a1.75 1.75 0 000-.485 1.462 1.462 0 00-1.13-1.185 2.105 2.105 0 00-.173-.023zm.74 1.213h-1.74a.908.908 0 01.923-.713c.385.02.818.385.818.713zm-6.9-1.212l-.09-.013h-.224l-.078.011c-.053.008-.105.015-.155.026a1.475 1.475 0 00-1.147 1.305v.315c.023.13.056.257.1.38.2.573.74.956 1.347.958.456.029.897-.164 1.185-.518a1.5 1.5 0 00-.938-2.464zm.743 1.277a2 2 0 01.028.21 1 1 0 01-.828.985.965.965 0 01-1.077-.728 1 1 0 01.607-1.18.96.96 0 011.27.712z"/><path fill="#fff" d="M13.862 10.852c.145-.347.285-.695.425-1.042a.07.07 0 000-.055c-.384-.92-.768-1.837-1.153-2.75h.6a.07.07 0 000 .022l.833 2.043a.128.128 0 00.015.025.51.51 0 00.02-.048c.105-.25.21-.515.315-.767l.52-1.275h.565a.38.38 0 010 .05l-1.125 2.75-.44 1.065-.575-.018zM8.77 6.995c.074.012.15.017.224.037.46.088.826.436.938.89.03.123.045.25.045.375V9.99h-.543V8.347c0-.117-.012-.235-.037-.35a.615.615 0 00-.5-.487 1.103 1.103 0 00-.5 0 .637.637 0 00-.528.56 1.394 1.394 0 00-.022.287V9.98h-.54a.084.084 0 010-.025V8.222a1.152 1.152 0 01.415-.912c.21-.18.473-.29.75-.313h.05l.247-.002z"/><path fill="#96E51F" d="M18 12l4 3.5V19a1 1 0 01-1 1H9l9-8z"/></svg>