<svg xmlns="http://www.w3.org/2000/svg" viewBox="0 0 24 24">
    
  <path fill="#81BC00" d="M2 5.75a1 1 0 0 1 1-1h18a1 1 0 0 1 1 1v12a1 1 0 0 1-1 1H3a1 1 0 0 1-1-1v-12Z"/>
  <path fill="#fff" fill-rule="evenodd" d="m13.854 10.585-.104-.013-.027-.017h-.053a1.382 1.382 0 0 0-.71.223 1.5 1.5 0 0 0-.645 1.58 1.483 1.483 0 0 0 2.705.5c.015-.023.03-.05.044-.076a1.62 1.62 0 0 1 .028-.052h-.567a.074.074 0 0 0-.04.02.98.98 0 0 1-.697.3.938.938 0 0 1-.948-.75v-.023h2.318a1.75 1.75 0 0 0 0-.484 1.463 1.463 0 0 0-1.13-1.185 2.1 2.1 0 0 0-.174-.024Zm.741 1.212h-1.74a.908.908 0 0 1 .922-.712c.386.02.818.385.818.712Zm-6.901-1.211a1.27 1.27 0 0 1-.089-.014H7.38a3.264 3.264 0 0 1-.078.012A1.475 1.475 0 0 0 6 11.915v.315c.023.13.056.256.1.38.201.572.74.956 1.348.958a1.41 1.41 0 0 0 1.184-.518 1.5 1.5 0 0 0-.938-2.464Zm.744 1.277c.012.069.022.14.027.21a1 1 0 0 1-.827.984.965.965 0 0 1-1.078-.727 1 1 0 0 1 .608-1.18.96.96 0 0 1 1.27.713Z"/>
  <path fill="#fff" d="M15.86 14.43c.145-.348.285-.695.425-1.043a.07.07 0 0 0 0-.055c-.383-.92-.768-1.836-1.152-2.75h.6a.07.07 0 0 0 0 .023l.832 2.043.015.024a.507.507 0 0 0 .02-.047c.105-.25.21-.515.315-.768l.52-1.274H18a.38.38 0 0 1 0 .05l-1.125 2.75-.44 1.065-.575-.018Zm-5.092-3.858c.074.013.15.018.224.038.46.088.826.436.938.89.03.123.045.249.045.375v1.692h-.543v-1.642c0-.118-.012-.235-.037-.35a.615.615 0 0 0-.5-.487 1.102 1.102 0 0 0-.5 0 .638.638 0 0 0-.527.56 1.395 1.395 0 0 0-.023.287v1.622h-.54a.085.085 0 0 1 0-.024V11.8a1.153 1.153 0 0 1 .415-.913c.21-.18.473-.29.75-.312h.05l.248-.002Z"/>
</svg>
