<svg xmlns="http://www.w3.org/2000/svg" viewBox="0 0 64 64" aria-hidden="true"><defs><radialGradient id="radial-gradient" cx="353.09" cy="-2004.16" r="32.77" gradientTransform="matrix(1.54 0 0 -1.08 -528.4 -2140.92)" gradientUnits="userSpaceOnUse"><stop offset="0" stop-color="#9dd5f6"/><stop offset="0.07" stop-color="#98d3f5"/><stop offset="0.16" stop-color="#89cef3"/><stop offset="0.25" stop-color="#70c6ef"/><stop offset="0.35" stop-color="#4ebbea"/><stop offset="0.45" stop-color="#23ade3"/><stop offset="0.5" stop-color="#0da6e0"/><stop offset="1" stop-color="#2e77bc"/></radialGradient><style>.cls-3{fill:#fff}</style></defs><g id="Icon"><rect width="54" height="38" x="5" y="13" fill="url(#radial-gradient)" rx="2"/><path d="M45.5 25.46v.69l-.39-.69h-2.86v.69l-.36-.69H38a3.35 3.35 0 00-1.67.34v-.34h-2.64v.34a1.64 1.64 0 00-1.13-.34h-9.74L22.17 27l-.68-1.5h-3.06v.69l-.35-.69h-2.61l-.05.21-.13.29-1.79 4.2-.5 1.12h3l.38-.92h.88l.38.92H21v-.71l.3.71H23l.3-.72v.72h8.38v-1.54h.16c.12 0 .15 0 .15.2v1.33h4.34V31a3.29 3.29 0 001.6.36h1.83l.39-.94h.87l.38.94h3.51v-.89l.54.89h2.81v-5.9zm-21.44 5V27.2l-1.45 3.28h-.89l-1.45-3.29v3.29h-2.05l-.39-.93h-2.09l-.39.93h-1.08l1.79-4.19h1.5l1.7 4v-4h1.64l1.31 2.85 1.2-2.85h1.68v4.19zm5.13-3.31h-2.36v.74h2.3v.87h-2.3v.83h2.36v.87h-3.35v-4.17h3.35zm4.51 1.72a1.21 1.21 0 01.16.77v.82h-1V30a1.28 1.28 0 00-.15-.82c-.18-.2-.38-.18-.74-.18h-1.09v1.52h-1v-4.23h2.3a2.32 2.32 0 011.21.2 1 1 0 01.51.93 1.14 1.14 0 01-.7 1.11 1.25 1.25 0 01.5.36zm1.81 1.59h-1v-4.17h1zm11.89 0H46l-1.9-3.15v3.15H42l-.39-.93h-2.06l-.38.93H38a1.78 1.78 0 01-2-2.07 2.05 2.05 0 01.54-1.64 1.76 1.76 0 011.53-.48h1v.9h-1a1 1 0 00-.77.25 1.29 1.29 0 00-.29.95 1.49 1.49 0 00.28 1 .81.81 0 00.7.22h.45l1.41-3.3h1.51l1.7 4v-4h1.53l1.76 2.92v-2.92h1z" class="cls-3"/><path d="M32.59 27.24a.85.85 0 00-.47-.07h-1.24v.92h1.23a1 1 0 00.5-.08.46.46 0 00.2-.4.39.39 0 00-.22-.37z" class="cls-3"/><polygon points="39.91 28.67 41.3 28.67 40.61 27 39.91 28.67" class="cls-3"/><polygon points="16.1 28.67 17.48 28.67 16.79 27 16.1 28.67" class="cls-3"/><path d="M32 34.39h-1.3v1.06H32c.39 0 .63-.19.63-.55s-.25-.51-.63-.51z" class="cls-3"/><polygon points="23.26 34.39 23.26 35.15 25.46 35.15 25.46 36 23.26 36 23.26 36.83 25.73 36.83 26.87 35.61 25.78 34.39 23.26 34.39" class="cls-3"/><polygon points="29.71 37.33 29.71 33.96 28.16 35.62 29.71 37.33" class="cls-3"/><path d="M36.89 34.46a.85.85 0 00-.47-.07h-1.24v.93h1.23a.89.89 0 00.48-.08.47.47 0 00.22-.4.42.42 0 00-.22-.38z" class="cls-3"/><path d="M51 36.38a2.18 2.18 0 00-.29-1.14h.09v-2.56H48a2.65 2.65 0 00-1.11.22v-.22h-2.8a1.83 1.83 0 00-1.19.32v-.34H38V33a2.56 2.56 0 00-1.34-.34H33.4V33a2.28 2.28 0 00-1.4-.32h-3.63l-.84.9-.77-.9h-5.4v5.85h5.3l.85-.9.81.9h3.28v-1.37h.32a3.47 3.47 0 001.39-.16v1.58H36V37h.13c.17 0 .19 0 .19.17v1.35h8.2a2.53 2.53 0 001.28-.31v.32h2.79a3 3 0 001.19-.2l.17-.07A2.1 2.1 0 0051 36.38zm-19-.08h-1.29v1.41h-1.95l-1.24-1.39-1.28 1.39h-4v-4.2h4l1.23 1.37 1.28-1.37H32c.8 0 1.69.22 1.69 1.39s-.87 1.4-1.75 1.4zm6-.19a1.23 1.23 0 01.16.77v.83h-1v-.52c0-.25 0-.63-.16-.82s-.37-.19-.74-.19h-1.08v1.53h-1v-4.2h2.32a2.44 2.44 0 011.21.2 1 1 0 01.51.94 1.18 1.18 0 01-.71 1.11 1.23 1.23 0 01.5.35zm4.12-1.72h-2.35v.76h2.29V36h-2.29v.83h2.35v.87h-3.35v-4.19h3.35zm.6 3.32v-.9h2a.55.55 0 00.4-.11.37.37 0 000-.52.5.5 0 00-.35-.1c-.94 0-2.12 0-2.12-1.29 0-.62.38-1.26 1.44-1.26h2v.9h-1.88a.72.72 0 00-.41.07.34.34 0 00-.14.31.3.3 0 00.21.31 1.33 1.33 0 00.4 0h.53a1.55 1.55 0 011.15.34 1.08 1.08 0 01.3.88c0 .91-.56 1.33-1.58 1.33zm7.22-.52v.06l-.07.07-.08.08-.1.07a1.85 1.85 0 01-.52.16h-2.52v-.91h1.94a.55.55 0 00.4-.1.36.36 0 00.12-.28.29.29 0 00-.13-.24.47.47 0 00-.34-.1c-1 0-2.13 0-2.13-1.29a1.19 1.19 0 01.31-.84H50v.9h-2a.44.44 0 00-.27.07.3.3 0 00-.15.31.31.31 0 00.21.31 1.31 1.31 0 00.39.05h.55a2.18 2.18 0 011 .19.9.9 0 01.19.15 1.15 1.15 0 01.29.86 1.38 1.38 0 01-.23.76z" class="cls-3"/></g></svg>