<svg id="Payment_Cards_Colors_Oney-LMES-legacy_64px" xmlns="http://www.w3.org/2000/svg" viewBox="0 0 64 64"><path fill="#4DB901" d="M56 12.667H8a2.667 2.667 0 00-2.667 2.667v32A2.667 2.667 0 008 50h48a2.667 2.667 0 002.667-2.666v-32A2.667 2.667 0 0056 12.667z"/><path fill="#fff" fill-rule="evenodd" d="M31.616 18.685c-.093-.01-.185-.02-.278-.032l-.073-.047h-.14a3.687 3.687 0 00-1.894.594 4 4 0 00-1.72 4.213 3.954 3.954 0 007.214 1.333c.04-.06.078-.13.116-.2.025-.047.05-.095.077-.14h-1.513a.2.2 0 00-.107.054 2.613 2.613 0 01-1.86.8 2.5 2.5 0 01-2.527-2v-.06h6.18c.06-.43.06-.864 0-1.294a3.9 3.9 0 00-3.013-3.16 5.63 5.63 0 00-.462-.061zm1.975 3.235h-4.64a2.42 2.42 0 012.46-1.9c1.027.053 2.18 1.026 2.18 1.9zm-18.402-3.23c-.08-.012-.16-.023-.238-.037h-.6a9.3 9.3 0 01-.208.03 3.933 3.933 0 00-3.472 3.55v.84c.062.345.15.684.267 1.014a3.82 3.82 0 003.593 2.553 3.767 3.767 0 003.16-1.38 4 4 0 00-2.153-6.513 5.632 5.632 0 00-.35-.058zm1.982 3.403c.035.186.06.372.074.56a2.666 2.666 0 01-2.207 2.627 2.573 2.573 0 01-2.873-1.94 2.667 2.667 0 011.62-3.147c.121-.043.246-.077.373-.1a2.56 2.56 0 013.013 2z"/><path fill="#fff" d="M36.964 28.94c.387-.927.76-1.854 1.134-2.78.02-.047.02-.1 0-.147a1901.336 1901.336 0 00-3.074-7.333h1.6a.189.189 0 000 .06l2.22 5.446a.427.427 0 00.04.067c.02-.041.038-.084.054-.127.28-.666.56-1.373.84-2.046l1.386-3.4h1.507a.984.984 0 010 .133l-3 7.333-1.173 2.84-1.534-.046zm-13.58-10.287c.2.034.4.047.6.1a3.193 3.193 0 012.5 2.374c.08.327.12.663.12 1v4.513h-1.446v-4.38a4.39 4.39 0 00-.1-.933 1.64 1.64 0 00-1.334-1.3 2.937 2.937 0 00-1.333 0 1.7 1.7 0 00-1.407 1.493c-.046.253-.066.51-.06.767v4.326h-1.44a.225.225 0 010-.066v-4.62a3.074 3.074 0 011.107-2.434 3.5 3.5 0 012-.833h.133l.66-.007z"/><path fill="#96E51F" d="M57.917 37.2H37.82l10.056-9.197 10.04 9.197z"/><path fill="#89C067" d="M51.792 49.963l6.865-6.29v-.047H44.876l6.916 6.337z"/><path fill="#A8DA88" d="M44.892 43.6h13.764v-.021l-6.87-6.296-6.894 6.317z"/><path fill="#EAF8E4" d="M51.767 37.265l-6.913 6.334h-.007l-6.934-6.354h13.832l.022.02zm.06-.02l-.021.02 6.85 6.278.01-5.638-.72-.66h-6.119z"/><path fill="#3B950F" d="M37.844 37.218l-.012-.011-.013.011h.025zm-.054.027l-6.915 6.324.034.03h13.898l-6.934-6.354h-.083zm-6.934 6.342l.013.012h-.027l.014-.012z"/><path fill="#96E51F" d="M30.898 43.626h-.085L23.843 50l13.997-.013-6.942-6.361z"/><path fill="#A8DA88" d="M44.824 43.626H30.938l6.942 6.36h.003l6.941-6.36z"/><path fill="#EAF8E4" d="M37.922 49.987l6.928-6.348 6.914 6.335-13.842.013z"/><path fill="#3B950F" d="M51.82 49.974l4.583-.004a2.668 2.668 0 002.247-2.335l.007-3.925-6.837 6.264z"/></svg>