<svg xmlns="http://www.w3.org/2000/svg" viewBox="0 0 32 32"><path fill="#4DB901" d="M28 6.333H4c-.737 0-1.333.597-1.333 1.333v16C2.667 24.403 3.263 25 4 25h24c.736 0 1.333-.597 1.333-1.334v-16c0-.736-.597-1.333-1.333-1.333z"/><path fill="#fff" fill-rule="evenodd" d="M15.808 9.343a4.64 4.64 0 01-.139-.016l-.037-.023h-.07c-.336.01-.664.113-.946.296a2 2 0 00-.86 2.107 1.977 1.977 0 003.606.667c.02-.03.04-.065.059-.1l.038-.07h-.757a.1.1 0 00-.053.026 1.307 1.307 0 01-.93.4 1.25 1.25 0 01-1.263-1v-.03h3.09a2.33 2.33 0 000-.646 1.95 1.95 0 00-1.507-1.58 2.808 2.808 0 00-.231-.031zm.988 1.617h-2.32a1.21 1.21 0 011.23-.95c.513.027 1.09.514 1.09.95zM7.594 9.344a2.27 2.27 0 01-.119-.018h-.3c-.034.006-.069.01-.104.015a1.967 1.967 0 00-1.736 1.775v.42c.031.172.076.342.134.507a1.91 1.91 0 001.796 1.277 1.883 1.883 0 001.58-.69A2 2 0 007.77 9.373a2.837 2.837 0 00-.175-.029zm.991 1.702c.018.093.03.186.037.28 0 .648-.465 1.202-1.103 1.313a1.287 1.287 0 01-1.437-.97 1.333 1.333 0 01.81-1.573 1.28 1.28 0 011.693.95z"/><path fill="#fff" d="M18.482 14.47c.194-.463.38-.927.567-1.39a.093.093 0 000-.073 960.625 960.625 0 00-1.537-3.667h.8a.094.094 0 000 .03l1.11 2.723a.216.216 0 00.02.034.689.689 0 00.027-.064c.14-.333.28-.687.42-1.023l.693-1.7h.753a.494.494 0 010 .067l-1.5 3.666-.586 1.42-.767-.023zm-6.79-5.144c.1.017.2.024.3.05a1.597 1.597 0 011.25 1.187c.04.163.06.331.06.5v2.256h-.723v-2.19c0-.156-.017-.313-.05-.466a.82.82 0 00-.666-.65 1.471 1.471 0 00-.667 0 .85.85 0 00-.704.746 1.852 1.852 0 00-.03.384v2.163h-.72a.113.113 0 010-.033v-2.31c-.01-.469.193-.917.554-1.217a1.75 1.75 0 011-.416h.067l.33-.004z"/><path fill="#96E51F" d="M28.958 18.6H18.91l5.028-4.598 5.02 4.598z"/><path fill="#89C067" d="M25.896 24.982l3.432-3.145v-.023h-6.89l3.458 3.168z"/><path fill="#A8DA88" d="M22.446 21.8h6.882v-.01l-3.435-3.148-3.447 3.158z"/><path fill="#EAF8E4" d="M25.883 18.632l-3.456 3.167h-.004l-3.467-3.177h6.916l.011.01zm.031-.01l-.011.01 3.425 3.139.005-2.819-.36-.33h-3.06z"/><path fill="#3B950F" d="M18.922 18.609l-.006-.006-.006.006h.012zm-.027.013l-3.457 3.162.016.015h6.95l-3.468-3.177h-.041zm-3.467 3.172l.007.006h-.014l.007-.006z"/><path fill="#96E51F" d="M15.45 21.814h-.043L11.922 25l6.998-.006-3.47-3.18z"/><path fill="#A8DA88" d="M22.412 21.814h-6.943l3.47 3.18h.002l3.47-3.18z"/><path fill="#EAF8E4" d="M18.96 24.994l3.465-3.175 3.457 3.168-6.921.007z"/><path fill="#3B950F" d="M25.91 24.987l2.291-.002a1.334 1.334 0 001.124-1.168l.003-1.962-3.418 3.132z"/></svg>