<svg xmlns="http://www.w3.org/2000/svg" viewBox="0 0 32 32"><defs><linearGradient id="Dégradé_sans_nom_244" x1="3.69" y1="24.62" x2="28.31" y2="7.38" gradientUnits="userSpaceOnUse"><stop offset="0" stop-color="#000070" stop-opacity="0"/><stop offset=".25" stop-color="#00006e" stop-opacity=".05"/><stop offset=".48" stop-color="#000067" stop-opacity=".22"/><stop offset=".71" stop-color="#00005c" stop-opacity=".49"/><stop offset=".93" stop-color="#00004c" stop-opacity=".86"/><stop offset="1" stop-color="#000046"/></linearGradient><style>.cls-4{fill:#1b2070}</style></defs><g id="Icon"><rect x="3" y="7" width="26" height="18" rx="2" fill="#fff"/><path d="M27 7.5A1.5 1.5 0 0128.5 9v14a1.5 1.5 0 01-1.5 1.5H5A1.5 1.5 0 013.5 23V9A1.5 1.5 0 015 7.5h22m0-.5H5a2 2 0 00-2 2v14a2 2 0 002 2h22a2 2 0 002-2V9a2 2 0 00-2-2z" fill="#d3d2d6"/><path class="cls-4" d="M27 7H5a2 2 0 00-2 2v2h26V9a2 2 0 00-2-2z"/><path d="M3 21v2a2 2 0 002 2h22a2 2 0 002-2v-2z" fill="#f7b601"/><rect x="3" y="7" width="26" height="18" rx="2" opacity=".1" fill="url(#Dégradé_sans_nom_244)"/><path class="cls-4" d="M12.84 18.68l.91-5.35h1.46l-.91 5.35h-1.46zM19.58 13.47a3.64 3.64 0 00-1.3-.23c-1.44 0-2.46.73-2.46 1.76 0 .78.72 1.2 1.27 1.46s.76.43.76.66-.45.53-.88.53a3.06 3.06 0 01-1.37-.29l-.18-.08-.21 1.2a5 5 0 001.63.28c1.53 0 2.52-.72 2.53-1.83 0-.61-.38-1.07-1.22-1.45-.51-.24-.82-.41-.82-.66s.27-.47.83-.47a2.86 2.86 0 011.09.21l.13.06.2-1.15M23.32 13.34h-1.13a.73.73 0 00-.76.44l-2.16 4.9h1.53l.31-.8H23c.05.18.18.79.18.79h1.32l-1.18-5.34m-1.8 3.45l.58-1.49s.12-.32.2-.52l.1.47.33 1.54zM11.62 13.34L10.19 17l-.19-.76A4.17 4.17 0 008 14l1.31 4.67h1.54l2.29-5.33h-1.52"/><path class="cls-4" d="M8.87 13.33H6.52v.12A4.81 4.81 0 0110 16.24l-.51-2.45a.62.62 0 00-.66-.46"/></g></svg>