<svg xmlns="http://www.w3.org/2000/svg" viewBox="0 0 32 32" aria-hidden="true"><defs><linearGradient id="Dégradé_sans_nom_52" x1="956.24" x2="959.14" y1="-2109.73" y2="-2106.8" gradientTransform="matrix(8.46 0 0 -5.84 -8088.82 -12291.64)" gradientUnits="userSpaceOnUse"><stop offset="0" stop-color="#109a72"/><stop offset="0.3" stop-color="#008a8d"/><stop offset="0.69" stop-color="#01679b"/><stop offset="1" stop-color="#03376f"/></linearGradient><style>.cls-3{fill:#fff}</style></defs><g id="Icon"><rect width="26" height="18" x="3" y="7" fill="url(#Dégradé_sans_nom_52)" rx="2"/><path d="M12.17 15.71h4.19a3 3 0 00-.89-2.23 5.34 5.34 0 00-3.29-.89 5.32 5.32 0 00-3.37 1A3.19 3.19 0 008 16a3.5 3.5 0 001 2.59 5.12 5.12 0 003.18.82 5.12 5.12 0 003.17-.81 3.31 3.31 0 001-2.6h-4.2zM16.64 16v3.27h5.83A1.61 1.61 0 0024 17.65 1.67 1.67 0 0022.47 16zM23.9 14.22a1.49 1.49 0 00-1.48-1.49h-5.78v3h5.88a1.52 1.52 0 001.38-1.51z" class="cls-3"/></g></svg>