<svg xmlns="http://www.w3.org/2000/svg" viewBox="0 0 24 24"><rect x="2" y="5" width="20" height="14" rx="1"/><path d="M21 5.5a.5.5 0 01.5.5v12a.5.5 0 01-.5.5H3a.5.5 0 01-.5-.5V6a.5.5 0 01.5-.5h18m0-.5H3a1 1 0 00-1 1v12a1 1 0 001 1h18a1 1 0 001-1V6a1 1 0 00-1-1z"/><path d="M7.26 15.61h9.31l-4.65-4.68-4.66 4.68zM7.06 15.4l.72-.72-.24-.24-.46.45-.81-.82-.27.27 1.06 1.06zM7.34 13.43l.18.18.37-.37.22.22-.38.37.23.23.47-.46.21.21-.73.73-1.06-1.06.73-.73.21.22-.45.46M9.72 12.73L9 12.52a.43.43 0 00-.7-.52l-.53.54 1.05 1.07.27-.27-.86-.87.18-.17a.18.18 0 01.27 0 .19.19 0 010 .27l-.16.16.92.26z"/><path d="M9.23 11.05a.73.73 0 011.08 0 .74.74 0 010 1.08.77.77 0 01-1.09-1.09zm.21.21c-.17.17-.11.38.09.58s.41.26.58.09.11-.37-.1-.58-.4-.26-.57-.09zM10.63 10.49l-.2-.6.31-.32.27 1.03.42.42-.28.27-.41-.41-.98-.32.29-.3.57.23h.01zM15.52 14.14l1.06-1.06-.28-.29-1.06 1.07.28.28zM11.48 10.09l.82-.4-.6.61.24.24L13 9.48l-.34-.34-.8.39.4-.79-.34-.35-1.06 1.07.25.25.6-.61-.39.82.16.17zM13.31 10.23l-.17.19.4.41-.22.21-.4-.41-.23.24.49.49-.21.22-.76-.77 1.06-1.06.76.77-.22.21-.5-.5M14.32 12.93l.72.73.24-.24-.45-.46.82-.82-.27-.27-1.06 1.06zM17.2 13.69l-.34 1.13.73-.73.25.25-1.06 1.06-.33-.33.29-1.16v-.01l-.73.73-.24-.24 1.06-1.07.37.37zM14.14 12.75l.21-.72a.44.44 0 00.51-.1.43.43 0 000-.61l-.57-.57-1 1.06.26.27.86-.86.21.21a.19.19 0 11-.25.29l-.2-.19-.22 1z"/></svg>