<svg id="Payment_Cards_Colors_Paylib_32px" xmlns="http://www.w3.org/2000/svg" viewBox="0 0 32 32"><path fill="#16D6FF" d="M3 9a2 2 0 012-2h22a2 2 0 012 2v14a2 2 0 01-2 2H5a2 2 0 01-2-2V9z"/><path fill="#fff" d="M7 14.1h.643v.213h.025c.206-.147.45-.233.702-.25.242-.026.487-.013.725.037a1 1 0 01.75.818c.078.355.1.72.067 1.082-.005.21-.034.419-.085.622-.093.436-.46.76-.905.798-.277.037-.552.032-.835.045V16.8h.276a3.5 3.5 0 00.36-.033.393.393 0 00.34-.314 1.6 1.6 0 00.064-.36c.026-.307.02-.615-.02-.92a1.342 1.342 0 00-.037-.168.412.412 0 00-.32-.288 1.335 1.335 0 00-.58 0 .463.463 0 00-.36.463c0 .078-.012.155-.012.232V18.6h-.72c-.058 0-.07-.013-.07-.065v-.32L7 14.1z"/><path fill="#fff" fill-rule="evenodd" d="M21.125 12.023h-.04a3.985 3.985 0 00-2.25.642.155.155 0 00-.082.155v3.607l-.002.062c0 .038-.002.075.002.143.005.103.044.143.147.143h.423v.68a3.777 3.777 0 01-.823-.037.62.62 0 01-.525-.54 2.033 2.033 0 01-.027-.348v-3.075h-.026a4.015 4.015 0 00-.712 3.75c.41 1.285 1.305 2.128 2.59 2.585v-4.5h.825v4.668a3.922 3.922 0 003.575-1.595 3.84 3.84 0 00.348-4.168 3.892 3.892 0 00-2.638-2.082v4.044c-.004.065-.004.13 0 .195.02.263.117.405.367.436.15.02.301.02.45 0a.458.458 0 00.48-.438c.07-.388.075-.785.015-1.175a.463.463 0 00-.482-.425h-.527v-.64h.024l.246.003c.184.001.366.002.54.024.478.026.874.382.95.855.11.506.11 1.03 0 1.535-.073.422-.388.76-.803.863a2.663 2.663 0 01-1.33 0 .858.858 0 01-.657-.655 2.214 2.214 0 01-.058-.5v-4.212zM20.062 15a.395.395 0 01-.312-.45.395.395 0 01.407-.438c.062-.005.124-.005.186 0a.397.397 0 01.33.373v.148a.375.375 0 01-.36.367.851.851 0 01-.25 0z"/><path fill="#fff" d="M13.582 14.105h.785v2.155a1.9 1.9 0 00.02.25.285.285 0 00.205.232c.237.078.492.078.728 0a.307.307 0 00.225-.294c0-.078.012-.148.012-.226V14.1h.766v3.648a1.771 1.771 0 01-.04.36.573.573 0 01-.468.462c-.274.035-.55.048-.825.038v-.65h.425a.13.13 0 00.13-.12v-.428l-.545.04a2 2 0 01-.78-.102.908.908 0 01-.625-.848v-2.315l-.013-.08z"/><path fill="#fff" fill-rule="evenodd" d="M13.152 17.45V14.1H12.5v.225a1.183 1.183 0 00-.48-.23 2.436 2.436 0 00-.688-.038 1.03 1.03 0 00-1.027.888 4.09 4.09 0 00-.057 1.105c.004.168.025.336.062.5a1 1 0 00.707.815 1.91 1.91 0 001.075.027c.097-.029.192-.066.283-.11v.168h.777zm-.777-1.2a.5.5 0 01-.482.545c-.15.015-.302.01-.45-.015a.397.397 0 01-.348-.3 1.475 1.475 0 01-.065-.375c0-.148.005-.297.01-.446.005-.15.01-.299.01-.447a2.3 2.3 0 01.037-.18.44.44 0 01.405-.34 2.58 2.58 0 01.465 0 .455.455 0 01.418.5v1.058z"/></svg>