<svg xmlns="http://www.w3.org/2000/svg" viewBox="0 0 24 24">
    
  <path fill="#ECAA3A" d="M2 6a1 1 0 0 1 1-1h18a1 1 0 0 1 1 1v12a1 1 0 0 1-1 1H3a1 1 0 0 1-1-1V6Z"/>
  <path fill="#111116" d="M5.065 15.088h10.832a3.02 3.02 0 0 0 1.658-.478 3 3 0 0 0 1.39-2.032 3.085 3.085 0 0 0-3.027-3.665H8.09A3.08 3.08 0 0 0 5 11.96v3.07c0 .058 0 .058.065.058Z"/>
  <path fill="#fff" fill-rule="evenodd" d="M4.978 11.193a3.21 3.21 0 0 1 3.107-2.405h7.83a3.215 3.215 0 0 1 3.152 3.808 3.115 3.115 0 0 1-1.445 2.117 3.155 3.155 0 0 1-1.694.5H5.065a.185.185 0 0 1-.147-.045.177.177 0 0 1-.043-.138v-3.07a3.17 3.17 0 0 1 .103-.768Zm10.937-2.28h-7.83A3.08 3.08 0 0 0 5 11.96v3.06c0 .028-.001.042.005.05.008.008.024.008.06.008h10.863a3.1 3.1 0 0 0 3.017-2.5 3.085 3.085 0 0 0-3.03-3.665Z"/>
  <path fill="#fff" fill-rule="evenodd" d="M13.643 12.553c.014.217.046.432.095.644a.13.13 0 0 1-.09.173.137.137 0 0 1-.205-.075.946.946 0 0 1-.053-.115l-.103.07a.93.93 0 0 1-.722.133.785.785 0 0 1-.625-.883.893.893 0 0 1 .333-.595c.28-.199.64-.243.96-.117l.074.032a.09.09 0 0 0 .103 0 .23.23 0 0 1 .123-.033c.082 0 .11.028.11.113v.652Zm-.41.382a.355.355 0 0 0 .117-.285v-.072a1.002 1.002 0 0 0-.015-.23.335.335 0 0 0-.303-.313.75.75 0 0 0-.392.015.583.583 0 0 0-.388.68.44.44 0 0 0 .118.22.56.56 0 0 0 .545.158.72.72 0 0 0 .318-.173Z"/>
  <path fill="#fff" d="M11.563 12.768a.117.117 0 0 0-.16.027.326.326 0 0 0-.05.07.467.467 0 0 1-.353.235.786.786 0 0 1-.387-.03.462.462 0 0 1-.328-.4.565.565 0 0 1 .465-.645.555.555 0 0 1 .5.145l.11.098c.068.057.103.057.173 0a.127.127 0 0 0 .042-.186.935.935 0 0 0-.607-.377.812.812 0 0 0-.378.037.945.945 0 0 0-.518.393.75.75 0 0 0-.124.463.71.71 0 0 0 .052.294.75.75 0 0 0 .63.5c.199.03.402.011.592-.054a.662.662 0 0 0 .393-.333l.027-.065a.128.128 0 0 0-.037-.15l-.043-.022Z"/>
  <path fill="#D35D91" d="M7.605 10.35a.173.173 0 0 0-.23.123 1.09 1.09 0 0 0-.055.277c0 .06-.015.12-.025.182-.045.383-.045.775-.045 1.168 0 .205 0 .41.015.617v.088a2.018 2.018 0 0 0 .09.475c.03.069.098.113.172.113a.173.173 0 0 0 .088 0 .107.107 0 0 0 .087-.126 8.182 8.182 0 0 1-.037-.364c-.01-.128-.025-.25-.027-.378a9.774 9.774 0 0 1-.016-1c0-.205.028-.41.053-.613 0-.105.018-.21.035-.312a.353.353 0 0 0 0-.102.122.122 0 0 0-.105-.148Z"/>
  <path fill="#9779AB" d="m8.59 10.807.04-.335a.1.1 0 0 0-.075-.117.25.25 0 0 0-.19 0 .143.143 0 0 0-.085.102 1.138 1.138 0 0 0-.055.25 7.8 7.8 0 0 0-.075.835v.917c.003.237.025.475.065.71 0 .03.015.062.025.092.009.023.02.044.033.065.042.093.27.085.312.015a.19.19 0 0 0 .027-.133 3.082 3.082 0 0 1-.032-.317c0-.163-.023-.325-.033-.5-.02-.298-.014-.6 0-.905 0-.226.014-.453.043-.678Z"/>
  <path fill="#ECAA3A" d="M9.43 10.78a.3.3 0 0 0-.375.293v.075a.295.295 0 0 0 .393.22h.022a.267.267 0 0 0 .167-.343c-.022-.125-.027-.19-.207-.245Zm-.075.947a.163.163 0 0 0-.193.108.943.943 0 0 0-.047.25c0 .188 0 .375-.013.563-.012.187 0 .395 0 .595 0 .036.017.071.046.095.057.044.13.065.202.06a.12.12 0 0 0 .11-.13.618.618 0 0 0 0-.118 6.371 6.371 0 0 1 0-.818l.04-.427a.157.157 0 0 0-.145-.178Z"/>
  <path fill="#B9CD5C" d="M6.522 10.765a.335.335 0 0 0-.295.337c0 .13.145.275.313.28a.292.292 0 0 0 .29-.317.31.31 0 0 0-.308-.3Zm.111.967a.223.223 0 0 0-.213.056.13.13 0 0 0-.035.09c0 .212.02.427.025.637v.7c0 .14.055.188.19.178h.038c.09 0 .122-.05.127-.146.018-.39.013-.787.013-1.184a.805.805 0 0 0-.023-.19.173.173 0 0 0-.122-.14Z"/>
  <path fill="#fff" fill-rule="evenodd" d="M16.808 11.703a.78.78 0 0 1 .672.42c.06.1.104.211.128.327a.82.82 0 0 1-.058.453l-.018.037a.827.827 0 0 1-.25.29.815.815 0 0 1-.564.182 1.342 1.342 0 0 1-.173 0 .835.835 0 0 1-.635-.602 1.08 1.08 0 0 1 0-.43.828.828 0 0 1 .482-.603.98.98 0 0 1 .416-.074ZM17.073 13a.452.452 0 0 0 .202-.303.797.797 0 0 0-.025-.367.467.467 0 0 0-.457-.33.836.836 0 0 0-.276.035.47.47 0 0 0-.327.363.732.732 0 0 0 0 .312.532.532 0 0 0 .552.397.54.54 0 0 0 .33-.107Zm-1.573-.732c0 .117 0 .232.025.35.027.204.065.407.11.607a.087.087 0 0 1 0 .075.177.177 0 0 1-.21.07.133.133 0 0 1-.053-.052 1.064 1.064 0 0 1-.044-.125c-.01-.022-.005-.027-.006-.03l-.01-.003c-.011-.003-.047.028-.085.062-.027.023-.055.048-.077.063a.75.75 0 0 1-.593.102.658.658 0 0 1-.5-.46 1 1 0 0 1-.02-.617.68.68 0 0 1 .2-.363.883.883 0 0 1 .733-.22.551.551 0 0 1 .197.06v-.037c-.01-.405.01-.813.033-1.217a.205.205 0 0 1 .158-.193h.074c.08-.005.118.02.118.1a.77.77 0 0 1 0 .2 6.1 6.1 0 0 0-.025.406 6.797 6.797 0 0 1-.025.407c-.018.18-.012.362-.006.544.003.09.006.18.006.27Zm-.625.79c.188-.05.32-.22.322-.415a1.097 1.097 0 0 0-.02-.356.436.436 0 0 0-.032-.09.297.297 0 0 0-.25-.177h-.07l-.15.02a.427.427 0 0 0-.333.28.879.879 0 0 0-.045.36.425.425 0 0 0 .578.377Z"/>
</svg>
