<svg id="Payment_Cards_Colors_Paypal_32px" xmlns="http://www.w3.org/2000/svg" viewBox="0 0 32 32"><path fill="url(#a)" d="M3.125 9.125a2 2 0 012-2h21.75a2 2 0 012 2v13.75a2 2 0 01-2 2H5.125a2 2 0 01-2-2V9.125z"/><path fill="#DDD" fill-rule="evenodd" d="M5 7h22a2 2 0 012 2v14a2 2 0 01-2 2H5a2 2 0 01-2-2V9a2 2 0 012-2zm23.75 2A1.75 1.75 0 0027 7.25H5A1.75 1.75 0 003.25 9v14c0 .966.784 1.75 1.75 1.75h22A1.75 1.75 0 0028.75 23V9z"/><path fill="#179BD7" fill-rule="evenodd" d="M17.138 19h.932a.86.86 0 01.68.23.727.727 0 01.128.61c-.093.587-.448.885-1.063.885h-.295a.13.13 0 00-.125.11l-.107.677a.092.092 0 01-.09.078h-.5a.08.08 0 01-.065-.09l.377-2.39a.13.13 0 01.128-.11zm.487 1.21c.247 0 .502 0 .552-.335v-.01a.292.292 0 00-.045-.25c-.082-.095-.242-.095-.41-.095h-.062a.08.08 0 00-.078.063l-.1.627h.143z"/><path fill="#253B80" fill-rule="evenodd" d="M10.483 19h.932a.86.86 0 01.68.238.72.72 0 01.12.602c-.092.588-.447.885-1.062.885h-.295a.127.127 0 00-.125.11l-.108.645a.128.128 0 01-.125.11h-.46a.078.078 0 01-.062-.09l.377-2.39a.13.13 0 01.128-.11zm.485 1.21c.248 0 .505 0 .555-.335l-.002-.03a.3.3 0 00-.048-.25c-.082-.095-.24-.095-.41-.095h-.062a.075.075 0 00-.073.082l-.1.628h.14zm2.782-.357h.455l.02.005c.042.007.07.047.062.09l-.25 1.53a.13.13 0 01-.127.11h-.413a.078.078 0 01-.067-.09l.02-.125a.853.853 0 01-.618.25.697.697 0 01-.562-.228.845.845 0 01-.168-.685 1.03 1.03 0 011-.9.635.635 0 01.528.19l.022.043.02-.125a.08.08 0 01.078-.065zm-.668 1.297a.5.5 0 00.5-.427h-.005a.358.358 0 00-.375-.438.5.5 0 00-.5.558.345.345 0 00.38.307z"/><path fill="#179BD7" fill-rule="evenodd" d="M20.412 19.853h.448l.01.002c.042.008.07.048.062.09l-.25 1.53a.13.13 0 01-.125.11h-.415a.075.075 0 01-.065-.09l.02-.125a.853.853 0 01-.617.25.697.697 0 01-.563-.227.843.843 0 01-.167-.685 1.03 1.03 0 011-.9.635.635 0 01.535.192l.032.043.02-.125a.075.075 0 01.075-.065zm-.662 1.297a.5.5 0 00.5-.427.358.358 0 00-.37-.44.5.5 0 00-.5.43.348.348 0 00.37.437z"/><path fill="#253B80" d="M16.585 19.853h-.45a.135.135 0 00-.107.057l-.622.913-.25-.878a.13.13 0 00-.126-.092h-.454a.077.077 0 00-.078.08.07.07 0 000 .022l.5 1.455-.465.655a.077.077 0 00.02.108.07.07 0 00.045.015h.447c.043 0 .083-.02.108-.055l1.5-2.155a.078.078 0 00-.02-.11.068.068 0 00-.047-.015z"/><path fill="#179BD7" d="M21.387 19.055L21 21.5a.08.08 0 00.065.09h.4a.127.127 0 00.125-.11l.38-2.392a.077.077 0 00-.065-.088h-.438a.08.08 0 00-.08.055zm-2.445-6.772c0 .047-.015.095-.025.145-.327 1.685-1.45 2.265-2.882 2.265h-.73a.355.355 0 00-.35.307l-.373 2.368-.107.672a.187.187 0 00.185.215h1.295a.313.313 0 00.307-.25v-.065l.25-1.547.015-.085a.313.313 0 01.308-.25h.195c1.25 0 2.235-.5 2.522-1.983.118-.615.058-1.127-.25-1.5a1.25 1.25 0 00-.36-.292z"/><path fill="#222D65" d="M18.6 12.145l-.155-.04-.165-.03a3.949 3.949 0 00-.642-.047H15.69a.312.312 0 00-.308.262l-.414 2.628v.077a.355.355 0 01.35-.302h.73c1.432 0 2.555-.58 2.882-2.265 0-.05.018-.098.025-.146a1.452 1.452 0 00-.27-.112l-.085-.025z"/><path fill="#253B80" d="M15.383 12.29c.015-.1.08-.187.172-.23a.302.302 0 01.135-.033h1.948c.215-.001.43.015.642.048l.165.03.155.04.072.025c.094.03.184.067.27.113.098-.623 0-1.045-.337-1.43-.338-.386-1.04-.603-1.895-.603h-2.5a.358.358 0 00-.353.3l-1.022 6.565a.215.215 0 00.21.25h1.537l.8-5.075z"/><defs><linearGradient id="a" x1="17.153" x2="32.936" y1="34.373" y2="11.205" gradientUnits="userSpaceOnUse"><stop stop-color="#fff"/><stop offset=".4" stop-color="#F9F9F9"/><stop offset=".93" stop-color="#E9E9E9"/><stop offset="1" stop-color="#E6E6E6"/></linearGradient></defs></svg>