<svg xmlns="http://www.w3.org/2000/svg" viewBox="0 0 48 48" aria-hidden="true"><defs><linearGradient id="Dégradé_sans_nom_52" x1="-2.67" x2="31.25" y1="-2046.6" y2="-2012.55" gradientTransform="matrix(1.14 0 0 -.79 7.73 -1588.17)" gradientUnits="userSpaceOnUse"><stop offset="0" stop-color="#109a72"/><stop offset="0.3" stop-color="#008a8d"/><stop offset="0.69" stop-color="#01679b"/><stop offset="1" stop-color="#03376f"/></linearGradient><style>.cls-3{fill:#fff}</style></defs><g id="Icon"><rect width="40" height="28" x="4" y="10" fill="url(#Dégradé_sans_nom_52)" rx="2"/><path d="M17.78 23.53h6.81a4.91 4.91 0 00-1.45-3.62c-1.23-1.06-3.4-1.45-5.34-1.45s-4.25.43-5.49 1.57A5.22 5.22 0 0011 24a5.69 5.69 0 001.62 4.21c1.17 1 3.24 1.33 5.18 1.33s3.92-.31 5.15-1.32A5.38 5.38 0 0024.6 24h-6.82zM25 24v5.3h9.47A2.62 2.62 0 0037 26.68 2.69 2.69 0 0034.51 24zM36.83 21.1a2.41 2.41 0 00-2.4-2.42H25v4.86h9.55a2.45 2.45 0 002.28-2.44z" class="cls-3"/></g></svg>