<svg xmlns="http://www.w3.org/2000/svg" viewBox="0 0 48 48" aria-hidden="true"><defs><linearGradient id="Dégradé_sans_nom_196" x1="2893.71" x2="2859.8" y1="-1976.73" y2="-2010.78" gradientTransform="matrix(-1.14 0 0 .79 3300.27 1607.72)" gradientUnits="userSpaceOnUse"><stop offset="0" stop-color="#fff"/><stop offset="0.4" stop-color="#f9f9f9"/><stop offset="0.93" stop-color="#e9e9e9"/><stop offset="1" stop-color="#e6e6e6"/></linearGradient><style>.cls-4{fill:#179bd7}.cls-5{fill:#253b80}</style></defs><g id="Icon"><rect width="40" height="28" x="4" y="10" fill="url(#Dégradé_sans_nom_196)" rx="2"/><path fill="#d3d2d6" d="M42 11a1 1 0 011 1v24a1 1 0 01-1 1H6a1 1 0 01-1-1V12a1 1 0 011-1h36m0-1H6a2 2 0 00-2 2v24a2 2 0 002 2h36a2 2 0 002-2V12a2 2 0 00-2-2z"/><path d="M27.3 28.59h-1.48a.2.2 0 00-.2.17L25 32.55a.12.12 0 00.1.14h.78a.14.14 0 00.14-.12l.17-1.07a.21.21 0 01.2-.18h.47a1.52 1.52 0 001.68-1.4 1.17 1.17 0 00-.19-1 1.35 1.35 0 00-1.05-.33zm.17 1.41c-.08.53-.49.53-.88.53h-.22l.15-1a.12.12 0 01.12-.1h.1c.27 0 .52 0 .65.15a.45.45 0 01.08.41z" class="cls-4"/><path d="M16.76 28.59h-1.48a.2.2 0 00-.2.17l-.6 3.79a.12.12 0 00.1.14h.73a.2.2 0 00.2-.17l.17-1a.2.2 0 01.2-.18h.46A1.51 1.51 0 0018 29.92a1.15 1.15 0 00-.18-1 1.39 1.39 0 00-1.06-.33zm.17 1.41c-.08.53-.49.53-.88.53h-.22l.15-1a.14.14 0 01.13-.1h.1c.26 0 .51 0 .64.15a.48.48 0 01.08.41zM21.18 30h-.71a.13.13 0 00-.12.1v.2l-.05-.07a1 1 0 00-.84-.3 1.64 1.64 0 00-1.58 1.43 1.34 1.34 0 00.26 1.08 1.11 1.11 0 00.9.36 1.31 1.31 0 001-.4v.2a.12.12 0 00.11.14h.65a.19.19 0 00.2-.17l.39-2.42a.12.12 0 00-.11-.14zm-1 1.38a.79.79 0 01-.8.68.55.55 0 01-.6-.49.67.67 0 010-.2.8.8 0 01.8-.68.6.6 0 01.47.19.64.64 0 01.12.5z" class="cls-5"/><path d="M31.71 30H31a.13.13 0 00-.12.1v.2l-.05-.07a1 1 0 00-.83-.3 1.63 1.63 0 00-1.58 1.43 1.31 1.31 0 00.26 1.08 1.09 1.09 0 00.89.36 1.34 1.34 0 001-.4v.2a.12.12 0 00.1.14h.66a.2.2 0 00.2-.17l.38-2.42a.12.12 0 00-.1-.14zm-1 1.38a.8.8 0 01-.8.68.61.61 0 01-.48-.19.6.6 0 01-.11-.5.78.78 0 01.79-.68.59.59 0 01.47.19.6.6 0 01.13.5z" class="cls-4"/><path d="M24.94 30h-.71a.26.26 0 00-.17.09l-1 1.45-.42-1.39a.21.21 0 00-.2-.15h-.7a.13.13 0 00-.12.13l.79 2.3-.74 1a.12.12 0 000 .17h.78a.2.2 0 00.17-.09L25 30.15a.12.12 0 000-.15h-.06z" class="cls-5"/><path d="M32.55 28.69l-.61 3.86a.12.12 0 00.1.14h.64a.2.2 0 00.2-.17l.6-3.79a.12.12 0 00-.11-.14h-.7a.12.12 0 00-.12.1zM28.94 18.18v.22c-.52 2.63-2.27 3.54-4.51 3.54h-1.18a.55.55 0 00-.54.47l-.59 3.7-.12 1.05a.29.29 0 00.28.34h2a.48.48 0 00.48-.41v-.1l.38-2.42v-.13a.48.48 0 01.48-.41H26c2 0 3.5-.8 3.95-3.1a2.65 2.65 0 00-.41-2.33 1.91 1.91 0 00-.6-.42z" class="cls-4"/><path fill="#222d65" d="M28.4 18l-.24-.06h-.26a6.19 6.19 0 00-1-.07h-3a.54.54 0 00-.21 0 .48.48 0 00-.27.36l-.65 4.1v.12a.55.55 0 01.54-.47h1.14c2.24 0 4-.91 4.51-3.54v-.22a2.65 2.65 0 00-.42-.18z"/><path d="M23.37 18.19a.48.48 0 01.27-.36.54.54 0 01.21 0h3a6.19 6.19 0 011 .07h.26l.24.06h.12a2.65 2.65 0 01.42.18 2.49 2.49 0 00-.53-2.24 3.86 3.86 0 00-3-.94h-3.8a.56.56 0 00-.55.47l-1.62 10.3a.33.33 0 00.33.38h2.4l.6-3.82z" class="cls-5"/></g></svg>