<svg xmlns="http://www.w3.org/2000/svg" viewBox="0 0 32 32">
  
  <path fill="#81BC00" fill-rule="evenodd" d="M25.427 16.001a9.426 9.426 0 11-18.852 0 9.426 9.426 0 0118.852 0zm-12.003 2.88a2.641 2.641 0 01-1.545-.424 2.032 2.032 0 01-.814-1.144l1.277-.374c.07.217.211.405.4.533.207.131.449.198.694.191a.95.95 0 00.61-.2.677.677 0 00.249-.559.632.632 0 00-.268-.548 1.153 1.153 0 00-.687-.194h-.7v-1.106h.675c.228.014.454-.046.645-.171a.657.657 0 00.223-.56.588.588 0 00-.22-.497.823.823 0 00-.54-.178.848.848 0 00-.857.667l-1.33-.377a1.86 1.86 0 01.248-.558 2.001 2.001 0 011.099-.824 2.81 2.81 0 01.86-.127 2.528 2.528 0 011.571.46c.394.287.62.752.603 1.24.01.291-.065.579-.216.828a1.213 1.213 0 01-.61.496c.273.096.507.278.667.519.184.28.275.612.26.948a1.77 1.77 0 01-.635 1.416 2.48 2.48 0 01-1.66.543zm7.739-4.916l-1.67 2.334 1.645 2.463h-1.623l-.863-1.272-.776 1.277h-1.56l1.594-2.384-1.595-2.418h1.635l.821 1.252.829-1.252h1.563z"/>
</svg>
