<svg xmlns="http://www.w3.org/2000/svg" viewBox="0 0 32 32">
    
  <path fill="#81BC00" d="M3 9a2 2 0 0 1 2-2h22a2 2 0 0 1 2 2v14a2 2 0 0 1-2 2H5a2 2 0 0 1-2-2V9Z"/>
  <path fill="#fff" fill-rule="evenodd" d="M18.763 13.872a7.406 7.406 0 0 1-.126-.014l-.062.007H18.5a2.133 2.133 0 0 0-1.07.313 2.25 2.25 0 0 0-.968 2.37 2.227 2.227 0 0 0 4.058.75c.02-.033.039-.067.057-.103l.05-.09h-.852a.075.075 0 0 0-.057.027 1.484 1.484 0 0 1-1.046.45 1.405 1.405 0 0 1-1.422-1.132.071.071 0 0 1 0-.032h3.5a2.83 2.83 0 0 0 0-.728 2.192 2.192 0 0 0-1.695-1.777 3.2 3.2 0 0 0-.292-.041Zm1.154 1.825H17.28a1.363 1.363 0 0 1 1.407-1.067c.578.03 1.23.567 1.23 1.067ZM9.49 13.87l-.082-.012h-.325l-.133.02a2.21 2.21 0 0 0-1.938 1.992.356.356 0 0 1-.012.055v.352a.13.13 0 0 1 .013.068c.03.193.077.384.137.57a2.145 2.145 0 0 0 2.02 1.435 2.11 2.11 0 0 0 1.777-.775 2.25 2.25 0 0 0-1.21-3.662c-.082-.017-.165-.03-.247-.043Zm1.168 1.925c.02.103.04.208.04.313a1.485 1.485 0 0 1-1.243 1.467 1.448 1.448 0 0 1-1.615-1.092 1.48 1.48 0 0 1 1.123-1.828 1.448 1.448 0 0 1 1.695 1.14Z"/>
  <path fill="#fff" d="m21.793 19.642.637-1.56a.125.125 0 0 0 0-.085l-1.732-4.134h.9v.032l1.25 3.06.02.04a.746.746 0 0 0 .032-.073l1.25-3.06H25c0 .023 0 .048-.02.073l-1.688 4.107a352.86 352.86 0 0 1-.657 1.6h-.843Zm-7.643-5.785c.112.02.227.03.338.058.69.13 1.242.652 1.41 1.335.044.185.065.375.062.565v2.535h-.81v-2.447c0-.176-.02-.351-.058-.523a.93.93 0 0 0-.75-.735 1.75 1.75 0 0 0-.75 0 .965.965 0 0 0-.795.84c-.022.144-.032.29-.032.435v2.432h-.808a.196.196 0 0 1 0-.037v-2.598a1.75 1.75 0 0 1 .62-1.37 1.97 1.97 0 0 1 1.118-.467l.075-.015.38-.008Z"/>
</svg>
