<svg id="Payment_Cards_Colors_Oney-LMES_32px" xmlns="http://www.w3.org/2000/svg" viewBox="0 0 32 32"><rect width="26.667" height="21.333" x="2.667" y="5.333" fill="#0B4448" rx="1"/><path fill="#fff" fill-rule="evenodd" d="M15.808 9.342l-.14-.015-.036-.024h-.07c-.336.01-.664.113-.946.297a2 2 0 00-.86 2.107 1.977 1.977 0 003.606.666c.02-.03.04-.065.058-.1a2.1 2.1 0 01.039-.07h-.757a.1.1 0 00-.053.027 1.307 1.307 0 01-.93.4 1.25 1.25 0 01-1.263-1v-.03h3.09c.03-.215.03-.432 0-.647a1.95 1.95 0 00-1.507-1.58 2.805 2.805 0 00-.231-.03zm.988 1.618h-2.32a1.21 1.21 0 011.23-.95c.513.027 1.09.513 1.09.95zM7.594 9.345l-.118-.018h-.3l-.104.015c-.07.01-.14.019-.206.035a1.967 1.967 0 00-1.53 1.74v.42c.03.172.075.341.133.506a1.91 1.91 0 001.797 1.277 1.883 1.883 0 001.58-.69 2 2 0 00-1.077-3.257 2.837 2.837 0 00-.175-.028zm.992 1.702c.017.092.029.186.036.28 0 .647-.465 1.201-1.103 1.313a1.287 1.287 0 01-1.437-.97 1.333 1.333 0 01.81-1.573 1.28 1.28 0 011.693.95z"/><path fill="#fff" d="M18.482 14.47c.194-.463.38-.927.567-1.39a.094.094 0 000-.073 955.996 955.996 0 00-1.537-3.667h.8a.094.094 0 000 .03l1.11 2.723a.211.211 0 00.02.034.651.651 0 00.027-.064c.14-.333.28-.687.42-1.023l.693-1.7h.754a.494.494 0 010 .067l-1.5 3.666-.587 1.42-.767-.023zm-6.79-5.143c.1.016.2.023.3.05.613.117 1.101.58 1.25 1.186.04.164.06.332.06.5v2.257h-.723v-2.19c0-.157-.017-.314-.05-.467a.82.82 0 00-.667-.65 1.47 1.47 0 00-.666 0 .85.85 0 00-.704.747 1.852 1.852 0 00-.03.383v2.164h-.72a.113.113 0 010-.034v-2.31c-.01-.468.193-.916.554-1.216a1.75 1.75 0 011-.417h.066l.33-.003z"/><path fill="#96E51F" d="M24 16l5.333 4.667v5a1 1 0 01-1 1H12L24 16z"/></svg>