<svg id="Store_Colors_StoreLocation-bm_24px" xmlns="http://www.w3.org/2000/svg" viewBox="0 0 24 24"><path fill="#fff" d="M7 5h10v8H7V5z"/><path fill-rule="evenodd" d="M12.707 21.707L11.999 21l-.678.735-.002-.002-.004-.004-.016-.015-.058-.054-.215-.205a45.077 45.077 0 01-3.103-3.31c-.863-1.023-1.758-2.192-2.475-3.378-.706-1.169-1.29-2.437-1.441-3.643C3.439 6.584 6.841 2 11.999 2c2.605 0 4.751 1.306 6.156 3.063 1.392 1.74 2.13 4.01 1.834 6.079-.155 1.086-.747 2.294-1.443 3.422-.712 1.154-1.602 2.332-2.46 3.382a57.083 57.083 0 01-3.301 3.682l-.057.058-.016.015-.004.004-.001.002zM11.999 21l.707.707a1 1 0 01-1.385.028l.678-.735zM8 8a.5.5 0 00-.353.854l4 4a.5.5 0 00.707 0l4-4A.5.5 0 0016 8H8z"/></svg>