<svg xmlns="http://www.w3.org/2000/svg" viewBox="0 0 48 48" aria-hidden="true"><defs><style>.cls-3{fill:#fff}</style></defs><g id="Icon"><path fill="#999" d="M40.5 20.51a16.5 16.5 0 10-33 0 13.26 13.26 0 001.35 5.27c.12.27.25.54.38.81.27.54.56 1.09.87 1.63a46.78 46.78 0 002.66 4.1c.59.81 1.19 1.61 1.81 2.38s1.24 1.54 1.86 2.27c.41.49.82 1 1.23 1.42 1.41 1.59 2.75 3 3.83 4.1l.85.86a2.34 2.34 0 003.32 0l.85-.86c1.08-1.1 2.41-2.51 3.83-4.1.4-.46.82-.93 1.23-1.42.62-.73 1.24-1.49 1.86-2.27s1.22-1.57 1.81-2.38a46.78 46.78 0 002.66-4.1c.31-.54.6-1.09.87-1.63.13-.27.26-.54.38-.81a13.26 13.26 0 001.35-5.27z"/><path d="M23 20.57l-8-4.75v8.36a2 2 0 001 1.72l7 4.17zM25 20.57v9.5l7-4.17a2 2 0 001-1.72v-8.36zM29 15.85l3-1.76-7-4.15a2 2 0 00-2 0l-1.92 1.14z" class="cls-3"/><polygon points="19.11 12.24 16 14.09 24 18.84 27.08 17.01 19.11 12.24" class="cls-3"/></g></svg>