<svg xmlns="http://www.w3.org/2000/svg" viewBox="0 0 24 24"><defs><style>.cls-3{fill:#fff}</style></defs><g id="Calque_5"><path fill="#191919" d="M12 2a8 8 0 00-8 8c0 4.16 6.54 10.94 7.29 11.7a1 1 0 001.42 0C13.46 20.94 20 14.16 20 10a8 8 0 00-8-8z"/><polygon points="11.5 14.5 11.5 10.38 8 8.1 8 12.22 11.5 14.5" class="cls-3"/><polygon points="12.5 14.5 16 12.22 16 8.1 12.5 10.38 12.5 14.5" class="cls-3"/><polygon points="14.35 8.01 15.6 7.17 12 4.77 10.7 5.64 14.35 8.01" class="cls-3"/><polygon points="9.79 6.25 8.4 7.17 12 9.57 13.44 8.61 9.79 6.25" class="cls-3"/></g></svg>