<svg xmlns="http://www.w3.org/2000/svg" viewBox="0 0 20 20">
  <path fill-rule="evenodd" d="M1.75 4.167a.75.75 0 0 1 .75-.75h15a.75.75 0 0 1 .75.75v11.666a.75.75 0 0 1-.75.75h-15a.75.75 0 0 1-.75-.75V4.167Zm1.5.75v10.166h13.5V4.916H3.25Zm2.903 4.75a2.014 2.014 0 0 0-.024.458h1.788a.5.5 0 0 1 0 1H6.47a1.998 1.998 0 0 0 2.916.426.5.5 0 0 1 .632.776 3 3 0 0 1-4.676-1.202H5a.5.5 0 1 1 0-1h.128a3.047 3.047 0 0 1 .015-.459H5a.5.5 0 1 1 0-1h.437A3 3 0 0 1 9.784 7.5a.5.5 0 1 1-.553.833 1.995 1.995 0 0 0-2.596.334h1.282a.5.5 0 0 1 0 1H6.153Zm5.514-1.834a.5.5 0 0 0-.5.5v3.333a.5.5 0 0 0 .5.5H15a.5.5 0 0 0 .5-.5V8.333a.5.5 0 0 0-.5-.5h-3.333Zm1.166 3.333h-.666V8.833h.666v2.333ZM14.5 9.5h-.667v-.667h.667V9.5Zm-.667 1h.667v.666h-.667V10.5Z"/>
</svg>
