<svg xmlns="http://www.w3.org/2000/svg" viewBox="0 0 20 20">
  <path fill-rule="evenodd" d="M10.5 2.75h.942c.104 0 .195.067.225.167a.25.25 0 0 1-.075.258l-.758.575.258.942a.266.266 0 0 1-.083.266.275.275 0 0 1-.134 0 .25.25 0 0 1-.133 0l-.758-.583-.759.583a.225.225 0 0 1-.266 0 .267.267 0 0 1-.084-.266l.292-.942-.742-.575a.25.25 0 0 1-.083-.258.233.233 0 0 1 .217-.167H9.5l.284-.933a.233.233 0 0 1 .433 0l.283.933Zm4.584 2.083h.941c.1.003.188.07.217.167a.25.25 0 0 1-.083.258l-.759.575.292.942a.266.266 0 0 1-.083.267.275.275 0 0 1-.134.041.25.25 0 0 1-.133-.041l-.758-.584-.759.584a.225.225 0 0 1-.266 0 .267.267 0 0 1-.084-.267l.292-.942-.758-.575A.25.25 0 0 1 12.925 5a.233.233 0 0 1 .217-.167h.942l.283-.933a.233.233 0 0 1 .433 0l.284.933Zm3.025 4.584h-.942l-.283-.934a.233.233 0 0 0-.434 0l-.283.934h-.942a.233.233 0 0 0-.216.166.25.25 0 0 0 .083.259l.758.575-.291.941c-.025.098.007.2.083.267.08.058.187.058.267 0l.758-.583.758.583a.25.25 0 0 0 .134.042.275.275 0 0 0 .133-.042.267.267 0 0 0 .083-.267l-.275-.941.759-.575a.25.25 0 0 0 .083-.259.233.233 0 0 0-.233-.166ZM15.084 14h.941c.1.003.188.07.217.167a.25.25 0 0 1-.083.258L15.4 15l.292.942a.266.266 0 0 1-.083.266.274.274 0 0 1-.134.042.25.25 0 0 1-.133-.042l-.758-.583-.759.583a.225.225 0 0 1-.266 0 .267.267 0 0 1-.084-.266l.292-.942-.758-.575a.25.25 0 0 1-.084-.258.233.233 0 0 1 .217-.167h.942l.283-.933a.233.233 0 0 1 .433 0l.284.933Zm-3.642 2.083H10.5l-.283-.933a.233.233 0 0 0-.433 0l-.284.933h-.94a.233.233 0 0 0-.217.167.25.25 0 0 0 .083.258l.759.575-.292.942c-.025.098.007.2.083.267.08.058.188.058.267 0l.758-.584.759.584a.25.25 0 0 0 .133.041.276.276 0 0 0 .133-.041.267.267 0 0 0 .084-.267l-.275-.942.758-.575a.25.25 0 0 0 .083-.258.234.234 0 0 0-.233-.167ZM5.917 14h.942c.1.003.188.07.216.167a.25.25 0 0 1-.083.258L6.234 15l.291.942a.267.267 0 0 1-.083.266.275.275 0 0 1-.133.042.25.25 0 0 1-.134-.042l-.758-.583-.758.583a.225.225 0 0 1-.267 0 .267.267 0 0 1-.083-.266L4.6 15l-.758-.575a.25.25 0 0 1-.083-.258.233.233 0 0 1 .216-.167h.942l.283-.933a.233.233 0 0 1 .434 0l.283.933ZM4.775 9.417h-.941l-.284-.934a.233.233 0 0 0-.433 0l-.283.934h-.942a.233.233 0 0 0-.217.166.25.25 0 0 0 .084.259l.741.575-.291.941c-.025.098.007.2.083.267.08.058.187.058.267 0l.758-.583.758.583a.25.25 0 0 0 .134.042.275.275 0 0 0 .15 0 .267.267 0 0 0 .083-.267l-.275-.983.758-.575A.25.25 0 0 0 5 9.583a.233.233 0 0 0-.225-.166Zm1.142-4.584h.942c.1.003.188.07.216.167a.25.25 0 0 1-.083.258l-.758.575.291.942a.267.267 0 0 1-.083.267.275.275 0 0 1-.133.041.25.25 0 0 1-.134-.041l-.758-.584-.758.584a.225.225 0 0 1-.267 0 .267.267 0 0 1-.083-.267l.291-.942-.758-.575A.25.25 0 0 1 3.759 5a.233.233 0 0 1 .216-.167h.942L5.2 3.9a.233.233 0 0 1 .434 0l.283.933Z"/>
</svg>
