<svg xmlns="http://www.w3.org/2000/svg" viewBox="0 0 20 20">
  <path fill-rule="evenodd" d="M10 1.75a3.247 3.247 0 0 0-2.773 1.554 3.247 3.247 0 0 0-3.06.862 3.247 3.247 0 0 0-.862 3.06A3.247 3.247 0 0 0 1.75 10c0 1.174.623 2.202 1.555 2.773a3.247 3.247 0 0 0 .861 3.06 3.247 3.247 0 0 0 3.06.862A3.247 3.247 0 0 0 10 18.25a3.247 3.247 0 0 0 2.773-1.555 3.247 3.247 0 0 0 3.06-.862 3.247 3.247 0 0 0 .862-3.06A3.247 3.247 0 0 0 18.25 10a3.247 3.247 0 0 0-1.555-2.773 3.247 3.247 0 0 0-.862-3.06 3.247 3.247 0 0 0-3.06-.862A3.247 3.247 0 0 0 10 1.75ZM8.331 4.47a1.751 1.751 0 0 1 3.338 0l.269.85.791-.41a1.751 1.751 0 0 1 2.36 2.36l-.41.792.85.27a1.751 1.751 0 0 1 0 3.337l-.85.269.41.791a1.751 1.751 0 0 1-2.36 2.36l-.791-.41-.27.85a1.751 1.751 0 0 1-3.337 0l-.269-.85-.792.41a1.751 1.751 0 0 1-2.36-2.36l.41-.791-.85-.27a1.751 1.751 0 0 1 .001-3.337l.85-.269-.41-.792a1.751 1.751 0 0 1 2.36-2.36l.791.411.27-.85Zm4.491 4.394a.75.75 0 1 0-1.06-1.061l-2.421 2.42-1.139-.996a.75.75 0 0 0-.988 1.13l1.667 1.457a.75.75 0 0 0 1.024-.034l2.917-2.916Z"/>
</svg>
