<svg xmlns="http://www.w3.org/2000/svg" viewBox="0 0 20 20">
  <g clip-path="url(#a)">
    <path fill-rule="evenodd" d="M2.5 1.75a.75.75 0 0 0-.75.75v11.667c0 .414.336.75.75.75h6.75v1.833H5.833a.75.75 0 0 0 0 1.5h8.334a.75.75 0 0 0 0-1.5H10.75v-1.833h6.75a.75.75 0 0 0 .75-.75V2.5a.75.75 0 0 0-.75-.75h-15ZM10 13.417h6.75V9.083H3.25v4.334H10Zm6.75-5.834H3.25V3.25h13.5v4.333ZM5.417 4.667a.75.75 0 1 0 0 1.5h1.666a.75.75 0 1 0 0-1.5H5.417Zm0 5.833a.75.75 0 0 0 0 1.5h1.666a.75.75 0 0 0 0-1.5H5.417Z"/>
  </g>
  <defs>
    <clipPath id="a">
      <rect width="20" height="20" fill="#fff"/>
    </clipPath>
  </defs>
</svg>
