<svg xmlns="http://www.w3.org/2000/svg" viewBox="0 0 20 20">
  <g clip-path="url(#a)">
    <path fill-rule="evenodd" d="M12.388 4.372a.75.75 0 1 0-1.443-.412L7.612 15.627a.75.75 0 0 0 1.442.412l3.334-11.667ZM5.53 6.97a.75.75 0 0 1 0 1.06L3.56 10l1.97 1.97a.75.75 0 0 1-1.06 1.06l-2.5-2.5a.75.75 0 0 1 0-1.06l2.5-2.5a.75.75 0 0 1 1.06 0Zm8.94 0a.75.75 0 0 1 1.06 0l2.5 2.5a.75.75 0 0 1 0 1.06l-2.5 2.5a.75.75 0 1 1-1.06-1.06L16.44 10l-1.97-1.97a.75.75 0 0 1 0-1.06Z"/>
  </g>
  <defs>
    <clipPath id="a">
      <rect width="20" height="20" fill="#fff"/>
    </clipPath>
  </defs>
</svg>
