<svg xmlns="http://www.w3.org/2000/svg" viewBox="0 0 20 20">
  <g clip-path="url(#a)">
    <path fill-rule="evenodd" d="M10 1.75a.75.75 0 0 1 .75.75v6.667a.75.75 0 0 1-1.5 0V2.5a.75.75 0 0 1 .75-.75ZM7.29 4.584a.75.75 0 0 1-.207 1.04c-1.168.779-3 2.457-3 5.21 0 2.788 2.239 5.916 5.917 5.916 3.679 0 5.917-3.128 5.917-5.917 0-2.752-1.831-4.43-3-5.209a.75.75 0 1 1 .832-1.248c1.332.888 3.668 2.96 3.668 6.457 0 3.462-2.762 7.417-7.417 7.417-4.655 0-7.417-3.955-7.417-7.417 0-3.497 2.336-5.57 3.668-6.457a.75.75 0 0 1 1.04.208Z"/>
  </g>
  <defs>
    <clipPath id="a">
      <rect width="20" height="20" fill="#fff"/>
    </clipPath>
  </defs>
</svg>
