<svg xmlns="http://www.w3.org/2000/svg" viewBox="0 0 20 20">
  <path fill-rule="evenodd" d="M6.964 1.705a.5.5 0 0 1 .706.05c.301.349.351.764.323 1.123-.027.337-.129.691-.214.986l-.007.025c-.094.325-.167.586-.185.812-.017.214.023.32.083.388a.5.5 0 0 1-.756.655c-.302-.348-.352-.763-.324-1.122.027-.338.129-.692.214-.987l.007-.024c.094-.325.167-.586.185-.812.017-.214-.023-.32-.082-.388a.5.5 0 0 1 .05-.706ZM5 9.083a.917.917 0 0 0-.917.917v5.833a.917.917 0 0 0 1.834 0V10A.917.917 0 0 0 5 9.083Zm0-1.5A2.417 2.417 0 0 0 2.583 10v5.833a2.417 2.417 0 0 0 4.084 1.75 2.41 2.41 0 0 0 3.333 0 2.41 2.41 0 0 0 1.667.667c.646 0 1.233-.254 1.666-.667a2.417 2.417 0 0 0 4.083-1.75v-2.585a1.75 1.75 0 0 0 0-3.163V10a2.417 2.417 0 0 0-4.083-1.75 2.409 2.409 0 0 0-1.666-.667A2.41 2.41 0 0 0 10 8.25a2.408 2.408 0 0 0-1.667-.667c-.646 0-1.233.254-1.666.667A2.408 2.408 0 0 0 5 7.583Zm10.917 2.502V10a.917.917 0 0 0-1.834 0v5.833a.917.917 0 0 0 1.834 0v-2.585a1.75 1.75 0 0 1 0-3.163ZM12.583 10v5.833a.917.917 0 0 1-1.833 0V10a.917.917 0 0 1 1.833 0ZM9.25 10a.917.917 0 0 0-1.833 0v5.833a.917.917 0 0 0 1.833 0v-5.832Zm1.336-8.244a.5.5 0 1 0-.756.655c.06.068.1.174.083.388-.018.226-.091.487-.185.812l-.007.024c-.085.295-.188.65-.214.987-.028.359.022.774.323 1.122a.5.5 0 0 0 .756-.655c-.06-.068-.1-.174-.082-.388.018-.226.09-.487.185-.812l.007-.025c.085-.295.187-.649.214-.986.028-.359-.022-.774-.324-1.122Zm2.212-.05a.5.5 0 0 1 .705.05c.301.348.352.763.323 1.122-.026.337-.129.691-.214.986l-.007.025c-.094.325-.167.586-.185.812-.017.214.024.32.083.388a.5.5 0 1 1-.756.655c-.302-.348-.352-.763-.323-1.122.026-.338.128-.692.213-.987l.008-.024c.093-.325.167-.586.184-.812.017-.214-.023-.32-.082-.388a.5.5 0 0 1 .05-.706Zm3.119 9.96a.75.75 0 1 1 1.5 0 .75.75 0 0 1-1.5 0Z"/>
</svg>
