<svg xmlns="http://www.w3.org/2000/svg" viewBox="0 0 20 20">
  <g clip-path="url(#a)">
    <path fill-rule="evenodd" d="M3.417 4.167a.75.75 0 0 1 .75-.75h11.666a.75.75 0 0 1 .75.75v11.666a.75.75 0 0 1-.75.75H4.167a.75.75 0 0 1-.75-.75V4.167Zm1.5.75v10.166h10.166V4.917H4.917ZM9.5 10a.5.5 0 0 1 .5-.5h2.5a.5.5 0 0 1 0 1H10a.5.5 0 0 1-.5-.5Zm.5-3a.5.5 0 0 0 0 1h2.5a.5.5 0 0 0 0-1H10Zm-.5 5.5a.5.5 0 0 1 .5-.5h2.5a.5.5 0 1 1 0 1H10a.5.5 0 0 1-.5-.5Zm-2-4.167a.833.833 0 1 0 0-1.666.833.833 0 0 0 0 1.666ZM8.333 10a.833.833 0 1 1-1.666 0 .833.833 0 0 1 1.666 0ZM7.5 13.333a.833.833 0 1 0 0-1.666.833.833 0 0 0 0 1.666Z"/>
  </g>
  <defs>
    <clipPath id="a">
      <rect width="20" height="20" fill="#fff"/>
    </clipPath>
  </defs>
</svg>
