<svg xmlns="http://www.w3.org/2000/svg" viewBox="0 0 24 24"><path fill="#222020" d="M12 6L3.2 4.24a1 1 0 0 0-1.2 1v12a1 1 0 0 0 .8 1L11.61 20a2 2 0 0 0 .78 0l8.81-1.76a1 1 0 0 0 .8-1v-12a1 1 0 0 0-1.2-1zm-8 .44l7 1.4v9.92l-7-1.4zm16 9.92l-7 1.4V7.84l7-1.4z"/><path d="M5.4 9.59l4 .8h.1a.5.5 0 0 0 .1-1l-4-.8a.5.5 0 0 0-.2 1zM9.6 11.91l-4-.8a.5.5 0 0 0-.2 1l4 .8h.1a.5.5 0 0 0 .1-1zM9.6 14.41l-4-.8A.49.49 0 0 0 5 14a.5.5 0 0 0 .39.59l4 .8h.1a.5.5 0 0 0 .1-1zM14.5 10.4h.1l4-.8a.5.5 0 0 0-.2-1l-4 .8a.5.5 0 0 0 .1 1zM14.5 12.9h.1l4-.8a.5.5 0 0 0-.2-1l-4 .8a.5.5 0 0 0 .1 1zM16.4 14l-2 .4a.5.5 0 0 0 .1 1h.1l2-.4a.5.5 0 0 0-.2-1z"/></svg>