<svg xmlns="http://www.w3.org/2000/svg" viewBox="0 0 48 48"><path fill="#222020" d="M22.89 7a1.92 1.92 0 00-1.45.66L11 15.93H7a2 2 0 00-2 2v12.1a2 2 0 002 2h4l10.47 8.27a1.92 1.92 0 001.45.66 2 2 0 002-2V9a2 2 0 00-2.03-2zm-1 29.88l-9.07-7.17a3 3 0 00-1.82-.64H8V18.93h3a3 3 0 001.86-.64l9.07-7.17z"/><path d="M29.38 9a1 1 0 100 2C37.41 11 41 17.53 41 24s-3.59 13-11.62 13a1 1 0 100 2C38.74 39 43 31.22 43 24S38.74 9 29.38 9z"/><path d="M29.38 30a1 1 0 100 2c5 0 7.31-4.15 7.31-8s-2.29-8-7.31-8a1 1 0 100 2c3.92 0 5.31 3.23 5.31 6s-1.39 6-5.31 6z"/></svg>