<svg xmlns="http://www.w3.org/2000/svg" viewBox="0 0 24 24"><path fill="#222020" d="M17.59 18.59H6.41a1 1 0 0 1-1-1V6.41a1 1 0 0 1 1-1h11.18a1 1 0 0 1 1 1v11.18a1 1 0 0 1-1 1zm-10.18-2h9.18V7.41H7.41z"/><path d="M3 8.39a1 1 0 0 1-1-1V3a1 1 0 0 1 1-1h4.38a1 1 0 0 1 0 2H4v3.39a1 1 0 0 1-1 1zM21 8.38a1 1 0 0 1-1-1V4h-3.38a1 1 0 1 1 0-2H21a1 1 0 0 1 1 1v4.38a1 1 0 0 1-1 1zM7.38 22H3a1 1 0 0 1-1-1v-4.39a1 1 0 0 1 2 0V20h3.38a1 1 0 1 1 0 2zM22 21a1 1 0 0 1-1 1h-4.38a1 1 0 0 1 0-2H20v-3.38a1 1 0 1 1 2 0z"/></svg>