<svg xmlns="http://www.w3.org/2000/svg" viewBox="0 0 32 32"><path fill="#222020" d="M17 16.17a1 1 0 0 0 0-.17V6a1 1 0 0 0-2 0v10a1 1 0 0 0 0 .17 3 3 0 0 0 0 5.65V26a1 1 0 0 0 2 0v-4.18a3 3 0 0 0 0-5.65zM16 20a1 1 0 1 1 1-1 1 1 0 0 1-1 1z"/><path d="M28 16a3 3 0 0 0-2-2.82V6a1 1 0 0 0-2 0v7.18a3 3 0 0 0 0 5.64V26a1 1 0 0 0 2 0v-7.18A3 3 0 0 0 28 16zm-3 1a1 1 0 1 1 1-1 1 1 0 0 1-1 1zM8 10.17A1 1 0 0 0 8 10V6a1 1 0 0 0-2 0v4a1 1 0 0 0 0 .17 3 3 0 0 0 0 5.66.86.86 0 0 0 0 .17v10a1 1 0 0 0 1 1 1 1 0 0 0 1-1V16a1 1 0 0 0 0-.17 3 3 0 0 0 0-5.66zM7 14a1 1 0 1 1 1-1 1 1 0 0 1-1 1z"/></svg>