<svg xmlns="http://www.w3.org/2000/svg" viewBox="0 0 48 48"><path fill="#222020" d="M37.91 17.52V9a2 2 0 0 0-2-2h-8.63a1 1 0 0 0-.93 1.33 3.51 3.51 0 0 1 .2 1.17 4 4 0 0 1-.05.5 3.47 3.47 0 0 1-6.88 0 4 4 0 0 1-.05-.5 3.51 3.51 0 0 1 .2-1.17A1 1 0 0 0 18.84 7H9a2 2 0 0 0-2 2v10.75a1 1 0 0 0 1.32 1 3.32 3.32 0 0 1 1.23-.23h.44a3.49 3.49 0 0 1 0 6.92h-.44a3.32 3.32 0 0 1-1.23-.23 1 1 0 0 0-1.32 1V39a2 2 0 0 0 2 2h9.85a1 1 0 0 0 .93-1.33 3.46 3.46 0 0 1-.2-1.17 4.23 4.23 0 0 1 .05-.5 3.47 3.47 0 0 1 6.88 0 4.23 4.23 0 0 1 .05.5 3.46 3.46 0 0 1-.2 1.17 1 1 0 0 0 .92 1.33h8.64a2 2 0 0 0 2-2v-8.52a6.49 6.49 0 0 0 0-13zm-28.56 0zm28.17 0h.23a3.53 3.53 0 0 0-.46 0zm-8-8.17v.48c.01-.18.02-.34.01-.5zm-12.94 0V9.52a1 1 0 0 1 .01-.19zm-7 21.17zm7 8.17a.91.91 0 0 1 0-.17v-.31c.01.14 0 .3.01.46zm12.94 0a3.85 3.85 0 0 0 0-.48v.31c0 .1.01.1.01.15zm8-8.17h-.23.46zm.39-3h-.39a3.49 3.49 0 0 1-1.26-.24 1 1 0 0 0-1.34 1V38h-5.4a6.48 6.48 0 0 0-12.92 0H10v-7.52a6.5 6.5 0 0 0 0-13V10h6.6a6.48 6.48 0 0 0 12.92 0h5.4v9.76a1 1 0 0 0 1.34 1 3.48 3.48 0 0 1 1.26-.23 2.58 2.58 0 0 1 .39 0 3.48 3.48 0 0 1 0 6.92z"/></svg>