<svg xmlns="http://www.w3.org/2000/svg" viewBox="0 0 32 32"><path fill="#222020" d="M12.75 25.18a.91.91 0 1 1-.91.91.91.91 0 0 1 .91-.91m0-2a2.91 2.91 0 1 0 2.91 2.91 2.91 2.91 0 0 0-2.91-2.91z"/><path d="M21.17 25.18a.91.91 0 1 1-.91.91.91.91 0 0 1 .91-.91m0-2a2.91 2.91 0 1 0 2.91 2.91 2.91 2.91 0 0 0-2.91-2.91zM29 9a4 4 0 0 0-8-.11H8.74l-.86-3.15a1 1 0 0 0-1-.74H4a1 1 0 0 0 0 2h2.15l3.69 13.52a1 1 0 0 0 1 .74h12.27a1 1 0 0 0 .94-.65l3.09-8.24A4 4 0 0 0 29 9zm-4-3a3 3 0 0 1 3 3 2.76 2.76 0 0 1-.06.57 2.5 2.5 0 0 1-.07.26c0 .09-.05.18-.08.26l-.12.25a1.71 1.71 0 0 1-.13.23 1.88 1.88 0 0 1-.16.23l-.15.19-.21.22-.15.12-.28.21h-.06a3.1 3.1 0 0 1-1.38.42H25a3 3 0 0 1-2.32-1.12 3.19 3.19 0 0 1-.26-.38.2.2 0 0 1 0-.08 2.42 2.42 0 0 1-.18-.36l-.06-.21c0-.1-.06-.19-.08-.29A2.6 2.6 0 0 1 22 9a3 3 0 0 1 3-3zm-2.58 13.26H11.57l-2.29-8.37h12.21A4 4 0 0 0 24.77 13z"/><path d="M23.5 9.5h1v1a.5.5 0 0 0 1 0v-1h1a.5.5 0 0 0 0-1h-1v-1a.5.5 0 0 0-1 0v1h-1a.5.5 0 0 0 0 1z"/></svg>