<svg xmlns="http://www.w3.org/2000/svg" viewBox="0 0 48 48"><path fill="#222020" d="M36 4H12a2 2 0 0 0-2 2v36a2 2 0 0 0 2 2h24a2 2 0 0 0 2-2V6a2 2 0 0 0-2-2zm-1 3v23.68h-1.46l-4.84-9.81a1 1 0 0 0-.87-.56 1 1 0 0 0-.89.51l-2.86 5-4.68-9.74a1 1 0 0 0-.85-.57 1 1 0 0 0-.9.49L13 23.73V7zM13 27.61l5.4-9 4.7 9.83a1 1 0 0 0 .9.56 1 1 0 0 0 .9-.5l2.87-5.06 3.57 7.23H13zM13 41v-7.32h22V41z"/><path d="M29.7 15.71a3.5 3.5 0 1 0-3.5-3.5 3.5 3.5 0 0 0 3.5 3.5zm0-5a1.5 1.5 0 1 1-1.5 1.5 1.5 1.5 0 0 1 1.5-1.5z"/></svg>