<svg xmlns="http://www.w3.org/2000/svg" viewBox="0 0 32 32"><path fill="#222020" d="M27 3H5a2 2 0 0 0-2 2v22a2 2 0 0 0 2 2h22a2 2 0 0 0 2-2V5a2 2 0 0 0-2-2zm0 24H5V5h22z"/><path d="M9.12 12.41h4.59a1 1 0 0 0 0-2H9.12a1 1 0 0 0 0 2zM18.29 12.41h1.3v1.3a1 1 0 0 0 2 0v-1.3h1.29a1 1 0 0 0 0-2h-1.29V9.12a1 1 0 0 0-2 0v1.29h-1.3a1 1 0 0 0 0 2zM18.29 21.59h4.59a1 1 0 0 0 0-2h-4.59a1 1 0 0 0 0 2zM14.22 17.78a1 1 0 0 0-1.41 0l-1.4 1.39L10 17.78a1 1 0 0 0-1.42 0 1 1 0 0 0 0 1.41l1.4 1.4L8.6 22a1 1 0 0 0 0 1.42 1 1 0 0 0 1.42 0L11.41 22l1.4 1.4a1 1 0 0 0 1.41-1.4l-1.39-1.39 1.39-1.4a1 1 0 0 0 0-1.43zM21.14 17.17a.56.56 0 0 0-.17-.09.6.6 0 0 0-.19-.06.86.86 0 0 0-.39 0l-.18.06a.76.76 0 0 0-.18.09 1.58 1.58 0 0 0-.15.12 1.05 1.05 0 0 0-.29.71 1 1 0 0 0 .07.38 1.19 1.19 0 0 0 .22.33 1.15 1.15 0 0 0 .33.21 1 1 0 0 0 1.38-.92 1 1 0 0 0-.3-.71.61.61 0 0 0-.15-.12zM21.14 22.37a.56.56 0 0 0-.17-.09.6.6 0 0 0-.19-.06.86.86 0 0 0-.39 0 .64.64 0 0 0-.18.06.93.93 0 0 0-.33.21 1.05 1.05 0 0 0-.29.71 1 1 0 0 0 .07.38 1.19 1.19 0 0 0 .22.33 1.15 1.15 0 0 0 .33.21 1 1 0 0 0 .38.08 1 1 0 0 0 .7-.29 1 1 0 0 0 .3-.71 1 1 0 0 0-.3-.71.61.61 0 0 0-.15-.12z"/></svg>