<svg xmlns="http://www.w3.org/2000/svg" viewBox="0 0 48 48"><path fill="#222020" d="M17.7 44a2 2 0 01-1.11-.34c-1.08-.72-4.41-3.29-4.19-7.4A17 17 0 0110 33.4l-2.58.78a2 2 0 01-2.54-1.51c-.26-1.28-.79-5.45 2.27-8.2a16.83 16.83 0 01.31-3.74l-2.4-1.27a2 2 0 01-1-1.28 1.94 1.94 0 01.28-1.59c.72-1.08 3.25-4.41 7.4-4.19A17 17 0 0114.6 10l-.78-2.6a2 2 0 011.51-2.54c1.28-.26 5.45-.79 8.2 2.27a16.83 16.83 0 013.74.31l1.27-2.38a2 2 0 011.28-1 1.94 1.94 0 011.59.28c1.08.72 4.41 3.29 4.19 7.4A17 17 0 0138 14.6l2.58-.78a2 2 0 012.54 1.51c.26 1.28.79 5.45-2.27 8.2a16.83 16.83 0 01-.31 3.74l2.38 1.27a2 2 0 011 1.28 1.94 1.94 0 01-.28 1.59c-.72 1.08-3.29 4.42-7.4 4.19A17 17 0 0133.4 38l.78 2.58a2 2 0 01-1.51 2.54c-1.28.26-5.45.79-8.2-2.27a16.83 16.83 0 01-3.74-.31l-1.27 2.38a2 2 0 01-1.28 1 2 2 0 01-.48.08zm-.89-2.47zm1.45-.36zm-6.9-11.33l.59 1a13.63 13.63 0 003 3.64l.65.55-.14.84a5 5 0 001.91 4.58l1.82-3.42 1.16.31a13.55 13.55 0 004.69.46l.85-.06.49.69A5 5 0 0031 40.35l-1.13-3.71 1-.59a13.63 13.63 0 003.64-3l.55-.65.84.14a5 5 0 004.58-1.91l-3.42-1.82.31-1.16a13.55 13.55 0 00.47-4.65l-.06-.85.69-.49A5 5 0 0040.35 17l-3.71 1.13-.59-1a13.63 13.63 0 00-3-3.64l-.65-.55.14-.84a5 5 0 00-1.91-4.58l-1.82 3.42-1.16-.31a13.55 13.55 0 00-4.65-.47l-.85.06-.49-.69A5 5 0 0017 7.65l1.13 3.71-1 .59a13.63 13.63 0 00-3.64 3l-.55.65-.84-.14a5 5 0 00-4.58 1.91l3.42 1.82-.31 1.16a13.55 13.55 0 00-.47 4.65l.06.85-.69.49A5 5 0 007.65 31zm30.17 1.35zm-.36-1.45zM6.83 18.26zm-.36-1.45zm23.27-10zm1.45-.36z"/><path d="M24 35a11 11 0 1111-11 11 11 0 01-11 11zm0-20a9 9 0 109 9 9 9 0 00-9-9z"/><path d="M24 28a4 4 0 114-4 4 4 0 01-4 4zm0-6a2 2 0 102 2 2 2 0 00-2-2z"/></svg>