<svg xmlns="http://www.w3.org/2000/svg" viewBox="0 0 48 48"><path fill="#222020" d="M43.41 40.61l-36-36A1.92 1.92 0 0 0 6 4a2 2 0 0 0-2 2v36a2 2 0 0 0 2 2h36a2 2 0 0 0 1.41-3.39zM7 41V8.44l6.65 6.64-1.83 1.84a1 1 0 0 0 0 1.41 1 1 0 0 0 .7.29 1 1 0 0 0 .71-.29l1.83-1.83 3 3.05-1.83 1.83a1 1 0 0 0 0 1.41 1 1 0 0 0 1.41 0L19.53 21l3 3.05-1.84 1.83a1 1 0 0 0 0 1.42 1 1 0 0 0 1.42 0L24 25.42l3.05 3-1.83 1.84a1 1 0 0 0 0 1.41 1 1 0 0 0 .7.29 1 1 0 0 0 .71-.29l1.83-1.83 3.05 3-1.83 1.83a1 1 0 0 0 .71 1.71 1 1 0 0 0 .7-.3l1.84-1.83L39.56 41z"/><path d="M13 25.17a.58.58 0 0 0-.4-.17.59.59 0 0 0-.6.59v9.82a.58.58 0 0 0 .59.59h9.82a.59.59 0 0 0 .42-1zM14 34v-5l5 5z"/></svg>