<svg xmlns="http://www.w3.org/2000/svg" viewBox="0 0 24 24"><path fill="#222020" d="M21.71 20.3l-18-18A1 1 0 0 0 2 3v18a1 1 0 0 0 1 1h18a1 1 0 0 0 .71-1.7zM4 20V5.42l2.47 2.47-.86.87a.5.5 0 0 0 .39.85.47.47 0 0 0 .35-.15l.87-.86 1.48 1.53-.86.87a.5.5 0 0 0 0 .71.52.52 0 0 0 .71 0l.86-.87 1.52 1.53-.86.86a.51.51 0 0 0 0 .71.5.5 0 0 0 .35.15.51.51 0 0 0 .36-.15l.86-.86 1.53 1.52-.87.86a.51.51 0 0 0 0 .71.51.51 0 0 0 .36.15.5.5 0 0 0 .35-.15l.86-.86 1.53 1.52-.86.87a.48.48 0 0 0 0 .7.47.47 0 0 0 .35.15.49.49 0 0 0 .35-.15l.86-.86L18.58 20z"/><path d="M6.51 12.59a.32.32 0 0 0-.21-.09.3.3 0 0 0-.3.3v4.9a.29.29 0 0 0 .3.3h4.9a.3.3 0 0 0 .21-.51zM7 17v-2.5L9.5 17z"/></svg>