<svg xmlns="http://www.w3.org/2000/svg" viewBox="0 0 48 48"><path fill="#222020" d="M24 9a1 1 0 00-1 1v3.59l-1.71 1.71a1 1 0 000 1.41 1 1 0 001.42 0l2-2A1 1 0 0025 14v-4a1 1 0 00-1-1z"/><path d="M24 4a10 10 0 1010 10A10 10 0 0024 4zm1 17.93V21a1 1 0 10-2 0v.93A8 8 0 0116.07 15H17a1 1 0 000-2h-.93A8 8 0 0123 6.06V7a1 1 0 102 0v-.94A8 8 0 0131.93 13H31a1 1 0 000 2h.93A8 8 0 0125 21.92zM43.64 32.32a4.16 4.16 0 00-5.37-2.21L33 32.24A4 4 0 0029 29H18.86a18.75 18.75 0 00-8.28 2l-2.75 1.31A1.5 1.5 0 009.17 35l2.74-1.35a15.7 15.7 0 017-1.63H29a1 1 0 010 2h-5.82a1.5 1.5 0 000 3H29A4 4 0 0031.72 36l7.67-3.07a1.18 1.18 0 011.51.63 1.28 1.28 0 010 1 1.2 1.2 0 01-.66.65l-13.77 5.43a3.89 3.89 0 01-1.65.36h-8.64a1.5 1.5 0 000 3h8.64a6.81 6.81 0 002.83-.61l13.71-5.48a4.2 4.2 0 002.28-5.59z"/></svg>