<svg xmlns="http://www.w3.org/2000/svg" viewBox="0 0 48 48"><path fill="#222020" d="M12 21.66h2.51a3.84 3.84 0 0 0 7.06 0h4.75a3.83 3.83 0 0 0 7.05 0H36a2 2 0 0 0 2-2v-6.48a2 2 0 0 0-2-2h-.2l-.31-2.46A2 2 0 0 0 33.5 7h-4.09V6a2 2 0 0 0-2-2H12a2 2 0 0 0-2 2v13.66a2 2 0 0 0 2 2zm6 .33a1.83 1.83 0 1 1 1.84-1.83A1.83 1.83 0 0 1 18.06 22zm11.8 0a1.83 1.83 0 1 1 1.84-1.83A1.83 1.83 0 0 1 29.86 22zM13 7h13.41v5.74a1.5 1.5 0 0 0 3 0V10h3.22l.54 4.2H35v4.49h-1.61a3.83 3.83 0 0 0-7 0h-4.8a3.84 3.84 0 0 0-7.06 0H13z"/><path d="M43.64 32.32a4.16 4.16 0 0 0-5.37-2.21L33 32.24A4 4 0 0 0 29 29H18.86a18.75 18.75 0 0 0-8.28 2l-2.75 1.31A1.5 1.5 0 0 0 9.17 35l2.74-1.35a15.7 15.7 0 0 1 7-1.63H29a1 1 0 0 1 0 2h-5.82a1.5 1.5 0 0 0 0 3H29A4 4 0 0 0 31.72 36l7.67-3.07a1.18 1.18 0 0 1 1.51.63 1.28 1.28 0 0 1 0 1 1.2 1.2 0 0 1-.66.65l-13.77 5.43a3.89 3.89 0 0 1-1.65.36h-8.64a1.5 1.5 0 0 0 0 3h8.64a6.81 6.81 0 0 0 2.83-.61l13.71-5.48a4.2 4.2 0 0 0 2.28-5.59z"/></svg>