<svg xmlns="http://www.w3.org/2000/svg" viewBox="0 0 32 32"><path fill="#222020" d="M28 17.25h-.85l-2.65-6.82 3.34.56H28a1 1 0 0 0 .16-2L19 7.48a3 3 0 0 0-2-2.3V4a1 1 0 0 0-2 0v1.18a3 3 0 0 0-1.61 1.37L4.16 5a1 1 0 0 0-.32 2l3.79.63-2.78 7.12H4a1 1 0 0 0-1 1 5.5 5.5 0 0 0 11 0 1 1 0 0 0-1-1h-.85L9.5 7.93l3.55.59a3 3 0 0 0 1.95 2.3V27h-4a1 1 0 0 0 0 2h10a1 1 0 0 0 0-2h-4V10.82a3 3 0 0 0 1.61-1.37l4 .67-2.78 7.13H19a1 1 0 0 0-1 1 5.5 5.5 0 0 0 11 0 1 1 0 0 0-1-1zm-19.5 2a3.51 3.51 0 0 1-3.35-2.5h6.7a3.51 3.51 0 0 1-3.35 2.5zm-2.58-4.5L8.5 8.13l2.58 6.62zM16 7a1 1 0 1 1-1 1 1 1 0 0 1 1-1zm7.5 3.63l2.58 6.62h-5.16zm0 11.12a3.51 3.51 0 0 1-3.35-2.5h6.7a3.51 3.51 0 0 1-3.35 2.5z"/></svg>