<svg xmlns="http://www.w3.org/2000/svg" viewBox="0 0 32 32"><path d="M14.52 18.23l3.84-2.22-3.84-2.22v4.44z"/><path fill="#222020" d="M25 5H7a2 2 0 0 0-2 2v18a2 2 0 0 0 2 2h18a2 2 0 0 0 2-2V7a2 2 0 0 0-2-2zm-1.91 14.57a1.85 1.85 0 0 1-1.31 1.3 44.06 44.06 0 0 1-5.78.31 44.14 44.14 0 0 1-5.78-.31 1.89 1.89 0 0 1-1.31-1.3 19.86 19.86 0 0 1-.3-3.57 19.8 19.8 0 0 1 .3-3.56 1.88 1.88 0 0 1 1.31-1.31 44.14 44.14 0 0 1 5.78-.3 44.06 44.06 0 0 1 5.78.31 1.85 1.85 0 0 1 1.31 1.31A19.17 19.17 0 0 1 23.4 16a19.23 19.23 0 0 1-.31 3.57z"/></svg>