<svg xmlns="http://www.w3.org/2000/svg" viewBox="0 0 32 32"><path fill="#222020" d="M22.4 14.1v-1a7.52 7.52 0 0 0-.1-1.08 4.51 4.51 0 0 0-.19-.75 2.74 2.74 0 0 0-.61-.92 2.69 2.69 0 0 0-.92-.61 4.09 4.09 0 0 0-.75-.19 7.52 7.52 0 0 0-1.08-.11H12.9a7.22 7.22 0 0 0-1.08.11 3.7 3.7 0 0 0-.75.19 2.78 2.78 0 0 0-1.53 1.53 3.7 3.7 0 0 0-.19.75 7.37 7.37 0 0 0-.11 1.08V18.91a7.52 7.52 0 0 0 .1 1.09 4.09 4.09 0 0 0 .19.75 2.69 2.69 0 0 0 .61.92 2.74 2.74 0 0 0 .92.61 4.51 4.51 0 0 0 .75.19 7.38 7.38 0 0 0 1.08.1H18.7a7.67 7.67 0 0 0 1.08-.1 5.09 5.09 0 0 0 .75-.19 2.78 2.78 0 0 0 1.53-1.53 5.09 5.09 0 0 0 .19-.75 7.67 7.67 0 0 0 .1-1.08v-1-2.72c.06-.48.06-.85.05-1.1zm-3.68 4.82a4.13 4.13 0 0 1-5.84 0 4.15 4.15 0 0 1 0-5.84 4.15 4.15 0 0 1 5.84 0 4.13 4.13 0 0 1 0 5.84zm2.06-6.53a.93.93 0 0 1-.68.28.9.9 0 0 1-.68-.28.94.94 0 0 1 0-1.36.9.9 0 0 1 .68-.28.93.93 0 0 1 .68.28 1 1 0 0 1 0 1.36z"/><path d="M15.8 13.32A2.7 2.7 0 0 0 13.12 16a2.68 2.68 0 0 0 2.68 2.68A2.66 2.66 0 0 0 18.48 16a2.68 2.68 0 0 0-2.68-2.68z"/><path d="M25 5H7a2 2 0 0 0-2 2v18a2 2 0 0 0 2 2h18a2 2 0 0 0 2-2V7a2 2 0 0 0-2-2zm-1.21 14.32a4.88 4.88 0 0 1-1.3 3.37A4.88 4.88 0 0 1 19.12 24c-.61 0-1.72.06-3.32.06s-2.7 0-3.32-.06a4.9 4.9 0 0 1-3.37-1.3 4.93 4.93 0 0 1-1.3-3.37v-3.32-3.32a5 5 0 0 1 1.3-3.37A5 5 0 0 1 12.48 8h6.64a4.93 4.93 0 0 1 3.37 1.3 4.9 4.9 0 0 1 1.3 3.37c0 .62.05 1.72.05 3.32s-.01 2.72-.05 3.33z"/></svg>