<svg xmlns="http://www.w3.org/2000/svg" viewBox="0 0 64 64"><path fill="#222020" d="M55 11v42a2 2 0 01-2 2H11a2 2 0 01-2-2V11a2 2 0 012-2h42a2 2 0 012 2zm-7.67 12.44a13.53 13.53 0 01-3.62 1A6.09 6.09 0 0046.49 21a12.39 12.39 0 01-4 1.53 6 6 0 00-4.58-2 6.28 6.28 0 00-6.29 6.29 5.78 5.78 0 00.15 1.44 17.83 17.83 0 01-7.25-1.95 18 18 0 01-5.75-4.64 6.2 6.2 0 00-.87 3.17 5.91 5.91 0 002.73 5.24 7.49 7.49 0 01-3-.77 6 6 0 001.49 4 6.29 6.29 0 003.69 2.17 5.85 5.85 0 01-1.53.24 8.45 8.45 0 01-1.17-.12 6.39 6.39 0 002.23 3.12A6 6 0 0026 40a12.47 12.47 0 01-7.82 2.69 11.93 11.93 0 01-1.49-.09 17.61 17.61 0 009.64 2.82 18.3 18.3 0 006.29-1.07 16 16 0 005-2.84 19.08 19.08 0 003.61-4.1 18.32 18.32 0 003-9.9 8 8 0 000-.81 12.32 12.32 0 003.1-3.26z"/></svg>