<svg xmlns="http://www.w3.org/2000/svg" viewBox="0 0 48 48"><path fill="#222020" d="M39 7H9a2 2 0 0 0-2 2v30a2 2 0 0 0 2 2h30a2 2 0 0 0 2-2V9a2 2 0 0 0-2-2zm-6 13.09v.6a13.35 13.35 0 0 1-.54 3.73A13.55 13.55 0 0 1 30.83 28a14.3 14.3 0 0 1-2.67 3 11.78 11.78 0 0 1-3.72 2.1 13.4 13.4 0 0 1-4.65.79 13.06 13.06 0 0 1-7.13-2.08 10 10 0 0 0 1.11.06 9.17 9.17 0 0 0 5.78-2 4.37 4.37 0 0 1-2.69-.87 4.7 4.7 0 0 1-1.65-2.3 6.08 6.08 0 0 0 .86.09 4.24 4.24 0 0 0 1.13-.18A4.65 4.65 0 0 1 14.48 25a4.43 4.43 0 0 1-1.11-3 5.41 5.41 0 0 0 2.22.57 4.37 4.37 0 0 1-2-3.87 4.69 4.69 0 0 1 .64-2.35 13.24 13.24 0 0 0 4.25 3.43 13.09 13.09 0 0 0 5.36 1.44 4.42 4.42 0 0 1-.11-1.06 4.64 4.64 0 0 1 4.65-4.65A4.43 4.43 0 0 1 31.75 17a9 9 0 0 0 3-1.13 4.49 4.49 0 0 1-2.06 2.59 9.65 9.65 0 0 0 2.68-.75A8.87 8.87 0 0 1 33 20.09z"/></svg>