<svg xmlns="http://www.w3.org/2000/svg" viewBox="0 0 48 48"><path d="M39 42v-1h-1.3l1.3 1z"/><path fill="#222020" d="M35 7v22.84H22.57l-.78.57-4.59 3.33v-3.9H7V7h28m1.3-3H5.7A1.7 1.7 0 0 0 4 5.67v25.47a1.7 1.7 0 0 0 1.7 1.7h8.5v3.46a1.7 1.7 0 0 0 1.71 1.7 1.66 1.66 0 0 0 1-.33l6.65-4.83H36.3a1.7 1.7 0 0 0 1.7-1.7V5.67A1.7 1.7 0 0 0 36.3 4z"/><path d="M42 26v13h-6v2l-2.32-1.69-.53-.31H26v-7.12h11V26h5m1-2h-8v5.89H24V40a1 1 0 0 0 1 1h7.5l3.91 2.85A1 1 0 0 0 37 44a1 1 0 0 0 1-1v-2h5a1 1 0 0 0 1-1V25a1 1 0 0 0-1-1z"/></svg>