<svg xmlns="http://www.w3.org/2000/svg" viewBox="0 0 64 64"><path fill="#222020" d="M55 11v42a2 2 0 0 1-2 2H11a2 2 0 0 1-2-2V11a2 2 0 0 1 2-2h42a2 2 0 0 1 2 2zm-31.54 9.32a3.51 3.51 0 0 0-1.07-2.57 3.83 3.83 0 0 0-2.79-1 4 4 0 0 0-2.83 1 3.35 3.35 0 0 0-1.09 2.57 3.42 3.42 0 0 0 1.06 2.56 3.8 3.8 0 0 0 2.77 1 4 4 0 0 0 2.85-1 3.39 3.39 0 0 0 1.1-2.56zm-7.36 27.2H23V26.73h-6.9zm24.88 0h6.92V35.6c0-3.08-.73-5.4-2.18-7a7.5 7.5 0 0 0-5.78-2.37 7 7 0 0 0-6.26 3.51h.06v-3h-6.92q.09 2 0 20.79h6.92V35.9a5 5 0 0 1 .26-1.68 4.59 4.59 0 0 1 1.34-1.78 3.4 3.4 0 0 1 2.22-.74c2.32 0 3.47 1.57 3.47 4.7z"/></svg>