<svg xmlns="http://www.w3.org/2000/svg" viewBox="0 0 32 32"><path fill="#222020" d="M3 5v18a2 2 0 0 0 2 2h6v3.13a1 1 0 0 0 1.55.83l5.95-4H27a2 2 0 0 0 2-2V5a2 2 0 0 0-2-2H5a2 2 0 0 0-2 2zm24 18h-9.11L13 26.26V23H5V5h22z"/><path d="M13 12.5a1 1 0 0 0 1-1 2 2 0 0 1 2.37-2 2 2 0 0 1 1.6 1.6 2 2 0 0 1-1.21 2.22A2.91 2.91 0 0 0 15 16.08v.42a1 1 0 0 0 2 0v-.42a.93.93 0 0 1 .53-.88 4 4 0 0 0 2.41-4.42 4 4 0 0 0-6.51-2.34A4 4 0 0 0 12 11.5a1 1 0 0 0 1 1zM15.29 18.79a1 1 0 0 0-.29.71 1 1 0 0 0 1.38.92 1.15 1.15 0 0 0 .33-.21 1 1 0 0 0 .29-.71 1 1 0 0 0-1.71-.71z"/></svg>