<svg xmlns="http://www.w3.org/2000/svg" viewBox="0 0 48 48"><path fill="#222020" d="M33.9 21.07v-1.56a13.74 13.74 0 0 0-.16-1.67 6.33 6.33 0 0 0-.3-1.15 4.28 4.28 0 0 0-.94-1.43 4.34 4.34 0 0 0-1.5-.94 7.43 7.43 0 0 0-1.16-.3 13.74 13.74 0 0 0-1.67-.16h-8.98a13.54 13.54 0 0 0-1.67.16 7.43 7.43 0 0 0-1.16.3A4.25 4.25 0 0 0 14 16.69a6.33 6.33 0 0 0-.3 1.15 13.74 13.74 0 0 0-.16 1.67v9.05a13.54 13.54 0 0 0 .16 1.67 6.24 6.24 0 0 0 .3 1.16 4.27 4.27 0 0 0 2.36 2.36 6.46 6.46 0 0 0 1.16.3 11.83 11.83 0 0 0 1.67.16h9.01a12 12 0 0 0 1.67-.21 6.46 6.46 0 0 0 1.16-.3 4.34 4.34 0 0 0 1.42-.94 4.24 4.24 0 0 0 .94-1.42 6.24 6.24 0 0 0 .3-1.16 13.54 13.54 0 0 0 .16-1.67v-3.26-1.24-1.24zm-5.69 7.46a6.41 6.41 0 0 1-9 0 6.41 6.41 0 0 1 0-9 6.41 6.41 0 0 1 9 0 6.41 6.41 0 0 1 0 9zm3.17-10.1a1.47 1.47 0 0 1-2.1 0 1.49 1.49 0 1 1 2.1 0z"/><path d="M23.69 19.87A4.15 4.15 0 0 0 20.76 27a4.14 4.14 0 1 0 5.86-5.86 4 4 0 0 0-2.93-1.27z"/><path d="M39 7H9a2 2 0 0 0-2 2v30a2 2 0 0 0 2 2h30a2 2 0 0 0 2-2V9a2 2 0 0 0-2-2zm-3 22.15a7.61 7.61 0 0 1-2 5.21 7.57 7.57 0 0 1-5.21 2c-.95.05-2.66.08-5.13.08s-4.18 0-5.13-.08a7.61 7.61 0 0 1-5.21-2 7.56 7.56 0 0 1-2-5.21c-.06-.95-.08-2.66-.08-5.13s0-4.18.08-5.13a7.54 7.54 0 0 1 2-5.21 7.61 7.61 0 0 1 5.21-2c1-.05 2.66-.08 5.13-.08s4.18 0 5.13.08a7.57 7.57 0 0 1 5.21 2 7.59 7.59 0 0 1 2 5.21c.06.95.08 2.66.08 5.13s.02 4.18-.08 5.13z"/></svg>