<svg xmlns="http://www.w3.org/2000/svg" viewBox="0 0 64 64"><path fill="#222020" d="M31.82 7.94A13.52 13.52 0 0 1 46 21.43a1.5 1.5 0 1 0 3 0 16.52 16.52 0 0 0-16.22-16.5C23.55 4.78 16 12.64 16 21.86v21.07h-.5a2 2 0 0 0-2 2v12a2 2 0 0 0 2 2h4a2 2 0 0 0 2-2v-2h6a2 2 0 0 0 2-2v-4a2 2 0 0 0-2-2h-.09l5.3-5.3a1 1 0 0 0 0-1.41 1 1 0 0 0-1.42 0l-6.7 6.71H21.5v-2a2 2 0 0 0-2-2H19V21.82A13.77 13.77 0 0 1 31.82 7.94zm-12.32 37v4h8v4h-8v4h-4v-12z"/><path d="M48.32 29.36l-.82-1.19-.82 1.19c-.66.95-2.18 3.29-2.18 4.57a3 3 0 1 0 6 0c0-1.28-1.5-3.62-2.18-4.57zm-.82 5.57a1 1 0 0 1-1-1 7.36 7.36 0 0 1 1-2.15 7.36 7.36 0 0 1 1 2.15 1 1 0 0 1-1 1z"/></svg>