<svg xmlns="http://www.w3.org/2000/svg" viewBox="0 0 48 48"><path fill="#222020" d="M24 20.17A15.11 15.11 0 0014 24a1 1 0 00-.09 1.41 1 1 0 001.41.09 13.17 13.17 0 0117.42 0 1 1 0 00.66.25 1 1 0 00.75-.34A1 1 0 0034 24a15.11 15.11 0 00-10-3.83z"/><path d="M24 24.42a10.86 10.86 0 00-7.21 2.72 1 1 0 001.32 1.5 8.92 8.92 0 0111.78 0 1 1 0 00.66.25 1 1 0 00.66-1.75A10.86 10.86 0 0024 24.42z"/><path d="M24 28.67a6.59 6.59 0 00-4.71 1.95 1 1 0 000 1.41 1 1 0 00.7.3 1 1 0 00.71-.3 4.63 4.63 0 013.3-1.36 4.68 4.68 0 013.07 1.15 1 1 0 001.41-.09 1 1 0 00-.09-1.42A6.67 6.67 0 0024 28.67z"/><circle cx="24" cy="34.5" r="1.5"/><path d="M43.18 21.87L40 18.71V12a3 3 0 00-3-3h-4a3 3 0 00-2 .75l-4.88-4.88A3 3 0 0024 4a3 3 0 00-2.12.88l-17.06 17A3 3 0 006.94 27h1.6v14a3 3 0 003 3h24.92a3 3 0 003-3V27h1.6a3 3 0 002.12-5.13zM36.46 24v17H11.54V24h-4.6L24 7l9 9v-4h4v8l4.06 4z"/></svg>