<svg xmlns="http://www.w3.org/2000/svg" viewBox="0 0 48 48"><path fill="#222020" d="M35.4 24H25v-8h14a2 2 0 0 0 .93-3.77l-15-7.93a2 2 0 0 0-1.88 0l-15 7.93A2 2 0 0 0 9 16h14v8H12.6a9.45 9.45 0 0 0-5.1-1.5H6a2 2 0 0 0-2 2V30a5.51 5.51 0 0 0 2.44 4.57L4.57 42a1.58 1.58 0 0 0 1.12 2A1.63 1.63 0 0 0 6 44a1.51 1.51 0 0 0 1.46-1.14l1.84-7.37h1.4l1.84 7.36A1.51 1.51 0 0 0 14 44a1.47 1.47 0 0 0 .36 0 1.51 1.51 0 0 0 1.1-1.82L13.8 35.5H15a2 2 0 0 0 2-2V32a9.43 9.43 0 0 0-.22-2H19v2a2 2 0 0 0 2 2v5a3 3 0 0 1-3 3 1 1 0 0 0 0 2h12a1 1 0 0 0 0-2 3 3 0 0 1-3-3v-5a2 2 0 0 0 2-2v-2h2.22a9.43 9.43 0 0 0-.22 2v1.5a2 2 0 0 0 2 2h1.2L32.57 42a1.58 1.58 0 0 0 1.12 2 1.63 1.63 0 0 0 .31 0 1.51 1.51 0 0 0 1.46-1.14l1.84-7.36h1.4l1.84 7.37A1.51 1.51 0 0 0 42 44a1.47 1.47 0 0 0 .36 0 1.51 1.51 0 0 0 1.1-1.82l-1.9-7.57A5.51 5.51 0 0 0 44 30v-5.5a2 2 0 0 0-2-2h-1.5a9.45 9.45 0 0 0-5.1 1.5zM24 7.2L35 13H13zM14 32.5H9.5A2.5 2.5 0 0 1 7 30v-4.5h.5A6.51 6.51 0 0 1 14 32zm13-.5h-2v7a4.92 4.92 0 0 0 1 3h-4a4.92 4.92 0 0 0 1-3v-7h-2v-2h6zm2-4H16.1a9.55 9.55 0 0 0-1.24-2h18.28a9.55 9.55 0 0 0-1.24 2zm12 2a2.5 2.5 0 0 1-2.5 2.5H34V32a6.51 6.51 0 0 1 6.5-6.5h.5z"/></svg>