<svg xmlns="http://www.w3.org/2000/svg" viewBox="0 0 32 32"><path fill="#222020" d="M10.12 17.41a.5.5 0 0 0 .71 0 7.83 7.83 0 0 1 10.34 0 .46.46 0 0 0 .33.13.52.52 0 0 0 .38-.17.51.51 0 0 0-.05-.71 8.82 8.82 0 0 0-11.66 0 .51.51 0 0 0-.05.75z"/><path d="M16 17a6.27 6.27 0 0 0-4.17 1.58.49.49 0 0 0-.05.7.51.51 0 0 0 .71.05 5.44 5.44 0 0 1 7 0 .54.54 0 0 0 .33.12.48.48 0 0 0 .38-.17.49.49 0 0 0 0-.7A6.27 6.27 0 0 0 16 17z"/><path d="M13.29 20.61a.51.51 0 0 0 0 .71.5.5 0 0 0 .36.14.47.47 0 0 0 .35-.14 2.89 2.89 0 0 1 3.86-.13.5.5 0 0 0 .66-.76 3.93 3.93 0 0 0-5.23.18z"/><circle cx="16" cy="23" r="1"/><path d="M28.41 14.59l-11-11A2 2 0 0 0 16 3a2 2 0 0 0-1.42.59l-11 11a2 2 0 0 0-.44 2.18A2 2 0 0 0 5 18v9a2 2 0 0 0 2 2h18a2 2 0 0 0 2-2v-9a2 2 0 0 0 1.85-1.23 2 2 0 0 0-.44-2.18zM25 16v11H7V16H5L16 5l11 11z"/></svg>