<svg xmlns="http://www.w3.org/2000/svg" viewBox="0 0 192 192"><path fill="#222020" d="M138.64 75.34v2.17l-1.24-2.17h-9v2.17l-1.12-2.17h-12.23a10.55 10.55 0 00-5.29 1.09v-1.09h-8.44v1.09a5.1 5.1 0 00-3.56-1.09H67l-2 4.76-2.14-4.76h-9.72v2.17l-1.09-2.17H43.8l-.15.67-.41.9-5.66 13.28L36 93.86h9.38l1.2-2.92h2.77l1.2 2.92H61.2v-2.25l.94 2.25h5.55l.94-2.28v2.28H95.1V89h.49c.37 0 .49 0 .49.64v4.2h13.68V92.7a10.71 10.71 0 005.06 1.13h5.78l1.24-3h2.73l1.2 3h11.1V91l1.69 2.82h8.89V75.34zM70.91 91.2V80.85L66.34 91.2h-2.81L59 80.81V91.2h-6.5l-1.24-2.92h-6.6l-1.23 2.92H40L45.68 78h4.72l5.36 12.57V78h5.18l4.16 9 3.79-9h5.29v13.2zm16.2-10.46h-7.42v2.36h7.24v2.74h-7.24v2.62h7.42v2.74H76.54V78h10.57zm14.25 5.44a3.78 3.78 0 01.53 2.43v2.59H98.7v-1.65a4 4 0 00-.49-2.55c-.56-.63-1.2-.56-2.32-.56h-3.41v4.8h-3.15V78h7.27a7.3 7.3 0 013.82.64 3.09 3.09 0 011.58 2.89 3.63 3.63 0 01-2.22 3.52 3.54 3.54 0 011.58 1.13zm5.74 5h-3.23V78h3.23zm37.54 0h-4.5l-6-9.94v9.96h-6.45l-1.24-2.92h-6.6l-1.2 2.92h-3.71c-1.54 0-3.49-.34-4.58-1.46a6.74 6.74 0 01-1.69-5.06c0-2.44.34-3.75 1.69-5.18S113 78 115.2 78h3.07v2.85h-3a3 3 0 00-2.44.79 4 4 0 00-.9 3 4.81 4.81 0 00.86 3.11 2.59 2.59 0 002.21.68h1.43L120.86 78h4.76L131 90.49V78h4.83l5.55 9.23V78h3.27z"/><path d="M97.88 81a3.09 3.09 0 00-1.5-.22h-3.9v2.92h3.86a2.92 2.92 0 001.57-.26 1.34 1.34 0 00.64-1.27 1.22 1.22 0 00-.67-1.17zM120.97 85.5h4.39l-2.17-5.29-2.22 5.29zM45.79 85.5h4.35l-2.18-5.29-2.17 5.29zM96 103.54h-4.09v3.37H96c1.24 0 2-.6 2-1.76s-.8-1.61-2-1.61zM68.4 103.54v2.4h6.94v2.7H68.4v2.62h7.8l3.6-3.86-3.45-3.86H68.4zM88.76 112.84v-10.65l-4.87 5.25 4.87 5.4zM111.45 103.76a3.07 3.07 0 00-1.5-.22h-3.9v3h3.86a3.24 3.24 0 001.54-.26 1.46 1.46 0 00.67-1.28 1.32 1.32 0 00-.67-1.24z"/><path d="M156 109.84a6.77 6.77 0 00-.9-3.6h.26v-8.1h-9a8.23 8.23 0 00-3.49.71v-.71h-8.7a5.81 5.81 0 00-3.75 1.09v-1.09H114.9v1.09a8 8 0 00-4.24-1.09h-10.24v1.09c-1-.94-3.14-1.09-4.46-1.09H84.53L81.9 101l-2.44-2.85H62.4v18.48h16.73l2.7-2.85 2.55 2.85h10.35v-4.31h1a10.8 10.8 0 004.38-.67v5h8.52v-4.8h.41c.52 0 .6 0 .6.53v4.27h25.87a7.86 7.86 0 004-1v1h8.82a9.62 9.62 0 003.75-.64l.56-.22a6.61 6.61 0 003.36-5.95zm-60.15-.27h-3.94V114h-6.15l-3.9-4.39-4 4.39H65.25v-13.24H78l3.9 4.35 4-4.35H96c2.51 0 5.32.71 5.32 4.39s-2.73 4.42-5.51 4.42zm19.09-.6a3.9 3.9 0 01.52 2.44V114h-3.19v-1.65c0-.79.08-2-.52-2.59s-1.16-.6-2.33-.6h-3.37V114h-3.19v-13.24h7.31a7.84 7.84 0 013.83.64 3 3 0 011.61 3 3.7 3.7 0 01-2.25 3.53 3.53 3.53 0 011.58 1.08zm13-5.43h-7.43v2.4h7.24v2.7h-7.24v2.62H128V114h-10.63v-13.24H128zm1.91 10.5v-2.85H136a1.77 1.77 0 001.28-.34 1.17 1.17 0 00.08-1.64l-.08-.09a1.8 1.8 0 00-1.13-.3c-3-.11-6.67.12-6.67-4.08 0-1.95 1.2-4 4.53-4h6.34v2.85h-5.81a2.15 2.15 0 00-1.28.23 1.06 1.06 0 00-.45 1 1 1 0 00.68 1 3.7 3.7 0 001.24.15h1.68c1.73 0 2.93.33 3.64 1.08a3.46 3.46 0 01.94 2.78c0 2.89-1.76 4.2-5 4.2zm22.8-1.65l-.15.18-.22.23-.27.26-.11.08-.34.22h-.07a6.36 6.36 0 01-1.65.53h-.11l-.49.07h-7v-2.85h6.12a1.68 1.68 0 001.27-.34 1.08 1.08 0 00.38-.86 1 1 0 00-.42-.79 1.66 1.66 0 00-1.08-.3c-3-.11-6.72.12-6.72-4.08a3.85 3.85 0 011-2.63.71.71 0 01.21-.11l.15-.15.15-.11.19-.15.15-.07.22-.15.15-.08.3-.11h.11l.34-.11h.11l.42-.08h7.5v2.85h-6.23a1.46 1.46 0 00-.86.22 1.11 1.11 0 00.19 2 3.68 3.68 0 001.23.15h1.73a7 7 0 013 .6 3.14 3.14 0 01.6.49l.07.08a3.6 3.6 0 01.9 2.7 4.27 4.27 0 01-.71 2.4z"/><path d="M170 152H22a6 6 0 01-6-6V46a6 6 0 016-6h148a6 6 0 016 6v100a6 6 0 01-6 6zm-146-8h144V48H24z"/></svg>