<svg xmlns="http://www.w3.org/2000/svg" viewBox="0 0 128 128"><path fill="#222020" d="M94.35 69.69v-.56h-.24V69h.62v.13h-.23v.56zm1.18 0v-.48l-.16.41h-.18l-.19-.41v.48h-.18V69h.26l.18.44.15-.44h.26v.69z"/><path d="M28 56.4h2.57v.85h.1a5.53 5.53 0 012.81-1 9.41 9.41 0 012.9.15 4 4 0 013 3.27 14.16 14.16 0 01.27 4.33 11.66 11.66 0 01-.34 2.49 4.06 4.06 0 01-3.62 3.19c-1.11.15-2.21.13-3.34.18V67.2h1.1a14 14 0 001.44-.13 1.57 1.57 0 001.36-1.26 6.4 6.4 0 00.26-1.44 17.42 17.42 0 00-.08-3.68 5.37 5.37 0 00-.15-.67A1.65 1.65 0 0035 58.87a5.34 5.34 0 00-2.32 0 1.85 1.85 0 00-1.44 1.85c0 .31-.05.62-.05.93V74.4h-2.88c-.23 0-.28-.05-.28-.26v-1.28zM84.5 48.09v16.85a8.85 8.85 0 00.23 2 3.43 3.43 0 002.63 2.62 10.65 10.65 0 005.32 0 4.3 4.3 0 003.21-3.45 14.45 14.45 0 000-6.14 4.07 4.07 0 00-3.8-3.42c-1-.13-2.08-.08-3.14-.11h-.1V59h2.11a1.85 1.85 0 011.93 1.7 14.26 14.26 0 01-.06 4.7 1.83 1.83 0 01-1.92 1.75 6.78 6.78 0 01-1.8 0c-1-.12-1.39-.69-1.47-1.74a6.78 6.78 0 010-.78V48.45a15.57 15.57 0 0110.55 8.33 15.36 15.36 0 01-1.39 16.67 15.69 15.69 0 01-14.3 6.38V61.16h-3.3v18c-5.14-1.83-8.72-5.2-10.36-10.34a16.06 16.06 0 012.85-15h.1v12.3a8.14 8.14 0 00.11 1.39 2.48 2.48 0 002.1 2.16 15 15 0 003.29.15V67.1H75.6c-.41 0-.57-.16-.59-.57s0-.54 0-.82V51.28a.62.62 0 01.33-.62 15.94 15.94 0 019-2.57zM79 58.2a1.58 1.58 0 001.25 1.8 3.41 3.41 0 001 0 1.5 1.5 0 001.44-1.47v-.59a1.58 1.58 0 00-1.32-1.49 4.54 4.54 0 00-.74 0A1.58 1.58 0 0079 58.2zM54.33 56.42h3.14v8.62a7.42 7.42 0 00.08 1 1.14 1.14 0 00.82.93 4.67 4.67 0 002.91 0 1.23 1.23 0 00.9-1.18c0-.31.05-.59.05-.9V56.4h3.06v14.59a7.06 7.06 0 01-.16 1.44 2.29 2.29 0 01-1.87 1.85 19.76 19.76 0 01-3.3.15v-2.6h1.7a.52.52 0 00.52-.48v-1.71L60 69.8a8 8 0 01-3.12-.41 3.63 3.63 0 01-2.5-3.39v-1.46-7.8zM52.61 56.4v13.4H49.5v-.67a7.77 7.77 0 01-1.13.44 7.67 7.67 0 01-4.3-.11 4 4 0 01-2.83-3.26 10.43 10.43 0 01-.25-2 16.36 16.36 0 01.23-4.42 4.12 4.12 0 014.11-3.55 9.75 9.75 0 012.75.15 4.73 4.73 0 011.92.92v-.9zm-3.11 6.53v-1.08-1.08a1.82 1.82 0 00-1.67-2 9.63 9.63 0 00-1.86 0 1.76 1.76 0 00-1.62 1.36q-.09.36-.15.72c0 1.18-.08 2.39-.08 3.57a5.9 5.9 0 00.26 1.5 1.59 1.59 0 001.39 1.2 6.78 6.78 0 001.8.06A2 2 0 0049.5 65z"/><path d="M112 100H16a4 4 0 01-4-4V32a4 4 0 014-4h96a4 4 0 014 4v64a4 4 0 01-4 4zM16 32v64h96V32z"/></svg>