<svg xmlns="http://www.w3.org/2000/svg" viewBox="0 0 192 192"><path fill="#222020" d="M112.45 82c.87.11 1.74.16 2.59.34a13.64 13.64 0 0110.56 11.04 17.53 17.53 0 01.07 4.52h-21.8a.67.67 0 000 .2 8.75 8.75 0 008.85 7.05 9.23 9.23 0 006.5-2.8.56.56 0 01.37-.17h5.12a.64.64 0 01.18.06c-.23.4-.44.83-.68 1.2A13.85 13.85 0 0199 98.85a14 14 0 016-14.74 13.16 13.16 0 016.62-2.11 3.91 3.91 0 00.48 0zM104 93.42h16.4c-.07-3-4.05-6.46-7.65-6.64a8.46 8.46 0 00-8.75 6.64z"/><path d="M55 82c.69.11 1.38.2 2.06.34a14.05 14.05 0 017.54 22.76 13.13 13.13 0 01-11.06 4.82c-6-.28-10.29-3.29-12.58-8.92a23 23 0 01-.85-3.55c0-.14 0-.28-.08-.42v-2.19a3.38 3.38 0 00.08-.34A13.74 13.74 0 0150.8 82.34c.72-.16 1.46-.24 2.19-.36zm8 14c-.08-.66-.12-1.31-.25-2a9 9 0 00-10.55-7.08 8.62 8.62 0 00-1.32.37 9.23 9.23 0 00-5.67 11 9 9 0 0010 6.8A9.21 9.21 0 0063 96zM132.06 118l4-9.72a.8.8 0 000-.53q-5.4-12.89-10.8-25.75h5.6a1.17 1.17 0 000 .2l7.77 19a2.54 2.54 0 00.14.25l.2-.46c1-2.4 1.95-4.78 2.92-7.15q2.43-6 4.85-11.89H152c0 .15-.08.3-.13.45l-10.5 25.6-4.08 10zM84.52 82c.7.11 1.41.18 2.1.35 4.44 1.14 7.58 3.73 8.77 8.28a14.32 14.32 0 01.4 3.51v15.78h-5.05v-.52-14.71a14.85 14.85 0 00-.36-3.25 5.74 5.74 0 00-4.7-4.57 10.5 10.5 0 00-4.6 0 6 6 0 00-4.94 5.23 17.35 17.35 0 00-.21 2.7v15.13h-5.05a2 2 0 010-.24V93.54A10.84 10.84 0 0174.74 85a12.32 12.32 0 016.94-2.91c.16 0 .32-.06.47-.09z"/><path d="M170 152H22a6 6 0 01-6-6V46a6 6 0 016-6h148a6 6 0 016 6v100a6 6 0 01-6 6zm-146-8h144V48H24z"/></svg>