<svg xmlns="http://www.w3.org/2000/svg" viewBox="0 0 128 128"><path fill="#222020" d="M92.42 50.22v1.45l-.82-1.45h-6v1.45l-.75-1.45H76.7a7.08 7.08 0 00-3.53.73v-.73h-5.62V51a3.43 3.43 0 00-2.38-.73h-20.5L43.3 53.4l-1.43-3.18h-6.45v1.45l-.72-1.45h-5.5l-.1.45-.28.6-3.77 8.85L24 62.57h6.25l.8-2h1.85l.8 2h7.1v-1.5l.62 1.5h3.7l.63-1.52v1.52H63.4v-3.25h.32c.25 0 .33 0 .33.43v2.8h9.12v-.75a7.2 7.2 0 003.38.75h3.85l.82-2h1.83l.8 2h7.4v-1.88l1.12 1.88h5.93V50.22zM47.27 60.8v-6.9l-3.05 6.9h-1.87l-3.05-6.93v6.93H35l-.83-1.95h-4.4L29 60.8h-2.33l3.78-8.8h3.15l3.57 8.38V52h3.45l2.78 6 2.52-6h3.53v8.8zm10.8-7h-5v1.6H58v1.82h-4.88V59h5v1.8H51V52h7zm9.5 3.63a2.53 2.53 0 01.35 1.62v1.75H65.8v-1.1a2.71 2.71 0 00-.33-1.7c-.37-.42-.8-.37-1.55-.37h-2.27v3.2h-2.1V52h4.85a4.9 4.9 0 012.6.4 2 2 0 011.07 2 2.44 2.44 0 01-1.47 2.35 2.37 2.37 0 01.97.7zm3.83 3.37h-2.15V52h2.15zm25 0h-3l-4-6.63v6.63h-4.3l-.82-1.95H79.9l-.8 1.95h-2.48a4.41 4.41 0 01-3.05-1 4.5 4.5 0 01-1.12-3.37A4.29 4.29 0 0173.57 53c.9-1 1.75-1 3.23-1h2v1.9h-2a2 2 0 00-1.62.53 2.67 2.67 0 00-.6 2 3.24 3.24 0 00.57 2.07 1.75 1.75 0 001.48.45h.95l3-7h3.18l3.57 8.35V52h3.23l3.7 6.15V52h2.17z"/><path d="M65.25 54a2.14 2.14 0 00-1-.15h-2.6v2h2.57a2 2 0 001-.17.89.89 0 00.43-.85.82.82 0 00-.4-.83zM80.65 57h2.92l-1.45-3.53L80.65 57zM30.52 57h2.9l-1.44-3.53L30.52 57zM64 69h-2.73v2.25H64c.82 0 1.32-.4 1.32-1.17S64.8 69 64 69zM45.6 69.02v1.6h4.62v1.8H45.6v1.75h5.2l2.4-2.57-2.3-2.58h-5.3zM59.17 75.22v-7.1l-3.25 3.5 3.25 3.6zM74.3 69.17a2.14 2.14 0 00-1-.15h-2.6v2h2.57a2.27 2.27 0 001-.18 1 1 0 00.45-.85.88.88 0 00-.42-.82z"/><path d="M104 73.22a4.58 4.58 0 00-.6-2.4h.17v-5.4h-6a5.45 5.45 0 00-2.32.48v-.48h-5.8a3.86 3.86 0 00-2.5.73v-.73H76.6v.73a5.36 5.36 0 00-2.83-.73H67v.73a4.83 4.83 0 00-3-.73h-7.65l-1.75 1.9-1.6-1.9H41.6v12.33h11.15l1.8-1.9 1.7 1.9h6.9v-2.88h.67a7.09 7.09 0 002.93-.45v3.33h5.67v-3.2h.28c.35 0 .4 0 .4.35v2.85h17.25a5.31 5.31 0 002.7-.65v.67h5.87a6.42 6.42 0 002.5-.42l.38-.15a4.42 4.42 0 002.2-3.98zm-40.1-.17h-2.63v3h-4.1l-2.6-2.92-2.7 2.87H43.5v-8.83H52l2.6 2.9 2.67-2.9H64c1.68 0 3.55.48 3.55 2.93s-1.82 3-3.67 3zm12.72-.4a2.57 2.57 0 01.38 1.62V76h-2.15v-1.1c0-.52.05-1.32-.35-1.72s-.78-.4-1.55-.4H70.7V76h-2.13v-8.83h4.88a5.15 5.15 0 012.55.43 2 2 0 011.07 2 2.47 2.47 0 01-1.5 2.35 2.28 2.28 0 011.05.73zM85.3 69h-5v1.6h4.82v1.8h-4.77v1.75h5V76h-7v-8.83h7zm1.27 7v-1.9h4.1a1.17 1.17 0 00.85-.22.78.78 0 00.06-1.1h-.06a1.17 1.17 0 00-.75-.2c-2-.08-4.45.07-4.45-2.73 0-1.3.8-2.65 3-2.65h4.22v1.9H89.7a1.43 1.43 0 00-.85.15.71.71 0 00-.3.65.64.64 0 00.45.65 2.28 2.28 0 00.82.1H91a3.34 3.34 0 012.42.73A2.28 2.28 0 0194 73.2c0 1.92-1.18 2.8-3.33 2.8zm15.2-1.1l-.1.13-.15.15-.17.17h-.08l-.22.15a3.92 3.92 0 01-1.1.35H94.85v-1.9h4.07a1.17 1.17 0 00.85-.22.73.73 0 00.25-.58.64.64 0 00-.27-.52 1.11 1.11 0 00-.73-.2c-2-.08-4.47.07-4.47-2.73a2.57 2.57 0 01.65-1.75l.1-.1.1-.1.1-.07.12-.1h.1l.15-.1h.1l.2-.08h.08l.22-.07h5.35v1.9h-4.15a1 1 0 00-.57.15.66.66 0 00-.33.65.69.69 0 00.45.65 2.59 2.59 0 00.83.1h1.15a4.58 4.58 0 012 .4 2.08 2.08 0 01.4.32h.05a2.46 2.46 0 01.6 1.8 2.84 2.84 0 01-.48 1.6z"/><path d="M112 100H16a4 4 0 01-4-4V32a4 4 0 014-4h96a4 4 0 014 4v64a4 4 0 01-4 4zM16 32v64h96V32z"/></svg>