<svg xmlns="http://www.w3.org/2000/svg" viewBox="0 0 96 96"><path d="M39.9 55.15l2.44-14.26h3.89l-2.44 14.26H39.9z"/><path fill="#222020" d="M57.89 41.25a9.88 9.88 0 00-3.48-.6c-3.84 0-6.55 1.93-6.57 4.69 0 2.06 1.94 3.19 3.41 3.88s2 1.15 2 1.76c0 1-1.2 1.41-2.33 1.41a8.05 8.05 0 01-3.66-.76l-.49-.22-.55 3.19a12.38 12.38 0 004.34.75c4.08 0 6.72-1.9 6.75-4.86 0-1.63-1-2.87-3.26-3.88-1.35-.65-2.19-1.1-2.17-1.76s.7-1.24 2.21-1.24a7.24 7.24 0 012.91.55l.34.17.54-3.08"/><path d="M67.86 40.9h-3a1.93 1.93 0 00-2 1.19l-5.81 13.06h4.08L62 53h5c.12.49.48 2.12.48 2.12H71l-3.14-14.23m-4.8 9.18l1.55-4s.32-.84.51-1.37l.27 1.3.9 4.11zM36.65 40.9l-3.81 9.72-.39-2a11.15 11.15 0 00-5.39-6l3.48 12.46h4.12l6.1-14.23h-4.11"/><path d="M29.31 40.89h-6.26l-.05.3c4.87 1.17 8.11 4 9.45 7.46l-1.38-6.55a1.61 1.61 0 00-1.76-1.21"/><path d="M85 76H11a3 3 0 01-3-3V23a3 3 0 013-3h74a3 3 0 013 3v50a3 3 0 01-3 3zm-73-4h72V24H12z"/></svg>