<svg xmlns="http://www.w3.org/2000/svg" viewBox="0 0 48 48"><path fill="#222020" d="M39.64 32.47l-2-.67a8.74 8.74 0 0 0 3.23-4.34l.46-1.36-1.33-.51A4.13 4.13 0 0 1 37.5 22v-4.46a13.5 13.5 0 1 0-27 0V22A4.13 4.13 0 0 1 8 25.59l-1.34.51.46 1.36a8.74 8.74 0 0 0 3.23 4.34l-2 .66A2 2 0 0 0 7 34.36V42a2 2 0 0 0 2 2h30a2 2 0 0 0 2-2v-7.64a2 2 0 0 0-1.36-1.89zM17.5 17.53a9 9 0 0 0 3.44-2.09 11.87 11.87 0 0 0 7.4 2.56 12 12 0 0 0 2.16-.2v.67a6.5 6.5 0 1 1-13 0zM24 7a10.53 10.53 0 0 1 9.6 6.3 9 9 0 0 1-5.26 1.7 8.92 8.92 0 0 1-6.46-2.74L20.62 11l-1.05 1.48A6 6 0 0 1 14.66 15a7.72 7.72 0 0 1-.83-.06A10.52 10.52 0 0 1 24 7zM13.5 22v-4.08a8.26 8.26 0 0 0 1 .07v.48a9.5 9.5 0 1 0 19 0v-1.64c.31-.15.62-.32.92-.5a9.71 9.71 0 0 1 .08 1.21V22a6.72 6.72 0 0 0 3.07 5.62 5.41 5.41 0 0 1-4.25 2.7l-1.26-.43a4.73 4.73 0 0 0-.74-1l-.32-.27a2 2 0 0 0-2.62-.19L24 31.75l-4.41-3.32a2 2 0 0 0-2.62.19l-.29.28a4.51 4.51 0 0 0-.75 1l-1.23.42a5.4 5.4 0 0 1-4.27-2.7A6.72 6.72 0 0 0 13.5 22zm17.08 10.79a2.81 2.81 0 0 1-2.8 2.21 2.83 2.83 0 0 1-2.58-1.6l4.42-3.4.28.29a2.57 2.57 0 0 1 .68 2.5zm-7.76.57A2.83 2.83 0 0 1 20.24 35a2.81 2.81 0 0 1-2.8-2.17 2.57 2.57 0 0 1 .68-2.47l.28-.29zM38 41H10v-5.92l5.47-1.85a.13.13 0 0 1 0 .06A4.83 4.83 0 0 0 20.22 37 4.81 4.81 0 0 0 24 35.18 4.81 4.81 0 0 0 27.75 37a4.83 4.83 0 0 0 4.74-3.67.25.25 0 0 1 0-.08L38 35.08z"/></svg>