<svg xmlns="http://www.w3.org/2000/svg" viewBox="0 0 128 128"><path fill="#222020" d="M48.69 62.84h16.76c-.15-3.3-1-6.72-3.57-8.91-3-2.61-8.37-3.57-13.14-3.57s-10.46 1.06-13.52 3.87C32.57 56.64 32 60.5 32 64s1.11 7.9 4 10.36 8 3.28 12.75 3.28 9.65-.77 12.68-3.25 4.05-6.62 4.05-10.39H48.69z"/><path d="M66.56 64v13.05h23.31A6.45 6.45 0 0096 70.6a6.62 6.62 0 00-6.13-6.6zM95.58 56.86a5.94 5.94 0 00-5.91-6H66.56v12h23.51a6 6 0 005.51-6z"/><path d="M112 100H16a4 4 0 01-4-4V32a4 4 0 014-4h96a4 4 0 014 4v64a4 4 0 01-4 4zM16 32v64h96V32z"/></svg>