<svg xmlns="http://www.w3.org/2000/svg" viewBox="0 0 128 128"><path d="M51.35 74.72l3.66-21.39h5.83l-3.65 21.39h-5.84z"/><path fill="#222020" d="M78.33 53.87a14.74 14.74 0 00-5.22-.9c-5.76 0-9.82 2.9-9.85 7 0 3.09 2.91 4.79 5.12 5.82s3 1.72 3 2.64c0 1.44-1.8 2.11-3.5 2.11a12.17 12.17 0 01-5.48-1.13l-.74-.33-.83 4.78A18.61 18.61 0 0067.35 75c6.12 0 10.08-2.85 10.13-7.3 0-2.44-1.52-4.3-4.89-5.81-2-1-3.29-1.65-3.26-2.65s1-1.85 3.32-1.85a10.61 10.61 0 014.37.82l.51.26.8-4.63"/><path d="M93.29 53.35h-4.52a2.89 2.89 0 00-3 1.78l-8.7 19.59h6.12l1.23-3.21h7.46c.18.74.72 3.19.72 3.19H98l-4.71-21.37m-7.2 13.78l2.32-6c0 .05.49-1.26.77-2.06l.41 1.85 1.34 6.17zM46.47 53.35l-5.71 14.58-.59-3a16.73 16.73 0 00-8.08-9l5.22 18.7h6.18l9.15-21.35h-6.17"/><path d="M35.46 53.33h-9.38l-.08.46c7.3 1.75 12.16 6 14.17 11.19l-2.06-9.83c-.36-1.36-1.36-1.77-2.65-1.82"/><path d="M112 100H16a4 4 0 01-4-4V32a4 4 0 014-4h96a4 4 0 014 4v64a4 4 0 01-4 4zM16 32v64h96V32z"/></svg>