<svg xmlns="http://www.w3.org/2000/svg" viewBox="0 0 96 96"><path fill="#222020" d="M67.11 51.72v-.37H67v-.08h.4v.08h-.15v.37zm.77 0v-.31l-.1.26h-.12l-.1-.26v.31h-.11v-.45h.16l.12.29.1-.29H68v.45z"/><path d="M34.64 60a1.5 1.5 0 00-.4-.25 1.23 1.23 0 00-.5-.09h-.3l-.31.09a1 1 0 00-.27.18.87.87 0 00-.23.27 1.26 1.26 0 00-.44-.42 1.2 1.2 0 00-.62-.13h-.25l-.25.06a.78.78 0 00-.24.16 1.34 1.34 0 00-.2.21v-.38H30v3.17h.67v-1.75a.84.84 0 01.07-.35 1 1 0 01.17-.27.64.64 0 01.25-.15 1 1 0 01.3-.05.71.71 0 01.54.2 1 1 0 01.18.62v1.76h.67v-1.76a1.34 1.34 0 010-.35 1 1 0 01.19-.27.64.64 0 01.25-.15.79.79 0 01.3-.05.66.66 0 01.52.2.88.88 0 01.19.62v1.76h.7v-2a1.19 1.19 0 00-.34-.91zM38.17 60.1a1.23 1.23 0 00-.41-.34 1.29 1.29 0 00-.58-.12 1.59 1.59 0 00-.62.12 1.46 1.46 0 00-.84.87 1.59 1.59 0 00-.12.67 1.65 1.65 0 00.12.66 1.87 1.87 0 00.33.54 1.72 1.72 0 00.51.33 1.44 1.44 0 00.62.14 1.3 1.3 0 00.58-.14 1 1 0 00.41-.33v.38h.69v-3.17h-.69zm0 1.61A1.55 1.55 0 0138 62a1.21 1.21 0 01-.3.2 1 1 0 01-.39.08 1.1 1.1 0 01-.4-.08.73.73 0 01-.3-.22.94.94 0 01-.19-.32 1 1 0 01-.07-.39 1.12 1.12 0 01.07-.4.88.88 0 01.49-.53.93.93 0 01.4-.09.89.89 0 01.39.09.78.78 0 01.3.21.83.83 0 01.2.32 1.21 1.21 0 010 .81zM42 61.29a1.6 1.6 0 00-.81-.3l-.32-.05h-.37l-.11-.1a.14.14 0 01-.05-.13.29.29 0 01.16-.27.86.86 0 01.44-.12h.28l.29.07.23.09.17.1.3-.54a1.46 1.46 0 00-.57-.25 2.74 2.74 0 00-.7-.09 2 2 0 00-.55.07 2 2 0 00-.41.2.84.84 0 00-.27.32 1.2 1.2 0 00-.08.42.76.76 0 00.27.62 1.57 1.57 0 00.8.3h.32a1 1 0 01.42.12.32.32 0 01.14.24.31.31 0 01-.19.26.83.83 0 01-.53.12h-.36l-.27-.07-.23-.1-.16-.2-.31.52a2 2 0 00.35.21l.37.12.35.07h.29a2.46 2.46 0 00.6-.07 1.11 1.11 0 00.45-.22 1 1 0 00.29-.31.9.9 0 00.08-.42.74.74 0 00-.31-.61zM48.49 60.1a1.21 1.21 0 00-.47-.34 1.58 1.58 0 00-.61-.12 1.77 1.77 0 00-.64.12 1.21 1.21 0 00-.5.34 1.46 1.46 0 00-.32.52A2.16 2.16 0 0046 62a1.55 1.55 0 00.34.53 1.85 1.85 0 00.5.34 2.41 2.41 0 00.66.12 2.6 2.6 0 00.68-.1 1.83 1.83 0 00.62-.36l-.4-.53a1.49 1.49 0 01-.43.23 1.1 1.1 0 01-.47.1.86.86 0 01-.32 0 1 1 0 01-.51-.38 1 1 0 01-.11-.37h2.33a.34.34 0 010-.14v-.13a1.89 1.89 0 00-.12-.67 1.58 1.58 0 00-.28-.54zm-1.93.9a1.11 1.11 0 01.08-.3.6.6 0 01.19-.25.91.91 0 01.23-.17 1 1 0 01.34 0 .71.71 0 01.53.2 1.12 1.12 0 01.27.57zM57.65 60.1a1.37 1.37 0 00-.42-.34 1.42 1.42 0 00-.57-.12 1.59 1.59 0 00-.62.12 1.57 1.57 0 00-.51.34 1.39 1.39 0 00-.33.53 1.75 1.75 0 00-.14.67 1.66 1.66 0 00.14.66 1.4 1.4 0 00.84.87 1.44 1.44 0 00.62.14 1.26 1.26 0 00.57-.14 1.23 1.23 0 00.42-.33v.38h.69v-3.17h-.69zm0 1.61a1.14 1.14 0 01-.18.32 1.21 1.21 0 01-.3.2 1.15 1.15 0 01-.41.08 1 1 0 01-.38-.08A.73.73 0 0156 62a.8.8 0 01-.19-.32 1 1 0 01-.07-.39 1.12 1.12 0 01.07-.4.8.8 0 01.19-.32.92.92 0 01.68-.3 1 1 0 01.41.09.83.83 0 01.48.53.94.94 0 01.07.4 1.14 1.14 0 01-.03.42zM45 62.24a.71.71 0 01-.32.07h-.2a.27.27 0 01-.15-.1.76.76 0 01-.12-.19 1.24 1.24 0 010-.27v-1.4h1.1v-.64h-1.1v-1h-.69v1h-.64v.64h.64v1.39a1.33 1.33 0 00.28.92 1.19 1.19 0 00.84.31 1.4 1.4 0 00.54-.1 1.38 1.38 0 00.3-.14l-.23-.59a.49.49 0 01-.25.1zM51.2 59.64a1.6 1.6 0 00-.52.1 1.09 1.09 0 00-.38.39v-.42h-.64v3.17h.64v-1.74a1.12 1.12 0 01.05-.36.73.73 0 01.17-.26.48.48 0 01.23-.17.79.79 0 01.3-.05h.27l.14.05.2-.67h-.17zM60.79 59.64a1.61 1.61 0 00-.53.1 1.09 1.09 0 00-.38.39v-.42h-.64v3.17h.64v-1.74a.77.77 0 01.07-.36.46.46 0 01.15-.26.48.48 0 01.23-.17.79.79 0 01.3-.05h.27l.14.05.2-.67h-.17zM64 58.44v1.66a1.23 1.23 0 00-.41-.34 1.29 1.29 0 00-.58-.12 1.59 1.59 0 00-.62.12 1.46 1.46 0 00-.84.87 1.59 1.59 0 00-.12.67 1.49 1.49 0 00.12.66 1.67 1.67 0 00.33.54 1.72 1.72 0 00.51.33A1.61 1.61 0 0063 63a1.3 1.3 0 00.58-.14 1 1 0 00.42-.36v.38h.68v-4.44zm0 3.27a1.55 1.55 0 01-.2.32 1.21 1.21 0 01-.3.2 1 1 0 01-.39.08 1.06 1.06 0 01-.4-.08.73.73 0 01-.3-.22 1.5 1.5 0 01-.19-.32 1.59 1.59 0 01-.07-.39 1.87 1.87 0 01.07-.4 1.5 1.5 0 01.19-.32.81.81 0 01.3-.21.9.9 0 01.4-.09.89.89 0 01.39.09.78.78 0 01.3.21.83.83 0 01.2.32 1.21 1.21 0 010 .81zM52.87 60.57a.69.69 0 01.3-.2.9.9 0 01.4-.09 1 1 0 01.42.09.55.55 0 01.34.2l.33-.56a1.79 1.79 0 00-.42-.25 1.89 1.89 0 00-.67-.12 2 2 0 00-.69.12 1.58 1.58 0 00-.53.35 1.52 1.52 0 00-.36.52 1.74 1.74 0 00-.13.67 1.85 1.85 0 00.14.7 1.52 1.52 0 00.36.52 1.58 1.58 0 00.53.35 1.81 1.81 0 00.69.14 1.71 1.71 0 00.67-.14 2.13 2.13 0 00.42-.23l-.34-.64a1 1 0 01-.34.2 1.54 1.54 0 01-.42.07 1.09 1.09 0 01-.4-.07.81.81 0 01-.3-.21.77.77 0 01-.22-.32 1.24 1.24 0 010-.82.66.66 0 01.22-.28zM42.78 45a11.87 11.87 0 014.53-9.33 11.91 11.91 0 100 18.67A11.91 11.91 0 0142.78 45z"/><path d="M54.69 34.71a10.24 10.24 0 010 20.47A9.93 9.93 0 0150 54a13.54 13.54 0 000-18.19 10 10 0 014.68-1.14m0-1.68a11.81 11.81 0 00-7.38 2.59 11.89 11.89 0 012 16.7 12.24 12.24 0 01-2 2A11.91 11.91 0 1054.69 33z"/><path d="M85 76H11a3 3 0 01-3-3V23a3 3 0 013-3h74a3 3 0 013 3v50a3 3 0 01-3 3zm-73-4h72V24H12z"/></svg>