<svg xmlns="http://www.w3.org/2000/svg" viewBox="0 0 96 96"><path fill="#222020" d="M55 42.29c.37.05.74.07 1.11.14a5.85 5.85 0 014.52 4.74 7 7 0 010 1.94h-9.27v.09a3.75 3.75 0 003.79 3 3.92 3.92 0 002.79-1.2.3.3 0 01.16-.08h2.27c-.1.17-.19.36-.29.51a5.93 5.93 0 01-10.82-2 6 6 0 012.58-6.32 5.53 5.53 0 012.84-.89h.21zm-3.62 4.9h7c0-1.31-1.73-2.77-3.27-2.85a3.63 3.63 0 00-3.69 2.85z"/><path d="M30.42 42.29c.29.05.59.08.88.14a6 6 0 013.23 9.77 5.65 5.65 0 01-4.74 2.07 5.73 5.73 0 01-5.39-3.83 9.63 9.63 0 01-.4-1.52V47.66a5.9 5.9 0 014.59-5.22c.3-.07.62-.1.93-.15zm3.44 6a8 8 0 00-.11-.84 3.84 3.84 0 00-4.52-3 3.56 3.56 0 00-.56.15 4 4 0 00-2.43 4.72 3.86 3.86 0 004.31 2.91 4 4 0 003.31-3.94zM63.44 57.72c.58-1.39 1.14-2.78 1.7-4.17a.28.28 0 000-.22q-2.3-5.52-4.61-11h2.4a.29.29 0 000 .09l3.33 8.17a.64.64 0 00.06.1 2.05 2.05 0 00.08-.19c.42-1 .84-2.06 1.26-3.07l2.08-5.1H72a1.46 1.46 0 010 .2l-4.5 11-1.76 4.26zM43.07 42.29c.3.05.6.07.9.15A4.79 4.79 0 0147.72 46a6.34 6.34 0 01.18 1.5V54.27h-2.17V54v-6.3a6.59 6.59 0 00-.15-1.4 2.46 2.46 0 00-2-1.95 4.41 4.41 0 00-2 0 2.55 2.55 0 00-2.11 2.24 5.58 5.58 0 00-.09 1.15v6.49h-2.16a.34.34 0 010-.1V47.2a4.61 4.61 0 011.66-3.65 5.25 5.25 0 013-1.25h.2z"/><path d="M85 76H11a3 3 0 01-3-3V23a3 3 0 013-3h74a3 3 0 013 3v50a3 3 0 01-3 3zm-73-4h72V24H12z"/></svg>