<svg xmlns="http://www.w3.org/2000/svg" viewBox="0 0 96 96"><path fill="#222020" d="M53.59 56.31H51.1a.34.34 0 00-.34.29l-1 6.38a.21.21 0 00.18.24h1.3a.25.25 0 00.24-.21l.29-1.8a.35.35 0 01.33-.3h.79a2.55 2.55 0 002.83-2.35A2 2 0 0055.4 57a2.28 2.28 0 00-1.81-.69zm.28 2.33c-.13.89-.81.89-1.47.89H52l.26-1.67a.21.21 0 01.21-.17h.17c.45 0 .87 0 1.09.26a.77.77 0 01.12.69z"/><path d="M35.84 56.31h-2.49a.34.34 0 00-.34.29L32 63a.21.21 0 00.17.24h1.23a.34.34 0 00.33-.29l.27-1.74a.33.33 0 01.33-.3h.79A2.55 2.55 0 0038 58.56a1.94 1.94 0 00-.35-1.56 2.28 2.28 0 00-1.81-.69zm.29 2.33c-.14.89-.82.89-1.48.89h-.38l.27-1.67a.2.2 0 01.2-.17h.17c.45 0 .87 0 1.09.26a.8.8 0 01.13.69zM43.28 58.61h-1.19a.21.21 0 00-.21.17l-.05.33-.08-.11a1.72 1.72 0 00-1.41-.5 2.73 2.73 0 00-2.66 2.39 2.29 2.29 0 00.44 1.84 1.9 1.9 0 001.5.6 2.3 2.3 0 001.65-.67l-.05.33a.21.21 0 00.18.24h1.1a.33.33 0 00.34-.29l.64-4.08a.2.2 0 00-.17-.24zm-1.66 2.32a1.35 1.35 0 01-1.35 1.14.94.94 0 01-1-1.16 1.34 1.34 0 011.34-1.15 1 1 0 01.79.33 1 1 0 01.21.84zM61 58.61h-1.2a.2.2 0 00-.2.17l-.05.33-.06-.11a1.69 1.69 0 00-1.4-.5 2.72 2.72 0 00-2.66 2.39 2.25 2.25 0 00.44 1.84 1.88 1.88 0 001.5.6 2.31 2.31 0 001.63-.68V63a.21.21 0 00.17.24h1.1a.34.34 0 00.34-.29l.65-4.08a.21.21 0 00-.17-.24zm-1.66 2.32A1.35 1.35 0 0158 62.07a1 1 0 01-.8-.33 1 1 0 01-.2-.84 1.33 1.33 0 011.34-1.14 1 1 0 01.79.32 1 1 0 01.21.85zM49.62 58.61h-1.19a.35.35 0 00-.29.15l-1.66 2.43-.7-2.33a.35.35 0 00-.34-.25h-1.17a.21.21 0 00-.21.21.13.13 0 000 .06l1.32 3.88-1.24 1.75a.2.2 0 00.05.29.21.21 0 00.12 0h1.19a.36.36 0 00.29-.14l4-5.75a.2.2 0 000-.29.16.16 0 00-.17-.01zM62.43 56.48l-1 6.5a.21.21 0 00.17.24h1.07a.34.34 0 00.34-.29l1-6.38a.21.21 0 00-.18-.24h-1.19a.2.2 0 00-.21.17zM55.75 38.41a4.12 4.12 0 00-.86-3.69c-1-1.09-2.68-1.55-4.9-1.55h-6.42a.92.92 0 00-.91.77L40 50.89a.56.56 0 00.46.63h4l1-6.31v.2a.93.93 0 01.91-.78h1.88c3.7 0 6.59-1.5 7.44-5.84 0-.13.05-.26.06-.38"/><path d="M57.19 38.66a1.72 1.72 0 00-.27-.27v.2c0 .14 0 .27-.07.41q-.12.59-.3 1.17a4.46 4.46 0 01.13 2.65c-.6 3.06-2.5 4.55-5.83 4.55h-.5a1.48 1.48 0 00-1.48 1.25v.21l-.63 4v.16a.12.12 0 01-.11.09H45l.07-.44h-1.4l-.08.47a1.19 1.19 0 001 1.35H48a1.49 1.49 0 001.48-1.25v-.16l.64-4v-.21a.1.1 0 01.11-.09h.5a7.74 7.74 0 004.59-1.26A6.84 6.84 0 0058 43.1a5 5 0 00-.81-4.44z"/><path d="M85 76H11a3 3 0 01-3-3V23a3 3 0 013-3h74a3 3 0 013 3v50a3 3 0 01-3 3zm-73-4h72V24H12z"/></svg>