<svg xmlns="http://www.w3.org/2000/svg" viewBox="0 0 192 192"><path fill="#222020" d="M71.12 94.12h27.24c-.24-5.36-1.64-10.92-5.8-14.48-4.92-4.24-13.6-5.8-21.36-5.8s-17 1.72-22 6.28C44.92 84 44 90.32 44 96s1.8 12.84 6.48 16.84 13 5.32 20.72 5.32 15.68-1.24 20.6-5.28 6.6-10.76 6.6-16.88H71.12z"/><path d="M100.16 96v21.2H138a10.48 10.48 0 0010-10.48A10.76 10.76 0 00138 96zM147.32 84.4a9.65 9.65 0 00-9.6-9.68h-.12a11.24 11.24 0 00-1.16 0h-36.28v19.4h38.2a9.8 9.8 0 008.96-9.72z"/><path d="M170 152H22a6 6 0 01-6-6V46a6 6 0 016-6h148a6 6 0 016 6v100a6 6 0 01-6 6zm-146-8h144V48H24z"/></svg>