<svg xmlns="http://www.w3.org/2000/svg" viewBox="0 0 192 192"><path d="M75.44 112.68l5.68-33.28h9.08l-5.68 33.28h-9.08z"/><path fill="#222020" d="M117.4 80.24a23.17 23.17 0 00-8.12-1.4c-9 0-15.28 4.52-15.32 11 0 4.8 4.52 7.44 8 9s4.68 2.68 4.68 4.12c0 2.24-2.8 3.28-5.44 3.28a19 19 0 01-8.52-1.76l-1.2-.48-1.28 7.4a29 29 0 0010.12 1.76c9.52 0 15.68-4.44 15.76-11.36 0-3.8-2.36-6.68-7.6-9-3.16-1.52-5.12-2.56-5.08-4.12s1.64-2.88 5.16-2.88a16.69 16.69 0 016.8 1.28l.8.4 1.24-7.2"/><path d="M140.68 79.44h-7c-2.16 0-3.8.6-4.72 2.76l-13.48 30.48H125l1.92-5h11.6c.28 1.16 1.12 5 1.12 5H148l-7.32-33.28m-11.2 21.44l3.6-9.28c0 .08.76-2 1.2-3.2l.64 2.88 2.08 9.6zM67.84 79.44L59 102.12l-1-4.6c-1.68-5.32-6.8-11.08-12.56-14l8.12 29.08h9.6L77.4 79.4h-9.6"/><path d="M50.72 79.4h-14.6l-.12.72c11.36 2.72 18.92 9.4 22 17.4l-3.2-15.28c-.56-2.12-2.12-2.76-4.12-2.84"/><path d="M170 152H22a6 6 0 01-6-6V46a6 6 0 016-6h148a6 6 0 016 6v100a6 6 0 01-6 6zm-146-8h144V48H24z"/></svg>