<svg xmlns="http://www.w3.org/2000/svg" viewBox="0 0 128 128"><path fill="#222020" d="M95.47 69.91v-.59h-.24v-.13h.64v.13h-.24v.59zm1.23 0v-.51l-.16.43h-.19l-.16-.43v.51H96v-.72h.27l.19.45.16-.45h.26v.72z"/><path d="M24.37 81.64h61.9a17.28 17.28 0 009.47-2.72 17.06 17.06 0 007.94-11.63 17.61 17.61 0 00-17.33-20.93h-44.7a17.61 17.61 0 00-17.09 13.2 17.14 17.14 0 00-.56 4.21v17.55c0 .32 0 .32.37.32zm62-15.47a4.7 4.7 0 012.75-3.44 5.5 5.5 0 012.37-.42 4.4 4.4 0 013.84 2.4 6 6 0 01.59 1.89 4.64 4.64 0 01-1.79 4.45 4.56 4.56 0 01-3.23 1 6.39 6.39 0 01-1 0 4.77 4.77 0 01-3.63-3.44 5.83 5.83 0 01.08-2.46zm-10.72-.4a4 4 0 011.15-2.08 5 5 0 014.2-1.25 3.4 3.4 0 011.12.35v-.22c0-2.32.06-4.64.19-7a1.17 1.17 0 01.91-1.09h.42c.46 0 .62.11.67.56a4 4 0 010 1.15c-.16 1.54-.22 3.09-.3 4.64S84 64 84 65.53c0 .67.06 1.34.14 2 .16 1.18.37 2.32.58 3.47a.5.5 0 010 .43 1 1 0 01-1.2.4.72.72 0 01-.3-.3c-.1-.24-.18-.48-.26-.72s0-.16-.08-.18-.62.5-.94.72a4.24 4.24 0 01-3.38.58 3.79 3.79 0 01-2.8-2.64 5.8 5.8 0 01-.11-3.52zm-12 1.15a5.13 5.13 0 011.86-3.44 5.9 5.9 0 015.5-.67l.42.19a.53.53 0 00.57 0 1.3 1.3 0 01.69-.18c.48 0 .64.16.64.64v3.7a23.54 23.54 0 00.53 3.63.73.73 0 01-.5 1 .79.79 0 01-1.18-.42 5.65 5.65 0 01-.29-.67l-.59.4a5.31 5.31 0 01-4.13.88 4.65 4.65 0 01-3.47-3.28 4.35 4.35 0 01-.04-1.78zM53 64.81a5.5 5.5 0 013-2.24 4.65 4.65 0 012.16-.21A5.31 5.31 0 0161 63.75a3.07 3.07 0 01.62.72.73.73 0 01-.24 1.06c-.4.32-.62.32-1 0l-.67-.53a3.11 3.11 0 00-2.8-.82 3.21 3.21 0 00-2.75 3.68A2.62 2.62 0 0056 70.12a4.48 4.48 0 002.21.16A2.69 2.69 0 0060.3 69a2 2 0 01.29-.4.66.66 0 01.91-.16l.29.18a.76.76 0 01.21.86l-.16.37a3.75 3.75 0 01-2.24 1.89 6.82 6.82 0 01-3.38.32 4.27 4.27 0 01-3.61-2.9 4.5 4.5 0 01-.32-1.66 4.41 4.41 0 01.71-2.69zm-5.57 2.88c.05-1.06 0-2.13.08-3.2a5.09 5.09 0 01.27-1.44.93.93 0 011.09-.61.91.91 0 01.83 1l-.16 2.46a32.94 32.94 0 000 4.66 5 5 0 010 .67.68.68 0 01-.63.74h-.06a1.66 1.66 0 01-1.15-.35.68.68 0 01-.26-.53c0-1.15-.08-2.27 0-3.42zm-.27-9A1.72 1.72 0 0149.31 57c1 .32 1.06.69 1.25 1.36a1.55 1.55 0 01-1 2h-.13a1.7 1.7 0 01-2.17-1 1.76 1.76 0 01-.07-.27c0-.13 0-.26-.06-.42zM42 64.17V61.4a47.48 47.48 0 01.43-4.77 6 6 0 01.32-1.39.82.82 0 01.48-.59 1.42 1.42 0 011.09 0 .6.6 0 01.43.67l-.24 1.92a32.35 32.35 0 00-.3 3.94c-.05 1.74-.08 3.47 0 5.18 0 .93.13 1.86.19 2.8a17.64 17.64 0 00.18 1.81 1 1 0 01-.16.75c-.24.4-1.54.45-1.78-.08a2.69 2.69 0 01-.19-.38 4.56 4.56 0 01-.13-.53 26.19 26.19 0 01-.32-4.1v-2.46zm-5.17.4a65.71 65.71 0 01.32-6.72c.05-.34.08-.69.13-1a6.81 6.81 0 01.32-1.54 1 1 0 011.31-.7.72.72 0 01.64.75 1.94 1.94 0 010 .59 17 17 0 00-.21 1.78c-.14 1.15-.24 2.32-.3 3.5-.08 1.92 0 3.86.08 5.78 0 .72.11 1.44.16 2.16s.14 1.39.22 2.08a.62.62 0 01-.49.72 1.05 1.05 0 01-.5 0 1.08 1.08 0 01-1-.64 2.94 2.94 0 01-.19-.64 12.16 12.16 0 01-.32-2.08v-.51c-.19-1.18-.22-2.35-.2-3.53zm-4.69-1.78a1.28 1.28 0 011.22-.32 1 1 0 01.7.8 4.93 4.93 0 01.13 1.09c0 2.27 0 4.53-.08 6.77 0 .54-.21.75-.72.83h-.21c-.78.05-1.1-.21-1.1-1V67c0-1.2-.08-2.43-.13-3.66a.67.67 0 01.16-.55zM31 58.87A1.9 1.9 0 0132.69 57a1.74 1.74 0 011.76 1.7 1.66 1.66 0 01-1.65 1.82 1.81 1.81 0 01-1.8-1.65z"/><path d="M80.14 64.12l-.86.11a2.44 2.44 0 00-1.89 1.6 4.9 4.9 0 00-.27 2A2.44 2.44 0 0080.43 70a2.48 2.48 0 001.84-2.37 6.38 6.38 0 00-.11-2 3.82 3.82 0 00-.18-.51 1.7 1.7 0 00-1.44-1zM71.71 67.29a5.17 5.17 0 00-.08-1.3 1.92 1.92 0 00-1.73-1.79 4.26 4.26 0 00-2.24.08 3.34 3.34 0 00-2.22 3.89 2.54 2.54 0 00.67 1.26 3.24 3.24 0 003.12.9 4.16 4.16 0 001.81-1 2 2 0 00.67-1.63zM91.1 70.39a3.16 3.16 0 001.9-.62A2.58 2.58 0 0094.14 68a4.45 4.45 0 00-.14-2.12A2.67 2.67 0 0091.39 64a5.07 5.07 0 00-1.55.24A2.69 2.69 0 0088 66.33a3.87 3.87 0 000 1.79 3 3 0 003.1 2.27z"/><path d="M112 100H16a4 4 0 01-4-4V32a4 4 0 014-4h96a4 4 0 014 4v64a4 4 0 01-4 4zM16 32v64h96V32z"/></svg>