<svg xmlns="http://www.w3.org/2000/svg" viewBox="0 0 192 192"><path fill="#222020" d="M144.2 104.88V104h-.36v-.2h1v.2h-.36v.88zm1.84 0v-.76l-.24.64h-.28l-.24-.64v.76H145v-1.08h.4l.28.68.24-.68h.4v1.08z"/><path d="M37.56 122.48h92.84a25.88 25.88 0 0014.2-4.08 25.61 25.61 0 0011.92-17.4 26.44 26.44 0 00-21-30.93 27 27 0 00-5-.47h-67a26.44 26.44 0 00-25.64 19.8 25.92 25.92 0 00-.88 6.28V122c0 .48 0 .48.56.48zm93-23.2a7 7 0 014.12-5.16 8.34 8.34 0 013.56-.64 6.63 6.63 0 015.76 3.6 8.85 8.85 0 01.88 2.84 7 7 0 01-2.68 6.68 6.86 6.86 0 01-4.84 1.56 9.15 9.15 0 01-1.48 0 7.17 7.17 0 01-5.48-5.16 8.78 8.78 0 01.12-3.68zm-16.08-.6a5.94 5.94 0 011.72-3.12 7.58 7.58 0 016.28-1.88 5.21 5.21 0 011.68.52v-.32c-.08-3.48.08-7 .28-10.44a1.76 1.76 0 011.36-1.64h.64c.68 0 .92.16 1 .84a6.21 6.21 0 01-.08 1.72c-.24 2.32-.32 4.64-.44 7s0 4.68.12 7c0 1 .08 2 .2 3 .24 1.76.56 3.48.88 5.2a.72.72 0 010 .64 1.52 1.52 0 01-1.8.6 1.16 1.16 0 01-.44-.44c-.16-.36-.28-.72-.4-1.08s0-.24-.12-.28-.92.76-1.4 1.08a6.42 6.42 0 01-5.08.88 5.7 5.7 0 01-4.2-4 8.66 8.66 0 01-.16-5.28zm-18 1.72a7.77 7.77 0 012.8-5.16 8.8 8.8 0 018.24-1l.64.28a.8.8 0 00.88 0 1.89 1.89 0 011-.28c.72 0 1 .24 1 1v5.6a35.68 35.68 0 00.8 5.44 1.11 1.11 0 01-.76 1.48 1.18 1.18 0 01-1.76-.64 7.4 7.4 0 01-.44-1l-.88.6a8 8 0 01-6.2 1.32 7 7 0 01-5.2-4.92 6.53 6.53 0 01-.12-2.72zm-16-3.16A8.11 8.11 0 0185 93.88a6.74 6.74 0 013.24-.32 8 8 0 014.24 2.08 4.75 4.75 0 01.92 1.08 1.1 1.1 0 01-.36 1.6c-.6.48-.92.48-1.48 0l-1-.84a4.68 4.68 0 00-4.2-1.24 4.82 4.82 0 00-4.12 5.52A3.94 3.94 0 0085 105.2a6.68 6.68 0 003.32.24 4 4 0 003.08-2 2.9 2.9 0 01.44-.6 1 1 0 011.36-.24l.44.28a1.13 1.13 0 01.32 1.28l-.24.56a5.64 5.64 0 01-3.36 2.84 10.44 10.44 0 01-5.08.48 6.39 6.39 0 01-5.4-4.36 6.23 6.23 0 01-.48-2.48 6.48 6.48 0 011.08-4zm-8.36 4.32c.08-1.6 0-3.2.12-4.8a7.93 7.93 0 01.4-2.16 1.41 1.41 0 011.64-.92 1.37 1.37 0 011.25 1.47l-.24 3.68a51.1 51.1 0 000 7 8.36 8.36 0 010 1 1 1 0 01-1 1.12h-.08a2.43 2.43 0 01-1.72-.52 1 1 0 01-.4-.8c0-1.72-.12-3.4 0-5.12zm-.4-13.48A2.58 2.58 0 0175 85.56c1.56.48 1.6 1 1.88 2a2.32 2.32 0 01-1.45 2.94 1.39 1.39 0 01-.19.06A2.53 2.53 0 0172 89.13c0-.14-.08-.27-.11-.41s0-.4-.08-.64zM64 96.28v-4.16a71.31 71.31 0 01.64-7.12 9.24 9.24 0 01.48-2.08 1.23 1.23 0 01.72-.88 2.12 2.12 0 011.64-.08.88.88 0 01.64 1l-.36 2.88a48.82 48.82 0 00-.44 5.92c-.08 2.6-.12 5.2 0 7.76.08 1.4.2 2.8.28 4.2s.16 1.8.28 2.72a1.58 1.58 0 01-.24 1.12c-.36.6-2.32.68-2.68-.12-.08-.16-.2-.36-.28-.56a7.19 7.19 0 01-.2-.8A38.72 38.72 0 0164 100v-3.68zm-7.76.6a99.74 99.74 0 01.48-10.08c.08-.52.12-1 .2-1.56a9.21 9.21 0 01.48-2.32 1.47 1.47 0 012-1 1.08 1.08 0 011 1.12 3.24 3.24 0 010 .88c-.16.88-.24 1.76-.32 2.68-.2 1.72-.36 3.48-.44 5.24-.12 2.88 0 5.8.12 8.68 0 1.08.16 2.16.24 3.24s.2 2.08.32 3.12a.92.92 0 01-.74 1.07h-.18a1.63 1.63 0 01-.76 0 1.59 1.59 0 01-1.48-1 4.59 4.59 0 01-.28-1 16.46 16.46 0 01-.48-3.12c0-.28 0-.52-.08-.76q-.16-2.55-.12-5.19zm-7-2.68a1.94 1.94 0 011.76-.48 1.52 1.52 0 011 1.2 7 7 0 01.2 1.64c0 3.4 0 6.8-.12 10.16 0 .8-.32 1.12-1.08 1.24h-.32c-1.16.08-1.64-.32-1.64-1.52v-6c0-1.8-.12-3.64-.2-5.48a1.07 1.07 0 01.32-.76zm-1.64-5.88a2.85 2.85 0 012.4-2.88A2.63 2.63 0 0152.68 88a2.48 2.48 0 01-2.48 2.72c-1.44-.04-2.76-1.28-2.68-2.4z"/><path d="M121.2 96.2l-1.28.16a3.69 3.69 0 00-2.84 2.4 7.35 7.35 0 00-.4 3.08 3.66 3.66 0 005 3.24 3.72 3.72 0 002.76-3.56 9.46 9.46 0 00-.16-3 6.92 6.92 0 00-.28-.76 2.55 2.55 0 00-2.16-1.52zM108.56 101a8 8 0 00-.12-2 2.87 2.87 0 00-2.6-2.68 6.39 6.39 0 00-3.36.12 5 5 0 00-3.32 5.84 3.79 3.79 0 001 1.88 4.86 4.86 0 004.68 1.36 6.31 6.31 0 002.72-1.48 3 3 0 001-2.44zM137.64 105.6a4.7 4.7 0 002.84-.92 3.85 3.85 0 001.72-2.68 6.52 6.52 0 00-.28-3.16 4 4 0 00-3.84-2.8 7.6 7.6 0 00-2.32.36 4.05 4.05 0 00-2.8 3.12 6.06 6.06 0 000 2.68 4.56 4.56 0 004.68 3.4z"/><path d="M170 152H22a6 6 0 01-6-6V46a6 6 0 016-6h148a6 6 0 016 6v100a6 6 0 01-6 6zm-146-8h144V48H24z"/></svg>