<svg xmlns="http://www.w3.org/2000/svg" viewBox="0 0 96 96"><path fill="#222020" d="M68.23 51.8v-.38h-.15v-.09h.41v.09h-.16v.38zm.79 0v-.33l-.1.27h-.12l-.11-.27v.33h-.12v-.47h.17l.12.29.11-.29h.17v.47z"/><path d="M24 42.93h1.71v.57h.07a3.65 3.65 0 011.87-.69 6 6 0 011.94.11 2.65 2.65 0 012 2.17 9.36 9.36 0 01.16 2.9 7.72 7.72 0 01-.23 1.66 2.7 2.7 0 01-2.41 2.13c-.74.1-1.48.08-2.23.12v-1.77h.73c.33 0 .65 0 1-.08a1.06 1.06 0 00.91-.84 4.61 4.61 0 00.17-1 11.14 11.14 0 00-.05-2.45 3.63 3.63 0 00-.1-.45 1.11 1.11 0 00-.87-.77 3.68 3.68 0 00-1.55 0 1.23 1.23 0 00-1 1.23v9.12h-1.9c-.16 0-.19 0-.19-.17v-.86zM61.66 37.4v11.25a5.3 5.3 0 00.16 1.32 2.28 2.28 0 001.74 1.75 7.11 7.11 0 003.55 0 2.86 2.86 0 002.15-2.29 9.77 9.77 0 000-4.1A2.74 2.74 0 0066.74 43a20.75 20.75 0 00-2.09 0h-.07v1.73h.2a12 12 0 011.2 0 1.23 1.23 0 011.29 1.13 9.73 9.73 0 010 3.14A1.23 1.23 0 0166 50.13a4.82 4.82 0 01-1.2 0c-.63-.09-.93-.47-1-1.17V37.64a10.35 10.35 0 017 5.55 10.23 10.23 0 01-.92 11.11 10.42 10.42 0 01-9.53 4.25V46.1h-2.2v12a10.49 10.49 0 01-6.91-6.89 10.75 10.75 0 011.91-10h.07v8.19a5.81 5.81 0 00.06.93 1.65 1.65 0 001.39 1.44 10.69 10.69 0 002.2.1v-1.81h-1.14c-.27 0-.37-.1-.39-.37s0-.36 0-.55v-9.62a.42.42 0 01.23-.41 10.54 10.54 0 016-1.71zM58 44.13a1 1 0 00.84 1.17 2.09 2.09 0 00.66 0 1 1 0 001-1V44a1 1 0 00-.87-1 2.07 2.07 0 00-.5 0A1 1 0 0058 44.13zM41.55 43h2.1v5.74a5.65 5.65 0 000 .71.76.76 0 00.55.61 3.14 3.14 0 001.94 0 .85.85 0 00.6-.79v-.6V43h2v9.72a5.21 5.21 0 01-.1 1 1.53 1.53 0 01-1.26 1.23 13 13 0 01-2.19.11v-1.82h1.13a.35.35 0 00.34-.33v-1.15l-1.44.1a5.21 5.21 0 01-2.07-.27 2.4 2.4 0 01-1.68-2.23v-1-5.19zM40.41 42.93v8.93h-2.08v-.44a4 4 0 01-.75.29 5.1 5.1 0 01-2.87-.07 2.63 2.63 0 01-1.88-2.18 6.54 6.54 0 01-.17-1.33 11.21 11.21 0 01.15-3 2.76 2.76 0 012.74-2.37 6.66 6.66 0 011.84.11 3.06 3.06 0 011.27.61v-.6zm-2.08 4.36v-.72-.72a1.22 1.22 0 00-1.11-1.31 8.55 8.55 0 00-1.24 0 1.18 1.18 0 00-1.08.91 4.1 4.1 0 00-.1.48v2.39a3.74 3.74 0 00.17 1 1.08 1.08 0 00.93.81 4.81 4.81 0 001.2 0 1.35 1.35 0 001.28-1.47z"/><path d="M85 76H11a3 3 0 01-3-3V23a3 3 0 013-3h74a3 3 0 013 3v50a3 3 0 01-3 3zm-73-4h72V24H12z"/></svg>