<svg xmlns="http://www.w3.org/2000/svg" viewBox="0 0 192 192"><path fill="#222020" d="M143.2 102.88V102h-.36v-.2h1v.2h-.36v.88zm1.84 0v-.76l-.24.64h-.28l-.24-.64v.76H144v-1.08h.4l.28.68.24-.68h.4v1.08z"/><path d="M58.24 123.24h75.52L96 85.32l-37.76 37.92zM56.6 121.56l5.84-5.84-1.96-1.96-3.68 3.68-6.64-6.68-2.16 2.2 8.6 8.6zM58.84 105.6l1.48 1.48 3-3.04 1.76 1.76-3.04 3.04 1.88 1.88 3.76-3.76 1.72 1.76-5.92 5.92-8.56-8.6 5.92-5.96 1.72 1.76-3.72 3.76M78.2 99.88l-5.84-1.64a3.68 3.68 0 00-.8-4.2 3.53 3.53 0 00-4.92.24l-4.32 4.36 8.56 8.64 2.2-2.2-7-7 1.4-1.4a1.56 1.56 0 112.2 2.2l-1.28 1.28 7.44 2.12zM74.2 86.28a5.82 5.82 0 018.72.12c2.48 2.56 2.8 6.08.12 8.76a6.27 6.27 0 01-8.84-8.88zM75.88 88c-1.36 1.36-.88 3 .76 4.72s3.32 2.12 4.68.72.92-3-.76-4.68-3.32-2.12-4.68-.76zM85.56 81.76l-1.6-4.88 2.52-2.56 2.16 8.36L92 86.04l-2.2 2.2-3.36-3.36-7.96-2.52 2.4-2.44 4.6 1.8.08.04zM125.24 111.36l8.6-8.6-2.32-2.32-8.6 8.64 2.32 2.28zM92.44 78.48l6.68-3.2-4.92 4.92 1.96 2 8.6-8.6-2.72-2.76L95.56 74l3.24-6.4-2.8-2.84-8.6 8.64 2 2 4.92-4.96-3.2 6.72 1.32 1.32zM107.32 79.68l-1.44 1.48 3.28 3.32-1.76 1.76-3.28-3.32-1.88 1.88 4 4-1.72 1.76-6.2-6.2 8.6-8.64 6.16 6.24-1.72 1.76-4.04-4.04M115.44 101.56l5.84 5.88 1.96-1.96-3.64-3.68 6.64-6.68-2.2-2.16-8.6 8.6zM138.8 107.72l-2.76 9.16 5.92-5.96 2.04 2.04-8.6 8.64-2.68-2.72 2.36-9.4v-.04l-5.88 5.92-2-2 8.6-8.64 3 3zM114 100.12l1.68-5.88a3.68 3.68 0 004.2-.84 3.53 3.53 0 00-.24-4.92L115 83.84l-8.56 8.64 2.16 2.2 7-7 1.68 1.68a1.56 1.56 0 11-2 2.36s-.11-.1-.16-.16L113.48 90l-1.8 7.72z"/><path d="M170 152H22a6 6 0 01-6-6V46a6 6 0 016-6h148a6 6 0 016 6v100a6 6 0 01-6 6zm-146-8h144V48H24z"/></svg>