<svg xmlns="http://www.w3.org/2000/svg" viewBox="0 0 96 96"><path fill="#222020" d="M71 51.38V51h-.17v-.1h.47v.1h-.18v.43zm.91 0V51l-.12.32h-.13l-.17-.32v.38h-.14v-.53h.2l.13.33.12-.33h.2v.53z"/><path d="M29.05 61.42H66.3l-18.63-18.7-18.62 18.7zM28.24 60.59l2.88-2.88-.96-.96-1.82 1.81-3.27-3.29L24 56.35l4.24 4.24zM29.35 52.72l.73.73 1.48-1.5.86.87-1.49 1.5.92.93 1.86-1.86.84.87-2.91 2.92-4.23-4.24L30.33 50l.85.87-1.83 1.85M38.9 49.9l-2.9-.81a1.81 1.81 0 00-.38-2.09 1.75 1.75 0 00-2.43.12l-2.13 2.15 4.22 4.26 1.09-1.09L32.94 49l.69-.69a.77.77 0 111.08 1.09l-.63.63 3.67 1zM36.92 43.19a2.87 2.87 0 014.3.06A3 3 0 1137 47.53a2.92 2.92 0 01-.08-4.34zm.83.85c-.67.67-.43 1.5.38 2.33s1.63 1 2.3.35.46-1.48-.37-2.3-1.64-1.05-2.31-.42zM42.52 40.96l-.78-2.4 1.24-1.27 1.06 4.13 1.66 1.65-1.08 1.09-1.66-1.66-3.93-1.24 1.19-1.21 2.27.89.03.02zM62.1 55.56l4.24-4.24-1.15-1.14-4.24 4.26 1.15 1.12zM45.92 39.34l3.29-1.57-2.42 2.42.96.99 4.24-4.24-1.34-1.36-3.19 1.56 1.59-3.16-1.38-1.4-4.24 4.26.99.99 2.43-2.45-1.58 3.31.65.65zM53.26 39.94l-.71.73 1.61 1.63-.86.87-1.62-1.64-.93.93 1.98 1.98-.85.86-3.06-3.06 4.24-4.26 3.04 3.08-.85.87-1.99-1.99M57.26 50.73l2.88 2.9.97-.97-1.8-1.81 3.28-3.3-1.09-1.06-4.24 4.24zM68.78 53.77l-1.36 4.51 2.92-2.94 1.01 1.01-4.24 4.26-1.33-1.34 1.17-4.64v-.01l-2.9 2.91-.99-.98 4.25-4.26 1.47 1.48zM56.55 50l.83-2.9a1.81 1.81 0 002.07-.42 1.73 1.73 0 00-.12-2.42L57.05 42l-4.23 4.26 1.07 1.09 3.43-3.46.83.83a.77.77 0 01.08 1.09.76.76 0 01-1.08.08l-.08-.08-.77-.81-.89 3.8z"/><path d="M85 76H11a3 3 0 01-3-3V23a3 3 0 013-3h74a3 3 0 013 3v50a3 3 0 01-3 3zm-73-4h72V24H12z"/></svg>