<svg xmlns="http://www.w3.org/2000/svg" viewBox="0 0 192 192"><path fill="#222020" d="M143.2 104.88V104h-.36v-.2h1v.2h-.36v.88zm1.84 0v-.76l-.24.64h-.28l-.24-.64v.76H144v-1.08h.4l.28.68.24-.68h.4v1.08z"/><path d="M65.8 124.56a3.69 3.69 0 00-1-.6 2.89 2.89 0 00-1.2-.2h-.72l-.72.2a2.35 2.35 0 00-.64.44 1.65 1.65 0 00-.52.6 3.11 3.11 0 00-1-1 3 3 0 00-1.48-.32h-.6l-.6.16a2.23 2.23 0 00-.56.36 2 2 0 00-.48.52v-.92h-1.6v7.56h1.6v-4.12a1.85 1.85 0 01.16-.84 2 2 0 01.4-.64 1.42 1.42 0 01.6-.36 2.22 2.22 0 01.72-.12 1.69 1.69 0 011.28.48 2.31 2.31 0 01.44 1.48v4.2h1.6v-4.2a2.41 2.41 0 01.12-.84 2.35 2.35 0 01.44-.64 1.42 1.42 0 01.6-.36 1.76 1.76 0 01.72-.12 1.6 1.6 0 011.24.48 2.13 2.13 0 01.44 1.48v4.2h1.6v-4.76a3.78 3.78 0 00-.2-1.2 3.69 3.69 0 00-.64-.92zM74.2 124.84a2.66 2.66 0 00-1-.8 3.08 3.08 0 00-1.4-.28 3.58 3.58 0 00-1.48.28 3.51 3.51 0 00-2 2.08 4.15 4.15 0 00-.28 1.6 4 4 0 00.28 1.56 4.25 4.25 0 00.8 1.28 3.88 3.88 0 001.2.8 3.62 3.62 0 001.48.32 2.94 2.94 0 001.4-.32 2.34 2.34 0 001-.8v.92h1.64v-7.56H74.2zm0 3.84a2.87 2.87 0 01-.48.76 2.33 2.33 0 01-.72.48 2.24 2.24 0 01-.92.2 2.43 2.43 0 01-1-.2 1.78 1.78 0 01-.72-.52 2.58 2.58 0 01-.6-1.68 2.62 2.62 0 01.16-1 2.13 2.13 0 011.16-1.28 2.43 2.43 0 011-.2 2.24 2.24 0 01.92.2 1.78 1.78 0 01.72.52 2.09 2.09 0 01.48.76 3.45 3.45 0 01.16 1 3.86 3.86 0 01-.2.96zM83.4 127.68a3.82 3.82 0 00-1.92-.72l-.76-.12-.52-.08-.36-.12-.28-.24a.47.47 0 01-.12-.32.76.76 0 01.4-.64 1.89 1.89 0 011-.28l.68.08.68.16.56.2.4.24.72-1.28a3.78 3.78 0 00-1.36-.6 6 6 0 00-1.68-.2 4.51 4.51 0 00-1.32.16 3.46 3.46 0 00-1 .48 1.88 1.88 0 00-.64.76 2.66 2.66 0 00-.2 1 1.82 1.82 0 00.64 1.48 3.82 3.82 0 001.92.72l.76.12a2.34 2.34 0 011 .28.7.7 0 01.32.56.72.72 0 01-.32.68 2.19 2.19 0 01-1.28.28l-.84-.08-.68-.2-.56-.24-.44-.32-.76 1.24a4.53 4.53 0 00.84.52l.88.28.84.16h.68a5.39 5.39 0 001.44-.16 2.78 2.78 0 001.08-.48 2.36 2.36 0 00.68-.76 2 2 0 00.2-1 1.76 1.76 0 00-.68-1.56zM98.8 124.84a2.79 2.79 0 00-1.12-.8 3.4 3.4 0 00-1.44-.28 3.6 3.6 0 00-1.52.28 2.79 2.79 0 00-1.2.8 3.61 3.61 0 00-.76 1.24 4.36 4.36 0 00-.28 1.64 4.15 4.15 0 00.28 1.6 3.79 3.79 0 00.8 1.28 4.42 4.42 0 001.2.8 4.88 4.88 0 001.56.28 5.66 5.66 0 001.64-.24 4.27 4.27 0 001.48-.84l-.84-1.16a3.18 3.18 0 01-1 .56 2.68 2.68 0 01-1.12.24 2.42 2.42 0 01-.76-.12 1.79 1.79 0 01-.68-.36 1.85 1.85 0 01-.52-.56 2.12 2.12 0 01-.28-.88h5.56a.85.85 0 010-.32v-.32a4.15 4.15 0 00-.28-1.6 3.51 3.51 0 00-.72-1.24zM94.2 127a3.49 3.49 0 01.2-.72 1.64 1.64 0 01.44-.6 1.6 1.6 0 011.36-.52 1.74 1.74 0 011.28.48 2.68 2.68 0 01.64 1.36zM120.64 124.84a3.36 3.36 0 00-1-.8 2.89 2.89 0 00-1.36-.28 3.42 3.42 0 00-1.48.28 3.77 3.77 0 00-1.2.8 3.3 3.3 0 00-.8 1.28 4.19 4.19 0 00-.32 1.6 4 4 0 00.32 1.56 3 3 0 00.8 1.28 3.06 3.06 0 001.2.8 3.58 3.58 0 001.48.32 2.81 2.81 0 001.36-.32 2.77 2.77 0 001-.8v.92h1.64v-7.56h-1.64zm-.08 3.84a3.2 3.2 0 01-.44.76 2.33 2.33 0 01-.72.48 2.43 2.43 0 01-1 .2 2.24 2.24 0 01-.92-.2 1.78 1.78 0 01-.72-.52 1.71 1.71 0 01-.44-.76 2.41 2.41 0 01-.16-.92 2.62 2.62 0 01.16-1 1.71 1.71 0 01.44-.76 2.23 2.23 0 011.64-.72 2.43 2.43 0 011 .2 1.78 1.78 0 01.72.52 2.08 2.08 0 01.44.76 2.43 2.43 0 01.16 1 2.62 2.62 0 01-.16.96zM90.44 130a1.68 1.68 0 01-.76.16l-.48-.16a.6.6 0 01-.36-.24 1.57 1.57 0 01-.28-.44 2.74 2.74 0 01-.08-.64v-3.28h2.64v-1.52h-2.64v-2.28h-1.64v2.28h-1.52v1.52h1.52v3.32a3.13 3.13 0 00.68 2.2 2.72 2.72 0 002 .72 3.13 3.13 0 001.28-.24 3.86 3.86 0 00.72-.32l-.56-1.4a1.24 1.24 0 01-.52.32zM105.28 123.76a3.08 3.08 0 00-1.28.24 2.54 2.54 0 00-.92.92v-1h-1.48v7.56h1.52v-4.16a2.41 2.41 0 01.12-.84 2 2 0 01.4-.64 1.12 1.12 0 01.56-.4 1.76 1.76 0 01.72-.12h.64l.32.12.48-1.6-.4-.08zM128.12 123.76a3.08 3.08 0 00-1.24.24 2.54 2.54 0 00-.92.92v-1h-1.52v7.56H126v-4.16a1.85 1.85 0 01.16-.84 1.46 1.46 0 01.36-.64 1.12 1.12 0 01.56-.4 1.76 1.76 0 01.72-.12h.64l.32.12.48-1.6-.4-.08zM135.8 120.88v4a2.66 2.66 0 00-1-.8 3.08 3.08 0 00-1.4-.28 3.75 3.75 0 00-1.4.2 3.51 3.51 0 00-2 2.08 4.15 4.15 0 00-.28 1.6 4 4 0 00.28 1.56 4.25 4.25 0 00.8 1.28 3.88 3.88 0 001.2.8 4 4 0 001.48.32 2.94 2.94 0 001.4-.32 2.34 2.34 0 001-.8v.92h1.64v-10.6zm0 7.8a2.87 2.87 0 01-.48.76 2.33 2.33 0 01-.72.48 2.24 2.24 0 01-.92.2 2.43 2.43 0 01-1-.2 1.78 1.78 0 01-.72-.52 2.58 2.58 0 01-.6-1.68 3.45 3.45 0 01.16-1 3.2 3.2 0 01.48-.72 2.33 2.33 0 01.72-.52 2.43 2.43 0 011-.2 2.24 2.24 0 01.92.2 1.78 1.78 0 01.72.52 2.09 2.09 0 01.48.76 3.45 3.45 0 01.16 1 3.86 3.86 0 01-.24.92zM109.24 126a2.33 2.33 0 01.72-.48 2.43 2.43 0 011-.2 2.66 2.66 0 011 .2 1.51 1.51 0 01.8.48l.8-1.32a3.91 3.91 0 00-1-.6 4.15 4.15 0 00-1.6-.28 4.36 4.36 0 00-1.64.28 3.9 3.9 0 00-1.28.84 3.73 3.73 0 00-.84 1.24 4.19 4.19 0 00-.32 1.6 4 4 0 00.32 1.56 3.73 3.73 0 00.84 1.24 3.9 3.9 0 001.28.84 4.39 4.39 0 001.64.32 4.19 4.19 0 001.6-.32 5.45 5.45 0 001-.56l-.8-1.32a2.25 2.25 0 01-.8.48 3.8 3.8 0 01-1 .16 3.45 3.45 0 01-1-.16 2.33 2.33 0 01-.72-.52 2 2 0 01-.52-.76 2.62 2.62 0 01-.16-1 2.83 2.83 0 01.16-1 2 2 0 01.52-.72zM85.2 88.72A28.28 28.28 0 0196 66.48 28.4 28.4 0 1096 111a28.38 28.38 0 01-10.8-22.28zM113.6 64.32a24.4 24.4 0 010 48.8 23.81 23.81 0 01-11.16-2.72 32.28 32.28 0 000-43.36 23.81 23.81 0 0111.16-2.72m0-4A28.22 28.22 0 0096 66.48 28.36 28.36 0 0196 111a28.4 28.4 0 1017.6-50.68z"/><path d="M170 152H22a6 6 0 01-6-6V46a6 6 0 016-6h148a6 6 0 016 6v100a6 6 0 01-6 6zm-146-8h144V48H24z"/></svg>