<svg xmlns="http://www.w3.org/2000/svg" viewBox="0 0 48 48"><path fill="#222020" d="M24 4c-.51 0-1 0-1.54.08a13.49 13.49 0 0 0-9 21.84A11 11 0 0 1 16 32.78V33a2 2 0 0 0 1 1.76V36a3.49 3.49 0 0 0 2 3.16 5 5 0 0 0 10 0A3.49 3.49 0 0 0 31 36v-1.28A2 2 0 0 0 32 33v-.22a11 11 0 0 1 2.53-6.85A13.49 13.49 0 0 0 24 4zm3.5 32.5h-7a.5.5 0 0 1-.5-.5v-1h8v1a.5.5 0 0 1-.5.5zM24 41a2 2 0 0 1-1.93-1.5h3.86A2 2 0 0 1 24 41zm8.19-16.95A14 14 0 0 0 29 32H19a14 14 0 0 0-3.18-8 10.48 10.48 0 0 1 7-17A9.93 9.93 0 0 1 24 7a10.51 10.51 0 0 1 10.5 10.5 10.35 10.35 0 0 1-2.31 6.55z"/><path d="M24.63 11.22a1 1 0 0 0-1.26 0 10.73 10.73 0 0 0-4.12 8.28A10.64 10.64 0 0 0 23 27.44V29a1 1 0 0 0 2 0v-1.56a10.64 10.64 0 0 0 3.75-7.94 10.73 10.73 0 0 0-4.12-8.28zM25 24.54V20a1 1 0 0 0-2 0v4.54a8.29 8.29 0 0 1-1.75-5A8.46 8.46 0 0 1 24 13.33a8.46 8.46 0 0 1 2.75 6.17A8.29 8.29 0 0 1 25 24.54z"/></svg>