<svg xmlns="http://www.w3.org/2000/svg" viewBox="0 0 24 24"><path fill="#222020" d="M19.62 19a5 5 0 0 0-4.39-4A6 6 0 0 0 18 10v-.68c.16-.09.34-.15.5-.25a1 1 0 0 0 .36-1.36 1 1 0 0 0-.92-.49A6 6 0 0 0 12.56 2 5.12 5.12 0 0 0 12 2a6 6 0 0 0-5.94 5.2 1 1 0 0 0-.59 1.85l.53.29V10a6 6 0 0 0 2.77 5.05 5 5 0 0 0-4.39 4L4 20.8a1 1 0 0 0 .21.83A1 1 0 0 0 5 22h14a1 1 0 0 0 .77-.37 1 1 0 0 0 .23-.83zM8.5 7.51A3.52 3.52 0 0 1 10 4.66V6.5a.5.5 0 0 0 1 0V4.17a3 3 0 0 1 2 0V6.5a.5.5 0 0 0 1 0V4.65a3.51 3.51 0 0 1 1.5 2.84v.71a11.31 11.31 0 0 1-7 0zm3.5 3.3a13.06 13.06 0 0 0 4-.65 4 4 0 0 1-8 0 13 13 0 0 0 4 .65zM6.22 20l.12-.59A3 3 0 0 1 9.28 17h5.44a3 3 0 0 1 2.94 2.41l.12.59z"/></svg>