<svg xmlns="http://www.w3.org/2000/svg" viewBox="0 0 64 64"><path fill="#222020" d="M53.5 28.5h-.39A5.46 5.46 0 0 0 44 26.74a5.47 5.47 0 0 0-8 0 5.47 5.47 0 0 0-8 0 5.47 5.47 0 0 0-8 0 5.49 5.49 0 0 0-9.5 3.76v23a5.49 5.49 0 0 0 9.5 3.76 5.47 5.47 0 0 0 8 0 5.47 5.47 0 0 0 8 0 5.47 5.47 0 0 0 8 0 5.49 5.49 0 0 0 9.5-3.76v-15a5 5 0 0 0 0-10zm-35 25a2.5 2.5 0 0 1-5 0v-23a2.5 2.5 0 0 1 5 0zm8 0a2.5 2.5 0 0 1-5 0v-23a2.5 2.5 0 0 1 5 0zm8 0a2.5 2.5 0 0 1-5 0v-23a2.5 2.5 0 0 1 5 0zm8 0a2.5 2.5 0 0 1-5 0v-23a2.5 2.5 0 0 1 5 0zm8 0a2.5 2.5 0 0 1-5 0v-23a2.49 2.49 0 0 1 4.84-.84 4.93 4.93 0 0 0 .16 7.81zm3-18a2 2 0 1 1 2-2 2 2 0 0 1-2 2z"/><path d="M31.74 21.5a1.51 1.51 0 0 1-1.36-.85 9.07 9.07 0 0 1 .31-8.37 6.07 6.07 0 0 0 .22-5.63 1.5 1.5 0 0 1 2.71-1.3 9.07 9.07 0 0 1-.31 8.37 6.07 6.07 0 0 0-.22 5.63 1.5 1.5 0 0 1-1.35 2.15zM23.24 21.5a1.51 1.51 0 0 1-1.36-.85 9.07 9.07 0 0 1 .31-8.37 6.07 6.07 0 0 0 .22-5.63 1.5 1.5 0 0 1 2.71-1.3 9.07 9.07 0 0 1-.31 8.37 6.07 6.07 0 0 0-.22 5.63 1.5 1.5 0 0 1-1.35 2.15zM40.24 21.5a1.51 1.51 0 0 1-1.36-.85 9.07 9.07 0 0 1 .31-8.37 6.07 6.07 0 0 0 .22-5.63 1.5 1.5 0 0 1 2.71-1.3 9.07 9.07 0 0 1-.31 8.37 6.07 6.07 0 0 0-.22 5.63 1.5 1.5 0 0 1-1.35 2.15z"/></svg>