<svg xmlns="http://www.w3.org/2000/svg" viewBox="0 0 48 48"><path fill="#222020" d="M16 6v27.5h-4a2 2 0 0 0-2 2v4a4.49 4.49 0 0 0 4.5 4.5h18a5.5 5.5 0 0 0 5.5-5.5V6a2 2 0 0 0-2-2H18a2 2 0 0 0-2 2zm-1.5 35a1.5 1.5 0 0 1-1.5-1.5v-3h14v2a5.52 5.52 0 0 0 .6 2.5zM35 38.5a2.51 2.51 0 0 1-2.76 2.5A2.61 2.61 0 0 1 30 38.35V35.5a2 2 0 0 0-2-2h-9V7h16z"/><path d="M21.5 17.4a1 1 0 0 0 1 1h.66a5.78 5.78 0 0 0 9 2 1 1 0 0 0-1.3-1.52 3.76 3.76 0 0 1-5.33-.45h2.6a1 1 0 0 0 0-2h-3.46a2.57 2.57 0 0 1-.05-.4 2.57 2.57 0 0 1 .05-.4h3.45a1 1 0 0 0 0-2h-2.6a3.76 3.76 0 0 1 2.88-1.35 3.69 3.69 0 0 1 2.28.77 1 1 0 0 0 1.21-1.6 5.78 5.78 0 0 0-8.73 2.18h-.66a1 1 0 0 0 0 2h.15v.8h-.15a1 1 0 0 0-1 .97z"/></svg>