<svg xmlns="http://www.w3.org/2000/svg" viewBox="0 0 24 24"><defs><style>.cls-1{fill:none;}.cls-2{fill:#191919;}</style></defs><title>Device_Laptop_24px</title><g id="Square"><rect class="cls-1" width="24" height="24"/></g><g id="Calque_5" data-name="Calque 5"><path class="cls-2" d="M21,14H20V5a1,1,0,0,0-1-1H5A1,1,0,0,0,4,5v9H3a1,1,0,0,0-1,1v2.5A2.5,2.5,0,0,0,4.5,20h15A2.5,2.5,0,0,0,22,17.5V15A1,1,0,0,0,21,14ZM6,6H18v8H6ZM20,17.5a.5.5,0,0,1-.5.5H4.5a.5.5,0,0,1-.5-.5V16H7.5a1,1,0,0,0,1,1h7a1,1,0,0,0,1-1H20Z"/></g></svg>