<svg xmlns="http://www.w3.org/2000/svg" viewBox="0 0 24 24"><defs><style>.cls-1{fill:none;}.cls-2{fill:#999;}</style></defs><title>Instruction_Universe_EssentialProduct_24px</title><g id="Square"><rect class="cls-1" width="24" height="24"/></g><g id="Icon"><path class="cls-2" d="M21,14.71V7.5a1,1,0,0,0-.51-.87l-8-4.5a1,1,0,0,0-1,0l-8,4.5A1,1,0,0,0,3,7.5v9a1,1,0,0,0,.51.87l8,4.5a1,1,0,0,0,1,0l1.95-1.09A4.46,4.46,0,0,0,17.5,22,4.51,4.51,0,0,0,22,17.5,4.42,4.42,0,0,0,21,14.71ZM12,4.15l6.47,3.64L15.78,9.3,9.31,5.66Zm-.5,15.42L5,15.92V8.64l6.5,3.65Zm.5-8.14L5.53,7.79,8.29,6.24l6.47,3.64Zm.5.86L19,8.64v4.64A4.39,4.39,0,0,0,17.5,13a4.47,4.47,0,0,0-4.19,6.11l-.81.46Zm5,8.71A3.5,3.5,0,1,1,21,17.5,3.5,3.5,0,0,1,17.5,21Z"/><polygon class="cls-2" points="18.38 15.25 16.63 15.25 16.63 16.63 15.25 16.63 15.25 18.38 16.63 18.38 16.63 19.75 18.38 19.75 18.38 18.38 19.75 18.38 19.75 16.63 18.38 16.63 18.38 15.25"/></g></svg>