<svg xmlns="http://www.w3.org/2000/svg" viewBox="0 0 24 24"><defs><style>.cls-1{fill:none;}.cls-2{fill:#999;}</style></defs><title>Instruction_Hygiene_Distance_24px</title><g id="Square"><rect class="cls-1" width="24" height="24"/></g><g id="Icon"><path class="cls-2" d="M3,2A1,1,0,0,0,2,3V21a1,1,0,0,0,2,0V3A1,1,0,0,0,3,2Z"/><path class="cls-2" d="M21,2a1,1,0,0,0-1,1V21a1,1,0,0,0,2,0V3A1,1,0,0,0,21,2Z"/><path class="cls-2" d="M16.21,8.79a1,1,0,0,0-1.42,1.42l.8.79H8.41l.8-.79A1,1,0,0,0,7.79,8.79l-2.5,2.5a1,1,0,0,0,0,1.42l2.5,2.5a1,1,0,0,0,1.42,0,1,1,0,0,0,0-1.42L8.41,13h7.18l-.8.79a1,1,0,0,0,0,1.42,1,1,0,0,0,1.42,0l2.5-2.5a1,1,0,0,0,0-1.42Z"/></g></svg>