<svg xmlns="http://www.w3.org/2000/svg" viewBox="0 0 24 24"><defs><style>.cls-1{fill:none;}.cls-2{fill:#999;}</style></defs><title>Instruction_Hygiene_Gel_24px</title><g id="Square"><rect class="cls-1" width="24" height="24"/></g><g id="Icon"><path class="cls-2" d="M21.85,15.14a2.55,2.55,0,0,0-1.29-1.41,2.51,2.51,0,0,0-1.92-.08L15,15a2.5,2.5,0,0,0-2.45-2H8.43a6.08,6.08,0,0,0-3.18.91L2.47,15.65a1,1,0,1,0,1.06,1.7l2.78-1.74A4,4,0,0,1,8.43,15H12.5a.5.5,0,0,1,0,1H9a1,1,0,0,0,0,2h3.5a2.48,2.48,0,0,0,1.55-.55h0l5.27-1.92a.46.46,0,0,1,.38,0,.48.48,0,0,1,.26.28.5.5,0,0,1-.3.64l-9.2,3.35a3,3,0,0,1-1,.18H6a1,1,0,0,0,0,2H9.44a5,5,0,0,0,1.71-.3l9.21-3.35A2.51,2.51,0,0,0,21.85,15.14Z"/><path class="cls-2" d="M12,12a3.79,3.79,0,0,0,3.75-3.82c0-2.47-2.7-5.51-3-5.85a1,1,0,0,0-1.48,0c-.31.34-3,3.38-3,5.85A3.79,3.79,0,0,0,12,12Zm0-7.43a7.74,7.74,0,0,1,1.75,3.61,1.75,1.75,0,1,1-3.5,0A7.74,7.74,0,0,1,12,4.57Z"/></g></svg>