<svg xmlns="http://www.w3.org/2000/svg" viewBox="0 0 24 24"><defs><style>.cls-1{fill:none;}.cls-2{fill:#999;}</style></defs><title>Instruction_Payment_NoContact_24px</title><g id="Square"><rect class="cls-1" width="24" height="24"/></g><g id="Icon"><path class="cls-2" d="M21,4H3A1,1,0,0,0,2,5V19a1,1,0,0,0,1,1H21a1,1,0,0,0,1-1V5A1,1,0,0,0,21,4ZM20,18H4V6H20Z"/><path class="cls-2" d="M6,14.5h4a.5.5,0,0,0,.5-.5V10a.5.5,0,0,0-.5-.5H6a.5.5,0,0,0-.5.5v4A.5.5,0,0,0,6,14.5Zm.5-1v-1h1v1Zm3-3v3h-1v-3Zm-3,0h1v1h-1Z"/><circle class="cls-2" cx="12.75" cy="12" r="0.75"/><path class="cls-2" d="M16.33,15.61a.54.54,0,0,0,.35.14A.51.51,0,0,0,17,15.6a5.17,5.17,0,0,0,0-7.2.5.5,0,1,0-.72.7,4.15,4.15,0,0,1,0,5.8A.5.5,0,0,0,16.33,15.61Z"/><path class="cls-2" d="M14.5,14.08a.52.52,0,0,0,.35.14.51.51,0,0,0,.36-.15,3,3,0,0,0,0-4.14.5.5,0,0,0-.72.7,2,2,0,0,1,0,2.74A.5.5,0,0,0,14.5,14.08Z"/></g></svg>