<svg xmlns="http://www.w3.org/2000/svg" viewBox="0 0 24 24"><defs><style>.cls-1{fill:none;}.cls-2{fill:#999;}</style></defs><title>Instruction_Payment_Checkout_24px</title><g id="Square"><rect class="cls-1" width="24" height="24"/></g><g id="Icon"><path class="cls-2" d="M21,15H19.89l-.7-6.33a3,3,0,0,0-3-2.67H12.5V5H15a.5.5,0,0,0,.5-.5v-2A.5.5,0,0,0,15,2H9a.5.5,0,0,0-.5.5v2A.5.5,0,0,0,9,5h2.5V6H7.79a3,3,0,0,0-3,2.67L4.11,15H3a1,1,0,0,0-1,1v5a1,1,0,0,0,1,1H21a1,1,0,0,0,1-1V16A1,1,0,0,0,21,15ZM6.8,8.89a1,1,0,0,1,1-.89h8.42a1,1,0,0,1,1,.89L17.88,15H6.12ZM20,20H4V17H20Z"/><path class="cls-2" d="M10.5,19h3a.5.5,0,0,0,0-1h-3a.5.5,0,0,0,0,1Z"/><rect class="cls-2" x="8" y="10" width="8" height="2"/></g></svg>