<svg xmlns="http://www.w3.org/2000/svg" viewBox="0 0 78 24">
    <g id="Square"> </g>
  <g clip-path="url(#a)">
    <path d="M12.057 17.61v-4.25H7.773v4.249h4.284Zm-.017-5.73V7.596H7.756v4.284h4.284Zm-5.712 5.712v-4.284H2.043v4.284h4.285ZM24.83 7.327c0 2.956-2.378 5.326-5.44 5.326h-2.336v4.884h-3.556V2h5.884c3.07 0 5.448 2.378 5.448 5.327Zm-3.549 0c0-1.136-.8-2-1.885-2h-2.335v3.999h2.335c1.086 0 1.885-.864 1.885-2Zm15.945-1.186v11.396h-3.42v-1.07c-.75.863-1.871 1.392-3.4 1.392-2.984 0-5.447-2.62-5.447-6.02 0-3.398 2.463-6.019 5.448-6.019 1.528 0 2.641.521 3.398 1.392v-1.07h3.42Zm-3.42 5.698c0-1.706-1.143-2.784-2.714-2.784-1.57 0-2.713 1.07-2.713 2.784 0 1.707 1.142 2.785 2.713 2.785 1.57-.007 2.713-1.078 2.713-2.785Zm16.408-5.698-3.87 10.982c-1.271 3.599-3.285 5.027-6.455 4.87v-3.17c1.585 0 2.335-.5 2.828-1.878L38.218 6.14h3.734l2.514 6.927 2.128-6.927h3.62Zm12.66 1.186c0 2.956-2.378 5.326-5.441 5.326h-2.335v4.884h-3.556V2h5.883c3.07 0 5.449 2.378 5.449 5.327Zm-3.55 0c0-1.136-.799-2-1.884-2h-2.335v3.999h2.335c1.085 0 1.885-.864 1.885-2Zm3.992 4.669c0-3.306 2.62-5.862 5.884-5.862 3.263 0 5.883 2.556 5.883 5.862s-2.62 5.863-5.883 5.863-5.884-2.557-5.884-5.863Zm8.44 0c0-1.578-1.114-2.62-2.556-2.62s-2.556 1.042-2.556 2.62 1.114 2.62 2.556 2.62c1.45 0 2.556-1.042 2.556-2.62Z"/>
  </g>
  <defs>
    <clipPath id="a">
      <rect width="73.045" height="20" fill="#fff" transform="translate(2.045 2)"/>
    </clipPath>
  </defs>
</svg>
