<svg xmlns="http://www.w3.org/2000/svg" viewBox="0 0 87 24">
    <g id="Square"> </g>
  <path d="M33.051 6.473h-4.519a.629.629 0 0 0-.62.532l-1.828 11.622c-.037.23.14.436.372.436h2.158c.31 0 .572-.225.62-.532l.493-3.135a.628.628 0 0 1 .62-.532h1.431c2.977 0 4.695-1.445 5.144-4.308.202-1.252.008-2.236-.576-2.926-.643-.757-1.782-1.157-3.295-1.157Zm.522 4.245c-.247 1.626-1.486 1.626-2.684 1.626h-.682l.478-3.037a.377.377 0 0 1 .372-.319h.313c.816 0 1.586 0 1.983.467.238.278.31.692.22 1.263Zm12.987-.053h-2.164a.377.377 0 0 0-.372.32l-.096.606-.151-.22c-.469-.682-1.514-.91-2.556-.91-2.392 0-4.434 1.817-4.832 4.365-.207 1.271.087 2.487.806 3.334.66.78 1.603 1.105 2.726 1.105 1.927 0 2.995-1.243 2.995-1.243l-.096.603c-.036.23.14.437.371.437h1.95c.31 0 .571-.225.62-.532l1.17-7.428a.376.376 0 0 0-.37-.437Zm-3.017 4.225c-.208 1.24-1.19 2.072-2.441 2.072-.629 0-1.13-.202-1.453-.585-.32-.38-.442-.922-.34-1.525.195-1.23 1.193-2.089 2.425-2.089.615 0 1.114.205 1.443.591.33.39.461.935.367 1.536Zm14.543-4.225H55.91a.63.63 0 0 0-.52.277l-3 4.43-1.27-4.257a.63.63 0 0 0-.603-.45H48.38c-.26 0-.44.255-.358.5l2.396 7.05-2.252 3.189a.378.378 0 0 0 .307.596h2.172c.206 0 .399-.1.516-.27l7.233-10.471a.378.378 0 0 0-.31-.594Zm7.2-4.192h-4.52a.628.628 0 0 0-.62.532l-1.828 11.622a.377.377 0 0 0 .372.436h2.319a.44.44 0 0 0 .434-.372l.518-3.295a.628.628 0 0 1 .62-.532h1.43c2.978 0 4.695-1.445 5.145-4.308.202-1.252.007-2.236-.577-2.926-.642-.757-1.78-1.157-3.293-1.157Zm.521 4.245c-.246 1.626-1.485 1.626-2.684 1.626h-.681l.479-3.037a.376.376 0 0 1 .371-.319h.313c.815 0 1.586 0 1.983.467.238.278.31.692.22 1.263Zm12.988-.053h-2.163a.375.375 0 0 0-.372.32l-.095.606-.152-.22c-.469-.682-1.513-.91-2.556-.91-2.391 0-4.433 1.817-4.83 4.365-.207 1.271.086 2.487.805 3.334.66.78 1.603 1.105 2.725 1.105 1.927 0 2.996-1.243 2.996-1.243l-.097.603a.378.378 0 0 0 .373.437h1.949a.628.628 0 0 0 .62-.532l1.17-7.428a.378.378 0 0 0-.373-.437Zm-3.017 4.225c-.208 1.24-1.19 2.072-2.442 2.072-.627 0-1.13-.202-1.453-.585-.32-.38-.44-.922-.34-1.525.197-1.23 1.193-2.089 2.426-2.089.614 0 1.114.205 1.443.591.331.39.462.935.366 1.536Zm5.568-8.098-1.855 11.835a.377.377 0 0 0 .371.436h1.865c.31 0 .573-.226.62-.532l1.83-11.622a.377.377 0 0 0-.372-.437h-2.088a.378.378 0 0 0-.371.32Z"/>
  <path d="M17.744 7.081c-.018.119-.04.24-.063.365-.817 4.209-3.614 5.663-7.186 5.663H8.677a.884.884 0 0 0-.873.75l-.931 5.922-.264 1.679a.466.466 0 0 0 .46.54h3.225a.777.777 0 0 0 .766-.657l.032-.164.607-3.865.04-.212a.776.776 0 0 1 .766-.658h.482c3.125 0 5.572-1.272 6.287-4.954.298-1.539.144-2.823-.647-3.726a3.085 3.085 0 0 0-.883-.683Z" opacity=".6"/>
  <path d="M16.89 6.74a6.424 6.424 0 0 0-.795-.178 10.01 10.01 0 0 0-1.603-.117H9.634a.777.777 0 0 0-.766.657l-1.034 6.565-.03.192a.884.884 0 0 1 .874-.75h1.818c3.572 0 6.368-1.455 7.186-5.663.024-.125.045-.246.063-.365a4.349 4.349 0 0 0-.855-.342Z" opacity=".75"/>
  <path d="M8.868 7.102a.774.774 0 0 1 .766-.656h4.858c.575 0 1.113.037 1.603.117a6.404 6.404 0 0 1 .979.234c.24.08.465.175.672.284.243-1.555-.002-2.614-.841-3.573C15.981 2.452 14.312 2 12.177 2H5.979a.887.887 0 0 0-.876.75L2.521 19.164a.534.534 0 0 0 .526.618h3.826l.961-6.114 1.034-6.565Z"/>
</svg>
