<svg xmlns="http://www.w3.org/2000/svg" viewBox="0 0 24 24"><defs><style>.cls-1{fill:none;}.cls-2{fill:#999;}</style></defs><title>Media_ReduceScreen_24px</title><g id="Square"><rect class="cls-1" width="24" height="24"/></g><g id="Icon"><g id="Name-2" data-name="Name"><path class="cls-2" d="M7,2A1,1,0,0,0,6,3V6H3A1,1,0,0,0,3,8H7A1,1,0,0,0,8,7V3A1,1,0,0,0,7,2Z"/><path class="cls-2" d="M21,16H17a1,1,0,0,0-1,1v4a1,1,0,0,0,2,0V18h3a1,1,0,0,0,0-2Z"/><path class="cls-2" d="M17,8h4a1,1,0,0,0,0-2H18V3a1,1,0,0,0-2,0V7A1,1,0,0,0,17,8Z"/><path class="cls-2" d="M7,16H3a1,1,0,0,0,0,2H6v3a1,1,0,0,0,2,0V17A1,1,0,0,0,7,16Z"/><path class="cls-2" d="M14,9H10a1,1,0,0,0-1,1v4a1,1,0,0,0,1,1h4a1,1,0,0,0,1-1V10A1,1,0,0,0,14,9Zm-1,4H11V11h2Z"/></g></g></svg>