<svg xmlns="http://www.w3.org/2000/svg" viewBox="0 0 24 24"><defs><style>.cls-1{fill:none;}.cls-2{fill:#999;}</style></defs><title>Media_Download_App_24px</title><g id="Square"><rect class="cls-1" width="24" height="24"/></g><g id="Icon"><path class="cls-2" d="M8.29,12.71l3,3a1,1,0,0,0,1.42,0l3-3a1,1,0,0,0-1.42-1.42L13,12.59V3a1,1,0,0,0-2,0v9.59l-1.29-1.3a1,1,0,0,0-1.42,1.42Z"/><path class="cls-2" d="M19,4H17a1,1,0,0,0,0,2h1V18H6V6H7A1,1,0,0,0,7,4H5A1,1,0,0,0,4,5V19a1,1,0,0,0,1,1H19a1,1,0,0,0,1-1V5A1,1,0,0,0,19,4Z"/></g></svg>