<svg xmlns="http://www.w3.org/2000/svg" viewBox="0 0 24 24"><defs><style>.cls-1{fill:none;}.cls-2{fill:#3f3f3f;}</style></defs><title>Media_FullScreen_24px</title><g id="Square"><rect class="cls-1" width="24" height="24"/></g><g id="Calque_5" data-name="Calque 5"><path class="cls-2" d="M6,7V17a1,1,0,0,0,1,1H17a1,1,0,0,0,1-1V7a1,1,0,0,0-1-1H7A1,1,0,0,0,6,7ZM8,8h8v8H8Z"/><path class="cls-2" d="M3,8.39a1,1,0,0,0,1-1V4H7.38a1,1,0,0,0,0-2H3A1,1,0,0,0,2,3V7.39A1,1,0,0,0,3,8.39Z"/><path class="cls-2" d="M21,2H16.62a1,1,0,1,0,0,2H20V7.38a1,1,0,0,0,2,0V3A1,1,0,0,0,21,2Z"/><path class="cls-2" d="M7.38,20H4V16.61a1,1,0,0,0-2,0V21a1,1,0,0,0,1,1H7.38a1,1,0,1,0,0-2Z"/><path class="cls-2" d="M21,15.62a1,1,0,0,0-1,1V20H16.62a1,1,0,0,0,0,2H21a1,1,0,0,0,1-1V16.62A1,1,0,0,0,21,15.62Z"/></g></svg>