<svg xmlns="http://www.w3.org/2000/svg" viewBox="0 0 24 24"><defs><style>.cls-1{fill:none;}.cls-2{fill:#999;}</style></defs><title>Media_Print_24px</title><g id="Square"><rect class="cls-1" width="24" height="24"/></g><g id="Icon"><path class="cls-2" d="M21,5H18V3a1,1,0,0,0-1-1H7A1,1,0,0,0,6,3V5H3A1,1,0,0,0,2,6V18a1,1,0,0,0,1,1H6v2a1,1,0,0,0,1,1H17a1,1,0,0,0,1-1V19h3a1,1,0,0,0,1-1V6A1,1,0,0,0,21,5ZM8,4h8V5H8Zm8,16H8V14h8Zm4-3H18V14a1,1,0,0,0,0-2H6a1,1,0,0,0,0,2v3H4V7H20Z"/><path class="cls-2" d="M16,8.5a.5.5,0,0,0,0,1h2a.5.5,0,0,0,0-1Z"/><path class="cls-2" d="M10,16.5h4a.5.5,0,0,0,0-1H10a.5.5,0,0,0,0,1Z"/><path class="cls-2" d="M10,18.5h4a.5.5,0,0,0,0-1H10a.5.5,0,0,0,0,1Z"/></g></svg>