<svg xmlns="http://www.w3.org/2000/svg" viewBox="0 0 24 24"><defs><style>.cls-1{fill:none;}.cls-2{fill:#999;}</style></defs><title>Media_TimeRead_24px</title><g id="Square"><rect class="cls-1" width="24" height="24"/></g><g id="Icon"><path class="cls-2" d="M12,7a1,1,0,0,0-1,1v3.59l-1.71,1.7a1,1,0,0,0,0,1.42,1,1,0,0,0,1.42,0l2-2A1,1,0,0,0,13,12V8A1,1,0,0,0,12,7Z"/><path class="cls-2" d="M12,2A10,10,0,1,0,22,12,10,10,0,0,0,12,2Zm1,17.93V19a1,1,0,0,0-2,0v.93A8,8,0,0,1,4.07,13H5a1,1,0,0,0,0-2H4.07A8,8,0,0,1,11,4.07V5a1,1,0,0,0,2,0V4.07A8,8,0,0,1,19.93,11H19a1,1,0,0,0,0,2h.93A8,8,0,0,1,13,19.93Z"/></g></svg>