<svg xmlns="http://www.w3.org/2000/svg" viewBox="0 0 24 24">
      <g id="Square"> </g>
  <path fill-rule="evenodd" d="M1.265 5.496a1 1 0 0 1 .811-1.159l13.788-2.431a1 1 0 0 1 1.158.811l.63 3.572 4.018.352a1 1 0 0 1 .91 1.083l-1.22 13.947a1 1 0 0 1-1.084.909L6.329 21.36a1 1 0 0 1-.909-1.084l.025-.286-.59.104a1 1 0 0 1-1.159-.811L1.266 5.496Zm18.188 11.008-1.441-8.176 2.488.218L19.454 20.5l-11.298-.988 10.486-1.85a1 1 0 0 0 .811-1.157ZM5.058 15.49l.434 2.462 11.818-2.084-.434-2.462-1.961.346-.017.003-8.843 1.559a.55.55 0 0 1-.025.004l-.972.172Zm-1.65-9.356 1.476 8.37.657-.115L6.888 8.37a.5.5 0 0 1 .89-.188l2.182 2.942.764-1.508a.5.5 0 0 1 .788-.14l3.467 3.248 1.723-.304-1.476-8.37L3.408 6.132Zm10.34 6.808L6.608 14.2l1.017-4.545L9.64 12.37a.5.5 0 0 0 .847-.072l.829-1.636 2.433 2.279Zm-2.026-5.735a.5.5 0 1 1 .985-.174.5.5 0 0 1-.985.174Zm.232-1.564a1.5 1.5 0 1 0 .52 2.954 1.5 1.5 0 0 0-.52-2.954Z"/>
</svg>
