<svg xmlns="http://www.w3.org/2000/svg" viewBox="0 0 24 24"><defs><style>.cls-1{fill:none;}.cls-2{fill:#999;}</style></defs><title>Media_Read_24px</title><g id="Square"><rect class="cls-1" width="24" height="24"/></g><g id="Icon"><path class="cls-2" d="M21,5H18V3a1,1,0,0,0-1-1H15.89a4.87,4.87,0,0,0-4.62,3.37A3.1,3.1,0,0,0,9.81,5H3A1,1,0,0,0,2,6V18a1,1,0,0,0,1,1H9.81a1.57,1.57,0,0,1,1.27.88,1,1,0,0,0,.07.15,1,1,0,0,0,.85.47,1,1,0,0,0,.85-.47l.09-.17A1.53,1.53,0,0,1,14.19,19H21a1,1,0,0,0,1-1V6A1,1,0,0,0,21,5ZM13,6.88A2.88,2.88,0,0,1,15.89,4H16V5.92S16,6,16,6s0,0,0,.08V14h-.11A4.73,4.73,0,0,0,13,15ZM9.81,17H4V7H9.81c.51,0,1.21.34,1.2,1v9.25A3.11,3.11,0,0,0,9.81,17ZM20,17H14.19a3.42,3.42,0,0,0-.45,0,2.82,2.82,0,0,1,2.15-1H17a1,1,0,0,0,1-1V7h2Z"/><path class="cls-2" d="M9,9H6a.5.5,0,0,0,0,1H9A.5.5,0,0,0,9,9Z"/><path class="cls-2" d="M9,11.5H6a.5.5,0,0,0,0,1H9a.5.5,0,0,0,0-1Z"/><path class="cls-2" d="M9,14H6a.5.5,0,0,0,0,1H9a.5.5,0,0,0,0-1Z"/></g></svg>