<svg xmlns="http://www.w3.org/2000/svg" viewBox="0 0 24 24">
      <g id="Square"> </g>
  <g clip-path="url(#a)">
    <path fill-rule="evenodd" d="M14.67 4.459A8 8 0 0 0 4 12.042a1 1 0 0 1-2 .01 10 10 0 0 1 13.338-9.478 1 1 0 1 1-.667 1.885ZM3.707 15.634A1 1 0 0 1 5.072 16c.084.145.172.288.265.427a1 1 0 1 1-1.666 1.107A9.969 9.969 0 0 1 3.34 17a1 1 0 0 1 .366-1.366ZM8 18.928a1 1 0 0 0-1 1.732c.181.105.366.204.554.297a1 1 0 1 0 .889-1.791A7.987 7.987 0 0 1 8 18.928Zm5.563 1.991a1 1 0 0 1-.935 1.061c-.21.013-.418.02-.628.02a1 1 0 1 1 0-2c.168 0 .335-.005.502-.016a1 1 0 0 1 1.061.935Zm3.97-.59a1 1 0 1 0-1.106-1.666c-.14.093-.282.181-.427.265a1 1 0 1 0 1 1.732c.181-.105.36-.215.534-.33Zm2.973-5.223a1 1 0 0 1 .451 1.34 9.49 9.49 0 0 1-.297.554 1 1 0 0 1-1.732-1 8.19 8.19 0 0 0 .238-.443 1 1 0 0 1 1.34-.451Zm.903-6.493a1 1 0 0 0-1.882.677c.313.87.473 1.786.473 2.71a1 1 0 1 0 2 0 10 10 0 0 0-.591-3.387ZM12 13a1 1 0 1 0 0-2 1 1 0 0 0 0 2Zm0 2a3 3 0 0 0 2.708-4.293l5-5a1 1 0 0 0-1.415-1.414l-5 5A3 3 0 1 0 12 15Z"/>
  </g>
  <defs>
    <clipPath id="a">
      <rect width="24" height="24" fill="#fff"/>
    </clipPath>
  </defs>
</svg>
