<svg xmlns="http://www.w3.org/2000/svg" viewBox="0 0 24 24"><defs><style>.cls-1{fill:none;}.cls-2{fill:#191919;}</style></defs><title>Navigation_Display_DisplayProductX4_24px</title><g id="Square"><rect class="cls-1" width="24" height="24"/></g><g id="Calque_5" data-name="Calque 5"><path class="cls-2" d="M9.5,13h-6A1.5,1.5,0,0,0,2,14.5v6A1.5,1.5,0,0,0,3.5,22h6A1.5,1.5,0,0,0,11,20.5v-6A1.5,1.5,0,0,0,9.5,13ZM9,20H4V15H9Z"/><path class="cls-2" d="M20.5,13h-6A1.5,1.5,0,0,0,13,14.5v6A1.5,1.5,0,0,0,14.5,22h6A1.5,1.5,0,0,0,22,20.5v-6A1.5,1.5,0,0,0,20.5,13ZM20,20H15V15h5Z"/><path class="cls-2" d="M9.5,2h-6A1.5,1.5,0,0,0,2,3.5v6A1.5,1.5,0,0,0,3.5,11h6A1.5,1.5,0,0,0,11,9.5v-6A1.5,1.5,0,0,0,9.5,2ZM9,9H4V4H9Z"/><path class="cls-2" d="M20.5,2h-6A1.5,1.5,0,0,0,13,3.5v6A1.5,1.5,0,0,0,14.5,11h6A1.5,1.5,0,0,0,22,9.5v-6A1.5,1.5,0,0,0,20.5,2ZM20,9H15V4h5Z"/></g></svg>