<svg width="24" height="24" viewBox="0 0 24 24" fill="none" xmlns="http://www.w3.org/2000/svg">
  <g id="Square"> </g>
  <g id="Icon">
<path id="Union" fill-rule="evenodd" clip-rule="evenodd" d="M10.7071 5.70711C11.0976 5.31658 11.0976 4.68342 10.7071 4.29289C10.3166 3.90237 9.68342 3.90237 9.29289 4.29289L2.29289 11.2929C1.90237 11.6834 1.90237 12.3166 2.29289 12.7071L9.29289 19.7071C9.68342 20.0976 10.3166 20.0976 10.7071 19.7071C11.0976 19.3166 11.0976 18.6834 10.7071 18.2929L4.41421 12L10.7071 5.70711ZM19.7071 5.70711C20.0976 5.31658 20.0976 4.68342 19.7071 4.29289C19.3166 3.90237 18.6834 3.90237 18.2929 4.29289L11.2929 11.2929C10.9024 11.6834 10.9024 12.3166 11.2929 12.7071L18.2929 19.7071C18.6834 20.0976 19.3166 20.0976 19.7071 19.7071C20.0976 19.3166 20.0976 18.6834 19.7071 18.2929L13.4142 12L19.7071 5.70711Z" fill="black"/>
</g>
</svg>
