<svg xmlns="http://www.w3.org/2000/svg" viewBox="0 0 24 24"><defs><style>.cls-1{fill:none;}.cls-2{fill:#5b5b5b;}</style></defs><title>Navigation_Display_DisplayProductX4_Outline_24px</title><g id="Square"><rect class="cls-1" width="24" height="24"/></g><g id="Icon"><g id="Affiche_Prod"><path class="cls-2" d="M9.85,22H3.15A1.16,1.16,0,0,1,2,20.85v-6.7A1.16,1.16,0,0,1,3.15,13h6.7A1.16,1.16,0,0,1,11,14.15v6.7A1.16,1.16,0,0,1,9.85,22ZM4,20H9V15H4Z"/><path class="cls-2" d="M20.85,22h-6.7A1.16,1.16,0,0,1,13,20.85v-6.7A1.16,1.16,0,0,1,14.15,13h6.7A1.16,1.16,0,0,1,22,14.15v6.7A1.16,1.16,0,0,1,20.85,22ZM15,20h5V15H15Z"/><path class="cls-2" d="M9.85,11H3.15A1.16,1.16,0,0,1,2,9.85V3.15A1.16,1.16,0,0,1,3.15,2h6.7A1.16,1.16,0,0,1,11,3.15v6.7A1.16,1.16,0,0,1,9.85,11ZM4,9H9V4H4Z"/><path class="cls-2" d="M20.85,11h-6.7A1.16,1.16,0,0,1,13,9.85V3.15A1.16,1.16,0,0,1,14.15,2h6.7A1.16,1.16,0,0,1,22,3.15v6.7A1.16,1.16,0,0,1,20.85,11ZM15,9h5V4H15Z"/></g></g></svg>