<svg xmlns="http://www.w3.org/2000/svg" viewBox="0 0 24 24"><defs><style>.cls-1{fill:none;}.cls-2{fill:#191919;}</style></defs><title>Navigation_Display_Blink_24px</title><g id="Square"><rect class="cls-1" width="24" height="24"/></g><g id="Calque_5" data-name="Calque 5"><circle class="cls-2" cx="12" cy="12" r="1.5"/><path class="cls-2" d="M12,8a1,1,0,0,0,1-1V3a1,1,0,1,0-2,0V7A1,1,0,0,0,12,8Z"/><path class="cls-2" d="M8,12a1,1,0,0,0-1-1H3a1,1,0,0,0,0,2H7A1,1,0,0,0,8,12Z"/><path class="cls-2" d="M6.34,4.93A1,1,0,0,0,4.93,6.34L7.79,9.2a1,1,0,0,0,1.41,0,1,1,0,0,0,0-1.41Z"/><path class="cls-2" d="M21,11H17a1,1,0,0,0,0,2h4a1,1,0,0,0,0-2Z"/><path class="cls-2" d="M15.51,9.49a1,1,0,0,0,.7-.29l2.86-2.86a1,1,0,1,0-1.41-1.41L14.8,7.79a1,1,0,0,0,0,1.41A1,1,0,0,0,15.51,9.49Z"/><path class="cls-2" d="M12,16a1,1,0,0,0-1,1v4a1,1,0,0,0,2,0V17A1,1,0,0,0,12,16Z"/><path class="cls-2" d="M7.79,14.8,4.93,17.66a1,1,0,0,0,0,1.41,1,1,0,0,0,1.41,0L9.2,16.21A1,1,0,0,0,7.79,14.8Z"/><path class="cls-2" d="M16.21,14.8a1,1,0,0,0-1.41,1.41l2.86,2.86a1,1,0,0,0,1.41,0,1,1,0,0,0,0-1.41Z"/></g></svg>