<svg xmlns="http://www.w3.org/2000/svg" viewBox="0 0 24 24"><defs><style>.cls-1{fill:none;}.cls-2{fill:#999;}</style></defs><title>Navigation_Publish_Edit_24px</title><g id="Square"><rect class="cls-1" width="24" height="24"/></g><g id="Icon"><path class="cls-2" d="M19,12a1,1,0,0,0-1,1v5H6V6h5a1,1,0,0,0,0-2H5A1,1,0,0,0,4,5V19a1,1,0,0,0,1,1H19a1,1,0,0,0,1-1V13A1,1,0,0,0,19,12Z"/><path class="cls-2" d="M21.7,4.24l-2-2a1,1,0,0,0-1.4,0L8.71,11.63a.91.91,0,0,0-.25.41L7.29,15.7a.5.5,0,0,0,.61.64l3.83-1.11a.94.94,0,0,0,.42-.25L21.7,5.67A1,1,0,0,0,21.7,4.24ZM19.57,5,19,5.53,18.4,5,19,4.39ZM11,12.23l6.72-6.56.58.56-6.73,6.56Zm-.7.72.49.48-.7.2Z"/></g></svg>