<svg xmlns="http://www.w3.org/2000/svg" viewBox="0 0 24 24"><defs><style>.cls-1{fill:none;}.cls-2{fill:#5b5b5b;}</style></defs><title>Navigation_Display_DisplayList_Outline_24px</title><g id="Square"><rect class="cls-1" width="24" height="24"/></g><g id="Icon"><path class="cls-2" d="M20.85,7.5H3.15A1.16,1.16,0,0,1,2,6.35V3.15A1.16,1.16,0,0,1,3.15,2h17.7A1.16,1.16,0,0,1,22,3.15v3.2A1.16,1.16,0,0,1,20.85,7.5ZM4,5.5H20V4H4Z"/><path class="cls-2" d="M20.85,14.75H3.15A1.16,1.16,0,0,1,2,13.6V10.4A1.16,1.16,0,0,1,3.15,9.25h17.7A1.16,1.16,0,0,1,22,10.4v3.2A1.16,1.16,0,0,1,20.85,14.75ZM4,12.75H20v-1.5H4Z"/><path class="cls-2" d="M20.85,22H3.15A1.16,1.16,0,0,1,2,20.85v-3.2A1.16,1.16,0,0,1,3.15,16.5h17.7A1.16,1.16,0,0,1,22,17.65v3.2A1.16,1.16,0,0,1,20.85,22ZM4,20H20V18.5H4Z"/></g></svg>