<svg xmlns="http://www.w3.org/2000/svg" viewBox="0 0 24 24"><defs><style>.cls-1{fill:none;}.cls-2{fill:#191919;}</style></defs><title>Navigation_Display_Setting_24px</title><g id="Square"><rect class="cls-1" width="24" height="24"/></g><g id="Calque_5" data-name="Calque 5"><path class="cls-2" d="M16,11.63a3.13,3.13,0,0,0,0-.43c0-.13-.08-.24-.11-.36s-.07-.27-.12-.39-.13-.25-.2-.37l-.17-.31A3.37,3.37,0,0,0,15,9.42a2.31,2.31,0,0,0-.2-.24c-.11-.11-.24-.21-.36-.31s-.15-.13-.23-.18a3.3,3.3,0,0,0-.41-.23l-.27-.14c-.14-.06-.28-.09-.43-.14l-.32-.1-.42,0c-.13,0-.25,0-.38,0h0a4.17,4.17,0,0,0-.8.08,3.45,3.45,0,0,0-.57.18l-.18.05a3.88,3.88,0,0,0-.63.35l-.05,0a4,4,0,0,0-.55.45l0,0a3.64,3.64,0,0,0-.4.48.87.87,0,0,0-.09.11,3.67,3.67,0,0,0-.26.48,2,2,0,0,0-.11.2,3.22,3.22,0,0,0-.14.44c0,.11-.08.2-.1.31s0,.27,0,.4,0,.26,0,.4H8c0,.13,0,.25,0,.37a3.13,3.13,0,0,0,0,.43c0,.13.08.24.11.36s.07.27.12.39.13.25.2.37l.17.31a3.37,3.37,0,0,0,.29.35,2.31,2.31,0,0,0,.2.24c.11.11.24.21.36.31s.15.13.23.18a3.3,3.3,0,0,0,.41.23l.27.14c.14.06.28.09.43.14l.32.1.42,0c.13,0,.25,0,.38,0h0a4.17,4.17,0,0,0,.8-.08,3.49,3.49,0,0,0,.67-.21l.08,0a4.36,4.36,0,0,0,.64-.35l0,0a4,4,0,0,0,.55-.45l0,0a3.64,3.64,0,0,0,.4-.48.87.87,0,0,0,.09-.11,2.91,2.91,0,0,0,.27-.49c0-.06.07-.12.1-.19a3.36,3.36,0,0,0,.14-.45,2.64,2.64,0,0,0,.1-.3c0-.13,0-.27,0-.4s0-.26,0-.4h0C16,11.87,16,11.75,16,11.63Zm-2,.61c0,.06,0,.11,0,.16a2.63,2.63,0,0,1-.09.3l0,.08a2.19,2.19,0,0,1-.16.3l0,0a2.17,2.17,0,0,1-.24.29h0a1.9,1.9,0,0,1-1,.54h0a1.75,1.75,0,0,1-.4,0l-.22,0-.18,0-.23-.07-.15-.05-.2-.11-.14-.07a1.07,1.07,0,0,1-.16-.14l-.14-.11a1.71,1.71,0,0,1-.11-.14s-.09-.1-.13-.16a.83.83,0,0,1-.07-.13,1.39,1.39,0,0,1-.11-.21s0-.1-.05-.15A1.42,1.42,0,0,1,10,12.4c0-.06,0-.13,0-.19A1.49,1.49,0,0,1,10,12a1.79,1.79,0,0,1,0-.24c0-.06,0-.11,0-.16a1.31,1.31,0,0,1,.09-.28.38.38,0,0,1,0-.1,2.19,2.19,0,0,1,.16-.3l0,0a2.17,2.17,0,0,1,.24-.29h0a1.79,1.79,0,0,1,.62-.42h0a2,2,0,0,1,.35-.11h0a1.75,1.75,0,0,1,.4,0l.22,0,.18,0,.23.07.15.05.21.11.13.07.17.14.13.11a1.71,1.71,0,0,1,.11.14s.09.1.13.16.05.09.08.14.07.13.1.2a1,1,0,0,1,.06.16l.06.21c0,.06,0,.13,0,.19A1.49,1.49,0,0,1,14,12,1.79,1.79,0,0,1,14,12.24Z"/><path class="cls-2" d="M20.67,9l-1.34-.15a7.54,7.54,0,0,0-.9-1.56L19,6a1.48,1.48,0,0,0-.63-1.89L15.66,2.56a1.5,1.5,0,0,0-2,.41l-.8,1.08a7.74,7.74,0,0,0-1.8,0L10.3,3a1.51,1.51,0,0,0-2-.41L5.66,4.12A1.49,1.49,0,0,0,5,6l.54,1.23a7.54,7.54,0,0,0-.9,1.56L3.33,9A1.49,1.49,0,0,0,2,10.45v3.1A1.49,1.49,0,0,0,3.33,15l1.34.15a7.54,7.54,0,0,0,.9,1.56L5,18a1.49,1.49,0,0,0,.63,1.9l2.68,1.56a1.51,1.51,0,0,0,2-.41L11.1,20a7.74,7.74,0,0,0,1.8,0L13.7,21a1.51,1.51,0,0,0,1.21.61,1.59,1.59,0,0,0,.75-.2l2.68-1.56A1.49,1.49,0,0,0,19,18l-.54-1.23a7.54,7.54,0,0,0,.9-1.56L20.67,15A1.49,1.49,0,0,0,22,13.55v-3.1A1.49,1.49,0,0,0,20.67,9ZM20,13.11l-2.12.23-.21.6a6,6,0,0,1-1.15,2l-.42.48.86,2L15,19.48l-1.26-1.72-.62.13a6,6,0,0,1-2.32,0l-.62-.13L9,19.48,7,18.38l.86-2-.42-.48a6,6,0,0,1-1.15-2l-.21-.6L4,13.11V10.89l2.12-.23.21-.6a6,6,0,0,1,1.15-2l.42-.48L7,5.62,9,4.52l1.26,1.72.62-.13a6,6,0,0,1,2.32,0l.62.13L15,4.52,17,5.62l-.86,2,.42.48a6,6,0,0,1,1.15,2l.21.6,2.12.23Z"/></g></svg>