<svg xmlns="http://www.w3.org/2000/svg" viewBox="0 0 24 24"><defs><style>.cls-1{fill:none;}.cls-2{fill:#191919;}</style></defs><title>Navigation_Display_DisplayMobile--Horizontal_24px</title><g id="Square"><rect class="cls-1" width="24" height="24"/></g><g id="Calque_5" data-name="Calque 5"><path class="cls-2" d="M10,13H3a1,1,0,0,0-1,1v7a1,1,0,0,0,1,1h7a1,1,0,0,0,1-1V14A1,1,0,0,0,10,13ZM9,20H4V15H9Z"/><path class="cls-2" d="M21,14H14a1,1,0,0,0,0,2h7a1,1,0,0,0,0-2Z"/><path class="cls-2" d="M21,19H14a1,1,0,0,0,0,2h7a1,1,0,0,0,0-2Z"/><path class="cls-2" d="M10,2H3A1,1,0,0,0,2,3v7a1,1,0,0,0,1,1h7a1,1,0,0,0,1-1V3A1,1,0,0,0,10,2ZM9,9H4V4H9Z"/><path class="cls-2" d="M14,5h7a1,1,0,0,0,0-2H14a1,1,0,0,0,0,2Z"/><path class="cls-2" d="M21,8H14a1,1,0,0,0,0,2h7a1,1,0,0,0,0-2Z"/></g></svg>