<svg xmlns="http://www.w3.org/2000/svg" viewBox="0 0 24 24"><defs><style>.cls-1{fill:none;}.cls-2{fill:#999;}</style></defs><title>Navigation_Notification_Circle--Available_24px</title><g id="Square"><rect class="cls-1" width="24" height="24"/></g><g id="Icon"><path class="cls-2" d="M12,4a8,8,0,1,1-8,8,8,8,0,0,1,8-8m0-2A10,10,0,1,0,22,12,10,10,0,0,0,12,2Z"/><path class="cls-2" d="M10.59,16.12a1,1,0,0,1-.68-.26L6.07,12.31a1,1,0,0,1,1.36-1.47l3.13,2.89L16,8.17a1,1,0,0,1,1.43,1.41L11.3,15.83A1,1,0,0,1,10.59,16.12Z"/></g></svg>