<svg width="24" height="24" viewBox="0 0 24 24" fill="none" xmlns="http://www.w3.org/2000/svg">
  <g id="Square"> </g>
  <g id="Icon">
<path id="Union" fill-rule="evenodd" clip-rule="evenodd" d="M5.70711 4.29289C5.31658 3.90237 4.68342 3.90237 4.29289 4.29289C3.90237 4.68342 3.90237 5.31658 4.29289 5.70711L10.5858 12L4.29289 18.2929C3.90237 18.6834 3.90237 19.3166 4.29289 19.7071C4.68342 20.0976 5.31658 20.0976 5.70711 19.7071L12.7071 12.7071C13.0976 12.3166 13.0976 11.6834 12.7071 11.2929L5.70711 4.29289ZM14.7071 4.29289C14.3166 3.90237 13.6834 3.90237 13.2929 4.29289C12.9024 4.68342 12.9024 5.31658 13.2929 5.70711L19.5858 12L13.2929 18.2929C12.9024 18.6834 12.9024 19.3166 13.2929 19.7071C13.6834 20.0976 14.3166 20.0976 14.7071 19.7071L21.7071 12.7071C22.0976 12.3166 22.0976 11.6834 21.7071 11.2929L14.7071 4.29289Z" fill="black"/>
</g>
</svg>
