<svg xmlns="http://www.w3.org/2000/svg" viewBox="0 0 24 24"><defs><style>.cls-1{fill:none;}.cls-2{fill:#191919;}</style></defs><title>Navigation_Display_View_24px</title><g id="Square"><rect class="cls-1" width="24" height="24"/></g><g id="Calque_5" data-name="Calque 5"><path class="cls-2" d="M12,8.5A3.5,3.5,0,1,0,15.5,12,3.5,3.5,0,0,0,12,8.5Zm0,6A2.5,2.5,0,1,1,14.5,12,2.5,2.5,0,0,1,12,14.5Z"/><path class="cls-2" d="M21.18,11.07C20.17,9.76,16.5,5.5,12,5.5S3.83,9.76,2.82,11.07a1.5,1.5,0,0,0,0,1.86c1,1.31,4.68,5.57,9.18,5.57s8.17-4.26,9.18-5.57A1.5,1.5,0,0,0,21.18,11.07ZM12,16.5c-3.35,0-6.38-3.3-7.37-4.5,1-1.2,4-4.5,7.37-4.5s6.38,3.3,7.37,4.5C18.38,13.2,15.35,16.5,12,16.5Z"/></g></svg>