<svg xmlns="http://www.w3.org/2000/svg" viewBox="0 0 24 24"><defs><style>.cls-1{fill:none;}.cls-2{fill:#999;}</style></defs><title>Navigation_Control_Cross_24px</title><g id="Square"><rect class="cls-1" width="24" height="24"/></g><g id="Icon"><path class="cls-2" d="M13.51,12,19.8,5.71a1,1,0,0,0,0-1.42,1,1,0,0,0-1.41,0l-6.3,6.3L5.8,4.29a1,1,0,0,0-1.41,0,1,1,0,0,0,0,1.42L10.68,12,4.39,18.29A1,1,0,0,0,5.09,20a1,1,0,0,0,.71-.29l6.29-6.3,6.3,6.3a1,1,0,0,0,.7.29,1,1,0,0,0,.71-.29,1,1,0,0,0,0-1.42Z"/></g></svg>