<svg xmlns="http://www.w3.org/2000/svg" viewBox="0 0 24 24"><defs><style>.cls-1{fill:none;}.cls-2{fill:#191919;}</style></defs><title>Navigation_Display_Home_24px</title><g id="Square"><rect class="cls-1" width="24" height="24"/></g><g id="Calque_5" data-name="Calque 5"><path class="cls-2" d="M21.61,9.21l-9-7a1,1,0,0,0-1.22,0l-9,7a1,1,0,0,0,1.22,1.58l.39-.3V21a1,1,0,0,0,1,1H19a1,1,0,0,0,1-1V10.49l.39.3A1,1,0,0,0,21,11a1,1,0,0,0,.61-1.79ZM18,9V20H6V9s0,0,0-.06l6-4.67,6,4.67S18,9,18,9Z"/></g></svg>