<svg xmlns="http://www.w3.org/2000/svg" viewBox="0 0 24 24"><defs><style>.cls-1{fill:none;}.cls-2{fill:#3f3f3f;}</style></defs><title>Navigation_Notification_Circle--Available_24px</title><g id="Square"><rect class="cls-1" width="24" height="24"/></g><g id="Calque_5" data-name="Calque 5"><path class="cls-2" d="M12,4a8,8,0,1,1-8,8,8,8,0,0,1,8-8m0-2A10,10,0,1,0,22,12,10,10,0,0,0,12,2Z"/><path class="cls-2" d="M10.73,15.75a1,1,0,0,1-.68-.26l-3-2.74a1,1,0,0,1,1.36-1.47l2.25,2.08,4.36-4.42a1,1,0,1,1,1.42,1.41l-5,5.1A1,1,0,0,1,10.73,15.75Z"/></g></svg>