<svg xmlns="http://www.w3.org/2000/svg" viewBox="0 0 24 24"><defs><style>.cls-1{fill:none;}.cls-2{fill:#999;}</style></defs><title>Navigation_Control_Circle--Cross_24px</title><g id="Square"><rect class="cls-1" width="24" height="24"/></g><g id="Icon"><path class="cls-2" d="M12,2A10,10,0,1,0,22,12,10,10,0,0,0,12,2Zm0,18a8,8,0,1,1,8-8A8,8,0,0,1,12,20Z"/><path class="cls-2" d="M16.21,7.88a1,1,0,0,0-1.42,0l-2.74,2.74L9.21,7.79A1,1,0,1,0,7.79,9.21L10.63,12,7.86,14.79a1,1,0,0,0,1.41,1.42l2.78-2.77,2.68,2.68a1,1,0,0,0,1.41-1.42L13.46,12,16.21,9.3A1,1,0,0,0,16.21,7.88Z"/></g></svg>