<svg xmlns="http://www.w3.org/2000/svg" viewBox="0 0 24 24"><defs><style>.cls-1{fill:none;}.cls-2{fill:#191919;}</style></defs><title>Payment_Receipt_24px</title><g id="Square"><rect class="cls-1" width="24" height="24"/></g><g id="Calque_5" data-name="Calque 5"><path class="cls-2" d="M16.67,10.58a.51.51,0,0,0-.71-.06,2,2,0,0,1-1.31.48,2,2,0,0,1-1.55-.75h1.61a.5.5,0,0,0,0-1h-2a1.9,1.9,0,0,1,0-.25,1.9,1.9,0,0,1,0-.25h2a.5.5,0,0,0,0-1H13.1a2,2,0,0,1,2.77-.34.51.51,0,0,0,.7-.1.5.5,0,0,0-.09-.7,3,3,0,0,0-4.56,1.14h-.21a.5.5,0,0,0-.5.5.49.49,0,0,0,.46.49,2.3,2.3,0,0,0,0,.26,2.3,2.3,0,0,0,0,.26.49.49,0,0,0-.46.49.5.5,0,0,0,.5.5h.21A3,3,0,0,0,14.65,12a3,3,0,0,0,2-.72A.49.49,0,0,0,16.67,10.58Z"/><path class="cls-2" d="M19,2H9A1,1,0,0,0,8,3V16H5a1,1,0,0,0-1,1v2.5A2.5,2.5,0,0,0,6.5,22h11A2.5,2.5,0,0,0,20,19.5V3A1,1,0,0,0,19,2ZM6.5,20a.5.5,0,0,1-.5-.5V18h9v1.5a2.73,2.73,0,0,0,.05.5ZM10,16V4h8V19.5a.5.5,0,0,1-1,0V17a1,1,0,0,0-1-1Z"/></g></svg>