<svg xmlns="http://www.w3.org/2000/svg" viewBox="0 0 24 24"><defs><style>.cls-1{fill:none;}.cls-2{fill:#999;}</style></defs><title>Payment_Cards_Monochrome_OneyX3_24px</title><g id="Square"><rect class="cls-1" width="24" height="24"/></g><g id="Icon"><path class="cls-2" d="M11.94,4.5a7.5,7.5,0,1,0,7.5,7.5A7.5,7.5,0,0,0,11.94,4.5Zm-.06,9.65H10.6l-.67-1-.61,1H8.1l1.25-1.87L8.1,10.39H9.38l.65,1,.65-1H11.9l-1.31,1.83Zm3.49-.33a2,2,0,0,1-1.31.42,2.08,2.08,0,0,1-1.21-.33,1.59,1.59,0,0,1-.64-.9l1-.29a.85.85,0,0,0,.32.42,1,1,0,0,0,.55.15.71.71,0,0,0,.47-.16.53.53,0,0,0,.2-.44.5.5,0,0,0-.21-.43.91.91,0,0,0-.54-.15h-.55v-.87H14a.8.8,0,0,0,.5-.13.51.51,0,0,0,.18-.44.45.45,0,0,0-.18-.38.59.59,0,0,0-.42-.14.66.66,0,0,0-.67.52l-1-.29a1.43,1.43,0,0,1,.19-.44,1.72,1.72,0,0,1,.34-.38,1.7,1.7,0,0,1,.52-.27,2.43,2.43,0,0,1,.68-.1,2,2,0,0,1,1.23.36,1.27,1.27,0,0,1,.3,1.62.92.92,0,0,1-.48.38h0a1,1,0,0,1,.52.41,1.2,1.2,0,0,1,.22.74A1.42,1.42,0,0,1,15.37,13.82Z"/></g></svg>