<svg xmlns="http://www.w3.org/2000/svg" viewBox="0 0 24 24">
    <g id="Square"> </g>
  <path fill-rule="evenodd" d="M3 4a1 1 0 0 0-1 1v14a1 1 0 0 0 1 1h18a1 1 0 0 0 1-1V5a1 1 0 0 0-1-1H3Zm1 14V6h16v7.3l-3.047-2.79L8.763 18H4Zm7.546-9.998-.086-.01-.023-.015h-.044c-.21.007-.415.071-.592.186a1.25 1.25 0 0 0-.537 1.316 1.235 1.235 0 0 0 2.254.417c.012-.018.023-.04.035-.06l.001-.003.024-.043h-.473a.063.063 0 0 0-.033.016.816.816 0 0 1-.581.25.781.781 0 0 1-.79-.625v-.018h1.931a1.219 1.219 0 0 0-.942-1.392 1.75 1.75 0 0 0-.144-.019Zm.618 1.01h-1.45a.756.756 0 0 1 .768-.593c.321.017.682.32.682.594Zm-5.75-1.009h-.001a2.546 2.546 0 0 1-.074-.011h-.187a2.874 2.874 0 0 1-.065.01 1.23 1.23 0 0 0-1.085 1.11v.261c.019.108.047.214.083.317.168.477.617.796 1.123.798.38.024.747-.137.987-.431a1.25 1.25 0 0 0-.782-2.054Zm.619 1.064c.01.058.018.116.023.175 0 .405-.291.75-.69.82a.804.804 0 0 1-.898-.605.833.833 0 0 1 .507-.984.8.8 0 0 1 1.058.594Zm6.539 1.271c-.117.29-.233.579-.354.868l.479.015.367-.887L15 8.042V8h-.47l-.434 1.063-.12.291a33.425 33.425 0 0 1-.16.388.13.13 0 0 1-.012-.021l-.693-1.702a.059.059 0 0 1 0-.019h-.5c.32.761.64 1.525.96 2.292a.058.058 0 0 1 0 .046ZM9.037 8.001c.041.006.083.011.125.022a.998.998 0 0 1 .781.742c.025.102.038.207.038.312v1.411h-.453V9.119c0-.098-.01-.196-.03-.292a.512.512 0 0 0-.417-.406.919.919 0 0 0-.417 0 .531.531 0 0 0-.44.467c-.014.079-.02.16-.018.24v1.351h-.45a.07.07 0 0 1 0-.02V9.015a.96.96 0 0 1 .345-.76c.176-.151.395-.242.625-.26h.042l.206-.003.063.009Z"/>
</svg>
