<svg xmlns="http://www.w3.org/2000/svg" viewBox="0 0 24 24"><defs><style>.cls-1{fill:none;}.cls-2{fill:#191919;}</style></defs><title>Payment_SafePayment1_24px</title><g id="Square"><rect class="cls-1" width="24" height="24"/></g><g id="Calque_5" data-name="Calque 5"><rect class="cls-2" x="5" y="10.5" width="4" height="2" rx="0.5"/><path class="cls-2" d="M21,11V10a3.5,3.5,0,0,0-2-3.15V5.5A1.5,1.5,0,0,0,17.5,4H3.5A1.5,1.5,0,0,0,2,5.5v11A1.5,1.5,0,0,0,3.5,18H13v1a1,1,0,0,0,1,1h7a1,1,0,0,0,1-1V12A1,1,0,0,0,21,11ZM17.5,8.5A1.5,1.5,0,0,1,19,10v1H16V10A1.5,1.5,0,0,1,17.5,8.5ZM17,6v.55A3.48,3.48,0,0,0,14.64,8H4V6ZM4,16V9H14.16A3.67,3.67,0,0,0,14,10v1a1,1,0,0,0-1,1v2H10.5a.5.5,0,0,0,0,1H13v1Zm16,2H15V13h5Z"/><path class="cls-2" d="M8.5,14h-3a.5.5,0,0,0,0,1h3a.5.5,0,0,0,0-1Z"/><path class="cls-2" d="M17,15.85v.65a.5.5,0,0,0,1,0v-.65a1,1,0,1,0-1,0Z"/></g></svg>