<svg xmlns="http://www.w3.org/2000/svg" viewBox="0 0 24 24"><defs><style>.cls-1{fill:none;}.cls-2{fill:#191919;}</style></defs><title>Product_Basket_Save_24px</title><g id="Square"><rect class="cls-1" width="24" height="24"/></g><g id="Calque_5" data-name="Calque 5"><path class="cls-2" d="M20.79,6.38A1,1,0,0,0,20,6H13.5V2.5a.5.5,0,0,0-1,0V6H6.71L6.12,3.75a1,1,0,0,0-1-.75H3A1,1,0,0,0,3,5H4.38L7.06,15.25A1,1,0,0,0,8,16H18a1,1,0,0,0,1-.76l2-8A1,1,0,0,0,20.79,6.38ZM17.22,14H8.8L7.23,8H12.5v3.29L10.85,9.65a.49.49,0,0,0-.7.7l2.5,2.5a.36.36,0,0,0,.16.11.47.47,0,0,0,.38,0,.36.36,0,0,0,.16-.11l2.5-2.5a.49.49,0,0,0-.7-.7L13.5,11.29V8h5.22Z"/><circle class="cls-2" cx="16.5" cy="20" r="2"/><circle class="cls-2" cx="9.5" cy="20" r="2"/></g></svg>