<svg xmlns="http://www.w3.org/2000/svg" viewBox="0 0 24 24"><defs><style>.cls-1{fill:none;}.cls-2{fill:#191919;}</style></defs><title>Product_Promise_Warranty_24px</title><g id="Square"><rect class="cls-1" width="24" height="24"/></g><g id="Calque_5" data-name="Calque 5"><path class="cls-2" d="M20.35,8.54a4.45,4.45,0,0,0-4.89-4.89,4.45,4.45,0,0,0-6.92,0A4.45,4.45,0,0,0,3.65,8.54a4.45,4.45,0,0,0,0,6.92,4.45,4.45,0,0,0,4.89,4.89,4.45,4.45,0,0,0,6.92,0,4.45,4.45,0,0,0,4.89-4.89,4.45,4.45,0,0,0,0-6.92Zm-1.59,5.61-.66.38.19.73a2.46,2.46,0,0,1-3,3l-.73-.19-.38.66a2.48,2.48,0,0,1-4.3,0l-.38-.66-.73.19a2.46,2.46,0,0,1-3-3l.19-.73-.66-.38a2.48,2.48,0,0,1,0-4.3l.66-.38-.19-.73a2.46,2.46,0,0,1,3-3l.73.19.38-.66a2.48,2.48,0,0,1,4.3,0l.38.66.73-.19a2.46,2.46,0,0,1,3,3l-.19.73.66.38a2.48,2.48,0,0,1,0,4.3Z"/><path class="cls-2" d="M14.79,8.8l-3.73,3.8L9.18,10.86a1,1,0,1,0-1.36,1.46l2.59,2.41a1,1,0,0,0,.68.27,1,1,0,0,0,.71-.3l4.41-4.5a1,1,0,1,0-1.42-1.4Z"/></g></svg>