<svg xmlns="http://www.w3.org/2000/svg" viewBox="0 0 24 24">
    <g id="Square"> </g>
  <path fill-rule="evenodd" d="M12 2c-1.42 0-2.665.739-3.375 1.852A3.996 3.996 0 0 0 4.93 4.928a3.996 3.996 0 0 0-1.077 3.697A3.996 3.996 0 0 0 2 12c0 1.42.739 2.665 1.852 3.375a3.996 3.996 0 0 0 1.076 3.696 3.996 3.996 0 0 0 3.697 1.076A3.996 3.996 0 0 0 12 22c1.42 0 2.665-.74 3.375-1.853a3.996 3.996 0 0 0 3.696-1.076 3.996 3.996 0 0 0 1.077-3.696A3.996 3.996 0 0 0 22 12c0-1.42-.74-2.665-1.853-3.375a3.996 3.996 0 0 0-1.076-3.696 3.996 3.996 0 0 0-3.696-1.077A3.996 3.996 0 0 0 12 2Zm-1.907 3.395a2.001 2.001 0 0 1 3.814 0l.36 1.134 1.054-.548a2.001 2.001 0 0 1 2.697 2.697l-.548 1.056 1.134.359a2.001 2.001 0 0 1 0 3.814l-1.133.36.548 1.054a2.001 2.001 0 0 1-2.697 2.697l-1.056-.547-.359 1.133a2.001 2.001 0 0 1-3.814 0l-.36-1.134-1.055.549a2.001 2.001 0 0 1-2.697-2.698l.548-1.055-1.134-.359a2.001 2.001 0 0 1 0-3.814l1.135-.36-.549-1.055A2.001 2.001 0 0 1 8.68 5.981l1.055.548.359-1.134Zm5.614 2.898a1 1 0 0 0-1.414 0l-6 6a1 1 0 1 0 1.414 1.414l6-6a1 1 0 0 0 0-1.414ZM7.75 9.5a1.5 1.5 0 1 1 3 0 1.5 1.5 0 0 1-3 0Zm7 3.5a1.5 1.5 0 1 0 0 3 1.5 1.5 0 0 0 0-3Z"/>
</svg>
