<svg xmlns="http://www.w3.org/2000/svg" viewBox="0 0 24 24"><defs><style>.cls-1{fill:none;}.cls-2{fill:#999;}</style></defs><title>Product_Promise_ProductOnPicture_24px</title><g id="Square"><rect class="cls-1" width="24" height="24"/></g><g id="Icon"><path class="cls-2" d="M15.11,3.71h0M20,4l0,5.26L9.63,19.59,4.42,14.38,14.82,4H20m1-2H14.41a1,1,0,0,0-.71.29L2.29,13.68a1,1,0,0,0,0,1.41l6.63,6.62a1,1,0,0,0,1.42,0L21.68,10.38a1,1,0,0,0,.29-.7L22,3a1,1,0,0,0-1-1Z"/><circle class="cls-2" cx="16" cy="8" r="1.5"/></g></svg>