<svg xmlns="http://www.w3.org/2000/svg" viewBox="0 0 24 24"><defs><style>.cls-1{fill:none;}.cls-2,.cls-3{fill:#999;}.cls-2{fill-rule:evenodd;}</style></defs><title>Product_Promise_ProductSheet_24px</title><g id="Square"><rect class="cls-1" width="24" height="24"/></g><g id="Icon"><path class="cls-2" d="M5,3V21a1,1,0,0,0,1,1H18a1,1,0,0,0,1-1V3a1,1,0,0,0-1-1H6A1,1,0,0,0,5,3ZM17,4V7H7V4ZM7,20V9H17V20Z"/><path class="cls-2" d="M14.5,12h-3a.5.5,0,0,0,0,1h3a.5.5,0,0,0,0-1Z"/><circle class="cls-3" cx="9.5" cy="12.5" r="0.5"/><path class="cls-2" d="M14.5,16h-3a.5.5,0,0,0,0,1h3a.5.5,0,0,0,0-1Z"/><circle class="cls-3" cx="9.5" cy="16.5" r="0.5"/></g></svg>