<svg xmlns="http://www.w3.org/2000/svg" viewBox="0 0 24 24"><defs><style>.cls-1{fill:none;}.cls-2{fill:#999;}</style></defs><title>Product_List_Standard_24px</title><g id="Square"><rect class="cls-1" width="24" height="24"/></g><g id="Icon"><g id="mes_listes_courses"><path class="cls-2" d="M16,6V18H8V6h8m1.14-2H6.86A.9.9,0,0,0,6,4.94V19.06a.9.9,0,0,0,.86.94H17.14a.9.9,0,0,0,.86-.94V4.94A.9.9,0,0,0,17.14,4Z"/></g><path class="cls-2" d="M14.5,9h-5a.5.5,0,0,1,0-1h5a.5.5,0,0,1,0,1Z"/><path class="cls-2" d="M12.5,12.5h-3a.5.5,0,0,1,0-1h3a.5.5,0,0,1,0,1Z"/><path class="cls-2" d="M12.5,16h-3a.5.5,0,0,1,0-1h3a.5.5,0,0,1,0,1Z"/><circle class="cls-2" cx="14.5" cy="12" r="0.5"/><circle class="cls-2" cx="14.5" cy="15.5" r="0.5"/></g></svg>