<svg xmlns="http://www.w3.org/2000/svg" viewBox="0 0 24 24"><defs><style>.cls-1{fill:none;}.cls-2{fill:#191919;}</style></defs><title>Product_Promise_MadeInFrance_24px</title><g id="Square"><rect class="cls-1" width="24" height="24"/></g><g id="Calque_5" data-name="Calque 5"><path class="cls-2" d="M12,22a.84.84,0,0,1-.27,0l-7-2a1,1,0,0,1-.6-.47A1,1,0,0,1,4,18.73l1.2-4.21A2.51,2.51,0,0,0,4,11.59l-1.4-.7A1,1,0,0,1,2,10V8A1,1,0,0,1,3,7H4.7A6.54,6.54,0,0,0,8.36,5.89,6.55,6.55,0,0,0,10,4.36l.92-1.22A2.72,2.72,0,0,1,15.17,3a11.75,11.75,0,0,0,4.07,3.08l2.18,1a1,1,0,0,1,.36,1.53l-1,1.2a6,6,0,0,0-.46,6.85l.49.82a1,1,0,0,1-.31,1.34l-3,2a1,1,0,0,1-1.1,0l-1.34-.89a1,1,0,0,0-1.39.28l-.89,1.33A1,1,0,0,1,12,22ZM6.24,18.31l5.33,1.53.49-.73a3,3,0,0,1,4.16-.83l.78.52,1.65-1.1a8,8,0,0,1,.62-9.13l.15-.19-1-.47A13.81,13.81,0,0,1,13.64,4.3.79.79,0,0,0,13.06,4a.73.73,0,0,0-.56.3l-.92,1.22a8.67,8.67,0,0,1-2.11,2A8.55,8.55,0,0,1,4.7,9H4v.38l.85.42a4.51,4.51,0,0,1,2.31,5.27h0Zm0-3.51h0Z"/></g></svg>