<svg xmlns="http://www.w3.org/2000/svg" viewBox="0 0 24 24"><defs><style>.cls-1{fill:none;}.cls-2{fill:#191919;}</style></defs><title>Product_List_Add_24px</title><g id="Square"><rect class="cls-1" width="24" height="24"/></g><g id="Calque_5" data-name="Calque 5"><path class="cls-2" d="M14.25,11.5H9.75a.5.5,0,0,0,0,1h4.5a.5.5,0,0,0,0-1Z"/><path class="cls-2" d="M14.25,14.5H9.75a.5.5,0,0,0,0,1h4.5a.5.5,0,0,0,0-1Z"/><path class="cls-2" d="M9.75,9.5h2.5a.5.5,0,0,0,0-1H9.75a.5.5,0,0,0,0,1Z"/><path class="cls-2" d="M21,6a4,4,0,0,0-7.44-2H7A1,1,0,0,0,6,5V19a1,1,0,0,0,1,1H17a1,1,0,0,0,1-1V9.86A4,4,0,0,0,21,6ZM8,18V6h5a4,4,0,0,0,3,3.86V18Zm9-9a3,3,0,1,1,3-3A3,3,0,0,1,17,9Z"/><path class="cls-2" d="M18.5,5.5h-1v-1a.5.5,0,0,0-1,0v1h-1a.5.5,0,0,0,0,1h1v1a.5.5,0,0,0,1,0v-1h1a.5.5,0,0,0,0-1Z"/></g></svg>