<svg xmlns="http://www.w3.org/2000/svg" viewBox="0 0 24 24"><defs><style>.cls-1{fill:none;}.cls-2{fill:#191919;}</style></defs><title>Product_Promise_FashionChoice_24px</title><g id="Square"><rect class="cls-1" width="24" height="24"/></g><g id="Calque_5" data-name="Calque 5"><path class="cls-2" d="M20.36,6.56a1.52,1.52,0,0,0-.8-.87L16,4l-.08-.15a1.56,1.56,0,0,0-1-.63l-4.31-.76v0A1.5,1.5,0,0,0,9.18,2L4.79,2.8A1.5,1.5,0,0,0,3.57,4.54L6.43,20.77A1.51,1.51,0,0,0,7.91,22a1.15,1.15,0,0,0,.26,0l4.4-.77.11-.05h0a1,1,0,0,0,.88-.54L20.31,7.74A1.56,1.56,0,0,0,20.36,6.56Zm-7.68,6.68L11.16,4.6l2.93.52Zm-7-8.56L9,4.08l2.69,15.25-3.41.6Zm8.85,9.94L15.93,6.2l2.35,1.1Z"/><circle class="cls-2" cx="9.63" cy="17.38" r="1"/></g></svg>