<svg xmlns="http://www.w3.org/2000/svg" viewBox="0 0 24 24"><defs><style>.cls-1{fill:none;}.cls-2{fill:#191919;}</style></defs><title>Product_Basket_Handbag_24px</title><g id="Square"><rect class="cls-1" width="24" height="24"/></g><g id="Calque_5" data-name="Calque 5"><path class="cls-2" d="M19,7.92A1,1,0,0,0,18,7H16V5.69A4.1,4.1,0,0,0,12,1.5,4.1,4.1,0,0,0,8,5.69V7H6a1,1,0,0,0-1,.92l-1,13a1,1,0,0,0,.27.76A1,1,0,0,0,5,22H19a1,1,0,0,0,.73-.32,1,1,0,0,0,.27-.76ZM10,5.69A2.1,2.1,0,0,1,12,3.5a2.1,2.1,0,0,1,2,2.19V7H10ZM6.08,20,6.93,9H8v1a1,1,0,0,0,2,0V9h4v1a1,1,0,0,0,2,0V9h1.07l.85,11Z"/></g></svg>