<svg xmlns="http://www.w3.org/2000/svg" viewBox="0 0 24 24"><defs><style>.cls-1{fill:none;}.cls-2{fill:#3f3f3f;}</style></defs><title>Product_Basket_Standard_24px</title><g id="Square"><rect class="cls-1" width="24" height="24"/></g><g id="Calque_5" data-name="Calque 5"><path class="cls-2" d="M18,16H8a1,1,0,0,1-1-.75L4.38,5H3A1,1,0,0,1,3,3H5.15a1,1,0,0,1,1,.75L6.71,6H20a1,1,0,0,1,.79.38,1,1,0,0,1,.18.86l-2,8A1,1,0,0,1,18,16ZM8.8,14h8.42l1.5-6H7.23Z"/><circle class="cls-2" cx="16.5" cy="20" r="2"/><circle class="cls-2" cx="9.5" cy="20" r="2"/></g></svg>