<svg xmlns="http://www.w3.org/2000/svg" viewBox="0 0 24 24"><defs><style>.cls-1{fill:none;}.cls-2{fill:#3f3f3f;}</style></defs><title>Product_List_Standard_24px</title><g id="Square"><rect class="cls-1" width="24" height="24"/></g><g id="Calque_5" data-name="Calque 5"><path class="cls-2" d="M17.14,4H6.86A.9.9,0,0,0,6,4.94V19.06a.9.9,0,0,0,.86.94H17.14a.9.9,0,0,0,.86-.94V4.94A.9.9,0,0,0,17.14,4ZM16,18H8V6h8Z"/><path class="cls-2" d="M9.75,12.5h4.5a.5.5,0,0,0,0-1H9.75a.5.5,0,0,0,0,1Z"/><path class="cls-2" d="M9.75,15.5h4.5a.5.5,0,0,0,0-1H9.75a.5.5,0,0,0,0,1Z"/><path class="cls-2" d="M9.75,9.5h4.5a.5.5,0,0,0,0-1H9.75a.5.5,0,0,0,0,1Z"/></g></svg>