<svg xmlns="http://www.w3.org/2000/svg" viewBox="0 0 24 24">
    <g id="Square"> </g>
  <path fill-rule="evenodd" d="M2 3a1 1 0 0 1 1-1h2a1 1 0 0 1 1 1v11.5h2v-7a1 1 0 0 1 1-1h8a1 1 0 0 1 1 1v7h1.586l.707-.707a1 1 0 0 1 1.414 1.414l-1 1A1 1 0 0 1 20 16.5H5a1 1 0 0 1-1-1V4H3a1 1 0 0 1-1-1Zm14 5.5v6h-6v-6h2.5V10a.5.5 0 0 0 1 0V8.5H16Zm-7.5 11a.25.25 0 1 0 0 .5.25.25 0 0 0 0-.5Zm-2.25.25a2.25 2.25 0 1 1 4.5 0 2.25 2.25 0 0 1-4.5 0Zm10.25 0a.25.25 0 1 1 .5 0 .25.25 0 0 1-.5 0Zm.25-2.25a2.25 2.25 0 1 0 0 4.5 2.25 2.25 0 0 0 0-4.5Z"/>
</svg>
