<svg xmlns="http://www.w3.org/2000/svg" viewBox="0 0 24 24"><defs><style>.cls-1{fill:none;}.cls-2{fill:#999;}</style></defs><title>Product_Promise_Scan_24px</title><g id="Square"><rect class="cls-1" width="24" height="24"/></g><g id="Icon"><path class="cls-2" d="M3,8.38a1,1,0,0,1-1-1V3A1,1,0,0,1,3,2H7.38a1,1,0,0,1,0,2H4V7.38A1,1,0,0,1,3,8.38Z"/><path class="cls-2" d="M21,8.38a1,1,0,0,1-1-1V4H16.62a1,1,0,0,1,0-2H21a1,1,0,0,1,1,1V7.38A1,1,0,0,1,21,8.38Z"/><path class="cls-2" d="M7.38,22H3a1,1,0,0,1-1-1V16.61a1,1,0,0,1,2,0V20H7.38a1,1,0,1,1,0,2Z"/><path class="cls-2" d="M22,21a1,1,0,0,1-1,1H16.62a1,1,0,0,1,0-2H20V16.61a1,1,0,0,1,2,0Z"/><rect class="cls-2" x="8.85" y="8.2" width="0.61" height="7.78"/><rect class="cls-2" x="12.83" y="8.2" width="0.61" height="7.78"/><rect class="cls-2" x="16.97" y="8.2" width="0.61" height="7.78"/><rect class="cls-2" x="6.43" y="8.2" width="1.56" height="7.78"/><rect class="cls-2" x="10.21" y="8.2" width="1.56" height="7.78"/><rect class="cls-2" x="14.54" y="8.2" width="1.56" height="7.78"/></g></svg>