<svg xmlns="http://www.w3.org/2000/svg" viewBox="0 0 24 24"><defs><style>.cls-1{fill:none;}.cls-2{fill:#3f3f3f;}</style></defs><title>Product_Promise_ProductSheet_24px</title><g id="Square"><rect class="cls-1" width="24" height="24"/></g><g id="Calque_5" data-name="Calque 5"><path class="cls-2" d="M18,2H6A1,1,0,0,0,5,3V21a1,1,0,0,0,1,1H18a1,1,0,0,0,1-1V3A1,1,0,0,0,18,2ZM17,4V7H7V4ZM7,20V9H17V20Z"/><path class="cls-2" d="M14.25,13.5H9.75a.5.5,0,0,0,0,1h4.5a.5.5,0,0,0,0-1Z"/><path class="cls-2" d="M14.25,16.5H9.75a.5.5,0,0,0,0,1h4.5a.5.5,0,0,0,0-1Z"/></g></svg>