<svg xmlns="http://www.w3.org/2000/svg" viewBox="0 0 24 24"><defs><style>.cls-1{fill:none;}.cls-2{fill:#191919;}</style></defs><title>Project_Inspiration_24px</title><g id="Square"><rect class="cls-1" width="24" height="24"/></g><g id="Calque_5" data-name="Calque 5"><path class="cls-2" d="M19,2H7A1,1,0,0,0,6,3V21a1,1,0,0,0,1,1H19a1,1,0,0,0,1-1V3A1,1,0,0,0,19,2ZM8,15.12l3-6,2.05,4.1a.52.52,0,0,0,.9,0L15,11.12l2.19,4.38H8ZM18,4V14.88l-2.55-5.1a.52.52,0,0,0-.9,0l-1.05,2.1-2.05-4.1a.52.52,0,0,0-.9,0L8,12.88V4Zm0,16H8V16.5H18Z"/><path class="cls-2" d="M15.5,8A1.5,1.5,0,1,0,14,6.5,1.5,1.5,0,0,0,15.5,8Z"/></g></svg>