<svg xmlns="http://www.w3.org/2000/svg" viewBox="0 0 24 24"><defs><style>.cls-1{fill:none;}.cls-2{fill:#191919;}</style></defs><title>Project_DescribeProject_24px</title><g id="Square"><rect class="cls-1" width="24" height="24"/></g><g id="Calque_5" data-name="Calque 5"><path class="cls-2" d="M20.46,16.18,16.25,12l3.46-3.46a1,1,0,0,0,0-1.42l-2.8-2.8a1,1,0,0,0-1.42,0L12,7.75,7.82,3.54a1,1,0,0,0-1.41,0L3.54,6.41a1,1,0,0,0,0,1.41L7.75,12,5,14.79a1,1,0,0,0-.27.51L4,18.8a1,1,0,0,0,.27.91A1,1,0,0,0,5,20l.2,0,3.5-.7A1,1,0,0,0,9.21,19L12,16.25l4.21,4.21a1,1,0,0,0,.71.29,1,1,0,0,0,.7-.29l2.87-2.87A1,1,0,0,0,20.46,16.18ZM16.2,6.41,17.59,7.8l-1,1L15.16,7.45ZM14.45,8.16l1.39,1.39-1,1L13.45,9.17ZM6.27,17.73,6.62,16l.13-.13,1.39,1.39L8,17.38Zm2.58-1.19L7.46,15.15l1.71-1.7,1.38,1.38Zm8,1.8-1-1,.53-.53a.5.5,0,0,0-.71-.71l-.53.53L13.75,15.2l.52-.53a.5.5,0,0,0,0-.71.5.5,0,0,0-.7,0l-.53.53-1.42-1.41.53-.53a.5.5,0,0,0,0-.71.5.5,0,0,0-.7,0l-.53.53L9.5,11l.53-.53a.5.5,0,1,0-.71-.71l-.52.53L7.38,8.83l.53-.52A.5.5,0,0,0,7.2,7.6l-.53.53-1-1L7.11,5.66,18.34,16.89Z"/></g></svg>