<svg xmlns="http://www.w3.org/2000/svg" viewBox="0 0 24 24"><defs><style>.cls-1{fill:none;}.cls-2{fill:#999;}</style></defs><title>Service_Custom_CutWoodGlass_24px</title><g id="Square"><rect class="cls-1" width="24" height="24"/></g><g id="Icon"><circle class="cls-2" cx="12" cy="13" r="1.5"/><path class="cls-2" d="M21,16h-.53A8.81,8.81,0,0,0,21,13a1,1,0,0,0,1-1,9.94,9.94,0,0,0-2.26-6.32l.75-.76a1,1,0,0,0-1.41-1.41l-.76.75A9.94,9.94,0,0,0,12,2H3A1,1,0,0,0,2,3v9.24h0A1,1,0,0,0,3,13a8.81,8.81,0,0,0,.53,3H3a1,1,0,0,0,0,2H4.52a9,9,0,0,0,15,0H21a1,1,0,0,0,0-2Zm-1.06-5h-2A6,6,0,0,0,6.08,11h-2a8,8,0,0,1,15.88,0ZM4,4H6A10.27,10.27,0,0,0,4,6Zm8,16a7,7,0,0,1-7-7H7a1,1,0,0,0,1-1,4,4,0,0,1,8,0,1,1,0,0,0,1,1h2a6.88,6.88,0,0,1-.69,3H8.5v2h8.39A7,7,0,0,1,12,20Z"/></g></svg>