<svg xmlns="http://www.w3.org/2000/svg" viewBox="0 0 24 24"><defs><style>.cls-1{fill:none;}.cls-2{fill:#191919;}</style></defs><title>Service_PurchaseHelp_ToolRent_24px</title><g id="Square"><rect class="cls-1" width="24" height="24"/></g><g id="Calque_5" data-name="Calque 5"><path class="cls-2" d="M21.8,15.88a2.57,2.57,0,0,0-3.16-1.31L15.9,15.63A2.23,2.23,0,0,0,13.76,14H9.5A8.74,8.74,0,0,0,7,14.29a8.61,8.61,0,0,0-2.55,1.4,1,1,0,0,0-.23,1.4,1,1,0,0,0,1.39.23,7,7,0,0,1,2-1.11,6.62,6.62,0,0,1,2-.21h4.26a.25.25,0,0,1,0,.5H11a1,1,0,0,0,0,2h2.76A2.2,2.2,0,0,0,15,18.14l4.4-1.71a.61.61,0,0,1,.6.27.29.29,0,0,1,0,.24.36.36,0,0,1-.19.18l-6.95,2.72A2.33,2.33,0,0,1,12,20H8a1,1,0,0,0,0,2h4a4.21,4.21,0,0,0,1.62-.31L20.52,19a2.31,2.31,0,0,0,1.31-1.29A2.28,2.28,0,0,0,21.8,15.88Z"/><path class="cls-2" d="M5.25,3H5.9L7.5,7.58v2A1.5,1.5,0,1,0,9.41,11.5h6.18a1.5,1.5,0,1,0,1.84-1.93A2.49,2.49,0,0,0,15.31,7.8L12.5,7.49V6a.5.5,0,0,0-.5-.5H7.83L6.72,2.33A.51.51,0,0,0,6.25,2h-1a.5.5,0,0,0,0,1ZM8,11.5a.5.5,0,1,1,.5-.5A.5.5,0,0,1,8,11.5Zm9,0a.5.5,0,1,1,.5-.5A.5.5,0,0,1,17,11.5Zm-.62-1.86a1.52,1.52,0,0,0-.79.86H9.41a1.52,1.52,0,0,0-.91-.91V8.05l6.7.74A1.49,1.49,0,0,1,16.38,9.64ZM11.5,6.5v.88L8.37,7,8.18,6.5Z"/></g></svg>