<svg xmlns="http://www.w3.org/2000/svg" viewBox="0 0 24 24"><defs><style>.cls-1{fill:none;}.cls-2{fill:#999;}</style></defs><title>Service_Delivery_Delivery--Home_24px</title><g id="Square"><rect class="cls-1" width="24" height="24"/></g><g id="Icon"><path class="cls-2" d="M21,10h-.72l-.81-3.24a1,1,0,0,0-1-.76H16V5a1,1,0,0,0-1-1H4A1,1,0,0,0,3,5V7H5V6h9v5a1,1,0,0,0,2,0V8h1.72l.4,1.62.6,2.38H20v4h-.68a3,3,0,0,0-5.64,0H11.32a3,3,0,0,0-5.64,0H5V14H3v3a1,1,0,0,0,1,1H5.68a3,3,0,0,0,5.64,0h2.36a3,3,0,0,0,5.64,0H21a1,1,0,0,0,1-1V11A1,1,0,0,0,21,10ZM8.5,18a1,1,0,1,1,1-1A1,1,0,0,1,8.5,18Zm8,0a1,1,0,1,1,1-1A1,1,0,0,1,16.5,18Z"/><path class="cls-2" d="M7,10H5a.5.5,0,0,0,0,1H7a.5.5,0,0,0,0-1Z"/><path class="cls-2" d="M7,12H3.5a.5.5,0,0,0,0,1H7a.5.5,0,0,0,0-1Z"/><path class="cls-2" d="M7.5,8.5A.5.5,0,0,0,7,8H2A.5.5,0,0,0,2,9H7A.5.5,0,0,0,7.5,8.5Z"/></g></svg>