<svg xmlns="http://www.w3.org/2000/svg" viewBox="0 0 24 24"><defs><style>.cls-1{fill:none;}.cls-2{fill:#999;}</style></defs><title>Service_PurchaseHelp_HomeInstall_24px</title><g id="Square"><rect class="cls-1" width="24" height="24"/></g><g id="Icon"><path class="cls-2" d="M20.79,5.27a1.49,1.49,0,0,0-1.05-.73L19,4.42l.24-.67L15.08,2.23A6.51,6.51,0,0,0,8.52,3.46l-1,.88A1.5,1.5,0,0,0,8.35,7,21.68,21.68,0,0,1,11,7.38l-.09.25A1.48,1.48,0,0,0,11,8.78a1.77,1.77,0,0,0,.16.22H8.83a3,3,0,0,0-2.12.88L3.59,13H3a1,1,0,0,0,0,2H4a1,1,0,0,0,.71-.29l3.41-3.42A1.05,1.05,0,0,1,8.83,11H11l-.36,1H10.5a1,1,0,0,0,0,2h5.62l-1.23,5.23a1,1,0,0,1-1,.77H3a1,1,0,0,0,0,2H13.92a3,3,0,0,0,2.92-2.31l1.23-5.23a2,2,0,0,0-.38-1.7A2,2,0,0,0,16.13,12H14.92l.44-1.21a1.09,1.09,0,0,0,.26.05,1.51,1.51,0,0,0,1.27-.7l.69.41a1.52,1.52,0,0,0,1.25.1,1.48,1.48,0,0,0,.89-.89L20.9,6.53A1.51,1.51,0,0,0,20.79,5.27ZM18.05,8.5,15.87,7.2l-.55,1.5L13,7.84l.63-1.73-.94-.34a15,15,0,0,0-3-.66L9.84,5a4.57,4.57,0,0,1,4.55-.86l2.3.84L16.3,6l2.51.41Z"/></g></svg>