<svg xmlns="http://www.w3.org/2000/svg" viewBox="0 0 24 24"><defs><style>.cls-1{fill:none;}.cls-2{fill:#191919;}</style></defs><title>Service_Empty_24px_2</title><g id="Square"><rect class="cls-1" width="24" height="24"/></g><g id="Calque_5" data-name="Calque 5"><path class="cls-2" d="M21,17.59v-7l.45-.22a1,1,0,0,0,0-1.79l-9-4.46a1,1,0,0,0-.89,0l-9,4.54a1,1,0,0,0,0,1.79L5,11.66v4.63a1,1,0,0,0,.25.66,9,9,0,0,0,13.5.05,1,1,0,0,0,.25-.67V11.58l1-.5v6.51a1.5,1.5,0,1,0,1,0ZM12.05,6.12l6.71,3.34L12,12.88,5.24,9.54ZM17,15.94a7,7,0,0,1-10,0V12.65l4.51,2.25A1.13,1.13,0,0,0,12,15a1,1,0,0,0,.45-.11L17,12.58Z"/><ellipse class="cls-2" cx="12" cy="9.5" rx="1" ry="0.75"/></g></svg>