<svg xmlns="http://www.w3.org/2000/svg" viewBox="0 0 24 24"><defs><style>.cls-1{fill:none;}.cls-2{fill:#999;}</style></defs><title>Service_Tools_3d_24px</title><g id="Square"><rect class="cls-1" width="24" height="24"/></g><g id="Icon"><path class="cls-2" d="M20.49,6.63l-8-4.5a1,1,0,0,0-1,0l-8,4.5A1,1,0,0,0,3,7.5v9a1,1,0,0,0,.51.87l8,4.5a1,1,0,0,0,1,0l8-4.5A1,1,0,0,0,21,16.5v-9A1,1,0,0,0,20.49,6.63ZM12,4.15l6.47,3.64L12,11.43,5.53,7.79ZM5,8.64l6.5,3.65v7.28L5,15.92Zm7.5,10.93V12.29L19,8.64v7.28Z"/></g></svg>