<svg xmlns="http://www.w3.org/2000/svg" viewBox="0 0 24 24"><defs><style>.cls-1{fill:none;}.cls-2{fill:#191919;}</style></defs><title>Service_PurchaseHelp_CarRent_24px</title><g id="Square"><rect class="cls-1" width="24" height="24"/></g><g id="Calque_5" data-name="Calque 5"><path class="cls-2" d="M7,10.5h.57a2,2,0,0,0,3.86,0h1.14a2,2,0,0,0,3.86,0H17a1,1,0,0,0,1-1V7.05a1,1,0,0,0-1-1l-.42-1.78a1,1,0,0,0-1-.77H14V3a1,1,0,0,0-1-1H7A1,1,0,0,0,6,3V9.5A1,1,0,0,0,7,10.5Zm2.5.5a1,1,0,1,1,1-1A1,1,0,0,1,9.5,11Zm5,0a1,1,0,1,1,1-1A1,1,0,0,1,14.5,11ZM7,3h6V6.25a.5.5,0,0,0,1,0V4.5h1.61l.6,2.55H17V9.5h-.57a2,2,0,0,0-3.86,0H11.43a2,2,0,0,0-3.86,0H7Z"/><path class="cls-2" d="M21.85,15.14a2.55,2.55,0,0,0-1.29-1.41,2.51,2.51,0,0,0-1.92-.08L15,15a2.5,2.5,0,0,0-2.45-2H8.43a6.08,6.08,0,0,0-3.18.91L2.47,15.65a1,1,0,1,0,1.06,1.7l2.78-1.74A4,4,0,0,1,8.43,15H12.5a.5.5,0,0,1,0,1H9a1,1,0,0,0,0,2h3.5a2.48,2.48,0,0,0,1.55-.55h0l5.27-1.92a.46.46,0,0,1,.38,0,.48.48,0,0,1,.26.28.5.5,0,0,1-.3.64l-9.2,3.35a3,3,0,0,1-1,.18H6a1,1,0,0,0,0,2H9.44a5,5,0,0,0,1.71-.3l9.21-3.35A2.51,2.51,0,0,0,21.85,15.14Z"/></g></svg>