<svg xmlns="http://www.w3.org/2000/svg" viewBox="0 0 24 24"><defs><style>.cls-1{fill:none;}.cls-2{fill:#191919;}</style></defs><title>Service_Delay_Delivery--3h_24px</title><g id="Square"><rect class="cls-1" width="24" height="24"/></g><g id="Calque_5" data-name="Calque 5"><path class="cls-2" d="M19.4,5.3l.6-.59.15.14a.48.48,0,0,0,.7,0,.48.48,0,0,0,0-.7l-1-1a.49.49,0,0,0-.7.7l.14.15-.59.6a9.93,9.93,0,0,0-13.4,0L4.21,3.5l.64-.65a.49.49,0,0,0-.7-.7l-2,2a.48.48,0,0,0,0,.7.48.48,0,0,0,.7,0l.65-.64L4.6,5.3a10,10,0,1,0,14.8,0ZM12,20a8,8,0,1,1,8-8A8,8,0,0,1,12,20Z"/><path class="cls-2" d="M11.37,12a1.34,1.34,0,0,0-.25-.23,1.11,1.11,0,0,0-.29-.14h0a1,1,0,0,0,.52-.39,1.21,1.21,0,0,0,.18-.68,1.12,1.12,0,0,0-.46-1,1.9,1.9,0,0,0-1.18-.35,2.08,2.08,0,0,0-.63.09,1.66,1.66,0,0,0-.5.24,1.87,1.87,0,0,0-.34.35,1.73,1.73,0,0,0-.2.41l.88.25a.77.77,0,0,1,.78-.54.76.76,0,0,1,.5.17.56.56,0,0,1,.21.46c0,.45-.27.67-.8.67H9.25v.74H9.8a1,1,0,0,1,.63.18.59.59,0,0,1,.26.51.61.61,0,0,1-.24.52.83.83,0,0,1-.56.19,1.09,1.09,0,0,1-.61-.17.92.92,0,0,1-.36-.44l-.84.26a1.55,1.55,0,0,0,.63.84,2,2,0,0,0,1.17.32,1.84,1.84,0,0,0,1.26-.42,1.35,1.35,0,0,0,.49-1.09,1.27,1.27,0,0,0-.07-.44A1.17,1.17,0,0,0,11.37,12Z"/><path class="cls-2" d="M14.34,10.36a1.18,1.18,0,0,0-.56.13,1.31,1.31,0,0,0-.42.35V9h-.89V14.2h.89V12a.8.8,0,0,1,.21-.59.67.67,0,0,1,.51-.22.66.66,0,0,1,.5.21.73.73,0,0,1,.21.56V14.2h.88V11.77a1.38,1.38,0,0,0-.37-1A1.27,1.27,0,0,0,14.34,10.36Z"/></g></svg>