<svg xmlns="http://www.w3.org/2000/svg" viewBox="0 0 24 24"><defs><style>.cls-1{fill:none;}.cls-2{fill:#191919;}</style></defs><title>Service_AfterSales_Helpline_24px</title><g id="Square"><rect class="cls-1" width="24" height="24"/></g><g id="Calque_5" data-name="Calque 5"><path class="cls-2" d="M22,12a4,4,0,0,0-1.65-3.22A9,9,0,0,0,12,2,8.78,8.78,0,0,0,3.66,8.77,4,4,0,0,0,6,16a1,1,0,0,0,1-1V9a1,1,0,0,0-.91-1A6.58,6.58,0,0,1,12,4,6.76,6.76,0,0,1,17.9,8,1,1,0,0,0,17,9v6a1,1,0,0,0,.58.9A7.05,7.05,0,0,1,15.28,18,3.48,3.48,0,0,0,12,16a3.29,3.29,0,0,0-3.5,3A3.29,3.29,0,0,0,12,22a3.57,3.57,0,0,0,3.2-1.79.65.65,0,0,0,.19,0,9.2,9.2,0,0,0,4.77-4.76s0,0,0-.06A4,4,0,0,0,22,12ZM4,12a2,2,0,0,1,.75-1.54A1.12,1.12,0,0,0,5,10.35v3.38A2,2,0,0,1,4,12Zm8,8c-.8,0-1.5-.47-1.5-1s.7-1,1.5-1,1.5.47,1.5,1S12.8,20,12,20Zm7-9.71a2,2,0,0,1,0,3.44V10.28Z"/></g></svg>