<svg xmlns="http://www.w3.org/2000/svg" viewBox="0 0 24 24">
      <g id="Square"> </g>
  <g clip-path="url(#a)">
    <path d="M17.775 6.009A4.794 4.794 0 0 1 15.605 2h-3.424l-.006 13.78a2.885 2.885 0 0 1-2.873 2.782 2.893 2.893 0 0 1-2.878-2.89 2.888 2.888 0 0 1 2.878-2.891c.297 0 .58.049.85.133v-3.51a6.255 6.255 0 0 0-.85-.062C5.827 9.342 3 12.182 3 15.672a6.332 6.332 0 0 0 2.69 5.18A6.247 6.247 0 0 0 9.303 22c3.475 0 6.303-2.84 6.303-6.329V8.683a8.12 8.12 0 0 0 4.763 1.539V6.783a4.72 4.72 0 0 1-2.594-.774Z"/>
  </g>
  <defs>
    <clipPath id="a">
      <rect width="24" height="24" fill="#fff"/>
    </clipPath>
  </defs>
</svg>
