<svg xmlns="http://www.w3.org/2000/svg" viewBox="0 0 24 24"><defs><style>.cls-1{fill:none;}.cls-2{fill:#999;}</style></defs><title>Social_Comment_Question--Article_24px</title><g id="Square"><rect class="cls-1" width="24" height="24"/></g><g id="Icon"><path class="cls-2" d="M12,13a.75.75,0,0,1-.75-.75V12a2.41,2.41,0,0,1,1.41-2.16A1.51,1.51,0,0,0,12,7h0a1.5,1.5,0,0,0-1.5,1.5.75.75,0,0,1-1.5,0,3,3,0,0,1,3-3h0a3,3,0,0,1,1.32,5.7.91.91,0,0,0-.57.81v.25A.75.75,0,0,1,12,13Z"/><rect class="cls-2" x="11.25" y="13.96" width="1.5" height="1.5" rx="0.75"/><path class="cls-2" d="M20,4V17H12.85l-.53.38L10,19V17H4V4H20m1-2H3A1,1,0,0,0,2,3V18a1,1,0,0,0,1,1H8v2a1,1,0,0,0,1.59.81L13.5,19H21a1,1,0,0,0,1-1V3a1,1,0,0,0-1-1Z"/></g></svg>