<svg xmlns="http://www.w3.org/2000/svg" viewBox="0 0 24 24"><defs><style>.cls-1{fill:none;}.cls-2{fill:#999;}</style></defs><title>Social_View_Star--First_24px</title><g id="Square"><rect class="cls-1" width="24" height="24"/></g><g id="Icon"><g id="fiche-produit_avis_full_24px" data-name="fiche-produit/avis/full/24px"><g id="Mask"><path id="path-1" class="cls-2" d="M12,6l1.58,3.14.49,1,1.09.15,3.49.49-2.53,2.47-.8.78.2,1.1.64,3.51L13,17l-1-.53L11,17,8,18.67l.53-3.43.17-1.09-.81-.76L5.27,11l3.62-.64,1-.18.47-.94L12,6m0-3.46a1,1,0,0,0-.88.55L8.53,8.26l-5.77,1A1,1,0,0,0,2.25,11l4.19,3.93-.87,5.63a1,1,0,0,0,1,1.16A1,1,0,0,0,7,21.58l5-2.76,5.15,2.71a.89.89,0,0,0,.47.12,1,1,0,0,0,1-1.18l-1-5.72,4.13-4A1,1,0,0,0,21.14,9l-5.7-.8L12.88,3.1A1,1,0,0,0,12,2.55Z"/></g></g></g></svg>