<svg xmlns="http://www.w3.org/2000/svg" viewBox="0 0 24 24"><defs><style>.cls-1{fill:none;}.cls-2{fill:#999;}</style></defs><title>Social_SocialNetwork_Linkedin_24px</title><g id="Square"><rect class="cls-1" width="24" height="24"/></g><g id="Icon"><path class="cls-2" d="M20,5V18.32A1.68,1.68,0,0,1,18.32,20H5.68A1.68,1.68,0,0,1,4,18.32V5A1,1,0,0,1,5,4H19A1,1,0,0,1,20,5ZM9,7.94A1.27,1.27,0,0,0,8.66,7a1.37,1.37,0,0,0-1-.35A1.42,1.42,0,0,0,6.7,7a1.2,1.2,0,0,0-.38.9,1.22,1.22,0,0,0,.37.89,1.34,1.34,0,0,0,1,.36h0a1.37,1.37,0,0,0,1-.36A1.19,1.19,0,0,0,9,7.94ZM6.47,17.4h2.4V10.17H6.47Zm8.65,0h2.41V13.25a3.45,3.45,0,0,0-.76-2.43,2.61,2.61,0,0,0-2-.82,2.44,2.44,0,0,0-2.18,1.22h0V10.17H10.2c0,.46,0,2.86,0,7.23h2.4v-4a1.67,1.67,0,0,1,.08-.58,1.58,1.58,0,0,1,.47-.62,1.15,1.15,0,0,1,.77-.25c.8,0,1.2.54,1.2,1.63Z"/></g></svg>