<svg xmlns="http://www.w3.org/2000/svg" viewBox="0 0 24 24"><defs><style>.cls-1{fill:none;}.cls-2{fill:#3f3f3f;}</style></defs><title>Social_Comment_Comment_24px</title><g id="Square"><rect class="cls-1" width="24" height="24"/></g><g id="Calque_5" data-name="Calque 5"><path class="cls-2" d="M9.25,22.17A1.24,1.24,0,0,1,8,20.92V19H3.25A1.25,1.25,0,0,1,2,17.75V3.25A1.25,1.25,0,0,1,3.25,2h17.5A1.25,1.25,0,0,1,22,3.25v14.5A1.25,1.25,0,0,1,20.75,19H13.14l-3,2.84A1.23,1.23,0,0,1,9.25,22.17ZM4,17h6v2.2L12.36,17H20V4H4ZM20.75,4h0Z"/></g></svg>