<svg xmlns="http://www.w3.org/2000/svg" viewBox="0 0 24 24">
      <g id="Square"> </g>
  <g clip-path="url(#a)">
    <path d="M11.996 2A9.99 9.99 0 0 0 2 11.996a10 10 0 0 0 6.351 9.313c-.09-.79-.164-2.008.033-2.871.181-.782 1.168-4.97 1.168-4.97s-.296-.6-.296-1.48c0-1.39.806-2.427 1.81-2.427.856 0 1.267.641 1.267 1.406 0 .856-.543 2.14-.83 3.332-.24.996.501 1.81 1.48 1.81 1.777 0 3.143-1.875 3.143-4.574 0-2.394-1.72-4.064-4.18-4.064-2.846 0-4.516 2.13-4.516 4.336 0 .855.329 1.777.74 2.279.083.098.09.189.066.287-.074.313-.247.996-.28 1.136-.04.18-.148.222-.337.131-1.234-.592-2.007-2.418-2.007-3.883 0-3.15 2.287-6.047 6.606-6.047 3.464 0 6.162 2.469 6.162 5.776 0 3.447-2.172 6.22-5.183 6.22-1.012 0-1.966-.527-2.287-1.152l-.625 2.377c-.223.872-.831 1.958-1.243 2.625.938.288 1.925.444 2.962.444C17.524 22 22 17.524 22 12.004 21.992 6.476 17.516 2 11.996 2Z"/>
  </g>
  <defs>
    <clipPath id="a">
      <rect width="24" height="24" fill="#fff"/>
    </clipPath>
  </defs>
</svg>
