<svg xmlns="http://www.w3.org/2000/svg" viewBox="0 0 24 24">
      <g id="Square"> </g>
  <g clip-path="url(#a)">
    <path d="M21.584 7.186a2.505 2.505 0 0 0-1.769-1.768C18.255 5 12 5 12 5s-6.255 0-7.814.418a2.505 2.505 0 0 0-1.768 1.768C2 8.746 2 12 2 12s0 3.255.418 4.814c.23.861.907 1.538 1.768 1.768 1.56.419 7.814.419 7.814.419s6.255 0 7.814-.419a2.505 2.505 0 0 0 1.768-1.768C22 15.255 22 12 22 12s0-3.255-.418-4.814h.002ZM10 15V9l5.196 3L10 15Z"/>
  </g>
  <defs>
    <clipPath id="a">
      <rect width="24" height="24" fill="#fff"/>
    </clipPath>
  </defs>
</svg>
