<svg xmlns="http://www.w3.org/2000/svg" viewBox="0 0 24 24"><defs><style>.cls-1{fill:none;}.cls-2{fill:#3f3f3f;}</style></defs><title>Social_Comment_Community_24px</title><g id="Square"><rect class="cls-1" width="24" height="24"/></g><g id="Calque_5" data-name="Calque 5"><path class="cls-2" d="M21.25,11H19V3.25A1.25,1.25,0,0,0,17.75,2H3.25A1.25,1.25,0,0,0,2,3.25v11.5A1.25,1.25,0,0,0,3.25,16H6v2a1.26,1.26,0,0,0,.67,1.11,1.34,1.34,0,0,0,.58.14A1.28,1.28,0,0,0,8,19l4-2.82v3.53a.76.76,0,0,0,.75.75h3.09l2,1.38a.76.76,0,0,0,.43.14.85.85,0,0,0,.35-.08.75.75,0,0,0,.4-.67V20.5h2.25a.76.76,0,0,0,.75-.75v-8A.76.76,0,0,0,21.25,11ZM8,16.58V14H4V4H17V14H11.68ZM21,19.5H18v1.29L16.16,19.5H13V16h4.75A1.25,1.25,0,0,0,19,14.75V12h2Z"/></g></svg>