<svg xmlns="http://www.w3.org/2000/svg" viewBox="0 0 24 24">
      <g id="Square"> </g>
  <g clip-path="url(#a)">
    <path d="M20.5 2h-17A1.5 1.5 0 0 0 2 3.5v17A1.5 1.5 0 0 0 3.5 22h17a1.5 1.5 0 0 0 1.5-1.5v-17A1.5 1.5 0 0 0 20.5 2ZM8 19H5V9.5h3V19ZM6.5 8.25A1.75 1.75 0 1 1 8.3 6.5a1.78 1.78 0 0 1-1.8 1.75ZM19 19h-3v-5.24c0-1.42-.6-1.93-1.38-1.93A1.74 1.74 0 0 0 13 13.69c-.005.046-.005.594 0 .64V19h-3V9.5h2.9v1.3a3.11 3.11 0 0 1 2.7-1.4c1.55 0 3.36.86 3.36 3.66L19 19Z"/>
  </g>
  <defs>
    <clipPath id="a">
      <rect width="24" height="24" fill="#fff"/>
    </clipPath>
  </defs>
</svg>
