<svg xmlns="http://www.w3.org/2000/svg" viewBox="0 0 24 24"><defs><style>.cls-1{fill:none;}.cls-2{fill:#999;}</style></defs><title>Social_Share_ShareAndroid_24px</title><g id="Square"><rect class="cls-1" width="24" height="24"/></g><g id="Icon"><path class="cls-2" d="M18.5,15A3.45,3.45,0,0,0,16,16.11l-7-3.51A3.81,3.81,0,0,0,9,12a3.81,3.81,0,0,0-.06-.6l7-3.51A3.45,3.45,0,0,0,18.5,9,3.5,3.5,0,1,0,15,5.5a3.81,3.81,0,0,0,.06.6L8,9.61A3.45,3.45,0,0,0,5.5,8.5a3.5,3.5,0,0,0,0,7A3.45,3.45,0,0,0,8,14.39l7,3.51a3.81,3.81,0,0,0-.06.6A3.5,3.5,0,1,0,18.5,15Z"/></g></svg>