<svg xmlns="http://www.w3.org/2000/svg" viewBox="0 0 24 24"><defs><style>.cls-1{fill:none;}.cls-2{fill:#999;}</style></defs><title>Social_View_TesterView_24px</title><g id="Square"><rect class="cls-1" width="24" height="24"/></g><g id="Icon"><path class="cls-2" d="M12,4a8,8,0,1,1-8,8,8,8,0,0,1,8-8m0-2A10,10,0,1,0,22,12,10,10,0,0,0,12,2Z"/><g id="fiche-produit_avis_full_24px" data-name="fiche-produit/avis/full/24px"><g id="Mask"><path id="path-1" class="cls-2" d="M12,9.09l.4.8.47.94,1,.15.88.12-.64.62-.76.74.19,1,.16.88L12.93,14l-1-.5L11,14l-.72.41.13-.83.16-1.05-.77-.72-.67-.63,1-.17,1-.18.45-.9L12,9.09m0-3.23a1,1,0,0,0-.89.55L9.78,9l-2.95.51a1,1,0,0,0-.51,1.72l2.13,2L8,16.11a1,1,0,0,0,1,1.15,1,1,0,0,0,.48-.12L12,15.74l2.61,1.38a1,1,0,0,0,.46.11,1,1,0,0,0,1-1.18l-.53-2.9,2.09-2a1,1,0,0,0-.56-1.7L14.17,9,12.88,6.41a1,1,0,0,0-.9-.55Z"/></g></g></g></svg>