<svg xmlns="http://www.w3.org/2000/svg" viewBox="0 0 24 24"><defs><style>.cls-1{fill:none;}.cls-2{fill:#999;}</style></defs><title>Social_SocialNetwork_Instagram_24px</title><g id="Square"><rect class="cls-1" width="24" height="24"/></g><g id="Icon"><path class="cls-2" d="M16.66,10.62c0-.19,0-.43,0-.74a6.76,6.76,0,0,0-.08-.78,4,4,0,0,0-.14-.55,2,2,0,0,0-1.11-1.11,2.92,2.92,0,0,0-.55-.14A7,7,0,0,0,14,7.22l-.74,0H10.47l-.73,0A7.21,7.21,0,0,0,9,7.3a2.8,2.8,0,0,0-.54.14,1.91,1.91,0,0,0-.67.44,2,2,0,0,0-.44.67,2.86,2.86,0,0,0-.15.55,7,7,0,0,0-.07.78c0,.31,0,.55,0,.74s0,.45,0,.8v1.17c0,.35,0,.62,0,.8s0,.43,0,.73a7.48,7.48,0,0,0,.07.79,2.74,2.74,0,0,0,.15.54,2,2,0,0,0,1.11,1.11A2.22,2.22,0,0,0,9,16.7a5.37,5.37,0,0,0,.79.08l.73,0h2.77l.74,0a5.22,5.22,0,0,0,.78-.08,2.31,2.31,0,0,0,.55-.14,2,2,0,0,0,.67-.44,1.91,1.91,0,0,0,.44-.67,3.78,3.78,0,0,0,.14-.54,7.21,7.21,0,0,0,.08-.79c0-.3,0-.55,0-.73v-.8c0-.36,0-.55,0-.59s0-.23,0-.58ZM14,14.13a3,3,0,0,1-4.25,0,3,3,0,0,1,0-4.25,3,3,0,0,1,4.25,0,3,3,0,0,1,0,4.25Zm1.49-4.75a.68.68,0,0,1-.49.2.68.68,0,0,1-.7-.7.68.68,0,0,1,.2-.49.69.69,0,0,1,.5-.21.72.72,0,0,1,.7.7A.69.69,0,0,1,15.47,9.38Z"/><path class="cls-2" d="M11.86,10.05a2,2,0,0,0-1.38,3.33,1.94,1.94,0,0,0,2.75,0,1.93,1.93,0,0,0,0-2.76A1.87,1.87,0,0,0,11.86,10.05Z"/><path class="cls-2" d="M19,4H5A1,1,0,0,0,4,5V18.32A1.68,1.68,0,0,0,5.68,20H18.32A1.68,1.68,0,0,0,20,18.32V5A1,1,0,0,0,19,4ZM17.67,14.42a3.57,3.57,0,0,1-1,2.45,3.55,3.55,0,0,1-2.45.94c-.45,0-1.25,0-2.41,0s-2,0-2.42,0A3.57,3.57,0,0,1,7,16.87a3.57,3.57,0,0,1-.94-2.45C6,14,6,13.17,6,12s0-2,0-2.41A3.53,3.53,0,0,1,7,7.14a3.57,3.57,0,0,1,2.45-.95c.45,0,1.25,0,2.42,0s2,0,2.41,0a3.56,3.56,0,0,1,2.45.95,3.54,3.54,0,0,1,1,2.45c0,.45,0,1.25,0,2.41S17.69,14,17.67,14.42Z"/></g></svg>