<svg xmlns="http://www.w3.org/2000/svg" viewBox="0 0 24 24">
      <g id="Square"> </g>
  <g clip-path="url(#a)">
    <path d="M12 2C6.477 2 2 6.477 2 12s4.477 10 10 10 10-4.477 10-10S17.523 2 12 2Zm4.586 14.423a.623.623 0 0 1-.857.206c-2.348-1.434-5.304-1.759-8.785-.964a.623.623 0 0 1-.277-1.215c3.809-.87 7.076-.496 9.712 1.115.294.18.387.564.207.858Zm1.224-2.724a.78.78 0 0 1-1.072.258c-2.688-1.653-6.786-2.131-9.965-1.166a.78.78 0 0 1-.453-1.492c3.631-1.102 8.146-.568 11.233 1.329a.78.78 0 0 1 .257 1.071Zm.105-2.835c-3.223-1.914-8.54-2.09-11.618-1.156a.935.935 0 1 1-.543-1.79c3.533-1.073 9.405-.865 13.116 1.337a.934.934 0 1 1-.955 1.61Z"/>
  </g>
  <defs>
    <clipPath id="a">
      <rect width="24" height="24" fill="#fff"/>
    </clipPath>
  </defs>
</svg>
