<svg xmlns="http://www.w3.org/2000/svg" viewBox="0 0 24 24"><defs><style>.cls-1{fill:none;}.cls-2{fill:#191919;}</style></defs><title>Store_StoreLM_24px</title><g id="Square"><rect class="cls-1" width="24" height="24"/></g><g id="Calque_5" data-name="Calque 5"><path class="cls-2" d="M20.5,8H18.41L13.06,2.65a1.49,1.49,0,0,0-2.12,0L5.59,8H3.5A1.5,1.5,0,0,0,2,9.5v11A1.5,1.5,0,0,0,3.5,22h17A1.5,1.5,0,0,0,22,20.5V9.5A1.5,1.5,0,0,0,20.5,8ZM15,20H12.5V16H15Zm-3.5,0H9V16h2.5ZM20,20H16V15.5a.5.5,0,0,0-.5-.5h-7a.5.5,0,0,0-.5.5V20H4V10H6.41L12,4.41,17.59,10H20Z"/><path class="cls-2" d="M12.35,7.85a.5.5,0,0,0-.7,0l-3.8,3.8a.5.5,0,0,0,.36.85h7.58a.5.5,0,0,0,.36-.85Z"/></g></svg>