<svg xmlns="http://www.w3.org/2000/svg" viewBox="0 0 24 24"><defs><style>.cls-1{fill:none;}.cls-2{fill:#999;}</style></defs><title>Universe_HardwareStore_24px</title><g id="Square"><rect class="cls-1" width="24" height="24"/></g><g id="Icon"><path class="cls-2" d="M18.39,9.85l3-1A1,1,0,0,0,22,8.15a1,1,0,0,0-.26-.94L16.79,2.26A1,1,0,0,0,15.85,2a1,1,0,0,0-.72.65l-1,3L12,7.76,9.85,5.61l-1-3A1,1,0,0,0,8.15,2a1,1,0,0,0-.94.26l-4.95,5A1,1,0,0,0,2,8.15a1,1,0,0,0,.65.72l3,1,1,1a.47.47,0,0,0-.11.52A.49.49,0,0,0,7,11.7l.18,0,.21-.08.42.41L2.29,17.46a1.05,1.05,0,0,0-.29.71V21a1,1,0,0,0,1,1H5.83a1.05,1.05,0,0,0,.71-.29l5.13-5.14a.49.49,0,0,0,.23.08.39.39,0,0,0,.18,0l.21-.08L14,18.27a.49.49,0,0,0-.12.53.51.51,0,0,0,.47.32.47.47,0,0,0,.17,0l.22-.08,2.69,2.7a1.05,1.05,0,0,0,.71.29H21a1,1,0,0,0,1-1V18.17a1.05,1.05,0,0,0-.29-.71l-.81-.8a.49.49,0,0,0,.12-.53.5.5,0,0,0-.65-.29l-.21.08-1.73-1.74a.5.5,0,0,0-.53-.82l-.21.08L16.24,12Zm-1.87-5,2.66,2.66L17.61,8,16,6.39ZM15.39,7.2,16.8,8.61l-2,2L13.48,9.23A.5.5,0,0,0,13.61,9ZM10.68,9.27,8.62,10,7.2,8.61,8.61,7.2ZM4.82,7.48,7.48,4.82,8,6.39,6.39,8ZM11.46,10l1.7,1.7-2.06.77-1.7-1.7Zm-.87,4.79L7.74,17.67H6.33V16.26l2.6-2.6a.68.68,0,0,0,0,.19.51.51,0,0,0,.47.32.47.47,0,0,0,.17,0l.22-.08ZM5.41,20H4V18.59l1.33-1.33v.91a.5.5,0,0,0,.5.5h.91ZM20,20H18.59l-1.77-1.76,2.06-.77L20,18.59Zm-3.95-2.54-1.7-1.7L16.41,15l1.69,1.7ZM13.57,15l-1.7-1.7,2.06-.77,1.7,1.7Z"/></g></svg>