<svg xmlns="http://www.w3.org/2000/svg" viewBox="0 0 24 24"><defs><style>.cls-1{fill:none;}.cls-2{fill:#191919;}</style></defs><title>Universe_Dressing_24px</title><g id="Square"><rect class="cls-1" width="24" height="24"/></g><g id="Calque_5" data-name="Calque 5"><path class="cls-2" d="M21,2H3A1,1,0,0,0,2,3V21a1,1,0,0,0,2,0V18h7.5v3.5a.5.5,0,0,0,1,0V9h3.25v1.07a2.11,2.11,0,0,0-1.46,1.24.5.5,0,1,0,.92.38,1.13,1.13,0,0,1,2.08,0,.5.5,0,0,0,.46.31.43.43,0,0,0,.19,0,.49.49,0,0,0,.27-.65,2.11,2.11,0,0,0-1.46-1.24V9H20V21a1,1,0,0,0,2,0V3A1,1,0,0,0,21,2ZM11.5,4V8H4V4ZM4,17V14h7.5v3Zm7.5-4H4V9h7.5Zm1-5V4H20V8Z"/><path class="cls-2" d="M8.5,15H7a.5.5,0,0,0,0,1H8.5a.5.5,0,0,0,0-1Z"/></g></svg>