<svg xmlns="http://www.w3.org/2000/svg" viewBox="0 0 24 24">
      <g id="Square"> </g>
  <path fill-rule="evenodd" d="M3 2a1 1 0 0 0-1 1v18a1 1 0 0 0 1 1h18a1 1 0 0 0 1-1V3a1 1 0 0 0-1-1H3Zm1 6.437V4h4.437L6.624 5.813 4 8.437Zm0 1.414v4.243l2.624-2.624L9.1 8.994l-2.122-2.12L4 9.85Zm0 5.657v4.243l2.624-2.624v-.001L9.1 14.652 6.978 12.53 4 15.508ZM5.165 20h3.626l-1.813-1.813L5.165 20Zm5.04 0h4.243l-2.167-2.166-2.475-2.475-2.121 2.121 2.52 2.52Zm6.274 0H20v-3.521L16.479 20ZM20 15.065v-4.243l-4.183 4.183-2.475 2.475 2.121 2.121L20 15.065Zm0-5.657V5.165l-4.183 4.183-2.475 2.475 2.121 2.122L20 9.408ZM19.75 4h-4.242l-2.166 2.166 2.121 2.122L19.751 4Zm-5.656 0h-2.918l1.459 1.46L14.095 4ZM7.685 6.166l2.122-2.121 2.465 2.466.01.009.008.009 2.466 2.466-2.121 2.121-2.475-2.474V8.64L7.685 6.166Zm2.121 3.536 2.475 2.475 2.475 2.475-2.121 2.121-2.474-2.474h-.001v-.002l-2.475-2.474 2.121-2.121Z"/>
</svg>
