<svg xmlns="http://www.w3.org/2000/svg" viewBox="0 0 24 24"><defs><style>.cls-1{fill:none;}.cls-2{fill:#191919;}</style></defs><title>Universe_Floor_24px</title><g id="Square"><rect class="cls-1" width="24" height="24"/></g><g id="Calque_5" data-name="Calque 5"><path class="cls-2" d="M17,13H11V7a1,1,0,0,0-1-1H3A1,1,0,0,0,2,7V21a1,1,0,0,0,1,1H17a1,1,0,0,0,1-1V14A1,1,0,0,0,17,13ZM4,8H9v5H4Zm0,7H9v5H4Zm12,5H11V15h5Z"/><path class="cls-2" d="M21,2H14a1,1,0,0,0-1,1v7a1,1,0,0,0,1,1h7a1,1,0,0,0,1-1V3A1,1,0,0,0,21,2ZM20,9H15V4h5Z"/></g></svg>