<svg xmlns="http://www.w3.org/2000/svg" viewBox="0 0 24 24"><defs><style>.cls-1{fill:none;}.cls-2{fill:#191919;}</style></defs><title>Universe_Garden1_24px</title><g id="Square"><rect class="cls-1" width="24" height="24"/></g><g id="Calque_5" data-name="Calque 5"><path class="cls-2" d="M20.21,20.29l-4.42-4.41A7,7,0,0,0,19,10a1,1,0,0,0-1-1H6a1,1,0,0,0-1,1,7,7,0,0,0,3.21,5.88L3.79,20.29a1,1,0,0,0,0,1.42,1,1,0,0,0,1.42,0l5-5a7.63,7.63,0,0,0,.83.17V21a1,1,0,0,0,2,0V16.92a7.63,7.63,0,0,0,.83-.17l5,5a1,1,0,0,0,1.42,0A1,1,0,0,0,20.21,20.29ZM16.9,11A5,5,0,0,1,12,15H12A5,5,0,0,1,7.1,11Z"/><path class="cls-2" d="M11.59,7.21A.5.5,0,0,0,12,8a.51.51,0,0,0,.41-.21,2.78,2.78,0,0,0,0-3.08,1.76,1.76,0,0,1,0-1.92.5.5,0,0,0-.12-.7.51.51,0,0,0-.7.12,2.78,2.78,0,0,0,0,3.08A1.76,1.76,0,0,1,11.59,7.21Z"/><path class="cls-2" d="M9.11,6.19a.5.5,0,0,0,.08.7A.51.51,0,0,0,9.5,7a.48.48,0,0,0,.39-.19,1.74,1.74,0,0,0,0-2.12.75.75,0,0,1,0-.88.5.5,0,1,0-.78-.62,1.74,1.74,0,0,0,0,2.12A.75.75,0,0,1,9.11,6.19Z"/><path class="cls-2" d="M14.11,6.19a.5.5,0,0,0,.08.7A.51.51,0,0,0,14.5,7a.48.48,0,0,0,.39-.19,1.74,1.74,0,0,0,0-2.12.75.75,0,0,1,0-.88.5.5,0,1,0-.78-.62,1.74,1.74,0,0,0,0,2.12A.75.75,0,0,1,14.11,6.19Z"/></g></svg>