<svg xmlns="http://www.w3.org/2000/svg" viewBox="0 0 24 24">
  <g id="Square"> </g>
  <g clip-path="url(#a)">
    <path fill-rule="evenodd" d="M4 12a8 8 0 0 1 8-8c1.72 0 3.071.666 4.002 1.714C16.944 6.774 17.5 8.28 17.5 10c0 1.784-.55 2.984-1.414 3.753C15.202 14.538 13.846 15 12 15a3 3 0 1 1 0-6 1 1 0 1 1 0 2 1 1 0 1 0 0 2 3 3 0 1 0 0-6 5 5 0 0 0 0 10h8v3h-8a8 8 0 0 1-8-8Zm13.498-7.614C16.179 2.901 14.28 2 12 2 6.477 2 2 6.477 2 12s4.477 10 10 10h9a1 1 0 0 0 1-1v-5a1 1 0 0 0-1-1h-3.324c1.212-1.22 1.824-2.928 1.824-5 0-2.145-.694-4.14-2.002-5.614Z"/>
  </g>
  <defs>
    <clipPath id="a">
      <rect width="24" height="24" fill="#fff"/>
    </clipPath>
  </defs>
</svg>
