<svg xmlns="http://www.w3.org/2000/svg" viewBox="0 0 24 24"><defs><style>.cls-1{fill:none;}.cls-2{fill:#191919;}</style></defs><title>Universe_Bathroom_24px</title><g id="Square"><rect class="cls-1" width="24" height="24"/></g><g id="Calque_5" data-name="Calque 5"><path class="cls-2" d="M21,13H20V2.5a.5.5,0,0,0-.5-.5h-5a.5.5,0,0,0-.5.5V5.55A2.5,2.5,0,0,0,12,8a.5.5,0,0,0,.5.5h4A.5.5,0,0,0,17,8a2.5,2.5,0,0,0-2-2.45V3h4V13H3a1,1,0,0,0-1,1v2a4,4,0,0,0,3.58,4L4.4,21.15a.48.48,0,0,0,0,.7.48.48,0,0,0,.7,0L7,20H17l1.86,1.85a.48.48,0,0,0,.7,0,.48.48,0,0,0,0-.7L18.42,20A4,4,0,0,0,22,16V14A1,1,0,0,0,21,13Zm-1,3a2,2,0,0,1-2,2H6a2,2,0,0,1-2-2V15H20Z"/></g></svg>