<svg xmlns="http://www.w3.org/2000/svg" viewBox="0 0 24 24"><defs><style>.cls-1{fill:none;}.cls-2{fill:#191919;}</style></defs><title>Universe_Living_24px</title><g id="Square"><rect class="cls-1" width="24" height="24"/></g><g id="Calque_5" data-name="Calque 5"><circle class="cls-2" cx="9" cy="7" r="1"/><circle class="cls-2" cx="15" cy="7" r="1"/><path class="cls-2" d="M21.34,9.12A2.91,2.91,0,0,0,20,8.19V7a5,5,0,0,0-5-5H9A5,5,0,0,0,4,7V8.19a2.91,2.91,0,0,0-1.34.93,3,3,0,0,0-.59,2.52l1.85,7.6a1,1,0,0,0,1,.76H5l-.48,1.33a.5.5,0,0,0,.3.64.5.5,0,0,0,.64-.3L6.08,20H17.92l.61,1.67a.5.5,0,1,0,.94-.34L19,20h.11a1,1,0,0,0,1-.76l1.85-7.62A3,3,0,0,0,21.34,9.12ZM9,4h6a3,3,0,0,1,3,3V8.17a3,3,0,0,0-1.94,2.16l-.27,1.12a16.73,16.73,0,0,0-7.58,0L8,10.35A3,3,0,0,0,6,8.17V7A3,3,0,0,1,9,4Zm.79,14-.72-3h5.86l-.72,3Zm5.39-4H8.82l-.14-.6a14.33,14.33,0,0,1,6.64,0ZM7,18H5.68L4,11.19a1,1,0,0,1,.2-.81A1,1,0,0,1,5,10a1,1,0,0,1,1,.8L7.73,18Zm13-6.83L18.32,18H16.27L18,10.78a1,1,0,0,1,1.77-.4A.93.93,0,0,1,20,11.17Z"/></g></svg>