<svg xmlns="http://www.w3.org/2000/svg" viewBox="0 0 24 24">
    <g id="Square"> </g>
  <path fill-rule="evenodd" d="M13.086 4.074A8 8 0 0 0 5.29 7.643a1 1 0 1 1-1.678-1.09 10 10 0 0 1 9.744-4.46 1 1 0 1 1-.271 1.981ZM4.1 16.426a1 1 0 0 1 1.395.231 8 8 0 0 0 5.947 3.323 1 1 0 0 1-.14 1.996A9.998 9.998 0 0 1 3.87 17.82a1 1 0 0 1 .231-1.395Zm17.603-6.845a1 1 0 0 0-1.94.484 8 8 0 0 1-.346 4.932 1 1 0 0 0 1.855.75 10 10 0 0 0 .431-6.166ZM12 11a1 1 0 1 1-.964 1.268l-.002-.009-.002-.007A1 1 0 0 1 12 11Zm-.513 3.956a3.001 3.001 0 0 1-1.96-1.257l-5.962 1.597-.965.259-.26-.966a4.5 4.5 0 0 1 7.357-4.511 2.994 2.994 0 0 1 2.851-1.028l3.086-5.345.5-.866.866.5a4.5 4.5 0 0 1-2.012 8.391 2.987 2.987 0 0 1-.28 1.563l4.363 4.364.707.707-.707.707a4.5 4.5 0 0 1-7.584-4.115Zm2.075.02 3.241 3.241a2.5 2.5 0 0 1-3.241-3.241ZM4.215 13.05l4.427-1.186a2.5 2.5 0 0 0-4.427 1.187ZM14.47 9.72l2.292-3.97a2.5 2.5 0 0 1-2.292 3.97Z"/>
</svg>
