<svg xmlns="http://www.w3.org/2000/svg" viewBox="0 0 24 24">
  <g id="Square"> </g>
  <path fill-rule="evenodd" d="M19.732 2.712a1 1 0 0 1-.235 1.096l-7.773 7.455a1 1 0 0 1-1.62-.347L8.794 7.67l-.975.394a2.5 2.5 0 0 1-1.522 2.772l-1.854.75A2.5 2.5 0 0 1 2.57 6.948L4.424 6.2a2.5 2.5 0 0 1 3.02.937l.975-.394-1.311-3.245a1 1 0 0 1 .923-1.374l10.77-.038a1 1 0 0 1 .931.626Zm-8.326 6.085-.758-1.876.927-.374a.5.5 0 0 0-.375-.928l-.927.375-.758-1.876 6.793-.023-4.902 4.702Zm-6.233-.742a.5.5 0 1 1 .375.927l-1.855.749a.5.5 0 1 1-.374-.927l1.854-.75ZM2 17.5a1 1 0 0 1 1-1h3v-3a1 1 0 0 1 1-1h9v-3a1 1 0 0 1 1-1h4a1 1 0 0 1 1 1v12a1 1 0 0 1-1 1H3a1 1 0 0 1-1-1v-4Zm18-5h-2v-2h2v2Zm-7 2H8v2h5v-2Zm2 2h5v-2h-5v2Zm-4 2v2h5v-2h-5Zm9 2h-2v-2h2v2Zm-11 0v-2H4v2h5Z"/>
</svg>
