<svg xmlns="http://www.w3.org/2000/svg" viewBox="0 0 24 24"><defs><style>.cls-1{fill:none;}.cls-2{fill:#191919;}</style></defs><title>Universe_Kitchen_24px</title><g id="Square"><rect class="cls-1" width="24" height="24"/></g><g id="Calque_5" data-name="Calque 5"><path class="cls-2" d="M12,4a4,4,0,0,1,4,4,1,1,0,0,0,2,0A6,6,0,0,0,6,8v7H5.25a.76.76,0,0,0-.75.75v5.5a.76.76,0,0,0,.75.75h3.5a.76.76,0,0,0,.75-.75v-.92h2.25a.75.75,0,0,0,.75-.75V17.42a.75.75,0,0,0-.75-.75H10.54l1.31-1.32a.49.49,0,0,0-.7-.7L9.5,16.29v-.54A.76.76,0,0,0,8.75,15H8V8A4,4,0,0,1,12,4ZM8.5,16v1.67h3v1.66h-3V21h-3V16Z"/><path class="cls-2" d="M17.41,11.22a.52.52,0,0,0-.82,0A7.35,7.35,0,0,0,15.25,14a1.75,1.75,0,0,0,3.5,0A7.35,7.35,0,0,0,17.41,11.22Z"/></g></svg>