<svg xmlns="http://www.w3.org/2000/svg" viewBox="0 0 24 24"><defs><style>.cls-1{fill:none;}.cls-2{fill:#191919;}</style></defs><title>Universe_Electricity_24px</title><g id="Square"><rect class="cls-1" width="24" height="24"/></g><g id="Calque_5" data-name="Calque 5"><path class="cls-2" d="M21,2H3A1,1,0,0,0,2,3V21a1,1,0,0,0,1,1H21a1,1,0,0,0,1-1V3A1,1,0,0,0,21,2ZM20,20H4V4H20Z"/><path class="cls-2" d="M12,19a7,7,0,1,0-7-7A7,7,0,0,0,12,19ZM12,6a6,6,0,1,1-6,6A6,6,0,0,1,12,6Z"/><circle class="cls-2" cx="15" cy="12" r="1"/><circle class="cls-2" cx="9" cy="12" r="1"/></g></svg>