<svg xmlns="http://www.w3.org/2000/svg" viewBox="0 0 24 24"><defs><style>.cls-1{fill:none;}.cls-2{fill:#191919;}</style></defs><title>Universe_Attic_24px</title><g id="Square"><rect class="cls-1" width="24" height="24"/></g><g id="Icon"><path class="cls-2" d="M21.38,6.08a1,1,0,0,0-1.09.21l-14,14a1,1,0,0,0-.21,1.09A1,1,0,0,0,7,22H21a1,1,0,0,0,1-1V7A1,1,0,0,0,21.38,6.08Zm-1.38,9a2.52,2.52,0,0,0-1.33.76,2.83,2.83,0,0,0-4.57,1.44H14a1.73,1.73,0,0,0-.75.18,2.45,2.45,0,0,0-.53-.74L20,9.41ZM9.41,20,12,17.4a1.45,1.45,0,0,1,.44.8,1.79,1.79,0,0,0-.2.8.5.5,0,0,0,1,0,.77.77,0,0,1,1-.69.46.46,0,0,0,.2.05h0a.48.48,0,0,0,.46-.3h0a.42.42,0,0,0,0-.16,1.85,1.85,0,0,1,3.54-.62.5.5,0,1,0,.92-.38,2.8,2.8,0,0,0-.15-.3A1.47,1.47,0,0,1,20,16.1V20Z"/><path class="cls-2" d="M21.71,2.29a1,1,0,0,0-1.42,0L17.09,5.5H15a.5.5,0,0,0,0,1h1.09l-2,2H12a.5.5,0,0,0,0,1h1.09l-2,2H9a.5.5,0,0,0,0,1h1.09l-2,2H6a.5.5,0,0,0,0,1H7.09l-2,2H3a.5.5,0,0,0,0,1H4.09l-1.8,1.79a1,1,0,0,0,0,1.42,1,1,0,0,0,1.42,0l18-18A1,1,0,0,0,21.71,2.29Z"/><circle class="cls-2" cx="16.5" cy="17.5" r="0.25"/><circle class="cls-2" cx="18" cy="18.5" r="0.5"/><circle class="cls-2" cx="16" cy="19" r="0.25"/></g></svg>