<svg xmlns="http://www.w3.org/2000/svg" viewBox="0 0 24 24">
    <g id="Square"> </g>
  <path fill-rule="evenodd" d="M2.167 8.97a1 1 0 0 1-.331-1.03L2.87 4.076a1 1 0 0 1 .88-.737l6.43-.561c2.456-.214 4.507 1.475 4.982 3.674A1 1 0 0 1 16 6h2.5a1 1 0 0 1 .894.553l2.5 5A1 1 0 0 1 22 12v5a1 1 0 0 1-1 1h-1.67a3.001 3.001 0 0 1-5.66 0h-2.34a3.001 3.001 0 0 1-5.66 0H4a1 1 0 0 1-1-1v-4a1 1 0 0 1 1-1h1.849L2.167 8.97ZM8.597 14H5v2h.67a3.001 3.001 0 0 1 2.931-1.998L8.597 14Zm1.196.292A3.01 3.01 0 0 1 11.33 16h2.342A3.01 3.01 0 0 1 15 14.401V14h-3.155c-.646.256-1.35.36-2.052.292ZM14.09 12H15V9.039l-.219.816-.323 1.208a4.45 4.45 0 0 1-.368.937Zm-1.564-1.455.323-1.207.324-1.208.009-.033-3.344 4.183a2.383 2.383 0 0 0 2.688-1.735Zm-3.654 1.342 4.25-5.317a2.701 2.701 0 0 0-1.477-1.595l-4.438 5.553 1.507 1.24c.052.042.105.082.158.12ZM6.435 9.893l-1.348-1.11L7.848 4.99l2.506-.219c.061-.005.122-.008.182-.01l-4.1 5.133Zm-2.5-2.058.379.312 2.214-3.043-1.906.166-.688 2.565ZM20 16h-.67A3.004 3.004 0 0 0 17 14.041V13h3v3Zm-3-5h2.382l-1.5-3H17v3Zm-9.5 6a1 1 0 1 0 2 0 1 1 0 0 0-2 0Zm9-1a1 1 0 1 0 0 2 1 1 0 0 0 0-2Z"/>
</svg>
