<svg xmlns="http://www.w3.org/2000/svg" viewBox="0 0 24 24"><defs><style>.cls-1{fill:none;}.cls-2{fill:#191919;}</style></defs><title>Universe_Heater_24px</title><g id="Square"><rect class="cls-1" width="24" height="24"/></g><g id="Calque_5" data-name="Calque 5"><path class="cls-2" d="M11.63,6.17a.48.48,0,0,0,0,.7A.46.46,0,0,0,12,7a.5.5,0,0,0,.37-.17,2,2,0,0,0,0-2.66,1,1,0,0,1,0-1.34.48.48,0,0,0,0-.7.49.49,0,0,0-.7,0,2,2,0,0,0,0,2.66A1,1,0,0,1,11.63,6.17Z"/><path class="cls-2" d="M8.61,7.19a.5.5,0,0,0,.08.7A.51.51,0,0,0,9,8a.48.48,0,0,0,.39-.19,1.74,1.74,0,0,0,0-2.12.75.75,0,0,1,0-.88.5.5,0,1,0-.78-.62,1.74,1.74,0,0,0,0,2.12A.75.75,0,0,1,8.61,7.19Z"/><path class="cls-2" d="M14.61,7.19a.5.5,0,0,0,.08.7A.51.51,0,0,0,15,8a.48.48,0,0,0,.39-.19,1.74,1.74,0,0,0,0-2.12.75.75,0,0,1,0-.88.5.5,0,1,0-.78-.62,1.74,1.74,0,0,0,0,2.12A.75.75,0,0,1,14.61,7.19Z"/><path class="cls-2" d="M14.91,11.41a7.47,7.47,0,0,1-2-2.73,1,1,0,0,0-1.9,0,7.47,7.47,0,0,1-2,2.73C7.88,12.67,6.5,14.09,6.5,16.5a5.5,5.5,0,0,0,11,0C17.5,14.09,16.12,12.67,14.91,11.41ZM12,20a3.5,3.5,0,0,1-3.5-3.5c0-1.6.94-2.57,2-3.7A15.36,15.36,0,0,0,12,11.12a15.36,15.36,0,0,0,1.47,1.68c1.09,1.13,2,2.1,2,3.7A3.5,3.5,0,0,1,12,20Z"/></g></svg>