<svg xmlns="http://www.w3.org/2000/svg" viewBox="0 0 24 24"><defs><style>.cls-1{fill:none;}.cls-2{fill:#191919;}</style></defs><title>Universe_Terrace_24px</title><g id="Square"><rect class="cls-1" width="24" height="24"/></g><g id="Calque_5" data-name="Calque 5"><path class="cls-2" d="M21,11a6,6,0,0,0-3.31,1H12.5V9h8a1.5,1.5,0,0,0,.64-2.86l-8.5-4a1.51,1.51,0,0,0-1.28,0l-8.5,4A1.5,1.5,0,0,0,3.5,9h8v3H6.31A6,6,0,0,0,3,11a1,1,0,0,0-1,1v5a1,1,0,0,0,1,1h.36l-.85,3.38a.51.51,0,0,0,.37.61H3a.51.51,0,0,0,.49-.38L4.39,18H5.61l.9,3.62A.51.51,0,0,0,7,22h.12a.51.51,0,0,0,.37-.61L6.64,18H8a1,1,0,0,0,1-1,6,6,0,0,0-.35-2H10v1.25a.76.76,0,0,0,.75.75h.75c-.08,3.72-1,4-2.5,4a.5.5,0,0,0,0,1l.43,0,.07,0h5l.08,0L15,22a.5.5,0,0,0,0-1c-1.49,0-2.42-.28-2.5-4h.75a.76.76,0,0,0,.75-.75V15h1.35A6,6,0,0,0,15,17a1,1,0,0,0,1,1h1.36l-.85,3.38a.51.51,0,0,0,.37.61H17a.51.51,0,0,0,.49-.38l.9-3.62h1.22l.9,3.62A.51.51,0,0,0,21,22h.12a.51.51,0,0,0,.37-.61L20.64,18H21a1,1,0,0,0,1-1V12A1,1,0,0,0,21,11ZM12,4.05l6.26,3H5.74ZM4,16V13.13A4,4,0,0,1,6.87,16Zm8,4.23a3.17,3.17,0,0,0,.44.77h-.87A3.15,3.15,0,0,0,12,20.23ZM13,16H11V15h2ZM8.19,14a6,6,0,0,0-.73-1h9.08a6,6,0,0,0-.73,1ZM20,13.13V16H17.13A4,4,0,0,1,20,13.13Z"/></g></svg>