<svg xmlns="http://www.w3.org/2000/svg" viewBox="0 0 24 24">
      <g id="Square"> </g>
  <g clip-path="url(#a)">
    <path fill-rule="evenodd" d="M8 4a4 4 0 0 0-4 4v3.528A5.978 5.978 0 0 1 8 10c1.537 0 2.938.578 4 1.528V8a4 4 0 0 0-4-4ZM2 8v8a6 6 0 0 0 6 6h13a1 1 0 0 0 1-1V10a1 1 0 0 0-1-1h-7V8A6 6 0 0 0 2 8Zm12 5.5v-1.793l.354-.353A.499.499 0 0 0 14.5 11h1.793l-.647.646a.5.5 0 0 0 .708.708l1-1A.499.499 0 0 0 17.5 11h1.793l-.647.646a.5.5 0 0 0 .708.708l.646-.647V13.5a.499.499 0 0 0-.354.146l-1 1a.5.5 0 0 0 .708.708l.646-.647V16.5a.499.499 0 0 0-.354.146l-1 1a.5.5 0 0 0 .708.708l.646-.647V19.5a.499.499 0 0 0-.354.146l-.353.354H17.5a.499.499 0 0 0-.854-.354l-.353.354H14.5a.499.499 0 0 0-.854-.354l-.353.354h-.82a5.998 5.998 0 0 0 1.158-1.924l.723-.722a.5.5 0 0 0-.375-.854A5.9 5.9 0 0 0 14 16v-1.293l.354-.353A.5.5 0 0 0 14 13.5ZM8 20a4 4 0 1 0 0-8 4 4 0 0 0 0 8Zm-1-4a1 1 0 1 1 2 0 1 1 0 0 1-2 0Zm1-3a3 3 0 1 0 0 6 3 3 0 0 0 0-6Zm9.354 1.354a.5.5 0 0 0-.708-.708l-1 1a.5.5 0 0 0 .708.708l1-1Zm-1 4 1-1a.5.5 0 0 0-.708-.708l-1 1a.5.5 0 0 0 .708.708Z"/>
  </g>
  <defs>
    <clipPath id="a">
      <rect width="24" height="24" fill="#fff"/>
    </clipPath>
  </defs>
</svg>
