<svg xmlns="http://www.w3.org/2000/svg" viewBox="0 0 24 24">
      <g id="Square"> </g>
  <path fill-rule="evenodd" d="M19.498 3.808a1 1 0 0 0-.696-1.722l-10.77.038a1 1 0 0 0-.924 1.374L8.42 6.744l-.974.393a2.5 2.5 0 0 0-3.02-.937l-1.855.75a2.5 2.5 0 0 0 1.873 4.635l1.854-.749A2.5 2.5 0 0 0 7.82 8.064l.974-.393 1.31 3.245a1 1 0 0 0 1.62.347l7.774-7.455Zm-8.85 3.113.758 1.876 4.903-4.702-6.793.024.758 1.875.927-.374a.5.5 0 1 1 .374.927l-.927.374Zm-4.824 1.41a.5.5 0 0 0-.65-.276l-1.855.749a.5.5 0 0 0 .375.927l1.854-.75a.5.5 0 0 0 .276-.65ZM17 8.501a1 1 0 0 0-1 1v3H7a1 1 0 0 0-1 1v3H3a1 1 0 0 0-1 1v4a1 1 0 0 0 1 1h18a1 1 0 0 0 1-1v-12a1 1 0 0 0-1-1h-4Zm3 4h-2v-2h2v2Zm-3 2h3v2h-5v-2h2Zm1 4h2v2h-2v-2Zm-2 0v2h-5v-2h5Zm-7 0v2H4v-2h5Zm4-4v2H8v-2h5Z"/>
</svg>
