<svg xmlns="http://www.w3.org/2000/svg" viewBox="0 0 24 24"><defs><style>.cls-1{fill:none;}.cls-2{fill:#999;}</style></defs><title>Universe_Living_24px</title><g id="Square"><rect class="cls-1" width="24" height="24"/></g><g id="Icon"><path class="cls-2" d="M21.16,8.43A1,1,0,0,0,20,9.19l0,.07A8,8,0,0,0,4,9.26l0-.07a1,1,0,0,0-1.95.42l1.85,8.6a1,1,0,0,0,1,.79H6.11l-.56,1.68A1,1,0,0,0,6.18,22,1.25,1.25,0,0,0,6.5,22a1,1,0,0,0,1-.68L8.22,19h7.56l.77,2.32a1,1,0,0,0,.95.68,1.25,1.25,0,0,0,.32-.05,1,1,0,0,0,.63-1.27L17.89,19H19.1a1,1,0,0,0,1-.79l1.85-8.6A1,1,0,0,0,21.16,8.43ZM6,13.72A22.5,22.5,0,0,1,12,13a22.5,22.5,0,0,1,6,.72V15H6ZM12,4a6,6,0,0,1,6,6v1.66A25.61,25.61,0,0,0,12,11a25.61,25.61,0,0,0-6,.66V10A6,6,0,0,1,12,4ZM6,17V16H18v1Z"/></g></svg>