<svg xmlns="http://www.w3.org/2000/svg" viewBox="0 0 24 24">
      <g id="Square"> </g>
  <path fill-rule="evenodd" d="M5.503 4.341a1 1 0 0 0-1.506 0l-1.75 2A1 1 0 0 0 2 7v12a1 1 0 0 0 1 1h3.5a1 1 0 0 0 1-1v-1.5h1.75V19a1 1 0 0 0 1 1h3.5a1 1 0 0 0 1-1v-1.5h1.75V19a1 1 0 0 0 1 1H21a1 1 0 0 0 1-1V7a1 1 0 0 0-.247-.659l-1.75-2a1 1 0 0 0-1.506 0l-1.75 2A1 1 0 0 0 16.5 7v2.5h-1.75V7a1 1 0 0 0-.247-.659l-1.75-2a1 1 0 0 0-1.506 0l-1.75 2A1 1 0 0 0 9.25 7v2.5H7.5V7a1 1 0 0 0-.247-.659l-1.75-2ZM7.5 10.5v1h1.75v-1H7.5Zm1.75 2H7.5v2h1.75v-2Zm0 3H7.5v1h1.75v-1Zm5.5-5v1h1.75v-1h-1.75Zm1.75 2h-1.75v2h1.75v-2Zm0 3h-1.75v1h1.75v-1ZM4 18V7.376l.75-.857.75.857V18H4Zm7.25 0V7.376l.75-.857.75.857V18h-1.5ZM18.5 7.376V18H20V7.376l-.75-.857-.75.857Z"/>
</svg>
