<svg xmlns="http://www.w3.org/2000/svg" viewBox="0 0 24 24">
      <g id="Square"> </g>
  <path fill-rule="evenodd" d="M3 2a1 1 0 0 0-1 1v18a1 1 0 0 0 1 1h18a1 1 0 0 0 1-1V3a1 1 0 0 0-1-1H3Zm1 5.293V4h3.293l-.646.646L4 7.294Zm0 1.414v4.586l.646-.646L9.294 8 7 5.707l-3 3Zm0 6v4.586l1.646-1.647L7.293 16 5 13.707l-1 1ZM4.707 20h2.586L6 18.707 4.707 20Zm4.586 0h-.586l-2-2 1.647-1.646L12 12.707 14.293 15l-1.646 1.646h-.001L9.293 20Zm1.414 0h4.586L13 17.707 10.707 20Zm6 0H20v-3.293L16.707 20ZM20 15.293v-4.586l-4.646 4.646v.001L13.706 17 16 19.293l4-4Zm0-6V4.707l-4.646 4.647L12.707 12 15 14.293l5-5ZM19.293 4h-4.586l-2 2L15 8.293 19.293 4Zm-6 0H8.707l-1 1L10 7.293l1.646-1.647L13.293 4Zm-7.586 9 4.647-4.646L12 6.707 14.293 9l-2.646 2.646L8 15.294 5.707 13Z"/>
</svg>
