<svg xmlns="http://www.w3.org/2000/svg" viewBox="0 0 24 24"><defs><style>.cls-1{fill:none;}.cls-2{fill:#191919;}</style></defs><title>User_Card_IDCard_24px</title><g id="Square"><rect class="cls-1" width="24" height="24"/></g><g id="Calque_5" data-name="Calque 5"><path class="cls-2" d="M21,4H3A1,1,0,0,0,2,5V19a1,1,0,0,0,1,1H21a1,1,0,0,0,1-1V5A1,1,0,0,0,21,4ZM20,18H4V6H20Z"/><path class="cls-2" d="M10,12.5A3.5,3.5,0,0,1,13.5,16h1a4.52,4.52,0,0,0-2.81-4.17,2.5,2.5,0,1,0-3.38,0A4.52,4.52,0,0,0,5.5,16h1A3.5,3.5,0,0,1,10,12.5ZM8.5,10A1.5,1.5,0,1,1,10,11.5,1.5,1.5,0,0,1,8.5,10Z"/><path class="cls-2" d="M15,9h3a.5.5,0,0,0,0-1H15a.5.5,0,0,0,0,1Z"/><path class="cls-2" d="M15,11h3a.5.5,0,0,0,0-1H15a.5.5,0,0,0,0,1Z"/></g></svg>