<svg xmlns="http://www.w3.org/2000/svg" viewBox="0 0 24 24"><defs><style>.cls-1{fill:none;}.cls-2{fill:#999;}</style></defs><title>User_Contact_Mail_24px</title><g id="Square"><rect class="cls-1" width="24" height="24"/></g><g id="Icon"><path class="cls-2" d="M19,7V5a1,1,0,0,0-1-1H6A1,1,0,0,0,5,5V7H3A1,1,0,0,0,2,8V19a1,1,0,0,0,1,1H21a1,1,0,0,0,1-1V8a1,1,0,0,0-1-1Zm-5.08,6.5L20,9.78v7.44ZM9.83,11h4.34L12,12.33ZM17,6V9.27l-1.58,1A.5.5,0,0,0,15,10H9a.5.5,0,0,0-.42.24L7,9.27V6ZM4,9.78,17.45,18H4Z"/><path class="cls-2" d="M9,8.5h6a.5.5,0,0,0,0-1H9a.5.5,0,0,0,0,1Z"/></g></svg>