<svg xmlns="http://www.w3.org/2000/svg" viewBox="0 0 24 24"><defs><style>.cls-1{fill:none;}.cls-2{fill:#191919;}</style></defs><title>User_Card_Gift_24px</title><g id="Square"><rect class="cls-1" width="24" height="24"/></g><g id="Calque_5" data-name="Calque 5"><path class="cls-2" d="M20,7H17.65A3.45,3.45,0,0,0,18,5.5a3.49,3.49,0,0,0-6-2.44A3.49,3.49,0,0,0,6,5.5,3.45,3.45,0,0,0,6.35,7H4A1,1,0,0,0,3,8V21a1,1,0,0,0,1,1H20a1,1,0,0,0,1-1V8A1,1,0,0,0,20,7Zm-1,6.5H13V9h6ZM14.5,4a1.5,1.5,0,0,1,0,3H13V5.5A1.5,1.5,0,0,1,14.5,4ZM8,5.5a1.5,1.5,0,0,1,3,0V7H9.5A1.5,1.5,0,0,1,8,5.5ZM9.5,9H11v4.5H5V9ZM5,15.5h6V20H5ZM13,20V15.5h6V20Z"/></g></svg>