<svg xmlns="http://www.w3.org/2000/svg" viewBox="0 0 24 24"><defs><style>.cls-1{fill:none;}.cls-2{fill:#999;}</style></defs><title>User_Situation_Tenant_24px</title><g id="Square"><rect class="cls-1" width="24" height="24"/></g><g id="Icon"><path class="cls-2" d="M21.69,10.27l-9-8.5a1,1,0,0,0-1.38,0l-9,8.5a1,1,0,1,0,1.38,1.46l.31-.3V21a1,1,0,0,0,1,1H19a1,1,0,0,0,1-1V11.43l.31.3A1,1,0,0,0,21,12a1,1,0,0,0,.73-.31A1,1,0,0,0,21.69,10.27ZM18,20H6V9.54l6-5.66,6,5.66Z"/><path class="cls-2" d="M8.5,11.25A3.5,3.5,0,0,0,9.62,13.8,4,4,0,0,0,8,17v.5a1,1,0,0,0,2,0V17a2,2,0,0,1,4,0v.5a1,1,0,0,0,2,0V17a4,4,0,0,0-1.62-3.2A3.5,3.5,0,1,0,8.5,11.25Zm5,0A1.5,1.5,0,1,1,12,9.75,1.5,1.5,0,0,1,13.5,11.25Z"/></g></svg>