<svg xmlns="http://www.w3.org/2000/svg" viewBox="0 0 24 24">
      <g id="Square"> </g>
  <path fill-rule="evenodd" d="M2 5a1 1 0 0 1 1-1h18a1 1 0 0 1 1 1v14a1 1 0 0 1-1 1H3a1 1 0 0 1-1-1V5Zm2 1v12h16V6H4Zm7.944 9c-.529 0-.943-.154-1.242-.462-.299-.314-.448-.748-.448-1.302V12l-.513.203v-1.034l.513-.204V8h1.025v2.567l.673-.258v1.034l-.673.259v1.422c0 .29.064.517.192.683.128.166.305.25.529.25L11.944 15ZM6 13.975l2.131-2.955h-2.09V9.967h3.34v.877l-2.123 3.03h2.22v1.052h-3.47L6 13.975ZM14 9.5a.5.5 0 0 0-.5.5v4a.5.5 0 0 0 .5.5h4a.5.5 0 0 0 .5-.5v-4a.5.5 0 0 0-.5-.5h-4Zm.5 4v-3h1v3h-1Zm2-2v-1h1v1h-1Zm0 1h1v1h-1v-1Z"/>
</svg>
