<svg xmlns="http://www.w3.org/2000/svg" viewBox="0 0 24 24"><defs><style>.cls-1{fill:none;}.cls-2{fill:#191919;}</style></defs><g id="Square"><rect class="cls-1" width="24" height="24"/></g><g id="Icon"><path class="cls-2" d="M21.18,15.42l-3.92-.71s0,0,0,0l-.77-1a.5.5,0,0,0-.61-.15L12,15.44,8.13,13.55a.5.5,0,0,0-.61.15l-.77,1s0,0,0,0l-3.92.71a1,1,0,0,0-.82,1V21a1,1,0,0,0,1,1H21a1,1,0,0,0,1-1V16.41A1,1,0,0,0,21.18,15.42Zm-5.24-.79.29.38L14,18.12,12.73,16.2Zm-7.88,0,3.21,1.57L10,18.12,7.77,15ZM20,20H4V17.24l3.66-.66,1.93,2.71a.52.52,0,0,0,.41.21h0a.53.53,0,0,0,.41-.22L12,16.9l1.58,2.38a.53.53,0,0,0,.41.22h0a.52.52,0,0,0,.41-.21l1.93-2.71,3.66.66Z"/><path class="cls-2" d="M12,14a5,5,0,0,0,5-5V7.92a4.91,4.91,0,0,0,.85-.67.5.5,0,1,0-.7-.71L17,6.68A5,5,0,0,0,7,7V9A5,5,0,0,0,12,14Zm3-5A3,3,0,0,1,9,9V8.58a4,4,0,0,0,1.76-1.09,5.24,5.24,0,0,0,3.41,1.26A5.69,5.69,0,0,0,15,8.67ZM12,4a3,3,0,0,1,3,3v.67a4.58,4.58,0,0,1-.83.08,4.27,4.27,0,0,1-3.1-1.34L10.65,6l-.35.51a2.89,2.89,0,0,1-1.3,1V7A3,3,0,0,1,12,4Z"/></g></svg>