<svg xmlns="http://www.w3.org/2000/svg" viewBox="0 0 24 24"><defs><style>.cls-1{fill:none;}.cls-2{fill:#191919;}</style></defs><title>User_Account_Customer--Collaborator_24px</title><g id="Square"><rect class="cls-1" width="24" height="24"/></g><g id="Calque_5" data-name="Calque 5"><path class="cls-2" d="M15.21,19.25h3.58a.5.5,0,0,0,.36-.85l-1.8-1.8a.5.5,0,0,0-.7,0l-1.8,1.8A.5.5,0,0,0,15.21,19.25Z"/><path class="cls-2" d="M10,13A5,5,0,1,0,5,8,5,5,0,0,0,10,13Zm0-8A3,3,0,1,1,7,8,3,3,0,0,1,10,5Z"/><path class="cls-2" d="M21.5,14h-9a.49.49,0,0,0-.48.42l0-.05a7.34,7.34,0,0,1-5.64-.71,1,1,0,0,0-.8-.09l-2.85.88a1,1,0,0,0-.71,1V20a1,1,0,0,0,.68.95A25.42,25.42,0,0,0,10,22c.73,0,1.47,0,2.21-.1a.51.51,0,0,0,.29.1h9a.5.5,0,0,0,.5-.5v-7A.5.5,0,0,0,21.5,14ZM4,19.25V16.14l1.75-.53a9.34,9.34,0,0,0,6.25.81v3.49c-.67.06-1.34.09-2,.09A25.1,25.1,0,0,1,4,19.25ZM21,21H13V15h8Z"/></g></svg>