<svg xmlns="http://www.w3.org/2000/svg" viewBox="0 0 24 24"><defs><style>.cls-1{fill:none;}.cls-2{fill:#191919;}</style></defs><g id="Square"><rect class="cls-1" width="24" height="24"/></g><g id="Icon"><path class="cls-2" d="M21.18,15.42l-1.69-.3a4.62,4.62,0,0,0,1-1.6l.29-.9-.87-.35a1.68,1.68,0,0,1-1.06-1.44V8.72a6.81,6.81,0,0,0-13.62,0v2.11a1.66,1.66,0,0,1-1.05,1.43l-.9.35.31.91a4.62,4.62,0,0,0,1,1.6l-1.69.3a1,1,0,0,0-.82,1V21a1,1,0,0,0,1,1H21a1,1,0,0,0,1-1V16.41A1,1,0,0,0,21.18,15.42ZM12,4a4.79,4.79,0,0,1,4.52,3.16,4.24,4.24,0,0,1-5.73-.42A.49.49,0,0,0,10,7,2,2,0,0,1,7.23,8.34,4.76,4.76,0,0,1,12,4Zm3,5V9.5a3,3,0,0,1-6,0,.41.41,0,0,0,0-.16,3,3,0,0,0,1.66-1.4A5.22,5.22,0,0,0,13.9,9.08,5.08,5.08,0,0,0,15,9ZM7.19,10.83V9.38A3.11,3.11,0,0,0,8,9.5v.44H8a4,4,0,0,0,8-.44V8.63a4.6,4.6,0,0,0,.76-.4,4.07,4.07,0,0,1,0,.49v2.11a3.43,3.43,0,0,0,1.37,2.74A2.4,2.4,0,0,1,17,14.4a2.53,2.53,0,0,0-.37-.55l-.16-.18a.49.49,0,0,0-.59-.12L12,15.44,8.13,13.55a.49.49,0,0,0-.59.12l-.16.18A2.53,2.53,0,0,0,7,14.4a2.4,2.4,0,0,1-1.19-.83A3.43,3.43,0,0,0,7.19,10.83Zm9.12,5a1.77,1.77,0,0,1-.68,1.24,1.74,1.74,0,0,1-1.38.35,1.77,1.77,0,0,1-1.2-.77l-.32-.48L16,14.62A1.76,1.76,0,0,1,16.31,15.86Zm-5,.34-.32.48a1.77,1.77,0,0,1-1.2.77,1.74,1.74,0,0,1-1.38-.35A1.78,1.78,0,0,1,8,14.62ZM20,20H4V17.24l2.89-.52a2.71,2.71,0,0,0,2.58,1.75l.44,0a2.8,2.8,0,0,0,1.87-1.21L12,16.9l.22.33a2.8,2.8,0,0,0,1.87,1.21l.44,0a2.71,2.71,0,0,0,2.58-1.75l2.89.52Z"/></g></svg>