<svg xmlns="http://www.w3.org/2000/svg" viewBox="0 0 24 24"><defs><style>.cls-1{fill:none;}.cls-2{fill:#999;}</style></defs><title>Various_Balcony_24px</title><g id="Square"><rect class="cls-1" width="24" height="24"/></g><g id="Icon"><path class="cls-2" d="M21,14a1,1,0,0,0,0-2H3a1,1,0,0,0,0,2H4v6H3.5a1,1,0,0,0,0,2h17a1,1,0,0,0,0-2H20V14ZM6.5,20H5V14H6.5ZM9,20H7.5V14H9Zm2.5,0H10V14h1.5ZM14,20H12.5V14H14Zm2.5,0H15V14h1.5ZM19,20H17.5V14H19Z"/><path class="cls-2" d="M8,7h3.5v4h1V7H16v4h2V3a1,1,0,0,0-1-1H7A1,1,0,0,0,6,3v8H8Zm4.5-3H16V6H12.5ZM8,4h3.5V6H8Z"/></g></svg>