<svg xmlns="http://www.w3.org/2000/svg" viewBox="0 0 24 24"><defs><style>.cls-1{fill:none;}.cls-2{fill:#191919;}</style></defs><title>Various_Administration_24px</title><g id="Square"><rect class="cls-1" width="24" height="24"/></g><g id="Calque_5" data-name="Calque 5"><path class="cls-2" d="M21,20H3a1,1,0,0,0,0,2H21a1,1,0,0,0,0-2Z"/><path class="cls-2" d="M3,12H5v5H4.5a1,1,0,0,0,0,2h15a1,1,0,0,0,0-2H19V12h2a1,1,0,0,0,.93-.64,1,1,0,0,0-.27-1.11l-9-8a1,1,0,0,0-1.32,0l-9,8a1,1,0,0,0-.27,1.11A1,1,0,0,0,3,12Zm4,5V12H9v5Zm4,0V12h2v5Zm6,0H15V12h2ZM12,4.34,18.37,10H5.63Z"/><circle class="cls-2" cx="12" cy="7.5" r="1.5"/></g></svg>