<svg xmlns="http://www.w3.org/2000/svg" viewBox="0 0 24 24"><defs><style>.cls-1{fill:none;}.cls-2{fill:#999;}</style></defs><title>Various_ToolBox_24px</title><g id="Square"><rect class="cls-1" width="24" height="24"/></g><g id="Icon"><path class="cls-2" d="M18,6H17V4a2,2,0,0,0-2-2H9A2,2,0,0,0,7,4V6H6a4,4,0,0,0-4,4v9a1,1,0,0,0,1,1H21a1,1,0,0,0,1-1V10A4,4,0,0,0,18,6ZM9,4h6V6H9ZM20,18H4V13.05H7.5V14a.5.5,0,0,0,1,0v-.95h7V14a.5.5,0,0,0,1,0v-.95H20Zm0-5.95H16.5V11a.5.5,0,0,0-1,0v1.05h-7V11a.5.5,0,0,0-1,0v1.05H4V10A2,2,0,0,1,6,8H18a2,2,0,0,1,2,2Z"/></g></svg>