<svg xmlns="http://www.w3.org/2000/svg" viewBox="0 0 24 24"><defs><style>.cls-1{fill:none;}.cls-2{fill:#191919;}</style></defs><title>Various_Temperature_24px</title><g id="Square"><rect class="cls-1" width="24" height="24"/></g><g id="Calque_5" data-name="Calque 5"><path class="cls-2" d="M16.5,5h3a.5.5,0,0,0,0-1h-3a.5.5,0,0,0,0,1Z"/><path class="cls-2" d="M19.5,7.5h-3a.5.5,0,0,0,0,1h3a.5.5,0,0,0,0-1Z"/><path class="cls-2" d="M19.5,11h-3a.5.5,0,0,0,0,1h3a.5.5,0,0,0,0-1Z"/><path class="cls-2" d="M11,13.71V8H9v5.71a2.5,2.5,0,1,0,2,0Z"/><path class="cls-2" d="M14,11.55V6A4,4,0,0,0,6,6v5.55A5.93,5.93,0,0,0,4,16a6,6,0,0,0,12,0A5.93,5.93,0,0,0,14,11.55ZM10,20a4,4,0,0,1-2.4-7.18l.4-.3V6a2,2,0,0,1,4,0v6.52l.4.3A4,4,0,0,1,10,20Z"/></g></svg>