<svg xmlns="http://www.w3.org/2000/svg" viewBox="0 0 24 24"><defs><style>.cls-1{fill:none;}.cls-2{fill:#191919;}</style></defs><title>Various_PartnerCompany_24px</title><g id="Square"><rect class="cls-1" width="24" height="24"/></g><g id="Calque_5" data-name="Calque 5"><path class="cls-2" d="M21.9,9.88,16.24,4.22a1,1,0,0,0-1.41,0,1,1,0,0,0,0,1.42l-.52.52a.48.48,0,0,1-.22.12l-2.32.64L9.91,6.3a.67.67,0,0,1-.2-.12l-.54-.54a1,1,0,0,0,0-1.42,1,1,0,0,0-1.41,0L2.1,9.88a1,1,0,0,0,.71,1.71,1,1,0,0,0,.7-.3l2.13,2.12-.36.36a1.51,1.51,0,0,0,0,2.12,1.49,1.49,0,0,0,1,.43,1.47,1.47,0,0,0,1.41,1.41,1.49,1.49,0,0,0,.43,1,1.46,1.46,0,0,0,1,.42,1.47,1.47,0,0,0,1.49,1.43,1.47,1.47,0,0,0,1.06-.44l.35-.35.18.18a1.52,1.52,0,0,0,2.12,0,1.53,1.53,0,0,0,.41-.81,1.47,1.47,0,0,0,1.18-.43,1.55,1.55,0,0,0,.42-.81,1.48,1.48,0,0,0,1.6-1.6,1.55,1.55,0,0,0,.81-.42,1.51,1.51,0,0,0,0-2.12l-.36-.36,2.13-2.12h0a1,1,0,0,0,.7.3,1,1,0,0,0,.71-1.71ZM5.84,14.83A.53.53,0,0,1,6,14.47l.35-.35.71.71-.35.35a.51.51,0,0,1-.86-.35ZM7.4,15.89l.36-.35.7.7-.35.36a.5.5,0,0,1-.71-.71Zm1.27,1.77a.49.49,0,0,1,.15-.36L9.17,17l.71.71L9.53,18a.5.5,0,0,1-.71,0A.47.47,0,0,1,8.67,17.66Zm2.27,1.76a.5.5,0,0,1-.71,0,.48.48,0,0,1-.14-.35.5.5,0,0,1,.14-.35l.36-.36.7.71ZM18,15.18a.51.51,0,0,1-.71,0l-1.76-1.77a.51.51,0,0,0-.71,0,.5.5,0,0,0,0,.71l1.77,1.77.17.18a.49.49,0,1,1-.7.7l-.18-.17h0l-1.77-1.77a.5.5,0,0,0-.71,0,.51.51,0,0,0,0,.71l1.77,1.76h0a.48.48,0,0,1,.14.35.47.47,0,0,1-.15.35.5.5,0,0,1-.71,0l-.17-.18-1.59-1.59a.51.51,0,0,0-.71,0A.5.5,0,0,0,12,17l1.59,1.59a.5.5,0,0,1,0,.71.51.51,0,0,1-.71,0l-.17-.18-1.42-1.41L9.88,16.24h0L8.46,14.83l-.7-.71L6.34,12.71h0L4.22,10.59,8.46,6.34,9,6.88a1.59,1.59,0,0,0,.59.37l.6.2L8.11,9.53a1.5,1.5,0,0,0,2.12,2.12l1.27-1.27h2.21a.47.47,0,0,1,.35.15l4,3.94A.5.5,0,0,1,18,15.18Zm-.35-2.47L14.77,9.82a1.52,1.52,0,0,0-1.06-.44H11.09L9.53,10.94a.5.5,0,0,1-.71,0,.5.5,0,0,1,0-.71l2-2,3.5-1A1.52,1.52,0,0,0,15,6.86l.52-.52,4.24,4.25Z"/></g></svg>