<svg xmlns="http://www.w3.org/2000/svg" viewBox="0 0 24 24">
      <g id="Square"> </g>
  <path fill-rule="evenodd" d="M3.5 3a1 1 0 0 1 1-1h10a1 1 0 0 1 1 1v6h4a1 1 0 0 1 1 1v10h.5a1 1 0 1 1 0 2H3a1 1 0 1 1 0-2h.5V3Zm10 1v16h-1v-3a1 1 0 0 0-1-1H8a1 1 0 0 0-1 1v3H5.5V4h8Zm5 7h-3v9h3v-9Zm-8 9v-2H9v2h1.5Zm-3-14.5a1 1 0 0 0 0 2H8a1 1 0 0 0 0-2h-.5Zm3.5 0a1 1 0 1 0 0 2h.5a1 1 0 1 0 0-2H11Zm-3.5 3a1 1 0 0 0 0 2H8a1 1 0 1 0 0-2h-.5Zm3.5 0a1 1 0 1 0 0 2h.5a1 1 0 1 0 0-2H11ZM7.5 12a1 1 0 1 0 0 2H8a1 1 0 1 0 0-2h-.5Zm3.5 0a1 1 0 1 0 0 2h.5a1 1 0 1 0 0-2H11Z"/>
</svg>
