<svg xmlns="http://www.w3.org/2000/svg" viewBox="0 0 24 24"><defs><style>.cls-1{fill:none;}.cls-2{fill:#191919;}</style></defs><title>Various_Door_24px</title><g id="Square"><rect class="cls-1" width="24" height="24"/></g><g id="Calque_5" data-name="Calque 5"><path class="cls-2" d="M18,2H6A1,1,0,0,0,5,3V21a1,1,0,0,0,1,1H18a1,1,0,0,0,1-1V3A1,1,0,0,0,18,2ZM17,20H7V4H17Z"/><path class="cls-2" d="M8.5,10.5h7A.5.5,0,0,0,16,10V5.5a.5.5,0,0,0-.5-.5h-7a.5.5,0,0,0-.5.5V10A.5.5,0,0,0,8.5,10.5ZM9,6h6V9.5H9Z"/><path class="cls-2" d="M8.5,19h7a.5.5,0,0,0,.5-.5V14a.5.5,0,0,0-.5-.5h-7A.5.5,0,0,0,8,14v4.5A.5.5,0,0,0,8.5,19ZM9,14.5h6V18H9Z"/><path class="cls-2" d="M15.5,11.5h-2a.5.5,0,0,0,0,1h2a.5.5,0,0,0,0-1Z"/></g></svg>