<svg xmlns="http://www.w3.org/2000/svg" viewBox="0 0 24 24"><defs><style>.cls-1{fill:none;}.cls-2{fill:#191919;}</style></defs><title>Various_EcoSaving_24px</title><g id="Square"><rect class="cls-1" width="24" height="24"/></g><g id="Calque_5" data-name="Calque 5"><path class="cls-2" d="M17.26,4.15A7.42,7.42,0,0,0,11.88,2,7.5,7.5,0,0,0,7,15a3.12,3.12,0,0,1,1,2.29v.17a1,1,0,0,0,1,1h6a1,1,0,0,0,1-1v-.17A3.21,3.21,0,0,1,17.1,15a7.49,7.49,0,0,0,.16-10.84Zm-1.52,9.37a5.37,5.37,0,0,0-1.67,3H9.93a5.18,5.18,0,0,0-1.64-2.94A5.53,5.53,0,0,1,11.91,4H12a5.5,5.5,0,0,1,5.5,5.5A5.41,5.41,0,0,1,15.74,13.52Z"/><path class="cls-2" d="M12.32,6.11a.51.51,0,0,0-.64,0A5.07,5.07,0,0,0,9.75,10a5,5,0,0,0,1.75,3.72v.78a.5.5,0,0,0,1,0v-.78A5,5,0,0,0,14.25,10,5.07,5.07,0,0,0,12.32,6.11Zm.18,6.14V10.5a.5.5,0,0,0-1,0v1.75A3.78,3.78,0,0,1,10.75,10,3.89,3.89,0,0,1,12,7.17,3.89,3.89,0,0,1,13.25,10,3.78,3.78,0,0,1,12.5,12.25Z"/><path class="cls-2" d="M15,19H9a.5.5,0,0,0,0,1h.78a2.23,2.23,0,0,0,4.44,0H15a.5.5,0,0,0,0-1Zm-3,2a1.23,1.23,0,0,1-1.2-1h2.4A1.23,1.23,0,0,1,12,21Z"/></g></svg>