<svg xmlns="http://www.w3.org/2000/svg" viewBox="0 0 24 24"><defs><style>.cls-1{fill:none;}.cls-2{fill:#191919;}</style></defs><title>Various_IncreaseValue_24px</title><g id="Square"><rect class="cls-1" width="24" height="24"/></g><g id="Calque_5" data-name="Calque 5"><path class="cls-2" d="M21,20H4V3A1,1,0,0,0,2,3V21a1,1,0,0,0,1,1H21a1,1,0,0,0,0-2Z"/><path class="cls-2" d="M8,17a.5.5,0,0,0,0,1c7.24,0,11.09-3.64,11.46-10.82l1.19,1.18A.52.52,0,0,0,21,8.5a.5.5,0,0,0,.35-.86l-2-1.92A.48.48,0,0,0,19,5.5h0a.54.54,0,0,0-.37.14l-2,2a.49.49,0,0,0,0,.7.5.5,0,0,0,.71,0l1.11-1.1C18.1,13.79,14.67,17,8,17Z"/><path class="cls-2" d="M7,8.25a.5.5,0,0,0,.5.5h.74a3.47,3.47,0,0,0,5.55,1.38.5.5,0,0,0,0-.7.49.49,0,0,0-.7,0,2.47,2.47,0,0,1-3.78-.63H12a.5.5,0,0,0,0-1H9A1.9,1.9,0,0,1,9,7.5a1.9,1.9,0,0,1,0-.25h3a.5.5,0,0,0,0-1H9.35a2.46,2.46,0,0,1,3.81-.6.5.5,0,0,0,.68-.74,3.48,3.48,0,0,0-5.6,1.34H7.5a.5.5,0,0,0,0,1H8A1.9,1.9,0,0,0,8,7.5a1.9,1.9,0,0,0,0,.25H7.5A.5.5,0,0,0,7,8.25Z"/></g></svg>