<svg xmlns="http://www.w3.org/2000/svg" viewBox="0 0 24 24"><defs><style>.cls-1{fill:none;}.cls-2{fill:#191919;}</style></defs><title>Various_Survey_24px</title><g id="Square"><rect class="cls-1" width="24" height="24"/></g><g id="Calque_5" data-name="Calque 5"><path class="cls-2" d="M18,2H6A1,1,0,0,0,5,3V21a1,1,0,0,0,1,1H18a1,1,0,0,0,1-1V3A1,1,0,0,0,18,2ZM17,20H7V4H17Z"/><path class="cls-2" d="M9.25,18h5.5a.5.5,0,0,0,0-1H9.25a.5.5,0,0,0,0,1Z"/><path class="cls-2" d="M10,9.5a1,1,0,0,0,1-1,1,1,0,1,1,1.49.87A3,3,0,0,0,11,12a1,1,0,0,0,2,0,1,1,0,0,1,.47-.89A3,3,0,1,0,9,8.5,1,1,0,0,0,10,9.5Z"/><path class="cls-2" d="M12.38,13.58a.6.6,0,0,0-.19-.06,1,1,0,0,0-.9.27,1.05,1.05,0,0,0-.29.71,1,1,0,0,0,1.38.92,1.15,1.15,0,0,0,.33-.21A1,1,0,0,0,13,14.5a1.05,1.05,0,0,0-.29-.71l-.15-.12Z"/></g></svg>