<svg xmlns="http://www.w3.org/2000/svg" viewBox="0 0 24 24"><defs><style>.cls-1{fill:none;}.cls-2{fill:#191919;}</style></defs><title>Various_Pipe_24px</title><g id="Square"><rect class="cls-1" width="24" height="24"/></g><g id="Calque_5" data-name="Calque 5"><path class="cls-2" d="M18,16V8a5,5,0,0,0-5-5H8A1,1,0,0,0,6,3H3.5A1.5,1.5,0,0,0,2,4.5v4A1.5,1.5,0,0,0,3.5,10H6a1,1,0,0,0,2,0h3v6a1,1,0,0,0,0,2v2.5A1.5,1.5,0,0,0,12.5,22h4A1.5,1.5,0,0,0,18,20.5V18a1,1,0,0,0,0-2ZM4,8V5H6V8Zm7.5,0H8V5h5a3,3,0,0,1,3,3v8H13V9.5A1.5,1.5,0,0,0,11.5,8ZM16,20H13V18h3Z"/></g></svg>